<?xml version="1.0" standalone="no"?>
<!DOCTYPE svg PUBLIC "-//W3C//DTD SVG 20010904//EN"
 "http://www.w3.org/TR/2001/REC-SVG-20010904/DTD/svg10.dtd">
<svg version="1.0" xmlns="http://www.w3.org/2000/svg"
 width="268.000000pt" height="268.000000pt" viewBox="0 0 268.000000 268.000000"
 preserveAspectRatio="xMidYMid meet">
<metadata>
Created by potrace 1.14, written by Peter Selinger 2001-2017
</metadata>
<g transform="translate(0.000000,268.000000) scale(0.100000,-0.100000)"
fill="#000000" stroke="none">
<path d="M30 2665 c0 -8 -7 -15 -15 -15 -13 0 -15 -152 -15 -1310 0 -1158 2
-1310 15 -1310 8 0 15 -7 15 -15 0 -13 152 -15 1310 -15 1158 0 1310 2 1310
15 0 8 7 15 15 15 13 0 15 152 15 1310 0 1158 -2 1310 -15 1310 -8 0 -15 7
-15 15 0 13 -152 15 -1310 15 -1158 0 -1310 -2 -1310 -15z m2580 -40 c0 -8 7
-15 15 -15 13 0 15 -148 15 -1270 0 -1122 -2 -1270 -15 -1270 -8 0 -15 -7 -15
-15 0 -13 -148 -15 -1270 -15 -1122 0 -1270 2 -1270 15 0 8 -7 15 -15 15 -13
0 -15 148 -15 1270 0 1122 2 1270 15 1270 8 0 15 7 15 15 0 13 148 15 1270 15
1122 0 1270 -2 1270 -15z"/>
<path d="M798 1973 l-3 -118 -117 -3 -118 -3 0 -539 0 -540 120 0 120 0 0
-115 0 -115 540 0 540 0 0 115 0 114 118 3 117 3 3 298 2 297 -120 0 -120 0 0
60 0 60 120 0 120 0 -2 298 -3 297 -657 3 -657 2 -3 -117z m1152 -183 l0 -140
-472 -2 -473 -3 0 -95 0 -95 358 -3 357 -2 0 -120 0 -120 115 0 115 0 0 -140
0 -140 -115 0 -115 0 0 -115 0 -115 -380 0 -380 0 0 115 0 115 -120 0 -120 0
0 380 0 379 118 3 117 3 3 118 3 117 494 0 495 0 0 -140z"/>
<path d="M1000 1075 l0 -95 335 0 335 0 0 95 0 95 -335 0 -335 0 0 -95z"/>
</g>
</svg>
