# Created by Kenney (www.kenney.nl)

mtllib Blade 1AK Olielle.mtl

v 13 4 -0.45
v 13 3 -0.45
v 13 4 0.45
v 13 3 0.45
v 12 4 -0.45
v 12 4 0.45
v 12 3 0.45
v 12 3 -0.45
v 16 2 -0.45
v 16 1 -0.45
v 16 2 0.45
v 16 1 0.45
v 15 2 -0.45
v 15 2 0.45
v 15 1 0.45
v 15 1 -0.45
v 13 -3 -0.45
v 13 -4 -0.45
v 13 -3 0.45
v 13 -4 0.45
v 12 -3 -0.45
v 12 -3 0.45
v 12 -4 0.45
v 12 -4 -0.45
v 14 3 -0.45
v 14 2 -0.45
v 14 3 0.45
v 14 2 0.45
v 13 2 0.45
v 13 2 -0.45
v 13 0 -1.35
v 13 -1 -1.35
v 13 0 1.35
v 13 -1 1.35
v 12 0 -1.35
v 12 0 1.35
v 12 -1 1.35
v 12 -1 -1.35
v 14 -2 -0.45
v 14 -3 -0.45
v 14 -2 0.45
v 14 -3 0.45
v 13 -2 -0.45
v 13 -2 0.45
v 13 3 -0.9
v 13 2 -0.9
v 13 3 0.9
v 13 2 0.9
v 12 3 -0.9
v 12 3 0.9
v 12 2 0.9
v 12 2 -0.9
v 21 1 -0.9
v 21 0 -0.9
v 21 1 0.9
v 21 0 0.9
v 20 1 -0.9
v 20 1 0.9
v 20 0 0.9
v 20 0 -0.9
v 19 1 -0.9
v 19 0 -0.9
v 19 1 0.9
v 19 0 0.9
v 18 1 -0.9
v 18 1 0.9
v 18 0 0.9
v 18 0 -0.9
v 16 1 -0.9
v 16 0 -0.9
v 16 1 0.9
v 16 0 0.9
v 15 1 -0.9
v 15 1 0.9
v 15 0 0.9
v 15 0 -0.9
v 13 -2 -0.9
v 13 -3 -0.9
v 13 -2 0.9
v 13 -3 0.9
v 12 -2 -0.9
v 12 -2 0.9
v 12 -3 0.9
v 12 -3 -0.9
v 14 2 -0.9
v 14 1 -0.9
v 14 2 0.9
v 14 1 0.9
v 13 1 0.9
v 13 1 -0.9
v 22 1 -0.9
v 22 0 -0.9
v 22 1 0.9
v 22 0 0.9
v 17 1 -0.9
v 17 1 0.9
v 17 0 0.9
v 17 0 -0.9
v 11 1 -0.9
v 11 0 -0.9
v 11 1 0.9
v 11 0 0.9
v 10 1 -0.9
v 10 1 0.9
v 10 0 0.9
v 10 0 -0.9
v 12 0 -0.9
v 12 -1 -0.9
v 12 0 0.9
v 12 -1 0.9
v 11 -1 0.9
v 11 -1 -0.9
v 14 -1 -0.9
v 14 -2 -0.9
v 14 -1 0.9
v 14 -2 0.9
v 13 -1 -0.9
v 13 -1 0.9
v 13 2 -1.35
v 13 1 -1.35
v 13 2 1.35
v 13 1 1.35
v 12 2 -1.35
v 12 2 1.35
v 12 1 1.35
v 12 1 -1.35
v 23 1 -0.9
v 23 0 -0.9
v 23 1 0.9
v 23 0 0.9
v 14 0 -0.9
v 14 0 0.9
v 13 0 0.9
v 13 0 -0.9
v 12 1 -0.9
v 12 1 0.9
v 16 -1 -0.9
v 16 -1 0.9
v 15 -1 0.9
v 15 -1 -0.9
v 13 -2 -1.35
v 13 -2 1.35
v 12 -2 1.35
v 12 -2 -1.35
v 17 -1 -0.9
v 17 -1 0.9
v 23 -1 -0.9
v 23 -1 0.9
v 22 -1 0.9
v 22 -1 -0.9
v 21 -1 -0.9
v 21 -1 0.9
v 20 -1 0.9
v 20 -1 -0.9
v 19 -1 -0.9
v 19 -1 0.9
v 18 -1 0.9
v 18 -1 -0.9
v 16 -1 -0.45
v 16 -2 -0.45
v 16 -1 0.45
v 16 -2 0.45
v 15 -1 -0.45
v 15 -1 0.45
v 15 -2 0.45
v 15 -2 -0.45
v 10 1 -0.45
v 10 0 -0.45
v 10 1 0.45
v 10 0 0.45
v 7 1 -0.45
v 7 1 0.45
v 7 0 0.45
v 7 0 -0.45
v -8 1 -0.45
v -8 1 0.45
v -8 0 0.45
v -8 0 -0.45
v -11 1 -0.45
v -11 0 -0.45
v -11 1 0.45
v -11 0 0.45
v -21 1 -0.45
v -21 1 0.45
v -21 0 0.45
v -21 0 -0.45
v -22 1 -0.45
v -22 1 0.45
v -22 0 0.45
v -22 0 -0.45
v -23 1 -0.45
v -23 1 0.45
v -23 0 0.45
v -23 0 -0.45
v -7 0 -0.45
v -7 -1 -0.45
v -7 0 0.45
v -7 -1 0.45
v -10 0 -0.45
v -10 0 0.45
v -10 -1 0.45
v -10 -1 -0.45
v -21 -1 -0.45
v -21 -1 0.45
v -22 -1 0.45
v -22 -1 -0.45
v 11 0 -0.45
v 11 -1 -0.45
v 11 0 0.45
v 11 -1 0.45

vn 1 0 0
vn 0 1 0
vn 0 -1 0
vn -1 0 0
vn 0 0 -1
vn 0 0 1

vt -19.68504 19.68504
vt 19.68504 19.68504
vt -19.68504 -19.68504
vt 0 NaN
vt 0 0
vt 0 NaN
vt 0 NaN
vt 0 NaN
vt 0 NaN
vt 0 NaN
vt 19.68504 -19.68504
vt 0 NaN
vt 0 NaN
vt 0 NaN
vt 0 NaN
vt 0 NaN
vt 0 NaN
vt 0 NaN
vt 0 NaN
vt 0 NaN
vt 0 NaN
vt 0 NaN
vt 0 NaN
vt 0 NaN
vt 0 NaN
vt 0 NaN
vt 0 NaN
vt 0 NaN
vt 0 NaN
vt 0 NaN
vt 0 NaN
vt 0 NaN
vt 0 NaN
vt 0 NaN
vt 0 NaN
vt 0 NaN
vt 0 NaN
vt 0 NaN
vt 0 NaN
vt 0 NaN
vt 0 NaN
vt 0 NaN
vt 0 NaN
vt 0 NaN
vt 0 NaN
vt 0 NaN
vt 0 NaN
vt 0 NaN
vt 0 NaN
vt 0 NaN
vt 0 NaN
vt 0 NaN
vt 0 NaN
vt 0 NaN
vt 0 NaN
vt 0 NaN
vt 0 NaN
vt 0 NaN
vt 0 NaN
vt 0 NaN
vt 0 NaN
vt 0 NaN
vt 0 NaN
vt 0 NaN
vt 0 NaN
vt 0 NaN
vt 0 NaN
vt 0 NaN
vt 0 NaN
vt 0 NaN
vt 0 NaN
vt 0 NaN
vt 0 NaN
vt 0 NaN
vt 0 NaN
vt 0 NaN
vt 0 NaN
vt 0 NaN
vt 0 NaN
vt 0 NaN
vt 0 NaN
vt 0 NaN
vt 0 NaN
vt 0 NaN
vt 0 NaN
vt 0 NaN
vt 0 NaN
vt 0 NaN
vt 0 NaN
vt 0 NaN
vt 0 NaN
vt 0 NaN
vt 0 NaN
vt 0 NaN
vt 0 NaN
vt 0 NaN
vt 0 NaN
vt 0 NaN
vt 0 NaN
vt 0 NaN
vt 0 NaN
vt 0 NaN
vt 0 NaN
vt 0 NaN
vt 0 NaN
vt 0 NaN
vt 0 NaN
vt 0 NaN
vt 0 NaN
vt 0 NaN
vt 0 NaN
vt 0 NaN
vt 0 NaN
vt 0 NaN
vt 0 NaN
vt 0 NaN
vt 0 NaN
vt 0 NaN
vt 0 NaN
vt 0 NaN
vt 0 NaN
vt 0 NaN
vt 0 NaN
vt 0 NaN
vt 0 NaN
vt 0 NaN
vt 0 NaN
vt 0 NaN
vt 0 NaN
vt 0 NaN
vt 0 NaN
vt 0 NaN
vt 0 NaN
vt 0 NaN
vt 0 NaN
vt 0 NaN
vt 0 NaN
vt 0 NaN
vt 0 NaN
vt 0 NaN
vt 0 NaN
vt 0 NaN
vt 0 NaN
vt 0 NaN
vt 0 NaN
vt 0 NaN
vt 0 NaN
vt 0 NaN
vt 0 NaN
vt 0 NaN
vt 0 NaN
vt 0 NaN
vt 0 NaN
vt 0 NaN
vt 0 NaN
vt 0 NaN
vt 0 NaN
vt 0 NaN
vt 0 NaN
vt 0 NaN
vt 0 NaN
vt 0 NaN
vt 0 NaN
vt 0 NaN
vt 0 NaN
vt 0 NaN
vt 0 NaN
vt 0 NaN
vt 0 NaN
vt 0 NaN
vt 0 NaN
vt 0 NaN
vt 0 NaN
vt 0 NaN
vt 0 NaN
vt 0 NaN
vt 0 NaN
vt 0 NaN
vt 0 NaN
vt 0 NaN
vt 0 NaN
vt 0 NaN
vt 0 NaN
vt 0 NaN
vt 0 NaN
vt 0 NaN
vt 0 NaN
vt 0 NaN
vt 0 NaN
vt 0 NaN
vt 0 NaN
vt 0 NaN
vt 0 NaN
vt 0 NaN
vt 0 NaN
vt 0 NaN
vt 0 NaN
vt 0 NaN
vt 0 NaN

usemtl color2

f 3/3/1 2/2/1 1/1/1
f 2/3/1 3/2/1 4/1/1
f 5/3/2 3/2/2 1/1/2
f 3/3/2 5/2/2 6/1/2
f 7/5/3 2/5/3 4/4/3
f 2/5/3 7/5/3 8/6/3
f 7/5/4 5/5/4 8/7/4
f 5/5/4 7/5/4 6/8/4
f 5/5/5 2/5/5 8/9/5
f 2/5/5 5/5/5 1/10/5
f 3/2/6 7/3/6 4/11/6
f 7/3/6 3/2/6 6/1/6
f 3/3/1 2/2/1 1/1/1
f 2/3/1 3/2/1 4/1/1
f 5/3/2 3/2/2 1/1/2
f 3/3/2 5/2/2 6/1/2
f 7/5/3 2/5/3 4/4/3
f 2/5/3 7/5/3 8/6/3
f 7/5/4 5/5/4 8/7/4
f 5/5/4 7/5/4 6/8/4
f 5/5/5 2/5/5 8/9/5
f 2/5/5 5/5/5 1/10/5
f 3/2/6 7/3/6 4/11/6
f 7/3/6 3/2/6 6/1/6
f 11/3/1 10/2/1 9/1/1
f 10/3/1 11/2/1 12/1/1
f 13/3/2 11/2/2 9/1/2
f 11/3/2 13/2/2 14/1/2
f 15/5/3 10/5/3 12/12/3
f 10/5/3 15/5/3 16/13/3
f 15/5/4 13/5/4 16/14/4
f 13/5/4 15/5/4 14/15/4
f 13/5/5 10/5/5 16/16/5
f 10/5/5 13/5/5 9/17/5
f 11/2/6 15/3/6 12/11/6
f 15/3/6 11/2/6 14/1/6
f 19/3/1 18/2/1 17/1/1
f 18/3/1 19/2/1 20/1/1
f 21/3/2 19/2/2 17/1/2
f 19/3/2 21/2/2 22/1/2
f 23/5/3 18/5/3 20/18/3
f 18/5/3 23/5/3 24/19/3
f 23/5/4 21/5/4 24/20/4
f 21/5/4 23/5/4 22/21/4
f 21/5/5 18/5/5 24/22/5
f 18/5/5 21/5/5 17/23/5
f 19/2/6 23/3/6 20/11/6
f 23/3/6 19/2/6 22/1/6

usemtl color3

f 27/3/1 26/2/1 25/1/1
f 26/3/1 27/2/1 28/1/1
f 2/3/2 27/2/2 25/1/2
f 27/3/2 2/2/2 4/1/2
f 29/5/3 26/5/3 28/24/3
f 26/5/3 29/5/3 30/25/3
f 29/5/4 2/5/4 30/26/4
f 2/5/4 29/5/4 4/27/4
f 2/5/5 26/5/5 30/28/5
f 26/5/5 2/5/5 25/29/5
f 27/2/6 29/3/6 28/11/6
f 29/3/6 27/2/6 4/1/6
f 33/3/1 32/2/1 31/1/1
f 32/3/1 33/2/1 34/1/1
f 35/3/2 33/2/2 31/1/2
f 33/3/2 35/2/2 36/1/2
f 37/5/3 32/5/3 34/30/3
f 32/5/3 37/5/3 38/31/3
f 37/5/4 35/5/4 38/32/4
f 35/5/4 37/5/4 36/33/4
f 35/5/5 32/5/5 38/34/5
f 32/5/5 35/5/5 31/35/5
f 33/2/6 37/3/6 34/11/6
f 37/3/6 33/2/6 36/1/6
f 41/3/1 40/2/1 39/1/1
f 40/3/1 41/2/1 42/1/1
f 43/3/2 41/2/2 39/1/2
f 41/3/2 43/2/2 44/1/2
f 19/5/3 40/5/3 42/36/3
f 40/5/3 19/5/3 17/37/3
f 19/5/4 43/5/4 17/38/4
f 43/5/4 19/5/4 44/39/4
f 43/5/5 40/5/5 17/23/5
f 40/5/5 43/5/5 39/40/5
f 41/2/6 19/3/6 42/11/6
f 19/3/6 41/2/6 44/1/6

usemtl color4

f 47/3/1 46/2/1 45/1/1
f 46/3/1 47/2/1 48/1/1
f 49/3/2 47/2/2 45/1/2
f 47/3/2 49/2/2 50/1/2
f 51/5/3 46/5/3 48/41/3
f 46/5/3 51/5/3 52/42/3
f 51/5/4 49/5/4 52/43/4
f 49/5/4 51/5/4 50/44/4
f 49/5/5 46/5/5 52/45/5
f 46/5/5 49/5/5 45/46/5
f 47/2/6 51/3/6 48/11/6
f 51/3/6 47/2/6 50/1/6
f 55/3/1 54/2/1 53/1/1
f 54/3/1 55/2/1 56/1/1
f 57/3/2 55/2/2 53/1/2
f 55/3/2 57/2/2 58/1/2
f 59/5/3 54/5/3 56/47/3
f 54/5/3 59/5/3 60/48/3
f 59/5/4 57/5/4 60/49/4
f 57/5/4 59/5/4 58/50/4
f 57/5/5 54/5/5 60/51/5
f 54/5/5 57/5/5 53/52/5
f 55/2/6 59/3/6 56/11/6
f 59/3/6 55/2/6 58/1/6
f 63/3/1 62/2/1 61/1/1
f 62/3/1 63/2/1 64/1/1
f 65/3/2 63/2/2 61/1/2
f 63/3/2 65/2/2 66/1/2
f 67/5/3 62/5/3 64/53/3
f 62/5/3 67/5/3 68/54/3
f 67/5/4 65/5/4 68/55/4
f 65/5/4 67/5/4 66/56/4
f 65/5/5 62/5/5 68/57/5
f 62/5/5 65/5/5 61/58/5
f 63/2/6 67/3/6 64/11/6
f 67/3/6 63/2/6 66/1/6
f 71/3/1 70/2/1 69/1/1
f 70/3/1 71/2/1 72/1/1
f 73/3/2 71/2/2 69/1/2
f 71/3/2 73/2/2 74/1/2
f 75/5/3 70/5/3 72/59/3
f 70/5/3 75/5/3 76/60/3
f 75/5/4 73/5/4 76/61/4
f 73/5/4 75/5/4 74/62/4
f 73/5/5 70/5/5 76/63/5
f 70/5/5 73/5/5 69/64/5
f 71/2/6 75/3/6 72/11/6
f 75/3/6 71/2/6 74/1/6
f 79/3/1 78/2/1 77/1/1
f 78/3/1 79/2/1 80/1/1
f 81/3/2 79/2/2 77/1/2
f 79/3/2 81/2/2 82/1/2
f 83/5/3 78/5/3 80/65/3
f 78/5/3 83/5/3 84/66/3
f 83/5/4 81/5/4 84/67/4
f 81/5/4 83/5/4 82/68/4
f 81/5/5 78/5/5 84/69/5
f 78/5/5 81/5/5 77/70/5
f 79/2/6 83/3/6 80/11/6
f 83/3/6 79/2/6 82/1/6

usemtl color6

f 87/3/1 86/2/1 85/1/1
f 86/3/1 87/2/1 88/1/1
f 46/3/2 87/2/2 85/1/2
f 87/3/2 46/2/2 48/1/2
f 89/5/3 86/5/3 88/71/3
f 86/5/3 89/5/3 90/72/3
f 89/5/4 46/5/4 90/73/4
f 46/5/4 89/5/4 48/74/4
f 46/5/5 86/5/5 90/75/5
f 86/5/5 46/5/5 85/76/5
f 87/2/6 89/3/6 88/11/6
f 89/3/6 87/2/6 48/1/6
f 93/3/1 92/2/1 91/1/1
f 92/3/1 93/2/1 94/1/1
f 53/3/2 93/2/2 91/1/2
f 93/3/2 53/2/2 55/1/2
f 56/47/3 92/5/3 94/77/3
f 92/5/3 56/47/3 54/5/3
f 56/5/4 53/5/4 54/78/4
f 53/5/4 56/5/4 55/79/4
f 53/52/5 92/5/5 54/5/5
f 92/5/5 53/52/5 91/80/5
f 93/2/6 56/3/6 94/11/6
f 56/3/6 93/2/6 55/1/6
f 58/3/1 60/2/1 57/1/1
f 60/3/1 58/2/1 59/1/1
f 61/3/2 58/2/2 57/1/2
f 58/3/2 61/2/2 63/1/2
f 64/53/3 60/48/3 59/5/3
f 60/48/3 64/53/3 62/5/3
f 64/5/4 61/5/4 62/81/4
f 61/5/4 64/5/4 63/82/4
f 61/58/5 60/51/5 62/5/5
f 60/51/5 61/58/5 57/5/5
f 58/2/6 64/3/6 59/11/6
f 64/3/6 58/2/6 63/1/6
f 66/3/1 68/2/1 65/1/1
f 68/3/1 66/2/1 67/1/1
f 95/3/2 66/2/2 65/1/2
f 66/3/2 95/2/2 96/1/2
f 97/5/3 68/54/3 67/5/3
f 68/54/3 97/5/3 98/83/3
f 97/5/4 95/5/4 98/84/4
f 95/5/4 97/5/4 96/85/4
f 95/5/5 68/57/5 98/86/5
f 68/57/5 95/5/5 65/5/5
f 66/2/6 97/3/6 67/11/6
f 97/3/6 66/2/6 96/1/6
f 101/3/1 100/2/1 99/1/1
f 100/3/1 101/2/1 102/1/1
f 103/3/2 101/2/2 99/1/2
f 101/3/2 103/2/2 104/1/2
f 105/5/3 100/5/3 102/87/3
f 100/5/3 105/5/3 106/88/3
f 105/5/4 103/5/4 106/89/4
f 103/5/4 105/5/4 104/90/4
f 103/5/5 100/5/5 106/91/5
f 100/5/5 103/5/5 99/92/5
f 101/2/6 105/3/6 102/11/6
f 105/3/6 101/2/6 104/1/6
f 109/3/1 108/2/1 107/1/1
f 108/3/1 109/2/1 110/1/1
f 100/3/2 109/2/2 107/1/2
f 109/3/2 100/2/2 102/1/2
f 111/5/3 108/5/3 110/93/3
f 108/5/3 111/5/3 112/94/3
f 111/5/4 100/5/4 112/95/4
f 100/5/4 111/5/4 102/96/4
f 100/5/5 108/5/5 112/97/5
f 108/5/5 100/5/5 107/98/5
f 109/2/6 111/3/6 110/11/6
f 111/3/6 109/2/6 102/1/6
f 115/3/1 114/2/1 113/1/1
f 114/3/1 115/2/1 116/1/1
f 117/3/2 115/2/2 113/1/2
f 115/3/2 117/2/2 118/1/2
f 79/5/3 114/5/3 116/99/3
f 114/5/3 79/5/3 77/100/3
f 79/5/4 117/5/4 77/101/4
f 117/5/4 79/5/4 118/102/4
f 117/5/5 114/5/5 77/70/5
f 114/5/5 117/5/5 113/103/5
f 115/2/6 79/3/6 116/11/6
f 79/3/6 115/2/6 118/1/6

usemtl color7

f 121/3/1 120/2/1 119/1/1
f 120/3/1 121/2/1 122/1/1
f 123/3/2 121/2/2 119/1/2
f 121/3/2 123/2/2 124/1/2
f 125/5/3 120/5/3 122/104/3
f 120/5/3 125/5/3 126/105/3
f 125/5/4 123/5/4 126/106/4
f 123/5/4 125/5/4 124/107/4
f 123/5/5 120/5/5 126/108/5
f 120/5/5 123/5/5 119/109/5
f 121/2/6 125/3/6 122/11/6
f 125/3/6 121/2/6 124/1/6
f 129/3/1 128/2/1 127/1/1
f 128/3/1 129/2/1 130/1/1
f 91/3/2 129/2/2 127/1/2
f 129/3/2 91/2/2 93/1/2
f 94/77/3 128/5/3 130/110/3
f 128/5/3 94/77/3 92/5/3
f 94/5/4 91/5/4 92/111/4
f 91/5/4 94/5/4 93/112/4
f 91/80/5 128/5/5 92/5/5
f 128/5/5 91/80/5 127/113/5
f 129/2/6 94/3/6 130/11/6
f 94/3/6 129/2/6 93/1/6
f 88/3/1 131/2/1 86/1/1
f 131/3/1 88/2/1 132/1/1
f 90/3/2 88/2/2 86/1/2
f 88/3/2 90/2/2 89/1/2
f 133/5/3 131/5/3 132/114/3
f 131/5/3 133/5/3 134/115/3
f 133/5/4 90/73/4 134/116/4
f 90/73/4 133/5/4 89/5/4
f 90/75/5 131/5/5 134/117/5
f 131/5/5 90/75/5 86/5/5
f 88/2/6 133/3/6 132/11/6
f 133/3/6 88/2/6 89/1/6
f 136/3/1 107/2/1 135/1/1
f 107/3/1 136/2/1 109/1/1
f 99/3/2 136/2/2 135/1/2
f 136/3/2 99/2/2 101/1/2
f 102/87/3 107/5/3 109/118/3
f 107/5/3 102/87/3 100/5/3
f 102/96/4 99/5/4 100/5/4
f 99/5/4 102/96/4 101/119/4
f 99/92/5 107/98/5 100/5/5
f 107/98/5 99/92/5 135/120/5
f 136/2/6 102/3/6 109/11/6
f 102/3/6 136/2/6 101/1/6
f 72/3/1 137/2/1 70/1/1
f 137/3/1 72/2/1 138/1/1
f 76/3/2 72/2/2 70/1/2
f 72/3/2 76/2/2 75/1/2
f 139/5/3 137/5/3 138/121/3
f 137/5/3 139/5/3 140/122/3
f 139/5/4 76/61/4 140/123/4
f 76/61/4 139/5/4 75/5/4
f 76/63/5 137/5/5 140/124/5
f 137/5/5 76/63/5 70/5/5
f 72/2/6 139/3/6 138/11/6
f 139/3/6 72/2/6 75/1/6
f 34/3/1 141/2/1 32/1/1
f 141/3/1 34/2/1 142/1/1
f 38/3/2 34/2/2 32/1/2
f 34/3/2 38/2/2 37/1/2
f 143/5/3 141/5/3 142/125/3
f 141/5/3 143/5/3 144/126/3
f 143/5/4 38/32/4 144/127/4
f 38/32/4 143/5/4 37/5/4
f 38/34/5 141/5/5 144/128/5
f 141/5/5 38/34/5 32/5/5
f 34/2/6 143/3/6 142/11/6
f 143/3/6 34/2/6 37/1/6

usemtl color5

f 96/3/1 145/2/1 95/1/1
f 145/3/1 96/2/1 146/1/1
f 69/3/2 96/2/2 95/1/2
f 96/3/2 69/2/2 71/1/2
f 138/121/3 145/5/3 146/129/3
f 145/5/3 138/121/3 137/5/3
f 138/5/4 69/5/4 137/130/4
f 69/5/4 138/5/4 71/131/4
f 69/64/5 145/5/5 137/5/5
f 145/5/5 69/64/5 95/5/5
f 96/2/6 138/3/6 146/11/6
f 138/3/6 96/2/6 71/1/6
f 74/3/1 140/2/1 73/1/1
f 140/3/1 74/2/1 139/1/1
f 86/3/2 74/2/2 73/1/2
f 74/3/2 86/2/2 88/1/2
f 115/5/3 140/122/3 139/5/3
f 140/122/3 115/5/3 113/132/3
f 115/5/4 86/5/4 113/133/4
f 86/5/4 115/5/4 88/134/4
f 86/5/5 140/124/5 113/103/5
f 140/124/5 86/5/5 73/5/5
f 74/2/6 115/3/6 139/11/6
f 115/3/6 74/2/6 88/1/6
f 122/3/1 31/2/1 120/1/1
f 31/3/1 122/2/1 33/1/1
f 126/3/2 122/2/2 120/1/2
f 122/3/2 126/2/2 125/1/2
f 36/5/3 31/5/3 33/135/3
f 31/5/3 36/5/3 35/136/3
f 36/33/4 126/106/4 35/5/4
f 126/106/4 36/33/4 125/5/4
f 126/108/5 31/35/5 35/5/5
f 31/35/5 126/108/5 120/5/5
f 122/2/6 36/3/6 33/11/6
f 36/3/6 122/2/6 125/1/6
f 130/3/1 147/2/1 128/1/1
f 147/3/1 130/2/1 148/1/1
f 92/3/2 130/2/2 128/1/2
f 130/3/2 92/2/2 94/1/2
f 149/5/3 147/5/3 148/137/3
f 147/5/3 149/5/3 150/138/3
f 149/5/4 92/111/4 150/139/4
f 92/111/4 149/5/4 94/5/4
f 92/5/5 147/5/5 150/140/5
f 147/5/5 92/5/5 128/5/5
f 130/2/6 149/3/6 148/11/6
f 149/3/6 130/2/6 94/1/6
f 56/3/1 151/2/1 54/1/1
f 151/3/1 56/2/1 152/1/1
f 60/3/2 56/2/2 54/1/2
f 56/3/2 60/2/2 59/1/2
f 153/5/3 151/5/3 152/141/3
f 151/5/3 153/5/3 154/142/3
f 153/5/4 60/49/4 154/143/4
f 60/49/4 153/5/4 59/5/4
f 60/51/5 151/5/5 154/144/5
f 151/5/5 60/51/5 54/5/5
f 56/2/6 153/3/6 152/11/6
f 153/3/6 56/2/6 59/1/6
f 64/3/1 155/2/1 62/1/1
f 155/3/1 64/2/1 156/1/1
f 68/3/2 64/2/2 62/1/2
f 64/3/2 68/2/2 67/1/2
f 157/5/3 155/5/3 156/145/3
f 155/5/3 157/5/3 158/146/3
f 157/5/4 68/55/4 158/147/4
f 68/55/4 157/5/4 67/5/4
f 68/57/5 155/5/5 158/148/5
f 155/5/5 68/57/5 62/5/5
f 64/2/6 157/3/6 156/11/6
f 157/3/6 64/2/6 67/1/6
f 132/3/1 113/2/1 131/1/1
f 113/3/1 132/2/1 115/1/1
f 134/3/2 132/2/2 131/1/2
f 132/3/2 134/2/2 133/1/2
f 118/5/3 113/132/3 115/5/3
f 113/132/3 118/5/3 117/149/3
f 118/102/4 134/116/4 117/5/4
f 134/116/4 118/102/4 133/5/4
f 134/117/5 113/103/5 117/5/5
f 113/103/5 134/117/5 131/5/5
f 132/2/6 118/3/6 115/11/6
f 118/3/6 132/2/6 133/1/6
f 161/3/1 160/2/1 159/1/1
f 160/3/1 161/2/1 162/1/1
f 163/3/2 161/2/2 159/1/2
f 161/3/2 163/2/2 164/1/2
f 165/5/3 160/5/3 162/150/3
f 160/5/3 165/5/3 166/151/3
f 165/5/4 163/5/4 166/152/4
f 163/5/4 165/5/4 164/153/4
f 163/5/5 160/5/5 166/154/5
f 160/5/5 163/5/5 159/155/5
f 161/2/6 165/3/6 162/11/6
f 165/3/6 161/2/6 164/1/6

usemtl color11

f 169/3/1 168/2/1 167/1/1
f 168/3/1 169/2/1 170/1/1
f 171/3/2 169/2/2 167/1/2
f 169/3/2 171/2/2 172/1/2
f 173/5/3 168/5/3 170/156/3
f 168/5/3 173/5/3 174/157/3
f 173/5/4 171/5/4 174/158/4
f 171/5/4 173/5/4 172/159/4
f 171/5/5 168/5/5 174/160/5
f 168/5/5 171/5/5 167/161/5
f 169/2/6 173/3/6 170/11/6
f 173/3/6 169/2/6 172/1/6

usemtl color12

f 172/3/1 174/2/1 171/1/1
f 174/3/1 172/2/1 173/1/1
f 175/3/2 172/2/2 171/1/2
f 172/3/2 175/2/2 176/1/2
f 177/5/3 174/157/3 173/5/3
f 174/157/3 177/5/3 178/162/3
f 177/5/4 175/5/4 178/163/4
f 175/5/4 177/5/4 176/164/4
f 175/5/5 174/160/5 178/165/5
f 174/160/5 175/5/5 171/5/5
f 172/2/6 177/3/6 173/11/6
f 177/3/6 172/2/6 176/1/6
f 181/3/1 180/2/1 179/1/1
f 180/3/1 181/2/1 182/1/1
f 183/3/2 181/2/2 179/1/2
f 181/3/2 183/2/2 184/1/2
f 185/5/3 180/5/3 182/166/3
f 180/5/3 185/5/3 186/167/3
f 185/5/4 183/5/4 186/168/4
f 183/5/4 185/5/4 184/169/4
f 183/5/5 180/5/5 186/170/5
f 180/5/5 183/5/5 179/171/5
f 181/2/6 185/3/6 182/11/6
f 185/3/6 181/2/6 184/1/6

usemtl color13

f 176/3/1 178/2/1 175/1/1
f 178/3/1 176/2/1 177/1/1
f 179/3/2 176/2/2 175/1/2
f 176/3/2 179/2/2 181/1/2
f 182/166/3 178/162/3 177/5/3
f 178/162/3 182/166/3 180/5/3
f 182/5/4 179/5/4 180/172/4
f 179/5/4 182/5/4 181/173/4
f 179/171/5 178/165/5 180/5/5
f 178/165/5 179/171/5 175/5/5
f 176/2/6 182/3/6 177/11/6
f 182/3/6 176/2/6 181/1/6
f 184/3/1 186/2/1 183/1/1
f 186/3/1 184/2/1 185/1/1
f 187/3/2 184/2/2 183/1/2
f 184/3/2 187/2/2 188/1/2
f 189/5/3 186/167/3 185/5/3
f 186/167/3 189/5/3 190/174/3
f 189/5/4 187/5/4 190/175/4
f 187/5/4 189/5/4 188/176/4
f 187/5/5 186/170/5 190/177/5
f 186/170/5 187/5/5 183/5/5
f 184/2/6 189/3/6 185/11/6
f 189/3/6 184/2/6 188/1/6

usemtl color10

f 188/3/1 190/2/1 187/1/1
f 190/3/1 188/2/1 189/1/1
f 191/3/2 188/2/2 187/1/2
f 188/3/2 191/2/2 192/1/2
f 193/5/3 190/174/3 189/5/3
f 190/174/3 193/5/3 194/178/3
f 193/5/4 191/5/4 194/179/4
f 191/5/4 193/5/4 192/180/4
f 191/5/5 190/177/5 194/181/5
f 190/177/5 191/5/5 187/5/5
f 188/2/6 193/3/6 189/11/6
f 193/3/6 188/2/6 192/1/6
f 197/3/1 196/2/1 195/1/1
f 196/3/1 197/2/1 198/1/1
f 199/3/2 197/2/2 195/1/2
f 197/3/2 199/2/2 200/1/2
f 201/5/3 196/5/3 198/182/3
f 196/5/3 201/5/3 202/183/3
f 201/5/4 199/5/4 202/184/4
f 199/5/4 201/5/4 200/185/4
f 199/5/5 196/5/5 202/186/5
f 196/5/5 199/5/5 195/187/5
f 197/2/6 201/3/6 198/11/6
f 201/3/6 197/2/6 200/1/6
f 185/3/1 203/2/1 186/1/1
f 203/3/1 185/2/1 204/1/1
f 190/3/2 185/2/2 186/1/2
f 185/3/2 190/2/2 189/1/2
f 205/5/3 203/5/3 204/188/3
f 203/5/3 205/5/3 206/189/3
f 205/5/4 190/175/4 206/190/4
f 190/175/4 205/5/4 189/5/4
f 190/177/5 203/5/5 206/191/5
f 203/5/5 190/177/5 186/170/5
f 185/2/6 205/3/6 204/11/6
f 205/3/6 185/2/6 189/1/6

usemtl color8

f 94/3/1 150/2/1 92/1/1
f 150/3/1 94/2/1 149/1/1
f 54/3/2 94/2/2 92/1/2
f 94/3/2 54/2/2 56/1/2
f 152/141/3 150/138/3 149/5/3
f 150/138/3 152/141/3 151/5/3
f 152/5/4 54/78/4 151/192/4
f 54/78/4 152/5/4 56/5/4
f 54/5/5 150/140/5 151/5/5
f 150/140/5 54/5/5 92/5/5
f 94/2/6 152/3/6 149/11/6
f 152/3/6 94/2/6 56/1/6
f 59/3/1 154/2/1 60/1/1
f 154/3/1 59/2/1 153/1/1
f 62/3/2 59/2/2 60/1/2
f 59/3/2 62/2/2 64/1/2
f 156/145/3 154/142/3 153/5/3
f 154/142/3 156/145/3 155/5/3
f 156/5/4 62/81/4 155/193/4
f 62/81/4 156/5/4 64/5/4
f 62/5/5 154/144/5 155/5/5
f 154/144/5 62/5/5 60/51/5
f 59/2/6 156/3/6 153/11/6
f 156/3/6 59/2/6 64/1/6
f 67/3/1 158/2/1 68/1/1
f 158/3/1 67/2/1 157/1/1
f 98/3/2 67/2/2 68/1/2
f 67/3/2 98/2/2 97/1/2
f 146/129/3 158/146/3 157/5/3
f 158/146/3 146/129/3 145/5/3
f 146/5/4 98/84/4 145/194/4
f 98/84/4 146/5/4 97/5/4
f 98/86/5 158/148/5 145/5/5
f 158/148/5 98/86/5 68/57/5
f 67/2/6 146/3/6 157/11/6
f 146/3/6 67/2/6 97/1/6

usemtl color9

f 209/3/1 208/2/1 207/1/1
f 208/3/1 209/2/1 210/1/1
f 195/3/2 209/2/2 207/1/2
f 209/3/2 195/2/2 197/1/2
f 198/182/3 208/5/3 210/195/3
f 208/5/3 198/182/3 196/5/3
f 198/5/4 195/5/4 196/196/4
f 195/5/4 198/5/4 197/197/4
f 195/187/5 208/5/5 196/5/5
f 208/5/5 195/187/5 207/198/5
f 209/2/6 198/3/6 210/11/6
f 198/3/6 209/2/6 197/1/6
f 200/3/1 202/2/1 199/1/1
f 202/3/1 200/2/1 201/1/1
f 186/3/2 200/2/2 199/1/2
f 200/3/2 186/2/2 185/1/2
f 204/188/3 202/183/3 201/5/3
f 202/183/3 204/188/3 203/5/3
f 204/5/4 186/168/4 203/199/4
f 186/168/4 204/5/4 185/5/4
f 186/170/5 202/186/5 203/5/5
f 202/186/5 186/170/5 199/5/5
f 200/2/6 204/3/6 201/11/6
f 204/3/6 200/2/6 185/1/6

