# Created by Kenney (www.kenney.nl)

mtllib Cannon 4BQ Grynn shot or mag.mtl

v 3 2 -1.5
v 3 1 -1.5
v 3 2 1.5
v 3 1 1.5
v 2 2 -1.5
v 2 2 1.5
v 2 1 1.5
v 2 1 -1.5
v -1 2 -1.5
v -1 1 -1.5
v -1 2 1.5
v -1 1 1.5
v -2 2 -1.5
v -2 2 1.5
v -2 1 1.5
v -2 1 -1.5
v 3 0 -2
v 3 -1 -2
v 3 0 2
v 3 -1 2
v 2 0 -2
v 2 0 2
v 2 -1 2
v 2 -1 -2
v -1 0 -2
v -1 -1 -2
v -1 0 2
v -1 -1 2
v -2 0 -2
v -2 0 2
v -2 -1 2
v -2 -1 -2
v 2 -1 -1.5
v 2 -2 -1.5
v 2 -1 1.5
v 2 -2 1.5
v -1 -1 -1.5
v -1 -1 1.5
v -1 -2 1.5
v -1 -2 -1.5
v 3 1 -2
v 3 1 2
v 2 1 -2
v 2 1 2
v -1 1 -2
v -1 1 2
v -2 1 -2
v -2 1 2
v -3 0 -2
v -3 0 2
v -3 -1 2
v -3 -1 -2
v -3 2 -1.5
v -3 2 1.5
v -3 1 1.5
v -3 1 -1.5
v 3 -1 -1.5
v 3 -2 -1.5
v 3 -1 1.5
v 3 -2 1.5
v -3 -1 -1.5
v -3 -1 1.5
v -3 -2 1.5
v -3 -2 -1.5
v -3 1 -2
v -3 1 2

vn 1 0 0
vn 0 1 0
vn 0 -1 0
vn -1 0 0
vn 0 0 -1
vn 0 0 1

vt -19.68504 19.68504
vt 19.68504 19.68504
vt -19.68504 -19.68504
vt 0 NaN
vt 0 0
vt 0 NaN
vt 0 NaN
vt 0 NaN
vt 0 NaN
vt 0 NaN
vt 19.68504 -19.68504
vt 0 NaN
vt 0 NaN
vt 0 NaN
vt 0 NaN
vt 0 NaN
vt 0 NaN
vt 0 NaN
vt 0 NaN
vt 0 NaN
vt 0 NaN
vt 0 NaN
vt 0 NaN
vt 0 NaN
vt 0 NaN
vt 0 NaN
vt 0 NaN
vt 0 NaN
vt 0 NaN
vt 0 NaN
vt 0 NaN
vt 0 NaN
vt 0 NaN
vt 0 NaN
vt 0 NaN
vt 0 NaN
vt 0 NaN
vt 0 NaN
vt 0 NaN
vt 0 NaN
vt 0 NaN
vt 0 NaN
vt 0 NaN
vt 0 NaN
vt 0 NaN
vt 0 NaN
vt 0 NaN
vt 0 NaN
vt 0 NaN
vt 0 NaN
vt 0 NaN
vt 0 NaN
vt 0 NaN
vt 0 NaN
vt 0 NaN
vt 0 NaN
vt 0 NaN
vt 0 NaN
vt 0 NaN
vt 0 NaN
vt 0 NaN
vt 0 NaN
vt 0 NaN
vt 0 NaN
vt 0 NaN
vt 0 NaN

usemtl color2

f 3/3/1 2/2/1 1/1/1
f 2/3/1 3/2/1 4/1/1
f 5/3/2 3/2/2 1/1/2
f 3/3/2 5/2/2 6/1/2
f 7/5/3 2/5/3 4/4/3
f 2/5/3 7/5/3 8/6/3
f 7/5/4 5/5/4 8/7/4
f 5/5/4 7/5/4 6/8/4
f 5/5/5 2/5/5 8/9/5
f 2/5/5 5/5/5 1/10/5
f 3/2/6 7/3/6 4/11/6
f 7/3/6 3/2/6 6/1/6
f 11/3/1 10/2/1 9/1/1
f 10/3/1 11/2/1 12/1/1
f 13/3/2 11/2/2 9/1/2
f 11/3/2 13/2/2 14/1/2
f 15/5/3 10/5/3 12/12/3
f 10/5/3 15/5/3 16/13/3
f 15/5/4 13/5/4 16/14/4
f 13/5/4 15/5/4 14/15/4
f 13/5/5 10/5/5 16/16/5
f 10/5/5 13/5/5 9/17/5
f 11/2/6 15/3/6 12/11/6
f 15/3/6 11/2/6 14/1/6
f 3/3/1 2/2/1 1/1/1
f 2/3/1 3/2/1 4/1/1
f 5/3/2 3/2/2 1/1/2
f 3/3/2 5/2/2 6/1/2
f 7/5/3 2/5/3 4/4/3
f 2/5/3 7/5/3 8/6/3
f 7/5/4 5/5/4 8/7/4
f 5/5/4 7/5/4 6/8/4
f 5/5/5 2/5/5 8/9/5
f 2/5/5 5/5/5 1/10/5
f 3/2/6 7/3/6 4/11/6
f 7/3/6 3/2/6 6/1/6
f 19/3/1 18/2/1 17/1/1
f 18/3/1 19/2/1 20/1/1
f 21/3/2 19/2/2 17/1/2
f 19/3/2 21/2/2 22/1/2
f 23/5/3 18/5/3 20/18/3
f 18/5/3 23/5/3 24/19/3
f 23/5/4 21/5/4 24/20/4
f 21/5/4 23/5/4 22/21/4
f 21/5/5 18/5/5 24/22/5
f 18/5/5 21/5/5 17/23/5
f 19/2/6 23/3/6 20/11/6
f 23/3/6 19/2/6 22/1/6
f 27/3/1 26/2/1 25/1/1
f 26/3/1 27/2/1 28/1/1
f 29/3/2 27/2/2 25/1/2
f 27/3/2 29/2/2 30/1/2
f 31/5/3 26/5/3 28/24/3
f 26/5/3 31/5/3 32/25/3
f 31/5/4 29/5/4 32/26/4
f 29/5/4 31/5/4 30/27/4
f 29/5/5 26/5/5 32/28/5
f 26/5/5 29/5/5 25/29/5
f 27/2/6 31/3/6 28/11/6
f 31/3/6 27/2/6 30/1/6
f 35/3/1 34/2/1 33/1/1
f 34/3/1 35/2/1 36/1/1
f 37/3/2 35/2/2 33/1/2
f 35/3/2 37/2/2 38/1/2
f 39/5/3 34/5/3 36/30/3
f 34/5/3 39/5/3 40/31/3
f 39/5/4 37/5/4 40/32/4
f 37/5/4 39/5/4 38/33/4
f 37/5/5 34/5/5 40/34/5
f 34/5/5 37/5/5 33/35/5
f 35/2/6 39/3/6 36/11/6
f 39/3/6 35/2/6 38/1/6

usemtl color3

f 6/3/1 8/2/1 5/1/1
f 8/3/1 6/2/1 7/1/1
f 9/3/2 6/2/2 5/1/2
f 6/3/2 9/2/2 11/1/2
f 12/12/3 8/6/3 7/5/3
f 8/6/3 12/12/3 10/5/3
f 12/5/4 9/5/4 10/36/4
f 9/5/4 12/5/4 11/37/4
f 9/17/5 8/9/5 10/5/5
f 8/9/5 9/17/5 5/5/5
f 6/2/6 12/3/6 7/11/6
f 12/3/6 6/2/6 11/1/6
f 42/3/1 17/2/1 41/1/1
f 17/3/1 42/2/1 19/1/1
f 43/3/2 42/2/2 41/1/2
f 42/3/2 43/2/2 44/1/2
f 22/5/3 17/5/3 19/38/3
f 17/5/3 22/5/3 21/39/3
f 22/21/4 43/5/4 21/5/4
f 43/5/4 22/21/4 44/40/4
f 43/5/5 17/23/5 21/5/5
f 17/23/5 43/5/5 41/41/5
f 42/2/6 22/3/6 19/11/6
f 22/3/6 42/2/6 44/1/6
f 46/3/1 25/2/1 45/1/1
f 25/3/1 46/2/1 27/1/1
f 47/3/2 46/2/2 45/1/2
f 46/3/2 47/2/2 48/1/2
f 30/5/3 25/5/3 27/42/3
f 25/5/3 30/5/3 29/43/3
f 30/27/4 47/5/4 29/5/4
f 47/5/4 30/27/4 48/44/4
f 47/5/5 25/29/5 29/5/5
f 25/29/5 47/5/5 45/45/5
f 46/2/6 30/3/6 27/11/6
f 30/3/6 46/2/6 48/1/6
f 22/3/1 24/2/1 21/1/1
f 24/3/1 22/2/1 23/1/1
f 25/3/2 22/2/2 21/1/2
f 22/3/2 25/2/2 27/1/2
f 28/24/3 24/19/3 23/5/3
f 24/19/3 28/24/3 26/5/3
f 28/5/4 25/5/4 26/46/4
f 25/5/4 28/5/4 27/47/4
f 25/29/5 24/22/5 26/5/5
f 24/22/5 25/29/5 21/5/5
f 22/2/6 28/3/6 23/11/6
f 28/3/6 22/2/6 27/1/6
f 30/3/1 32/2/1 29/1/1
f 32/3/1 30/2/1 31/1/1
f 49/3/2 30/2/2 29/1/2
f 30/3/2 49/2/2 50/1/2
f 51/5/3 32/25/3 31/5/3
f 32/25/3 51/5/3 52/48/3
f 51/5/4 49/5/4 52/49/4
f 49/5/4 51/5/4 50/50/4
f 49/5/5 32/28/5 52/51/5
f 32/28/5 49/5/5 29/5/5
f 30/2/6 51/3/6 31/11/6
f 51/3/6 30/2/6 50/1/6

usemtl color1

f 14/3/1 16/2/1 13/1/1
f 16/3/1 14/2/1 15/1/1
f 53/3/2 14/2/2 13/1/2
f 14/3/2 53/2/2 54/1/2
f 55/5/3 16/13/3 15/5/3
f 16/13/3 55/5/3 56/52/3
f 55/5/4 53/5/4 56/53/4
f 53/5/4 55/5/4 54/54/4
f 53/5/5 16/16/5 56/55/5
f 16/16/5 53/5/5 13/5/5
f 14/2/6 55/3/6 15/11/6
f 55/3/6 14/2/6 54/1/6
f 59/3/1 58/2/1 57/1/1
f 58/3/1 59/2/1 60/1/1
f 33/3/2 59/2/2 57/1/2
f 59/3/2 33/2/2 35/1/2
f 36/30/3 58/5/3 60/56/3
f 58/5/3 36/30/3 34/5/3
f 36/5/4 33/5/4 34/57/4
f 33/5/4 36/5/4 35/58/4
f 33/35/5 58/5/5 34/5/5
f 58/5/5 33/35/5 57/59/5
f 59/2/6 36/3/6 60/11/6
f 36/3/6 59/2/6 35/1/6
f 38/3/1 40/2/1 37/1/1
f 40/3/1 38/2/1 39/1/1
f 61/3/2 38/2/2 37/1/2
f 38/3/2 61/2/2 62/1/2
f 63/5/3 40/31/3 39/5/3
f 40/31/3 63/5/3 64/60/3
f 63/5/4 61/5/4 64/61/4
f 61/5/4 63/5/4 62/62/4
f 61/5/5 40/34/5 64/63/5
f 40/34/5 61/5/5 37/5/5
f 38/2/6 63/3/6 39/11/6
f 63/3/6 38/2/6 62/1/6

usemtl color4

f 44/3/1 21/2/1 43/1/1
f 21/3/1 44/2/1 22/1/1
f 45/3/2 44/2/2 43/1/2
f 44/3/2 45/2/2 46/1/2
f 27/42/3 21/39/3 22/5/3
f 21/39/3 27/42/3 25/5/3
f 27/47/4 45/5/4 25/5/4
f 45/5/4 27/47/4 46/64/4
f 45/45/5 21/5/5 25/29/5
f 21/5/5 45/45/5 43/5/5
f 44/2/6 27/3/6 22/11/6
f 27/3/6 44/2/6 46/1/6
f 48/3/1 29/2/1 47/1/1
f 29/3/1 48/2/1 30/1/1
f 65/3/2 48/2/2 47/1/2
f 48/3/2 65/2/2 66/1/2
f 50/5/3 29/43/3 30/5/3
f 29/43/3 50/5/3 49/65/3
f 50/50/4 65/5/4 49/5/4
f 65/5/4 50/50/4 66/66/4
f 65/5/5 29/5/5 49/5/5
f 29/5/5 65/5/5 47/5/5
f 48/2/6 50/3/6 30/11/6
f 50/3/6 48/2/6 66/1/6

