# Created by Kenney (www.kenney.nl)

mtllib Device EHK Dropperclear.mtl

v 1 6 -0.6
v 1 4 -0.6
v 1 6 0.6
v 1 4 0.6
v 0 6 -0.6
v 0 6 0.6
v 0 4 0.6
v 0 4 -0.6
v 1 5 -0.6
v 1 5 0.6
v 0 5 0.6
v 0 5 -0.6
v 5 2 -0.6
v 5 1 -0.6
v 5 2 0.6
v 5 1 0.6
v 4 2 -0.6
v 4 2 0.6
v 4 1 0.6
v 4 1 -0.6
v -3 2 -0.6
v -3 1 -0.6
v -3 2 0.6
v -3 1 0.6
v -4 2 -0.6
v -4 2 0.6
v -4 1 0.6
v -4 1 -0.6
v 4 -1 -0.6
v 4 -2 -0.6
v 4 -1 0.6
v 4 -2 0.6
v 3 -1 -0.6
v 3 -1 0.6
v 3 -2 0.6
v 3 -2 -0.6
v -2 -1 -0.6
v -2 -2 -0.6
v -2 -1 0.6
v -2 -2 0.6
v -3 -1 -0.6
v -3 -1 0.6
v -3 -2 0.6
v -3 -2 -0.6
v 2 -2 -1.8
v 2 -3 -1.8
v 2 -2 1.8
v 2 -3 1.8
v 1 -2 -1.8
v 1 -2 1.8
v 1 -3 1.8
v 1 -3 -1.8
v -1 -2 -1.2
v -1 -3 -1.2
v -1 -2 1.2
v -1 -3 1.2
v -2 -2 -1.2
v -2 -2 1.2
v -2 -3 1.2
v -2 -3 -1.2
v 0 -3 -1.2
v 0 -4 -1.2
v 0 -3 1.2
v 0 -4 1.2
v -1 -4 1.2
v -1 -4 -1.2
v 2 4 -1.2
v 2 3 -1.2
v 2 4 1.2
v 2 3 1.2
v 1 4 -1.2
v 1 4 1.2
v 1 3 1.2
v 1 3 -1.2
v 0 1 -1.8
v 0 -1 -1.8
v 0 1 1.8
v 0 -1 1.8
v -1 1 -1.8
v -1 1 1.8
v -1 -1 1.8
v -1 -1 -1.8
v 1 -2 -2.4
v 1 -3 -2.4
v 1 -2 2.4
v 1 -3 2.4
v 0 -2 -2.4
v 0 -2 2.4
v 0 -3 2.4
v 0 -3 -2.4
v 1 4 -1.8
v 1 3 -1.8
v 1 4 1.8
v 1 3 1.8
v 0 4 -1.8
v 0 4 1.8
v 0 3 1.8
v 0 3 -1.8
v 0 2 -1.8
v 0 2 1.8
v -1 3 -1.8
v -1 3 1.8
v -1 2 1.8
v -1 2 -1.8
v 1 1 -2.4
v 1 -1 -2.4
v 1 1 2.4
v 1 -1 2.4
v 0 1 -2.4
v 0 1 2.4
v 0 -1 2.4
v 0 -1 -2.4
v 0 4 -1.2
v 0 3 -1.2
v 0 4 1.2
v 0 3 1.2
v -1 4 -1.2
v -1 4 1.2
v -1 3 1.2
v -1 3 -1.2
v 2 3 -1.8
v 2 2 -1.8
v 2 3 1.8
v 2 2 1.8
v 1 2 1.8
v 1 2 -1.8
v -1 2 -1.2
v -1 2 1.2
v -2 3 -1.2
v -2 3 1.2
v -2 2 1.2
v -2 2 -1.2
v 3 2 -0.6
v 3 2 0.6
v 3 1 0.6
v 3 1 -0.6
v -2 2 -0.6
v -2 1 -0.6
v -2 2 0.6
v -2 1 0.6
v 5 -1 -0.6
v 5 -1 0.6
v 2 1 -1.8
v 2 -1 -1.8
v 2 1 1.8
v 2 -1 1.8
v 1 1 -1.8
v 1 1 1.8
v 1 -1 1.8
v 1 -1 -1.8
v -1 1 -1.2
v -1 -1 -1.2
v -1 1 1.2
v -1 -1 1.2
v -2 1 -1.2
v -2 1 1.2
v -2 -1 1.2
v -2 -1 -1.2
v -4 -1 0.6
v -4 -1 -0.6
v 0 -2 -1.8
v 0 -3 -1.8
v 0 -2 1.8
v 0 -3 1.8
v -1 -2 -1.8
v -1 -2 1.8
v -1 -3 1.8
v -1 -3 -1.8
v 1 -4 -0.6
v 1 -6 -0.6
v 1 -4 0.6
v 1 -6 0.6
v 0 -4 -0.6
v 0 -4 0.6
v 0 -6 0.6
v 0 -6 -0.6
v 3 3 -1.2
v 3 2 -1.2
v 3 3 1.2
v 3 2 1.2
v 2 2 1.2
v 2 2 -1.2
v 3 1 -1.2
v 3 -1 -1.2
v 3 1 1.2
v 3 -1 1.2
v 2 1 -1.2
v 2 1 1.2
v 2 -1 1.2
v 2 -1 -1.2
v 5 -2 -0.6
v 5 -2 0.6
v -4 -2 0.6
v -4 -2 -0.6
v 3 -2 -1.2
v 3 -3 -1.2
v 3 -2 1.2
v 3 -3 1.2
v 2 -2 -1.2
v 2 -2 1.2
v 2 -3 1.2
v 2 -3 -1.2
v 2 -4 -1.2
v 2 -4 1.2
v 1 -3 -1.2
v 1 -3 1.2
v 1 -4 1.2
v 1 -4 -1.2
v 1 -4 -1.8
v 1 -4 1.8
v 0 -4 1.8
v 0 -4 -1.8
v 1 3 -2.4
v 1 2 -2.4
v 1 3 2.4
v 1 2 2.4
v 0 3 -2.4
v 0 3 2.4
v 0 2 2.4
v 0 2 -2.4

vn 1 0 0
vn 0 1 0
vn 0 -1 0
vn -1 0 0
vn 0 0 -1
vn 0 0 1

vt -19.68504 19.68504
vt 19.68504 19.68504
vt -19.68504 -19.68504
vt 0 NaN
vt 0 0
vt 0 NaN
vt 0 NaN
vt 0 NaN
vt 0 NaN
vt 0 NaN
vt 19.68504 -19.68504
vt 0 NaN
vt 0 NaN
vt 0 NaN
vt 0 NaN
vt 0 NaN
vt 0 NaN
vt 0 NaN
vt 0 NaN
vt 0 NaN
vt 0 NaN
vt 0 NaN
vt 0 NaN
vt 0 NaN
vt 0 NaN
vt 0 NaN
vt 0 NaN
vt 0 NaN
vt 0 NaN
vt 0 NaN
vt 0 NaN
vt 0 NaN
vt 0 NaN
vt 0 NaN
vt 0 NaN
vt 0 NaN
vt 0 NaN
vt 0 NaN
vt 0 NaN
vt 0 NaN
vt 0 NaN
vt 0 NaN
vt 0 NaN
vt 0 NaN
vt 0 NaN
vt 0 NaN
vt 0 NaN
vt 0 NaN
vt 0 NaN
vt 0 NaN
vt 0 NaN
vt 0 NaN
vt 0 NaN
vt 0 NaN
vt 0 NaN
vt 0 NaN
vt 0 NaN
vt 0 NaN
vt 0 NaN
vt 0 NaN
vt 0 NaN
vt 0 NaN
vt 0 NaN
vt 0 NaN
vt 0 NaN
vt 0 NaN
vt 0 NaN
vt 0 NaN
vt 0 NaN
vt 0 NaN
vt 0 NaN
vt 0 NaN
vt 0 NaN
vt 0 NaN
vt 0 NaN
vt 0 NaN
vt 0 NaN
vt 0 NaN
vt 0 NaN
vt 0 NaN
vt 0 NaN
vt 0 NaN
vt 0 NaN
vt 0 NaN
vt 0 NaN
vt 0 NaN
vt 0 NaN
vt 0 NaN
vt 0 NaN
vt 0 NaN
vt 0 NaN
vt 0 NaN
vt 0 NaN
vt 0 NaN
vt 0 NaN
vt 0 NaN
vt 0 NaN
vt 0 NaN
vt 0 NaN
vt 0 NaN
vt 0 NaN
vt 0 NaN
vt 0 NaN
vt 0 NaN
vt 0 NaN
vt 0 NaN
vt 0 NaN
vt 0 NaN
vt 0 NaN
vt 0 NaN
vt 0 NaN
vt 0 NaN
vt 0 NaN
vt 0 NaN
vt 0 NaN
vt 0 NaN
vt 0 NaN
vt 0 NaN
vt 0 NaN
vt 0 NaN
vt 0 NaN
vt 0 NaN
vt 0 NaN
vt 0 NaN
vt 0 NaN
vt 0 NaN
vt 0 NaN
vt 0 NaN
vt 0 NaN
vt 0 NaN
vt 0 NaN
vt 0 NaN
vt 0 NaN
vt 0 NaN
vt 0 NaN
vt 0 NaN
vt 0 NaN
vt 0 NaN
vt 0 NaN
vt 0 NaN
vt 0 NaN
vt 0 NaN
vt 0 NaN
vt 0 NaN
vt 0 NaN
vt 0 NaN
vt 0 NaN
vt 0 NaN
vt 0 NaN
vt 0 NaN
vt 0 NaN
vt 0 NaN
vt 0 NaN
vt 0 NaN
vt 0 NaN
vt 0 NaN
vt 0 NaN
vt 0 NaN
vt 0 NaN
vt 0 NaN
vt 0 NaN
vt 0 NaN
vt 0 NaN
vt 0 NaN
vt 0 NaN
vt 0 NaN
vt 0 NaN
vt 0 NaN
vt 0 NaN
vt 0 NaN
vt 0 NaN
vt 0 NaN
vt 0 NaN
vt 0 NaN
vt 0 NaN
vt 0 NaN
vt 0 NaN
vt 0 NaN
vt 0 NaN
vt 0 NaN
vt 0 NaN
vt 0 NaN
vt 0 NaN
vt 0 NaN
vt 0 NaN
vt 0 NaN
vt 0 NaN
vt 0 NaN
vt 0 NaN
vt 0 NaN
vt 0 NaN
vt 0 NaN
vt 0 NaN
vt 0 NaN
vt 0 NaN
vt 0 NaN
vt 0 NaN
vt 0 NaN
vt 0 NaN
vt 0 NaN
vt 0 NaN
vt 0 NaN
vt 0 NaN
vt 0 NaN
vt 0 NaN
vt 0 NaN
vt 0 NaN

usemtl color4

f 3/3/1 2/2/1 1/1/1
f 2/3/1 3/2/1 4/1/1
f 5/3/2 3/2/2 1/1/2
f 3/3/2 5/2/2 6/1/2
f 7/5/3 2/5/3 4/4/3
f 2/5/3 7/5/3 8/6/3
f 7/5/4 5/5/4 8/7/4
f 5/5/4 7/5/4 6/8/4
f 5/5/5 2/5/5 8/9/5
f 2/5/5 5/5/5 1/10/5
f 3/2/6 7/3/6 4/11/6
f 7/3/6 3/2/6 6/1/6
f 3/3/1 9/2/1 1/1/1
f 9/3/1 3/2/1 10/1/1
f 5/3/2 3/2/2 1/1/2
f 3/3/2 5/2/2 6/1/2
f 11/5/3 9/5/3 10/12/3
f 9/5/3 11/5/3 12/13/3
f 11/5/4 5/5/4 12/14/4
f 5/5/4 11/5/4 6/8/4
f 5/5/5 9/5/5 12/15/5
f 9/5/5 5/5/5 1/10/5
f 3/2/6 11/3/6 10/11/6
f 11/3/6 3/2/6 6/1/6
f 15/3/1 14/2/1 13/1/1
f 14/3/1 15/2/1 16/1/1
f 17/3/2 15/2/2 13/1/2
f 15/3/2 17/2/2 18/1/2
f 19/5/3 14/5/3 16/16/3
f 14/5/3 19/5/3 20/17/3
f 19/5/4 17/5/4 20/18/4
f 17/5/4 19/5/4 18/19/4
f 17/5/5 14/5/5 20/20/5
f 14/5/5 17/5/5 13/21/5
f 15/2/6 19/3/6 16/11/6
f 19/3/6 15/2/6 18/1/6
f 23/3/1 22/2/1 21/1/1
f 22/3/1 23/2/1 24/1/1
f 25/3/2 23/2/2 21/1/2
f 23/3/2 25/2/2 26/1/2
f 27/5/3 22/5/3 24/22/3
f 22/5/3 27/5/3 28/23/3
f 27/5/4 25/5/4 28/24/4
f 25/5/4 27/5/4 26/25/4
f 25/5/5 22/5/5 28/26/5
f 22/5/5 25/5/5 21/27/5
f 23/2/6 27/3/6 24/11/6
f 27/3/6 23/2/6 26/1/6
f 31/3/1 30/2/1 29/1/1
f 30/3/1 31/2/1 32/1/1
f 33/3/2 31/2/2 29/1/2
f 31/3/2 33/2/2 34/1/2
f 35/5/3 30/5/3 32/28/3
f 30/5/3 35/5/3 36/29/3
f 35/5/4 33/5/4 36/30/4
f 33/5/4 35/5/4 34/31/4
f 33/5/5 30/5/5 36/32/5
f 30/5/5 33/5/5 29/33/5
f 31/2/6 35/3/6 32/11/6
f 35/3/6 31/2/6 34/1/6
f 39/3/1 38/2/1 37/1/1
f 38/3/1 39/2/1 40/1/1
f 41/3/2 39/2/2 37/1/2
f 39/3/2 41/2/2 42/1/2
f 43/5/3 38/5/3 40/34/3
f 38/5/3 43/5/3 44/35/3
f 43/5/4 41/5/4 44/36/4
f 41/5/4 43/5/4 42/37/4
f 41/5/5 38/5/5 44/38/5
f 38/5/5 41/5/5 37/39/5
f 39/2/6 43/3/6 40/11/6
f 43/3/6 39/2/6 42/1/6
f 47/3/1 46/2/1 45/1/1
f 46/3/1 47/2/1 48/1/1
f 49/3/2 47/2/2 45/1/2
f 47/3/2 49/2/2 50/1/2
f 51/5/3 46/5/3 48/40/3
f 46/5/3 51/5/3 52/41/3
f 51/5/4 49/5/4 52/42/4
f 49/5/4 51/5/4 50/43/4
f 49/5/5 46/5/5 52/44/5
f 46/5/5 49/5/5 45/45/5
f 47/2/6 51/3/6 48/11/6
f 51/3/6 47/2/6 50/1/6
f 55/3/1 54/2/1 53/1/1
f 54/3/1 55/2/1 56/1/1
f 57/3/2 55/2/2 53/1/2
f 55/3/2 57/2/2 58/1/2
f 59/5/3 54/5/3 56/46/3
f 54/5/3 59/5/3 60/47/3
f 59/5/4 57/5/4 60/48/4
f 57/5/4 59/5/4 58/49/4
f 57/5/5 54/5/5 60/50/5
f 54/5/5 57/5/5 53/51/5
f 55/2/6 59/3/6 56/11/6
f 59/3/6 55/2/6 58/1/6
f 63/3/1 62/2/1 61/1/1
f 62/3/1 63/2/1 64/1/1
f 54/3/2 63/2/2 61/1/2
f 63/3/2 54/2/2 56/1/2
f 65/5/3 62/5/3 64/52/3
f 62/5/3 65/5/3 66/53/3
f 65/5/4 54/5/4 66/54/4
f 54/5/4 65/5/4 56/55/4
f 54/5/5 62/5/5 66/56/5
f 62/5/5 54/5/5 61/57/5
f 63/2/6 65/3/6 64/11/6
f 65/3/6 63/2/6 56/1/6

usemtl color5

f 69/3/1 68/2/1 67/1/1
f 68/3/1 69/2/1 70/1/1
f 71/3/2 69/2/2 67/1/2
f 69/3/2 71/2/2 72/1/2
f 73/5/3 68/5/3 70/58/3
f 68/5/3 73/5/3 74/59/3
f 73/5/4 71/5/4 74/60/4
f 71/5/4 73/5/4 72/61/4
f 71/5/5 68/5/5 74/62/5
f 68/5/5 71/5/5 67/63/5
f 69/2/6 73/3/6 70/11/6
f 73/3/6 69/2/6 72/1/6
f 77/3/1 76/2/1 75/1/1
f 76/3/1 77/2/1 78/1/1
f 79/3/2 77/2/2 75/1/2
f 77/3/2 79/2/2 80/1/2
f 81/5/3 76/5/3 78/64/3
f 76/5/3 81/5/3 82/65/3
f 81/5/4 79/5/4 82/66/4
f 79/5/4 81/5/4 80/67/4
f 79/5/5 76/5/5 82/68/5
f 76/5/5 79/5/5 75/69/5
f 77/2/6 81/3/6 78/11/6
f 81/3/6 77/2/6 80/1/6
f 85/3/1 84/2/1 83/1/1
f 84/3/1 85/2/1 86/1/1
f 87/3/2 85/2/2 83/1/2
f 85/3/2 87/2/2 88/1/2
f 89/5/3 84/5/3 86/70/3
f 84/5/3 89/5/3 90/71/3
f 89/5/4 87/5/4 90/72/4
f 87/5/4 89/5/4 88/73/4
f 87/5/5 84/5/5 90/74/5
f 84/5/5 87/5/5 83/75/5
f 85/2/6 89/3/6 86/11/6
f 89/3/6 85/2/6 88/1/6

usemtl color9

f 93/3/1 92/2/1 91/1/1
f 92/3/1 93/2/1 94/1/1
f 95/3/2 93/2/2 91/1/2
f 93/3/2 95/2/2 96/1/2
f 97/5/3 92/5/3 94/76/3
f 92/5/3 97/5/3 98/77/3
f 97/5/4 95/5/4 98/78/4
f 95/5/4 97/5/4 96/79/4
f 95/5/5 92/5/5 98/80/5
f 92/5/5 95/5/5 91/81/5
f 93/2/6 97/3/6 94/11/6
f 97/3/6 93/2/6 96/1/6
f 97/3/1 99/2/1 98/1/1
f 99/3/1 97/2/1 100/1/1
f 101/3/2 97/2/2 98/1/2
f 97/3/2 101/2/2 102/1/2
f 103/5/3 99/5/3 100/82/3
f 99/5/3 103/5/3 104/83/3
f 103/5/4 101/5/4 104/84/4
f 101/5/4 103/5/4 102/85/4
f 101/5/5 99/5/5 104/86/5
f 99/5/5 101/5/5 98/80/5
f 97/2/6 103/3/6 100/11/6
f 103/3/6 97/2/6 102/1/6
f 107/3/1 106/2/1 105/1/1
f 106/3/1 107/2/1 108/1/1
f 109/3/2 107/2/2 105/1/2
f 107/3/2 109/2/2 110/1/2
f 111/5/3 106/5/3 108/87/3
f 106/5/3 111/5/3 112/88/3
f 111/5/4 109/5/4 112/89/4
f 109/5/4 111/5/4 110/90/4
f 109/5/5 106/5/5 112/91/5
f 106/5/5 109/5/5 105/92/5
f 107/2/6 111/3/6 108/11/6
f 111/3/6 107/2/6 110/1/6

usemtl color2

f 115/3/1 114/2/1 113/1/1
f 114/3/1 115/2/1 116/1/1
f 117/3/2 115/2/2 113/1/2
f 115/3/2 117/2/2 118/1/2
f 119/5/3 114/5/3 116/93/3
f 114/5/3 119/5/3 120/94/3
f 119/5/4 117/5/4 120/95/4
f 117/5/4 119/5/4 118/96/4
f 117/5/5 114/5/5 120/97/5
f 114/5/5 117/5/5 113/98/5
f 115/2/6 119/3/6 116/11/6
f 119/3/6 115/2/6 118/1/6
f 123/3/1 122/2/1 121/1/1
f 122/3/1 123/2/1 124/1/1
f 92/3/2 123/2/2 121/1/2
f 123/3/2 92/2/2 94/1/2
f 125/5/3 122/5/3 124/99/3
f 122/5/3 125/5/3 126/100/3
f 125/5/4 92/5/4 126/101/4
f 92/5/4 125/5/4 94/102/4
f 92/5/5 122/5/5 126/103/5
f 122/5/5 92/5/5 121/104/5
f 123/2/6 125/3/6 124/11/6
f 125/3/6 123/2/6 94/1/6
f 119/3/1 127/2/1 120/1/1
f 127/3/1 119/2/1 128/1/1
f 129/3/2 119/2/2 120/1/2
f 119/3/2 129/2/2 130/1/2
f 131/5/3 127/5/3 128/105/3
f 127/5/3 131/5/3 132/106/3
f 131/5/4 129/5/4 132/107/4
f 129/5/4 131/5/4 130/108/4
f 129/5/5 127/5/5 132/109/5
f 127/5/5 129/5/5 120/97/5
f 119/2/6 131/3/6 128/11/6
f 131/3/6 119/2/6 130/1/6
f 18/3/1 20/2/1 17/1/1
f 20/3/1 18/2/1 19/1/1
f 133/3/2 18/2/2 17/1/2
f 18/3/2 133/2/2 134/1/2
f 135/5/3 20/17/3 19/5/3
f 20/17/3 135/5/3 136/110/3
f 135/5/4 133/5/4 136/111/4
f 133/5/4 135/5/4 134/112/4
f 133/5/5 20/20/5 136/113/5
f 20/20/5 133/5/5 17/5/5
f 18/2/6 135/3/6 19/11/6
f 135/3/6 18/2/6 134/1/6
f 139/3/1 138/2/1 137/1/1
f 138/3/1 139/2/1 140/1/1
f 21/3/2 139/2/2 137/1/2
f 139/3/2 21/2/2 23/1/2
f 24/22/3 138/5/3 140/114/3
f 138/5/3 24/22/3 22/5/3
f 24/5/4 21/5/4 22/115/4
f 21/5/4 24/5/4 23/116/4
f 21/27/5 138/5/5 22/5/5
f 138/5/5 21/27/5 137/117/5
f 139/2/6 24/3/6 140/11/6
f 24/3/6 139/2/6 23/1/6
f 16/3/1 141/2/1 14/1/1
f 141/3/1 16/2/1 142/1/1
f 20/3/2 16/2/2 14/1/2
f 16/3/2 20/2/2 19/1/2
f 31/5/3 141/5/3 142/118/3
f 141/5/3 31/5/3 29/119/3
f 31/5/4 20/18/4 29/120/4
f 20/18/4 31/5/4 19/5/4
f 20/20/5 141/5/5 29/33/5
f 141/5/5 20/20/5 14/5/5
f 16/2/6 31/3/6 142/11/6
f 31/3/6 16/2/6 19/1/6
f 145/3/1 144/2/1 143/1/1
f 144/3/1 145/2/1 146/1/1
f 147/3/2 145/2/2 143/1/2
f 145/3/2 147/2/2 148/1/2
f 149/5/3 144/5/3 146/121/3
f 144/5/3 149/5/3 150/122/3
f 149/5/4 147/5/4 150/123/4
f 147/5/4 149/5/4 148/124/4
f 147/5/5 144/5/5 150/125/5
f 144/5/5 147/5/5 143/126/5
f 145/2/6 149/3/6 146/11/6
f 149/3/6 145/2/6 148/1/6
f 153/3/1 152/2/1 151/1/1
f 152/3/1 153/2/1 154/1/1
f 155/3/2 153/2/2 151/1/2
f 153/3/2 155/2/2 156/1/2
f 157/5/3 152/5/3 154/127/3
f 152/5/3 157/5/3 158/128/3
f 157/5/4 155/5/4 158/129/4
f 155/5/4 157/5/4 156/130/4
f 155/5/5 152/5/5 158/131/5
f 152/5/5 155/5/5 151/132/5
f 153/2/6 157/3/6 154/11/6
f 157/3/6 153/2/6 156/1/6
f 24/3/1 41/2/1 22/1/1
f 41/3/1 24/2/1 42/1/1
f 28/3/2 24/2/2 22/1/2
f 24/3/2 28/2/2 27/1/2
f 159/5/3 41/5/3 42/133/3
f 41/5/3 159/5/3 160/134/3
f 159/5/4 28/24/4 160/135/4
f 28/24/4 159/5/4 27/5/4
f 28/26/5 41/5/5 160/136/5
f 41/5/5 28/26/5 22/5/5
f 24/2/6 159/3/6 42/11/6
f 159/3/6 24/2/6 27/1/6
f 163/3/1 162/2/1 161/1/1
f 162/3/1 163/2/1 164/1/1
f 165/3/2 163/2/2 161/1/2
f 163/3/2 165/2/2 166/1/2
f 167/5/3 162/5/3 164/137/3
f 162/5/3 167/5/3 168/138/3
f 167/5/4 165/5/4 168/139/4
f 165/5/4 167/5/4 166/140/4
f 165/5/5 162/5/5 168/141/5
f 162/5/5 165/5/5 161/142/5
f 163/2/6 167/3/6 164/11/6
f 167/3/6 163/2/6 166/1/6
f 171/3/1 170/2/1 169/1/1
f 170/3/1 171/2/1 172/1/1
f 173/3/2 171/2/2 169/1/2
f 171/3/2 173/2/2 174/1/2
f 175/5/3 170/5/3 172/143/3
f 170/5/3 175/5/3 176/144/3
f 175/5/4 173/5/4 176/145/4
f 173/5/4 175/5/4 174/146/4
f 173/5/5 170/5/5 176/147/5
f 170/5/5 173/5/5 169/148/5
f 171/2/6 175/3/6 172/11/6
f 175/3/6 171/2/6 174/1/6

usemtl color3

f 179/3/1 178/2/1 177/1/1
f 178/3/1 179/2/1 180/1/1
f 68/3/2 179/2/2 177/1/2
f 179/3/2 68/2/2 70/1/2
f 181/5/3 178/5/3 180/149/3
f 178/5/3 181/5/3 182/150/3
f 181/5/4 68/5/4 182/151/4
f 68/5/4 181/5/4 70/152/4
f 68/5/5 178/5/5 182/153/5
f 178/5/5 68/5/5 177/154/5
f 179/2/6 181/3/6 180/11/6
f 181/3/6 179/2/6 70/1/6
f 185/3/1 184/2/1 183/1/1
f 184/3/1 185/2/1 186/1/1
f 187/3/2 185/2/2 183/1/2
f 185/3/2 187/2/2 188/1/2
f 189/5/3 184/5/3 186/155/3
f 184/5/3 189/5/3 190/156/3
f 189/5/4 187/5/4 190/157/4
f 187/5/4 189/5/4 188/158/4
f 187/5/5 184/5/5 190/159/5
f 184/5/5 187/5/5 183/160/5
f 185/2/6 189/3/6 186/11/6
f 189/3/6 185/2/6 188/1/6
f 142/3/1 191/2/1 141/1/1
f 191/3/1 142/2/1 192/1/1
f 29/3/2 142/2/2 141/1/2
f 142/3/2 29/2/2 31/1/2
f 32/28/3 191/5/3 192/161/3
f 191/5/3 32/28/3 30/5/3
f 32/5/4 29/120/4 30/162/4
f 29/120/4 32/5/4 31/5/4
f 29/33/5 191/5/5 30/5/5
f 191/5/5 29/33/5 141/5/5
f 142/2/6 32/3/6 192/11/6
f 32/3/6 142/2/6 31/1/6
f 42/3/1 44/2/1 41/1/1
f 44/3/1 42/2/1 43/1/1
f 160/3/2 42/2/2 41/1/2
f 42/3/2 160/2/2 159/1/2
f 193/5/3 44/35/3 43/5/3
f 44/35/3 193/5/3 194/163/3
f 193/5/4 160/135/4 194/164/4
f 160/135/4 193/5/4 159/5/4
f 160/136/5 44/38/5 194/165/5
f 44/38/5 160/136/5 41/5/5
f 42/2/6 193/3/6 43/11/6
f 193/3/6 42/2/6 159/1/6
f 197/3/1 196/2/1 195/1/1
f 196/3/1 197/2/1 198/1/1
f 199/3/2 197/2/2 195/1/2
f 197/3/2 199/2/2 200/1/2
f 201/5/3 196/5/3 198/166/3
f 196/5/3 201/5/3 202/167/3
f 201/5/4 199/5/4 202/168/4
f 199/5/4 201/5/4 200/169/4
f 199/5/5 196/5/5 202/170/5
f 196/5/5 199/5/5 195/171/5
f 197/2/6 201/3/6 198/11/6
f 201/3/6 197/2/6 200/1/6
f 201/3/1 203/2/1 202/1/1
f 203/3/1 201/2/1 204/1/1
f 205/3/2 201/2/2 202/1/2
f 201/3/2 205/2/2 206/1/2
f 207/5/3 203/5/3 204/172/3
f 203/5/3 207/5/3 208/173/3
f 207/5/4 205/5/4 208/174/4
f 205/5/4 207/5/4 206/175/4
f 205/5/5 203/5/5 208/176/5
f 203/5/5 205/5/5 202/170/5
f 201/2/6 207/3/6 204/11/6
f 207/3/6 201/2/6 206/1/6
f 51/3/1 209/2/1 52/1/1
f 209/3/1 51/2/1 210/1/1
f 162/3/2 51/2/2 52/1/2
f 51/3/2 162/2/2 164/1/2
f 211/5/3 209/5/3 210/177/3
f 209/5/3 211/5/3 212/178/3
f 211/5/4 162/5/4 212/179/4
f 162/5/4 211/5/4 164/180/4
f 162/5/5 209/5/5 212/181/5
f 209/5/5 162/5/5 52/44/5
f 51/2/6 211/3/6 210/11/6
f 211/3/6 51/2/6 164/1/6

usemtl color10

f 215/3/1 214/2/1 213/1/1
f 214/3/1 215/2/1 216/1/1
f 217/3/2 215/2/2 213/1/2
f 215/3/2 217/2/2 218/1/2
f 219/5/3 214/5/3 216/182/3
f 214/5/3 219/5/3 220/183/3
f 219/5/4 217/5/4 220/184/4
f 217/5/4 219/5/4 218/185/4
f 217/5/5 214/5/5 220/186/5
f 214/5/5 217/5/5 213/187/5
f 215/2/6 219/3/6 216/11/6
f 219/3/6 215/2/6 218/1/6

usemtl color6

f 180/3/1 183/2/1 178/1/1
f 183/3/1 180/2/1 185/1/1
f 182/3/2 180/2/2 178/1/2
f 180/3/2 182/2/2 181/1/2
f 188/5/3 183/5/3 185/188/3
f 183/5/3 188/5/3 187/189/3
f 188/158/4 182/151/4 187/5/4
f 182/151/4 188/158/4 181/5/4
f 182/153/5 183/160/5 187/5/5
f 183/160/5 182/153/5 178/5/5
f 180/2/6 188/3/6 185/11/6
f 188/3/6 180/2/6 181/1/6
f 128/3/1 151/2/1 127/1/1
f 151/3/1 128/2/1 153/1/1
f 132/3/2 128/2/2 127/1/2
f 128/3/2 132/2/2 131/1/2
f 156/5/3 151/5/3 153/190/3
f 151/5/3 156/5/3 155/191/3
f 156/130/4 132/107/4 155/5/4
f 132/107/4 156/130/4 131/5/4
f 132/109/5 151/132/5 155/5/5
f 151/132/5 132/109/5 127/5/5
f 128/2/6 156/3/6 153/11/6
f 156/3/6 128/2/6 131/1/6
f 186/3/1 195/2/1 184/1/1
f 195/3/1 186/2/1 197/1/1
f 190/3/2 186/2/2 184/1/2
f 186/3/2 190/2/2 189/1/2
f 200/5/3 195/5/3 197/192/3
f 195/5/3 200/5/3 199/193/3
f 200/169/4 190/157/4 199/5/4
f 190/157/4 200/169/4 189/5/4
f 190/159/5 195/171/5 199/5/5
f 195/171/5 190/159/5 184/5/5
f 186/2/6 200/3/6 197/11/6
f 200/3/6 186/2/6 189/1/6
f 154/3/1 53/2/1 152/1/1
f 53/3/1 154/2/1 55/1/1
f 158/3/2 154/2/2 152/1/2
f 154/3/2 158/2/2 157/1/2
f 58/5/3 53/5/3 55/194/3
f 53/5/3 58/5/3 57/195/3
f 58/49/4 158/129/4 57/5/4
f 158/129/4 58/49/4 157/5/4
f 158/131/5 53/51/5 57/5/5
f 53/51/5 158/131/5 152/5/5
f 154/2/6 58/3/6 55/11/6
f 58/3/6 154/2/6 157/1/6

usemtl color7

f 124/3/1 143/2/1 122/1/1
f 143/3/1 124/2/1 145/1/1
f 126/3/2 124/2/2 122/1/2
f 124/3/2 126/2/2 125/1/2
f 148/5/3 143/5/3 145/196/3
f 143/5/3 148/5/3 147/197/3
f 148/124/4 126/101/4 147/5/4
f 126/101/4 148/124/4 125/5/4
f 126/103/5 143/126/5 147/5/5
f 143/126/5 126/103/5 122/5/5
f 124/2/6 148/3/6 145/11/6
f 148/3/6 124/2/6 125/1/6
f 100/3/1 75/2/1 99/1/1
f 75/3/1 100/2/1 77/1/1
f 104/3/2 100/2/2 99/1/2
f 100/3/2 104/2/2 103/1/2
f 80/5/3 75/5/3 77/198/3
f 75/5/3 80/5/3 79/199/3
f 80/67/4 104/84/4 79/5/4
f 104/84/4 80/67/4 103/5/4
f 104/86/5 75/69/5 79/5/5
f 75/69/5 104/86/5 99/5/5
f 100/2/6 80/3/6 77/11/6
f 80/3/6 100/2/6 103/1/6
f 146/3/1 45/2/1 144/1/1
f 45/3/1 146/2/1 47/1/1
f 150/3/2 146/2/2 144/1/2
f 146/3/2 150/2/2 149/1/2
f 50/5/3 45/5/3 47/200/3
f 45/5/3 50/5/3 49/201/3
f 50/43/4 150/123/4 49/5/4
f 150/123/4 50/43/4 149/5/4
f 150/125/5 45/45/5 49/5/5
f 45/45/5 150/125/5 144/5/5
f 146/2/6 50/3/6 47/11/6
f 50/3/6 146/2/6 149/1/6
f 78/3/1 161/2/1 76/1/1
f 161/3/1 78/2/1 163/1/1
f 82/3/2 78/2/2 76/1/2
f 78/3/2 82/2/2 81/1/2
f 166/5/3 161/5/3 163/202/3
f 161/5/3 166/5/3 165/203/3
f 166/140/4 82/66/4 165/5/4
f 82/66/4 166/140/4 81/5/4
f 82/68/5 161/142/5 165/5/5
f 161/142/5 82/68/5 76/5/5
f 78/2/6 166/3/6 163/11/6
f 166/3/6 78/2/6 81/1/6

usemtl color8

f 216/3/1 105/2/1 214/1/1
f 105/3/1 216/2/1 107/1/1
f 220/3/2 216/2/2 214/1/2
f 216/3/2 220/2/2 219/1/2
f 110/5/3 105/5/3 107/204/3
f 105/5/3 110/5/3 109/205/3
f 110/90/4 220/184/4 109/5/4
f 220/184/4 110/90/4 219/5/4
f 220/186/5 105/92/5 109/5/5
f 105/92/5 220/186/5 214/5/5
f 216/2/6 110/3/6 107/11/6
f 110/3/6 216/2/6 219/1/6
f 108/3/1 83/2/1 106/1/1
f 83/3/1 108/2/1 85/1/1
f 112/3/2 108/2/2 106/1/2
f 108/3/2 112/2/2 111/1/2
f 88/5/3 83/5/3 85/206/3
f 83/5/3 88/5/3 87/207/3
f 88/73/4 112/89/4 87/5/4
f 112/89/4 88/73/4 111/5/4
f 112/91/5 83/75/5 87/5/5
f 83/75/5 112/91/5 106/5/5
f 108/2/6 88/3/6 85/11/6
f 88/3/6 108/2/6 111/1/6

