# Created by Kenney (www.kenney.nl)

mtllib Device M1P Yeinyd.mtl

v 2 3 -1.4
v 2 2 -1.4
v 2 3 1.4
v 2 2 1.4
v 1 3 -1.4
v 1 3 1.4
v 1 2 1.4
v 1 2 -1.4
v -1 3 -1.4
v -1 2 -1.4
v -1 3 1.4
v -1 2 1.4
v -2 3 -1.4
v -2 3 1.4
v -2 2 1.4
v -2 2 -1.4
v 3 2 -1.4
v 3 1 -1.4
v 3 2 1.4
v 3 1 1.4
v 2 1 1.4
v 2 1 -1.4
v -2 1 -1.4
v -2 1 1.4
v -3 2 -1.4
v -3 2 1.4
v -3 1 1.4
v -3 1 -1.4
v 1 3 -1.75
v 1 2 -1.75
v 1 3 1.75
v 1 2 1.75
v -1 3 -1.75
v -1 3 1.75
v -1 2 1.75
v -1 2 -1.75
v 3 1 -1.75
v 3 -1 -1.75
v 3 1 1.75
v 3 -1 1.75
v 2 1 -1.75
v 2 1 1.75
v 2 -1 1.75
v 2 -1 -1.75
v -2 1 -1.75
v -2 -1 -1.75
v -2 1 1.75
v -2 -1 1.75
v -3 1 -1.75
v -3 1 1.75
v -3 -1 1.75
v -3 -1 -1.75
v 1 0 -1.75
v 1 -1 -1.75
v 1 0 1.75
v 1 -1 1.75
v -1 0 -1.75
v -1 0 1.75
v -1 -1 1.75
v -1 -1 -1.75
v 2 2 -1.05
v 2 1 -1.05
v 2 2 1.05
v 2 1 1.05
v 1 2 -1.05
v 1 2 1.05
v 1 1 1.05
v 1 1 -1.05
v -1 2 -1.05
v -1 1 -1.05
v -1 2 1.05
v -1 1 1.05
v -2 2 -1.05
v -2 2 1.05
v -2 1 1.05
v -2 1 -1.05
v 3 -1 -1.4
v 3 -2 -1.4
v 3 -1 1.4
v 3 -2 1.4
v 2 -1 -1.4
v 2 -1 1.4
v 2 -2 1.4
v 2 -2 -1.4
v -2 -1 -1.4
v -2 -2 -1.4
v -2 -1 1.4
v -2 -2 1.4
v -3 -1 -1.4
v -3 -1 1.4
v -3 -2 1.4
v -3 -2 -1.4
v 2 0 -1.05
v 2 0 1.05
v 1 0 1.05
v 1 0 -1.05
v -1 0 -1.05
v -1 0 1.05
v -2 0 1.05
v -2 0 -1.05
v 2 -1 -1.05
v 2 -1 1.05
v 1 -1 1.05
v 1 -1 -1.05
v -1 -1 -1.05
v -1 -1 1.05
v -2 -1 1.05
v -2 -1 -1.05
v 1 -1 -1.4
v 1 -2 -1.4
v 1 -1 1.4
v 1 -2 1.4
v -1 -1 -1.4
v -1 -1 1.4
v -1 -2 1.4
v -1 -2 -1.4
v 2 -2 -1.05
v 2 -2 1.05
v 1 -2 1.05
v 1 -2 -1.05
v -1 -2 -1.05
v -1 -2 1.05
v -2 -2 1.05
v -2 -2 -1.05

vn 1 0 0
vn 0 1 0
vn 0 -1 0
vn -1 0 0
vn 0 0 -1
vn 0 0 1

vt -19.68504 19.68504
vt 19.68504 19.68504
vt -19.68504 -19.68504
vt 0 NaN
vt 0 0
vt 0 NaN
vt 0 NaN
vt 0 NaN
vt 0 NaN
vt 0 NaN
vt 19.68504 -19.68504
vt 0 NaN
vt 0 NaN
vt 0 NaN
vt 0 NaN
vt 0 NaN
vt 0 NaN
vt 0 NaN
vt 0 NaN
vt 0 NaN
vt 0 NaN
vt 0 NaN
vt 0 NaN
vt 0 NaN
vt 0 NaN
vt 0 NaN
vt 0 NaN
vt 0 NaN
vt 0 NaN
vt 0 NaN
vt 0 NaN
vt 0 NaN
vt 0 NaN
vt 0 NaN
vt 0 NaN
vt 0 NaN
vt 0 NaN
vt 0 NaN
vt 0 NaN
vt 0 NaN
vt 0 NaN
vt 0 NaN
vt 0 NaN
vt 0 NaN
vt 0 NaN
vt 0 NaN
vt 0 NaN
vt 0 NaN
vt 0 NaN
vt 0 NaN
vt 0 NaN
vt 0 NaN
vt 0 NaN
vt 0 NaN
vt 0 NaN
vt 0 NaN
vt 0 NaN
vt 0 NaN
vt 0 NaN
vt 0 NaN
vt 0 NaN
vt 0 NaN
vt 0 NaN
vt 0 NaN
vt 0 NaN
vt 0 NaN
vt 0 NaN
vt 0 NaN
vt 0 NaN
vt 0 NaN
vt 0 NaN
vt 0 NaN
vt 0 NaN
vt 0 NaN
vt 0 NaN
vt 0 NaN
vt 0 NaN
vt 0 NaN
vt 0 NaN
vt 0 NaN
vt 0 NaN
vt 0 NaN
vt 0 NaN
vt 0 NaN
vt 0 NaN
vt 0 NaN
vt 0 NaN
vt 0 NaN
vt 0 NaN
vt 0 NaN
vt 0 NaN
vt 0 NaN
vt 0 NaN
vt 0 NaN
vt 0 NaN
vt 0 NaN
vt 0 NaN
vt 0 NaN
vt 0 NaN
vt 0 NaN
vt 0 NaN
vt 0 NaN
vt 0 NaN
vt 0 NaN
vt 0 NaN
vt 0 NaN
vt 0 NaN
vt 0 NaN
vt 0 NaN

usemtl color7

f 3/3/1 2/2/1 1/1/1
f 2/3/1 3/2/1 4/1/1
f 5/3/2 3/2/2 1/1/2
f 3/3/2 5/2/2 6/1/2
f 7/5/3 2/5/3 4/4/3
f 2/5/3 7/5/3 8/6/3
f 7/5/4 5/5/4 8/7/4
f 5/5/4 7/5/4 6/8/4
f 5/5/5 2/5/5 8/9/5
f 2/5/5 5/5/5 1/10/5
f 3/2/6 7/3/6 4/11/6
f 7/3/6 3/2/6 6/1/6
f 11/3/1 10/2/1 9/1/1
f 10/3/1 11/2/1 12/1/1
f 13/3/2 11/2/2 9/1/2
f 11/3/2 13/2/2 14/1/2
f 15/5/3 10/5/3 12/12/3
f 10/5/3 15/5/3 16/13/3
f 15/5/4 13/5/4 16/14/4
f 13/5/4 15/5/4 14/15/4
f 13/5/5 10/5/5 16/16/5
f 10/5/5 13/5/5 9/17/5
f 11/2/6 15/3/6 12/11/6
f 15/3/6 11/2/6 14/1/6
f 3/3/1 2/2/1 1/1/1
f 2/3/1 3/2/1 4/1/1
f 5/3/2 3/2/2 1/1/2
f 3/3/2 5/2/2 6/1/2
f 7/5/3 2/5/3 4/4/3
f 2/5/3 7/5/3 8/6/3
f 7/5/4 5/5/4 8/7/4
f 5/5/4 7/5/4 6/8/4
f 5/5/5 2/5/5 8/9/5
f 2/5/5 5/5/5 1/10/5
f 3/2/6 7/3/6 4/11/6
f 7/3/6 3/2/6 6/1/6
f 19/3/1 18/2/1 17/1/1
f 18/3/1 19/2/1 20/1/1
f 2/3/2 19/2/2 17/1/2
f 19/3/2 2/2/2 4/1/2
f 21/5/3 18/5/3 20/18/3
f 18/5/3 21/5/3 22/19/3
f 21/5/4 2/5/4 22/20/4
f 2/5/4 21/5/4 4/21/4
f 2/5/5 18/5/5 22/22/5
f 18/5/5 2/5/5 17/23/5
f 19/2/6 21/3/6 20/11/6
f 21/3/6 19/2/6 4/1/6
f 15/3/1 23/2/1 16/1/1
f 23/3/1 15/2/1 24/1/1
f 25/3/2 15/2/2 16/1/2
f 15/3/2 25/2/2 26/1/2
f 27/5/3 23/5/3 24/24/3
f 23/5/3 27/5/3 28/25/3
f 27/5/4 25/5/4 28/26/4
f 25/5/4 27/5/4 26/27/4
f 25/5/5 23/5/5 28/28/5
f 23/5/5 25/5/5 16/16/5
f 15/2/6 27/3/6 24/11/6
f 27/3/6 15/2/6 26/1/6

usemtl color4

f 31/3/1 30/2/1 29/1/1
f 30/3/1 31/2/1 32/1/1
f 33/3/2 31/2/2 29/1/2
f 31/3/2 33/2/2 34/1/2
f 35/5/3 30/5/3 32/29/3
f 30/5/3 35/5/3 36/30/3
f 35/5/4 33/5/4 36/31/4
f 33/5/4 35/5/4 34/32/4
f 33/5/5 30/5/5 36/33/5
f 30/5/5 33/5/5 29/34/5
f 31/2/6 35/3/6 32/11/6
f 35/3/6 31/2/6 34/1/6
f 39/3/1 38/2/1 37/1/1
f 38/3/1 39/2/1 40/1/1
f 41/3/2 39/2/2 37/1/2
f 39/3/2 41/2/2 42/1/2
f 43/5/3 38/5/3 40/35/3
f 38/5/3 43/5/3 44/36/3
f 43/5/4 41/5/4 44/37/4
f 41/5/4 43/5/4 42/38/4
f 41/5/5 38/5/5 44/39/5
f 38/5/5 41/5/5 37/40/5
f 39/2/6 43/3/6 40/11/6
f 43/3/6 39/2/6 42/1/6
f 47/3/1 46/2/1 45/1/1
f 46/3/1 47/2/1 48/1/1
f 49/3/2 47/2/2 45/1/2
f 47/3/2 49/2/2 50/1/2
f 51/5/3 46/5/3 48/41/3
f 46/5/3 51/5/3 52/42/3
f 51/5/4 49/5/4 52/43/4
f 49/5/4 51/5/4 50/44/4
f 49/5/5 46/5/5 52/45/5
f 46/5/5 49/5/5 45/46/5
f 47/2/6 51/3/6 48/11/6
f 51/3/6 47/2/6 50/1/6
f 55/3/1 54/2/1 53/1/1
f 54/3/1 55/2/1 56/1/1
f 57/3/2 55/2/2 53/1/2
f 55/3/2 57/2/2 58/1/2
f 59/5/3 54/5/3 56/47/3
f 54/5/3 59/5/3 60/48/3
f 59/5/4 57/5/4 60/49/4
f 57/5/4 59/5/4 58/50/4
f 57/5/5 54/5/5 60/51/5
f 54/5/5 57/5/5 53/52/5
f 55/2/6 59/3/6 56/11/6
f 59/3/6 55/2/6 58/1/6

usemtl color8

f 63/3/1 62/2/1 61/1/1
f 62/3/1 63/2/1 64/1/1
f 65/3/2 63/2/2 61/1/2
f 63/3/2 65/2/2 66/1/2
f 67/5/3 62/5/3 64/53/3
f 62/5/3 67/5/3 68/54/3
f 67/5/4 65/5/4 68/55/4
f 65/5/4 67/5/4 66/56/4
f 65/5/5 62/5/5 68/57/5
f 62/5/5 65/5/5 61/58/5
f 63/2/6 67/3/6 64/11/6
f 67/3/6 63/2/6 66/1/6
f 71/3/1 70/2/1 69/1/1
f 70/3/1 71/2/1 72/1/1
f 73/3/2 71/2/2 69/1/2
f 71/3/2 73/2/2 74/1/2
f 75/5/3 70/5/3 72/59/3
f 70/5/3 75/5/3 76/60/3
f 75/5/4 73/5/4 76/61/4
f 73/5/4 75/5/4 74/62/4
f 73/5/5 70/5/5 76/63/5
f 70/5/5 73/5/5 69/64/5
f 71/2/6 75/3/6 72/11/6
f 75/3/6 71/2/6 74/1/6

usemtl color1

f 66/3/1 68/2/1 65/1/1
f 68/3/1 66/2/1 67/1/1
f 69/3/2 66/2/2 65/1/2
f 66/3/2 69/2/2 71/1/2
f 72/59/3 68/54/3 67/5/3
f 68/54/3 72/59/3 70/5/3
f 72/5/4 69/5/4 70/65/4
f 69/5/4 72/5/4 71/66/4
f 69/64/5 68/57/5 70/5/5
f 68/57/5 69/64/5 65/5/5
f 66/2/6 72/3/6 67/11/6
f 72/3/6 66/2/6 71/1/6
f 79/3/1 78/2/1 77/1/1
f 78/3/1 79/2/1 80/1/1
f 81/3/2 79/2/2 77/1/2
f 79/3/2 81/2/2 82/1/2
f 83/5/3 78/5/3 80/67/3
f 78/5/3 83/5/3 84/68/3
f 83/5/4 81/5/4 84/69/4
f 81/5/4 83/5/4 82/70/4
f 81/5/5 78/5/5 84/71/5
f 78/5/5 81/5/5 77/72/5
f 79/2/6 83/3/6 80/11/6
f 83/3/6 79/2/6 82/1/6
f 87/3/1 86/2/1 85/1/1
f 86/3/1 87/2/1 88/1/1
f 89/3/2 87/2/2 85/1/2
f 87/3/2 89/2/2 90/1/2
f 91/5/3 86/5/3 88/73/3
f 86/5/3 91/5/3 92/74/3
f 91/5/4 89/5/4 92/75/4
f 89/5/4 91/5/4 90/76/4
f 89/5/5 86/5/5 92/77/5
f 86/5/5 89/5/5 85/78/5
f 87/2/6 91/3/6 88/11/6
f 91/3/6 87/2/6 90/1/6

usemtl color5

f 64/3/1 93/2/1 62/1/1
f 93/3/1 64/2/1 94/1/1
f 68/3/2 64/2/2 62/1/2
f 64/3/2 68/2/2 67/1/2
f 95/5/3 93/5/3 94/79/3
f 93/5/3 95/5/3 96/80/3
f 95/5/4 68/55/4 96/81/4
f 68/55/4 95/5/4 67/5/4
f 68/57/5 93/5/5 96/82/5
f 93/5/5 68/57/5 62/5/5
f 64/2/6 95/3/6 94/11/6
f 95/3/6 64/2/6 67/1/6
f 72/3/1 97/2/1 70/1/1
f 97/3/1 72/2/1 98/1/1
f 76/3/2 72/2/2 70/1/2
f 72/3/2 76/2/2 75/1/2
f 99/5/3 97/5/3 98/83/3
f 97/5/3 99/5/3 100/84/3
f 99/5/4 76/61/4 100/85/4
f 76/61/4 99/5/4 75/5/4
f 76/63/5 97/5/5 100/86/5
f 97/5/5 76/63/5 70/5/5
f 72/2/6 99/3/6 98/11/6
f 99/3/6 72/2/6 75/1/6

usemtl color6

f 67/3/1 96/2/1 68/1/1
f 96/3/1 67/2/1 95/1/1
f 70/3/2 67/2/2 68/1/2
f 67/3/2 70/2/2 72/1/2
f 98/83/3 96/80/3 95/5/3
f 96/80/3 98/83/3 97/5/3
f 98/5/4 70/65/4 97/87/4
f 70/65/4 98/5/4 72/5/4
f 70/5/5 96/82/5 97/5/5
f 96/82/5 70/5/5 68/57/5
f 67/2/6 98/3/6 95/11/6
f 98/3/6 67/2/6 72/1/6

usemtl color3

f 94/3/1 101/2/1 93/1/1
f 101/3/1 94/2/1 102/1/1
f 96/3/2 94/2/2 93/1/2
f 94/3/2 96/2/2 95/1/2
f 103/5/3 101/5/3 102/88/3
f 101/5/3 103/5/3 104/89/3
f 103/5/4 96/81/4 104/90/4
f 96/81/4 103/5/4 95/5/4
f 96/82/5 101/5/5 104/91/5
f 101/5/5 96/82/5 93/5/5
f 94/2/6 103/3/6 102/11/6
f 103/3/6 94/2/6 95/1/6
f 98/3/1 105/2/1 97/1/1
f 105/3/1 98/2/1 106/1/1
f 100/3/2 98/2/2 97/1/2
f 98/3/2 100/2/2 99/1/2
f 107/5/3 105/5/3 106/92/3
f 105/5/3 107/5/3 108/93/3
f 107/5/4 100/85/4 108/94/4
f 100/85/4 107/5/4 99/5/4
f 100/86/5 105/5/5 108/95/5
f 105/5/5 100/86/5 97/5/5
f 98/2/6 107/3/6 106/11/6
f 107/3/6 98/2/6 99/1/6
f 111/3/1 110/2/1 109/1/1
f 110/3/1 111/2/1 112/1/1
f 113/3/2 111/2/2 109/1/2
f 111/3/2 113/2/2 114/1/2
f 115/5/3 110/5/3 112/96/3
f 110/5/3 115/5/3 116/97/3
f 115/5/4 113/5/4 116/98/4
f 113/5/4 115/5/4 114/99/4
f 113/5/5 110/5/5 116/100/5
f 110/5/5 113/5/5 109/101/5
f 111/2/6 115/3/6 112/11/6
f 115/3/6 111/2/6 114/1/6

usemtl color2

f 102/3/1 117/2/1 101/1/1
f 117/3/1 102/2/1 118/1/1
f 104/3/2 102/2/2 101/1/2
f 102/3/2 104/2/2 103/1/2
f 119/5/3 117/5/3 118/102/3
f 117/5/3 119/5/3 120/103/3
f 119/5/4 104/90/4 120/104/4
f 104/90/4 119/5/4 103/5/4
f 104/91/5 117/5/5 120/105/5
f 117/5/5 104/91/5 101/5/5
f 102/2/6 119/3/6 118/11/6
f 119/3/6 102/2/6 103/1/6
f 106/3/1 121/2/1 105/1/1
f 121/3/1 106/2/1 122/1/1
f 108/3/2 106/2/2 105/1/2
f 106/3/2 108/2/2 107/1/2
f 123/5/3 121/5/3 122/106/3
f 121/5/3 123/5/3 124/107/3
f 123/5/4 108/94/4 124/108/4
f 108/94/4 123/5/4 107/5/4
f 108/95/5 121/5/5 124/109/5
f 121/5/5 108/95/5 105/5/5
f 106/2/6 123/3/6 122/11/6
f 123/3/6 106/2/6 107/1/6

