# Created by Kenney (www.kenney.nl)

mtllib Emitter N7M Seiliu.mtl

v 5 5 -0.8
v 5 4 -0.8
v 5 5 0.8
v 5 4 0.8
v 4 5 -0.8
v 4 5 0.8
v 4 4 0.8
v 4 4 -0.8
v 4 3 -0.8
v 4 3 0.8
v 3 4 -0.8
v 3 4 0.8
v 3 3 0.8
v 3 3 -0.8
v 2 4 -0.8
v 2 3 -0.8
v 2 4 0.8
v 2 3 0.8
v 1 4 -0.8
v 1 4 0.8
v 1 3 0.8
v 1 3 -0.8
v 6 0 -0.4
v 6 -1 -0.4
v 6 0 0.4
v 6 -1 0.4
v 5 0 -0.4
v 5 0 0.4
v 5 -1 0.4
v 5 -1 -0.4
v 5 -1 -0.8
v 5 -2 -0.8
v 5 -1 0.8
v 5 -2 0.8
v 4 -1 -0.8
v 4 -1 0.8
v 4 -2 0.8
v 4 -2 -0.8
v 6 -2 -0.4
v 6 -3 -0.4
v 6 -2 0.4
v 6 -3 0.4
v 5 -2 -0.4
v 5 -2 0.4
v 5 -3 0.4
v 5 -3 -0.4
v 3 5 -0.8
v 3 5 0.8
v 2 5 -0.8
v 2 5 0.8
v 1 5 -0.8
v 1 5 0.8
v 3 5 -0.4
v 3 4 -0.4
v 3 5 0.4
v 3 4 0.4
v 2 5 -0.4
v 2 5 0.4
v 2 4 0.4
v 2 4 -0.4
v 7 4 -0.8
v 7 3 -0.8
v 7 4 0.8
v 7 3 0.8
v 6 4 -0.8
v 6 4 0.8
v 6 3 0.8
v 6 3 -0.8
v 3 3 -1.6
v 3 2 -1.6
v 3 3 1.6
v 3 2 1.6
v 1 3 -1.6
v 1 3 1.6
v 1 2 1.6
v 1 2 -1.6
v -6 3 -1.2
v -6 2 -1.2
v -6 3 1.2
v -6 2 1.2
v -7 3 -1.2
v -7 3 1.2
v -7 2 1.2
v -7 2 -1.2
v -2 1 -1.6
v -2 0 -1.6
v -2 1 1.6
v -2 0 1.6
v -4 1 -1.6
v -4 1 1.6
v -4 0 1.6
v -4 0 -1.6
v 5 3 0.8
v 5 3 -0.8
v -1 4 -0.8
v -1 3 -0.8
v -1 4 0.8
v -1 3 0.8
v -2 4 -0.8
v -2 4 0.8
v -2 3 0.8
v -2 3 -0.8
v 0 3 -0.8
v 0 1 -0.8
v 0 3 0.8
v 0 1 0.8
v -1 1 0.8
v -1 1 -0.8
v 1 2 -0.8
v 1 1 -0.8
v 1 2 0.8
v 1 1 0.8
v 0 2 -0.8
v 0 2 0.8
v -1 2 -0.8
v -1 2 0.8
v -2 2 -0.8
v -2 2 0.8
v -2 1 0.8
v -2 1 -0.8
v 1 0 -0.8
v 1 -1 -0.8
v 1 0 0.8
v 1 -1 0.8
v 0 0 -0.8
v 0 0 0.8
v 0 -1 0.8
v 0 -1 -0.8
v 1 -1 -0.4
v 1 -2 -0.4
v 1 -1 0.4
v 1 -2 0.4
v 0 -1 -0.4
v 0 -1 0.4
v 0 -2 0.4
v 0 -2 -0.4
v 0 -2 -0.8
v 0 -2 0.8
v -1 -1 -0.8
v -1 -1 0.8
v -1 -2 0.8
v -1 -2 -0.8
v 5 4 -1.2
v 5 3 -1.2
v 5 4 1.2
v 5 3 1.2
v 4 4 -1.2
v 4 4 1.2
v 4 3 1.2
v 4 3 -1.2
v -3 4 -1.2
v -3 3 -1.2
v -3 4 1.2
v -3 3 1.2
v -5 4 -1.2
v -5 4 1.2
v -5 3 1.2
v -5 3 -1.2
v -2 3 -1.6
v -2 2 -1.6
v -2 3 1.6
v -2 2 1.6
v -3 3 -1.6
v -3 3 1.6
v -3 2 1.6
v -3 2 -1.6
v -5 3 -1.6
v -5 2 -1.6
v -5 3 1.6
v -5 2 1.6
v -6 3 -1.6
v -6 3 1.6
v -6 2 1.6
v -6 2 -1.6
v -5 1 -1.6
v -5 0 -1.6
v -5 1 1.6
v -5 0 1.6
v -6 1 -1.6
v -6 1 1.6
v -6 0 1.6
v -6 0 -1.6
v 3 3 -0.4
v 3 3 0.4
v 2 3 0.4
v 2 3 -0.4
v 1 4 -1.2
v 1 3 -1.2
v 1 4 1.2
v 1 3 1.2
v 0 4 -1.2
v 0 4 1.2
v 0 3 1.2
v 0 3 -1.2
v -2 4 -1.2
v -2 3 -1.2
v -2 4 1.2
v -2 3 1.2
v -6 1 -1.2
v -6 0 -1.2
v -6 1 1.2
v -6 0 1.2
v -7 1 -1.2
v -7 1 1.2
v -7 0 1.2
v -7 0 -1.2
v -1 4 -1.2
v -1 4 1.2
v -1 3 1.2
v -1 3 -1.2
v -6 4 -1.2
v -6 4 1.2
v 0 3 -1.6
v 0 3 1.6
v 0 2 1.6
v 0 2 -1.6
v 7 3 -1.2
v 7 2 -1.2
v 7 3 1.2
v 7 2 1.2
v 6 3 -1.2
v 6 3 1.2
v 6 2 1.2
v 6 2 -1.2
v 6 1 -1.2
v 6 1 1.2
v 5 2 -1.2
v 5 2 1.2
v 5 1 1.2
v 5 1 -1.2
v 2 2 -1.2
v 2 1 -1.2
v 2 2 1.2
v 2 1 1.2
v 1 2 -1.2
v 1 2 1.2
v 1 1 1.2
v 1 1 -1.2
v 6 2 -0.8
v 6 2 0.8
v 5 2 0.8
v 5 2 -0.8
v 5 1 -0.8
v 5 1 0.8
v 4 2 -0.8
v 4 2 0.8
v 4 1 0.8
v 4 1 -0.8
v 5 3 -1.6
v 5 2 -1.6
v 5 3 1.6
v 5 2 1.6
v 4 3 -1.6
v 4 3 1.6
v 4 2 1.6
v 4 2 -1.6
v 0 1 -1.2
v 0 0 -1.2
v 0 1 1.2
v 0 0 1.2
v -1 1 -1.2
v -1 1 1.2
v -1 0 1.2
v -1 0 -1.2
v -1 1 -1.6
v -1 0 -1.6
v -1 1 1.6
v -1 0 1.6
v -1 3 -1.6
v -1 2 -1.6
v -1 3 1.6
v -1 2 1.6
v 4 2 -1.2
v 4 1 -1.2
v 4 2 1.2
v 4 1 1.2
v -3 2 -0.8
v -3 2 0.8
v -3 1 0.8
v -3 1 -0.8
v -4 2 -0.8
v -4 1 -0.8
v -4 2 0.8
v -4 1 0.8
v -5 2 -0.8
v -5 2 0.8
v -5 1 0.8
v -5 1 -0.8
v -3 2 -0.4
v -3 1 -0.4
v -3 2 0.4
v -3 1 0.4
v -4 2 -0.4
v -4 2 0.4
v -4 1 0.4
v -4 1 -0.4
v -5 2 -0.4
v -5 1 -0.4
v -5 2 0.4
v -5 1 0.4
v -6 2 -0.4
v -6 2 0.4
v -6 1 0.4
v -6 1 -0.4
v 5 1 -0.4
v 5 1 0.4
v 4 1 -0.4
v 4 1 0.4
v 4 0 0.4
v 4 0 -0.4
v 4 -1 -0.4
v 4 -1 0.4
v 1 0 -0.4
v 1 0 0.4
v -2 -1 -0.8
v -2 -1 0.8
v -2 -2 0.8
v -2 -2 -0.8
v 6 -3 -0.8
v 6 -4 -0.8
v 6 -3 0.8
v 6 -4 0.8
v 3 -3 -0.8
v 3 -3 0.8
v 3 -4 0.8
v 3 -4 -0.8
v 4 0 -0.8
v 4 0 0.8
v 3 1 -0.8
v 3 1 0.8
v 3 0 0.8
v 3 0 -0.8
v 1 0 -1.2
v 1 0 1.2
v 5 0 -0.8
v 5 0 0.8
v 5 -3 -0.8
v 5 -3 0.8
v 4 -3 0.8
v 4 -3 -0.8
v 0 -1 -1.2
v 0 -1 1.2
v -1 -1 1.2
v -1 -1 -1.2
v -2 0 -1.2
v -2 0 1.2
v -2 -1 1.2
v -2 -1 -1.2
v -4 0 -1.2
v -4 -1 -1.2
v -4 0 1.2
v -4 -1 1.2
v -6 -1 1.2
v -6 -1 -1.2
v 4 -2 -0.4
v 4 -3 -0.4
v 4 -2 0.4
v 4 -3 0.4
v 3 -2 -0.4
v 3 -2 0.4
v 3 -3 0.4
v 3 -3 -0.4

vn 1 0 0
vn 0 1 0
vn 0 -1 0
vn -1 0 0
vn 0 0 -1
vn 0 0 1

vt -19.68504 19.68504
vt 19.68504 19.68504
vt -19.68504 -19.68504
vt 0 NaN
vt 0 0
vt 0 NaN
vt 0 NaN
vt 0 NaN
vt 0 NaN
vt 0 NaN
vt 19.68504 -19.68504
vt 0 NaN
vt 0 NaN
vt 0 NaN
vt 0 NaN
vt 0 NaN
vt 0 NaN
vt 0 NaN
vt 0 NaN
vt 0 NaN
vt 0 NaN
vt 0 NaN
vt 0 NaN
vt 0 NaN
vt 0 NaN
vt 0 NaN
vt 0 NaN
vt 0 NaN
vt 0 NaN
vt 0 NaN
vt 0 NaN
vt 0 NaN
vt 0 NaN
vt 0 NaN
vt 0 NaN
vt 0 NaN
vt 0 NaN
vt 0 NaN
vt 0 NaN
vt 0 NaN
vt 0 NaN
vt 0 NaN
vt 0 NaN
vt 0 NaN
vt 0 NaN
vt 0 NaN
vt 0 NaN
vt 0 NaN
vt 0 NaN
vt 0 NaN
vt 0 NaN
vt 0 NaN
vt 0 NaN
vt 0 NaN
vt 0 NaN
vt 0 NaN
vt 0 NaN
vt 0 NaN
vt 0 NaN
vt 0 NaN
vt 0 NaN
vt 0 NaN
vt 0 NaN
vt 0 NaN
vt 0 NaN
vt 0 NaN
vt 0 NaN
vt 0 NaN
vt 0 NaN
vt 0 NaN
vt 0 NaN
vt 0 NaN
vt 0 NaN
vt 0 NaN
vt 0 NaN
vt 0 NaN
vt 0 NaN
vt 0 NaN
vt 0 NaN
vt 0 NaN
vt 0 NaN
vt 0 NaN
vt 0 NaN
vt 0 NaN
vt 0 NaN
vt 0 NaN
vt 0 NaN
vt 0 NaN
vt 0 NaN
vt 0 NaN
vt 0 NaN
vt 0 NaN
vt 0 NaN
vt 0 NaN
vt 0 NaN
vt 0 NaN
vt 0 NaN
vt 0 NaN
vt 0 NaN
vt 0 NaN
vt 0 NaN
vt 0 NaN
vt 0 NaN
vt 0 NaN
vt 0 NaN
vt 0 NaN
vt 0 NaN
vt 0 NaN
vt 0 NaN
vt 0 NaN
vt 0 NaN
vt 0 NaN
vt 0 NaN
vt 0 NaN
vt 0 NaN
vt 0 NaN
vt 0 NaN
vt 0 NaN
vt 0 NaN
vt 0 NaN
vt 0 NaN
vt 0 NaN
vt 0 NaN
vt 0 NaN
vt 0 NaN
vt 0 NaN
vt 0 NaN
vt 0 NaN
vt 0 NaN
vt 0 NaN
vt 0 NaN
vt 0 NaN
vt 0 NaN
vt 0 NaN
vt 0 NaN
vt 0 NaN
vt 0 NaN
vt 0 NaN
vt 0 NaN
vt 0 NaN
vt 0 NaN
vt 0 NaN
vt 0 NaN
vt 0 NaN
vt 0 NaN
vt 0 NaN
vt 0 NaN
vt 0 NaN
vt 0 NaN
vt 0 NaN
vt 0 NaN
vt 0 NaN
vt 0 NaN
vt 0 NaN
vt 0 NaN
vt 0 NaN
vt 0 NaN
vt 0 NaN
vt 0 NaN
vt 0 NaN
vt 0 NaN
vt 0 NaN
vt 0 NaN
vt 0 NaN
vt 0 NaN
vt 0 NaN
vt 0 NaN
vt 0 NaN
vt 0 NaN
vt 0 NaN
vt 0 NaN
vt 0 NaN
vt 0 NaN
vt 0 NaN
vt 0 NaN
vt 0 NaN
vt 0 NaN
vt 0 NaN
vt 0 NaN
vt 0 NaN
vt 0 NaN
vt 0 NaN
vt 0 NaN
vt 0 NaN
vt 0 NaN
vt 0 NaN
vt 0 NaN
vt 0 NaN
vt 0 NaN
vt 0 NaN
vt 0 NaN
vt 0 NaN
vt 0 NaN
vt 0 NaN
vt 0 NaN
vt 0 NaN
vt 0 NaN
vt 0 NaN
vt 0 NaN
vt 0 NaN
vt 0 NaN
vt 0 NaN
vt 0 NaN
vt 0 NaN
vt 0 NaN
vt 0 NaN
vt 0 NaN
vt 0 NaN
vt 0 NaN
vt 0 NaN
vt 0 NaN
vt 0 NaN
vt 0 NaN
vt 0 NaN
vt 0 NaN
vt 0 NaN
vt 0 NaN
vt 0 NaN
vt 0 NaN
vt 0 NaN
vt 0 NaN
vt 0 NaN
vt 0 NaN
vt 0 NaN
vt 0 NaN
vt 0 NaN
vt 0 NaN
vt 0 NaN
vt 0 NaN
vt 0 NaN
vt 0 NaN
vt 0 NaN
vt 0 NaN
vt 0 NaN
vt 0 NaN
vt 0 NaN
vt 0 NaN
vt 0 NaN
vt 0 NaN
vt 0 NaN
vt 0 NaN
vt 0 NaN
vt 0 NaN
vt 0 NaN
vt 0 NaN
vt 0 NaN
vt 0 NaN
vt 0 NaN
vt 0 NaN
vt 0 NaN
vt 0 NaN
vt 0 NaN
vt 0 NaN
vt 0 NaN
vt 0 NaN
vt 0 NaN
vt 0 NaN
vt 0 NaN
vt 0 NaN
vt 0 NaN
vt 0 NaN
vt 0 NaN
vt 0 NaN
vt 0 NaN
vt 0 NaN
vt 0 NaN
vt 0 NaN
vt 0 NaN
vt 0 NaN
vt 0 NaN
vt 0 NaN
vt 0 NaN
vt 0 NaN
vt 0 NaN
vt 0 NaN
vt 0 NaN
vt 0 NaN
vt 0 NaN
vt 0 NaN
vt 0 NaN
vt 0 NaN
vt 0 NaN
vt 0 NaN
vt 0 NaN
vt 0 NaN
vt 0 NaN
vt 0 NaN
vt 0 NaN
vt 0 NaN
vt 0 NaN
vt 0 NaN
vt 0 NaN
vt 0 NaN
vt 0 NaN
vt 0 NaN
vt 0 NaN
vt 0 NaN
vt 0 NaN
vt 0 NaN
vt 0 NaN
vt 0 NaN
vt 0 NaN
vt 0 NaN
vt 0 NaN
vt 0 NaN
vt 0 NaN
vt 0 NaN
vt 0 NaN
vt 0 NaN
vt 0 NaN
vt 0 NaN
vt 0 NaN
vt 0 NaN
vt 0 NaN
vt 0 NaN
vt 0 NaN
vt 0 NaN

usemtl color3

f 3/3/1 2/2/1 1/1/1
f 2/3/1 3/2/1 4/1/1
f 5/3/2 3/2/2 1/1/2
f 3/3/2 5/2/2 6/1/2
f 7/5/3 2/5/3 4/4/3
f 2/5/3 7/5/3 8/6/3
f 7/5/4 5/5/4 8/7/4
f 5/5/4 7/5/4 6/8/4
f 5/5/5 2/5/5 8/9/5
f 2/5/5 5/5/5 1/10/5
f 3/2/6 7/3/6 4/11/6
f 7/3/6 3/2/6 6/1/6
f 3/3/1 2/2/1 1/1/1
f 2/3/1 3/2/1 4/1/1
f 5/3/2 3/2/2 1/1/2
f 3/3/2 5/2/2 6/1/2
f 7/5/3 2/5/3 4/4/3
f 2/5/3 7/5/3 8/6/3
f 7/5/4 5/5/4 8/7/4
f 5/5/4 7/5/4 6/8/4
f 5/5/5 2/5/5 8/9/5
f 2/5/5 5/5/5 1/10/5
f 3/2/6 7/3/6 4/11/6
f 7/3/6 3/2/6 6/1/6
f 7/3/1 9/2/1 8/1/1
f 9/3/1 7/2/1 10/1/1
f 11/3/2 7/2/2 8/1/2
f 7/3/2 11/2/2 12/1/2
f 13/5/3 9/5/3 10/12/3
f 9/5/3 13/5/3 14/13/3
f 13/5/4 11/5/4 14/14/4
f 11/5/4 13/5/4 12/15/4
f 11/5/5 9/5/5 14/16/5
f 9/5/5 11/5/5 8/9/5
f 7/2/6 13/3/6 10/11/6
f 13/3/6 7/2/6 12/1/6
f 17/3/1 16/2/1 15/1/1
f 16/3/1 17/2/1 18/1/1
f 19/3/2 17/2/2 15/1/2
f 17/3/2 19/2/2 20/1/2
f 21/5/3 16/5/3 18/17/3
f 16/5/3 21/5/3 22/18/3
f 21/5/4 19/5/4 22/19/4
f 19/5/4 21/5/4 20/20/4
f 19/5/5 16/5/5 22/21/5
f 16/5/5 19/5/5 15/22/5
f 17/2/6 21/3/6 18/11/6
f 21/3/6 17/2/6 20/1/6
f 25/3/1 24/2/1 23/1/1
f 24/3/1 25/2/1 26/1/1
f 27/3/2 25/2/2 23/1/2
f 25/3/2 27/2/2 28/1/2
f 29/5/3 24/5/3 26/23/3
f 24/5/3 29/5/3 30/24/3
f 29/5/4 27/5/4 30/25/4
f 27/5/4 29/5/4 28/26/4
f 27/5/5 24/5/5 30/27/5
f 24/5/5 27/5/5 23/28/5
f 25/2/6 29/3/6 26/11/6
f 29/3/6 25/2/6 28/1/6
f 33/3/1 32/2/1 31/1/1
f 32/3/1 33/2/1 34/1/1
f 35/3/2 33/2/2 31/1/2
f 33/3/2 35/2/2 36/1/2
f 37/5/3 32/5/3 34/29/3
f 32/5/3 37/5/3 38/30/3
f 37/5/4 35/5/4 38/31/4
f 35/5/4 37/5/4 36/32/4
f 35/5/5 32/5/5 38/33/5
f 32/5/5 35/5/5 31/34/5
f 33/2/6 37/3/6 34/11/6
f 37/3/6 33/2/6 36/1/6
f 41/3/1 40/2/1 39/1/1
f 40/3/1 41/2/1 42/1/1
f 43/3/2 41/2/2 39/1/2
f 41/3/2 43/2/2 44/1/2
f 45/5/3 40/5/3 42/35/3
f 40/5/3 45/5/3 46/36/3
f 45/5/4 43/5/4 46/37/4
f 43/5/4 45/5/4 44/38/4
f 43/5/5 40/5/5 46/39/5
f 40/5/5 43/5/5 39/40/5
f 41/2/6 45/3/6 42/11/6
f 45/3/6 41/2/6 44/1/6

usemtl color26

f 6/3/1 8/2/1 5/1/1
f 8/3/1 6/2/1 7/1/1
f 47/3/2 6/2/2 5/1/2
f 6/3/2 47/2/2 48/1/2
f 12/5/3 8/6/3 7/5/3
f 8/6/3 12/5/3 11/41/3
f 12/15/4 47/5/4 11/5/4
f 47/5/4 12/15/4 48/42/4
f 47/5/5 8/9/5 11/5/5
f 8/9/5 47/5/5 5/5/5
f 6/2/6 12/3/6 7/11/6
f 12/3/6 6/2/6 48/1/6
f 50/3/1 15/2/1 49/1/1
f 15/3/1 50/2/1 17/1/1
f 51/3/2 50/2/2 49/1/2
f 50/3/2 51/2/2 52/1/2
f 20/5/3 15/5/3 17/43/3
f 15/5/3 20/5/3 19/44/3
f 20/20/4 51/5/4 19/5/4
f 51/5/4 20/20/4 52/45/4
f 51/5/5 15/22/5 19/5/5
f 15/22/5 51/5/5 49/46/5
f 50/2/6 20/3/6 17/11/6
f 20/3/6 50/2/6 52/1/6

usemtl color27

f 55/3/1 54/2/1 53/1/1
f 54/3/1 55/2/1 56/1/1
f 57/3/2 55/2/2 53/1/2
f 55/3/2 57/2/2 58/1/2
f 59/5/3 54/5/3 56/47/3
f 54/5/3 59/5/3 60/48/3
f 59/5/4 57/5/4 60/49/4
f 57/5/4 59/5/4 58/50/4
f 57/5/5 54/5/5 60/51/5
f 54/5/5 57/5/5 53/52/5
f 55/2/6 59/3/6 56/11/6
f 59/3/6 55/2/6 58/1/6

usemtl color14

f 63/3/1 62/2/1 61/1/1
f 62/3/1 63/2/1 64/1/1
f 65/3/2 63/2/2 61/1/2
f 63/3/2 65/2/2 66/1/2
f 67/5/3 62/5/3 64/53/3
f 62/5/3 67/5/3 68/54/3
f 67/5/4 65/5/4 68/55/4
f 65/5/4 67/5/4 66/56/4
f 65/5/5 62/5/5 68/57/5
f 62/5/5 65/5/5 61/58/5
f 63/2/6 67/3/6 64/11/6
f 67/3/6 63/2/6 66/1/6
f 71/3/1 70/2/1 69/1/1
f 70/3/1 71/2/1 72/1/1
f 73/3/2 71/2/2 69/1/2
f 71/3/2 73/2/2 74/1/2
f 75/5/3 70/5/3 72/59/3
f 70/5/3 75/5/3 76/60/3
f 75/5/4 73/5/4 76/61/4
f 73/5/4 75/5/4 74/62/4
f 73/5/5 70/5/5 76/63/5
f 70/5/5 73/5/5 69/64/5
f 71/2/6 75/3/6 72/11/6
f 75/3/6 71/2/6 74/1/6
f 79/3/1 78/2/1 77/1/1
f 78/3/1 79/2/1 80/1/1
f 81/3/2 79/2/2 77/1/2
f 79/3/2 81/2/2 82/1/2
f 83/5/3 78/5/3 80/65/3
f 78/5/3 83/5/3 84/66/3
f 83/5/4 81/5/4 84/67/4
f 81/5/4 83/5/4 82/68/4
f 81/5/5 78/5/5 84/69/5
f 78/5/5 81/5/5 77/70/5
f 79/2/6 83/3/6 80/11/6
f 83/3/6 79/2/6 82/1/6
f 87/3/1 86/2/1 85/1/1
f 86/3/1 87/2/1 88/1/1
f 89/3/2 87/2/2 85/1/2
f 87/3/2 89/2/2 90/1/2
f 91/5/3 86/5/3 88/71/3
f 86/5/3 91/5/3 92/72/3
f 91/5/4 89/5/4 92/73/4
f 89/5/4 91/5/4 90/74/4
f 89/5/5 86/5/5 92/75/5
f 86/5/5 89/5/5 85/76/5
f 87/2/6 91/3/6 88/11/6
f 91/3/6 87/2/6 90/1/6

usemtl color6

f 66/3/1 68/2/1 65/1/1
f 68/3/1 66/2/1 67/1/1
f 2/3/2 66/2/2 65/1/2
f 66/3/2 2/2/2 4/1/2
f 93/5/3 68/54/3 67/5/3
f 68/54/3 93/5/3 94/77/3
f 93/5/4 2/5/4 94/78/4
f 2/5/4 93/5/4 4/79/4
f 2/5/5 68/57/5 94/80/5
f 68/57/5 2/5/5 65/5/5
f 66/2/6 93/3/6 67/11/6
f 93/3/6 66/2/6 4/1/6
f 97/3/1 96/2/1 95/1/1
f 96/3/1 97/2/1 98/1/1
f 99/3/2 97/2/2 95/1/2
f 97/3/2 99/2/2 100/1/2
f 101/5/3 96/5/3 98/81/3
f 96/5/3 101/5/3 102/82/3
f 101/5/4 99/5/4 102/83/4
f 99/5/4 101/5/4 100/84/4
f 99/5/5 96/5/5 102/85/5
f 96/5/5 99/5/5 95/86/5
f 97/2/6 101/3/6 98/11/6
f 101/3/6 97/2/6 100/1/6
f 105/3/1 104/2/1 103/1/1
f 104/3/1 105/2/1 106/1/1
f 96/3/2 105/2/2 103/1/2
f 105/3/2 96/2/2 98/1/2
f 107/5/3 104/5/3 106/87/3
f 104/5/3 107/5/3 108/88/3
f 107/5/4 96/5/4 108/89/4
f 96/5/4 107/5/4 98/90/4
f 96/5/5 104/5/5 108/91/5
f 104/5/5 96/5/5 103/92/5
f 105/2/6 107/3/6 106/11/6
f 107/3/6 105/2/6 98/1/6
f 111/3/1 110/2/1 109/1/1
f 110/3/1 111/2/1 112/1/1
f 113/3/2 111/2/2 109/1/2
f 111/3/2 113/2/2 114/1/2
f 106/87/3 110/5/3 112/93/3
f 110/5/3 106/87/3 104/5/3
f 106/5/4 113/5/4 104/94/4
f 113/5/4 106/5/4 114/95/4
f 113/5/5 110/5/5 104/5/5
f 110/5/5 113/5/5 109/96/5
f 111/2/6 106/3/6 112/11/6
f 106/3/6 111/2/6 114/1/6
f 116/3/1 108/2/1 115/1/1
f 108/3/1 116/2/1 107/1/1
f 117/3/2 116/2/2 115/1/2
f 116/3/2 117/2/2 118/1/2
f 119/5/3 108/88/3 107/5/3
f 108/88/3 119/5/3 120/97/3
f 119/5/4 117/5/4 120/98/4
f 117/5/4 119/5/4 118/99/4
f 117/5/5 108/91/5 120/100/5
f 108/91/5 117/5/5 115/101/5
f 116/2/6 119/3/6 107/11/6
f 119/3/6 116/2/6 118/1/6
f 123/3/1 122/2/1 121/1/1
f 122/3/1 123/2/1 124/1/1
f 125/3/2 123/2/2 121/1/2
f 123/3/2 125/2/2 126/1/2
f 127/5/3 122/5/3 124/102/3
f 122/5/3 127/5/3 128/103/3
f 127/5/4 125/5/4 128/104/4
f 125/5/4 127/5/4 126/105/4
f 125/5/5 122/5/5 128/106/5
f 122/5/5 125/5/5 121/107/5
f 123/2/6 127/3/6 124/11/6
f 127/3/6 123/2/6 126/1/6
f 131/3/1 130/2/1 129/1/1
f 130/3/1 131/2/1 132/1/1
f 133/3/2 131/2/2 129/1/2
f 131/3/2 133/2/2 134/1/2
f 135/5/3 130/5/3 132/108/3
f 130/5/3 135/5/3 136/109/3
f 135/5/4 133/5/4 136/110/4
f 133/5/4 135/5/4 134/111/4
f 133/5/5 130/5/5 136/112/5
f 130/5/5 133/5/5 129/113/5
f 131/2/6 135/3/6 132/11/6
f 135/3/6 131/2/6 134/1/6
f 127/3/1 137/2/1 128/1/1
f 137/3/1 127/2/1 138/1/1
f 139/3/2 127/2/2 128/1/2
f 127/3/2 139/2/2 140/1/2
f 141/5/3 137/5/3 138/114/3
f 137/5/3 141/5/3 142/115/3
f 141/5/4 139/5/4 142/116/4
f 139/5/4 141/5/4 140/117/4
f 139/5/5 137/5/5 142/118/5
f 137/5/5 139/5/5 128/106/5
f 127/2/6 141/3/6 138/11/6
f 141/3/6 127/2/6 140/1/6

usemtl color16

f 145/3/1 144/2/1 143/1/1
f 144/3/1 145/2/1 146/1/1
f 147/3/2 145/2/2 143/1/2
f 145/3/2 147/2/2 148/1/2
f 149/5/3 144/5/3 146/119/3
f 144/5/3 149/5/3 150/120/3
f 149/5/4 147/5/4 150/121/4
f 147/5/4 149/5/4 148/122/4
f 147/5/5 144/5/5 150/123/5
f 144/5/5 147/5/5 143/124/5
f 145/2/6 149/3/6 146/11/6
f 149/3/6 145/2/6 148/1/6
f 153/3/1 152/2/1 151/1/1
f 152/3/1 153/2/1 154/1/1
f 155/3/2 153/2/2 151/1/2
f 153/3/2 155/2/2 156/1/2
f 157/5/3 152/5/3 154/125/3
f 152/5/3 157/5/3 158/126/3
f 157/5/4 155/5/4 158/127/4
f 155/5/4 157/5/4 156/128/4
f 155/5/5 152/5/5 158/129/5
f 152/5/5 155/5/5 151/130/5
f 153/2/6 157/3/6 154/11/6
f 157/3/6 153/2/6 156/1/6
f 161/3/1 160/2/1 159/1/1
f 160/3/1 161/2/1 162/1/1
f 163/3/2 161/2/2 159/1/2
f 161/3/2 163/2/2 164/1/2
f 165/5/3 160/5/3 162/131/3
f 160/5/3 165/5/3 166/132/3
f 165/5/4 163/5/4 166/133/4
f 163/5/4 165/5/4 164/134/4
f 163/5/5 160/5/5 166/135/5
f 160/5/5 163/5/5 159/136/5
f 161/2/6 165/3/6 162/11/6
f 165/3/6 161/2/6 164/1/6
f 169/3/1 168/2/1 167/1/1
f 168/3/1 169/2/1 170/1/1
f 171/3/2 169/2/2 167/1/2
f 169/3/2 171/2/2 172/1/2
f 173/5/3 168/5/3 170/137/3
f 168/5/3 173/5/3 174/138/3
f 173/5/4 171/5/4 174/139/4
f 171/5/4 173/5/4 172/140/4
f 171/5/5 168/5/5 174/141/5
f 168/5/5 171/5/5 167/142/5
f 169/2/6 173/3/6 170/11/6
f 173/3/6 169/2/6 172/1/6
f 177/3/1 176/2/1 175/1/1
f 176/3/1 177/2/1 178/1/1
f 179/3/2 177/2/2 175/1/2
f 177/3/2 179/2/2 180/1/2
f 181/5/3 176/5/3 178/143/3
f 176/5/3 181/5/3 182/144/3
f 181/5/4 179/5/4 182/145/4
f 179/5/4 181/5/4 180/146/4
f 179/5/5 176/5/5 182/147/5
f 176/5/5 179/5/5 175/148/5
f 177/2/6 181/3/6 178/11/6
f 181/3/6 177/2/6 180/1/6

usemtl color25

f 56/3/1 183/2/1 54/1/1
f 183/3/1 56/2/1 184/1/1
f 60/3/2 56/2/2 54/1/2
f 56/3/2 60/2/2 59/1/2
f 185/5/3 183/5/3 184/149/3
f 183/5/3 185/5/3 186/150/3
f 185/5/4 60/49/4 186/151/4
f 60/49/4 185/5/4 59/5/4
f 60/51/5 183/5/5 186/152/5
f 183/5/5 60/51/5 54/5/5
f 56/2/6 185/3/6 184/11/6
f 185/3/6 56/2/6 59/1/6

usemtl color17

f 189/3/1 188/2/1 187/1/1
f 188/3/1 189/2/1 190/1/1
f 191/3/2 189/2/2 187/1/2
f 189/3/2 191/2/2 192/1/2
f 193/5/3 188/5/3 190/153/3
f 188/5/3 193/5/3 194/154/3
f 193/5/4 191/5/4 194/155/4
f 191/5/4 193/5/4 192/156/4
f 191/5/5 188/5/5 194/157/5
f 188/5/5 191/5/5 187/158/5
f 189/2/6 193/3/6 190/11/6
f 193/3/6 189/2/6 192/1/6
f 197/3/1 196/2/1 195/1/1
f 196/3/1 197/2/1 198/1/1
f 151/3/2 197/2/2 195/1/2
f 197/3/2 151/2/2 153/1/2
f 154/125/3 196/5/3 198/159/3
f 196/5/3 154/125/3 152/5/3
f 154/5/4 151/5/4 152/160/4
f 151/5/4 154/5/4 153/161/4
f 151/130/5 196/5/5 152/5/5
f 196/5/5 151/130/5 195/162/5
f 197/2/6 154/3/6 198/11/6
f 154/3/6 197/2/6 153/1/6
f 201/3/1 200/2/1 199/1/1
f 200/3/1 201/2/1 202/1/1
f 203/3/2 201/2/2 199/1/2
f 201/3/2 203/2/2 204/1/2
f 205/5/3 200/5/3 202/163/3
f 200/5/3 205/5/3 206/164/3
f 205/5/4 203/5/4 206/165/4
f 203/5/4 205/5/4 204/166/4
f 203/5/5 200/5/5 206/167/5
f 200/5/5 203/5/5 199/168/5
f 201/2/6 205/3/6 202/11/6
f 205/3/6 201/2/6 204/1/6

usemtl color15

f 192/3/1 194/2/1 191/1/1
f 194/3/1 192/2/1 193/1/1
f 207/3/2 192/2/2 191/1/2
f 192/3/2 207/2/2 208/1/2
f 209/5/3 194/154/3 193/5/3
f 194/154/3 209/5/3 210/169/3
f 209/5/4 207/5/4 210/170/4
f 207/5/4 209/5/4 208/171/4
f 207/5/5 194/157/5 210/172/5
f 194/157/5 207/5/5 191/5/5
f 192/2/6 209/3/6 193/11/6
f 209/3/6 192/2/6 208/1/6
f 156/3/1 158/2/1 155/1/1
f 158/3/1 156/2/1 157/1/1
f 211/3/2 156/2/2 155/1/2
f 156/3/2 211/2/2 212/1/2
f 79/5/3 158/126/3 157/5/3
f 158/126/3 79/5/3 77/173/3
f 79/5/4 211/5/4 77/174/4
f 211/5/4 79/5/4 212/175/4
f 211/5/5 158/129/5 77/70/5
f 158/129/5 211/5/5 155/5/5
f 156/2/6 79/3/6 157/11/6
f 79/3/6 156/2/6 212/1/6
f 74/3/1 76/2/1 73/1/1
f 76/3/1 74/2/1 75/1/1
f 213/3/2 74/2/2 73/1/2
f 74/3/2 213/2/2 214/1/2
f 215/5/3 76/60/3 75/5/3
f 76/60/3 215/5/3 216/176/3
f 215/5/4 213/5/4 216/177/4
f 213/5/4 215/5/4 214/178/4
f 213/5/5 76/63/5 216/179/5
f 76/63/5 213/5/5 73/5/5
f 74/2/6 215/3/6 75/11/6
f 215/3/6 74/2/6 214/1/6
f 164/3/1 166/2/1 163/1/1
f 166/3/1 164/2/1 165/1/1
f 167/3/2 164/2/2 163/1/2
f 164/3/2 167/2/2 169/1/2
f 170/137/3 166/132/3 165/5/3
f 166/132/3 170/137/3 168/5/3
f 170/5/4 167/5/4 168/180/4
f 167/5/4 170/5/4 169/181/4
f 167/142/5 166/135/5 168/5/5
f 166/135/5 167/142/5 163/5/5
f 164/2/6 170/3/6 165/11/6
f 170/3/6 164/2/6 169/1/6
f 90/3/1 92/2/1 89/1/1
f 92/3/1 90/2/1 91/1/1
f 175/3/2 90/2/2 89/1/2
f 90/3/2 175/2/2 177/1/2
f 178/143/3 92/72/3 91/5/3
f 92/72/3 178/143/3 176/5/3
f 178/5/4 175/5/4 176/182/4
f 175/5/4 178/5/4 177/183/4
f 175/148/5 92/75/5 176/5/5
f 92/75/5 175/148/5 89/5/5
f 90/2/6 178/3/6 91/11/6
f 178/3/6 90/2/6 177/1/6

usemtl color18

f 219/3/1 218/2/1 217/1/1
f 218/3/1 219/2/1 220/1/1
f 221/3/2 219/2/2 217/1/2
f 219/3/2 221/2/2 222/1/2
f 223/5/3 218/5/3 220/184/3
f 218/5/3 223/5/3 224/185/3
f 223/5/4 221/5/4 224/186/4
f 221/5/4 223/5/4 222/187/4
f 221/5/5 218/5/5 224/188/5
f 218/5/5 221/5/5 217/189/5
f 219/2/6 223/3/6 220/11/6
f 223/3/6 219/2/6 222/1/6
f 223/3/1 225/2/1 224/1/1
f 225/3/1 223/2/1 226/1/1
f 227/3/2 223/2/2 224/1/2
f 223/3/2 227/2/2 228/1/2
f 229/5/3 225/5/3 226/190/3
f 225/5/3 229/5/3 230/191/3
f 229/5/4 227/5/4 230/192/4
f 227/5/4 229/5/4 228/193/4
f 227/5/5 225/5/5 230/194/5
f 225/5/5 227/5/5 224/188/5
f 223/2/6 229/3/6 226/11/6
f 229/3/6 223/2/6 228/1/6
f 233/3/1 232/2/1 231/1/1
f 232/3/1 233/2/1 234/1/1
f 235/3/2 233/2/2 231/1/2
f 233/3/2 235/2/2 236/1/2
f 237/5/3 232/5/3 234/195/3
f 232/5/3 237/5/3 238/196/3
f 237/5/4 235/5/4 238/197/4
f 235/5/4 237/5/4 236/198/4
f 235/5/5 232/5/5 238/199/5
f 232/5/5 235/5/5 231/200/5
f 233/2/6 237/3/6 234/11/6
f 237/3/6 233/2/6 236/1/6

usemtl color19

f 67/3/1 239/2/1 68/1/1
f 239/3/1 67/2/1 240/1/1
f 94/3/2 67/2/2 68/1/2
f 67/3/2 94/2/2 93/1/2
f 241/5/3 239/5/3 240/201/3
f 239/5/3 241/5/3 242/202/3
f 241/5/4 94/78/4 242/203/4
f 94/78/4 241/5/4 93/5/4
f 94/80/5 239/5/5 242/204/5
f 239/5/5 94/80/5 68/57/5
f 67/2/6 241/3/6 240/11/6
f 241/3/6 67/2/6 93/1/6
f 241/3/1 243/2/1 242/1/1
f 243/3/1 241/2/1 244/1/1
f 245/3/2 241/2/2 242/1/2
f 241/3/2 245/2/2 246/1/2
f 247/5/3 243/5/3 244/205/3
f 243/5/3 247/5/3 248/206/3
f 247/5/4 245/5/4 248/207/4
f 245/5/4 247/5/4 246/208/4
f 245/5/5 243/5/5 248/209/5
f 243/5/5 245/5/5 242/204/5
f 241/2/6 247/3/6 244/11/6
f 247/3/6 241/2/6 246/1/6

usemtl color12

f 251/3/1 250/2/1 249/1/1
f 250/3/1 251/2/1 252/1/1
f 253/3/2 251/2/2 249/1/2
f 251/3/2 253/2/2 254/1/2
f 255/5/3 250/5/3 252/210/3
f 250/5/3 255/5/3 256/211/3
f 255/5/4 253/5/4 256/212/4
f 253/5/4 255/5/4 254/213/4
f 253/5/5 250/5/5 256/214/5
f 250/5/5 253/5/5 249/215/5
f 251/2/6 255/3/6 252/11/6
f 255/3/6 251/2/6 254/1/6
f 259/3/1 258/2/1 257/1/1
f 258/3/1 259/2/1 260/1/1
f 261/3/2 259/2/2 257/1/2
f 259/3/2 261/2/2 262/1/2
f 263/5/3 258/5/3 260/216/3
f 258/5/3 263/5/3 264/217/3
f 263/5/4 261/5/4 264/218/4
f 261/5/4 263/5/4 262/219/4
f 261/5/5 258/5/5 264/220/5
f 258/5/5 261/5/5 257/221/5
f 259/2/6 263/3/6 260/11/6
f 263/3/6 259/2/6 262/1/6

usemtl color13

f 254/3/1 256/2/1 253/1/1
f 256/3/1 254/2/1 255/1/1
f 69/3/2 254/2/2 253/1/2
f 254/3/2 69/2/2 71/1/2
f 72/59/3 256/211/3 255/5/3
f 256/211/3 72/59/3 70/5/3
f 72/5/4 69/5/4 70/222/4
f 69/5/4 72/5/4 71/223/4
f 69/64/5 256/214/5 70/5/5
f 256/214/5 69/64/5 253/5/5
f 254/2/6 72/3/6 255/11/6
f 72/3/6 254/2/6 71/1/6
f 267/3/1 266/2/1 265/1/1
f 266/3/1 267/2/1 268/1/1
f 85/3/2 267/2/2 265/1/2
f 267/3/2 85/2/2 87/1/2
f 88/71/3 266/5/3 268/224/3
f 266/5/3 88/71/3 86/5/3
f 88/5/4 85/5/4 86/225/4
f 85/5/4 88/5/4 87/226/4
f 85/76/5 266/5/5 86/5/5
f 266/5/5 85/76/5 265/227/5
f 267/2/6 88/3/6 268/11/6
f 88/3/6 267/2/6 87/1/6

usemtl color23

f 271/3/1 270/2/1 269/1/1
f 270/3/1 271/2/1 272/1/1
f 159/3/2 271/2/2 269/1/2
f 271/3/2 159/2/2 161/1/2
f 162/131/3 270/5/3 272/228/3
f 270/5/3 162/131/3 160/5/3
f 162/5/4 159/5/4 160/229/4
f 159/5/4 162/5/4 161/230/4
f 159/136/5 270/5/5 160/5/5
f 270/5/5 159/136/5 269/231/5
f 271/2/6 162/3/6 272/11/6
f 162/3/6 271/2/6 161/1/6

usemtl color20

f 275/3/1 274/2/1 273/1/1
f 274/3/1 275/2/1 276/1/1
f 231/3/2 275/2/2 273/1/2
f 275/3/2 231/2/2 233/1/2
f 234/195/3 274/5/3 276/232/3
f 274/5/3 234/195/3 232/5/3
f 234/5/4 231/5/4 232/233/4
f 231/5/4 234/5/4 233/234/4
f 231/200/5 274/5/5 232/5/5
f 274/5/5 231/200/5 273/235/5
f 275/2/6 234/3/6 276/11/6
f 234/3/6 275/2/6 233/1/6

usemtl color21

f 118/3/1 120/2/1 117/1/1
f 120/3/1 118/2/1 119/1/1
f 277/3/2 118/2/2 117/1/2
f 118/3/2 277/2/2 278/1/2
f 279/5/3 120/97/3 119/5/3
f 120/97/3 279/5/3 280/236/3
f 279/5/4 277/5/4 280/237/4
f 277/5/4 279/5/4 278/238/4
f 277/5/5 120/100/5 280/239/5
f 120/100/5 277/5/5 117/5/5
f 118/2/6 279/3/6 119/11/6
f 279/3/6 118/2/6 278/1/6
f 283/3/1 282/2/1 281/1/1
f 282/3/1 283/2/1 284/1/1
f 285/3/2 283/2/2 281/1/2
f 283/3/2 285/2/2 286/1/2
f 287/5/3 282/5/3 284/240/3
f 282/5/3 287/5/3 288/241/3
f 287/5/4 285/5/4 288/242/4
f 285/5/4 287/5/4 286/243/4
f 285/5/5 282/5/5 288/244/5
f 282/5/5 285/5/5 281/245/5
f 283/2/6 287/3/6 284/11/6
f 287/3/6 283/2/6 286/1/6

usemtl color22

f 291/3/1 290/2/1 289/1/1
f 290/3/1 291/2/1 292/1/1
f 293/3/2 291/2/2 289/1/2
f 291/3/2 293/2/2 294/1/2
f 295/5/3 290/5/3 292/246/3
f 290/5/3 295/5/3 296/247/3
f 295/5/4 293/5/4 296/248/4
f 293/5/4 295/5/4 294/249/4
f 293/5/5 290/5/5 296/250/5
f 290/5/5 293/5/5 289/251/5
f 291/2/6 295/3/6 292/11/6
f 295/3/6 291/2/6 294/1/6
f 299/3/1 298/2/1 297/1/1
f 298/3/1 299/2/1 300/1/1
f 301/3/2 299/2/2 297/1/2
f 299/3/2 301/2/2 302/1/2
f 303/5/3 298/5/3 300/252/3
f 298/5/3 303/5/3 304/253/3
f 303/5/4 301/5/4 304/254/4
f 301/5/4 303/5/4 302/255/4
f 301/5/5 298/5/5 304/256/5
f 298/5/5 301/5/5 297/257/5
f 299/2/6 303/3/6 300/11/6
f 303/3/6 299/2/6 302/1/6

usemtl color2

f 306/3/1 27/2/1 305/1/1
f 27/3/1 306/2/1 28/1/1
f 307/3/2 306/2/2 305/1/2
f 306/3/2 307/2/2 308/1/2
f 309/5/3 27/5/3 28/258/3
f 27/5/3 309/5/3 310/259/3
f 309/5/4 307/5/4 310/260/4
f 307/5/4 309/5/4 308/261/4
f 307/5/5 27/5/5 310/262/5
f 27/5/5 307/5/5 305/263/5
f 306/2/6 309/3/6 28/11/6
f 309/3/6 306/2/6 308/1/6
f 309/3/1 311/2/1 310/1/1
f 311/3/1 309/2/1 312/1/1
f 313/3/2 309/2/2 310/1/2
f 309/3/2 313/2/2 314/1/2
f 131/5/3 311/5/3 312/264/3
f 311/5/3 131/5/3 129/265/3
f 131/5/4 313/5/4 129/266/4
f 313/5/4 131/5/4 314/267/4
f 313/5/5 311/5/5 129/113/5
f 311/5/5 313/5/5 310/262/5
f 309/2/6 131/3/6 312/11/6
f 131/3/6 309/2/6 314/1/6
f 26/3/1 39/2/1 24/1/1
f 39/3/1 26/2/1 41/1/1
f 30/3/2 26/2/2 24/1/2
f 26/3/2 30/2/2 29/1/2
f 44/5/3 39/5/3 41/268/3
f 39/5/3 44/5/3 43/269/3
f 44/38/4 30/25/4 43/5/4
f 30/25/4 44/38/4 29/5/4
f 30/27/5 39/40/5 43/5/5
f 39/40/5 30/27/5 24/5/5
f 26/2/6 44/3/6 41/11/6
f 44/3/6 26/2/6 29/1/6
f 140/3/1 142/2/1 139/1/1
f 142/3/1 140/2/1 141/1/1
f 315/3/2 140/2/2 139/1/2
f 140/3/2 315/2/2 316/1/2
f 317/5/3 142/115/3 141/5/3
f 142/115/3 317/5/3 318/270/3
f 317/5/4 315/5/4 318/271/4
f 315/5/4 317/5/4 316/272/4
f 315/5/5 142/118/5 318/273/5
f 142/118/5 315/5/5 139/5/5
f 140/2/6 317/3/6 141/11/6
f 317/3/6 140/2/6 316/1/6
f 321/3/1 320/2/1 319/1/1
f 320/3/1 321/2/1 322/1/1
f 323/3/2 321/2/2 319/1/2
f 321/3/2 323/2/2 324/1/2
f 325/5/3 320/5/3 322/274/3
f 320/5/3 325/5/3 326/275/3
f 325/5/4 323/5/4 326/276/4
f 323/5/4 325/5/4 324/277/4
f 323/5/5 320/5/5 326/278/5
f 320/5/5 323/5/5 319/279/5
f 321/2/6 325/3/6 322/11/6
f 325/3/6 321/2/6 324/1/6

usemtl color10

f 247/3/1 327/2/1 248/1/1
f 327/3/1 247/2/1 328/1/1
f 329/3/2 247/2/2 248/1/2
f 247/3/2 329/2/2 330/1/2
f 331/5/3 327/5/3 328/280/3
f 327/5/3 331/5/3 332/281/3
f 331/5/4 329/5/4 332/282/4
f 329/5/4 331/5/4 330/283/4
f 329/5/5 327/5/5 332/284/5
f 327/5/5 329/5/5 248/209/5
f 247/2/6 331/3/6 328/11/6
f 331/3/6 247/2/6 330/1/6

usemtl color11

f 237/3/1 333/2/1 238/1/1
f 333/3/1 237/2/1 334/1/1
f 257/3/2 237/2/2 238/1/2
f 237/3/2 257/2/2 259/1/2
f 260/216/3 333/5/3 334/285/3
f 333/5/3 260/216/3 258/5/3
f 260/5/4 257/5/4 258/286/4
f 257/5/4 260/5/4 259/287/4
f 257/221/5 333/5/5 258/5/5
f 333/5/5 257/221/5 238/199/5
f 237/2/6 260/3/6 334/11/6
f 260/3/6 237/2/6 259/1/6

usemtl color4

f 336/3/1 31/2/1 335/1/1
f 31/3/1 336/2/1 33/1/1
f 327/3/2 336/2/2 335/1/2
f 336/3/2 327/2/2 328/1/2
f 36/5/3 31/5/3 33/288/3
f 31/5/3 36/5/3 35/289/3
f 36/32/4 327/5/4 35/5/4
f 327/5/4 36/32/4 328/290/4
f 327/5/5 31/34/5 35/5/5
f 31/34/5 327/5/5 335/291/5
f 336/2/6 36/3/6 33/11/6
f 36/3/6 336/2/6 328/1/6
f 34/3/1 337/2/1 32/1/1
f 337/3/1 34/2/1 338/1/1
f 38/3/2 34/2/2 32/1/2
f 34/3/2 38/2/2 37/1/2
f 339/5/3 337/5/3 338/292/3
f 337/5/3 339/5/3 340/293/3
f 339/5/4 38/31/4 340/294/4
f 38/31/4 339/5/4 37/5/4
f 38/33/5 337/5/5 340/295/5
f 337/5/5 38/33/5 32/5/5
f 34/2/6 339/3/6 338/11/6
f 339/3/6 34/2/6 37/1/6

usemtl color7

f 260/3/1 341/2/1 258/1/1
f 341/3/1 260/2/1 342/1/1
f 264/3/2 260/2/2 258/1/2
f 260/3/2 264/2/2 263/1/2
f 343/5/3 341/5/3 342/296/3
f 341/5/3 343/5/3 344/297/3
f 343/5/4 264/218/4 344/298/4
f 264/218/4 343/5/4 263/5/4
f 264/220/5 341/5/5 344/299/5
f 341/5/5 264/220/5 258/5/5
f 260/2/6 343/3/6 342/11/6
f 343/3/6 260/2/6 263/1/6

usemtl color8

f 263/3/1 344/2/1 264/1/1
f 344/3/1 263/2/1 343/1/1
f 345/3/2 263/2/2 264/1/2
f 263/3/2 345/2/2 346/1/2
f 347/5/3 344/297/3 343/5/3
f 344/297/3 347/5/3 348/300/3
f 347/5/4 345/5/4 348/301/4
f 345/5/4 347/5/4 346/302/4
f 345/5/5 344/299/5 348/303/5
f 344/299/5 345/5/5 264/220/5
f 263/2/6 347/3/6 343/11/6
f 347/3/6 263/2/6 346/1/6
f 351/3/1 350/2/1 349/1/1
f 350/3/1 351/2/1 352/1/1
f 200/3/2 351/2/2 349/1/2
f 351/3/2 200/2/2 202/1/2
f 353/5/3 350/5/3 352/304/3
f 350/5/3 353/5/3 354/305/3
f 353/5/4 200/5/4 354/306/4
f 200/5/4 353/5/4 202/307/4
f 200/5/5 350/5/5 354/308/5
f 350/5/5 200/5/5 349/309/5
f 351/2/6 353/3/6 352/11/6
f 353/3/6 351/2/6 202/1/6

usemtl color9

f 346/3/1 348/2/1 345/1/1
f 348/3/1 346/2/1 347/1/1
f 349/3/2 346/2/2 345/1/2
f 346/3/2 349/2/2 351/1/2
f 352/304/3 348/300/3 347/5/3
f 348/300/3 352/304/3 350/5/3
f 352/5/4 349/5/4 350/310/4
f 349/5/4 352/5/4 351/311/4
f 349/309/5 348/303/5 350/5/5
f 348/303/5 349/309/5 345/5/5
f 346/2/6 352/3/6 347/11/6
f 352/3/6 346/2/6 351/1/6

usemtl color5

f 357/3/1 356/2/1 355/1/1
f 356/3/1 357/2/1 358/1/1
f 359/3/2 357/2/2 355/1/2
f 357/3/2 359/2/2 360/1/2
f 361/5/3 356/5/3 358/312/3
f 356/5/3 361/5/3 362/313/3
f 361/5/4 359/5/4 362/314/4
f 359/5/4 361/5/4 360/315/4
f 359/5/5 356/5/5 362/316/5
f 356/5/5 359/5/5 355/317/5
f 357/2/6 361/3/6 358/11/6
f 361/3/6 357/2/6 360/1/6

