# Created by Kenney (www.kenney.nl)

mtllib Grenade NEE Yboiveth.mtl

v 2 6 -1.4
v 2 5 -1.4
v 2 6 1.4
v 2 5 1.4
v 1 6 -1.4
v 1 6 1.4
v 1 5 1.4
v 1 5 -1.4
v 3 4 -1.4
v 3 3 -1.4
v 3 4 1.4
v 3 3 1.4
v 2 4 -1.4
v 2 4 1.4
v 2 3 1.4
v 2 3 -1.4
v 2 -3 -1.4
v 2 -4 -1.4
v 2 -3 1.4
v 2 -4 1.4
v 1 -3 -1.4
v 1 -3 1.4
v 1 -4 1.4
v 1 -4 -1.4
v 1 -5 -1.4
v 1 -5 1.4
v -1 -4 -1.4
v -1 -4 1.4
v -1 -5 1.4
v -1 -5 -1.4
v 0 6 -1.4
v 0 6 1.4
v 0 5 1.4
v 0 5 -1.4
v -1 5 -1.4
v -1 4 -1.4
v -1 5 1.4
v -1 4 1.4
v -2 5 -1.4
v -2 5 1.4
v -2 4 1.4
v -2 4 -1.4
v -2 3 -1.4
v -2 3 1.4
v -3 4 -1.4
v -3 4 1.4
v -3 3 1.4
v -3 3 -1.4
v 0 3 -2.1
v 0 2 -2.1
v 0 3 2.1
v 0 2 2.1
v -1 3 -2.1
v -1 3 2.1
v -1 2 2.1
v -1 2 -2.1
v -2 -2 -1.4
v -2 -3 -1.4
v -2 -2 1.4
v -2 -3 1.4
v -3 -2 -1.4
v -3 -2 1.4
v -3 -3 1.4
v -3 -3 -1.4
v -2 -4 -1.4
v -2 -4 1.4
v -2 -5 1.4
v -2 -5 -1.4
v -1 6 -1.4
v -1 6 1.4
v -3 5 -1.4
v -3 5 1.4
v 0 1 -2.1
v 0 0 -2.1
v 0 1 2.1
v 0 0 2.1
v -1 1 -2.1
v -1 1 2.1
v -1 0 2.1
v -1 0 -2.1
v 0 -1 -2.1
v 0 -2 -2.1
v 0 -1 2.1
v 0 -2 2.1
v -1 -1 -2.1
v -1 -1 2.1
v -1 -2 2.1
v -1 -2 -2.1
v -3 -4 1.4
v -3 -4 -1.4
v -2 6 -1.4
v -2 6 1.4
v 3 5 -1.4
v 3 5 1.4
v 2 2 -1.4
v 2 2 1.4
v 1 3 -1.4
v 1 3 1.4
v 1 2 1.4
v 1 2 -1.4
v -1 3 -1.4
v -1 2 -1.4
v -1 3 1.4
v -1 2 1.4
v -2 2 1.4
v -2 2 -1.4
v 2 1 -1.4
v 2 0 -1.4
v 2 1 1.4
v 2 0 1.4
v 1 1 -1.4
v 1 1 1.4
v 1 0 1.4
v 1 0 -1.4
v -1 1 -1.4
v -1 0 -1.4
v -1 1 1.4
v -1 0 1.4
v -2 1 -1.4
v -2 1 1.4
v -2 0 1.4
v -2 0 -1.4
v 2 -1 -1.4
v 2 -2 -1.4
v 2 -1 1.4
v 2 -2 1.4
v 1 -1 -1.4
v 1 -1 1.4
v 1 -2 1.4
v 1 -2 -1.4
v -1 -1 -1.4
v -1 -2 -1.4
v -1 -1 1.4
v -1 -2 1.4
v -2 -1 -1.4
v -2 -1 1.4
v 3 -2 -1.4
v 3 -4 -1.4
v 3 -2 1.4
v 3 -4 1.4
v 2 -5 -1.4
v 2 -5 1.4
v 1 4 1.4
v 1 4 -1.4
v 1 3 -2.1
v 1 2 -2.1
v 1 3 2.1
v 1 2 2.1
v 1 1 -2.1
v 1 0 -2.1
v 1 1 2.1
v 1 0 2.1
v 1 -1 -2.1
v 1 -2 -2.1
v 1 -1 2.1
v 1 -2 2.1
v -1 -3 -1.4
v -1 -3 1.4
v 1 5 -2.1
v 1 4 -2.1
v 1 5 2.1
v 1 4 2.1
v -1 5 -2.1
v -1 5 2.1
v -1 4 2.1
v -1 4 -2.1
v 2 4 -2.1
v 2 3 -2.1
v 2 4 2.1
v 2 3 2.1
v -2 4 -2.1
v -2 4 2.1
v -2 3 2.1
v -2 3 -2.1
v 2 -2 -2.1
v 2 -3 -2.1
v 2 -2 2.1
v 2 -3 2.1
v 1 -3 2.1
v 1 -3 -2.1
v -1 -3 -2.1
v -1 -3 2.1
v -2 -2 -2.1
v -2 -2 2.1
v -2 -3 2.1
v -2 -3 -2.1
v 1 -4 -2.1
v 1 -4 2.1
v -1 -4 2.1
v -1 -4 -2.1
v 1 4 -2.8
v 1 3 -2.8
v 1 4 2.8
v 1 3 2.8
v -1 4 -2.8
v -1 4 2.8
v -1 3 2.8
v -1 3 -2.8
v 1 -2 -2.8
v 1 -3 -2.8
v 1 -2 2.8
v 1 -3 2.8
v -1 -2 -2.8
v -1 -2 2.8
v -1 -3 2.8
v -1 -3 -2.8
v 3 2 -0.7
v 3 1 -0.7
v 3 2 0.7
v 3 1 0.7
v 2 2 -0.7
v 2 2 0.7
v 2 1 0.7
v 2 1 -0.7
v -2 2 -0.7
v -2 1 -0.7
v -2 2 0.7
v -2 1 0.7
v -3 2 -0.7
v -3 2 0.7
v -3 1 0.7
v -3 1 -0.7
v 3 0 -0.7
v 3 -1 -0.7
v 3 0 0.7
v 3 -1 0.7
v 2 0 -0.7
v 2 0 0.7
v 2 -1 0.7
v 2 -1 -0.7
v -2 0 -0.7
v -2 -1 -0.7
v -2 0 0.7
v -2 -1 0.7
v -3 0 -0.7
v -3 0 0.7
v -3 -1 0.7
v -3 -1 -0.7
v 2 2 -2.1
v 2 1 -2.1
v 2 2 2.1
v 2 1 2.1
v -2 2 -2.1
v -2 2 2.1
v -2 1 2.1
v -2 1 -2.1
v 2 0 -2.1
v 2 -1 -2.1
v 2 0 2.1
v 2 -1 2.1
v -2 0 -2.1
v -2 0 2.1
v -2 -1 2.1
v -2 -1 -2.1
v 1 2 -2.8
v 1 1 -2.8
v 1 2 2.8
v 1 1 2.8
v 0 2 -2.8
v 0 2 2.8
v 0 1 2.8
v 0 1 -2.8
v 1 0 -2.8
v 1 -1 -2.8
v 1 0 2.8
v 1 -1 2.8
v 0 0 -2.8
v 0 0 2.8
v 0 -1 2.8
v 0 -1 -2.8
v -1 2 -2.8
v -1 2 2.8
v -1 1 2.8
v -1 1 -2.8
v -1 0 -2.8
v -1 0 2.8
v -1 -1 2.8
v -1 -1 -2.8

vn 1 0 0
vn 0 1 0
vn 0 -1 0
vn -1 0 0
vn 0 0 -1
vn 0 0 1

vt -19.68504 19.68504
vt 19.68504 19.68504
vt -19.68504 -19.68504
vt 0 NaN
vt 0 0
vt 0 NaN
vt 0 NaN
vt 0 NaN
vt 0 NaN
vt 0 NaN
vt 19.68504 -19.68504
vt 0 NaN
vt 0 NaN
vt 0 NaN
vt 0 NaN
vt 0 NaN
vt 0 NaN
vt 0 NaN
vt 0 NaN
vt 0 NaN
vt 0 NaN
vt 0 NaN
vt 0 NaN
vt 0 NaN
vt 0 NaN
vt 0 NaN
vt 0 NaN
vt 0 NaN
vt 0 NaN
vt 0 NaN
vt 0 NaN
vt 0 NaN
vt 0 NaN
vt 0 NaN
vt 0 NaN
vt 0 NaN
vt 0 NaN
vt 0 NaN
vt 0 NaN
vt 0 NaN
vt 0 NaN
vt 0 NaN
vt 0 NaN
vt 0 NaN
vt 0 NaN
vt 0 NaN
vt 0 NaN
vt 0 NaN
vt 0 NaN
vt 0 NaN
vt 0 NaN
vt 0 NaN
vt 0 NaN
vt 0 NaN
vt 0 NaN
vt 0 NaN
vt 0 NaN
vt 0 NaN
vt 0 NaN
vt 0 NaN
vt 0 NaN
vt 0 NaN
vt 0 NaN
vt 0 NaN
vt 0 NaN
vt 0 NaN
vt 0 NaN
vt 0 NaN
vt 0 NaN
vt 0 NaN
vt 0 NaN
vt 0 NaN
vt 0 NaN
vt 0 NaN
vt 0 NaN
vt 0 NaN
vt 0 NaN
vt 0 NaN
vt 0 NaN
vt 0 NaN
vt 0 NaN
vt 0 NaN
vt 0 NaN
vt 0 NaN
vt 0 NaN
vt 0 NaN
vt 0 NaN
vt 0 NaN
vt 0 NaN
vt 0 NaN
vt 0 NaN
vt 0 NaN
vt 0 NaN
vt 0 NaN
vt 0 NaN
vt 0 NaN
vt 0 NaN
vt 0 NaN
vt 0 NaN
vt 0 NaN
vt 0 NaN
vt 0 NaN
vt 0 NaN
vt 0 NaN
vt 0 NaN
vt 0 NaN
vt 0 NaN
vt 0 NaN
vt 0 NaN
vt 0 NaN
vt 0 NaN
vt 0 NaN
vt 0 NaN
vt 0 NaN
vt 0 NaN
vt 0 NaN
vt 0 NaN
vt 0 NaN
vt 0 NaN
vt 0 NaN
vt 0 NaN
vt 0 NaN
vt 0 NaN
vt 0 NaN
vt 0 NaN
vt 0 NaN
vt 0 NaN
vt 0 NaN
vt 0 NaN
vt 0 NaN
vt 0 NaN
vt 0 NaN
vt 0 NaN
vt 0 NaN
vt 0 NaN
vt 0 NaN
vt 0 NaN
vt 0 NaN
vt 0 NaN
vt 0 NaN
vt 0 NaN
vt 0 NaN
vt 0 NaN
vt 0 NaN
vt 0 NaN
vt 0 NaN
vt 0 NaN
vt 0 NaN
vt 0 NaN
vt 0 NaN
vt 0 NaN
vt 0 NaN
vt 0 NaN
vt 0 NaN
vt 0 NaN
vt 0 NaN
vt 0 NaN
vt 0 NaN
vt 0 NaN
vt 0 NaN
vt 0 NaN
vt 0 NaN
vt 0 NaN
vt 0 NaN
vt 0 NaN
vt 0 NaN
vt 0 NaN
vt 0 NaN
vt 0 NaN
vt 0 NaN
vt 0 NaN
vt 0 NaN
vt 0 NaN
vt 0 NaN
vt 0 NaN
vt 0 NaN
vt 0 NaN
vt 0 NaN
vt 0 NaN
vt 0 NaN
vt 0 NaN
vt 0 NaN
vt 0 NaN
vt 0 NaN
vt 0 NaN
vt 0 NaN
vt 0 NaN
vt 0 NaN
vt 0 NaN
vt 0 NaN
vt 0 NaN
vt 0 NaN
vt 0 NaN
vt 0 NaN
vt 0 NaN
vt 0 NaN
vt 0 NaN
vt 0 NaN
vt 0 NaN
vt 0 NaN
vt 0 NaN
vt 0 NaN
vt 0 NaN
vt 0 NaN
vt 0 NaN
vt 0 NaN
vt 0 NaN
vt 0 NaN
vt 0 NaN
vt 0 NaN
vt 0 NaN
vt 0 NaN
vt 0 NaN
vt 0 NaN
vt 0 NaN
vt 0 NaN
vt 0 NaN
vt 0 NaN
vt 0 NaN
vt 0 NaN
vt 0 NaN
vt 0 NaN
vt 0 NaN
vt 0 NaN
vt 0 NaN
vt 0 NaN
vt 0 NaN
vt 0 NaN
vt 0 NaN
vt 0 NaN
vt 0 NaN
vt 0 NaN
vt 0 NaN
vt 0 NaN
vt 0 NaN
vt 0 NaN
vt 0 NaN
vt 0 NaN
vt 0 NaN
vt 0 NaN
vt 0 NaN
vt 0 NaN
vt 0 NaN
vt 0 NaN
vt 0 NaN
vt 0 NaN
vt 0 NaN
vt 0 NaN
vt 0 NaN
vt 0 NaN
vt 0 NaN
vt 0 NaN

usemtl color3

f 3/3/1 2/2/1 1/1/1
f 2/3/1 3/2/1 4/1/1
f 5/3/2 3/2/2 1/1/2
f 3/3/2 5/2/2 6/1/2
f 7/5/3 2/5/3 4/4/3
f 2/5/3 7/5/3 8/6/3
f 7/5/4 5/5/4 8/7/4
f 5/5/4 7/5/4 6/8/4
f 5/5/5 2/5/5 8/9/5
f 2/5/5 5/5/5 1/10/5
f 3/2/6 7/3/6 4/11/6
f 7/3/6 3/2/6 6/1/6
f 3/3/1 2/2/1 1/1/1
f 2/3/1 3/2/1 4/1/1
f 5/3/2 3/2/2 1/1/2
f 3/3/2 5/2/2 6/1/2
f 7/5/3 2/5/3 4/4/3
f 2/5/3 7/5/3 8/6/3
f 7/5/4 5/5/4 8/7/4
f 5/5/4 7/5/4 6/8/4
f 5/5/5 2/5/5 8/9/5
f 2/5/5 5/5/5 1/10/5
f 3/2/6 7/3/6 4/11/6
f 7/3/6 3/2/6 6/1/6
f 11/3/1 10/2/1 9/1/1
f 10/3/1 11/2/1 12/1/1
f 13/3/2 11/2/2 9/1/2
f 11/3/2 13/2/2 14/1/2
f 15/5/3 10/5/3 12/12/3
f 10/5/3 15/5/3 16/13/3
f 15/5/4 13/5/4 16/14/4
f 13/5/4 15/5/4 14/15/4
f 13/5/5 10/5/5 16/16/5
f 10/5/5 13/5/5 9/17/5
f 11/2/6 15/3/6 12/11/6
f 15/3/6 11/2/6 14/1/6
f 19/3/1 18/2/1 17/1/1
f 18/3/1 19/2/1 20/1/1
f 21/3/2 19/2/2 17/1/2
f 19/3/2 21/2/2 22/1/2
f 23/5/3 18/5/3 20/18/3
f 18/5/3 23/5/3 24/19/3
f 23/5/4 21/5/4 24/20/4
f 21/5/4 23/5/4 22/21/4
f 21/5/5 18/5/5 24/22/5
f 18/5/5 21/5/5 17/23/5
f 19/2/6 23/3/6 20/11/6
f 23/3/6 19/2/6 22/1/6
f 23/3/1 25/2/1 24/1/1
f 25/3/1 23/2/1 26/1/1
f 27/3/2 23/2/2 24/1/2
f 23/3/2 27/2/2 28/1/2
f 29/5/3 25/5/3 26/24/3
f 25/5/3 29/5/3 30/25/3
f 29/5/4 27/5/4 30/26/4
f 27/5/4 29/5/4 28/27/4
f 27/5/5 25/5/5 30/28/5
f 25/5/5 27/5/5 24/22/5
f 23/2/6 29/3/6 26/11/6
f 29/3/6 23/2/6 28/1/6

usemtl color4

f 6/3/1 8/2/1 5/1/1
f 8/3/1 6/2/1 7/1/1
f 31/3/2 6/2/2 5/1/2
f 6/3/2 31/2/2 32/1/2
f 33/5/3 8/6/3 7/5/3
f 8/6/3 33/5/3 34/29/3
f 33/5/4 31/5/4 34/30/4
f 31/5/4 33/5/4 32/31/4
f 31/5/5 8/9/5 34/32/5
f 8/9/5 31/5/5 5/5/5
f 6/2/6 33/3/6 7/11/6
f 33/3/6 6/2/6 32/1/6
f 37/3/1 36/2/1 35/1/1
f 36/3/1 37/2/1 38/1/1
f 39/3/2 37/2/2 35/1/2
f 37/3/2 39/2/2 40/1/2
f 41/5/3 36/5/3 38/33/3
f 36/5/3 41/5/3 42/34/3
f 41/5/4 39/5/4 42/35/4
f 39/5/4 41/5/4 40/36/4
f 39/5/5 36/5/5 42/37/5
f 36/5/5 39/5/5 35/38/5
f 37/2/6 41/3/6 38/11/6
f 41/3/6 37/2/6 40/1/6
f 41/3/1 43/2/1 42/1/1
f 43/3/1 41/2/1 44/1/1
f 45/3/2 41/2/2 42/1/2
f 41/3/2 45/2/2 46/1/2
f 47/5/3 43/5/3 44/39/3
f 43/5/3 47/5/3 48/40/3
f 47/5/4 45/5/4 48/41/4
f 45/5/4 47/5/4 46/42/4
f 45/5/5 43/5/5 48/43/5
f 43/5/5 45/5/5 42/37/5
f 41/2/6 47/3/6 44/11/6
f 47/3/6 41/2/6 46/1/6
f 51/3/1 50/2/1 49/1/1
f 50/3/1 51/2/1 52/1/1
f 53/3/2 51/2/2 49/1/2
f 51/3/2 53/2/2 54/1/2
f 55/5/3 50/5/3 52/44/3
f 50/5/3 55/5/3 56/45/3
f 55/5/4 53/5/4 56/46/4
f 53/5/4 55/5/4 54/47/4
f 53/5/5 50/5/5 56/48/5
f 50/5/5 53/5/5 49/49/5
f 51/2/6 55/3/6 52/11/6
f 55/3/6 51/2/6 54/1/6
f 59/3/1 58/2/1 57/1/1
f 58/3/1 59/2/1 60/1/1
f 61/3/2 59/2/2 57/1/2
f 59/3/2 61/2/2 62/1/2
f 63/5/3 58/5/3 60/50/3
f 58/5/3 63/5/3 64/51/3
f 63/5/4 61/5/4 64/52/4
f 61/5/4 63/5/4 62/53/4
f 61/5/5 58/5/5 64/54/5
f 58/5/5 61/5/5 57/55/5
f 59/2/6 63/3/6 60/11/6
f 63/3/6 59/2/6 62/1/6
f 28/3/1 30/2/1 27/1/1
f 30/3/1 28/2/1 29/1/1
f 65/3/2 28/2/2 27/1/2
f 28/3/2 65/2/2 66/1/2
f 67/5/3 30/25/3 29/5/3
f 30/25/3 67/5/3 68/56/3
f 67/5/4 65/5/4 68/57/4
f 65/5/4 67/5/4 66/58/4
f 65/5/5 30/28/5 68/59/5
f 30/28/5 65/5/5 27/5/5
f 28/2/6 67/3/6 29/11/6
f 67/3/6 28/2/6 66/1/6

usemtl color7

f 32/3/1 34/2/1 31/1/1
f 34/3/1 32/2/1 33/1/1
f 69/3/2 32/2/2 31/1/2
f 32/3/2 69/2/2 70/1/2
f 37/5/3 34/29/3 33/5/3
f 34/29/3 37/5/3 35/60/3
f 37/5/4 69/5/4 35/61/4
f 69/5/4 37/5/4 70/62/4
f 69/5/5 34/32/5 35/38/5
f 34/32/5 69/5/5 31/5/5
f 32/2/6 37/3/6 33/11/6
f 37/3/6 32/2/6 70/1/6
f 40/3/1 42/2/1 39/1/1
f 42/3/1 40/2/1 41/1/1
f 71/3/2 40/2/2 39/1/2
f 40/3/2 71/2/2 72/1/2
f 46/5/3 42/34/3 41/5/3
f 42/34/3 46/5/3 45/63/3
f 46/42/4 71/5/4 45/5/4
f 71/5/4 46/42/4 72/64/4
f 71/5/5 42/37/5 45/5/5
f 42/37/5 71/5/5 39/5/5
f 40/2/6 46/3/6 41/11/6
f 46/3/6 40/2/6 72/1/6
f 75/3/1 74/2/1 73/1/1
f 74/3/1 75/2/1 76/1/1
f 77/3/2 75/2/2 73/1/2
f 75/3/2 77/2/2 78/1/2
f 79/5/3 74/5/3 76/65/3
f 74/5/3 79/5/3 80/66/3
f 79/5/4 77/5/4 80/67/4
f 77/5/4 79/5/4 78/68/4
f 77/5/5 74/5/5 80/69/5
f 74/5/5 77/5/5 73/70/5
f 75/2/6 79/3/6 76/11/6
f 79/3/6 75/2/6 78/1/6
f 83/3/1 82/2/1 81/1/1
f 82/3/1 83/2/1 84/1/1
f 85/3/2 83/2/2 81/1/2
f 83/3/2 85/2/2 86/1/2
f 87/5/3 82/5/3 84/71/3
f 82/5/3 87/5/3 88/72/3
f 87/5/4 85/5/4 88/73/4
f 85/5/4 87/5/4 86/74/4
f 85/5/5 82/5/5 88/75/5
f 82/5/5 85/5/5 81/76/5
f 83/2/6 87/3/6 84/11/6
f 87/3/6 83/2/6 86/1/6
f 60/3/1 65/2/1 58/1/1
f 65/3/1 60/2/1 66/1/1
f 64/3/2 60/2/2 58/1/2
f 60/3/2 64/2/2 63/1/2
f 89/5/3 65/5/3 66/77/3
f 65/5/3 89/5/3 90/78/3
f 89/5/4 64/52/4 90/79/4
f 64/52/4 89/5/4 63/5/4
f 64/54/5 65/5/5 90/80/5
f 65/5/5 64/54/5 58/5/5
f 60/2/6 89/3/6 66/11/6
f 89/3/6 60/2/6 63/1/6

usemtl color13

f 70/3/1 35/2/1 69/1/1
f 35/3/1 70/2/1 37/1/1
f 91/3/2 70/2/2 69/1/2
f 70/3/2 91/2/2 92/1/2
f 40/5/3 35/60/3 37/5/3
f 35/60/3 40/5/3 39/81/3
f 40/36/4 91/5/4 39/5/4
f 91/5/4 40/36/4 92/82/4
f 91/5/5 35/38/5 39/5/5
f 35/38/5 91/5/5 69/5/5
f 70/2/6 40/3/6 37/11/6
f 40/3/6 70/2/6 92/1/6

usemtl color2

f 94/3/1 9/2/1 93/1/1
f 9/3/1 94/2/1 11/1/1
f 2/3/2 94/2/2 93/1/2
f 94/3/2 2/2/2 4/1/2
f 14/5/3 9/5/3 11/83/3
f 9/5/3 14/5/3 13/84/3
f 14/15/4 2/5/4 13/5/4
f 2/5/4 14/15/4 4/85/4
f 2/5/5 9/17/5 13/5/5
f 9/17/5 2/5/5 93/86/5
f 94/2/6 14/3/6 11/11/6
f 14/3/6 94/2/6 4/1/6
f 15/3/1 95/2/1 16/1/1
f 95/3/1 15/2/1 96/1/1
f 97/3/2 15/2/2 16/1/2
f 15/3/2 97/2/2 98/1/2
f 99/5/3 95/5/3 96/87/3
f 95/5/3 99/5/3 100/88/3
f 99/5/4 97/5/4 100/89/4
f 97/5/4 99/5/4 98/90/4
f 97/5/5 95/5/5 100/91/5
f 95/5/5 97/5/5 16/16/5
f 15/2/6 99/3/6 96/11/6
f 99/3/6 15/2/6 98/1/6
f 103/3/1 102/2/1 101/1/1
f 102/3/1 103/2/1 104/1/1
f 43/3/2 103/2/2 101/1/2
f 103/3/2 43/2/2 44/1/2
f 105/5/3 102/5/3 104/92/3
f 102/5/3 105/5/3 106/93/3
f 105/5/4 43/5/4 106/94/4
f 43/5/4 105/5/4 44/95/4
f 43/5/5 102/5/5 106/96/5
f 102/5/5 43/5/5 101/97/5
f 103/2/6 105/3/6 104/11/6
f 105/3/6 103/2/6 44/1/6
f 109/3/1 108/2/1 107/1/1
f 108/3/1 109/2/1 110/1/1
f 111/3/2 109/2/2 107/1/2
f 109/3/2 111/2/2 112/1/2
f 113/5/3 108/5/3 110/98/3
f 108/5/3 113/5/3 114/99/3
f 113/5/4 111/5/4 114/100/4
f 111/5/4 113/5/4 112/101/4
f 111/5/5 108/5/5 114/102/5
f 108/5/5 111/5/5 107/103/5
f 109/2/6 113/3/6 110/11/6
f 113/3/6 109/2/6 112/1/6
f 117/3/1 116/2/1 115/1/1
f 116/3/1 117/2/1 118/1/1
f 119/3/2 117/2/2 115/1/2
f 117/3/2 119/2/2 120/1/2
f 121/5/3 116/5/3 118/104/3
f 116/5/3 121/5/3 122/105/3
f 121/5/4 119/5/4 122/106/4
f 119/5/4 121/5/4 120/107/4
f 119/5/5 116/5/5 122/108/5
f 116/5/5 119/5/5 115/109/5
f 117/2/6 121/3/6 118/11/6
f 121/3/6 117/2/6 120/1/6
f 125/3/1 124/2/1 123/1/1
f 124/3/1 125/2/1 126/1/1
f 127/3/2 125/2/2 123/1/2
f 125/3/2 127/2/2 128/1/2
f 129/5/3 124/5/3 126/110/3
f 124/5/3 129/5/3 130/111/3
f 129/5/4 127/5/4 130/112/4
f 127/5/4 129/5/4 128/113/4
f 127/5/5 124/5/5 130/114/5
f 124/5/5 127/5/5 123/115/5
f 125/2/6 129/3/6 126/11/6
f 129/3/6 125/2/6 128/1/6
f 133/3/1 132/2/1 131/1/1
f 132/3/1 133/2/1 134/1/1
f 135/3/2 133/2/2 131/1/2
f 133/3/2 135/2/2 136/1/2
f 59/5/3 132/5/3 134/116/3
f 132/5/3 59/5/3 57/117/3
f 59/5/4 135/5/4 57/118/4
f 135/5/4 59/5/4 136/119/4
f 135/5/5 132/5/5 57/55/5
f 132/5/5 135/5/5 131/120/5
f 133/2/6 59/3/6 134/11/6
f 59/3/6 133/2/6 136/1/6
f 139/3/1 138/2/1 137/1/1
f 138/3/1 139/2/1 140/1/1
f 124/3/2 139/2/2 137/1/2
f 139/3/2 124/2/2 126/1/2
f 20/18/3 138/5/3 140/121/3
f 138/5/3 20/18/3 18/5/3
f 20/5/4 124/5/4 18/122/4
f 124/5/4 20/5/4 126/123/4
f 124/5/5 138/5/5 18/5/5
f 138/5/5 124/5/5 137/124/5
f 139/2/6 20/3/6 140/11/6
f 20/3/6 139/2/6 126/1/6
f 20/3/1 141/2/1 18/1/1
f 141/3/1 20/2/1 142/1/1
f 24/3/2 20/2/2 18/1/2
f 20/3/2 24/2/2 23/1/2
f 26/24/3 141/5/3 142/125/3
f 141/5/3 26/24/3 25/5/3
f 26/5/4 24/20/4 25/126/4
f 24/20/4 26/5/4 23/5/4
f 24/22/5 141/5/5 25/5/5
f 141/5/5 24/22/5 18/5/5
f 20/2/6 26/3/6 142/11/6
f 26/3/6 20/2/6 23/1/6

usemtl color6

f 4/3/1 13/2/1 2/1/1
f 13/3/1 4/2/1 14/1/1
f 8/3/2 4/2/2 2/1/2
f 4/3/2 8/2/2 7/1/2
f 143/5/3 13/84/3 14/5/3
f 13/84/3 143/5/3 144/127/3
f 143/5/4 8/7/4 144/128/4
f 8/7/4 143/5/4 7/5/4
f 8/9/5 13/5/5 144/129/5
f 13/5/5 8/9/5 2/5/5
f 4/2/6 143/3/6 14/11/6
f 143/3/6 4/2/6 7/1/6
f 147/3/1 146/2/1 145/1/1
f 146/3/1 147/2/1 148/1/1
f 49/3/2 147/2/2 145/1/2
f 147/3/2 49/2/2 51/1/2
f 52/44/3 146/5/3 148/130/3
f 146/5/3 52/44/3 50/5/3
f 52/5/4 49/5/4 50/131/4
f 49/5/4 52/5/4 51/132/4
f 49/49/5 146/5/5 50/5/5
f 146/5/5 49/49/5 145/133/5
f 147/2/6 52/3/6 148/11/6
f 52/3/6 147/2/6 51/1/6
f 151/3/1 150/2/1 149/1/1
f 150/3/1 151/2/1 152/1/1
f 73/3/2 151/2/2 149/1/2
f 151/3/2 73/2/2 75/1/2
f 76/65/3 150/5/3 152/134/3
f 150/5/3 76/65/3 74/5/3
f 76/5/4 73/5/4 74/135/4
f 73/5/4 76/5/4 75/136/4
f 73/70/5 150/5/5 74/5/5
f 150/5/5 73/70/5 149/137/5
f 151/2/6 76/3/6 152/11/6
f 76/3/6 151/2/6 75/1/6
f 155/3/1 154/2/1 153/1/1
f 154/3/1 155/2/1 156/1/1
f 81/3/2 155/2/2 153/1/2
f 155/3/2 81/2/2 83/1/2
f 84/71/3 154/5/3 156/138/3
f 154/5/3 84/71/3 82/5/3
f 84/5/4 81/5/4 82/139/4
f 81/5/4 84/5/4 83/140/4
f 81/76/5 154/5/5 82/5/5
f 154/5/5 81/76/5 153/141/5
f 155/2/6 84/3/6 156/11/6
f 84/3/6 155/2/6 83/1/6
f 158/3/1 27/2/1 157/1/1
f 27/3/1 158/2/1 28/1/1
f 58/3/2 158/2/2 157/1/2
f 158/3/2 58/2/2 60/1/2
f 66/77/3 27/5/3 28/142/3
f 27/5/3 66/77/3 65/5/3
f 66/58/4 58/5/4 65/5/4
f 58/5/4 66/58/4 60/143/4
f 58/5/5 27/5/5 65/5/5
f 27/5/5 58/5/5 157/144/5
f 158/2/6 66/3/6 28/11/6
f 66/3/6 158/2/6 60/1/6

usemtl color5

f 161/3/1 160/2/1 159/1/1
f 160/3/1 161/2/1 162/1/1
f 163/3/2 161/2/2 159/1/2
f 161/3/2 163/2/2 164/1/2
f 165/5/3 160/5/3 162/145/3
f 160/5/3 165/5/3 166/146/3
f 165/5/4 163/5/4 166/147/4
f 163/5/4 165/5/4 164/148/4
f 163/5/5 160/5/5 166/149/5
f 160/5/5 163/5/5 159/150/5
f 161/2/6 165/3/6 162/11/6
f 165/3/6 161/2/6 164/1/6
f 169/3/1 168/2/1 167/1/1
f 168/3/1 169/2/1 170/1/1
f 160/3/2 169/2/2 167/1/2
f 169/3/2 160/2/2 162/1/2
f 147/5/3 168/5/3 170/151/3
f 168/5/3 147/5/3 145/152/3
f 147/5/4 160/5/4 145/153/4
f 160/5/4 147/5/4 162/154/4
f 160/5/5 168/5/5 145/133/5
f 168/5/5 160/5/5 167/155/5
f 169/2/6 147/3/6 170/11/6
f 147/3/6 169/2/6 162/1/6
f 165/3/1 53/2/1 166/1/1
f 53/3/1 165/2/1 54/1/1
f 171/3/2 165/2/2 166/1/2
f 165/3/2 171/2/2 172/1/2
f 173/5/3 53/5/3 54/156/3
f 53/5/3 173/5/3 174/157/3
f 173/5/4 171/5/4 174/158/4
f 171/5/4 173/5/4 172/159/4
f 171/5/5 53/5/5 174/160/5
f 53/5/5 171/5/5 166/149/5
f 165/2/6 173/3/6 54/11/6
f 173/3/6 165/2/6 172/1/6
f 177/3/1 176/2/1 175/1/1
f 176/3/1 177/2/1 178/1/1
f 154/3/2 177/2/2 175/1/2
f 177/3/2 154/2/2 156/1/2
f 179/5/3 176/5/3 178/161/3
f 176/5/3 179/5/3 180/162/3
f 179/5/4 154/5/4 180/163/4
f 154/5/4 179/5/4 156/164/4
f 154/5/5 176/5/5 180/165/5
f 176/5/5 154/5/5 175/166/5
f 177/2/6 179/3/6 178/11/6
f 179/3/6 177/2/6 156/1/6
f 87/3/1 181/2/1 88/1/1
f 181/3/1 87/2/1 182/1/1
f 183/3/2 87/2/2 88/1/2
f 87/3/2 183/2/2 184/1/2
f 185/5/3 181/5/3 182/167/3
f 181/5/3 185/5/3 186/168/3
f 185/5/4 183/5/4 186/169/4
f 183/5/4 185/5/4 184/170/4
f 183/5/5 181/5/5 186/171/5
f 181/5/5 183/5/5 88/75/5
f 87/2/6 185/3/6 182/11/6
f 185/3/6 87/2/6 184/1/6
f 179/3/1 187/2/1 180/1/1
f 187/3/1 179/2/1 188/1/1
f 181/3/2 179/2/2 180/1/2
f 179/3/2 181/2/2 182/1/2
f 189/5/3 187/5/3 188/172/3
f 187/5/3 189/5/3 190/173/3
f 189/5/4 181/5/4 190/174/4
f 181/5/4 189/5/4 182/175/4
f 181/5/5 187/5/5 190/176/5
f 187/5/5 181/5/5 180/165/5
f 179/2/6 189/3/6 188/11/6
f 189/3/6 179/2/6 182/1/6

usemtl color8

f 193/3/1 192/2/1 191/1/1
f 192/3/1 193/2/1 194/1/1
f 195/3/2 193/2/2 191/1/2
f 193/3/2 195/2/2 196/1/2
f 197/5/3 192/5/3 194/177/3
f 192/5/3 197/5/3 198/178/3
f 197/5/4 195/5/4 198/179/4
f 195/5/4 197/5/4 196/180/4
f 195/5/5 192/5/5 198/181/5
f 192/5/5 195/5/5 191/182/5
f 193/2/6 197/3/6 194/11/6
f 197/3/6 193/2/6 196/1/6
f 201/3/1 200/2/1 199/1/1
f 200/3/1 201/2/1 202/1/1
f 203/3/2 201/2/2 199/1/2
f 201/3/2 203/2/2 204/1/2
f 205/5/3 200/5/3 202/183/3
f 200/5/3 205/5/3 206/184/3
f 205/5/4 203/5/4 206/185/4
f 203/5/4 205/5/4 204/186/4
f 203/5/5 200/5/5 206/187/5
f 200/5/5 203/5/5 199/188/5
f 201/2/6 205/3/6 202/11/6
f 205/3/6 201/2/6 204/1/6

usemtl color9

f 209/3/1 208/2/1 207/1/1
f 208/3/1 209/2/1 210/1/1
f 211/3/2 209/2/2 207/1/2
f 209/3/2 211/2/2 212/1/2
f 213/5/3 208/5/3 210/189/3
f 208/5/3 213/5/3 214/190/3
f 213/5/4 211/5/4 214/191/4
f 211/5/4 213/5/4 212/192/4
f 211/5/5 208/5/5 214/193/5
f 208/5/5 211/5/5 207/194/5
f 209/2/6 213/3/6 210/11/6
f 213/3/6 209/2/6 212/1/6
f 217/3/1 216/2/1 215/1/1
f 216/3/1 217/2/1 218/1/1
f 219/3/2 217/2/2 215/1/2
f 217/3/2 219/2/2 220/1/2
f 221/5/3 216/5/3 218/195/3
f 216/5/3 221/5/3 222/196/3
f 221/5/4 219/5/4 222/197/4
f 219/5/4 221/5/4 220/198/4
f 219/5/5 216/5/5 222/199/5
f 216/5/5 219/5/5 215/200/5
f 217/2/6 221/3/6 218/11/6
f 221/3/6 217/2/6 220/1/6
f 225/3/1 224/2/1 223/1/1
f 224/3/1 225/2/1 226/1/1
f 227/3/2 225/2/2 223/1/2
f 225/3/2 227/2/2 228/1/2
f 229/5/3 224/5/3 226/201/3
f 224/5/3 229/5/3 230/202/3
f 229/5/4 227/5/4 230/203/4
f 227/5/4 229/5/4 228/204/4
f 227/5/5 224/5/5 230/205/5
f 224/5/5 227/5/5 223/206/5
f 225/2/6 229/3/6 226/11/6
f 229/3/6 225/2/6 228/1/6
f 233/3/1 232/2/1 231/1/1
f 232/3/1 233/2/1 234/1/1
f 235/3/2 233/2/2 231/1/2
f 233/3/2 235/2/2 236/1/2
f 237/5/3 232/5/3 234/207/3
f 232/5/3 237/5/3 238/208/3
f 237/5/4 235/5/4 238/209/4
f 235/5/4 237/5/4 236/210/4
f 235/5/5 232/5/5 238/211/5
f 232/5/5 235/5/5 231/212/5
f 233/2/6 237/3/6 234/11/6
f 237/3/6 233/2/6 236/1/6

usemtl color10

f 241/3/1 240/2/1 239/1/1
f 240/3/1 241/2/1 242/1/1
f 146/3/2 241/2/2 239/1/2
f 241/3/2 146/2/2 148/1/2
f 151/5/3 240/5/3 242/213/3
f 240/5/3 151/5/3 149/214/3
f 151/5/4 146/5/4 149/215/4
f 146/5/4 151/5/4 148/216/4
f 146/5/5 240/5/5 149/137/5
f 240/5/5 146/5/5 239/217/5
f 241/2/6 151/3/6 242/11/6
f 151/3/6 241/2/6 148/1/6
f 55/3/1 77/2/1 56/1/1
f 77/3/1 55/2/1 78/1/1
f 243/3/2 55/2/2 56/1/2
f 55/3/2 243/2/2 244/1/2
f 245/5/3 77/5/3 78/218/3
f 77/5/3 245/5/3 246/219/3
f 245/5/4 243/5/4 246/220/4
f 243/5/4 245/5/4 244/221/4
f 243/5/5 77/5/5 246/222/5
f 77/5/5 243/5/5 56/48/5
f 55/2/6 245/3/6 78/11/6
f 245/3/6 55/2/6 244/1/6
f 249/3/1 248/2/1 247/1/1
f 248/3/1 249/2/1 250/1/1
f 150/3/2 249/2/2 247/1/2
f 249/3/2 150/2/2 152/1/2
f 155/5/3 248/5/3 250/223/3
f 248/5/3 155/5/3 153/224/3
f 155/5/4 150/5/4 153/225/4
f 150/5/4 155/5/4 152/226/4
f 150/5/5 248/5/5 153/141/5
f 248/5/5 150/5/5 247/227/5
f 249/2/6 155/3/6 250/11/6
f 155/3/6 249/2/6 152/1/6
f 79/3/1 85/2/1 80/1/1
f 85/3/1 79/2/1 86/1/1
f 251/3/2 79/2/2 80/1/2
f 79/3/2 251/2/2 252/1/2
f 253/5/3 85/5/3 86/228/3
f 85/5/3 253/5/3 254/229/3
f 253/5/4 251/5/4 254/230/4
f 251/5/4 253/5/4 252/231/4
f 251/5/5 85/5/5 254/232/5
f 85/5/5 251/5/5 80/69/5
f 79/2/6 253/3/6 86/11/6
f 253/3/6 79/2/6 252/1/6

usemtl color11

f 257/3/1 256/2/1 255/1/1
f 256/3/1 257/2/1 258/1/1
f 259/3/2 257/2/2 255/1/2
f 257/3/2 259/2/2 260/1/2
f 261/5/3 256/5/3 258/233/3
f 256/5/3 261/5/3 262/234/3
f 261/5/4 259/5/4 262/235/4
f 259/5/4 261/5/4 260/236/4
f 259/5/5 256/5/5 262/237/5
f 256/5/5 259/5/5 255/238/5
f 257/2/6 261/3/6 258/11/6
f 261/3/6 257/2/6 260/1/6
f 265/3/1 264/2/1 263/1/1
f 264/3/1 265/2/1 266/1/1
f 267/3/2 265/2/2 263/1/2
f 265/3/2 267/2/2 268/1/2
f 269/5/3 264/5/3 266/239/3
f 264/5/3 269/5/3 270/240/3
f 269/5/4 267/5/4 270/241/4
f 267/5/4 269/5/4 268/242/4
f 267/5/5 264/5/5 270/243/5
f 264/5/5 267/5/5 263/244/5
f 265/2/6 269/3/6 266/11/6
f 269/3/6 265/2/6 268/1/6

usemtl color12

f 260/3/1 262/2/1 259/1/1
f 262/3/1 260/2/1 261/1/1
f 271/3/2 260/2/2 259/1/2
f 260/3/2 271/2/2 272/1/2
f 273/5/3 262/234/3 261/5/3
f 262/234/3 273/5/3 274/245/3
f 273/5/4 271/5/4 274/246/4
f 271/5/4 273/5/4 272/247/4
f 271/5/5 262/237/5 274/248/5
f 262/237/5 271/5/5 259/5/5
f 260/2/6 273/3/6 261/11/6
f 273/3/6 260/2/6 272/1/6
f 268/3/1 270/2/1 267/1/1
f 270/3/1 268/2/1 269/1/1
f 275/3/2 268/2/2 267/1/2
f 268/3/2 275/2/2 276/1/2
f 277/5/3 270/240/3 269/5/3
f 270/240/3 277/5/3 278/249/3
f 277/5/4 275/5/4 278/250/4
f 275/5/4 277/5/4 276/251/4
f 275/5/5 270/243/5 278/252/5
f 270/243/5 275/5/5 267/5/5
f 268/2/6 277/3/6 269/11/6
f 277/3/6 268/2/6 276/1/6

