# Created by Kenney (www.kenney.nl)

mtllib Projector 3RM Glowl.mtl

v 14 9 -1
v 14 8 -1
v 14 9 1
v 14 8 1
v 13 9 -1
v 13 9 1
v 13 8 1
v 13 8 -1
v 14 8 -1.5
v 14 7 -1.5
v 14 8 1.5
v 14 7 1.5
v 13 8 -1.5
v 13 8 1.5
v 13 7 1.5
v 13 7 -1.5
v 11 5 -1.5
v 11 4 -1.5
v 11 5 1.5
v 11 4 1.5
v 10 5 -1.5
v 10 5 1.5
v 10 4 1.5
v 10 4 -1.5
v 7 5 -1.5
v 7 4 -1.5
v 7 5 1.5
v 7 4 1.5
v 6 5 -1.5
v 6 5 1.5
v 6 4 1.5
v 6 4 -1.5
v 12 4 -1
v 12 3 -1
v 12 4 1
v 12 3 1
v 11 4 -1
v 11 4 1
v 11 3 1
v 11 3 -1
v 10 3 -1.5
v 10 3 1.5
v 9 4 -1.5
v 9 4 1.5
v 9 3 1.5
v 9 3 -1.5
v 8 4 -1.5
v 8 3 -1.5
v 8 4 1.5
v 8 3 1.5
v 7 3 1.5
v 7 3 -1.5
v 15 1 -1
v 15 0 -1
v 15 1 1
v 15 0 1
v 14 1 -1
v 14 1 1
v 14 0 1
v 14 0 -1
v 16 0 -1
v 16 -1 -1
v 16 0 1
v 16 -1 1
v 15 -1 1
v 15 -1 -1
v -15 -1 -0.5
v -15 -2 -0.5
v -15 -1 0.5
v -15 -2 0.5
v -16 -1 -0.5
v -16 -1 0.5
v -16 -2 0.5
v -16 -2 -0.5
v -14 -2 -0.5
v -14 -3 -0.5
v -14 -2 0.5
v -14 -3 0.5
v -15 -3 0.5
v -15 -3 -0.5
v -2 -3 -3
v -2 -4 -3
v -2 -3 3
v -2 -4 3
v -3 -3 -3
v -3 -3 3
v -3 -4 3
v -3 -4 -3
v -4 -3 -3
v -4 -4 -3
v -4 -3 3
v -4 -4 3
v -6 -3 -3
v -6 -3 3
v -6 -4 3
v -6 -4 -3
v -7 -3 -3
v -7 -4 -3
v -7 -3 3
v -7 -4 3
v -8 -3 -3
v -8 -3 3
v -8 -4 3
v -8 -4 -3
v -9 -3 -3
v -9 -5 -3
v -9 -3 3
v -9 -5 3
v -12 -3 -3
v -12 -3 3
v -12 -5 3
v -12 -5 -3
v -12 -4 -3
v -12 -4 3
v -13 -4 -3
v -13 -4 3
v -13 -5 3
v -13 -5 -3
v -13 -5 -2.5
v -13 -6 -2.5
v -13 -5 2.5
v -13 -6 2.5
v -14 -5 -2.5
v -14 -5 2.5
v -14 -6 2.5
v -14 -6 -2.5
v 11 9 -1
v 11 9 1
v 11 8 1
v 11 8 -1
v 11 7 -1
v 11 7 1
v 9 8 -1
v 9 8 1
v 9 7 1
v 9 7 -1
v 8 7 -1
v 8 6 -1
v 8 7 1
v 8 6 1
v 7 7 -1
v 7 7 1
v 7 6 1
v 7 6 -1
v 7 5 -1
v 7 5 1
v 5 6 -1
v 5 6 1
v 5 5 1
v 5 5 -1
v -10 -1 -2.5
v -10 -3 -2.5
v -10 -1 2.5
v -10 -3 2.5
v -11 -1 -2.5
v -11 -1 2.5
v -11 -3 2.5
v -11 -3 -2.5
v 13 6 -1.5
v 13 6 1.5
v 11 8 -1.5
v 11 8 1.5
v 11 6 1.5
v 11 6 -1.5
v 11 7 -1.5
v 11 7 1.5
v 10 7 -1.5
v 10 7 1.5
v 10 6 1.5
v 10 6 -1.5
v 7 6 -1.5
v 7 6 1.5
v 13 3 -1
v 13 2 -1
v 13 3 1
v 13 2 1
v 12 2 1
v 12 2 -1
v -7 2 -2.5
v -7 1 -2.5
v -7 2 2.5
v -7 1 2.5
v -8 2 -2.5
v -8 2 2.5
v -8 1 2.5
v -8 1 -2.5
v -3 -1 -2.5
v -3 -3 -2.5
v -3 -1 2.5
v -3 -3 2.5
v -4 -1 -2.5
v -4 -1 2.5
v -4 -3 2.5
v -4 -3 -2.5
v -9 -1 -2.5
v -9 -2 -2.5
v -9 -1 2.5
v -9 -2 2.5
v -10 -2 2.5
v -10 -2 -2.5
v -11 -2 -2.5
v -11 -2 2.5
v -12 -2 -2.5
v -12 -2 2.5
v -12 -3 2.5
v -12 -3 -2.5
v -12 -4 -2.5
v -12 -4 2.5
v -13 -3 -2.5
v -13 -3 2.5
v -13 -4 2.5
v -13 -4 -2.5
v -14 -4 -2.5
v -14 -4 2.5
v -15 -5 -2.5
v -15 -5 2.5
v -15 -6 2.5
v -15 -6 -2.5
v 14 7 -1
v 14 6 -1
v 14 7 1
v 14 6 1
v 13 7 -1
v 13 7 1
v 13 6 1
v 13 6 -1
v 13 4 -0.5
v 13 3 -0.5
v 13 4 0.5
v 13 3 0.5
v 12 4 -0.5
v 12 4 0.5
v 12 3 0.5
v 12 3 -0.5
v 14 3 -0.5
v 14 2 -0.5
v 14 3 0.5
v 14 2 0.5
v 13 2 0.5
v 13 2 -0.5
v 10 2 -1.5
v 10 2 1.5
v 8 2 1.5
v 8 2 -1.5
v -7 0 -2.5
v -7 0 2.5
v -8 0 2.5
v -8 0 -2.5
v -9 1 -2.5
v -9 0 -2.5
v -9 1 2.5
v -9 0 2.5
v -10 1 -2.5
v -10 1 2.5
v -10 0 2.5
v -10 0 -2.5
v 18 0 -1
v 18 -2 -1
v 18 0 1
v 18 -2 1
v 17 0 -1
v 17 0 1
v 17 -2 1
v 17 -2 -1
v -1 -2 -2.5
v -1 -3 -2.5
v -1 -2 2.5
v -1 -3 2.5
v -2 -2 -2.5
v -2 -2 2.5
v -2 -3 2.5
v -2 -3 -2.5
v -3 -5 -3
v -3 -5 3
v -4 -5 3
v -4 -5 -3
v -6 -5 -3
v -6 -5 3
v -7 -5 3
v -7 -5 -3
v -8 -5 -3
v -8 -5 3
v -2 -5 -3
v -2 -5 3
v 9 7 -1.5
v 9 7 1.5
v 9 6 1.5
v 9 6 -1.5
v 9 6 -1
v 9 6 1
v 12 6 -1.5
v 12 5 -1.5
v 12 6 1.5
v 12 5 1.5
v -17 -1 -0.5
v -17 -1 0.5
v -17 -2 0.5
v -17 -2 -0.5
v 3 -3 -2.5
v 3 -4 -2.5
v 3 -3 2.5
v 3 -4 2.5
v 2 -3 -2.5
v 2 -3 2.5
v 2 -4 2.5
v 2 -4 -2.5
v 13 5 -1
v 13 5 1
v 12 6 -1
v 12 6 1
v 12 5 1
v 12 5 -1
v 4 4 -1.5
v 4 2 -1.5
v 4 4 1.5
v 4 2 1.5
v 3 4 -1.5
v 3 4 1.5
v 3 2 1.5
v 3 2 -1.5
v 11 3 -0.5
v 11 2 -0.5
v 11 3 0.5
v 11 2 0.5
v 10 3 -0.5
v 10 3 0.5
v 10 2 0.5
v 10 2 -0.5
v -2 3 -1.5
v -2 2 -1.5
v -2 3 1.5
v -2 2 1.5
v -4 3 -1.5
v -4 3 1.5
v -4 2 1.5
v -4 2 -1.5
v -7 3 -2
v -7 2 -2
v -7 3 2
v -7 2 2
v -8 3 -2
v -8 3 2
v -8 2 2
v -8 2 -2
v -8 3 -1.5
v -8 2 -1.5
v -8 3 1.5
v -8 2 1.5
v -9 3 -1.5
v -9 3 1.5
v -9 2 1.5
v -9 2 -1.5
v 12 2 -0.5
v 12 1 -0.5
v 12 2 0.5
v 12 1 0.5
v 11 1 0.5
v 11 1 -0.5
v 6 2 -1.5
v 6 1 -1.5
v 6 2 1.5
v 6 1 1.5
v 5 2 -1.5
v 5 2 1.5
v 5 1 1.5
v 5 1 -1.5
v -11 2 -1.5
v -11 0 -1.5
v -11 2 1.5
v -11 0 1.5
v -12 2 -1.5
v -12 2 1.5
v -12 0 1.5
v -12 0 -1.5
v 13 1 -0.5
v 13 0 -0.5
v 13 1 0.5
v 13 0 0.5
v 12 0 0.5
v 12 0 -0.5
v 7 1 -1.5
v 7 0 -1.5
v 7 1 1.5
v 7 0 1.5
v 6 0 1.5
v 6 0 -1.5
v 0 1 -1.5
v 0 0 -1.5
v 0 1 1.5
v 0 0 1.5
v -7 1 -1.5
v -7 1 1.5
v -7 0 1.5
v -7 0 -1.5
v -8 1 -1.5
v -8 0 -1.5
v -8 1 1.5
v -8 0 1.5
v -9 1 -1.5
v -9 1 1.5
v -9 0 1.5
v -9 0 -1.5
v -10 1 -1.5
v -10 0 -1.5
v -10 1 1.5
v -10 0 1.5
v -11 1 -1.5
v -11 1 1.5
v 17 -3 -1
v 17 -4 -1
v 17 -3 1
v 17 -4 1
v 16 -3 -1
v 16 -3 1
v 16 -4 1
v 16 -4 -1
v -13 -3 -1.5
v -13 -4 -1.5
v -13 -3 1.5
v -13 -4 1.5
v -14 -3 -1.5
v -14 -3 1.5
v -14 -4 1.5
v -14 -4 -1.5
v 11 5 -1
v 11 5 1
v -10 5 -0.5
v -10 4 -0.5
v -10 5 0.5
v -10 4 0.5
v -11 5 -0.5
v -11 5 0.5
v -11 4 0.5
v -11 4 -0.5
v -1 4 -2
v -1 1 -2
v -1 4 2
v -1 1 2
v -2 4 -2
v -2 4 2
v -2 1 2
v -2 1 -2
v -11 4 -2
v -11 2 -2
v -11 4 2
v -11 2 2
v -12 4 -2
v -12 4 2
v -12 2 2
v -12 2 -2
v -12 3 -2
v -12 3 2
v -13 4 -2
v -13 4 2
v -13 3 2
v -13 3 -2
v 11 2 1
v 11 2 -1
v 7 3 -2
v 7 1 -2
v 7 3 2
v 7 1 2
v 6 3 -2
v 6 3 2
v 6 1 2
v 6 1 -2
v 6 2 -2
v 6 2 2
v 4 3 -2
v 4 3 2
v 4 2 2
v 4 2 -2
v -4 3 -2
v -4 1 -2
v -4 3 2
v -4 1 2
v -7 1 2
v -7 1 -2
v -10 3 -2
v -10 2 -2
v -10 3 2
v -10 2 2
v -11 3 -2
v -11 3 2
v 13 1 -1
v 13 1 1
v 12 1 1
v 12 1 -1
v 8 2 -2
v 8 0 -2
v 8 2 2
v 8 0 2
v 7 2 -2
v 7 2 2
v 7 0 2
v 7 0 -2
v 5 2 -2
v 5 1 -2
v 5 2 2
v 5 1 2
v 4 1 2
v 4 1 -2
v 1 2 -2
v 1 1 -2
v 1 2 2
v 1 1 2
v -1 2 -2
v -1 2 2
v -2 2 -2
v -2 2 2
v -4 2 -2
v -4 2 2
v 13 0 1
v 13 0 -1
v 6 0 -2
v 6 0 2
v 5 0 2
v 5 0 -2
v -14 1 -1
v -14 0 -1
v -14 1 1
v -14 0 1
v -15 1 -1
v -15 1 1
v -15 0 1
v -15 0 -1
v 17 0 -1.5
v 17 -1 -1.5
v 17 0 1.5
v 17 -1 1.5
v 16 0 -1.5
v 16 0 1.5
v 16 -1 1.5
v 16 -1 -1.5
v 15 0 -1.5
v 15 -1 -1.5
v 15 0 1.5
v 15 -1 1.5
v 14 0 -1.5
v 14 0 1.5
v 14 -1 1.5
v 14 -1 -1.5
v 13 0 -1.5
v 13 -1 -1.5
v 13 0 1.5
v 13 -1 1.5
v 12 0 -1.5
v 12 0 1.5
v 12 -1 1.5
v 12 -1 -1.5
v 7 -1 -2
v 7 -1 2
v 6 -1 2
v 6 -1 -2
v -1 0 -2
v -1 -1 -2
v -1 0 2
v -1 -1 2
v -2 0 -2
v -2 0 2
v -2 -1 2
v -2 -1 -2
v -4 0 -2
v -4 -1 -2
v -4 0 2
v -4 -1 2
v -9 0 -2
v -9 0 2
v -9 -1 2
v -9 -1 -2
v -11 0 -2
v -11 -1 -2
v -11 0 2
v -11 -1 2
v -12 0 -2
v -12 0 2
v -12 -1 2
v -12 -1 -2
v 9 -1 -2
v 9 -4 -2
v 9 -1 2
v 9 -4 2
v 8 -1 -2
v 8 -1 2
v 8 -4 2
v 8 -4 -2
v 6 -3 -2
v 6 -3 2
v 5 -1 -2
v 5 -1 2
v 5 -3 2
v 5 -3 -2
v 5 -2 -2
v 5 -2 2
v 4 -1 -2
v 4 -1 2
v 4 -2 2
v 4 -2 -2
v 1 -1 -2
v 1 -2 -2
v 1 -1 2
v 1 -2 2
v 0 -1 -2
v 0 -1 2
v 0 -2 2
v 0 -2 -2
v 17 -2 -1.5
v 17 -3 -1.5
v 17 -2 1.5
v 17 -3 1.5
v 13 -2 -1.5
v 13 -2 1.5
v 13 -3 1.5
v 13 -3 -1.5
v 10 -2 -1.5
v 10 -4 -1.5
v 10 -2 1.5
v 10 -4 1.5
v 9 -2 -1.5
v 9 -2 1.5
v 9 -4 1.5
v 9 -4 -1.5
v 8 -2 -2
v 8 -3 -2
v 8 -2 2
v 8 -3 2
v 7 -2 -2
v 7 -2 2
v 7 -3 2
v 7 -3 -2
v 0 -3 -2
v 0 -3 2
v -1 -2 -2
v -1 -2 2
v -1 -3 2
v -1 -3 -2
v 15 -3 -1.5
v 15 -4 -1.5
v 15 -3 1.5
v 15 -4 1.5
v 10 -3 -1.5
v 10 -3 1.5
v 7 -4 -2
v 7 -4 2
v 6 -4 2
v 6 -4 -2
v -1 -5 -2
v -1 -5 2
v -2 -3 -2
v -2 -3 2
v -2 -5 2
v -2 -5 -2
v -3 -5 -2.5
v -3 -6 -2.5
v -3 -5 2.5
v -3 -6 2.5
v -4 -5 -2.5
v -4 -5 2.5
v -4 -6 2.5
v -4 -6 -2.5
v -6 -5 -2.5
v -6 -6 -2.5
v -6 -5 2.5
v -6 -6 2.5
v -7 -5 -2.5
v -7 -5 2.5
v -7 -6 2.5
v -7 -6 -2.5
v -8 -5 -2.5
v -8 -6 -2.5
v -8 -5 2.5
v -8 -6 2.5
v -9 -5 -2.5
v -9 -5 2.5
v -9 -6 2.5
v -9 -6 -2.5
v 5 5 -1.5
v 5 5 1.5
v 5 4 1.5
v 5 4 -1.5
v -13 5 -0.5
v -13 5 0.5
v -13 4 0.5
v -13 4 -0.5
v 7 4 -2
v 7 4 2
v 4 4 -2
v 4 4 2
v -3 4 -1
v -3 3 -1
v -3 4 1
v -3 3 1
v -4 4 -1
v -4 4 1
v -4 3 1
v -4 3 -1
v -5 4 -1
v -5 3 -1
v -5 4 1
v -5 3 1
v -6 4 -1
v -6 4 1
v -6 3 1
v -6 3 -1
v -7 4 -1
v -7 3 -1
v -7 4 1
v -7 3 1
v -8 4 -1
v -8 4 1
v -8 3 1
v -8 3 -1
v -10 4 -2
v -10 4 2
v 8 3 -2
v 8 3 2
v 2 3 -1.5
v 2 2 -1.5
v 2 3 1.5
v 2 2 1.5
v 1 3 -1.5
v 1 3 1.5
v 1 2 1.5
v 1 2 -1.5
v 1 3 -2
v 1 3 2
v -1 3 -2
v -1 3 2
v -12 2 -1
v -12 1 -1
v -12 2 1
v -12 1 1
v -15 2 -1
v -15 2 1
v 16 -2 1.5
v 16 -2 -1.5
v 15 -2 -1.5
v 15 -2 1.5
v 14 -2 1.5
v 14 -2 -1.5
v 11 -1 -1.5
v 11 -1 1.5
v 11 -2 1.5
v 11 -2 -1.5
v 6 -2 2
v 6 -2 -2
v -11 -2 -2
v -11 -2 2
v -13 -1 -2
v -13 -1 2
v -13 -2 2
v -13 -2 -2
v -12 -2 -2
v -12 -3 -2
v -12 -2 2
v -12 -3 2
v -13 -3 2
v -13 -3 -2
v -16 -3 -0.5
v -16 -3 0.5
v -17 -3 0.5
v -17 -3 -0.5
v -15 -3 -1
v -15 -5 -1
v -15 -3 1
v -15 -5 1
v -16 -3 -1
v -16 -3 1
v -16 -5 1
v -16 -5 -1
v -12 -5 -2.5
v -12 -5 2.5
v -12 -6 2.5
v -12 -6 -2.5
v 4 5 -1.5
v 4 5 1.5
v 3 3 -1.5
v 3 3 1.5
v 2 4 -1.5
v 2 4 1.5
v 2 4 -2
v 2 3 -2
v 2 4 2
v 2 3 2
v 15 2 -0.5
v 15 1 -0.5
v 15 2 0.5
v 15 1 0.5
v 14 1 0.5
v 14 1 -0.5
v 16 1 -0.5
v 16 0 -0.5
v 16 1 0.5
v 16 0 0.5
v 15 0 0.5
v 15 0 -0.5
v 18 -3 -1
v 18 -3 1
v -15 -3 -1.5
v -15 -3 1.5
v -15 -4 1.5
v -15 -4 -1.5
v 10 4 -1
v 10 4 1
v 10 3 1
v 10 3 -1
v -9 4 -2
v -9 3 -2
v -9 4 2
v -9 3 2
v -10 3 -1.5
v -10 3 1.5
v -10 2 1.5
v -10 2 -1.5
v 9 2 -0.5
v 9 -1 -0.5
v 9 2 0.5
v 9 -1 0.5
v 8 2 -0.5
v 8 2 0.5
v 8 -1 0.5
v 8 -1 -0.5
v -8 1 -2
v -8 1 2
v -9 2 -2
v -9 2 2
v -9 1 2
v -9 1 -2
v -10 1 -2
v -10 1 2
v -11 1 2
v -11 1 -2
v 3 1 -2
v 3 0 -2
v 3 1 2
v 3 0 2
v 2 1 -2
v 2 1 2
v 2 0 2
v 2 0 -2
v -12 0 -1
v -12 0 1
v 12 -1 -0.5
v 12 -1 0.5
v 11 0 -0.5
v 11 0 0.5
v 11 -1 0.5
v 11 -1 -0.5
v 4 0 -2
v 4 0 2
v 1 0 -2
v 1 0 2
v 11 -2 -0.5
v 11 -2 0.5
v 9 -2 0.5
v 9 -2 -0.5
v -2 -2 2
v -2 -2 -2
v -4 -2 -2
v -4 -2 2
v -9 -2 2
v -9 -2 -2
v 15 -3 -1
v 15 -3 1
v 15 -4 1
v 15 -4 -1
v 6 -5 -2
v 6 -5 2
v 5 -5 2
v 5 -5 -2
v 0 -5 -2
v 0 -5 2
v 15 -5 -1
v 15 -5 1
v 12 -4 -1
v 12 -4 1
v 12 -5 1
v 12 -5 -1
v 7 -5 -2
v 7 -5 2
v -14 -5 -1.5
v -14 -5 1.5
v -15 -5 1.5
v -15 -5 -1.5
v -2 4 -1.5
v -2 4 1.5
v -3 4 -1.5
v -3 4 1.5
v -3 3 1.5
v -3 3 -1.5
v -4 4 -1.5
v -4 4 1.5
v -5 4 -1.5
v -5 4 1.5
v -5 3 1.5
v -5 3 -1.5
v -6 4 -1.5
v -6 3 -1.5
v -6 4 1.5
v -6 3 1.5
v -7 4 -1.5
v -7 4 1.5
v -7 3 1.5
v -7 3 -1.5
v -8 4 -1.5
v -8 4 1.5
v -9 4 -1.5
v -9 4 1.5
v 3 3 -2.5
v 3 2 -2.5
v 3 3 2.5
v 3 2 2.5
v 2 3 -2.5
v 2 3 2.5
v 2 2 2.5
v 2 2 -2.5
v 4 2 -2.5
v 4 1 -2.5
v 4 2 2.5
v 4 1 2.5
v 3 1 2.5
v 3 1 -2.5
v 2 1 -2.5
v 2 1 2.5
v 1 2 -2.5
v 1 2 2.5
v 1 1 2.5
v 1 1 -2.5
v 5 1 -2.5
v 5 0 -2.5
v 5 1 2.5
v 5 0 2.5
v 4 0 2.5
v 4 0 -2.5
v 1 0 -2.5
v 1 0 2.5
v 0 1 -2.5
v 0 1 2.5
v 0 0 2.5
v 0 0 -2.5
v 4 -1 -2.5
v 4 -1 2.5
v 3 0 -2.5
v 3 0 2.5
v 3 -1 2.5
v 3 -1 -2.5
v 2 0 -2.5
v 2 -1 -2.5
v 2 0 2.5
v 2 -1 2.5
v 1 -1 2.5
v 1 -1 -2.5
v -15 -2 -1
v -15 -2 1
v -16 -2 -1
v -16 -2 1
v 14 2 -1
v 14 2 1
v -9 2 -2.5
v -9 2 2.5
v -10 2 -2.5
v -10 2 2.5
v -2 -1 -2.5
v -2 -1 2.5
v -4 -2 -2.5
v -4 -2 2.5
v 10 1 0.5
v 10 1 -0.5
v -16 2 -1
v -16 2 1
v -16 1 1
v -16 1 -1
v -15 1 -0.5
v -15 0 -0.5
v -15 1 0.5
v -15 0 0.5
v -16 1 -0.5
v -16 1 0.5
v -16 0 0.5
v -16 0 -0.5
v -17 1 -0.5
v -17 0 -0.5
v -17 1 0.5
v -17 0 0.5
v -18 1 -0.5
v -18 1 0.5
v -18 0 0.5
v -18 0 -0.5
v -18 -1 0.5
v -18 -1 -0.5
v 1 -3 -2.5
v 1 -3 2.5
v 1 -4 2.5
v 1 -4 -2.5
v 4 -2 -2.5
v 4 -2 2.5
v 3 -2 2.5
v 3 -2 -2.5
v 2 -2 -2.5
v 2 -2 2.5
v 1 -2 2.5
v 1 -2 -2.5
v 5 -2 -1.5
v 5 -3 -1.5
v 5 -2 1.5
v 5 -3 1.5
v 4 -2 -1.5
v 4 -2 1.5
v 4 -3 1.5
v 4 -3 -1.5
v 1 -2 -1.5
v 1 -3 -1.5
v 1 -2 1.5
v 1 -3 1.5
v 0 -2 -1.5
v 0 -2 1.5
v 0 -3 1.5
v 0 -3 -1.5
v 5 -4 -1.5
v 5 -6 -1.5
v 5 -4 1.5
v 5 -6 1.5
v 4 -4 -1.5
v 4 -4 1.5
v 4 -6 1.5
v 4 -6 -1.5
v 3 -1 -2
v 3 -2 -2
v 3 -1 2
v 3 -2 2
v 2 -1 -2
v 2 -1 2
v 2 -2 2
v 2 -2 -2
v 4 -3 -2.5
v 4 -3 2.5
v 4 -4 -2.5
v 4 -6 -2.5
v 4 -4 2.5
v 4 -6 2.5
v 3 -6 2.5
v 3 -6 -2.5
v 2 -7 -1
v 2 -8 -1
v 2 -7 1
v 2 -8 1
v 1 -7 -1
v 1 -7 1
v 1 -8 1
v 1 -8 -1
v 1 -4 -1.5
v 1 -4 1.5
v 0 -4 1.5
v 0 -4 -1.5
v 2 -6 2.5
v 2 -6 -2.5
v 1 -6 2.5
v 1 -6 -2.5
v 3 -7 -1.5
v 3 -8 -1.5
v 3 -7 1.5
v 3 -8 1.5
v 2 -7 -1.5
v 2 -7 1.5
v 2 -8 1.5
v 2 -8 -1.5
v 1 -6 -1.5
v 1 -6 1.5
v 0 -6 1.5
v 0 -6 -1.5
v 4 -7 -1
v 4 -8 -1
v 4 -7 1
v 4 -8 1
v 3 -7 -1
v 3 -7 1
v 3 -8 1
v 3 -8 -1
v 5 -7 -1.5
v 5 -7 1.5
v 4 -7 1.5
v 4 -7 -1.5
v 1 -7 -1.5
v 1 -7 1.5
v 0 -7 1.5
v 0 -7 -1.5
v 4 -7 -2.5
v 4 -7 2.5
v 3 -7 2.5
v 3 -7 -2.5
v 2 -7 -2.5
v 2 -7 2.5
v 1 -7 2.5
v 1 -7 -2.5

vn 1 0 0
vn 0 1 0
vn 0 -1 0
vn -1 0 0
vn 0 0 -1
vn 0 0 1

vt -19.68504 19.68504
vt 19.68504 19.68504
vt -19.68504 -19.68504
vt 0 NaN
vt 0 0
vt 0 NaN
vt 0 NaN
vt 0 NaN
vt 0 NaN
vt 0 NaN
vt 19.68504 -19.68504
vt 0 NaN
vt 0 NaN
vt 0 NaN
vt 0 NaN
vt 0 NaN
vt 0 NaN
vt 0 NaN
vt 0 NaN
vt 0 NaN
vt 0 NaN
vt 0 NaN
vt 0 NaN
vt 0 NaN
vt 0 NaN
vt 0 NaN
vt 0 NaN
vt 0 NaN
vt 0 NaN
vt 0 NaN
vt 0 NaN
vt 0 NaN
vt 0 NaN
vt 0 NaN
vt 0 NaN
vt 0 NaN
vt 0 NaN
vt 0 NaN
vt 0 NaN
vt 0 NaN
vt 0 NaN
vt 0 NaN
vt 0 NaN
vt 0 NaN
vt 0 NaN
vt 0 NaN
vt 0 NaN
vt 0 NaN
vt 0 NaN
vt 0 NaN
vt 0 NaN
vt 0 NaN
vt 0 NaN
vt 0 NaN
vt 0 NaN
vt 0 NaN
vt 0 NaN
vt 0 NaN
vt 0 NaN
vt 0 NaN
vt 0 NaN
vt 0 NaN
vt 0 NaN
vt 0 NaN
vt 0 NaN
vt 0 NaN
vt 0 NaN
vt 0 NaN
vt 0 NaN
vt 0 NaN
vt 0 NaN
vt 0 NaN
vt 0 NaN
vt 0 NaN
vt 0 NaN
vt 0 NaN
vt 0 NaN
vt 0 NaN
vt 0 NaN
vt 0 NaN
vt 0 NaN
vt 0 NaN
vt 0 NaN
vt 0 NaN
vt 0 NaN
vt 0 NaN
vt 0 NaN
vt 0 NaN
vt 0 NaN
vt 0 NaN
vt 0 NaN
vt 0 NaN
vt 0 NaN
vt 0 NaN
vt 0 NaN
vt 0 NaN
vt 0 NaN
vt 0 NaN
vt 0 NaN
vt 0 NaN
vt 0 NaN
vt 0 NaN
vt 0 NaN
vt 0 NaN
vt 0 NaN
vt 0 NaN
vt 0 NaN
vt 0 NaN
vt 0 NaN
vt 0 NaN
vt 0 NaN
vt 0 NaN
vt 0 NaN
vt 0 NaN
vt 0 NaN
vt 0 NaN
vt 0 NaN
vt 0 NaN
vt 0 NaN
vt 0 NaN
vt 0 NaN
vt 0 NaN
vt 0 NaN
vt 0 NaN
vt 0 NaN
vt 0 NaN
vt 0 NaN
vt 0 NaN
vt 0 NaN
vt 0 NaN
vt 0 NaN
vt 0 NaN
vt 0 NaN
vt 0 NaN
vt 0 NaN
vt 0 NaN
vt 0 NaN
vt 0 NaN
vt 0 NaN
vt 0 NaN
vt 0 NaN
vt 0 NaN
vt 0 NaN
vt 0 NaN
vt 0 NaN
vt 0 NaN
vt 0 NaN
vt 0 NaN
vt 0 NaN
vt 0 NaN
vt 0 NaN
vt 0 NaN
vt 0 NaN
vt 0 NaN
vt 0 NaN
vt 0 NaN
vt 0 NaN
vt 0 NaN
vt 0 NaN
vt 0 NaN
vt 0 NaN
vt 0 NaN
vt 0 NaN
vt 0 NaN
vt 0 NaN
vt 0 NaN
vt 0 NaN
vt 0 NaN
vt 0 NaN
vt 0 NaN
vt 0 NaN
vt 0 NaN
vt 0 NaN
vt 0 NaN
vt 0 NaN
vt 0 NaN
vt 0 NaN
vt 0 NaN
vt 0 NaN
vt 0 NaN
vt 0 NaN
vt 0 NaN
vt 0 NaN
vt 0 NaN
vt 0 NaN
vt 0 NaN
vt 0 NaN
vt 0 NaN
vt 0 NaN
vt 0 NaN
vt 0 NaN
vt 0 NaN
vt 0 NaN
vt 0 NaN
vt 0 NaN
vt 0 NaN
vt 0 NaN
vt 0 NaN
vt 0 NaN
vt 0 NaN
vt 0 NaN
vt 0 NaN
vt 0 NaN
vt 0 NaN
vt 0 NaN
vt 0 NaN
vt 0 NaN
vt 0 NaN
vt 0 NaN
vt 0 NaN
vt 0 NaN
vt 0 NaN
vt 0 NaN
vt 0 NaN
vt 0 NaN
vt 0 NaN
vt 0 NaN
vt 0 NaN
vt 0 NaN
vt 0 NaN
vt 0 NaN
vt 0 NaN
vt 0 NaN
vt 0 NaN
vt 0 NaN
vt 0 NaN
vt 0 NaN
vt 0 NaN
vt 0 NaN
vt 0 NaN
vt 0 NaN
vt 0 NaN
vt 0 NaN
vt 0 NaN
vt 0 NaN
vt 0 NaN
vt 0 NaN
vt 0 NaN
vt 0 NaN
vt 0 NaN
vt 0 NaN
vt 0 NaN
vt 0 NaN
vt 0 NaN
vt 0 NaN
vt 0 NaN
vt 0 NaN
vt 0 NaN
vt 0 NaN
vt 0 NaN
vt 0 NaN
vt 0 NaN
vt 0 NaN
vt 0 NaN
vt 0 NaN
vt 0 NaN
vt 0 NaN
vt 0 NaN
vt 0 NaN
vt 0 NaN
vt 0 NaN
vt 0 NaN
vt 0 NaN
vt 0 NaN
vt 0 NaN
vt 0 NaN
vt 0 NaN
vt 0 NaN
vt 0 NaN
vt 0 NaN
vt 0 NaN
vt 0 NaN
vt 0 NaN
vt 0 NaN
vt 0 NaN
vt 0 NaN
vt 0 NaN
vt 0 NaN
vt 0 NaN
vt 0 NaN
vt 0 NaN
vt 0 NaN
vt 0 NaN
vt 0 NaN
vt 0 NaN
vt 0 NaN
vt 0 NaN
vt 0 NaN
vt 0 NaN
vt 0 NaN
vt 0 NaN
vt 0 NaN
vt 0 NaN
vt 0 NaN
vt 0 NaN
vt 0 NaN
vt 0 NaN
vt 0 NaN
vt 0 NaN
vt 0 NaN
vt 0 NaN
vt 0 NaN
vt 0 NaN
vt 0 NaN
vt 0 NaN
vt 0 NaN
vt 0 NaN
vt 0 NaN
vt 0 NaN
vt 0 NaN
vt 0 NaN
vt 0 NaN
vt 0 NaN
vt 0 NaN
vt 0 NaN
vt 0 NaN
vt 0 NaN
vt 0 NaN
vt 0 NaN
vt 0 NaN
vt 0 NaN
vt 0 NaN
vt 0 NaN
vt 0 NaN
vt 0 NaN
vt 0 NaN
vt 0 NaN
vt 0 NaN
vt 0 NaN
vt 0 NaN
vt 0 NaN
vt 0 NaN
vt 0 NaN
vt 0 NaN
vt 0 NaN
vt 0 NaN
vt 0 NaN
vt 0 NaN
vt 0 NaN
vt 0 NaN
vt 0 NaN
vt 0 NaN
vt 0 NaN
vt 0 NaN
vt 0 NaN
vt 0 NaN
vt 0 NaN
vt 0 NaN
vt 0 NaN
vt 0 NaN
vt 0 NaN
vt 0 NaN
vt 0 NaN
vt 0 NaN
vt 0 NaN
vt 0 NaN
vt 0 NaN
vt 0 NaN
vt 0 NaN
vt 0 NaN
vt 0 NaN
vt 0 NaN
vt 0 NaN
vt 0 NaN
vt 0 NaN
vt 0 NaN
vt 0 NaN
vt 0 NaN
vt 0 NaN
vt 0 NaN
vt 0 NaN
vt 0 NaN
vt 0 NaN
vt 0 NaN
vt 0 NaN
vt 0 NaN
vt 0 NaN
vt 0 NaN
vt 0 NaN
vt 0 NaN
vt 0 NaN
vt 0 NaN
vt 0 NaN
vt 0 NaN
vt 0 NaN
vt 0 NaN
vt 0 NaN
vt 0 NaN
vt 0 NaN
vt 0 NaN
vt 0 NaN
vt 0 NaN
vt 0 NaN
vt 0 NaN
vt 0 NaN
vt 0 NaN
vt 0 NaN
vt 0 NaN
vt 0 NaN
vt 0 NaN
vt 0 NaN
vt 0 NaN
vt 0 NaN
vt 0 NaN
vt 0 NaN
vt 0 NaN
vt 0 NaN
vt 0 NaN
vt 0 NaN
vt 0 NaN
vt 0 NaN
vt 0 NaN
vt 0 NaN
vt 0 NaN
vt 0 NaN
vt 0 NaN
vt 0 NaN
vt 0 NaN
vt 0 NaN
vt 0 NaN
vt 0 NaN
vt 0 NaN
vt 0 NaN
vt 0 NaN
vt 0 NaN
vt 0 NaN
vt 0 NaN
vt 0 NaN
vt 0 NaN
vt 0 NaN
vt 0 NaN
vt 0 NaN
vt 0 NaN
vt 0 NaN
vt 0 NaN
vt 0 NaN
vt 0 NaN
vt 0 NaN
vt 0 NaN
vt 0 NaN
vt 0 NaN
vt 0 NaN
vt 0 NaN
vt 0 NaN
vt 0 NaN
vt 0 NaN
vt 0 NaN
vt 0 NaN
vt 0 NaN
vt 0 NaN
vt 0 NaN
vt 0 NaN
vt 0 NaN
vt 0 NaN
vt 0 NaN
vt 0 NaN
vt 0 NaN
vt 0 NaN
vt 0 NaN
vt 0 NaN
vt 0 NaN
vt 0 NaN
vt 0 NaN
vt 0 NaN
vt 0 NaN
vt 0 NaN
vt 0 NaN
vt 0 NaN
vt 0 NaN
vt 0 NaN
vt 0 NaN
vt 0 NaN
vt 0 NaN
vt 0 NaN
vt 0 NaN
vt 0 NaN
vt 0 NaN
vt 0 NaN
vt 0 NaN
vt 0 NaN
vt 0 NaN
vt 0 NaN
vt 0 NaN
vt 0 NaN
vt 0 NaN
vt 0 NaN
vt 0 NaN
vt 0 NaN
vt 0 NaN
vt 0 NaN
vt 0 NaN
vt 0 NaN
vt 0 NaN
vt 0 NaN
vt 0 NaN
vt 0 NaN
vt 0 NaN
vt 0 NaN
vt 0 NaN
vt 0 NaN
vt 0 NaN
vt 0 NaN
vt 0 NaN
vt 0 NaN
vt 0 NaN
vt 0 NaN
vt 0 NaN
vt 0 NaN
vt 0 NaN
vt 0 NaN
vt 0 NaN
vt 0 NaN
vt 0 NaN
vt 0 NaN
vt 0 NaN
vt 0 NaN
vt 0 NaN
vt 0 NaN
vt 0 NaN
vt 0 NaN
vt 0 NaN
vt 0 NaN
vt 0 NaN
vt 0 NaN
vt 0 NaN
vt 0 NaN
vt 0 NaN
vt 0 NaN
vt 0 NaN
vt 0 NaN
vt 0 NaN
vt 0 NaN
vt 0 NaN
vt 0 NaN
vt 0 NaN
vt 0 NaN
vt 0 NaN
vt 0 NaN
vt 0 NaN
vt 0 NaN
vt 0 NaN
vt 0 NaN
vt 0 NaN
vt 0 NaN
vt 0 NaN
vt 0 NaN
vt 0 NaN
vt 0 NaN
vt 0 NaN
vt 0 NaN
vt 0 NaN
vt 0 NaN
vt 0 NaN
vt 0 NaN
vt 0 NaN
vt 0 NaN
vt 0 NaN
vt 0 NaN
vt 0 NaN
vt 0 NaN
vt 0 NaN
vt 0 NaN
vt 0 NaN
vt 0 NaN
vt 0 NaN
vt 0 NaN
vt 0 NaN
vt 0 NaN
vt 0 NaN
vt 0 NaN
vt 0 NaN
vt 0 NaN
vt 0 NaN
vt 0 NaN
vt 0 NaN
vt 0 NaN
vt 0 NaN
vt 0 NaN
vt 0 NaN
vt 0 NaN
vt 0 NaN
vt 0 NaN
vt 0 NaN
vt 0 NaN
vt 0 NaN
vt 0 NaN
vt 0 NaN
vt 0 NaN
vt 0 NaN
vt 0 NaN
vt 0 NaN
vt 0 NaN
vt 0 NaN
vt 0 NaN
vt 0 NaN
vt 0 NaN
vt 0 NaN
vt 0 NaN
vt 0 NaN
vt 0 NaN
vt 0 NaN
vt 0 NaN
vt 0 NaN
vt 0 NaN
vt 0 NaN
vt 0 NaN
vt 0 NaN
vt 0 NaN
vt 0 NaN
vt 0 NaN
vt 0 NaN
vt 0 NaN
vt 0 NaN
vt 0 NaN
vt 0 NaN
vt 0 NaN
vt 0 NaN
vt 0 NaN
vt 0 NaN
vt 0 NaN
vt 0 NaN
vt 0 NaN
vt 0 NaN
vt 0 NaN
vt 0 NaN
vt 0 NaN
vt 0 NaN
vt 0 NaN
vt 0 NaN
vt 0 NaN
vt 0 NaN
vt 0 NaN
vt 0 NaN
vt 0 NaN
vt 0 NaN
vt 0 NaN
vt 0 NaN
vt 0 NaN
vt 0 NaN
vt 0 NaN
vt 0 NaN
vt 0 NaN
vt 0 NaN
vt 0 NaN
vt 0 NaN
vt 0 NaN
vt 0 NaN
vt 0 NaN
vt 0 NaN
vt 0 NaN
vt 0 NaN
vt 0 NaN
vt 0 NaN
vt 0 NaN
vt 0 NaN
vt 0 NaN
vt 0 NaN
vt 0 NaN
vt 0 NaN
vt 0 NaN
vt 0 NaN
vt 0 NaN
vt 0 NaN
vt 0 NaN
vt 0 NaN
vt 0 NaN
vt 0 NaN
vt 0 NaN
vt 0 NaN
vt 0 NaN
vt 0 NaN
vt 0 NaN
vt 0 NaN
vt 0 NaN
vt 0 NaN
vt 0 NaN
vt 0 NaN
vt 0 NaN
vt 0 NaN
vt 0 NaN
vt 0 NaN
vt 0 NaN
vt 0 NaN
vt 0 NaN
vt 0 NaN
vt 0 NaN
vt 0 NaN
vt 0 NaN
vt 0 NaN
vt 0 NaN
vt 0 NaN
vt 0 NaN
vt 0 NaN
vt 0 NaN
vt 0 NaN
vt 0 NaN
vt 0 NaN
vt 0 NaN
vt 0 NaN
vt 0 NaN
vt 0 NaN
vt 0 NaN
vt 0 NaN
vt 0 NaN
vt 0 NaN
vt 0 NaN
vt 0 NaN
vt 0 NaN
vt 0 NaN
vt 0 NaN
vt 0 NaN
vt 0 NaN
vt 0 NaN
vt 0 NaN
vt 0 NaN
vt 0 NaN
vt 0 NaN
vt 0 NaN
vt 0 NaN
vt 0 NaN
vt 0 NaN
vt 0 NaN
vt 0 NaN
vt 0 NaN
vt 0 NaN
vt 0 NaN
vt 0 NaN
vt 0 NaN
vt 0 NaN
vt 0 NaN
vt 0 NaN
vt 0 NaN
vt 0 NaN
vt 0 NaN
vt 0 NaN
vt 0 NaN
vt 0 NaN
vt 0 NaN
vt 0 NaN
vt 0 NaN
vt 0 NaN
vt 0 NaN
vt 0 NaN
vt 0 NaN
vt 0 NaN
vt 0 NaN
vt 0 NaN
vt 0 NaN
vt 0 NaN
vt 0 NaN
vt 0 NaN
vt 0 NaN
vt 0 NaN
vt 0 NaN
vt 0 NaN
vt 0 NaN
vt 0 NaN
vt 0 NaN
vt 0 NaN
vt 0 NaN
vt 0 NaN
vt 0 NaN
vt 0 NaN
vt 0 NaN
vt 0 NaN
vt 0 NaN
vt 0 NaN
vt 0 NaN
vt 0 NaN
vt 0 NaN
vt 0 NaN
vt 0 NaN
vt 0 NaN
vt 0 NaN
vt 0 NaN
vt 0 NaN
vt 0 NaN
vt 0 NaN
vt 0 NaN
vt 0 NaN
vt 0 NaN
vt 0 NaN
vt 0 NaN
vt 0 NaN
vt 0 NaN
vt 0 NaN
vt 0 NaN
vt 0 NaN
vt 0 NaN
vt 0 NaN
vt 0 NaN
vt 0 NaN
vt 0 NaN
vt 0 NaN
vt 0 NaN
vt 0 NaN
vt 0 NaN
vt 0 NaN
vt 0 NaN
vt 0 NaN
vt 0 NaN
vt 0 NaN
vt 0 NaN
vt 0 NaN
vt 0 NaN
vt 0 NaN
vt 0 NaN
vt 0 NaN
vt 0 NaN
vt 0 NaN
vt 0 NaN
vt 0 NaN
vt 0 NaN
vt 0 NaN
vt 0 NaN
vt 0 NaN
vt 0 NaN
vt 0 NaN
vt 0 NaN
vt 0 NaN
vt 0 NaN
vt 0 NaN
vt 0 NaN
vt 0 NaN
vt 0 NaN
vt 0 NaN
vt 0 NaN
vt 0 NaN
vt 0 NaN
vt 0 NaN
vt 0 NaN
vt 0 NaN
vt 0 NaN
vt 0 NaN
vt 0 NaN
vt 0 NaN
vt 0 NaN
vt 0 NaN
vt 0 NaN
vt 0 NaN
vt 0 NaN
vt 0 NaN
vt 0 NaN
vt 0 NaN
vt 0 NaN
vt 0 NaN
vt 0 NaN
vt 0 NaN
vt 0 NaN
vt 0 NaN
vt 0 NaN
vt 0 NaN
vt 0 NaN
vt 0 NaN
vt 0 NaN
vt 0 NaN
vt 0 NaN
vt 0 NaN
vt 0 NaN
vt 0 NaN
vt 0 NaN
vt 0 NaN
vt 0 NaN
vt 0 NaN
vt 0 NaN
vt 0 NaN
vt 0 NaN
vt 0 NaN
vt 0 NaN
vt 0 NaN
vt 0 NaN
vt 0 NaN
vt 0 NaN
vt 0 NaN
vt 0 NaN
vt 0 NaN
vt 0 NaN
vt 0 NaN
vt 0 NaN
vt 0 NaN
vt 0 NaN
vt 0 NaN
vt 0 NaN
vt 0 NaN
vt 0 NaN
vt 0 NaN
vt 0 NaN
vt 0 NaN
vt 0 NaN
vt 0 NaN
vt 0 NaN
vt 0 NaN
vt 0 NaN
vt 0 NaN
vt 0 NaN
vt 0 NaN
vt 0 NaN
vt 0 NaN
vt 0 NaN
vt 0 NaN
vt 0 NaN
vt 0 NaN
vt 0 NaN
vt 0 NaN
vt 0 NaN
vt 0 NaN
vt 0 NaN
vt 0 NaN
vt 0 NaN
vt 0 NaN
vt 0 NaN
vt 0 NaN
vt 0 NaN
vt 0 NaN
vt 0 NaN
vt 0 NaN
vt 0 NaN
vt 0 NaN
vt 0 NaN
vt 0 NaN
vt 0 NaN
vt 0 NaN
vt 0 NaN
vt 0 NaN
vt 0 NaN
vt 0 NaN
vt 0 NaN
vt 0 NaN
vt 0 NaN
vt 0 NaN
vt 0 NaN
vt 0 NaN
vt 0 NaN
vt 0 NaN
vt 0 NaN
vt 0 NaN
vt 0 NaN
vt 0 NaN
vt 0 NaN
vt 0 NaN
vt 0 NaN
vt 0 NaN
vt 0 NaN
vt 0 NaN
vt 0 NaN
vt 0 NaN
vt 0 NaN
vt 0 NaN
vt 0 NaN
vt 0 NaN
vt 0 NaN
vt 0 NaN
vt 0 NaN
vt 0 NaN
vt 0 NaN
vt 0 NaN
vt 0 NaN
vt 0 NaN
vt 0 NaN
vt 0 NaN
vt 0 NaN
vt 0 NaN
vt 0 NaN
vt 0 NaN
vt 0 NaN
vt 0 NaN
vt 0 NaN
vt 0 NaN
vt 0 NaN
vt 0 NaN
vt 0 NaN
vt 0 NaN
vt 0 NaN
vt 0 NaN
vt 0 NaN
vt 0 NaN
vt 0 NaN
vt 0 NaN
vt 0 NaN
vt 0 NaN
vt 0 NaN
vt 0 NaN
vt 0 NaN
vt 0 NaN
vt 0 NaN
vt 0 NaN
vt 0 NaN
vt 0 NaN
vt 0 NaN
vt 0 NaN
vt 0 NaN
vt 0 NaN
vt 0 NaN
vt 0 NaN

usemtl color13

f 3/3/1 2/2/1 1/1/1
f 2/3/1 3/2/1 4/1/1
f 5/3/2 3/2/2 1/1/2
f 3/3/2 5/2/2 6/1/2
f 7/5/3 2/5/3 4/4/3
f 2/5/3 7/5/3 8/6/3
f 7/5/4 5/5/4 8/7/4
f 5/5/4 7/5/4 6/8/4
f 5/5/5 2/5/5 8/9/5
f 2/5/5 5/5/5 1/10/5
f 3/2/6 7/3/6 4/11/6
f 7/3/6 3/2/6 6/1/6
f 3/3/1 2/2/1 1/1/1
f 2/3/1 3/2/1 4/1/1
f 5/3/2 3/2/2 1/1/2
f 3/3/2 5/2/2 6/1/2
f 7/5/3 2/5/3 4/4/3
f 2/5/3 7/5/3 8/6/3
f 7/5/4 5/5/4 8/7/4
f 5/5/4 7/5/4 6/8/4
f 5/5/5 2/5/5 8/9/5
f 2/5/5 5/5/5 1/10/5
f 3/2/6 7/3/6 4/11/6
f 7/3/6 3/2/6 6/1/6
f 11/3/1 10/2/1 9/1/1
f 10/3/1 11/2/1 12/1/1
f 13/3/2 11/2/2 9/1/2
f 11/3/2 13/2/2 14/1/2
f 15/5/3 10/5/3 12/12/3
f 10/5/3 15/5/3 16/13/3
f 15/5/4 13/5/4 16/14/4
f 13/5/4 15/5/4 14/15/4
f 13/5/5 10/5/5 16/16/5
f 10/5/5 13/5/5 9/17/5
f 11/2/6 15/3/6 12/11/6
f 15/3/6 11/2/6 14/1/6
f 19/3/1 18/2/1 17/1/1
f 18/3/1 19/2/1 20/1/1
f 21/3/2 19/2/2 17/1/2
f 19/3/2 21/2/2 22/1/2
f 23/5/3 18/5/3 20/18/3
f 18/5/3 23/5/3 24/19/3
f 23/5/4 21/5/4 24/20/4
f 21/5/4 23/5/4 22/21/4
f 21/5/5 18/5/5 24/22/5
f 18/5/5 21/5/5 17/23/5
f 19/2/6 23/3/6 20/11/6
f 23/3/6 19/2/6 22/1/6
f 27/3/1 26/2/1 25/1/1
f 26/3/1 27/2/1 28/1/1
f 29/3/2 27/2/2 25/1/2
f 27/3/2 29/2/2 30/1/2
f 31/5/3 26/5/3 28/24/3
f 26/5/3 31/5/3 32/25/3
f 31/5/4 29/5/4 32/26/4
f 29/5/4 31/5/4 30/27/4
f 29/5/5 26/5/5 32/28/5
f 26/5/5 29/5/5 25/29/5
f 27/2/6 31/3/6 28/11/6
f 31/3/6 27/2/6 30/1/6
f 35/3/1 34/2/1 33/1/1
f 34/3/1 35/2/1 36/1/1
f 37/3/2 35/2/2 33/1/2
f 35/3/2 37/2/2 38/1/2
f 39/5/3 34/5/3 36/30/3
f 34/5/3 39/5/3 40/31/3
f 39/5/4 37/5/4 40/32/4
f 37/5/4 39/5/4 38/33/4
f 37/5/5 34/5/5 40/34/5
f 34/5/5 37/5/5 33/35/5
f 35/2/6 39/3/6 36/11/6
f 39/3/6 35/2/6 38/1/6
f 23/3/1 41/2/1 24/1/1
f 41/3/1 23/2/1 42/1/1
f 43/3/2 23/2/2 24/1/2
f 23/3/2 43/2/2 44/1/2
f 45/5/3 41/5/3 42/36/3
f 41/5/3 45/5/3 46/37/3
f 45/5/4 43/5/4 46/38/4
f 43/5/4 45/5/4 44/39/4
f 43/5/5 41/5/5 46/40/5
f 41/5/5 43/5/5 24/22/5
f 23/2/6 45/3/6 42/11/6
f 45/3/6 23/2/6 44/1/6
f 49/3/1 48/2/1 47/1/1
f 48/3/1 49/2/1 50/1/1
f 26/3/2 49/2/2 47/1/2
f 49/3/2 26/2/2 28/1/2
f 51/5/3 48/5/3 50/41/3
f 48/5/3 51/5/3 52/42/3
f 51/5/4 26/5/4 52/43/4
f 26/5/4 51/5/4 28/44/4
f 26/5/5 48/5/5 52/45/5
f 48/5/5 26/5/5 47/46/5
f 49/2/6 51/3/6 50/11/6
f 51/3/6 49/2/6 28/1/6
f 55/3/1 54/2/1 53/1/1
f 54/3/1 55/2/1 56/1/1
f 57/3/2 55/2/2 53/1/2
f 55/3/2 57/2/2 58/1/2
f 59/5/3 54/5/3 56/47/3
f 54/5/3 59/5/3 60/48/3
f 59/5/4 57/5/4 60/49/4
f 57/5/4 59/5/4 58/50/4
f 57/5/5 54/5/5 60/51/5
f 54/5/5 57/5/5 53/52/5
f 55/2/6 59/3/6 56/11/6
f 59/3/6 55/2/6 58/1/6
f 63/3/1 62/2/1 61/1/1
f 62/3/1 63/2/1 64/1/1
f 54/3/2 63/2/2 61/1/2
f 63/3/2 54/2/2 56/1/2
f 65/5/3 62/5/3 64/53/3
f 62/5/3 65/5/3 66/54/3
f 65/5/4 54/5/4 66/55/4
f 54/5/4 65/5/4 56/56/4
f 54/5/5 62/5/5 66/57/5
f 62/5/5 54/5/5 61/58/5
f 63/2/6 65/3/6 64/11/6
f 65/3/6 63/2/6 56/1/6
f 69/3/1 68/2/1 67/1/1
f 68/3/1 69/2/1 70/1/1
f 71/3/2 69/2/2 67/1/2
f 69/3/2 71/2/2 72/1/2
f 73/5/3 68/5/3 70/59/3
f 68/5/3 73/5/3 74/60/3
f 73/5/4 71/5/4 74/61/4
f 71/5/4 73/5/4 72/62/4
f 71/5/5 68/5/5 74/63/5
f 68/5/5 71/5/5 67/64/5
f 69/2/6 73/3/6 70/11/6
f 73/3/6 69/2/6 72/1/6
f 77/3/1 76/2/1 75/1/1
f 76/3/1 77/2/1 78/1/1
f 68/3/2 77/2/2 75/1/2
f 77/3/2 68/2/2 70/1/2
f 79/5/3 76/5/3 78/65/3
f 76/5/3 79/5/3 80/66/3
f 79/5/4 68/5/4 80/67/4
f 68/5/4 79/5/4 70/68/4
f 68/5/5 76/5/5 80/69/5
f 76/5/5 68/5/5 75/70/5
f 77/2/6 79/3/6 78/11/6
f 79/3/6 77/2/6 70/1/6
f 83/3/1 82/2/1 81/1/1
f 82/3/1 83/2/1 84/1/1
f 85/3/2 83/2/2 81/1/2
f 83/3/2 85/2/2 86/1/2
f 87/5/3 82/5/3 84/71/3
f 82/5/3 87/5/3 88/72/3
f 87/5/4 85/5/4 88/73/4
f 85/5/4 87/5/4 86/74/4
f 85/5/5 82/5/5 88/75/5
f 82/5/5 85/5/5 81/76/5
f 83/2/6 87/3/6 84/11/6
f 87/3/6 83/2/6 86/1/6
f 91/3/1 90/2/1 89/1/1
f 90/3/1 91/2/1 92/1/1
f 93/3/2 91/2/2 89/1/2
f 91/3/2 93/2/2 94/1/2
f 95/5/3 90/5/3 92/77/3
f 90/5/3 95/5/3 96/78/3
f 95/5/4 93/5/4 96/79/4
f 93/5/4 95/5/4 94/80/4
f 93/5/5 90/5/5 96/81/5
f 90/5/5 93/5/5 89/82/5
f 91/2/6 95/3/6 92/11/6
f 95/3/6 91/2/6 94/1/6
f 99/3/1 98/2/1 97/1/1
f 98/3/1 99/2/1 100/1/1
f 101/3/2 99/2/2 97/1/2
f 99/3/2 101/2/2 102/1/2
f 103/5/3 98/5/3 100/83/3
f 98/5/3 103/5/3 104/84/3
f 103/5/4 101/5/4 104/85/4
f 101/5/4 103/5/4 102/86/4
f 101/5/5 98/5/5 104/87/5
f 98/5/5 101/5/5 97/88/5
f 99/2/6 103/3/6 100/11/6
f 103/3/6 99/2/6 102/1/6
f 107/3/1 106/2/1 105/1/1
f 106/3/1 107/2/1 108/1/1
f 109/3/2 107/2/2 105/1/2
f 107/3/2 109/2/2 110/1/2
f 111/5/3 106/5/3 108/89/3
f 106/5/3 111/5/3 112/90/3
f 111/5/4 109/5/4 112/91/4
f 109/5/4 111/5/4 110/92/4
f 109/5/5 106/5/5 112/93/5
f 106/5/5 109/5/5 105/94/5
f 107/2/6 111/3/6 108/11/6
f 111/3/6 107/2/6 110/1/6
f 114/3/1 112/2/1 113/1/1
f 112/3/1 114/2/1 111/1/1
f 115/3/2 114/2/2 113/1/2
f 114/3/2 115/2/2 116/1/2
f 117/5/3 112/90/3 111/5/3
f 112/90/3 117/5/3 118/95/3
f 117/5/4 115/5/4 118/96/4
f 115/5/4 117/5/4 116/97/4
f 115/5/5 112/93/5 118/98/5
f 112/93/5 115/5/5 113/99/5
f 114/2/6 117/3/6 111/11/6
f 117/3/6 114/2/6 116/1/6
f 121/3/1 120/2/1 119/1/1
f 120/3/1 121/2/1 122/1/1
f 123/3/2 121/2/2 119/1/2
f 121/3/2 123/2/2 124/1/2
f 125/5/3 120/5/3 122/100/3
f 120/5/3 125/5/3 126/101/3
f 125/5/4 123/5/4 126/102/4
f 123/5/4 125/5/4 124/103/4
f 123/5/5 120/5/5 126/104/5
f 120/5/5 123/5/5 119/105/5
f 121/2/6 125/3/6 122/11/6
f 125/3/6 121/2/6 124/1/6

usemtl color22

f 6/3/1 8/2/1 5/1/1
f 8/3/1 6/2/1 7/1/1
f 127/3/2 6/2/2 5/1/2
f 6/3/2 127/2/2 128/1/2
f 129/5/3 8/6/3 7/5/3
f 8/6/3 129/5/3 130/106/3
f 129/5/4 127/5/4 130/107/4
f 127/5/4 129/5/4 128/108/4
f 127/5/5 8/9/5 130/109/5
f 8/9/5 127/5/5 5/5/5
f 6/2/6 129/3/6 7/11/6
f 129/3/6 6/2/6 128/1/6
f 129/3/1 131/2/1 130/1/1
f 131/3/1 129/2/1 132/1/1
f 133/3/2 129/2/2 130/1/2
f 129/3/2 133/2/2 134/1/2
f 135/5/3 131/5/3 132/110/3
f 131/5/3 135/5/3 136/111/3
f 135/5/4 133/5/4 136/112/4
f 133/5/4 135/5/4 134/113/4
f 133/5/5 131/5/5 136/114/5
f 131/5/5 133/5/5 130/109/5
f 129/2/6 135/3/6 132/11/6
f 135/3/6 129/2/6 134/1/6
f 139/3/1 138/2/1 137/1/1
f 138/3/1 139/2/1 140/1/1
f 141/3/2 139/2/2 137/1/2
f 139/3/2 141/2/2 142/1/2
f 143/5/3 138/5/3 140/115/3
f 138/5/3 143/5/3 144/116/3
f 143/5/4 141/5/4 144/117/4
f 141/5/4 143/5/4 142/118/4
f 141/5/5 138/5/5 144/119/5
f 138/5/5 141/5/5 137/120/5
f 139/2/6 143/3/6 140/11/6
f 143/3/6 139/2/6 142/1/6
f 143/3/1 145/2/1 144/1/1
f 145/3/1 143/2/1 146/1/1
f 147/3/2 143/2/2 144/1/2
f 143/3/2 147/2/2 148/1/2
f 149/5/3 145/5/3 146/121/3
f 145/5/3 149/5/3 150/122/3
f 149/5/4 147/5/4 150/123/4
f 147/5/4 149/5/4 148/124/4
f 147/5/5 145/5/5 150/125/5
f 145/5/5 147/5/5 144/119/5
f 143/2/6 149/3/6 146/11/6
f 149/3/6 143/2/6 148/1/6
f 153/3/1 152/2/1 151/1/1
f 152/3/1 153/2/1 154/1/1
f 155/3/2 153/2/2 151/1/2
f 153/3/2 155/2/2 156/1/2
f 157/5/3 152/5/3 154/126/3
f 152/5/3 157/5/3 158/127/3
f 157/5/4 155/5/4 158/128/4
f 155/5/4 157/5/4 156/129/4
f 155/5/5 152/5/5 158/130/5
f 152/5/5 155/5/5 151/131/5
f 153/2/6 157/3/6 154/11/6
f 157/3/6 153/2/6 156/1/6

usemtl color14

f 14/3/1 159/2/1 13/1/1
f 159/3/1 14/2/1 160/1/1
f 161/3/2 14/2/2 13/1/2
f 14/3/2 161/2/2 162/1/2
f 163/5/3 159/5/3 160/132/3
f 159/5/3 163/5/3 164/133/3
f 163/5/4 161/5/4 164/134/4
f 161/5/4 163/5/4 162/135/4
f 161/5/5 159/5/5 164/136/5
f 159/5/5 161/5/5 13/5/5
f 14/2/6 163/3/6 160/11/6
f 163/3/6 14/2/6 162/1/6
f 166/3/1 164/2/1 165/1/1
f 164/3/1 166/2/1 163/1/1
f 167/3/2 166/2/2 165/1/2
f 166/3/2 167/2/2 168/1/2
f 169/5/3 164/133/3 163/5/3
f 164/133/3 169/5/3 170/137/3
f 169/5/4 167/5/4 170/138/4
f 167/5/4 169/5/4 168/139/4
f 167/5/5 164/136/5 170/140/5
f 164/136/5 167/5/5 165/141/5
f 166/2/6 169/3/6 163/11/6
f 169/3/6 166/2/6 168/1/6
f 169/3/1 24/2/1 170/1/1
f 24/3/1 169/2/1 23/1/1
f 171/3/2 169/2/2 170/1/2
f 169/3/2 171/2/2 172/1/2
f 28/24/3 24/19/3 23/5/3
f 24/19/3 28/24/3 26/5/3
f 28/44/4 171/5/4 26/5/4
f 171/5/4 28/44/4 172/142/4
f 171/5/5 24/22/5 26/5/5
f 24/22/5 171/5/5 170/140/5
f 169/2/6 28/3/6 23/11/6
f 28/3/6 169/2/6 172/1/6
f 44/3/1 46/2/1 43/1/1
f 46/3/1 44/2/1 45/1/1
f 47/3/2 44/2/2 43/1/2
f 44/3/2 47/2/2 49/1/2
f 50/41/3 46/37/3 45/5/3
f 46/37/3 50/41/3 48/5/3
f 50/5/4 47/5/4 48/143/4
f 47/5/4 50/5/4 49/144/4
f 47/46/5 46/40/5 48/5/5
f 46/40/5 47/46/5 43/5/5
f 44/2/6 50/3/6 45/11/6
f 50/3/6 44/2/6 49/1/6
f 175/3/1 174/2/1 173/1/1
f 174/3/1 175/2/1 176/1/1
f 34/3/2 175/2/2 173/1/2
f 175/3/2 34/2/2 36/1/2
f 177/5/3 174/5/3 176/145/3
f 174/5/3 177/5/3 178/146/3
f 177/5/4 34/5/4 178/147/4
f 34/5/4 177/5/4 36/148/4
f 34/5/5 174/5/5 178/149/5
f 174/5/5 34/5/5 173/150/5
f 175/2/6 177/3/6 176/11/6
f 177/3/6 175/2/6 36/1/6
f 181/3/1 180/2/1 179/1/1
f 180/3/1 181/2/1 182/1/1
f 183/3/2 181/2/2 179/1/2
f 181/3/2 183/2/2 184/1/2
f 185/5/3 180/5/3 182/151/3
f 180/5/3 185/5/3 186/152/3
f 185/5/4 183/5/4 186/153/4
f 183/5/4 185/5/4 184/154/4
f 183/5/5 180/5/5 186/155/5
f 180/5/5 183/5/5 179/156/5
f 181/2/6 185/3/6 182/11/6
f 185/3/6 181/2/6 184/1/6
f 189/3/1 188/2/1 187/1/1
f 188/3/1 189/2/1 190/1/1
f 191/3/2 189/2/2 187/1/2
f 189/3/2 191/2/2 192/1/2
f 193/5/3 188/5/3 190/157/3
f 188/5/3 193/5/3 194/158/3
f 193/5/4 191/5/4 194/159/4
f 191/5/4 193/5/4 192/160/4
f 191/5/5 188/5/5 194/161/5
f 188/5/5 191/5/5 187/162/5
f 189/2/6 193/3/6 190/11/6
f 193/3/6 189/2/6 192/1/6
f 197/3/1 196/2/1 195/1/1
f 196/3/1 197/2/1 198/1/1
f 151/3/2 197/2/2 195/1/2
f 197/3/2 151/2/2 153/1/2
f 199/5/3 196/5/3 198/163/3
f 196/5/3 199/5/3 200/164/3
f 199/5/4 151/5/4 200/165/4
f 151/5/4 199/5/4 153/166/4
f 151/131/5 196/5/5 200/167/5
f 196/5/5 151/131/5 195/168/5
f 197/2/6 199/3/6 198/11/6
f 199/3/6 197/2/6 153/1/6
f 202/3/1 158/2/1 201/1/1
f 158/3/1 202/2/1 157/1/1
f 203/3/2 202/2/2 201/1/2
f 202/3/2 203/2/2 204/1/2
f 205/5/3 158/127/3 157/5/3
f 158/127/3 205/5/3 206/169/3
f 205/5/4 203/5/4 206/170/4
f 203/5/4 205/5/4 204/171/4
f 203/5/5 158/130/5 206/172/5
f 158/130/5 203/5/5 201/173/5
f 202/2/6 205/3/6 157/11/6
f 205/3/6 202/2/6 204/1/6
f 205/3/1 207/2/1 206/1/1
f 207/3/1 205/2/1 208/1/1
f 209/3/2 205/2/2 206/1/2
f 205/3/2 209/2/2 210/1/2
f 211/5/3 207/5/3 208/174/3
f 207/5/3 211/5/3 212/175/3
f 211/5/4 209/5/4 212/176/4
f 209/5/4 211/5/4 210/177/4
f 209/5/5 207/5/5 212/178/5
f 207/5/5 209/5/5 206/172/5
f 205/2/6 211/3/6 208/11/6
f 211/3/6 205/2/6 210/1/6
f 211/3/1 119/2/1 212/1/1
f 119/3/1 211/2/1 121/1/1
f 213/3/2 211/2/2 212/1/2
f 211/3/2 213/2/2 214/1/2
f 124/5/3 119/5/3 121/179/3
f 119/5/3 124/5/3 123/180/3
f 124/103/4 213/5/4 123/5/4
f 213/5/4 124/103/4 214/181/4
f 213/5/5 119/105/5 123/5/5
f 119/105/5 213/5/5 212/178/5
f 211/2/6 124/3/6 121/11/6
f 124/3/6 211/2/6 214/1/6
f 124/3/1 126/2/1 123/1/1
f 126/3/1 124/2/1 125/1/1
f 215/3/2 124/2/2 123/1/2
f 124/3/2 215/2/2 216/1/2
f 217/5/3 126/101/3 125/5/3
f 126/101/3 217/5/3 218/182/3
f 217/5/4 215/5/4 218/183/4
f 215/5/4 217/5/4 216/184/4
f 215/5/5 126/104/5 218/185/5
f 126/104/5 215/5/5 123/5/5
f 124/2/6 217/3/6 125/11/6
f 217/3/6 124/2/6 216/1/6

usemtl color16

f 221/3/1 220/2/1 219/1/1
f 220/3/1 221/2/1 222/1/1
f 223/3/2 221/2/2 219/1/2
f 221/3/2 223/2/2 224/1/2
f 225/5/3 220/5/3 222/186/3
f 220/5/3 225/5/3 226/187/3
f 225/5/4 223/5/4 226/188/4
f 223/5/4 225/5/4 224/189/4
f 223/5/5 220/5/5 226/190/5
f 220/5/5 223/5/5 219/191/5
f 221/2/6 225/3/6 222/11/6
f 225/3/6 221/2/6 224/1/6
f 229/3/1 228/2/1 227/1/1
f 228/3/1 229/2/1 230/1/1
f 231/3/2 229/2/2 227/1/2
f 229/3/2 231/2/2 232/1/2
f 233/5/3 228/5/3 230/192/3
f 228/5/3 233/5/3 234/193/3
f 233/5/4 231/5/4 234/194/4
f 231/5/4 233/5/4 232/195/4
f 231/5/5 228/5/5 234/196/5
f 228/5/5 231/5/5 227/197/5
f 229/2/6 233/3/6 230/11/6
f 233/3/6 229/2/6 232/1/6
f 237/3/1 236/2/1 235/1/1
f 236/3/1 237/2/1 238/1/1
f 228/3/2 237/2/2 235/1/2
f 237/3/2 228/2/2 230/1/2
f 239/5/3 236/5/3 238/198/3
f 236/5/3 239/5/3 240/199/3
f 239/5/4 228/5/4 240/200/4
f 228/5/4 239/5/4 230/201/4
f 228/5/5 236/5/5 240/202/5
f 236/5/5 228/5/5 235/203/5
f 237/2/6 239/3/6 238/11/6
f 239/3/6 237/2/6 230/1/6
f 42/3/1 241/2/1 41/1/1
f 241/3/1 42/2/1 242/1/1
f 48/3/2 42/2/2 41/1/2
f 42/3/2 48/2/2 50/1/2
f 243/5/3 241/5/3 242/204/3
f 241/5/3 243/5/3 244/205/3
f 243/5/4 48/143/4 244/206/4
f 48/143/4 243/5/4 50/5/4
f 48/5/5 241/5/5 244/207/5
f 241/5/5 48/5/5 41/5/5
f 42/2/6 243/3/6 242/11/6
f 243/3/6 42/2/6 50/1/6
f 182/3/1 245/2/1 180/1/1
f 245/3/1 182/2/1 246/1/1
f 186/3/2 182/2/2 180/1/2
f 182/3/2 186/2/2 185/1/2
f 247/5/3 245/5/3 246/208/3
f 245/5/3 247/5/3 248/209/3
f 247/5/4 186/153/4 248/210/4
f 186/153/4 247/5/4 185/5/4
f 186/155/5 245/5/5 248/211/5
f 245/5/5 186/155/5 180/5/5
f 182/2/6 247/3/6 246/11/6
f 247/3/6 182/2/6 185/1/6
f 251/3/1 250/2/1 249/1/1
f 250/3/1 251/2/1 252/1/1
f 253/3/2 251/2/2 249/1/2
f 251/3/2 253/2/2 254/1/2
f 255/5/3 250/5/3 252/212/3
f 250/5/3 255/5/3 256/213/3
f 255/5/4 253/5/4 256/214/4
f 253/5/4 255/5/4 254/215/4
f 253/5/5 250/5/5 256/216/5
f 250/5/5 253/5/5 249/217/5
f 251/2/6 255/3/6 252/11/6
f 255/3/6 251/2/6 254/1/6
f 259/3/1 258/2/1 257/1/1
f 258/3/1 259/2/1 260/1/1
f 261/3/2 259/2/2 257/1/2
f 259/3/2 261/2/2 262/1/2
f 263/5/3 258/5/3 260/218/3
f 258/5/3 263/5/3 264/219/3
f 263/5/4 261/5/4 264/220/4
f 261/5/4 263/5/4 262/221/4
f 261/5/5 258/5/5 264/222/5
f 258/5/5 261/5/5 257/223/5
f 259/2/6 263/3/6 260/11/6
f 263/3/6 259/2/6 262/1/6
f 267/3/1 266/2/1 265/1/1
f 266/3/1 267/2/1 268/1/1
f 269/3/2 267/2/2 265/1/2
f 267/3/2 269/2/2 270/1/2
f 271/5/3 266/5/3 268/224/3
f 266/5/3 271/5/3 272/225/3
f 271/5/4 269/5/4 272/226/4
f 269/5/4 271/5/4 270/227/4
f 269/5/5 266/5/5 272/228/5
f 266/5/5 269/5/5 265/229/5
f 267/2/6 271/3/6 268/11/6
f 271/3/6 267/2/6 270/1/6
f 86/3/1 273/2/1 85/1/1
f 273/3/1 86/2/1 274/1/1
f 89/3/2 86/2/2 85/1/2
f 86/3/2 89/2/2 91/1/2
f 275/5/3 273/5/3 274/230/3
f 273/5/3 275/5/3 276/231/3
f 275/5/4 89/5/4 276/232/4
f 89/5/4 275/5/4 91/233/4
f 89/82/5 273/5/5 276/234/5
f 273/5/5 89/82/5 85/5/5
f 86/2/6 275/3/6 274/11/6
f 275/3/6 86/2/6 91/1/6
f 94/3/1 277/2/1 93/1/1
f 277/3/1 94/2/1 278/1/1
f 97/3/2 94/2/2 93/1/2
f 94/3/2 97/2/2 99/1/2
f 279/5/3 277/5/3 278/235/3
f 277/5/3 279/5/3 280/236/3
f 279/5/4 97/5/4 280/237/4
f 97/5/4 279/5/4 99/238/4
f 97/88/5 277/5/5 280/239/5
f 277/5/5 97/88/5 93/5/5
f 94/2/6 279/3/6 278/11/6
f 279/3/6 94/2/6 99/1/6
f 102/3/1 281/2/1 101/1/1
f 281/3/1 102/2/1 282/1/1
f 105/3/2 102/2/2 101/1/2
f 102/3/2 105/2/2 107/1/2
f 108/89/3 281/5/3 282/240/3
f 281/5/3 108/89/3 106/5/3
f 108/5/4 105/5/4 106/241/4
f 105/5/4 108/5/4 107/242/4
f 105/94/5 281/5/5 106/5/5
f 281/5/5 105/94/5 101/5/5
f 102/2/6 108/3/6 282/11/6
f 108/3/6 102/2/6 107/1/6
f 84/3/1 283/2/1 82/1/1
f 283/3/1 84/2/1 284/1/1
f 88/3/2 84/2/2 82/1/2
f 84/3/2 88/2/2 87/1/2
f 274/230/3 283/5/3 284/243/3
f 283/5/3 274/230/3 273/5/3
f 274/5/4 88/73/4 273/244/4
f 88/73/4 274/5/4 87/5/4
f 88/75/5 283/5/5 273/5/5
f 283/5/5 88/75/5 82/5/5
f 84/2/6 274/3/6 284/11/6
f 274/3/6 84/2/6 87/1/6

usemtl color20

f 168/3/1 170/2/1 167/1/1
f 170/3/1 168/2/1 169/1/1
f 285/3/2 168/2/2 167/1/2
f 168/3/2 285/2/2 286/1/2
f 287/5/3 170/137/3 169/5/3
f 170/137/3 287/5/3 288/245/3
f 287/5/4 285/5/4 288/246/4
f 285/5/4 287/5/4 286/247/4
f 285/5/5 170/140/5 288/248/5
f 170/140/5 285/5/5 167/5/5
f 168/2/6 287/3/6 169/11/6
f 287/3/6 168/2/6 286/1/6
f 135/3/1 289/2/1 136/1/1
f 289/3/1 135/2/1 290/1/1
f 137/3/2 135/2/2 136/1/2
f 135/3/2 137/2/2 139/1/2
f 140/115/3 289/5/3 290/249/3
f 289/5/3 140/115/3 138/5/3
f 140/5/4 137/5/4 138/250/4
f 137/5/4 140/5/4 139/251/4
f 137/120/5 289/5/5 138/5/5
f 289/5/5 137/120/5 136/114/5
f 135/2/6 140/3/6 290/11/6
f 140/3/6 135/2/6 139/1/6
f 293/3/1 292/2/1 291/1/1
f 292/3/1 293/2/1 294/1/1
f 170/3/2 293/2/2 291/1/2
f 293/3/2 170/2/2 169/1/2
f 22/5/3 292/5/3 294/252/3
f 292/5/3 22/5/3 21/253/3
f 22/21/4 170/138/4 21/5/4
f 170/138/4 22/21/4 169/5/4
f 170/140/5 292/5/5 21/5/5
f 292/5/5 170/140/5 291/254/5
f 293/2/6 22/3/6 294/11/6
f 22/3/6 293/2/6 169/1/6
f 72/3/1 74/2/1 71/1/1
f 74/3/1 72/2/1 73/1/1
f 295/3/2 72/2/2 71/1/2
f 72/3/2 295/2/2 296/1/2
f 297/5/3 74/60/3 73/5/3
f 74/60/3 297/5/3 298/255/3
f 297/5/4 295/5/4 298/256/4
f 295/5/4 297/5/4 296/257/4
f 295/5/5 74/63/5 298/258/5
f 74/63/5 295/5/5 71/5/5
f 72/2/6 297/3/6 73/11/6
f 297/3/6 72/2/6 296/1/6
f 301/3/1 300/2/1 299/1/1
f 300/3/1 301/2/1 302/1/1
f 303/3/2 301/2/2 299/1/2
f 301/3/2 303/2/2 304/1/2
f 305/5/3 300/5/3 302/259/3
f 300/5/3 305/5/3 306/260/3
f 305/5/4 303/5/4 306/261/4
f 303/5/4 305/5/4 304/262/4
f 303/5/5 300/5/5 306/263/5
f 300/5/5 303/5/5 299/264/5
f 301/2/6 305/3/6 302/11/6
f 305/3/6 301/2/6 304/1/6

usemtl color18

f 225/3/1 307/2/1 226/1/1
f 307/3/1 225/2/1 308/1/1
f 309/3/2 225/2/2 226/1/2
f 225/3/2 309/2/2 310/1/2
f 311/5/3 307/5/3 308/265/3
f 307/5/3 311/5/3 312/266/3
f 311/5/4 309/5/4 312/267/4
f 309/5/4 311/5/4 310/268/4
f 309/5/5 307/5/5 312/269/5
f 307/5/5 309/5/5 226/190/5
f 225/2/6 311/3/6 308/11/6
f 311/3/6 225/2/6 310/1/6
f 315/3/1 314/2/1 313/1/1
f 314/3/1 315/2/1 316/1/1
f 317/3/2 315/2/2 313/1/2
f 315/3/2 317/2/2 318/1/2
f 319/5/3 314/5/3 316/270/3
f 314/5/3 319/5/3 320/271/3
f 319/5/4 317/5/4 320/272/4
f 317/5/4 319/5/4 318/273/4
f 317/5/5 314/5/5 320/274/5
f 314/5/5 317/5/5 313/275/5
f 315/2/6 319/3/6 316/11/6
f 319/3/6 315/2/6 318/1/6
f 323/3/1 322/2/1 321/1/1
f 322/3/1 323/2/1 324/1/1
f 325/3/2 323/2/2 321/1/2
f 323/3/2 325/2/2 326/1/2
f 327/5/3 322/5/3 324/276/3
f 322/5/3 327/5/3 328/277/3
f 327/5/4 325/5/4 328/278/4
f 325/5/4 327/5/4 326/279/4
f 325/5/5 322/5/5 328/280/5
f 322/5/5 325/5/5 321/281/5
f 323/2/6 327/3/6 324/11/6
f 327/3/6 323/2/6 326/1/6
f 331/3/1 330/2/1 329/1/1
f 330/3/1 331/2/1 332/1/1
f 333/3/2 331/2/2 329/1/2
f 331/3/2 333/2/2 334/1/2
f 335/5/3 330/5/3 332/282/3
f 330/5/3 335/5/3 336/283/3
f 335/5/4 333/5/4 336/284/4
f 333/5/4 335/5/4 334/285/4
f 333/5/5 330/5/5 336/286/5
f 330/5/5 333/5/5 329/287/5
f 331/2/6 335/3/6 332/11/6
f 335/3/6 331/2/6 334/1/6
f 339/3/1 338/2/1 337/1/1
f 338/3/1 339/2/1 340/1/1
f 341/3/2 339/2/2 337/1/2
f 339/3/2 341/2/2 342/1/2
f 343/5/3 338/5/3 340/288/3
f 338/5/3 343/5/3 344/289/3
f 343/5/4 341/5/4 344/290/4
f 341/5/4 343/5/4 342/291/4
f 341/5/5 338/5/5 344/292/5
f 338/5/5 341/5/5 337/293/5
f 339/2/6 343/3/6 340/11/6
f 343/3/6 339/2/6 342/1/6
f 347/3/1 346/2/1 345/1/1
f 346/3/1 347/2/1 348/1/1
f 349/3/2 347/2/2 345/1/2
f 347/3/2 349/2/2 350/1/2
f 351/5/3 346/5/3 348/294/3
f 346/5/3 351/5/3 352/295/3
f 351/5/4 349/5/4 352/296/4
f 349/5/4 351/5/4 350/297/4
f 349/5/5 346/5/5 352/298/5
f 346/5/5 349/5/5 345/299/5
f 347/2/6 351/3/6 348/11/6
f 351/3/6 347/2/6 350/1/6
f 355/3/1 354/2/1 353/1/1
f 354/3/1 355/2/1 356/1/1
f 322/3/2 355/2/2 353/1/2
f 355/3/2 322/2/2 324/1/2
f 357/5/3 354/5/3 356/300/3
f 354/5/3 357/5/3 358/301/3
f 357/5/4 322/5/4 358/302/4
f 322/5/4 357/5/4 324/303/4
f 322/5/5 354/5/5 358/304/5
f 354/5/5 322/5/5 353/305/5
f 355/2/6 357/3/6 356/11/6
f 357/3/6 355/2/6 324/1/6
f 361/3/1 360/2/1 359/1/1
f 360/3/1 361/2/1 362/1/1
f 363/3/2 361/2/2 359/1/2
f 361/3/2 363/2/2 364/1/2
f 365/5/3 360/5/3 362/306/3
f 360/5/3 365/5/3 366/307/3
f 365/5/4 363/5/4 366/308/4
f 363/5/4 365/5/4 364/309/4
f 363/5/5 360/5/5 366/310/5
f 360/5/5 363/5/5 359/311/5
f 361/2/6 365/3/6 362/11/6
f 365/3/6 361/2/6 364/1/6
f 369/3/1 368/2/1 367/1/1
f 368/3/1 369/2/1 370/1/1
f 371/3/2 369/2/2 367/1/2
f 369/3/2 371/2/2 372/1/2
f 373/5/3 368/5/3 370/312/3
f 368/5/3 373/5/3 374/313/3
f 373/5/4 371/5/4 374/314/4
f 371/5/4 373/5/4 372/315/4
f 371/5/5 368/5/5 374/316/5
f 368/5/5 371/5/5 367/317/5
f 369/2/6 373/3/6 370/11/6
f 373/3/6 369/2/6 372/1/6
f 377/3/1 376/2/1 375/1/1
f 376/3/1 377/2/1 378/1/1
f 354/3/2 377/2/2 375/1/2
f 377/3/2 354/2/2 356/1/2
f 379/5/3 376/5/3 378/318/3
f 376/5/3 379/5/3 380/319/3
f 379/5/4 354/5/4 380/320/4
f 354/5/4 379/5/4 356/321/4
f 354/5/5 376/5/5 380/322/5
f 376/5/5 354/5/5 375/323/5
f 377/2/6 379/3/6 378/11/6
f 379/3/6 377/2/6 356/1/6
f 383/3/1 382/2/1 381/1/1
f 382/3/1 383/2/1 384/1/1
f 360/3/2 383/2/2 381/1/2
f 383/3/2 360/2/2 362/1/2
f 385/5/3 382/5/3 384/324/3
f 382/5/3 385/5/3 386/325/3
f 385/5/4 360/5/4 386/326/4
f 360/5/4 385/5/4 362/327/4
f 360/5/5 382/5/5 386/328/5
f 382/5/5 360/5/5 381/329/5
f 383/2/6 385/3/6 384/11/6
f 385/3/6 383/2/6 362/1/6
f 389/3/1 388/2/1 387/1/1
f 388/3/1 389/2/1 390/1/1
f 391/3/2 389/2/2 387/1/2
f 389/3/2 391/2/2 392/1/2
f 393/5/3 388/5/3 390/330/3
f 388/5/3 393/5/3 394/331/3
f 393/5/4 391/5/4 394/332/4
f 391/5/4 393/5/4 392/333/4
f 391/5/5 388/5/5 394/334/5
f 388/5/5 391/5/5 387/335/5
f 389/2/6 393/3/6 390/11/6
f 393/3/6 389/2/6 392/1/6
f 397/3/1 396/2/1 395/1/1
f 396/3/1 397/2/1 398/1/1
f 399/3/2 397/2/2 395/1/2
f 397/3/2 399/2/2 400/1/2
f 401/5/3 396/5/3 398/336/3
f 396/5/3 401/5/3 402/337/3
f 401/5/4 399/5/4 402/338/4
f 399/5/4 401/5/4 400/339/4
f 399/5/5 396/5/5 402/340/5
f 396/5/5 399/5/5 395/341/5
f 397/2/6 401/3/6 398/11/6
f 401/3/6 397/2/6 400/1/6
f 405/3/1 404/2/1 403/1/1
f 404/3/1 405/2/1 406/1/1
f 407/3/2 405/2/2 403/1/2
f 405/3/2 407/2/2 408/1/2
f 370/312/3 404/5/3 406/342/3
f 404/5/3 370/312/3 368/5/3
f 370/5/4 407/5/4 368/343/4
f 407/5/4 370/5/4 408/344/4
f 407/5/5 404/5/5 368/5/5
f 404/5/5 407/5/5 403/345/5
f 405/2/6 370/3/6 406/11/6
f 370/3/6 405/2/6 408/1/6
f 411/3/1 410/2/1 409/1/1
f 410/3/1 411/2/1 412/1/1
f 413/3/2 411/2/2 409/1/2
f 411/3/2 413/2/2 414/1/2
f 415/5/3 410/5/3 412/346/3
f 410/5/3 415/5/3 416/347/3
f 415/5/4 413/5/4 416/348/4
f 413/5/4 415/5/4 414/349/4
f 413/5/5 410/5/5 416/350/5
f 410/5/5 413/5/5 409/351/5
f 411/2/6 415/3/6 412/11/6
f 415/3/6 411/2/6 414/1/6
f 419/3/1 418/2/1 417/1/1
f 418/3/1 419/2/1 420/1/1
f 421/3/2 419/2/2 417/1/2
f 419/3/2 421/2/2 422/1/2
f 423/5/3 418/5/3 420/352/3
f 418/5/3 423/5/3 424/353/3
f 423/5/4 421/5/4 424/354/4
f 421/5/4 423/5/4 422/355/4
f 421/5/5 418/5/5 424/356/5
f 418/5/5 421/5/5 417/357/5
f 419/2/6 423/3/6 420/11/6
f 423/3/6 419/2/6 422/1/6

usemtl color10

f 311/3/1 33/2/1 312/1/1
f 33/3/1 311/2/1 35/1/1
f 425/3/2 311/2/2 312/1/2
f 311/3/2 425/2/2 426/1/2
f 38/5/3 33/5/3 35/358/3
f 33/5/3 38/5/3 37/359/3
f 38/33/4 425/5/4 37/5/4
f 425/5/4 38/33/4 426/360/4
f 425/5/5 33/35/5 37/5/5
f 33/35/5 425/5/5 312/269/5
f 311/2/6 38/3/6 35/11/6
f 38/3/6 311/2/6 426/1/6
f 429/3/1 428/2/1 427/1/1
f 428/3/1 429/2/1 430/1/1
f 431/3/2 429/2/2 427/1/2
f 429/3/2 431/2/2 432/1/2
f 433/5/3 428/5/3 430/361/3
f 428/5/3 433/5/3 434/362/3
f 433/5/4 431/5/4 434/363/4
f 431/5/4 433/5/4 432/364/4
f 431/5/5 428/5/5 434/365/5
f 428/5/5 431/5/5 427/366/5
f 429/2/6 433/3/6 430/11/6
f 433/3/6 429/2/6 432/1/6
f 437/3/1 436/2/1 435/1/1
f 436/3/1 437/2/1 438/1/1
f 439/3/2 437/2/2 435/1/2
f 437/3/2 439/2/2 440/1/2
f 441/5/3 436/5/3 438/367/3
f 436/5/3 441/5/3 442/368/3
f 441/5/4 439/5/4 442/369/4
f 439/5/4 441/5/4 440/370/4
f 439/5/5 436/5/5 442/371/5
f 436/5/5 439/5/5 435/372/5
f 437/2/6 441/3/6 438/11/6
f 441/3/6 437/2/6 440/1/6
f 445/3/1 444/2/1 443/1/1
f 444/3/1 445/2/1 446/1/1
f 447/3/2 445/2/2 443/1/2
f 445/3/2 447/2/2 448/1/2
f 449/5/3 444/5/3 446/373/3
f 444/5/3 449/5/3 450/374/3
f 449/5/4 447/5/4 450/375/4
f 447/5/4 449/5/4 448/376/4
f 447/5/5 444/5/5 450/377/5
f 444/5/5 447/5/5 443/378/5
f 445/2/6 449/3/6 446/11/6
f 449/3/6 445/2/6 448/1/6
f 448/3/1 451/2/1 447/1/1
f 451/3/1 448/2/1 452/1/1
f 453/3/2 448/2/2 447/1/2
f 448/3/2 453/2/2 454/1/2
f 455/5/3 451/5/3 452/379/3
f 451/5/3 455/5/3 456/380/3
f 455/5/4 453/5/4 456/381/4
f 453/5/4 455/5/4 454/382/4
f 453/5/5 451/5/5 456/383/5
f 451/5/5 453/5/5 447/5/5
f 448/2/6 455/3/6 452/11/6
f 455/3/6 448/2/6 454/1/6
f 36/3/1 178/2/1 34/1/1
f 178/3/1 36/2/1 177/1/1
f 40/3/2 36/2/2 34/1/2
f 36/3/2 40/2/2 39/1/2
f 457/5/3 178/146/3 177/5/3
f 178/146/3 457/5/3 458/384/3
f 457/5/4 40/32/4 458/385/4
f 40/32/4 457/5/4 39/5/4
f 40/34/5 178/149/5 458/386/5
f 178/149/5 40/34/5 34/5/5
f 36/2/6 457/3/6 177/11/6
f 457/3/6 36/2/6 39/1/6
f 461/3/1 460/2/1 459/1/1
f 460/3/1 461/2/1 462/1/1
f 463/3/2 461/2/2 459/1/2
f 461/3/2 463/2/2 464/1/2
f 465/5/3 460/5/3 462/387/3
f 460/5/3 465/5/3 466/388/3
f 465/5/4 463/5/4 466/389/4
f 463/5/4 465/5/4 464/390/4
f 463/5/5 460/5/5 466/391/5
f 460/5/5 463/5/5 459/392/5
f 461/2/6 465/3/6 462/11/6
f 465/3/6 461/2/6 464/1/6
f 464/3/1 467/2/1 463/1/1
f 467/3/1 464/2/1 468/1/1
f 469/3/2 464/2/2 463/1/2
f 464/3/2 469/2/2 470/1/2
f 471/5/3 467/5/3 468/393/3
f 467/5/3 471/5/3 472/394/3
f 471/5/4 469/5/4 472/395/4
f 469/5/4 471/5/4 470/396/4
f 469/5/5 467/5/5 472/397/5
f 467/5/5 469/5/5 463/5/5
f 464/2/6 471/3/6 468/11/6
f 471/3/6 464/2/6 470/1/6
f 475/3/1 474/2/1 473/1/1
f 474/3/1 475/2/1 476/1/1
f 337/3/2 475/2/2 473/1/2
f 475/3/2 337/2/2 339/1/2
f 477/5/3 474/5/3 476/398/3
f 474/5/3 477/5/3 478/399/3
f 477/5/4 337/5/4 478/400/4
f 337/5/4 477/5/4 339/401/4
f 337/293/5 474/5/5 478/402/5
f 474/5/5 337/293/5 473/403/5
f 475/2/6 477/3/6 476/11/6
f 477/3/6 475/2/6 339/1/6
f 481/3/1 480/2/1 479/1/1
f 480/3/1 481/2/1 482/1/1
f 483/3/2 481/2/2 479/1/2
f 481/3/2 483/2/2 484/1/2
f 446/373/3 480/5/3 482/404/3
f 480/5/3 446/373/3 444/5/3
f 446/5/4 483/5/4 444/405/4
f 483/5/4 446/5/4 484/406/4
f 483/5/5 480/5/5 444/5/5
f 480/5/5 483/5/5 479/407/5
f 481/2/6 446/3/6 482/11/6
f 446/3/6 481/2/6 484/1/6
f 176/3/1 485/2/1 174/1/1
f 485/3/1 176/2/1 486/1/1
f 178/3/2 176/2/2 174/1/2
f 176/3/2 178/2/2 177/1/2
f 487/5/3 485/5/3 486/408/3
f 485/5/3 487/5/3 488/409/3
f 487/5/4 178/147/4 488/410/4
f 178/147/4 487/5/4 177/5/4
f 178/149/5 485/5/5 488/411/5
f 485/5/5 178/149/5 174/5/5
f 176/2/6 487/3/6 486/11/6
f 487/3/6 176/2/6 177/1/6
f 491/3/1 490/2/1 489/1/1
f 490/3/1 491/2/1 492/1/1
f 493/3/2 491/2/2 489/1/2
f 491/3/2 493/2/2 494/1/2
f 495/5/3 490/5/3 492/412/3
f 490/5/3 495/5/3 496/413/3
f 495/5/4 493/5/4 496/414/4
f 493/5/4 495/5/4 494/415/4
f 493/5/5 490/5/5 496/416/5
f 490/5/5 493/5/5 489/417/5
f 491/2/6 495/3/6 492/11/6
f 495/3/6 491/2/6 494/1/6
f 499/3/1 498/2/1 497/1/1
f 498/3/1 499/2/1 500/1/1
f 472/3/2 499/2/2 497/1/2
f 499/3/2 472/2/2 471/1/2
f 501/5/3 498/5/3 500/418/3
f 498/5/3 501/5/3 502/419/3
f 501/5/4 472/395/4 502/420/4
f 472/395/4 501/5/4 471/5/4
f 472/397/5 498/5/5 502/421/5
f 498/5/5 472/397/5 497/422/5
f 499/2/6 501/3/6 500/11/6
f 501/3/6 499/2/6 471/1/6
f 505/3/1 504/2/1 503/1/1
f 504/3/1 505/2/1 506/1/1
f 507/3/2 505/2/2 503/1/2
f 505/3/2 507/2/2 508/1/2
f 438/367/3 504/5/3 506/423/3
f 504/5/3 438/367/3 436/5/3
f 438/5/4 507/5/4 436/424/4
f 507/5/4 438/5/4 508/425/4
f 507/5/5 504/5/5 436/5/5
f 504/5/5 507/5/5 503/426/5
f 505/2/6 438/3/6 506/11/6
f 438/3/6 505/2/6 508/1/6
f 510/3/1 442/2/1 509/1/1
f 442/3/1 510/2/1 441/1/1
f 511/3/2 510/2/2 509/1/2
f 510/3/2 511/2/2 512/1/2
f 476/398/3 442/368/3 441/5/3
f 442/368/3 476/398/3 474/5/3
f 476/5/4 511/5/4 474/427/4
f 511/5/4 476/5/4 512/428/4
f 511/5/5 442/371/5 474/5/5
f 442/371/5 511/5/5 509/429/5
f 510/2/6 476/3/6 441/11/6
f 476/3/6 510/2/6 512/1/6
f 58/3/1 60/2/1 57/1/1
f 60/3/1 58/2/1 59/1/1
f 485/3/2 58/2/2 57/1/2
f 58/3/2 485/2/2 486/1/2
f 513/5/3 60/48/3 59/5/3
f 60/48/3 513/5/3 514/430/3
f 513/5/4 485/5/4 514/431/4
f 485/5/4 513/5/4 486/432/4
f 485/5/5 60/51/5 514/433/5
f 60/51/5 485/5/5 57/5/5
f 58/2/6 513/3/6 59/11/6
f 513/3/6 58/2/6 486/1/6
f 465/3/1 515/2/1 466/1/1
f 515/3/1 465/2/1 516/1/1
f 498/3/2 465/2/2 466/1/2
f 465/3/2 498/2/2 500/1/2
f 517/5/3 515/5/3 516/434/3
f 515/5/3 517/5/3 518/435/3
f 517/5/4 498/5/4 518/436/4
f 498/5/4 517/5/4 500/437/4
f 498/5/5 515/5/5 518/438/5
f 515/5/5 498/5/5 466/391/5
f 465/2/6 517/3/6 516/11/6
f 517/3/6 465/2/6 500/1/6
f 521/3/1 520/2/1 519/1/1
f 520/3/1 521/2/1 522/1/1
f 523/3/2 521/2/2 519/1/2
f 521/3/2 523/2/2 524/1/2
f 525/5/3 520/5/3 522/439/3
f 520/5/3 525/5/3 526/440/3
f 525/5/4 523/5/4 526/441/4
f 523/5/4 525/5/4 524/442/4
f 523/5/5 520/5/5 526/443/5
f 520/5/5 523/5/5 519/444/5
f 521/2/6 525/3/6 522/11/6
f 525/3/6 521/2/6 524/1/6
f 529/3/1 528/2/1 527/1/1
f 528/3/1 529/2/1 530/1/1
f 531/3/2 529/2/2 527/1/2
f 529/3/2 531/2/2 532/1/2
f 533/5/3 528/5/3 530/445/3
f 528/5/3 533/5/3 534/446/3
f 533/5/4 531/5/4 534/447/4
f 531/5/4 533/5/4 532/448/4
f 531/5/5 528/5/5 534/449/5
f 528/5/5 531/5/5 527/450/5
f 529/2/6 533/3/6 530/11/6
f 533/3/6 529/2/6 532/1/6
f 537/3/1 536/2/1 535/1/1
f 536/3/1 537/2/1 538/1/1
f 539/3/2 537/2/2 535/1/2
f 537/3/2 539/2/2 540/1/2
f 541/5/3 536/5/3 538/451/3
f 536/5/3 541/5/3 542/452/3
f 541/5/4 539/5/4 542/453/4
f 539/5/4 541/5/4 540/454/4
f 539/5/5 536/5/5 542/455/5
f 536/5/5 539/5/5 535/456/5
f 537/2/6 541/3/6 538/11/6
f 541/3/6 537/2/6 540/1/6
f 545/3/1 544/2/1 543/1/1
f 544/3/1 545/2/1 546/1/1
f 547/3/2 545/2/2 543/1/2
f 545/3/2 547/2/2 548/1/2
f 549/5/3 544/5/3 546/457/3
f 544/5/3 549/5/3 550/458/3
f 549/5/4 547/5/4 550/459/4
f 547/5/4 549/5/4 548/460/4
f 547/5/5 544/5/5 550/461/5
f 544/5/5 547/5/5 543/462/5
f 545/2/6 549/3/6 546/11/6
f 549/3/6 545/2/6 548/1/6
f 495/3/1 551/2/1 496/1/1
f 551/3/1 495/2/1 552/1/1
f 515/3/2 495/2/2 496/1/2
f 495/3/2 515/2/2 516/1/2
f 553/5/3 551/5/3 552/463/3
f 551/5/3 553/5/3 554/464/3
f 553/5/4 515/5/4 554/465/4
f 515/5/4 553/5/4 516/466/4
f 515/5/5 551/5/5 554/467/5
f 551/5/5 515/5/5 496/416/5
f 495/2/6 553/3/6 552/11/6
f 553/3/6 495/2/6 516/1/6
f 557/3/1 556/2/1 555/1/1
f 556/3/1 557/2/1 558/1/1
f 559/3/2 557/2/2 555/1/2
f 557/3/2 559/2/2 560/1/2
f 561/5/3 556/5/3 558/468/3
f 556/5/3 561/5/3 562/469/3
f 561/5/4 559/5/4 562/470/4
f 559/5/4 561/5/4 560/471/4
f 559/5/5 556/5/5 562/472/5
f 556/5/5 559/5/5 555/473/5
f 557/2/6 561/3/6 558/11/6
f 561/3/6 557/2/6 560/1/6
f 565/3/1 564/2/1 563/1/1
f 564/3/1 565/2/1 566/1/1
f 567/3/2 565/2/2 563/1/2
f 565/3/2 567/2/2 568/1/2
f 569/5/3 564/5/3 566/474/3
f 564/5/3 569/5/3 570/475/3
f 569/5/4 567/5/4 570/476/4
f 567/5/4 569/5/4 568/477/4
f 567/5/5 564/5/5 570/478/5
f 564/5/5 567/5/5 563/479/5
f 565/2/6 569/3/6 566/11/6
f 569/3/6 565/2/6 568/1/6
f 573/3/1 572/2/1 571/1/1
f 572/3/1 573/2/1 574/1/1
f 575/3/2 573/2/2 571/1/2
f 573/3/2 575/2/2 576/1/2
f 577/5/3 572/5/3 574/480/3
f 572/5/3 577/5/3 578/481/3
f 577/5/4 575/5/4 578/482/4
f 575/5/4 577/5/4 576/483/4
f 575/5/5 572/5/5 578/484/5
f 572/5/5 575/5/5 571/485/5
f 573/2/6 577/3/6 574/11/6
f 577/3/6 573/2/6 576/1/6
f 581/3/1 580/2/1 579/1/1
f 580/3/1 581/2/1 582/1/1
f 583/3/2 581/2/2 579/1/2
f 581/3/2 583/2/2 584/1/2
f 585/5/3 580/5/3 582/486/3
f 580/5/3 585/5/3 586/487/3
f 585/5/4 583/5/4 586/488/4
f 583/5/4 585/5/4 584/489/4
f 583/5/5 580/5/5 586/490/5
f 580/5/5 583/5/5 579/491/5
f 581/2/6 585/3/6 582/11/6
f 585/3/6 581/2/6 584/1/6
f 553/3/1 587/2/1 554/1/1
f 587/3/1 553/2/1 588/1/1
f 589/3/2 553/2/2 554/1/2
f 553/3/2 589/2/2 590/1/2
f 591/5/3 587/5/3 588/492/3
f 587/5/3 591/5/3 592/493/3
f 591/5/4 589/5/4 592/494/4
f 589/5/4 591/5/4 590/495/4
f 589/5/5 587/5/5 592/496/5
f 587/5/5 589/5/5 554/467/5
f 553/2/6 591/3/6 588/11/6
f 591/3/6 553/2/6 590/1/6
f 590/3/1 593/2/1 589/1/1
f 593/3/1 590/2/1 594/1/1
f 595/3/2 590/2/2 589/1/2
f 590/3/2 595/2/2 596/1/2
f 597/5/3 593/5/3 594/497/3
f 593/5/3 597/5/3 598/498/3
f 597/5/4 595/5/4 598/499/4
f 595/5/4 597/5/4 596/500/4
f 595/5/5 593/5/5 598/501/5
f 593/5/5 595/5/5 589/5/5
f 590/2/6 597/3/6 594/11/6
f 597/3/6 590/2/6 596/1/6
f 601/3/1 600/2/1 599/1/1
f 600/3/1 601/2/1 602/1/1
f 603/3/2 601/2/2 599/1/2
f 601/3/2 603/2/2 604/1/2
f 605/5/3 600/5/3 602/502/3
f 600/5/3 605/5/3 606/503/3
f 605/5/4 603/5/4 606/504/4
f 603/5/4 605/5/4 604/505/4
f 603/5/5 600/5/5 606/506/5
f 600/5/5 603/5/5 599/507/5
f 601/2/6 605/3/6 602/11/6
f 605/3/6 601/2/6 604/1/6
f 609/3/1 608/2/1 607/1/1
f 608/3/1 609/2/1 610/1/1
f 611/3/2 609/2/2 607/1/2
f 609/3/2 611/2/2 612/1/2
f 613/5/3 608/5/3 610/508/3
f 608/5/3 613/5/3 614/509/3
f 613/5/4 611/5/4 614/510/4
f 611/5/4 613/5/4 612/511/4
f 611/5/5 608/5/5 614/512/5
f 608/5/5 611/5/5 607/513/5
f 609/2/6 613/3/6 610/11/6
f 613/3/6 609/2/6 612/1/6
f 617/3/1 616/2/1 615/1/1
f 616/3/1 617/2/1 618/1/1
f 619/3/2 617/2/2 615/1/2
f 617/3/2 619/2/2 620/1/2
f 621/5/3 616/5/3 618/514/3
f 616/5/3 621/5/3 622/515/3
f 621/5/4 619/5/4 622/516/4
f 619/5/4 621/5/4 620/517/4
f 619/5/5 616/5/5 622/518/5
f 616/5/5 619/5/5 615/519/5
f 617/2/6 621/3/6 618/11/6
f 621/3/6 617/2/6 620/1/6
f 625/3/1 624/2/1 623/1/1
f 624/3/1 625/2/1 626/1/1
f 627/3/2 625/2/2 623/1/2
f 625/3/2 627/2/2 628/1/2
f 629/5/3 624/5/3 626/520/3
f 624/5/3 629/5/3 630/521/3
f 629/5/4 627/5/4 630/522/4
f 627/5/4 629/5/4 628/523/4
f 627/5/5 624/5/5 630/524/5
f 624/5/5 627/5/5 623/525/5
f 625/2/6 629/3/6 626/11/6
f 629/3/6 625/2/6 628/1/6
f 605/3/1 631/2/1 606/1/1
f 631/3/1 605/2/1 632/1/1
f 633/3/2 605/2/2 606/1/2
f 605/3/2 633/2/2 634/1/2
f 635/5/3 631/5/3 632/526/3
f 631/5/3 635/5/3 636/527/3
f 635/5/4 633/5/4 636/528/4
f 633/5/4 635/5/4 634/529/4
f 633/5/5 631/5/5 636/530/5
f 631/5/5 633/5/5 606/506/5
f 605/2/6 635/3/6 632/11/6
f 635/3/6 605/2/6 634/1/6
f 639/3/1 638/2/1 637/1/1
f 638/3/1 639/2/1 640/1/1
f 641/3/2 639/2/2 637/1/2
f 639/3/2 641/2/2 642/1/2
f 618/514/3 638/5/3 640/531/3
f 638/5/3 618/514/3 616/5/3
f 618/5/4 641/5/4 616/532/4
f 641/5/4 618/5/4 642/533/4
f 641/5/5 638/5/5 616/5/5
f 638/5/5 641/5/5 637/534/5
f 639/2/6 618/3/6 640/11/6
f 618/3/6 639/2/6 642/1/6
f 629/3/1 643/2/1 630/1/1
f 643/3/1 629/2/1 644/1/1
f 587/3/2 629/2/2 630/1/2
f 629/3/2 587/2/2 588/1/2
f 645/5/3 643/5/3 644/535/3
f 643/5/3 645/5/3 646/536/3
f 645/5/4 587/5/4 646/537/4
f 587/5/4 645/5/4 588/538/4
f 587/5/5 643/5/5 646/539/5
f 643/5/5 587/5/5 630/524/5
f 629/2/6 645/3/6 644/11/6
f 645/3/6 629/2/6 588/1/6
f 635/3/1 647/2/1 636/1/1
f 647/3/1 635/2/1 648/1/1
f 649/3/2 635/2/2 636/1/2
f 635/3/2 649/2/2 650/1/2
f 651/5/3 647/5/3 648/540/3
f 647/5/3 651/5/3 652/541/3
f 651/5/4 649/5/4 652/542/4
f 649/5/4 651/5/4 650/543/4
f 649/5/5 647/5/5 652/544/5
f 647/5/5 649/5/5 636/530/5
f 635/2/6 651/3/6 648/11/6
f 651/3/6 635/2/6 650/1/6
f 655/3/1 654/2/1 653/1/1
f 654/3/1 655/2/1 656/1/1
f 657/3/2 655/2/2 653/1/2
f 655/3/2 657/2/2 658/1/2
f 659/5/3 654/5/3 656/545/3
f 654/5/3 659/5/3 660/546/3
f 659/5/4 657/5/4 660/547/4
f 657/5/4 659/5/4 658/548/4
f 657/5/5 654/5/5 660/549/5
f 654/5/5 657/5/5 653/550/5
f 655/2/6 659/3/6 656/11/6
f 659/3/6 655/2/6 658/1/6
f 663/3/1 662/2/1 661/1/1
f 662/3/1 663/2/1 664/1/1
f 665/3/2 663/2/2 661/1/2
f 663/3/2 665/2/2 666/1/2
f 667/5/3 662/5/3 664/551/3
f 662/5/3 667/5/3 668/552/3
f 667/5/4 665/5/4 668/553/4
f 665/5/4 667/5/4 666/554/4
f 665/5/5 662/5/5 668/555/5
f 662/5/5 665/5/5 661/556/5
f 663/2/6 667/3/6 664/11/6
f 667/3/6 663/2/6 666/1/6
f 671/3/1 670/2/1 669/1/1
f 670/3/1 671/2/1 672/1/1
f 673/3/2 671/2/2 669/1/2
f 671/3/2 673/2/2 674/1/2
f 675/5/3 670/5/3 672/557/3
f 670/5/3 675/5/3 676/558/3
f 675/5/4 673/5/4 676/559/4
f 673/5/4 675/5/4 674/560/4
f 673/5/5 670/5/5 676/561/5
f 670/5/5 673/5/5 669/562/5
f 671/2/6 675/3/6 672/11/6
f 675/3/6 671/2/6 674/1/6
f 448/3/1 451/2/1 447/1/1
f 451/3/1 448/2/1 452/1/1
f 453/3/2 448/2/2 447/1/2
f 448/3/2 453/2/2 454/1/2
f 455/5/3 451/5/3 452/379/3
f 451/5/3 455/5/3 456/380/3
f 455/5/4 453/5/4 456/381/4
f 453/5/4 455/5/4 454/382/4
f 453/5/5 451/5/5 456/383/5
f 451/5/5 453/5/5 447/5/5
f 448/2/6 455/3/6 452/11/6
f 455/3/6 448/2/6 454/1/6
f 464/3/1 467/2/1 463/1/1
f 467/3/1 464/2/1 468/1/1
f 469/3/2 464/2/2 463/1/2
f 464/3/2 469/2/2 470/1/2
f 471/5/3 467/5/3 468/393/3
f 467/5/3 471/5/3 472/394/3
f 471/5/4 469/5/4 472/395/4
f 469/5/4 471/5/4 470/396/4
f 469/5/5 467/5/5 472/397/5
f 467/5/5 469/5/5 463/5/5
f 464/2/6 471/3/6 468/11/6
f 471/3/6 464/2/6 470/1/6
f 590/3/1 593/2/1 589/1/1
f 593/3/1 590/2/1 594/1/1
f 595/3/2 590/2/2 589/1/2
f 590/3/2 595/2/2 596/1/2
f 597/5/3 593/5/3 594/497/3
f 593/5/3 597/5/3 598/498/3
f 597/5/4 595/5/4 598/499/4
f 595/5/4 597/5/4 596/500/4
f 595/5/5 593/5/5 598/501/5
f 593/5/5 595/5/5 589/5/5
f 590/2/6 597/3/6 594/11/6
f 597/3/6 590/2/6 596/1/6

usemtl color11

f 30/3/1 32/2/1 29/1/1
f 32/3/1 30/2/1 31/1/1
f 677/3/2 30/2/2 29/1/2
f 30/3/2 677/2/2 678/1/2
f 679/5/3 32/25/3 31/5/3
f 32/25/3 679/5/3 680/563/3
f 679/5/4 677/5/4 680/564/4
f 677/5/4 679/5/4 678/565/4
f 677/5/5 32/28/5 680/566/5
f 32/28/5 677/5/5 29/5/5
f 30/2/6 679/3/6 31/11/6
f 679/3/6 30/2/6 678/1/6
f 432/3/1 434/2/1 431/1/1
f 434/3/1 432/2/1 433/1/1
f 681/3/2 432/2/2 431/1/2
f 432/3/2 681/2/2 682/1/2
f 683/5/3 434/362/3 433/5/3
f 434/362/3 683/5/3 684/567/3
f 683/5/4 681/5/4 684/568/4
f 681/5/4 683/5/4 682/569/4
f 681/5/5 434/365/5 684/570/5
f 434/365/5 681/5/5 431/5/5
f 432/2/6 683/3/6 433/11/6
f 683/3/6 432/2/6 682/1/6
f 686/3/1 459/2/1 685/1/1
f 459/3/1 686/2/1 461/1/1
f 687/3/2 686/2/2 685/1/2
f 686/3/2 687/2/2 688/1/2
f 470/5/3 459/5/3 461/571/3
f 459/5/3 470/5/3 469/572/3
f 470/396/4 687/5/4 469/5/4
f 687/5/4 470/396/4 688/573/4
f 687/5/5 459/392/5 469/5/5
f 459/392/5 687/5/5 685/574/5
f 686/2/6 470/3/6 461/11/6
f 470/3/6 686/2/6 688/1/6
f 691/3/1 690/2/1 689/1/1
f 690/3/1 691/2/1 692/1/1
f 693/3/2 691/2/2 689/1/2
f 691/3/2 693/2/2 694/1/2
f 695/5/3 690/5/3 692/575/3
f 690/5/3 695/5/3 696/576/3
f 695/5/4 693/5/4 696/577/4
f 693/5/4 695/5/4 694/578/4
f 693/5/5 690/5/5 696/579/5
f 690/5/5 693/5/5 689/580/5
f 691/2/6 695/3/6 692/11/6
f 695/3/6 691/2/6 694/1/6
f 699/3/1 698/2/1 697/1/1
f 698/3/1 699/2/1 700/1/1
f 701/3/2 699/2/2 697/1/2
f 699/3/2 701/2/2 702/1/2
f 703/5/3 698/5/3 700/581/3
f 698/5/3 703/5/3 704/582/3
f 703/5/4 701/5/4 704/583/4
f 701/5/4 703/5/4 702/584/4
f 701/5/5 698/5/5 704/585/5
f 698/5/5 701/5/5 697/586/5
f 699/2/6 703/3/6 700/11/6
f 703/3/6 699/2/6 702/1/6
f 707/3/1 706/2/1 705/1/1
f 706/3/1 707/2/1 708/1/1
f 709/3/2 707/2/2 705/1/2
f 707/3/2 709/2/2 710/1/2
f 711/5/3 706/5/3 708/587/3
f 706/5/3 711/5/3 712/588/3
f 711/5/4 709/5/4 712/589/4
f 709/5/4 711/5/4 710/590/4
f 709/5/5 706/5/5 712/591/5
f 706/5/5 709/5/5 705/592/5
f 707/2/6 711/3/6 708/11/6
f 711/3/6 707/2/6 710/1/6
f 714/3/1 479/2/1 713/1/1
f 479/3/1 714/2/1 481/1/1
f 443/3/2 714/2/2 713/1/2
f 714/3/2 443/2/2 445/1/2
f 484/5/3 479/5/3 481/593/3
f 479/5/3 484/5/3 483/594/3
f 484/406/4 443/5/4 483/5/4
f 443/5/4 484/406/4 445/595/4
f 443/378/5 479/407/5 483/5/5
f 479/407/5 443/378/5 713/596/5
f 714/2/6 484/3/6 481/11/6
f 484/3/6 714/2/6 445/1/6
f 716/3/1 489/2/1 715/1/1
f 489/3/1 716/2/1 491/1/1
f 459/3/2 716/2/2 715/1/2
f 716/3/2 459/2/2 461/1/2
f 494/5/3 489/5/3 491/597/3
f 489/5/3 494/5/3 493/598/3
f 494/415/4 459/5/4 493/5/4
f 459/5/4 494/415/4 461/599/4
f 459/392/5 489/417/5 493/5/5
f 489/417/5 459/392/5 715/600/5
f 716/2/6 494/3/6 491/11/6
f 494/3/6 716/2/6 461/1/6
f 719/3/1 718/2/1 717/1/1
f 718/3/1 719/2/1 720/1/1
f 721/3/2 719/2/2 717/1/2
f 719/3/2 721/2/2 722/1/2
f 723/5/3 718/5/3 720/601/3
f 718/5/3 723/5/3 724/602/3
f 723/5/4 721/5/4 724/603/4
f 721/5/4 723/5/4 722/604/4
f 721/5/5 718/5/5 724/605/5
f 718/5/5 721/5/5 717/606/5
f 719/2/6 723/3/6 720/11/6
f 723/3/6 719/2/6 722/1/6
f 726/3/1 503/2/1 725/1/1
f 503/3/1 726/2/1 505/1/1
f 727/3/2 726/2/2 725/1/2
f 726/3/2 727/2/2 728/1/2
f 508/5/3 503/5/3 505/607/3
f 503/5/3 508/5/3 507/608/3
f 508/425/4 727/5/4 507/5/4
f 727/5/4 508/425/4 728/609/4
f 727/5/5 503/426/5 507/5/5
f 503/426/5 727/5/5 725/610/5
f 726/2/6 508/3/6 505/11/6
f 508/3/6 726/2/6 728/1/6
f 731/3/1 730/2/1 729/1/1
f 730/3/1 731/2/1 732/1/1
f 733/3/2 731/2/2 729/1/2
f 731/3/2 733/2/2 734/1/2
f 524/5/3 730/5/3 732/611/3
f 730/5/3 524/5/3 523/612/3
f 524/442/4 733/5/4 523/5/4
f 733/5/4 524/442/4 734/613/4
f 733/5/5 730/5/5 523/5/5
f 730/5/5 733/5/5 729/614/5
f 731/2/6 524/3/6 732/11/6
f 524/3/6 731/2/6 734/1/6
f 492/3/1 583/2/1 490/1/1
f 583/3/1 492/2/1 584/1/1
f 496/3/2 492/2/2 490/1/2
f 492/3/2 496/2/2 495/1/2
f 552/463/3 583/5/3 584/615/3
f 583/5/3 552/463/3 551/5/3
f 552/5/4 496/414/4 551/616/4
f 496/414/4 552/5/4 495/5/4
f 496/416/5 583/5/5 551/5/5
f 583/5/5 496/416/5 490/5/5
f 492/2/6 552/3/6 584/11/6
f 552/3/6 492/2/6 495/1/6
f 560/3/1 562/2/1 559/1/1
f 562/3/1 560/2/1 561/1/1
f 563/3/2 560/2/2 559/1/2
f 560/3/2 563/2/2 565/1/2
f 566/474/3 562/469/3 561/5/3
f 562/469/3 566/474/3 564/5/3
f 566/5/4 563/5/4 564/617/4
f 563/5/4 566/5/4 565/618/4
f 563/479/5 562/472/5 564/5/5
f 562/472/5 563/479/5 559/5/5
f 560/2/6 566/3/6 561/11/6
f 566/3/6 560/2/6 565/1/6
f 568/3/1 570/2/1 567/1/1
f 570/3/1 568/2/1 569/1/1
f 571/3/2 568/2/2 567/1/2
f 568/3/2 571/2/2 573/1/2
f 574/480/3 570/475/3 569/5/3
f 570/475/3 574/480/3 572/5/3
f 574/5/4 571/5/4 572/619/4
f 571/5/4 574/5/4 573/620/4
f 571/485/5 570/478/5 572/5/5
f 570/478/5 571/485/5 567/5/5
f 568/2/6 574/3/6 569/11/6
f 574/3/6 568/2/6 573/1/6
f 530/3/1 607/2/1 528/1/1
f 607/3/1 530/2/1 609/1/1
f 534/3/2 530/2/2 528/1/2
f 530/3/2 534/2/2 533/1/2
f 735/5/3 607/5/3 609/621/3
f 607/5/3 735/5/3 736/622/3
f 735/5/4 534/447/4 736/623/4
f 534/447/4 735/5/4 533/5/4
f 534/449/5 607/513/5 736/624/5
f 607/513/5 534/449/5 528/5/5
f 530/2/6 735/3/6 609/11/6
f 735/3/6 530/2/6 533/1/6
f 538/3/1 737/2/1 536/1/1
f 737/3/1 538/2/1 738/1/1
f 542/3/2 538/2/2 536/1/2
f 538/3/2 542/2/2 541/1/2
f 739/5/3 737/5/3 738/625/3
f 737/5/3 739/5/3 740/626/3
f 739/5/4 542/453/4 740/627/4
f 542/453/4 739/5/4 541/5/4
f 542/455/5 737/5/5 740/628/5
f 737/5/5 542/455/5 536/5/5
f 538/2/6 739/3/6 738/11/6
f 739/3/6 538/2/6 541/1/6
f 546/3/1 611/2/1 544/1/1
f 611/3/1 546/2/1 612/1/1
f 741/3/2 546/2/2 544/1/2
f 546/3/2 741/2/2 742/1/2
f 743/5/3 611/5/3 612/629/3
f 611/5/3 743/5/3 744/630/3
f 743/5/4 741/5/4 744/631/4
f 741/5/4 743/5/4 742/632/4
f 741/5/5 611/5/5 744/633/5
f 611/5/5 741/5/5 544/5/5
f 546/2/6 743/3/6 612/11/6
f 743/3/6 546/2/6 742/1/6
f 552/3/1 627/2/1 551/1/1
f 627/3/1 552/2/1 628/1/1
f 554/3/2 552/2/2 551/1/2
f 552/3/2 554/2/2 553/1/2
f 745/5/3 627/5/3 628/634/3
f 627/5/3 745/5/3 746/635/3
f 745/5/4 554/465/4 746/636/4
f 554/465/4 745/5/4 553/5/4
f 554/467/5 627/5/5 746/637/5
f 627/5/5 554/467/5 551/5/5
f 552/2/6 745/3/6 628/11/6
f 745/3/6 552/2/6 553/1/6
f 574/3/1 747/2/1 572/1/1
f 747/3/1 574/2/1 748/1/1
f 749/3/2 574/2/2 572/1/2
f 574/3/2 749/2/2 750/1/2
f 751/5/3 747/5/3 748/638/3
f 747/5/3 751/5/3 752/639/3
f 751/5/4 749/5/4 752/640/4
f 749/5/4 751/5/4 750/641/4
f 749/5/5 747/5/5 752/642/5
f 747/5/5 749/5/5 572/5/5
f 574/2/6 751/3/6 748/11/6
f 751/3/6 574/2/6 750/1/6
f 755/3/1 754/2/1 753/1/1
f 754/3/1 755/2/1 756/1/1
f 752/3/2 755/2/2 753/1/2
f 755/3/2 752/2/2 751/1/2
f 757/5/3 754/5/3 756/643/3
f 754/5/3 757/5/3 758/644/3
f 757/5/4 752/640/4 758/645/4
f 752/640/4 757/5/4 751/5/4
f 752/642/5 754/5/5 758/646/5
f 754/5/5 752/642/5 753/647/5
f 755/2/6 757/3/6 756/11/6
f 757/3/6 755/2/6 751/1/6
f 73/3/1 759/2/1 74/1/1
f 759/3/1 73/2/1 760/1/1
f 298/3/2 73/2/2 74/1/2
f 73/3/2 298/2/2 297/1/2
f 761/5/3 759/5/3 760/648/3
f 759/5/3 761/5/3 762/649/3
f 761/5/4 298/256/4 762/650/4
f 298/256/4 761/5/4 297/5/4
f 298/258/5 759/5/5 762/651/5
f 759/5/5 298/258/5 74/63/5
f 73/2/6 761/3/6 760/11/6
f 761/3/6 73/2/6 297/1/6
f 765/3/1 764/2/1 763/1/1
f 764/3/1 765/2/1 766/1/1
f 767/3/2 765/2/2 763/1/2
f 765/3/2 767/2/2 768/1/2
f 769/5/3 764/5/3 766/652/3
f 764/5/3 769/5/3 770/653/3
f 769/5/4 767/5/4 770/654/4
f 767/5/4 769/5/4 768/655/4
f 767/5/5 764/5/5 770/656/5
f 764/5/5 767/5/5 763/657/5
f 765/2/6 769/3/6 766/11/6
f 769/3/6 765/2/6 768/1/6
f 658/3/1 660/2/1 657/1/1
f 660/3/1 658/2/1 659/1/1
f 661/3/2 658/2/2 657/1/2
f 658/3/2 661/2/2 663/1/2
f 664/551/3 660/546/3 659/5/3
f 660/546/3 664/551/3 662/5/3
f 664/5/4 661/5/4 662/658/4
f 661/5/4 664/5/4 663/659/4
f 661/556/5 660/549/5 662/5/5
f 660/549/5 661/556/5 657/5/5
f 658/2/6 664/3/6 659/11/6
f 664/3/6 658/2/6 663/1/6
f 666/3/1 668/2/1 665/1/1
f 668/3/1 666/2/1 667/1/1
f 669/3/2 666/2/2 665/1/2
f 666/3/2 669/2/2 671/1/2
f 672/557/3 668/552/3 667/5/3
f 668/552/3 672/557/3 670/5/3
f 672/5/4 669/5/4 670/660/4
f 669/5/4 672/5/4 671/661/4
f 669/562/5 668/555/5 670/5/5
f 668/555/5 669/562/5 665/5/5
f 666/2/6 672/3/6 667/11/6
f 672/3/6 666/2/6 671/1/6
f 674/3/1 676/2/1 673/1/1
f 676/3/1 674/2/1 675/1/1
f 771/3/2 674/2/2 673/1/2
f 674/3/2 771/2/2 772/1/2
f 773/5/3 676/558/3 675/5/3
f 676/558/3 773/5/3 774/662/3
f 773/5/4 771/5/4 774/663/4
f 771/5/4 773/5/4 772/664/4
f 771/5/5 676/561/5 774/665/5
f 676/561/5 771/5/5 673/5/5
f 674/2/6 773/3/6 675/11/6
f 773/3/6 674/2/6 772/1/6

usemtl color12

f 678/3/1 680/2/1 677/1/1
f 680/3/1 678/2/1 679/1/1
f 775/3/2 678/2/2 677/1/2
f 678/3/2 775/2/2 776/1/2
f 315/5/3 680/563/3 679/5/3
f 680/563/3 315/5/3 313/666/3
f 315/5/4 775/5/4 313/667/4
f 775/5/4 315/5/4 776/668/4
f 775/5/5 680/566/5 313/275/5
f 680/566/5 775/5/5 677/5/5
f 678/2/6 315/3/6 679/11/6
f 315/3/6 678/2/6 776/1/6
f 318/3/1 777/2/1 317/1/1
f 777/3/1 318/2/1 778/1/1
f 779/3/2 318/2/2 317/1/2
f 318/3/2 779/2/2 780/1/2
f 719/5/3 777/5/3 778/669/3
f 777/5/3 719/5/3 717/670/3
f 719/5/4 779/5/4 717/671/4
f 779/5/4 719/5/4 780/672/4
f 779/5/5 777/5/5 717/606/5
f 777/5/5 779/5/5 317/5/5
f 318/2/6 719/3/6 778/11/6
f 719/3/6 318/2/6 780/1/6
f 783/3/1 782/2/1 781/1/1
f 782/3/1 783/2/1 784/1/1
f 435/3/2 783/2/2 781/1/2
f 783/3/2 435/2/2 437/1/2
f 728/5/3 782/5/3 784/673/3
f 782/5/3 728/5/3 727/674/3
f 728/609/4 435/5/4 727/5/4
f 435/5/4 728/609/4 437/675/4
f 435/372/5 782/5/5 727/5/5
f 782/5/5 435/372/5 781/676/5
f 783/2/6 728/3/6 784/11/6
f 728/3/6 783/2/6 437/1/6
f 787/3/1 786/2/1 785/1/1
f 786/3/1 787/2/1 788/1/1
f 236/3/2 787/2/2 785/1/2
f 787/3/2 236/2/2 238/1/2
f 789/5/3 786/5/3 788/677/3
f 786/5/3 789/5/3 790/678/3
f 789/5/4 236/5/4 790/679/4
f 236/5/4 789/5/4 238/680/4
f 236/5/5 786/5/5 790/681/5
f 786/5/5 236/5/5 785/682/5
f 787/2/6 789/3/6 788/11/6
f 789/3/6 787/2/6 238/1/6
f 793/3/1 792/2/1 791/1/1
f 792/3/1 793/2/1 794/1/1
f 786/3/2 793/2/2 791/1/2
f 793/3/2 786/2/2 788/1/2
f 795/5/3 792/5/3 794/683/3
f 792/5/3 795/5/3 796/684/3
f 795/5/4 786/5/4 796/685/4
f 786/5/4 795/5/4 788/686/4
f 786/5/5 792/5/5 796/687/5
f 792/5/5 786/5/5 791/688/5
f 793/2/6 795/3/6 794/11/6
f 795/3/6 793/2/6 788/1/6
f 541/3/1 740/2/1 542/1/1
f 740/3/1 541/2/1 739/1/1
f 544/3/2 541/2/2 542/1/2
f 541/3/2 544/2/2 546/1/2
f 612/629/3 740/626/3 739/5/3
f 740/626/3 612/629/3 611/5/3
f 612/511/4 544/5/4 611/5/4
f 544/5/4 612/511/4 546/689/4
f 544/5/5 740/628/5 611/5/5
f 740/628/5 544/5/5 542/455/5
f 541/2/6 612/3/6 739/11/6
f 612/3/6 541/2/6 546/1/6
f 260/3/1 797/2/1 258/1/1
f 797/3/1 260/2/1 798/1/1
f 264/3/2 260/2/2 258/1/2
f 260/3/2 264/2/2 263/1/2
f 411/5/3 797/5/3 798/690/3
f 797/5/3 411/5/3 409/691/3
f 411/5/4 264/220/4 409/692/4
f 264/220/4 411/5/4 263/5/4
f 264/222/5 797/5/5 409/351/5
f 797/5/5 264/222/5 258/5/5
f 260/2/6 411/3/6 798/11/6
f 411/3/6 260/2/6 263/1/6
f 612/3/1 614/2/1 611/1/1
f 614/3/1 612/2/1 613/1/1
f 615/3/2 612/2/2 611/1/2
f 612/3/2 615/2/2 617/1/2
f 642/5/3 614/509/3 613/5/3
f 614/509/3 642/5/3 641/693/3
f 642/533/4 615/5/4 641/5/4
f 615/5/4 642/533/4 617/694/4
f 615/519/5 614/512/5 641/5/5
f 614/512/5 615/519/5 611/5/5
f 612/2/6 642/3/6 613/11/6
f 642/3/6 612/2/6 617/1/6
f 422/3/1 424/2/1 421/1/1
f 424/3/1 422/2/1 423/1/1
f 799/3/2 422/2/2 421/1/2
f 422/3/2 799/2/2 800/1/2
f 801/5/3 424/353/3 423/5/3
f 424/353/3 801/5/3 802/695/3
f 801/5/4 799/5/4 802/696/4
f 799/5/4 801/5/4 800/697/4
f 799/5/5 424/356/5 802/698/5
f 424/356/5 799/5/5 421/5/5
f 422/2/6 801/3/6 423/11/6
f 801/3/6 422/2/6 800/1/6
f 772/3/1 774/2/1 771/1/1
f 774/3/1 772/2/1 773/1/1
f 119/3/2 772/2/2 771/1/2
f 772/3/2 119/2/2 121/1/2
f 122/100/3 774/662/3 773/5/3
f 774/662/3 122/100/3 120/5/3
f 122/5/4 119/5/4 120/699/4
f 119/5/4 122/5/4 121/700/4
f 119/105/5 774/665/5 120/5/5
f 774/665/5 119/105/5 771/5/5
f 772/2/6 122/3/6 773/11/6
f 122/3/6 772/2/6 121/1/6

usemtl color15

f 38/3/1 40/2/1 37/1/1
f 40/3/1 38/2/1 39/1/1
f 803/3/2 38/2/2 37/1/2
f 38/3/2 803/2/2 804/1/2
f 805/5/3 40/31/3 39/5/3
f 40/31/3 805/5/3 806/701/3
f 805/5/4 803/5/4 806/702/4
f 803/5/4 805/5/4 804/703/4
f 803/5/5 40/34/5 806/704/5
f 40/34/5 803/5/5 37/5/5
f 38/2/6 805/3/6 39/11/6
f 805/3/6 38/2/6 804/1/6
f 809/3/1 808/2/1 807/1/1
f 808/3/1 809/2/1 810/1/1
f 713/3/2 809/2/2 807/1/2
f 809/3/2 713/2/2 714/1/2
f 481/593/3 808/5/3 810/705/3
f 808/5/3 481/593/3 479/5/3
f 481/5/4 713/5/4 479/706/4
f 713/5/4 481/5/4 714/707/4
f 713/596/5 808/5/5 479/407/5
f 808/5/5 713/596/5 807/708/5
f 809/2/6 481/3/6 810/11/6
f 481/3/6 809/2/6 714/1/6
f 350/3/1 352/2/1 349/1/1
f 352/3/1 350/2/1 351/1/1
f 811/3/2 350/2/2 349/1/2
f 350/3/2 811/2/2 812/1/2
f 813/5/3 352/295/3 351/5/3
f 352/295/3 813/5/3 814/709/3
f 813/5/4 811/5/4 814/710/4
f 811/5/4 813/5/4 812/711/4
f 811/5/5 352/298/5 814/712/5
f 352/298/5 811/5/5 349/5/5
f 350/2/6 813/3/6 351/11/6
f 813/3/6 350/2/6 812/1/6
f 817/3/1 816/2/1 815/1/1
f 816/3/1 817/2/1 818/1/1
f 819/3/2 817/2/2 815/1/2
f 817/3/2 819/2/2 820/1/2
f 821/5/3 816/5/3 818/713/3
f 816/5/3 821/5/3 822/714/3
f 821/5/4 819/5/4 822/715/4
f 819/5/4 821/5/4 820/716/4
f 819/5/5 816/5/5 822/717/5
f 816/5/5 819/5/5 815/718/5
f 817/2/6 821/3/6 818/11/6
f 821/3/6 817/2/6 820/1/6
f 343/3/1 823/2/1 344/1/1
f 823/3/1 343/2/1 824/1/1
f 825/3/2 343/2/2 344/1/2
f 343/3/2 825/2/2 826/1/2
f 827/5/3 823/5/3 824/719/3
f 823/5/3 827/5/3 828/720/3
f 827/5/4 825/5/4 828/721/4
f 825/5/4 827/5/4 826/722/4
f 825/5/5 823/5/5 828/723/5
f 823/5/5 825/5/5 344/292/5
f 343/2/6 827/3/6 824/11/6
f 827/3/6 343/2/6 826/1/6
f 482/3/1 829/2/1 480/1/1
f 829/3/1 482/2/1 830/1/1
f 444/3/2 482/2/2 480/1/2
f 482/3/2 444/2/2 446/1/2
f 831/5/3 829/5/3 830/724/3
f 829/5/3 831/5/3 832/725/3
f 831/5/4 444/405/4 832/726/4
f 444/405/4 831/5/4 446/5/4
f 444/5/5 829/5/5 832/727/5
f 829/5/5 444/5/5 480/5/5
f 482/2/6 831/3/6 830/11/6
f 831/3/6 482/2/6 446/1/6
f 835/3/1 834/2/1 833/1/1
f 834/3/1 835/2/1 836/1/1
f 837/3/2 835/2/2 833/1/2
f 835/3/2 837/2/2 838/1/2
f 839/5/3 834/5/3 836/728/3
f 834/5/3 839/5/3 840/729/3
f 839/5/4 837/5/4 840/730/4
f 837/5/4 839/5/4 838/731/4
f 837/5/5 834/5/5 840/732/5
f 834/5/5 837/5/5 833/733/5
f 835/2/6 839/3/6 836/11/6
f 839/3/6 835/2/6 838/1/6
f 732/3/1 841/2/1 730/1/1
f 841/3/1 732/2/1 842/1/1
f 519/3/2 732/2/2 730/1/2
f 732/3/2 519/2/2 521/1/2
f 522/439/3 841/5/3 842/734/3
f 841/5/3 522/439/3 520/5/3
f 522/5/4 519/5/4 520/735/4
f 519/5/4 522/5/4 521/736/4
f 519/444/5 841/5/5 520/5/5
f 841/5/5 519/444/5 730/5/5
f 732/2/6 522/3/6 842/11/6
f 522/3/6 732/2/6 521/1/6
f 540/3/1 542/2/1 539/1/1
f 542/3/1 540/2/1 541/1/1
f 543/3/2 540/2/2 539/1/2
f 540/3/2 543/2/2 545/1/2
f 546/457/3 542/452/3 541/5/3
f 542/452/3 546/457/3 544/5/3
f 546/689/4 543/5/4 544/5/4
f 543/5/4 546/689/4 545/737/4
f 543/462/5 542/455/5 544/5/5
f 542/455/5 543/462/5 539/5/5
f 540/2/6 546/3/6 541/11/6
f 546/3/6 540/2/6 545/1/6
f 379/3/1 843/2/1 380/1/1
f 843/3/1 379/2/1 844/1/1
f 845/3/2 379/2/2 380/1/2
f 379/3/2 845/2/2 846/1/2
f 847/5/3 843/5/3 844/738/3
f 843/5/3 847/5/3 848/739/3
f 847/5/4 845/5/4 848/740/4
f 845/5/4 847/5/4 846/741/4
f 845/5/5 843/5/5 848/742/5
f 843/5/5 845/5/5 380/322/5
f 379/2/6 847/3/6 844/11/6
f 847/3/6 379/2/6 846/1/6
f 516/3/1 554/2/1 515/1/1
f 554/3/1 516/2/1 553/1/1
f 849/3/2 516/2/2 515/1/2
f 516/3/2 849/2/2 850/1/2
f 596/5/3 554/464/3 553/5/3
f 554/464/3 596/5/3 595/743/3
f 596/500/4 849/5/4 595/5/4
f 849/5/4 596/500/4 850/744/4
f 849/5/5 554/467/5 595/5/5
f 554/467/5 849/5/5 515/5/5
f 516/2/6 596/3/6 553/11/6
f 596/3/6 516/2/6 850/1/6
f 852/3/1 599/2/1 851/1/1
f 599/3/1 852/2/1 601/1/1
f 555/3/2 852/2/2 851/1/2
f 852/3/2 555/2/2 557/1/2
f 558/468/3 599/5/3 601/745/3
f 599/5/3 558/468/3 556/5/3
f 558/5/4 555/5/4 556/746/4
f 555/5/4 558/5/4 557/747/4
f 555/473/5 599/507/5 556/5/5
f 599/507/5 555/473/5 851/748/5
f 852/2/6 558/3/6 601/11/6
f 558/3/6 852/2/6 557/1/6
f 533/3/1 736/2/1 534/1/1
f 736/3/1 533/2/1 735/1/1
f 536/3/2 533/2/2 534/1/2
f 533/3/2 536/2/2 538/1/2
f 738/625/3 736/622/3 735/5/3
f 736/622/3 738/625/3 737/5/3
f 738/5/4 536/5/4 737/749/4
f 536/5/4 738/5/4 538/750/4
f 536/5/5 736/624/5 737/5/5
f 736/624/5 536/5/5 534/449/5
f 533/2/6 738/3/6 735/11/6
f 738/3/6 533/2/6 538/1/6
f 847/3/1 853/2/1 848/1/1
f 853/3/1 847/2/1 854/1/1
f 816/3/2 847/2/2 848/1/2
f 847/3/2 816/2/2 818/1/2
f 855/5/3 853/5/3 854/751/3
f 853/5/3 855/5/3 856/752/3
f 855/5/4 816/5/4 856/753/4
f 816/5/4 855/5/4 818/754/4
f 816/5/5 853/5/5 856/755/5
f 853/5/5 816/5/5 848/742/5
f 847/2/6 855/3/6 854/11/6
f 855/3/6 847/2/6 818/1/6
f 604/3/1 606/2/1 603/1/1
f 606/3/1 604/2/1 605/1/1
f 562/3/2 604/2/2 603/1/2
f 604/3/2 562/2/2 561/1/2
f 857/5/3 606/503/3 605/5/3
f 606/503/3 857/5/3 858/756/3
f 857/5/4 562/470/4 858/757/4
f 562/470/4 857/5/4 561/5/4
f 562/472/5 606/506/5 858/758/5
f 606/506/5 562/472/5 603/5/5
f 604/2/6 857/3/6 605/11/6
f 857/3/6 604/2/6 561/1/6
f 566/3/1 859/2/1 564/1/1
f 859/3/1 566/2/1 860/1/1
f 570/3/2 566/2/2 564/1/2
f 566/3/2 570/2/2 569/1/2
f 861/5/3 859/5/3 860/759/3
f 859/5/3 861/5/3 862/760/3
f 861/5/4 570/476/4 862/761/4
f 570/476/4 861/5/4 569/5/4
f 570/478/5 859/5/5 862/762/5
f 859/5/5 570/478/5 564/5/5
f 566/2/6 861/3/6 860/11/6
f 861/3/6 566/2/6 569/1/6
f 414/3/1 416/2/1 413/1/1
f 416/3/1 414/2/1 415/1/1
f 863/3/2 414/2/2 413/1/2
f 414/3/2 863/2/2 864/1/2
f 865/5/3 416/347/3 415/5/3
f 416/347/3 865/5/3 866/763/3
f 865/5/4 863/5/4 866/764/4
f 863/5/4 865/5/4 864/765/4
f 863/5/5 416/350/5 866/766/5
f 416/350/5 863/5/5 413/5/5
f 414/2/6 865/3/6 415/11/6
f 865/3/6 414/2/6 864/1/6
f 588/3/1 867/2/1 587/1/1
f 867/3/1 588/2/1 868/1/1
f 592/3/2 588/2/2 587/1/2
f 588/3/2 592/2/2 591/1/2
f 869/5/3 867/5/3 868/767/3
f 867/5/3 869/5/3 870/768/3
f 869/5/4 592/494/4 870/769/4
f 592/494/4 869/5/4 591/5/4
f 592/496/5 867/5/5 870/770/5
f 867/5/5 592/496/5 587/5/5
f 588/2/6 869/3/6 868/11/6
f 869/3/6 588/2/6 591/1/6
f 632/3/1 871/2/1 631/1/1
f 871/3/1 632/2/1 872/1/1
f 636/3/2 632/2/2 631/1/2
f 632/3/2 636/2/2 635/1/2
f 648/540/3 871/5/3 872/771/3
f 871/5/3 648/540/3 647/5/3
f 648/5/4 636/528/4 647/772/4
f 636/528/4 648/5/4 635/5/4
f 636/530/5 871/5/5 647/5/5
f 871/5/5 636/530/5 631/5/5
f 632/2/6 648/3/6 872/11/6
f 648/3/6 632/2/6 635/1/6
f 865/3/1 873/2/1 866/1/1
f 873/3/1 865/2/1 874/1/1
f 875/3/2 865/2/2 866/1/2
f 865/3/2 875/2/2 876/1/2
f 877/5/3 873/5/3 874/773/3
f 873/5/3 877/5/3 878/774/3
f 877/5/4 875/5/4 878/775/4
f 875/5/4 877/5/4 876/776/4
f 875/5/5 873/5/5 878/777/5
f 873/5/5 875/5/5 866/766/5
f 865/2/6 877/3/6 874/11/6
f 877/3/6 865/2/6 876/1/6
f 644/3/1 879/2/1 643/1/1
f 879/3/1 644/2/1 880/1/1
f 646/3/2 644/2/2 643/1/2
f 644/3/2 646/2/2 645/1/2
f 868/767/3 879/5/3 880/778/3
f 879/5/3 868/767/3 867/5/3
f 868/5/4 646/537/4 867/779/4
f 646/537/4 868/5/4 645/5/4
f 646/539/5 879/5/5 867/5/5
f 879/5/5 646/539/5 643/5/5
f 644/2/6 868/3/6 880/11/6
f 868/3/6 644/2/6 645/1/6
f 423/3/1 881/2/1 424/1/1
f 881/3/1 423/2/1 882/1/1
f 802/3/2 423/2/2 424/1/2
f 423/3/2 802/2/2 801/1/2
f 883/5/3 881/5/3 882/780/3
f 881/5/3 883/5/3 884/781/3
f 883/5/4 802/696/4 884/782/4
f 802/696/4 883/5/4 801/5/4
f 802/698/5 881/5/5 884/783/5
f 881/5/5 802/698/5 424/356/5
f 423/2/6 883/3/6 882/11/6
f 883/3/6 423/2/6 801/1/6

usemtl color23

f 886/3/1 329/2/1 885/1/1
f 329/3/1 886/2/1 331/1/1
f 887/3/2 886/2/2 885/1/2
f 886/3/2 887/2/2 888/1/2
f 889/5/3 329/5/3 331/784/3
f 329/5/3 889/5/3 890/785/3
f 889/5/4 887/5/4 890/786/4
f 887/5/4 889/5/4 888/787/4
f 887/5/5 329/287/5 890/788/5
f 329/287/5 887/5/5 885/789/5
f 886/2/6 889/3/6 331/11/6
f 889/3/6 886/2/6 888/1/6
f 892/3/1 333/2/1 891/1/1
f 333/3/1 892/2/1 334/1/1
f 893/3/2 892/2/2 891/1/2
f 892/3/2 893/2/2 894/1/2
f 895/5/3 333/5/3 334/790/3
f 333/5/3 895/5/3 896/791/3
f 895/5/4 893/5/4 896/792/4
f 893/5/4 895/5/4 894/793/4
f 893/5/5 333/5/5 896/794/5
f 333/5/5 893/5/5 891/795/5
f 892/2/6 895/3/6 334/11/6
f 895/3/6 892/2/6 894/1/6
f 899/3/1 898/2/1 897/1/1
f 898/3/1 899/2/1 900/1/1
f 901/3/2 899/2/2 897/1/2
f 899/3/2 901/2/2 902/1/2
f 903/5/3 898/5/3 900/796/3
f 898/5/3 903/5/3 904/797/3
f 903/5/4 901/5/4 904/798/4
f 901/5/4 903/5/4 902/799/4
f 901/5/5 898/5/5 904/800/5
f 898/5/5 901/5/5 897/801/5
f 899/2/6 903/3/6 900/11/6
f 903/3/6 899/2/6 902/1/6
f 906/3/1 345/2/1 905/1/1
f 345/3/1 906/2/1 347/1/1
f 907/3/2 906/2/2 905/1/2
f 906/3/2 907/2/2 908/1/2
f 350/5/3 345/5/3 347/802/3
f 345/5/3 350/5/3 349/803/3
f 350/297/4 907/5/4 349/5/4
f 907/5/4 350/297/4 908/804/4
f 907/5/5 345/299/5 349/5/5
f 345/299/5 907/5/5 905/805/5
f 906/2/6 350/3/6 347/11/6
f 350/3/6 906/2/6 908/1/6
f 911/3/1 910/2/1 909/1/1
f 910/3/1 911/2/1 912/1/1
f 913/3/2 911/2/2 909/1/2
f 911/3/2 913/2/2 914/1/2
f 915/5/3 910/5/3 912/806/3
f 910/5/3 915/5/3 916/807/3
f 915/5/4 913/5/4 916/808/4
f 913/5/4 915/5/4 914/809/4
f 913/5/5 910/5/5 916/810/5
f 910/5/5 913/5/5 909/811/5
f 911/2/6 915/3/6 912/11/6
f 915/3/6 911/2/6 914/1/6
f 919/3/1 918/2/1 917/1/1
f 918/3/1 919/2/1 920/1/1
f 910/3/2 919/2/2 917/1/2
f 919/3/2 910/2/2 912/1/2
f 921/5/3 918/5/3 920/812/3
f 918/5/3 921/5/3 922/813/3
f 921/5/4 910/5/4 922/814/4
f 910/5/4 921/5/4 912/815/4
f 910/5/5 918/5/5 922/816/5
f 918/5/5 910/5/5 917/817/5
f 919/2/6 921/3/6 920/11/6
f 921/3/6 919/2/6 912/1/6
f 915/3/1 923/2/1 916/1/1
f 923/3/1 915/2/1 924/1/1
f 925/3/2 915/2/2 916/1/2
f 915/3/2 925/2/2 926/1/2
f 927/5/3 923/5/3 924/818/3
f 923/5/3 927/5/3 928/819/3
f 927/5/4 925/5/4 928/820/4
f 925/5/4 927/5/4 926/821/4
f 925/5/5 923/5/5 928/822/5
f 923/5/5 925/5/5 916/810/5
f 915/2/6 927/3/6 924/11/6
f 927/3/6 915/2/6 926/1/6
f 931/3/1 930/2/1 929/1/1
f 930/3/1 931/2/1 932/1/1
f 918/3/2 931/2/2 929/1/2
f 931/3/2 918/2/2 920/1/2
f 933/5/3 930/5/3 932/823/3
f 930/5/3 933/5/3 934/824/3
f 933/5/4 918/5/4 934/825/4
f 918/5/4 933/5/4 920/826/4
f 918/5/5 930/5/5 934/827/5
f 930/5/5 918/5/5 929/828/5
f 931/2/6 933/3/6 932/11/6
f 933/3/6 931/2/6 920/1/6
f 927/3/1 935/2/1 928/1/1
f 935/3/1 927/2/1 936/1/1
f 937/3/2 927/2/2 928/1/2
f 927/3/2 937/2/2 938/1/2
f 939/5/3 935/5/3 936/829/3
f 935/5/3 939/5/3 940/830/3
f 939/5/4 937/5/4 940/831/4
f 937/5/4 939/5/4 938/832/4
f 937/5/5 935/5/5 940/833/5
f 935/5/5 937/5/5 928/822/5
f 927/2/6 939/3/6 936/11/6
f 939/3/6 927/2/6 938/1/6
f 933/3/1 941/2/1 934/1/1
f 941/3/1 933/2/1 942/1/1
f 943/3/2 933/2/2 934/1/2
f 933/3/2 943/2/2 944/1/2
f 945/5/3 941/5/3 942/834/3
f 941/5/3 945/5/3 946/835/3
f 945/5/4 943/5/4 946/836/4
f 943/5/4 945/5/4 944/837/4
f 943/5/5 941/5/5 946/838/5
f 941/5/5 943/5/5 934/827/5
f 933/2/6 945/3/6 942/11/6
f 945/3/6 933/2/6 944/1/6
f 949/3/1 948/2/1 947/1/1
f 948/3/1 949/2/1 950/1/1
f 935/3/2 949/2/2 947/1/2
f 949/3/2 935/2/2 936/1/2
f 951/5/3 948/5/3 950/839/3
f 948/5/3 951/5/3 952/840/3
f 951/5/4 935/5/4 952/841/4
f 935/5/4 951/5/4 936/842/4
f 935/5/5 948/5/5 952/843/5
f 948/5/5 935/5/5 947/844/5
f 949/2/6 951/3/6 950/11/6
f 951/3/6 949/2/6 936/1/6
f 954/3/1 763/2/1 953/1/1
f 763/3/1 954/2/1 765/1/1
f 955/3/2 954/2/2 953/1/2
f 954/3/2 955/2/2 956/1/2
f 768/5/3 763/5/3 765/845/3
f 763/5/3 768/5/3 767/846/3
f 768/655/4 955/5/4 767/5/4
f 955/5/4 768/655/4 956/847/4
f 955/5/5 763/657/5 767/5/5
f 763/657/5 955/5/5 953/848/5
f 954/2/6 768/3/6 765/11/6
f 768/3/6 954/2/6 956/1/6

usemtl color21

f 958/3/1 57/2/1 957/1/1
f 57/3/1 958/2/1 58/1/1
f 174/3/2 958/2/2 957/1/2
f 958/3/2 174/2/2 176/1/2
f 486/408/3 57/5/3 58/849/3
f 57/5/3 486/408/3 485/5/3
f 486/432/4 174/5/4 485/5/4
f 174/5/4 486/432/4 176/850/4
f 174/5/5 57/5/5 485/5/5
f 57/5/5 174/5/5 957/851/5
f 958/2/6 486/3/6 58/11/6
f 486/3/6 958/2/6 176/1/6
f 960/3/1 249/2/1 959/1/1
f 249/3/1 960/2/1 251/1/1
f 961/3/2 960/2/2 959/1/2
f 960/3/2 961/2/2 962/1/2
f 254/5/3 249/5/3 251/852/3
f 249/5/3 254/5/3 253/853/3
f 254/215/4 961/5/4 253/5/4
f 961/5/4 254/215/4 962/854/4
f 961/5/5 249/217/5 253/5/5
f 249/217/5 961/5/5 959/855/5
f 960/2/6 254/3/6 251/11/6
f 254/3/6 960/2/6 962/1/6
f 964/3/1 272/2/1 963/1/1
f 272/3/1 964/2/1 271/1/1
f 187/3/2 964/2/2 963/1/2
f 964/3/2 187/2/2 189/1/2
f 190/157/3 272/225/3 271/5/3
f 272/225/3 190/157/3 188/5/3
f 190/5/4 187/5/4 188/856/4
f 187/5/4 190/5/4 189/857/4
f 187/162/5 272/228/5 188/5/5
f 272/228/5 187/162/5 963/858/5
f 964/2/6 190/3/6 271/11/6
f 190/3/6 964/2/6 189/1/6
f 966/3/1 194/2/1 965/1/1
f 194/3/1 966/2/1 193/1/1
f 200/3/2 966/2/2 965/1/2
f 966/3/2 200/2/2 199/1/2
f 154/126/3 194/158/3 193/5/3
f 194/158/3 154/126/3 152/5/3
f 154/5/4 200/165/4 152/859/4
f 200/165/4 154/5/4 199/5/4
f 200/167/5 194/161/5 152/5/5
f 194/161/5 200/167/5 965/860/5
f 966/2/6 154/3/6 193/11/6
f 154/3/6 966/2/6 199/1/6

usemtl color28

f 324/3/1 358/2/1 322/1/1
f 358/3/1 324/2/1 357/1/1
f 328/3/2 324/2/2 322/1/2
f 324/3/2 328/2/2 327/1/2
f 967/5/3 358/301/3 357/5/3
f 358/301/3 967/5/3 968/861/3
f 967/5/4 328/278/4 968/862/4
f 328/278/4 967/5/4 327/5/4
f 328/280/5 358/304/5 968/863/5
f 358/304/5 328/280/5 322/5/5
f 324/2/6 967/3/6 357/11/6
f 967/3/6 324/2/6 327/1/6

usemtl color25

f 912/3/1 922/2/1 910/1/1
f 922/3/1 912/2/1 921/1/1
f 916/3/2 912/2/2 910/1/2
f 912/3/2 916/2/2 915/1/2
f 924/818/3 922/813/3 921/5/3
f 922/813/3 924/818/3 923/5/3
f 924/5/4 916/808/4 923/864/4
f 916/808/4 924/5/4 915/5/4
f 916/810/5 922/816/5 923/5/5
f 922/816/5 916/810/5 910/5/5
f 912/2/6 924/3/6 921/11/6
f 924/3/6 912/2/6 915/1/6
f 920/3/1 934/2/1 918/1/1
f 934/3/1 920/2/1 933/1/1
f 922/3/2 920/2/2 918/1/2
f 920/3/2 922/2/2 921/1/2
f 944/5/3 934/824/3 933/5/3
f 934/824/3 944/5/3 943/865/3
f 944/837/4 922/814/4 943/5/4
f 922/814/4 944/837/4 921/5/4
f 922/816/5 934/827/5 943/5/5
f 934/827/5 922/816/5 918/5/5
f 920/2/6 944/3/6 933/11/6
f 944/3/6 920/2/6 921/1/6
f 924/3/1 947/2/1 923/1/1
f 947/3/1 924/2/1 949/1/1
f 928/3/2 924/2/2 923/1/2
f 924/3/2 928/2/2 927/1/2
f 936/829/3 947/5/3 949/866/3
f 947/5/3 936/829/3 935/5/3
f 936/842/4 928/820/4 935/5/4
f 928/820/4 936/842/4 927/5/4
f 928/822/5 947/844/5 935/5/5
f 947/844/5 928/822/5 923/5/5
f 924/2/6 936/3/6 949/11/6
f 936/3/6 924/2/6 927/1/6
f 944/3/1 946/2/1 943/1/1
f 946/3/1 944/2/1 945/1/1
f 947/3/2 944/2/2 943/1/2
f 944/3/2 947/2/2 949/1/2
f 950/839/3 946/835/3 945/5/3
f 946/835/3 950/839/3 948/5/3
f 950/5/4 947/5/4 948/867/4
f 947/5/4 950/5/4 949/868/4
f 947/844/5 946/838/5 948/5/5
f 946/838/5 947/844/5 943/5/5
f 944/2/6 950/3/6 945/11/6
f 950/3/6 944/2/6 949/1/6

usemtl color0

f 734/3/1 523/2/1 733/1/1
f 523/3/1 734/2/1 524/1/1
f 969/3/2 734/2/2 733/1/2
f 734/3/2 969/2/2 970/1/2
f 971/5/3 523/612/3 524/5/3
f 523/612/3 971/5/3 972/869/3
f 971/5/4 969/5/4 972/870/4
f 969/5/4 971/5/4 970/871/4
f 969/5/5 523/5/5 972/872/5
f 523/5/5 969/5/5 733/5/5
f 734/2/6 971/3/6 524/11/6
f 971/3/6 734/2/6 970/1/6
f 975/3/1 974/2/1 973/1/1
f 974/3/1 975/2/1 976/1/1
f 977/3/2 975/2/2 973/1/2
f 975/3/2 977/2/2 978/1/2
f 979/5/3 974/5/3 976/873/3
f 974/5/3 979/5/3 980/874/3
f 979/5/4 977/5/4 980/875/4
f 977/5/4 979/5/4 978/876/4
f 977/5/5 974/5/5 980/877/5
f 974/5/5 977/5/5 973/878/5
f 975/2/6 979/3/6 976/11/6
f 979/3/6 975/2/6 978/1/6

usemtl color26

f 983/3/1 982/2/1 981/1/1
f 982/3/1 983/2/1 984/1/1
f 985/3/2 983/2/2 981/1/2
f 983/3/2 985/2/2 986/1/2
f 987/5/3 982/5/3 984/879/3
f 982/5/3 987/5/3 988/880/3
f 987/5/4 985/5/4 988/881/4
f 985/5/4 987/5/4 986/882/4
f 985/5/5 982/5/5 988/883/5
f 982/5/5 985/5/5 981/884/5
f 983/2/6 987/3/6 984/11/6
f 987/3/6 983/2/6 986/1/6
f 979/3/1 71/2/1 980/1/1
f 71/3/1 979/2/1 72/1/1
f 982/3/2 979/2/2 980/1/2
f 979/3/2 982/2/2 984/1/2
f 296/5/3 71/5/3 72/885/3
f 71/5/3 296/5/3 295/886/3
f 296/257/4 982/5/4 295/5/4
f 982/5/4 296/257/4 984/887/4
f 982/5/5 71/5/5 295/5/5
f 71/5/5 982/5/5 980/877/5
f 979/2/6 296/3/6 72/11/6
f 296/3/6 979/2/6 984/1/6

usemtl color27

f 984/3/1 295/2/1 982/1/1
f 295/3/1 984/2/1 296/1/1
f 988/3/2 984/2/2 982/1/2
f 984/3/2 988/2/2 987/1/2
f 989/5/3 295/886/3 296/5/3
f 295/886/3 989/5/3 990/888/3
f 989/5/4 988/881/4 990/889/4
f 988/881/4 989/5/4 987/5/4
f 988/883/5 295/5/5 990/890/5
f 295/5/5 988/883/5 982/5/5
f 984/2/6 989/3/6 296/11/6
f 989/3/6 984/2/6 987/1/6

usemtl color17

f 584/3/1 623/2/1 583/1/1
f 623/3/1 584/2/1 625/1/1
f 551/3/2 584/2/2 583/1/2
f 584/3/2 551/2/2 552/1/2
f 628/634/3 623/5/3 625/891/3
f 623/5/3 628/634/3 627/5/3
f 628/523/4 551/616/4 627/5/4
f 551/616/4 628/523/4 552/5/4
f 551/5/5 623/525/5 627/5/5
f 623/525/5 551/5/5 583/5/5
f 584/2/6 628/3/6 625/11/6
f 628/3/6 584/2/6 552/1/6
f 628/3/1 630/2/1 627/1/1
f 630/3/1 628/2/1 629/1/1
f 746/3/2 628/2/2 627/1/2
f 628/3/2 746/2/2 745/1/2
f 588/492/3 630/521/3 629/5/3
f 630/521/3 588/492/3 587/5/3
f 588/538/4 746/636/4 587/5/4
f 746/636/4 588/538/4 745/5/4
f 746/637/5 630/524/5 587/5/5
f 630/524/5 746/637/5 627/5/5
f 628/2/6 588/3/6 629/11/6
f 588/3/6 628/2/6 745/1/6
f 626/3/1 586/2/1 624/1/1
f 586/3/1 626/2/1 585/1/1
f 630/3/2 626/2/2 624/1/2
f 626/3/2 630/2/2 629/1/2
f 644/535/3 586/487/3 585/5/3
f 586/487/3 644/535/3 643/5/3
f 644/5/4 630/522/4 643/892/4
f 630/522/4 644/5/4 629/5/4
f 630/524/5 586/490/5 643/5/5
f 586/490/5 630/524/5 624/5/5
f 626/2/6 644/3/6 585/11/6
f 644/3/6 626/2/6 629/1/6
f 304/3/1 306/2/1 303/1/1
f 306/3/1 304/2/1 305/1/1
f 991/3/2 304/2/2 303/1/2
f 304/3/2 991/2/2 992/1/2
f 993/5/3 306/260/3 305/5/3
f 306/260/3 993/5/3 994/893/3
f 993/5/4 991/5/4 994/894/4
f 991/5/4 993/5/4 992/895/4
f 991/5/5 306/263/5 994/896/5
f 306/263/5 991/5/5 303/5/5
f 304/2/6 993/3/6 305/11/6
f 993/3/6 304/2/6 992/1/6
f 92/3/1 276/2/1 90/1/1
f 276/3/1 92/2/1 275/1/1
f 96/3/2 92/2/2 90/1/2
f 92/3/2 96/2/2 95/1/2
f 278/235/3 276/231/3 275/5/3
f 276/231/3 278/235/3 277/5/3
f 278/5/4 96/79/4 277/897/4
f 96/79/4 278/5/4 95/5/4
f 96/81/5 276/234/5 277/5/5
f 276/234/5 96/81/5 90/5/5
f 92/2/6 278/3/6 275/11/6
f 278/3/6 92/2/6 95/1/6
f 100/3/1 280/2/1 98/1/1
f 280/3/1 100/2/1 279/1/1
f 104/3/2 100/2/2 98/1/2
f 100/3/2 104/2/2 103/1/2
f 282/240/3 280/236/3 279/5/3
f 280/236/3 282/240/3 281/5/3
f 282/5/4 104/85/4 281/898/4
f 104/85/4 282/5/4 103/5/4
f 104/87/5 280/239/5 281/5/5
f 280/239/5 104/87/5 98/5/5
f 100/2/6 282/3/6 279/11/6
f 282/3/6 100/2/6 103/1/6

usemtl color8

f 942/3/1 995/2/1 941/1/1
f 995/3/1 942/2/1 996/1/1
f 946/3/2 942/2/2 941/1/2
f 942/3/2 946/2/2 945/1/2
f 997/5/3 995/5/3 996/899/3
f 995/5/3 997/5/3 998/900/3
f 997/5/4 946/836/4 998/901/4
f 946/836/4 997/5/4 945/5/4
f 946/838/5 995/5/5 998/902/5
f 995/5/5 946/838/5 941/5/5
f 942/2/6 997/3/6 996/11/6
f 997/3/6 942/2/6 945/1/6
f 950/3/1 999/2/1 948/1/1
f 999/3/1 950/2/1 1000/1/1
f 952/3/2 950/2/2 948/1/2
f 950/3/2 952/2/2 951/1/2
f 1001/5/3 999/5/3 1000/903/3
f 999/5/3 1001/5/3 1002/904/3
f 1001/5/4 952/841/4 1002/905/4
f 952/841/4 1001/5/4 951/5/4
f 952/843/5 999/5/5 1002/906/5
f 999/5/5 952/843/5 948/5/5
f 950/2/6 1001/3/6 1000/11/6
f 1001/3/6 950/2/6 951/1/6
f 1005/3/1 1004/2/1 1003/1/1
f 1004/3/1 1005/2/1 1006/1/1
f 1007/3/2 1005/2/2 1003/1/2
f 1005/3/2 1007/2/2 1008/1/2
f 1009/5/3 1004/5/3 1006/907/3
f 1004/5/3 1009/5/3 1010/908/3
f 1009/5/4 1007/5/4 1010/909/4
f 1007/5/4 1009/5/4 1008/910/4
f 1007/5/5 1004/5/5 1010/911/5
f 1004/5/5 1007/5/5 1003/912/5
f 1005/2/6 1009/3/6 1006/11/6
f 1009/3/6 1005/2/6 1008/1/6
f 1013/3/1 1012/2/1 1011/1/1
f 1012/3/1 1013/2/1 1014/1/1
f 1015/3/2 1013/2/2 1011/1/2
f 1013/3/2 1015/2/2 1016/1/2
f 1017/5/3 1012/5/3 1014/913/3
f 1012/5/3 1017/5/3 1018/914/3
f 1017/5/4 1015/5/4 1018/915/4
f 1015/5/4 1017/5/4 1016/916/4
f 1015/5/5 1012/5/5 1018/917/5
f 1012/5/5 1015/5/5 1011/918/5
f 1013/2/6 1017/3/6 1014/11/6
f 1017/3/6 1013/2/6 1016/1/6
f 1021/3/1 1020/2/1 1019/1/1
f 1020/3/1 1021/2/1 1022/1/1
f 1023/3/2 1021/2/2 1019/1/2
f 1021/3/2 1023/2/2 1024/1/2
f 1025/5/3 1020/5/3 1022/919/3
f 1020/5/3 1025/5/3 1026/920/3
f 1025/5/4 1023/5/4 1026/921/4
f 1023/5/4 1025/5/4 1024/922/4
f 1023/5/5 1020/5/5 1026/923/5
f 1020/5/5 1023/5/5 1019/924/5
f 1021/2/6 1025/3/6 1022/11/6
f 1025/3/6 1021/2/6 1024/1/6

usemtl color24

f 1029/3/1 1028/2/1 1027/1/1
f 1028/3/1 1029/2/1 1030/1/1
f 1031/3/2 1029/2/2 1027/1/2
f 1029/3/2 1031/2/2 1032/1/2
f 1033/5/3 1028/5/3 1030/925/3
f 1028/5/3 1033/5/3 1034/926/3
f 1033/5/4 1031/5/4 1034/927/4
f 1031/5/4 1033/5/4 1032/928/4
f 1031/5/5 1028/5/5 1034/929/5
f 1028/5/5 1031/5/5 1027/930/5
f 1029/2/6 1033/3/6 1030/11/6
f 1033/3/6 1029/2/6 1032/1/6

usemtl color4

f 996/3/1 1035/2/1 995/1/1
f 1035/3/1 996/2/1 1036/1/1
f 998/3/2 996/2/2 995/1/2
f 996/3/2 998/2/2 997/1/2
f 301/5/3 1035/5/3 1036/931/3
f 1035/5/3 301/5/3 299/932/3
f 301/5/4 998/901/4 299/933/4
f 998/901/4 301/5/4 997/5/4
f 998/902/5 1035/5/5 299/264/5
f 1035/5/5 998/902/5 995/5/5
f 996/2/6 301/3/6 1036/11/6
f 301/3/6 996/2/6 997/1/6
f 1039/3/1 1038/2/1 1037/1/1
f 1038/3/1 1039/2/1 1040/1/1
f 300/3/2 1039/2/2 1037/1/2
f 1039/3/2 300/2/2 302/1/2
f 1041/5/3 1038/5/3 1040/934/3
f 1038/5/3 1041/5/3 1042/935/3
f 1041/5/4 300/5/4 1042/936/4
f 300/5/4 1041/5/4 302/937/4
f 300/5/5 1038/5/5 1042/938/5
f 1038/5/5 300/5/5 1037/939/5
f 1039/2/6 1041/3/6 1040/11/6
f 1041/3/6 1039/2/6 302/1/6
f 1045/3/1 1044/2/1 1043/1/1
f 1044/3/1 1045/2/1 1046/1/1
f 1047/3/2 1045/2/2 1043/1/2
f 1045/3/2 1047/2/2 1048/1/2
f 1049/5/3 1044/5/3 1046/940/3
f 1044/5/3 1049/5/3 1050/941/3
f 1049/5/4 1047/5/4 1050/942/4
f 1047/5/4 1049/5/4 1048/943/4
f 1047/5/5 1044/5/5 1050/944/5
f 1044/5/5 1047/5/5 1043/945/5
f 1045/2/6 1049/3/6 1046/11/6
f 1049/3/6 1045/2/6 1048/1/6

usemtl color9

f 997/3/1 299/2/1 998/1/1
f 299/3/1 997/2/1 301/1/1
f 999/3/2 997/2/2 998/1/2
f 997/3/2 999/2/2 1000/1/2
f 304/5/3 299/932/3 301/5/3
f 299/932/3 304/5/3 303/946/3
f 304/262/4 999/5/4 303/5/4
f 999/5/4 304/262/4 1000/947/4
f 999/5/5 299/264/5 303/5/5
f 299/264/5 999/5/5 998/902/5
f 997/2/6 304/3/6 301/11/6
f 304/3/6 997/2/6 1000/1/6
f 1014/3/1 1051/2/1 1012/1/1
f 1051/3/1 1014/2/1 1052/1/1
f 1018/3/2 1014/2/2 1012/1/2
f 1014/3/2 1018/2/2 1017/1/2
f 1053/5/3 1051/5/3 1052/948/3
f 1051/5/3 1053/5/3 1054/949/3
f 1053/5/4 1018/915/4 1054/950/4
f 1018/915/4 1053/5/4 1017/5/4
f 1018/917/5 1051/5/5 1054/951/5
f 1051/5/5 1018/917/5 1012/5/5
f 1014/2/6 1053/3/6 1052/11/6
f 1053/3/6 1014/2/6 1017/1/6
f 302/3/1 1042/2/1 300/1/1
f 1042/3/1 302/2/1 1041/1/1
f 306/3/2 302/2/2 300/1/2
f 302/3/2 306/2/2 305/1/2
f 1055/5/3 1042/935/3 1041/5/3
f 1042/935/3 1055/5/3 1056/952/3
f 1055/5/4 306/261/4 1056/953/4
f 306/261/4 1055/5/4 305/5/4
f 306/263/5 1042/938/5 1056/954/5
f 1042/938/5 306/263/5 300/5/5
f 302/2/6 1055/3/6 1041/11/6
f 1055/3/6 302/2/6 305/1/6

usemtl color3

f 1000/3/1 303/2/1 999/1/1
f 303/3/1 1000/2/1 304/1/1
f 1002/3/2 1000/2/2 999/1/2
f 1000/3/2 1002/2/2 1001/1/2
f 992/5/3 303/946/3 304/5/3
f 303/946/3 992/5/3 991/955/3
f 992/895/4 1002/905/4 991/5/4
f 1002/905/4 992/895/4 1001/5/4
f 1002/906/5 303/5/5 991/5/5
f 303/5/5 1002/906/5 999/5/5
f 1000/2/6 992/3/6 304/11/6
f 992/3/6 1000/2/6 1001/1/6
f 1006/3/1 1019/2/1 1004/1/1
f 1019/3/1 1006/2/1 1021/1/1
f 1010/3/2 1006/2/2 1004/1/2
f 1006/3/2 1010/2/2 1009/1/2
f 1024/5/3 1019/5/3 1021/956/3
f 1019/5/3 1024/5/3 1023/957/3
f 1024/922/4 1010/909/4 1023/5/4
f 1010/909/4 1024/922/4 1009/5/4
f 1010/911/5 1019/924/5 1023/5/5
f 1019/924/5 1010/911/5 1004/5/5
f 1006/2/6 1024/3/6 1021/11/6
f 1024/3/6 1006/2/6 1009/1/6
f 305/3/1 1056/2/1 306/1/1
f 1056/3/1 305/2/1 1055/1/1
f 994/3/2 305/2/2 306/1/2
f 305/3/2 994/2/2 993/1/2
f 1057/5/3 1056/952/3 1055/5/3
f 1056/952/3 1057/5/3 1058/958/3
f 1057/5/4 994/894/4 1058/959/4
f 994/894/4 1057/5/4 993/5/4
f 994/896/5 1056/954/5 1058/960/5
f 1056/954/5 994/896/5 306/263/5
f 305/2/6 1057/3/6 1055/11/6
f 1057/3/6 305/2/6 993/1/6
f 1061/3/1 1060/2/1 1059/1/1
f 1060/3/1 1061/2/1 1062/1/1
f 1063/3/2 1061/2/2 1059/1/2
f 1061/3/2 1063/2/2 1064/1/2
f 1065/5/3 1060/5/3 1062/961/3
f 1060/5/3 1065/5/3 1066/962/3
f 1065/5/4 1063/5/4 1066/963/4
f 1063/5/4 1065/5/4 1064/964/4
f 1063/5/5 1060/5/5 1066/965/5
f 1060/5/5 1063/5/5 1059/966/5
f 1061/2/6 1065/3/6 1062/11/6
f 1065/3/6 1061/2/6 1064/1/6

usemtl color19

f 1036/3/1 1037/2/1 1035/1/1
f 1037/3/1 1036/2/1 1039/1/1
f 299/3/2 1036/2/2 1035/1/2
f 1036/3/2 299/2/2 301/1/2
f 302/259/3 1037/5/3 1039/967/3
f 1037/5/3 302/259/3 300/5/3
f 302/937/4 299/933/4 300/5/4
f 299/933/4 302/937/4 301/5/4
f 299/264/5 1037/939/5 300/5/5
f 1037/939/5 299/264/5 1035/5/5
f 1036/2/6 302/3/6 1039/11/6
f 302/3/6 1036/2/6 301/1/6

usemtl color2

f 1052/3/1 1067/2/1 1051/1/1
f 1067/3/1 1052/2/1 1068/1/1
f 1054/3/2 1052/2/2 1051/1/2
f 1052/3/2 1054/2/2 1053/1/2
f 1069/5/3 1067/5/3 1068/968/3
f 1067/5/3 1069/5/3 1070/969/3
f 1069/5/4 1054/950/4 1070/970/4
f 1054/950/4 1069/5/4 1053/5/4
f 1054/951/5 1067/5/5 1070/971/5
f 1067/5/5 1054/951/5 1051/5/5
f 1052/2/6 1069/3/6 1068/11/6
f 1069/3/6 1052/2/6 1053/1/6
f 1073/3/1 1072/2/1 1071/1/1
f 1072/3/1 1073/2/1 1074/1/1
f 1075/3/2 1073/2/2 1071/1/2
f 1073/3/2 1075/2/2 1076/1/2
f 1077/5/3 1072/5/3 1074/972/3
f 1072/5/3 1077/5/3 1078/973/3
f 1077/5/4 1075/5/4 1078/974/4
f 1075/5/4 1077/5/4 1076/975/4
f 1075/5/5 1072/5/5 1078/976/5
f 1072/5/5 1075/5/5 1071/977/5
f 1073/2/6 1077/3/6 1074/11/6
f 1077/3/6 1073/2/6 1076/1/6

usemtl color5

f 1022/3/1 1079/2/1 1020/1/1
f 1079/3/1 1022/2/1 1080/1/1
f 1026/3/2 1022/2/2 1020/1/2
f 1022/3/2 1026/2/2 1025/1/2
f 1081/5/3 1079/5/3 1080/978/3
f 1079/5/3 1081/5/3 1082/979/3
f 1081/5/4 1026/921/4 1082/980/4
f 1026/921/4 1081/5/4 1025/5/4
f 1026/923/5 1079/5/5 1082/981/5
f 1079/5/5 1026/923/5 1020/5/5
f 1022/2/6 1081/3/6 1080/11/6
f 1081/3/6 1022/2/6 1025/1/6
f 1068/3/1 1083/2/1 1067/1/1
f 1083/3/1 1068/2/1 1084/1/1
f 1070/3/2 1068/2/2 1067/1/2
f 1068/3/2 1070/2/2 1069/1/2
f 1085/5/3 1083/5/3 1084/982/3
f 1083/5/3 1085/5/3 1086/983/3
f 1085/5/4 1070/970/4 1086/984/4
f 1070/970/4 1085/5/4 1069/5/4
f 1070/971/5 1083/5/5 1086/985/5
f 1083/5/5 1070/971/5 1067/5/5
f 1068/2/6 1085/3/6 1084/11/6
f 1085/3/6 1068/2/6 1069/1/6

usemtl color6

f 1040/3/1 1087/2/1 1038/1/1
f 1087/3/1 1040/2/1 1088/1/1
f 1042/3/2 1040/2/2 1038/1/2
f 1040/3/2 1042/2/2 1041/1/2
f 1089/5/3 1087/5/3 1088/986/3
f 1087/5/3 1089/5/3 1090/987/3
f 1089/5/4 1042/936/4 1090/988/4
f 1042/936/4 1089/5/4 1041/5/4
f 1042/938/5 1087/5/5 1090/989/5
f 1087/5/5 1042/938/5 1038/5/5
f 1040/2/6 1089/3/6 1088/11/6
f 1089/3/6 1040/2/6 1041/1/6
f 1055/3/1 1091/2/1 1056/1/1
f 1091/3/1 1055/2/1 1092/1/1
f 1058/3/2 1055/2/2 1056/1/2
f 1055/3/2 1058/2/2 1057/1/2
f 1093/5/3 1091/5/3 1092/990/3
f 1091/5/3 1093/5/3 1094/991/3
f 1093/5/4 1058/959/4 1094/992/4
f 1058/959/4 1093/5/4 1057/5/4
f 1058/960/5 1091/5/5 1094/993/5
f 1091/5/5 1058/960/5 1056/954/5
f 1055/2/6 1093/3/6 1092/11/6
f 1093/3/6 1055/2/6 1057/1/6

usemtl color7

f 1041/3/1 1090/2/1 1042/1/1
f 1090/3/1 1041/2/1 1089/1/1
f 1056/3/2 1041/2/2 1042/1/2
f 1041/3/2 1056/2/2 1055/1/2
f 1092/990/3 1090/987/3 1089/5/3
f 1090/987/3 1092/990/3 1091/5/3
f 1092/5/4 1056/953/4 1091/994/4
f 1056/953/4 1092/5/4 1055/5/4
f 1056/954/5 1090/989/5 1091/5/5
f 1090/989/5 1056/954/5 1042/938/5
f 1041/2/6 1092/3/6 1089/11/6
f 1092/3/6 1041/2/6 1055/1/6

