# Created by Kenney (www.kenney.nl)

mtllib Tool R0Q Voquev.mtl

v 1 7 -0.5
v 1 6 -0.5
v 1 7 0.5
v 1 6 0.5
v 0 7 -0.5
v 0 7 0.5
v 0 6 0.5
v 0 6 -0.5
v 2 6 -1
v 2 5 -1
v 2 6 1
v 2 5 1
v 1 6 -1
v 1 6 1
v 1 5 1
v 1 5 -1
v 3 5 -1
v 3 4 -1
v 3 5 1
v 3 4 1
v 2 4 1
v 2 4 -1
v 3 3 -1.5
v 3 2 -1.5
v 3 3 1.5
v 3 2 1.5
v 2 3 -1.5
v 2 3 1.5
v 2 2 1.5
v 2 2 -1.5
v 3 1 -1.5
v 3 -3 -1.5
v 3 1 1.5
v 3 -3 1.5
v 2 1 -1.5
v 2 1 1.5
v 2 -3 1.5
v 2 -3 -1.5
v 3 -4 -1.5
v 3 -5 -1.5
v 3 -4 1.5
v 3 -5 1.5
v 2 -4 -1.5
v 2 -4 1.5
v 2 -5 1.5
v 2 -5 -1.5
v 2 -6 -1.5
v 2 -6 1.5
v 0 -5 -1.5
v 0 -5 1.5
v 0 -6 1.5
v 0 -6 -1.5
v -1 7 -0.5
v -1 7 0.5
v -1 6 0.5
v -1 6 -0.5
v 2 5 -1.5
v 2 4 -1.5
v 2 5 1.5
v 2 4 1.5
v 1 5 -1.5
v 1 5 1.5
v 1 4 1.5
v 1 4 -1.5
v 0 5 -1.5
v 0 4 -1.5
v 0 5 1.5
v 0 4 1.5
v -1 5 -1.5
v -1 5 1.5
v -1 4 1.5
v -1 4 -1.5
v 2 3 -2.5
v 2 2 -2.5
v 2 3 2.5
v 2 2 2.5
v 1 3 -2.5
v 1 3 2.5
v 1 2 2.5
v 1 2 -2.5
v -1 3 -1.5
v -1 2 -1.5
v -1 3 1.5
v -1 2 1.5
v -2 3 -1.5
v -2 3 1.5
v -2 2 1.5
v -2 2 -1.5
v 2 1 -2.5
v 2 0 -2.5
v 2 1 2.5
v 2 0 2.5
v 1 1 -2.5
v 1 1 2.5
v 1 0 2.5
v 1 0 -2.5
v -1 1 -1.5
v -1 -3 -1.5
v -1 1 1.5
v -1 -3 1.5
v -2 1 -1.5
v -2 1 1.5
v -2 -3 1.5
v -2 -3 -1.5
v 2 -2 -2.5
v 2 -3 -2.5
v 2 -2 2.5
v 2 -3 2.5
v 1 -2 -2.5
v 1 -2 2.5
v 1 -3 2.5
v 1 -3 -2.5
v 2 -4 -2.5
v 2 -5 -2.5
v 2 -4 2.5
v 2 -5 2.5
v 1 -4 -2.5
v 1 -4 2.5
v 1 -5 2.5
v 1 -5 -2.5
v -1 -4 -1.5
v -1 -5 -1.5
v -1 -4 1.5
v -1 -5 1.5
v -2 -4 -1.5
v -2 -4 1.5
v -2 -5 1.5
v -2 -5 -1.5
v -1 -6 1.5
v -1 -6 -1.5
v 3 6 -0.5
v 3 5 -0.5
v 3 6 0.5
v 3 5 0.5
v 2 6 -0.5
v 2 6 0.5
v 2 5 0.5
v 2 5 -0.5
v 4 5 -0.5
v 4 4 -0.5
v 4 5 0.5
v 4 4 0.5
v 3 4 0.5
v 3 4 -0.5
v 0 3 -2.5
v 0 2 -2.5
v 0 3 2.5
v 0 2 2.5
v -1 3 -2.5
v -1 3 2.5
v -1 2 2.5
v -1 2 -2.5
v 0 1 -2.5
v 0 0 -2.5
v 0 1 2.5
v 0 0 2.5
v -1 1 -2.5
v -1 1 2.5
v -1 0 2.5
v -1 0 -2.5
v 0 -2 -2.5
v 0 -3 -2.5
v 0 -2 2.5
v 0 -3 2.5
v -1 -2 -2.5
v -1 -2 2.5
v -1 -3 2.5
v -1 -3 -2.5
v 0 -4 -2.5
v 0 -5 -2.5
v 0 -4 2.5
v 0 -5 2.5
v -1 -4 -2.5
v -1 -4 2.5
v -1 -5 2.5
v -1 -5 -2.5
v -1 6 -1
v -1 6 1
v -1 5 1
v -1 5 -1
v -1 4 -1
v -1 4 1
v -2 5 -1
v -2 5 1
v -2 4 1
v -2 4 -1
v 1 3 1.5
v 1 3 -1.5
v 0 3 -1.5
v 0 3 1.5
v -1 5 -0.5
v -1 5 0.5
v -3 6 -0.5
v -3 6 0.5
v -3 5 0.5
v -3 5 -0.5
v -4 6 -0.5
v -4 6 0.5
v -4 5 0.5
v -4 5 -0.5
v 4 3 -0.5
v 4 3 0.5
v 3 3 0.5
v 3 3 -0.5
v 1 4 -2
v 1 3 -2
v 1 4 2
v 1 3 2
v 0 4 -2
v 0 4 2
v 0 3 2
v 0 3 -2
v 2 -1 -2.5
v 2 -1 2.5
v 1 -1 2.5
v 1 -1 -2.5
v 0 -1 -2.5
v 0 -1 2.5
v -1 -1 -2.5
v -1 -1 2.5

vn 1 0 0
vn 0 1 0
vn 0 -1 0
vn -1 0 0
vn 0 0 -1
vn 0 0 1

vt -19.68504 19.68504
vt 19.68504 19.68504
vt -19.68504 -19.68504
vt 0 NaN
vt 0 0
vt 0 NaN
vt 0 NaN
vt 0 NaN
vt 0 NaN
vt 0 NaN
vt 19.68504 -19.68504
vt 0 NaN
vt 0 NaN
vt 0 NaN
vt 0 NaN
vt 0 NaN
vt 0 NaN
vt 0 NaN
vt 0 NaN
vt 0 NaN
vt 0 NaN
vt 0 NaN
vt 0 NaN
vt 0 NaN
vt 0 NaN
vt 0 NaN
vt 0 NaN
vt 0 NaN
vt 0 NaN
vt 0 NaN
vt 0 NaN
vt 0 NaN
vt 0 NaN
vt 0 NaN
vt 0 NaN
vt 0 NaN
vt 0 NaN
vt 0 NaN
vt 0 NaN
vt 0 NaN
vt 0 NaN
vt 0 NaN
vt 0 NaN
vt 0 NaN
vt 0 NaN
vt 0 NaN
vt 0 NaN
vt 0 NaN
vt 0 NaN
vt 0 NaN
vt 0 NaN
vt 0 NaN
vt 0 NaN
vt 0 NaN
vt 0 NaN
vt 0 NaN
vt 0 NaN
vt 0 NaN
vt 0 NaN
vt 0 NaN
vt 0 NaN
vt 0 NaN
vt 0 NaN
vt 0 NaN
vt 0 NaN
vt 0 NaN
vt 0 NaN
vt 0 NaN
vt 0 NaN
vt 0 NaN
vt 0 NaN
vt 0 NaN
vt 0 NaN
vt 0 NaN
vt 0 NaN
vt 0 NaN
vt 0 NaN
vt 0 NaN
vt 0 NaN
vt 0 NaN
vt 0 NaN
vt 0 NaN
vt 0 NaN
vt 0 NaN
vt 0 NaN
vt 0 NaN
vt 0 NaN
vt 0 NaN
vt 0 NaN
vt 0 NaN
vt 0 NaN
vt 0 NaN
vt 0 NaN
vt 0 NaN
vt 0 NaN
vt 0 NaN
vt 0 NaN
vt 0 NaN
vt 0 NaN
vt 0 NaN
vt 0 NaN
vt 0 NaN
vt 0 NaN
vt 0 NaN
vt 0 NaN
vt 0 NaN
vt 0 NaN
vt 0 NaN
vt 0 NaN
vt 0 NaN
vt 0 NaN
vt 0 NaN
vt 0 NaN
vt 0 NaN
vt 0 NaN
vt 0 NaN
vt 0 NaN
vt 0 NaN
vt 0 NaN
vt 0 NaN
vt 0 NaN
vt 0 NaN
vt 0 NaN
vt 0 NaN
vt 0 NaN
vt 0 NaN
vt 0 NaN
vt 0 NaN
vt 0 NaN
vt 0 NaN
vt 0 NaN
vt 0 NaN
vt 0 NaN
vt 0 NaN
vt 0 NaN
vt 0 NaN
vt 0 NaN
vt 0 NaN
vt 0 NaN
vt 0 NaN
vt 0 NaN
vt 0 NaN
vt 0 NaN
vt 0 NaN
vt 0 NaN
vt 0 NaN
vt 0 NaN
vt 0 NaN
vt 0 NaN
vt 0 NaN
vt 0 NaN
vt 0 NaN
vt 0 NaN
vt 0 NaN
vt 0 NaN
vt 0 NaN
vt 0 NaN
vt 0 NaN
vt 0 NaN
vt 0 NaN
vt 0 NaN
vt 0 NaN
vt 0 NaN
vt 0 NaN
vt 0 NaN
vt 0 NaN
vt 0 NaN
vt 0 NaN
vt 0 NaN
vt 0 NaN
vt 0 NaN
vt 0 NaN
vt 0 NaN
vt 0 NaN
vt 0 NaN
vt 0 NaN
vt 0 NaN
vt 0 NaN
vt 0 NaN
vt 0 NaN
vt 0 NaN
vt 0 NaN
vt 0 NaN
vt 0 NaN
vt 0 NaN
vt 0 NaN
vt 0 NaN
vt 0 NaN
vt 0 NaN
vt 0 NaN
vt 0 NaN
vt 0 NaN
vt 0 NaN
vt 0 NaN
vt 0 NaN
vt 0 NaN
vt 0 NaN
vt 0 NaN
vt 0 NaN
vt 0 NaN
vt 0 NaN
vt 0 NaN
vt 0 NaN
vt 0 NaN
vt 0 NaN
vt 0 NaN
vt 0 NaN
vt 0 NaN
vt 0 NaN
vt 0 NaN
vt 0 NaN
vt 0 NaN
vt 0 NaN
vt 0 NaN
vt 0 NaN
vt 0 NaN

usemtl color2

f 3/3/1 2/2/1 1/1/1
f 2/3/1 3/2/1 4/1/1
f 5/3/2 3/2/2 1/1/2
f 3/3/2 5/2/2 6/1/2
f 7/5/3 2/5/3 4/4/3
f 2/5/3 7/5/3 8/6/3
f 7/5/4 5/5/4 8/7/4
f 5/5/4 7/5/4 6/8/4
f 5/5/5 2/5/5 8/9/5
f 2/5/5 5/5/5 1/10/5
f 3/2/6 7/3/6 4/11/6
f 7/3/6 3/2/6 6/1/6
f 3/3/1 2/2/1 1/1/1
f 2/3/1 3/2/1 4/1/1
f 5/3/2 3/2/2 1/1/2
f 3/3/2 5/2/2 6/1/2
f 7/5/3 2/5/3 4/4/3
f 2/5/3 7/5/3 8/6/3
f 7/5/4 5/5/4 8/7/4
f 5/5/4 7/5/4 6/8/4
f 5/5/5 2/5/5 8/9/5
f 2/5/5 5/5/5 1/10/5
f 3/2/6 7/3/6 4/11/6
f 7/3/6 3/2/6 6/1/6
f 11/3/1 10/2/1 9/1/1
f 10/3/1 11/2/1 12/1/1
f 13/3/2 11/2/2 9/1/2
f 11/3/2 13/2/2 14/1/2
f 15/5/3 10/5/3 12/12/3
f 10/5/3 15/5/3 16/13/3
f 15/5/4 13/5/4 16/14/4
f 13/5/4 15/5/4 14/15/4
f 13/5/5 10/5/5 16/16/5
f 10/5/5 13/5/5 9/17/5
f 11/2/6 15/3/6 12/11/6
f 15/3/6 11/2/6 14/1/6
f 19/3/1 18/2/1 17/1/1
f 18/3/1 19/2/1 20/1/1
f 10/3/2 19/2/2 17/1/2
f 19/3/2 10/2/2 12/1/2
f 21/5/3 18/5/3 20/18/3
f 18/5/3 21/5/3 22/19/3
f 21/5/4 10/5/4 22/20/4
f 10/5/4 21/5/4 12/21/4
f 10/5/5 18/5/5 22/22/5
f 18/5/5 10/5/5 17/23/5
f 19/2/6 21/3/6 20/11/6
f 21/3/6 19/2/6 12/1/6
f 25/3/1 24/2/1 23/1/1
f 24/3/1 25/2/1 26/1/1
f 27/3/2 25/2/2 23/1/2
f 25/3/2 27/2/2 28/1/2
f 29/5/3 24/5/3 26/24/3
f 24/5/3 29/5/3 30/25/3
f 29/5/4 27/5/4 30/26/4
f 27/5/4 29/5/4 28/27/4
f 27/5/5 24/5/5 30/28/5
f 24/5/5 27/5/5 23/29/5
f 25/2/6 29/3/6 26/11/6
f 29/3/6 25/2/6 28/1/6
f 33/3/1 32/2/1 31/1/1
f 32/3/1 33/2/1 34/1/1
f 35/3/2 33/2/2 31/1/2
f 33/3/2 35/2/2 36/1/2
f 37/5/3 32/5/3 34/30/3
f 32/5/3 37/5/3 38/31/3
f 37/5/4 35/5/4 38/32/4
f 35/5/4 37/5/4 36/33/4
f 35/5/5 32/5/5 38/34/5
f 32/5/5 35/5/5 31/35/5
f 33/2/6 37/3/6 34/11/6
f 37/3/6 33/2/6 36/1/6
f 41/3/1 40/2/1 39/1/1
f 40/3/1 41/2/1 42/1/1
f 43/3/2 41/2/2 39/1/2
f 41/3/2 43/2/2 44/1/2
f 45/5/3 40/5/3 42/36/3
f 40/5/3 45/5/3 46/37/3
f 45/5/4 43/5/4 46/38/4
f 43/5/4 45/5/4 44/39/4
f 43/5/5 40/5/5 46/40/5
f 40/5/5 43/5/5 39/41/5
f 41/2/6 45/3/6 42/11/6
f 45/3/6 41/2/6 44/1/6
f 45/3/1 47/2/1 46/1/1
f 47/3/1 45/2/1 48/1/1
f 49/3/2 45/2/2 46/1/2
f 45/3/2 49/2/2 50/1/2
f 51/5/3 47/5/3 48/42/3
f 47/5/3 51/5/3 52/43/3
f 51/5/4 49/5/4 52/44/4
f 49/5/4 51/5/4 50/45/4
f 49/5/5 47/5/5 52/46/5
f 47/5/5 49/5/5 46/40/5
f 45/2/6 51/3/6 48/11/6
f 51/3/6 45/2/6 50/1/6

usemtl color3

f 6/3/1 8/2/1 5/1/1
f 8/3/1 6/2/1 7/1/1
f 53/3/2 6/2/2 5/1/2
f 6/3/2 53/2/2 54/1/2
f 55/5/3 8/6/3 7/5/3
f 8/6/3 55/5/3 56/47/3
f 55/5/4 53/5/4 56/48/4
f 53/5/4 55/5/4 54/49/4
f 53/5/5 8/9/5 56/50/5
f 8/9/5 53/5/5 5/5/5
f 6/2/6 55/3/6 7/11/6
f 55/3/6 6/2/6 54/1/6
f 59/3/1 58/2/1 57/1/1
f 58/3/1 59/2/1 60/1/1
f 61/3/2 59/2/2 57/1/2
f 59/3/2 61/2/2 62/1/2
f 63/5/3 58/5/3 60/51/3
f 58/5/3 63/5/3 64/52/3
f 63/5/4 61/5/4 64/53/4
f 61/5/4 63/5/4 62/54/4
f 61/5/5 58/5/5 64/55/5
f 58/5/5 61/5/5 57/56/5
f 59/2/6 63/3/6 60/11/6
f 63/3/6 59/2/6 62/1/6
f 67/3/1 66/2/1 65/1/1
f 66/3/1 67/2/1 68/1/1
f 69/3/2 67/2/2 65/1/2
f 67/3/2 69/2/2 70/1/2
f 71/5/3 66/5/3 68/57/3
f 66/5/3 71/5/3 72/58/3
f 71/5/4 69/5/4 72/59/4
f 69/5/4 71/5/4 70/60/4
f 69/5/5 66/5/5 72/61/5
f 66/5/5 69/5/5 65/62/5
f 67/2/6 71/3/6 68/11/6
f 71/3/6 67/2/6 70/1/6
f 75/3/1 74/2/1 73/1/1
f 74/3/1 75/2/1 76/1/1
f 77/3/2 75/2/2 73/1/2
f 75/3/2 77/2/2 78/1/2
f 79/5/3 74/5/3 76/63/3
f 74/5/3 79/5/3 80/64/3
f 79/5/4 77/5/4 80/65/4
f 77/5/4 79/5/4 78/66/4
f 77/5/5 74/5/5 80/67/5
f 74/5/5 77/5/5 73/68/5
f 75/2/6 79/3/6 76/11/6
f 79/3/6 75/2/6 78/1/6
f 83/3/1 82/2/1 81/1/1
f 82/3/1 83/2/1 84/1/1
f 85/3/2 83/2/2 81/1/2
f 83/3/2 85/2/2 86/1/2
f 87/5/3 82/5/3 84/69/3
f 82/5/3 87/5/3 88/70/3
f 87/5/4 85/5/4 88/71/4
f 85/5/4 87/5/4 86/72/4
f 85/5/5 82/5/5 88/73/5
f 82/5/5 85/5/5 81/74/5
f 83/2/6 87/3/6 84/11/6
f 87/3/6 83/2/6 86/1/6
f 91/3/1 90/2/1 89/1/1
f 90/3/1 91/2/1 92/1/1
f 93/3/2 91/2/2 89/1/2
f 91/3/2 93/2/2 94/1/2
f 95/5/3 90/5/3 92/75/3
f 90/5/3 95/5/3 96/76/3
f 95/5/4 93/5/4 96/77/4
f 93/5/4 95/5/4 94/78/4
f 93/5/5 90/5/5 96/79/5
f 90/5/5 93/5/5 89/80/5
f 91/2/6 95/3/6 92/11/6
f 95/3/6 91/2/6 94/1/6
f 99/3/1 98/2/1 97/1/1
f 98/3/1 99/2/1 100/1/1
f 101/3/2 99/2/2 97/1/2
f 99/3/2 101/2/2 102/1/2
f 103/5/3 98/5/3 100/81/3
f 98/5/3 103/5/3 104/82/3
f 103/5/4 101/5/4 104/83/4
f 101/5/4 103/5/4 102/84/4
f 101/5/5 98/5/5 104/85/5
f 98/5/5 101/5/5 97/86/5
f 99/2/6 103/3/6 100/11/6
f 103/3/6 99/2/6 102/1/6
f 107/3/1 106/2/1 105/1/1
f 106/3/1 107/2/1 108/1/1
f 109/3/2 107/2/2 105/1/2
f 107/3/2 109/2/2 110/1/2
f 111/5/3 106/5/3 108/87/3
f 106/5/3 111/5/3 112/88/3
f 111/5/4 109/5/4 112/89/4
f 109/5/4 111/5/4 110/90/4
f 109/5/5 106/5/5 112/91/5
f 106/5/5 109/5/5 105/92/5
f 107/2/6 111/3/6 108/11/6
f 111/3/6 107/2/6 110/1/6
f 115/3/1 114/2/1 113/1/1
f 114/3/1 115/2/1 116/1/1
f 117/3/2 115/2/2 113/1/2
f 115/3/2 117/2/2 118/1/2
f 119/5/3 114/5/3 116/93/3
f 114/5/3 119/5/3 120/94/3
f 119/5/4 117/5/4 120/95/4
f 117/5/4 119/5/4 118/96/4
f 117/5/5 114/5/5 120/97/5
f 114/5/5 117/5/5 113/98/5
f 115/2/6 119/3/6 116/11/6
f 119/3/6 115/2/6 118/1/6
f 123/3/1 122/2/1 121/1/1
f 122/3/1 123/2/1 124/1/1
f 125/3/2 123/2/2 121/1/2
f 123/3/2 125/2/2 126/1/2
f 127/5/3 122/5/3 124/99/3
f 122/5/3 127/5/3 128/100/3
f 127/5/4 125/5/4 128/101/4
f 125/5/4 127/5/4 126/102/4
f 125/5/5 122/5/5 128/103/5
f 122/5/5 125/5/5 121/104/5
f 123/2/6 127/3/6 124/11/6
f 127/3/6 123/2/6 126/1/6
f 50/3/1 52/2/1 49/1/1
f 52/3/1 50/2/1 51/1/1
f 122/3/2 50/2/2 49/1/2
f 50/3/2 122/2/2 124/1/2
f 129/5/3 52/43/3 51/5/3
f 52/43/3 129/5/3 130/105/3
f 129/5/4 122/5/4 130/106/4
f 122/5/4 129/5/4 124/107/4
f 122/5/5 52/46/5 130/108/5
f 52/46/5 122/5/5 49/5/5
f 50/2/6 129/3/6 51/11/6
f 129/3/6 50/2/6 124/1/6

usemtl color5

f 133/3/1 132/2/1 131/1/1
f 132/3/1 133/2/1 134/1/1
f 135/3/2 133/2/2 131/1/2
f 133/3/2 135/2/2 136/1/2
f 137/5/3 132/5/3 134/109/3
f 132/5/3 137/5/3 138/110/3
f 137/5/4 135/5/4 138/111/4
f 135/5/4 137/5/4 136/112/4
f 135/5/5 132/5/5 138/113/5
f 132/5/5 135/5/5 131/114/5
f 133/2/6 137/3/6 134/11/6
f 137/3/6 133/2/6 136/1/6
f 141/3/1 140/2/1 139/1/1
f 140/3/1 141/2/1 142/1/1
f 132/3/2 141/2/2 139/1/2
f 141/3/2 132/2/2 134/1/2
f 143/5/3 140/5/3 142/115/3
f 140/5/3 143/5/3 144/116/3
f 143/5/4 132/5/4 144/117/4
f 132/5/4 143/5/4 134/118/4
f 132/5/5 140/5/5 144/119/5
f 140/5/5 132/5/5 139/120/5
f 141/2/6 143/3/6 142/11/6
f 143/3/6 141/2/6 134/1/6
f 147/3/1 146/2/1 145/1/1
f 146/3/1 147/2/1 148/1/1
f 149/3/2 147/2/2 145/1/2
f 147/3/2 149/2/2 150/1/2
f 151/5/3 146/5/3 148/121/3
f 146/5/3 151/5/3 152/122/3
f 151/5/4 149/5/4 152/123/4
f 149/5/4 151/5/4 150/124/4
f 149/5/5 146/5/5 152/125/5
f 146/5/5 149/5/5 145/126/5
f 147/2/6 151/3/6 148/11/6
f 151/3/6 147/2/6 150/1/6
f 155/3/1 154/2/1 153/1/1
f 154/3/1 155/2/1 156/1/1
f 157/3/2 155/2/2 153/1/2
f 155/3/2 157/2/2 158/1/2
f 159/5/3 154/5/3 156/127/3
f 154/5/3 159/5/3 160/128/3
f 159/5/4 157/5/4 160/129/4
f 157/5/4 159/5/4 158/130/4
f 157/5/5 154/5/5 160/131/5
f 154/5/5 157/5/5 153/132/5
f 155/2/6 159/3/6 156/11/6
f 159/3/6 155/2/6 158/1/6
f 163/3/1 162/2/1 161/1/1
f 162/3/1 163/2/1 164/1/1
f 165/3/2 163/2/2 161/1/2
f 163/3/2 165/2/2 166/1/2
f 167/5/3 162/5/3 164/133/3
f 162/5/3 167/5/3 168/134/3
f 167/5/4 165/5/4 168/135/4
f 165/5/4 167/5/4 166/136/4
f 165/5/5 162/5/5 168/137/5
f 162/5/5 165/5/5 161/138/5
f 163/2/6 167/3/6 164/11/6
f 167/3/6 163/2/6 166/1/6
f 171/3/1 170/2/1 169/1/1
f 170/3/1 171/2/1 172/1/1
f 173/3/2 171/2/2 169/1/2
f 171/3/2 173/2/2 174/1/2
f 175/5/3 170/5/3 172/139/3
f 170/5/3 175/5/3 176/140/3
f 175/5/4 173/5/4 176/141/4
f 173/5/4 175/5/4 174/142/4
f 173/5/5 170/5/5 176/143/5
f 170/5/5 173/5/5 169/144/5
f 171/2/6 175/3/6 172/11/6
f 175/3/6 171/2/6 174/1/6

usemtl color6

f 14/3/1 16/2/1 13/1/1
f 16/3/1 14/2/1 15/1/1
f 177/3/2 14/2/2 13/1/2
f 14/3/2 177/2/2 178/1/2
f 179/5/3 16/13/3 15/5/3
f 16/13/3 179/5/3 180/145/3
f 179/5/4 177/5/4 180/146/4
f 177/5/4 179/5/4 178/147/4
f 177/5/5 16/16/5 180/148/5
f 16/16/5 177/5/5 13/5/5
f 14/2/6 179/3/6 15/11/6
f 179/3/6 14/2/6 178/1/6
f 179/3/1 181/2/1 180/1/1
f 181/3/1 179/2/1 182/1/1
f 183/3/2 179/2/2 180/1/2
f 179/3/2 183/2/2 184/1/2
f 185/5/3 181/5/3 182/149/3
f 181/5/3 185/5/3 186/150/3
f 185/5/4 183/5/4 186/151/4
f 183/5/4 185/5/4 184/152/4
f 183/5/5 181/5/5 186/153/5
f 181/5/5 183/5/5 180/148/5
f 179/2/6 185/3/6 182/11/6
f 185/3/6 179/2/6 184/1/6
f 60/3/1 27/2/1 58/1/1
f 27/3/1 60/2/1 28/1/1
f 64/3/2 60/2/2 58/1/2
f 60/3/2 64/2/2 63/1/2
f 187/5/3 27/5/3 28/154/3
f 27/5/3 187/5/3 188/155/3
f 187/5/4 64/53/4 188/156/4
f 64/53/4 187/5/4 63/5/4
f 64/55/5 27/5/5 188/157/5
f 27/5/5 64/55/5 58/5/5
f 60/2/6 187/3/6 28/11/6
f 187/3/6 60/2/6 63/1/6
f 68/3/1 189/2/1 66/1/1
f 189/3/1 68/2/1 190/1/1
f 72/3/2 68/2/2 66/1/2
f 68/3/2 72/2/2 71/1/2
f 83/5/3 189/5/3 190/158/3
f 189/5/3 83/5/3 81/159/3
f 83/5/4 72/59/4 81/160/4
f 72/59/4 83/5/4 71/5/4
f 72/61/5 189/5/5 81/74/5
f 189/5/5 72/61/5 66/5/5
f 68/2/6 83/3/6 190/11/6
f 83/3/6 68/2/6 71/1/6
f 26/3/1 31/2/1 24/1/1
f 31/3/1 26/2/1 33/1/1
f 30/3/2 26/2/2 24/1/2
f 26/3/2 30/2/2 29/1/2
f 36/5/3 31/5/3 33/161/3
f 31/5/3 36/5/3 35/162/3
f 36/33/4 30/26/4 35/5/4
f 30/26/4 36/33/4 29/5/4
f 30/28/5 31/35/5 35/5/5
f 31/35/5 30/28/5 24/5/5
f 26/2/6 36/3/6 33/11/6
f 36/3/6 26/2/6 29/1/6
f 76/3/1 89/2/1 74/1/1
f 89/3/1 76/2/1 91/1/1
f 80/3/2 76/2/2 74/1/2
f 76/3/2 80/2/2 79/1/2
f 94/5/3 89/5/3 91/163/3
f 89/5/3 94/5/3 93/164/3
f 94/78/4 80/65/4 93/5/4
f 80/65/4 94/78/4 79/5/4
f 80/67/5 89/80/5 93/5/5
f 89/80/5 80/67/5 74/5/5
f 76/2/6 94/3/6 91/11/6
f 94/3/6 76/2/6 79/1/6
f 34/3/1 39/2/1 32/1/1
f 39/3/1 34/2/1 41/1/1
f 38/3/2 34/2/2 32/1/2
f 34/3/2 38/2/2 37/1/2
f 44/5/3 39/5/3 41/165/3
f 39/5/3 44/5/3 43/166/3
f 44/39/4 38/32/4 43/5/4
f 38/32/4 44/39/4 37/5/4
f 38/34/5 39/41/5 43/5/5
f 39/41/5 38/34/5 32/5/5
f 34/2/6 44/3/6 41/11/6
f 44/3/6 34/2/6 37/1/6
f 108/3/1 113/2/1 106/1/1
f 113/3/1 108/2/1 115/1/1
f 112/3/2 108/2/2 106/1/2
f 108/3/2 112/2/2 111/1/2
f 118/5/3 113/5/3 115/167/3
f 113/5/3 118/5/3 117/168/3
f 118/96/4 112/89/4 117/5/4
f 112/89/4 118/96/4 111/5/4
f 112/91/5 113/98/5 117/5/5
f 113/98/5 112/91/5 106/5/5
f 108/2/6 118/3/6 115/11/6
f 118/3/6 108/2/6 111/1/6

usemtl color7

f 55/3/1 191/2/1 56/1/1
f 191/3/1 55/2/1 192/1/1
f 193/3/2 55/2/2 56/1/2
f 55/3/2 193/2/2 194/1/2
f 195/5/3 191/5/3 192/169/3
f 191/5/3 195/5/3 196/170/3
f 195/5/4 193/5/4 196/171/4
f 193/5/4 195/5/4 194/172/4
f 193/5/5 191/5/5 196/173/5
f 191/5/5 193/5/5 56/50/5
f 55/2/6 195/3/6 192/11/6
f 195/3/6 55/2/6 194/1/6
f 79/3/1 93/2/1 80/1/1
f 93/3/1 79/2/1 94/1/1
f 152/3/2 79/2/2 80/1/2
f 79/3/2 152/2/2 151/1/2
f 158/5/3 93/164/3 94/5/3
f 93/164/3 158/5/3 157/174/3
f 158/130/4 152/123/4 157/5/4
f 152/123/4 158/130/4 151/5/4
f 152/125/5 93/5/5 157/5/5
f 93/5/5 152/125/5 80/67/5
f 79/2/6 158/3/6 94/11/6
f 158/3/6 79/2/6 151/1/6
f 84/3/1 97/2/1 82/1/1
f 97/3/1 84/2/1 99/1/1
f 88/3/2 84/2/2 82/1/2
f 84/3/2 88/2/2 87/1/2
f 102/5/3 97/5/3 99/175/3
f 97/5/3 102/5/3 101/176/3
f 102/84/4 88/71/4 101/5/4
f 88/71/4 102/84/4 87/5/4
f 88/73/5 97/86/5 101/5/5
f 97/86/5 88/73/5 82/5/5
f 84/2/6 102/3/6 99/11/6
f 102/3/6 84/2/6 87/1/6
f 111/3/1 117/2/1 112/1/1
f 117/3/1 111/2/1 118/1/1
f 168/3/2 111/2/2 112/1/2
f 111/3/2 168/2/2 167/1/2
f 174/5/3 117/168/3 118/5/3
f 117/168/3 174/5/3 173/177/3
f 174/142/4 168/135/4 173/5/4
f 168/135/4 174/142/4 167/5/4
f 168/137/5 117/5/5 173/5/5
f 117/5/5 168/137/5 112/91/5
f 111/2/6 174/3/6 118/11/6
f 174/3/6 111/2/6 167/1/6
f 100/3/1 121/2/1 98/1/1
f 121/3/1 100/2/1 123/1/1
f 104/3/2 100/2/2 98/1/2
f 100/3/2 104/2/2 103/1/2
f 126/5/3 121/5/3 123/178/3
f 121/5/3 126/5/3 125/179/3
f 126/102/4 104/83/4 125/5/4
f 104/83/4 126/102/4 103/5/4
f 104/85/5 121/104/5 125/5/5
f 121/104/5 104/85/5 98/5/5
f 100/2/6 126/3/6 123/11/6
f 126/3/6 100/2/6 103/1/6

usemtl color0

f 194/3/1 196/2/1 193/1/1
f 196/3/1 194/2/1 195/1/1
f 197/3/2 194/2/2 193/1/2
f 194/3/2 197/2/2 198/1/2
f 199/5/3 196/170/3 195/5/3
f 196/170/3 199/5/3 200/180/3
f 199/5/4 197/5/4 200/181/4
f 197/5/4 199/5/4 198/182/4
f 197/5/5 196/173/5 200/183/5
f 196/173/5 197/5/5 193/5/5
f 194/2/6 199/3/6 195/11/6
f 199/3/6 194/2/6 198/1/6

usemtl color4

f 62/3/1 64/2/1 61/1/1
f 64/3/1 62/2/1 63/1/1
f 65/3/2 62/2/2 61/1/2
f 62/3/2 65/2/2 67/1/2
f 68/57/3 64/52/3 63/5/3
f 64/52/3 68/57/3 66/5/3
f 68/5/4 65/5/4 66/184/4
f 65/5/4 68/5/4 67/185/4
f 65/62/5 64/55/5 66/5/5
f 64/55/5 65/62/5 61/5/5
f 62/2/6 68/3/6 63/11/6
f 68/3/6 62/2/6 67/1/6
f 142/3/1 201/2/1 140/1/1
f 201/3/1 142/2/1 202/1/1
f 144/3/2 142/2/2 140/1/2
f 142/3/2 144/2/2 143/1/2
f 203/5/3 201/5/3 202/186/3
f 201/5/3 203/5/3 204/187/3
f 203/5/4 144/117/4 204/188/4
f 144/117/4 203/5/4 143/5/4
f 144/119/5 201/5/5 204/189/5
f 201/5/5 144/119/5 140/5/5
f 142/2/6 203/3/6 202/11/6
f 203/3/6 142/2/6 143/1/6
f 78/3/1 80/2/1 77/1/1
f 80/3/1 78/2/1 79/1/1
f 145/3/2 78/2/2 77/1/2
f 78/3/2 145/2/2 147/1/2
f 148/121/3 80/64/3 79/5/3
f 80/64/3 148/121/3 146/5/3
f 148/5/4 145/5/4 146/190/4
f 145/5/4 148/5/4 147/191/4
f 145/126/5 80/67/5 146/5/5
f 80/67/5 145/126/5 77/5/5
f 78/2/6 148/3/6 79/11/6
f 148/3/6 78/2/6 147/1/6
f 118/3/1 120/2/1 117/1/1
f 120/3/1 118/2/1 119/1/1
f 169/3/2 118/2/2 117/1/2
f 118/3/2 169/2/2 171/1/2
f 172/139/3 120/94/3 119/5/3
f 120/94/3 172/139/3 170/5/3
f 172/5/4 169/5/4 170/192/4
f 169/5/4 172/5/4 171/193/4
f 169/144/5 120/97/5 170/5/5
f 120/97/5 169/144/5 117/5/5
f 118/2/6 172/3/6 119/11/6
f 172/3/6 118/2/6 171/1/6

usemtl color12

f 207/3/1 206/2/1 205/1/1
f 206/3/1 207/2/1 208/1/1
f 209/3/2 207/2/2 205/1/2
f 207/3/2 209/2/2 210/1/2
f 211/5/3 206/5/3 208/194/3
f 206/5/3 211/5/3 212/195/3
f 211/5/4 209/5/4 212/196/4
f 209/5/4 211/5/4 210/197/4
f 209/5/5 206/5/5 212/198/5
f 206/5/5 209/5/5 205/199/5
f 207/2/6 211/3/6 208/11/6
f 211/3/6 207/2/6 210/1/6

usemtl color10

f 94/3/1 96/2/1 93/1/1
f 96/3/1 94/2/1 95/1/1
f 153/3/2 94/2/2 93/1/2
f 94/3/2 153/2/2 155/1/2
f 156/127/3 96/76/3 95/5/3
f 96/76/3 156/127/3 154/5/3
f 156/5/4 153/5/4 154/200/4
f 153/5/4 156/5/4 155/201/4
f 153/132/5 96/79/5 154/5/5
f 96/79/5 153/132/5 93/5/5
f 94/2/6 156/3/6 95/11/6
f 156/3/6 94/2/6 155/1/6
f 92/3/1 213/2/1 90/1/1
f 213/3/1 92/2/1 214/1/1
f 96/3/2 92/2/2 90/1/2
f 92/3/2 96/2/2 95/1/2
f 215/5/3 213/5/3 214/202/3
f 213/5/3 215/5/3 216/203/3
f 215/5/4 96/77/4 216/204/4
f 96/77/4 215/5/4 95/5/4
f 96/79/5 213/5/5 216/205/5
f 213/5/5 96/79/5 90/5/5
f 92/2/6 215/3/6 214/11/6
f 215/3/6 92/2/6 95/1/6
f 218/3/1 161/2/1 217/1/1
f 161/3/1 218/2/1 163/1/1
f 219/3/2 218/2/2 217/1/2
f 218/3/2 219/2/2 220/1/2
f 166/5/3 161/5/3 163/206/3
f 161/5/3 166/5/3 165/207/3
f 166/136/4 219/5/4 165/5/4
f 219/5/4 166/136/4 220/208/4
f 219/5/5 161/138/5 165/5/5
f 161/138/5 219/5/5 217/209/5
f 218/2/6 166/3/6 163/11/6
f 166/3/6 218/2/6 220/1/6

usemtl color11

f 95/3/1 216/2/1 96/1/1
f 216/3/1 95/2/1 215/1/1
f 154/3/2 95/2/2 96/1/2
f 95/3/2 154/2/2 156/1/2
f 218/5/3 216/203/3 215/5/3
f 216/203/3 218/5/3 217/210/3
f 218/5/4 154/200/4 217/211/4
f 154/200/4 218/5/4 156/5/4
f 154/5/5 216/205/5 217/209/5
f 216/205/5 154/5/5 96/79/5
f 95/2/6 218/3/6 215/11/6
f 218/3/6 95/2/6 156/1/6

usemtl color9

f 156/3/1 217/2/1 154/1/1
f 217/3/1 156/2/1 218/1/1
f 160/3/2 156/2/2 154/1/2
f 156/3/2 160/2/2 159/1/2
f 220/5/3 217/210/3 218/5/3
f 217/210/3 220/5/3 219/212/3
f 220/208/4 160/129/4 219/5/4
f 160/129/4 220/208/4 159/5/4
f 160/131/5 217/209/5 219/5/5
f 217/209/5 160/131/5 154/5/5
f 156/2/6 220/3/6 218/11/6
f 220/3/6 156/2/6 159/1/6
f 215/3/1 109/2/1 216/1/1
f 109/3/1 215/2/1 110/1/1
f 217/3/2 215/2/2 216/1/2
f 215/3/2 217/2/2 218/1/2
f 163/206/3 109/5/3 110/213/3
f 109/5/3 163/206/3 161/5/3
f 163/5/4 217/211/4 161/214/4
f 217/211/4 163/5/4 218/5/4
f 217/209/5 109/5/5 161/138/5
f 109/5/5 217/209/5 216/205/5
f 215/2/6 163/3/6 110/11/6
f 163/3/6 215/2/6 218/1/6

usemtl color8

f 214/3/1 105/2/1 213/1/1
f 105/3/1 214/2/1 107/1/1
f 216/3/2 214/2/2 213/1/2
f 214/3/2 216/2/2 215/1/2
f 110/213/3 105/5/3 107/215/3
f 105/5/3 110/213/3 109/5/3
f 110/90/4 216/204/4 109/5/4
f 216/204/4 110/90/4 215/5/4
f 216/205/5 105/92/5 109/5/5
f 105/92/5 216/205/5 213/5/5
f 214/2/6 110/3/6 107/11/6
f 110/3/6 214/2/6 215/1/6
f 110/3/1 112/2/1 109/1/1
f 112/3/1 110/2/1 111/1/1
f 161/3/2 110/2/2 109/1/2
f 110/3/2 161/2/2 163/1/2
f 164/133/3 112/88/3 111/5/3
f 112/88/3 164/133/3 162/5/3
f 164/5/4 161/214/4 162/216/4
f 161/214/4 164/5/4 163/5/4
f 161/138/5 112/91/5 162/5/5
f 112/91/5 161/138/5 109/5/5
f 110/2/6 164/3/6 111/11/6
f 164/3/6 110/2/6 163/1/6

