# Created by Kenney (www.kenney.nl)

mtllib Device KEA Didiza.mtl

v 4 6 -1.65
v 4 5 -1.65
v 4 6 1.65
v 4 5 1.65
v 3 6 -1.65
v 3 6 1.65
v 3 5 1.65
v 3 5 -1.65
v -3 6 -1.65
v -3 5 -1.65
v -3 6 1.65
v -3 5 1.65
v -4 6 -1.65
v -4 6 1.65
v -4 5 1.65
v -4 5 -1.65
v 3 4 -1.1
v 3 3 -1.1
v 3 4 1.1
v 3 3 1.1
v -3 4 -1.1
v -3 4 1.1
v -3 3 1.1
v -3 3 -1.1
v 4 2 -1.65
v 4 -5 -1.65
v 4 2 1.65
v 4 -5 1.65
v 3 2 -1.65
v 3 2 1.65
v 3 -5 1.65
v 3 -5 -1.65
v -3 2 -1.65
v -3 -5 -1.65
v -3 2 1.65
v -3 -5 1.65
v -4 2 -1.65
v -4 2 1.65
v -4 -5 1.65
v -4 -5 -1.65
v 2 -1 -2.2
v 2 -5 -2.2
v 2 -1 2.2
v 2 -5 2.2
v 1 -1 -2.2
v 1 -1 2.2
v 1 -5 2.2
v 1 -5 -2.2
v -1 -1 -2.2
v -1 -5 -2.2
v -1 -1 2.2
v -1 -5 2.2
v -2 -1 -2.2
v -2 -1 2.2
v -2 -5 2.2
v -2 -5 -2.2
v 2 6 -1.65
v 2 6 1.65
v 2 5 1.65
v 2 5 -1.65
v -2 6 -1.65
v -2 5 -1.65
v -2 6 1.65
v -2 5 1.65
v 3 -4 -1.65
v 3 -4 1.65
v 2 2 -1.65
v 2 2 1.65
v 2 -4 1.65
v 2 -4 -1.65
v 2 1 -1.65
v 2 1 1.65
v -3 1 1.65
v -3 1 -1.65
v 2 -1 -1.65
v 2 -1 1.65
v -3 -1 1.65
v -3 -1 -1.65
v 1 -1 -1.65
v 1 -4 -1.65
v 1 -1 1.65
v 1 -4 1.65
v -1 -1 -1.65
v -1 -1 1.65
v -1 -4 1.65
v -1 -4 -1.65
v -2 -1 -1.65
v -2 -4 -1.65
v -2 -1 1.65
v -2 -4 1.65
v -3 -4 1.65
v -3 -4 -1.65
v 3 3 -1.65
v 3 3 1.65
v -3 3 -1.65
v -3 3 1.65
v 4 4 -1.65
v 4 4 1.65
v 3 4 1.65
v 3 4 -1.65
v -3 4 -1.65
v -3 4 1.65
v -4 4 1.65
v -4 4 -1.65
v 2 4 1.65
v 2 4 -1.65
v 1 5 -1.65
v 1 4 -1.65
v 1 5 1.65
v 1 4 1.65
v -1 5 -1.65
v -1 5 1.65
v -1 4 1.65
v -1 4 -1.65
v -2 4 -1.65
v -2 4 1.65
v 4 4 -1.1
v 4 3 -1.1
v 4 4 1.1
v 4 3 1.1
v -4 4 -1.1
v -4 4 1.1
v -4 3 1.1
v -4 3 -1.1
v 2 -5 1.65
v 2 -5 -1.65
v 1 -5 -1.65
v 1 -5 1.65
v -1 -5 1.65
v -1 -5 -1.65
v -2 -5 -1.65
v -2 -5 1.65
v 4 3 -1.65
v 4 3 1.65
v -4 3 -1.65
v -4 3 1.65

vn 1 0 0
vn 0 1 0
vn 0 -1 0
vn -1 0 0
vn 0 0 -1
vn 0 0 1

vt -19.68504 19.68504
vt 19.68504 19.68504
vt -19.68504 -19.68504
vt 0 NaN
vt 0 0
vt 0 NaN
vt 0 NaN
vt 0 NaN
vt 0 NaN
vt 0 NaN
vt 19.68504 -19.68504
vt 0 NaN
vt 0 NaN
vt 0 NaN
vt 0 NaN
vt 0 NaN
vt 0 NaN
vt 0 NaN
vt 0 NaN
vt 0 NaN
vt 0 NaN
vt 0 NaN
vt 0 NaN
vt 0 NaN
vt 0 NaN
vt 0 NaN
vt 0 NaN
vt 0 NaN
vt 0 NaN
vt 0 NaN
vt 0 NaN
vt 0 NaN
vt 0 NaN
vt 0 NaN
vt 0 NaN
vt 0 NaN
vt 0 NaN
vt 0 NaN
vt 0 NaN
vt 0 NaN
vt 0 NaN
vt 0 NaN
vt 0 NaN
vt 0 NaN
vt 0 NaN
vt 0 NaN
vt 0 NaN
vt 0 NaN
vt 0 NaN
vt 0 NaN
vt 0 NaN
vt 0 NaN
vt 0 NaN
vt 0 NaN
vt 0 NaN
vt 0 NaN
vt 0 NaN
vt 0 NaN
vt 0 NaN
vt 0 NaN
vt 0 NaN
vt 0 NaN
vt 0 NaN
vt 0 NaN
vt 0 NaN
vt 0 NaN
vt 0 NaN
vt 0 NaN
vt 0 NaN
vt 0 NaN
vt 0 NaN
vt 0 NaN
vt 0 NaN
vt 0 NaN
vt 0 NaN
vt 0 NaN
vt 0 NaN
vt 0 NaN
vt 0 NaN
vt 0 NaN
vt 0 NaN
vt 0 NaN
vt 0 NaN
vt 0 NaN
vt 0 NaN
vt 0 NaN
vt 0 NaN
vt 0 NaN
vt 0 NaN
vt 0 NaN
vt 0 NaN
vt 0 NaN
vt 0 NaN
vt 0 NaN
vt 0 NaN
vt 0 NaN
vt 0 NaN
vt 0 NaN
vt 0 NaN
vt 0 NaN
vt 0 NaN
vt 0 NaN
vt 0 NaN
vt 0 NaN
vt 0 NaN
vt 0 NaN
vt 0 NaN
vt 0 NaN
vt 0 NaN
vt 0 NaN
vt 0 NaN
vt 0 NaN
vt 0 NaN
vt 0 NaN
vt 0 NaN
vt 0 NaN
vt 0 NaN
vt 0 NaN
vt 0 NaN
vt 0 NaN
vt 0 NaN
vt 0 NaN
vt 0 NaN
vt 0 NaN
vt 0 NaN
vt 0 NaN
vt 0 NaN
vt 0 NaN
vt 0 NaN
vt 0 NaN

usemtl color1

f 3/3/1 2/2/1 1/1/1
f 2/3/1 3/2/1 4/1/1
f 5/3/2 3/2/2 1/1/2
f 3/3/2 5/2/2 6/1/2
f 7/5/3 2/5/3 4/4/3
f 2/5/3 7/5/3 8/6/3
f 7/5/4 5/5/4 8/7/4
f 5/5/4 7/5/4 6/8/4
f 5/5/5 2/5/5 8/9/5
f 2/5/5 5/5/5 1/10/5
f 3/2/6 7/3/6 4/11/6
f 7/3/6 3/2/6 6/1/6
f 11/3/1 10/2/1 9/1/1
f 10/3/1 11/2/1 12/1/1
f 13/3/2 11/2/2 9/1/2
f 11/3/2 13/2/2 14/1/2
f 15/5/3 10/5/3 12/12/3
f 10/5/3 15/5/3 16/13/3
f 15/5/4 13/5/4 16/14/4
f 13/5/4 15/5/4 14/15/4
f 13/5/5 10/5/5 16/16/5
f 10/5/5 13/5/5 9/17/5
f 11/2/6 15/3/6 12/11/6
f 15/3/6 11/2/6 14/1/6
f 3/3/1 2/2/1 1/1/1
f 2/3/1 3/2/1 4/1/1
f 5/3/2 3/2/2 1/1/2
f 3/3/2 5/2/2 6/1/2
f 7/5/3 2/5/3 4/4/3
f 2/5/3 7/5/3 8/6/3
f 7/5/4 5/5/4 8/7/4
f 5/5/4 7/5/4 6/8/4
f 5/5/5 2/5/5 8/9/5
f 2/5/5 5/5/5 1/10/5
f 3/2/6 7/3/6 4/11/6
f 7/3/6 3/2/6 6/1/6
f 19/3/1 18/2/1 17/1/1
f 18/3/1 19/2/1 20/1/1
f 21/3/2 19/2/2 17/1/2
f 19/3/2 21/2/2 22/1/2
f 23/5/3 18/5/3 20/18/3
f 18/5/3 23/5/3 24/19/3
f 23/5/4 21/5/4 24/20/4
f 21/5/4 23/5/4 22/21/4
f 21/5/5 18/5/5 24/22/5
f 18/5/5 21/5/5 17/23/5
f 19/2/6 23/3/6 20/11/6
f 23/3/6 19/2/6 22/1/6
f 27/3/1 26/2/1 25/1/1
f 26/3/1 27/2/1 28/1/1
f 29/3/2 27/2/2 25/1/2
f 27/3/2 29/2/2 30/1/2
f 31/5/3 26/5/3 28/24/3
f 26/5/3 31/5/3 32/25/3
f 31/5/4 29/5/4 32/26/4
f 29/5/4 31/5/4 30/27/4
f 29/5/5 26/5/5 32/28/5
f 26/5/5 29/5/5 25/29/5
f 27/2/6 31/3/6 28/11/6
f 31/3/6 27/2/6 30/1/6
f 35/3/1 34/2/1 33/1/1
f 34/3/1 35/2/1 36/1/1
f 37/3/2 35/2/2 33/1/2
f 35/3/2 37/2/2 38/1/2
f 39/5/3 34/5/3 36/30/3
f 34/5/3 39/5/3 40/31/3
f 39/5/4 37/5/4 40/32/4
f 37/5/4 39/5/4 38/33/4
f 37/5/5 34/5/5 40/34/5
f 34/5/5 37/5/5 33/35/5
f 35/2/6 39/3/6 36/11/6
f 39/3/6 35/2/6 38/1/6
f 43/3/1 42/2/1 41/1/1
f 42/3/1 43/2/1 44/1/1
f 45/3/2 43/2/2 41/1/2
f 43/3/2 45/2/2 46/1/2
f 47/5/3 42/5/3 44/36/3
f 42/5/3 47/5/3 48/37/3
f 47/5/4 45/5/4 48/38/4
f 45/5/4 47/5/4 46/39/4
f 45/5/5 42/5/5 48/40/5
f 42/5/5 45/5/5 41/41/5
f 43/2/6 47/3/6 44/11/6
f 47/3/6 43/2/6 46/1/6
f 51/3/1 50/2/1 49/1/1
f 50/3/1 51/2/1 52/1/1
f 53/3/2 51/2/2 49/1/2
f 51/3/2 53/2/2 54/1/2
f 55/5/3 50/5/3 52/42/3
f 50/5/3 55/5/3 56/43/3
f 55/5/4 53/5/4 56/44/4
f 53/5/4 55/5/4 54/45/4
f 53/5/5 50/5/5 56/46/5
f 50/5/5 53/5/5 49/47/5
f 51/2/6 55/3/6 52/11/6
f 55/3/6 51/2/6 54/1/6

usemtl color3

f 6/3/1 8/2/1 5/1/1
f 8/3/1 6/2/1 7/1/1
f 57/3/2 6/2/2 5/1/2
f 6/3/2 57/2/2 58/1/2
f 59/5/3 8/6/3 7/5/3
f 8/6/3 59/5/3 60/48/3
f 59/5/4 57/5/4 60/49/4
f 57/5/4 59/5/4 58/50/4
f 57/5/5 8/9/5 60/51/5
f 8/9/5 57/5/5 5/5/5
f 6/2/6 59/3/6 7/11/6
f 59/3/6 6/2/6 58/1/6
f 63/3/1 62/2/1 61/1/1
f 62/3/1 63/2/1 64/1/1
f 9/3/2 63/2/2 61/1/2
f 63/3/2 9/2/2 11/1/2
f 12/12/3 62/5/3 64/52/3
f 62/5/3 12/12/3 10/5/3
f 12/5/4 9/5/4 10/53/4
f 9/5/4 12/5/4 11/54/4
f 9/17/5 62/5/5 10/5/5
f 62/5/5 9/17/5 61/55/5
f 63/2/6 12/3/6 64/11/6
f 12/3/6 63/2/6 11/1/6
f 30/3/1 65/2/1 29/1/1
f 65/3/1 30/2/1 66/1/1
f 67/3/2 30/2/2 29/1/2
f 30/3/2 67/2/2 68/1/2
f 69/5/3 65/5/3 66/56/3
f 65/5/3 69/5/3 70/57/3
f 69/5/4 67/5/4 70/58/4
f 67/5/4 69/5/4 68/59/4
f 67/5/5 65/5/5 70/60/5
f 65/5/5 67/5/5 29/5/5
f 30/2/6 69/3/6 66/11/6
f 69/3/6 30/2/6 68/1/6
f 68/3/1 71/2/1 67/1/1
f 71/3/1 68/2/1 72/1/1
f 33/3/2 68/2/2 67/1/2
f 68/3/2 33/2/2 35/1/2
f 73/5/3 71/5/3 72/61/3
f 71/5/3 73/5/3 74/62/3
f 73/5/4 33/5/4 74/63/4
f 33/5/4 73/5/4 35/64/4
f 33/35/5 71/5/5 74/65/5
f 71/5/5 33/35/5 67/5/5
f 68/2/6 73/3/6 72/11/6
f 73/3/6 68/2/6 35/1/6
f 72/3/1 75/2/1 71/1/1
f 75/3/1 72/2/1 76/1/1
f 74/3/2 72/2/2 71/1/2
f 72/3/2 74/2/2 73/1/2
f 77/5/3 75/5/3 76/66/3
f 75/5/3 77/5/3 78/67/3
f 77/5/4 74/63/4 78/68/4
f 74/63/4 77/5/4 73/5/4
f 74/65/5 75/5/5 78/69/5
f 75/5/5 74/65/5 71/5/5
f 72/2/6 77/3/6 76/11/6
f 77/3/6 72/2/6 73/1/6
f 81/3/1 80/2/1 79/1/1
f 80/3/1 81/2/1 82/1/1
f 83/3/2 81/2/2 79/1/2
f 81/3/2 83/2/2 84/1/2
f 85/5/3 80/5/3 82/70/3
f 80/5/3 85/5/3 86/71/3
f 85/5/4 83/5/4 86/72/4
f 83/5/4 85/5/4 84/73/4
f 83/5/5 80/5/5 86/74/5
f 80/5/5 83/5/5 79/75/5
f 81/2/6 85/3/6 82/11/6
f 85/3/6 81/2/6 84/1/6
f 89/3/1 88/2/1 87/1/1
f 88/3/1 89/2/1 90/1/1
f 78/3/2 89/2/2 87/1/2
f 89/3/2 78/2/2 77/1/2
f 91/5/3 88/5/3 90/76/3
f 88/5/3 91/5/3 92/77/3
f 91/5/4 78/68/4 92/78/4
f 78/68/4 91/5/4 77/5/4
f 78/69/5 88/5/5 92/79/5
f 88/5/5 78/69/5 87/80/5
f 89/2/6 91/3/6 90/11/6
f 91/3/6 89/2/6 77/1/6
f 68/3/1 71/2/1 67/1/1
f 71/3/1 68/2/1 72/1/1
f 33/3/2 68/2/2 67/1/2
f 68/3/2 33/2/2 35/1/2
f 73/5/3 71/5/3 72/61/3
f 71/5/3 73/5/3 74/62/3
f 73/5/4 33/5/4 74/63/4
f 33/5/4 73/5/4 35/64/4
f 33/35/5 71/5/5 74/65/5
f 71/5/5 33/35/5 67/5/5
f 68/2/6 73/3/6 72/11/6
f 73/3/6 68/2/6 35/1/6

usemtl color5

f 58/3/1 60/2/1 57/1/1
f 60/3/1 58/2/1 59/1/1
f 61/3/2 58/2/2 57/1/2
f 58/3/2 61/2/2 63/1/2
f 64/52/3 60/48/3 59/5/3
f 60/48/3 64/52/3 62/5/3
f 64/5/4 61/5/4 62/81/4
f 61/5/4 64/5/4 63/82/4
f 61/55/5 60/51/5 62/5/5
f 60/51/5 61/55/5 57/5/5
f 58/2/6 64/3/6 59/11/6
f 64/3/6 58/2/6 63/1/6
f 94/3/1 29/2/1 93/1/1
f 29/3/1 94/2/1 30/1/1
f 95/3/2 94/2/2 93/1/2
f 94/3/2 95/2/2 96/1/2
f 35/5/3 29/5/3 30/83/3
f 29/5/3 35/5/3 33/84/3
f 35/64/4 95/5/4 33/5/4
f 95/5/4 35/64/4 96/85/4
f 95/5/5 29/5/5 33/35/5
f 29/5/5 95/5/5 93/86/5
f 94/2/6 35/3/6 30/11/6
f 35/3/6 94/2/6 96/1/6

usemtl color7

f 4/3/1 97/2/1 2/1/1
f 97/3/1 4/2/1 98/1/1
f 8/3/2 4/2/2 2/1/2
f 4/3/2 8/2/2 7/1/2
f 99/5/3 97/5/3 98/87/3
f 97/5/3 99/5/3 100/88/3
f 99/5/4 8/7/4 100/89/4
f 8/7/4 99/5/4 7/5/4
f 8/9/5 97/5/5 100/90/5
f 97/5/5 8/9/5 2/5/5
f 4/2/6 99/3/6 98/11/6
f 99/3/6 4/2/6 7/1/6
f 12/3/1 101/2/1 10/1/1
f 101/3/1 12/2/1 102/1/1
f 16/3/2 12/2/2 10/1/2
f 12/3/2 16/2/2 15/1/2
f 103/5/3 101/5/3 102/91/3
f 101/5/3 103/5/3 104/92/3
f 103/5/4 16/14/4 104/93/4
f 16/14/4 103/5/4 15/5/4
f 16/16/5 101/5/5 104/94/5
f 101/5/5 16/16/5 10/5/5
f 12/2/6 103/3/6 102/11/6
f 103/3/6 12/2/6 15/1/6

usemtl color8

f 7/3/1 100/2/1 8/1/1
f 100/3/1 7/2/1 99/1/1
f 60/3/2 7/2/2 8/1/2
f 7/3/2 60/2/2 59/1/2
f 105/5/3 100/88/3 99/5/3
f 100/88/3 105/5/3 106/95/3
f 105/5/4 60/49/4 106/96/4
f 60/49/4 105/5/4 59/5/4
f 60/51/5 100/90/5 106/97/5
f 100/90/5 60/51/5 8/9/5
f 7/2/6 105/3/6 99/11/6
f 105/3/6 7/2/6 59/1/6
f 109/3/1 108/2/1 107/1/1
f 108/3/1 109/2/1 110/1/1
f 111/3/2 109/2/2 107/1/2
f 109/3/2 111/2/2 112/1/2
f 113/5/3 108/5/3 110/98/3
f 108/5/3 113/5/3 114/99/3
f 113/5/4 111/5/4 114/100/4
f 111/5/4 113/5/4 112/101/4
f 111/5/5 108/5/5 114/102/5
f 108/5/5 111/5/5 107/103/5
f 109/2/6 113/3/6 110/11/6
f 113/3/6 109/2/6 112/1/6
f 64/3/1 115/2/1 62/1/1
f 115/3/1 64/2/1 116/1/1
f 10/3/2 64/2/2 62/1/2
f 64/3/2 10/2/2 12/1/2
f 102/91/3 115/5/3 116/104/3
f 115/5/3 102/91/3 101/5/3
f 102/5/4 10/53/4 101/105/4
f 10/53/4 102/5/4 12/5/4
f 10/5/5 115/5/5 101/5/5
f 115/5/5 10/5/5 62/5/5
f 64/2/6 102/3/6 116/11/6
f 102/3/6 64/2/6 12/1/6

usemtl color9

f 59/3/1 106/2/1 60/1/1
f 106/3/1 59/2/1 105/1/1
f 107/3/2 59/2/2 60/1/2
f 59/3/2 107/2/2 109/1/2
f 110/98/3 106/95/3 105/5/3
f 106/95/3 110/98/3 108/5/3
f 110/5/4 107/5/4 108/106/4
f 107/5/4 110/5/4 109/107/4
f 107/103/5 106/97/5 108/5/5
f 106/97/5 107/103/5 60/51/5
f 59/2/6 110/3/6 105/11/6
f 110/3/6 59/2/6 109/1/6
f 112/3/1 114/2/1 111/1/1
f 114/3/1 112/2/1 113/1/1
f 62/3/2 112/2/2 111/1/2
f 112/3/2 62/2/2 64/1/2
f 116/104/3 114/99/3 113/5/3
f 114/99/3 116/104/3 115/5/3
f 116/5/4 62/81/4 115/108/4
f 62/81/4 116/5/4 64/5/4
f 62/5/5 114/102/5 115/5/5
f 114/102/5 62/5/5 111/5/5
f 112/2/6 116/3/6 113/11/6
f 116/3/6 112/2/6 64/1/6

usemtl color6

f 119/3/1 118/2/1 117/1/1
f 118/3/1 119/2/1 120/1/1
f 17/3/2 119/2/2 117/1/2
f 119/3/2 17/2/2 19/1/2
f 20/18/3 118/5/3 120/109/3
f 118/5/3 20/18/3 18/5/3
f 20/5/4 17/5/4 18/110/4
f 17/5/4 20/5/4 19/111/4
f 17/23/5 118/5/5 18/5/5
f 118/5/5 17/23/5 117/112/5
f 119/2/6 20/3/6 120/11/6
f 20/3/6 119/2/6 19/1/6

usemtl color2

f 22/3/1 24/2/1 21/1/1
f 24/3/1 22/2/1 23/1/1
f 121/3/2 22/2/2 21/1/2
f 22/3/2 121/2/2 122/1/2
f 123/5/3 24/19/3 23/5/3
f 24/19/3 123/5/3 124/113/3
f 123/5/4 121/5/4 124/114/4
f 121/5/4 123/5/4 122/115/4
f 121/5/5 24/22/5 124/116/5
f 24/22/5 121/5/5 21/5/5
f 22/2/6 123/3/6 23/11/6
f 123/3/6 22/2/6 122/1/6
f 66/3/1 32/2/1 65/1/1
f 32/3/1 66/2/1 31/1/1
f 70/3/2 66/2/2 65/1/2
f 66/3/2 70/2/2 69/1/2
f 125/5/3 32/25/3 31/5/3
f 32/25/3 125/5/3 126/117/3
f 125/5/4 70/58/4 126/118/4
f 70/58/4 125/5/4 69/5/4
f 70/60/5 32/28/5 126/119/5
f 32/28/5 70/60/5 65/5/5
f 66/2/6 125/3/6 31/11/6
f 125/3/6 66/2/6 69/1/6
f 82/3/1 127/2/1 80/1/1
f 127/3/1 82/2/1 128/1/1
f 86/3/2 82/2/2 80/1/2
f 82/3/2 86/2/2 85/1/2
f 129/5/3 127/5/3 128/120/3
f 127/5/3 129/5/3 130/121/3
f 129/5/4 86/72/4 130/122/4
f 86/72/4 129/5/4 85/5/4
f 86/74/5 127/5/5 130/123/5
f 127/5/5 86/74/5 80/5/5
f 82/2/6 129/3/6 128/11/6
f 129/3/6 82/2/6 85/1/6
f 90/3/1 131/2/1 88/1/1
f 131/3/1 90/2/1 132/1/1
f 92/3/2 90/2/2 88/1/2
f 90/3/2 92/2/2 91/1/2
f 36/30/3 131/5/3 132/124/3
f 131/5/3 36/30/3 34/5/3
f 36/5/4 92/78/4 34/125/4
f 92/78/4 36/5/4 91/5/4
f 92/79/5 131/5/5 34/5/5
f 131/5/5 92/79/5 88/5/5
f 90/2/6 36/3/6 132/11/6
f 36/3/6 90/2/6 91/1/6

usemtl color4

f 134/3/1 25/2/1 133/1/1
f 25/3/1 134/2/1 27/1/1
f 93/3/2 134/2/2 133/1/2
f 134/3/2 93/2/2 94/1/2
f 30/83/3 25/5/3 27/126/3
f 25/5/3 30/83/3 29/5/3
f 30/27/4 93/5/4 29/5/4
f 93/5/4 30/27/4 94/127/4
f 93/86/5 25/29/5 29/5/5
f 25/29/5 93/86/5 133/128/5
f 134/2/6 30/3/6 27/11/6
f 30/3/6 134/2/6 94/1/6
f 96/3/1 33/2/1 95/1/1
f 33/3/1 96/2/1 35/1/1
f 135/3/2 96/2/2 95/1/2
f 96/3/2 135/2/2 136/1/2
f 38/5/3 33/84/3 35/5/3
f 33/84/3 38/5/3 37/129/3
f 38/33/4 135/5/4 37/5/4
f 135/5/4 38/33/4 136/130/4
f 135/5/5 33/35/5 37/5/5
f 33/35/5 135/5/5 95/5/5
f 96/2/6 38/3/6 35/11/6
f 38/3/6 96/2/6 136/1/6

