# Created by Kenney (www.kenney.nl)

mtllib Grenade ZUB Besloor.mtl

v 2 5 -0.45
v 2 4 -0.45
v 2 5 0.45
v 2 4 0.45
v 1 5 -0.45
v 1 5 0.45
v 1 4 0.45
v 1 4 -0.45
v 0 5 -0.45
v 0 4 -0.45
v 0 5 0.45
v 0 4 0.45
v -1 5 -0.45
v -1 5 0.45
v -1 4 0.45
v -1 4 -0.45
v 3 -1 -0.9
v 3 -3 -0.9
v 3 -1 0.9
v 3 -3 0.9
v 2 -1 -0.9
v 2 -1 0.9
v 2 -3 0.9
v 2 -3 -0.9
v -1 -1 -0.9
v -1 -3 -0.9
v -1 -1 0.9
v -1 -3 0.9
v -2 -1 -0.9
v -2 -1 0.9
v -2 -3 0.9
v -2 -3 -0.9
v 3 4 -0.9
v 3 3 -0.9
v 3 4 0.9
v 3 3 0.9
v 2 4 -0.9
v 2 4 0.9
v 2 3 0.9
v 2 3 -0.9
v 1 4 -2.25
v 1 3 -2.25
v 1 4 2.25
v 1 3 2.25
v 0 4 -2.25
v 0 4 2.25
v 0 3 2.25
v 0 3 -2.25
v -1 4 -0.9
v -1 3 -0.9
v -1 4 0.9
v -1 3 0.9
v -2 4 -0.9
v -2 4 0.9
v -2 3 0.9
v -2 3 -0.9
v 1 1 -2.25
v 1 0 -2.25
v 1 1 2.25
v 1 0 2.25
v 0 1 -2.25
v 0 1 2.25
v 0 0 2.25
v 0 0 -2.25
v 2 0 -2.25
v 2 -1 -2.25
v 2 0 2.25
v 2 -1 2.25
v 1 -1 2.25
v 1 -1 -2.25
v 0 -1 -2.25
v 0 -1 2.25
v -1 0 -2.25
v -1 0 2.25
v -1 -1 2.25
v -1 -1 -2.25
v 2 4 -2.25
v 2 2 -2.25
v 2 4 2.25
v 2 2 2.25
v 1 2 2.25
v 1 2 -2.25
v 0 2 -2.25
v 0 2 2.25
v -1 4 -2.25
v -1 4 2.25
v -1 2 2.25
v -1 2 -2.25
v 1 3 -1.8
v 1 2 -1.8
v 1 3 1.8
v 1 2 1.8
v 0 3 -1.8
v 0 3 1.8
v 0 2 1.8
v 0 2 -1.8
v 2 1 -1.8
v 2 0 -1.8
v 2 1 1.8
v 2 0 1.8
v 1 1 -1.8
v 1 1 1.8
v 1 0 1.8
v 1 0 -1.8
v 0 1 -1.8
v 0 0 -1.8
v 0 1 1.8
v 0 0 1.8
v -1 1 -1.8
v -1 1 1.8
v -1 0 1.8
v -1 0 -1.8
v 2 2 -1.8
v 2 2 1.8
v -1 2 -1.8
v -1 2 1.8
v 2 -3 -2.25
v 2 -3 2.25
v -1 -3 2.25
v -1 -3 -2.25
v 3 -4 -0.9
v 3 -4 0.9
v 2 -4 0.9
v 2 -4 -0.9
v 1 -3 -2.25
v 1 -4 -2.25
v 1 -3 2.25
v 1 -4 2.25
v 0 -3 -2.25
v 0 -3 2.25
v 0 -4 2.25
v 0 -4 -2.25
v -1 -4 -0.9
v -1 -4 0.9
v -2 -4 0.9
v -2 -4 -0.9
v 2 -4 -2.25
v 2 -4 2.25
v -1 -4 2.25
v -1 -4 -2.25

vn 1 0 0
vn 0 1 0
vn 0 -1 0
vn -1 0 0
vn 0 0 -1
vn 0 0 1

vt -19.68504 19.68504
vt 19.68504 19.68504
vt -19.68504 -19.68504
vt 0 NaN
vt 0 0
vt 0 NaN
vt 0 NaN
vt 0 NaN
vt 0 NaN
vt 0 NaN
vt 19.68504 -19.68504
vt 0 NaN
vt 0 NaN
vt 0 NaN
vt 0 NaN
vt 0 NaN
vt 0 NaN
vt 0 NaN
vt 0 NaN
vt 0 NaN
vt 0 NaN
vt 0 NaN
vt 0 NaN
vt 0 NaN
vt 0 NaN
vt 0 NaN
vt 0 NaN
vt 0 NaN
vt 0 NaN
vt 0 NaN
vt 0 NaN
vt 0 NaN
vt 0 NaN
vt 0 NaN
vt 0 NaN
vt 0 NaN
vt 0 NaN
vt 0 NaN
vt 0 NaN
vt 0 NaN
vt 0 NaN
vt 0 NaN
vt 0 NaN
vt 0 NaN
vt 0 NaN
vt 0 NaN
vt 0 NaN
vt 0 NaN
vt 0 NaN
vt 0 NaN
vt 0 NaN
vt 0 NaN
vt 0 NaN
vt 0 NaN
vt 0 NaN
vt 0 NaN
vt 0 NaN
vt 0 NaN
vt 0 NaN
vt 0 NaN
vt 0 NaN
vt 0 NaN
vt 0 NaN
vt 0 NaN
vt 0 NaN
vt 0 NaN
vt 0 NaN
vt 0 NaN
vt 0 NaN
vt 0 NaN
vt 0 NaN
vt 0 NaN
vt 0 NaN
vt 0 NaN
vt 0 NaN
vt 0 NaN
vt 0 NaN
vt 0 NaN
vt 0 NaN
vt 0 NaN
vt 0 NaN
vt 0 NaN
vt 0 NaN
vt 0 NaN
vt 0 NaN
vt 0 NaN
vt 0 NaN
vt 0 NaN
vt 0 NaN
vt 0 NaN
vt 0 NaN
vt 0 NaN
vt 0 NaN
vt 0 NaN
vt 0 NaN
vt 0 NaN
vt 0 NaN
vt 0 NaN
vt 0 NaN
vt 0 NaN
vt 0 NaN
vt 0 NaN
vt 0 NaN
vt 0 NaN
vt 0 NaN
vt 0 NaN
vt 0 NaN
vt 0 NaN
vt 0 NaN
vt 0 NaN
vt 0 NaN
vt 0 NaN
vt 0 NaN
vt 0 NaN
vt 0 NaN
vt 0 NaN
vt 0 NaN
vt 0 NaN
vt 0 NaN
vt 0 NaN
vt 0 NaN
vt 0 NaN
vt 0 NaN
vt 0 NaN
vt 0 NaN
vt 0 NaN
vt 0 NaN
vt 0 NaN
vt 0 NaN
vt 0 NaN
vt 0 NaN
vt 0 NaN

usemtl color3

f 3/3/1 2/2/1 1/1/1
f 2/3/1 3/2/1 4/1/1
f 5/3/2 3/2/2 1/1/2
f 3/3/2 5/2/2 6/1/2
f 7/5/3 2/5/3 4/4/3
f 2/5/3 7/5/3 8/6/3
f 7/5/4 5/5/4 8/7/4
f 5/5/4 7/5/4 6/8/4
f 5/5/5 2/5/5 8/9/5
f 2/5/5 5/5/5 1/10/5
f 3/2/6 7/3/6 4/11/6
f 7/3/6 3/2/6 6/1/6
f 11/3/1 10/2/1 9/1/1
f 10/3/1 11/2/1 12/1/1
f 13/3/2 11/2/2 9/1/2
f 11/3/2 13/2/2 14/1/2
f 15/5/3 10/5/3 12/12/3
f 10/5/3 15/5/3 16/13/3
f 15/5/4 13/5/4 16/14/4
f 13/5/4 15/5/4 14/15/4
f 13/5/5 10/5/5 16/16/5
f 10/5/5 13/5/5 9/17/5
f 11/2/6 15/3/6 12/11/6
f 15/3/6 11/2/6 14/1/6
f 3/3/1 2/2/1 1/1/1
f 2/3/1 3/2/1 4/1/1
f 5/3/2 3/2/2 1/1/2
f 3/3/2 5/2/2 6/1/2
f 7/5/3 2/5/3 4/4/3
f 2/5/3 7/5/3 8/6/3
f 7/5/4 5/5/4 8/7/4
f 5/5/4 7/5/4 6/8/4
f 5/5/5 2/5/5 8/9/5
f 2/5/5 5/5/5 1/10/5
f 3/2/6 7/3/6 4/11/6
f 7/3/6 3/2/6 6/1/6
f 19/3/1 18/2/1 17/1/1
f 18/3/1 19/2/1 20/1/1
f 21/3/2 19/2/2 17/1/2
f 19/3/2 21/2/2 22/1/2
f 23/5/3 18/5/3 20/18/3
f 18/5/3 23/5/3 24/19/3
f 23/5/4 21/5/4 24/20/4
f 21/5/4 23/5/4 22/21/4
f 21/5/5 18/5/5 24/22/5
f 18/5/5 21/5/5 17/23/5
f 19/2/6 23/3/6 20/11/6
f 23/3/6 19/2/6 22/1/6
f 27/3/1 26/2/1 25/1/1
f 26/3/1 27/2/1 28/1/1
f 29/3/2 27/2/2 25/1/2
f 27/3/2 29/2/2 30/1/2
f 31/5/3 26/5/3 28/24/3
f 26/5/3 31/5/3 32/25/3
f 31/5/4 29/5/4 32/26/4
f 29/5/4 31/5/4 30/27/4
f 29/5/5 26/5/5 32/28/5
f 26/5/5 29/5/5 25/29/5
f 27/2/6 31/3/6 28/11/6
f 31/3/6 27/2/6 30/1/6

usemtl color6

f 35/3/1 34/2/1 33/1/1
f 34/3/1 35/2/1 36/1/1
f 37/3/2 35/2/2 33/1/2
f 35/3/2 37/2/2 38/1/2
f 39/5/3 34/5/3 36/30/3
f 34/5/3 39/5/3 40/31/3
f 39/5/4 37/5/4 40/32/4
f 37/5/4 39/5/4 38/33/4
f 37/5/5 34/5/5 40/34/5
f 34/5/5 37/5/5 33/35/5
f 35/2/6 39/3/6 36/11/6
f 39/3/6 35/2/6 38/1/6
f 43/3/1 42/2/1 41/1/1
f 42/3/1 43/2/1 44/1/1
f 45/3/2 43/2/2 41/1/2
f 43/3/2 45/2/2 46/1/2
f 47/5/3 42/5/3 44/36/3
f 42/5/3 47/5/3 48/37/3
f 47/5/4 45/5/4 48/38/4
f 45/5/4 47/5/4 46/39/4
f 45/5/5 42/5/5 48/40/5
f 42/5/5 45/5/5 41/41/5
f 43/2/6 47/3/6 44/11/6
f 47/3/6 43/2/6 46/1/6
f 51/3/1 50/2/1 49/1/1
f 50/3/1 51/2/1 52/1/1
f 53/3/2 51/2/2 49/1/2
f 51/3/2 53/2/2 54/1/2
f 55/5/3 50/5/3 52/42/3
f 50/5/3 55/5/3 56/43/3
f 55/5/4 53/5/4 56/44/4
f 53/5/4 55/5/4 54/45/4
f 53/5/5 50/5/5 56/46/5
f 50/5/5 53/5/5 49/47/5
f 51/2/6 55/3/6 52/11/6
f 55/3/6 51/2/6 54/1/6
f 59/3/1 58/2/1 57/1/1
f 58/3/1 59/2/1 60/1/1
f 61/3/2 59/2/2 57/1/2
f 59/3/2 61/2/2 62/1/2
f 63/5/3 58/5/3 60/48/3
f 58/5/3 63/5/3 64/49/3
f 63/5/4 61/5/4 64/50/4
f 61/5/4 63/5/4 62/51/4
f 61/5/5 58/5/5 64/52/5
f 58/5/5 61/5/5 57/53/5
f 59/2/6 63/3/6 60/11/6
f 63/3/6 59/2/6 62/1/6
f 67/3/1 66/2/1 65/1/1
f 66/3/1 67/2/1 68/1/1
f 58/3/2 67/2/2 65/1/2
f 67/3/2 58/2/2 60/1/2
f 69/5/3 66/5/3 68/54/3
f 66/5/3 69/5/3 70/55/3
f 69/5/4 58/5/4 70/56/4
f 58/5/4 69/5/4 60/57/4
f 58/5/5 66/5/5 70/58/5
f 66/5/5 58/5/5 65/59/5
f 67/2/6 69/3/6 68/11/6
f 69/3/6 67/2/6 60/1/6
f 63/3/1 71/2/1 64/1/1
f 71/3/1 63/2/1 72/1/1
f 73/3/2 63/2/2 64/1/2
f 63/3/2 73/2/2 74/1/2
f 75/5/3 71/5/3 72/60/3
f 71/5/3 75/5/3 76/61/3
f 75/5/4 73/5/4 76/62/4
f 73/5/4 75/5/4 74/63/4
f 73/5/5 71/5/5 76/64/5
f 71/5/5 73/5/5 64/52/5
f 63/2/6 75/3/6 72/11/6
f 75/3/6 63/2/6 74/1/6

usemtl color10

f 79/3/1 78/2/1 77/1/1
f 78/3/1 79/2/1 80/1/1
f 41/3/2 79/2/2 77/1/2
f 79/3/2 41/2/2 43/1/2
f 81/5/3 78/5/3 80/65/3
f 78/5/3 81/5/3 82/66/3
f 81/5/4 41/5/4 82/67/4
f 41/5/4 81/5/4 43/68/4
f 41/41/5 78/5/5 82/69/5
f 78/5/5 41/41/5 77/70/5
f 79/2/6 81/3/6 80/11/6
f 81/3/6 79/2/6 43/1/6
f 46/3/1 83/2/1 45/1/1
f 83/3/1 46/2/1 84/1/1
f 85/3/2 46/2/2 45/1/2
f 46/3/2 85/2/2 86/1/2
f 87/5/3 83/5/3 84/71/3
f 83/5/3 87/5/3 88/72/3
f 87/5/4 85/5/4 88/73/4
f 85/5/4 87/5/4 86/74/4
f 85/5/5 83/5/5 88/75/5
f 83/5/5 85/5/5 45/5/5
f 46/2/6 87/3/6 84/11/6
f 87/3/6 46/2/6 86/1/6
f 81/3/1 57/2/1 82/1/1
f 57/3/1 81/2/1 59/1/1
f 83/3/2 81/2/2 82/1/2
f 81/3/2 83/2/2 84/1/2
f 62/5/3 57/5/3 59/76/3
f 57/5/3 62/5/3 61/77/3
f 62/51/4 83/5/4 61/5/4
f 83/5/4 62/51/4 84/78/4
f 83/5/5 57/53/5 61/5/5
f 57/53/5 83/5/5 82/69/5
f 81/2/6 62/3/6 59/11/6
f 62/3/6 81/2/6 84/1/6

usemtl color5

f 36/3/1 17/2/1 34/1/1
f 17/3/1 36/2/1 19/1/1
f 40/3/2 36/2/2 34/1/2
f 36/3/2 40/2/2 39/1/2
f 22/5/3 17/5/3 19/79/3
f 17/5/3 22/5/3 21/80/3
f 22/21/4 40/32/4 21/5/4
f 40/32/4 22/21/4 39/5/4
f 40/34/5 17/23/5 21/5/5
f 17/23/5 40/34/5 34/5/5
f 36/2/6 22/3/6 19/11/6
f 22/3/6 36/2/6 39/1/6
f 52/3/1 25/2/1 50/1/1
f 25/3/1 52/2/1 27/1/1
f 56/3/2 52/2/2 50/1/2
f 52/3/2 56/2/2 55/1/2
f 30/5/3 25/5/3 27/81/3
f 25/5/3 30/5/3 29/82/3
f 30/27/4 56/44/4 29/5/4
f 56/44/4 30/27/4 55/5/4
f 56/46/5 25/29/5 29/5/5
f 25/29/5 56/46/5 50/5/5
f 52/2/6 30/3/6 27/11/6
f 30/3/6 52/2/6 55/1/6

usemtl color8

f 91/3/1 90/2/1 89/1/1
f 90/3/1 91/2/1 92/1/1
f 93/3/2 91/2/2 89/1/2
f 91/3/2 93/2/2 94/1/2
f 95/5/3 90/5/3 92/83/3
f 90/5/3 95/5/3 96/84/3
f 95/5/4 93/5/4 96/85/4
f 93/5/4 95/5/4 94/86/4
f 93/5/5 90/5/5 96/87/5
f 90/5/5 93/5/5 89/88/5
f 91/2/6 95/3/6 92/11/6
f 95/3/6 91/2/6 94/1/6
f 99/3/1 98/2/1 97/1/1
f 98/3/1 99/2/1 100/1/1
f 101/3/2 99/2/2 97/1/2
f 99/3/2 101/2/2 102/1/2
f 103/5/3 98/5/3 100/89/3
f 98/5/3 103/5/3 104/90/3
f 103/5/4 101/5/4 104/91/4
f 101/5/4 103/5/4 102/92/4
f 101/5/5 98/5/5 104/93/5
f 98/5/5 101/5/5 97/94/5
f 99/2/6 103/3/6 100/11/6
f 103/3/6 99/2/6 102/1/6
f 107/3/1 106/2/1 105/1/1
f 106/3/1 107/2/1 108/1/1
f 109/3/2 107/2/2 105/1/2
f 107/3/2 109/2/2 110/1/2
f 111/5/3 106/5/3 108/95/3
f 106/5/3 111/5/3 112/96/3
f 111/5/4 109/5/4 112/97/4
f 109/5/4 111/5/4 110/98/4
f 109/5/5 106/5/5 112/99/5
f 106/5/5 109/5/5 105/100/5
f 107/2/6 111/3/6 108/11/6
f 111/3/6 107/2/6 110/1/6

usemtl color9

f 114/3/1 97/2/1 113/1/1
f 97/3/1 114/2/1 99/1/1
f 90/3/2 114/2/2 113/1/2
f 114/3/2 90/2/2 92/1/2
f 102/5/3 97/5/3 99/101/3
f 97/5/3 102/5/3 101/102/3
f 102/92/4 90/5/4 101/5/4
f 90/5/4 102/92/4 92/103/4
f 90/5/5 97/94/5 101/5/5
f 97/94/5 90/5/5 113/104/5
f 114/2/6 102/3/6 99/11/6
f 102/3/6 114/2/6 92/1/6
f 95/3/1 105/2/1 96/1/1
f 105/3/1 95/2/1 107/1/1
f 115/3/2 95/2/2 96/1/2
f 95/3/2 115/2/2 116/1/2
f 110/5/3 105/5/3 107/105/3
f 105/5/3 110/5/3 109/106/3
f 110/98/4 115/5/4 109/5/4
f 115/5/4 110/98/4 116/107/4
f 115/5/5 105/100/5 109/5/5
f 105/100/5 115/5/5 96/87/5
f 95/2/6 110/3/6 107/11/6
f 110/3/6 95/2/6 116/1/6

usemtl color7

f 60/3/1 70/2/1 58/1/1
f 70/3/1 60/2/1 69/1/1
f 64/3/2 60/2/2 58/1/2
f 60/3/2 64/2/2 63/1/2
f 72/60/3 70/55/3 69/5/3
f 70/55/3 72/60/3 71/5/3
f 72/5/4 64/50/4 71/108/4
f 64/50/4 72/5/4 63/5/4
f 64/52/5 70/58/5 71/5/5
f 70/58/5 64/52/5 58/5/5
f 60/2/6 72/3/6 69/11/6
f 72/3/6 60/2/6 63/1/6

usemtl color4

f 68/3/1 117/2/1 66/1/1
f 117/3/1 68/2/1 118/1/1
f 76/3/2 68/2/2 66/1/2
f 68/3/2 76/2/2 75/1/2
f 119/5/3 117/5/3 118/109/3
f 117/5/3 119/5/3 120/110/3
f 119/5/4 76/62/4 120/111/4
f 76/62/4 119/5/4 75/5/4
f 76/64/5 117/5/5 120/112/5
f 117/5/5 76/64/5 66/5/5
f 68/2/6 119/3/6 118/11/6
f 119/3/6 68/2/6 75/1/6

usemtl color1

f 20/3/1 121/2/1 18/1/1
f 121/3/1 20/2/1 122/1/1
f 24/3/2 20/2/2 18/1/2
f 20/3/2 24/2/2 23/1/2
f 123/5/3 121/5/3 122/113/3
f 121/5/3 123/5/3 124/114/3
f 123/5/4 24/20/4 124/115/4
f 24/20/4 123/5/4 23/5/4
f 24/22/5 121/5/5 124/116/5
f 121/5/5 24/22/5 18/5/5
f 20/2/6 123/3/6 122/11/6
f 123/3/6 20/2/6 23/1/6
f 127/3/1 126/2/1 125/1/1
f 126/3/1 127/2/1 128/1/1
f 129/3/2 127/2/2 125/1/2
f 127/3/2 129/2/2 130/1/2
f 131/5/3 126/5/3 128/117/3
f 126/5/3 131/5/3 132/118/3
f 131/5/4 129/5/4 132/119/4
f 129/5/4 131/5/4 130/120/4
f 129/5/5 126/5/5 132/121/5
f 126/5/5 129/5/5 125/122/5
f 127/2/6 131/3/6 128/11/6
f 131/3/6 127/2/6 130/1/6
f 28/3/1 133/2/1 26/1/1
f 133/3/1 28/2/1 134/1/1
f 32/3/2 28/2/2 26/1/2
f 28/3/2 32/2/2 31/1/2
f 135/5/3 133/5/3 134/123/3
f 133/5/3 135/5/3 136/124/3
f 135/5/4 32/26/4 136/125/4
f 32/26/4 135/5/4 31/5/4
f 32/28/5 133/5/5 136/126/5
f 133/5/5 32/28/5 26/5/5
f 28/2/6 135/3/6 134/11/6
f 135/3/6 28/2/6 31/1/6

usemtl color2

f 118/3/1 137/2/1 117/1/1
f 137/3/1 118/2/1 138/1/1
f 125/3/2 118/2/2 117/1/2
f 118/3/2 125/2/2 127/1/2
f 128/117/3 137/5/3 138/127/3
f 137/5/3 128/117/3 126/5/3
f 128/5/4 125/5/4 126/128/4
f 125/5/4 128/5/4 127/129/4
f 125/122/5 137/5/5 126/5/5
f 137/5/5 125/122/5 117/5/5
f 118/2/6 128/3/6 138/11/6
f 128/3/6 118/2/6 127/1/6
f 130/3/1 132/2/1 129/1/1
f 132/3/1 130/2/1 131/1/1
f 120/3/2 130/2/2 129/1/2
f 130/3/2 120/2/2 119/1/2
f 139/5/3 132/118/3 131/5/3
f 132/118/3 139/5/3 140/130/3
f 139/5/4 120/111/4 140/131/4
f 120/111/4 139/5/4 119/5/4
f 120/112/5 132/121/5 140/132/5
f 132/121/5 120/112/5 129/5/5
f 130/2/6 139/3/6 131/11/6
f 139/3/6 130/2/6 119/1/6

