# Created by Kenney (www.kenney.nl)

mtllib Grenade ZMG Aferraron.mtl

v 1 6 -0.6
v 1 5 -0.6
v 1 6 0.6
v 1 5 0.6
v 0 6 -0.6
v 0 6 0.6
v 0 5 0.6
v 0 5 -0.6
v 0 6 -1.2
v 0 5 -1.2
v 0 6 1.2
v 0 5 1.2
v -1 6 -1.2
v -1 6 1.2
v -1 5 1.2
v -1 5 -1.2
v 1 2 -3.6
v 1 1 -3.6
v 1 2 3.6
v 1 1 3.6
v 0 2 -3.6
v 0 2 3.6
v 0 1 3.6
v 0 1 -3.6
v 1 0 -3.6
v 1 -1 -3.6
v 1 0 3.6
v 1 -1 3.6
v 0 0 -3.6
v 0 0 3.6
v 0 -1 3.6
v 0 -1 -3.6
v 1 -2 -3.6
v 1 -3 -3.6
v 1 -2 3.6
v 1 -3 3.6
v 0 -2 -3.6
v 0 -2 3.6
v 0 -3 3.6
v 0 -3 -3.6
v -2 6 -1.2
v -2 6 1.2
v -2 5 1.2
v -2 5 -1.2
v 2 5 -1.8
v 2 4 -1.8
v 2 5 1.8
v 2 4 1.8
v 1 5 -1.8
v 1 5 1.8
v 1 4 1.8
v 1 4 -1.8
v -2 5 -1.8
v -2 4 -1.8
v -2 5 1.8
v -2 4 1.8
v -3 5 -1.8
v -3 5 1.8
v -3 4 1.8
v -3 4 -1.8
v 2 3 -3
v 2 2 -3
v 2 3 3
v 2 2 3
v 1 3 -3
v 1 3 3
v 1 2 3
v 1 2 -3
v 1 1 -2.4
v 1 0 -2.4
v 1 1 2.4
v 1 0 2.4
v 0 1 -2.4
v 0 1 2.4
v 0 0 2.4
v 0 0 -2.4
v 1 -1 -2.4
v 1 -2 -2.4
v 1 -1 2.4
v 1 -2 2.4
v 0 -1 -2.4
v 0 -1 2.4
v 0 -2 2.4
v 0 -2 -2.4
v 1 -3 -2.4
v 1 -4 -2.4
v 1 -3 2.4
v 1 -4 2.4
v 0 -3 -2.4
v 0 -3 2.4
v 0 -4 2.4
v 0 -4 -2.4
v 1 5 -2.4
v 1 4 -2.4
v 1 5 2.4
v 1 4 2.4
v -2 5 -2.4
v -2 5 2.4
v -2 4 2.4
v -2 4 -2.4
v 2 1 -3
v 2 1 3
v 1 1 3
v 1 1 -3
v 3 1 -2.4
v 3 0 -2.4
v 3 1 2.4
v 3 0 2.4
v 2 1 -2.4
v 2 1 2.4
v 2 0 2.4
v 2 0 -2.4
v 2 0 -3
v 2 -2 -3
v 2 0 3
v 2 -2 3
v 1 0 -3
v 1 0 3
v 1 -2 3
v 1 -2 -3
v 3 -2 -2.4
v 3 -3 -2.4
v 3 -2 2.4
v 3 -3 2.4
v 2 -2 -2.4
v 2 -2 2.4
v 2 -3 2.4
v 2 -3 -2.4
v 2 -3 -3
v 2 -5 -3
v 2 -3 3
v 2 -5 3
v 1 -3 -3
v 1 -3 3
v 1 -5 3
v 1 -5 -3
v -3 -4 -2.4
v -3 -5 -2.4
v -3 -4 2.4
v -3 -5 2.4
v -4 -4 -2.4
v -4 -4 2.4
v -4 -5 2.4
v -4 -5 -2.4
v -1 -6 -2.4
v -1 -7 -2.4
v -1 -6 2.4
v -1 -7 2.4
v -2 -6 -2.4
v -2 -6 2.4
v -2 -7 2.4
v -2 -7 -2.4
v -2 -6 -1.8
v -2 -7 -1.8
v -2 -6 1.8
v -2 -7 1.8
v -3 -6 -1.8
v -3 -6 1.8
v -3 -7 1.8
v -3 -7 -1.8
v 3 4 -1.2
v 3 3 -1.2
v 3 4 1.2
v 3 3 1.2
v 2 4 -1.2
v 2 4 1.2
v 2 3 1.2
v 2 3 -1.2
v 2 4 -3
v 2 4 3
v 1 4 -3
v 1 4 3
v 0 4 -3
v 0 3 -3
v 0 4 3
v 0 3 3
v -1 4 -3
v -1 4 3
v -1 3 3
v -1 3 -3
v -2 4 -3
v -2 3 -3
v -2 4 3
v -2 3 3
v -3 4 -3
v -3 4 3
v -3 3 3
v -3 3 -3
v 1 -6 -3
v 1 -6 3
v 0 -5 -3
v 0 -5 3
v 0 -6 3
v 0 -6 -3
v -1 -5 -3
v -1 -6 -3
v -1 -5 3
v -1 -6 3
v -2 -5 -3
v -2 -5 3
v -2 -6 3
v -2 -6 -3
v -3 4 -1.2
v -3 3 -1.2
v -3 4 1.2
v -3 3 1.2
v -4 4 -1.2
v -4 4 1.2
v -4 3 1.2
v -4 3 -1.2
v -3 -5 -1.2
v -3 -6 -1.2
v -3 -5 1.2
v -3 -6 1.2
v -4 -5 -1.2
v -4 -5 1.2
v -4 -6 1.2
v -4 -6 -1.2
v 4 3 -1.8
v 4 2 -1.8
v 4 3 1.8
v 4 2 1.8
v 3 3 -1.8
v 3 3 1.8
v 3 2 1.8
v 3 2 -1.8
v 4 0 -1.8
v 4 -1 -1.8
v 4 0 1.8
v 4 -1 1.8
v 3 0 -1.8
v 3 0 1.8
v 3 -1 1.8
v 3 -1 -1.8
v 4 -3 -1.8
v 4 -4 -1.8
v 4 -3 1.8
v 4 -4 1.8
v 3 -3 -1.8
v 3 -3 1.8
v 3 -4 1.8
v 3 -4 -1.8
v 3 3 -2.4
v 3 2 -2.4
v 3 3 2.4
v 3 2 2.4
v 2 3 -2.4
v 2 3 2.4
v 2 2 2.4
v 2 2 -2.4
v 4 1 -1.8
v 4 1 1.8
v 3 1 1.8
v 3 1 -1.8
v 3 -1 -2.4
v 3 -1 2.4
v 2 -1 2.4
v 2 -1 -2.4
v 4 -2 -1.8
v 4 -2 1.8
v 3 -2 1.8
v 3 -2 -1.8
v 3 -4 -2.4
v 3 -4 2.4
v 2 -4 2.4
v 2 -4 -2.4
v 4 -5 -1.8
v 4 -5 1.8
v 3 -5 1.8
v 3 -5 -1.8
v -3 2 3
v -3 2 -3
v -3 3 -2.4
v -3 2 -2.4
v -3 3 2.4
v -3 2 2.4
v -4 3 -2.4
v -4 3 2.4
v -4 2 2.4
v -4 2 -2.4
v 1 -4 -3
v 1 -4 3
v -3 -4 -3
v -3 -4 3
v -3 -5 3
v -3 -5 -3
v 0 -6 -2.4
v 0 -7 -2.4
v 0 -6 2.4
v 0 -7 2.4
v 3 -5 -2.4
v 3 -5 2.4
v 2 -5 2.4
v 2 -5 -2.4
v 0 2 -3
v 0 1 -3
v 0 2 3
v 0 1 3
v -1 2 -3
v -1 2 3
v -1 1 3
v -1 1 -3
v -3 2 -1.8
v -3 1 -1.8
v -3 2 1.8
v -3 1 1.8
v -4 2 -1.8
v -4 2 1.8
v -4 1 1.8
v -4 1 -1.8
v 0 0 -3
v 0 -1 -3
v 0 0 3
v 0 -1 3
v -1 0 -3
v -1 0 3
v -1 -1 3
v -1 -1 -3
v -3 0 -1.8
v -3 -1 -1.8
v -3 0 1.8
v -3 -1 1.8
v -4 0 -1.8
v -4 0 1.8
v -4 -1 1.8
v -4 -1 -1.8
v 0 -2 -3
v 0 -3 -3
v 0 -2 3
v 0 -3 3
v -1 -2 -3
v -1 -2 3
v -1 -3 3
v -1 -3 -3
v -3 -2 -1.8
v -3 -3 -1.8
v -3 -2 1.8
v -3 -3 1.8
v -4 -2 -1.8
v -4 -2 1.8
v -4 -3 1.8
v -4 -3 -1.8
v -3 1 3
v -3 1 -3
v -3 0 -3
v -3 0 3
v -3 -1 3
v -3 -1 -3
v -3 -2 -3
v -3 -2 3
v -3 -3 3
v -3 -3 -3
v -1 1 -2.4
v -1 1 2.4
v -1 0 2.4
v -1 0 -2.4
v -3 1 -1.2
v -3 0 -1.2
v -3 1 1.2
v -3 0 1.2
v -4 1 -1.2
v -4 1 1.2
v -4 0 1.2
v -4 0 -1.2
v -1 -1 -2.4
v -1 -1 2.4
v -1 -2 2.4
v -1 -2 -2.4
v -3 -1 -1.2
v -3 -2 -1.2
v -3 -1 1.2
v -3 -2 1.2
v -4 -1 -1.2
v -4 -1 1.2
v -4 -2 1.2
v -4 -2 -1.2
v -1 -3 -2.4
v -1 -3 2.4
v -1 -4 2.4
v -1 -4 -2.4
v -3 -3 -1.2
v -3 -4 -1.2
v -3 -3 1.2
v -3 -4 1.2
v -4 -3 -1.2
v -4 -3 1.2
v -4 -4 1.2
v -4 -4 -1.2
v -3 1 -2.4
v -3 1 2.4
v -3 0 2.4
v -3 0 -2.4
v -3 -1 -2.4
v -3 -1 2.4
v -3 -2 2.4
v -3 -2 -2.4
v -3 -3 -2.4
v -3 -3 2.4
v 3 -5 -1.2
v 3 -6 -1.2
v 3 -5 1.2
v 3 -6 1.2
v 2 -5 -1.2
v 2 -5 1.2
v 2 -6 1.2
v 2 -6 -1.2
v 2 -6 -3
v 2 -6 3
v -3 -6 3
v -3 -6 -3
v 2 -6 -1.8
v 2 -7 -1.8
v 2 -6 1.8
v 2 -7 1.8
v 1 -6 -1.8
v 1 -6 1.8
v 1 -7 1.8
v 1 -7 -1.8
v 1 -6 -2.4
v 1 -7 -2.4
v 1 -6 2.4
v 1 -7 2.4

vn 1 0 0
vn 0 1 0
vn 0 -1 0
vn -1 0 0
vn 0 0 -1
vn 0 0 1

vt -19.68504 19.68504
vt 19.68504 19.68504
vt -19.68504 -19.68504
vt 0 NaN
vt 0 0
vt 0 NaN
vt 0 NaN
vt 0 NaN
vt 0 NaN
vt 0 NaN
vt 19.68504 -19.68504
vt 0 NaN
vt 0 NaN
vt 0 NaN
vt 0 NaN
vt 0 NaN
vt 0 NaN
vt 0 NaN
vt 0 NaN
vt 0 NaN
vt 0 NaN
vt 0 NaN
vt 0 NaN
vt 0 NaN
vt 0 NaN
vt 0 NaN
vt 0 NaN
vt 0 NaN
vt 0 NaN
vt 0 NaN
vt 0 NaN
vt 0 NaN
vt 0 NaN
vt 0 NaN
vt 0 NaN
vt 0 NaN
vt 0 NaN
vt 0 NaN
vt 0 NaN
vt 0 NaN
vt 0 NaN
vt 0 NaN
vt 0 NaN
vt 0 NaN
vt 0 NaN
vt 0 NaN
vt 0 NaN
vt 0 NaN
vt 0 NaN
vt 0 NaN
vt 0 NaN
vt 0 NaN
vt 0 NaN
vt 0 NaN
vt 0 NaN
vt 0 NaN
vt 0 NaN
vt 0 NaN
vt 0 NaN
vt 0 NaN
vt 0 NaN
vt 0 NaN
vt 0 NaN
vt 0 NaN
vt 0 NaN
vt 0 NaN
vt 0 NaN
vt 0 NaN
vt 0 NaN
vt 0 NaN
vt 0 NaN
vt 0 NaN
vt 0 NaN
vt 0 NaN
vt 0 NaN
vt 0 NaN
vt 0 NaN
vt 0 NaN
vt 0 NaN
vt 0 NaN
vt 0 NaN
vt 0 NaN
vt 0 NaN
vt 0 NaN
vt 0 NaN
vt 0 NaN
vt 0 NaN
vt 0 NaN
vt 0 NaN
vt 0 NaN
vt 0 NaN
vt 0 NaN
vt 0 NaN
vt 0 NaN
vt 0 NaN
vt 0 NaN
vt 0 NaN
vt 0 NaN
vt 0 NaN
vt 0 NaN
vt 0 NaN
vt 0 NaN
vt 0 NaN
vt 0 NaN
vt 0 NaN
vt 0 NaN
vt 0 NaN
vt 0 NaN
vt 0 NaN
vt 0 NaN
vt 0 NaN
vt 0 NaN
vt 0 NaN
vt 0 NaN
vt 0 NaN
vt 0 NaN
vt 0 NaN
vt 0 NaN
vt 0 NaN
vt 0 NaN
vt 0 NaN
vt 0 NaN
vt 0 NaN
vt 0 NaN
vt 0 NaN
vt 0 NaN
vt 0 NaN
vt 0 NaN
vt 0 NaN
vt 0 NaN
vt 0 NaN
vt 0 NaN
vt 0 NaN
vt 0 NaN
vt 0 NaN
vt 0 NaN
vt 0 NaN
vt 0 NaN
vt 0 NaN
vt 0 NaN
vt 0 NaN
vt 0 NaN
vt 0 NaN
vt 0 NaN
vt 0 NaN
vt 0 NaN
vt 0 NaN
vt 0 NaN
vt 0 NaN
vt 0 NaN
vt 0 NaN
vt 0 NaN
vt 0 NaN
vt 0 NaN
vt 0 NaN
vt 0 NaN
vt 0 NaN
vt 0 NaN
vt 0 NaN
vt 0 NaN
vt 0 NaN
vt 0 NaN
vt 0 NaN
vt 0 NaN
vt 0 NaN
vt 0 NaN
vt 0 NaN
vt 0 NaN
vt 0 NaN
vt 0 NaN
vt 0 NaN
vt 0 NaN
vt 0 NaN
vt 0 NaN
vt 0 NaN
vt 0 NaN
vt 0 NaN
vt 0 NaN
vt 0 NaN
vt 0 NaN
vt 0 NaN
vt 0 NaN
vt 0 NaN
vt 0 NaN
vt 0 NaN
vt 0 NaN
vt 0 NaN
vt 0 NaN
vt 0 NaN
vt 0 NaN
vt 0 NaN
vt 0 NaN
vt 0 NaN
vt 0 NaN
vt 0 NaN
vt 0 NaN
vt 0 NaN
vt 0 NaN
vt 0 NaN
vt 0 NaN
vt 0 NaN
vt 0 NaN
vt 0 NaN
vt 0 NaN
vt 0 NaN
vt 0 NaN
vt 0 NaN
vt 0 NaN
vt 0 NaN
vt 0 NaN
vt 0 NaN
vt 0 NaN
vt 0 NaN
vt 0 NaN
vt 0 NaN
vt 0 NaN
vt 0 NaN
vt 0 NaN
vt 0 NaN
vt 0 NaN
vt 0 NaN
vt 0 NaN
vt 0 NaN
vt 0 NaN
vt 0 NaN
vt 0 NaN
vt 0 NaN
vt 0 NaN
vt 0 NaN
vt 0 NaN
vt 0 NaN
vt 0 NaN
vt 0 NaN
vt 0 NaN
vt 0 NaN
vt 0 NaN
vt 0 NaN
vt 0 NaN
vt 0 NaN
vt 0 NaN
vt 0 NaN
vt 0 NaN
vt 0 NaN
vt 0 NaN
vt 0 NaN
vt 0 NaN
vt 0 NaN
vt 0 NaN
vt 0 NaN
vt 0 NaN
vt 0 NaN
vt 0 NaN
vt 0 NaN
vt 0 NaN
vt 0 NaN
vt 0 NaN
vt 0 NaN
vt 0 NaN
vt 0 NaN
vt 0 NaN
vt 0 NaN
vt 0 NaN
vt 0 NaN
vt 0 NaN
vt 0 NaN
vt 0 NaN
vt 0 NaN
vt 0 NaN
vt 0 NaN
vt 0 NaN
vt 0 NaN
vt 0 NaN
vt 0 NaN
vt 0 NaN
vt 0 NaN
vt 0 NaN
vt 0 NaN
vt 0 NaN
vt 0 NaN
vt 0 NaN
vt 0 NaN
vt 0 NaN
vt 0 NaN
vt 0 NaN
vt 0 NaN
vt 0 NaN
vt 0 NaN
vt 0 NaN
vt 0 NaN
vt 0 NaN
vt 0 NaN
vt 0 NaN
vt 0 NaN
vt 0 NaN
vt 0 NaN
vt 0 NaN
vt 0 NaN
vt 0 NaN
vt 0 NaN
vt 0 NaN
vt 0 NaN
vt 0 NaN
vt 0 NaN
vt 0 NaN
vt 0 NaN
vt 0 NaN
vt 0 NaN
vt 0 NaN
vt 0 NaN
vt 0 NaN
vt 0 NaN
vt 0 NaN
vt 0 NaN
vt 0 NaN
vt 0 NaN
vt 0 NaN
vt 0 NaN
vt 0 NaN
vt 0 NaN
vt 0 NaN
vt 0 NaN
vt 0 NaN
vt 0 NaN
vt 0 NaN
vt 0 NaN
vt 0 NaN
vt 0 NaN
vt 0 NaN
vt 0 NaN
vt 0 NaN
vt 0 NaN
vt 0 NaN
vt 0 NaN
vt 0 NaN
vt 0 NaN
vt 0 NaN
vt 0 NaN
vt 0 NaN
vt 0 NaN
vt 0 NaN
vt 0 NaN
vt 0 NaN
vt 0 NaN
vt 0 NaN
vt 0 NaN
vt 0 NaN
vt 0 NaN
vt 0 NaN
vt 0 NaN
vt 0 NaN
vt 0 NaN
vt 0 NaN
vt 0 NaN
vt 0 NaN
vt 0 NaN
vt 0 NaN
vt 0 NaN
vt 0 NaN
vt 0 NaN
vt 0 NaN
vt 0 NaN

usemtl color20

f 3/3/1 2/2/1 1/1/1
f 2/3/1 3/2/1 4/1/1
f 5/3/2 3/2/2 1/1/2
f 3/3/2 5/2/2 6/1/2
f 7/5/3 2/5/3 4/4/3
f 2/5/3 7/5/3 8/6/3
f 7/5/4 5/5/4 8/7/4
f 5/5/4 7/5/4 6/8/4
f 5/5/5 2/5/5 8/9/5
f 2/5/5 5/5/5 1/10/5
f 3/2/6 7/3/6 4/11/6
f 7/3/6 3/2/6 6/1/6
f 3/3/1 2/2/1 1/1/1
f 2/3/1 3/2/1 4/1/1
f 5/3/2 3/2/2 1/1/2
f 3/3/2 5/2/2 6/1/2
f 7/5/3 2/5/3 4/4/3
f 2/5/3 7/5/3 8/6/3
f 7/5/4 5/5/4 8/7/4
f 5/5/4 7/5/4 6/8/4
f 5/5/5 2/5/5 8/9/5
f 2/5/5 5/5/5 1/10/5
f 3/2/6 7/3/6 4/11/6
f 7/3/6 3/2/6 6/1/6

usemtl color15

f 11/3/1 10/2/1 9/1/1
f 10/3/1 11/2/1 12/1/1
f 13/3/2 11/2/2 9/1/2
f 11/3/2 13/2/2 14/1/2
f 15/5/3 10/5/3 12/12/3
f 10/5/3 15/5/3 16/13/3
f 15/5/4 13/5/4 16/14/4
f 13/5/4 15/5/4 14/15/4
f 13/5/5 10/5/5 16/16/5
f 10/5/5 13/5/5 9/17/5
f 11/2/6 15/3/6 12/11/6
f 15/3/6 11/2/6 14/1/6
f 19/3/1 18/2/1 17/1/1
f 18/3/1 19/2/1 20/1/1
f 21/3/2 19/2/2 17/1/2
f 19/3/2 21/2/2 22/1/2
f 23/5/3 18/5/3 20/18/3
f 18/5/3 23/5/3 24/19/3
f 23/5/4 21/5/4 24/20/4
f 21/5/4 23/5/4 22/21/4
f 21/5/5 18/5/5 24/22/5
f 18/5/5 21/5/5 17/23/5
f 19/2/6 23/3/6 20/11/6
f 23/3/6 19/2/6 22/1/6
f 27/3/1 26/2/1 25/1/1
f 26/3/1 27/2/1 28/1/1
f 29/3/2 27/2/2 25/1/2
f 27/3/2 29/2/2 30/1/2
f 31/5/3 26/5/3 28/24/3
f 26/5/3 31/5/3 32/25/3
f 31/5/4 29/5/4 32/26/4
f 29/5/4 31/5/4 30/27/4
f 29/5/5 26/5/5 32/28/5
f 26/5/5 29/5/5 25/29/5
f 27/2/6 31/3/6 28/11/6
f 31/3/6 27/2/6 30/1/6
f 35/3/1 34/2/1 33/1/1
f 34/3/1 35/2/1 36/1/1
f 37/3/2 35/2/2 33/1/2
f 35/3/2 37/2/2 38/1/2
f 39/5/3 34/5/3 36/30/3
f 34/5/3 39/5/3 40/31/3
f 39/5/4 37/5/4 40/32/4
f 37/5/4 39/5/4 38/33/4
f 37/5/5 34/5/5 40/34/5
f 34/5/5 37/5/5 33/35/5
f 35/2/6 39/3/6 36/11/6
f 39/3/6 35/2/6 38/1/6

usemtl color12

f 14/3/1 16/2/1 13/1/1
f 16/3/1 14/2/1 15/1/1
f 41/3/2 14/2/2 13/1/2
f 14/3/2 41/2/2 42/1/2
f 43/5/3 16/13/3 15/5/3
f 16/13/3 43/5/3 44/36/3
f 43/5/4 41/5/4 44/37/4
f 41/5/4 43/5/4 42/38/4
f 41/5/5 16/16/5 44/39/5
f 16/16/5 41/5/5 13/5/5
f 14/2/6 43/3/6 15/11/6
f 43/3/6 14/2/6 42/1/6
f 47/3/1 46/2/1 45/1/1
f 46/3/1 47/2/1 48/1/1
f 49/3/2 47/2/2 45/1/2
f 47/3/2 49/2/2 50/1/2
f 51/5/3 46/5/3 48/40/3
f 46/5/3 51/5/3 52/41/3
f 51/5/4 49/5/4 52/42/4
f 49/5/4 51/5/4 50/43/4
f 49/5/5 46/5/5 52/44/5
f 46/5/5 49/5/5 45/45/5
f 47/2/6 51/3/6 48/11/6
f 51/3/6 47/2/6 50/1/6
f 55/3/1 54/2/1 53/1/1
f 54/3/1 55/2/1 56/1/1
f 57/3/2 55/2/2 53/1/2
f 55/3/2 57/2/2 58/1/2
f 59/5/3 54/5/3 56/46/3
f 54/5/3 59/5/3 60/47/3
f 59/5/4 57/5/4 60/48/4
f 57/5/4 59/5/4 58/49/4
f 57/5/5 54/5/5 60/50/5
f 54/5/5 57/5/5 53/51/5
f 55/2/6 59/3/6 56/11/6
f 59/3/6 55/2/6 58/1/6
f 63/3/1 62/2/1 61/1/1
f 62/3/1 63/2/1 64/1/1
f 65/3/2 63/2/2 61/1/2
f 63/3/2 65/2/2 66/1/2
f 67/5/3 62/5/3 64/52/3
f 62/5/3 67/5/3 68/53/3
f 67/5/4 65/5/4 68/54/4
f 65/5/4 67/5/4 66/55/4
f 65/5/5 62/5/5 68/56/5
f 62/5/5 65/5/5 61/57/5
f 63/2/6 67/3/6 64/11/6
f 67/3/6 63/2/6 66/1/6
f 71/3/1 70/2/1 69/1/1
f 70/3/1 71/2/1 72/1/1
f 73/3/2 71/2/2 69/1/2
f 71/3/2 73/2/2 74/1/2
f 75/5/3 70/5/3 72/58/3
f 70/5/3 75/5/3 76/59/3
f 75/5/4 73/5/4 76/60/4
f 73/5/4 75/5/4 74/61/4
f 73/5/5 70/5/5 76/62/5
f 70/5/5 73/5/5 69/63/5
f 71/2/6 75/3/6 72/11/6
f 75/3/6 71/2/6 74/1/6
f 79/3/1 78/2/1 77/1/1
f 78/3/1 79/2/1 80/1/1
f 81/3/2 79/2/2 77/1/2
f 79/3/2 81/2/2 82/1/2
f 83/5/3 78/5/3 80/64/3
f 78/5/3 83/5/3 84/65/3
f 83/5/4 81/5/4 84/66/4
f 81/5/4 83/5/4 82/67/4
f 81/5/5 78/5/5 84/68/5
f 78/5/5 81/5/5 77/69/5
f 79/2/6 83/3/6 80/11/6
f 83/3/6 79/2/6 82/1/6
f 87/3/1 86/2/1 85/1/1
f 86/3/1 87/2/1 88/1/1
f 89/3/2 87/2/2 85/1/2
f 87/3/2 89/2/2 90/1/2
f 91/5/3 86/5/3 88/70/3
f 86/5/3 91/5/3 92/71/3
f 91/5/4 89/5/4 92/72/4
f 89/5/4 91/5/4 90/73/4
f 89/5/5 86/5/5 92/74/5
f 86/5/5 89/5/5 85/75/5
f 87/2/6 91/3/6 88/11/6
f 91/3/6 87/2/6 90/1/6

usemtl color4

f 95/3/1 94/2/1 93/1/1
f 94/3/1 95/2/1 96/1/1
f 97/3/2 95/2/2 93/1/2
f 95/3/2 97/2/2 98/1/2
f 99/5/3 94/5/3 96/76/3
f 94/5/3 99/5/3 100/77/3
f 99/5/4 97/5/4 100/78/4
f 97/5/4 99/5/4 98/79/4
f 97/5/5 94/5/5 100/80/5
f 94/5/5 97/5/5 93/81/5
f 95/2/6 99/3/6 96/11/6
f 99/3/6 95/2/6 98/1/6
f 64/3/1 101/2/1 62/1/1
f 101/3/1 64/2/1 102/1/1
f 68/3/2 64/2/2 62/1/2
f 64/3/2 68/2/2 67/1/2
f 103/5/3 101/5/3 102/82/3
f 101/5/3 103/5/3 104/83/3
f 103/5/4 68/54/4 104/84/4
f 68/54/4 103/5/4 67/5/4
f 68/56/5 101/5/5 104/85/5
f 101/5/5 68/56/5 62/5/5
f 64/2/6 103/3/6 102/11/6
f 103/3/6 64/2/6 67/1/6
f 107/3/1 106/2/1 105/1/1
f 106/3/1 107/2/1 108/1/1
f 109/3/2 107/2/2 105/1/2
f 107/3/2 109/2/2 110/1/2
f 111/5/3 106/5/3 108/86/3
f 106/5/3 111/5/3 112/87/3
f 111/5/4 109/5/4 112/88/4
f 109/5/4 111/5/4 110/89/4
f 109/5/5 106/5/5 112/90/5
f 106/5/5 109/5/5 105/91/5
f 107/2/6 111/3/6 108/11/6
f 111/3/6 107/2/6 110/1/6
f 115/3/1 114/2/1 113/1/1
f 114/3/1 115/2/1 116/1/1
f 117/3/2 115/2/2 113/1/2
f 115/3/2 117/2/2 118/1/2
f 119/5/3 114/5/3 116/92/3
f 114/5/3 119/5/3 120/93/3
f 119/5/4 117/5/4 120/94/4
f 117/5/4 119/5/4 118/95/4
f 117/5/5 114/5/5 120/96/5
f 114/5/5 117/5/5 113/97/5
f 115/2/6 119/3/6 116/11/6
f 119/3/6 115/2/6 118/1/6
f 123/3/1 122/2/1 121/1/1
f 122/3/1 123/2/1 124/1/1
f 125/3/2 123/2/2 121/1/2
f 123/3/2 125/2/2 126/1/2
f 127/5/3 122/5/3 124/98/3
f 122/5/3 127/5/3 128/99/3
f 127/5/4 125/5/4 128/100/4
f 125/5/4 127/5/4 126/101/4
f 125/5/5 122/5/5 128/102/5
f 122/5/5 125/5/5 121/103/5
f 123/2/6 127/3/6 124/11/6
f 127/3/6 123/2/6 126/1/6
f 131/3/1 130/2/1 129/1/1
f 130/3/1 131/2/1 132/1/1
f 133/3/2 131/2/2 129/1/2
f 131/3/2 133/2/2 134/1/2
f 135/5/3 130/5/3 132/104/3
f 130/5/3 135/5/3 136/105/3
f 135/5/4 133/5/4 136/106/4
f 133/5/4 135/5/4 134/107/4
f 133/5/5 130/5/5 136/108/5
f 130/5/5 133/5/5 129/109/5
f 131/2/6 135/3/6 132/11/6
f 135/3/6 131/2/6 134/1/6
f 139/3/1 138/2/1 137/1/1
f 138/3/1 139/2/1 140/1/1
f 141/3/2 139/2/2 137/1/2
f 139/3/2 141/2/2 142/1/2
f 143/5/3 138/5/3 140/110/3
f 138/5/3 143/5/3 144/111/3
f 143/5/4 141/5/4 144/112/4
f 141/5/4 143/5/4 142/113/4
f 141/5/5 138/5/5 144/114/5
f 138/5/5 141/5/5 137/115/5
f 139/2/6 143/3/6 140/11/6
f 143/3/6 139/2/6 142/1/6
f 147/3/1 146/2/1 145/1/1
f 146/3/1 147/2/1 148/1/1
f 149/3/2 147/2/2 145/1/2
f 147/3/2 149/2/2 150/1/2
f 151/5/3 146/5/3 148/116/3
f 146/5/3 151/5/3 152/117/3
f 151/5/4 149/5/4 152/118/4
f 149/5/4 151/5/4 150/119/4
f 149/5/5 146/5/5 152/120/5
f 146/5/5 149/5/5 145/121/5
f 147/2/6 151/3/6 148/11/6
f 151/3/6 147/2/6 150/1/6
f 155/3/1 154/2/1 153/1/1
f 154/3/1 155/2/1 156/1/1
f 157/3/2 155/2/2 153/1/2
f 155/3/2 157/2/2 158/1/2
f 159/5/3 154/5/3 156/122/3
f 154/5/3 159/5/3 160/123/3
f 159/5/4 157/5/4 160/124/4
f 157/5/4 159/5/4 158/125/4
f 157/5/5 154/5/5 160/126/5
f 154/5/5 157/5/5 153/127/5
f 155/2/6 159/3/6 156/11/6
f 159/3/6 155/2/6 158/1/6

usemtl color18

f 163/3/1 162/2/1 161/1/1
f 162/3/1 163/2/1 164/1/1
f 165/3/2 163/2/2 161/1/2
f 163/3/2 165/2/2 166/1/2
f 167/5/3 162/5/3 164/128/3
f 162/5/3 167/5/3 168/129/3
f 167/5/4 165/5/4 168/130/4
f 165/5/4 167/5/4 166/131/4
f 165/5/5 162/5/5 168/132/5
f 162/5/5 165/5/5 161/133/5
f 163/2/6 167/3/6 164/11/6
f 167/3/6 163/2/6 166/1/6

usemtl color19

f 170/3/1 61/2/1 169/1/1
f 61/3/1 170/2/1 63/1/1
f 171/3/2 170/2/2 169/1/2
f 170/3/2 171/2/2 172/1/2
f 66/5/3 61/5/3 63/134/3
f 61/5/3 66/5/3 65/135/3
f 66/55/4 171/5/4 65/5/4
f 171/5/4 66/55/4 172/136/4
f 171/5/5 61/57/5 65/5/5
f 61/57/5 171/5/5 169/137/5
f 170/2/6 66/3/6 63/11/6
f 66/3/6 170/2/6 172/1/6
f 175/3/1 174/2/1 173/1/1
f 174/3/1 175/2/1 176/1/1
f 177/3/2 175/2/2 173/1/2
f 175/3/2 177/2/2 178/1/2
f 179/5/3 174/5/3 176/138/3
f 174/5/3 179/5/3 180/139/3
f 179/5/4 177/5/4 180/140/4
f 177/5/4 179/5/4 178/141/4
f 177/5/5 174/5/5 180/142/5
f 174/5/5 177/5/5 173/143/5
f 175/2/6 179/3/6 176/11/6
f 179/3/6 175/2/6 178/1/6
f 183/3/1 182/2/1 181/1/1
f 182/3/1 183/2/1 184/1/1
f 185/3/2 183/2/2 181/1/2
f 183/3/2 185/2/2 186/1/2
f 187/5/3 182/5/3 184/144/3
f 182/5/3 187/5/3 188/145/3
f 187/5/4 185/5/4 188/146/4
f 185/5/4 187/5/4 186/147/4
f 185/5/5 182/5/5 188/148/5
f 182/5/5 185/5/5 181/149/5
f 183/2/6 187/3/6 184/11/6
f 187/3/6 183/2/6 186/1/6

usemtl color7

f 172/3/1 65/2/1 171/1/1
f 65/3/1 172/2/1 66/1/1
f 173/3/2 172/2/2 171/1/2
f 172/3/2 173/2/2 175/1/2
f 176/138/3 65/135/3 66/5/3
f 65/135/3 176/138/3 174/5/3
f 176/5/4 173/5/4 174/150/4
f 173/5/4 176/5/4 175/151/4
f 173/143/5 65/5/5 174/5/5
f 65/5/5 173/143/5 171/5/5
f 172/2/6 176/3/6 66/11/6
f 176/3/6 172/2/6 175/1/6
f 178/3/1 180/2/1 177/1/1
f 180/3/1 178/2/1 179/1/1
f 181/3/2 178/2/2 177/1/2
f 178/3/2 181/2/2 183/1/2
f 184/144/3 180/139/3 179/5/3
f 180/139/3 184/144/3 182/5/3
f 184/5/4 181/5/4 182/152/4
f 181/5/4 184/5/4 183/153/4
f 181/149/5 180/142/5 182/5/5
f 180/142/5 181/149/5 177/5/5
f 178/2/6 184/3/6 179/11/6
f 184/3/6 178/2/6 183/1/6
f 135/3/1 189/2/1 136/1/1
f 189/3/1 135/2/1 190/1/1
f 191/3/2 135/2/2 136/1/2
f 135/3/2 191/2/2 192/1/2
f 193/5/3 189/5/3 190/154/3
f 189/5/3 193/5/3 194/155/3
f 193/5/4 191/5/4 194/156/4
f 191/5/4 193/5/4 192/157/4
f 191/5/5 189/5/5 194/158/5
f 189/5/5 191/5/5 136/108/5
f 135/2/6 193/3/6 190/11/6
f 193/3/6 135/2/6 192/1/6
f 197/3/1 196/2/1 195/1/1
f 196/3/1 197/2/1 198/1/1
f 199/3/2 197/2/2 195/1/2
f 197/3/2 199/2/2 200/1/2
f 201/5/3 196/5/3 198/159/3
f 196/5/3 201/5/3 202/160/3
f 201/5/4 199/5/4 202/161/4
f 199/5/4 201/5/4 200/162/4
f 199/5/5 196/5/5 202/163/5
f 196/5/5 199/5/5 195/164/5
f 197/2/6 201/3/6 198/11/6
f 201/3/6 197/2/6 200/1/6

usemtl color8

f 205/3/1 204/2/1 203/1/1
f 204/3/1 205/2/1 206/1/1
f 207/3/2 205/2/2 203/1/2
f 205/3/2 207/2/2 208/1/2
f 209/5/3 204/5/3 206/165/3
f 204/5/3 209/5/3 210/166/3
f 209/5/4 207/5/4 210/167/4
f 207/5/4 209/5/4 208/168/4
f 207/5/5 204/5/5 210/169/5
f 204/5/5 207/5/5 203/170/5
f 205/2/6 209/3/6 206/11/6
f 209/3/6 205/2/6 208/1/6
f 213/3/1 212/2/1 211/1/1
f 212/3/1 213/2/1 214/1/1
f 215/3/2 213/2/2 211/1/2
f 213/3/2 215/2/2 216/1/2
f 217/5/3 212/5/3 214/171/3
f 212/5/3 217/5/3 218/172/3
f 217/5/4 215/5/4 218/173/4
f 215/5/4 217/5/4 216/174/4
f 215/5/5 212/5/5 218/175/5
f 212/5/5 215/5/5 211/176/5
f 213/2/6 217/3/6 214/11/6
f 217/3/6 213/2/6 216/1/6

usemtl color11

f 221/3/1 220/2/1 219/1/1
f 220/3/1 221/2/1 222/1/1
f 223/3/2 221/2/2 219/1/2
f 221/3/2 223/2/2 224/1/2
f 225/5/3 220/5/3 222/177/3
f 220/5/3 225/5/3 226/178/3
f 225/5/4 223/5/4 226/179/4
f 223/5/4 225/5/4 224/180/4
f 223/5/5 220/5/5 226/181/5
f 220/5/5 223/5/5 219/182/5
f 221/2/6 225/3/6 222/11/6
f 225/3/6 221/2/6 224/1/6
f 229/3/1 228/2/1 227/1/1
f 228/3/1 229/2/1 230/1/1
f 231/3/2 229/2/2 227/1/2
f 229/3/2 231/2/2 232/1/2
f 233/5/3 228/5/3 230/183/3
f 228/5/3 233/5/3 234/184/3
f 233/5/4 231/5/4 234/185/4
f 231/5/4 233/5/4 232/186/4
f 231/5/5 228/5/5 234/187/5
f 228/5/5 231/5/5 227/188/5
f 229/2/6 233/3/6 230/11/6
f 233/3/6 229/2/6 232/1/6
f 237/3/1 236/2/1 235/1/1
f 236/3/1 237/2/1 238/1/1
f 239/3/2 237/2/2 235/1/2
f 237/3/2 239/2/2 240/1/2
f 241/5/3 236/5/3 238/189/3
f 236/5/3 241/5/3 242/190/3
f 241/5/4 239/5/4 242/191/4
f 239/5/4 241/5/4 240/192/4
f 239/5/5 236/5/5 242/193/5
f 236/5/5 239/5/5 235/194/5
f 237/2/6 241/3/6 238/11/6
f 241/3/6 237/2/6 240/1/6

usemtl color9

f 245/3/1 244/2/1 243/1/1
f 244/3/1 245/2/1 246/1/1
f 247/3/2 245/2/2 243/1/2
f 245/3/2 247/2/2 248/1/2
f 249/5/3 244/5/3 246/195/3
f 244/5/3 249/5/3 250/196/3
f 249/5/4 247/5/4 250/197/4
f 247/5/4 249/5/4 248/198/4
f 247/5/5 244/5/5 250/199/5
f 244/5/5 247/5/5 243/200/5
f 245/2/6 249/3/6 246/11/6
f 249/3/6 245/2/6 248/1/6
f 222/3/1 251/2/1 220/1/1
f 251/3/1 222/2/1 252/1/1
f 226/3/2 222/2/2 220/1/2
f 222/3/2 226/2/2 225/1/2
f 253/5/3 251/5/3 252/201/3
f 251/5/3 253/5/3 254/202/3
f 253/5/4 226/179/4 254/203/4
f 226/179/4 253/5/4 225/5/4
f 226/181/5 251/5/5 254/204/5
f 251/5/5 226/181/5 220/5/5
f 222/2/6 253/3/6 252/11/6
f 253/3/6 222/2/6 225/1/6
f 108/3/1 255/2/1 106/1/1
f 255/3/1 108/2/1 256/1/1
f 112/3/2 108/2/2 106/1/2
f 108/3/2 112/2/2 111/1/2
f 257/5/3 255/5/3 256/205/3
f 255/5/3 257/5/3 258/206/3
f 257/5/4 112/88/4 258/207/4
f 112/88/4 257/5/4 111/5/4
f 112/90/5 255/5/5 258/208/5
f 255/5/5 112/90/5 106/5/5
f 108/2/6 257/3/6 256/11/6
f 257/3/6 108/2/6 111/1/6
f 230/3/1 259/2/1 228/1/1
f 259/3/1 230/2/1 260/1/1
f 234/3/2 230/2/2 228/1/2
f 230/3/2 234/2/2 233/1/2
f 261/5/3 259/5/3 260/209/3
f 259/5/3 261/5/3 262/210/3
f 261/5/4 234/185/4 262/211/4
f 234/185/4 261/5/4 233/5/4
f 234/187/5 259/5/5 262/212/5
f 259/5/5 234/187/5 228/5/5
f 230/2/6 261/3/6 260/11/6
f 261/3/6 230/2/6 233/1/6
f 124/3/1 263/2/1 122/1/1
f 263/3/1 124/2/1 264/1/1
f 128/3/2 124/2/2 122/1/2
f 124/3/2 128/2/2 127/1/2
f 265/5/3 263/5/3 264/213/3
f 263/5/3 265/5/3 266/214/3
f 265/5/4 128/100/4 266/215/4
f 128/100/4 265/5/4 127/5/4
f 128/102/5 263/5/5 266/216/5
f 263/5/5 128/102/5 122/5/5
f 124/2/6 265/3/6 264/11/6
f 265/3/6 124/2/6 127/1/6
f 238/3/1 267/2/1 236/1/1
f 267/3/1 238/2/1 268/1/1
f 242/3/2 238/2/2 236/1/2
f 238/3/2 242/2/2 241/1/2
f 269/5/3 267/5/3 268/217/3
f 267/5/3 269/5/3 270/218/3
f 269/5/4 242/191/4 270/219/4
f 242/191/4 269/5/4 241/5/4
f 242/193/5 267/5/5 270/220/5
f 267/5/5 242/193/5 236/5/5
f 238/2/6 269/3/6 268/11/6
f 269/3/6 238/2/6 241/1/6

usemtl color3

f 66/3/1 68/2/1 65/1/1
f 68/3/1 66/2/1 67/1/1
f 188/3/2 66/2/2 65/1/2
f 66/3/2 188/2/2 187/1/2
f 271/5/3 68/53/3 67/5/3
f 68/53/3 271/5/3 272/221/3
f 271/5/4 188/146/4 272/222/4
f 188/146/4 271/5/4 187/5/4
f 188/148/5 68/56/5 272/223/5
f 68/56/5 188/148/5 65/5/5
f 66/2/6 271/3/6 67/11/6
f 271/3/6 66/2/6 187/1/6
f 275/3/1 274/2/1 273/1/1
f 274/3/1 275/2/1 276/1/1
f 277/3/2 275/2/2 273/1/2
f 275/3/2 277/2/2 278/1/2
f 279/5/3 274/5/3 276/224/3
f 274/5/3 279/5/3 280/225/3
f 279/5/4 277/5/4 280/226/4
f 277/5/4 279/5/4 278/227/4
f 277/5/5 274/5/5 280/228/5
f 274/5/5 277/5/5 273/229/5
f 275/2/6 279/3/6 276/11/6
f 279/3/6 275/2/6 278/1/6
f 102/3/1 113/2/1 101/1/1
f 113/3/1 102/2/1 115/1/1
f 104/3/2 102/2/2 101/1/2
f 102/3/2 104/2/2 103/1/2
f 118/5/3 113/5/3 115/230/3
f 113/5/3 118/5/3 117/231/3
f 118/95/4 104/84/4 117/5/4
f 104/84/4 118/95/4 103/5/4
f 104/85/5 113/97/5 117/5/5
f 113/97/5 104/85/5 101/5/5
f 102/2/6 118/3/6 115/11/6
f 118/3/6 102/2/6 103/1/6
f 116/3/1 129/2/1 114/1/1
f 129/3/1 116/2/1 131/1/1
f 120/3/2 116/2/2 114/1/2
f 116/3/2 120/2/2 119/1/2
f 134/5/3 129/5/3 131/232/3
f 129/5/3 134/5/3 133/233/3
f 134/107/4 120/94/4 133/5/4
f 120/94/4 134/107/4 119/5/4
f 120/96/5 129/109/5 133/5/5
f 129/109/5 120/96/5 114/5/5
f 116/2/6 134/3/6 131/11/6
f 134/3/6 116/2/6 119/1/6
f 282/3/1 136/2/1 281/1/1
f 136/3/1 282/2/1 135/1/1
f 283/3/2 282/2/2 281/1/2
f 282/3/2 283/2/2 284/1/2
f 285/5/3 136/105/3 135/5/3
f 136/105/3 285/5/3 286/234/3
f 285/5/4 283/5/4 286/235/4
f 283/5/4 285/5/4 284/236/4
f 283/5/5 136/108/5 286/237/5
f 136/108/5 283/5/5 281/238/5
f 282/2/6 285/3/6 135/11/6
f 285/3/6 282/2/6 284/1/6
f 289/3/1 288/2/1 287/1/1
f 288/3/1 289/2/1 290/1/1
f 145/3/2 289/2/2 287/1/2
f 289/3/2 145/2/2 147/1/2
f 148/116/3 288/5/3 290/239/3
f 288/5/3 148/116/3 146/5/3
f 148/5/4 145/5/4 146/240/4
f 145/5/4 148/5/4 147/241/4
f 145/121/5 288/5/5 146/5/5
f 288/5/5 145/121/5 287/242/5
f 289/2/6 148/3/6 290/11/6
f 148/3/6 289/2/6 147/1/6

usemtl color10

f 246/3/1 105/2/1 244/1/1
f 105/3/1 246/2/1 107/1/1
f 250/3/2 246/2/2 244/1/2
f 246/3/2 250/2/2 249/1/2
f 110/5/3 105/5/3 107/243/3
f 105/5/3 110/5/3 109/244/3
f 110/89/4 250/197/4 109/5/4
f 250/197/4 110/89/4 249/5/4
f 250/199/5 105/91/5 109/5/5
f 105/91/5 250/199/5 244/5/5
f 246/2/6 110/3/6 107/11/6
f 110/3/6 246/2/6 249/1/6
f 256/3/1 121/2/1 255/1/1
f 121/3/1 256/2/1 123/1/1
f 258/3/2 256/2/2 255/1/2
f 256/3/2 258/2/2 257/1/2
f 126/5/3 121/5/3 123/245/3
f 121/5/3 126/5/3 125/246/3
f 126/101/4 258/207/4 125/5/4
f 258/207/4 126/101/4 257/5/4
f 258/208/5 121/103/5 125/5/5
f 121/103/5 258/208/5 255/5/5
f 256/2/6 126/3/6 123/11/6
f 126/3/6 256/2/6 257/1/6
f 264/3/1 291/2/1 263/1/1
f 291/3/1 264/2/1 292/1/1
f 266/3/2 264/2/2 263/1/2
f 264/3/2 266/2/2 265/1/2
f 293/5/3 291/5/3 292/247/3
f 291/5/3 293/5/3 294/248/3
f 293/5/4 266/215/4 294/249/4
f 266/215/4 293/5/4 265/5/4
f 266/216/5 291/5/5 294/250/5
f 291/5/5 266/216/5 263/5/5
f 264/2/6 293/3/6 292/11/6
f 293/3/6 264/2/6 265/1/6

usemtl color16

f 297/3/1 296/2/1 295/1/1
f 296/3/1 297/2/1 298/1/1
f 299/3/2 297/2/2 295/1/2
f 297/3/2 299/2/2 300/1/2
f 301/5/3 296/5/3 298/251/3
f 296/5/3 301/5/3 302/252/3
f 301/5/4 299/5/4 302/253/4
f 299/5/4 301/5/4 300/254/4
f 299/5/5 296/5/5 302/255/5
f 296/5/5 299/5/5 295/256/5
f 297/2/6 301/3/6 298/11/6
f 301/3/6 297/2/6 300/1/6
f 305/3/1 304/2/1 303/1/1
f 304/3/1 305/2/1 306/1/1
f 307/3/2 305/2/2 303/1/2
f 305/3/2 307/2/2 308/1/2
f 309/5/3 304/5/3 306/257/3
f 304/5/3 309/5/3 310/258/3
f 309/5/4 307/5/4 310/259/4
f 307/5/4 309/5/4 308/260/4
f 307/5/5 304/5/5 310/261/5
f 304/5/5 307/5/5 303/262/5
f 305/2/6 309/3/6 306/11/6
f 309/3/6 305/2/6 308/1/6
f 313/3/1 312/2/1 311/1/1
f 312/3/1 313/2/1 314/1/1
f 315/3/2 313/2/2 311/1/2
f 313/3/2 315/2/2 316/1/2
f 317/5/3 312/5/3 314/263/3
f 312/5/3 317/5/3 318/264/3
f 317/5/4 315/5/4 318/265/4
f 315/5/4 317/5/4 316/266/4
f 315/5/5 312/5/5 318/267/5
f 312/5/5 315/5/5 311/268/5
f 313/2/6 317/3/6 314/11/6
f 317/3/6 313/2/6 316/1/6
f 321/3/1 320/2/1 319/1/1
f 320/3/1 321/2/1 322/1/1
f 323/3/2 321/2/2 319/1/2
f 321/3/2 323/2/2 324/1/2
f 325/5/3 320/5/3 322/269/3
f 320/5/3 325/5/3 326/270/3
f 325/5/4 323/5/4 326/271/4
f 323/5/4 325/5/4 324/272/4
f 323/5/5 320/5/5 326/273/5
f 320/5/5 323/5/5 319/274/5
f 321/2/6 325/3/6 322/11/6
f 325/3/6 321/2/6 324/1/6
f 329/3/1 328/2/1 327/1/1
f 328/3/1 329/2/1 330/1/1
f 331/3/2 329/2/2 327/1/2
f 329/3/2 331/2/2 332/1/2
f 333/5/3 328/5/3 330/275/3
f 328/5/3 333/5/3 334/276/3
f 333/5/4 331/5/4 334/277/4
f 331/5/4 333/5/4 332/278/4
f 331/5/5 328/5/5 334/279/5
f 328/5/5 331/5/5 327/280/5
f 329/2/6 333/3/6 330/11/6
f 333/3/6 329/2/6 332/1/6
f 337/3/1 336/2/1 335/1/1
f 336/3/1 337/2/1 338/1/1
f 339/3/2 337/2/2 335/1/2
f 337/3/2 339/2/2 340/1/2
f 341/5/3 336/5/3 338/281/3
f 336/5/3 341/5/3 342/282/3
f 341/5/4 339/5/4 342/283/4
f 339/5/4 341/5/4 340/284/4
f 339/5/5 336/5/5 342/285/5
f 336/5/5 339/5/5 335/286/5
f 337/2/6 341/3/6 338/11/6
f 341/3/6 337/2/6 340/1/6

usemtl color17

f 300/3/1 302/2/1 299/1/1
f 302/3/1 300/2/1 301/1/1
f 272/3/2 300/2/2 299/1/2
f 300/3/2 272/2/2 271/1/2
f 343/5/3 302/252/3 301/5/3
f 302/252/3 343/5/3 344/287/3
f 343/5/4 272/222/4 344/288/4
f 272/222/4 343/5/4 271/5/4
f 272/223/5 302/255/5 344/289/5
f 302/255/5 272/223/5 299/5/5
f 300/2/6 343/3/6 301/11/6
f 343/3/6 300/2/6 271/1/6
f 316/3/1 318/2/1 315/1/1
f 318/3/1 316/2/1 317/1/1
f 345/3/2 316/2/2 315/1/2
f 316/3/2 345/2/2 346/1/2
f 347/5/3 318/264/3 317/5/3
f 318/264/3 347/5/3 348/290/3
f 347/5/4 345/5/4 348/291/4
f 345/5/4 347/5/4 346/292/4
f 345/5/5 318/267/5 348/293/5
f 318/267/5 345/5/5 315/5/5
f 316/2/6 347/3/6 317/11/6
f 347/3/6 316/2/6 346/1/6
f 332/3/1 334/2/1 331/1/1
f 334/3/1 332/2/1 333/1/1
f 349/3/2 332/2/2 331/1/2
f 332/3/2 349/2/2 350/1/2
f 351/5/3 334/276/3 333/5/3
f 334/276/3 351/5/3 352/294/3
f 351/5/4 349/5/4 352/295/4
f 349/5/4 351/5/4 350/296/4
f 349/5/5 334/279/5 352/297/5
f 334/279/5 349/5/5 331/5/5
f 332/2/6 351/3/6 333/11/6
f 351/3/6 332/2/6 350/1/6

usemtl color13

f 74/3/1 76/2/1 73/1/1
f 76/3/1 74/2/1 75/1/1
f 353/3/2 74/2/2 73/1/2
f 74/3/2 353/2/2 354/1/2
f 355/5/3 76/59/3 75/5/3
f 76/59/3 355/5/3 356/298/3
f 355/5/4 353/5/4 356/299/4
f 353/5/4 355/5/4 354/300/4
f 353/5/5 76/62/5 356/301/5
f 76/62/5 353/5/5 73/5/5
f 74/2/6 355/3/6 75/11/6
f 355/3/6 74/2/6 354/1/6
f 359/3/1 358/2/1 357/1/1
f 358/3/1 359/2/1 360/1/1
f 361/3/2 359/2/2 357/1/2
f 359/3/2 361/2/2 362/1/2
f 363/5/3 358/5/3 360/302/3
f 358/5/3 363/5/3 364/303/3
f 363/5/4 361/5/4 364/304/4
f 361/5/4 363/5/4 362/305/4
f 361/5/5 358/5/5 364/306/5
f 358/5/5 361/5/5 357/307/5
f 359/2/6 363/3/6 360/11/6
f 363/3/6 359/2/6 362/1/6
f 82/3/1 84/2/1 81/1/1
f 84/3/1 82/2/1 83/1/1
f 365/3/2 82/2/2 81/1/2
f 82/3/2 365/2/2 366/1/2
f 367/5/3 84/65/3 83/5/3
f 84/65/3 367/5/3 368/308/3
f 367/5/4 365/5/4 368/309/4
f 365/5/4 367/5/4 366/310/4
f 365/5/5 84/68/5 368/311/5
f 84/68/5 365/5/5 81/5/5
f 82/2/6 367/3/6 83/11/6
f 367/3/6 82/2/6 366/1/6
f 371/3/1 370/2/1 369/1/1
f 370/3/1 371/2/1 372/1/1
f 373/3/2 371/2/2 369/1/2
f 371/3/2 373/2/2 374/1/2
f 375/5/3 370/5/3 372/312/3
f 370/5/3 375/5/3 376/313/3
f 375/5/4 373/5/4 376/314/4
f 373/5/4 375/5/4 374/315/4
f 373/5/5 370/5/5 376/316/5
f 370/5/5 373/5/5 369/317/5
f 371/2/6 375/3/6 372/11/6
f 375/3/6 371/2/6 374/1/6
f 90/3/1 92/2/1 89/1/1
f 92/3/1 90/2/1 91/1/1
f 377/3/2 90/2/2 89/1/2
f 90/3/2 377/2/2 378/1/2
f 379/5/3 92/71/3 91/5/3
f 92/71/3 379/5/3 380/318/3
f 379/5/4 377/5/4 380/319/4
f 377/5/4 379/5/4 378/320/4
f 377/5/5 92/74/5 380/321/5
f 92/74/5 377/5/5 89/5/5
f 90/2/6 379/3/6 91/11/6
f 379/3/6 90/2/6 378/1/6
f 383/3/1 382/2/1 381/1/1
f 382/3/1 383/2/1 384/1/1
f 385/3/2 383/2/2 381/1/2
f 383/3/2 385/2/2 386/1/2
f 387/5/3 382/5/3 384/322/3
f 382/5/3 387/5/3 388/323/3
f 387/5/4 385/5/4 388/324/4
f 385/5/4 387/5/4 386/325/4
f 385/5/5 382/5/5 388/326/5
f 382/5/5 385/5/5 381/327/5
f 383/2/6 387/3/6 384/11/6
f 387/3/6 383/2/6 386/1/6

usemtl color14

f 354/3/1 356/2/1 353/1/1
f 356/3/1 354/2/1 355/1/1
f 389/3/2 354/2/2 353/1/2
f 354/3/2 389/2/2 390/1/2
f 391/5/3 356/298/3 355/5/3
f 356/298/3 391/5/3 392/328/3
f 391/5/4 389/5/4 392/329/4
f 389/5/4 391/5/4 390/330/4
f 389/5/5 356/301/5 392/331/5
f 356/301/5 389/5/5 353/5/5
f 354/2/6 391/3/6 355/11/6
f 391/3/6 354/2/6 390/1/6
f 366/3/1 368/2/1 365/1/1
f 368/3/1 366/2/1 367/1/1
f 393/3/2 366/2/2 365/1/2
f 366/3/2 393/2/2 394/1/2
f 395/5/3 368/308/3 367/5/3
f 368/308/3 395/5/3 396/332/3
f 395/5/4 393/5/4 396/333/4
f 393/5/4 395/5/4 394/334/4
f 393/5/5 368/311/5 396/335/5
f 368/311/5 393/5/5 365/5/5
f 366/2/6 395/3/6 367/11/6
f 395/3/6 366/2/6 394/1/6
f 378/3/1 380/2/1 377/1/1
f 380/3/1 378/2/1 379/1/1
f 397/3/2 378/2/2 377/1/2
f 378/3/2 397/2/2 398/1/2
f 139/5/3 380/318/3 379/5/3
f 380/318/3 139/5/3 137/336/3
f 139/5/4 397/5/4 137/337/4
f 397/5/4 139/5/4 398/338/4
f 397/5/5 380/321/5 137/115/5
f 380/321/5 397/5/5 377/5/5
f 378/2/6 139/3/6 379/11/6
f 139/3/6 378/2/6 398/1/6

usemtl color5

f 401/3/1 400/2/1 399/1/1
f 400/3/1 401/2/1 402/1/1
f 403/3/2 401/2/2 399/1/2
f 401/3/2 403/2/2 404/1/2
f 405/5/3 400/5/3 402/339/3
f 400/5/3 405/5/3 406/340/3
f 405/5/4 403/5/4 406/341/4
f 403/5/4 405/5/4 404/342/4
f 403/5/5 400/5/5 406/343/5
f 400/5/5 403/5/5 399/344/5
f 401/2/6 405/3/6 402/11/6
f 405/3/6 401/2/6 404/1/6

usemtl color6

f 132/3/1 407/2/1 130/1/1
f 407/3/1 132/2/1 408/1/1
f 136/3/2 132/2/2 130/1/2
f 132/3/2 136/2/2 135/1/2
f 190/154/3 407/5/3 408/345/3
f 407/5/3 190/154/3 189/5/3
f 190/5/4 136/106/4 189/346/4
f 136/106/4 190/5/4 135/5/4
f 136/108/5 407/5/5 189/5/5
f 407/5/5 136/108/5 130/5/5
f 132/2/6 190/3/6 408/11/6
f 190/3/6 132/2/6 135/1/6
f 192/3/1 194/2/1 191/1/1
f 194/3/1 192/2/1 193/1/1
f 195/3/2 192/2/2 191/1/2
f 192/3/2 195/2/2 197/1/2
f 198/159/3 194/155/3 193/5/3
f 194/155/3 198/159/3 196/5/3
f 198/5/4 195/5/4 196/347/4
f 195/5/4 198/5/4 197/348/4
f 195/164/5 194/158/5 196/5/5
f 194/158/5 195/164/5 191/5/5
f 192/2/6 198/3/6 193/11/6
f 198/3/6 192/2/6 197/1/6
f 200/3/1 202/2/1 199/1/1
f 202/3/1 200/2/1 201/1/1
f 286/3/2 200/2/2 199/1/2
f 200/3/2 286/2/2 285/1/2
f 409/5/3 202/160/3 201/5/3
f 202/160/3 409/5/3 410/349/3
f 409/5/4 286/235/4 410/350/4
f 286/235/4 409/5/4 285/5/4
f 286/237/5 202/163/5 410/351/5
f 202/163/5 286/237/5 199/5/5
f 200/2/6 409/3/6 201/11/6
f 409/3/6 200/2/6 285/1/6

usemtl color2

f 413/3/1 412/2/1 411/1/1
f 412/3/1 413/2/1 414/1/1
f 415/3/2 413/2/2 411/1/2
f 413/3/2 415/2/2 416/1/2
f 417/5/3 412/5/3 414/352/3
f 412/5/3 417/5/3 418/353/3
f 417/5/4 415/5/4 418/354/4
f 415/5/4 417/5/4 416/355/4
f 415/5/5 412/5/5 418/356/5
f 412/5/5 415/5/5 411/357/5
f 413/2/6 417/3/6 414/11/6
f 417/3/6 413/2/6 416/1/6
f 421/3/1 420/2/1 419/1/1
f 420/3/1 421/2/1 422/1/1
f 287/3/2 421/2/2 419/1/2
f 421/3/2 287/2/2 289/1/2
f 290/239/3 420/5/3 422/358/3
f 420/5/3 290/239/3 288/5/3
f 290/5/4 287/5/4 288/359/4
f 287/5/4 290/5/4 289/360/4
f 287/242/5 420/5/5 288/5/5
f 420/5/5 287/242/5 419/361/5
f 421/2/6 290/3/6 422/11/6
f 290/3/6 421/2/6 289/1/6

