# Created by Kenney (www.kenney.nl)

mtllib Grenade 5O4 Peachflame.mtl

v 2 6 -0.55
v 2 5 -0.55
v 2 6 0.55
v 2 5 0.55
v 0 6 -0.55
v 0 6 0.55
v 0 5 0.55
v 0 5 -0.55
v 1 6 -0.55
v 1 6 0.55
v 1 5 0.55
v 1 5 -0.55
v 0 5 -1.65
v 0 4 -1.65
v 0 5 1.65
v 0 4 1.65
v -1 5 -1.65
v -1 5 1.65
v -1 4 1.65
v -1 4 -1.65
v 1 3 -2.2
v 1 1 -2.2
v 1 3 2.2
v 1 1 2.2
v 0 3 -2.2
v 0 3 2.2
v 0 1 2.2
v 0 1 -2.2
v 1 0 -2.2
v 1 -1 -2.2
v 1 0 2.2
v 1 -1 2.2
v 0 0 -2.2
v 0 0 2.2
v 0 -1 2.2
v 0 -1 -2.2
v 1 -1 -1.65
v 1 -2 -1.65
v 1 -1 1.65
v 1 -2 1.65
v 0 -1 -1.65
v 0 -1 1.65
v 0 -2 1.65
v 0 -2 -1.65
v -2 -1 -1.65
v -2 -2 -1.65
v -2 -1 1.65
v -2 -2 1.65
v -3 -1 -1.65
v -3 -1 1.65
v -3 -2 1.65
v -3 -2 -1.65
v -1 6 -0.55
v -1 6 0.55
v -1 5 0.55
v -1 5 -0.55
v -2 5 -1.65
v -2 5 1.65
v -2 4 1.65
v -2 4 -1.65
v -2 3 -1.65
v -2 3 1.65
v -3 4 -1.65
v -3 4 1.65
v -3 3 1.65
v -3 3 -1.65
v -2 6 -0.55
v -2 6 0.55
v -2 5 0.55
v -2 5 -0.55
v 3 5 -0.55
v 3 4 -0.55
v 3 5 0.55
v 3 4 0.55
v 2 4 0.55
v 2 4 -0.55
v 0 3 -2.75
v 0 2 -2.75
v 0 3 2.75
v 0 2 2.75
v -2 3 -2.75
v -2 3 2.75
v -2 2 2.75
v -2 2 -2.75
v -2 3 -2.2
v -2 -1 -2.2
v -2 3 2.2
v -2 -1 2.2
v -3 3 -2.2
v -3 3 2.2
v -3 -1 2.2
v -3 -1 -2.2
v 3 2 -0.55
v 3 1 -0.55
v 3 2 0.55
v 3 1 0.55
v 2 2 -0.55
v 2 2 0.55
v 2 1 0.55
v 2 1 -0.55
v 0 -1 -2.75
v 0 -2 -2.75
v 0 -1 2.75
v 0 -2 2.75
v -2 -1 -2.75
v -2 -1 2.75
v -2 -2 2.75
v -2 -2 -2.75
v 1 5 -1.1
v 1 4 -1.1
v 1 5 1.1
v 1 4 1.1
v 0 5 -1.1
v 0 5 1.1
v 0 4 1.1
v 0 4 -1.1
v -2 5 -1.1
v -2 4 -1.1
v -2 5 1.1
v -2 4 1.1
v -3 5 -1.1
v -3 5 1.1
v -3 4 1.1
v -3 4 -1.1
v -3 3 -1.1
v -3 3 1.1
v -4 4 -1.1
v -4 4 1.1
v -4 3 1.1
v -4 3 -1.1
v -2 -4 -1.1
v -2 -5 -1.1
v -2 -4 1.1
v -2 -5 1.1
v -3 -4 -1.1
v -3 -4 1.1
v -3 -5 1.1
v -3 -5 -1.1
v 2 4 -1.1
v 2 2 -1.1
v 2 4 1.1
v 2 2 1.1
v 1 2 1.1
v 1 2 -1.1
v -3 0 -1.1
v -3 0 1.1
v -4 0 1.1
v -4 0 -1.1
v -1 2 -2.75
v -1 -1 -2.75
v -1 2 2.75
v -1 -1 2.75
v 0 -4 -1.65
v 0 -5 -1.65
v 0 -4 1.65
v 0 -5 1.65
v -2 -4 -1.65
v -2 -4 1.65
v -2 -5 1.65
v -2 -5 -1.65
v 1 4 -1.65
v 1 3 -1.65
v 1 4 1.65
v 1 3 1.65
v 0 3 1.65
v 0 3 -1.65
v 0 4 -2.2
v 0 4 2.2
v -2 4 -2.2
v -2 4 2.2
v 2 0 -1.1
v 2 0 1.1
v 1 0 1.1
v 1 0 -1.1
v 1 -4 -1.1
v 1 -5 -1.1
v 1 -4 1.1
v 1 -5 1.1
v 0 -4 -1.1
v 0 -4 1.1
v 0 -5 1.1
v 0 -5 -1.1
v 3 0 -0.55
v 3 0 0.55
v 2 0 0.55
v 2 0 -0.55
v 4 0 -0.55
v 4 -1 -0.55
v 4 0 0.55
v 4 -1 0.55
v 3 -1 0.55
v 3 -1 -0.55
v 2 -1 -1.1
v 2 -1 1.1
v 1 -1 1.1
v 1 -1 -1.1
v -3 -2 -1.1
v -3 -2 1.1
v -4 -2 1.1
v -4 -2 -1.1
v 2 -2 -1.1
v 2 -2 1.1
v 1 -2 1.1
v 1 -2 -1.1
v 1 -3 -1.1
v 1 -3 1.1
v 0 -2 -1.1
v 0 -2 1.1
v 0 -3 1.1
v 0 -3 -1.1
v 0 -3 -1.65
v 0 -3 1.65
v -2 -3 1.65
v -2 -3 -1.65
v -2 -2 -1.1
v -2 -3 -1.1
v -2 -2 1.1
v -2 -3 1.1
v -3 -3 1.1
v -3 -3 -1.1
v -1 -3 -1.65
v -1 -3 1.65
v -1 -4 1.65
v -1 -4 -1.65

vn 1 0 0
vn 0 1 0
vn 0 -1 0
vn -1 0 0
vn 0 0 -1
vn 0 0 1

vt -19.68504 19.68504
vt 19.68504 19.68504
vt -19.68504 -19.68504
vt 0 NaN
vt 0 0
vt 0 NaN
vt 0 NaN
vt 0 NaN
vt 0 NaN
vt 0 NaN
vt 19.68504 -19.68504
vt 0 NaN
vt 0 NaN
vt 0 NaN
vt 0 NaN
vt 0 NaN
vt 0 NaN
vt 0 NaN
vt 0 NaN
vt 0 NaN
vt 0 NaN
vt 0 NaN
vt 0 NaN
vt 0 NaN
vt 0 NaN
vt 0 NaN
vt 0 NaN
vt 0 NaN
vt 0 NaN
vt 0 NaN
vt 0 NaN
vt 0 NaN
vt 0 NaN
vt 0 NaN
vt 0 NaN
vt 0 NaN
vt 0 NaN
vt 0 NaN
vt 0 NaN
vt 0 NaN
vt 0 NaN
vt 0 NaN
vt 0 NaN
vt 0 NaN
vt 0 NaN
vt 0 NaN
vt 0 NaN
vt 0 NaN
vt 0 NaN
vt 0 NaN
vt 0 NaN
vt 0 NaN
vt 0 NaN
vt 0 NaN
vt 0 NaN
vt 0 NaN
vt 0 NaN
vt 0 NaN
vt 0 NaN
vt 0 NaN
vt 0 NaN
vt 0 NaN
vt 0 NaN
vt 0 NaN
vt 0 NaN
vt 0 NaN
vt 0 NaN
vt 0 NaN
vt 0 NaN
vt 0 NaN
vt 0 NaN
vt 0 NaN
vt 0 NaN
vt 0 NaN
vt 0 NaN
vt 0 NaN
vt 0 NaN
vt 0 NaN
vt 0 NaN
vt 0 NaN
vt 0 NaN
vt 0 NaN
vt 0 NaN
vt 0 NaN
vt 0 NaN
vt 0 NaN
vt 0 NaN
vt 0 NaN
vt 0 NaN
vt 0 NaN
vt 0 NaN
vt 0 NaN
vt 0 NaN
vt 0 NaN
vt 0 NaN
vt 0 NaN
vt 0 NaN
vt 0 NaN
vt 0 NaN
vt 0 NaN
vt 0 NaN
vt 0 NaN
vt 0 NaN
vt 0 NaN
vt 0 NaN
vt 0 NaN
vt 0 NaN
vt 0 NaN
vt 0 NaN
vt 0 NaN
vt 0 NaN
vt 0 NaN
vt 0 NaN
vt 0 NaN
vt 0 NaN
vt 0 NaN
vt 0 NaN
vt 0 NaN
vt 0 NaN
vt 0 NaN
vt 0 NaN
vt 0 NaN
vt 0 NaN
vt 0 NaN
vt 0 NaN
vt 0 NaN
vt 0 NaN
vt 0 NaN
vt 0 NaN
vt 0 NaN
vt 0 NaN
vt 0 NaN
vt 0 NaN
vt 0 NaN
vt 0 NaN
vt 0 NaN
vt 0 NaN
vt 0 NaN
vt 0 NaN
vt 0 NaN
vt 0 NaN
vt 0 NaN
vt 0 NaN
vt 0 NaN
vt 0 NaN
vt 0 NaN
vt 0 NaN
vt 0 NaN
vt 0 NaN
vt 0 NaN
vt 0 NaN
vt 0 NaN
vt 0 NaN
vt 0 NaN
vt 0 NaN
vt 0 NaN
vt 0 NaN
vt 0 NaN
vt 0 NaN
vt 0 NaN
vt 0 NaN
vt 0 NaN
vt 0 NaN
vt 0 NaN
vt 0 NaN
vt 0 NaN
vt 0 NaN
vt 0 NaN
vt 0 NaN
vt 0 NaN
vt 0 NaN
vt 0 NaN
vt 0 NaN
vt 0 NaN
vt 0 NaN
vt 0 NaN
vt 0 NaN
vt 0 NaN
vt 0 NaN
vt 0 NaN
vt 0 NaN
vt 0 NaN
vt 0 NaN
vt 0 NaN
vt 0 NaN
vt 0 NaN
vt 0 NaN
vt 0 NaN
vt 0 NaN
vt 0 NaN
vt 0 NaN
vt 0 NaN
vt 0 NaN
vt 0 NaN
vt 0 NaN
vt 0 NaN
vt 0 NaN
vt 0 NaN
vt 0 NaN
vt 0 NaN
vt 0 NaN
vt 0 NaN
vt 0 NaN
vt 0 NaN
vt 0 NaN
vt 0 NaN
vt 0 NaN
vt 0 NaN
vt 0 NaN
vt 0 NaN

usemtl color10

f 3/3/1 2/2/1 1/1/1
f 2/3/1 3/2/1 4/1/1
f 5/3/2 3/2/2 1/1/2
f 3/3/2 5/2/2 6/1/2
f 7/5/3 2/5/3 4/4/3
f 2/5/3 7/5/3 8/6/3
f 7/5/4 5/5/4 8/7/4
f 5/5/4 7/5/4 6/8/4
f 5/5/5 2/5/5 8/9/5
f 2/5/5 5/5/5 1/10/5
f 3/2/6 7/3/6 4/11/6
f 7/3/6 3/2/6 6/1/6
f 3/3/1 2/2/1 1/1/1
f 2/3/1 3/2/1 4/1/1
f 9/3/2 3/2/2 1/1/2
f 3/3/2 9/2/2 10/1/2
f 11/5/3 2/5/3 4/4/3
f 2/5/3 11/5/3 12/12/3
f 11/5/4 9/5/4 12/13/4
f 9/5/4 11/5/4 10/14/4
f 9/5/5 2/5/5 12/15/5
f 2/5/5 9/5/5 1/10/5
f 3/2/6 11/3/6 4/11/6
f 11/3/6 3/2/6 10/1/6
f 15/3/1 14/2/1 13/1/1
f 14/3/1 15/2/1 16/1/1
f 17/3/2 15/2/2 13/1/2
f 15/3/2 17/2/2 18/1/2
f 19/5/3 14/5/3 16/16/3
f 14/5/3 19/5/3 20/17/3
f 19/5/4 17/5/4 20/18/4
f 17/5/4 19/5/4 18/19/4
f 17/5/5 14/5/5 20/20/5
f 14/5/5 17/5/5 13/21/5
f 15/2/6 19/3/6 16/11/6
f 19/3/6 15/2/6 18/1/6
f 23/3/1 22/2/1 21/1/1
f 22/3/1 23/2/1 24/1/1
f 25/3/2 23/2/2 21/1/2
f 23/3/2 25/2/2 26/1/2
f 27/5/3 22/5/3 24/22/3
f 22/5/3 27/5/3 28/23/3
f 27/5/4 25/5/4 28/24/4
f 25/5/4 27/5/4 26/25/4
f 25/5/5 22/5/5 28/26/5
f 22/5/5 25/5/5 21/27/5
f 23/2/6 27/3/6 24/11/6
f 27/3/6 23/2/6 26/1/6
f 31/3/1 30/2/1 29/1/1
f 30/3/1 31/2/1 32/1/1
f 33/3/2 31/2/2 29/1/2
f 31/3/2 33/2/2 34/1/2
f 35/5/3 30/5/3 32/28/3
f 30/5/3 35/5/3 36/29/3
f 35/5/4 33/5/4 36/30/4
f 33/5/4 35/5/4 34/31/4
f 33/5/5 30/5/5 36/32/5
f 30/5/5 33/5/5 29/33/5
f 31/2/6 35/3/6 32/11/6
f 35/3/6 31/2/6 34/1/6
f 39/3/1 38/2/1 37/1/1
f 38/3/1 39/2/1 40/1/1
f 41/3/2 39/2/2 37/1/2
f 39/3/2 41/2/2 42/1/2
f 43/5/3 38/5/3 40/34/3
f 38/5/3 43/5/3 44/35/3
f 43/5/4 41/5/4 44/36/4
f 41/5/4 43/5/4 42/37/4
f 41/5/5 38/5/5 44/38/5
f 38/5/5 41/5/5 37/39/5
f 39/2/6 43/3/6 40/11/6
f 43/3/6 39/2/6 42/1/6
f 47/3/1 46/2/1 45/1/1
f 46/3/1 47/2/1 48/1/1
f 49/3/2 47/2/2 45/1/2
f 47/3/2 49/2/2 50/1/2
f 51/5/3 46/5/3 48/40/3
f 46/5/3 51/5/3 52/41/3
f 51/5/4 49/5/4 52/42/4
f 49/5/4 51/5/4 50/43/4
f 49/5/5 46/5/5 52/44/5
f 46/5/5 49/5/5 45/45/5
f 47/2/6 51/3/6 48/11/6
f 51/3/6 47/2/6 50/1/6

usemtl color18

f 6/3/1 8/2/1 5/1/1
f 8/3/1 6/2/1 7/1/1
f 53/3/2 6/2/2 5/1/2
f 6/3/2 53/2/2 54/1/2
f 55/5/3 8/6/3 7/5/3
f 8/6/3 55/5/3 56/46/3
f 55/5/4 53/5/4 56/47/4
f 53/5/4 55/5/4 54/48/4
f 53/5/5 8/9/5 56/49/5
f 8/9/5 53/5/5 5/5/5
f 6/2/6 55/3/6 7/11/6
f 55/3/6 6/2/6 54/1/6
f 18/3/1 20/2/1 17/1/1
f 20/3/1 18/2/1 19/1/1
f 57/3/2 18/2/2 17/1/2
f 18/3/2 57/2/2 58/1/2
f 59/5/3 20/17/3 19/5/3
f 20/17/3 59/5/3 60/50/3
f 59/5/4 57/5/4 60/51/4
f 57/5/4 59/5/4 58/52/4
f 57/5/5 20/20/5 60/53/5
f 20/20/5 57/5/5 17/5/5
f 18/2/6 59/3/6 19/11/6
f 59/3/6 18/2/6 58/1/6
f 59/3/1 61/2/1 60/1/1
f 61/3/1 59/2/1 62/1/1
f 63/3/2 59/2/2 60/1/2
f 59/3/2 63/2/2 64/1/2
f 65/5/3 61/5/3 62/54/3
f 61/5/3 65/5/3 66/55/3
f 65/5/4 63/5/4 66/56/4
f 63/5/4 65/5/4 64/57/4
f 63/5/5 61/5/5 66/58/5
f 61/5/5 63/5/5 60/53/5
f 59/2/6 65/3/6 62/11/6
f 65/3/6 59/2/6 64/1/6

usemtl color20

f 54/3/1 56/2/1 53/1/1
f 56/3/1 54/2/1 55/1/1
f 67/3/2 54/2/2 53/1/2
f 54/3/2 67/2/2 68/1/2
f 69/5/3 56/46/3 55/5/3
f 56/46/3 69/5/3 70/59/3
f 69/5/4 67/5/4 70/60/4
f 67/5/4 69/5/4 68/61/4
f 67/5/5 56/49/5 70/62/5
f 56/49/5 67/5/5 53/5/5
f 54/2/6 69/3/6 55/11/6
f 69/3/6 54/2/6 68/1/6

usemtl color11

f 73/3/1 72/2/1 71/1/1
f 72/3/1 73/2/1 74/1/1
f 2/3/2 73/2/2 71/1/2
f 73/3/2 2/2/2 4/1/2
f 75/5/3 72/5/3 74/63/3
f 72/5/3 75/5/3 76/64/3
f 75/5/4 2/5/4 76/65/4
f 2/5/4 75/5/4 4/66/4
f 2/5/5 72/5/5 76/67/5
f 72/5/5 2/5/5 71/68/5
f 73/2/6 75/3/6 74/11/6
f 75/3/6 73/2/6 4/1/6
f 79/3/1 78/2/1 77/1/1
f 78/3/1 79/2/1 80/1/1
f 81/3/2 79/2/2 77/1/2
f 79/3/2 81/2/2 82/1/2
f 83/5/3 78/5/3 80/69/3
f 78/5/3 83/5/3 84/70/3
f 83/5/4 81/5/4 84/71/4
f 81/5/4 83/5/4 82/72/4
f 81/5/5 78/5/5 84/73/5
f 78/5/5 81/5/5 77/74/5
f 79/2/6 83/3/6 80/11/6
f 83/3/6 79/2/6 82/1/6
f 87/3/1 86/2/1 85/1/1
f 86/3/1 87/2/1 88/1/1
f 89/3/2 87/2/2 85/1/2
f 87/3/2 89/2/2 90/1/2
f 91/5/3 86/5/3 88/75/3
f 86/5/3 91/5/3 92/76/3
f 91/5/4 89/5/4 92/77/4
f 89/5/4 91/5/4 90/78/4
f 89/5/5 86/5/5 92/79/5
f 86/5/5 89/5/5 85/80/5
f 87/2/6 91/3/6 88/11/6
f 91/3/6 87/2/6 90/1/6
f 95/3/1 94/2/1 93/1/1
f 94/3/1 95/2/1 96/1/1
f 97/3/2 95/2/2 93/1/2
f 95/3/2 97/2/2 98/1/2
f 99/5/3 94/5/3 96/81/3
f 94/5/3 99/5/3 100/82/3
f 99/5/4 97/5/4 100/83/4
f 97/5/4 99/5/4 98/84/4
f 97/5/5 94/5/5 100/85/5
f 94/5/5 97/5/5 93/86/5
f 95/2/6 99/3/6 96/11/6
f 99/3/6 95/2/6 98/1/6
f 103/3/1 102/2/1 101/1/1
f 102/3/1 103/2/1 104/1/1
f 105/3/2 103/2/2 101/1/2
f 103/3/2 105/2/2 106/1/2
f 107/5/3 102/5/3 104/87/3
f 102/5/3 107/5/3 108/88/3
f 107/5/4 105/5/4 108/89/4
f 105/5/4 107/5/4 106/90/4
f 105/5/5 102/5/5 108/91/5
f 102/5/5 105/5/5 101/92/5
f 103/2/6 107/3/6 104/11/6
f 107/3/6 103/2/6 106/1/6

usemtl color19

f 111/3/1 110/2/1 109/1/1
f 110/3/1 111/2/1 112/1/1
f 113/3/2 111/2/2 109/1/2
f 111/3/2 113/2/2 114/1/2
f 115/5/3 110/5/3 112/93/3
f 110/5/3 115/5/3 116/94/3
f 115/5/4 113/5/4 116/95/4
f 113/5/4 115/5/4 114/96/4
f 113/5/5 110/5/5 116/97/5
f 110/5/5 113/5/5 109/98/5
f 111/2/6 115/3/6 112/11/6
f 115/3/6 111/2/6 114/1/6

usemtl color4

f 119/3/1 118/2/1 117/1/1
f 118/3/1 119/2/1 120/1/1
f 121/3/2 119/2/2 117/1/2
f 119/3/2 121/2/2 122/1/2
f 123/5/3 118/5/3 120/99/3
f 118/5/3 123/5/3 124/100/3
f 123/5/4 121/5/4 124/101/4
f 121/5/4 123/5/4 122/102/4
f 121/5/5 118/5/5 124/103/5
f 118/5/5 121/5/5 117/104/5
f 119/2/6 123/3/6 120/11/6
f 123/3/6 119/2/6 122/1/6
f 123/3/1 125/2/1 124/1/1
f 125/3/1 123/2/1 126/1/1
f 127/3/2 123/2/2 124/1/2
f 123/3/2 127/2/2 128/1/2
f 129/5/3 125/5/3 126/105/3
f 125/5/3 129/5/3 130/106/3
f 129/5/4 127/5/4 130/107/4
f 127/5/4 129/5/4 128/108/4
f 127/5/5 125/5/5 130/109/5
f 125/5/5 127/5/5 124/103/5
f 123/2/6 129/3/6 126/11/6
f 129/3/6 123/2/6 128/1/6
f 133/3/1 132/2/1 131/1/1
f 132/3/1 133/2/1 134/1/1
f 135/3/2 133/2/2 131/1/2
f 133/3/2 135/2/2 136/1/2
f 137/5/3 132/5/3 134/110/3
f 132/5/3 137/5/3 138/111/3
f 137/5/4 135/5/4 138/112/4
f 135/5/4 137/5/4 136/113/4
f 135/5/5 132/5/5 138/114/5
f 132/5/5 135/5/5 131/115/5
f 133/2/6 137/3/6 134/11/6
f 137/3/6 133/2/6 136/1/6

usemtl color16

f 74/3/1 93/2/1 72/1/1
f 93/3/1 74/2/1 95/1/1
f 76/3/2 74/2/2 72/1/2
f 74/3/2 76/2/2 75/1/2
f 98/5/3 93/5/3 95/116/3
f 93/5/3 98/5/3 97/117/3
f 98/84/4 76/65/4 97/5/4
f 76/65/4 98/84/4 75/5/4
f 76/67/5 93/86/5 97/5/5
f 93/86/5 76/67/5 72/5/5
f 74/2/6 98/3/6 95/11/6
f 98/3/6 74/2/6 75/1/6

usemtl color3

f 141/3/1 140/2/1 139/1/1
f 140/3/1 141/2/1 142/1/1
f 110/3/2 141/2/2 139/1/2
f 141/3/2 110/2/2 112/1/2
f 143/5/3 140/5/3 142/118/3
f 140/5/3 143/5/3 144/119/3
f 143/5/4 110/5/4 144/120/4
f 110/5/4 143/5/4 112/121/4
f 110/5/5 140/5/5 144/122/5
f 140/5/5 110/5/5 139/123/5
f 141/2/6 143/3/6 142/11/6
f 143/3/6 141/2/6 112/1/6
f 126/3/1 145/2/1 125/1/1
f 145/3/1 126/2/1 146/1/1
f 130/3/2 126/2/2 125/1/2
f 126/3/2 130/2/2 129/1/2
f 147/5/3 145/5/3 146/124/3
f 145/5/3 147/5/3 148/125/3
f 147/5/4 130/107/4 148/126/4
f 130/107/4 147/5/4 129/5/4
f 130/109/5 145/5/5 148/127/5
f 145/5/5 130/109/5 125/5/5
f 126/2/6 147/3/6 146/11/6
f 147/3/6 126/2/6 129/1/6
f 151/3/1 150/2/1 149/1/1
f 150/3/1 151/2/1 152/1/1
f 84/3/2 151/2/2 149/1/2
f 151/3/2 84/2/2 83/1/2
f 106/5/3 150/5/3 152/128/3
f 150/5/3 106/5/3 105/129/3
f 106/90/4 84/71/4 105/5/4
f 84/71/4 106/90/4 83/5/4
f 84/73/5 150/5/5 105/5/5
f 150/5/5 84/73/5 149/130/5
f 151/2/6 106/3/6 152/11/6
f 106/3/6 151/2/6 83/1/6
f 155/3/1 154/2/1 153/1/1
f 154/3/1 155/2/1 156/1/1
f 157/3/2 155/2/2 153/1/2
f 155/3/2 157/2/2 158/1/2
f 159/5/3 154/5/3 156/131/3
f 154/5/3 159/5/3 160/132/3
f 159/5/4 157/5/4 160/133/4
f 157/5/4 159/5/4 158/134/4
f 157/5/5 154/5/5 160/135/5
f 154/5/5 157/5/5 153/136/5
f 155/2/6 159/3/6 156/11/6
f 159/3/6 155/2/6 158/1/6

usemtl color17

f 163/3/1 162/2/1 161/1/1
f 162/3/1 163/2/1 164/1/1
f 14/3/2 163/2/2 161/1/2
f 163/3/2 14/2/2 16/1/2
f 165/5/3 162/5/3 164/137/3
f 162/5/3 165/5/3 166/138/3
f 165/5/4 14/5/4 166/139/4
f 14/5/4 165/5/4 16/140/4
f 14/5/5 162/5/5 166/141/5
f 162/5/5 14/5/5 161/142/5
f 163/2/6 165/3/6 164/11/6
f 165/3/6 163/2/6 16/1/6
f 168/3/1 25/2/1 167/1/1
f 25/3/1 168/2/1 26/1/1
f 169/3/2 168/2/2 167/1/2
f 168/3/2 169/2/2 170/1/2
f 87/5/3 25/5/3 26/143/3
f 25/5/3 87/5/3 85/144/3
f 87/5/4 169/5/4 85/145/4
f 169/5/4 87/5/4 170/146/4
f 169/5/5 25/5/5 85/80/5
f 25/5/5 169/5/5 167/147/5
f 168/2/6 87/3/6 26/11/6
f 87/3/6 168/2/6 170/1/6

usemtl color2

f 142/3/1 171/2/1 140/1/1
f 171/3/1 142/2/1 172/1/1
f 144/3/2 142/2/2 140/1/2
f 142/3/2 144/2/2 143/1/2
f 173/5/3 171/5/3 172/148/3
f 171/5/3 173/5/3 174/149/3
f 173/5/4 144/120/4 174/150/4
f 144/120/4 173/5/4 143/5/4
f 144/122/5 171/5/5 174/151/5
f 171/5/5 144/122/5 140/5/5
f 142/2/6 173/3/6 172/11/6
f 173/3/6 142/2/6 143/1/6
f 80/3/1 101/2/1 78/1/1
f 101/3/1 80/2/1 103/1/1
f 149/3/2 80/2/2 78/1/2
f 80/3/2 149/2/2 151/1/2
f 152/128/3 101/5/3 103/152/3
f 101/5/3 152/128/3 150/5/3
f 152/5/4 149/5/4 150/153/4
f 149/5/4 152/5/4 151/154/4
f 149/130/5 101/92/5 150/5/5
f 101/92/5 149/130/5 78/5/5
f 80/2/6 152/3/6 103/11/6
f 152/3/6 80/2/6 151/1/6
f 177/3/1 176/2/1 175/1/1
f 176/3/1 177/2/1 178/1/1
f 179/3/2 177/2/2 175/1/2
f 177/3/2 179/2/2 180/1/2
f 181/5/3 176/5/3 178/155/3
f 176/5/3 181/5/3 182/156/3
f 181/5/4 179/5/4 182/157/4
f 179/5/4 181/5/4 180/158/4
f 179/5/5 176/5/5 182/159/5
f 176/5/5 179/5/5 175/160/5
f 177/2/6 181/3/6 178/11/6
f 181/3/6 177/2/6 180/1/6

usemtl color13

f 96/3/1 183/2/1 94/1/1
f 183/3/1 96/2/1 184/1/1
f 100/3/2 96/2/2 94/1/2
f 96/3/2 100/2/2 99/1/2
f 185/5/3 183/5/3 184/161/3
f 183/5/3 185/5/3 186/162/3
f 185/5/4 100/83/4 186/163/4
f 100/83/4 185/5/4 99/5/4
f 100/85/5 183/5/5 186/164/5
f 183/5/5 100/85/5 94/5/5
f 96/2/6 185/3/6 184/11/6
f 185/3/6 96/2/6 99/1/6
f 189/3/1 188/2/1 187/1/1
f 188/3/1 189/2/1 190/1/1
f 183/3/2 189/2/2 187/1/2
f 189/3/2 183/2/2 184/1/2
f 191/5/3 188/5/3 190/165/3
f 188/5/3 191/5/3 192/166/3
f 191/5/4 183/5/4 192/167/4
f 183/5/4 191/5/4 184/168/4
f 183/5/5 188/5/5 192/169/5
f 188/5/5 183/5/5 187/170/5
f 189/2/6 191/3/6 190/11/6
f 191/3/6 189/2/6 184/1/6

usemtl color15

f 24/3/1 29/2/1 22/1/1
f 29/3/1 24/2/1 31/1/1
f 28/3/2 24/2/2 22/1/2
f 24/3/2 28/2/2 27/1/2
f 34/5/3 29/5/3 31/171/3
f 29/5/3 34/5/3 33/172/3
f 34/31/4 28/24/4 33/5/4
f 28/24/4 34/31/4 27/5/4
f 28/26/5 29/33/5 33/5/5
f 29/33/5 28/26/5 22/5/5
f 24/2/6 34/3/6 31/11/6
f 34/3/6 24/2/6 27/1/6

usemtl color14

f 172/3/1 193/2/1 171/1/1
f 193/3/1 172/2/1 194/1/1
f 174/3/2 172/2/2 171/1/2
f 172/3/2 174/2/2 173/1/2
f 195/5/3 193/5/3 194/173/3
f 193/5/3 195/5/3 196/174/3
f 195/5/4 174/150/4 196/175/4
f 174/150/4 195/5/4 173/5/4
f 174/151/5 193/5/5 196/176/5
f 193/5/5 174/151/5 171/5/5
f 172/2/6 195/3/6 194/11/6
f 195/3/6 172/2/6 173/1/6

usemtl color12

f 146/3/1 197/2/1 145/1/1
f 197/3/1 146/2/1 198/1/1
f 148/3/2 146/2/2 145/1/2
f 146/3/2 148/2/2 147/1/2
f 199/5/3 197/5/3 198/177/3
f 197/5/3 199/5/3 200/178/3
f 199/5/4 148/126/4 200/179/4
f 148/126/4 199/5/4 147/5/4
f 148/127/5 197/5/5 200/180/5
f 197/5/5 148/127/5 145/5/5
f 146/2/6 199/3/6 198/11/6
f 199/3/6 146/2/6 147/1/6

usemtl color8

f 194/3/1 201/2/1 193/1/1
f 201/3/1 194/2/1 202/1/1
f 196/3/2 194/2/2 193/1/2
f 194/3/2 196/2/2 195/1/2
f 203/5/3 201/5/3 202/181/3
f 201/5/3 203/5/3 204/182/3
f 203/5/4 196/175/4 204/183/4
f 196/175/4 203/5/4 195/5/4
f 196/176/5 201/5/5 204/184/5
f 201/5/5 196/176/5 193/5/5
f 194/2/6 203/3/6 202/11/6
f 203/3/6 194/2/6 195/1/6
f 203/3/1 205/2/1 204/1/1
f 205/3/1 203/2/1 206/1/1
f 207/3/2 203/2/2 204/1/2
f 203/3/2 207/2/2 208/1/2
f 209/5/3 205/5/3 206/185/3
f 205/5/3 209/5/3 210/186/3
f 209/5/4 207/5/4 210/187/4
f 207/5/4 209/5/4 208/188/4
f 207/5/5 205/5/5 210/189/5
f 205/5/5 207/5/5 204/184/5
f 203/2/6 209/3/6 206/11/6
f 209/3/6 203/2/6 208/1/6

usemtl color9

f 43/3/1 211/2/1 44/1/1
f 211/3/1 43/2/1 212/1/1
f 46/3/2 43/2/2 44/1/2
f 43/3/2 46/2/2 48/1/2
f 213/5/3 211/5/3 212/190/3
f 211/5/3 213/5/3 214/191/3
f 213/5/4 46/5/4 214/192/4
f 46/5/4 213/5/4 48/193/4
f 46/5/5 211/5/5 214/194/5
f 211/5/5 46/5/5 44/38/5
f 43/2/6 213/3/6 212/11/6
f 213/3/6 43/2/6 48/1/6
f 217/3/1 216/2/1 215/1/1
f 216/3/1 217/2/1 218/1/1
f 197/3/2 217/2/2 215/1/2
f 217/3/2 197/2/2 198/1/2
f 219/5/3 216/5/3 218/195/3
f 216/5/3 219/5/3 220/196/3
f 219/5/4 197/5/4 220/197/4
f 197/5/4 219/5/4 198/198/4
f 197/5/5 216/5/5 220/199/5
f 216/5/5 197/5/5 215/200/5
f 217/2/6 219/3/6 218/11/6
f 219/3/6 217/2/6 198/1/6

usemtl color5

f 206/3/1 175/2/1 205/1/1
f 175/3/1 206/2/1 177/1/1
f 210/3/2 206/2/2 205/1/2
f 206/3/2 210/2/2 209/1/2
f 180/5/3 175/5/3 177/201/3
f 175/5/3 180/5/3 179/202/3
f 180/158/4 210/187/4 179/5/4
f 210/187/4 180/158/4 209/5/4
f 210/189/5 175/160/5 179/5/5
f 175/160/5 210/189/5 205/5/5
f 206/2/6 180/3/6 177/11/6
f 180/3/6 206/2/6 209/1/6

usemtl color6

f 212/3/1 153/2/1 211/1/1
f 153/3/1 212/2/1 155/1/1
f 221/3/2 212/2/2 211/1/2
f 212/3/2 221/2/2 222/1/2
f 223/5/3 153/5/3 155/203/3
f 153/5/3 223/5/3 224/204/3
f 223/5/4 221/5/4 224/205/4
f 221/5/4 223/5/4 222/206/4
f 221/5/5 153/136/5 224/207/5
f 153/136/5 221/5/5 211/5/5
f 212/2/6 223/3/6 155/11/6
f 223/3/6 212/2/6 222/1/6
f 218/3/1 131/2/1 216/1/1
f 131/3/1 218/2/1 133/1/1
f 220/3/2 218/2/2 216/1/2
f 218/3/2 220/2/2 219/1/2
f 136/5/3 131/5/3 133/208/3
f 131/5/3 136/5/3 135/209/3
f 136/113/4 220/197/4 135/5/4
f 220/197/4 136/113/4 219/5/4
f 220/199/5 131/115/5 135/5/5
f 131/115/5 220/199/5 216/5/5
f 218/2/6 136/3/6 133/11/6
f 136/3/6 218/2/6 219/1/6

usemtl color7

f 222/3/1 224/2/1 221/1/1
f 224/3/1 222/2/1 223/1/1
f 214/3/2 222/2/2 221/1/2
f 222/3/2 214/2/2 213/1/2
f 158/5/3 224/204/3 223/5/3
f 224/204/3 158/5/3 157/210/3
f 158/134/4 214/192/4 157/5/4
f 214/192/4 158/134/4 213/5/4
f 214/194/5 224/207/5 157/5/5
f 224/207/5 214/194/5 221/5/5
f 222/2/6 158/3/6 223/11/6
f 158/3/6 222/2/6 213/1/6

