# Created by Kenney (www.kenney.nl)

mtllib Grenade 380 Resaix.mtl

v 3 4 -0.4
v 3 3 -0.4
v 3 4 0.4
v 3 3 0.4
v 2 4 -0.4
v 2 4 0.4
v 2 3 0.4
v 2 3 -0.4
v 2 4 -1.2
v 2 3 -1.2
v 2 4 1.2
v 2 3 1.2
v 1 4 -1.2
v 1 4 1.2
v 1 3 1.2
v 1 3 -1.2
v 3 3 -1.2
v 3 2 -1.2
v 3 3 1.2
v 3 2 1.2
v 2 2 1.2
v 2 2 -1.2
v 0 3 -1.2
v 0 2 -1.2
v 0 3 1.2
v 0 2 1.2
v -1 3 -1.2
v -1 3 1.2
v -1 2 1.2
v -1 2 -1.2
v 3 0 -1.2
v 3 -1 -1.2
v 3 0 1.2
v 3 -1 1.2
v 2 0 -1.2
v 2 0 1.2
v 2 -1 1.2
v 2 -1 -1.2
v 0 0 -1.2
v 0 -1 -1.2
v 0 0 1.2
v 0 -1 1.2
v -1 0 -1.2
v -1 0 1.2
v -1 -1 1.2
v -1 -1 -1.2
v 0 -3 -1.2
v 0 -4 -1.2
v 0 -3 1.2
v 0 -4 1.2
v -1 -3 -1.2
v -1 -3 1.2
v -1 -4 1.2
v -1 -4 -1.2
v 1 4 -0.8
v 1 3 -0.8
v 1 4 0.8
v 1 3 0.8
v 0 4 -0.8
v 0 4 0.8
v 0 3 0.8
v 0 3 -0.8
v -1 4 -0.8
v -1 4 0.8
v -1 3 0.8
v -1 3 -0.8
v 3 -3 -1.2
v 3 -3 1.2
v 2 -3 1.2
v 2 -3 -1.2
v 2 2 -1.6
v 2 1 -1.6
v 2 2 1.6
v 2 1 1.6
v 1 2 -1.6
v 1 2 1.6
v 1 1 1.6
v 1 1 -1.6
v 1 0 -1.6
v 1 0 1.6
v -1 1 -1.6
v -1 1 1.6
v -1 0 1.6
v -1 0 -1.6
v 2 -1 -1.6
v 2 -2 -1.6
v 2 -1 1.6
v 2 -2 1.6
v 1 -1 -1.6
v 1 -1 1.6
v 1 -2 1.6
v 1 -2 -1.6
v 1 -3 -1.6
v 1 -3 1.6
v -1 -2 -1.6
v -1 -2 1.6
v -1 -3 1.6
v -1 -3 -1.6
v -1 2 -1.6
v -1 2 1.6
v -1 1 -1.2
v -1 1 1.2
v -2 1 -1.2
v -2 1 1.2
v -2 0 1.2
v -2 0 -1.2
v -1 -1 -1.6
v -1 -1 1.6
v -1 -2 -1.2
v -1 -2 1.2
v -2 -2 -1.2
v -2 -2 1.2
v -2 -3 1.2
v -2 -3 -1.2
v -2 2 -1.2
v -2 2 1.2
v -2 -1 -1.2
v -2 -1 1.2
v 2 0 -1.6
v 2 0 1.6
v 2 -3 -1.6
v 2 -3 1.6
v 2 -4 -1.2
v 2 -4 1.2

vn 1 0 0
vn 0 1 0
vn 0 -1 0
vn -1 0 0
vn 0 0 -1
vn 0 0 1

vt -19.68504 19.68504
vt 19.68504 19.68504
vt -19.68504 -19.68504
vt 0 NaN
vt 0 0
vt 0 NaN
vt 0 NaN
vt 0 NaN
vt 0 NaN
vt 0 NaN
vt 19.68504 -19.68504
vt 0 NaN
vt 0 NaN
vt 0 NaN
vt 0 NaN
vt 0 NaN
vt 0 NaN
vt 0 NaN
vt 0 NaN
vt 0 NaN
vt 0 NaN
vt 0 NaN
vt 0 NaN
vt 0 NaN
vt 0 NaN
vt 0 NaN
vt 0 NaN
vt 0 NaN
vt 0 NaN
vt 0 NaN
vt 0 NaN
vt 0 NaN
vt 0 NaN
vt 0 NaN
vt 0 NaN
vt 0 NaN
vt 0 NaN
vt 0 NaN
vt 0 NaN
vt 0 NaN
vt 0 NaN
vt 0 NaN
vt 0 NaN
vt 0 NaN
vt 0 NaN
vt 0 NaN
vt 0 NaN
vt 0 NaN
vt 0 NaN
vt 0 NaN
vt 0 NaN
vt 0 NaN
vt 0 NaN
vt 0 NaN
vt 0 NaN
vt 0 NaN
vt 0 NaN
vt 0 NaN
vt 0 NaN
vt 0 NaN
vt 0 NaN
vt 0 NaN
vt 0 NaN
vt 0 NaN
vt 0 NaN
vt 0 NaN
vt 0 NaN
vt 0 NaN
vt 0 NaN
vt 0 NaN
vt 0 NaN
vt 0 NaN
vt 0 NaN
vt 0 NaN
vt 0 NaN
vt 0 NaN
vt 0 NaN
vt 0 NaN
vt 0 NaN
vt 0 NaN
vt 0 NaN
vt 0 NaN
vt 0 NaN
vt 0 NaN
vt 0 NaN
vt 0 NaN
vt 0 NaN
vt 0 NaN
vt 0 NaN
vt 0 NaN
vt 0 NaN
vt 0 NaN
vt 0 NaN
vt 0 NaN
vt 0 NaN
vt 0 NaN
vt 0 NaN
vt 0 NaN
vt 0 NaN
vt 0 NaN
vt 0 NaN
vt 0 NaN
vt 0 NaN
vt 0 NaN
vt 0 NaN
vt 0 NaN
vt 0 NaN
vt 0 NaN
vt 0 NaN
vt 0 NaN
vt 0 NaN
vt 0 NaN
vt 0 NaN
vt 0 NaN
vt 0 NaN
vt 0 NaN
vt 0 NaN
vt 0 NaN

usemtl color9

f 3/3/1 2/2/1 1/1/1
f 2/3/1 3/2/1 4/1/1
f 5/3/2 3/2/2 1/1/2
f 3/3/2 5/2/2 6/1/2
f 7/5/3 2/5/3 4/4/3
f 2/5/3 7/5/3 8/6/3
f 7/5/4 5/5/4 8/7/4
f 5/5/4 7/5/4 6/8/4
f 5/5/5 2/5/5 8/9/5
f 2/5/5 5/5/5 1/10/5
f 3/2/6 7/3/6 4/11/6
f 7/3/6 3/2/6 6/1/6
f 3/3/1 2/2/1 1/1/1
f 2/3/1 3/2/1 4/1/1
f 5/3/2 3/2/2 1/1/2
f 3/3/2 5/2/2 6/1/2
f 7/5/3 2/5/3 4/4/3
f 2/5/3 7/5/3 8/6/3
f 7/5/4 5/5/4 8/7/4
f 5/5/4 7/5/4 6/8/4
f 5/5/5 2/5/5 8/9/5
f 2/5/5 5/5/5 1/10/5
f 3/2/6 7/3/6 4/11/6
f 7/3/6 3/2/6 6/1/6

usemtl color3

f 11/3/1 10/2/1 9/1/1
f 10/3/1 11/2/1 12/1/1
f 13/3/2 11/2/2 9/1/2
f 11/3/2 13/2/2 14/1/2
f 15/5/3 10/5/3 12/12/3
f 10/5/3 15/5/3 16/13/3
f 15/5/4 13/5/4 16/14/4
f 13/5/4 15/5/4 14/15/4
f 13/5/5 10/5/5 16/16/5
f 10/5/5 13/5/5 9/17/5
f 11/2/6 15/3/6 12/11/6
f 15/3/6 11/2/6 14/1/6
f 19/3/1 18/2/1 17/1/1
f 18/3/1 19/2/1 20/1/1
f 10/3/2 19/2/2 17/1/2
f 19/3/2 10/2/2 12/1/2
f 21/5/3 18/5/3 20/18/3
f 18/5/3 21/5/3 22/19/3
f 21/5/4 10/5/4 22/20/4
f 10/5/4 21/5/4 12/21/4
f 10/5/5 18/5/5 22/22/5
f 18/5/5 10/5/5 17/23/5
f 19/2/6 21/3/6 20/11/6
f 21/3/6 19/2/6 12/1/6
f 25/3/1 24/2/1 23/1/1
f 24/3/1 25/2/1 26/1/1
f 27/3/2 25/2/2 23/1/2
f 25/3/2 27/2/2 28/1/2
f 29/5/3 24/5/3 26/24/3
f 24/5/3 29/5/3 30/25/3
f 29/5/4 27/5/4 30/26/4
f 27/5/4 29/5/4 28/27/4
f 27/5/5 24/5/5 30/28/5
f 24/5/5 27/5/5 23/29/5
f 25/2/6 29/3/6 26/11/6
f 29/3/6 25/2/6 28/1/6
f 33/3/1 32/2/1 31/1/1
f 32/3/1 33/2/1 34/1/1
f 35/3/2 33/2/2 31/1/2
f 33/3/2 35/2/2 36/1/2
f 37/5/3 32/5/3 34/30/3
f 32/5/3 37/5/3 38/31/3
f 37/5/4 35/5/4 38/32/4
f 35/5/4 37/5/4 36/33/4
f 35/5/5 32/5/5 38/34/5
f 32/5/5 35/5/5 31/35/5
f 33/2/6 37/3/6 34/11/6
f 37/3/6 33/2/6 36/1/6
f 41/3/1 40/2/1 39/1/1
f 40/3/1 41/2/1 42/1/1
f 43/3/2 41/2/2 39/1/2
f 41/3/2 43/2/2 44/1/2
f 45/5/3 40/5/3 42/36/3
f 40/5/3 45/5/3 46/37/3
f 45/5/4 43/5/4 46/38/4
f 43/5/4 45/5/4 44/39/4
f 43/5/5 40/5/5 46/40/5
f 40/5/5 43/5/5 39/41/5
f 41/2/6 45/3/6 42/11/6
f 45/3/6 41/2/6 44/1/6
f 49/3/1 48/2/1 47/1/1
f 48/3/1 49/2/1 50/1/1
f 51/3/2 49/2/2 47/1/2
f 49/3/2 51/2/2 52/1/2
f 53/5/3 48/5/3 50/42/3
f 48/5/3 53/5/3 54/43/3
f 53/5/4 51/5/4 54/44/4
f 51/5/4 53/5/4 52/45/4
f 51/5/5 48/5/5 54/46/5
f 48/5/5 51/5/5 47/47/5
f 49/2/6 53/3/6 50/11/6
f 53/3/6 49/2/6 52/1/6

usemtl color10

f 57/3/1 56/2/1 55/1/1
f 56/3/1 57/2/1 58/1/1
f 59/3/2 57/2/2 55/1/2
f 57/3/2 59/2/2 60/1/2
f 61/5/3 56/5/3 58/48/3
f 56/5/3 61/5/3 62/49/3
f 61/5/4 59/5/4 62/50/4
f 59/5/4 61/5/4 60/51/4
f 59/5/5 56/5/5 62/52/5
f 56/5/5 59/5/5 55/53/5
f 57/2/6 61/3/6 58/11/6
f 61/3/6 57/2/6 60/1/6

usemtl color11

f 60/3/1 62/2/1 59/1/1
f 62/3/1 60/2/1 61/1/1
f 63/3/2 60/2/2 59/1/2
f 60/3/2 63/2/2 64/1/2
f 65/5/3 62/49/3 61/5/3
f 62/49/3 65/5/3 66/54/3
f 65/5/4 63/5/4 66/55/4
f 63/5/4 65/5/4 64/56/4
f 63/5/5 62/52/5 66/57/5
f 62/52/5 63/5/5 59/5/5
f 60/2/6 65/3/6 61/11/6
f 65/3/6 60/2/6 64/1/6

usemtl color4

f 12/3/1 22/2/1 10/1/1
f 22/3/1 12/2/1 21/1/1
f 23/3/2 12/2/2 10/1/2
f 12/3/2 23/2/2 25/1/2
f 26/24/3 22/19/3 21/5/3
f 22/19/3 26/24/3 24/5/3
f 26/5/4 23/5/4 24/58/4
f 23/5/4 26/5/4 25/59/4
f 23/29/5 22/22/5 24/5/5
f 22/22/5 23/29/5 10/5/5
f 12/2/6 26/3/6 21/11/6
f 26/3/6 12/2/6 25/1/6
f 20/3/1 31/2/1 18/1/1
f 31/3/1 20/2/1 33/1/1
f 22/3/2 20/2/2 18/1/2
f 20/3/2 22/2/2 21/1/2
f 36/5/3 31/5/3 33/60/3
f 31/5/3 36/5/3 35/61/3
f 36/33/4 22/20/4 35/5/4
f 22/20/4 36/33/4 21/5/4
f 22/22/5 31/35/5 35/5/5
f 31/35/5 22/22/5 18/5/5
f 20/2/6 36/3/6 33/11/6
f 36/3/6 20/2/6 21/1/6
f 36/3/1 38/2/1 35/1/1
f 38/3/1 36/2/1 37/1/1
f 39/3/2 36/2/2 35/1/2
f 36/3/2 39/2/2 41/1/2
f 42/36/3 38/31/3 37/5/3
f 38/31/3 42/36/3 40/5/3
f 42/5/4 39/5/4 40/62/4
f 39/5/4 42/5/4 41/63/4
f 39/41/5 38/34/5 40/5/5
f 38/34/5 39/41/5 35/5/5
f 36/2/6 42/3/6 37/11/6
f 42/3/6 36/2/6 41/1/6
f 34/3/1 67/2/1 32/1/1
f 67/3/1 34/2/1 68/1/1
f 38/3/2 34/2/2 32/1/2
f 34/3/2 38/2/2 37/1/2
f 69/5/3 67/5/3 68/64/3
f 67/5/3 69/5/3 70/65/3
f 69/5/4 38/32/4 70/66/4
f 38/32/4 69/5/4 37/5/4
f 38/34/5 67/5/5 70/67/5
f 67/5/5 38/34/5 32/5/5
f 34/2/6 69/3/6 68/11/6
f 69/3/6 34/2/6 37/1/6

usemtl color6

f 73/3/1 72/2/1 71/1/1
f 72/3/1 73/2/1 74/1/1
f 75/3/2 73/2/2 71/1/2
f 73/3/2 75/2/2 76/1/2
f 77/5/3 72/5/3 74/68/3
f 72/5/3 77/5/3 78/69/3
f 77/5/4 75/5/4 78/70/4
f 75/5/4 77/5/4 76/71/4
f 75/5/5 72/5/5 78/72/5
f 72/5/5 75/5/5 71/73/5
f 73/2/6 77/3/6 74/11/6
f 77/3/6 73/2/6 76/1/6
f 77/3/1 79/2/1 78/1/1
f 79/3/1 77/2/1 80/1/1
f 81/3/2 77/2/2 78/1/2
f 77/3/2 81/2/2 82/1/2
f 83/5/3 79/5/3 80/74/3
f 79/5/3 83/5/3 84/75/3
f 83/5/4 81/5/4 84/76/4
f 81/5/4 83/5/4 82/77/4
f 81/5/5 79/5/5 84/78/5
f 79/5/5 81/5/5 78/72/5
f 77/2/6 83/3/6 80/11/6
f 83/3/6 77/2/6 82/1/6
f 87/3/1 86/2/1 85/1/1
f 86/3/1 87/2/1 88/1/1
f 89/3/2 87/2/2 85/1/2
f 87/3/2 89/2/2 90/1/2
f 91/5/3 86/5/3 88/79/3
f 86/5/3 91/5/3 92/80/3
f 91/5/4 89/5/4 92/81/4
f 89/5/4 91/5/4 90/82/4
f 89/5/5 86/5/5 92/83/5
f 86/5/5 89/5/5 85/84/5
f 87/2/6 91/3/6 88/11/6
f 91/3/6 87/2/6 90/1/6
f 91/3/1 93/2/1 92/1/1
f 93/3/1 91/2/1 94/1/1
f 95/3/2 91/2/2 92/1/2
f 91/3/2 95/2/2 96/1/2
f 97/5/3 93/5/3 94/85/3
f 93/5/3 97/5/3 98/86/3
f 97/5/4 95/5/4 98/87/4
f 95/5/4 97/5/4 96/88/4
f 95/5/5 93/5/5 98/89/5
f 93/5/5 95/5/5 92/83/5
f 91/2/6 97/3/6 94/11/6
f 97/3/6 91/2/6 96/1/6

usemtl color7

f 76/3/1 78/2/1 75/1/1
f 78/3/1 76/2/1 77/1/1
f 99/3/2 76/2/2 75/1/2
f 76/3/2 99/2/2 100/1/2
f 82/5/3 78/69/3 77/5/3
f 78/69/3 82/5/3 81/90/3
f 82/77/4 99/5/4 81/5/4
f 99/5/4 82/77/4 100/91/4
f 99/5/5 78/72/5 81/5/5
f 78/72/5 99/5/5 75/5/5
f 76/2/6 82/3/6 77/11/6
f 82/3/6 76/2/6 100/1/6
f 102/3/1 43/2/1 101/1/1
f 43/3/1 102/2/1 44/1/1
f 103/3/2 102/2/2 101/1/2
f 102/3/2 103/2/2 104/1/2
f 105/5/3 43/5/3 44/92/3
f 43/5/3 105/5/3 106/93/3
f 105/5/4 103/5/4 106/94/4
f 103/5/4 105/5/4 104/95/4
f 103/5/5 43/5/5 106/96/5
f 43/5/5 103/5/5 101/97/5
f 102/2/6 105/3/6 44/11/6
f 105/3/6 102/2/6 104/1/6
f 90/3/1 92/2/1 89/1/1
f 92/3/1 90/2/1 91/1/1
f 107/3/2 90/2/2 89/1/2
f 90/3/2 107/2/2 108/1/2
f 96/5/3 92/80/3 91/5/3
f 92/80/3 96/5/3 95/98/3
f 96/88/4 107/5/4 95/5/4
f 107/5/4 96/88/4 108/99/4
f 107/5/5 92/83/5 95/5/5
f 92/83/5 107/5/5 89/5/5
f 90/2/6 96/3/6 91/11/6
f 96/3/6 90/2/6 108/1/6
f 110/3/1 51/2/1 109/1/1
f 51/3/1 110/2/1 52/1/1
f 111/3/2 110/2/2 109/1/2
f 110/3/2 111/2/2 112/1/2
f 113/5/3 51/5/3 52/100/3
f 51/5/3 113/5/3 114/101/3
f 113/5/4 111/5/4 114/102/4
f 111/5/4 113/5/4 112/103/4
f 111/5/5 51/5/5 114/104/5
f 51/5/5 111/5/5 109/105/5
f 110/2/6 113/3/6 52/11/6
f 113/3/6 110/2/6 112/1/6

usemtl color8

f 29/3/1 101/2/1 30/1/1
f 101/3/1 29/2/1 102/1/1
f 115/3/2 29/2/2 30/1/2
f 29/3/2 115/2/2 116/1/2
f 104/5/3 101/5/3 102/106/3
f 101/5/3 104/5/3 103/107/3
f 104/95/4 115/5/4 103/5/4
f 115/5/4 104/95/4 116/108/4
f 115/5/5 101/97/5 103/5/5
f 101/97/5 115/5/5 30/28/5
f 29/2/6 104/3/6 102/11/6
f 104/3/6 29/2/6 116/1/6
f 45/3/1 109/2/1 46/1/1
f 109/3/1 45/2/1 110/1/1
f 117/3/2 45/2/2 46/1/2
f 45/3/2 117/2/2 118/1/2
f 112/5/3 109/5/3 110/109/3
f 109/5/3 112/5/3 111/110/3
f 112/103/4 117/5/4 111/5/4
f 117/5/4 112/103/4 118/111/4
f 117/5/5 109/105/5 111/5/5
f 109/105/5 117/5/5 46/40/5
f 45/2/6 112/3/6 110/11/6
f 112/3/6 45/2/6 118/1/6

usemtl color5

f 74/3/1 119/2/1 72/1/1
f 119/3/1 74/2/1 120/1/1
f 78/3/2 74/2/2 72/1/2
f 74/3/2 78/2/2 77/1/2
f 80/74/3 119/5/3 120/112/3
f 119/5/3 80/74/3 79/5/3
f 80/5/4 78/70/4 79/113/4
f 78/70/4 80/5/4 77/5/4
f 78/72/5 119/5/5 79/5/5
f 119/5/5 78/72/5 72/5/5
f 74/2/6 80/3/6 120/11/6
f 80/3/6 74/2/6 77/1/6
f 88/3/1 121/2/1 86/1/1
f 121/3/1 88/2/1 122/1/1
f 92/3/2 88/2/2 86/1/2
f 88/3/2 92/2/2 91/1/2
f 94/85/3 121/5/3 122/114/3
f 121/5/3 94/85/3 93/5/3
f 94/5/4 92/81/4 93/115/4
f 92/81/4 94/5/4 91/5/4
f 92/83/5 121/5/5 93/5/5
f 121/5/5 92/83/5 86/5/5
f 88/2/6 94/3/6 122/11/6
f 94/3/6 88/2/6 91/1/6

usemtl color2

f 69/3/1 123/2/1 70/1/1
f 123/3/1 69/2/1 124/1/1
f 47/3/2 69/2/2 70/1/2
f 69/3/2 47/2/2 49/1/2
f 50/42/3 123/5/3 124/116/3
f 123/5/3 50/42/3 48/5/3
f 50/5/4 47/5/4 48/117/4
f 47/5/4 50/5/4 49/118/4
f 47/47/5 123/5/5 48/5/5
f 123/5/5 47/47/5 70/67/5
f 69/2/6 50/3/6 124/11/6
f 50/3/6 69/2/6 49/1/6

