# Created by Kenney (www.kenney.nl)

mtllib Kit TQF Toogit.mtl

v 6 6 -1.2
v 6 5 -1.2
v 6 6 1.2
v 6 5 1.2
v 3 6 -1.2
v 3 6 1.2
v 3 5 1.2
v 3 5 -1.2
v -3 6 -1.2
v -3 5 -1.2
v -3 6 1.2
v -3 5 1.2
v -6 6 -1.2
v -6 6 1.2
v -6 5 1.2
v -6 5 -1.2
v 5 6 -1.2
v 5 6 1.2
v 5 5 1.2
v 5 5 -1.2
v 3 4 -1.8
v 3 3 -1.8
v 3 4 1.8
v 3 3 1.8
v 2 4 -1.8
v 2 4 1.8
v 2 3 1.8
v 2 3 -1.8
v -2 4 -1.8
v -2 3 -1.8
v -2 4 1.8
v -2 3 1.8
v -3 4 -1.8
v -3 4 1.8
v -3 3 1.8
v -3 3 -1.8
v 3 6 -0.6
v 3 5 -0.6
v 3 6 0.6
v 3 5 0.6
v 2 6 -0.6
v 2 6 0.6
v 2 5 0.6
v 2 5 -0.6
v -2 6 -0.6
v -2 5 -0.6
v -2 6 0.6
v -2 5 0.6
v -3 6 -0.6
v -3 6 0.6
v -3 5 0.6
v -3 5 -0.6
v 3 4 -0.6
v 3 4 0.6
v 2 4 0.6
v 2 4 -0.6
v -2 4 -0.6
v -2 4 0.6
v -3 4 0.6
v -3 4 -0.6
v 6 4 -1.2
v 6 4 1.2
v 3 4 1.2
v 3 4 -1.2
v -3 4 -1.2
v -3 4 1.2
v -6 4 1.2
v -6 4 -1.2
v 6 4 -1.8
v 6 3 -1.8
v 6 4 1.8
v 6 3 1.8
v 5 4 -1.8
v 5 4 1.8
v 5 3 1.8
v 5 3 -1.8
v 1 4 -1.8
v 1 4 1.8
v 1 3 1.8
v 1 3 -1.8
v -1 4 -1.8
v -1 3 -1.8
v -1 4 1.8
v -1 3 1.8
v -5 4 -1.8
v -5 3 -1.8
v -5 4 1.8
v -5 3 1.8
v -6 4 -1.8
v -6 4 1.8
v -6 3 1.8
v -6 3 -1.8
v 5 -5 -1.8
v 5 -6 -1.8
v 5 -5 1.8
v 5 -6 1.8
v -5 -5 -1.8
v -5 -5 1.8
v -5 -6 1.8
v -5 -6 -1.8
v 6 -6 -1.8
v 6 -6 1.8
v -6 -6 1.8
v -6 -6 -1.8
v 5 3 -2.4
v 5 2 -2.4
v 5 3 2.4
v 5 2 2.4
v 4 3 -2.4
v 4 3 2.4
v 4 2 2.4
v 4 2 -2.4
v -4 3 -2.4
v -4 2 -2.4
v -4 3 2.4
v -4 2 2.4
v -5 3 -2.4
v -5 3 2.4
v -5 2 2.4
v -5 2 -2.4
v 5 -4 -2.4
v 5 -5 -2.4
v 5 -4 2.4
v 5 -5 2.4
v 4 -4 -2.4
v 4 -4 2.4
v 4 -5 2.4
v 4 -5 -2.4
v -4 -4 -2.4
v -4 -5 -2.4
v -4 -4 2.4
v -4 -5 2.4
v -5 -4 -2.4
v -5 -4 2.4
v -5 -5 2.4
v -5 -5 -2.4
v 4 2 -3
v 4 1 -3
v 4 2 3
v 4 1 3
v 3 2 -3
v 3 2 3
v 3 1 3
v 3 1 -3
v -3 2 -3
v -3 1 -3
v -3 2 3
v -3 1 3
v -4 2 -3
v -4 2 3
v -4 1 3
v -4 1 -3
v 4 -3 -3
v 4 -4 -3
v 4 -3 3
v 4 -4 3
v 3 -3 -3
v 3 -3 3
v 3 -4 3
v 3 -4 -3
v -3 -3 -3
v -3 -4 -3
v -3 -3 3
v -3 -4 3
v -4 -3 -3
v -4 -3 3
v -4 -4 3
v -4 -4 -3
v 3 2 -2.4
v 3 0 -2.4
v 3 2 2.4
v 3 0 2.4
v 1 2 -2.4
v 1 2 2.4
v 1 0 2.4
v 1 0 -2.4
v -1 2 -2.4
v -1 0 -2.4
v -1 2 2.4
v -1 0 2.4
v -3 2 -2.4
v -3 2 2.4
v -3 0 2.4
v -3 0 -2.4
v 4 1 -2.4
v 4 -3 -2.4
v 4 1 2.4
v 4 -3 2.4
v 3 1 -2.4
v 3 1 2.4
v 3 -3 2.4
v 3 -3 -2.4
v -3 1 -2.4
v -3 -3 -2.4
v -3 1 2.4
v -3 -3 2.4
v -4 1 -2.4
v -4 1 2.4
v -4 -3 2.4
v -4 -3 -2.4
v 3 -2 -2.4
v 3 -4 -2.4
v 3 -2 2.4
v 3 -4 2.4
v 1 -2 -2.4
v 1 -2 2.4
v 1 -4 2.4
v 1 -4 -2.4
v -1 -2 -2.4
v -1 -4 -2.4
v -1 -2 2.4
v -1 -4 2.4
v -3 -2 -2.4
v -3 -2 2.4
v -3 -4 2.4
v -3 -4 -2.4
v 1 2 -3
v 1 0 -3
v 1 2 3
v 1 0 3
v 0 2 -3
v 0 2 3
v 0 0 3
v 0 0 -3
v 3 -1 -3
v 3 -2 -3
v 3 -1 3
v 3 -2 3
v 0 -1 -3
v 0 -1 3
v 0 -2 3
v 0 -2 -3
v -1 -1 -3
v -1 -2 -3
v -1 -1 3
v -1 -2 3
v -3 -1 -3
v -3 -1 3
v -3 -2 3
v -3 -2 -3
v 1 -2 -3
v 1 -4 -3
v 1 -2 3
v 1 -4 3
v 0 -4 3
v 0 -4 -3
v -1 2 -3
v -1 2 3
v -1 -4 3
v -1 -4 -3
v 3 0 -3
v 3 0 3
v -1 0 -3
v -1 0 3
v -3 0 -3
v -3 0 3

vn 1 0 0
vn 0 1 0
vn 0 -1 0
vn -1 0 0
vn 0 0 -1
vn 0 0 1

vt -19.68504 19.68504
vt 19.68504 19.68504
vt -19.68504 -19.68504
vt 0 NaN
vt 0 0
vt 0 NaN
vt 0 NaN
vt 0 NaN
vt 0 NaN
vt 0 NaN
vt 19.68504 -19.68504
vt 0 NaN
vt 0 NaN
vt 0 NaN
vt 0 NaN
vt 0 NaN
vt 0 NaN
vt 0 NaN
vt 0 NaN
vt 0 NaN
vt 0 NaN
vt 0 NaN
vt 0 NaN
vt 0 NaN
vt 0 NaN
vt 0 NaN
vt 0 NaN
vt 0 NaN
vt 0 NaN
vt 0 NaN
vt 0 NaN
vt 0 NaN
vt 0 NaN
vt 0 NaN
vt 0 NaN
vt 0 NaN
vt 0 NaN
vt 0 NaN
vt 0 NaN
vt 0 NaN
vt 0 NaN
vt 0 NaN
vt 0 NaN
vt 0 NaN
vt 0 NaN
vt 0 NaN
vt 0 NaN
vt 0 NaN
vt 0 NaN
vt 0 NaN
vt 0 NaN
vt 0 NaN
vt 0 NaN
vt 0 NaN
vt 0 NaN
vt 0 NaN
vt 0 NaN
vt 0 NaN
vt 0 NaN
vt 0 NaN
vt 0 NaN
vt 0 NaN
vt 0 NaN
vt 0 NaN
vt 0 NaN
vt 0 NaN
vt 0 NaN
vt 0 NaN
vt 0 NaN
vt 0 NaN
vt 0 NaN
vt 0 NaN
vt 0 NaN
vt 0 NaN
vt 0 NaN
vt 0 NaN
vt 0 NaN
vt 0 NaN
vt 0 NaN
vt 0 NaN
vt 0 NaN
vt 0 NaN
vt 0 NaN
vt 0 NaN
vt 0 NaN
vt 0 NaN
vt 0 NaN
vt 0 NaN
vt 0 NaN
vt 0 NaN
vt 0 NaN
vt 0 NaN
vt 0 NaN
vt 0 NaN
vt 0 NaN
vt 0 NaN
vt 0 NaN
vt 0 NaN
vt 0 NaN
vt 0 NaN
vt 0 NaN
vt 0 NaN
vt 0 NaN
vt 0 NaN
vt 0 NaN
vt 0 NaN
vt 0 NaN
vt 0 NaN
vt 0 NaN
vt 0 NaN
vt 0 NaN
vt 0 NaN
vt 0 NaN
vt 0 NaN
vt 0 NaN
vt 0 NaN
vt 0 NaN
vt 0 NaN
vt 0 NaN
vt 0 NaN
vt 0 NaN
vt 0 NaN
vt 0 NaN
vt 0 NaN
vt 0 NaN
vt 0 NaN
vt 0 NaN
vt 0 NaN
vt 0 NaN
vt 0 NaN
vt 0 NaN
vt 0 NaN
vt 0 NaN
vt 0 NaN
vt 0 NaN
vt 0 NaN
vt 0 NaN
vt 0 NaN
vt 0 NaN
vt 0 NaN
vt 0 NaN
vt 0 NaN
vt 0 NaN
vt 0 NaN
vt 0 NaN
vt 0 NaN
vt 0 NaN
vt 0 NaN
vt 0 NaN
vt 0 NaN
vt 0 NaN
vt 0 NaN
vt 0 NaN
vt 0 NaN
vt 0 NaN
vt 0 NaN
vt 0 NaN
vt 0 NaN
vt 0 NaN
vt 0 NaN
vt 0 NaN
vt 0 NaN
vt 0 NaN
vt 0 NaN
vt 0 NaN
vt 0 NaN
vt 0 NaN
vt 0 NaN
vt 0 NaN
vt 0 NaN
vt 0 NaN
vt 0 NaN
vt 0 NaN
vt 0 NaN
vt 0 NaN
vt 0 NaN
vt 0 NaN
vt 0 NaN
vt 0 NaN
vt 0 NaN
vt 0 NaN
vt 0 NaN
vt 0 NaN
vt 0 NaN
vt 0 NaN
vt 0 NaN
vt 0 NaN
vt 0 NaN
vt 0 NaN
vt 0 NaN
vt 0 NaN
vt 0 NaN
vt 0 NaN
vt 0 NaN
vt 0 NaN
vt 0 NaN
vt 0 NaN
vt 0 NaN
vt 0 NaN
vt 0 NaN
vt 0 NaN
vt 0 NaN
vt 0 NaN
vt 0 NaN
vt 0 NaN
vt 0 NaN
vt 0 NaN
vt 0 NaN
vt 0 NaN
vt 0 NaN
vt 0 NaN
vt 0 NaN
vt 0 NaN
vt 0 NaN
vt 0 NaN
vt 0 NaN
vt 0 NaN
vt 0 NaN
vt 0 NaN
vt 0 NaN
vt 0 NaN
vt 0 NaN
vt 0 NaN
vt 0 NaN
vt 0 NaN
vt 0 NaN

usemtl color10

f 3/3/1 2/2/1 1/1/1
f 2/3/1 3/2/1 4/1/1
f 5/3/2 3/2/2 1/1/2
f 3/3/2 5/2/2 6/1/2
f 7/5/3 2/5/3 4/4/3
f 2/5/3 7/5/3 8/6/3
f 7/5/4 5/5/4 8/7/4
f 5/5/4 7/5/4 6/8/4
f 5/5/5 2/5/5 8/9/5
f 2/5/5 5/5/5 1/10/5
f 3/2/6 7/3/6 4/11/6
f 7/3/6 3/2/6 6/1/6
f 11/3/1 10/2/1 9/1/1
f 10/3/1 11/2/1 12/1/1
f 13/3/2 11/2/2 9/1/2
f 11/3/2 13/2/2 14/1/2
f 15/5/3 10/5/3 12/12/3
f 10/5/3 15/5/3 16/13/3
f 15/5/4 13/5/4 16/14/4
f 13/5/4 15/5/4 14/15/4
f 13/5/5 10/5/5 16/16/5
f 10/5/5 13/5/5 9/17/5
f 11/2/6 15/3/6 12/11/6
f 15/3/6 11/2/6 14/1/6
f 3/3/1 2/2/1 1/1/1
f 2/3/1 3/2/1 4/1/1
f 17/3/2 3/2/2 1/1/2
f 3/3/2 17/2/2 18/1/2
f 19/5/3 2/5/3 4/4/3
f 2/5/3 19/5/3 20/18/3
f 19/5/4 17/5/4 20/19/4
f 17/5/4 19/5/4 18/20/4
f 17/5/5 2/5/5 20/21/5
f 2/5/5 17/5/5 1/10/5
f 3/2/6 19/3/6 4/11/6
f 19/3/6 3/2/6 18/1/6
f 23/3/1 22/2/1 21/1/1
f 22/3/1 23/2/1 24/1/1
f 25/3/2 23/2/2 21/1/2
f 23/3/2 25/2/2 26/1/2
f 27/5/3 22/5/3 24/22/3
f 22/5/3 27/5/3 28/23/3
f 27/5/4 25/5/4 28/24/4
f 25/5/4 27/5/4 26/25/4
f 25/5/5 22/5/5 28/26/5
f 22/5/5 25/5/5 21/27/5
f 23/2/6 27/3/6 24/11/6
f 27/3/6 23/2/6 26/1/6
f 31/3/1 30/2/1 29/1/1
f 30/3/1 31/2/1 32/1/1
f 33/3/2 31/2/2 29/1/2
f 31/3/2 33/2/2 34/1/2
f 35/5/3 30/5/3 32/28/3
f 30/5/3 35/5/3 36/29/3
f 35/5/4 33/5/4 36/30/4
f 33/5/4 35/5/4 34/31/4
f 33/5/5 30/5/5 36/32/5
f 30/5/5 33/5/5 29/33/5
f 31/2/6 35/3/6 32/11/6
f 35/3/6 31/2/6 34/1/6

usemtl color13

f 39/3/1 38/2/1 37/1/1
f 38/3/1 39/2/1 40/1/1
f 41/3/2 39/2/2 37/1/2
f 39/3/2 41/2/2 42/1/2
f 43/5/3 38/5/3 40/34/3
f 38/5/3 43/5/3 44/35/3
f 43/5/4 41/5/4 44/36/4
f 41/5/4 43/5/4 42/37/4
f 41/5/5 38/5/5 44/38/5
f 38/5/5 41/5/5 37/39/5
f 39/2/6 43/3/6 40/11/6
f 43/3/6 39/2/6 42/1/6
f 47/3/1 46/2/1 45/1/1
f 46/3/1 47/2/1 48/1/1
f 49/3/2 47/2/2 45/1/2
f 47/3/2 49/2/2 50/1/2
f 51/5/3 46/5/3 48/40/3
f 46/5/3 51/5/3 52/41/3
f 51/5/4 49/5/4 52/42/4
f 49/5/4 51/5/4 50/43/4
f 49/5/5 46/5/5 52/44/5
f 46/5/5 49/5/5 45/45/5
f 47/2/6 51/3/6 48/11/6
f 51/3/6 47/2/6 50/1/6

usemtl color11

f 42/3/1 44/2/1 41/1/1
f 44/3/1 42/2/1 43/1/1
f 45/3/2 42/2/2 41/1/2
f 42/3/2 45/2/2 47/1/2
f 48/40/3 44/35/3 43/5/3
f 44/35/3 48/40/3 46/5/3
f 48/5/4 45/5/4 46/46/4
f 45/5/4 48/5/4 47/47/4
f 45/45/5 44/38/5 46/5/5
f 44/38/5 45/45/5 41/5/5
f 42/2/6 48/3/6 43/11/6
f 48/3/6 42/2/6 47/1/6
f 40/3/1 53/2/1 38/1/1
f 53/3/1 40/2/1 54/1/1
f 44/3/2 40/2/2 38/1/2
f 40/3/2 44/2/2 43/1/2
f 55/5/3 53/5/3 54/48/3
f 53/5/3 55/5/3 56/49/3
f 55/5/4 44/36/4 56/50/4
f 44/36/4 55/5/4 43/5/4
f 44/38/5 53/5/5 56/51/5
f 53/5/5 44/38/5 38/5/5
f 40/2/6 55/3/6 54/11/6
f 55/3/6 40/2/6 43/1/6
f 48/3/1 57/2/1 46/1/1
f 57/3/1 48/2/1 58/1/1
f 52/3/2 48/2/2 46/1/2
f 48/3/2 52/2/2 51/1/2
f 59/5/3 57/5/3 58/52/3
f 57/5/3 59/5/3 60/53/3
f 59/5/4 52/42/4 60/54/4
f 52/42/4 59/5/4 51/5/4
f 52/44/5 57/5/5 60/55/5
f 57/5/5 52/44/5 46/5/5
f 48/2/6 59/3/6 58/11/6
f 59/3/6 48/2/6 51/1/6

usemtl color9

f 4/3/1 61/2/1 2/1/1
f 61/3/1 4/2/1 62/1/1
f 8/3/2 4/2/2 2/1/2
f 4/3/2 8/2/2 7/1/2
f 63/5/3 61/5/3 62/56/3
f 61/5/3 63/5/3 64/57/3
f 63/5/4 8/7/4 64/58/4
f 8/7/4 63/5/4 7/5/4
f 8/9/5 61/5/5 64/59/5
f 61/5/5 8/9/5 2/5/5
f 4/2/6 63/3/6 62/11/6
f 63/3/6 4/2/6 7/1/6
f 12/3/1 65/2/1 10/1/1
f 65/3/1 12/2/1 66/1/1
f 16/3/2 12/2/2 10/1/2
f 12/3/2 16/2/2 15/1/2
f 67/5/3 65/5/3 66/60/3
f 65/5/3 67/5/3 68/61/3
f 67/5/4 16/14/4 68/62/4
f 16/14/4 67/5/4 15/5/4
f 16/16/5 65/5/5 68/63/5
f 65/5/5 16/16/5 10/5/5
f 12/2/6 67/3/6 66/11/6
f 67/3/6 12/2/6 15/1/6
f 71/3/1 70/2/1 69/1/1
f 70/3/1 71/2/1 72/1/1
f 73/3/2 71/2/2 69/1/2
f 71/3/2 73/2/2 74/1/2
f 75/5/3 70/5/3 72/64/3
f 70/5/3 75/5/3 76/65/3
f 75/5/4 73/5/4 76/66/4
f 73/5/4 75/5/4 74/67/4
f 73/5/5 70/5/5 76/68/5
f 70/5/5 73/5/5 69/69/5
f 71/2/6 75/3/6 72/11/6
f 75/3/6 71/2/6 74/1/6
f 26/3/1 28/2/1 25/1/1
f 28/3/1 26/2/1 27/1/1
f 77/3/2 26/2/2 25/1/2
f 26/3/2 77/2/2 78/1/2
f 79/5/3 28/23/3 27/5/3
f 28/23/3 79/5/3 80/70/3
f 79/5/4 77/5/4 80/71/4
f 77/5/4 79/5/4 78/72/4
f 77/5/5 28/26/5 80/73/5
f 28/26/5 77/5/5 25/5/5
f 26/2/6 79/3/6 27/11/6
f 79/3/6 26/2/6 78/1/6
f 83/3/1 82/2/1 81/1/1
f 82/3/1 83/2/1 84/1/1
f 29/3/2 83/2/2 81/1/2
f 83/3/2 29/2/2 31/1/2
f 32/28/3 82/5/3 84/74/3
f 82/5/3 32/28/3 30/5/3
f 32/5/4 29/5/4 30/75/4
f 29/5/4 32/5/4 31/76/4
f 29/33/5 82/5/5 30/5/5
f 82/5/5 29/33/5 81/77/5
f 83/2/6 32/3/6 84/11/6
f 32/3/6 83/2/6 31/1/6
f 87/3/1 86/2/1 85/1/1
f 86/3/1 87/2/1 88/1/1
f 89/3/2 87/2/2 85/1/2
f 87/3/2 89/2/2 90/1/2
f 91/5/3 86/5/3 88/78/3
f 86/5/3 91/5/3 92/79/3
f 91/5/4 89/5/4 92/80/4
f 89/5/4 91/5/4 90/81/4
f 89/5/5 86/5/5 92/82/5
f 86/5/5 89/5/5 85/83/5
f 87/2/6 91/3/6 88/11/6
f 91/3/6 87/2/6 90/1/6

usemtl color2

f 74/3/1 76/2/1 73/1/1
f 76/3/1 74/2/1 75/1/1
f 21/3/2 74/2/2 73/1/2
f 74/3/2 21/2/2 23/1/2
f 24/22/3 76/65/3 75/5/3
f 76/65/3 24/22/3 22/5/3
f 24/5/4 21/5/4 22/84/4
f 21/5/4 24/5/4 23/85/4
f 21/27/5 76/68/5 22/5/5
f 76/68/5 21/27/5 73/5/5
f 74/2/6 24/3/6 75/11/6
f 24/3/6 74/2/6 23/1/6
f 78/3/1 80/2/1 77/1/1
f 80/3/1 78/2/1 79/1/1
f 81/3/2 78/2/2 77/1/2
f 78/3/2 81/2/2 83/1/2
f 84/74/3 80/70/3 79/5/3
f 80/70/3 84/74/3 82/5/3
f 84/5/4 81/5/4 82/86/4
f 81/5/4 84/5/4 83/87/4
f 81/77/5 80/73/5 82/5/5
f 80/73/5 81/77/5 77/5/5
f 78/2/6 84/3/6 79/11/6
f 84/3/6 78/2/6 83/1/6
f 34/3/1 36/2/1 33/1/1
f 36/3/1 34/2/1 35/1/1
f 85/3/2 34/2/2 33/1/2
f 34/3/2 85/2/2 87/1/2
f 88/78/3 36/29/3 35/5/3
f 36/29/3 88/78/3 86/5/3
f 88/5/4 85/5/4 86/88/4
f 85/5/4 88/5/4 87/89/4
f 85/83/5 36/32/5 86/5/5
f 36/32/5 85/83/5 33/5/5
f 34/2/6 88/3/6 35/11/6
f 88/3/6 34/2/6 87/1/6
f 95/3/1 94/2/1 93/1/1
f 94/3/1 95/2/1 96/1/1
f 97/3/2 95/2/2 93/1/2
f 95/3/2 97/2/2 98/1/2
f 99/5/3 94/5/3 96/90/3
f 94/5/3 99/5/3 100/91/3
f 99/5/4 97/5/4 100/92/4
f 97/5/4 99/5/4 98/93/4
f 97/5/5 94/5/5 100/94/5
f 94/5/5 97/5/5 93/95/5
f 95/2/6 99/3/6 96/11/6
f 99/3/6 95/2/6 98/1/6

usemtl color1

f 72/3/1 101/2/1 70/1/1
f 101/3/1 72/2/1 102/1/1
f 76/3/2 72/2/2 70/1/2
f 72/3/2 76/2/2 75/1/2
f 96/90/3 101/5/3 102/96/3
f 101/5/3 96/90/3 94/5/3
f 96/5/4 76/66/4 94/97/4
f 76/66/4 96/5/4 75/5/4
f 76/68/5 101/5/5 94/5/5
f 101/5/5 76/68/5 70/5/5
f 72/2/6 96/3/6 102/11/6
f 96/3/6 72/2/6 75/1/6
f 88/3/1 100/2/1 86/1/1
f 100/3/1 88/2/1 99/1/1
f 92/3/2 88/2/2 86/1/2
f 88/3/2 92/2/2 91/1/2
f 103/5/3 100/91/3 99/5/3
f 100/91/3 103/5/3 104/98/3
f 103/5/4 92/80/4 104/99/4
f 92/80/4 103/5/4 91/5/4
f 92/82/5 100/94/5 104/100/5
f 100/94/5 92/82/5 86/5/5
f 88/2/6 103/3/6 99/11/6
f 103/3/6 88/2/6 91/1/6

usemtl color3

f 107/3/1 106/2/1 105/1/1
f 106/3/1 107/2/1 108/1/1
f 109/3/2 107/2/2 105/1/2
f 107/3/2 109/2/2 110/1/2
f 111/5/3 106/5/3 108/101/3
f 106/5/3 111/5/3 112/102/3
f 111/5/4 109/5/4 112/103/4
f 109/5/4 111/5/4 110/104/4
f 109/5/5 106/5/5 112/105/5
f 106/5/5 109/5/5 105/106/5
f 107/2/6 111/3/6 108/11/6
f 111/3/6 107/2/6 110/1/6
f 115/3/1 114/2/1 113/1/1
f 114/3/1 115/2/1 116/1/1
f 117/3/2 115/2/2 113/1/2
f 115/3/2 117/2/2 118/1/2
f 119/5/3 114/5/3 116/107/3
f 114/5/3 119/5/3 120/108/3
f 119/5/4 117/5/4 120/109/4
f 117/5/4 119/5/4 118/110/4
f 117/5/5 114/5/5 120/111/5
f 114/5/5 117/5/5 113/112/5
f 115/2/6 119/3/6 116/11/6
f 119/3/6 115/2/6 118/1/6
f 123/3/1 122/2/1 121/1/1
f 122/3/1 123/2/1 124/1/1
f 125/3/2 123/2/2 121/1/2
f 123/3/2 125/2/2 126/1/2
f 127/5/3 122/5/3 124/113/3
f 122/5/3 127/5/3 128/114/3
f 127/5/4 125/5/4 128/115/4
f 125/5/4 127/5/4 126/116/4
f 125/5/5 122/5/5 128/117/5
f 122/5/5 125/5/5 121/118/5
f 123/2/6 127/3/6 124/11/6
f 127/3/6 123/2/6 126/1/6
f 131/3/1 130/2/1 129/1/1
f 130/3/1 131/2/1 132/1/1
f 133/3/2 131/2/2 129/1/2
f 131/3/2 133/2/2 134/1/2
f 135/5/3 130/5/3 132/119/3
f 130/5/3 135/5/3 136/120/3
f 135/5/4 133/5/4 136/121/4
f 133/5/4 135/5/4 134/122/4
f 133/5/5 130/5/5 136/123/5
f 130/5/5 133/5/5 129/124/5
f 131/2/6 135/3/6 132/11/6
f 135/3/6 131/2/6 134/1/6

usemtl color4

f 110/3/1 112/2/1 109/1/1
f 112/3/1 110/2/1 111/1/1
f 113/3/2 110/2/2 109/1/2
f 110/3/2 113/2/2 115/1/2
f 116/107/3 112/102/3 111/5/3
f 112/102/3 116/107/3 114/5/3
f 116/5/4 113/5/4 114/125/4
f 113/5/4 116/5/4 115/126/4
f 113/112/5 112/105/5 114/5/5
f 112/105/5 113/112/5 109/5/5
f 110/2/6 116/3/6 111/11/6
f 116/3/6 110/2/6 115/1/6
f 108/3/1 121/2/1 106/1/1
f 121/3/1 108/2/1 123/1/1
f 112/3/2 108/2/2 106/1/2
f 108/3/2 112/2/2 111/1/2
f 126/5/3 121/5/3 123/127/3
f 121/5/3 126/5/3 125/128/3
f 126/116/4 112/103/4 125/5/4
f 112/103/4 126/116/4 111/5/4
f 112/105/5 121/118/5 125/5/5
f 121/118/5 112/105/5 106/5/5
f 108/2/6 126/3/6 123/11/6
f 126/3/6 108/2/6 111/1/6
f 116/3/1 129/2/1 114/1/1
f 129/3/1 116/2/1 131/1/1
f 120/3/2 116/2/2 114/1/2
f 116/3/2 120/2/2 119/1/2
f 134/5/3 129/5/3 131/129/3
f 129/5/3 134/5/3 133/130/3
f 134/122/4 120/109/4 133/5/4
f 120/109/4 134/122/4 119/5/4
f 120/111/5 129/124/5 133/5/5
f 129/124/5 120/111/5 114/5/5
f 116/2/6 134/3/6 131/11/6
f 134/3/6 116/2/6 119/1/6
f 126/3/1 128/2/1 125/1/1
f 128/3/1 126/2/1 127/1/1
f 129/3/2 126/2/2 125/1/2
f 126/3/2 129/2/2 131/1/2
f 132/119/3 128/114/3 127/5/3
f 128/114/3 132/119/3 130/5/3
f 132/5/4 129/5/4 130/131/4
f 129/5/4 132/5/4 131/132/4
f 129/124/5 128/117/5 130/5/5
f 128/117/5 129/124/5 125/5/5
f 126/2/6 132/3/6 127/11/6
f 132/3/6 126/2/6 131/1/6

usemtl color5

f 139/3/1 138/2/1 137/1/1
f 138/3/1 139/2/1 140/1/1
f 141/3/2 139/2/2 137/1/2
f 139/3/2 141/2/2 142/1/2
f 143/5/3 138/5/3 140/133/3
f 138/5/3 143/5/3 144/134/3
f 143/5/4 141/5/4 144/135/4
f 141/5/4 143/5/4 142/136/4
f 141/5/5 138/5/5 144/137/5
f 138/5/5 141/5/5 137/138/5
f 139/2/6 143/3/6 140/11/6
f 143/3/6 139/2/6 142/1/6
f 147/3/1 146/2/1 145/1/1
f 146/3/1 147/2/1 148/1/1
f 149/3/2 147/2/2 145/1/2
f 147/3/2 149/2/2 150/1/2
f 151/5/3 146/5/3 148/139/3
f 146/5/3 151/5/3 152/140/3
f 151/5/4 149/5/4 152/141/4
f 149/5/4 151/5/4 150/142/4
f 149/5/5 146/5/5 152/143/5
f 146/5/5 149/5/5 145/144/5
f 147/2/6 151/3/6 148/11/6
f 151/3/6 147/2/6 150/1/6
f 155/3/1 154/2/1 153/1/1
f 154/3/1 155/2/1 156/1/1
f 157/3/2 155/2/2 153/1/2
f 155/3/2 157/2/2 158/1/2
f 159/5/3 154/5/3 156/145/3
f 154/5/3 159/5/3 160/146/3
f 159/5/4 157/5/4 160/147/4
f 157/5/4 159/5/4 158/148/4
f 157/5/5 154/5/5 160/149/5
f 154/5/5 157/5/5 153/150/5
f 155/2/6 159/3/6 156/11/6
f 159/3/6 155/2/6 158/1/6
f 163/3/1 162/2/1 161/1/1
f 162/3/1 163/2/1 164/1/1
f 165/3/2 163/2/2 161/1/2
f 163/3/2 165/2/2 166/1/2
f 167/5/3 162/5/3 164/151/3
f 162/5/3 167/5/3 168/152/3
f 167/5/4 165/5/4 168/153/4
f 165/5/4 167/5/4 166/154/4
f 165/5/5 162/5/5 168/155/5
f 162/5/5 165/5/5 161/156/5
f 163/2/6 167/3/6 164/11/6
f 167/3/6 163/2/6 166/1/6

usemtl color6

f 171/3/1 170/2/1 169/1/1
f 170/3/1 171/2/1 172/1/1
f 173/3/2 171/2/2 169/1/2
f 171/3/2 173/2/2 174/1/2
f 175/5/3 170/5/3 172/157/3
f 170/5/3 175/5/3 176/158/3
f 175/5/4 173/5/4 176/159/4
f 173/5/4 175/5/4 174/160/4
f 173/5/5 170/5/5 176/161/5
f 170/5/5 173/5/5 169/162/5
f 171/2/6 175/3/6 172/11/6
f 175/3/6 171/2/6 174/1/6
f 179/3/1 178/2/1 177/1/1
f 178/3/1 179/2/1 180/1/1
f 181/3/2 179/2/2 177/1/2
f 179/3/2 181/2/2 182/1/2
f 183/5/3 178/5/3 180/163/3
f 178/5/3 183/5/3 184/164/3
f 183/5/4 181/5/4 184/165/4
f 181/5/4 183/5/4 182/166/4
f 181/5/5 178/5/5 184/167/5
f 178/5/5 181/5/5 177/168/5
f 179/2/6 183/3/6 180/11/6
f 183/3/6 179/2/6 182/1/6
f 187/3/1 186/2/1 185/1/1
f 186/3/1 187/2/1 188/1/1
f 189/3/2 187/2/2 185/1/2
f 187/3/2 189/2/2 190/1/2
f 191/5/3 186/5/3 188/169/3
f 186/5/3 191/5/3 192/170/3
f 191/5/4 189/5/4 192/171/4
f 189/5/4 191/5/4 190/172/4
f 189/5/5 186/5/5 192/173/5
f 186/5/5 189/5/5 185/174/5
f 187/2/6 191/3/6 188/11/6
f 191/3/6 187/2/6 190/1/6
f 195/3/1 194/2/1 193/1/1
f 194/3/1 195/2/1 196/1/1
f 197/3/2 195/2/2 193/1/2
f 195/3/2 197/2/2 198/1/2
f 199/5/3 194/5/3 196/175/3
f 194/5/3 199/5/3 200/176/3
f 199/5/4 197/5/4 200/177/4
f 197/5/4 199/5/4 198/178/4
f 197/5/5 194/5/5 200/179/5
f 194/5/5 197/5/5 193/180/5
f 195/2/6 199/3/6 196/11/6
f 199/3/6 195/2/6 198/1/6
f 203/3/1 202/2/1 201/1/1
f 202/3/1 203/2/1 204/1/1
f 205/3/2 203/2/2 201/1/2
f 203/3/2 205/2/2 206/1/2
f 207/5/3 202/5/3 204/181/3
f 202/5/3 207/5/3 208/182/3
f 207/5/4 205/5/4 208/183/4
f 205/5/4 207/5/4 206/184/4
f 205/5/5 202/5/5 208/185/5
f 202/5/5 205/5/5 201/186/5
f 203/2/6 207/3/6 204/11/6
f 207/3/6 203/2/6 206/1/6
f 211/3/1 210/2/1 209/1/1
f 210/3/1 211/2/1 212/1/1
f 213/3/2 211/2/2 209/1/2
f 211/3/2 213/2/2 214/1/2
f 215/5/3 210/5/3 212/187/3
f 210/5/3 215/5/3 216/188/3
f 215/5/4 213/5/4 216/189/4
f 213/5/4 215/5/4 214/190/4
f 213/5/5 210/5/5 216/191/5
f 210/5/5 213/5/5 209/192/5
f 211/2/6 215/3/6 212/11/6
f 215/3/6 211/2/6 214/1/6

usemtl color7

f 219/3/1 218/2/1 217/1/1
f 218/3/1 219/2/1 220/1/1
f 221/3/2 219/2/2 217/1/2
f 219/3/2 221/2/2 222/1/2
f 223/5/3 218/5/3 220/193/3
f 218/5/3 223/5/3 224/194/3
f 223/5/4 221/5/4 224/195/4
f 221/5/4 223/5/4 222/196/4
f 221/5/5 218/5/5 224/197/5
f 218/5/5 221/5/5 217/198/5
f 219/2/6 223/3/6 220/11/6
f 223/3/6 219/2/6 222/1/6
f 227/3/1 226/2/1 225/1/1
f 226/3/1 227/2/1 228/1/1
f 229/3/2 227/2/2 225/1/2
f 227/3/2 229/2/2 230/1/2
f 231/5/3 226/5/3 228/199/3
f 226/5/3 231/5/3 232/200/3
f 231/5/4 229/5/4 232/201/4
f 229/5/4 231/5/4 230/202/4
f 229/5/5 226/5/5 232/203/5
f 226/5/5 229/5/5 225/204/5
f 227/2/6 231/3/6 228/11/6
f 231/3/6 227/2/6 230/1/6
f 235/3/1 234/2/1 233/1/1
f 234/3/1 235/2/1 236/1/1
f 237/3/2 235/2/2 233/1/2
f 235/3/2 237/2/2 238/1/2
f 239/5/3 234/5/3 236/205/3
f 234/5/3 239/5/3 240/206/3
f 239/5/4 237/5/4 240/207/4
f 237/5/4 239/5/4 238/208/4
f 237/5/5 234/5/5 240/209/5
f 234/5/5 237/5/5 233/210/5
f 235/2/6 239/3/6 236/11/6
f 239/3/6 235/2/6 238/1/6
f 243/3/1 242/2/1 241/1/1
f 242/3/1 243/2/1 244/1/1
f 232/3/2 243/2/2 241/1/2
f 243/3/2 232/2/2 231/1/2
f 245/5/3 242/5/3 244/211/3
f 242/5/3 245/5/3 246/212/3
f 245/5/4 232/201/4 246/213/4
f 232/201/4 245/5/4 231/5/4
f 232/203/5 242/5/5 246/214/5
f 242/5/5 232/203/5 241/215/5
f 243/2/6 245/3/6 244/11/6
f 245/3/6 243/2/6 231/1/6

usemtl color8

f 222/3/1 246/2/1 221/1/1
f 246/3/1 222/2/1 245/1/1
f 247/3/2 222/2/2 221/1/2
f 222/3/2 247/2/2 248/1/2
f 249/5/3 246/212/3 245/5/3
f 246/212/3 249/5/3 250/216/3
f 249/5/4 247/5/4 250/217/4
f 247/5/4 249/5/4 248/218/4
f 247/5/5 246/214/5 250/219/5
f 246/214/5 247/5/5 221/5/5
f 222/2/6 249/3/6 245/11/6
f 249/3/6 222/2/6 248/1/6
f 252/3/1 225/2/1 251/1/1
f 225/3/1 252/2/1 227/1/1
f 224/3/2 252/2/2 251/1/2
f 252/3/2 224/2/2 223/1/2
f 230/5/3 225/5/3 227/220/3
f 225/5/3 230/5/3 229/221/3
f 230/202/4 224/195/4 229/5/4
f 224/195/4 230/202/4 223/5/4
f 224/197/5 225/204/5 229/5/5
f 225/204/5 224/197/5 251/222/5
f 252/2/6 230/3/6 227/11/6
f 230/3/6 252/2/6 223/1/6
f 254/3/1 233/2/1 253/1/1
f 233/3/1 254/2/1 235/1/1
f 255/3/2 254/2/2 253/1/2
f 254/3/2 255/2/2 256/1/2
f 238/5/3 233/5/3 235/223/3
f 233/5/3 238/5/3 237/224/3
f 238/208/4 255/5/4 237/5/4
f 255/5/4 238/208/4 256/225/4
f 255/5/5 233/210/5 237/5/5
f 233/210/5 255/5/5 253/226/5
f 254/2/6 238/3/6 235/11/6
f 238/3/6 254/2/6 256/1/6

