# Created by Kenney (www.kenney.nl)

mtllib Kit J72 Hysleria.mtl

v 3 6 -0.55
v 3 4 -0.55
v 3 6 0.55
v 3 4 0.55
v 2 6 -0.55
v 2 6 0.55
v 2 4 0.55
v 2 4 -0.55
v 2 5 -0.55
v 2 5 0.55
v 1 6 -0.55
v 1 6 0.55
v 1 5 0.55
v 1 5 -0.55
v -1 6 -0.55
v -1 5 -0.55
v -1 6 0.55
v -1 5 0.55
v -3 6 -0.55
v -3 6 0.55
v -3 5 0.55
v -3 5 -0.55
v 3 5 -0.55
v 3 5 0.55
v -2 5 -0.55
v -2 4 -0.55
v -2 5 0.55
v -2 4 0.55
v -3 4 0.55
v -3 4 -0.55
v 3 4 -1.65
v 3 3 -1.65
v 3 4 1.65
v 3 3 1.65
v 2 4 -1.65
v 2 4 1.65
v 2 3 1.65
v 2 3 -1.65
v -2 4 -1.65
v -2 3 -1.65
v -2 4 1.65
v -2 3 1.65
v -3 4 -1.65
v -3 4 1.65
v -3 3 1.65
v -3 3 -1.65
v 5 3 -2.2
v 5 -3 -2.2
v 5 3 2.2
v 5 -3 2.2
v 4 3 -2.2
v 4 3 2.2
v 4 -3 2.2
v 4 -3 -2.2
v 4 2 -2.2
v 4 2 2.2
v -5 3 -2.2
v -5 3 2.2
v -5 2 2.2
v -5 2 -2.2
v -4 2 -2.2
v -4 -3 -2.2
v -4 2 2.2
v -4 -3 2.2
v -5 -3 2.2
v -5 -3 -2.2
v 6 -2 -1.65
v 6 -3 -1.65
v 6 -2 1.65
v 6 -3 1.65
v 5 -2 -1.65
v 5 -2 1.65
v 5 -3 1.65
v 5 -3 -1.65
v -5 -2 -1.65
v -5 -3 -1.65
v -5 -2 1.65
v -5 -3 1.65
v -6 -2 -1.65
v -6 -2 1.65
v -6 -3 1.65
v -6 -3 -1.65
v 5 -5 -1.65
v 5 -6 -1.65
v 5 -5 1.65
v 5 -6 1.65
v 3 -5 -1.65
v 3 -5 1.65
v 3 -6 1.65
v 3 -6 -1.65
v 1 -5 -1.65
v 1 -6 -1.65
v 1 -5 1.65
v 1 -6 1.65
v -1 -5 -1.65
v -1 -5 1.65
v -1 -6 1.65
v -1 -6 -1.65
v -3 -5 -1.65
v -3 -6 -1.65
v -3 -5 1.65
v -3 -6 1.65
v -5 -5 -1.65
v -5 -5 1.65
v -5 -6 1.65
v -5 -6 -1.65
v 5 4 -1.65
v 5 3 -1.65
v 5 4 1.65
v 5 3 1.65
v 4 4 -1.65
v 4 4 1.65
v 4 3 1.65
v 4 3 -1.65
v -4 4 -1.65
v -4 3 -1.65
v -4 4 1.65
v -4 3 1.65
v -5 4 -1.65
v -5 4 1.65
v -5 3 1.65
v -5 3 -1.65
v 4 -3 -2.75
v 4 -4 -2.75
v 4 -3 2.75
v 4 -4 2.75
v 3 -3 -2.75
v 3 -3 2.75
v 3 -4 2.75
v 3 -4 -2.75
v 6 3 -1.65
v 6 2 -1.65
v 6 3 1.65
v 6 2 1.65
v 5 2 1.65
v 5 2 -1.65
v -5 2 -1.65
v -5 2 1.65
v -6 3 -1.65
v -6 3 1.65
v -6 2 1.65
v -6 2 -1.65
v 6 1 -1.65
v 6 0 -1.65
v 6 1 1.65
v 6 0 1.65
v 5 1 -1.65
v 5 1 1.65
v 5 0 1.65
v 5 0 -1.65
v -5 1 -1.65
v -5 0 -1.65
v -5 1 1.65
v -5 0 1.65
v -6 1 -1.65
v -6 1 1.65
v -6 0 1.65
v -6 0 -1.65
v 6 -4 -1.65
v 6 -5 -1.65
v 6 -4 1.65
v 6 -5 1.65
v 5 -4 -1.65
v 5 -4 1.65
v -5 -4 -1.65
v -5 -4 1.65
v -6 -4 -1.65
v -6 -4 1.65
v -6 -5 1.65
v -6 -5 -1.65
v 1 4 -1.65
v 1 4 1.65
v 1 3 1.65
v 1 3 -1.65
v -1 4 -1.65
v -1 3 -1.65
v -1 4 1.65
v -1 3 1.65
v 3 -5 -1.1
v 3 -6 -1.1
v 3 -5 1.1
v 3 -6 1.1
v 2 -5 -1.1
v 2 -5 1.1
v 2 -6 1.1
v 2 -6 -1.1
v -2 -5 -1.1
v -2 -6 -1.1
v -2 -5 1.1
v -2 -6 1.1
v -3 -5 -1.1
v -3 -5 1.1
v -3 -6 1.1
v -3 -6 -1.1
v 6 2 -1.1
v 6 1 -1.1
v 6 2 1.1
v 6 1 1.1
v 5 2 -1.1
v 5 2 1.1
v 5 1 1.1
v 5 1 -1.1
v -5 2 -1.1
v -5 1 -1.1
v -5 2 1.1
v -5 1 1.1
v -6 2 -1.1
v -6 2 1.1
v -6 1 1.1
v -6 1 -1.1
v 6 -3 -1.1
v 6 -4 -1.1
v 6 -3 1.1
v 6 -4 1.1
v 5 -3 -1.1
v 5 -3 1.1
v 5 -4 1.1
v 5 -4 -1.1
v -5 -3 -1.1
v -5 -4 -1.1
v -5 -3 1.1
v -5 -4 1.1
v -6 -3 -1.1
v -6 -3 1.1
v -6 -4 1.1
v -6 -4 -1.1
v 4 2 -2.75
v 4 1 -2.75
v 4 2 2.75
v 4 1 2.75
v 1 2 -2.75
v 1 2 2.75
v 1 1 2.75
v 1 1 -2.75
v -1 2 -2.75
v -1 1 -2.75
v -1 2 2.75
v -1 1 2.75
v -3 2 -2.75
v -3 2 2.75
v -3 1 2.75
v -3 1 -2.75
v -3 -4 -2.75
v -3 -4 2.75
v -4 1 -2.75
v -4 1 2.75
v -4 -4 2.75
v -4 -4 -2.75
v 1 2 -3.3
v 1 1 -3.3
v 1 2 3.3
v 1 1 3.3
v -1 2 -3.3
v -1 2 3.3
v -1 1 3.3
v -1 1 -3.3
v -2 0 -3.3
v -2 -2 -3.3
v -2 0 3.3
v -2 -2 3.3
v -3 0 -3.3
v -3 0 3.3
v -3 -2 3.3
v -3 -2 -3.3
v -4 2 -2.75
v -4 2 2.75
v 3 1 -2.75
v 3 1 2.75
v 1 -3 -2.75
v 1 -3 2.75
v 1 -4 2.75
v 1 -4 -2.75
v -1 -3 -2.75
v -1 -4 -2.75
v -1 -3 2.75
v -1 -4 2.75
v -3 -3 -2.75
v -3 -3 2.75
v 3 0 -2.75
v 3 0 2.75
v 1 0 2.75
v 1 0 -2.75
v -1 0 -2.75
v -1 0 2.75
v -3 0 2.75
v -3 0 -2.75
v 3 -2 -2.75
v 3 -2 2.75
v 1 -2 -2.75
v 1 -2 2.75
v -1 -2 -2.75
v -1 -2 2.75
v -3 -2 -2.75
v -3 -2 2.75
v 1 -3 -3.3
v 1 -3 3.3
v -1 -3 3.3
v -1 -3 -3.3
v 3 0 -3.3
v 3 -2 -3.3
v 3 0 3.3
v 3 -2 3.3
v 1 0 -3.3
v 1 0 3.3
v 1 -2 3.3
v 1 -2 -3.3
v -1 0 -3.3
v -1 -2 -3.3
v -1 0 3.3
v -1 -2 3.3
v 5 -4 -2.2
v 5 -4 2.2
v 4 -4 2.2
v 4 -4 -2.2
v -4 -4 -2.2
v -4 -4 2.2
v -5 -4 2.2
v -5 -4 -2.2
v 1 -4 -3.3
v 1 -4 3.3
v -1 -4 3.3
v -1 -4 -3.3
v 5 -5 -2.2
v 5 -5 2.2
v -5 -5 2.2
v -5 -5 -2.2
v 1 -5 -1.1
v 1 -5 1.1
v 1 -6 1.1
v 1 -6 -1.1
v -1 -5 -1.1
v -1 -6 -1.1
v -1 -5 1.1
v -1 -6 1.1

vn 1 0 0
vn 0 1 0
vn 0 -1 0
vn -1 0 0
vn 0 0 -1
vn 0 0 1

vt -19.68504 19.68504
vt 19.68504 19.68504
vt -19.68504 -19.68504
vt 0 NaN
vt 0 0
vt 0 NaN
vt 0 NaN
vt 0 NaN
vt 0 NaN
vt 0 NaN
vt 19.68504 -19.68504
vt 0 NaN
vt 0 NaN
vt 0 NaN
vt 0 NaN
vt 0 NaN
vt 0 NaN
vt 0 NaN
vt 0 NaN
vt 0 NaN
vt 0 NaN
vt 0 NaN
vt 0 NaN
vt 0 NaN
vt 0 NaN
vt 0 NaN
vt 0 NaN
vt 0 NaN
vt 0 NaN
vt 0 NaN
vt 0 NaN
vt 0 NaN
vt 0 NaN
vt 0 NaN
vt 0 NaN
vt 0 NaN
vt 0 NaN
vt 0 NaN
vt 0 NaN
vt 0 NaN
vt 0 NaN
vt 0 NaN
vt 0 NaN
vt 0 NaN
vt 0 NaN
vt 0 NaN
vt 0 NaN
vt 0 NaN
vt 0 NaN
vt 0 NaN
vt 0 NaN
vt 0 NaN
vt 0 NaN
vt 0 NaN
vt 0 NaN
vt 0 NaN
vt 0 NaN
vt 0 NaN
vt 0 NaN
vt 0 NaN
vt 0 NaN
vt 0 NaN
vt 0 NaN
vt 0 NaN
vt 0 NaN
vt 0 NaN
vt 0 NaN
vt 0 NaN
vt 0 NaN
vt 0 NaN
vt 0 NaN
vt 0 NaN
vt 0 NaN
vt 0 NaN
vt 0 NaN
vt 0 NaN
vt 0 NaN
vt 0 NaN
vt 0 NaN
vt 0 NaN
vt 0 NaN
vt 0 NaN
vt 0 NaN
vt 0 NaN
vt 0 NaN
vt 0 NaN
vt 0 NaN
vt 0 NaN
vt 0 NaN
vt 0 NaN
vt 0 NaN
vt 0 NaN
vt 0 NaN
vt 0 NaN
vt 0 NaN
vt 0 NaN
vt 0 NaN
vt 0 NaN
vt 0 NaN
vt 0 NaN
vt 0 NaN
vt 0 NaN
vt 0 NaN
vt 0 NaN
vt 0 NaN
vt 0 NaN
vt 0 NaN
vt 0 NaN
vt 0 NaN
vt 0 NaN
vt 0 NaN
vt 0 NaN
vt 0 NaN
vt 0 NaN
vt 0 NaN
vt 0 NaN
vt 0 NaN
vt 0 NaN
vt 0 NaN
vt 0 NaN
vt 0 NaN
vt 0 NaN
vt 0 NaN
vt 0 NaN
vt 0 NaN
vt 0 NaN
vt 0 NaN
vt 0 NaN
vt 0 NaN
vt 0 NaN
vt 0 NaN
vt 0 NaN
vt 0 NaN
vt 0 NaN
vt 0 NaN
vt 0 NaN
vt 0 NaN
vt 0 NaN
vt 0 NaN
vt 0 NaN
vt 0 NaN
vt 0 NaN
vt 0 NaN
vt 0 NaN
vt 0 NaN
vt 0 NaN
vt 0 NaN
vt 0 NaN
vt 0 NaN
vt 0 NaN
vt 0 NaN
vt 0 NaN
vt 0 NaN
vt 0 NaN
vt 0 NaN
vt 0 NaN
vt 0 NaN
vt 0 NaN
vt 0 NaN
vt 0 NaN
vt 0 NaN
vt 0 NaN
vt 0 NaN
vt 0 NaN
vt 0 NaN
vt 0 NaN
vt 0 NaN
vt 0 NaN
vt 0 NaN
vt 0 NaN
vt 0 NaN
vt 0 NaN
vt 0 NaN
vt 0 NaN
vt 0 NaN
vt 0 NaN
vt 0 NaN
vt 0 NaN
vt 0 NaN
vt 0 NaN
vt 0 NaN
vt 0 NaN
vt 0 NaN
vt 0 NaN
vt 0 NaN
vt 0 NaN
vt 0 NaN
vt 0 NaN
vt 0 NaN
vt 0 NaN
vt 0 NaN
vt 0 NaN
vt 0 NaN
vt 0 NaN
vt 0 NaN
vt 0 NaN
vt 0 NaN
vt 0 NaN
vt 0 NaN
vt 0 NaN
vt 0 NaN
vt 0 NaN
vt 0 NaN
vt 0 NaN
vt 0 NaN
vt 0 NaN
vt 0 NaN
vt 0 NaN
vt 0 NaN
vt 0 NaN
vt 0 NaN
vt 0 NaN
vt 0 NaN
vt 0 NaN
vt 0 NaN
vt 0 NaN
vt 0 NaN
vt 0 NaN
vt 0 NaN
vt 0 NaN
vt 0 NaN
vt 0 NaN
vt 0 NaN
vt 0 NaN
vt 0 NaN
vt 0 NaN
vt 0 NaN
vt 0 NaN
vt 0 NaN
vt 0 NaN
vt 0 NaN
vt 0 NaN
vt 0 NaN
vt 0 NaN
vt 0 NaN
vt 0 NaN
vt 0 NaN
vt 0 NaN
vt 0 NaN
vt 0 NaN
vt 0 NaN
vt 0 NaN
vt 0 NaN
vt 0 NaN
vt 0 NaN
vt 0 NaN
vt 0 NaN
vt 0 NaN
vt 0 NaN
vt 0 NaN
vt 0 NaN
vt 0 NaN
vt 0 NaN
vt 0 NaN
vt 0 NaN
vt 0 NaN
vt 0 NaN
vt 0 NaN
vt 0 NaN
vt 0 NaN
vt 0 NaN
vt 0 NaN
vt 0 NaN
vt 0 NaN
vt 0 NaN
vt 0 NaN
vt 0 NaN
vt 0 NaN
vt 0 NaN
vt 0 NaN
vt 0 NaN
vt 0 NaN
vt 0 NaN
vt 0 NaN
vt 0 NaN
vt 0 NaN
vt 0 NaN
vt 0 NaN
vt 0 NaN
vt 0 NaN
vt 0 NaN
vt 0 NaN
vt 0 NaN
vt 0 NaN
vt 0 NaN

usemtl color2

f 3/3/1 2/2/1 1/1/1
f 2/3/1 3/2/1 4/1/1
f 5/3/2 3/2/2 1/1/2
f 3/3/2 5/2/2 6/1/2
f 7/5/3 2/5/3 4/4/3
f 2/5/3 7/5/3 8/6/3
f 7/5/4 5/5/4 8/7/4
f 5/5/4 7/5/4 6/8/4
f 5/5/5 2/5/5 8/9/5
f 2/5/5 5/5/5 1/10/5
f 3/2/6 7/3/6 4/11/6
f 7/3/6 3/2/6 6/1/6
f 6/3/1 9/2/1 5/1/1
f 9/3/1 6/2/1 10/1/1
f 11/3/2 6/2/2 5/1/2
f 6/3/2 11/2/2 12/1/2
f 13/5/3 9/5/3 10/12/3
f 9/5/3 13/5/3 14/13/3
f 13/5/4 11/5/4 14/14/4
f 11/5/4 13/5/4 12/15/4
f 11/5/5 9/5/5 14/16/5
f 9/5/5 11/5/5 5/5/5
f 6/2/6 13/3/6 10/11/6
f 13/3/6 6/2/6 12/1/6
f 17/3/1 16/2/1 15/1/1
f 16/3/1 17/2/1 18/1/1
f 19/3/2 17/2/2 15/1/2
f 17/3/2 19/2/2 20/1/2
f 21/5/3 16/5/3 18/17/3
f 16/5/3 21/5/3 22/18/3
f 21/5/4 19/5/4 22/19/4
f 19/5/4 21/5/4 20/20/4
f 19/5/5 16/5/5 22/21/5
f 16/5/5 19/5/5 15/22/5
f 17/2/6 21/3/6 18/11/6
f 21/3/6 17/2/6 20/1/6
f 3/3/1 23/2/1 1/1/1
f 23/3/1 3/2/1 24/1/1
f 11/3/2 3/2/2 1/1/2
f 3/3/2 11/2/2 12/1/2
f 13/5/3 23/5/3 24/23/3
f 23/5/3 13/5/3 14/13/3
f 13/5/4 11/5/4 14/14/4
f 11/5/4 13/5/4 12/15/4
f 11/5/5 23/5/5 14/16/5
f 23/5/5 11/5/5 1/10/5
f 3/2/6 13/3/6 24/11/6
f 13/3/6 3/2/6 12/1/6
f 27/3/1 26/2/1 25/1/1
f 26/3/1 27/2/1 28/1/1
f 22/3/2 27/2/2 25/1/2
f 27/3/2 22/2/2 21/1/2
f 29/5/3 26/5/3 28/24/3
f 26/5/3 29/5/3 30/25/3
f 29/5/4 22/19/4 30/26/4
f 22/19/4 29/5/4 21/5/4
f 22/21/5 26/5/5 30/27/5
f 26/5/5 22/21/5 25/28/5
f 27/2/6 29/3/6 28/11/6
f 29/3/6 27/2/6 21/1/6
f 33/3/1 32/2/1 31/1/1
f 32/3/1 33/2/1 34/1/1
f 35/3/2 33/2/2 31/1/2
f 33/3/2 35/2/2 36/1/2
f 37/5/3 32/5/3 34/29/3
f 32/5/3 37/5/3 38/30/3
f 37/5/4 35/5/4 38/31/4
f 35/5/4 37/5/4 36/32/4
f 35/5/5 32/5/5 38/33/5
f 32/5/5 35/5/5 31/34/5
f 33/2/6 37/3/6 34/11/6
f 37/3/6 33/2/6 36/1/6
f 41/3/1 40/2/1 39/1/1
f 40/3/1 41/2/1 42/1/1
f 43/3/2 41/2/2 39/1/2
f 41/3/2 43/2/2 44/1/2
f 45/5/3 40/5/3 42/35/3
f 40/5/3 45/5/3 46/36/3
f 45/5/4 43/5/4 46/37/4
f 43/5/4 45/5/4 44/38/4
f 43/5/5 40/5/5 46/39/5
f 40/5/5 43/5/5 39/40/5
f 41/2/6 45/3/6 42/11/6
f 45/3/6 41/2/6 44/1/6
f 49/3/1 48/2/1 47/1/1
f 48/3/1 49/2/1 50/1/1
f 51/3/2 49/2/2 47/1/2
f 49/3/2 51/2/2 52/1/2
f 53/5/3 48/5/3 50/41/3
f 48/5/3 53/5/3 54/42/3
f 53/5/4 51/5/4 54/43/4
f 51/5/4 53/5/4 52/44/4
f 51/5/5 48/5/5 54/45/5
f 48/5/5 51/5/5 47/46/5
f 49/2/6 53/3/6 50/11/6
f 53/3/6 49/2/6 52/1/6
f 52/3/1 55/2/1 51/1/1
f 55/3/1 52/2/1 56/1/1
f 57/3/2 52/2/2 51/1/2
f 52/3/2 57/2/2 58/1/2
f 59/5/3 55/5/3 56/47/3
f 55/5/3 59/5/3 60/48/3
f 59/5/4 57/5/4 60/49/4
f 57/5/4 59/5/4 58/50/4
f 57/5/5 55/5/5 60/51/5
f 55/5/5 57/5/5 51/5/5
f 52/2/6 59/3/6 56/11/6
f 59/3/6 52/2/6 58/1/6
f 63/3/1 62/2/1 61/1/1
f 62/3/1 63/2/1 64/1/1
f 60/3/2 63/2/2 61/1/2
f 63/3/2 60/2/2 59/1/2
f 65/5/3 62/5/3 64/52/3
f 62/5/3 65/5/3 66/53/3
f 65/5/4 60/49/4 66/54/4
f 60/49/4 65/5/4 59/5/4
f 60/51/5 62/5/5 66/55/5
f 62/5/5 60/51/5 61/56/5
f 63/2/6 65/3/6 64/11/6
f 65/3/6 63/2/6 59/1/6
f 69/3/1 68/2/1 67/1/1
f 68/3/1 69/2/1 70/1/1
f 71/3/2 69/2/2 67/1/2
f 69/3/2 71/2/2 72/1/2
f 73/5/3 68/5/3 70/57/3
f 68/5/3 73/5/3 74/58/3
f 73/5/4 71/5/4 74/59/4
f 71/5/4 73/5/4 72/60/4
f 71/5/5 68/5/5 74/61/5
f 68/5/5 71/5/5 67/62/5
f 69/2/6 73/3/6 70/11/6
f 73/3/6 69/2/6 72/1/6
f 77/3/1 76/2/1 75/1/1
f 76/3/1 77/2/1 78/1/1
f 79/3/2 77/2/2 75/1/2
f 77/3/2 79/2/2 80/1/2
f 81/5/3 76/5/3 78/63/3
f 76/5/3 81/5/3 82/64/3
f 81/5/4 79/5/4 82/65/4
f 79/5/4 81/5/4 80/66/4
f 79/5/5 76/5/5 82/67/5
f 76/5/5 79/5/5 75/68/5
f 77/2/6 81/3/6 78/11/6
f 81/3/6 77/2/6 80/1/6
f 85/3/1 84/2/1 83/1/1
f 84/3/1 85/2/1 86/1/1
f 87/3/2 85/2/2 83/1/2
f 85/3/2 87/2/2 88/1/2
f 89/5/3 84/5/3 86/69/3
f 84/5/3 89/5/3 90/70/3
f 89/5/4 87/5/4 90/71/4
f 87/5/4 89/5/4 88/72/4
f 87/5/5 84/5/5 90/73/5
f 84/5/5 87/5/5 83/74/5
f 85/2/6 89/3/6 86/11/6
f 89/3/6 85/2/6 88/1/6
f 93/3/1 92/2/1 91/1/1
f 92/3/1 93/2/1 94/1/1
f 95/3/2 93/2/2 91/1/2
f 93/3/2 95/2/2 96/1/2
f 97/5/3 92/5/3 94/75/3
f 92/5/3 97/5/3 98/76/3
f 97/5/4 95/5/4 98/77/4
f 95/5/4 97/5/4 96/78/4
f 95/5/5 92/5/5 98/79/5
f 92/5/5 95/5/5 91/80/5
f 93/2/6 97/3/6 94/11/6
f 97/3/6 93/2/6 96/1/6
f 101/3/1 100/2/1 99/1/1
f 100/3/1 101/2/1 102/1/1
f 103/3/2 101/2/2 99/1/2
f 101/3/2 103/2/2 104/1/2
f 105/5/3 100/5/3 102/81/3
f 100/5/3 105/5/3 106/82/3
f 105/5/4 103/5/4 106/83/4
f 103/5/4 105/5/4 104/84/4
f 103/5/5 100/5/5 106/85/5
f 100/5/5 103/5/5 99/86/5
f 101/2/6 105/3/6 102/11/6
f 105/3/6 101/2/6 104/1/6
f 52/3/1 55/2/1 51/1/1
f 55/3/1 52/2/1 56/1/1
f 57/3/2 52/2/2 51/1/2
f 52/3/2 57/2/2 58/1/2
f 59/5/3 55/5/3 56/47/3
f 55/5/3 59/5/3 60/48/3
f 59/5/4 57/5/4 60/49/4
f 57/5/4 59/5/4 58/50/4
f 57/5/5 55/5/5 60/51/5
f 55/5/5 57/5/5 51/5/5
f 52/2/6 59/3/6 56/11/6
f 59/3/6 52/2/6 58/1/6

usemtl color8

f 12/3/1 14/2/1 11/1/1
f 14/3/1 12/2/1 13/1/1
f 15/3/2 12/2/2 11/1/2
f 12/3/2 15/2/2 17/1/2
f 18/17/3 14/13/3 13/5/3
f 14/13/3 18/17/3 16/5/3
f 18/5/4 15/5/4 16/87/4
f 15/5/4 18/5/4 17/88/4
f 15/22/5 14/16/5 16/5/5
f 14/16/5 15/22/5 11/5/5
f 12/2/6 18/3/6 13/11/6
f 18/3/6 12/2/6 17/1/6
f 109/3/1 108/2/1 107/1/1
f 108/3/1 109/2/1 110/1/1
f 111/3/2 109/2/2 107/1/2
f 109/3/2 111/2/2 112/1/2
f 113/5/3 108/5/3 110/89/3
f 108/5/3 113/5/3 114/90/3
f 113/5/4 111/5/4 114/91/4
f 111/5/4 113/5/4 112/92/4
f 111/5/5 108/5/5 114/93/5
f 108/5/5 111/5/5 107/94/5
f 109/2/6 113/3/6 110/11/6
f 113/3/6 109/2/6 112/1/6
f 117/3/1 116/2/1 115/1/1
f 116/3/1 117/2/1 118/1/1
f 119/3/2 117/2/2 115/1/2
f 117/3/2 119/2/2 120/1/2
f 121/5/3 116/5/3 118/95/3
f 116/5/3 121/5/3 122/96/3
f 121/5/4 119/5/4 122/97/4
f 119/5/4 121/5/4 120/98/4
f 119/5/5 116/5/5 122/99/5
f 116/5/5 119/5/5 115/100/5
f 117/2/6 121/3/6 118/11/6
f 121/3/6 117/2/6 120/1/6
f 125/3/1 124/2/1 123/1/1
f 124/3/1 125/2/1 126/1/1
f 127/3/2 125/2/2 123/1/2
f 125/3/2 127/2/2 128/1/2
f 129/5/3 124/5/3 126/101/3
f 124/5/3 129/5/3 130/102/3
f 129/5/4 127/5/4 130/103/4
f 127/5/4 129/5/4 128/104/4
f 127/5/5 124/5/5 130/105/5
f 124/5/5 127/5/5 123/106/5
f 125/2/6 129/3/6 126/11/6
f 129/3/6 125/2/6 128/1/6

usemtl color5

f 112/3/1 114/2/1 111/1/1
f 114/3/1 112/2/1 113/1/1
f 31/3/2 112/2/2 111/1/2
f 112/3/2 31/2/2 33/1/2
f 34/29/3 114/90/3 113/5/3
f 114/90/3 34/29/3 32/5/3
f 34/5/4 31/5/4 32/107/4
f 31/5/4 34/5/4 33/108/4
f 31/34/5 114/93/5 32/5/5
f 114/93/5 31/34/5 111/5/5
f 112/2/6 34/3/6 113/11/6
f 34/3/6 112/2/6 33/1/6
f 133/3/1 132/2/1 131/1/1
f 132/3/1 133/2/1 134/1/1
f 108/3/2 133/2/2 131/1/2
f 133/3/2 108/2/2 110/1/2
f 135/5/3 132/5/3 134/109/3
f 132/5/3 135/5/3 136/110/3
f 135/5/4 108/5/4 136/111/4
f 108/5/4 135/5/4 110/112/4
f 108/5/5 132/5/5 136/113/5
f 132/5/5 108/5/5 131/114/5
f 133/2/6 135/3/6 134/11/6
f 135/3/6 133/2/6 110/1/6
f 121/3/1 137/2/1 122/1/1
f 137/3/1 121/2/1 138/1/1
f 139/3/2 121/2/2 122/1/2
f 121/3/2 139/2/2 140/1/2
f 141/5/3 137/5/3 138/115/3
f 137/5/3 141/5/3 142/116/3
f 141/5/4 139/5/4 142/117/4
f 139/5/4 141/5/4 140/118/4
f 139/5/5 137/5/5 142/119/5
f 137/5/5 139/5/5 122/99/5
f 121/2/6 141/3/6 138/11/6
f 141/3/6 121/2/6 140/1/6
f 145/3/1 144/2/1 143/1/1
f 144/3/1 145/2/1 146/1/1
f 147/3/2 145/2/2 143/1/2
f 145/3/2 147/2/2 148/1/2
f 149/5/3 144/5/3 146/120/3
f 144/5/3 149/5/3 150/121/3
f 149/5/4 147/5/4 150/122/4
f 147/5/4 149/5/4 148/123/4
f 147/5/5 144/5/5 150/124/5
f 144/5/5 147/5/5 143/125/5
f 145/2/6 149/3/6 146/11/6
f 149/3/6 145/2/6 148/1/6
f 153/3/1 152/2/1 151/1/1
f 152/3/1 153/2/1 154/1/1
f 155/3/2 153/2/2 151/1/2
f 153/3/2 155/2/2 156/1/2
f 157/5/3 152/5/3 154/126/3
f 152/5/3 157/5/3 158/127/3
f 157/5/4 155/5/4 158/128/4
f 155/5/4 157/5/4 156/129/4
f 155/5/5 152/5/5 158/130/5
f 152/5/5 155/5/5 151/131/5
f 153/2/6 157/3/6 154/11/6
f 157/3/6 153/2/6 156/1/6
f 161/3/1 160/2/1 159/1/1
f 160/3/1 161/2/1 162/1/1
f 163/3/2 161/2/2 159/1/2
f 161/3/2 163/2/2 164/1/2
f 85/5/3 160/5/3 162/132/3
f 160/5/3 85/5/3 83/133/3
f 85/5/4 163/5/4 83/134/4
f 163/5/4 85/5/4 164/135/4
f 163/5/5 160/5/5 83/74/5
f 160/5/5 163/5/5 159/136/5
f 161/2/6 85/3/6 162/11/6
f 85/3/6 161/2/6 164/1/6
f 166/3/1 103/2/1 165/1/1
f 103/3/1 166/2/1 104/1/1
f 167/3/2 166/2/2 165/1/2
f 166/3/2 167/2/2 168/1/2
f 169/5/3 103/5/3 104/137/3
f 103/5/3 169/5/3 170/138/3
f 169/5/4 167/5/4 170/139/4
f 167/5/4 169/5/4 168/140/4
f 167/5/5 103/5/5 170/141/5
f 103/5/5 167/5/5 165/142/5
f 166/2/6 169/3/6 104/11/6
f 169/3/6 166/2/6 168/1/6

usemtl color3

f 36/3/1 38/2/1 35/1/1
f 38/3/1 36/2/1 37/1/1
f 171/3/2 36/2/2 35/1/2
f 36/3/2 171/2/2 172/1/2
f 173/5/3 38/30/3 37/5/3
f 38/30/3 173/5/3 174/143/3
f 173/5/4 171/5/4 174/144/4
f 171/5/4 173/5/4 172/145/4
f 171/5/5 38/33/5 174/146/5
f 38/33/5 171/5/5 35/5/5
f 36/2/6 173/3/6 37/11/6
f 173/3/6 36/2/6 172/1/6
f 177/3/1 176/2/1 175/1/1
f 176/3/1 177/2/1 178/1/1
f 39/3/2 177/2/2 175/1/2
f 177/3/2 39/2/2 41/1/2
f 42/35/3 176/5/3 178/147/3
f 176/5/3 42/35/3 40/5/3
f 42/5/4 39/5/4 40/148/4
f 39/5/4 42/5/4 41/149/4
f 39/40/5 176/5/5 40/5/5
f 176/5/5 39/40/5 175/150/5
f 177/2/6 42/3/6 178/11/6
f 42/3/6 177/2/6 41/1/6
f 181/3/1 180/2/1 179/1/1
f 180/3/1 181/2/1 182/1/1
f 183/3/2 181/2/2 179/1/2
f 181/3/2 183/2/2 184/1/2
f 185/5/3 180/5/3 182/151/3
f 180/5/3 185/5/3 186/152/3
f 185/5/4 183/5/4 186/153/4
f 183/5/4 185/5/4 184/154/4
f 183/5/5 180/5/5 186/155/5
f 180/5/5 183/5/5 179/156/5
f 181/2/6 185/3/6 182/11/6
f 185/3/6 181/2/6 184/1/6
f 189/3/1 188/2/1 187/1/1
f 188/3/1 189/2/1 190/1/1
f 191/3/2 189/2/2 187/1/2
f 189/3/2 191/2/2 192/1/2
f 193/5/3 188/5/3 190/157/3
f 188/5/3 193/5/3 194/158/3
f 193/5/4 191/5/4 194/159/4
f 191/5/4 193/5/4 192/160/4
f 191/5/5 188/5/5 194/161/5
f 188/5/5 191/5/5 187/162/5
f 189/2/6 193/3/6 190/11/6
f 193/3/6 189/2/6 192/1/6

usemtl color16

f 172/3/1 174/2/1 171/1/1
f 174/3/1 172/2/1 173/1/1
f 175/3/2 172/2/2 171/1/2
f 172/3/2 175/2/2 177/1/2
f 178/147/3 174/143/3 173/5/3
f 174/143/3 178/147/3 176/5/3
f 178/5/4 175/5/4 176/163/4
f 175/5/4 178/5/4 177/164/4
f 175/150/5 174/146/5 176/5/5
f 174/146/5 175/150/5 171/5/5
f 172/2/6 178/3/6 173/11/6
f 178/3/6 172/2/6 177/1/6
f 44/3/1 46/2/1 43/1/1
f 46/3/1 44/2/1 45/1/1
f 115/3/2 44/2/2 43/1/2
f 44/3/2 115/2/2 117/1/2
f 118/95/3 46/36/3 45/5/3
f 46/36/3 118/95/3 116/5/3
f 118/5/4 115/5/4 116/165/4
f 115/5/4 118/5/4 117/166/4
f 115/100/5 46/39/5 116/5/5
f 46/39/5 115/100/5 43/5/5
f 44/2/6 118/3/6 45/11/6
f 118/3/6 44/2/6 117/1/6

usemtl color6

f 197/3/1 196/2/1 195/1/1
f 196/3/1 197/2/1 198/1/1
f 199/3/2 197/2/2 195/1/2
f 197/3/2 199/2/2 200/1/2
f 201/5/3 196/5/3 198/167/3
f 196/5/3 201/5/3 202/168/3
f 201/5/4 199/5/4 202/169/4
f 199/5/4 201/5/4 200/170/4
f 199/5/5 196/5/5 202/171/5
f 196/5/5 199/5/5 195/172/5
f 197/2/6 201/3/6 198/11/6
f 201/3/6 197/2/6 200/1/6
f 205/3/1 204/2/1 203/1/1
f 204/3/1 205/2/1 206/1/1
f 207/3/2 205/2/2 203/1/2
f 205/3/2 207/2/2 208/1/2
f 209/5/3 204/5/3 206/173/3
f 204/5/3 209/5/3 210/174/3
f 209/5/4 207/5/4 210/175/4
f 207/5/4 209/5/4 208/176/4
f 207/5/5 204/5/5 210/177/5
f 204/5/5 207/5/5 203/178/5
f 205/2/6 209/3/6 206/11/6
f 209/3/6 205/2/6 208/1/6
f 213/3/1 212/2/1 211/1/1
f 212/3/1 213/2/1 214/1/1
f 215/3/2 213/2/2 211/1/2
f 213/3/2 215/2/2 216/1/2
f 217/5/3 212/5/3 214/179/3
f 212/5/3 217/5/3 218/180/3
f 217/5/4 215/5/4 218/181/4
f 215/5/4 217/5/4 216/182/4
f 215/5/5 212/5/5 218/183/5
f 212/5/5 215/5/5 211/184/5
f 213/2/6 217/3/6 214/11/6
f 217/3/6 213/2/6 216/1/6
f 221/3/1 220/2/1 219/1/1
f 220/3/1 221/2/1 222/1/1
f 223/3/2 221/2/2 219/1/2
f 221/3/2 223/2/2 224/1/2
f 225/5/3 220/5/3 222/185/3
f 220/5/3 225/5/3 226/186/3
f 225/5/4 223/5/4 226/187/4
f 223/5/4 225/5/4 224/188/4
f 223/5/5 220/5/5 226/189/5
f 220/5/5 223/5/5 219/190/5
f 221/2/6 225/3/6 222/11/6
f 225/3/6 221/2/6 224/1/6

usemtl color11

f 229/3/1 228/2/1 227/1/1
f 228/3/1 229/2/1 230/1/1
f 231/3/2 229/2/2 227/1/2
f 229/3/2 231/2/2 232/1/2
f 233/5/3 228/5/3 230/191/3
f 228/5/3 233/5/3 234/192/3
f 233/5/4 231/5/4 234/193/4
f 231/5/4 233/5/4 232/194/4
f 231/5/5 228/5/5 234/195/5
f 228/5/5 231/5/5 227/196/5
f 229/2/6 233/3/6 230/11/6
f 233/3/6 229/2/6 232/1/6
f 237/3/1 236/2/1 235/1/1
f 236/3/1 237/2/1 238/1/1
f 239/3/2 237/2/2 235/1/2
f 237/3/2 239/2/2 240/1/2
f 241/5/3 236/5/3 238/197/3
f 236/5/3 241/5/3 242/198/3
f 241/5/4 239/5/4 242/199/4
f 239/5/4 241/5/4 240/200/4
f 239/5/5 236/5/5 242/201/5
f 236/5/5 239/5/5 235/202/5
f 237/2/6 241/3/6 238/11/6
f 241/3/6 237/2/6 240/1/6
f 241/3/1 243/2/1 242/1/1
f 243/3/1 241/2/1 244/1/1
f 245/3/2 241/2/2 242/1/2
f 241/3/2 245/2/2 246/1/2
f 247/5/3 243/5/3 244/203/3
f 243/5/3 247/5/3 248/204/3
f 247/5/4 245/5/4 248/205/4
f 245/5/4 247/5/4 246/206/4
f 245/5/5 243/5/5 248/207/5
f 243/5/5 245/5/5 242/201/5
f 241/2/6 247/3/6 244/11/6
f 247/3/6 241/2/6 246/1/6

usemtl color14

f 251/3/1 250/2/1 249/1/1
f 250/3/1 251/2/1 252/1/1
f 253/3/2 251/2/2 249/1/2
f 251/3/2 253/2/2 254/1/2
f 255/5/3 250/5/3 252/208/3
f 250/5/3 255/5/3 256/209/3
f 255/5/4 253/5/4 256/210/4
f 253/5/4 255/5/4 254/211/4
f 253/5/5 250/5/5 256/212/5
f 250/5/5 253/5/5 249/213/5
f 251/2/6 255/3/6 252/11/6
f 255/3/6 251/2/6 254/1/6
f 259/3/1 258/2/1 257/1/1
f 258/3/1 259/2/1 260/1/1
f 261/3/2 259/2/2 257/1/2
f 259/3/2 261/2/2 262/1/2
f 263/5/3 258/5/3 260/214/3
f 258/5/3 263/5/3 264/215/3
f 263/5/4 261/5/4 264/216/4
f 261/5/4 263/5/4 262/217/4
f 261/5/5 258/5/5 264/218/5
f 258/5/5 261/5/5 257/219/5
f 259/2/6 263/3/6 260/11/6
f 263/3/6 259/2/6 262/1/6

usemtl color15

f 240/3/1 242/2/1 239/1/1
f 242/3/1 240/2/1 241/1/1
f 265/3/2 240/2/2 239/1/2
f 240/3/2 265/2/2 266/1/2
f 246/5/3 242/198/3 241/5/3
f 242/198/3 246/5/3 245/220/3
f 246/206/4 265/5/4 245/5/4
f 265/5/4 246/206/4 266/221/4
f 265/5/5 242/201/5 245/5/5
f 242/201/5 265/5/5 239/5/5
f 240/2/6 246/3/6 241/11/6
f 246/3/6 240/2/6 266/1/6

usemtl color9

f 230/3/1 123/2/1 228/1/1
f 123/3/1 230/2/1 125/1/1
f 267/3/2 230/2/2 228/1/2
f 230/3/2 267/2/2 268/1/2
f 128/5/3 123/5/3 125/222/3
f 123/5/3 128/5/3 127/223/3
f 128/104/4 267/5/4 127/5/4
f 267/5/4 128/104/4 268/224/4
f 267/5/5 123/106/5 127/5/5
f 123/106/5 267/5/5 228/5/5
f 230/2/6 128/3/6 125/11/6
f 128/3/6 230/2/6 268/1/6
f 128/3/1 130/2/1 127/1/1
f 130/3/1 128/2/1 129/1/1
f 269/3/2 128/2/2 127/1/2
f 128/3/2 269/2/2 270/1/2
f 271/5/3 130/102/3 129/5/3
f 130/102/3 271/5/3 272/225/3
f 271/5/4 269/5/4 272/226/4
f 269/5/4 271/5/4 270/227/4
f 269/5/5 130/105/5 272/228/5
f 130/105/5 269/5/5 127/5/5
f 128/2/6 271/3/6 129/11/6
f 271/3/6 128/2/6 270/1/6
f 275/3/1 274/2/1 273/1/1
f 274/3/1 275/2/1 276/1/1
f 277/3/2 275/2/2 273/1/2
f 275/3/2 277/2/2 278/1/2
f 244/203/3 274/5/3 276/229/3
f 274/5/3 244/203/3 243/5/3
f 244/5/4 277/5/4 243/230/4
f 277/5/4 244/5/4 278/231/4
f 277/5/5 274/5/5 243/5/5
f 274/5/5 277/5/5 273/232/5
f 275/2/6 244/3/6 276/11/6
f 244/3/6 275/2/6 278/1/6

usemtl color12

f 268/3/1 279/2/1 267/1/1
f 279/3/1 268/2/1 280/1/1
f 234/3/2 268/2/2 267/1/2
f 268/3/2 234/2/2 233/1/2
f 281/5/3 279/5/3 280/233/3
f 279/5/3 281/5/3 282/234/3
f 281/5/4 234/193/4 282/235/4
f 234/193/4 281/5/4 233/5/4
f 234/195/5 279/5/5 282/236/5
f 279/5/5 234/195/5 267/5/5
f 268/2/6 281/3/6 280/11/6
f 281/3/6 268/2/6 233/1/6
f 238/3/1 283/2/1 236/1/1
f 283/3/1 238/2/1 284/1/1
f 242/3/2 238/2/2 236/1/2
f 238/3/2 242/2/2 241/1/2
f 285/5/3 283/5/3 284/237/3
f 283/5/3 285/5/3 286/238/3
f 285/5/4 242/199/4 286/239/4
f 242/199/4 285/5/4 241/5/4
f 242/201/5 283/5/5 286/240/5
f 283/5/5 242/201/5 236/5/5
f 238/2/6 285/3/6 284/11/6
f 285/3/6 238/2/6 241/1/6
f 288/3/1 127/2/1 287/1/1
f 127/3/1 288/2/1 128/1/1
f 289/3/2 288/2/2 287/1/2
f 288/3/2 289/2/2 290/1/2
f 270/5/3 127/223/3 128/5/3
f 127/223/3 270/5/3 269/241/3
f 270/227/4 289/5/4 269/5/4
f 289/5/4 270/227/4 290/242/4
f 289/5/5 127/5/5 269/5/5
f 127/5/5 289/5/5 287/243/5
f 288/2/6 270/3/6 128/11/6
f 270/3/6 288/2/6 290/1/6
f 292/3/1 273/2/1 291/1/1
f 273/3/1 292/2/1 275/1/1
f 293/3/2 292/2/2 291/1/2
f 292/3/2 293/2/2 294/1/2
f 278/5/3 273/5/3 275/244/3
f 273/5/3 278/5/3 277/245/3
f 278/231/4 293/5/4 277/5/4
f 293/5/4 278/231/4 294/246/4
f 293/5/5 273/232/5 277/5/5
f 273/232/5 293/5/5 291/247/5
f 292/2/6 278/3/6 275/11/6
f 278/3/6 292/2/6 294/1/6

usemtl color13

f 252/3/1 295/2/1 250/1/1
f 295/3/1 252/2/1 296/1/1
f 256/3/2 252/2/2 250/1/2
f 252/3/2 256/2/2 255/1/2
f 297/5/3 295/5/3 296/248/3
f 295/5/3 297/5/3 298/249/3
f 297/5/4 256/210/4 298/250/4
f 256/210/4 297/5/4 255/5/4
f 256/212/5 295/5/5 298/251/5
f 295/5/5 256/212/5 250/5/5
f 252/2/6 297/3/6 296/11/6
f 297/3/6 252/2/6 255/1/6
f 301/3/1 300/2/1 299/1/1
f 300/3/1 301/2/1 302/1/1
f 303/3/2 301/2/2 299/1/2
f 301/3/2 303/2/2 304/1/2
f 305/5/3 300/5/3 302/252/3
f 300/5/3 305/5/3 306/253/3
f 305/5/4 303/5/4 306/254/4
f 303/5/4 305/5/4 304/255/4
f 303/5/5 300/5/5 306/256/5
f 300/5/5 303/5/5 299/257/5
f 301/2/6 305/3/6 302/11/6
f 305/3/6 301/2/6 304/1/6
f 309/3/1 308/2/1 307/1/1
f 308/3/1 309/2/1 310/1/1
f 257/3/2 309/2/2 307/1/2
f 309/3/2 257/2/2 259/1/2
f 260/214/3 308/5/3 310/258/3
f 308/5/3 260/214/3 258/5/3
f 260/5/4 257/5/4 258/259/4
f 257/5/4 260/5/4 259/260/4
f 257/219/5 308/5/5 258/5/5
f 308/5/5 257/219/5 307/261/5
f 309/2/6 260/3/6 310/11/6
f 260/3/6 309/2/6 259/1/6

usemtl color7

f 50/3/1 311/2/1 48/1/1
f 311/3/1 50/2/1 312/1/1
f 54/3/2 50/2/2 48/1/2
f 50/3/2 54/2/2 53/1/2
f 313/5/3 311/5/3 312/262/3
f 311/5/3 313/5/3 314/263/3
f 313/5/4 54/43/4 314/264/4
f 54/43/4 313/5/4 53/5/4
f 54/45/5 311/5/5 314/265/5
f 311/5/5 54/45/5 48/5/5
f 50/2/6 313/3/6 312/11/6
f 313/3/6 50/2/6 53/1/6
f 64/3/1 315/2/1 62/1/1
f 315/3/1 64/2/1 316/1/1
f 66/3/2 64/2/2 62/1/2
f 64/3/2 66/2/2 65/1/2
f 317/5/3 315/5/3 316/266/3
f 315/5/3 317/5/3 318/267/3
f 317/5/4 66/54/4 318/268/4
f 66/54/4 317/5/4 65/5/4
f 66/55/5 315/5/5 318/269/5
f 315/5/5 66/55/5 62/5/5
f 64/2/6 317/3/6 316/11/6
f 317/3/6 64/2/6 65/1/6

usemtl color10

f 296/3/1 319/2/1 295/1/1
f 319/3/1 296/2/1 320/1/1
f 298/3/2 296/2/2 295/1/2
f 296/3/2 298/2/2 297/1/2
f 321/5/3 319/5/3 320/270/3
f 319/5/3 321/5/3 322/271/3
f 321/5/4 298/250/4 322/272/4
f 298/250/4 321/5/4 297/5/4
f 298/251/5 319/5/5 322/273/5
f 319/5/5 298/251/5 295/5/5
f 296/2/6 321/3/6 320/11/6
f 321/3/6 296/2/6 297/1/6

usemtl color4

f 312/3/1 323/2/1 311/1/1
f 323/3/1 312/2/1 324/1/1
f 318/3/2 312/2/2 311/1/2
f 312/3/2 318/2/2 317/1/2
f 325/5/3 323/5/3 324/274/3
f 323/5/3 325/5/3 326/275/3
f 325/5/4 318/268/4 326/276/4
f 318/268/4 325/5/4 317/5/4
f 318/269/5 323/5/5 326/277/5
f 323/5/5 318/269/5 311/5/5
f 312/2/6 325/3/6 324/11/6
f 325/3/6 312/2/6 317/1/6
f 184/3/1 186/2/1 183/1/1
f 186/3/1 184/2/1 185/1/1
f 327/3/2 184/2/2 183/1/2
f 184/3/2 327/2/2 328/1/2
f 329/5/3 186/152/3 185/5/3
f 186/152/3 329/5/3 330/278/3
f 329/5/4 327/5/4 330/279/4
f 327/5/4 329/5/4 328/280/4
f 327/5/5 186/155/5 330/281/5
f 186/155/5 327/5/5 183/5/5
f 184/2/6 329/3/6 185/11/6
f 329/3/6 184/2/6 328/1/6
f 333/3/1 332/2/1 331/1/1
f 332/3/1 333/2/1 334/1/1
f 187/3/2 333/2/2 331/1/2
f 333/3/2 187/2/2 189/1/2
f 190/157/3 332/5/3 334/282/3
f 332/5/3 190/157/3 188/5/3
f 190/5/4 187/5/4 188/283/4
f 187/5/4 190/5/4 189/284/4
f 187/162/5 332/5/5 188/5/5
f 332/5/5 187/162/5 331/285/5
f 333/2/6 190/3/6 334/11/6
f 190/3/6 333/2/6 189/1/6

