# Created by Kenney (www.kenney.nl)

mtllib Launcher ZVT Wazzasoft shot.mtl

v 2 3 -0.8
v 2 2 -0.8
v 2 3 0.8
v 2 2 0.8
v 1 3 -0.8
v 1 3 0.8
v 1 2 0.8
v 1 2 -0.8
v 0 3 -1.6
v 0 2 -1.6
v 0 3 1.6
v 0 2 1.6
v -1 3 -1.6
v -1 3 1.6
v -1 2 1.6
v -1 2 -1.6
v 3 1 -1.6
v 3 0 -1.6
v 3 1 1.6
v 3 0 1.6
v 2 1 -1.6
v 2 1 1.6
v 2 0 1.6
v 2 0 -1.6
v 0 1 -3.2
v 0 0 -3.2
v 0 1 3.2
v 0 0 3.2
v -1 1 -3.2
v -1 1 3.2
v -1 0 3.2
v -1 0 -3.2
v -2 0 -1.6
v -2 -1 -1.6
v -2 0 1.6
v -2 -1 1.6
v -3 0 -1.6
v -3 0 1.6
v -3 -1 1.6
v -3 -1 -1.6
v 1 -1 -2.4
v 1 -2 -2.4
v 1 -1 2.4
v 1 -2 2.4
v 0 -1 -2.4
v 0 -1 2.4
v 0 -2 2.4
v 0 -2 -2.4
v -1 -1 -1.6
v -1 -2 -1.6
v -1 -1 1.6
v -1 -2 1.6
v -2 -2 1.6
v -2 -2 -1.6
v 2 -2 -0.8
v 2 -3 -0.8
v 2 -2 0.8
v 2 -3 0.8
v 1 -2 -0.8
v 1 -2 0.8
v 1 -3 0.8
v 1 -3 -0.8
v 0 -2 -1.6
v 0 -3 -1.6
v 0 -2 1.6
v 0 -3 1.6
v -1 -3 1.6
v -1 -3 -1.6
v 1 3 -1.6
v 1 2 -1.6
v 1 3 1.6
v 1 2 1.6
v 3 2 -0.8
v 3 1 -0.8
v 3 2 0.8
v 3 1 0.8
v 2 1 0.8
v 2 1 -0.8
v -1 -1 -2.4
v -1 -1 2.4
v -1 -2 2.4
v -1 -2 -2.4
v -1 3 -0.8
v -1 2 -0.8
v -1 3 0.8
v -1 2 0.8
v -2 3 -0.8
v -2 3 0.8
v -2 2 0.8
v -2 2 -0.8
v 1 2 -2.4
v 1 1 -2.4
v 1 2 2.4
v 1 1 2.4
v -1 2 -2.4
v -1 2 2.4
v -1 1 2.4
v -1 1 -2.4
v 1 1 -3.2
v 1 -1 -3.2
v 1 1 3.2
v 1 -1 3.2
v 0 -1 3.2
v 0 -1 -3.2
v -2 1 -1.6
v -2 1 1.6
v -3 1 -1.6
v -3 1 1.6
v 2 0 -2.4
v 2 -1 -2.4
v 2 0 2.4
v 2 -1 2.4
v 1 0 -2.4
v 1 0 2.4
v -1 -1 3.2
v -1 -1 -3.2
v 3 -1 -0.8
v 3 -2 -0.8
v 3 -1 0.8
v 3 -2 0.8
v 2 -1 -0.8
v 2 -1 0.8
v -2 -1 -0.8
v -2 -2 -0.8
v -2 -1 0.8
v -2 -2 0.8
v -3 -1 -0.8
v -3 -1 0.8
v -3 -2 0.8
v -3 -2 -0.8
v 1 -2 -1.6
v 1 -3 -1.6
v 1 -2 1.6
v 1 -3 1.6
v 2 2 -1.6
v 2 2 1.6
v 1 1 1.6
v 1 1 -1.6
v -1 1 -1.6
v -1 1 1.6
v -2 2 -1.6
v -2 2 1.6
v -2 1 -0.8
v -2 1 0.8
v -3 2 -0.8
v -3 2 0.8
v -3 1 0.8
v -3 1 -0.8
v 2 1 -2.4
v 2 1 2.4
v -2 1 -2.4
v -2 1 2.4
v -2 -1 2.4
v -2 -1 -2.4
v 3 -1 -1.6
v 3 -1 1.6
v 2 -1 1.6
v 2 -1 -1.6
v 2 -2 -1.6
v 2 -2 1.6
v 1 -1 -1.6
v 1 -1 1.6
v -1 -2 -0.8
v -1 -3 -0.8
v -1 -2 0.8
v -1 -3 0.8
v -2 -3 0.8
v -2 -3 -0.8

vn 1 0 0
vn 0 1 0
vn 0 -1 0
vn -1 0 0
vn 0 0 -1
vn 0 0 1

vt -19.68504 19.68504
vt 19.68504 19.68504
vt -19.68504 -19.68504
vt 0 NaN
vt 0 0
vt 0 NaN
vt 0 NaN
vt 0 NaN
vt 0 NaN
vt 0 NaN
vt 19.68504 -19.68504
vt 0 NaN
vt 0 NaN
vt 0 NaN
vt 0 NaN
vt 0 NaN
vt 0 NaN
vt 0 NaN
vt 0 NaN
vt 0 NaN
vt 0 NaN
vt 0 NaN
vt 0 NaN
vt 0 NaN
vt 0 NaN
vt 0 NaN
vt 0 NaN
vt 0 NaN
vt 0 NaN
vt 0 NaN
vt 0 NaN
vt 0 NaN
vt 0 NaN
vt 0 NaN
vt 0 NaN
vt 0 NaN
vt 0 NaN
vt 0 NaN
vt 0 NaN
vt 0 NaN
vt 0 NaN
vt 0 NaN
vt 0 NaN
vt 0 NaN
vt 0 NaN
vt 0 NaN
vt 0 NaN
vt 0 NaN
vt 0 NaN
vt 0 NaN
vt 0 NaN
vt 0 NaN
vt 0 NaN
vt 0 NaN
vt 0 NaN
vt 0 NaN
vt 0 NaN
vt 0 NaN
vt 0 NaN
vt 0 NaN
vt 0 NaN
vt 0 NaN
vt 0 NaN
vt 0 NaN
vt 0 NaN
vt 0 NaN
vt 0 NaN
vt 0 NaN
vt 0 NaN
vt 0 NaN
vt 0 NaN
vt 0 NaN
vt 0 NaN
vt 0 NaN
vt 0 NaN
vt 0 NaN
vt 0 NaN
vt 0 NaN
vt 0 NaN
vt 0 NaN
vt 0 NaN
vt 0 NaN
vt 0 NaN
vt 0 NaN
vt 0 NaN
vt 0 NaN
vt 0 NaN
vt 0 NaN
vt 0 NaN
vt 0 NaN
vt 0 NaN
vt 0 NaN
vt 0 NaN
vt 0 NaN
vt 0 NaN
vt 0 NaN
vt 0 NaN
vt 0 NaN
vt 0 NaN
vt 0 NaN
vt 0 NaN
vt 0 NaN
vt 0 NaN
vt 0 NaN
vt 0 NaN
vt 0 NaN
vt 0 NaN
vt 0 NaN
vt 0 NaN
vt 0 NaN
vt 0 NaN
vt 0 NaN
vt 0 NaN
vt 0 NaN
vt 0 NaN
vt 0 NaN
vt 0 NaN
vt 0 NaN
vt 0 NaN
vt 0 NaN
vt 0 NaN
vt 0 NaN
vt 0 NaN
vt 0 NaN
vt 0 NaN
vt 0 NaN
vt 0 NaN
vt 0 NaN
vt 0 NaN
vt 0 NaN
vt 0 NaN
vt 0 NaN
vt 0 NaN
vt 0 NaN
vt 0 NaN
vt 0 NaN
vt 0 NaN
vt 0 NaN
vt 0 NaN
vt 0 NaN
vt 0 NaN
vt 0 NaN
vt 0 NaN
vt 0 NaN
vt 0 NaN
vt 0 NaN
vt 0 NaN
vt 0 NaN
vt 0 NaN
vt 0 NaN
vt 0 NaN
vt 0 NaN
vt 0 NaN
vt 0 NaN
vt 0 NaN
vt 0 NaN

usemtl color2

f 3/3/1 2/2/1 1/1/1
f 2/3/1 3/2/1 4/1/1
f 5/3/2 3/2/2 1/1/2
f 3/3/2 5/2/2 6/1/2
f 7/5/3 2/5/3 4/4/3
f 2/5/3 7/5/3 8/6/3
f 7/5/4 5/5/4 8/7/4
f 5/5/4 7/5/4 6/8/4
f 5/5/5 2/5/5 8/9/5
f 2/5/5 5/5/5 1/10/5
f 3/2/6 7/3/6 4/11/6
f 7/3/6 3/2/6 6/1/6
f 11/3/1 10/2/1 9/1/1
f 10/3/1 11/2/1 12/1/1
f 13/3/2 11/2/2 9/1/2
f 11/3/2 13/2/2 14/1/2
f 15/5/3 10/5/3 12/12/3
f 10/5/3 15/5/3 16/13/3
f 15/5/4 13/5/4 16/14/4
f 13/5/4 15/5/4 14/15/4
f 13/5/5 10/5/5 16/16/5
f 10/5/5 13/5/5 9/17/5
f 11/2/6 15/3/6 12/11/6
f 15/3/6 11/2/6 14/1/6
f 3/3/1 2/2/1 1/1/1
f 2/3/1 3/2/1 4/1/1
f 5/3/2 3/2/2 1/1/2
f 3/3/2 5/2/2 6/1/2
f 7/5/3 2/5/3 4/4/3
f 2/5/3 7/5/3 8/6/3
f 7/5/4 5/5/4 8/7/4
f 5/5/4 7/5/4 6/8/4
f 5/5/5 2/5/5 8/9/5
f 2/5/5 5/5/5 1/10/5
f 3/2/6 7/3/6 4/11/6
f 7/3/6 3/2/6 6/1/6
f 19/3/1 18/2/1 17/1/1
f 18/3/1 19/2/1 20/1/1
f 21/3/2 19/2/2 17/1/2
f 19/3/2 21/2/2 22/1/2
f 23/5/3 18/5/3 20/18/3
f 18/5/3 23/5/3 24/19/3
f 23/5/4 21/5/4 24/20/4
f 21/5/4 23/5/4 22/21/4
f 21/5/5 18/5/5 24/22/5
f 18/5/5 21/5/5 17/23/5
f 19/2/6 23/3/6 20/11/6
f 23/3/6 19/2/6 22/1/6
f 27/3/1 26/2/1 25/1/1
f 26/3/1 27/2/1 28/1/1
f 29/3/2 27/2/2 25/1/2
f 27/3/2 29/2/2 30/1/2
f 31/5/3 26/5/3 28/24/3
f 26/5/3 31/5/3 32/25/3
f 31/5/4 29/5/4 32/26/4
f 29/5/4 31/5/4 30/27/4
f 29/5/5 26/5/5 32/28/5
f 26/5/5 29/5/5 25/29/5
f 27/2/6 31/3/6 28/11/6
f 31/3/6 27/2/6 30/1/6
f 35/3/1 34/2/1 33/1/1
f 34/3/1 35/2/1 36/1/1
f 37/3/2 35/2/2 33/1/2
f 35/3/2 37/2/2 38/1/2
f 39/5/3 34/5/3 36/30/3
f 34/5/3 39/5/3 40/31/3
f 39/5/4 37/5/4 40/32/4
f 37/5/4 39/5/4 38/33/4
f 37/5/5 34/5/5 40/34/5
f 34/5/5 37/5/5 33/35/5
f 35/2/6 39/3/6 36/11/6
f 39/3/6 35/2/6 38/1/6
f 43/3/1 42/2/1 41/1/1
f 42/3/1 43/2/1 44/1/1
f 45/3/2 43/2/2 41/1/2
f 43/3/2 45/2/2 46/1/2
f 47/5/3 42/5/3 44/36/3
f 42/5/3 47/5/3 48/37/3
f 47/5/4 45/5/4 48/38/4
f 45/5/4 47/5/4 46/39/4
f 45/5/5 42/5/5 48/40/5
f 42/5/5 45/5/5 41/41/5
f 43/2/6 47/3/6 44/11/6
f 47/3/6 43/2/6 46/1/6
f 51/3/1 50/2/1 49/1/1
f 50/3/1 51/2/1 52/1/1
f 34/3/2 51/2/2 49/1/2
f 51/3/2 34/2/2 36/1/2
f 53/5/3 50/5/3 52/42/3
f 50/5/3 53/5/3 54/43/3
f 53/5/4 34/5/4 54/44/4
f 34/5/4 53/5/4 36/45/4
f 34/5/5 50/5/5 54/46/5
f 50/5/5 34/5/5 49/47/5
f 51/2/6 53/3/6 52/11/6
f 53/3/6 51/2/6 36/1/6
f 57/3/1 56/2/1 55/1/1
f 56/3/1 57/2/1 58/1/1
f 59/3/2 57/2/2 55/1/2
f 57/3/2 59/2/2 60/1/2
f 61/5/3 56/5/3 58/48/3
f 56/5/3 61/5/3 62/49/3
f 61/5/4 59/5/4 62/50/4
f 59/5/4 61/5/4 60/51/4
f 59/5/5 56/5/5 62/52/5
f 56/5/5 59/5/5 55/53/5
f 57/2/6 61/3/6 58/11/6
f 61/3/6 57/2/6 60/1/6
f 65/3/1 64/2/1 63/1/1
f 64/3/1 65/2/1 66/1/1
f 50/3/2 65/2/2 63/1/2
f 65/3/2 50/2/2 52/1/2
f 67/5/3 64/5/3 66/54/3
f 64/5/3 67/5/3 68/55/3
f 67/5/4 50/5/4 68/56/4
f 50/5/4 67/5/4 52/57/4
f 50/5/5 64/5/5 68/58/5
f 64/5/5 50/5/5 63/59/5
f 65/2/6 67/3/6 66/11/6
f 67/3/6 65/2/6 52/1/6

usemtl color5

f 71/3/1 70/2/1 69/1/1
f 70/3/1 71/2/1 72/1/1
f 9/3/2 71/2/2 69/1/2
f 71/3/2 9/2/2 11/1/2
f 12/12/3 70/5/3 72/60/3
f 70/5/3 12/12/3 10/5/3
f 12/5/4 9/5/4 10/61/4
f 9/5/4 12/5/4 11/62/4
f 9/17/5 70/5/5 10/5/5
f 70/5/5 9/17/5 69/63/5
f 71/2/6 12/3/6 72/11/6
f 12/3/6 71/2/6 11/1/6
f 75/3/1 74/2/1 73/1/1
f 74/3/1 75/2/1 76/1/1
f 2/3/2 75/2/2 73/1/2
f 75/3/2 2/2/2 4/1/2
f 77/5/3 74/5/3 76/64/3
f 74/5/3 77/5/3 78/65/3
f 77/5/4 2/5/4 78/66/4
f 2/5/4 77/5/4 4/67/4
f 2/5/5 74/5/5 78/68/5
f 74/5/5 2/5/5 73/69/5
f 75/2/6 77/3/6 76/11/6
f 77/3/6 75/2/6 4/1/6
f 46/3/1 48/2/1 45/1/1
f 48/3/1 46/2/1 47/1/1
f 79/3/2 46/2/2 45/1/2
f 46/3/2 79/2/2 80/1/2
f 81/5/3 48/37/3 47/5/3
f 48/37/3 81/5/3 82/70/3
f 81/5/4 79/5/4 82/71/4
f 79/5/4 81/5/4 80/72/4
f 79/5/5 48/40/5 82/73/5
f 48/40/5 79/5/5 45/5/5
f 46/2/6 81/3/6 47/11/6
f 81/3/6 46/2/6 80/1/6

usemtl color3

f 85/3/1 84/2/1 83/1/1
f 84/3/1 85/2/1 86/1/1
f 87/3/2 85/2/2 83/1/2
f 85/3/2 87/2/2 88/1/2
f 89/5/3 84/5/3 86/74/3
f 84/5/3 89/5/3 90/75/3
f 89/5/4 87/5/4 90/76/4
f 87/5/4 89/5/4 88/77/4
f 87/5/5 84/5/5 90/78/5
f 84/5/5 87/5/5 83/79/5
f 85/2/6 89/3/6 86/11/6
f 89/3/6 85/2/6 88/1/6
f 93/3/1 92/2/1 91/1/1
f 92/3/1 93/2/1 94/1/1
f 95/3/2 93/2/2 91/1/2
f 93/3/2 95/2/2 96/1/2
f 97/5/3 92/5/3 94/80/3
f 92/5/3 97/5/3 98/81/3
f 97/5/4 95/5/4 98/82/4
f 95/5/4 97/5/4 96/83/4
f 95/5/5 92/5/5 98/84/5
f 92/5/5 95/5/5 91/85/5
f 93/2/6 97/3/6 94/11/6
f 97/3/6 93/2/6 96/1/6
f 101/3/1 100/2/1 99/1/1
f 100/3/1 101/2/1 102/1/1
f 25/3/2 101/2/2 99/1/2
f 101/3/2 25/2/2 27/1/2
f 103/5/3 100/5/3 102/86/3
f 100/5/3 103/5/3 104/87/3
f 103/5/4 25/5/4 104/88/4
f 25/5/4 103/5/4 27/89/4
f 25/29/5 100/5/5 104/90/5
f 100/5/5 25/29/5 99/91/5
f 101/2/6 103/3/6 102/11/6
f 103/3/6 101/2/6 27/1/6
f 106/3/1 33/2/1 105/1/1
f 33/3/1 106/2/1 35/1/1
f 107/3/2 106/2/2 105/1/2
f 106/3/2 107/2/2 108/1/2
f 38/5/3 33/5/3 35/92/3
f 33/5/3 38/5/3 37/93/3
f 38/33/4 107/5/4 37/5/4
f 107/5/4 38/33/4 108/94/4
f 107/5/5 33/35/5 37/5/5
f 33/35/5 107/5/5 105/95/5
f 106/2/6 38/3/6 35/11/6
f 38/3/6 106/2/6 108/1/6
f 111/3/1 110/2/1 109/1/1
f 110/3/1 111/2/1 112/1/1
f 113/3/2 111/2/2 109/1/2
f 111/3/2 113/2/2 114/1/2
f 43/5/3 110/5/3 112/96/3
f 110/5/3 43/5/3 41/97/3
f 43/5/4 113/5/4 41/98/4
f 113/5/4 43/5/4 114/99/4
f 113/5/5 110/5/5 41/41/5
f 110/5/5 113/5/5 109/100/5
f 111/2/6 43/3/6 112/11/6
f 43/3/6 111/2/6 114/1/6
f 28/3/1 104/2/1 26/1/1
f 104/3/1 28/2/1 103/1/1
f 32/3/2 28/2/2 26/1/2
f 28/3/2 32/2/2 31/1/2
f 115/5/3 104/87/3 103/5/3
f 104/87/3 115/5/3 116/101/3
f 115/5/4 32/26/4 116/102/4
f 32/26/4 115/5/4 31/5/4
f 32/28/5 104/90/5 116/103/5
f 104/90/5 32/28/5 26/5/5
f 28/2/6 115/3/6 103/11/6
f 115/3/6 28/2/6 31/1/6
f 119/3/1 118/2/1 117/1/1
f 118/3/1 119/2/1 120/1/1
f 121/3/2 119/2/2 117/1/2
f 119/3/2 121/2/2 122/1/2
f 57/5/3 118/5/3 120/104/3
f 118/5/3 57/5/3 55/105/3
f 57/5/4 121/5/4 55/106/4
f 121/5/4 57/5/4 122/107/4
f 121/5/5 118/5/5 55/53/5
f 118/5/5 121/5/5 117/108/5
f 119/2/6 57/3/6 120/11/6
f 57/3/6 119/2/6 122/1/6
f 125/3/1 124/2/1 123/1/1
f 124/3/1 125/2/1 126/1/1
f 127/3/2 125/2/2 123/1/2
f 125/3/2 127/2/2 128/1/2
f 129/5/3 124/5/3 126/109/3
f 124/5/3 129/5/3 130/110/3
f 129/5/4 127/5/4 130/111/4
f 127/5/4 129/5/4 128/112/4
f 127/5/5 124/5/5 130/113/5
f 124/5/5 127/5/5 123/114/5
f 125/2/6 129/3/6 126/11/6
f 129/3/6 125/2/6 128/1/6
f 133/3/1 132/2/1 131/1/1
f 132/3/1 133/2/1 134/1/1
f 63/3/2 133/2/2 131/1/2
f 133/3/2 63/2/2 65/1/2
f 66/54/3 132/5/3 134/115/3
f 132/5/3 66/54/3 64/5/3
f 66/5/4 63/5/4 64/116/4
f 63/5/4 66/5/4 65/117/4
f 63/59/5 132/5/5 64/5/5
f 132/5/5 63/59/5 131/118/5
f 133/2/6 66/3/6 134/11/6
f 66/3/6 133/2/6 65/1/6

usemtl color4

f 136/3/1 21/2/1 135/1/1
f 21/3/1 136/2/1 22/1/1
f 70/3/2 136/2/2 135/1/2
f 136/3/2 70/2/2 72/1/2
f 137/5/3 21/5/3 22/119/3
f 21/5/3 137/5/3 138/120/3
f 137/5/4 70/5/4 138/121/4
f 70/5/4 137/5/4 72/122/4
f 70/5/5 21/5/5 138/123/5
f 21/5/5 70/5/5 135/124/5
f 136/2/6 137/3/6 22/11/6
f 137/3/6 136/2/6 72/1/6
f 15/3/1 139/2/1 16/1/1
f 139/3/1 15/2/1 140/1/1
f 141/3/2 15/2/2 16/1/2
f 15/3/2 141/2/2 142/1/2
f 106/5/3 139/5/3 140/125/3
f 139/5/3 106/5/3 105/126/3
f 106/5/4 141/5/4 105/127/4
f 141/5/4 106/5/4 142/128/4
f 141/5/5 139/5/5 105/95/5
f 139/5/5 141/5/5 16/16/5
f 15/2/6 106/3/6 140/11/6
f 106/3/6 15/2/6 142/1/6
f 89/3/1 143/2/1 90/1/1
f 143/3/1 89/2/1 144/1/1
f 145/3/2 89/2/2 90/1/2
f 89/3/2 145/2/2 146/1/2
f 147/5/3 143/5/3 144/129/3
f 143/5/3 147/5/3 148/130/3
f 147/5/4 145/5/4 148/131/4
f 145/5/4 147/5/4 146/132/4
f 145/5/5 143/5/5 148/133/5
f 143/5/5 145/5/5 90/78/5
f 89/2/6 147/3/6 144/11/6
f 147/3/6 89/2/6 146/1/6
f 150/3/1 109/2/1 149/1/1
f 109/3/1 150/2/1 111/1/1
f 92/3/2 150/2/2 149/1/2
f 150/3/2 92/2/2 94/1/2
f 114/5/3 109/5/3 111/134/3
f 109/5/3 114/5/3 113/135/3
f 114/99/4 92/5/4 113/5/4
f 92/5/4 114/99/4 94/136/4
f 92/5/5 109/100/5 113/5/5
f 109/100/5 92/5/5 149/137/5
f 150/2/6 114/3/6 111/11/6
f 114/3/6 150/2/6 94/1/6
f 97/3/1 79/2/1 98/1/1
f 79/3/1 97/2/1 80/1/1
f 151/3/2 97/2/2 98/1/2
f 97/3/2 151/2/2 152/1/2
f 153/5/3 79/5/3 80/138/3
f 79/5/3 153/5/3 154/139/3
f 153/5/4 151/5/4 154/140/4
f 151/5/4 153/5/4 152/141/4
f 151/5/5 79/5/5 154/142/5
f 79/5/5 151/5/5 98/84/5
f 97/2/6 153/3/6 80/11/6
f 153/3/6 97/2/6 152/1/6
f 20/3/1 155/2/1 18/1/1
f 155/3/1 20/2/1 156/1/1
f 24/3/2 20/2/2 18/1/2
f 20/3/2 24/2/2 23/1/2
f 157/5/3 155/5/3 156/143/3
f 155/5/3 157/5/3 158/144/3
f 157/5/4 24/20/4 158/145/4
f 24/20/4 157/5/4 23/5/4
f 24/22/5 155/5/5 158/146/5
f 155/5/5 24/22/5 18/5/5
f 20/2/6 157/3/6 156/11/6
f 157/3/6 20/2/6 23/1/6
f 157/3/1 159/2/1 158/1/1
f 159/3/1 157/2/1 160/1/1
f 161/3/2 157/2/2 158/1/2
f 157/3/2 161/2/2 162/1/2
f 133/5/3 159/5/3 160/147/3
f 159/5/3 133/5/3 131/148/3
f 133/5/4 161/5/4 131/149/4
f 161/5/4 133/5/4 162/150/4
f 161/5/5 159/5/5 131/118/5
f 159/5/5 161/5/5 158/146/5
f 157/2/6 133/3/6 160/11/6
f 133/3/6 157/2/6 162/1/6
f 165/3/1 164/2/1 163/1/1
f 164/3/1 165/2/1 166/1/1
f 124/3/2 165/2/2 163/1/2
f 165/3/2 124/2/2 126/1/2
f 167/5/3 164/5/3 166/151/3
f 164/5/3 167/5/3 168/152/3
f 167/5/4 124/5/4 168/153/4
f 124/5/4 167/5/4 126/154/4
f 124/5/5 164/5/5 168/155/5
f 164/5/5 124/5/5 163/156/5
f 165/2/6 167/3/6 166/11/6
f 167/3/6 165/2/6 126/1/6

