# Created by Kenney (www.kenney.nl)

mtllib Launcher YFR Swoquix shot.mtl

v 5 2 -1.35
v 5 1 -1.35
v 5 2 1.35
v 5 1 1.35
v 4 2 -1.35
v 4 2 1.35
v 4 1 1.35
v 4 1 -1.35
v 3 2 -1.35
v 3 1 -1.35
v 3 2 1.35
v 3 1 1.35
v 2 2 -1.35
v 2 2 1.35
v 2 1 1.35
v 2 1 -1.35
v 1 2 -1.35
v 1 1 -1.35
v 1 2 1.35
v 1 1 1.35
v -3 2 -1.35
v -3 2 1.35
v -3 1 1.35
v -3 1 -1.35
v 2 0 -1.35
v 2 0 1.35
v 1 0 1.35
v 1 0 -1.35
v -3 0 -1.35
v -3 0 1.35
v -4 1 -1.35
v -4 1 1.35
v -4 0 1.35
v -4 0 -1.35
v 5 0 -1.8
v 5 -1 -1.8
v 5 0 1.8
v 5 -1 1.8
v 4 0 -1.8
v 4 0 1.8
v 4 -1 1.8
v 4 -1 -1.8
v 1 0 -1.8
v 1 -1 -1.8
v 1 0 1.8
v 1 -1 1.8
v 0 0 -1.8
v 0 0 1.8
v 0 -1 1.8
v 0 -1 -1.8
v 6 1 -1.35
v 6 -1 -1.35
v 6 1 1.35
v 6 -1 1.35
v 5 -1 1.35
v 5 -1 -1.35
v 4 1 -1.8
v 4 1 1.8
v 3 1 -1.8
v 3 1 1.8
v 3 0 1.8
v 3 0 -1.8
v 5 1 -1.8
v 5 1 1.8
v 1 1 -1.8
v 1 1 1.8
v 0 1 -1.8
v 0 1 1.8
v 3 -1 -1.8
v 3 -1 1.8
v 2 0 -1.8
v 2 0 1.8
v 2 -1 1.8
v 2 -1 -1.8
v -3 0 -1.8
v -3 0 1.8
v -3 -1 1.8
v -3 -1 -1.8
v 2 1 -1.8
v 2 1 1.8
v -3 1 -1.8
v -3 1 1.8
v -4 1 -0.9
v -4 0 -0.9
v -4 1 0.9
v -4 0 0.9
v -5 1 -0.9
v -5 1 0.9
v -5 0 0.9
v -5 0 -0.9
v 2 -1 -1.35
v 2 -1 1.35
v 1 -1 1.35
v 1 -1 -1.35
v -3 -1 -1.35
v -3 -1 1.35
v -4 -1 1.35
v -4 -1 -1.35
v 5 -2 -1.35
v 5 -2 1.35
v 4 -1 -1.35
v 4 -1 1.35
v 4 -2 1.35
v 4 -2 -1.35
v 3 -1 -1.35
v 3 -2 -1.35
v 3 -1 1.35
v 3 -2 1.35
v 2 -2 1.35
v 2 -2 -1.35
v 1 -2 -1.35
v 1 -2 1.35
v -3 -2 1.35
v -3 -2 -1.35
v -4 -1 -0.9
v -4 -1 0.9
v -5 -1 0.9
v -5 -1 -0.9

vn 1 0 0
vn 0 1 0
vn 0 -1 0
vn -1 0 0
vn 0 0 -1
vn 0 0 1

vt -19.68504 19.68504
vt 19.68504 19.68504
vt -19.68504 -19.68504
vt 0 NaN
vt 0 0
vt 0 NaN
vt 0 NaN
vt 0 NaN
vt 0 NaN
vt 0 NaN
vt 19.68504 -19.68504
vt 0 NaN
vt 0 NaN
vt 0 NaN
vt 0 NaN
vt 0 NaN
vt 0 NaN
vt 0 NaN
vt 0 NaN
vt 0 NaN
vt 0 NaN
vt 0 NaN
vt 0 NaN
vt 0 NaN
vt 0 NaN
vt 0 NaN
vt 0 NaN
vt 0 NaN
vt 0 NaN
vt 0 NaN
vt 0 NaN
vt 0 NaN
vt 0 NaN
vt 0 NaN
vt 0 NaN
vt 0 NaN
vt 0 NaN
vt 0 NaN
vt 0 NaN
vt 0 NaN
vt 0 NaN
vt 0 NaN
vt 0 NaN
vt 0 NaN
vt 0 NaN
vt 0 NaN
vt 0 NaN
vt 0 NaN
vt 0 NaN
vt 0 NaN
vt 0 NaN
vt 0 NaN
vt 0 NaN
vt 0 NaN
vt 0 NaN
vt 0 NaN
vt 0 NaN
vt 0 NaN
vt 0 NaN
vt 0 NaN
vt 0 NaN
vt 0 NaN
vt 0 NaN
vt 0 NaN
vt 0 NaN
vt 0 NaN
vt 0 NaN
vt 0 NaN
vt 0 NaN
vt 0 NaN
vt 0 NaN
vt 0 NaN
vt 0 NaN
vt 0 NaN
vt 0 NaN
vt 0 NaN
vt 0 NaN
vt 0 NaN
vt 0 NaN
vt 0 NaN
vt 0 NaN
vt 0 NaN
vt 0 NaN
vt 0 NaN
vt 0 NaN
vt 0 NaN
vt 0 NaN
vt 0 NaN
vt 0 NaN
vt 0 NaN
vt 0 NaN
vt 0 NaN
vt 0 NaN
vt 0 NaN
vt 0 NaN
vt 0 NaN
vt 0 NaN
vt 0 NaN
vt 0 NaN
vt 0 NaN
vt 0 NaN
vt 0 NaN
vt 0 NaN
vt 0 NaN
vt 0 NaN
vt 0 NaN
vt 0 NaN
vt 0 NaN
vt 0 NaN
vt 0 NaN
vt 0 NaN
vt 0 NaN
vt 0 NaN
vt 0 NaN
vt 0 NaN
vt 0 NaN

usemtl color3

f 3/3/1 2/2/1 1/1/1
f 2/3/1 3/2/1 4/1/1
f 5/3/2 3/2/2 1/1/2
f 3/3/2 5/2/2 6/1/2
f 7/5/3 2/5/3 4/4/3
f 2/5/3 7/5/3 8/6/3
f 7/5/4 5/5/4 8/7/4
f 5/5/4 7/5/4 6/8/4
f 5/5/5 2/5/5 8/9/5
f 2/5/5 5/5/5 1/10/5
f 3/2/6 7/3/6 4/11/6
f 7/3/6 3/2/6 6/1/6
f 11/3/1 10/2/1 9/1/1
f 10/3/1 11/2/1 12/1/1
f 13/3/2 11/2/2 9/1/2
f 11/3/2 13/2/2 14/1/2
f 15/5/3 10/5/3 12/12/3
f 10/5/3 15/5/3 16/13/3
f 15/5/4 13/5/4 16/14/4
f 13/5/4 15/5/4 14/15/4
f 13/5/5 10/5/5 16/16/5
f 10/5/5 13/5/5 9/17/5
f 11/2/6 15/3/6 12/11/6
f 15/3/6 11/2/6 14/1/6
f 19/3/1 18/2/1 17/1/1
f 18/3/1 19/2/1 20/1/1
f 21/3/2 19/2/2 17/1/2
f 19/3/2 21/2/2 22/1/2
f 23/5/3 18/5/3 20/18/3
f 18/5/3 23/5/3 24/19/3
f 23/5/4 21/5/4 24/20/4
f 21/5/4 23/5/4 22/21/4
f 21/5/5 18/5/5 24/22/5
f 18/5/5 21/5/5 17/23/5
f 19/2/6 23/3/6 20/11/6
f 23/3/6 19/2/6 22/1/6
f 3/3/1 2/2/1 1/1/1
f 2/3/1 3/2/1 4/1/1
f 5/3/2 3/2/2 1/1/2
f 3/3/2 5/2/2 6/1/2
f 7/5/3 2/5/3 4/4/3
f 2/5/3 7/5/3 8/6/3
f 7/5/4 5/5/4 8/7/4
f 5/5/4 7/5/4 6/8/4
f 5/5/5 2/5/5 8/9/5
f 2/5/5 5/5/5 1/10/5
f 3/2/6 7/3/6 4/11/6
f 7/3/6 3/2/6 6/1/6
f 15/3/1 25/2/1 16/1/1
f 25/3/1 15/2/1 26/1/1
f 18/3/2 15/2/2 16/1/2
f 15/3/2 18/2/2 20/1/2
f 27/5/3 25/5/3 26/24/3
f 25/5/3 27/5/3 28/25/3
f 27/5/4 18/5/4 28/26/4
f 18/5/4 27/5/4 20/27/4
f 18/5/5 25/5/5 28/28/5
f 25/5/5 18/5/5 16/16/5
f 15/2/6 27/3/6 26/11/6
f 27/3/6 15/2/6 20/1/6
f 23/3/1 29/2/1 24/1/1
f 29/3/1 23/2/1 30/1/1
f 31/3/2 23/2/2 24/1/2
f 23/3/2 31/2/2 32/1/2
f 33/5/3 29/5/3 30/29/3
f 29/5/3 33/5/3 34/30/3
f 33/5/4 31/5/4 34/31/4
f 31/5/4 33/5/4 32/32/4
f 31/5/5 29/5/5 34/33/5
f 29/5/5 31/5/5 24/22/5
f 23/2/6 33/3/6 30/11/6
f 33/3/6 23/2/6 32/1/6
f 37/3/1 36/2/1 35/1/1
f 36/3/1 37/2/1 38/1/1
f 39/3/2 37/2/2 35/1/2
f 37/3/2 39/2/2 40/1/2
f 41/5/3 36/5/3 38/34/3
f 36/5/3 41/5/3 42/35/3
f 41/5/4 39/5/4 42/36/4
f 39/5/4 41/5/4 40/37/4
f 39/5/5 36/5/5 42/38/5
f 36/5/5 39/5/5 35/39/5
f 37/2/6 41/3/6 38/11/6
f 41/3/6 37/2/6 40/1/6
f 45/3/1 44/2/1 43/1/1
f 44/3/1 45/2/1 46/1/1
f 47/3/2 45/2/2 43/1/2
f 45/3/2 47/2/2 48/1/2
f 49/5/3 44/5/3 46/40/3
f 44/5/3 49/5/3 50/41/3
f 49/5/4 47/5/4 50/42/4
f 47/5/4 49/5/4 48/43/4
f 47/5/5 44/5/5 50/44/5
f 44/5/5 47/5/5 43/45/5
f 45/2/6 49/3/6 46/11/6
f 49/3/6 45/2/6 48/1/6

usemtl color10

f 6/3/1 8/2/1 5/1/1
f 8/3/1 6/2/1 7/1/1
f 9/3/2 6/2/2 5/1/2
f 6/3/2 9/2/2 11/1/2
f 12/12/3 8/6/3 7/5/3
f 8/6/3 12/12/3 10/5/3
f 12/5/4 9/5/4 10/46/4
f 9/5/4 12/5/4 11/47/4
f 9/17/5 8/9/5 10/5/5
f 8/9/5 9/17/5 5/5/5
f 6/2/6 12/3/6 7/11/6
f 12/3/6 6/2/6 11/1/6

usemtl color7

f 53/3/1 52/2/1 51/1/1
f 52/3/1 53/2/1 54/1/1
f 2/3/2 53/2/2 51/1/2
f 53/3/2 2/2/2 4/1/2
f 55/5/3 52/5/3 54/48/3
f 52/5/3 55/5/3 56/49/3
f 55/5/4 2/5/4 56/50/4
f 2/5/4 55/5/4 4/51/4
f 2/5/5 52/5/5 56/52/5
f 52/5/5 2/5/5 51/53/5
f 53/2/6 55/3/6 54/11/6
f 55/3/6 53/2/6 4/1/6
f 58/3/1 39/2/1 57/1/1
f 39/3/1 58/2/1 40/1/1
f 59/3/2 58/2/2 57/1/2
f 58/3/2 59/2/2 60/1/2
f 61/5/3 39/5/3 40/54/3
f 39/5/3 61/5/3 62/55/3
f 61/5/4 59/5/4 62/56/4
f 59/5/4 61/5/4 60/57/4
f 59/5/5 39/5/5 62/58/5
f 39/5/5 59/5/5 57/59/5
f 58/2/6 61/3/6 40/11/6
f 61/3/6 58/2/6 60/1/6

usemtl color5

f 64/3/1 35/2/1 63/1/1
f 35/3/1 64/2/1 37/1/1
f 57/3/2 64/2/2 63/1/2
f 64/3/2 57/2/2 58/1/2
f 40/54/3 35/5/3 37/60/3
f 35/5/3 40/54/3 39/5/3
f 40/37/4 57/5/4 39/5/4
f 57/5/4 40/37/4 58/61/4
f 57/59/5 35/39/5 39/5/5
f 35/39/5 57/59/5 63/62/5
f 64/2/6 40/3/6 37/11/6
f 40/3/6 64/2/6 58/1/6
f 66/3/1 43/2/1 65/1/1
f 43/3/1 66/2/1 45/1/1
f 67/3/2 66/2/2 65/1/2
f 66/3/2 67/2/2 68/1/2
f 48/5/3 43/5/3 45/63/3
f 43/5/3 48/5/3 47/64/3
f 48/43/4 67/5/4 47/5/4
f 67/5/4 48/43/4 68/65/4
f 67/5/5 43/45/5 47/5/5
f 43/45/5 67/5/5 65/66/5
f 66/2/6 48/3/6 45/11/6
f 48/3/6 66/2/6 68/1/6
f 61/3/1 69/2/1 62/1/1
f 69/3/1 61/2/1 70/1/1
f 71/3/2 61/2/2 62/1/2
f 61/3/2 71/2/2 72/1/2
f 73/5/3 69/5/3 70/67/3
f 69/5/3 73/5/3 74/68/3
f 73/5/4 71/5/4 74/69/4
f 71/5/4 73/5/4 72/70/4
f 71/5/5 69/5/5 74/71/5
f 69/5/5 71/5/5 62/58/5
f 61/2/6 73/3/6 70/11/6
f 73/3/6 61/2/6 72/1/6
f 48/3/1 50/2/1 47/1/1
f 50/3/1 48/2/1 49/1/1
f 75/3/2 48/2/2 47/1/2
f 48/3/2 75/2/2 76/1/2
f 77/5/3 50/41/3 49/5/3
f 50/41/3 77/5/3 78/72/3
f 77/5/4 75/5/4 78/73/4
f 75/5/4 77/5/4 76/74/4
f 75/5/5 50/44/5 78/75/5
f 50/44/5 75/5/5 47/5/5
f 48/2/6 77/3/6 49/11/6
f 77/3/6 48/2/6 76/1/6

usemtl color8

f 60/3/1 62/2/1 59/1/1
f 62/3/1 60/2/1 61/1/1
f 79/3/2 60/2/2 59/1/2
f 60/3/2 79/2/2 80/1/2
f 72/5/3 62/55/3 61/5/3
f 62/55/3 72/5/3 71/76/3
f 72/70/4 79/5/4 71/5/4
f 79/5/4 72/70/4 80/77/4
f 79/5/5 62/58/5 71/5/5
f 62/58/5 79/5/5 59/5/5
f 60/2/6 72/3/6 61/11/6
f 72/3/6 60/2/6 80/1/6
f 68/3/1 47/2/1 67/1/1
f 47/3/1 68/2/1 48/1/1
f 81/3/2 68/2/2 67/1/2
f 68/3/2 81/2/2 82/1/2
f 76/5/3 47/64/3 48/5/3
f 47/64/3 76/5/3 75/78/3
f 76/74/4 81/5/4 75/5/4
f 81/5/4 76/74/4 82/79/4
f 81/5/5 47/5/5 75/5/5
f 47/5/5 81/5/5 67/5/5
f 68/2/6 76/3/6 48/11/6
f 76/3/6 68/2/6 82/1/6

usemtl color9

f 85/3/1 84/2/1 83/1/1
f 84/3/1 85/2/1 86/1/1
f 87/3/2 85/2/2 83/1/2
f 85/3/2 87/2/2 88/1/2
f 89/5/3 84/5/3 86/80/3
f 84/5/3 89/5/3 90/81/3
f 89/5/4 87/5/4 90/82/4
f 87/5/4 89/5/4 88/83/4
f 87/5/5 84/5/5 90/84/5
f 84/5/5 87/5/5 83/85/5
f 85/2/6 89/3/6 86/11/6
f 89/3/6 85/2/6 88/1/6

usemtl color4

f 40/3/1 42/2/1 39/1/1
f 42/3/1 40/2/1 41/1/1
f 62/3/2 40/2/2 39/1/2
f 40/3/2 62/2/2 61/1/2
f 70/67/3 42/35/3 41/5/3
f 42/35/3 70/67/3 69/5/3
f 70/5/4 62/56/4 69/86/4
f 62/56/4 70/5/4 61/5/4
f 62/58/5 42/38/5 69/5/5
f 42/38/5 62/58/5 39/5/5
f 40/2/6 70/3/6 41/11/6
f 70/3/6 40/2/6 61/1/6

usemtl color1

f 26/3/1 91/2/1 25/1/1
f 91/3/1 26/2/1 92/1/1
f 28/3/2 26/2/2 25/1/2
f 26/3/2 28/2/2 27/1/2
f 93/5/3 91/5/3 92/87/3
f 91/5/3 93/5/3 94/88/3
f 93/5/4 28/26/4 94/89/4
f 28/26/4 93/5/4 27/5/4
f 28/28/5 91/5/5 94/90/5
f 91/5/5 28/28/5 25/5/5
f 26/2/6 93/3/6 92/11/6
f 93/3/6 26/2/6 27/1/6
f 30/3/1 95/2/1 29/1/1
f 95/3/1 30/2/1 96/1/1
f 34/3/2 30/2/2 29/1/2
f 30/3/2 34/2/2 33/1/2
f 97/5/3 95/5/3 96/91/3
f 95/5/3 97/5/3 98/92/3
f 97/5/4 34/31/4 98/93/4
f 34/31/4 97/5/4 33/5/4
f 34/33/5 95/5/5 98/94/5
f 95/5/5 34/33/5 29/5/5
f 30/2/6 97/3/6 96/11/6
f 97/3/6 30/2/6 33/1/6
f 55/3/1 99/2/1 56/1/1
f 99/3/1 55/2/1 100/1/1
f 101/3/2 55/2/2 56/1/2
f 55/3/2 101/2/2 102/1/2
f 103/5/3 99/5/3 100/95/3
f 99/5/3 103/5/3 104/96/3
f 103/5/4 101/5/4 104/97/4
f 101/5/4 103/5/4 102/98/4
f 101/5/5 99/5/5 104/99/5
f 99/5/5 101/5/5 56/52/5
f 55/2/6 103/3/6 100/11/6
f 103/3/6 55/2/6 102/1/6
f 107/3/1 106/2/1 105/1/1
f 106/3/1 107/2/1 108/1/1
f 91/3/2 107/2/2 105/1/2
f 107/3/2 91/2/2 92/1/2
f 109/5/3 106/5/3 108/100/3
f 106/5/3 109/5/3 110/101/3
f 109/5/4 91/5/4 110/102/4
f 91/5/4 109/5/4 92/103/4
f 91/5/5 106/5/5 110/104/5
f 106/5/5 91/5/5 105/105/5
f 107/2/6 109/3/6 108/11/6
f 109/3/6 107/2/6 92/1/6
f 93/3/1 111/2/1 94/1/1
f 111/3/1 93/2/1 112/1/1
f 95/3/2 93/2/2 94/1/2
f 93/3/2 95/2/2 96/1/2
f 113/5/3 111/5/3 112/106/3
f 111/5/3 113/5/3 114/107/3
f 113/5/4 95/5/4 114/108/4
f 95/5/4 113/5/4 96/109/4
f 95/5/5 111/5/5 114/110/5
f 111/5/5 95/5/5 94/90/5
f 93/2/6 113/3/6 112/11/6
f 113/3/6 93/2/6 96/1/6

usemtl color6

f 86/3/1 115/2/1 84/1/1
f 115/3/1 86/2/1 116/1/1
f 90/3/2 86/2/2 84/1/2
f 86/3/2 90/2/2 89/1/2
f 117/5/3 115/5/3 116/111/3
f 115/5/3 117/5/3 118/112/3
f 117/5/4 90/82/4 118/113/4
f 90/82/4 117/5/4 89/5/4
f 90/84/5 115/5/5 118/114/5
f 115/5/5 90/84/5 84/5/5
f 86/2/6 117/3/6 116/11/6
f 117/3/6 86/2/6 89/1/6

usemtl color2

f 102/3/1 104/2/1 101/1/1
f 104/3/1 102/2/1 103/1/1
f 105/3/2 102/2/2 101/1/2
f 102/3/2 105/2/2 107/1/2
f 108/100/3 104/96/3 103/5/3
f 104/96/3 108/100/3 106/5/3
f 108/5/4 105/5/4 106/115/4
f 105/5/4 108/5/4 107/116/4
f 105/105/5 104/99/5 106/5/5
f 104/99/5 105/105/5 101/5/5
f 102/2/6 108/3/6 103/11/6
f 108/3/6 102/2/6 107/1/6

