# Created by Kenney (www.kenney.nl)

mtllib Launcher XU Sorson shot.mtl

v 6 2 -0.5
v 6 1 -0.5
v 6 2 0.5
v 6 1 0.5
v 5 2 -0.5
v 5 2 0.5
v 5 1 0.5
v 5 1 -0.5
v 6 0 -0.5
v 6 -1 -0.5
v 6 0 0.5
v 6 -1 0.5
v 5 0 -0.5
v 5 0 0.5
v 5 -1 0.5
v 5 -1 -0.5
v 4 2 -0.5
v 4 2 0.5
v 4 1 0.5
v 4 1 -0.5
v -2 2 -0.5
v -2 1 -0.5
v -2 2 0.5
v -2 1 0.5
v -3 2 -0.5
v -3 2 0.5
v -3 1 0.5
v -3 1 -0.5
v 4 0 -0.5
v 4 0 0.5
v 4 -1 0.5
v 4 -1 -0.5
v -2 0 -0.5
v -2 -1 -0.5
v -2 0 0.5
v -2 -1 0.5
v -3 0 -0.5
v -3 0 0.5
v -3 -1 0.5
v -3 -1 -0.5
v 7 1 -0.5
v 7 0 -0.5
v 7 1 0.5
v 7 0 0.5
v 6 1 -1
v 6 0 -1
v 6 1 1
v 6 0 1
v 5 1 -1
v 5 1 1
v 5 0 1
v 5 0 -1
v 4 1 -1
v 4 0 -1
v 4 1 1
v 4 0 1
v 3 1 -1
v 3 1 1
v 3 0 1
v 3 0 -1
v -2 1 -1
v -2 0 -1
v -2 1 1
v -2 0 1
v -4 1 -1
v -4 1 1
v -4 0 1
v -4 0 -1
v -4 1 -0.5
v -4 0 -0.5
v -4 1 0.5
v -4 0 0.5
v -6 1 -0.5
v -6 1 0.5
v -6 0 0.5
v -6 0 -0.5
v -7 1 -0.5
v -7 1 0.5
v -7 0 0.5
v -7 0 -0.5

vn 1 0 0
vn 0 1 0
vn 0 -1 0
vn -1 0 0
vn 0 0 -1
vn 0 0 1

vt -19.68504 19.68504
vt 19.68504 19.68504
vt -19.68504 -19.68504
vt 0 NaN
vt 0 0
vt 0 NaN
vt 0 NaN
vt 0 NaN
vt 0 NaN
vt 0 NaN
vt 19.68504 -19.68504
vt 0 NaN
vt 0 NaN
vt 0 NaN
vt 0 NaN
vt 0 NaN
vt 0 NaN
vt 0 NaN
vt 0 NaN
vt 0 NaN
vt 0 NaN
vt 0 NaN
vt 0 NaN
vt 0 NaN
vt 0 NaN
vt 0 NaN
vt 0 NaN
vt 0 NaN
vt 0 NaN
vt 0 NaN
vt 0 NaN
vt 0 NaN
vt 0 NaN
vt 0 NaN
vt 0 NaN
vt 0 NaN
vt 0 NaN
vt 0 NaN
vt 0 NaN
vt 0 NaN
vt 0 NaN
vt 0 NaN
vt 0 NaN
vt 0 NaN
vt 0 NaN
vt 0 NaN
vt 0 NaN
vt 0 NaN
vt 0 NaN
vt 0 NaN
vt 0 NaN
vt 0 NaN
vt 0 NaN
vt 0 NaN
vt 0 NaN
vt 0 NaN
vt 0 NaN
vt 0 NaN
vt 0 NaN
vt 0 NaN
vt 0 NaN
vt 0 NaN
vt 0 NaN
vt 0 NaN
vt 0 NaN
vt 0 NaN
vt 0 NaN
vt 0 NaN
vt 0 NaN
vt 0 NaN
vt 0 NaN
vt 0 NaN
vt 0 NaN
vt 0 NaN

usemtl color2

f 3/3/1 2/2/1 1/1/1
f 2/3/1 3/2/1 4/1/1
f 5/3/2 3/2/2 1/1/2
f 3/3/2 5/2/2 6/1/2
f 7/5/3 2/5/3 4/4/3
f 2/5/3 7/5/3 8/6/3
f 7/5/4 5/5/4 8/7/4
f 5/5/4 7/5/4 6/8/4
f 5/5/5 2/5/5 8/9/5
f 2/5/5 5/5/5 1/10/5
f 3/2/6 7/3/6 4/11/6
f 7/3/6 3/2/6 6/1/6
f 3/3/1 2/2/1 1/1/1
f 2/3/1 3/2/1 4/1/1
f 5/3/2 3/2/2 1/1/2
f 3/3/2 5/2/2 6/1/2
f 7/5/3 2/5/3 4/4/3
f 2/5/3 7/5/3 8/6/3
f 7/5/4 5/5/4 8/7/4
f 5/5/4 7/5/4 6/8/4
f 5/5/5 2/5/5 8/9/5
f 2/5/5 5/5/5 1/10/5
f 3/2/6 7/3/6 4/11/6
f 7/3/6 3/2/6 6/1/6
f 11/3/1 10/2/1 9/1/1
f 10/3/1 11/2/1 12/1/1
f 13/3/2 11/2/2 9/1/2
f 11/3/2 13/2/2 14/1/2
f 15/5/3 10/5/3 12/12/3
f 10/5/3 15/5/3 16/13/3
f 15/5/4 13/5/4 16/14/4
f 13/5/4 15/5/4 14/15/4
f 13/5/5 10/5/5 16/16/5
f 10/5/5 13/5/5 9/17/5
f 11/2/6 15/3/6 12/11/6
f 15/3/6 11/2/6 14/1/6

usemtl color3

f 6/3/1 8/2/1 5/1/1
f 8/3/1 6/2/1 7/1/1
f 17/3/2 6/2/2 5/1/2
f 6/3/2 17/2/2 18/1/2
f 19/5/3 8/6/3 7/5/3
f 8/6/3 19/5/3 20/18/3
f 19/5/4 17/5/4 20/19/4
f 17/5/4 19/5/4 18/20/4
f 17/5/5 8/9/5 20/21/5
f 8/9/5 17/5/5 5/5/5
f 6/2/6 19/3/6 7/11/6
f 19/3/6 6/2/6 18/1/6
f 23/3/1 22/2/1 21/1/1
f 22/3/1 23/2/1 24/1/1
f 25/3/2 23/2/2 21/1/2
f 23/3/2 25/2/2 26/1/2
f 27/5/3 22/5/3 24/22/3
f 22/5/3 27/5/3 28/23/3
f 27/5/4 25/5/4 28/24/4
f 25/5/4 27/5/4 26/25/4
f 25/5/5 22/5/5 28/26/5
f 22/5/5 25/5/5 21/27/5
f 23/2/6 27/3/6 24/11/6
f 27/3/6 23/2/6 26/1/6
f 14/3/1 16/2/1 13/1/1
f 16/3/1 14/2/1 15/1/1
f 29/3/2 14/2/2 13/1/2
f 14/3/2 29/2/2 30/1/2
f 31/5/3 16/13/3 15/5/3
f 16/13/3 31/5/3 32/28/3
f 31/5/4 29/5/4 32/29/4
f 29/5/4 31/5/4 30/30/4
f 29/5/5 16/16/5 32/31/5
f 16/16/5 29/5/5 13/5/5
f 14/2/6 31/3/6 15/11/6
f 31/3/6 14/2/6 30/1/6
f 35/3/1 34/2/1 33/1/1
f 34/3/1 35/2/1 36/1/1
f 37/3/2 35/2/2 33/1/2
f 35/3/2 37/2/2 38/1/2
f 39/5/3 34/5/3 36/32/3
f 34/5/3 39/5/3 40/33/3
f 39/5/4 37/5/4 40/34/4
f 37/5/4 39/5/4 38/35/4
f 37/5/5 34/5/5 40/36/5
f 34/5/5 37/5/5 33/37/5
f 35/2/6 39/3/6 36/11/6
f 39/3/6 35/2/6 38/1/6

usemtl color4

f 43/3/1 42/2/1 41/1/1
f 42/3/1 43/2/1 44/1/1
f 2/3/2 43/2/2 41/1/2
f 43/3/2 2/2/2 4/1/2
f 11/5/3 42/5/3 44/38/3
f 42/5/3 11/5/3 9/39/3
f 11/5/4 2/5/4 9/40/4
f 2/5/4 11/5/4 4/41/4
f 2/5/5 42/5/5 9/17/5
f 42/5/5 2/5/5 41/42/5
f 43/2/6 11/3/6 44/11/6
f 11/3/6 43/2/6 4/1/6

usemtl color5

f 47/3/1 46/2/1 45/1/1
f 46/3/1 47/2/1 48/1/1
f 49/3/2 47/2/2 45/1/2
f 47/3/2 49/2/2 50/1/2
f 51/5/3 46/5/3 48/43/3
f 46/5/3 51/5/3 52/44/3
f 51/5/4 49/5/4 52/45/4
f 49/5/4 51/5/4 50/46/4
f 49/5/5 46/5/5 52/47/5
f 46/5/5 49/5/5 45/48/5
f 47/2/6 51/3/6 48/11/6
f 51/3/6 47/2/6 50/1/6
f 55/3/1 54/2/1 53/1/1
f 54/3/1 55/2/1 56/1/1
f 57/3/2 55/2/2 53/1/2
f 55/3/2 57/2/2 58/1/2
f 59/5/3 54/5/3 56/49/3
f 54/5/3 59/5/3 60/50/3
f 59/5/4 57/5/4 60/51/4
f 57/5/4 59/5/4 58/52/4
f 57/5/5 54/5/5 60/53/5
f 54/5/5 57/5/5 53/54/5
f 55/2/6 59/3/6 56/11/6
f 59/3/6 55/2/6 58/1/6

usemtl color6

f 50/3/1 52/2/1 49/1/1
f 52/3/1 50/2/1 51/1/1
f 53/3/2 50/2/2 49/1/2
f 50/3/2 53/2/2 55/1/2
f 56/49/3 52/44/3 51/5/3
f 52/44/3 56/49/3 54/5/3
f 56/5/4 53/5/4 54/55/4
f 53/5/4 56/5/4 55/56/4
f 53/54/5 52/47/5 54/5/5
f 52/47/5 53/54/5 49/5/5
f 50/2/6 56/3/6 51/11/6
f 56/3/6 50/2/6 55/1/6
f 63/3/1 62/2/1 61/1/1
f 62/3/1 63/2/1 64/1/1
f 65/3/2 63/2/2 61/1/2
f 63/3/2 65/2/2 66/1/2
f 67/5/3 62/5/3 64/57/3
f 62/5/3 67/5/3 68/58/3
f 67/5/4 65/5/4 68/59/4
f 65/5/4 67/5/4 66/60/4
f 65/5/5 62/5/5 68/61/5
f 62/5/5 65/5/5 61/62/5
f 63/2/6 67/3/6 64/11/6
f 67/3/6 63/2/6 66/1/6

usemtl color7

f 58/3/1 60/2/1 57/1/1
f 60/3/1 58/2/1 59/1/1
f 61/3/2 58/2/2 57/1/2
f 58/3/2 61/2/2 63/1/2
f 64/57/3 60/50/3 59/5/3
f 60/50/3 64/57/3 62/5/3
f 64/5/4 61/5/4 62/63/4
f 61/5/4 64/5/4 63/64/4
f 61/62/5 60/53/5 62/5/5
f 60/53/5 61/62/5 57/5/5
f 58/2/6 64/3/6 59/11/6
f 64/3/6 58/2/6 63/1/6
f 71/3/1 70/2/1 69/1/1
f 70/3/1 71/2/1 72/1/1
f 73/3/2 71/2/2 69/1/2
f 71/3/2 73/2/2 74/1/2
f 75/5/3 70/5/3 72/65/3
f 70/5/3 75/5/3 76/66/3
f 75/5/4 73/5/4 76/67/4
f 73/5/4 75/5/4 74/68/4
f 73/5/5 70/5/5 76/69/5
f 70/5/5 73/5/5 69/70/5
f 71/2/6 75/3/6 72/11/6
f 75/3/6 71/2/6 74/1/6

usemtl color8

f 74/3/1 76/2/1 73/1/1
f 76/3/1 74/2/1 75/1/1
f 77/3/2 74/2/2 73/1/2
f 74/3/2 77/2/2 78/1/2
f 79/5/3 76/66/3 75/5/3
f 76/66/3 79/5/3 80/71/3
f 79/5/4 77/5/4 80/72/4
f 77/5/4 79/5/4 78/73/4
f 77/5/5 76/69/5 80/74/5
f 76/69/5 77/5/5 73/5/5
f 74/2/6 79/3/6 75/11/6
f 79/3/6 74/2/6 78/1/6

