# Created by Kenney (www.kenney.nl)

mtllib Pistol 0ZI Sexatoo.mtl

v 8 6 -0.4
v 8 5 -0.4
v 8 6 0.4
v 8 5 0.4
v 7 6 -0.4
v 7 6 0.4
v 7 5 0.4
v 7 5 -0.4
v 6 6 -0.8
v 6 5 -0.8
v 6 6 0.8
v 6 5 0.8
v 5 6 -0.8
v 5 6 0.8
v 5 5 0.8
v 5 5 -0.8
v 9 5 -0.4
v 9 4 -0.4
v 9 5 0.4
v 9 4 0.4
v 8 4 0.4
v 8 4 -0.4
v 1 5 -1.2
v 1 4 -1.2
v 1 5 1.2
v 1 4 1.2
v 0 5 -1.2
v 0 5 1.2
v 0 4 1.2
v 0 4 -1.2
v -1 5 -1.2
v -1 4 -1.2
v -1 5 1.2
v -1 4 1.2
v -3 5 -1.2
v -3 5 1.2
v -3 4 1.2
v -3 4 -1.2
v -4 5 -1.2
v -4 4 -1.2
v -4 5 1.2
v -4 4 1.2
v -5 5 -1.2
v -5 5 1.2
v -5 4 1.2
v -5 4 -1.2
v 5 0 -0.4
v 5 -2 -0.4
v 5 0 0.4
v 5 -2 0.4
v 4 0 -0.4
v 4 0 0.4
v 4 -2 0.4
v 4 -2 -0.4
v 1 0 -0.4
v 1 -1 -0.4
v 1 0 0.4
v 1 -1 0.4
v 0 0 -0.4
v 0 0 0.4
v 0 -1 0.4
v 0 -1 -0.4
v 6 -2 -0.4
v 6 -4 -0.4
v 6 -2 0.4
v 6 -4 0.4
v 5 -4 0.4
v 5 -4 -0.4
v 8 -4 -0.4
v 8 -5 -0.4
v 8 -4 0.4
v 8 -5 0.4
v 7 -4 -0.4
v 7 -4 0.4
v 7 -5 0.4
v 7 -5 -0.4
v 5 -4 -0.8
v 5 -5 -0.8
v 5 -4 0.8
v 5 -5 0.8
v 4 -4 -0.8
v 4 -4 0.8
v 4 -5 0.8
v 4 -5 -0.8
v 4 6 -0.8
v 4 6 0.8
v 4 5 0.8
v 4 5 -0.8
v 8 5 -0.8
v 8 4 -0.8
v 8 5 0.8
v 8 4 0.8
v 7 5 -0.8
v 7 5 0.8
v 7 4 0.8
v 7 4 -0.8
v 6 5 -1.2
v 6 4 -1.2
v 6 5 1.2
v 6 4 1.2
v 5 5 -1.2
v 5 5 1.2
v 5 4 1.2
v 5 4 -1.2
v 9 4 -0.8
v 9 3 -0.8
v 9 4 0.8
v 9 3 0.8
v 8 3 0.8
v 8 3 -0.8
v 5 3 -1.6
v 5 2 -1.6
v 5 3 1.6
v 5 2 1.6
v 4 3 -1.6
v 4 3 1.6
v 4 2 1.6
v 4 2 -1.6
v -1 3 -1.6
v -1 2 -1.6
v -1 3 1.6
v -1 2 1.6
v -5 3 -1.6
v -5 3 1.6
v -5 2 1.6
v -5 2 -1.6
v -6 3 -1.6
v -6 2 -1.6
v -6 3 1.6
v -6 2 1.6
v -8 3 -1.6
v -8 3 1.6
v -8 2 1.6
v -8 2 -1.6
v -8 1 -1.6
v -8 1 1.6
v -9 2 -1.6
v -9 2 1.6
v -9 1 1.6
v -9 1 -1.6
v 2 0 -0.4
v 2 -1 -0.4
v 2 0 0.4
v 2 -1 0.4
v -6 6 -0.4
v -6 5 -0.4
v -6 6 0.4
v -6 5 0.4
v -8 6 -0.4
v -8 6 0.4
v -8 5 0.4
v -8 5 -0.4
v 8 4 -1.2
v 8 3 -1.2
v 8 4 1.2
v 8 3 1.2
v 7 4 -1.2
v 7 4 1.2
v 7 3 1.2
v 7 3 -1.2
v 9 3 -1.6
v 9 1 -1.6
v 9 3 1.6
v 9 1 1.6
v 8 3 -1.6
v 8 3 1.6
v 8 1 1.6
v 8 1 -1.6
v 8 2 -1.6
v 8 2 1.6
v 7 2 -1.6
v 7 2 1.6
v 7 1 1.6
v 7 1 -1.6
v 6 2 -1.6
v 6 1 -1.6
v 6 2 1.6
v 6 1 1.6
v 4 1 1.6
v 4 1 -1.6
v 0 2 -1.6
v 0 1 -1.6
v 0 2 1.6
v 0 1 1.6
v -5 1 1.6
v -5 1 -1.6
v -6 1 -1.6
v -6 1 1.6
v 2 1 -0.4
v 2 1 0.4
v 1 1 -0.4
v 1 1 0.4
v 7 -4 -0.8
v 7 -5 -0.8
v 7 -4 0.8
v 7 -5 0.8
v 7 5 -1.2
v 7 5 1.2
v 4 5 -1.2
v 4 5 1.2
v 4 4 1.2
v 4 4 -1.2
v 6 3 -1.2
v 6 3 1.2
v 5 3 1.2
v 5 3 -1.2
v 4 3 -1.2
v 4 3 1.2
v -8 4 -1.2
v -8 4 1.2
v -8 3 1.2
v -8 3 -1.2
v 7 3 -1.6
v 7 3 1.6
v 6 3 -1.6
v 6 3 1.6
v 10 2 -0.8
v 10 1 -0.8
v 10 2 0.8
v 10 1 0.8
v 9 2 -0.8
v 9 2 0.8
v 9 1 0.8
v 9 1 -0.8
v 4 -1 -0.4
v 4 -1 0.4
v 3 5 -1.2
v 3 5 1.2
v 3 4 1.2
v 3 4 -1.2
v -8 5 -1.2
v -8 5 1.2
v -9 5 -1.2
v -9 5 1.2
v -9 4 1.2
v -9 4 -1.2
v -6 5 -1.2
v -6 5 1.2
v -6 4 1.2
v -6 4 -1.2
v -9 3 -1.6
v -9 3 1.6
v 7 3 -0.8
v 7 3 0.8
v 6 4 -0.8
v 6 4 0.8
v 6 3 0.8
v 6 3 -0.8
v 5 4 -0.8
v 5 3 -0.8
v 5 4 0.8
v 5 3 0.8
v 4 4 -0.8
v 4 4 0.8
v 4 3 0.8
v 4 3 -0.8
v 6 0 -0.8
v 6 -1 -0.8
v 6 0 0.8
v 6 -1 0.8
v 5 0 -0.8
v 5 0 0.8
v 5 -1 0.8
v 5 -1 -0.8
v 7 -3 -0.8
v 7 -3 0.8
v 6 -3 -0.8
v 6 -3 0.8
v 6 -4 0.8
v 6 -4 -0.8
v -9 3 1.2
v -9 3 -1.2
v -9 4 -0.4
v -9 3 -0.4
v -9 4 0.4
v -9 3 0.4
v -10 4 -0.4
v -10 4 0.4
v -10 3 0.4
v -10 3 -0.4
v -9 3 -0.8
v -9 2 -0.8
v -9 3 0.8
v -9 2 0.8
v -10 3 -0.8
v -10 3 0.8
v -10 2 0.8
v -10 2 -0.8
v 8 2 -1.2
v 8 2 1.2
v 7 2 1.2
v 7 2 -1.2
v 6 2 -1.2
v 6 2 1.2
v 5 2 1.2
v 5 2 -1.2
v 4 2 -1.2
v 4 1 -1.2
v 4 2 1.2
v 4 1 1.2
v 2 2 -1.2
v 2 2 1.2
v 2 1 1.2
v 2 1 -1.2
v 8 1 -0.8
v 8 0 -0.8
v 8 1 0.8
v 8 0 0.8
v 7 1 -0.8
v 7 1 0.8
v 7 0 0.8
v 7 0 -0.8
v 5 1 -0.8
v 5 1 0.8
v 4 1 -0.8
v 4 1 0.8
v 4 0 0.8
v 4 0 -0.8
v 7 -2 -0.8
v 7 -2 0.8
v 6 -2 0.8
v 6 -2 -0.8
v 8 -2 -0.8
v 8 -4 -0.8
v 8 -2 0.8
v 8 -4 0.8
v 2 2 -1.6
v 2 1 -1.6
v 2 2 1.6
v 2 1 1.6
v 5 -2 0.8
v 5 -2 -0.8

vn 1 0 0
vn 0 1 0
vn 0 -1 0
vn -1 0 0
vn 0 0 -1
vn 0 0 1

vt -19.68504 19.68504
vt 19.68504 19.68504
vt -19.68504 -19.68504
vt 0 NaN
vt 0 0
vt 0 NaN
vt 0 NaN
vt 0 NaN
vt 0 NaN
vt 0 NaN
vt 19.68504 -19.68504
vt 0 NaN
vt 0 NaN
vt 0 NaN
vt 0 NaN
vt 0 NaN
vt 0 NaN
vt 0 NaN
vt 0 NaN
vt 0 NaN
vt 0 NaN
vt 0 NaN
vt 0 NaN
vt 0 NaN
vt 0 NaN
vt 0 NaN
vt 0 NaN
vt 0 NaN
vt 0 NaN
vt 0 NaN
vt 0 NaN
vt 0 NaN
vt 0 NaN
vt 0 NaN
vt 0 NaN
vt 0 NaN
vt 0 NaN
vt 0 NaN
vt 0 NaN
vt 0 NaN
vt 0 NaN
vt 0 NaN
vt 0 NaN
vt 0 NaN
vt 0 NaN
vt 0 NaN
vt 0 NaN
vt 0 NaN
vt 0 NaN
vt 0 NaN
vt 0 NaN
vt 0 NaN
vt 0 NaN
vt 0 NaN
vt 0 NaN
vt 0 NaN
vt 0 NaN
vt 0 NaN
vt 0 NaN
vt 0 NaN
vt 0 NaN
vt 0 NaN
vt 0 NaN
vt 0 NaN
vt 0 NaN
vt 0 NaN
vt 0 NaN
vt 0 NaN
vt 0 NaN
vt 0 NaN
vt 0 NaN
vt 0 NaN
vt 0 NaN
vt 0 NaN
vt 0 NaN
vt 0 NaN
vt 0 NaN
vt 0 NaN
vt 0 NaN
vt 0 NaN
vt 0 NaN
vt 0 NaN
vt 0 NaN
vt 0 NaN
vt 0 NaN
vt 0 NaN
vt 0 NaN
vt 0 NaN
vt 0 NaN
vt 0 NaN
vt 0 NaN
vt 0 NaN
vt 0 NaN
vt 0 NaN
vt 0 NaN
vt 0 NaN
vt 0 NaN
vt 0 NaN
vt 0 NaN
vt 0 NaN
vt 0 NaN
vt 0 NaN
vt 0 NaN
vt 0 NaN
vt 0 NaN
vt 0 NaN
vt 0 NaN
vt 0 NaN
vt 0 NaN
vt 0 NaN
vt 0 NaN
vt 0 NaN
vt 0 NaN
vt 0 NaN
vt 0 NaN
vt 0 NaN
vt 0 NaN
vt 0 NaN
vt 0 NaN
vt 0 NaN
vt 0 NaN
vt 0 NaN
vt 0 NaN
vt 0 NaN
vt 0 NaN
vt 0 NaN
vt 0 NaN
vt 0 NaN
vt 0 NaN
vt 0 NaN
vt 0 NaN
vt 0 NaN
vt 0 NaN
vt 0 NaN
vt 0 NaN
vt 0 NaN
vt 0 NaN
vt 0 NaN
vt 0 NaN
vt 0 NaN
vt 0 NaN
vt 0 NaN
vt 0 NaN
vt 0 NaN
vt 0 NaN
vt 0 NaN
vt 0 NaN
vt 0 NaN
vt 0 NaN
vt 0 NaN
vt 0 NaN
vt 0 NaN
vt 0 NaN
vt 0 NaN
vt 0 NaN
vt 0 NaN
vt 0 NaN
vt 0 NaN
vt 0 NaN
vt 0 NaN
vt 0 NaN
vt 0 NaN
vt 0 NaN
vt 0 NaN
vt 0 NaN
vt 0 NaN
vt 0 NaN
vt 0 NaN
vt 0 NaN
vt 0 NaN
vt 0 NaN
vt 0 NaN
vt 0 NaN
vt 0 NaN
vt 0 NaN
vt 0 NaN
vt 0 NaN
vt 0 NaN
vt 0 NaN
vt 0 NaN
vt 0 NaN
vt 0 NaN
vt 0 NaN
vt 0 NaN
vt 0 NaN
vt 0 NaN
vt 0 NaN
vt 0 NaN
vt 0 NaN
vt 0 NaN
vt 0 NaN
vt 0 NaN
vt 0 NaN
vt 0 NaN
vt 0 NaN
vt 0 NaN
vt 0 NaN
vt 0 NaN
vt 0 NaN
vt 0 NaN
vt 0 NaN
vt 0 NaN
vt 0 NaN
vt 0 NaN
vt 0 NaN
vt 0 NaN
vt 0 NaN
vt 0 NaN
vt 0 NaN
vt 0 NaN
vt 0 NaN
vt 0 NaN
vt 0 NaN
vt 0 NaN
vt 0 NaN
vt 0 NaN
vt 0 NaN
vt 0 NaN
vt 0 NaN
vt 0 NaN
vt 0 NaN
vt 0 NaN
vt 0 NaN
vt 0 NaN
vt 0 NaN
vt 0 NaN
vt 0 NaN
vt 0 NaN
vt 0 NaN
vt 0 NaN
vt 0 NaN
vt 0 NaN
vt 0 NaN
vt 0 NaN
vt 0 NaN
vt 0 NaN
vt 0 NaN
vt 0 NaN
vt 0 NaN
vt 0 NaN
vt 0 NaN
vt 0 NaN
vt 0 NaN
vt 0 NaN
vt 0 NaN
vt 0 NaN
vt 0 NaN
vt 0 NaN
vt 0 NaN
vt 0 NaN
vt 0 NaN
vt 0 NaN
vt 0 NaN
vt 0 NaN
vt 0 NaN
vt 0 NaN
vt 0 NaN
vt 0 NaN
vt 0 NaN
vt 0 NaN
vt 0 NaN
vt 0 NaN
vt 0 NaN
vt 0 NaN
vt 0 NaN
vt 0 NaN
vt 0 NaN
vt 0 NaN
vt 0 NaN
vt 0 NaN
vt 0 NaN
vt 0 NaN
vt 0 NaN
vt 0 NaN
vt 0 NaN
vt 0 NaN
vt 0 NaN
vt 0 NaN
vt 0 NaN
vt 0 NaN
vt 0 NaN
vt 0 NaN
vt 0 NaN
vt 0 NaN
vt 0 NaN
vt 0 NaN
vt 0 NaN
vt 0 NaN
vt 0 NaN
vt 0 NaN
vt 0 NaN
vt 0 NaN
vt 0 NaN
vt 0 NaN
vt 0 NaN
vt 0 NaN
vt 0 NaN
vt 0 NaN
vt 0 NaN
vt 0 NaN
vt 0 NaN
vt 0 NaN

usemtl color2

f 3/3/1 2/2/1 1/1/1
f 2/3/1 3/2/1 4/1/1
f 5/3/2 3/2/2 1/1/2
f 3/3/2 5/2/2 6/1/2
f 7/5/3 2/5/3 4/4/3
f 2/5/3 7/5/3 8/6/3
f 7/5/4 5/5/4 8/7/4
f 5/5/4 7/5/4 6/8/4
f 5/5/5 2/5/5 8/9/5
f 2/5/5 5/5/5 1/10/5
f 3/2/6 7/3/6 4/11/6
f 7/3/6 3/2/6 6/1/6
f 11/3/1 10/2/1 9/1/1
f 10/3/1 11/2/1 12/1/1
f 13/3/2 11/2/2 9/1/2
f 11/3/2 13/2/2 14/1/2
f 15/5/3 10/5/3 12/12/3
f 10/5/3 15/5/3 16/13/3
f 15/5/4 13/5/4 16/14/4
f 13/5/4 15/5/4 14/15/4
f 13/5/5 10/5/5 16/16/5
f 10/5/5 13/5/5 9/17/5
f 11/2/6 15/3/6 12/11/6
f 15/3/6 11/2/6 14/1/6
f 3/3/1 2/2/1 1/1/1
f 2/3/1 3/2/1 4/1/1
f 5/3/2 3/2/2 1/1/2
f 3/3/2 5/2/2 6/1/2
f 7/5/3 2/5/3 4/4/3
f 2/5/3 7/5/3 8/6/3
f 7/5/4 5/5/4 8/7/4
f 5/5/4 7/5/4 6/8/4
f 5/5/5 2/5/5 8/9/5
f 2/5/5 5/5/5 1/10/5
f 3/2/6 7/3/6 4/11/6
f 7/3/6 3/2/6 6/1/6
f 19/3/1 18/2/1 17/1/1
f 18/3/1 19/2/1 20/1/1
f 2/3/2 19/2/2 17/1/2
f 19/3/2 2/2/2 4/1/2
f 21/5/3 18/5/3 20/18/3
f 18/5/3 21/5/3 22/19/3
f 21/5/4 2/5/4 22/20/4
f 2/5/4 21/5/4 4/21/4
f 2/5/5 18/5/5 22/22/5
f 18/5/5 2/5/5 17/23/5
f 19/2/6 21/3/6 20/11/6
f 21/3/6 19/2/6 4/1/6
f 25/3/1 24/2/1 23/1/1
f 24/3/1 25/2/1 26/1/1
f 27/3/2 25/2/2 23/1/2
f 25/3/2 27/2/2 28/1/2
f 29/5/3 24/5/3 26/24/3
f 24/5/3 29/5/3 30/25/3
f 29/5/4 27/5/4 30/26/4
f 27/5/4 29/5/4 28/27/4
f 27/5/5 24/5/5 30/28/5
f 24/5/5 27/5/5 23/29/5
f 25/2/6 29/3/6 26/11/6
f 29/3/6 25/2/6 28/1/6
f 33/3/1 32/2/1 31/1/1
f 32/3/1 33/2/1 34/1/1
f 35/3/2 33/2/2 31/1/2
f 33/3/2 35/2/2 36/1/2
f 37/5/3 32/5/3 34/30/3
f 32/5/3 37/5/3 38/31/3
f 37/5/4 35/5/4 38/32/4
f 35/5/4 37/5/4 36/33/4
f 35/5/5 32/5/5 38/34/5
f 32/5/5 35/5/5 31/35/5
f 33/2/6 37/3/6 34/11/6
f 37/3/6 33/2/6 36/1/6
f 41/3/1 40/2/1 39/1/1
f 40/3/1 41/2/1 42/1/1
f 43/3/2 41/2/2 39/1/2
f 41/3/2 43/2/2 44/1/2
f 45/5/3 40/5/3 42/36/3
f 40/5/3 45/5/3 46/37/3
f 45/5/4 43/5/4 46/38/4
f 43/5/4 45/5/4 44/39/4
f 43/5/5 40/5/5 46/40/5
f 40/5/5 43/5/5 39/41/5
f 41/2/6 45/3/6 42/11/6
f 45/3/6 41/2/6 44/1/6
f 49/3/1 48/2/1 47/1/1
f 48/3/1 49/2/1 50/1/1
f 51/3/2 49/2/2 47/1/2
f 49/3/2 51/2/2 52/1/2
f 53/5/3 48/5/3 50/42/3
f 48/5/3 53/5/3 54/43/3
f 53/5/4 51/5/4 54/44/4
f 51/5/4 53/5/4 52/45/4
f 51/5/5 48/5/5 54/46/5
f 48/5/5 51/5/5 47/47/5
f 49/2/6 53/3/6 50/11/6
f 53/3/6 49/2/6 52/1/6
f 57/3/1 56/2/1 55/1/1
f 56/3/1 57/2/1 58/1/1
f 59/3/2 57/2/2 55/1/2
f 57/3/2 59/2/2 60/1/2
f 61/5/3 56/5/3 58/48/3
f 56/5/3 61/5/3 62/49/3
f 61/5/4 59/5/4 62/50/4
f 59/5/4 61/5/4 60/51/4
f 59/5/5 56/5/5 62/52/5
f 56/5/5 59/5/5 55/53/5
f 57/2/6 61/3/6 58/11/6
f 61/3/6 57/2/6 60/1/6
f 65/3/1 64/2/1 63/1/1
f 64/3/1 65/2/1 66/1/1
f 48/3/2 65/2/2 63/1/2
f 65/3/2 48/2/2 50/1/2
f 67/5/3 64/5/3 66/54/3
f 64/5/3 67/5/3 68/55/3
f 67/5/4 48/5/4 68/56/4
f 48/5/4 67/5/4 50/57/4
f 48/5/5 64/5/5 68/58/5
f 64/5/5 48/5/5 63/59/5
f 65/2/6 67/3/6 66/11/6
f 67/3/6 65/2/6 50/1/6
f 71/3/1 70/2/1 69/1/1
f 70/3/1 71/2/1 72/1/1
f 73/3/2 71/2/2 69/1/2
f 71/3/2 73/2/2 74/1/2
f 75/5/3 70/5/3 72/60/3
f 70/5/3 75/5/3 76/61/3
f 75/5/4 73/5/4 76/62/4
f 73/5/4 75/5/4 74/63/4
f 73/5/5 70/5/5 76/64/5
f 70/5/5 73/5/5 69/65/5
f 71/2/6 75/3/6 72/11/6
f 75/3/6 71/2/6 74/1/6
f 79/3/1 78/2/1 77/1/1
f 78/3/1 79/2/1 80/1/1
f 81/3/2 79/2/2 77/1/2
f 79/3/2 81/2/2 82/1/2
f 83/5/3 78/5/3 80/66/3
f 78/5/3 83/5/3 84/67/3
f 83/5/4 81/5/4 84/68/4
f 81/5/4 83/5/4 82/69/4
f 81/5/5 78/5/5 84/70/5
f 78/5/5 81/5/5 77/71/5
f 79/2/6 83/3/6 80/11/6
f 83/3/6 79/2/6 82/1/6

usemtl color8

f 14/3/1 16/2/1 13/1/1
f 16/3/1 14/2/1 15/1/1
f 85/3/2 14/2/2 13/1/2
f 14/3/2 85/2/2 86/1/2
f 87/5/3 16/13/3 15/5/3
f 16/13/3 87/5/3 88/72/3
f 87/5/4 85/5/4 88/73/4
f 85/5/4 87/5/4 86/74/4
f 85/5/5 16/16/5 88/75/5
f 16/16/5 85/5/5 13/5/5
f 14/2/6 87/3/6 15/11/6
f 87/3/6 14/2/6 86/1/6
f 91/3/1 90/2/1 89/1/1
f 90/3/1 91/2/1 92/1/1
f 93/3/2 91/2/2 89/1/2
f 91/3/2 93/2/2 94/1/2
f 95/5/3 90/5/3 92/76/3
f 90/5/3 95/5/3 96/77/3
f 95/5/4 93/5/4 96/78/4
f 93/5/4 95/5/4 94/79/4
f 93/5/5 90/5/5 96/80/5
f 90/5/5 93/5/5 89/81/5
f 91/2/6 95/3/6 92/11/6
f 95/3/6 91/2/6 94/1/6
f 99/3/1 98/2/1 97/1/1
f 98/3/1 99/2/1 100/1/1
f 101/3/2 99/2/2 97/1/2
f 99/3/2 101/2/2 102/1/2
f 103/5/3 98/5/3 100/82/3
f 98/5/3 103/5/3 104/83/3
f 103/5/4 101/5/4 104/84/4
f 101/5/4 103/5/4 102/85/4
f 101/5/5 98/5/5 104/86/5
f 98/5/5 101/5/5 97/87/5
f 99/2/6 103/3/6 100/11/6
f 103/3/6 99/2/6 102/1/6
f 28/3/1 30/2/1 27/1/1
f 30/3/1 28/2/1 29/1/1
f 31/3/2 28/2/2 27/1/2
f 28/3/2 31/2/2 33/1/2
f 34/30/3 30/25/3 29/5/3
f 30/25/3 34/30/3 32/5/3
f 34/5/4 31/5/4 32/88/4
f 31/5/4 34/5/4 33/89/4
f 31/35/5 30/28/5 32/5/5
f 30/28/5 31/35/5 27/5/5
f 28/2/6 34/3/6 29/11/6
f 34/3/6 28/2/6 33/1/6
f 36/3/1 38/2/1 35/1/1
f 38/3/1 36/2/1 37/1/1
f 39/3/2 36/2/2 35/1/2
f 36/3/2 39/2/2 41/1/2
f 42/36/3 38/31/3 37/5/3
f 38/31/3 42/36/3 40/5/3
f 42/5/4 39/5/4 40/90/4
f 39/5/4 42/5/4 41/91/4
f 39/41/5 38/34/5 40/5/5
f 38/34/5 39/41/5 35/5/5
f 36/2/6 42/3/6 37/11/6
f 42/3/6 36/2/6 41/1/6
f 107/3/1 106/2/1 105/1/1
f 106/3/1 107/2/1 108/1/1
f 90/3/2 107/2/2 105/1/2
f 107/3/2 90/2/2 92/1/2
f 109/5/3 106/5/3 108/92/3
f 106/5/3 109/5/3 110/93/3
f 109/5/4 90/5/4 110/94/4
f 90/5/4 109/5/4 92/95/4
f 90/5/5 106/5/5 110/96/5
f 106/5/5 90/5/5 105/97/5
f 107/2/6 109/3/6 108/11/6
f 109/3/6 107/2/6 92/1/6
f 113/3/1 112/2/1 111/1/1
f 112/3/1 113/2/1 114/1/1
f 115/3/2 113/2/2 111/1/2
f 113/3/2 115/2/2 116/1/2
f 117/5/3 112/5/3 114/98/3
f 112/5/3 117/5/3 118/99/3
f 117/5/4 115/5/4 118/100/4
f 115/5/4 117/5/4 116/101/4
f 115/5/5 112/5/5 118/102/5
f 112/5/5 115/5/5 111/103/5
f 113/2/6 117/3/6 114/11/6
f 117/3/6 113/2/6 116/1/6
f 121/3/1 120/2/1 119/1/1
f 120/3/1 121/2/1 122/1/1
f 123/3/2 121/2/2 119/1/2
f 121/3/2 123/2/2 124/1/2
f 125/5/3 120/5/3 122/104/3
f 120/5/3 125/5/3 126/105/3
f 125/5/4 123/5/4 126/106/4
f 123/5/4 125/5/4 124/107/4
f 123/5/5 120/5/5 126/108/5
f 120/5/5 123/5/5 119/109/5
f 121/2/6 125/3/6 122/11/6
f 125/3/6 121/2/6 124/1/6
f 129/3/1 128/2/1 127/1/1
f 128/3/1 129/2/1 130/1/1
f 131/3/2 129/2/2 127/1/2
f 129/3/2 131/2/2 132/1/2
f 133/5/3 128/5/3 130/110/3
f 128/5/3 133/5/3 134/111/3
f 133/5/4 131/5/4 134/112/4
f 131/5/4 133/5/4 132/113/4
f 131/5/5 128/5/5 134/114/5
f 128/5/5 131/5/5 127/115/5
f 129/2/6 133/3/6 130/11/6
f 133/3/6 129/2/6 132/1/6
f 133/3/1 135/2/1 134/1/1
f 135/3/1 133/2/1 136/1/1
f 137/3/2 133/2/2 134/1/2
f 133/3/2 137/2/2 138/1/2
f 139/5/3 135/5/3 136/116/3
f 135/5/3 139/5/3 140/117/3
f 139/5/4 137/5/4 140/118/4
f 137/5/4 139/5/4 138/119/4
f 137/5/5 135/5/5 140/120/5
f 135/5/5 137/5/5 134/114/5
f 133/2/6 139/3/6 136/11/6
f 139/3/6 133/2/6 138/1/6
f 143/3/1 142/2/1 141/1/1
f 142/3/1 143/2/1 144/1/1
f 55/3/2 143/2/2 141/1/2
f 143/3/2 55/2/2 57/1/2
f 58/48/3 142/5/3 144/121/3
f 142/5/3 58/48/3 56/5/3
f 58/5/4 55/5/4 56/122/4
f 55/5/4 58/5/4 57/123/4
f 55/53/5 142/5/5 56/5/5
f 142/5/5 55/53/5 141/124/5
f 143/2/6 58/3/6 144/11/6
f 58/3/6 143/2/6 57/1/6

usemtl color3

f 147/3/1 146/2/1 145/1/1
f 146/3/1 147/2/1 148/1/1
f 149/3/2 147/2/2 145/1/2
f 147/3/2 149/2/2 150/1/2
f 151/5/3 146/5/3 148/125/3
f 146/5/3 151/5/3 152/126/3
f 151/5/4 149/5/4 152/127/4
f 149/5/4 151/5/4 150/128/4
f 149/5/5 146/5/5 152/129/5
f 146/5/5 149/5/5 145/130/5
f 147/2/6 151/3/6 148/11/6
f 151/3/6 147/2/6 150/1/6
f 155/3/1 154/2/1 153/1/1
f 154/3/1 155/2/1 156/1/1
f 157/3/2 155/2/2 153/1/2
f 155/3/2 157/2/2 158/1/2
f 159/5/3 154/5/3 156/131/3
f 154/5/3 159/5/3 160/132/3
f 159/5/4 157/5/4 160/133/4
f 157/5/4 159/5/4 158/134/4
f 157/5/5 154/5/5 160/135/5
f 154/5/5 157/5/5 153/136/5
f 155/2/6 159/3/6 156/11/6
f 159/3/6 155/2/6 158/1/6
f 163/3/1 162/2/1 161/1/1
f 162/3/1 163/2/1 164/1/1
f 165/3/2 163/2/2 161/1/2
f 163/3/2 165/2/2 166/1/2
f 167/5/3 162/5/3 164/137/3
f 162/5/3 167/5/3 168/138/3
f 167/5/4 165/5/4 168/139/4
f 165/5/4 167/5/4 166/140/4
f 165/5/5 162/5/5 168/141/5
f 162/5/5 165/5/5 161/142/5
f 163/2/6 167/3/6 164/11/6
f 167/3/6 163/2/6 166/1/6
f 116/3/1 118/2/1 115/1/1
f 118/3/1 116/2/1 117/1/1
f 119/3/2 116/2/2 115/1/2
f 116/3/2 119/2/2 121/1/2
f 122/104/3 118/99/3 117/5/3
f 118/99/3 122/104/3 120/5/3
f 122/5/4 119/5/4 120/143/4
f 119/5/4 122/5/4 121/144/4
f 119/109/5 118/102/5 120/5/5
f 118/102/5 119/109/5 115/5/5
f 116/2/6 122/3/6 117/11/6
f 122/3/6 116/2/6 121/1/6
f 170/3/1 168/2/1 169/1/1
f 168/3/1 170/2/1 167/1/1
f 171/3/2 170/2/2 169/1/2
f 170/3/2 171/2/2 172/1/2
f 173/5/3 168/138/3 167/5/3
f 168/138/3 173/5/3 174/145/3
f 173/5/4 171/5/4 174/146/4
f 171/5/4 173/5/4 172/147/4
f 171/5/5 168/141/5 174/148/5
f 168/141/5 171/5/5 169/149/5
f 170/2/6 173/3/6 167/11/6
f 173/3/6 170/2/6 172/1/6
f 177/3/1 176/2/1 175/1/1
f 176/3/1 177/2/1 178/1/1
f 118/3/2 177/2/2 175/1/2
f 177/3/2 118/2/2 117/1/2
f 179/5/3 176/5/3 178/150/3
f 176/5/3 179/5/3 180/151/3
f 179/5/4 118/100/4 180/152/4
f 118/100/4 179/5/4 117/5/4
f 118/102/5 176/5/5 180/153/5
f 176/5/5 118/102/5 175/154/5
f 177/2/6 179/3/6 178/11/6
f 179/3/6 177/2/6 117/1/6
f 183/3/1 182/2/1 181/1/1
f 182/3/1 183/2/1 184/1/1
f 126/3/2 183/2/2 181/1/2
f 183/3/2 126/2/2 125/1/2
f 185/5/3 182/5/3 184/155/3
f 182/5/3 185/5/3 186/156/3
f 185/5/4 126/106/4 186/157/4
f 126/106/4 185/5/4 125/5/4
f 126/108/5 182/5/5 186/158/5
f 182/5/5 126/108/5 181/159/5
f 183/2/6 185/3/6 184/11/6
f 185/3/6 183/2/6 125/1/6
f 130/3/1 187/2/1 128/1/1
f 187/3/1 130/2/1 188/1/1
f 134/3/2 130/2/2 128/1/2
f 130/3/2 134/2/2 133/1/2
f 136/116/3 187/5/3 188/160/3
f 187/5/3 136/116/3 135/5/3
f 136/5/4 134/112/4 135/161/4
f 134/112/4 136/5/4 133/5/4
f 134/114/5 187/5/5 135/5/5
f 187/5/5 134/114/5 128/5/5
f 130/2/6 136/3/6 188/11/6
f 136/3/6 130/2/6 133/1/6
f 190/3/1 141/2/1 189/1/1
f 141/3/1 190/2/1 143/1/1
f 191/3/2 190/2/2 189/1/2
f 190/3/2 191/2/2 192/1/2
f 57/5/3 141/5/3 143/162/3
f 141/5/3 57/5/3 55/163/3
f 57/123/4 191/5/4 55/5/4
f 191/5/4 57/123/4 192/164/4
f 191/5/5 141/124/5 55/53/5
f 141/124/5 191/5/5 189/165/5
f 190/2/6 57/3/6 143/11/6
f 57/3/6 190/2/6 192/1/6
f 195/3/1 194/2/1 193/1/1
f 194/3/1 195/2/1 196/1/1
f 77/3/2 195/2/2 193/1/2
f 195/3/2 77/2/2 79/1/2
f 80/66/3 194/5/3 196/166/3
f 194/5/3 80/66/3 78/5/3
f 80/5/4 77/5/4 78/167/4
f 77/5/4 80/5/4 79/168/4
f 77/71/5 194/5/5 78/5/5
f 194/5/5 77/71/5 193/169/5
f 195/2/6 80/3/6 196/11/6
f 80/3/6 195/2/6 79/1/6

usemtl color7

f 198/3/1 157/2/1 197/1/1
f 157/3/1 198/2/1 158/1/1
f 97/3/2 198/2/2 197/1/2
f 198/3/2 97/2/2 99/1/2
f 100/82/3 157/5/3 158/170/3
f 157/5/3 100/82/3 98/5/3
f 100/5/4 97/5/4 98/171/4
f 97/5/4 100/5/4 99/172/4
f 97/87/5 157/5/5 98/5/5
f 157/5/5 97/87/5 197/173/5
f 198/2/6 100/3/6 158/11/6
f 100/3/6 198/2/6 99/1/6
f 102/3/1 104/2/1 101/1/1
f 104/3/1 102/2/1 103/1/1
f 199/3/2 102/2/2 101/1/2
f 102/3/2 199/2/2 200/1/2
f 201/5/3 104/83/3 103/5/3
f 104/83/3 201/5/3 202/174/3
f 201/5/4 199/5/4 202/175/4
f 199/5/4 201/5/4 200/176/4
f 199/5/5 104/86/5 202/177/5
f 104/86/5 199/5/5 101/5/5
f 102/2/6 201/3/6 103/11/6
f 201/3/6 102/2/6 200/1/6
f 100/3/1 203/2/1 98/1/1
f 203/3/1 100/2/1 204/1/1
f 104/3/2 100/2/2 98/1/2
f 100/3/2 104/2/2 103/1/2
f 205/5/3 203/5/3 204/178/3
f 203/5/3 205/5/3 206/179/3
f 205/5/4 104/84/4 206/180/4
f 104/84/4 205/5/4 103/5/4
f 104/86/5 203/5/5 206/181/5
f 203/5/5 104/86/5 98/5/5
f 100/2/6 205/3/6 204/11/6
f 205/3/6 100/2/6 103/1/6
f 201/3/1 207/2/1 202/1/1
f 207/3/1 201/2/1 208/1/1
f 209/3/2 201/2/2 202/1/2
f 201/3/2 209/2/2 210/1/2
f 211/5/3 207/5/3 208/182/3
f 207/5/3 211/5/3 212/183/3
f 211/5/4 209/5/4 212/184/4
f 209/5/4 211/5/4 210/185/4
f 209/5/5 207/5/5 212/186/5
f 207/5/5 209/5/5 202/177/5
f 201/2/6 211/3/6 208/11/6
f 211/3/6 201/2/6 210/1/6
f 214/3/1 174/2/1 213/1/1
f 174/3/1 214/2/1 173/1/1
f 215/3/2 214/2/2 213/1/2
f 214/3/2 215/2/2 216/1/2
f 178/150/3 174/145/3 173/5/3
f 174/145/3 178/150/3 176/5/3
f 178/5/4 215/5/4 176/187/4
f 215/5/4 178/5/4 216/188/4
f 215/5/5 174/148/5 176/5/5
f 174/148/5 215/5/5 213/189/5
f 214/2/6 178/3/6 173/11/6
f 178/3/6 214/2/6 216/1/6
f 219/3/1 218/2/1 217/1/1
f 218/3/1 219/2/1 220/1/1
f 221/3/2 219/2/2 217/1/2
f 219/3/2 221/2/2 222/1/2
f 223/5/3 218/5/3 220/190/3
f 218/5/3 223/5/3 224/191/3
f 223/5/4 221/5/4 224/192/4
f 221/5/4 223/5/4 222/193/4
f 221/5/5 218/5/5 224/194/5
f 218/5/5 221/5/5 217/195/5
f 219/2/6 223/3/6 220/11/6
f 223/3/6 219/2/6 222/1/6
f 52/3/1 225/2/1 51/1/1
f 225/3/1 52/2/1 226/1/1
f 141/3/2 52/2/2 51/1/2
f 52/3/2 141/2/2 143/1/2
f 144/121/3 225/5/3 226/196/3
f 225/5/3 144/121/3 142/5/3
f 144/5/4 141/5/4 142/197/4
f 141/5/4 144/5/4 143/198/4
f 141/124/5 225/5/5 142/5/5
f 225/5/5 141/124/5 51/5/5
f 52/2/6 144/3/6 226/11/6
f 144/3/6 52/2/6 143/1/6

usemtl color12

f 200/3/1 202/2/1 199/1/1
f 202/3/1 200/2/1 201/1/1
f 227/3/2 200/2/2 199/1/2
f 200/3/2 227/2/2 228/1/2
f 229/5/3 202/174/3 201/5/3
f 202/174/3 229/5/3 230/199/3
f 229/5/4 227/5/4 230/200/4
f 227/5/4 229/5/4 228/201/4
f 227/5/5 202/177/5 230/202/5
f 202/177/5 227/5/5 199/5/5
f 200/2/6 229/3/6 201/11/6
f 229/3/6 200/2/6 228/1/6

usemtl color13

f 228/3/1 230/2/1 227/1/1
f 230/3/1 228/2/1 229/1/1
f 23/3/2 228/2/2 227/1/2
f 228/3/2 23/2/2 25/1/2
f 26/24/3 230/199/3 229/5/3
f 230/199/3 26/24/3 24/5/3
f 26/5/4 23/5/4 24/203/4
f 23/5/4 26/5/4 25/204/4
f 23/29/5 230/202/5 24/5/5
f 230/202/5 23/29/5 227/5/5
f 228/2/6 26/3/6 229/11/6
f 26/3/6 228/2/6 25/1/6
f 232/3/1 209/2/1 231/1/1
f 209/3/1 232/2/1 210/1/1
f 233/3/2 232/2/2 231/1/2
f 232/3/2 233/2/2 234/1/2
f 235/5/3 209/5/3 210/205/3
f 209/5/3 235/5/3 236/206/3
f 235/5/4 233/5/4 236/207/4
f 233/5/4 235/5/4 234/208/4
f 233/5/5 209/5/5 236/209/5
f 209/5/5 233/5/5 231/210/5
f 232/2/6 235/3/6 210/11/6
f 235/3/6 232/2/6 234/1/6

usemtl color10

f 44/3/1 46/2/1 43/1/1
f 46/3/1 44/2/1 45/1/1
f 237/3/2 44/2/2 43/1/2
f 44/3/2 237/2/2 238/1/2
f 239/5/3 46/37/3 45/5/3
f 46/37/3 239/5/3 240/211/3
f 239/5/4 237/5/4 240/212/4
f 237/5/4 239/5/4 238/213/4
f 237/5/5 46/40/5 240/214/5
f 46/40/5 237/5/5 43/5/5
f 44/2/6 239/3/6 45/11/6
f 239/3/6 44/2/6 238/1/6
f 132/3/1 134/2/1 131/1/1
f 134/3/1 132/2/1 133/1/1
f 241/3/2 132/2/2 131/1/2
f 132/3/2 241/2/2 242/1/2
f 138/5/3 134/111/3 133/5/3
f 134/111/3 138/5/3 137/215/3
f 138/119/4 241/5/4 137/5/4
f 241/5/4 138/119/4 242/216/4
f 241/5/5 134/114/5 137/5/5
f 134/114/5 241/5/5 131/5/5
f 132/2/6 138/3/6 133/11/6
f 138/3/6 132/2/6 242/1/6

usemtl color14

f 238/3/1 240/2/1 237/1/1
f 240/3/1 238/2/1 239/1/1
f 231/3/2 238/2/2 237/1/2
f 238/3/2 231/2/2 232/1/2
f 210/205/3 240/211/3 239/5/3
f 240/211/3 210/205/3 209/5/3
f 210/185/4 231/5/4 209/5/4
f 231/5/4 210/185/4 232/217/4
f 231/210/5 240/214/5 209/5/5
f 240/214/5 231/210/5 237/5/5
f 238/2/6 210/3/6 239/11/6
f 210/3/6 238/2/6 232/1/6

usemtl color5

f 95/3/1 243/2/1 96/1/1
f 243/3/1 95/2/1 244/1/1
f 245/3/2 95/2/2 96/1/2
f 95/3/2 245/2/2 246/1/2
f 247/5/3 243/5/3 244/218/3
f 243/5/3 247/5/3 248/219/3
f 247/5/4 245/5/4 248/220/4
f 245/5/4 247/5/4 246/221/4
f 245/5/5 243/5/5 248/222/5
f 243/5/5 245/5/5 96/80/5
f 95/2/6 247/3/6 244/11/6
f 247/3/6 95/2/6 246/1/6
f 251/3/1 250/2/1 249/1/1
f 250/3/1 251/2/1 252/1/1
f 253/3/2 251/2/2 249/1/2
f 251/3/2 253/2/2 254/1/2
f 255/5/3 250/5/3 252/223/3
f 250/5/3 255/5/3 256/224/3
f 255/5/4 253/5/4 256/225/4
f 253/5/4 255/5/4 254/226/4
f 253/5/5 250/5/5 256/227/5
f 250/5/5 253/5/5 249/228/5
f 251/2/6 255/3/6 252/11/6
f 255/3/6 251/2/6 254/1/6
f 259/3/1 258/2/1 257/1/1
f 258/3/1 259/2/1 260/1/1
f 261/3/2 259/2/2 257/1/2
f 259/3/2 261/2/2 262/1/2
f 263/5/3 258/5/3 260/229/3
f 258/5/3 263/5/3 264/230/3
f 263/5/4 261/5/4 264/231/4
f 261/5/4 263/5/4 262/232/4
f 261/5/5 258/5/5 264/233/5
f 258/5/5 261/5/5 257/234/5
f 259/2/6 263/3/6 260/11/6
f 263/3/6 259/2/6 262/1/6
f 266/3/1 193/2/1 265/1/1
f 193/3/1 266/2/1 195/1/1
f 267/3/2 266/2/2 265/1/2
f 266/3/2 267/2/2 268/1/2
f 269/5/3 193/5/3 195/235/3
f 193/5/3 269/5/3 270/236/3
f 269/5/4 267/5/4 270/237/4
f 267/5/4 269/5/4 268/238/4
f 267/5/5 193/169/5 270/239/5
f 193/169/5 267/5/5 265/240/5
f 266/2/6 269/3/6 195/11/6
f 269/3/6 266/2/6 268/1/6

usemtl color11

f 210/3/1 212/2/1 209/1/1
f 212/3/1 210/2/1 211/1/1
f 236/3/2 210/2/2 209/1/2
f 210/3/2 236/2/2 235/1/2
f 271/5/3 212/183/3 211/5/3
f 212/183/3 271/5/3 272/241/3
f 271/5/4 236/207/4 272/242/4
f 236/207/4 271/5/4 235/5/4
f 236/209/5 212/186/5 272/243/5
f 212/186/5 236/209/5 209/5/5
f 210/2/6 271/3/6 211/11/6
f 271/3/6 210/2/6 235/1/6

usemtl color0

f 275/3/1 274/2/1 273/1/1
f 274/3/1 275/2/1 276/1/1
f 277/3/2 275/2/2 273/1/2
f 275/3/2 277/2/2 278/1/2
f 279/5/3 274/5/3 276/244/3
f 274/5/3 279/5/3 280/245/3
f 279/5/4 277/5/4 280/246/4
f 277/5/4 279/5/4 278/247/4
f 277/5/5 274/5/5 280/248/5
f 274/5/5 277/5/5 273/249/5
f 275/2/6 279/3/6 276/11/6
f 279/3/6 275/2/6 278/1/6
f 283/3/1 282/2/1 281/1/1
f 282/3/1 283/2/1 284/1/1
f 285/3/2 283/2/2 281/1/2
f 283/3/2 285/2/2 286/1/2
f 287/5/3 282/5/3 284/250/3
f 282/5/3 287/5/3 288/251/3
f 287/5/4 285/5/4 288/252/4
f 285/5/4 287/5/4 286/253/4
f 285/5/5 282/5/5 288/254/5
f 282/5/5 285/5/5 281/255/5
f 283/2/6 287/3/6 284/11/6
f 287/3/6 283/2/6 286/1/6

usemtl color4

f 156/3/1 289/2/1 154/1/1
f 289/3/1 156/2/1 290/1/1
f 160/3/2 156/2/2 154/1/2
f 156/3/2 160/2/2 159/1/2
f 291/5/3 289/5/3 290/256/3
f 289/5/3 291/5/3 292/257/3
f 291/5/4 160/133/4 292/258/4
f 160/133/4 291/5/4 159/5/4
f 160/135/5 289/5/5 292/259/5
f 289/5/5 160/135/5 154/5/5
f 156/2/6 291/3/6 290/11/6
f 291/3/6 156/2/6 159/1/6
f 204/3/1 293/2/1 203/1/1
f 293/3/1 204/2/1 294/1/1
f 206/3/2 204/2/2 203/1/2
f 204/3/2 206/2/2 205/1/2
f 295/5/3 293/5/3 294/260/3
f 293/5/3 295/5/3 296/261/3
f 295/5/4 206/180/4 296/262/4
f 206/180/4 295/5/4 205/5/4
f 206/181/5 293/5/5 296/263/5
f 293/5/5 206/181/5 203/5/5
f 204/2/6 295/3/6 294/11/6
f 295/3/6 204/2/6 205/1/6
f 299/3/1 298/2/1 297/1/1
f 298/3/1 299/2/1 300/1/1
f 301/3/2 299/2/2 297/1/2
f 299/3/2 301/2/2 302/1/2
f 303/5/3 298/5/3 300/264/3
f 298/5/3 303/5/3 304/265/3
f 303/5/4 301/5/4 304/266/4
f 301/5/4 303/5/4 302/267/4
f 301/5/5 298/5/5 304/268/5
f 298/5/5 301/5/5 297/269/5
f 299/2/6 303/3/6 300/11/6
f 303/3/6 299/2/6 302/1/6
f 307/3/1 306/2/1 305/1/1
f 306/3/1 307/2/1 308/1/1
f 309/3/2 307/2/2 305/1/2
f 307/3/2 309/2/2 310/1/2
f 311/5/3 306/5/3 308/270/3
f 306/5/3 311/5/3 312/271/3
f 311/5/4 309/5/4 312/272/4
f 309/5/4 311/5/4 310/273/4
f 309/5/5 306/5/5 312/274/5
f 306/5/5 309/5/5 305/275/5
f 307/2/6 311/3/6 308/11/6
f 311/3/6 307/2/6 310/1/6
f 314/3/1 261/2/1 313/1/1
f 261/3/1 314/2/1 262/1/1
f 315/3/2 314/2/2 313/1/2
f 314/3/2 315/2/2 316/1/2
f 317/5/3 261/5/3 262/276/3
f 261/5/3 317/5/3 318/277/3
f 317/5/4 315/5/4 318/278/4
f 315/5/4 317/5/4 316/279/4
f 315/5/5 261/5/5 318/280/5
f 261/5/5 315/5/5 313/281/5
f 314/2/6 317/3/6 262/11/6
f 317/3/6 314/2/6 316/1/6
f 311/3/1 319/2/1 312/1/1
f 319/3/1 311/2/1 320/1/1
f 257/3/2 311/2/2 312/1/2
f 311/3/2 257/2/2 259/1/2
f 321/5/3 319/5/3 320/282/3
f 319/5/3 321/5/3 322/283/3
f 321/5/4 257/5/4 322/284/4
f 257/5/4 321/5/4 259/285/4
f 257/234/5 319/5/5 322/286/5
f 319/5/5 257/234/5 312/274/5
f 311/2/6 321/3/6 320/11/6
f 321/3/6 311/2/6 259/1/6
f 325/3/1 324/2/1 323/1/1
f 324/3/1 325/2/1 326/1/1
f 319/3/2 325/2/2 323/1/2
f 325/3/2 319/2/2 320/1/2
f 195/235/3 324/5/3 326/287/3
f 324/5/3 195/235/3 193/5/3
f 195/5/4 319/5/4 193/288/4
f 319/5/4 195/5/4 320/289/4
f 319/5/5 324/5/5 193/169/5
f 324/5/5 319/5/5 323/290/5
f 325/2/6 195/3/6 326/11/6
f 195/3/6 325/2/6 320/1/6

usemtl color9

f 124/3/1 186/2/1 123/1/1
f 186/3/1 124/2/1 185/1/1
f 127/3/2 124/2/2 123/1/2
f 124/3/2 127/2/2 129/1/2
f 188/160/3 186/156/3 185/5/3
f 186/156/3 188/160/3 187/5/3
f 188/5/4 127/5/4 187/291/4
f 127/5/4 188/5/4 129/292/4
f 127/115/5 186/158/5 187/5/5
f 186/158/5 127/115/5 123/5/5
f 124/2/6 188/3/6 185/11/6
f 188/3/6 124/2/6 129/1/6
f 329/3/1 328/2/1 327/1/1
f 328/3/1 329/2/1 330/1/1
f 181/3/2 329/2/2 327/1/2
f 329/3/2 181/2/2 183/1/2
f 184/155/3 328/5/3 330/293/3
f 328/5/3 184/155/3 182/5/3
f 184/5/4 181/5/4 182/294/4
f 181/5/4 184/5/4 183/295/4
f 181/159/5 328/5/5 182/5/5
f 328/5/5 181/159/5 327/296/5
f 329/2/6 184/3/6 330/11/6
f 184/3/6 329/2/6 183/1/6
f 310/3/1 312/2/1 309/1/1
f 312/3/1 310/2/1 311/1/1
f 313/3/2 310/2/2 309/1/2
f 310/3/2 313/2/2 314/1/2
f 262/276/3 312/271/3 311/5/3
f 312/271/3 262/276/3 261/5/3
f 262/232/4 313/5/4 261/5/4
f 313/5/4 262/232/4 314/297/4
f 313/281/5 312/274/5 261/5/5
f 312/274/5 313/281/5 309/5/5
f 310/2/6 262/3/6 311/11/6
f 262/3/6 310/2/6 314/1/6

usemtl color6

f 260/3/1 322/2/1 258/1/1
f 322/3/1 260/2/1 321/1/1
f 264/3/2 260/2/2 258/1/2
f 260/3/2 264/2/2 263/1/2
f 331/5/3 322/283/3 321/5/3
f 322/283/3 331/5/3 332/298/3
f 331/5/4 264/231/4 332/299/4
f 264/231/4 331/5/4 263/5/4
f 264/233/5 322/286/5 332/300/5
f 322/286/5 264/233/5 258/5/5
f 260/2/6 331/3/6 321/11/6
f 331/3/6 260/2/6 263/1/6
f 320/3/1 265/2/1 319/1/1
f 265/3/1 320/2/1 266/1/1
f 322/3/2 320/2/2 319/1/2
f 320/3/2 322/2/2 321/1/2
f 268/5/3 265/5/3 266/301/3
f 265/5/3 268/5/3 267/302/3
f 268/238/4 322/284/4 267/5/4
f 322/284/4 268/238/4 321/5/4
f 322/286/5 265/240/5 267/5/5
f 265/240/5 322/286/5 319/5/5
f 320/2/6 268/3/6 266/11/6
f 268/3/6 320/2/6 321/1/6

