# Created by Kenney (www.kenney.nl)

mtllib Blade 6V5 Tupacase.mtl

v 2 8 -0.25
v 2 7 -0.25
v 2 8 0.25
v 2 7 0.25
v 1 8 -0.25
v 1 8 0.25
v 1 7 0.25
v 1 7 -0.25
v 1 2 -0.25
v 1 2 0.25
v 0 7 -0.25
v 0 7 0.25
v 0 2 0.25
v 0 2 -0.25
v 3 -1 -0.75
v 3 -2 -0.75
v 3 -1 0.75
v 3 -2 0.75
v 2 -1 -0.75
v 2 -1 0.75
v 2 -2 0.75
v 2 -2 -0.75
v 2 -2 -1
v 2 -3 -1
v 2 -2 1
v 2 -3 1
v 1 -2 -1
v 1 -2 1
v 1 -3 1
v 1 -3 -1
v 2 6 -0.25
v 2 6 0.25
v 1 6 0.25
v 1 6 -0.25
v 1 -1 -0.25
v 1 -1 0.25
v 0 -1 0.25
v 0 -1 -0.25
v 0 -2 -1
v 0 -2 1
v 0 -3 1
v 0 -3 -1
v 2 6 -0.5
v 2 4 -0.5
v 2 6 0.5
v 2 4 0.5
v 1 6 -0.5
v 1 6 0.5
v 1 4 0.5
v 1 4 -0.5
v 2 3 -0.5
v 2 2 -0.5
v 2 3 0.5
v 2 2 0.5
v 1 3 -0.5
v 1 3 0.5
v 1 2 0.5
v 1 2 -0.5
v 2 1 -0.5
v 2 0 -0.5
v 2 1 0.5
v 2 0 0.5
v 1 1 -0.5
v 1 1 0.5
v 1 0 0.5
v 1 0 -0.5
v 0 -1 -0.5
v 0 -2 -0.5
v 0 -1 0.5
v 0 -2 0.5
v -1 -1 -0.5
v -1 -1 0.5
v -1 -2 0.5
v -1 -2 -0.5
v 2 -1 -0.5
v 2 -1 0.5
v 1 -1 0.5
v 1 -1 -0.5
v -1 -3 -0.5
v -1 -4 -0.5
v -1 -3 0.5
v -1 -4 0.5
v -2 -3 -0.5
v -2 -3 0.5
v -2 -4 0.5
v -2 -4 -0.5
v -1 -5 -0.5
v -1 -6 -0.5
v -1 -5 0.5
v -1 -6 0.5
v -2 -5 -0.5
v -2 -5 0.5
v -2 -6 0.5
v -2 -6 -0.5
v 1 -1 -0.75
v 1 -1 0.75
v 1 -2 0.75
v 1 -2 -0.75
v 2 -4 -0.75
v 2 -6 -0.75
v 2 -4 0.75
v 2 -6 0.75
v 1 -4 -0.75
v 1 -4 0.75
v 1 -6 0.75
v 1 -6 -0.75
v 0 -1 -0.75
v 0 -1 0.75
v 0 -2 0.75
v 0 -2 -0.75
v 1 -3 -0.75
v 1 -7 -0.75
v 1 -3 0.75
v 1 -7 0.75
v 0 -3 -0.75
v 0 -3 0.75
v 0 -7 0.75
v 0 -7 -0.75
v 2 -7 -0.5
v 2 -8 -0.5
v 2 -7 0.5
v 2 -8 0.5
v 1 -7 -0.5
v 1 -7 0.5
v 1 -8 0.5
v 1 -8 -0.5
v 0 -3 -0.5
v 0 -3 0.5
v 2 -3 -0.75
v 2 -3 0.75
v 0 -4 -0.5
v 0 -5 -0.5
v 0 -4 0.5
v 0 -5 0.5
v 2 -7 -0.75
v 2 -7 0.75
v 0 -6 -0.5
v 0 -7 -0.5
v 0 -6 0.5
v 0 -7 0.5
v -1 -7 0.5
v -1 -7 -0.5
v 0 -8 0.5
v 0 -8 -0.5

vn 1 0 0
vn 0 1 0
vn 0 -1 0
vn -1 0 0
vn 0 0 -1
vn 0 0 1

vt -19.68504 19.68504
vt 19.68504 19.68504
vt -19.68504 -19.68504
vt 0 NaN
vt 0 0
vt 0 NaN
vt 0 NaN
vt 0 NaN
vt 0 NaN
vt 0 NaN
vt 19.68504 -19.68504
vt 0 NaN
vt 0 NaN
vt 0 NaN
vt 0 NaN
vt 0 NaN
vt 0 NaN
vt 0 NaN
vt 0 NaN
vt 0 NaN
vt 0 NaN
vt 0 NaN
vt 0 NaN
vt 0 NaN
vt 0 NaN
vt 0 NaN
vt 0 NaN
vt 0 NaN
vt 0 NaN
vt 0 NaN
vt 0 NaN
vt 0 NaN
vt 0 NaN
vt 0 NaN
vt 0 NaN
vt 0 NaN
vt 0 NaN
vt 0 NaN
vt 0 NaN
vt 0 NaN
vt 0 NaN
vt 0 NaN
vt 0 NaN
vt 0 NaN
vt 0 NaN
vt 0 NaN
vt 0 NaN
vt 0 NaN
vt 0 NaN
vt 0 NaN
vt 0 NaN
vt 0 NaN
vt 0 NaN
vt 0 NaN
vt 0 NaN
vt 0 NaN
vt 0 NaN
vt 0 NaN
vt 0 NaN
vt 0 NaN
vt 0 NaN
vt 0 NaN
vt 0 NaN
vt 0 NaN
vt 0 NaN
vt 0 NaN
vt 0 NaN
vt 0 NaN
vt 0 NaN
vt 0 NaN
vt 0 NaN
vt 0 NaN
vt 0 NaN
vt 0 NaN
vt 0 NaN
vt 0 NaN
vt 0 NaN
vt 0 NaN
vt 0 NaN
vt 0 NaN
vt 0 NaN
vt 0 NaN
vt 0 NaN
vt 0 NaN
vt 0 NaN
vt 0 NaN
vt 0 NaN
vt 0 NaN
vt 0 NaN
vt 0 NaN
vt 0 NaN
vt 0 NaN
vt 0 NaN
vt 0 NaN
vt 0 NaN
vt 0 NaN
vt 0 NaN
vt 0 NaN
vt 0 NaN
vt 0 NaN
vt 0 NaN
vt 0 NaN
vt 0 NaN
vt 0 NaN
vt 0 NaN
vt 0 NaN
vt 0 NaN
vt 0 NaN
vt 0 NaN
vt 0 NaN
vt 0 NaN
vt 0 NaN
vt 0 NaN
vt 0 NaN
vt 0 NaN
vt 0 NaN
vt 0 NaN
vt 0 NaN
vt 0 NaN
vt 0 NaN
vt 0 NaN
vt 0 NaN
vt 0 NaN
vt 0 NaN
vt 0 NaN
vt 0 NaN
vt 0 NaN
vt 0 NaN
vt 0 NaN
vt 0 NaN
vt 0 NaN
vt 0 NaN
vt 0 NaN
vt 0 NaN

usemtl color7

f 3/3/1 2/2/1 1/1/1
f 2/3/1 3/2/1 4/1/1
f 5/3/2 3/2/2 1/1/2
f 3/3/2 5/2/2 6/1/2
f 7/5/3 2/5/3 4/4/3
f 2/5/3 7/5/3 8/6/3
f 7/5/4 5/5/4 8/7/4
f 5/5/4 7/5/4 6/8/4
f 5/5/5 2/5/5 8/9/5
f 2/5/5 5/5/5 1/10/5
f 3/2/6 7/3/6 4/11/6
f 7/3/6 3/2/6 6/1/6
f 7/3/1 9/2/1 8/1/1
f 9/3/1 7/2/1 10/1/1
f 11/3/2 7/2/2 8/1/2
f 7/3/2 11/2/2 12/1/2
f 13/5/3 9/5/3 10/12/3
f 9/5/3 13/5/3 14/13/3
f 13/5/4 11/5/4 14/14/4
f 11/5/4 13/5/4 12/15/4
f 11/5/5 9/5/5 14/16/5
f 9/5/5 11/5/5 8/9/5
f 7/2/6 13/3/6 10/11/6
f 13/3/6 7/2/6 12/1/6
f 17/3/1 16/2/1 15/1/1
f 16/3/1 17/2/1 18/1/1
f 19/3/2 17/2/2 15/1/2
f 17/3/2 19/2/2 20/1/2
f 21/5/3 16/5/3 18/17/3
f 16/5/3 21/5/3 22/18/3
f 21/5/4 19/5/4 22/19/4
f 19/5/4 21/5/4 20/20/4
f 19/5/5 16/5/5 22/21/5
f 16/5/5 19/5/5 15/22/5
f 17/2/6 21/3/6 18/11/6
f 21/3/6 17/2/6 20/1/6
f 25/3/1 24/2/1 23/1/1
f 24/3/1 25/2/1 26/1/1
f 27/3/2 25/2/2 23/1/2
f 25/3/2 27/2/2 28/1/2
f 29/5/3 24/5/3 26/23/3
f 24/5/3 29/5/3 30/24/3
f 29/5/4 27/5/4 30/25/4
f 27/5/4 29/5/4 28/26/4
f 27/5/5 24/5/5 30/27/5
f 24/5/5 27/5/5 23/28/5
f 25/2/6 29/3/6 26/11/6
f 29/3/6 25/2/6 28/1/6

usemtl color8

f 4/3/1 31/2/1 2/1/1
f 31/3/1 4/2/1 32/1/1
f 8/3/2 4/2/2 2/1/2
f 4/3/2 8/2/2 7/1/2
f 33/5/3 31/5/3 32/29/3
f 31/5/3 33/5/3 34/30/3
f 33/5/4 8/7/4 34/31/4
f 8/7/4 33/5/4 7/5/4
f 8/9/5 31/5/5 34/32/5
f 31/5/5 8/9/5 2/5/5
f 4/2/6 33/3/6 32/11/6
f 33/3/6 4/2/6 7/1/6
f 10/3/1 35/2/1 9/1/1
f 35/3/1 10/2/1 36/1/1
f 14/3/2 10/2/2 9/1/2
f 10/3/2 14/2/2 13/1/2
f 37/5/3 35/5/3 36/33/3
f 35/5/3 37/5/3 38/34/3
f 37/5/4 14/14/4 38/35/4
f 14/14/4 37/5/4 13/5/4
f 14/16/5 35/5/5 38/36/5
f 35/5/5 14/16/5 9/5/5
f 10/2/6 37/3/6 36/11/6
f 37/3/6 10/2/6 13/1/6
f 28/3/1 30/2/1 27/1/1
f 30/3/1 28/2/1 29/1/1
f 39/3/2 28/2/2 27/1/2
f 28/3/2 39/2/2 40/1/2
f 41/5/3 30/24/3 29/5/3
f 30/24/3 41/5/3 42/37/3
f 41/5/4 39/5/4 42/38/4
f 39/5/4 41/5/4 40/39/4
f 39/5/5 30/27/5 42/40/5
f 30/27/5 39/5/5 27/5/5
f 28/2/6 41/3/6 29/11/6
f 41/3/6 28/2/6 40/1/6

usemtl color9

f 45/3/1 44/2/1 43/1/1
f 44/3/1 45/2/1 46/1/1
f 47/3/2 45/2/2 43/1/2
f 45/3/2 47/2/2 48/1/2
f 49/5/3 44/5/3 46/41/3
f 44/5/3 49/5/3 50/42/3
f 49/5/4 47/5/4 50/43/4
f 47/5/4 49/5/4 48/44/4
f 47/5/5 44/5/5 50/45/5
f 44/5/5 47/5/5 43/46/5
f 45/2/6 49/3/6 46/11/6
f 49/3/6 45/2/6 48/1/6
f 53/3/1 52/2/1 51/1/1
f 52/3/1 53/2/1 54/1/1
f 55/3/2 53/2/2 51/1/2
f 53/3/2 55/2/2 56/1/2
f 57/5/3 52/5/3 54/47/3
f 52/5/3 57/5/3 58/48/3
f 57/5/4 55/5/4 58/49/4
f 55/5/4 57/5/4 56/50/4
f 55/5/5 52/5/5 58/51/5
f 52/5/5 55/5/5 51/52/5
f 53/2/6 57/3/6 54/11/6
f 57/3/6 53/2/6 56/1/6
f 61/3/1 60/2/1 59/1/1
f 60/3/1 61/2/1 62/1/1
f 63/3/2 61/2/2 59/1/2
f 61/3/2 63/2/2 64/1/2
f 65/5/3 60/5/3 62/53/3
f 60/5/3 65/5/3 66/54/3
f 65/5/4 63/5/4 66/55/4
f 63/5/4 65/5/4 64/56/4
f 63/5/5 60/5/5 66/57/5
f 60/5/5 63/5/5 59/58/5
f 61/2/6 65/3/6 62/11/6
f 65/3/6 61/2/6 64/1/6
f 69/3/1 68/2/1 67/1/1
f 68/3/1 69/2/1 70/1/1
f 71/3/2 69/2/2 67/1/2
f 69/3/2 71/2/2 72/1/2
f 73/5/3 68/5/3 70/59/3
f 68/5/3 73/5/3 74/60/3
f 73/5/4 71/5/4 74/61/4
f 71/5/4 73/5/4 72/62/4
f 71/5/5 68/5/5 74/63/5
f 68/5/5 71/5/5 67/64/5
f 69/2/6 73/3/6 70/11/6
f 73/3/6 69/2/6 72/1/6

usemtl color6

f 46/3/1 51/2/1 44/1/1
f 51/3/1 46/2/1 53/1/1
f 50/3/2 46/2/2 44/1/2
f 46/3/2 50/2/2 49/1/2
f 56/5/3 51/5/3 53/65/3
f 51/5/3 56/5/3 55/66/3
f 56/50/4 50/43/4 55/5/4
f 50/43/4 56/50/4 49/5/4
f 50/45/5 51/52/5 55/5/5
f 51/52/5 50/45/5 44/5/5
f 46/2/6 56/3/6 53/11/6
f 56/3/6 46/2/6 49/1/6
f 54/3/1 59/2/1 52/1/1
f 59/3/1 54/2/1 61/1/1
f 58/3/2 54/2/2 52/1/2
f 54/3/2 58/2/2 57/1/2
f 64/5/3 59/5/3 61/67/3
f 59/5/3 64/5/3 63/68/3
f 64/56/4 58/49/4 63/5/4
f 58/49/4 64/56/4 57/5/4
f 58/51/5 59/58/5 63/5/5
f 59/58/5 58/51/5 52/5/5
f 54/2/6 64/3/6 61/11/6
f 64/3/6 54/2/6 57/1/6
f 62/3/1 75/2/1 60/1/1
f 75/3/1 62/2/1 76/1/1
f 66/3/2 62/2/2 60/1/2
f 62/3/2 66/2/2 65/1/2
f 77/5/3 75/5/3 76/69/3
f 75/5/3 77/5/3 78/70/3
f 77/5/4 66/55/4 78/71/4
f 66/55/4 77/5/4 65/5/4
f 66/57/5 75/5/5 78/72/5
f 75/5/5 66/57/5 60/5/5
f 62/2/6 77/3/6 76/11/6
f 77/3/6 62/2/6 65/1/6
f 81/3/1 80/2/1 79/1/1
f 80/3/1 81/2/1 82/1/1
f 83/3/2 81/2/2 79/1/2
f 81/3/2 83/2/2 84/1/2
f 85/5/3 80/5/3 82/73/3
f 80/5/3 85/5/3 86/74/3
f 85/5/4 83/5/4 86/75/4
f 83/5/4 85/5/4 84/76/4
f 83/5/5 80/5/5 86/77/5
f 80/5/5 83/5/5 79/78/5
f 81/2/6 85/3/6 82/11/6
f 85/3/6 81/2/6 84/1/6
f 89/3/1 88/2/1 87/1/1
f 88/3/1 89/2/1 90/1/1
f 91/3/2 89/2/2 87/1/2
f 89/3/2 91/2/2 92/1/2
f 93/5/3 88/5/3 90/79/3
f 88/5/3 93/5/3 94/80/3
f 93/5/4 91/5/4 94/81/4
f 91/5/4 93/5/4 92/82/4
f 91/5/5 88/5/5 94/83/5
f 88/5/5 91/5/5 87/84/5
f 89/2/6 93/3/6 90/11/6
f 93/3/6 89/2/6 92/1/6

usemtl color5

f 20/3/1 22/2/1 19/1/1
f 22/3/1 20/2/1 21/1/1
f 95/3/2 20/2/2 19/1/2
f 20/3/2 95/2/2 96/1/2
f 97/5/3 22/18/3 21/5/3
f 22/18/3 97/5/3 98/85/3
f 97/5/4 95/5/4 98/86/4
f 95/5/4 97/5/4 96/87/4
f 95/5/5 22/21/5 98/88/5
f 22/21/5 95/5/5 19/5/5
f 20/2/6 97/3/6 21/11/6
f 97/3/6 20/2/6 96/1/6
f 101/3/1 100/2/1 99/1/1
f 100/3/1 101/2/1 102/1/1
f 103/3/2 101/2/2 99/1/2
f 101/3/2 103/2/2 104/1/2
f 105/5/3 100/5/3 102/89/3
f 100/5/3 105/5/3 106/90/3
f 105/5/4 103/5/4 106/91/4
f 103/5/4 105/5/4 104/92/4
f 103/5/5 100/5/5 106/93/5
f 100/5/5 103/5/5 99/94/5
f 101/2/6 105/3/6 102/11/6
f 105/3/6 101/2/6 104/1/6

usemtl color2

f 96/3/1 98/2/1 95/1/1
f 98/3/1 96/2/1 97/1/1
f 107/3/2 96/2/2 95/1/2
f 96/3/2 107/2/2 108/1/2
f 109/5/3 98/85/3 97/5/3
f 98/85/3 109/5/3 110/95/3
f 109/5/4 107/5/4 110/96/4
f 107/5/4 109/5/4 108/97/4
f 107/5/5 98/88/5 110/98/5
f 98/88/5 107/5/5 95/5/5
f 96/2/6 109/3/6 97/11/6
f 109/3/6 96/2/6 108/1/6
f 113/3/1 112/2/1 111/1/1
f 112/3/1 113/2/1 114/1/1
f 115/3/2 113/2/2 111/1/2
f 113/3/2 115/2/2 116/1/2
f 117/5/3 112/5/3 114/99/3
f 112/5/3 117/5/3 118/100/3
f 117/5/4 115/5/4 118/101/4
f 115/5/4 117/5/4 116/102/4
f 115/5/5 112/5/5 118/103/5
f 112/5/5 115/5/5 111/104/5
f 113/2/6 117/3/6 114/11/6
f 117/3/6 113/2/6 116/1/6
f 121/3/1 120/2/1 119/1/1
f 120/3/1 121/2/1 122/1/1
f 123/3/2 121/2/2 119/1/2
f 121/3/2 123/2/2 124/1/2
f 125/5/3 120/5/3 122/105/3
f 120/5/3 125/5/3 126/106/3
f 125/5/4 123/5/4 126/107/4
f 123/5/4 125/5/4 124/108/4
f 123/5/5 120/5/5 126/109/5
f 120/5/5 123/5/5 119/110/5
f 121/2/6 125/3/6 122/11/6
f 125/3/6 121/2/6 124/1/6

usemtl color4

f 70/3/1 127/2/1 68/1/1
f 127/3/1 70/2/1 128/1/1
f 74/3/2 70/2/2 68/1/2
f 70/3/2 74/2/2 73/1/2
f 81/5/3 127/5/3 128/111/3
f 127/5/3 81/5/3 79/112/3
f 81/5/4 74/61/4 79/113/4
f 74/61/4 81/5/4 73/5/4
f 74/63/5 127/5/5 79/78/5
f 127/5/5 74/63/5 68/5/5
f 70/2/6 81/3/6 128/11/6
f 81/3/6 70/2/6 73/1/6
f 130/3/1 99/2/1 129/1/1
f 99/3/1 130/2/1 101/1/1
f 111/3/2 130/2/2 129/1/2
f 130/3/2 111/2/2 113/1/2
f 104/5/3 99/5/3 101/114/3
f 99/5/3 104/5/3 103/115/3
f 104/92/4 111/5/4 103/5/4
f 111/5/4 104/92/4 113/116/4
f 111/104/5 99/94/5 103/5/5
f 99/94/5 111/104/5 129/117/5
f 130/2/6 104/3/6 101/11/6
f 104/3/6 130/2/6 113/1/6
f 133/3/1 132/2/1 131/1/1
f 132/3/1 133/2/1 134/1/1
f 80/3/2 133/2/2 131/1/2
f 133/3/2 80/2/2 82/1/2
f 89/5/3 132/5/3 134/118/3
f 132/5/3 89/5/3 87/119/3
f 89/5/4 80/5/4 87/120/4
f 80/5/4 89/5/4 82/121/4
f 80/5/5 132/5/5 87/84/5
f 132/5/5 80/5/5 131/122/5
f 133/2/6 89/3/6 134/11/6
f 89/3/6 133/2/6 82/1/6
f 102/3/1 135/2/1 100/1/1
f 135/3/1 102/2/1 136/1/1
f 106/3/2 102/2/2 100/1/2
f 102/3/2 106/2/2 105/1/2
f 114/99/3 135/5/3 136/123/3
f 135/5/3 114/99/3 112/5/3
f 114/5/4 106/91/4 112/124/4
f 106/91/4 114/5/4 105/5/4
f 106/93/5 135/5/5 112/5/5
f 135/5/5 106/93/5 100/5/5
f 102/2/6 114/3/6 136/11/6
f 114/3/6 102/2/6 105/1/6
f 139/3/1 138/2/1 137/1/1
f 138/3/1 139/2/1 140/1/1
f 88/3/2 139/2/2 137/1/2
f 139/3/2 88/2/2 90/1/2
f 141/5/3 138/5/3 140/125/3
f 138/5/3 141/5/3 142/126/3
f 141/5/4 88/5/4 142/127/4
f 88/5/4 141/5/4 90/128/4
f 88/5/5 138/5/5 142/129/5
f 138/5/5 88/5/5 137/130/5
f 139/2/6 141/3/6 140/11/6
f 141/3/6 139/2/6 90/1/6

usemtl color3

f 124/3/1 126/2/1 123/1/1
f 126/3/1 124/2/1 125/1/1
f 138/3/2 124/2/2 123/1/2
f 124/3/2 138/2/2 140/1/2
f 143/5/3 126/106/3 125/5/3
f 126/106/3 143/5/3 144/131/3
f 143/5/4 138/5/4 144/132/4
f 138/5/4 143/5/4 140/133/4
f 138/5/5 126/109/5 144/134/5
f 126/109/5 138/5/5 123/5/5
f 124/2/6 143/3/6 125/11/6
f 143/3/6 124/2/6 140/1/6

