# Created by Kenney (www.kenney.nl)

mtllib Blaster S32 Trelod.mtl

v 0 8 -1
v 0 7 -1
v 0 8 1
v 0 7 1
v -1 8 -1
v -1 8 1
v -1 7 1
v -1 7 -1
v 1 7 -1
v 1 6 -1
v 1 7 1
v 1 6 1
v 0 6 1
v 0 6 -1
v -1 7 -0.5
v -1 6 -0.5
v -1 7 0.5
v -1 6 0.5
v -2 7 -0.5
v -2 7 0.5
v -2 6 0.5
v -2 6 -0.5
v 12 6 -1
v 12 5 -1
v 12 6 1
v 12 5 1
v 8 6 -1
v 8 6 1
v 8 5 1
v 8 5 -1
v 13 5 -1
v 13 4 -1
v 13 5 1
v 13 4 1
v 12 4 1
v 12 4 -1
v 8 5 -0.5
v 8 4 -0.5
v 8 5 0.5
v 8 4 0.5
v 7 5 -0.5
v 7 5 0.5
v 7 4 0.5
v 7 4 -0.5
v 8 4 -1
v 8 3 -1
v 8 4 1
v 8 3 1
v 7 4 -1
v 7 4 1
v 7 3 1
v 7 3 -1
v 2 4 -1
v 2 3 -1
v 2 4 1
v 2 3 1
v 1 4 -1
v 1 4 1
v 1 3 1
v 1 3 -1
v 9 2 -3
v 9 1 -3
v 9 2 3
v 9 1 3
v 8 2 -3
v 8 2 3
v 8 1 3
v 8 1 -3
v 0 2 -3
v 0 1 -3
v 0 2 3
v 0 1 3
v -1 2 -3
v -1 2 3
v -1 1 3
v -1 1 -3
v -7 1 -2
v -7 0 -2
v -7 1 2
v -7 0 2
v -8 1 -2
v -8 1 2
v -8 0 2
v -8 0 -2
v 18 0 -1
v 18 -1 -1
v 18 0 1
v 18 -1 1
v 17 0 -1
v 17 0 1
v 17 -1 1
v 17 -1 -1
v -8 -1 -2
v -8 -1 2
v -9 0 -2
v -9 0 2
v -9 -1 2
v -9 -1 -2
v -10 0 -1.5
v -10 -1 -1.5
v -10 0 1.5
v -10 -1 1.5
v -11 0 -1.5
v -11 0 1.5
v -11 -1 1.5
v -11 -1 -1.5
v -14 0 -1
v -14 -1 -1
v -14 0 1
v -14 -1 1
v -15 0 -1
v -15 0 1
v -15 -1 1
v -15 -1 -1
v -16 0 -1
v -16 -1 -1
v -16 0 1
v -16 -1 1
v -17 0 -1
v -17 0 1
v -17 -1 1
v -17 -1 -1
v 18 -2 -1
v 18 -3 -1
v 18 -2 1
v 18 -3 1
v 17 -2 -1
v 17 -2 1
v 17 -3 1
v 17 -3 -1
v -3 -2 -2
v -3 -3 -2
v -3 -2 2
v -3 -3 2
v -4 -2 -2
v -4 -2 2
v -4 -3 2
v -4 -3 -2
v -5 -2 -2
v -5 -3 -2
v -5 -2 2
v -5 -3 2
v -6 -2 -2
v -6 -2 2
v -6 -3 2
v -6 -3 -2
v -15 -2 -1
v -15 -3 -1
v -15 -2 1
v -15 -3 1
v -16 -2 -1
v -16 -2 1
v -16 -3 1
v -16 -3 -1
v -7 -3 -2
v -7 -4 -2
v -7 -3 2
v -7 -4 2
v -8 -3 -2
v -8 -3 2
v -8 -4 2
v -8 -4 -2
v -2 8 -1
v -2 8 1
v -2 7 1
v -2 7 -1
v 12 7 -0.5
v 12 6 -0.5
v 12 7 0.5
v 12 6 0.5
v 10 7 -0.5
v 10 7 0.5
v 10 6 0.5
v 10 6 -0.5
v 8 6 -0.5
v 8 6 0.5
v 7 6 -0.5
v 7 6 0.5
v 6 2 -3
v 6 1 -3
v 6 2 3
v 6 1 3
v 5 2 -3
v 5 2 3
v 5 1 3
v 5 1 -3
v 4 2 -3
v 4 1 -3
v 4 2 3
v 4 1 3
v 3 2 -3
v 3 2 3
v 3 1 3
v 3 1 -3
v -8 2 -1
v -8 1 -1
v -8 2 1
v -8 1 1
v -9 2 -1
v -9 2 1
v -9 1 1
v -9 1 -1
v -9 0 -1
v -9 0 1
v -10 1 -1
v -10 1 1
v -10 0 1
v -10 0 -1
v 3 0 -3.5
v 3 -1 -3.5
v 3 0 3.5
v 3 -1 3.5
v 2 0 -3.5
v 2 0 3.5
v 2 -1 3.5
v 2 -1 -3.5
v 1 0 -3.5
v 1 -1 -3.5
v 1 0 3.5
v 1 -1 3.5
v 0 0 -3.5
v 0 0 3.5
v 0 -1 3.5
v 0 -1 -3.5
v -1 0 -2
v -1 -1 -2
v -1 0 2
v -1 -1 2
v -2 0 -2
v -2 0 2
v -2 -1 2
v -2 -1 -2
v -3 0 -2
v -3 -1 -2
v -3 0 2
v -3 -1 2
v -4 0 -2
v -4 0 2
v -4 -1 2
v -4 -1 -2
v -5 0 -2
v -5 -1 -2
v -5 0 2
v -5 -1 2
v -6 0 -2
v -6 0 2
v -6 -1 2
v -6 -1 -2
v 8 -1 -3.5
v 8 -2 -3.5
v 8 -1 3.5
v 8 -2 3.5
v 7 -1 -3.5
v 7 -1 3.5
v 7 -2 3.5
v 7 -2 -3.5
v 6 -1 -3.5
v 6 -2 -3.5
v 6 -1 3.5
v 6 -2 3.5
v 5 -1 -3.5
v 5 -1 3.5
v 5 -2 3.5
v 5 -2 -3.5
v 7 -3 -3
v 7 -4 -3
v 7 -3 3
v 7 -4 3
v 6 -3 -3
v 6 -3 3
v 6 -4 3
v 6 -4 -3
v 3 -3 -3
v 3 -4 -3
v 3 -3 3
v 3 -4 3
v 2 -3 -3
v 2 -3 3
v 2 -4 3
v 2 -4 -3
v 1 -3 -3
v 1 -4 -3
v 1 -3 3
v 1 -4 3
v 0 -3 -3
v 0 -3 3
v 0 -4 3
v 0 -4 -3
v 9 7 -0.5
v 9 7 0.5
v 9 6 0.5
v 9 6 -0.5
v -10 -1 -2
v -10 -2 -2
v -10 -1 2
v -10 -2 2
v -11 -1 -2
v -11 -1 2
v -11 -2 2
v -11 -2 -2
v 8 7 -0.5
v 8 7 0.5
v 12 -6 -2
v 12 -7 -2
v 12 -6 2
v 12 -7 2
v 11 -6 -2
v 11 -6 2
v 11 -7 2
v 11 -7 -2
v -1 6 1
v -1 6 -1
v 13 6 -0.5
v 13 5 -0.5
v 13 6 0.5
v 13 5 0.5
v 12 5 0.5
v 12 5 -0.5
v 1 5 -1
v 1 5 1
v 0 5 1
v 0 5 -1
v 14 5 -0.5
v 14 4 -0.5
v 14 5 0.5
v 14 4 0.5
v 13 4 0.5
v 13 4 -0.5
v 9 5 -1
v 9 4 -1
v 9 5 1
v 9 4 1
v 0 5 -0.5
v 0 3 -0.5
v 0 5 0.5
v 0 3 0.5
v -1 5 -0.5
v -1 5 0.5
v -1 3 0.5
v -1 3 -0.5
v 15 4 -0.5
v 15 2 -0.5
v 15 4 0.5
v 15 2 0.5
v 14 2 0.5
v 14 2 -0.5
v 9 3 -2
v 9 2 -2
v 9 3 2
v 9 2 2
v 7 3 -2
v 7 3 2
v 7 2 2
v 7 2 -2
v 6 3 -2
v 6 2 -2
v 6 3 2
v 6 2 2
v 3 3 -2
v 3 3 2
v 3 2 2
v 3 2 -2
v 2 3 -2
v 2 2 -2
v 2 3 2
v 2 2 2
v 1 3 -2
v 1 3 2
v 1 2 2
v 1 2 -2
v 15 2 -1.5
v 15 1 -1.5
v 15 2 1.5
v 15 1 1.5
v 14 2 -1.5
v 14 2 1.5
v 14 1 1.5
v 14 1 -1.5
v 10 2 -2
v 10 1 -2
v 10 2 2
v 10 1 2
v 9 1 2
v 9 1 -2
v -2 2 -1
v -2 1 -1
v -2 2 1
v -2 1 1
v -3 2 -1
v -3 2 1
v -3 1 1
v -3 1 -1
v -4 2 -1
v -4 1 -1
v -4 2 1
v -4 1 1
v -5 2 -1
v -5 2 1
v -5 1 1
v -5 1 -1
v 17 1 -1
v 17 1 1
v 15 1 -1
v 15 1 1
v 15 0 1
v 15 0 -1
v 14 1 -2.5
v 14 0 -2.5
v 14 1 2.5
v 14 0 2.5
v 9 1 -2.5
v 9 1 2.5
v 9 0 2.5
v 9 0 -2.5
v -1 1 -1.5
v -1 0 -1.5
v -1 1 1.5
v -1 0 1.5
v -2 1 -1.5
v -2 1 1.5
v -2 0 1.5
v -2 0 -1.5
v -3 1 -1.5
v -3 0 -1.5
v -3 1 1.5
v -3 0 1.5
v -4 1 -1.5
v -4 1 1.5
v -4 0 1.5
v -4 0 -1.5
v -5 1 -1.5
v -5 0 -1.5
v -5 1 1.5
v -5 0 1.5
v -6 1 -1.5
v -6 1 1.5
v -6 0 1.5
v -6 0 -1.5
v 15 0 -1.5
v 15 -1 -1.5
v 15 0 1.5
v 15 -1 1.5
v 14 0 -1.5
v 14 0 1.5
v 14 -1 1.5
v 14 -1 -1.5
v 18 -1 -1.5
v 18 -2 -1.5
v 18 -1 1.5
v 18 -2 1.5
v 15 -2 1.5
v 15 -2 -1.5
v 15 -3 -1.5
v 15 -3 1.5
v 14 -2 -1.5
v 14 -2 1.5
v 14 -3 1.5
v 14 -3 -1.5
v -14 -2 -1
v -14 -3 -1
v -14 -2 1
v -14 -3 1
v -17 -2 -1
v -17 -2 1
v -17 -3 1
v -17 -3 -1
v 17 -4 -1
v 17 -4 1
v 15 -3 -1
v 15 -3 1
v 15 -4 1
v 15 -4 -1
v -3 -3 -1.5
v -3 -4 -1.5
v -3 -3 1.5
v -3 -4 1.5
v -4 -3 -1.5
v -4 -3 1.5
v -4 -4 1.5
v -4 -4 -1.5
v -5 -3 -1.5
v -5 -4 -1.5
v -5 -3 1.5
v -5 -4 1.5
v -6 -3 -1.5
v -6 -3 1.5
v -6 -4 1.5
v -6 -4 -1.5
v -3 7 -0.5
v -3 7 0.5
v -3 6 0.5
v -3 6 -0.5
v 3 1 -3.5
v 3 1 3.5
v 2 1 -3.5
v 2 1 3.5
v 1 1 -3.5
v 1 1 3.5
v 0 1 -3.5
v 0 1 3.5
v 3 -2 -3.5
v 3 -2 3.5
v 2 -2 3.5
v 2 -2 -3.5
v 1 -2 -3.5
v 1 -2 3.5
v 0 -2 3.5
v 0 -2 -3.5
v 14 -5 -1
v 14 -6 -1
v 14 -5 1
v 14 -6 1
v 13 -5 -1
v 13 -5 1
v 13 -6 1
v 13 -6 -1
v 12 -5 -2
v 12 -5 2
v 11 -5 -2
v 11 -5 2
v 10 -5 -1
v 10 -6 -1
v 10 -5 1
v 10 -6 1
v 9 -5 -1
v 9 -5 1
v 9 -6 1
v 9 -6 -1
v 0 6 -0.5
v 0 6 0.5
v 0 3 1
v 0 3 -1
v 14 4 -1
v 14 2 -1
v 14 4 1
v 14 2 1
v 13 2 1
v 13 2 -1
v 9 3 -1
v 9 3 1
v 10 3 -2
v 10 3 2
v -1 3 -2
v -1 3 2
v -1 2 2
v -1 2 -2
v 14 2 -2
v 14 1 -2
v 14 2 2
v 14 1 2
v 8 0 -3
v 8 -1 -3
v 8 0 3
v 8 -1 3
v 7 0 -3
v 7 0 3
v 7 -1 3
v 7 -1 -3
v -6 -1 -2.5
v -6 -2 -2.5
v -6 -1 2.5
v -6 -2 2.5
v -7 -1 -2.5
v -7 -1 2.5
v -7 -2 2.5
v -7 -2 -2.5
v 15 -4 -1.5
v 15 -4 1.5
v 14 -4 1.5
v 14 -4 -1.5
v -9 -1 -2.5
v -9 -2 -2.5
v -9 -1 2.5
v -9 -2 2.5
v -10 -1 -2.5
v -10 -1 2.5
v -10 -2 2.5
v -10 -2 -2.5
v 14 -2 -1
v 14 -3 -1
v 14 -2 1
v 14 -3 1
v 13 -2 -1
v 13 -2 1
v 13 -3 1
v 13 -3 -1
v 10 -2 -1
v 10 -3 -1
v 10 -2 1
v 10 -3 1
v 9 -2 -1
v 9 -2 1
v 9 -3 1
v 9 -3 -1
v 14 -7 -1
v 14 -7 1
v 13 -7 1
v 13 -7 -1
v 10 -7 -1
v 10 -7 1
v 9 -7 1
v 9 -7 -1
v -6 2 -1
v -6 1 -1
v -6 2 1
v -6 1 1
v -7 2 -1
v -7 2 1
v -7 1 1
v -7 1 -1
v -6 1 -2
v -6 1 2
v -7 0 -2.5
v -7 0 2.5
v -8 0 -2.5
v -8 0 2.5
v -8 -1 2.5
v -8 -1 -2.5
v -11 -2 -1.5
v -11 -2 1.5
v -12 0 -1.5
v -12 0 1.5
v -12 -2 1.5
v -12 -2 -1.5
v 12 -1 -2.5
v 12 -2 -2.5
v 12 -1 2.5
v 12 -2 2.5
v 11 -1 -2.5
v 11 -1 2.5
v 11 -2 2.5
v 11 -2 -2.5
v -1 -2 -2
v -1 -3 -2
v -1 -2 2
v -1 -3 2
v -2 -2 -2
v -2 -2 2
v -2 -3 2
v -2 -3 -2
v -7 -3 -2.5
v -7 -3 2.5
v -8 -2 -2.5
v -8 -2 2.5
v -8 -3 2.5
v -8 -3 -2.5
v -8 -2 -2
v -8 -2 2
v -9 -2 -2
v -9 -2 2
v -9 -3 2
v -9 -3 -2
v -6 -4 -2
v -6 -4 2
v 7 2 -3
v 7 2 3
v 7 1 3
v 7 1 -3
v 2 2 -3
v 2 2 3
v 2 1 3
v 2 1 -3
v 1 2 -3
v 1 1 -3
v 1 2 3
v 1 1 3
v 8 1 -3.5
v 8 0 -3.5
v 8 1 3.5
v 8 0 3.5
v 7 1 -3.5
v 7 1 3.5
v 7 0 3.5
v 7 0 -3.5
v 6 1 -3.5
v 6 0 -3.5
v 6 1 3.5
v 6 0 3.5
v 5 1 -3.5
v 5 1 3.5
v 5 0 3.5
v 5 0 -3.5
v 13 0 -2
v 13 -1 -2
v 13 0 2
v 13 -1 2
v 12 0 -2
v 12 0 2
v 12 -1 2
v 12 -1 -2
v 11 0 -2
v 11 -1 -2
v 11 0 2
v 11 -1 2
v 10 0 -2
v 10 0 2
v 10 -1 2
v 10 -1 -2
v 4 0 -3.5
v 4 0 3.5
v 4 -1 3.5
v 4 -1 -3.5
v 16 0 -2
v 16 -1 -2
v 16 0 2
v 16 -1 2
v 15 0 -2
v 15 0 2
v 15 -1 2
v 15 -1 -2
v -2 0 -2.5
v -2 -1 -2.5
v -2 0 2.5
v -2 -1 2.5
v -3 0 -2.5
v -3 0 2.5
v -3 -1 2.5
v -3 -1 -2.5
v -4 0 -2.5
v -4 -1 -2.5
v -4 0 2.5
v -4 -1 2.5
v -5 0 -2.5
v -5 0 2.5
v -5 -1 2.5
v -5 -1 -2.5
v -10 0 -2
v -10 0 2
v -12 0 -1
v -12 -1 -1
v -12 0 1
v -12 -1 1
v -13 0 -1
v -13 0 1
v -13 -1 1
v -13 -1 -1
v -16 -1 -0.5
v -16 -2 -0.5
v -16 -1 0.5
v -16 -2 0.5
v -17 -1 -0.5
v -17 -1 0.5
v -17 -2 0.5
v -17 -2 -0.5
v 16 -2 -2
v 16 -3 -2
v 16 -2 2
v 16 -3 2
v 15 -2 -2
v 15 -2 2
v 15 -3 2
v 15 -3 -2
v -2 -2 -2.5
v -2 -3 -2.5
v -2 -2 2.5
v -2 -3 2.5
v -3 -2 -2.5
v -3 -2 2.5
v -3 -3 2.5
v -3 -3 -2.5
v -4 -2 -2.5
v -4 -3 -2.5
v -4 -2 2.5
v -4 -3 2.5
v -5 -2 -2.5
v -5 -2 2.5
v -5 -3 2.5
v -5 -3 -2.5
v -10 -3 2
v -10 -3 -2
v -7 -4 -1
v -7 -5 -1
v -7 -4 1
v -7 -5 1
v -8 -4 -1
v -8 -4 1
v -8 -5 1
v -8 -5 -1
v 9 -2 -3
v 9 -2 3
v 8 -2 3
v 8 -2 -3
v 4 -2 -3
v 4 -2 3
v 3 -2 3
v 3 -2 -3
v 0 -2 -3
v 0 -2 3
v -1 -2 3
v -1 -2 -3
v -6 0 -2.5
v -6 0 2.5
v 8 -3 -3
v 8 -3 3
v 7 -2 -3
v 7 -2 3
v 6 -2 -3
v 6 -2 3
v 4 -3 3
v 4 -3 -3
v -6 -3 -2.5
v -6 -3 2.5
v -13 -2 -1
v -13 -3 -1
v -13 -2 1
v -13 -3 1
v 7 -5 -3
v 7 -5 3
v 4 -4 -3
v 4 -4 3
v 4 -5 3
v 4 -5 -3
v 3 -5 -3
v 3 -5 3
v 2 -5 3
v 2 -5 -3
v 1 -5 -3
v 1 -5 3
v 0 -5 3
v 0 -5 -3
v 6 0 3
v 6 0 -3
v 2 0 -3
v 2 0 3
v 1 0 3
v 1 0 -3
v 14 -2 -2.5
v 14 -2 2.5
v 13 0 -2.5
v 13 0 2.5
v 13 -2 2.5
v 13 -2 -2.5
v 10 0 -2.5
v 10 -2 -2.5
v 10 0 2.5
v 10 -2 2.5
v 9 -2 2.5
v 9 -2 -2.5
v 13 -1 -2.5
v 13 -1 2.5
v 10 -1 -2.5
v 10 -1 2.5
v 2 -1 -3
v 2 -2 -3
v 2 -1 3
v 2 -2 3
v 1 -1 -3
v 1 -1 3
v 1 -2 3
v 1 -2 -3
v -10 -2 -1.5
v -10 -3 -1.5
v -10 -2 1.5
v -10 -3 1.5
v -12 -3 1.5
v -12 -3 -1.5
v 9 -3 -3
v 9 -4 -3
v 9 -3 3
v 9 -4 3
v 8 -4 3
v 8 -4 -3
v -1 -3 -3
v -1 -3 3
v -1 -4 3
v -1 -4 -3
v -1 -3 -1.5
v -1 -4 -1.5
v -1 -3 1.5
v -1 -4 1.5
v -2 -3 -1.5
v -2 -3 1.5
v -2 -4 1.5
v -2 -4 -1.5
v -9 -3 -1
v -9 -4 -1
v -9 -3 1
v -9 -4 1
v -10 -3 -1
v -10 -3 1
v -10 -4 1
v -10 -4 -1
v -2 -4 -1
v -2 -5 -1
v -2 -4 1
v -2 -5 1
v -3 -4 -1
v -3 -4 1
v -3 -5 1
v -3 -5 -1
v -4 -4 -1
v -4 -5 -1
v -4 -4 1
v -4 -5 1
v -5 -4 -1
v -5 -4 1
v -5 -5 1
v -5 -5 -1
v -6 -4 -1
v -6 -5 -1
v -6 -4 1
v -6 -5 1
v -9 -5 1
v -9 -5 -1
v 6 -5 -2
v 6 -6 -2
v 6 -5 2
v 6 -6 2
v 5 -5 -2
v 5 -5 2
v 5 -6 2
v 5 -6 -2
v 3 -5 -2
v 3 -6 -2
v 3 -5 2
v 3 -6 2
v 2 -5 -2
v 2 -5 2
v 2 -6 2
v 2 -6 -2
v 5 0 -3
v 5 0 3
v 4 0 3
v 4 0 -3
v 6 -1 -3
v 6 -1 3
v 5 -1 3
v 5 -1 -3
v 5 -2 -3
v 5 -2 3
v 4 -1 -3
v 4 -1 3
v -2 1 -2
v -2 1 2
v -3 1 -2
v -3 1 2
v -4 1 -2
v -4 1 2
v -5 1 -2
v -5 1 2
v 17 0 -1.5
v 17 -1 -1.5
v 17 0 1.5
v 17 -1 1.5
v 16 0 -1.5
v 16 0 1.5
v 16 -1 1.5
v 16 -1 -1.5
v 17 -2 -1.5
v 17 -3 -1.5
v 17 -2 1.5
v 17 -3 1.5
v 16 -2 -1.5
v 16 -2 1.5
v 16 -3 1.5
v 16 -3 -1.5
v -12 -2 -1
v -12 -3 -1
v -12 -2 1
v -12 -3 1
v -2 -4 -2
v -2 -4 2
v -3 -4 2
v -3 -4 -2
v -4 -4 -2
v -4 -4 2
v -5 -4 2
v -5 -4 -2
v -8 1 -1.5
v -8 0 -1.5
v -8 1 1.5
v -8 0 1.5
v -9 1 -1.5
v -9 1 1.5
v -9 0 1.5
v -9 0 -1.5
v -14 -1 -1.5
v -14 -2 -1.5
v -14 -1 1.5
v -14 -2 1.5
v -15 -1 -1.5
v -15 -1 1.5
v -15 -2 1.5
v -15 -2 -1.5
v -12 -1 -1.5
v -12 -1 1.5
v -13 -1 -1.5
v -13 -1 1.5
v -13 -2 1.5
v -13 -2 -1.5
v 13 -2 -2
v 13 -3 -2
v 13 -2 2
v 13 -3 2
v 10 -2 -2
v 10 -2 2
v 10 -3 2
v 10 -3 -2
v 7 -5 -1.5
v 7 -6 -1.5
v 7 -5 1.5
v 7 -6 1.5
v 6 -5 -1.5
v 6 -5 1.5
v 6 -6 1.5
v 6 -6 -1.5
v 4 -5 -1.5
v 4 -6 -1.5
v 4 -5 1.5
v 4 -6 1.5
v 3 -5 -1.5
v 3 -5 1.5
v 3 -6 1.5
v 3 -6 -1.5
v 13 -6 -2
v 13 -7 -2
v 13 -6 2
v 13 -7 2
v 10 -6 -2
v 10 -6 2
v 10 -7 2
v 10 -7 -2
v 6 -6 -1
v 6 -7 -1
v 6 -6 1
v 6 -7 1
v 5 -6 -1
v 5 -6 1
v 5 -7 1
v 5 -7 -1
v 3 -6 -1
v 3 -7 -1
v 3 -6 1
v 3 -7 1
v 2 -6 -1
v 2 -6 1
v 2 -7 1
v 2 -7 -1
v 8 -5 -3
v 8 -5 3
v 13 -5 -2
v 13 -5 2
v 12 -3 -2
v 12 -3 2
v 11 -3 -2
v 11 -3 2
v 10 -5 2
v 10 -5 -2
v 4 -6 -1
v 4 -6 1
v 4 -7 1
v 4 -7 -1
v 1 -6 -1
v 1 -6 1
v 1 -7 1
v 1 -7 -1
v 5 -3 -3
v 5 -3 3
v 5 -4 3
v 5 -4 -3
v -8 -3 -1.5
v -8 -4 -1.5
v -8 -3 1.5
v -8 -4 1.5
v -9 -3 -1.5
v -9 -3 1.5
v -9 -4 1.5
v -9 -4 -1.5
v 4 -5 -2
v 4 -5 2
v 4 -6 2
v 4 -6 -2
v 1 -5 -2
v 1 -5 2
v 1 -6 2
v 1 -6 -2

vn 1 0 0
vn 0 1 0
vn 0 -1 0
vn -1 0 0
vn 0 0 -1
vn 0 0 1

vt -19.68504 19.68504
vt 19.68504 19.68504
vt -19.68504 -19.68504
vt 0 NaN
vt 0 0
vt 0 NaN
vt 0 NaN
vt 0 NaN
vt 0 NaN
vt 0 NaN
vt 19.68504 -19.68504
vt 0 NaN
vt 0 NaN
vt 0 NaN
vt 0 NaN
vt 0 NaN
vt 0 NaN
vt 0 NaN
vt 0 NaN
vt 0 NaN
vt 0 NaN
vt 0 NaN
vt 0 NaN
vt 0 NaN
vt 0 NaN
vt 0 NaN
vt 0 NaN
vt 0 NaN
vt 0 NaN
vt 0 NaN
vt 0 NaN
vt 0 NaN
vt 0 NaN
vt 0 NaN
vt 0 NaN
vt 0 NaN
vt 0 NaN
vt 0 NaN
vt 0 NaN
vt 0 NaN
vt 0 NaN
vt 0 NaN
vt 0 NaN
vt 0 NaN
vt 0 NaN
vt 0 NaN
vt 0 NaN
vt 0 NaN
vt 0 NaN
vt 0 NaN
vt 0 NaN
vt 0 NaN
vt 0 NaN
vt 0 NaN
vt 0 NaN
vt 0 NaN
vt 0 NaN
vt 0 NaN
vt 0 NaN
vt 0 NaN
vt 0 NaN
vt 0 NaN
vt 0 NaN
vt 0 NaN
vt 0 NaN
vt 0 NaN
vt 0 NaN
vt 0 NaN
vt 0 NaN
vt 0 NaN
vt 0 NaN
vt 0 NaN
vt 0 NaN
vt 0 NaN
vt 0 NaN
vt 0 NaN
vt 0 NaN
vt 0 NaN
vt 0 NaN
vt 0 NaN
vt 0 NaN
vt 0 NaN
vt 0 NaN
vt 0 NaN
vt 0 NaN
vt 0 NaN
vt 0 NaN
vt 0 NaN
vt 0 NaN
vt 0 NaN
vt 0 NaN
vt 0 NaN
vt 0 NaN
vt 0 NaN
vt 0 NaN
vt 0 NaN
vt 0 NaN
vt 0 NaN
vt 0 NaN
vt 0 NaN
vt 0 NaN
vt 0 NaN
vt 0 NaN
vt 0 NaN
vt 0 NaN
vt 0 NaN
vt 0 NaN
vt 0 NaN
vt 0 NaN
vt 0 NaN
vt 0 NaN
vt 0 NaN
vt 0 NaN
vt 0 NaN
vt 0 NaN
vt 0 NaN
vt 0 NaN
vt 0 NaN
vt 0 NaN
vt 0 NaN
vt 0 NaN
vt 0 NaN
vt 0 NaN
vt 0 NaN
vt 0 NaN
vt 0 NaN
vt 0 NaN
vt 0 NaN
vt 0 NaN
vt 0 NaN
vt 0 NaN
vt 0 NaN
vt 0 NaN
vt 0 NaN
vt 0 NaN
vt 0 NaN
vt 0 NaN
vt 0 NaN
vt 0 NaN
vt 0 NaN
vt 0 NaN
vt 0 NaN
vt 0 NaN
vt 0 NaN
vt 0 NaN
vt 0 NaN
vt 0 NaN
vt 0 NaN
vt 0 NaN
vt 0 NaN
vt 0 NaN
vt 0 NaN
vt 0 NaN
vt 0 NaN
vt 0 NaN
vt 0 NaN
vt 0 NaN
vt 0 NaN
vt 0 NaN
vt 0 NaN
vt 0 NaN
vt 0 NaN
vt 0 NaN
vt 0 NaN
vt 0 NaN
vt 0 NaN
vt 0 NaN
vt 0 NaN
vt 0 NaN
vt 0 NaN
vt 0 NaN
vt 0 NaN
vt 0 NaN
vt 0 NaN
vt 0 NaN
vt 0 NaN
vt 0 NaN
vt 0 NaN
vt 0 NaN
vt 0 NaN
vt 0 NaN
vt 0 NaN
vt 0 NaN
vt 0 NaN
vt 0 NaN
vt 0 NaN
vt 0 NaN
vt 0 NaN
vt 0 NaN
vt 0 NaN
vt 0 NaN
vt 0 NaN
vt 0 NaN
vt 0 NaN
vt 0 NaN
vt 0 NaN
vt 0 NaN
vt 0 NaN
vt 0 NaN
vt 0 NaN
vt 0 NaN
vt 0 NaN
vt 0 NaN
vt 0 NaN
vt 0 NaN
vt 0 NaN
vt 0 NaN
vt 0 NaN
vt 0 NaN
vt 0 NaN
vt 0 NaN
vt 0 NaN
vt 0 NaN
vt 0 NaN
vt 0 NaN
vt 0 NaN
vt 0 NaN
vt 0 NaN
vt 0 NaN
vt 0 NaN
vt 0 NaN
vt 0 NaN
vt 0 NaN
vt 0 NaN
vt 0 NaN
vt 0 NaN
vt 0 NaN
vt 0 NaN
vt 0 NaN
vt 0 NaN
vt 0 NaN
vt 0 NaN
vt 0 NaN
vt 0 NaN
vt 0 NaN
vt 0 NaN
vt 0 NaN
vt 0 NaN
vt 0 NaN
vt 0 NaN
vt 0 NaN
vt 0 NaN
vt 0 NaN
vt 0 NaN
vt 0 NaN
vt 0 NaN
vt 0 NaN
vt 0 NaN
vt 0 NaN
vt 0 NaN
vt 0 NaN
vt 0 NaN
vt 0 NaN
vt 0 NaN
vt 0 NaN
vt 0 NaN
vt 0 NaN
vt 0 NaN
vt 0 NaN
vt 0 NaN
vt 0 NaN
vt 0 NaN
vt 0 NaN
vt 0 NaN
vt 0 NaN
vt 0 NaN
vt 0 NaN
vt 0 NaN
vt 0 NaN
vt 0 NaN
vt 0 NaN
vt 0 NaN
vt 0 NaN
vt 0 NaN
vt 0 NaN
vt 0 NaN
vt 0 NaN
vt 0 NaN
vt 0 NaN
vt 0 NaN
vt 0 NaN
vt 0 NaN
vt 0 NaN
vt 0 NaN
vt 0 NaN
vt 0 NaN
vt 0 NaN
vt 0 NaN
vt 0 NaN
vt 0 NaN
vt 0 NaN
vt 0 NaN
vt 0 NaN
vt 0 NaN
vt 0 NaN
vt 0 NaN
vt 0 NaN
vt 0 NaN
vt 0 NaN
vt 0 NaN
vt 0 NaN
vt 0 NaN
vt 0 NaN
vt 0 NaN
vt 0 NaN
vt 0 NaN
vt 0 NaN
vt 0 NaN
vt 0 NaN
vt 0 NaN
vt 0 NaN
vt 0 NaN
vt 0 NaN
vt 0 NaN
vt 0 NaN
vt 0 NaN
vt 0 NaN
vt 0 NaN
vt 0 NaN
vt 0 NaN
vt 0 NaN
vt 0 NaN
vt 0 NaN
vt 0 NaN
vt 0 NaN
vt 0 NaN
vt 0 NaN
vt 0 NaN
vt 0 NaN
vt 0 NaN
vt 0 NaN
vt 0 NaN
vt 0 NaN
vt 0 NaN
vt 0 NaN
vt 0 NaN
vt 0 NaN
vt 0 NaN
vt 0 NaN
vt 0 NaN
vt 0 NaN
vt 0 NaN
vt 0 NaN
vt 0 NaN
vt 0 NaN
vt 0 NaN
vt 0 NaN
vt 0 NaN
vt 0 NaN
vt 0 NaN
vt 0 NaN
vt 0 NaN
vt 0 NaN
vt 0 NaN
vt 0 NaN
vt 0 NaN
vt 0 NaN
vt 0 NaN
vt 0 NaN
vt 0 NaN
vt 0 NaN
vt 0 NaN
vt 0 NaN
vt 0 NaN
vt 0 NaN
vt 0 NaN
vt 0 NaN
vt 0 NaN
vt 0 NaN
vt 0 NaN
vt 0 NaN
vt 0 NaN
vt 0 NaN
vt 0 NaN
vt 0 NaN
vt 0 NaN
vt 0 NaN
vt 0 NaN
vt 0 NaN
vt 0 NaN
vt 0 NaN
vt 0 NaN
vt 0 NaN
vt 0 NaN
vt 0 NaN
vt 0 NaN
vt 0 NaN
vt 0 NaN
vt 0 NaN
vt 0 NaN
vt 0 NaN
vt 0 NaN
vt 0 NaN
vt 0 NaN
vt 0 NaN
vt 0 NaN
vt 0 NaN
vt 0 NaN
vt 0 NaN
vt 0 NaN
vt 0 NaN
vt 0 NaN
vt 0 NaN
vt 0 NaN
vt 0 NaN
vt 0 NaN
vt 0 NaN
vt 0 NaN
vt 0 NaN
vt 0 NaN
vt 0 NaN
vt 0 NaN
vt 0 NaN
vt 0 NaN
vt 0 NaN
vt 0 NaN
vt 0 NaN
vt 0 NaN
vt 0 NaN
vt 0 NaN
vt 0 NaN
vt 0 NaN
vt 0 NaN
vt 0 NaN
vt 0 NaN
vt 0 NaN
vt 0 NaN
vt 0 NaN
vt 0 NaN
vt 0 NaN
vt 0 NaN
vt 0 NaN
vt 0 NaN
vt 0 NaN
vt 0 NaN
vt 0 NaN
vt 0 NaN
vt 0 NaN
vt 0 NaN
vt 0 NaN
vt 0 NaN
vt 0 NaN
vt 0 NaN
vt 0 NaN
vt 0 NaN
vt 0 NaN
vt 0 NaN
vt 0 NaN
vt 0 NaN
vt 0 NaN
vt 0 NaN
vt 0 NaN
vt 0 NaN
vt 0 NaN
vt 0 NaN
vt 0 NaN
vt 0 NaN
vt 0 NaN
vt 0 NaN
vt 0 NaN
vt 0 NaN
vt 0 NaN
vt 0 NaN
vt 0 NaN
vt 0 NaN
vt 0 NaN
vt 0 NaN
vt 0 NaN
vt 0 NaN
vt 0 NaN
vt 0 NaN
vt 0 NaN
vt 0 NaN
vt 0 NaN
vt 0 NaN
vt 0 NaN
vt 0 NaN
vt 0 NaN
vt 0 NaN
vt 0 NaN
vt 0 NaN
vt 0 NaN
vt 0 NaN
vt 0 NaN
vt 0 NaN
vt 0 NaN
vt 0 NaN
vt 0 NaN
vt 0 NaN
vt 0 NaN
vt 0 NaN
vt 0 NaN
vt 0 NaN
vt 0 NaN
vt 0 NaN
vt 0 NaN
vt 0 NaN
vt 0 NaN
vt 0 NaN
vt 0 NaN
vt 0 NaN
vt 0 NaN
vt 0 NaN
vt 0 NaN
vt 0 NaN
vt 0 NaN
vt 0 NaN
vt 0 NaN
vt 0 NaN
vt 0 NaN
vt 0 NaN
vt 0 NaN
vt 0 NaN
vt 0 NaN
vt 0 NaN
vt 0 NaN
vt 0 NaN
vt 0 NaN
vt 0 NaN
vt 0 NaN
vt 0 NaN
vt 0 NaN
vt 0 NaN
vt 0 NaN
vt 0 NaN
vt 0 NaN
vt 0 NaN
vt 0 NaN
vt 0 NaN
vt 0 NaN
vt 0 NaN
vt 0 NaN
vt 0 NaN
vt 0 NaN
vt 0 NaN
vt 0 NaN
vt 0 NaN
vt 0 NaN
vt 0 NaN
vt 0 NaN
vt 0 NaN
vt 0 NaN
vt 0 NaN
vt 0 NaN
vt 0 NaN
vt 0 NaN
vt 0 NaN
vt 0 NaN
vt 0 NaN
vt 0 NaN
vt 0 NaN
vt 0 NaN
vt 0 NaN
vt 0 NaN
vt 0 NaN
vt 0 NaN
vt 0 NaN
vt 0 NaN
vt 0 NaN
vt 0 NaN
vt 0 NaN
vt 0 NaN
vt 0 NaN
vt 0 NaN
vt 0 NaN
vt 0 NaN
vt 0 NaN
vt 0 NaN
vt 0 NaN
vt 0 NaN
vt 0 NaN
vt 0 NaN
vt 0 NaN
vt 0 NaN
vt 0 NaN
vt 0 NaN
vt 0 NaN
vt 0 NaN
vt 0 NaN
vt 0 NaN
vt 0 NaN
vt 0 NaN
vt 0 NaN
vt 0 NaN
vt 0 NaN
vt 0 NaN
vt 0 NaN
vt 0 NaN
vt 0 NaN
vt 0 NaN
vt 0 NaN
vt 0 NaN
vt 0 NaN
vt 0 NaN
vt 0 NaN
vt 0 NaN
vt 0 NaN
vt 0 NaN
vt 0 NaN
vt 0 NaN
vt 0 NaN
vt 0 NaN
vt 0 NaN
vt 0 NaN
vt 0 NaN
vt 0 NaN
vt 0 NaN
vt 0 NaN
vt 0 NaN
vt 0 NaN
vt 0 NaN
vt 0 NaN
vt 0 NaN
vt 0 NaN
vt 0 NaN
vt 0 NaN
vt 0 NaN
vt 0 NaN
vt 0 NaN
vt 0 NaN
vt 0 NaN
vt 0 NaN
vt 0 NaN
vt 0 NaN
vt 0 NaN
vt 0 NaN
vt 0 NaN
vt 0 NaN
vt 0 NaN
vt 0 NaN
vt 0 NaN
vt 0 NaN
vt 0 NaN
vt 0 NaN
vt 0 NaN
vt 0 NaN
vt 0 NaN
vt 0 NaN
vt 0 NaN
vt 0 NaN
vt 0 NaN
vt 0 NaN
vt 0 NaN
vt 0 NaN
vt 0 NaN
vt 0 NaN
vt 0 NaN
vt 0 NaN
vt 0 NaN
vt 0 NaN
vt 0 NaN
vt 0 NaN
vt 0 NaN
vt 0 NaN
vt 0 NaN
vt 0 NaN
vt 0 NaN
vt 0 NaN
vt 0 NaN
vt 0 NaN
vt 0 NaN
vt 0 NaN
vt 0 NaN
vt 0 NaN
vt 0 NaN
vt 0 NaN
vt 0 NaN
vt 0 NaN
vt 0 NaN
vt 0 NaN
vt 0 NaN
vt 0 NaN
vt 0 NaN
vt 0 NaN
vt 0 NaN
vt 0 NaN
vt 0 NaN
vt 0 NaN
vt 0 NaN
vt 0 NaN
vt 0 NaN
vt 0 NaN
vt 0 NaN
vt 0 NaN
vt 0 NaN
vt 0 NaN
vt 0 NaN
vt 0 NaN
vt 0 NaN
vt 0 NaN
vt 0 NaN
vt 0 NaN
vt 0 NaN
vt 0 NaN
vt 0 NaN
vt 0 NaN
vt 0 NaN
vt 0 NaN
vt 0 NaN
vt 0 NaN
vt 0 NaN
vt 0 NaN
vt 0 NaN
vt 0 NaN
vt 0 NaN
vt 0 NaN
vt 0 NaN
vt 0 NaN
vt 0 NaN
vt 0 NaN
vt 0 NaN
vt 0 NaN
vt 0 NaN
vt 0 NaN
vt 0 NaN
vt 0 NaN
vt 0 NaN
vt 0 NaN
vt 0 NaN
vt 0 NaN
vt 0 NaN
vt 0 NaN
vt 0 NaN
vt 0 NaN
vt 0 NaN
vt 0 NaN
vt 0 NaN
vt 0 NaN
vt 0 NaN
vt 0 NaN
vt 0 NaN
vt 0 NaN
vt 0 NaN
vt 0 NaN
vt 0 NaN
vt 0 NaN
vt 0 NaN
vt 0 NaN
vt 0 NaN
vt 0 NaN
vt 0 NaN
vt 0 NaN
vt 0 NaN
vt 0 NaN
vt 0 NaN
vt 0 NaN
vt 0 NaN
vt 0 NaN
vt 0 NaN
vt 0 NaN
vt 0 NaN
vt 0 NaN
vt 0 NaN
vt 0 NaN
vt 0 NaN
vt 0 NaN
vt 0 NaN
vt 0 NaN
vt 0 NaN
vt 0 NaN
vt 0 NaN
vt 0 NaN
vt 0 NaN
vt 0 NaN
vt 0 NaN
vt 0 NaN
vt 0 NaN
vt 0 NaN
vt 0 NaN
vt 0 NaN
vt 0 NaN
vt 0 NaN
vt 0 NaN
vt 0 NaN
vt 0 NaN
vt 0 NaN
vt 0 NaN
vt 0 NaN
vt 0 NaN
vt 0 NaN
vt 0 NaN
vt 0 NaN
vt 0 NaN
vt 0 NaN
vt 0 NaN
vt 0 NaN
vt 0 NaN
vt 0 NaN
vt 0 NaN
vt 0 NaN
vt 0 NaN
vt 0 NaN
vt 0 NaN
vt 0 NaN
vt 0 NaN
vt 0 NaN
vt 0 NaN
vt 0 NaN
vt 0 NaN
vt 0 NaN
vt 0 NaN
vt 0 NaN
vt 0 NaN
vt 0 NaN
vt 0 NaN
vt 0 NaN
vt 0 NaN
vt 0 NaN
vt 0 NaN
vt 0 NaN
vt 0 NaN
vt 0 NaN
vt 0 NaN
vt 0 NaN
vt 0 NaN
vt 0 NaN
vt 0 NaN
vt 0 NaN
vt 0 NaN
vt 0 NaN
vt 0 NaN
vt 0 NaN
vt 0 NaN
vt 0 NaN
vt 0 NaN
vt 0 NaN
vt 0 NaN
vt 0 NaN
vt 0 NaN
vt 0 NaN
vt 0 NaN
vt 0 NaN
vt 0 NaN
vt 0 NaN
vt 0 NaN
vt 0 NaN
vt 0 NaN
vt 0 NaN
vt 0 NaN
vt 0 NaN
vt 0 NaN
vt 0 NaN
vt 0 NaN
vt 0 NaN
vt 0 NaN
vt 0 NaN
vt 0 NaN
vt 0 NaN
vt 0 NaN
vt 0 NaN
vt 0 NaN
vt 0 NaN
vt 0 NaN
vt 0 NaN
vt 0 NaN
vt 0 NaN
vt 0 NaN
vt 0 NaN
vt 0 NaN
vt 0 NaN
vt 0 NaN
vt 0 NaN
vt 0 NaN
vt 0 NaN
vt 0 NaN
vt 0 NaN
vt 0 NaN
vt 0 NaN
vt 0 NaN
vt 0 NaN
vt 0 NaN
vt 0 NaN
vt 0 NaN
vt 0 NaN
vt 0 NaN
vt 0 NaN
vt 0 NaN
vt 0 NaN
vt 0 NaN
vt 0 NaN
vt 0 NaN
vt 0 NaN
vt 0 NaN
vt 0 NaN
vt 0 NaN
vt 0 NaN
vt 0 NaN
vt 0 NaN
vt 0 NaN
vt 0 NaN
vt 0 NaN
vt 0 NaN
vt 0 NaN
vt 0 NaN
vt 0 NaN
vt 0 NaN
vt 0 NaN
vt 0 NaN
vt 0 NaN
vt 0 NaN
vt 0 NaN
vt 0 NaN
vt 0 NaN
vt 0 NaN
vt 0 NaN
vt 0 NaN
vt 0 NaN
vt 0 NaN
vt 0 NaN
vt 0 NaN
vt 0 NaN
vt 0 NaN
vt 0 NaN
vt 0 NaN
vt 0 NaN
vt 0 NaN
vt 0 NaN
vt 0 NaN
vt 0 NaN
vt 0 NaN
vt 0 NaN
vt 0 NaN
vt 0 NaN
vt 0 NaN
vt 0 NaN
vt 0 NaN
vt 0 NaN
vt 0 NaN
vt 0 NaN
vt 0 NaN
vt 0 NaN
vt 0 NaN
vt 0 NaN
vt 0 NaN
vt 0 NaN
vt 0 NaN
vt 0 NaN
vt 0 NaN
vt 0 NaN
vt 0 NaN
vt 0 NaN
vt 0 NaN
vt 0 NaN
vt 0 NaN
vt 0 NaN
vt 0 NaN
vt 0 NaN
vt 0 NaN
vt 0 NaN
vt 0 NaN
vt 0 NaN
vt 0 NaN
vt 0 NaN
vt 0 NaN
vt 0 NaN
vt 0 NaN
vt 0 NaN
vt 0 NaN
vt 0 NaN
vt 0 NaN
vt 0 NaN
vt 0 NaN
vt 0 NaN
vt 0 NaN
vt 0 NaN
vt 0 NaN
vt 0 NaN
vt 0 NaN
vt 0 NaN
vt 0 NaN
vt 0 NaN
vt 0 NaN
vt 0 NaN
vt 0 NaN
vt 0 NaN
vt 0 NaN
vt 0 NaN
vt 0 NaN
vt 0 NaN
vt 0 NaN
vt 0 NaN
vt 0 NaN
vt 0 NaN
vt 0 NaN
vt 0 NaN
vt 0 NaN
vt 0 NaN
vt 0 NaN

usemtl color22

f 3/3/1 2/2/1 1/1/1
f 2/3/1 3/2/1 4/1/1
f 5/3/2 3/2/2 1/1/2
f 3/3/2 5/2/2 6/1/2
f 7/5/3 2/5/3 4/4/3
f 2/5/3 7/5/3 8/6/3
f 7/5/4 5/5/4 8/7/4
f 5/5/4 7/5/4 6/8/4
f 5/5/5 2/5/5 8/9/5
f 2/5/5 5/5/5 1/10/5
f 3/2/6 7/3/6 4/11/6
f 7/3/6 3/2/6 6/1/6
f 3/3/1 2/2/1 1/1/1
f 2/3/1 3/2/1 4/1/1
f 5/3/2 3/2/2 1/1/2
f 3/3/2 5/2/2 6/1/2
f 7/5/3 2/5/3 4/4/3
f 2/5/3 7/5/3 8/6/3
f 7/5/4 5/5/4 8/7/4
f 5/5/4 7/5/4 6/8/4
f 5/5/5 2/5/5 8/9/5
f 2/5/5 5/5/5 1/10/5
f 3/2/6 7/3/6 4/11/6
f 7/3/6 3/2/6 6/1/6
f 11/3/1 10/2/1 9/1/1
f 10/3/1 11/2/1 12/1/1
f 2/3/2 11/2/2 9/1/2
f 11/3/2 2/2/2 4/1/2
f 13/5/3 10/5/3 12/12/3
f 10/5/3 13/5/3 14/13/3
f 13/5/4 2/5/4 14/14/4
f 2/5/4 13/5/4 4/15/4
f 2/5/5 10/5/5 14/16/5
f 10/5/5 2/5/5 9/17/5
f 11/2/6 13/3/6 12/11/6
f 13/3/6 11/2/6 4/1/6
f 17/3/1 16/2/1 15/1/1
f 16/3/1 17/2/1 18/1/1
f 19/3/2 17/2/2 15/1/2
f 17/3/2 19/2/2 20/1/2
f 21/5/3 16/5/3 18/18/3
f 16/5/3 21/5/3 22/19/3
f 21/5/4 19/5/4 22/20/4
f 19/5/4 21/5/4 20/21/4
f 19/5/5 16/5/5 22/22/5
f 16/5/5 19/5/5 15/23/5
f 17/2/6 21/3/6 18/11/6
f 21/3/6 17/2/6 20/1/6
f 25/3/1 24/2/1 23/1/1
f 24/3/1 25/2/1 26/1/1
f 27/3/2 25/2/2 23/1/2
f 25/3/2 27/2/2 28/1/2
f 29/5/3 24/5/3 26/24/3
f 24/5/3 29/5/3 30/25/3
f 29/5/4 27/5/4 30/26/4
f 27/5/4 29/5/4 28/27/4
f 27/5/5 24/5/5 30/28/5
f 24/5/5 27/5/5 23/29/5
f 25/2/6 29/3/6 26/11/6
f 29/3/6 25/2/6 28/1/6
f 33/3/1 32/2/1 31/1/1
f 32/3/1 33/2/1 34/1/1
f 24/3/2 33/2/2 31/1/2
f 33/3/2 24/2/2 26/1/2
f 35/5/3 32/5/3 34/30/3
f 32/5/3 35/5/3 36/31/3
f 35/5/4 24/5/4 36/32/4
f 24/5/4 35/5/4 26/33/4
f 24/5/5 32/5/5 36/34/5
f 32/5/5 24/5/5 31/35/5
f 33/2/6 35/3/6 34/11/6
f 35/3/6 33/2/6 26/1/6
f 39/3/1 38/2/1 37/1/1
f 38/3/1 39/2/1 40/1/1
f 41/3/2 39/2/2 37/1/2
f 39/3/2 41/2/2 42/1/2
f 43/5/3 38/5/3 40/36/3
f 38/5/3 43/5/3 44/37/3
f 43/5/4 41/5/4 44/38/4
f 41/5/4 43/5/4 42/39/4
f 41/5/5 38/5/5 44/40/5
f 38/5/5 41/5/5 37/41/5
f 39/2/6 43/3/6 40/11/6
f 43/3/6 39/2/6 42/1/6
f 47/3/1 46/2/1 45/1/1
f 46/3/1 47/2/1 48/1/1
f 49/3/2 47/2/2 45/1/2
f 47/3/2 49/2/2 50/1/2
f 51/5/3 46/5/3 48/42/3
f 46/5/3 51/5/3 52/43/3
f 51/5/4 49/5/4 52/44/4
f 49/5/4 51/5/4 50/45/4
f 49/5/5 46/5/5 52/46/5
f 46/5/5 49/5/5 45/47/5
f 47/2/6 51/3/6 48/11/6
f 51/3/6 47/2/6 50/1/6
f 55/3/1 54/2/1 53/1/1
f 54/3/1 55/2/1 56/1/1
f 57/3/2 55/2/2 53/1/2
f 55/3/2 57/2/2 58/1/2
f 59/5/3 54/5/3 56/48/3
f 54/5/3 59/5/3 60/49/3
f 59/5/4 57/5/4 60/50/4
f 57/5/4 59/5/4 58/51/4
f 57/5/5 54/5/5 60/52/5
f 54/5/5 57/5/5 53/53/5
f 55/2/6 59/3/6 56/11/6
f 59/3/6 55/2/6 58/1/6
f 63/3/1 62/2/1 61/1/1
f 62/3/1 63/2/1 64/1/1
f 65/3/2 63/2/2 61/1/2
f 63/3/2 65/2/2 66/1/2
f 67/5/3 62/5/3 64/54/3
f 62/5/3 67/5/3 68/55/3
f 67/5/4 65/5/4 68/56/4
f 65/5/4 67/5/4 66/57/4
f 65/5/5 62/5/5 68/58/5
f 62/5/5 65/5/5 61/59/5
f 63/2/6 67/3/6 64/11/6
f 67/3/6 63/2/6 66/1/6
f 71/3/1 70/2/1 69/1/1
f 70/3/1 71/2/1 72/1/1
f 73/3/2 71/2/2 69/1/2
f 71/3/2 73/2/2 74/1/2
f 75/5/3 70/5/3 72/60/3
f 70/5/3 75/5/3 76/61/3
f 75/5/4 73/5/4 76/62/4
f 73/5/4 75/5/4 74/63/4
f 73/5/5 70/5/5 76/64/5
f 70/5/5 73/5/5 69/65/5
f 71/2/6 75/3/6 72/11/6
f 75/3/6 71/2/6 74/1/6
f 79/3/1 78/2/1 77/1/1
f 78/3/1 79/2/1 80/1/1
f 81/3/2 79/2/2 77/1/2
f 79/3/2 81/2/2 82/1/2
f 83/5/3 78/5/3 80/66/3
f 78/5/3 83/5/3 84/67/3
f 83/5/4 81/5/4 84/68/4
f 81/5/4 83/5/4 82/69/4
f 81/5/5 78/5/5 84/70/5
f 78/5/5 81/5/5 77/71/5
f 79/2/6 83/3/6 80/11/6
f 83/3/6 79/2/6 82/1/6
f 87/3/1 86/2/1 85/1/1
f 86/3/1 87/2/1 88/1/1
f 89/3/2 87/2/2 85/1/2
f 87/3/2 89/2/2 90/1/2
f 91/5/3 86/5/3 88/72/3
f 86/5/3 91/5/3 92/73/3
f 91/5/4 89/5/4 92/74/4
f 89/5/4 91/5/4 90/75/4
f 89/5/5 86/5/5 92/76/5
f 86/5/5 89/5/5 85/77/5
f 87/2/6 91/3/6 88/11/6
f 91/3/6 87/2/6 90/1/6
f 83/3/1 93/2/1 84/1/1
f 93/3/1 83/2/1 94/1/1
f 95/3/2 83/2/2 84/1/2
f 83/3/2 95/2/2 96/1/2
f 97/5/3 93/5/3 94/78/3
f 93/5/3 97/5/3 98/79/3
f 97/5/4 95/5/4 98/80/4
f 95/5/4 97/5/4 96/81/4
f 95/5/5 93/5/5 98/82/5
f 93/5/5 95/5/5 84/70/5
f 83/2/6 97/3/6 94/11/6
f 97/3/6 83/2/6 96/1/6
f 101/3/1 100/2/1 99/1/1
f 100/3/1 101/2/1 102/1/1
f 103/3/2 101/2/2 99/1/2
f 101/3/2 103/2/2 104/1/2
f 105/5/3 100/5/3 102/83/3
f 100/5/3 105/5/3 106/84/3
f 105/5/4 103/5/4 106/85/4
f 103/5/4 105/5/4 104/86/4
f 103/5/5 100/5/5 106/87/5
f 100/5/5 103/5/5 99/88/5
f 101/2/6 105/3/6 102/11/6
f 105/3/6 101/2/6 104/1/6
f 109/3/1 108/2/1 107/1/1
f 108/3/1 109/2/1 110/1/1
f 111/3/2 109/2/2 107/1/2
f 109/3/2 111/2/2 112/1/2
f 113/5/3 108/5/3 110/89/3
f 108/5/3 113/5/3 114/90/3
f 113/5/4 111/5/4 114/91/4
f 111/5/4 113/5/4 112/92/4
f 111/5/5 108/5/5 114/93/5
f 108/5/5 111/5/5 107/94/5
f 109/2/6 113/3/6 110/11/6
f 113/3/6 109/2/6 112/1/6
f 117/3/1 116/2/1 115/1/1
f 116/3/1 117/2/1 118/1/1
f 119/3/2 117/2/2 115/1/2
f 117/3/2 119/2/2 120/1/2
f 121/5/3 116/5/3 118/95/3
f 116/5/3 121/5/3 122/96/3
f 121/5/4 119/5/4 122/97/4
f 119/5/4 121/5/4 120/98/4
f 119/5/5 116/5/5 122/99/5
f 116/5/5 119/5/5 115/100/5
f 117/2/6 121/3/6 118/11/6
f 121/3/6 117/2/6 120/1/6
f 125/3/1 124/2/1 123/1/1
f 124/3/1 125/2/1 126/1/1
f 127/3/2 125/2/2 123/1/2
f 125/3/2 127/2/2 128/1/2
f 129/5/3 124/5/3 126/101/3
f 124/5/3 129/5/3 130/102/3
f 129/5/4 127/5/4 130/103/4
f 127/5/4 129/5/4 128/104/4
f 127/5/5 124/5/5 130/105/5
f 124/5/5 127/5/5 123/106/5
f 125/2/6 129/3/6 126/11/6
f 129/3/6 125/2/6 128/1/6
f 133/3/1 132/2/1 131/1/1
f 132/3/1 133/2/1 134/1/1
f 135/3/2 133/2/2 131/1/2
f 133/3/2 135/2/2 136/1/2
f 137/5/3 132/5/3 134/107/3
f 132/5/3 137/5/3 138/108/3
f 137/5/4 135/5/4 138/109/4
f 135/5/4 137/5/4 136/110/4
f 135/5/5 132/5/5 138/111/5
f 132/5/5 135/5/5 131/112/5
f 133/2/6 137/3/6 134/11/6
f 137/3/6 133/2/6 136/1/6
f 141/3/1 140/2/1 139/1/1
f 140/3/1 141/2/1 142/1/1
f 143/3/2 141/2/2 139/1/2
f 141/3/2 143/2/2 144/1/2
f 145/5/3 140/5/3 142/113/3
f 140/5/3 145/5/3 146/114/3
f 145/5/4 143/5/4 146/115/4
f 143/5/4 145/5/4 144/116/4
f 143/5/5 140/5/5 146/117/5
f 140/5/5 143/5/5 139/118/5
f 141/2/6 145/3/6 142/11/6
f 145/3/6 141/2/6 144/1/6
f 149/3/1 148/2/1 147/1/1
f 148/3/1 149/2/1 150/1/1
f 151/3/2 149/2/2 147/1/2
f 149/3/2 151/2/2 152/1/2
f 153/5/3 148/5/3 150/119/3
f 148/5/3 153/5/3 154/120/3
f 153/5/4 151/5/4 154/121/4
f 151/5/4 153/5/4 152/122/4
f 151/5/5 148/5/5 154/123/5
f 148/5/5 151/5/5 147/124/5
f 149/2/6 153/3/6 150/11/6
f 153/3/6 149/2/6 152/1/6
f 157/3/1 156/2/1 155/1/1
f 156/3/1 157/2/1 158/1/1
f 159/3/2 157/2/2 155/1/2
f 157/3/2 159/2/2 160/1/2
f 161/5/3 156/5/3 158/125/3
f 156/5/3 161/5/3 162/126/3
f 161/5/4 159/5/4 162/127/4
f 159/5/4 161/5/4 160/128/4
f 159/5/5 156/5/5 162/129/5
f 156/5/5 159/5/5 155/130/5
f 157/2/6 161/3/6 158/11/6
f 161/3/6 157/2/6 160/1/6

usemtl color17

f 6/3/1 8/2/1 5/1/1
f 8/3/1 6/2/1 7/1/1
f 163/3/2 6/2/2 5/1/2
f 6/3/2 163/2/2 164/1/2
f 165/5/3 8/6/3 7/5/3
f 8/6/3 165/5/3 166/131/3
f 165/5/4 163/5/4 166/132/4
f 163/5/4 165/5/4 164/133/4
f 163/5/5 8/9/5 166/134/5
f 8/9/5 163/5/5 5/5/5
f 6/2/6 165/3/6 7/11/6
f 165/3/6 6/2/6 164/1/6
f 169/3/1 168/2/1 167/1/1
f 168/3/1 169/2/1 170/1/1
f 171/3/2 169/2/2 167/1/2
f 169/3/2 171/2/2 172/1/2
f 173/5/3 168/5/3 170/135/3
f 168/5/3 173/5/3 174/136/3
f 173/5/4 171/5/4 174/137/4
f 171/5/4 173/5/4 172/138/4
f 171/5/5 168/5/5 174/139/5
f 168/5/5 171/5/5 167/140/5
f 169/2/6 173/3/6 170/11/6
f 173/3/6 169/2/6 172/1/6
f 176/3/1 37/2/1 175/1/1
f 37/3/1 176/2/1 39/1/1
f 177/3/2 176/2/2 175/1/2
f 176/3/2 177/2/2 178/1/2
f 42/5/3 37/5/3 39/141/3
f 37/5/3 42/5/3 41/142/3
f 42/39/4 177/5/4 41/5/4
f 177/5/4 42/39/4 178/143/4
f 177/5/5 37/41/5 41/5/5
f 37/41/5 177/5/5 175/144/5
f 176/2/6 42/3/6 39/11/6
f 42/3/6 176/2/6 178/1/6
f 181/3/1 180/2/1 179/1/1
f 180/3/1 181/2/1 182/1/1
f 183/3/2 181/2/2 179/1/2
f 181/3/2 183/2/2 184/1/2
f 185/5/3 180/5/3 182/145/3
f 180/5/3 185/5/3 186/146/3
f 185/5/4 183/5/4 186/147/4
f 183/5/4 185/5/4 184/148/4
f 183/5/5 180/5/5 186/149/5
f 180/5/5 183/5/5 179/150/5
f 181/2/6 185/3/6 182/11/6
f 185/3/6 181/2/6 184/1/6
f 189/3/1 188/2/1 187/1/1
f 188/3/1 189/2/1 190/1/1
f 191/3/2 189/2/2 187/1/2
f 189/3/2 191/2/2 192/1/2
f 193/5/3 188/5/3 190/151/3
f 188/5/3 193/5/3 194/152/3
f 193/5/4 191/5/4 194/153/4
f 191/5/4 193/5/4 192/154/4
f 191/5/5 188/5/5 194/155/5
f 188/5/5 191/5/5 187/156/5
f 189/2/6 193/3/6 190/11/6
f 193/3/6 189/2/6 192/1/6
f 197/3/1 196/2/1 195/1/1
f 196/3/1 197/2/1 198/1/1
f 199/3/2 197/2/2 195/1/2
f 197/3/2 199/2/2 200/1/2
f 201/5/3 196/5/3 198/157/3
f 196/5/3 201/5/3 202/158/3
f 201/5/4 199/5/4 202/159/4
f 199/5/4 201/5/4 200/160/4
f 199/5/5 196/5/5 202/161/5
f 196/5/5 199/5/5 195/162/5
f 197/2/6 201/3/6 198/11/6
f 201/3/6 197/2/6 200/1/6
f 201/3/1 203/2/1 202/1/1
f 203/3/1 201/2/1 204/1/1
f 205/3/2 201/2/2 202/1/2
f 201/3/2 205/2/2 206/1/2
f 207/5/3 203/5/3 204/163/3
f 203/5/3 207/5/3 208/164/3
f 207/5/4 205/5/4 208/165/4
f 205/5/4 207/5/4 206/166/4
f 205/5/5 203/5/5 208/167/5
f 203/5/5 205/5/5 202/161/5
f 201/2/6 207/3/6 204/11/6
f 207/3/6 201/2/6 206/1/6
f 211/3/1 210/2/1 209/1/1
f 210/3/1 211/2/1 212/1/1
f 213/3/2 211/2/2 209/1/2
f 211/3/2 213/2/2 214/1/2
f 215/5/3 210/5/3 212/168/3
f 210/5/3 215/5/3 216/169/3
f 215/5/4 213/5/4 216/170/4
f 213/5/4 215/5/4 214/171/4
f 213/5/5 210/5/5 216/172/5
f 210/5/5 213/5/5 209/173/5
f 211/2/6 215/3/6 212/11/6
f 215/3/6 211/2/6 214/1/6
f 219/3/1 218/2/1 217/1/1
f 218/3/1 219/2/1 220/1/1
f 221/3/2 219/2/2 217/1/2
f 219/3/2 221/2/2 222/1/2
f 223/5/3 218/5/3 220/174/3
f 218/5/3 223/5/3 224/175/3
f 223/5/4 221/5/4 224/176/4
f 221/5/4 223/5/4 222/177/4
f 221/5/5 218/5/5 224/178/5
f 218/5/5 221/5/5 217/179/5
f 219/2/6 223/3/6 220/11/6
f 223/3/6 219/2/6 222/1/6
f 227/3/1 226/2/1 225/1/1
f 226/3/1 227/2/1 228/1/1
f 229/3/2 227/2/2 225/1/2
f 227/3/2 229/2/2 230/1/2
f 231/5/3 226/5/3 228/180/3
f 226/5/3 231/5/3 232/181/3
f 231/5/4 229/5/4 232/182/4
f 229/5/4 231/5/4 230/183/4
f 229/5/5 226/5/5 232/184/5
f 226/5/5 229/5/5 225/185/5
f 227/2/6 231/3/6 228/11/6
f 231/3/6 227/2/6 230/1/6
f 235/3/1 234/2/1 233/1/1
f 234/3/1 235/2/1 236/1/1
f 237/3/2 235/2/2 233/1/2
f 235/3/2 237/2/2 238/1/2
f 239/5/3 234/5/3 236/186/3
f 234/5/3 239/5/3 240/187/3
f 239/5/4 237/5/4 240/188/4
f 237/5/4 239/5/4 238/189/4
f 237/5/5 234/5/5 240/190/5
f 234/5/5 237/5/5 233/191/5
f 235/2/6 239/3/6 236/11/6
f 239/3/6 235/2/6 238/1/6
f 243/3/1 242/2/1 241/1/1
f 242/3/1 243/2/1 244/1/1
f 245/3/2 243/2/2 241/1/2
f 243/3/2 245/2/2 246/1/2
f 247/5/3 242/5/3 244/192/3
f 242/5/3 247/5/3 248/193/3
f 247/5/4 245/5/4 248/194/4
f 245/5/4 247/5/4 246/195/4
f 245/5/5 242/5/5 248/196/5
f 242/5/5 245/5/5 241/197/5
f 243/2/6 247/3/6 244/11/6
f 247/3/6 243/2/6 246/1/6
f 251/3/1 250/2/1 249/1/1
f 250/3/1 251/2/1 252/1/1
f 253/3/2 251/2/2 249/1/2
f 251/3/2 253/2/2 254/1/2
f 255/5/3 250/5/3 252/198/3
f 250/5/3 255/5/3 256/199/3
f 255/5/4 253/5/4 256/200/4
f 253/5/4 255/5/4 254/201/4
f 253/5/5 250/5/5 256/202/5
f 250/5/5 253/5/5 249/203/5
f 251/2/6 255/3/6 252/11/6
f 255/3/6 251/2/6 254/1/6
f 259/3/1 258/2/1 257/1/1
f 258/3/1 259/2/1 260/1/1
f 261/3/2 259/2/2 257/1/2
f 259/3/2 261/2/2 262/1/2
f 263/5/3 258/5/3 260/204/3
f 258/5/3 263/5/3 264/205/3
f 263/5/4 261/5/4 264/206/4
f 261/5/4 263/5/4 262/207/4
f 261/5/5 258/5/5 264/208/5
f 258/5/5 261/5/5 257/209/5
f 259/2/6 263/3/6 260/11/6
f 263/3/6 259/2/6 262/1/6
f 267/3/1 266/2/1 265/1/1
f 266/3/1 267/2/1 268/1/1
f 269/3/2 267/2/2 265/1/2
f 267/3/2 269/2/2 270/1/2
f 271/5/3 266/5/3 268/210/3
f 266/5/3 271/5/3 272/211/3
f 271/5/4 269/5/4 272/212/4
f 269/5/4 271/5/4 270/213/4
f 269/5/5 266/5/5 272/214/5
f 266/5/5 269/5/5 265/215/5
f 267/2/6 271/3/6 268/11/6
f 271/3/6 267/2/6 270/1/6
f 275/3/1 274/2/1 273/1/1
f 274/3/1 275/2/1 276/1/1
f 277/3/2 275/2/2 273/1/2
f 275/3/2 277/2/2 278/1/2
f 279/5/3 274/5/3 276/216/3
f 274/5/3 279/5/3 280/217/3
f 279/5/4 277/5/4 280/218/4
f 277/5/4 279/5/4 278/219/4
f 277/5/5 274/5/5 280/220/5
f 274/5/5 277/5/5 273/221/5
f 275/2/6 279/3/6 276/11/6
f 279/3/6 275/2/6 278/1/6
f 283/3/1 282/2/1 281/1/1
f 282/3/1 283/2/1 284/1/1
f 285/3/2 283/2/2 281/1/2
f 283/3/2 285/2/2 286/1/2
f 287/5/3 282/5/3 284/222/3
f 282/5/3 287/5/3 288/223/3
f 287/5/4 285/5/4 288/224/4
f 285/5/4 287/5/4 286/225/4
f 285/5/5 282/5/5 288/226/5
f 282/5/5 285/5/5 281/227/5
f 283/2/6 287/3/6 284/11/6
f 287/3/6 283/2/6 286/1/6

usemtl color26

f 172/3/1 174/2/1 171/1/1
f 174/3/1 172/2/1 173/1/1
f 289/3/2 172/2/2 171/1/2
f 172/3/2 289/2/2 290/1/2
f 291/5/3 174/136/3 173/5/3
f 174/136/3 291/5/3 292/228/3
f 291/5/4 289/5/4 292/229/4
f 289/5/4 291/5/4 290/230/4
f 289/5/5 174/139/5 292/231/5
f 174/139/5 289/5/5 171/5/5
f 172/2/6 291/3/6 173/11/6
f 291/3/6 172/2/6 290/1/6
f 295/3/1 294/2/1 293/1/1
f 294/3/1 295/2/1 296/1/1
f 297/3/2 295/2/2 293/1/2
f 295/3/2 297/2/2 298/1/2
f 299/5/3 294/5/3 296/232/3
f 294/5/3 299/5/3 300/233/3
f 299/5/4 297/5/4 300/234/4
f 297/5/4 299/5/4 298/235/4
f 297/5/5 294/5/5 300/236/5
f 294/5/5 297/5/5 293/237/5
f 295/2/6 299/3/6 296/11/6
f 299/3/6 295/2/6 298/1/6

usemtl color4

f 290/3/1 292/2/1 289/1/1
f 292/3/1 290/2/1 291/1/1
f 301/3/2 290/2/2 289/1/2
f 290/3/2 301/2/2 302/1/2
f 176/5/3 292/228/3 291/5/3
f 292/228/3 176/5/3 175/238/3
f 176/5/4 301/5/4 175/239/4
f 301/5/4 176/5/4 302/240/4
f 301/5/5 292/231/5 175/144/5
f 292/231/5 301/5/5 289/5/5
f 290/2/6 176/3/6 291/11/6
f 176/3/6 290/2/6 302/1/6
f 305/3/1 304/2/1 303/1/1
f 304/3/1 305/2/1 306/1/1
f 307/3/2 305/2/2 303/1/2
f 305/3/2 307/2/2 308/1/2
f 309/5/3 304/5/3 306/241/3
f 304/5/3 309/5/3 310/242/3
f 309/5/4 307/5/4 310/243/4
f 307/5/4 309/5/4 308/244/4
f 307/5/5 304/5/5 310/245/5
f 304/5/5 307/5/5 303/246/5
f 305/2/6 309/3/6 306/11/6
f 309/3/6 305/2/6 308/1/6

usemtl color14

f 4/3/1 14/2/1 2/1/1
f 14/3/1 4/2/1 13/1/1
f 8/3/2 4/2/2 2/1/2
f 4/3/2 8/2/2 7/1/2
f 311/5/3 14/13/3 13/5/3
f 14/13/3 311/5/3 312/247/3
f 311/5/4 8/7/4 312/248/4
f 8/7/4 311/5/4 7/5/4
f 8/9/5 14/16/5 312/249/5
f 14/16/5 8/9/5 2/5/5
f 4/2/6 311/3/6 13/11/6
f 311/3/6 4/2/6 7/1/6
f 315/3/1 314/2/1 313/1/1
f 314/3/1 315/2/1 316/1/1
f 168/3/2 315/2/2 313/1/2
f 315/3/2 168/2/2 170/1/2
f 317/5/3 314/5/3 316/250/3
f 314/5/3 317/5/3 318/251/3
f 317/5/4 168/5/4 318/252/4
f 168/5/4 317/5/4 170/253/4
f 168/5/5 314/5/5 318/254/5
f 314/5/5 168/5/5 313/255/5
f 315/2/6 317/3/6 316/11/6
f 317/3/6 315/2/6 170/1/6
f 12/3/1 319/2/1 10/1/1
f 319/3/1 12/2/1 320/1/1
f 14/3/2 12/2/2 10/1/2
f 12/3/2 14/2/2 13/1/2
f 321/5/3 319/5/3 320/256/3
f 319/5/3 321/5/3 322/257/3
f 321/5/4 14/14/4 322/258/4
f 14/14/4 321/5/4 13/5/4
f 14/16/5 319/5/5 322/259/5
f 319/5/5 14/16/5 10/5/5
f 12/2/6 321/3/6 320/11/6
f 321/3/6 12/2/6 13/1/6
f 325/3/1 324/2/1 323/1/1
f 324/3/1 325/2/1 326/1/1
f 314/3/2 325/2/2 323/1/2
f 325/3/2 314/2/2 316/1/2
f 327/5/3 324/5/3 326/260/3
f 324/5/3 327/5/3 328/261/3
f 327/5/4 314/5/4 328/262/4
f 314/5/4 327/5/4 316/263/4
f 314/5/5 324/5/5 328/264/5
f 324/5/5 314/5/5 323/265/5
f 325/2/6 327/3/6 326/11/6
f 327/3/6 325/2/6 316/1/6
f 331/3/1 330/2/1 329/1/1
f 330/3/1 331/2/1 332/1/1
f 30/3/2 331/2/2 329/1/2
f 331/3/2 30/2/2 29/1/2
f 47/5/3 330/5/3 332/266/3
f 330/5/3 47/5/3 45/267/3
f 47/5/4 30/26/4 45/268/4
f 30/26/4 47/5/4 29/5/4
f 30/28/5 330/5/5 45/47/5
f 330/5/5 30/28/5 329/269/5
f 331/2/6 47/3/6 332/11/6
f 47/3/6 331/2/6 29/1/6
f 335/3/1 334/2/1 333/1/1
f 334/3/1 335/2/1 336/1/1
f 337/3/2 335/2/2 333/1/2
f 335/3/2 337/2/2 338/1/2
f 339/5/3 334/5/3 336/270/3
f 334/5/3 339/5/3 340/271/3
f 339/5/4 337/5/4 340/272/4
f 337/5/4 339/5/4 338/273/4
f 337/5/5 334/5/5 340/274/5
f 334/5/5 337/5/5 333/275/5
f 335/2/6 339/3/6 336/11/6
f 339/3/6 335/2/6 338/1/6
f 343/3/1 342/2/1 341/1/1
f 342/3/1 343/2/1 344/1/1
f 324/3/2 343/2/2 341/1/2
f 343/3/2 324/2/2 326/1/2
f 345/5/3 342/5/3 344/276/3
f 342/5/3 345/5/3 346/277/3
f 345/5/4 324/5/4 346/278/4
f 324/5/4 345/5/4 326/279/4
f 324/5/5 342/5/5 346/280/5
f 342/5/5 324/5/5 341/281/5
f 343/2/6 345/3/6 344/11/6
f 345/3/6 343/2/6 326/1/6
f 349/3/1 348/2/1 347/1/1
f 348/3/1 349/2/1 350/1/1
f 351/3/2 349/2/2 347/1/2
f 349/3/2 351/2/2 352/1/2
f 353/5/3 348/5/3 350/282/3
f 348/5/3 353/5/3 354/283/3
f 353/5/4 351/5/4 354/284/4
f 351/5/4 353/5/4 352/285/4
f 351/5/5 348/5/5 354/286/5
f 348/5/5 351/5/5 347/287/5
f 349/2/6 353/3/6 350/11/6
f 353/3/6 349/2/6 352/1/6
f 357/3/1 356/2/1 355/1/1
f 356/3/1 357/2/1 358/1/1
f 359/3/2 357/2/2 355/1/2
f 357/3/2 359/2/2 360/1/2
f 361/5/3 356/5/3 358/288/3
f 356/5/3 361/5/3 362/289/3
f 361/5/4 359/5/4 362/290/4
f 359/5/4 361/5/4 360/291/4
f 359/5/5 356/5/5 362/292/5
f 356/5/5 359/5/5 355/293/5
f 357/2/6 361/3/6 358/11/6
f 361/3/6 357/2/6 360/1/6
f 365/3/1 364/2/1 363/1/1
f 364/3/1 365/2/1 366/1/1
f 367/3/2 365/2/2 363/1/2
f 365/3/2 367/2/2 368/1/2
f 369/5/3 364/5/3 366/294/3
f 364/5/3 369/5/3 370/295/3
f 369/5/4 367/5/4 370/296/4
f 367/5/4 369/5/4 368/297/4
f 367/5/5 364/5/5 370/298/5
f 364/5/5 367/5/5 363/299/5
f 365/2/6 369/3/6 366/11/6
f 369/3/6 365/2/6 368/1/6
f 373/3/1 372/2/1 371/1/1
f 372/3/1 373/2/1 374/1/1
f 375/3/2 373/2/2 371/1/2
f 373/3/2 375/2/2 376/1/2
f 377/5/3 372/5/3 374/300/3
f 372/5/3 377/5/3 378/301/3
f 377/5/4 375/5/4 378/302/4
f 375/5/4 377/5/4 376/303/4
f 375/5/5 372/5/5 378/304/5
f 372/5/5 375/5/5 371/305/5
f 373/2/6 377/3/6 374/11/6
f 377/3/6 373/2/6 376/1/6
f 381/3/1 380/2/1 379/1/1
f 380/3/1 381/2/1 382/1/1
f 348/3/2 381/2/2 379/1/2
f 381/3/2 348/2/2 350/1/2
f 383/5/3 380/5/3 382/306/3
f 380/5/3 383/5/3 384/307/3
f 383/5/4 348/5/4 384/308/4
f 348/5/4 383/5/4 350/309/4
f 348/5/5 380/5/5 384/310/5
f 380/5/5 348/5/5 379/311/5
f 381/2/6 383/3/6 382/11/6
f 383/3/6 381/2/6 350/1/6
f 387/3/1 386/2/1 385/1/1
f 386/3/1 387/2/1 388/1/1
f 389/3/2 387/2/2 385/1/2
f 387/3/2 389/2/2 390/1/2
f 391/5/3 386/5/3 388/312/3
f 386/5/3 391/5/3 392/313/3
f 391/5/4 389/5/4 392/314/4
f 389/5/4 391/5/4 390/315/4
f 389/5/5 386/5/5 392/316/5
f 386/5/5 389/5/5 385/317/5
f 387/2/6 391/3/6 388/11/6
f 391/3/6 387/2/6 390/1/6
f 395/3/1 394/2/1 393/1/1
f 394/3/1 395/2/1 396/1/1
f 397/3/2 395/2/2 393/1/2
f 395/3/2 397/2/2 398/1/2
f 399/5/3 394/5/3 396/318/3
f 394/5/3 399/5/3 400/319/3
f 399/5/4 397/5/4 400/320/4
f 397/5/4 399/5/4 398/321/4
f 397/5/5 394/5/5 400/322/5
f 394/5/5 397/5/5 393/323/5
f 395/2/6 399/3/6 396/11/6
f 399/3/6 395/2/6 398/1/6
f 402/3/1 89/2/1 401/1/1
f 89/3/1 402/2/1 90/1/1
f 403/3/2 402/2/2 401/1/2
f 402/3/2 403/2/2 404/1/2
f 405/5/3 89/5/3 90/324/3
f 89/5/3 405/5/3 406/325/3
f 405/5/4 403/5/4 406/326/4
f 403/5/4 405/5/4 404/327/4
f 403/5/5 89/5/5 406/328/5
f 89/5/5 403/5/5 401/329/5
f 402/2/6 405/3/6 90/11/6
f 405/3/6 402/2/6 404/1/6
f 409/3/1 408/2/1 407/1/1
f 408/3/1 409/2/1 410/1/1
f 411/3/2 409/2/2 407/1/2
f 409/3/2 411/2/2 412/1/2
f 413/5/3 408/5/3 410/330/3
f 408/5/3 413/5/3 414/331/3
f 413/5/4 411/5/4 414/332/4
f 411/5/4 413/5/4 412/333/4
f 411/5/5 408/5/5 414/334/5
f 408/5/5 411/5/5 407/335/5
f 409/2/6 413/3/6 410/11/6
f 413/3/6 409/2/6 412/1/6
f 417/3/1 416/2/1 415/1/1
f 416/3/1 417/2/1 418/1/1
f 419/3/2 417/2/2 415/1/2
f 417/3/2 419/2/2 420/1/2
f 421/5/3 416/5/3 418/336/3
f 416/5/3 421/5/3 422/337/3
f 421/5/4 419/5/4 422/338/4
f 419/5/4 421/5/4 420/339/4
f 419/5/5 416/5/5 422/340/5
f 416/5/5 419/5/5 415/341/5
f 417/2/6 421/3/6 418/11/6
f 421/3/6 417/2/6 420/1/6
f 425/3/1 424/2/1 423/1/1
f 424/3/1 425/2/1 426/1/1
f 427/3/2 425/2/2 423/1/2
f 425/3/2 427/2/2 428/1/2
f 429/5/3 424/5/3 426/342/3
f 424/5/3 429/5/3 430/343/3
f 429/5/4 427/5/4 430/344/4
f 427/5/4 429/5/4 428/345/4
f 427/5/5 424/5/5 430/346/5
f 424/5/5 427/5/5 423/347/5
f 425/2/6 429/3/6 426/11/6
f 429/3/6 425/2/6 428/1/6
f 433/3/1 432/2/1 431/1/1
f 432/3/1 433/2/1 434/1/1
f 435/3/2 433/2/2 431/1/2
f 433/3/2 435/2/2 436/1/2
f 437/5/3 432/5/3 434/348/3
f 432/5/3 437/5/3 438/349/3
f 437/5/4 435/5/4 438/350/4
f 435/5/4 437/5/4 436/351/4
f 435/5/5 432/5/5 438/352/5
f 432/5/5 435/5/5 431/353/5
f 433/2/6 437/3/6 434/11/6
f 437/3/6 433/2/6 436/1/6
f 441/3/1 440/2/1 439/1/1
f 440/3/1 441/2/1 442/1/1
f 443/3/2 441/2/2 439/1/2
f 441/3/2 443/2/2 444/1/2
f 445/5/3 440/5/3 442/354/3
f 440/5/3 445/5/3 446/355/3
f 445/5/4 443/5/4 446/356/4
f 443/5/4 445/5/4 444/357/4
f 443/5/5 440/5/5 446/358/5
f 440/5/5 443/5/5 439/359/5
f 441/2/6 445/3/6 442/11/6
f 445/3/6 441/2/6 444/1/6
f 449/3/1 448/2/1 447/1/1
f 448/3/1 449/2/1 450/1/1
f 440/3/2 449/2/2 447/1/2
f 449/3/2 440/2/2 442/1/2
f 451/5/3 448/5/3 450/360/3
f 448/5/3 451/5/3 452/361/3
f 451/5/4 440/5/4 452/362/4
f 440/5/4 451/5/4 442/363/4
f 440/5/5 448/5/5 452/364/5
f 448/5/5 440/5/5 447/365/5
f 449/2/6 451/3/6 450/11/6
f 451/3/6 449/2/6 442/1/6
f 451/3/1 453/2/1 452/1/1
f 453/3/1 451/2/1 454/1/1
f 455/3/2 451/2/2 452/1/2
f 451/3/2 455/2/2 456/1/2
f 457/5/3 453/5/3 454/366/3
f 453/5/3 457/5/3 458/367/3
f 457/5/4 455/5/4 458/368/4
f 455/5/4 457/5/4 456/369/4
f 455/5/5 453/5/5 458/370/5
f 453/5/5 455/5/5 452/364/5
f 451/2/6 457/3/6 454/11/6
f 457/3/6 451/2/6 456/1/6
f 461/3/1 460/2/1 459/1/1
f 460/3/1 461/2/1 462/1/1
f 147/3/2 461/2/2 459/1/2
f 461/3/2 147/2/2 149/1/2
f 150/119/3 460/5/3 462/371/3
f 460/5/3 150/119/3 148/5/3
f 150/5/4 147/5/4 148/372/4
f 147/5/4 150/5/4 149/373/4
f 147/124/5 460/5/5 148/5/5
f 460/5/5 147/124/5 459/374/5
f 461/2/6 150/3/6 462/11/6
f 150/3/6 461/2/6 149/1/6
f 152/3/1 154/2/1 151/1/1
f 154/3/1 152/2/1 153/1/1
f 463/3/2 152/2/2 151/1/2
f 152/3/2 463/2/2 464/1/2
f 465/5/3 154/120/3 153/5/3
f 154/120/3 465/5/3 466/375/3
f 465/5/4 463/5/4 466/376/4
f 463/5/4 465/5/4 464/377/4
f 463/5/5 154/123/5 466/378/5
f 154/123/5 463/5/5 151/5/5
f 152/2/6 465/3/6 153/11/6
f 465/3/6 152/2/6 464/1/6
f 129/3/1 467/2/1 130/1/1
f 467/3/1 129/2/1 468/1/1
f 469/3/2 129/2/2 130/1/2
f 129/3/2 469/2/2 470/1/2
f 471/5/3 467/5/3 468/379/3
f 467/5/3 471/5/3 472/380/3
f 471/5/4 469/5/4 472/381/4
f 469/5/4 471/5/4 470/382/4
f 469/5/5 467/5/5 472/383/5
f 467/5/5 469/5/5 130/105/5
f 129/2/6 471/3/6 468/11/6
f 471/3/6 129/2/6 470/1/6
f 475/3/1 474/2/1 473/1/1
f 474/3/1 475/2/1 476/1/1
f 477/3/2 475/2/2 473/1/2
f 475/3/2 477/2/2 478/1/2
f 479/5/3 474/5/3 476/384/3
f 474/5/3 479/5/3 480/385/3
f 479/5/4 477/5/4 480/386/4
f 477/5/4 479/5/4 478/387/4
f 477/5/5 474/5/5 480/388/5
f 474/5/5 477/5/5 473/389/5
f 475/2/6 479/3/6 476/11/6
f 479/3/6 475/2/6 478/1/6
f 483/3/1 482/2/1 481/1/1
f 482/3/1 483/2/1 484/1/1
f 485/3/2 483/2/2 481/1/2
f 483/3/2 485/2/2 486/1/2
f 487/5/3 482/5/3 484/390/3
f 482/5/3 487/5/3 488/391/3
f 487/5/4 485/5/4 488/392/4
f 485/5/4 487/5/4 486/393/4
f 485/5/5 482/5/5 488/394/5
f 482/5/5 485/5/5 481/395/5
f 483/2/6 487/3/6 484/11/6
f 487/3/6 483/2/6 486/1/6

usemtl color6

f 20/3/1 22/2/1 19/1/1
f 22/3/1 20/2/1 21/1/1
f 489/3/2 20/2/2 19/1/2
f 20/3/2 489/2/2 490/1/2
f 491/5/3 22/19/3 21/5/3
f 22/19/3 491/5/3 492/396/3
f 491/5/4 489/5/4 492/397/4
f 489/5/4 491/5/4 490/398/4
f 489/5/5 22/22/5 492/399/5
f 22/22/5 489/5/5 19/5/5
f 20/2/6 491/3/6 21/11/6
f 491/3/6 20/2/6 490/1/6
f 494/3/1 209/2/1 493/1/1
f 209/3/1 494/2/1 211/1/1
f 495/3/2 494/2/2 493/1/2
f 494/3/2 495/2/2 496/1/2
f 214/5/3 209/5/3 211/400/3
f 209/5/3 214/5/3 213/401/3
f 214/171/4 495/5/4 213/5/4
f 495/5/4 214/171/4 496/402/4
f 495/5/5 209/173/5 213/5/5
f 209/173/5 495/5/5 493/403/5
f 494/2/6 214/3/6 211/11/6
f 214/3/6 494/2/6 496/1/6
f 498/3/1 217/2/1 497/1/1
f 217/3/1 498/2/1 219/1/1
f 499/3/2 498/2/2 497/1/2
f 498/3/2 499/2/2 500/1/2
f 222/5/3 217/5/3 219/404/3
f 217/5/3 222/5/3 221/405/3
f 222/177/4 499/5/4 221/5/4
f 499/5/4 222/177/4 500/406/4
f 499/5/5 217/179/5 221/5/5
f 217/179/5 499/5/5 497/407/5
f 498/2/6 222/3/6 219/11/6
f 222/3/6 498/2/6 500/1/6
f 212/3/1 501/2/1 210/1/1
f 501/3/1 212/2/1 502/1/1
f 216/3/2 212/2/2 210/1/2
f 212/3/2 216/2/2 215/1/2
f 503/5/3 501/5/3 502/408/3
f 501/5/3 503/5/3 504/409/3
f 503/5/4 216/170/4 504/410/4
f 216/170/4 503/5/4 215/5/4
f 216/172/5 501/5/5 504/411/5
f 501/5/5 216/172/5 210/5/5
f 212/2/6 503/3/6 502/11/6
f 503/3/6 212/2/6 215/1/6
f 220/3/1 505/2/1 218/1/1
f 505/3/1 220/2/1 506/1/1
f 224/3/2 220/2/2 218/1/2
f 220/3/2 224/2/2 223/1/2
f 507/5/3 505/5/3 506/412/3
f 505/5/3 507/5/3 508/413/3
f 507/5/4 224/176/4 508/414/4
f 224/176/4 507/5/4 223/5/4
f 224/178/5 505/5/5 508/415/5
f 505/5/5 224/178/5 218/5/5
f 220/2/6 507/3/6 506/11/6
f 507/3/6 220/2/6 223/1/6
f 511/3/1 510/2/1 509/1/1
f 510/3/1 511/2/1 512/1/1
f 513/3/2 511/2/2 509/1/2
f 511/3/2 513/2/2 514/1/2
f 515/5/3 510/5/3 512/416/3
f 510/5/3 515/5/3 516/417/3
f 515/5/4 513/5/4 516/418/4
f 513/5/4 515/5/4 514/419/4
f 513/5/5 510/5/5 516/420/5
f 510/5/5 513/5/5 509/421/5
f 511/2/6 515/3/6 512/11/6
f 515/3/6 511/2/6 514/1/6
f 518/3/1 303/2/1 517/1/1
f 303/3/1 518/2/1 305/1/1
f 519/3/2 518/2/2 517/1/2
f 518/3/2 519/2/2 520/1/2
f 308/5/3 303/5/3 305/422/3
f 303/5/3 308/5/3 307/423/3
f 308/244/4 519/5/4 307/5/4
f 519/5/4 308/244/4 520/424/4
f 519/5/5 303/246/5 307/5/5
f 303/246/5 519/5/5 517/425/5
f 518/2/6 308/3/6 305/11/6
f 308/3/6 518/2/6 520/1/6
f 523/3/1 522/2/1 521/1/1
f 522/3/1 523/2/1 524/1/1
f 525/3/2 523/2/2 521/1/2
f 523/3/2 525/2/2 526/1/2
f 527/5/3 522/5/3 524/426/3
f 522/5/3 527/5/3 528/427/3
f 527/5/4 525/5/4 528/428/4
f 525/5/4 527/5/4 526/429/4
f 525/5/5 522/5/5 528/430/5
f 522/5/5 525/5/5 521/431/5
f 523/2/6 527/3/6 524/11/6
f 527/3/6 523/2/6 526/1/6

usemtl color15

f 530/3/1 333/2/1 529/1/1
f 333/3/1 530/2/1 335/1/1
f 16/3/2 530/2/2 529/1/2
f 530/3/2 16/2/2 18/1/2
f 338/5/3 333/5/3 335/432/3
f 333/5/3 338/5/3 337/433/3
f 338/273/4 16/5/4 337/5/4
f 16/5/4 338/273/4 18/434/4
f 16/5/5 333/275/5 337/5/5
f 333/275/5 16/5/5 529/435/5
f 530/2/6 338/3/6 335/11/6
f 338/3/6 530/2/6 18/1/6
f 320/3/1 60/2/1 319/1/1
f 60/3/1 320/2/1 59/1/1
f 322/3/2 320/2/2 319/1/2
f 320/3/2 322/2/2 321/1/2
f 531/5/3 60/49/3 59/5/3
f 60/49/3 531/5/3 532/436/3
f 531/5/4 322/258/4 532/437/4
f 322/258/4 531/5/4 321/5/4
f 322/259/5 60/52/5 532/438/5
f 60/52/5 322/259/5 319/5/5
f 320/2/6 531/3/6 59/11/6
f 531/3/6 320/2/6 321/1/6
f 535/3/1 534/2/1 533/1/1
f 534/3/1 535/2/1 536/1/1
f 32/3/2 535/2/2 533/1/2
f 535/3/2 32/2/2 34/1/2
f 537/5/3 534/5/3 536/439/3
f 534/5/3 537/5/3 538/440/3
f 537/5/4 32/5/4 538/441/4
f 32/5/4 537/5/4 34/442/4
f 32/5/5 534/5/5 538/443/5
f 534/5/5 32/5/5 533/444/5
f 535/2/6 537/3/6 536/11/6
f 537/3/6 535/2/6 34/1/6
f 332/3/1 539/2/1 330/1/1
f 539/3/1 332/2/1 540/1/1
f 45/3/2 332/2/2 330/1/2
f 332/3/2 45/2/2 47/1/2
f 48/42/3 539/5/3 540/445/3
f 539/5/3 48/42/3 46/5/3
f 48/5/4 45/268/4 46/446/4
f 45/268/4 48/5/4 47/5/4
f 45/47/5 539/5/5 46/5/5
f 539/5/5 45/47/5 330/5/5
f 332/2/6 48/3/6 540/11/6
f 48/3/6 332/2/6 47/1/6
f 542/3/1 379/2/1 541/1/1
f 379/3/1 542/2/1 381/1/1
f 347/3/2 542/2/2 541/1/2
f 542/3/2 347/2/2 349/1/2
f 350/282/3 379/5/3 381/447/3
f 379/5/3 350/282/3 348/5/3
f 350/309/4 347/5/4 348/5/4
f 347/5/4 350/309/4 349/448/4
f 347/287/5 379/311/5 348/5/5
f 379/311/5 347/287/5 541/449/5
f 542/2/6 350/3/6 381/11/6
f 350/3/6 542/2/6 349/1/6
f 368/3/1 370/2/1 367/1/1
f 370/3/1 368/2/1 369/1/1
f 543/3/2 368/2/2 367/1/2
f 368/3/2 543/2/2 544/1/2
f 545/5/3 370/295/3 369/5/3
f 370/295/3 545/5/3 546/450/3
f 545/5/4 543/5/4 546/451/4
f 543/5/4 545/5/4 544/452/4
f 543/5/5 370/298/5 546/453/5
f 370/298/5 543/5/5 367/5/5
f 368/2/6 545/3/6 369/11/6
f 545/3/6 368/2/6 544/1/6
f 549/3/1 548/2/1 547/1/1
f 548/3/1 549/2/1 550/1/1
f 379/3/2 549/2/2 547/1/2
f 549/3/2 379/2/2 381/1/2
f 382/306/3 548/5/3 550/454/3
f 548/5/3 382/306/3 380/5/3
f 382/5/4 379/5/4 380/455/4
f 379/5/4 382/5/4 381/456/4
f 379/311/5 548/5/5 380/5/5
f 548/5/5 379/311/5 547/457/5
f 549/2/6 382/3/6 550/11/6
f 382/3/6 549/2/6 381/1/6
f 374/3/1 439/2/1 372/1/1
f 439/3/1 374/2/1 441/1/1
f 378/3/2 374/2/2 372/1/2
f 374/3/2 378/2/2 377/1/2
f 444/5/3 439/5/3 441/458/3
f 439/5/3 444/5/3 443/459/3
f 444/357/4 378/302/4 443/5/4
f 378/302/4 444/357/4 377/5/4
f 378/304/5 439/359/5 443/5/5
f 439/359/5 378/304/5 372/5/5
f 374/2/6 444/3/6 441/11/6
f 444/3/6 374/2/6 377/1/6
f 553/3/1 552/2/1 551/1/1
f 552/3/1 553/2/1 554/1/1
f 555/3/2 553/2/2 551/1/2
f 553/3/2 555/2/2 556/1/2
f 557/5/3 552/5/3 554/460/3
f 552/5/3 557/5/3 558/461/3
f 557/5/4 555/5/4 558/462/4
f 555/5/4 557/5/4 556/463/4
f 555/5/5 552/5/5 558/464/5
f 552/5/5 555/5/5 551/465/5
f 553/2/6 557/3/6 554/11/6
f 557/3/6 553/2/6 556/1/6
f 442/3/1 452/2/1 440/1/1
f 452/3/1 442/2/1 451/1/1
f 446/3/2 442/2/2 440/1/2
f 442/3/2 446/2/2 445/1/2
f 456/5/3 452/361/3 451/5/3
f 452/361/3 456/5/3 455/466/3
f 456/369/4 446/356/4 455/5/4
f 446/356/4 456/369/4 445/5/4
f 446/358/5 452/364/5 455/5/5
f 452/364/5 446/358/5 440/5/5
f 442/2/6 456/3/6 451/11/6
f 456/3/6 442/2/6 445/1/6
f 561/3/1 560/2/1 559/1/1
f 560/3/1 561/2/1 562/1/1
f 563/3/2 561/2/2 559/1/2
f 561/3/2 563/2/2 564/1/2
f 565/5/3 560/5/3 562/467/3
f 560/5/3 565/5/3 566/468/3
f 565/5/4 563/5/4 566/469/4
f 563/5/4 565/5/4 564/470/4
f 563/5/5 560/5/5 566/471/5
f 560/5/5 563/5/5 559/472/5
f 561/2/6 565/3/6 562/11/6
f 565/3/6 561/2/6 564/1/6
f 454/3/1 567/2/1 453/1/1
f 567/3/1 454/2/1 568/1/1
f 458/3/2 454/2/2 453/1/2
f 454/3/2 458/2/2 457/1/2
f 569/5/3 567/5/3 568/473/3
f 567/5/3 569/5/3 570/474/3
f 569/5/4 458/368/4 570/475/4
f 458/368/4 569/5/4 457/5/4
f 458/370/5 567/5/5 570/476/5
f 567/5/5 458/370/5 453/5/5
f 454/2/6 569/3/6 568/11/6
f 569/3/6 454/2/6 457/1/6

usemtl color2

f 50/3/1 52/2/1 49/1/1
f 52/3/1 50/2/1 51/1/1
f 53/3/2 50/2/2 49/1/2
f 50/3/2 53/2/2 55/1/2
f 56/48/3 52/43/3 51/5/3
f 52/43/3 56/48/3 54/5/3
f 56/5/4 53/5/4 54/477/4
f 53/5/4 56/5/4 55/478/4
f 53/53/5 52/46/5 54/5/5
f 52/46/5 53/53/5 49/5/5
f 50/2/6 56/3/6 51/11/6
f 56/3/6 50/2/6 55/1/6
f 112/3/1 114/2/1 111/1/1
f 114/3/1 112/2/1 113/1/1
f 115/3/2 112/2/2 111/1/2
f 112/3/2 115/2/2 117/1/2
f 118/95/3 114/90/3 113/5/3
f 114/90/3 118/95/3 116/5/3
f 118/5/4 115/5/4 116/479/4
f 115/5/4 118/5/4 117/480/4
f 115/100/5 114/93/5 116/5/5
f 114/93/5 115/100/5 111/5/5
f 112/2/6 118/3/6 113/11/6
f 118/3/6 112/2/6 117/1/6
f 573/3/1 572/2/1 571/1/1
f 572/3/1 573/2/1 574/1/1
f 575/3/2 573/2/2 571/1/2
f 573/3/2 575/2/2 576/1/2
f 577/5/3 572/5/3 574/481/3
f 572/5/3 577/5/3 578/482/3
f 577/5/4 575/5/4 578/483/4
f 575/5/4 577/5/4 576/484/4
f 575/5/5 572/5/5 578/485/5
f 572/5/5 575/5/5 571/486/5
f 573/2/6 577/3/6 574/11/6
f 577/3/6 573/2/6 576/1/6
f 581/3/1 580/2/1 579/1/1
f 580/3/1 581/2/1 582/1/1
f 583/3/2 581/2/2 579/1/2
f 581/3/2 583/2/2 584/1/2
f 585/5/3 580/5/3 582/487/3
f 580/5/3 585/5/3 586/488/3
f 585/5/4 583/5/4 586/489/4
f 583/5/4 585/5/4 584/490/4
f 583/5/5 580/5/5 586/491/5
f 580/5/5 583/5/5 579/492/5
f 581/2/6 585/3/6 582/11/6
f 585/3/6 581/2/6 584/1/6
f 589/3/1 588/2/1 587/1/1
f 588/3/1 589/2/1 590/1/1
f 591/3/2 589/2/2 587/1/2
f 589/3/2 591/2/2 592/1/2
f 593/5/3 588/5/3 590/493/3
f 588/5/3 593/5/3 594/494/3
f 593/5/4 591/5/4 594/495/4
f 591/5/4 593/5/4 592/496/4
f 591/5/5 588/5/5 594/497/5
f 588/5/5 591/5/5 587/498/5
f 589/2/6 593/3/6 590/11/6
f 593/3/6 589/2/6 592/1/6
f 512/3/1 595/2/1 510/1/1
f 595/3/1 512/2/1 596/1/1
f 516/3/2 512/2/2 510/1/2
f 512/3/2 516/2/2 515/1/2
f 597/5/3 595/5/3 596/499/3
f 595/5/3 597/5/3 598/500/3
f 597/5/4 516/418/4 598/501/4
f 516/418/4 597/5/4 515/5/4
f 516/420/5 595/5/5 598/502/5
f 595/5/5 516/420/5 510/5/5
f 512/2/6 597/3/6 596/11/6
f 597/3/6 512/2/6 515/1/6
f 524/3/1 599/2/1 522/1/1
f 599/3/1 524/2/1 600/1/1
f 528/3/2 524/2/2 522/1/2
f 524/3/2 528/2/2 527/1/2
f 601/5/3 599/5/3 600/503/3
f 599/5/3 601/5/3 602/504/3
f 601/5/4 528/428/4 602/505/4
f 528/428/4 601/5/4 527/5/4
f 528/430/5 599/5/5 602/506/5
f 599/5/5 528/430/5 522/5/5
f 524/2/6 601/3/6 600/11/6
f 601/3/6 524/2/6 527/1/6

usemtl color21

f 352/3/1 354/2/1 351/1/1
f 354/3/1 352/2/1 353/1/1
f 355/3/2 352/2/2 351/1/2
f 352/3/2 355/2/2 357/1/2
f 358/288/3 354/283/3 353/5/3
f 354/283/3 358/288/3 356/5/3
f 358/5/4 355/5/4 356/507/4
f 355/5/4 358/5/4 357/508/4
f 355/293/5 354/286/5 356/5/5
f 354/286/5 355/293/5 351/5/5
f 352/2/6 358/3/6 353/11/6
f 358/3/6 352/2/6 357/1/6
f 360/3/1 362/2/1 359/1/1
f 362/3/1 360/2/1 361/1/1
f 363/3/2 360/2/2 359/1/2
f 360/3/2 363/2/2 365/1/2
f 366/294/3 362/289/3 361/5/3
f 362/289/3 366/294/3 364/5/3
f 366/5/4 363/5/4 364/509/4
f 363/5/4 366/5/4 365/510/4
f 363/299/5 362/292/5 364/5/5
f 362/292/5 363/299/5 359/5/5
f 360/2/6 366/3/6 361/11/6
f 366/3/6 360/2/6 365/1/6
f 605/3/1 604/2/1 603/1/1
f 604/3/1 605/2/1 606/1/1
f 607/3/2 605/2/2 603/1/2
f 605/3/2 607/2/2 608/1/2
f 609/5/3 604/5/3 606/511/3
f 604/5/3 609/5/3 610/512/3
f 609/5/4 607/5/4 610/513/4
f 607/5/4 609/5/4 608/514/4
f 607/5/5 604/5/5 610/515/5
f 604/5/5 607/5/5 603/516/5
f 605/2/6 609/3/6 606/11/6
f 609/3/6 605/2/6 608/1/6
f 612/3/1 245/2/1 611/1/1
f 245/3/1 612/2/1 246/1/1
f 77/3/2 612/2/2 611/1/2
f 612/3/2 77/2/2 79/1/2
f 80/66/3 245/5/3 246/517/3
f 245/5/3 80/66/3 78/5/3
f 80/5/4 77/5/4 78/518/4
f 77/5/4 80/5/4 79/519/4
f 77/71/5 245/5/5 78/5/5
f 245/5/5 77/71/5 611/520/5
f 612/2/6 80/3/6 246/11/6
f 80/3/6 612/2/6 79/1/6
f 614/3/1 563/2/1 613/1/1
f 563/3/1 614/2/1 564/1/1
f 615/3/2 614/2/2 613/1/2
f 614/3/2 615/2/2 616/1/2
f 617/5/3 563/5/3 564/521/3
f 563/5/3 617/5/3 618/522/3
f 617/5/4 615/5/4 618/523/4
f 615/5/4 617/5/4 616/524/4
f 615/5/5 563/5/5 618/525/5
f 563/5/5 615/5/5 613/526/5
f 614/2/6 617/3/6 564/11/6
f 617/3/6 614/2/6 616/1/6
f 104/3/1 619/2/1 103/1/1
f 619/3/1 104/2/1 620/1/1
f 621/3/2 104/2/2 103/1/2
f 104/3/2 621/2/2 622/1/2
f 623/5/3 619/5/3 620/527/3
f 619/5/3 623/5/3 624/528/3
f 623/5/4 621/5/4 624/529/4
f 621/5/4 623/5/4 622/530/4
f 621/5/5 619/5/5 624/531/5
f 619/5/5 621/5/5 103/5/5
f 104/2/6 623/3/6 620/11/6
f 623/3/6 104/2/6 622/1/6
f 627/3/1 626/2/1 625/1/1
f 626/3/1 627/2/1 628/1/1
f 629/3/2 627/2/2 625/1/2
f 627/3/2 629/2/2 630/1/2
f 631/5/3 626/5/3 628/532/3
f 626/5/3 631/5/3 632/533/3
f 631/5/4 629/5/4 632/534/4
f 629/5/4 631/5/4 630/535/4
f 629/5/5 626/5/5 632/536/5
f 626/5/5 629/5/5 625/537/5
f 627/2/6 631/3/6 628/11/6
f 631/3/6 627/2/6 630/1/6
f 635/3/1 634/2/1 633/1/1
f 634/3/1 635/2/1 636/1/1
f 637/3/2 635/2/2 633/1/2
f 635/3/2 637/2/2 638/1/2
f 639/5/3 634/5/3 636/538/3
f 634/5/3 639/5/3 640/539/3
f 639/5/4 637/5/4 640/540/4
f 637/5/4 639/5/4 638/541/4
f 637/5/5 634/5/5 640/542/5
f 634/5/5 637/5/5 633/543/5
f 635/2/6 639/3/6 636/11/6
f 639/3/6 635/2/6 638/1/6
f 565/3/1 641/2/1 566/1/1
f 641/3/1 565/2/1 642/1/1
f 643/3/2 565/2/2 566/1/2
f 565/3/2 643/2/2 644/1/2
f 645/5/3 641/5/3 642/544/3
f 641/5/3 645/5/3 646/545/3
f 645/5/4 643/5/4 646/546/4
f 643/5/4 645/5/4 644/547/4
f 643/5/5 641/5/5 646/548/5
f 641/5/5 643/5/5 566/471/5
f 565/2/6 645/3/6 642/11/6
f 645/3/6 565/2/6 644/1/6
f 648/3/1 159/2/1 647/1/1
f 159/3/1 648/2/1 160/1/1
f 649/3/2 648/2/2 647/1/2
f 648/3/2 649/2/2 650/1/2
f 651/5/3 159/5/3 160/549/3
f 159/5/3 651/5/3 652/550/3
f 651/5/4 649/5/4 652/551/4
f 649/5/4 651/5/4 650/552/4
f 649/5/5 159/5/5 652/553/5
f 159/5/5 649/5/5 647/554/5
f 648/2/6 651/3/6 160/11/6
f 651/3/6 648/2/6 650/1/6
f 145/3/1 653/2/1 146/1/1
f 653/3/1 145/2/1 654/1/1
f 155/3/2 145/2/2 146/1/2
f 145/3/2 155/2/2 157/1/2
f 158/125/3 653/5/3 654/555/3
f 653/5/3 158/125/3 156/5/3
f 158/5/4 155/5/4 156/556/4
f 155/5/4 158/5/4 157/557/4
f 155/130/5 653/5/5 156/5/5
f 653/5/5 155/130/5 146/117/5
f 145/2/6 158/3/6 654/11/6
f 158/3/6 145/2/6 157/1/6

usemtl color29

f 66/3/1 68/2/1 65/1/1
f 68/3/1 66/2/1 67/1/1
f 655/3/2 66/2/2 65/1/2
f 66/3/2 655/2/2 656/1/2
f 657/5/3 68/55/3 67/5/3
f 68/55/3 657/5/3 658/558/3
f 657/5/4 655/5/4 658/559/4
f 655/5/4 657/5/4 656/560/4
f 655/5/5 68/58/5 658/561/5
f 68/58/5 655/5/5 65/5/5
f 66/2/6 657/3/6 67/11/6
f 657/3/6 66/2/6 656/1/6
f 192/3/1 194/2/1 191/1/1
f 194/3/1 192/2/1 193/1/1
f 659/3/2 192/2/2 191/1/2
f 192/3/2 659/2/2 660/1/2
f 661/5/3 194/152/3 193/5/3
f 194/152/3 661/5/3 662/562/3
f 661/5/4 659/5/4 662/563/4
f 659/5/4 661/5/4 660/564/4
f 659/5/5 194/155/5 662/565/5
f 194/155/5 659/5/5 191/5/5
f 192/2/6 661/3/6 193/11/6
f 661/3/6 192/2/6 660/1/6
f 665/3/1 664/2/1 663/1/1
f 664/3/1 665/2/1 666/1/1
f 69/3/2 665/2/2 663/1/2
f 665/3/2 69/2/2 71/1/2
f 72/60/3 664/5/3 666/566/3
f 664/5/3 72/60/3 70/5/3
f 72/5/4 69/5/4 70/567/4
f 69/5/4 72/5/4 71/568/4
f 69/65/5 664/5/5 70/5/5
f 664/5/5 69/65/5 663/569/5
f 665/2/6 72/3/6 666/11/6
f 72/3/6 665/2/6 71/1/6
f 669/3/1 668/2/1 667/1/1
f 668/3/1 669/2/1 670/1/1
f 671/3/2 669/2/2 667/1/2
f 669/3/2 671/2/2 672/1/2
f 673/5/3 668/5/3 670/570/3
f 668/5/3 673/5/3 674/571/3
f 673/5/4 671/5/4 674/572/4
f 671/5/4 673/5/4 672/573/4
f 671/5/5 668/5/5 674/574/5
f 668/5/5 671/5/5 667/575/5
f 669/2/6 673/3/6 670/11/6
f 673/3/6 669/2/6 672/1/6
f 677/3/1 676/2/1 675/1/1
f 676/3/1 677/2/1 678/1/1
f 679/3/2 677/2/2 675/1/2
f 677/3/2 679/2/2 680/1/2
f 681/5/3 676/5/3 678/576/3
f 676/5/3 681/5/3 682/577/3
f 681/5/4 679/5/4 682/578/4
f 679/5/4 681/5/4 680/579/4
f 679/5/5 676/5/5 682/580/5
f 676/5/5 679/5/5 675/581/5
f 677/2/6 681/3/6 678/11/6
f 681/3/6 677/2/6 680/1/6
f 685/3/1 684/2/1 683/1/1
f 684/3/1 685/2/1 686/1/1
f 687/3/2 685/2/2 683/1/2
f 685/3/2 687/2/2 688/1/2
f 689/5/3 684/5/3 686/582/3
f 684/5/3 689/5/3 690/583/3
f 689/5/4 687/5/4 690/584/4
f 687/5/4 689/5/4 688/585/4
f 687/5/5 684/5/5 690/586/5
f 684/5/5 687/5/5 683/587/5
f 685/2/6 689/3/6 686/11/6
f 689/3/6 685/2/6 688/1/6
f 693/3/1 692/2/1 691/1/1
f 692/3/1 693/2/1 694/1/1
f 695/3/2 693/2/2 691/1/2
f 693/3/2 695/2/2 696/1/2
f 697/5/3 692/5/3 694/588/3
f 692/5/3 697/5/3 698/589/3
f 697/5/4 695/5/4 698/590/4
f 695/5/4 697/5/4 696/591/4
f 695/5/5 692/5/5 698/592/5
f 692/5/5 695/5/5 691/593/5
f 693/2/6 697/3/6 694/11/6
f 697/3/6 693/2/6 696/1/6
f 681/3/1 261/2/1 682/1/1
f 261/3/1 681/2/1 262/1/1
f 699/3/2 681/2/2 682/1/2
f 681/3/2 699/2/2 700/1/2
f 701/5/3 261/5/3 262/594/3
f 261/5/3 701/5/3 702/595/3
f 701/5/4 699/5/4 702/596/4
f 699/5/4 701/5/4 700/597/4
f 699/5/5 261/5/5 702/598/5
f 261/5/5 699/5/5 682/580/5
f 681/2/6 701/3/6 262/11/6
f 701/3/6 681/2/6 700/1/6

usemtl color30

f 656/3/1 658/2/1 655/1/1
f 658/3/1 656/2/1 657/1/1
f 179/3/2 656/2/2 655/1/2
f 656/3/2 179/2/2 181/1/2
f 182/145/3 658/558/3 657/5/3
f 658/558/3 182/145/3 180/5/3
f 182/5/4 179/5/4 180/599/4
f 179/5/4 182/5/4 181/600/4
f 179/150/5 658/561/5 180/5/5
f 658/561/5 179/150/5 655/5/5
f 656/2/6 182/3/6 657/11/6
f 182/3/6 656/2/6 181/1/6
f 184/3/1 186/2/1 183/1/1
f 186/3/1 184/2/1 185/1/1
f 187/3/2 184/2/2 183/1/2
f 184/3/2 187/2/2 189/1/2
f 190/151/3 186/146/3 185/5/3
f 186/146/3 190/151/3 188/5/3
f 190/5/4 187/5/4 188/601/4
f 187/5/4 190/5/4 189/602/4
f 187/156/5 186/149/5 188/5/5
f 186/149/5 187/156/5 183/5/5
f 184/2/6 190/3/6 185/11/6
f 190/3/6 184/2/6 189/1/6
f 660/3/1 662/2/1 659/1/1
f 662/3/1 660/2/1 661/1/1
f 663/3/2 660/2/2 659/1/2
f 660/3/2 663/2/2 665/1/2
f 666/566/3 662/562/3 661/5/3
f 662/562/3 666/566/3 664/5/3
f 666/5/4 663/5/4 664/603/4
f 663/5/4 666/5/4 665/604/4
f 663/569/5 662/565/5 664/5/5
f 662/565/5 663/569/5 659/5/5
f 660/2/6 666/3/6 661/11/6
f 666/3/6 660/2/6 665/1/6
f 688/3/1 690/2/1 687/1/1
f 690/3/1 688/2/1 689/1/1
f 691/3/2 688/2/2 687/1/2
f 688/3/2 691/2/2 693/1/2
f 694/588/3 690/583/3 689/5/3
f 690/583/3 694/588/3 692/5/3
f 694/5/4 691/5/4 692/605/4
f 691/5/4 694/5/4 693/606/4
f 691/593/5 690/586/5 692/5/5
f 690/586/5 691/593/5 687/5/5
f 688/2/6 694/3/6 689/11/6
f 694/3/6 688/2/6 693/1/6

usemtl color13

f 608/3/1 610/2/1 607/1/1
f 610/3/1 608/2/1 609/1/1
f 195/3/2 608/2/2 607/1/2
f 608/3/2 195/2/2 197/1/2
f 198/157/3 610/512/3 609/5/3
f 610/512/3 198/157/3 196/5/3
f 198/5/4 195/5/4 196/607/4
f 195/5/4 198/5/4 197/608/4
f 195/162/5 610/515/5 196/5/5
f 610/515/5 195/162/5 607/5/5
f 608/2/6 198/3/6 609/11/6
f 198/3/6 608/2/6 197/1/6
f 705/3/1 704/2/1 703/1/1
f 704/3/1 705/2/1 706/1/1
f 707/3/2 705/2/2 703/1/2
f 705/3/2 707/2/2 708/1/2
f 709/5/3 704/5/3 706/609/3
f 704/5/3 709/5/3 710/610/3
f 709/5/4 707/5/4 710/611/4
f 707/5/4 709/5/4 708/612/4
f 707/5/5 704/5/5 710/613/5
f 704/5/5 707/5/5 703/614/5
f 705/2/6 709/3/6 706/11/6
f 709/3/6 705/2/6 708/1/6
f 713/3/1 712/2/1 711/1/1
f 712/3/1 713/2/1 714/1/1
f 715/3/2 713/2/2 711/1/2
f 713/3/2 715/2/2 716/1/2
f 717/5/3 712/5/3 714/615/3
f 712/5/3 717/5/3 718/616/3
f 717/5/4 715/5/4 718/617/4
f 715/5/4 717/5/4 716/618/4
f 715/5/5 712/5/5 718/619/5
f 712/5/5 715/5/5 711/620/5
f 713/2/6 717/3/6 714/11/6
f 717/3/6 713/2/6 716/1/6
f 721/3/1 720/2/1 719/1/1
f 720/3/1 721/2/1 722/1/1
f 723/3/2 721/2/2 719/1/2
f 721/3/2 723/2/2 724/1/2
f 725/5/3 720/5/3 722/621/3
f 720/5/3 725/5/3 726/622/3
f 725/5/4 723/5/4 726/623/4
f 723/5/4 725/5/4 724/624/4
f 723/5/5 720/5/5 726/625/5
f 720/5/5 723/5/5 719/626/5
f 721/2/6 725/3/6 722/11/6
f 725/3/6 721/2/6 724/1/6
f 96/3/1 98/2/1 95/1/1
f 98/3/1 96/2/1 97/1/1
f 727/3/2 96/2/2 95/1/2
f 96/3/2 727/2/2 728/1/2
f 295/5/3 98/79/3 97/5/3
f 98/79/3 295/5/3 293/627/3
f 295/5/4 727/5/4 293/628/4
f 727/5/4 295/5/4 728/629/4
f 727/5/5 98/82/5 293/237/5
f 98/82/5 727/5/5 95/5/5
f 96/2/6 295/3/6 97/11/6
f 295/3/6 96/2/6 728/1/6
f 731/3/1 730/2/1 729/1/1
f 730/3/1 731/2/1 732/1/1
f 733/3/2 731/2/2 729/1/2
f 731/3/2 733/2/2 734/1/2
f 735/5/3 730/5/3 732/630/3
f 730/5/3 735/5/3 736/631/3
f 735/5/4 733/5/4 736/632/4
f 733/5/4 735/5/4 734/633/4
f 733/5/5 730/5/5 736/634/5
f 730/5/5 733/5/5 729/635/5
f 731/2/6 735/3/6 732/11/6
f 735/3/6 731/2/6 734/1/6
f 739/3/1 738/2/1 737/1/1
f 738/3/1 739/2/1 740/1/1
f 741/3/2 739/2/2 737/1/2
f 739/3/2 741/2/2 742/1/2
f 743/5/3 738/5/3 740/636/3
f 738/5/3 743/5/3 744/637/3
f 743/5/4 741/5/4 744/638/4
f 741/5/4 743/5/4 742/639/4
f 741/5/5 738/5/5 744/640/5
f 738/5/5 741/5/5 737/641/5
f 739/2/6 743/3/6 740/11/6
f 743/3/6 739/2/6 742/1/6
f 747/3/1 746/2/1 745/1/1
f 746/3/1 747/2/1 748/1/1
f 749/3/2 747/2/2 745/1/2
f 747/3/2 749/2/2 750/1/2
f 751/5/3 746/5/3 748/642/3
f 746/5/3 751/5/3 752/643/3
f 751/5/4 749/5/4 752/644/4
f 749/5/4 751/5/4 750/645/4
f 749/5/5 746/5/5 752/646/5
f 746/5/5 749/5/5 745/647/5
f 747/2/6 751/3/6 748/11/6
f 751/3/6 747/2/6 750/1/6
f 755/3/1 754/2/1 753/1/1
f 754/3/1 755/2/1 756/1/1
f 757/3/2 755/2/2 753/1/2
f 755/3/2 757/2/2 758/1/2
f 759/5/3 754/5/3 756/648/3
f 754/5/3 759/5/3 760/649/3
f 759/5/4 757/5/4 760/650/4
f 757/5/4 759/5/4 758/651/4
f 757/5/5 754/5/5 760/652/5
f 754/5/5 757/5/5 753/653/5
f 755/2/6 759/3/6 756/11/6
f 759/3/6 755/2/6 758/1/6
f 763/3/1 762/2/1 761/1/1
f 762/3/1 763/2/1 764/1/1
f 765/3/2 763/2/2 761/1/2
f 763/3/2 765/2/2 766/1/2
f 767/5/3 762/5/3 764/654/3
f 762/5/3 767/5/3 768/655/3
f 767/5/4 765/5/4 768/656/4
f 765/5/4 767/5/4 766/657/4
f 765/5/5 762/5/5 768/658/5
f 762/5/5 765/5/5 761/659/5
f 763/2/6 767/3/6 764/11/6
f 767/3/6 763/2/6 766/1/6
f 650/3/1 652/2/1 649/1/1
f 652/3/1 650/2/1 651/1/1
f 294/3/2 650/2/2 649/1/2
f 650/3/2 294/2/2 296/1/2
f 769/5/3 652/550/3 651/5/3
f 652/550/3 769/5/3 770/660/3
f 769/5/4 294/5/4 770/661/4
f 294/5/4 769/5/4 296/662/4
f 294/5/5 652/553/5 770/663/5
f 652/553/5 294/5/5 649/5/5
f 650/2/6 769/3/6 651/11/6
f 769/3/6 650/2/6 296/1/6
f 773/3/1 772/2/1 771/1/1
f 772/3/1 773/2/1 774/1/1
f 775/3/2 773/2/2 771/1/2
f 773/3/2 775/2/2 776/1/2
f 777/5/3 772/5/3 774/664/3
f 772/5/3 777/5/3 778/665/3
f 777/5/4 775/5/4 778/666/4
f 775/5/4 777/5/4 776/667/4
f 775/5/5 772/5/5 778/668/5
f 772/5/5 775/5/5 771/669/5
f 773/2/6 777/3/6 774/11/6
f 777/3/6 773/2/6 776/1/6

usemtl color12

f 64/3/1 779/2/1 62/1/1
f 779/3/1 64/2/1 780/1/1
f 68/3/2 64/2/2 62/1/2
f 64/3/2 68/2/2 67/1/2
f 781/5/3 779/5/3 780/670/3
f 779/5/3 781/5/3 782/671/3
f 781/5/4 68/56/4 782/672/4
f 68/56/4 781/5/4 67/5/4
f 68/58/5 779/5/5 782/673/5
f 779/5/5 68/58/5 62/5/5
f 64/2/6 781/3/6 780/11/6
f 781/3/6 64/2/6 67/1/6
f 190/3/1 783/2/1 188/1/1
f 783/3/1 190/2/1 784/1/1
f 194/3/2 190/2/2 188/1/2
f 190/3/2 194/2/2 193/1/2
f 785/5/3 783/5/3 784/674/3
f 783/5/3 785/5/3 786/675/3
f 785/5/4 194/153/4 786/676/4
f 194/153/4 785/5/4 193/5/4
f 194/155/5 783/5/5 786/677/5
f 783/5/5 194/155/5 188/5/5
f 190/2/6 785/3/6 784/11/6
f 785/3/6 190/2/6 193/1/6
f 72/3/1 787/2/1 70/1/1
f 787/3/1 72/2/1 788/1/1
f 76/3/2 72/2/2 70/1/2
f 72/3/2 76/2/2 75/1/2
f 789/5/3 787/5/3 788/678/3
f 787/5/3 789/5/3 790/679/3
f 789/5/4 76/62/4 790/680/4
f 76/62/4 789/5/4 75/5/4
f 76/64/5 787/5/5 790/681/5
f 787/5/5 76/64/5 70/5/5
f 72/2/6 789/3/6 788/11/6
f 789/3/6 72/2/6 75/1/6
f 792/3/1 559/2/1 791/1/1
f 559/3/1 792/2/1 561/1/1
f 613/3/2 792/2/2 791/1/2
f 792/3/2 613/2/2 614/1/2
f 564/521/3 559/5/3 561/682/3
f 559/5/3 564/521/3 563/5/3
f 564/470/4 613/5/4 563/5/4
f 613/5/4 564/470/4 614/683/4
f 613/526/5 559/472/5 563/5/5
f 559/472/5 613/526/5 791/684/5
f 792/2/6 564/3/6 561/11/6
f 564/3/6 792/2/6 614/1/6
f 564/3/1 566/2/1 563/1/1
f 566/3/1 564/2/1 565/1/1
f 571/3/2 564/2/2 563/1/2
f 564/3/2 571/2/2 573/1/2
f 574/481/3 566/468/3 565/5/3
f 566/468/3 574/481/3 572/5/3
f 574/5/4 571/5/4 572/685/4
f 571/5/4 574/5/4 573/686/4
f 571/486/5 566/471/5 572/5/5
f 566/471/5 571/486/5 563/5/5
f 564/2/6 574/3/6 565/11/6
f 574/3/6 564/2/6 573/1/6
f 113/3/1 147/2/1 114/1/1
f 147/3/1 113/2/1 149/1/1
f 116/3/2 113/2/2 114/1/2
f 113/3/2 116/2/2 118/1/2
f 152/5/3 147/5/3 149/687/3
f 147/5/3 152/5/3 151/688/3
f 152/122/4 116/479/4 151/5/4
f 116/479/4 152/122/4 118/5/4
f 116/5/5 147/124/5 151/5/5
f 147/124/5 116/5/5 114/93/5
f 113/2/6 152/3/6 149/11/6
f 152/3/6 113/2/6 118/1/6
f 781/3/1 793/2/1 782/1/1
f 793/3/1 781/2/1 794/1/1
f 795/3/2 781/2/2 782/1/2
f 781/3/2 795/2/2 796/1/2
f 267/5/3 793/5/3 794/689/3
f 793/5/3 267/5/3 265/690/3
f 267/5/4 795/5/4 265/691/4
f 795/5/4 267/5/4 796/692/4
f 795/5/5 793/5/5 265/215/5
f 793/5/5 795/5/5 782/673/5
f 781/2/6 267/3/6 794/11/6
f 267/3/6 781/2/6 796/1/6
f 798/3/1 269/2/1 797/1/1
f 269/3/1 798/2/1 270/1/1
f 783/3/2 798/2/2 797/1/2
f 798/3/2 783/2/2 784/1/2
f 799/5/3 269/5/3 270/693/3
f 269/5/3 799/5/3 800/694/3
f 799/5/4 783/5/4 800/695/4
f 783/5/4 799/5/4 784/696/4
f 783/5/5 269/5/5 800/697/5
f 269/5/5 783/5/5 797/698/5
f 798/2/6 799/3/6 270/11/6
f 799/3/6 798/2/6 784/1/6
f 785/3/1 273/2/1 786/1/1
f 273/3/1 785/2/1 275/1/1
f 787/3/2 785/2/2 786/1/2
f 785/3/2 787/2/2 788/1/2
f 286/5/3 273/5/3 275/699/3
f 273/5/3 286/5/3 285/700/3
f 286/225/4 787/5/4 285/5/4
f 787/5/4 286/225/4 788/701/4
f 787/5/5 273/221/5 285/5/5
f 273/221/5 787/5/5 786/677/5
f 785/2/6 286/3/6 275/11/6
f 286/3/6 785/2/6 788/1/6
f 562/3/1 801/2/1 560/1/1
f 801/3/1 562/2/1 802/1/1
f 566/3/2 562/2/2 560/1/2
f 562/3/2 566/2/2 565/1/2
f 642/544/3 801/5/3 802/702/3
f 801/5/3 642/544/3 641/5/3
f 642/5/4 566/469/4 641/703/4
f 566/469/4 642/5/4 565/5/4
f 566/471/5 801/5/5 641/5/5
f 801/5/5 566/471/5 560/5/5
f 562/2/6 642/3/6 802/11/6
f 642/3/6 562/2/6 565/1/6
f 805/3/1 804/2/1 803/1/1
f 804/3/1 805/2/1 806/1/1
f 459/3/2 805/2/2 803/1/2
f 805/3/2 459/2/2 461/1/2
f 462/371/3 804/5/3 806/704/3
f 804/5/3 462/371/3 460/5/3
f 462/5/4 459/5/4 460/705/4
f 459/5/4 462/5/4 461/706/4
f 459/374/5 804/5/5 460/5/5
f 804/5/5 459/374/5 803/707/5
f 805/2/6 462/3/6 806/11/6
f 462/3/6 805/2/6 461/1/6
f 268/3/1 807/2/1 266/1/1
f 807/3/1 268/2/1 808/1/1
f 809/3/2 268/2/2 266/1/2
f 268/3/2 809/2/2 810/1/2
f 811/5/3 807/5/3 808/708/3
f 807/5/3 811/5/3 812/709/3
f 811/5/4 809/5/4 812/710/4
f 809/5/4 811/5/4 810/711/4
f 809/5/5 807/5/5 812/712/5
f 807/5/5 809/5/5 266/5/5
f 268/2/6 811/3/6 808/11/6
f 811/3/6 268/2/6 810/1/6
f 276/3/1 813/2/1 274/1/1
f 813/3/1 276/2/1 814/1/1
f 280/3/2 276/2/2 274/1/2
f 276/3/2 280/2/2 279/1/2
f 815/5/3 813/5/3 814/713/3
f 813/5/3 815/5/3 816/714/3
f 815/5/4 280/218/4 816/715/4
f 280/218/4 815/5/4 279/5/4
f 280/220/5 813/5/5 816/716/5
f 813/5/5 280/220/5 274/5/5
f 276/2/6 815/3/6 814/11/6
f 815/3/6 276/2/6 279/1/6
f 284/3/1 817/2/1 282/1/1
f 817/3/1 284/2/1 818/1/1
f 288/3/2 284/2/2 282/1/2
f 284/3/2 288/2/2 287/1/2
f 819/5/3 817/5/3 818/717/3
f 817/5/3 819/5/3 820/718/3
f 819/5/4 288/224/4 820/719/4
f 288/224/4 819/5/4 287/5/4
f 288/226/5 817/5/5 820/720/5
f 817/5/5 288/226/5 282/5/5
f 284/2/6 819/3/6 818/11/6
f 819/3/6 284/2/6 287/1/6

usemtl color8

f 657/3/1 555/2/1 658/1/1
f 555/3/1 657/2/1 556/1/1
f 180/3/2 657/2/2 658/1/2
f 657/3/2 180/2/2 182/1/2
f 821/5/3 555/5/3 556/721/3
f 555/5/3 821/5/3 822/722/3
f 821/5/4 180/599/4 822/723/4
f 180/599/4 821/5/4 182/5/4
f 180/5/5 555/5/5 822/724/5
f 555/5/5 180/5/5 658/561/5
f 657/2/6 821/3/6 556/11/6
f 821/3/6 657/2/6 182/1/6
f 661/3/1 823/2/1 662/1/1
f 823/3/1 661/2/1 824/1/1
f 664/3/2 661/2/2 662/1/2
f 661/3/2 664/2/2 666/1/2
f 825/5/3 823/5/3 824/725/3
f 823/5/3 825/5/3 826/726/3
f 825/5/4 664/603/4 826/727/4
f 664/603/4 825/5/4 666/5/4
f 664/5/5 823/5/5 826/728/5
f 823/5/5 664/5/5 662/565/5
f 661/2/6 825/3/6 824/11/6
f 825/3/6 661/2/6 666/1/6
f 410/3/1 827/2/1 408/1/1
f 827/3/1 410/2/1 828/1/1
f 829/3/2 410/2/2 408/1/2
f 410/3/2 829/2/2 830/1/2
f 831/5/3 827/5/3 828/729/3
f 827/5/3 831/5/3 832/730/3
f 831/5/4 829/5/4 832/731/4
f 829/5/4 831/5/4 830/732/4
f 829/5/5 827/5/5 832/733/5
f 827/5/5 829/5/5 408/5/5
f 410/2/6 831/3/6 828/11/6
f 831/3/6 410/2/6 830/1/6
f 835/3/1 834/2/1 833/1/1
f 834/3/1 835/2/1 836/1/1
f 414/3/2 835/2/2 833/1/2
f 835/3/2 414/2/2 413/1/2
f 837/5/3 834/5/3 836/734/3
f 834/5/3 837/5/3 838/735/3
f 837/5/4 414/332/4 838/736/4
f 414/332/4 837/5/4 413/5/4
f 414/334/5 834/5/5 838/737/5
f 834/5/5 414/334/5 833/738/5
f 835/2/6 837/3/6 836/11/6
f 837/3/6 835/2/6 413/1/6
f 840/3/1 832/2/1 839/1/1
f 832/3/1 840/2/1 831/1/1
f 625/3/2 840/2/2 839/1/2
f 840/3/2 625/2/2 627/1/2
f 628/532/3 832/730/3 831/5/3
f 832/730/3 628/532/3 626/5/3
f 628/5/4 625/5/4 626/739/4
f 625/5/4 628/5/4 627/740/4
f 625/537/5 832/733/5 626/5/5
f 832/733/5 625/537/5 839/741/5
f 840/2/6 628/3/6 831/11/6
f 628/3/6 840/2/6 627/1/6
f 630/3/1 632/2/1 629/1/1
f 632/3/1 630/2/1 631/1/1
f 841/3/2 630/2/2 629/1/2
f 630/3/2 841/2/2 842/1/2
f 836/734/3 632/533/3 631/5/3
f 632/533/3 836/734/3 834/5/3
f 836/5/4 841/5/4 834/742/4
f 841/5/4 836/5/4 842/743/4
f 841/5/5 632/536/5 834/5/5
f 632/536/5 841/5/5 629/5/5
f 630/2/6 836/3/6 631/11/6
f 836/3/6 630/2/6 842/1/6
f 845/3/1 844/2/1 843/1/1
f 844/3/1 845/2/1 846/1/1
f 847/3/2 845/2/2 843/1/2
f 845/3/2 847/2/2 848/1/2
f 849/5/3 844/5/3 846/744/3
f 844/5/3 849/5/3 850/745/3
f 849/5/4 847/5/4 850/746/4
f 847/5/4 849/5/4 848/747/4
f 847/5/5 844/5/5 850/748/5
f 844/5/5 847/5/5 843/749/5
f 845/2/6 849/3/6 846/11/6
f 849/3/6 845/2/6 848/1/6
f 796/3/1 265/2/1 795/1/1
f 265/3/1 796/2/1 267/1/1
f 797/3/2 796/2/2 795/1/2
f 796/3/2 797/2/2 798/1/2
f 270/693/3 265/690/3 267/5/3
f 265/690/3 270/693/3 269/5/3
f 270/213/4 797/5/4 269/5/4
f 797/5/4 270/213/4 798/750/4
f 797/698/5 265/215/5 269/5/5
f 265/215/5 797/698/5 795/5/5
f 796/2/6 270/3/6 267/11/6
f 270/3/6 796/2/6 798/1/6
f 853/3/1 852/2/1 851/1/1
f 852/3/1 853/2/1 854/1/1
f 624/3/2 853/2/2 851/1/2
f 853/3/2 624/2/2 623/1/2
f 855/5/3 852/5/3 854/751/3
f 852/5/3 855/5/3 856/752/3
f 855/5/4 624/529/4 856/753/4
f 624/529/4 855/5/4 623/5/4
f 624/531/5 852/5/5 856/754/5
f 852/5/5 624/531/5 851/755/5
f 853/2/6 855/3/6 854/11/6
f 855/3/6 853/2/6 623/1/6
f 859/3/1 858/2/1 857/1/1
f 858/3/1 859/2/1 860/1/1
f 793/3/2 859/2/2 857/1/2
f 859/3/2 793/2/2 794/1/2
f 861/5/3 858/5/3 860/756/3
f 858/5/3 861/5/3 862/757/3
f 861/5/4 793/5/4 862/758/4
f 793/5/4 861/5/4 794/759/4
f 793/5/5 858/5/5 862/760/5
f 858/5/5 793/5/5 857/761/5
f 859/2/6 861/3/6 860/11/6
f 861/3/6 859/2/6 794/1/6
f 286/3/1 288/2/1 285/1/1
f 288/3/1 286/2/1 287/1/1
f 863/3/2 286/2/2 285/1/2
f 286/3/2 863/2/2 864/1/2
f 865/5/3 288/223/3 287/5/3
f 288/223/3 865/5/3 866/762/3
f 865/5/4 863/5/4 866/763/4
f 863/5/4 865/5/4 864/764/4
f 863/5/5 288/226/5 866/765/5
f 288/226/5 863/5/5 285/5/5
f 286/2/6 865/3/6 287/11/6
f 865/3/6 286/2/6 864/1/6
f 869/3/1 868/2/1 867/1/1
f 868/3/1 869/2/1 870/1/1
f 871/3/2 869/2/2 867/1/2
f 869/3/2 871/2/2 872/1/2
f 873/5/3 868/5/3 870/766/3
f 868/5/3 873/5/3 874/767/3
f 873/5/4 871/5/4 874/768/4
f 871/5/4 873/5/4 872/769/4
f 871/5/5 868/5/5 874/770/5
f 868/5/5 871/5/5 867/771/5
f 869/2/6 873/3/6 870/11/6
f 873/3/6 869/2/6 872/1/6
f 877/3/1 876/2/1 875/1/1
f 876/3/1 877/2/1 878/1/1
f 879/3/2 877/2/2 875/1/2
f 877/3/2 879/2/2 880/1/2
f 881/5/3 876/5/3 878/772/3
f 876/5/3 881/5/3 882/773/3
f 881/5/4 879/5/4 882/774/4
f 879/5/4 881/5/4 880/775/4
f 879/5/5 876/5/5 882/776/5
f 876/5/5 879/5/5 875/777/5
f 877/2/6 881/3/6 878/11/6
f 881/3/6 877/2/6 880/1/6
f 810/3/1 812/2/1 809/1/1
f 812/3/1 810/2/1 811/1/1
f 274/3/2 810/2/2 809/1/2
f 810/3/2 274/2/2 276/1/2
f 814/713/3 812/709/3 811/5/3
f 812/709/3 814/713/3 813/5/3
f 814/5/4 274/5/4 813/778/4
f 274/5/4 814/5/4 276/779/4
f 274/5/5 812/712/5 813/5/5
f 812/712/5 274/5/5 809/5/5
f 810/2/6 814/3/6 811/11/6
f 814/3/6 810/2/6 276/1/6
f 279/3/1 816/2/1 280/1/1
f 816/3/1 279/2/1 815/1/1
f 282/3/2 279/2/2 280/1/2
f 279/3/2 282/2/2 284/1/2
f 818/717/3 816/714/3 815/5/3
f 816/714/3 818/717/3 817/5/3
f 818/5/4 282/5/4 817/780/4
f 282/5/4 818/5/4 284/781/4
f 282/5/5 816/716/5 817/5/5
f 816/716/5 282/5/5 280/220/5
f 279/2/6 818/3/6 815/11/6
f 818/3/6 279/2/6 284/1/6
f 885/3/1 884/2/1 883/1/1
f 884/3/1 885/2/1 886/1/1
f 887/3/2 885/2/2 883/1/2
f 885/3/2 887/2/2 888/1/2
f 889/5/3 884/5/3 886/782/3
f 884/5/3 889/5/3 890/783/3
f 889/5/4 887/5/4 890/784/4
f 887/5/4 889/5/4 888/785/4
f 887/5/5 884/5/5 890/786/5
f 884/5/5 887/5/5 883/787/5
f 885/2/6 889/3/6 886/11/6
f 889/3/6 885/2/6 888/1/6
f 893/3/1 892/2/1 891/1/1
f 892/3/1 893/2/1 894/1/1
f 895/3/2 893/2/2 891/1/2
f 893/3/2 895/2/2 896/1/2
f 897/5/3 892/5/3 894/788/3
f 892/5/3 897/5/3 898/789/3
f 897/5/4 895/5/4 898/790/4
f 895/5/4 897/5/4 896/791/4
f 895/5/5 892/5/5 898/792/5
f 892/5/5 895/5/5 891/793/5
f 893/2/6 897/3/6 894/11/6
f 897/3/6 893/2/6 896/1/6
f 901/3/1 900/2/1 899/1/1
f 900/3/1 901/2/1 902/1/1
f 771/3/2 901/2/2 899/1/2
f 901/3/2 771/2/2 773/1/2
f 774/664/3 900/5/3 902/794/3
f 900/5/3 774/664/3 772/5/3
f 774/5/4 771/5/4 772/795/4
f 771/5/4 774/5/4 773/796/4
f 771/669/5 900/5/5 772/5/5
f 900/5/5 771/669/5 899/797/5
f 901/2/6 774/3/6 902/11/6
f 774/3/6 901/2/6 773/1/6
f 776/3/1 778/2/1 775/1/1
f 778/3/1 776/2/1 777/1/1
f 876/3/2 776/2/2 775/1/2
f 776/3/2 876/2/2 878/1/2
f 903/5/3 778/665/3 777/5/3
f 778/665/3 903/5/3 904/798/3
f 903/5/4 876/5/4 904/799/4
f 876/5/4 903/5/4 878/800/4
f 876/5/5 778/668/5 904/801/5
f 778/668/5 876/5/5 775/5/5
f 776/2/6 903/3/6 777/11/6
f 903/3/6 776/2/6 878/1/6
f 907/3/1 906/2/1 905/1/1
f 906/3/1 907/2/1 908/1/1
f 909/3/2 907/2/2 905/1/2
f 907/3/2 909/2/2 910/1/2
f 911/5/3 906/5/3 908/802/3
f 906/5/3 911/5/3 912/803/3
f 911/5/4 909/5/4 912/804/4
f 909/5/4 911/5/4 910/805/4
f 909/5/5 906/5/5 912/806/5
f 906/5/5 909/5/5 905/807/5
f 907/2/6 911/3/6 908/11/6
f 911/3/6 907/2/6 910/1/6
f 915/3/1 914/2/1 913/1/1
f 914/3/1 915/2/1 916/1/1
f 917/3/2 915/2/2 913/1/2
f 915/3/2 917/2/2 918/1/2
f 919/5/3 914/5/3 916/808/3
f 914/5/3 919/5/3 920/809/3
f 919/5/4 917/5/4 920/810/4
f 917/5/4 919/5/4 918/811/4
f 917/5/5 914/5/5 920/812/5
f 914/5/5 917/5/5 913/813/5
f 915/2/6 919/3/6 916/11/6
f 919/3/6 915/2/6 918/1/6

usemtl color24

f 185/3/1 921/2/1 186/1/1
f 921/3/1 185/2/1 922/1/1
f 188/3/2 185/2/2 186/1/2
f 185/3/2 188/2/2 190/1/2
f 923/5/3 921/5/3 922/814/3
f 921/5/3 923/5/3 924/815/3
f 923/5/4 188/601/4 924/816/4
f 188/601/4 923/5/4 190/5/4
f 188/5/5 921/5/5 924/817/5
f 921/5/5 188/5/5 186/149/5
f 185/2/6 923/3/6 922/11/6
f 923/3/6 185/2/6 190/1/6
f 821/3/1 925/2/1 822/1/1
f 925/3/1 821/2/1 926/1/1
f 921/3/2 821/2/2 822/1/2
f 821/3/2 921/2/2 922/1/2
f 927/5/3 925/5/3 926/818/3
f 925/5/3 927/5/3 928/819/3
f 927/5/4 921/5/4 928/820/4
f 921/5/4 927/5/4 922/821/4
f 921/5/5 925/5/5 928/822/5
f 925/5/5 921/5/5 822/724/5
f 821/2/6 927/3/6 926/11/6
f 927/3/6 821/2/6 922/1/6
f 824/3/1 843/2/1 823/1/1
f 843/3/1 824/2/1 845/1/1
f 826/3/2 824/2/2 823/1/2
f 824/3/2 826/2/2 825/1/2
f 848/5/3 843/5/3 845/823/3
f 843/5/3 848/5/3 847/824/3
f 848/747/4 826/727/4 847/5/4
f 826/727/4 848/747/4 825/5/4
f 826/728/5 843/749/5 847/5/5
f 843/749/5 826/728/5 823/5/5
f 824/2/6 848/3/6 845/11/6
f 848/3/6 824/2/6 825/1/6
f 557/3/1 795/2/1 558/1/1
f 795/3/1 557/2/1 796/1/1
f 925/3/2 557/2/2 558/1/2
f 557/3/2 925/2/2 926/1/2
f 798/5/3 795/5/3 796/825/3
f 795/5/3 798/5/3 797/826/3
f 798/750/4 925/5/4 797/5/4
f 925/5/4 798/750/4 926/827/4
f 925/5/5 795/5/5 797/698/5
f 795/5/5 925/5/5 558/464/5
f 557/2/6 798/3/6 796/11/6
f 798/3/6 557/2/6 926/1/6
f 927/3/1 929/2/1 928/1/1
f 929/3/1 927/2/1 930/1/1
f 931/3/2 927/2/2 928/1/2
f 927/3/2 931/2/2 932/1/2
f 784/674/3 929/5/3 930/828/3
f 929/5/3 784/674/3 783/5/3
f 784/696/4 931/5/4 783/5/4
f 931/5/4 784/696/4 932/829/4
f 931/5/5 929/5/5 783/5/5
f 929/5/5 931/5/5 928/822/5
f 927/2/6 784/3/6 930/11/6
f 784/3/6 927/2/6 932/1/6
f 735/3/1 803/2/1 736/1/1
f 803/3/1 735/2/1 805/1/1
f 108/3/2 735/2/2 736/1/2
f 735/3/2 108/2/2 110/1/2
f 461/5/3 803/5/3 805/830/3
f 803/5/3 461/5/3 459/831/3
f 461/706/4 108/5/4 459/5/4
f 108/5/4 461/706/4 110/832/4
f 108/5/5 803/707/5 459/374/5
f 803/707/5 108/5/5 736/634/5
f 735/2/6 461/3/6 805/11/6
f 461/3/6 735/2/6 110/1/6

usemtl color20

f 934/3/1 229/2/1 933/1/1
f 229/3/1 934/2/1 230/1/1
f 935/3/2 934/2/2 933/1/2
f 934/3/2 935/2/2 936/1/2
f 235/5/3 229/5/3 230/833/3
f 229/5/3 235/5/3 233/834/3
f 235/5/4 935/5/4 233/835/4
f 935/5/4 235/5/4 936/836/4
f 935/5/5 229/5/5 233/191/5
f 229/5/5 935/5/5 933/837/5
f 934/2/6 235/3/6 230/11/6
f 235/3/6 934/2/6 936/1/6
f 938/3/1 237/2/1 937/1/1
f 237/3/1 938/2/1 238/1/1
f 939/3/2 938/2/2 937/1/2
f 938/3/2 939/2/2 940/1/2
f 243/5/3 237/5/3 238/838/3
f 237/5/3 243/5/3 241/839/3
f 243/5/4 939/5/4 241/840/4
f 939/5/4 243/5/4 940/841/4
f 939/5/5 237/5/5 241/197/5
f 237/5/5 939/5/5 937/842/5
f 938/2/6 243/3/6 238/11/6
f 243/3/6 938/2/6 940/1/6
f 943/3/1 942/2/1 941/1/1
f 942/3/1 943/2/1 944/1/1
f 945/3/2 943/2/2 941/1/2
f 943/3/2 945/2/2 946/1/2
f 947/5/3 942/5/3 944/843/3
f 942/5/3 947/5/3 948/844/3
f 947/5/4 945/5/4 948/845/4
f 945/5/4 947/5/4 946/846/4
f 945/5/5 942/5/5 948/847/5
f 942/5/5 945/5/5 941/848/5
f 943/2/6 947/3/6 944/11/6
f 947/3/6 943/2/6 946/1/6
f 228/3/1 633/2/1 226/1/1
f 633/3/1 228/2/1 635/1/1
f 232/3/2 228/2/2 226/1/2
f 228/3/2 232/2/2 231/1/2
f 638/5/3 633/5/3 635/849/3
f 633/5/3 638/5/3 637/850/3
f 638/541/4 232/182/4 637/5/4
f 232/182/4 638/541/4 231/5/4
f 232/184/5 633/543/5 637/5/5
f 633/543/5 232/184/5 226/5/5
f 228/2/6 638/3/6 635/11/6
f 638/3/6 228/2/6 231/1/6
f 236/3/1 131/2/1 234/1/1
f 131/3/1 236/2/1 133/1/1
f 240/3/2 236/2/2 234/1/2
f 236/3/2 240/2/2 239/1/2
f 136/5/3 131/5/3 133/851/3
f 131/5/3 136/5/3 135/852/3
f 136/110/4 240/188/4 135/5/4
f 240/188/4 136/110/4 239/5/4
f 240/190/5 131/112/5 135/5/5
f 131/112/5 240/190/5 234/5/5
f 236/2/6 136/3/6 133/11/6
f 136/3/6 236/2/6 239/1/6
f 244/3/1 139/2/1 242/1/1
f 139/3/1 244/2/1 141/1/1
f 248/3/2 244/2/2 242/1/2
f 244/3/2 248/2/2 247/1/2
f 144/5/3 139/5/3 141/853/3
f 139/5/3 144/5/3 143/854/3
f 144/116/4 248/194/4 143/5/4
f 248/194/4 144/116/4 247/5/4
f 248/196/5 139/118/5 143/5/5
f 139/118/5 248/196/5 242/5/5
f 244/2/6 144/3/6 141/11/6
f 144/3/6 244/2/6 247/1/6
f 951/3/1 950/2/1 949/1/1
f 950/3/1 951/2/1 952/1/1
f 953/3/2 951/2/2 949/1/2
f 951/3/2 953/2/2 954/1/2
f 955/5/3 950/5/3 952/855/3
f 950/5/3 955/5/3 956/856/3
f 955/5/4 953/5/4 956/857/4
f 953/5/4 955/5/4 954/858/4
f 953/5/5 950/5/5 956/859/5
f 950/5/5 953/5/5 949/860/5
f 951/2/6 955/3/6 952/11/6
f 955/3/6 951/2/6 954/1/6
f 959/3/1 958/2/1 957/1/1
f 958/3/1 959/2/1 960/1/1
f 803/3/2 959/2/2 957/1/2
f 959/3/2 803/2/2 805/1/2
f 806/704/3 958/5/3 960/861/3
f 958/5/3 806/704/3 804/5/3
f 806/5/4 803/5/4 804/862/4
f 803/5/4 806/5/4 805/863/4
f 803/707/5 958/5/5 804/5/5
f 958/5/5 803/707/5 957/864/5
f 959/2/6 806/3/6 960/11/6
f 806/3/6 959/2/6 805/1/6
f 639/3/1 961/2/1 640/1/1
f 961/3/1 639/2/1 962/1/1
f 132/3/2 639/2/2 640/1/2
f 639/3/2 132/2/2 134/1/2
f 963/5/3 961/5/3 962/865/3
f 961/5/3 963/5/3 964/866/3
f 963/5/4 132/5/4 964/867/4
f 132/5/4 963/5/4 134/868/4
f 132/5/5 961/5/5 964/869/5
f 961/5/5 132/5/5 640/542/5
f 639/2/6 963/3/6 962/11/6
f 963/3/6 639/2/6 134/1/6
f 137/3/1 965/2/1 138/1/1
f 965/3/1 137/2/1 966/1/1
f 140/3/2 137/2/2 138/1/2
f 137/3/2 140/2/2 142/1/2
f 967/5/3 965/5/3 966/870/3
f 965/5/3 967/5/3 968/871/3
f 967/5/4 140/5/4 968/872/4
f 140/5/4 967/5/4 142/873/4
f 140/5/5 965/5/5 968/874/5
f 965/5/5 140/5/5 138/111/5
f 137/2/6 967/3/6 966/11/6
f 967/3/6 137/2/6 142/1/6

usemtl color25

f 971/3/1 970/2/1 969/1/1
f 970/3/1 971/2/1 972/1/1
f 973/3/2 971/2/2 969/1/2
f 971/3/2 973/2/2 974/1/2
f 975/5/3 970/5/3 972/875/3
f 970/5/3 975/5/3 976/876/3
f 975/5/4 973/5/4 976/877/4
f 973/5/4 975/5/4 974/878/4
f 973/5/5 970/5/5 976/879/5
f 970/5/5 973/5/5 969/880/5
f 971/2/6 975/3/6 972/11/6
f 975/3/6 971/2/6 974/1/6
f 714/3/1 753/2/1 712/1/1
f 753/3/1 714/2/1 755/1/1
f 718/3/2 714/2/2 712/1/2
f 714/3/2 718/2/2 717/1/2
f 758/5/3 753/5/3 755/881/3
f 753/5/3 758/5/3 757/882/3
f 758/651/4 718/617/4 757/5/4
f 718/617/4 758/651/4 717/5/4
f 718/619/5 753/653/5 757/5/5
f 753/653/5 718/619/5 712/5/5
f 714/2/6 758/3/6 755/11/6
f 758/3/6 714/2/6 717/1/6
f 722/3/1 761/2/1 720/1/1
f 761/3/1 722/2/1 763/1/1
f 726/3/2 722/2/2 720/1/2
f 722/3/2 726/2/2 725/1/2
f 766/5/3 761/5/3 763/883/3
f 761/5/3 766/5/3 765/884/3
f 766/657/4 726/623/4 765/5/4
f 726/623/4 766/657/4 725/5/4
f 726/625/5 761/659/5 765/5/5
f 761/659/5 726/625/5 720/5/5
f 722/2/6 766/3/6 763/11/6
f 766/3/6 722/2/6 725/1/6

usemtl color31

f 673/3/1 253/2/1 674/1/1
f 253/3/1 673/2/1 254/1/1
f 676/3/2 673/2/2 674/1/2
f 673/3/2 676/2/2 678/1/2
f 259/5/3 253/5/3 254/885/3
f 253/5/3 259/5/3 257/886/3
f 259/5/4 676/5/4 257/887/4
f 676/5/4 259/5/4 678/888/4
f 676/5/5 253/5/5 257/209/5
f 253/5/5 676/5/5 674/574/5
f 673/2/6 259/3/6 254/11/6
f 259/3/6 673/2/6 678/1/6

usemtl color28

f 734/3/1 736/2/1 733/1/1
f 736/3/1 734/2/1 735/1/1
f 107/3/2 734/2/2 733/1/2
f 734/3/2 107/2/2 109/1/2
f 110/89/3 736/631/3 735/5/3
f 736/631/3 110/89/3 108/5/3
f 110/832/4 107/5/4 108/5/4
f 107/5/4 110/832/4 109/889/4
f 107/94/5 736/634/5 108/5/5
f 736/634/5 107/94/5 733/5/5
f 734/2/6 110/3/6 735/11/6
f 110/3/6 734/2/6 109/1/6
f 979/3/1 978/2/1 977/1/1
f 978/3/1 979/2/1 980/1/1
f 981/3/2 979/2/2 977/1/2
f 979/3/2 981/2/2 982/1/2
f 983/5/3 978/5/3 980/890/3
f 978/5/3 983/5/3 984/891/3
f 983/5/4 981/5/4 984/892/4
f 981/5/4 983/5/4 982/893/4
f 981/5/5 978/5/5 984/894/5
f 978/5/5 981/5/5 977/895/5
f 979/2/6 983/3/6 980/11/6
f 983/3/6 979/2/6 982/1/6

usemtl color27

f 986/3/1 624/2/1 985/1/1
f 624/3/1 986/2/1 623/1/1
f 987/3/2 986/2/2 985/1/2
f 986/3/2 987/2/2 988/1/2
f 989/5/3 624/528/3 623/5/3
f 624/528/3 989/5/3 990/896/3
f 989/5/4 987/5/4 990/897/4
f 987/5/4 989/5/4 988/898/4
f 987/5/5 624/531/5 990/899/5
f 624/531/5 987/5/5 985/900/5
f 986/2/6 989/3/6 623/11/6
f 989/3/6 986/2/6 988/1/6

usemtl color3

f 993/3/1 992/2/1 991/1/1
f 992/3/1 993/2/1 994/1/1
f 995/3/2 993/2/2 991/1/2
f 993/3/2 995/2/2 996/1/2
f 997/5/3 992/5/3 994/901/3
f 992/5/3 997/5/3 998/902/3
f 997/5/4 995/5/4 998/903/4
f 995/5/4 997/5/4 996/904/4
f 995/5/5 992/5/5 998/905/5
f 992/5/5 995/5/5 991/906/5
f 993/2/6 997/3/6 994/11/6
f 997/3/6 993/2/6 996/1/6
f 582/3/1 509/2/1 580/1/1
f 509/3/1 582/2/1 511/1/1
f 586/3/2 582/2/2 580/1/2
f 582/3/2 586/2/2 585/1/2
f 514/5/3 509/5/3 511/907/3
f 509/5/3 514/5/3 513/908/3
f 514/419/4 586/489/4 513/5/4
f 586/489/4 514/419/4 585/5/4
f 586/491/5 509/421/5 513/5/5
f 509/421/5 586/491/5 580/5/5
f 582/2/6 514/3/6 511/11/6
f 514/3/6 582/2/6 585/1/6
f 590/3/1 521/2/1 588/1/1
f 521/3/1 590/2/1 523/1/1
f 594/3/2 590/2/2 588/1/2
f 590/3/2 594/2/2 593/1/2
f 526/5/3 521/5/3 523/909/3
f 521/5/3 526/5/3 525/910/3
f 526/429/4 594/495/4 525/5/4
f 594/495/4 526/429/4 593/5/4
f 594/497/5 521/431/5 525/5/5
f 521/431/5 594/497/5 588/5/5
f 590/2/6 526/3/6 523/11/6
f 526/3/6 590/2/6 593/1/6
f 1001/3/1 1000/2/1 999/1/1
f 1000/3/1 1001/2/1 1002/1/1
f 1003/3/2 1001/2/2 999/1/2
f 1001/3/2 1003/2/2 1004/1/2
f 1005/5/3 1000/5/3 1002/911/3
f 1000/5/3 1005/5/3 1006/912/3
f 1005/5/4 1003/5/4 1006/913/4
f 1003/5/4 1005/5/4 1004/914/4
f 1003/5/5 1000/5/5 1006/915/5
f 1000/5/5 1003/5/5 999/916/5
f 1001/2/6 1005/3/6 1002/11/6
f 1005/3/6 1001/2/6 1004/1/6
f 1009/3/1 1008/2/1 1007/1/1
f 1008/3/1 1009/2/1 1010/1/1
f 1011/3/2 1009/2/2 1007/1/2
f 1009/3/2 1011/2/2 1012/1/2
f 1013/5/3 1008/5/3 1010/917/3
f 1008/5/3 1013/5/3 1014/918/3
f 1013/5/4 1011/5/4 1014/919/4
f 1011/5/4 1013/5/4 1012/920/4
f 1011/5/5 1008/5/5 1014/921/5
f 1008/5/5 1011/5/5 1007/922/5
f 1009/2/6 1013/3/6 1010/11/6
f 1013/3/6 1009/2/6 1012/1/6
f 1017/3/1 1016/2/1 1015/1/1
f 1016/3/1 1017/2/1 1018/1/1
f 303/3/2 1017/2/2 1015/1/2
f 1017/3/2 303/2/2 305/1/2
f 306/241/3 1016/5/3 1018/923/3
f 1016/5/3 306/241/3 304/5/3
f 306/5/4 303/5/4 304/924/4
f 303/5/4 306/5/4 305/925/4
f 303/246/5 1016/5/5 304/5/5
f 1016/5/5 303/246/5 1015/926/5
f 1017/2/6 306/3/6 1018/11/6
f 306/3/6 1017/2/6 305/1/6
f 308/3/1 310/2/1 307/1/1
f 310/3/1 308/2/1 309/1/1
f 1019/3/2 308/2/2 307/1/2
f 308/3/2 1019/2/2 1020/1/2
f 1021/5/3 310/242/3 309/5/3
f 310/242/3 1021/5/3 1022/927/3
f 1021/5/4 1019/5/4 1022/928/4
f 1019/5/4 1021/5/4 1020/929/4
f 1019/5/5 310/245/5 1022/930/5
f 310/245/5 1019/5/5 307/5/5
f 308/2/6 1021/3/6 309/11/6
f 1021/3/6 308/2/6 1020/1/6
f 1025/3/1 1024/2/1 1023/1/1
f 1024/3/1 1025/2/1 1026/1/1
f 1027/3/2 1025/2/2 1023/1/2
f 1025/3/2 1027/2/2 1028/1/2
f 1029/5/3 1024/5/3 1026/931/3
f 1024/5/3 1029/5/3 1030/932/3
f 1029/5/4 1027/5/4 1030/933/4
f 1027/5/4 1029/5/4 1028/934/4
f 1027/5/5 1024/5/5 1030/935/5
f 1024/5/5 1027/5/5 1023/936/5
f 1025/2/6 1029/3/6 1026/11/6
f 1029/3/6 1025/2/6 1028/1/6
f 1033/3/1 1032/2/1 1031/1/1
f 1032/3/1 1033/2/1 1034/1/1
f 1035/3/2 1033/2/2 1031/1/2
f 1033/3/2 1035/2/2 1036/1/2
f 1037/5/3 1032/5/3 1034/937/3
f 1032/5/3 1037/5/3 1038/938/3
f 1037/5/4 1035/5/4 1038/939/4
f 1035/5/4 1037/5/4 1036/940/4
f 1035/5/5 1032/5/5 1038/941/5
f 1032/5/5 1035/5/5 1031/942/5
f 1033/2/6 1037/3/6 1034/11/6
f 1037/3/6 1033/2/6 1036/1/6

usemtl color11

f 780/3/1 857/2/1 779/1/1
f 857/3/1 780/2/1 859/1/1
f 782/3/2 780/2/2 779/1/2
f 780/3/2 782/2/2 781/1/2
f 794/689/3 857/5/3 859/943/3
f 857/5/3 794/689/3 793/5/3
f 794/759/4 782/672/4 793/5/4
f 782/672/4 794/759/4 781/5/4
f 782/673/5 857/761/5 793/5/5
f 857/761/5 782/673/5 779/5/5
f 780/2/6 794/3/6 859/11/6
f 794/3/6 780/2/6 781/1/6
f 784/3/1 800/2/1 783/1/1
f 800/3/1 784/2/1 799/1/1
f 786/3/2 784/2/2 783/1/2
f 784/3/2 786/2/2 785/1/2
f 275/699/3 800/694/3 799/5/3
f 800/694/3 275/699/3 273/5/3
f 275/5/4 786/676/4 273/944/4
f 786/676/4 275/5/4 785/5/4
f 786/677/5 800/697/5 273/221/5
f 800/697/5 786/677/5 783/5/5
f 784/2/6 275/3/6 799/11/6
f 275/3/6 784/2/6 785/1/6
f 788/3/1 285/2/1 787/1/1
f 285/3/1 788/2/1 286/1/1
f 790/3/2 788/2/2 787/1/2
f 788/3/2 790/2/2 789/1/2
f 864/5/3 285/700/3 286/5/3
f 285/700/3 864/5/3 863/945/3
f 864/764/4 790/680/4 863/5/4
f 790/680/4 864/764/4 789/5/4
f 790/681/5 285/5/5 863/5/5
f 285/5/5 790/681/5 787/5/5
f 788/2/6 864/3/6 286/11/6
f 864/3/6 788/2/6 789/1/6
f 861/3/1 1039/2/1 862/1/1
f 1039/3/1 861/2/1 1040/1/1
f 266/3/2 861/2/2 862/1/2
f 861/3/2 266/2/2 268/1/2
f 808/708/3 1039/5/3 1040/946/3
f 1039/5/3 808/708/3 807/5/3
f 808/5/4 266/5/4 807/947/4
f 266/5/4 808/5/4 268/948/4
f 266/5/5 1039/5/5 807/5/5
f 1039/5/5 266/5/5 862/760/5
f 861/2/6 808/3/6 1040/11/6
f 808/3/6 861/2/6 268/1/6

usemtl color5

f 994/3/1 1041/2/1 992/1/1
f 1041/3/1 994/2/1 1042/1/1
f 1043/3/2 994/2/2 992/1/2
f 994/3/2 1043/2/2 1044/1/2
f 518/5/3 1041/5/3 1042/949/3
f 1041/5/3 518/5/3 517/950/3
f 518/5/4 1043/5/4 517/951/4
f 1043/5/4 518/5/4 1044/952/4
f 1043/5/5 1041/5/5 517/425/5
f 1041/5/5 1043/5/5 992/5/5
f 994/2/6 518/3/6 1042/11/6
f 518/3/6 994/2/6 1044/1/6
f 1046/3/1 519/2/1 1045/1/1
f 519/3/1 1046/2/1 520/1/1
f 998/3/2 1046/2/2 1045/1/2
f 1046/3/2 998/2/2 997/1/2
f 1047/5/3 519/5/3 520/953/3
f 519/5/3 1047/5/3 1048/954/3
f 1047/5/4 998/903/4 1048/955/4
f 998/903/4 1047/5/4 997/5/4
f 998/905/5 519/5/5 1048/956/5
f 519/5/5 998/905/5 1045/957/5
f 1046/2/6 1047/3/6 520/11/6
f 1047/3/6 1046/2/6 997/1/6
f 1028/3/1 1030/2/1 1027/1/1
f 1030/3/1 1028/2/1 1029/1/1
f 1049/3/2 1028/2/2 1027/1/2
f 1028/3/2 1049/2/2 1050/1/2
f 1051/5/3 1030/932/3 1029/5/3
f 1030/932/3 1051/5/3 1052/958/3
f 1051/5/4 1049/5/4 1052/959/4
f 1049/5/4 1051/5/4 1050/960/4
f 1049/5/5 1030/935/5 1052/961/5
f 1030/935/5 1049/5/5 1027/5/5
f 1028/2/6 1051/3/6 1029/11/6
f 1051/3/6 1028/2/6 1050/1/6
f 1036/3/1 1038/2/1 1035/1/1
f 1038/3/1 1036/2/1 1037/1/1
f 1053/3/2 1036/2/2 1035/1/2
f 1036/3/2 1053/2/2 1054/1/2
f 1055/5/3 1038/938/3 1037/5/3
f 1038/938/3 1055/5/3 1056/962/3
f 1055/5/4 1053/5/4 1056/963/4
f 1053/5/4 1055/5/4 1054/964/4
f 1053/5/5 1038/941/5 1056/965/5
f 1038/941/5 1053/5/5 1035/5/5
f 1036/2/6 1055/3/6 1037/11/6
f 1055/3/6 1036/2/6 1054/1/6

usemtl color10

f 1044/3/1 517/2/1 1043/1/1
f 517/3/1 1044/2/1 518/1/1
f 1045/3/2 1044/2/2 1043/1/2
f 1044/3/2 1045/2/2 1046/1/2
f 520/953/3 517/950/3 518/5/3
f 517/950/3 520/953/3 519/5/3
f 520/424/4 1045/5/4 519/5/4
f 1045/5/4 520/424/4 1046/966/4
f 1045/957/5 517/425/5 519/5/5
f 517/425/5 1045/957/5 1043/5/5
f 1044/2/6 520/3/6 518/11/6
f 520/3/6 1044/2/6 1046/1/6

usemtl color16

f 794/3/1 862/2/1 793/1/1
f 862/3/1 794/2/1 861/1/1
f 265/3/2 794/2/2 793/1/2
f 794/3/2 265/2/2 267/1/2
f 268/210/3 862/757/3 861/5/3
f 862/757/3 268/210/3 266/5/3
f 268/948/4 265/691/4 266/5/4
f 265/691/4 268/948/4 267/5/4
f 265/215/5 862/760/5 266/5/5
f 862/760/5 265/215/5 793/5/5
f 794/2/6 268/3/6 861/11/6
f 268/3/6 794/2/6 267/1/6
f 270/3/1 272/2/1 269/1/1
f 272/3/1 270/2/1 271/1/1
f 1057/3/2 270/2/2 269/1/2
f 270/3/2 1057/2/2 1058/1/2
f 1059/5/3 272/211/3 271/5/3
f 272/211/3 1059/5/3 1060/967/3
f 1059/5/4 1057/5/4 1060/968/4
f 1057/5/4 1059/5/4 1058/969/4
f 1057/5/5 272/214/5 1060/970/5
f 272/214/5 1057/5/5 269/5/5
f 270/2/6 1059/3/6 271/11/6
f 1059/3/6 270/2/6 1058/1/6
f 278/3/1 280/2/1 277/1/1
f 280/3/1 278/2/1 279/1/1
f 281/3/2 278/2/2 277/1/2
f 278/3/2 281/2/2 283/1/2
f 284/222/3 280/217/3 279/5/3
f 280/217/3 284/222/3 282/5/3
f 284/781/4 281/5/4 282/5/4
f 281/5/4 284/781/4 283/971/4
f 281/227/5 280/220/5 282/5/5
f 280/220/5 281/227/5 277/5/5
f 278/2/6 284/3/6 279/11/6
f 284/3/6 278/2/6 283/1/6

usemtl color18

f 1058/3/1 1060/2/1 1057/1/1
f 1060/3/1 1058/2/1 1059/1/1
f 800/3/2 1058/2/2 1057/1/2
f 1058/3/2 800/2/2 799/1/2
f 810/5/3 1060/967/3 1059/5/3
f 1060/967/3 810/5/3 809/972/3
f 810/711/4 800/695/4 809/5/4
f 800/695/4 810/711/4 799/5/4
f 800/697/5 1060/970/5 809/5/5
f 1060/970/5 800/697/5 1057/5/5
f 1058/2/6 810/3/6 1059/11/6
f 810/3/6 1058/2/6 799/1/6

usemtl color19

f 799/3/1 809/2/1 800/1/1
f 809/3/1 799/2/1 810/1/1
f 273/3/2 799/2/2 800/1/2
f 799/3/2 273/2/2 275/1/2
f 276/216/3 809/972/3 810/5/3
f 809/972/3 276/216/3 274/5/3
f 276/779/4 273/944/4 274/5/4
f 273/944/4 276/779/4 275/5/4
f 273/221/5 809/5/5 274/5/5
f 809/5/5 273/221/5 800/697/5
f 799/2/6 276/3/6 810/11/6
f 276/3/6 799/2/6 275/1/6

usemtl color23

f 1063/3/1 1062/2/1 1061/1/1
f 1062/3/1 1063/2/1 1064/1/1
f 1065/3/2 1063/2/2 1061/1/2
f 1063/3/2 1065/2/2 1066/1/2
f 1067/5/3 1062/5/3 1064/973/3
f 1062/5/3 1067/5/3 1068/974/3
f 1067/5/4 1065/5/4 1068/975/4
f 1065/5/4 1067/5/4 1066/976/4
f 1065/5/5 1062/5/5 1068/977/5
f 1062/5/5 1065/5/5 1061/978/5
f 1063/2/6 1067/3/6 1064/11/6
f 1067/3/6 1063/2/6 1066/1/6

usemtl color7

f 1042/3/1 1015/2/1 1041/1/1
f 1015/3/1 1042/2/1 1017/1/1
f 517/3/2 1042/2/2 1041/1/2
f 1042/3/2 517/2/2 518/1/2
f 305/422/3 1015/5/3 1017/979/3
f 1015/5/3 305/422/3 303/5/3
f 305/925/4 517/951/4 303/5/4
f 517/951/4 305/925/4 518/5/4
f 517/425/5 1015/926/5 303/246/5
f 1015/926/5 517/425/5 1041/5/5
f 1042/2/6 305/3/6 1017/11/6
f 305/3/6 1042/2/6 518/1/6
f 520/3/1 307/2/1 519/1/1
f 307/3/1 520/2/1 308/1/1
f 1048/3/2 520/2/2 519/1/2
f 520/3/2 1048/2/2 1047/1/2
f 1020/5/3 307/423/3 308/5/3
f 307/423/3 1020/5/3 1019/980/3
f 1020/929/4 1048/955/4 1019/5/4
f 1048/955/4 1020/929/4 1047/5/4
f 1048/956/5 307/5/5 1019/5/5
f 307/5/5 1048/956/5 519/5/5
f 520/2/6 1020/3/6 308/11/6
f 1020/3/6 520/2/6 1047/1/6

usemtl color9

f 910/3/1 912/2/1 909/1/1
f 912/3/1 910/2/1 911/1/1
f 1069/3/2 910/2/2 909/1/2
f 910/3/2 1069/2/2 1070/1/2
f 1071/5/3 912/803/3 911/5/3
f 912/803/3 1071/5/3 1072/981/3
f 1071/5/4 1069/5/4 1072/982/4
f 1069/5/4 1071/5/4 1070/983/4
f 1069/5/5 912/806/5 1072/984/5
f 912/806/5 1069/5/5 909/5/5
f 910/2/6 1071/3/6 911/11/6
f 1071/3/6 910/2/6 1070/1/6
f 918/3/1 920/2/1 917/1/1
f 920/3/1 918/2/1 919/1/1
f 1073/3/2 918/2/2 917/1/2
f 918/3/2 1073/2/2 1074/1/2
f 1075/5/3 920/809/3 919/5/3
f 920/809/3 1075/5/3 1076/985/3
f 1075/5/4 1073/5/4 1076/986/4
f 1073/5/4 1075/5/4 1074/987/4
f 1073/5/5 920/812/5 1076/988/5
f 920/812/5 1073/5/5 917/5/5
f 918/2/6 1075/3/6 919/11/6
f 1075/3/6 918/2/6 1074/1/6

