# Created by Kenney (www.kenney.nl)

mtllib Device Y80 Yimello.mtl

v 6 4 -1
v 6 3 -1
v 6 4 1
v 6 3 1
v 5 4 -1
v 5 4 1
v 5 3 1
v 5 3 -1
v 4 4 -1
v 4 3 -1
v 4 4 1
v 4 3 1
v 3 4 -1
v 3 4 1
v 3 3 1
v 3 3 -1
v 0 4 -1
v 0 3 -1
v 0 4 1
v 0 3 1
v -1 4 -1
v -1 4 1
v -1 3 1
v -1 3 -1
v -3 4 -1
v -3 3 -1
v -3 4 1
v -3 3 1
v -4 4 -1
v -4 4 1
v -4 3 1
v -4 3 -1
v -5 4 -1
v -5 3 -1
v -5 4 1
v -5 3 1
v -6 4 -1
v -6 4 1
v -6 3 1
v -6 3 -1
v 6 1 -1
v 6 0 -1
v 6 1 1
v 6 0 1
v 5 1 -1
v 5 1 1
v 5 0 1
v 5 0 -1
v 4 1 -1
v 4 0 -1
v 4 1 1
v 4 0 1
v 3 1 -1
v 3 1 1
v 3 0 1
v 3 0 -1
v -3 1 -1
v -3 0 -1
v -3 1 1
v -3 0 1
v -4 1 -1
v -4 1 1
v -4 0 1
v -4 0 -1
v -5 1 -1
v -5 0 -1
v -5 1 1
v -5 0 1
v -6 1 -1
v -6 1 1
v -6 0 1
v -6 0 -1
v 6 -2 -1
v 6 -3 -1
v 6 -2 1
v 6 -3 1
v 5 -2 -1
v 5 -2 1
v 5 -3 1
v 5 -3 -1
v 4 -2 -1
v 4 -3 -1
v 4 -2 1
v 4 -3 1
v 3 -2 -1
v 3 -2 1
v 3 -3 1
v 3 -3 -1
v -3 -2 -1
v -3 -3 -1
v -3 -2 1
v -3 -3 1
v -4 -2 -1
v -4 -2 1
v -4 -3 1
v -4 -3 -1
v -5 -2 -1
v -5 -3 -1
v -5 -2 1
v -5 -3 1
v -6 -2 -1
v -6 -2 1
v -6 -3 1
v -6 -3 -1
v 1 -3 -1
v 1 -4 -1
v 1 -3 1
v 1 -4 1
v -1 -3 -1
v -1 -3 1
v -1 -4 1
v -1 -4 -1
v 2 4 -1
v 2 4 1
v 2 3 1
v 2 3 -1
v 1 4 -1
v 1 3 -1
v 1 4 1
v 1 3 1
v -2 4 -1
v -2 3 -1
v -2 4 1
v -2 3 1
v 6 2 -1
v 6 2 1
v 5 2 1
v 5 2 -1
v 4 2 -1
v 4 2 1
v 3 2 1
v 3 2 -1
v -3 2 -1
v -3 2 1
v -4 2 1
v -4 2 -1
v -5 2 -1
v -5 2 1
v -6 2 1
v -6 2 -1
v 6 -1 -1
v 6 -1 1
v 5 -1 1
v 5 -1 -1
v 4 -1 -1
v 4 -1 1
v 3 -1 1
v 3 -1 -1
v -3 -1 -1
v -3 -1 1
v -4 -1 1
v -4 -1 -1
v -5 -1 -1
v -5 -1 1
v -6 -1 1
v -6 -1 -1
v 6 -4 -1
v 6 -4 1
v 5 -4 1
v 5 -4 -1
v 4 -4 -1
v 4 -4 1
v 2 -3 -1
v 2 -3 1
v 2 -4 1
v 2 -4 -1
v -2 -3 -1
v -2 -4 -1
v -2 -3 1
v -2 -4 1
v -4 -4 1
v -4 -4 -1
v -5 -4 -1
v -5 -4 1
v -6 -4 1
v -6 -4 -1
v 2 2 1
v 2 2 -1
v -2 2 -1
v -2 2 1
v 2 1 -1
v 2 1 1
v 2 0 1
v 2 0 -1
v -2 1 -1
v -2 0 -1
v -2 1 1
v -2 0 1
v 2 3 -2
v 2 2 -2
v 2 3 2
v 2 2 2
v 1 3 -2
v 1 3 2
v 1 2 2
v 1 2 -2
v 3 2 -1.5
v 3 1 -1.5
v 3 2 1.5
v 3 1 1.5
v 2 2 -1.5
v 2 2 1.5
v 2 1 1.5
v 2 1 -1.5
v 1 1 -2
v 1 0 -2
v 1 1 2
v 1 0 2
v -1 1 -2
v -1 1 2
v -1 0 2
v -1 0 -2
v 3 -1 -1.5
v 3 -2 -1.5
v 3 -1 1.5
v 3 -2 1.5
v 2 -1 -1.5
v 2 -1 1.5
v 2 -2 1.5
v 2 -2 -1.5
v -2 -1 -1.5
v -2 -2 -1.5
v -2 -1 1.5
v -2 -2 1.5
v -3 -1 -1.5
v -3 -1 1.5
v -3 -2 1.5
v -3 -2 -1.5
v 1 -2 -2
v 1 -3 -2
v 1 -2 2
v 1 -3 2
v -1 -2 -2
v -1 -2 2
v -1 -3 2
v -1 -3 -2
v -2 3 -2
v -2 3 2
v -2 2 2
v -2 2 -2
v 5 2 -1.5
v 5 1 -1.5
v 5 2 1.5
v 5 1 1.5
v 4 2 -1.5
v 4 2 1.5
v 4 1 1.5
v 4 1 -1.5
v -1 2 -2
v -1 2 2
v -2 -3 2
v -2 -3 -2
v -4 2 -1.5
v -4 1 -1.5
v -4 2 1.5
v -4 1 1.5
v -5 2 -1.5
v -5 2 1.5
v -5 1 1.5
v -5 1 -1.5
v 5 -1 -1.5
v 5 -2 -1.5
v 5 -1 1.5
v 5 -2 1.5
v 4 -1 -1.5
v 4 -1 1.5
v 4 -2 1.5
v 4 -2 -1.5
v -4 -1 -1.5
v -4 -2 -1.5
v -4 -1 1.5
v -4 -2 1.5
v -5 -1 -1.5
v -5 -1 1.5
v -5 -2 1.5
v -5 -2 -1.5
v 2 -3 -2
v 2 -3 2
v -3 2 -1.5
v -3 1 -1.5
v -3 2 1.5
v -3 1 1.5
v 0 2 -2
v 0 2 2
v 0 1 2
v 0 1 -2
v -2 2 -1.5
v -2 1 -1.5
v -2 2 1.5
v -2 1 1.5
v 2 -1 1
v 2 -1 -1
v -2 -1 -1
v -2 -1 1
v 2 -2 -1
v 2 -2 1
v -2 -2 -1
v -2 -2 1
v 1 -1 -2
v 1 -1 2
v 0 0 -2
v 0 0 2
v 0 -1 2
v 0 -1 -2
v 0 -2 -2
v 0 -2 2
v -1 -1 -2
v -1 -1 2

vn 1 0 0
vn 0 1 0
vn 0 -1 0
vn -1 0 0
vn 0 0 -1
vn 0 0 1

vt -19.68504 19.68504
vt 19.68504 19.68504
vt -19.68504 -19.68504
vt 0 NaN
vt 0 0
vt 0 NaN
vt 0 NaN
vt 0 NaN
vt 0 NaN
vt 0 NaN
vt 19.68504 -19.68504
vt 0 NaN
vt 0 NaN
vt 0 NaN
vt 0 NaN
vt 0 NaN
vt 0 NaN
vt 0 NaN
vt 0 NaN
vt 0 NaN
vt 0 NaN
vt 0 NaN
vt 0 NaN
vt 0 NaN
vt 0 NaN
vt 0 NaN
vt 0 NaN
vt 0 NaN
vt 0 NaN
vt 0 NaN
vt 0 NaN
vt 0 NaN
vt 0 NaN
vt 0 NaN
vt 0 NaN
vt 0 NaN
vt 0 NaN
vt 0 NaN
vt 0 NaN
vt 0 NaN
vt 0 NaN
vt 0 NaN
vt 0 NaN
vt 0 NaN
vt 0 NaN
vt 0 NaN
vt 0 NaN
vt 0 NaN
vt 0 NaN
vt 0 NaN
vt 0 NaN
vt 0 NaN
vt 0 NaN
vt 0 NaN
vt 0 NaN
vt 0 NaN
vt 0 NaN
vt 0 NaN
vt 0 NaN
vt 0 NaN
vt 0 NaN
vt 0 NaN
vt 0 NaN
vt 0 NaN
vt 0 NaN
vt 0 NaN
vt 0 NaN
vt 0 NaN
vt 0 NaN
vt 0 NaN
vt 0 NaN
vt 0 NaN
vt 0 NaN
vt 0 NaN
vt 0 NaN
vt 0 NaN
vt 0 NaN
vt 0 NaN
vt 0 NaN
vt 0 NaN
vt 0 NaN
vt 0 NaN
vt 0 NaN
vt 0 NaN
vt 0 NaN
vt 0 NaN
vt 0 NaN
vt 0 NaN
vt 0 NaN
vt 0 NaN
vt 0 NaN
vt 0 NaN
vt 0 NaN
vt 0 NaN
vt 0 NaN
vt 0 NaN
vt 0 NaN
vt 0 NaN
vt 0 NaN
vt 0 NaN
vt 0 NaN
vt 0 NaN
vt 0 NaN
vt 0 NaN
vt 0 NaN
vt 0 NaN
vt 0 NaN
vt 0 NaN
vt 0 NaN
vt 0 NaN
vt 0 NaN
vt 0 NaN
vt 0 NaN
vt 0 NaN
vt 0 NaN
vt 0 NaN
vt 0 NaN
vt 0 NaN
vt 0 NaN
vt 0 NaN
vt 0 NaN
vt 0 NaN
vt 0 NaN
vt 0 NaN
vt 0 NaN
vt 0 NaN
vt 0 NaN
vt 0 NaN
vt 0 NaN
vt 0 NaN
vt 0 NaN
vt 0 NaN
vt 0 NaN
vt 0 NaN
vt 0 NaN
vt 0 NaN
vt 0 NaN
vt 0 NaN
vt 0 NaN
vt 0 NaN
vt 0 NaN
vt 0 NaN
vt 0 NaN
vt 0 NaN
vt 0 NaN
vt 0 NaN
vt 0 NaN
vt 0 NaN
vt 0 NaN
vt 0 NaN
vt 0 NaN
vt 0 NaN
vt 0 NaN
vt 0 NaN
vt 0 NaN
vt 0 NaN
vt 0 NaN
vt 0 NaN
vt 0 NaN
vt 0 NaN
vt 0 NaN
vt 0 NaN
vt 0 NaN
vt 0 NaN
vt 0 NaN
vt 0 NaN
vt 0 NaN
vt 0 NaN
vt 0 NaN
vt 0 NaN
vt 0 NaN
vt 0 NaN
vt 0 NaN
vt 0 NaN
vt 0 NaN
vt 0 NaN
vt 0 NaN
vt 0 NaN
vt 0 NaN
vt 0 NaN
vt 0 NaN
vt 0 NaN
vt 0 NaN
vt 0 NaN
vt 0 NaN
vt 0 NaN
vt 0 NaN
vt 0 NaN
vt 0 NaN
vt 0 NaN
vt 0 NaN
vt 0 NaN
vt 0 NaN
vt 0 NaN
vt 0 NaN
vt 0 NaN
vt 0 NaN
vt 0 NaN
vt 0 NaN
vt 0 NaN
vt 0 NaN
vt 0 NaN
vt 0 NaN
vt 0 NaN
vt 0 NaN
vt 0 NaN
vt 0 NaN
vt 0 NaN
vt 0 NaN
vt 0 NaN
vt 0 NaN
vt 0 NaN
vt 0 NaN
vt 0 NaN
vt 0 NaN
vt 0 NaN
vt 0 NaN
vt 0 NaN
vt 0 NaN
vt 0 NaN
vt 0 NaN
vt 0 NaN
vt 0 NaN
vt 0 NaN
vt 0 NaN
vt 0 NaN
vt 0 NaN
vt 0 NaN
vt 0 NaN
vt 0 NaN
vt 0 NaN
vt 0 NaN
vt 0 NaN
vt 0 NaN
vt 0 NaN
vt 0 NaN
vt 0 NaN
vt 0 NaN
vt 0 NaN
vt 0 NaN
vt 0 NaN
vt 0 NaN
vt 0 NaN
vt 0 NaN
vt 0 NaN
vt 0 NaN
vt 0 NaN
vt 0 NaN
vt 0 NaN
vt 0 NaN
vt 0 NaN
vt 0 NaN
vt 0 NaN
vt 0 NaN
vt 0 NaN
vt 0 NaN
vt 0 NaN
vt 0 NaN
vt 0 NaN
vt 0 NaN
vt 0 NaN
vt 0 NaN
vt 0 NaN
vt 0 NaN
vt 0 NaN
vt 0 NaN
vt 0 NaN
vt 0 NaN
vt 0 NaN
vt 0 NaN
vt 0 NaN
vt 0 NaN
vt 0 NaN
vt 0 NaN
vt 0 NaN
vt 0 NaN
vt 0 NaN
vt 0 NaN
vt 0 NaN
vt 0 NaN
vt 0 NaN
vt 0 NaN
vt 0 NaN
vt 0 NaN
vt 0 NaN
vt 0 NaN
vt 0 NaN
vt 0 NaN
vt 0 NaN
vt 0 NaN
vt 0 NaN
vt 0 NaN
vt 0 NaN
vt 0 NaN
vt 0 NaN

usemtl color5

f 3/3/1 2/2/1 1/1/1
f 2/3/1 3/2/1 4/1/1
f 5/3/2 3/2/2 1/1/2
f 3/3/2 5/2/2 6/1/2
f 7/5/3 2/5/3 4/4/3
f 2/5/3 7/5/3 8/6/3
f 7/5/4 5/5/4 8/7/4
f 5/5/4 7/5/4 6/8/4
f 5/5/5 2/5/5 8/9/5
f 2/5/5 5/5/5 1/10/5
f 3/2/6 7/3/6 4/11/6
f 7/3/6 3/2/6 6/1/6
f 11/3/1 10/2/1 9/1/1
f 10/3/1 11/2/1 12/1/1
f 13/3/2 11/2/2 9/1/2
f 11/3/2 13/2/2 14/1/2
f 15/5/3 10/5/3 12/12/3
f 10/5/3 15/5/3 16/13/3
f 15/5/4 13/5/4 16/14/4
f 13/5/4 15/5/4 14/15/4
f 13/5/5 10/5/5 16/16/5
f 10/5/5 13/5/5 9/17/5
f 11/2/6 15/3/6 12/11/6
f 15/3/6 11/2/6 14/1/6
f 19/3/1 18/2/1 17/1/1
f 18/3/1 19/2/1 20/1/1
f 21/3/2 19/2/2 17/1/2
f 19/3/2 21/2/2 22/1/2
f 23/5/3 18/5/3 20/18/3
f 18/5/3 23/5/3 24/19/3
f 23/5/4 21/5/4 24/20/4
f 21/5/4 23/5/4 22/21/4
f 21/5/5 18/5/5 24/22/5
f 18/5/5 21/5/5 17/23/5
f 19/2/6 23/3/6 20/11/6
f 23/3/6 19/2/6 22/1/6
f 27/3/1 26/2/1 25/1/1
f 26/3/1 27/2/1 28/1/1
f 29/3/2 27/2/2 25/1/2
f 27/3/2 29/2/2 30/1/2
f 31/5/3 26/5/3 28/24/3
f 26/5/3 31/5/3 32/25/3
f 31/5/4 29/5/4 32/26/4
f 29/5/4 31/5/4 30/27/4
f 29/5/5 26/5/5 32/28/5
f 26/5/5 29/5/5 25/29/5
f 27/2/6 31/3/6 28/11/6
f 31/3/6 27/2/6 30/1/6
f 35/3/1 34/2/1 33/1/1
f 34/3/1 35/2/1 36/1/1
f 37/3/2 35/2/2 33/1/2
f 35/3/2 37/2/2 38/1/2
f 39/5/3 34/5/3 36/30/3
f 34/5/3 39/5/3 40/31/3
f 39/5/4 37/5/4 40/32/4
f 37/5/4 39/5/4 38/33/4
f 37/5/5 34/5/5 40/34/5
f 34/5/5 37/5/5 33/35/5
f 35/2/6 39/3/6 36/11/6
f 39/3/6 35/2/6 38/1/6
f 3/3/1 2/2/1 1/1/1
f 2/3/1 3/2/1 4/1/1
f 5/3/2 3/2/2 1/1/2
f 3/3/2 5/2/2 6/1/2
f 7/5/3 2/5/3 4/4/3
f 2/5/3 7/5/3 8/6/3
f 7/5/4 5/5/4 8/7/4
f 5/5/4 7/5/4 6/8/4
f 5/5/5 2/5/5 8/9/5
f 2/5/5 5/5/5 1/10/5
f 3/2/6 7/3/6 4/11/6
f 7/3/6 3/2/6 6/1/6
f 43/3/1 42/2/1 41/1/1
f 42/3/1 43/2/1 44/1/1
f 45/3/2 43/2/2 41/1/2
f 43/3/2 45/2/2 46/1/2
f 47/5/3 42/5/3 44/36/3
f 42/5/3 47/5/3 48/37/3
f 47/5/4 45/5/4 48/38/4
f 45/5/4 47/5/4 46/39/4
f 45/5/5 42/5/5 48/40/5
f 42/5/5 45/5/5 41/41/5
f 43/2/6 47/3/6 44/11/6
f 47/3/6 43/2/6 46/1/6
f 51/3/1 50/2/1 49/1/1
f 50/3/1 51/2/1 52/1/1
f 53/3/2 51/2/2 49/1/2
f 51/3/2 53/2/2 54/1/2
f 55/5/3 50/5/3 52/42/3
f 50/5/3 55/5/3 56/43/3
f 55/5/4 53/5/4 56/44/4
f 53/5/4 55/5/4 54/45/4
f 53/5/5 50/5/5 56/46/5
f 50/5/5 53/5/5 49/47/5
f 51/2/6 55/3/6 52/11/6
f 55/3/6 51/2/6 54/1/6
f 59/3/1 58/2/1 57/1/1
f 58/3/1 59/2/1 60/1/1
f 61/3/2 59/2/2 57/1/2
f 59/3/2 61/2/2 62/1/2
f 63/5/3 58/5/3 60/48/3
f 58/5/3 63/5/3 64/49/3
f 63/5/4 61/5/4 64/50/4
f 61/5/4 63/5/4 62/51/4
f 61/5/5 58/5/5 64/52/5
f 58/5/5 61/5/5 57/53/5
f 59/2/6 63/3/6 60/11/6
f 63/3/6 59/2/6 62/1/6
f 67/3/1 66/2/1 65/1/1
f 66/3/1 67/2/1 68/1/1
f 69/3/2 67/2/2 65/1/2
f 67/3/2 69/2/2 70/1/2
f 71/5/3 66/5/3 68/54/3
f 66/5/3 71/5/3 72/55/3
f 71/5/4 69/5/4 72/56/4
f 69/5/4 71/5/4 70/57/4
f 69/5/5 66/5/5 72/58/5
f 66/5/5 69/5/5 65/59/5
f 67/2/6 71/3/6 68/11/6
f 71/3/6 67/2/6 70/1/6
f 75/3/1 74/2/1 73/1/1
f 74/3/1 75/2/1 76/1/1
f 77/3/2 75/2/2 73/1/2
f 75/3/2 77/2/2 78/1/2
f 79/5/3 74/5/3 76/60/3
f 74/5/3 79/5/3 80/61/3
f 79/5/4 77/5/4 80/62/4
f 77/5/4 79/5/4 78/63/4
f 77/5/5 74/5/5 80/64/5
f 74/5/5 77/5/5 73/65/5
f 75/2/6 79/3/6 76/11/6
f 79/3/6 75/2/6 78/1/6
f 83/3/1 82/2/1 81/1/1
f 82/3/1 83/2/1 84/1/1
f 85/3/2 83/2/2 81/1/2
f 83/3/2 85/2/2 86/1/2
f 87/5/3 82/5/3 84/66/3
f 82/5/3 87/5/3 88/67/3
f 87/5/4 85/5/4 88/68/4
f 85/5/4 87/5/4 86/69/4
f 85/5/5 82/5/5 88/70/5
f 82/5/5 85/5/5 81/71/5
f 83/2/6 87/3/6 84/11/6
f 87/3/6 83/2/6 86/1/6
f 91/3/1 90/2/1 89/1/1
f 90/3/1 91/2/1 92/1/1
f 93/3/2 91/2/2 89/1/2
f 91/3/2 93/2/2 94/1/2
f 95/5/3 90/5/3 92/72/3
f 90/5/3 95/5/3 96/73/3
f 95/5/4 93/5/4 96/74/4
f 93/5/4 95/5/4 94/75/4
f 93/5/5 90/5/5 96/76/5
f 90/5/5 93/5/5 89/77/5
f 91/2/6 95/3/6 92/11/6
f 95/3/6 91/2/6 94/1/6
f 99/3/1 98/2/1 97/1/1
f 98/3/1 99/2/1 100/1/1
f 101/3/2 99/2/2 97/1/2
f 99/3/2 101/2/2 102/1/2
f 103/5/3 98/5/3 100/78/3
f 98/5/3 103/5/3 104/79/3
f 103/5/4 101/5/4 104/80/4
f 101/5/4 103/5/4 102/81/4
f 101/5/5 98/5/5 104/82/5
f 98/5/5 101/5/5 97/83/5
f 99/2/6 103/3/6 100/11/6
f 103/3/6 99/2/6 102/1/6

usemtl color4

f 6/3/1 8/2/1 5/1/1
f 8/3/1 6/2/1 7/1/1
f 9/3/2 6/2/2 5/1/2
f 6/3/2 9/2/2 11/1/2
f 12/12/3 8/6/3 7/5/3
f 8/6/3 12/12/3 10/5/3
f 12/5/4 9/5/4 10/84/4
f 9/5/4 12/5/4 11/85/4
f 9/17/5 8/9/5 10/5/5
f 8/9/5 9/17/5 5/5/5
f 6/2/6 12/3/6 7/11/6
f 12/3/6 6/2/6 11/1/6
f 30/3/1 32/2/1 29/1/1
f 32/3/1 30/2/1 31/1/1
f 33/3/2 30/2/2 29/1/2
f 30/3/2 33/2/2 35/1/2
f 36/30/3 32/25/3 31/5/3
f 32/25/3 36/30/3 34/5/3
f 36/5/4 33/5/4 34/86/4
f 33/5/4 36/5/4 35/87/4
f 33/35/5 32/28/5 34/5/5
f 32/28/5 33/35/5 29/5/5
f 30/2/6 36/3/6 31/11/6
f 36/3/6 30/2/6 35/1/6
f 46/3/1 48/2/1 45/1/1
f 48/3/1 46/2/1 47/1/1
f 49/3/2 46/2/2 45/1/2
f 46/3/2 49/2/2 51/1/2
f 52/42/3 48/37/3 47/5/3
f 48/37/3 52/42/3 50/5/3
f 52/5/4 49/5/4 50/88/4
f 49/5/4 52/5/4 51/89/4
f 49/47/5 48/40/5 50/5/5
f 48/40/5 49/47/5 45/5/5
f 46/2/6 52/3/6 47/11/6
f 52/3/6 46/2/6 51/1/6
f 62/3/1 64/2/1 61/1/1
f 64/3/1 62/2/1 63/1/1
f 65/3/2 62/2/2 61/1/2
f 62/3/2 65/2/2 67/1/2
f 68/54/3 64/49/3 63/5/3
f 64/49/3 68/54/3 66/5/3
f 68/5/4 65/5/4 66/90/4
f 65/5/4 68/5/4 67/91/4
f 65/59/5 64/52/5 66/5/5
f 64/52/5 65/59/5 61/5/5
f 62/2/6 68/3/6 63/11/6
f 68/3/6 62/2/6 67/1/6
f 78/3/1 80/2/1 77/1/1
f 80/3/1 78/2/1 79/1/1
f 81/3/2 78/2/2 77/1/2
f 78/3/2 81/2/2 83/1/2
f 84/66/3 80/61/3 79/5/3
f 80/61/3 84/66/3 82/5/3
f 84/5/4 81/5/4 82/92/4
f 81/5/4 84/5/4 83/93/4
f 81/71/5 80/64/5 82/5/5
f 80/64/5 81/71/5 77/5/5
f 78/2/6 84/3/6 79/11/6
f 84/3/6 78/2/6 83/1/6
f 94/3/1 96/2/1 93/1/1
f 96/3/1 94/2/1 95/1/1
f 97/3/2 94/2/2 93/1/2
f 94/3/2 97/2/2 99/1/2
f 100/78/3 96/73/3 95/5/3
f 96/73/3 100/78/3 98/5/3
f 100/5/4 97/5/4 98/94/4
f 97/5/4 100/5/4 99/95/4
f 97/83/5 96/76/5 98/5/5
f 96/76/5 97/83/5 93/5/5
f 94/2/6 100/3/6 95/11/6
f 100/3/6 94/2/6 99/1/6
f 107/3/1 106/2/1 105/1/1
f 106/3/1 107/2/1 108/1/1
f 109/3/2 107/2/2 105/1/2
f 107/3/2 109/2/2 110/1/2
f 111/5/3 106/5/3 108/96/3
f 106/5/3 111/5/3 112/97/3
f 111/5/4 109/5/4 112/98/4
f 109/5/4 111/5/4 110/99/4
f 109/5/5 106/5/5 112/100/5
f 106/5/5 109/5/5 105/101/5
f 107/2/6 111/3/6 108/11/6
f 111/3/6 107/2/6 110/1/6

usemtl color1

f 14/3/1 16/2/1 13/1/1
f 16/3/1 14/2/1 15/1/1
f 113/3/2 14/2/2 13/1/2
f 14/3/2 113/2/2 114/1/2
f 115/5/3 16/13/3 15/5/3
f 16/13/3 115/5/3 116/102/3
f 115/5/4 113/5/4 116/103/4
f 113/5/4 115/5/4 114/104/4
f 113/5/5 16/16/5 116/105/5
f 16/16/5 113/5/5 13/5/5
f 14/2/6 115/3/6 15/11/6
f 115/3/6 14/2/6 114/1/6
f 119/3/1 118/2/1 117/1/1
f 118/3/1 119/2/1 120/1/1
f 17/3/2 119/2/2 117/1/2
f 119/3/2 17/2/2 19/1/2
f 20/18/3 118/5/3 120/106/3
f 118/5/3 20/18/3 18/5/3
f 20/5/4 17/5/4 18/107/4
f 17/5/4 20/5/4 19/108/4
f 17/23/5 118/5/5 18/5/5
f 118/5/5 17/23/5 117/109/5
f 119/2/6 20/3/6 120/11/6
f 20/3/6 119/2/6 19/1/6
f 123/3/1 122/2/1 121/1/1
f 122/3/1 123/2/1 124/1/1
f 25/3/2 123/2/2 121/1/2
f 123/3/2 25/2/2 27/1/2
f 28/24/3 122/5/3 124/110/3
f 122/5/3 28/24/3 26/5/3
f 28/5/4 25/5/4 26/111/4
f 25/5/4 28/5/4 27/112/4
f 25/29/5 122/5/5 26/5/5
f 122/5/5 25/29/5 121/113/5
f 123/2/6 28/3/6 124/11/6
f 28/3/6 123/2/6 27/1/6
f 4/3/1 125/2/1 2/1/1
f 125/3/1 4/2/1 126/1/1
f 8/3/2 4/2/2 2/1/2
f 4/3/2 8/2/2 7/1/2
f 127/5/3 125/5/3 126/114/3
f 125/5/3 127/5/3 128/115/3
f 127/5/4 8/7/4 128/116/4
f 8/7/4 127/5/4 7/5/4
f 8/9/5 125/5/5 128/117/5
f 125/5/5 8/9/5 2/5/5
f 4/2/6 127/3/6 126/11/6
f 127/3/6 4/2/6 7/1/6
f 12/3/1 129/2/1 10/1/1
f 129/3/1 12/2/1 130/1/1
f 16/3/2 12/2/2 10/1/2
f 12/3/2 16/2/2 15/1/2
f 131/5/3 129/5/3 130/118/3
f 129/5/3 131/5/3 132/119/3
f 131/5/4 16/14/4 132/120/4
f 16/14/4 131/5/4 15/5/4
f 16/16/5 129/5/5 132/121/5
f 129/5/5 16/16/5 10/5/5
f 12/2/6 131/3/6 130/11/6
f 131/3/6 12/2/6 15/1/6
f 28/3/1 133/2/1 26/1/1
f 133/3/1 28/2/1 134/1/1
f 32/3/2 28/2/2 26/1/2
f 28/3/2 32/2/2 31/1/2
f 135/5/3 133/5/3 134/122/3
f 133/5/3 135/5/3 136/123/3
f 135/5/4 32/26/4 136/124/4
f 32/26/4 135/5/4 31/5/4
f 32/28/5 133/5/5 136/125/5
f 133/5/5 32/28/5 26/5/5
f 28/2/6 135/3/6 134/11/6
f 135/3/6 28/2/6 31/1/6
f 36/3/1 137/2/1 34/1/1
f 137/3/1 36/2/1 138/1/1
f 40/3/2 36/2/2 34/1/2
f 36/3/2 40/2/2 39/1/2
f 139/5/3 137/5/3 138/126/3
f 137/5/3 139/5/3 140/127/3
f 139/5/4 40/32/4 140/128/4
f 40/32/4 139/5/4 39/5/4
f 40/34/5 137/5/5 140/129/5
f 137/5/5 40/34/5 34/5/5
f 36/2/6 139/3/6 138/11/6
f 139/3/6 36/2/6 39/1/6
f 44/3/1 141/2/1 42/1/1
f 141/3/1 44/2/1 142/1/1
f 48/3/2 44/2/2 42/1/2
f 44/3/2 48/2/2 47/1/2
f 143/5/3 141/5/3 142/130/3
f 141/5/3 143/5/3 144/131/3
f 143/5/4 48/38/4 144/132/4
f 48/38/4 143/5/4 47/5/4
f 48/40/5 141/5/5 144/133/5
f 141/5/5 48/40/5 42/5/5
f 44/2/6 143/3/6 142/11/6
f 143/3/6 44/2/6 47/1/6
f 52/3/1 145/2/1 50/1/1
f 145/3/1 52/2/1 146/1/1
f 56/3/2 52/2/2 50/1/2
f 52/3/2 56/2/2 55/1/2
f 147/5/3 145/5/3 146/134/3
f 145/5/3 147/5/3 148/135/3
f 147/5/4 56/44/4 148/136/4
f 56/44/4 147/5/4 55/5/4
f 56/46/5 145/5/5 148/137/5
f 145/5/5 56/46/5 50/5/5
f 52/2/6 147/3/6 146/11/6
f 147/3/6 52/2/6 55/1/6
f 60/3/1 149/2/1 58/1/1
f 149/3/1 60/2/1 150/1/1
f 64/3/2 60/2/2 58/1/2
f 60/3/2 64/2/2 63/1/2
f 151/5/3 149/5/3 150/138/3
f 149/5/3 151/5/3 152/139/3
f 151/5/4 64/50/4 152/140/4
f 64/50/4 151/5/4 63/5/4
f 64/52/5 149/5/5 152/141/5
f 149/5/5 64/52/5 58/5/5
f 60/2/6 151/3/6 150/11/6
f 151/3/6 60/2/6 63/1/6
f 68/3/1 153/2/1 66/1/1
f 153/3/1 68/2/1 154/1/1
f 72/3/2 68/2/2 66/1/2
f 68/3/2 72/2/2 71/1/2
f 155/5/3 153/5/3 154/142/3
f 153/5/3 155/5/3 156/143/3
f 155/5/4 72/56/4 156/144/4
f 72/56/4 155/5/4 71/5/4
f 72/58/5 153/5/5 156/145/5
f 153/5/5 72/58/5 66/5/5
f 68/2/6 155/3/6 154/11/6
f 155/3/6 68/2/6 71/1/6
f 76/3/1 157/2/1 74/1/1
f 157/3/1 76/2/1 158/1/1
f 80/3/2 76/2/2 74/1/2
f 76/3/2 80/2/2 79/1/2
f 159/5/3 157/5/3 158/146/3
f 157/5/3 159/5/3 160/147/3
f 159/5/4 80/62/4 160/148/4
f 80/62/4 159/5/4 79/5/4
f 80/64/5 157/5/5 160/149/5
f 157/5/5 80/64/5 74/5/5
f 76/2/6 159/3/6 158/11/6
f 159/3/6 76/2/6 79/1/6
f 84/3/1 161/2/1 82/1/1
f 161/3/1 84/2/1 162/1/1
f 163/3/2 84/2/2 82/1/2
f 84/3/2 163/2/2 164/1/2
f 165/5/3 161/5/3 162/150/3
f 161/5/3 165/5/3 166/151/3
f 165/5/4 163/5/4 166/152/4
f 163/5/4 165/5/4 164/153/4
f 163/5/5 161/5/5 166/154/5
f 161/5/5 163/5/5 82/5/5
f 84/2/6 165/3/6 162/11/6
f 165/3/6 84/2/6 164/1/6
f 169/3/1 168/2/1 167/1/1
f 168/3/1 169/2/1 170/1/1
f 96/3/2 169/2/2 167/1/2
f 169/3/2 96/2/2 95/1/2
f 171/5/3 168/5/3 170/155/3
f 168/5/3 171/5/3 172/156/3
f 171/5/4 96/74/4 172/157/4
f 96/74/4 171/5/4 95/5/4
f 96/76/5 168/5/5 172/158/5
f 168/5/5 96/76/5 167/159/5
f 169/2/6 171/3/6 170/11/6
f 171/3/6 169/2/6 95/1/6
f 100/3/1 173/2/1 98/1/1
f 173/3/1 100/2/1 174/1/1
f 104/3/2 100/2/2 98/1/2
f 100/3/2 104/2/2 103/1/2
f 175/5/3 173/5/3 174/160/3
f 173/5/3 175/5/3 176/161/3
f 175/5/4 104/80/4 176/162/4
f 104/80/4 175/5/4 103/5/4
f 104/82/5 173/5/5 176/163/5
f 173/5/5 104/82/5 98/5/5
f 100/2/6 175/3/6 174/11/6
f 175/3/6 100/2/6 103/1/6

usemtl color2

f 7/3/1 128/2/1 8/1/1
f 128/3/1 7/2/1 127/1/1
f 10/3/2 7/2/2 8/1/2
f 7/3/2 10/2/2 12/1/2
f 130/118/3 128/115/3 127/5/3
f 128/115/3 130/118/3 129/5/3
f 130/5/4 10/84/4 129/164/4
f 10/84/4 130/5/4 12/5/4
f 10/5/5 128/117/5 129/5/5
f 128/117/5 10/5/5 8/9/5
f 7/2/6 130/3/6 127/11/6
f 130/3/6 7/2/6 12/1/6
f 31/3/1 136/2/1 32/1/1
f 136/3/1 31/2/1 135/1/1
f 34/3/2 31/2/2 32/1/2
f 31/3/2 34/2/2 36/1/2
f 138/126/3 136/123/3 135/5/3
f 136/123/3 138/126/3 137/5/3
f 138/5/4 34/86/4 137/165/4
f 34/86/4 138/5/4 36/5/4
f 34/5/5 136/125/5 137/5/5
f 136/125/5 34/5/5 32/28/5
f 31/2/6 138/3/6 135/11/6
f 138/3/6 31/2/6 36/1/6
f 47/3/1 144/2/1 48/1/1
f 144/3/1 47/2/1 143/1/1
f 50/3/2 47/2/2 48/1/2
f 47/3/2 50/2/2 52/1/2
f 146/134/3 144/131/3 143/5/3
f 144/131/3 146/134/3 145/5/3
f 146/5/4 50/88/4 145/166/4
f 50/88/4 146/5/4 52/5/4
f 50/5/5 144/133/5 145/5/5
f 144/133/5 50/5/5 48/40/5
f 47/2/6 146/3/6 143/11/6
f 146/3/6 47/2/6 52/1/6
f 63/3/1 152/2/1 64/1/1
f 152/3/1 63/2/1 151/1/1
f 66/3/2 63/2/2 64/1/2
f 63/3/2 66/2/2 68/1/2
f 154/142/3 152/139/3 151/5/3
f 152/139/3 154/142/3 153/5/3
f 154/5/4 66/90/4 153/167/4
f 66/90/4 154/5/4 68/5/4
f 66/5/5 152/141/5 153/5/5
f 152/141/5 66/5/5 64/52/5
f 63/2/6 154/3/6 151/11/6
f 154/3/6 63/2/6 68/1/6
f 79/3/1 160/2/1 80/1/1
f 160/3/1 79/2/1 159/1/1
f 82/3/2 79/2/2 80/1/2
f 79/3/2 82/2/2 84/1/2
f 162/150/3 160/147/3 159/5/3
f 160/147/3 162/150/3 161/5/3
f 162/5/4 82/92/4 161/168/4
f 82/92/4 162/5/4 84/5/4
f 82/5/5 160/149/5 161/5/5
f 160/149/5 82/5/5 80/64/5
f 79/2/6 162/3/6 159/11/6
f 162/3/6 79/2/6 84/1/6
f 95/3/1 172/2/1 96/1/1
f 172/3/1 95/2/1 171/1/1
f 98/3/2 95/2/2 96/1/2
f 95/3/2 98/2/2 100/1/2
f 174/160/3 172/156/3 171/5/3
f 172/156/3 174/160/3 173/5/3
f 174/5/4 98/94/4 173/169/4
f 98/94/4 174/5/4 100/5/4
f 98/5/5 172/158/5 173/5/5
f 172/158/5 98/5/5 96/76/5
f 95/2/6 174/3/6 171/11/6
f 174/3/6 95/2/6 100/1/6

usemtl color12

f 15/3/1 132/2/1 16/1/1
f 132/3/1 15/2/1 131/1/1
f 116/3/2 15/2/2 16/1/2
f 15/3/2 116/2/2 115/1/2
f 177/5/3 132/119/3 131/5/3
f 132/119/3 177/5/3 178/170/3
f 177/5/4 116/103/4 178/171/4
f 116/103/4 177/5/4 115/5/4
f 116/105/5 132/121/5 178/172/5
f 132/121/5 116/105/5 16/16/5
f 15/2/6 177/3/6 131/11/6
f 177/3/6 15/2/6 115/1/6
f 124/3/1 179/2/1 122/1/1
f 179/3/1 124/2/1 180/1/1
f 26/3/2 124/2/2 122/1/2
f 124/3/2 26/2/2 28/1/2
f 134/122/3 179/5/3 180/173/3
f 179/5/3 134/122/3 133/5/3
f 134/5/4 26/111/4 133/174/4
f 26/111/4 134/5/4 28/5/4
f 26/5/5 179/5/5 133/5/5
f 179/5/5 26/5/5 122/5/5
f 124/2/6 134/3/6 180/11/6
f 134/3/6 124/2/6 28/1/6
f 54/3/1 56/2/1 53/1/1
f 56/3/1 54/2/1 55/1/1
f 181/3/2 54/2/2 53/1/2
f 54/3/2 181/2/2 182/1/2
f 183/5/3 56/43/3 55/5/3
f 56/43/3 183/5/3 184/175/3
f 183/5/4 181/5/4 184/176/4
f 181/5/4 183/5/4 182/177/4
f 181/5/5 56/46/5 184/178/5
f 56/46/5 181/5/5 53/5/5
f 54/2/6 183/3/6 55/11/6
f 183/3/6 54/2/6 182/1/6
f 187/3/1 186/2/1 185/1/1
f 186/3/1 187/2/1 188/1/1
f 57/3/2 187/2/2 185/1/2
f 187/3/2 57/2/2 59/1/2
f 60/48/3 186/5/3 188/179/3
f 186/5/3 60/48/3 58/5/3
f 60/5/4 57/5/4 58/180/4
f 57/5/4 60/5/4 59/181/4
f 57/53/5 186/5/5 58/5/5
f 186/5/5 57/53/5 185/182/5
f 187/2/6 60/3/6 188/11/6
f 60/3/6 187/2/6 59/1/6

usemtl color8

f 191/3/1 190/2/1 189/1/1
f 190/3/1 191/2/1 192/1/1
f 193/3/2 191/2/2 189/1/2
f 191/3/2 193/2/2 194/1/2
f 195/5/3 190/5/3 192/183/3
f 190/5/3 195/5/3 196/184/3
f 195/5/4 193/5/4 196/185/4
f 193/5/4 195/5/4 194/186/4
f 193/5/5 190/5/5 196/187/5
f 190/5/5 193/5/5 189/188/5
f 191/2/6 195/3/6 192/11/6
f 195/3/6 191/2/6 194/1/6
f 199/3/1 198/2/1 197/1/1
f 198/3/1 199/2/1 200/1/1
f 201/3/2 199/2/2 197/1/2
f 199/3/2 201/2/2 202/1/2
f 203/5/3 198/5/3 200/189/3
f 198/5/3 203/5/3 204/190/3
f 203/5/4 201/5/4 204/191/4
f 201/5/4 203/5/4 202/192/4
f 201/5/5 198/5/5 204/193/5
f 198/5/5 201/5/5 197/194/5
f 199/2/6 203/3/6 200/11/6
f 203/3/6 199/2/6 202/1/6
f 207/3/1 206/2/1 205/1/1
f 206/3/1 207/2/1 208/1/1
f 209/3/2 207/2/2 205/1/2
f 207/3/2 209/2/2 210/1/2
f 211/5/3 206/5/3 208/195/3
f 206/5/3 211/5/3 212/196/3
f 211/5/4 209/5/4 212/197/4
f 209/5/4 211/5/4 210/198/4
f 209/5/5 206/5/5 212/199/5
f 206/5/5 209/5/5 205/200/5
f 207/2/6 211/3/6 208/11/6
f 211/3/6 207/2/6 210/1/6
f 215/3/1 214/2/1 213/1/1
f 214/3/1 215/2/1 216/1/1
f 217/3/2 215/2/2 213/1/2
f 215/3/2 217/2/2 218/1/2
f 219/5/3 214/5/3 216/201/3
f 214/5/3 219/5/3 220/202/3
f 219/5/4 217/5/4 220/203/4
f 217/5/4 219/5/4 218/204/4
f 217/5/5 214/5/5 220/205/5
f 214/5/5 217/5/5 213/206/5
f 215/2/6 219/3/6 216/11/6
f 219/3/6 215/2/6 218/1/6
f 223/3/1 222/2/1 221/1/1
f 222/3/1 223/2/1 224/1/1
f 225/3/2 223/2/2 221/1/2
f 223/3/2 225/2/2 226/1/2
f 227/5/3 222/5/3 224/207/3
f 222/5/3 227/5/3 228/208/3
f 227/5/4 225/5/4 228/209/4
f 225/5/4 227/5/4 226/210/4
f 225/5/5 222/5/5 228/211/5
f 222/5/5 225/5/5 221/212/5
f 223/2/6 227/3/6 224/11/6
f 227/3/6 223/2/6 226/1/6
f 231/3/1 230/2/1 229/1/1
f 230/3/1 231/2/1 232/1/1
f 233/3/2 231/2/2 229/1/2
f 231/3/2 233/2/2 234/1/2
f 235/5/3 230/5/3 232/213/3
f 230/5/3 235/5/3 236/214/3
f 235/5/4 233/5/4 236/215/4
f 233/5/4 235/5/4 234/216/4
f 233/5/5 230/5/5 236/217/5
f 230/5/5 233/5/5 229/218/5
f 231/2/6 235/3/6 232/11/6
f 235/3/6 231/2/6 234/1/6

usemtl color9

f 194/3/1 196/2/1 193/1/1
f 196/3/1 194/2/1 195/1/1
f 237/3/2 194/2/2 193/1/2
f 194/3/2 237/2/2 238/1/2
f 239/5/3 196/184/3 195/5/3
f 196/184/3 239/5/3 240/219/3
f 239/5/4 237/5/4 240/220/4
f 237/5/4 239/5/4 238/221/4
f 237/5/5 196/187/5 240/222/5
f 196/187/5 237/5/5 193/5/5
f 194/2/6 239/3/6 195/11/6
f 239/3/6 194/2/6 238/1/6
f 243/3/1 242/2/1 241/1/1
f 242/3/1 243/2/1 244/1/1
f 245/3/2 243/2/2 241/1/2
f 243/3/2 245/2/2 246/1/2
f 247/5/3 242/5/3 244/223/3
f 242/5/3 247/5/3 248/224/3
f 247/5/4 245/5/4 248/225/4
f 245/5/4 247/5/4 246/226/4
f 245/5/5 242/5/5 248/227/5
f 242/5/5 245/5/5 241/228/5
f 243/2/6 247/3/6 244/11/6
f 247/3/6 243/2/6 246/1/6
f 250/3/1 236/2/1 249/1/1
f 236/3/1 250/2/1 235/1/1
f 240/3/2 250/2/2 249/1/2
f 250/3/2 240/2/2 239/1/2
f 251/5/3 236/214/3 235/5/3
f 236/214/3 251/5/3 252/229/3
f 251/5/4 240/220/4 252/230/4
f 240/220/4 251/5/4 239/5/4
f 240/222/5 236/217/5 252/231/5
f 236/217/5 240/222/5 249/232/5
f 250/2/6 251/3/6 235/11/6
f 251/3/6 250/2/6 239/1/6
f 255/3/1 254/2/1 253/1/1
f 254/3/1 255/2/1 256/1/1
f 257/3/2 255/2/2 253/1/2
f 255/3/2 257/2/2 258/1/2
f 259/5/3 254/5/3 256/233/3
f 254/5/3 259/5/3 260/234/3
f 259/5/4 257/5/4 260/235/4
f 257/5/4 259/5/4 258/236/4
f 257/5/5 254/5/5 260/237/5
f 254/5/5 257/5/5 253/238/5
f 255/2/6 259/3/6 256/11/6
f 259/3/6 255/2/6 258/1/6
f 263/3/1 262/2/1 261/1/1
f 262/3/1 263/2/1 264/1/1
f 265/3/2 263/2/2 261/1/2
f 263/3/2 265/2/2 266/1/2
f 267/5/3 262/5/3 264/239/3
f 262/5/3 267/5/3 268/240/3
f 267/5/4 265/5/4 268/241/4
f 265/5/4 267/5/4 266/242/4
f 265/5/5 262/5/5 268/243/5
f 262/5/5 265/5/5 261/244/5
f 263/2/6 267/3/6 264/11/6
f 267/3/6 263/2/6 266/1/6
f 271/3/1 270/2/1 269/1/1
f 270/3/1 271/2/1 272/1/1
f 273/3/2 271/2/2 269/1/2
f 271/3/2 273/2/2 274/1/2
f 275/5/3 270/5/3 272/245/3
f 270/5/3 275/5/3 276/246/3
f 275/5/4 273/5/4 276/247/4
f 273/5/4 275/5/4 274/248/4
f 273/5/5 270/5/5 276/249/5
f 270/5/5 273/5/5 269/250/5
f 271/2/6 275/3/6 272/11/6
f 275/3/6 271/2/6 274/1/6

usemtl color7

f 246/3/1 248/2/1 245/1/1
f 248/3/1 246/2/1 247/1/1
f 197/3/2 246/2/2 245/1/2
f 246/3/2 197/2/2 199/1/2
f 200/189/3 248/224/3 247/5/3
f 248/224/3 200/189/3 198/5/3
f 200/5/4 197/5/4 198/251/4
f 197/5/4 200/5/4 199/252/4
f 197/194/5 248/227/5 198/5/5
f 248/227/5 197/194/5 245/5/5
f 246/2/6 200/3/6 247/11/6
f 200/3/6 246/2/6 199/1/6
f 192/3/1 277/2/1 190/1/1
f 277/3/1 192/2/1 278/1/1
f 196/3/2 192/2/2 190/1/2
f 192/3/2 196/2/2 195/1/2
f 232/213/3 277/5/3 278/253/3
f 277/5/3 232/213/3 230/5/3
f 232/5/4 196/185/4 230/254/4
f 196/185/4 232/5/4 195/5/4
f 196/187/5 277/5/5 230/5/5
f 277/5/5 196/187/5 190/5/5
f 192/2/6 232/3/6 278/11/6
f 232/3/6 192/2/6 195/1/6
f 281/3/1 280/2/1 279/1/1
f 280/3/1 281/2/1 282/1/1
f 253/3/2 281/2/2 279/1/2
f 281/3/2 253/2/2 255/1/2
f 256/233/3 280/5/3 282/255/3
f 280/5/3 256/233/3 254/5/3
f 256/5/4 253/5/4 254/256/4
f 253/5/4 256/5/4 255/257/4
f 253/238/5 280/5/5 254/5/5
f 280/5/5 253/238/5 279/258/5
f 281/2/6 256/3/6 282/11/6
f 256/3/6 281/2/6 255/1/6
f 266/3/1 268/2/1 265/1/1
f 268/3/1 266/2/1 267/1/1
f 213/3/2 266/2/2 265/1/2
f 266/3/2 213/2/2 215/1/2
f 216/201/3 268/240/3 267/5/3
f 268/240/3 216/201/3 214/5/3
f 216/5/4 213/5/4 214/259/4
f 213/5/4 216/5/4 215/260/4
f 213/206/5 268/243/5 214/5/5
f 268/243/5 213/206/5 265/5/5
f 266/2/6 216/3/6 267/11/6
f 216/3/6 266/2/6 215/1/6
f 226/3/1 228/2/1 225/1/1
f 228/3/1 226/2/1 227/1/1
f 269/3/2 226/2/2 225/1/2
f 226/3/2 269/2/2 271/1/2
f 272/245/3 228/208/3 227/5/3
f 228/208/3 272/245/3 270/5/3
f 272/5/4 269/5/4 270/261/4
f 269/5/4 272/5/4 271/262/4
f 269/250/5 228/211/5 270/5/5
f 228/211/5 269/250/5 225/5/5
f 226/2/6 272/3/6 227/11/6
f 272/3/6 226/2/6 271/1/6

usemtl color13

f 195/3/1 205/2/1 196/1/1
f 205/3/1 195/2/1 207/1/1
f 283/3/2 195/2/2 196/1/2
f 195/3/2 283/2/2 284/1/2
f 285/5/3 205/5/3 207/263/3
f 205/5/3 285/5/3 286/264/3
f 285/5/4 283/5/4 286/265/4
f 283/5/4 285/5/4 284/266/4
f 283/5/5 205/200/5 286/267/5
f 205/200/5 283/5/5 196/187/5
f 195/2/6 285/3/6 207/11/6
f 285/3/6 195/2/6 284/1/6

usemtl color14

f 284/3/1 286/2/1 283/1/1
f 286/3/1 284/2/1 285/1/1
f 249/3/2 284/2/2 283/1/2
f 284/3/2 249/2/2 250/1/2
f 210/5/3 286/264/3 285/5/3
f 286/264/3 210/5/3 209/268/3
f 210/198/4 249/5/4 209/5/4
f 249/5/4 210/198/4 250/269/4
f 249/232/5 286/267/5 209/5/5
f 286/267/5 249/232/5 283/5/5
f 284/2/6 210/3/6 285/11/6
f 210/3/6 284/2/6 250/1/6

usemtl color15

f 289/3/1 288/2/1 287/1/1
f 288/3/1 289/2/1 290/1/1
f 279/3/2 289/2/2 287/1/2
f 289/3/2 279/2/2 281/1/2
f 282/255/3 288/5/3 290/270/3
f 288/5/3 282/255/3 280/5/3
f 282/5/4 279/5/4 280/271/4
f 279/5/4 282/5/4 281/272/4
f 279/258/5 288/5/5 280/5/5
f 288/5/5 279/258/5 287/273/5
f 289/2/6 282/3/6 290/11/6
f 282/3/6 289/2/6 281/1/6

usemtl color6

f 55/3/1 148/2/1 56/1/1
f 148/3/1 55/2/1 147/1/1
f 184/3/2 55/2/2 56/1/2
f 55/3/2 184/2/2 183/1/2
f 291/5/3 148/135/3 147/5/3
f 148/135/3 291/5/3 292/274/3
f 291/5/4 184/176/4 292/275/4
f 184/176/4 291/5/4 183/5/4
f 184/178/5 148/137/5 292/276/5
f 148/137/5 184/178/5 56/46/5
f 55/2/6 291/3/6 147/11/6
f 291/3/6 55/2/6 183/1/6
f 188/3/1 293/2/1 186/1/1
f 293/3/1 188/2/1 294/1/1
f 58/3/2 188/2/2 186/1/2
f 188/3/2 58/2/2 60/1/2
f 150/138/3 293/5/3 294/277/3
f 293/5/3 150/138/3 149/5/3
f 150/5/4 58/180/4 149/278/4
f 58/180/4 150/5/4 60/5/4
f 58/5/5 293/5/5 149/5/5
f 293/5/5 58/5/5 186/5/5
f 188/2/6 150/3/6 294/11/6
f 150/3/6 188/2/6 60/1/6
f 86/3/1 88/2/1 85/1/1
f 88/3/1 86/2/1 87/1/1
f 295/3/2 86/2/2 85/1/2
f 86/3/2 295/2/2 296/1/2
f 164/5/3 88/67/3 87/5/3
f 88/67/3 164/5/3 163/279/3
f 164/153/4 295/5/4 163/5/4
f 295/5/4 164/153/4 296/280/4
f 295/5/5 88/70/5 163/5/5
f 88/70/5 295/5/5 85/5/5
f 86/2/6 164/3/6 87/11/6
f 164/3/6 86/2/6 296/1/6
f 298/3/1 167/2/1 297/1/1
f 167/3/1 298/2/1 169/1/1
f 89/3/2 298/2/2 297/1/2
f 298/3/2 89/2/2 91/1/2
f 92/72/3 167/5/3 169/281/3
f 167/5/3 92/72/3 90/5/3
f 92/5/4 89/5/4 90/282/4
f 89/5/4 92/5/4 91/283/4
f 89/77/5 167/159/5 90/5/5
f 167/159/5 89/77/5 297/284/5
f 298/2/6 92/3/6 169/11/6
f 92/3/6 298/2/6 91/1/6

usemtl color11

f 208/3/1 299/2/1 206/1/1
f 299/3/1 208/2/1 300/1/1
f 301/3/2 208/2/2 206/1/2
f 208/3/2 301/2/2 302/1/2
f 303/5/3 299/5/3 300/285/3
f 299/5/3 303/5/3 304/286/3
f 303/5/4 301/5/4 304/287/4
f 301/5/4 303/5/4 302/288/4
f 301/5/5 299/5/5 304/289/5
f 299/5/5 301/5/5 206/5/5
f 208/2/6 303/3/6 300/11/6
f 303/3/6 208/2/6 302/1/6
f 303/3/1 305/2/1 304/1/1
f 305/3/1 303/2/1 306/1/1
f 307/3/2 303/2/2 304/1/2
f 303/3/2 307/2/2 308/1/2
f 234/5/3 305/5/3 306/290/3
f 305/5/3 234/5/3 233/291/3
f 234/216/4 307/5/4 233/5/4
f 307/5/4 234/216/4 308/292/4
f 307/5/5 305/5/5 233/5/5
f 305/5/5 307/5/5 304/289/5
f 303/2/6 234/3/6 306/11/6
f 234/3/6 303/2/6 308/1/6

usemtl color10

f 302/3/1 304/2/1 301/1/1
f 304/3/1 302/2/1 303/1/1
f 212/3/2 302/2/2 301/1/2
f 302/3/2 212/2/2 211/1/2
f 308/5/3 304/286/3 303/5/3
f 304/286/3 308/5/3 307/293/3
f 308/292/4 212/197/4 307/5/4
f 212/197/4 308/292/4 211/5/4
f 212/199/5 304/289/5 307/5/5
f 304/289/5 212/199/5 301/5/5
f 302/2/6 308/3/6 303/11/6
f 308/3/6 302/2/6 211/1/6
f 300/3/1 229/2/1 299/1/1
f 229/3/1 300/2/1 231/1/1
f 304/3/2 300/2/2 299/1/2
f 300/3/2 304/2/2 303/1/2
f 306/290/3 229/5/3 231/294/3
f 229/5/3 306/290/3 305/5/3
f 306/5/4 304/287/4 305/295/4
f 304/287/4 306/5/4 303/5/4
f 304/289/5 229/218/5 305/5/5
f 229/218/5 304/289/5 299/5/5
f 300/2/6 306/3/6 231/11/6
f 306/3/6 300/2/6 303/1/6

