# Created by Kenney (www.kenney.nl)

mtllib Emitter LPZ Geosyog.mtl

v 4 6 -0.5
v 4 5 -0.5
v 4 6 0.5
v 4 5 0.5
v 3 6 -0.5
v 3 6 0.5
v 3 5 0.5
v 3 5 -0.5
v 4 5 -1
v 4 4 -1
v 4 5 1
v 4 4 1
v 3 5 -1
v 3 5 1
v 3 4 1
v 3 4 -1
v 6 4 -1
v 6 3 -1
v 6 4 1
v 6 3 1
v 5 4 -1
v 5 4 1
v 5 3 1
v 5 3 -1
v 1 4 -1
v 1 3 -1
v 1 4 1
v 1 3 1
v 0 4 -1
v 0 4 1
v 0 3 1
v 0 3 -1
v 9 3 -0.5
v 9 2 -0.5
v 9 3 0.5
v 9 2 0.5
v 8 3 -0.5
v 8 3 0.5
v 8 2 0.5
v 8 2 -0.5
v 0 3 -1.5
v 0 2 -1.5
v 0 3 1.5
v 0 2 1.5
v -1 3 -1.5
v -1 3 1.5
v -1 2 1.5
v -1 2 -1.5
v -6 3 -1
v -6 2 -1
v -6 3 1
v -6 2 1
v -7 3 -1
v -7 3 1
v -7 2 1
v -7 2 -1
v 9 2 -1
v 9 1 -1
v 9 2 1
v 9 1 1
v 8 2 -1
v 8 2 1
v 8 1 1
v 8 1 -1
v -2 2 -1
v -2 1 -1
v -2 2 1
v -2 1 1
v -6 1 1
v -6 1 -1
v 2 1 -1
v 2 0 -1
v 2 1 1
v 2 0 1
v 0 1 -1
v 0 1 1
v 0 0 1
v 0 0 -1
v 6 0 -0.5
v 6 -1 -0.5
v 6 0 0.5
v 6 -1 0.5
v 5 0 -0.5
v 5 0 0.5
v 5 -1 0.5
v 5 -1 -0.5
v -2 0 -1
v -2 -1 -1
v -2 0 1
v -2 -1 1
v -6 0 -1
v -6 0 1
v -6 -1 1
v -6 -1 -1
v -6 -2 -1
v -6 -2 1
v -7 -1 -1
v -7 -1 1
v -7 -2 1
v -7 -2 -1
v 7 -2 -0.5
v 7 -3 -0.5
v 7 -2 0.5
v 7 -3 0.5
v 6 -2 -0.5
v 6 -2 0.5
v 6 -3 0.5
v 6 -3 -0.5
v 2 6 -0.5
v 2 5 -0.5
v 2 6 0.5
v 2 5 0.5
v 1 6 -0.5
v 1 6 0.5
v 1 5 0.5
v 1 5 -0.5
v 5 5 -1
v 5 5 1
v 2 5 -1
v 2 5 1
v 2 4 1
v 2 4 -1
v 1 5 -1
v 1 5 1
v 0 5 -1
v 0 5 1
v 8 4 -0.5
v 8 4 0.5
v 7 4 -0.5
v 7 4 0.5
v 7 3 0.5
v 7 3 -0.5
v -5 3 -1
v -5 2 -1
v -5 3 1
v -5 2 1
v -6 2 -0.5
v -6 1 -0.5
v -6 2 0.5
v -6 1 0.5
v -7 2 -0.5
v -7 2 0.5
v -7 1 0.5
v -7 1 -0.5
v -6 0 -0.5
v -6 -1 -0.5
v -6 0 0.5
v -6 -1 0.5
v -7 0 -0.5
v -7 0 0.5
v -7 -1 0.5
v -7 -1 -0.5
v 3 -1 -1
v 3 -2 -1
v 3 -1 1
v 3 -2 1
v 2 -1 -1
v 2 -1 1
v 2 -2 1
v 2 -2 -1
v -5 -1 -1
v -5 -2 -1
v -5 -1 1
v -5 -2 1
v 4 -2 -1
v 4 -3 -1
v 4 -2 1
v 4 -3 1
v 3 -3 1
v 3 -3 -1
v 0 -3 -1.5
v 0 -4 -1.5
v 0 -3 1.5
v 0 -4 1.5
v -1 -3 -1.5
v -1 -3 1.5
v -1 -4 1.5
v -1 -4 -1.5
v 2 -4 -1
v 2 -5 -1
v 2 -4 1
v 2 -5 1
v 1 -4 -1
v 1 -4 1
v 1 -5 1
v 1 -5 -1
v 0 6 -1
v 0 6 1
v -2 6 -1
v -2 6 1
v -2 5 1
v -2 5 -1
v -1 2 -2
v -1 1 -2
v -1 2 2
v -1 1 2
v -2 2 -2
v -2 2 2
v -2 1 2
v -2 1 -2
v -1 0 -2
v -1 -1 -2
v -1 0 2
v -1 -1 2
v -2 0 -2
v -2 0 2
v -2 -1 2
v -2 -1 -2
v 0 -4 -1
v 0 -5 -1
v 0 -4 1
v 0 -5 1
v -4 -4 -1
v -4 -4 1
v -4 -5 1
v -4 -5 -1
v -6 6 -1
v -6 6 1
v -6 5 1
v -6 5 -1
v -6 4 -1
v -6 4 1
v -7 5 -1
v -7 5 1
v -7 4 1
v -7 4 -1
v -8 4 -1
v -8 4 1
v -8 3 1
v -8 3 -1
v 1 2 -2
v 1 1 -2
v 1 2 2
v 1 1 2
v 1 0 -2
v 1 -1 -2
v 1 0 2
v 1 -1 2
v -7 -3 -1
v -7 -3 1
v -8 -2 -1
v -8 -2 1
v -8 -3 1
v -8 -3 -1
v -6 -3 -1
v -6 -4 -1
v -6 -3 1
v -6 -4 1
v -7 -4 1
v -7 -4 -1
v -6 -5 1
v -6 -5 -1
v -8 6 -1
v -8 6 1
v -8 5 1
v -8 5 -1
v -7 -5 -1
v -7 -5 1
v -8 -5 1
v -8 -5 -1
v 2 5 -1.5
v 2 4 -1.5
v 2 5 1.5
v 2 4 1.5
v 1 5 -1.5
v 1 5 1.5
v 1 4 1.5
v 1 4 -1.5
v -1 5 -1.5
v -1 4 -1.5
v -1 5 1.5
v -1 4 1.5
v -3 5 -1.5
v -3 5 1.5
v -3 4 1.5
v -3 4 -1.5
v 7 0 -1
v 7 -1 -1
v 7 0 1
v 7 -1 1
v 6 0 -1
v 6 0 1
v 6 -1 1
v 6 -1 -1
v 8 -1 -1
v 8 -2 -1
v 8 -1 1
v 8 -2 1
v 7 -2 1
v 7 -2 -1
v -3 -1 -1.5
v -3 -2 -1.5
v -3 -1 1.5
v -3 -2 1.5
v -4 -1 -1.5
v -4 -1 1.5
v -4 -2 1.5
v -4 -2 -1.5
v 2 -2 -1.5
v 2 -3 -1.5
v 2 -2 1.5
v 2 -3 1.5
v 1 -2 -1.5
v 1 -2 1.5
v 1 -3 1.5
v 1 -3 -1.5
v 0 5 -1.5
v 0 4 -1.5
v 0 5 1.5
v 0 4 1.5
v 8 3 -1.5
v 8 2 -1.5
v 8 3 1.5
v 8 2 1.5
v 7 3 -1.5
v 7 3 1.5
v 7 2 1.5
v 7 2 -1.5
v -5 -3 -1.5
v -5 -4 -1.5
v -5 -3 1.5
v -5 -4 1.5
v -6 -3 -1.5
v -6 -3 1.5
v -6 -4 1.5
v -6 -4 -1.5
v -6 5 -1.5
v -6 5 1.5
v -6 4 1.5
v -6 4 -1.5
v 7 4 -1
v 7 1 -1
v 7 4 1
v 7 1 1
v 6 1 1
v 6 1 -1
v 4 3 -1
v 4 3 1
v 2 3 1
v 2 3 -1
v -6 4 -0.5
v -6 3 -0.5
v -6 4 0.5
v -6 3 0.5
v -7 4 -0.5
v -7 4 0.5
v -7 3 0.5
v -7 3 -0.5
v 6 2 -1
v 6 2 1
v 4 2 1
v 4 2 -1
v 2 2 -1
v 2 2 1
v 0 2 1
v 0 2 -1
v -4 3 -1
v -4 2 -1
v -4 3 1
v -4 2 1
v -8 3 -0.5
v -8 3 0.5
v -8 2 0.5
v -8 2 -0.5
v 7 2 -1
v 7 2 1
v 4 1 -1
v 4 1 1
v -1 1 -1
v -1 1 1
v -1 0 1
v -1 0 -1
v -4 -1 -1
v -4 -2 -1
v -4 -1 1
v -4 -2 1
v -7 -2 -0.5
v -7 -2 0.5
v -8 -1 -0.5
v -8 -1 0.5
v -8 -2 0.5
v -8 -2 -0.5
v 2 -3 1
v 2 -3 -1
v 1 -2 -1
v 1 -3 -1
v 1 -2 1
v 1 -3 1
v 0 -2 -1
v 0 -2 1
v 0 -3 1
v 0 -3 -1
v -6 -2 -0.5
v -6 -3 -0.5
v -6 -2 0.5
v -6 -3 0.5
v -7 -3 0.5
v -7 -3 -0.5
v 8 -3 -1
v 8 -4 -1
v 8 -3 1
v 8 -4 1
v 7 -3 -1
v 7 -3 1
v 7 -4 1
v 7 -4 -1
v 6 -3 -1
v 6 -4 -1
v 6 -3 1
v 6 -4 1
v 5 -3 -1
v 5 -3 1
v 5 -4 1
v 5 -4 -1
v 4 -4 -1
v 4 -4 1
v 3 -4 1
v 3 -4 -1
v 5 4 -1.5
v 5 3 -1.5
v 5 4 1.5
v 5 3 1.5
v 4 4 -1.5
v 4 4 1.5
v 4 3 1.5
v 4 3 -1.5
v 2 3 -1.5
v 2 3 1.5
v 1 3 1.5
v 1 3 -1.5
v -5 4 -1.5
v -5 3 -1.5
v -5 4 1.5
v -5 3 1.5
v -6 3 1.5
v -6 3 -1.5
v -1 -1 -1.5
v -1 -2 -1.5
v -1 -1 1.5
v -1 -2 1.5
v -5 -2 -1.5
v -5 -2 1.5
v -6 -2 -1.5
v -6 -2 1.5
v 2 -4 -1.5
v 2 -4 1.5
v 1 -4 1.5
v 1 -4 -1.5
v -2 3 -1.5
v -2 3 1.5
v -2 2 1.5
v -2 2 -1.5
v 8 1 -0.5
v 8 0 -0.5
v 8 1 0.5
v 8 0 0.5
v 7 1 -0.5
v 7 1 0.5
v 7 0 0.5
v 7 0 -0.5
v 9 -2 -0.5
v 9 -3 -0.5
v 9 -2 0.5
v 9 -3 0.5
v 8 -2 -0.5
v 8 -2 0.5
v 8 -3 0.5
v 8 -3 -0.5
v 0 -2 -1.5
v 0 -2 1.5
v -2 -3 -1.5
v -2 -3 1.5
v -2 -4 1.5
v -2 -4 -1.5
v -4 3 -1.5
v -4 3 1.5
v -4 2 1.5
v -4 2 -1.5
v 8 -1 -0.5
v 8 -1 0.5
v 7 -1 0.5
v 7 -1 -0.5
v 9 -1 -0.5
v 9 -1 0.5
v 4 2 -1.5
v 4 2 1.5
v 3 3 -1.5
v 3 3 1.5
v 3 2 1.5
v 3 2 -1.5
v 5 2 -1.5
v 5 1 -1.5
v 5 2 1.5
v 5 1 1.5
v 4 1 1.5
v 4 1 -1.5
v 3 1 -1.5
v 3 0 -1.5
v 3 1 1.5
v 3 0 1.5
v 2 1 -1.5
v 2 1 1.5
v 2 0 1.5
v 2 0 -1.5
v 2 2 1.5
v 2 2 -1.5
v 4 0 -1.5
v 4 0 1.5
v 5 2 -1
v 5 2 1
v 5 1 1
v 5 1 -1
v 2 2 -2
v 2 1 -2
v 2 2 2
v 2 1 2
v 2 0 -2
v 2 -1 -2
v 2 0 2
v 2 -1 2
v 6 1 -0.5
v 6 1 0.5
v 5 1 -0.5
v 5 1 0.5
v 0 -1 -1
v 0 -1 1
v 0 -1 -1.5
v 0 -1 1.5
v -1 1 -0.5
v -1 0 -0.5
v -1 1 0.5
v -1 0 0.5
v -2 1 -0.5
v -2 1 0.5
v -2 0 0.5
v -2 0 -0.5
v -3 1 -1
v -3 1 1
v -3 0 1
v -3 0 -1
v -4 1 -1
v -4 0 -1
v -4 1 1
v -4 0 1
v -5 1 -1
v -5 1 1
v -5 0 1
v -5 0 -1
v -3 1 -0.5
v -3 0 -0.5
v -3 1 0.5
v -3 0 0.5
v -4 1 -0.5
v -4 1 0.5
v -4 0 0.5
v -4 0 -0.5
v -5 1 -0.5
v -5 0 -0.5
v -5 1 0.5
v -5 0 0.5

vn 1 0 0
vn 0 1 0
vn 0 -1 0
vn -1 0 0
vn 0 0 -1
vn 0 0 1

vt -19.68504 19.68504
vt 19.68504 19.68504
vt -19.68504 -19.68504
vt 0 NaN
vt 0 0
vt 0 NaN
vt 0 NaN
vt 0 NaN
vt 0 NaN
vt 0 NaN
vt 19.68504 -19.68504
vt 0 NaN
vt 0 NaN
vt 0 NaN
vt 0 NaN
vt 0 NaN
vt 0 NaN
vt 0 NaN
vt 0 NaN
vt 0 NaN
vt 0 NaN
vt 0 NaN
vt 0 NaN
vt 0 NaN
vt 0 NaN
vt 0 NaN
vt 0 NaN
vt 0 NaN
vt 0 NaN
vt 0 NaN
vt 0 NaN
vt 0 NaN
vt 0 NaN
vt 0 NaN
vt 0 NaN
vt 0 NaN
vt 0 NaN
vt 0 NaN
vt 0 NaN
vt 0 NaN
vt 0 NaN
vt 0 NaN
vt 0 NaN
vt 0 NaN
vt 0 NaN
vt 0 NaN
vt 0 NaN
vt 0 NaN
vt 0 NaN
vt 0 NaN
vt 0 NaN
vt 0 NaN
vt 0 NaN
vt 0 NaN
vt 0 NaN
vt 0 NaN
vt 0 NaN
vt 0 NaN
vt 0 NaN
vt 0 NaN
vt 0 NaN
vt 0 NaN
vt 0 NaN
vt 0 NaN
vt 0 NaN
vt 0 NaN
vt 0 NaN
vt 0 NaN
vt 0 NaN
vt 0 NaN
vt 0 NaN
vt 0 NaN
vt 0 NaN
vt 0 NaN
vt 0 NaN
vt 0 NaN
vt 0 NaN
vt 0 NaN
vt 0 NaN
vt 0 NaN
vt 0 NaN
vt 0 NaN
vt 0 NaN
vt 0 NaN
vt 0 NaN
vt 0 NaN
vt 0 NaN
vt 0 NaN
vt 0 NaN
vt 0 NaN
vt 0 NaN
vt 0 NaN
vt 0 NaN
vt 0 NaN
vt 0 NaN
vt 0 NaN
vt 0 NaN
vt 0 NaN
vt 0 NaN
vt 0 NaN
vt 0 NaN
vt 0 NaN
vt 0 NaN
vt 0 NaN
vt 0 NaN
vt 0 NaN
vt 0 NaN
vt 0 NaN
vt 0 NaN
vt 0 NaN
vt 0 NaN
vt 0 NaN
vt 0 NaN
vt 0 NaN
vt 0 NaN
vt 0 NaN
vt 0 NaN
vt 0 NaN
vt 0 NaN
vt 0 NaN
vt 0 NaN
vt 0 NaN
vt 0 NaN
vt 0 NaN
vt 0 NaN
vt 0 NaN
vt 0 NaN
vt 0 NaN
vt 0 NaN
vt 0 NaN
vt 0 NaN
vt 0 NaN
vt 0 NaN
vt 0 NaN
vt 0 NaN
vt 0 NaN
vt 0 NaN
vt 0 NaN
vt 0 NaN
vt 0 NaN
vt 0 NaN
vt 0 NaN
vt 0 NaN
vt 0 NaN
vt 0 NaN
vt 0 NaN
vt 0 NaN
vt 0 NaN
vt 0 NaN
vt 0 NaN
vt 0 NaN
vt 0 NaN
vt 0 NaN
vt 0 NaN
vt 0 NaN
vt 0 NaN
vt 0 NaN
vt 0 NaN
vt 0 NaN
vt 0 NaN
vt 0 NaN
vt 0 NaN
vt 0 NaN
vt 0 NaN
vt 0 NaN
vt 0 NaN
vt 0 NaN
vt 0 NaN
vt 0 NaN
vt 0 NaN
vt 0 NaN
vt 0 NaN
vt 0 NaN
vt 0 NaN
vt 0 NaN
vt 0 NaN
vt 0 NaN
vt 0 NaN
vt 0 NaN
vt 0 NaN
vt 0 NaN
vt 0 NaN
vt 0 NaN
vt 0 NaN
vt 0 NaN
vt 0 NaN
vt 0 NaN
vt 0 NaN
vt 0 NaN
vt 0 NaN
vt 0 NaN
vt 0 NaN
vt 0 NaN
vt 0 NaN
vt 0 NaN
vt 0 NaN
vt 0 NaN
vt 0 NaN
vt 0 NaN
vt 0 NaN
vt 0 NaN
vt 0 NaN
vt 0 NaN
vt 0 NaN
vt 0 NaN
vt 0 NaN
vt 0 NaN
vt 0 NaN
vt 0 NaN
vt 0 NaN
vt 0 NaN
vt 0 NaN
vt 0 NaN
vt 0 NaN
vt 0 NaN
vt 0 NaN
vt 0 NaN
vt 0 NaN
vt 0 NaN
vt 0 NaN
vt 0 NaN
vt 0 NaN
vt 0 NaN
vt 0 NaN
vt 0 NaN
vt 0 NaN
vt 0 NaN
vt 0 NaN
vt 0 NaN
vt 0 NaN
vt 0 NaN
vt 0 NaN
vt 0 NaN
vt 0 NaN
vt 0 NaN
vt 0 NaN
vt 0 NaN
vt 0 NaN
vt 0 NaN
vt 0 NaN
vt 0 NaN
vt 0 NaN
vt 0 NaN
vt 0 NaN
vt 0 NaN
vt 0 NaN
vt 0 NaN
vt 0 NaN
vt 0 NaN
vt 0 NaN
vt 0 NaN
vt 0 NaN
vt 0 NaN
vt 0 NaN
vt 0 NaN
vt 0 NaN
vt 0 NaN
vt 0 NaN
vt 0 NaN
vt 0 NaN
vt 0 NaN
vt 0 NaN
vt 0 NaN
vt 0 NaN
vt 0 NaN
vt 0 NaN
vt 0 NaN
vt 0 NaN
vt 0 NaN
vt 0 NaN
vt 0 NaN
vt 0 NaN
vt 0 NaN
vt 0 NaN
vt 0 NaN
vt 0 NaN
vt 0 NaN
vt 0 NaN
vt 0 NaN
vt 0 NaN
vt 0 NaN
vt 0 NaN
vt 0 NaN
vt 0 NaN
vt 0 NaN
vt 0 NaN
vt 0 NaN
vt 0 NaN
vt 0 NaN
vt 0 NaN
vt 0 NaN
vt 0 NaN
vt 0 NaN
vt 0 NaN
vt 0 NaN
vt 0 NaN
vt 0 NaN
vt 0 NaN
vt 0 NaN
vt 0 NaN
vt 0 NaN
vt 0 NaN
vt 0 NaN
vt 0 NaN
vt 0 NaN
vt 0 NaN
vt 0 NaN
vt 0 NaN
vt 0 NaN
vt 0 NaN
vt 0 NaN
vt 0 NaN
vt 0 NaN
vt 0 NaN
vt 0 NaN
vt 0 NaN
vt 0 NaN
vt 0 NaN
vt 0 NaN
vt 0 NaN
vt 0 NaN
vt 0 NaN
vt 0 NaN
vt 0 NaN
vt 0 NaN
vt 0 NaN
vt 0 NaN
vt 0 NaN
vt 0 NaN
vt 0 NaN
vt 0 NaN
vt 0 NaN
vt 0 NaN
vt 0 NaN
vt 0 NaN
vt 0 NaN
vt 0 NaN
vt 0 NaN
vt 0 NaN
vt 0 NaN
vt 0 NaN
vt 0 NaN
vt 0 NaN
vt 0 NaN
vt 0 NaN
vt 0 NaN
vt 0 NaN
vt 0 NaN
vt 0 NaN
vt 0 NaN
vt 0 NaN
vt 0 NaN
vt 0 NaN
vt 0 NaN
vt 0 NaN
vt 0 NaN
vt 0 NaN
vt 0 NaN
vt 0 NaN
vt 0 NaN
vt 0 NaN
vt 0 NaN
vt 0 NaN
vt 0 NaN
vt 0 NaN
vt 0 NaN
vt 0 NaN
vt 0 NaN
vt 0 NaN
vt 0 NaN
vt 0 NaN
vt 0 NaN
vt 0 NaN
vt 0 NaN
vt 0 NaN
vt 0 NaN
vt 0 NaN
vt 0 NaN
vt 0 NaN
vt 0 NaN
vt 0 NaN
vt 0 NaN
vt 0 NaN
vt 0 NaN
vt 0 NaN
vt 0 NaN
vt 0 NaN
vt 0 NaN
vt 0 NaN
vt 0 NaN
vt 0 NaN
vt 0 NaN
vt 0 NaN
vt 0 NaN
vt 0 NaN
vt 0 NaN
vt 0 NaN
vt 0 NaN
vt 0 NaN
vt 0 NaN
vt 0 NaN
vt 0 NaN
vt 0 NaN
vt 0 NaN
vt 0 NaN
vt 0 NaN
vt 0 NaN
vt 0 NaN
vt 0 NaN
vt 0 NaN
vt 0 NaN
vt 0 NaN
vt 0 NaN
vt 0 NaN
vt 0 NaN
vt 0 NaN
vt 0 NaN
vt 0 NaN
vt 0 NaN
vt 0 NaN
vt 0 NaN
vt 0 NaN
vt 0 NaN
vt 0 NaN
vt 0 NaN
vt 0 NaN
vt 0 NaN
vt 0 NaN
vt 0 NaN
vt 0 NaN
vt 0 NaN
vt 0 NaN
vt 0 NaN
vt 0 NaN
vt 0 NaN
vt 0 NaN
vt 0 NaN
vt 0 NaN
vt 0 NaN
vt 0 NaN
vt 0 NaN
vt 0 NaN
vt 0 NaN
vt 0 NaN
vt 0 NaN
vt 0 NaN
vt 0 NaN
vt 0 NaN
vt 0 NaN
vt 0 NaN
vt 0 NaN
vt 0 NaN
vt 0 NaN
vt 0 NaN
vt 0 NaN
vt 0 NaN
vt 0 NaN
vt 0 NaN
vt 0 NaN
vt 0 NaN
vt 0 NaN
vt 0 NaN
vt 0 NaN
vt 0 NaN
vt 0 NaN
vt 0 NaN
vt 0 NaN
vt 0 NaN
vt 0 NaN
vt 0 NaN
vt 0 NaN
vt 0 NaN
vt 0 NaN
vt 0 NaN
vt 0 NaN
vt 0 NaN
vt 0 NaN
vt 0 NaN
vt 0 NaN
vt 0 NaN
vt 0 NaN
vt 0 NaN
vt 0 NaN
vt 0 NaN
vt 0 NaN
vt 0 NaN
vt 0 NaN
vt 0 NaN
vt 0 NaN
vt 0 NaN
vt 0 NaN
vt 0 NaN
vt 0 NaN
vt 0 NaN
vt 0 NaN
vt 0 NaN
vt 0 NaN
vt 0 NaN
vt 0 NaN
vt 0 NaN
vt 0 NaN
vt 0 NaN
vt 0 NaN
vt 0 NaN
vt 0 NaN
vt 0 NaN
vt 0 NaN
vt 0 NaN
vt 0 NaN
vt 0 NaN
vt 0 NaN
vt 0 NaN
vt 0 NaN
vt 0 NaN
vt 0 NaN
vt 0 NaN
vt 0 NaN
vt 0 NaN
vt 0 NaN
vt 0 NaN
vt 0 NaN
vt 0 NaN

usemtl color13

f 3/3/1 2/2/1 1/1/1
f 2/3/1 3/2/1 4/1/1
f 5/3/2 3/2/2 1/1/2
f 3/3/2 5/2/2 6/1/2
f 7/5/3 2/5/3 4/4/3
f 2/5/3 7/5/3 8/6/3
f 7/5/4 5/5/4 8/7/4
f 5/5/4 7/5/4 6/8/4
f 5/5/5 2/5/5 8/9/5
f 2/5/5 5/5/5 1/10/5
f 3/2/6 7/3/6 4/11/6
f 7/3/6 3/2/6 6/1/6
f 3/3/1 2/2/1 1/1/1
f 2/3/1 3/2/1 4/1/1
f 5/3/2 3/2/2 1/1/2
f 3/3/2 5/2/2 6/1/2
f 7/5/3 2/5/3 4/4/3
f 2/5/3 7/5/3 8/6/3
f 7/5/4 5/5/4 8/7/4
f 5/5/4 7/5/4 6/8/4
f 5/5/5 2/5/5 8/9/5
f 2/5/5 5/5/5 1/10/5
f 3/2/6 7/3/6 4/11/6
f 7/3/6 3/2/6 6/1/6
f 11/3/1 10/2/1 9/1/1
f 10/3/1 11/2/1 12/1/1
f 13/3/2 11/2/2 9/1/2
f 11/3/2 13/2/2 14/1/2
f 15/5/3 10/5/3 12/12/3
f 10/5/3 15/5/3 16/13/3
f 15/5/4 13/5/4 16/14/4
f 13/5/4 15/5/4 14/15/4
f 13/5/5 10/5/5 16/16/5
f 10/5/5 13/5/5 9/17/5
f 11/2/6 15/3/6 12/11/6
f 15/3/6 11/2/6 14/1/6
f 19/3/1 18/2/1 17/1/1
f 18/3/1 19/2/1 20/1/1
f 21/3/2 19/2/2 17/1/2
f 19/3/2 21/2/2 22/1/2
f 23/5/3 18/5/3 20/18/3
f 18/5/3 23/5/3 24/19/3
f 23/5/4 21/5/4 24/20/4
f 21/5/4 23/5/4 22/21/4
f 21/5/5 18/5/5 24/22/5
f 18/5/5 21/5/5 17/23/5
f 19/2/6 23/3/6 20/11/6
f 23/3/6 19/2/6 22/1/6
f 27/3/1 26/2/1 25/1/1
f 26/3/1 27/2/1 28/1/1
f 29/3/2 27/2/2 25/1/2
f 27/3/2 29/2/2 30/1/2
f 31/5/3 26/5/3 28/24/3
f 26/5/3 31/5/3 32/25/3
f 31/5/4 29/5/4 32/26/4
f 29/5/4 31/5/4 30/27/4
f 29/5/5 26/5/5 32/28/5
f 26/5/5 29/5/5 25/29/5
f 27/2/6 31/3/6 28/11/6
f 31/3/6 27/2/6 30/1/6
f 35/3/1 34/2/1 33/1/1
f 34/3/1 35/2/1 36/1/1
f 37/3/2 35/2/2 33/1/2
f 35/3/2 37/2/2 38/1/2
f 39/5/3 34/5/3 36/30/3
f 34/5/3 39/5/3 40/31/3
f 39/5/4 37/5/4 40/32/4
f 37/5/4 39/5/4 38/33/4
f 37/5/5 34/5/5 40/34/5
f 34/5/5 37/5/5 33/35/5
f 35/2/6 39/3/6 36/11/6
f 39/3/6 35/2/6 38/1/6
f 43/3/1 42/2/1 41/1/1
f 42/3/1 43/2/1 44/1/1
f 45/3/2 43/2/2 41/1/2
f 43/3/2 45/2/2 46/1/2
f 47/5/3 42/5/3 44/36/3
f 42/5/3 47/5/3 48/37/3
f 47/5/4 45/5/4 48/38/4
f 45/5/4 47/5/4 46/39/4
f 45/5/5 42/5/5 48/40/5
f 42/5/5 45/5/5 41/41/5
f 43/2/6 47/3/6 44/11/6
f 47/3/6 43/2/6 46/1/6
f 51/3/1 50/2/1 49/1/1
f 50/3/1 51/2/1 52/1/1
f 53/3/2 51/2/2 49/1/2
f 51/3/2 53/2/2 54/1/2
f 55/5/3 50/5/3 52/42/3
f 50/5/3 55/5/3 56/43/3
f 55/5/4 53/5/4 56/44/4
f 53/5/4 55/5/4 54/45/4
f 53/5/5 50/5/5 56/46/5
f 50/5/5 53/5/5 49/47/5
f 51/2/6 55/3/6 52/11/6
f 55/3/6 51/2/6 54/1/6
f 59/3/1 58/2/1 57/1/1
f 58/3/1 59/2/1 60/1/1
f 61/3/2 59/2/2 57/1/2
f 59/3/2 61/2/2 62/1/2
f 63/5/3 58/5/3 60/48/3
f 58/5/3 63/5/3 64/49/3
f 63/5/4 61/5/4 64/50/4
f 61/5/4 63/5/4 62/51/4
f 61/5/5 58/5/5 64/52/5
f 58/5/5 61/5/5 57/53/5
f 59/2/6 63/3/6 60/11/6
f 63/3/6 59/2/6 62/1/6
f 67/3/1 66/2/1 65/1/1
f 66/3/1 67/2/1 68/1/1
f 50/3/2 67/2/2 65/1/2
f 67/3/2 50/2/2 52/1/2
f 69/5/3 66/5/3 68/54/3
f 66/5/3 69/5/3 70/55/3
f 69/5/4 50/5/4 70/56/4
f 50/5/4 69/5/4 52/57/4
f 50/5/5 66/5/5 70/58/5
f 66/5/5 50/5/5 65/59/5
f 67/2/6 69/3/6 68/11/6
f 69/3/6 67/2/6 52/1/6
f 73/3/1 72/2/1 71/1/1
f 72/3/1 73/2/1 74/1/1
f 75/3/2 73/2/2 71/1/2
f 73/3/2 75/2/2 76/1/2
f 77/5/3 72/5/3 74/60/3
f 72/5/3 77/5/3 78/61/3
f 77/5/4 75/5/4 78/62/4
f 75/5/4 77/5/4 76/63/4
f 75/5/5 72/5/5 78/64/5
f 72/5/5 75/5/5 71/65/5
f 73/2/6 77/3/6 74/11/6
f 77/3/6 73/2/6 76/1/6
f 81/3/1 80/2/1 79/1/1
f 80/3/1 81/2/1 82/1/1
f 83/3/2 81/2/2 79/1/2
f 81/3/2 83/2/2 84/1/2
f 85/5/3 80/5/3 82/66/3
f 80/5/3 85/5/3 86/67/3
f 85/5/4 83/5/4 86/68/4
f 83/5/4 85/5/4 84/69/4
f 83/5/5 80/5/5 86/70/5
f 80/5/5 83/5/5 79/71/5
f 81/2/6 85/3/6 82/11/6
f 85/3/6 81/2/6 84/1/6
f 89/3/1 88/2/1 87/1/1
f 88/3/1 89/2/1 90/1/1
f 91/3/2 89/2/2 87/1/2
f 89/3/2 91/2/2 92/1/2
f 93/5/3 88/5/3 90/72/3
f 88/5/3 93/5/3 94/73/3
f 93/5/4 91/5/4 94/74/4
f 91/5/4 93/5/4 92/75/4
f 91/5/5 88/5/5 94/76/5
f 88/5/5 91/5/5 87/77/5
f 89/2/6 93/3/6 90/11/6
f 93/3/6 89/2/6 92/1/6
f 93/3/1 95/2/1 94/1/1
f 95/3/1 93/2/1 96/1/1
f 97/3/2 93/2/2 94/1/2
f 93/3/2 97/2/2 98/1/2
f 99/5/3 95/5/3 96/78/3
f 95/5/3 99/5/3 100/79/3
f 99/5/4 97/5/4 100/80/4
f 97/5/4 99/5/4 98/81/4
f 97/5/5 95/5/5 100/82/5
f 95/5/5 97/5/5 94/76/5
f 93/2/6 99/3/6 96/11/6
f 99/3/6 93/2/6 98/1/6
f 103/3/1 102/2/1 101/1/1
f 102/3/1 103/2/1 104/1/1
f 105/3/2 103/2/2 101/1/2
f 103/3/2 105/2/2 106/1/2
f 107/5/3 102/5/3 104/83/3
f 102/5/3 107/5/3 108/84/3
f 107/5/4 105/5/4 108/85/4
f 105/5/4 107/5/4 106/86/4
f 105/5/5 102/5/5 108/87/5
f 102/5/5 105/5/5 101/88/5
f 103/2/6 107/3/6 104/11/6
f 107/3/6 103/2/6 106/1/6

usemtl color2

f 111/3/1 110/2/1 109/1/1
f 110/3/1 111/2/1 112/1/1
f 113/3/2 111/2/2 109/1/2
f 111/3/2 113/2/2 114/1/2
f 115/5/3 110/5/3 112/89/3
f 110/5/3 115/5/3 116/90/3
f 115/5/4 113/5/4 116/91/4
f 113/5/4 115/5/4 114/92/4
f 113/5/5 110/5/5 116/93/5
f 110/5/5 113/5/5 109/94/5
f 111/2/6 115/3/6 112/11/6
f 115/3/6 111/2/6 114/1/6
f 118/3/1 21/2/1 117/1/1
f 21/3/1 118/2/1 22/1/1
f 9/3/2 118/2/2 117/1/2
f 118/3/2 9/2/2 11/1/2
f 12/12/3 21/5/3 22/95/3
f 21/5/3 12/12/3 10/5/3
f 12/5/4 9/5/4 10/96/4
f 9/5/4 12/5/4 11/97/4
f 9/17/5 21/5/5 10/5/5
f 21/5/5 9/17/5 117/98/5
f 118/2/6 12/3/6 22/11/6
f 12/3/6 118/2/6 11/1/6
f 14/3/1 16/2/1 13/1/1
f 16/3/1 14/2/1 15/1/1
f 119/3/2 14/2/2 13/1/2
f 14/3/2 119/2/2 120/1/2
f 121/5/3 16/13/3 15/5/3
f 16/13/3 121/5/3 122/99/3
f 121/5/4 119/5/4 122/100/4
f 119/5/4 121/5/4 120/101/4
f 119/5/5 16/16/5 122/102/5
f 16/16/5 119/5/5 13/5/5
f 14/2/6 121/3/6 15/11/6
f 121/3/6 14/2/6 120/1/6
f 124/3/1 25/2/1 123/1/1
f 25/3/1 124/2/1 27/1/1
f 125/3/2 124/2/2 123/1/2
f 124/3/2 125/2/2 126/1/2
f 30/5/3 25/5/3 27/103/3
f 25/5/3 30/5/3 29/104/3
f 30/27/4 125/5/4 29/5/4
f 125/5/4 30/27/4 126/105/4
f 125/5/5 25/29/5 29/5/5
f 25/29/5 125/5/5 123/106/5
f 124/2/6 30/3/6 27/11/6
f 30/3/6 124/2/6 126/1/6
f 128/3/1 37/2/1 127/1/1
f 37/3/1 128/2/1 38/1/1
f 129/3/2 128/2/2 127/1/2
f 128/3/2 129/2/2 130/1/2
f 131/5/3 37/5/3 38/107/3
f 37/5/3 131/5/3 132/108/3
f 131/5/4 129/5/4 132/109/4
f 129/5/4 131/5/4 130/110/4
f 129/5/5 37/5/5 132/111/5
f 37/5/5 129/5/5 127/112/5
f 128/2/6 131/3/6 38/11/6
f 131/3/6 128/2/6 130/1/6
f 135/3/1 134/2/1 133/1/1
f 134/3/1 135/2/1 136/1/1
f 49/3/2 135/2/2 133/1/2
f 135/3/2 49/2/2 51/1/2
f 52/42/3 134/5/3 136/113/3
f 134/5/3 52/42/3 50/5/3
f 52/57/4 49/5/4 50/5/4
f 49/5/4 52/57/4 51/114/4
f 49/47/5 134/5/5 50/5/5
f 134/5/5 49/47/5 133/115/5
f 135/2/6 52/3/6 136/11/6
f 52/3/6 135/2/6 51/1/6
f 139/3/1 138/2/1 137/1/1
f 138/3/1 139/2/1 140/1/1
f 141/3/2 139/2/2 137/1/2
f 139/3/2 141/2/2 142/1/2
f 143/5/3 138/5/3 140/116/3
f 138/5/3 143/5/3 144/117/3
f 143/5/4 141/5/4 144/118/4
f 141/5/4 143/5/4 142/119/4
f 141/5/5 138/5/5 144/120/5
f 138/5/5 141/5/5 137/121/5
f 139/2/6 143/3/6 140/11/6
f 143/3/6 139/2/6 142/1/6
f 147/3/1 146/2/1 145/1/1
f 146/3/1 147/2/1 148/1/1
f 149/3/2 147/2/2 145/1/2
f 147/3/2 149/2/2 150/1/2
f 151/5/3 146/5/3 148/122/3
f 146/5/3 151/5/3 152/123/3
f 151/5/4 149/5/4 152/124/4
f 149/5/4 151/5/4 150/125/4
f 149/5/5 146/5/5 152/126/5
f 146/5/5 149/5/5 145/127/5
f 147/2/6 151/3/6 148/11/6
f 151/3/6 147/2/6 150/1/6
f 155/3/1 154/2/1 153/1/1
f 154/3/1 155/2/1 156/1/1
f 157/3/2 155/2/2 153/1/2
f 155/3/2 157/2/2 158/1/2
f 159/5/3 154/5/3 156/128/3
f 154/5/3 159/5/3 160/129/3
f 159/5/4 157/5/4 160/130/4
f 157/5/4 159/5/4 158/131/4
f 157/5/5 154/5/5 160/132/5
f 154/5/5 157/5/5 153/133/5
f 155/2/6 159/3/6 156/11/6
f 159/3/6 155/2/6 158/1/6
f 163/3/1 162/2/1 161/1/1
f 162/3/1 163/2/1 164/1/1
f 94/3/2 163/2/2 161/1/2
f 163/3/2 94/2/2 93/1/2
f 96/78/3 162/5/3 164/134/3
f 162/5/3 96/78/3 95/5/3
f 96/5/4 94/74/4 95/135/4
f 94/74/4 96/5/4 93/5/4
f 94/76/5 162/5/5 95/5/5
f 162/5/5 94/76/5 161/136/5
f 163/2/6 96/3/6 164/11/6
f 96/3/6 163/2/6 93/1/6
f 167/3/1 166/2/1 165/1/1
f 166/3/1 167/2/1 168/1/1
f 154/3/2 167/2/2 165/1/2
f 167/3/2 154/2/2 156/1/2
f 169/5/3 166/5/3 168/137/3
f 166/5/3 169/5/3 170/138/3
f 169/5/4 154/5/4 170/139/4
f 154/5/4 169/5/4 156/140/4
f 154/5/5 166/5/5 170/141/5
f 166/5/5 154/5/5 165/142/5
f 167/2/6 169/3/6 168/11/6
f 169/3/6 167/2/6 156/1/6
f 173/3/1 172/2/1 171/1/1
f 172/3/1 173/2/1 174/1/1
f 175/3/2 173/2/2 171/1/2
f 173/3/2 175/2/2 176/1/2
f 177/5/3 172/5/3 174/143/3
f 172/5/3 177/5/3 178/144/3
f 177/5/4 175/5/4 178/145/4
f 175/5/4 177/5/4 176/146/4
f 175/5/5 172/5/5 178/147/5
f 172/5/5 175/5/5 171/148/5
f 173/2/6 177/3/6 174/11/6
f 177/3/6 173/2/6 176/1/6
f 181/3/1 180/2/1 179/1/1
f 180/3/1 181/2/1 182/1/1
f 183/3/2 181/2/2 179/1/2
f 181/3/2 183/2/2 184/1/2
f 185/5/3 180/5/3 182/149/3
f 180/5/3 185/5/3 186/150/3
f 185/5/4 183/5/4 186/151/4
f 183/5/4 185/5/4 184/152/4
f 183/5/5 180/5/5 186/153/5
f 180/5/5 183/5/5 179/154/5
f 181/2/6 185/3/6 182/11/6
f 185/3/6 181/2/6 184/1/6

usemtl color3

f 188/3/1 125/2/1 187/1/1
f 125/3/1 188/2/1 126/1/1
f 189/3/2 188/2/2 187/1/2
f 188/3/2 189/2/2 190/1/2
f 191/5/3 125/5/3 126/155/3
f 125/5/3 191/5/3 192/156/3
f 191/5/4 189/5/4 192/157/4
f 189/5/4 191/5/4 190/158/4
f 189/5/5 125/5/5 192/159/5
f 125/5/5 189/5/5 187/160/5
f 188/2/6 191/3/6 126/11/6
f 191/3/6 188/2/6 190/1/6
f 195/3/1 194/2/1 193/1/1
f 194/3/1 195/2/1 196/1/1
f 197/3/2 195/2/2 193/1/2
f 195/3/2 197/2/2 198/1/2
f 199/5/3 194/5/3 196/161/3
f 194/5/3 199/5/3 200/162/3
f 199/5/4 197/5/4 200/163/4
f 197/5/4 199/5/4 198/164/4
f 197/5/5 194/5/5 200/165/5
f 194/5/5 197/5/5 193/166/5
f 195/2/6 199/3/6 196/11/6
f 199/3/6 195/2/6 198/1/6
f 203/3/1 202/2/1 201/1/1
f 202/3/1 203/2/1 204/1/1
f 205/3/2 203/2/2 201/1/2
f 203/3/2 205/2/2 206/1/2
f 207/5/3 202/5/3 204/167/3
f 202/5/3 207/5/3 208/168/3
f 207/5/4 205/5/4 208/169/4
f 205/5/4 207/5/4 206/170/4
f 205/5/5 202/5/5 208/171/5
f 202/5/5 205/5/5 201/172/5
f 203/2/6 207/3/6 204/11/6
f 207/3/6 203/2/6 206/1/6
f 211/3/1 210/2/1 209/1/1
f 210/3/1 211/2/1 212/1/1
f 213/3/2 211/2/2 209/1/2
f 211/3/2 213/2/2 214/1/2
f 215/5/3 210/5/3 212/173/3
f 210/5/3 215/5/3 216/174/3
f 215/5/4 213/5/4 216/175/4
f 213/5/4 215/5/4 214/176/4
f 213/5/5 210/5/5 216/177/5
f 210/5/5 213/5/5 209/178/5
f 211/2/6 215/3/6 212/11/6
f 215/3/6 211/2/6 214/1/6

usemtl color4

f 190/3/1 192/2/1 189/1/1
f 192/3/1 190/2/1 191/1/1
f 217/3/2 190/2/2 189/1/2
f 190/3/2 217/2/2 218/1/2
f 219/5/3 192/156/3 191/5/3
f 192/156/3 219/5/3 220/179/3
f 219/5/4 217/5/4 220/180/4
f 217/5/4 219/5/4 218/181/4
f 217/5/5 192/159/5 220/182/5
f 192/159/5 217/5/5 189/5/5
f 190/2/6 219/3/6 191/11/6
f 219/3/6 190/2/6 218/1/6
f 219/3/1 221/2/1 220/1/1
f 221/3/1 219/2/1 222/1/1
f 223/3/2 219/2/2 220/1/2
f 219/3/2 223/2/2 224/1/2
f 225/5/3 221/5/3 222/183/3
f 221/5/3 225/5/3 226/184/3
f 225/5/4 223/5/4 226/185/4
f 223/5/4 225/5/4 224/186/4
f 223/5/5 221/5/5 226/187/5
f 221/5/5 223/5/5 220/182/5
f 219/2/6 225/3/6 222/11/6
f 225/3/6 219/2/6 224/1/6
f 225/3/1 53/2/1 226/1/1
f 53/3/1 225/2/1 54/1/1
f 227/3/2 225/2/2 226/1/2
f 225/3/2 227/2/2 228/1/2
f 229/5/3 53/5/3 54/188/3
f 53/5/3 229/5/3 230/189/3
f 229/5/4 227/5/4 230/190/4
f 227/5/4 229/5/4 228/191/4
f 227/5/5 53/5/5 230/192/5
f 53/5/5 227/5/5 226/187/5
f 225/2/6 229/3/6 54/11/6
f 229/3/6 225/2/6 228/1/6
f 233/3/1 232/2/1 231/1/1
f 232/3/1 233/2/1 234/1/1
f 193/3/2 233/2/2 231/1/2
f 233/3/2 193/2/2 195/1/2
f 196/161/3 232/5/3 234/193/3
f 232/5/3 196/161/3 194/5/3
f 196/5/4 193/5/4 194/194/4
f 193/5/4 196/5/4 195/195/4
f 193/166/5 232/5/5 194/5/5
f 232/5/5 193/166/5 231/196/5
f 233/2/6 196/3/6 234/11/6
f 196/3/6 233/2/6 195/1/6
f 237/3/1 236/2/1 235/1/1
f 236/3/1 237/2/1 238/1/1
f 201/3/2 237/2/2 235/1/2
f 237/3/2 201/2/2 203/1/2
f 204/167/3 236/5/3 238/197/3
f 236/5/3 204/167/3 202/5/3
f 204/5/4 201/5/4 202/198/4
f 201/5/4 204/5/4 203/199/4
f 201/172/5 236/5/5 202/5/5
f 236/5/5 201/172/5 235/200/5
f 237/2/6 204/3/6 238/11/6
f 204/3/6 237/2/6 203/1/6
f 99/3/1 239/2/1 100/1/1
f 239/3/1 99/2/1 240/1/1
f 241/3/2 99/2/2 100/1/2
f 99/3/2 241/2/2 242/1/2
f 243/5/3 239/5/3 240/201/3
f 239/5/3 243/5/3 244/202/3
f 243/5/4 241/5/4 244/203/4
f 241/5/4 243/5/4 242/204/4
f 241/5/5 239/5/5 244/205/5
f 239/5/5 241/5/5 100/82/5
f 99/2/6 243/3/6 240/11/6
f 243/3/6 99/2/6 242/1/6
f 247/3/1 246/2/1 245/1/1
f 246/3/1 247/2/1 248/1/1
f 239/3/2 247/2/2 245/1/2
f 247/3/2 239/2/2 240/1/2
f 249/5/3 246/5/3 248/206/3
f 246/5/3 249/5/3 250/207/3
f 249/5/4 239/5/4 250/208/4
f 239/5/4 249/5/4 240/209/4
f 239/5/5 246/5/5 250/210/5
f 246/5/5 239/5/5 245/211/5
f 247/2/6 249/3/6 248/11/6
f 249/3/6 247/2/6 240/1/6
f 214/3/1 216/2/1 213/1/1
f 216/3/1 214/2/1 215/1/1
f 246/3/2 214/2/2 213/1/2
f 214/3/2 246/2/2 248/1/2
f 251/5/3 216/174/3 215/5/3
f 216/174/3 251/5/3 252/212/3
f 251/5/4 246/5/4 252/213/4
f 246/5/4 251/5/4 248/214/4
f 246/5/5 216/177/5 252/215/5
f 216/177/5 246/5/5 213/5/5
f 214/2/6 251/3/6 215/11/6
f 251/3/6 214/2/6 248/1/6

usemtl color5

f 218/3/1 220/2/1 217/1/1
f 220/3/1 218/2/1 219/1/1
f 253/3/2 218/2/2 217/1/2
f 218/3/2 253/2/2 254/1/2
f 255/5/3 220/179/3 219/5/3
f 220/179/3 255/5/3 256/216/3
f 255/5/4 253/5/4 256/217/4
f 253/5/4 255/5/4 254/218/4
f 253/5/5 220/182/5 256/219/5
f 220/182/5 253/5/5 217/5/5
f 218/2/6 255/3/6 219/11/6
f 255/3/6 218/2/6 254/1/6
f 224/3/1 226/2/1 223/1/1
f 226/3/1 224/2/1 225/1/1
f 256/3/2 224/2/2 223/1/2
f 224/3/2 256/2/2 255/1/2
f 228/5/3 226/184/3 225/5/3
f 226/184/3 228/5/3 227/220/3
f 228/191/4 256/217/4 227/5/4
f 256/217/4 228/191/4 255/5/4
f 256/219/5 226/187/5 227/5/5
f 226/187/5 256/219/5 223/5/5
f 224/2/6 228/3/6 225/11/6
f 228/3/6 224/2/6 255/1/6
f 240/3/1 257/2/1 239/1/1
f 257/3/1 240/2/1 258/1/1
f 244/3/2 240/2/2 239/1/2
f 240/3/2 244/2/2 243/1/2
f 259/5/3 257/5/3 258/221/3
f 257/5/3 259/5/3 260/222/3
f 259/5/4 244/203/4 260/223/4
f 244/203/4 259/5/4 243/5/4
f 244/205/5 257/5/5 260/224/5
f 257/5/5 244/205/5 239/5/5
f 240/2/6 259/3/6 258/11/6
f 259/3/6 240/2/6 243/1/6
f 248/3/1 252/2/1 246/1/1
f 252/3/1 248/2/1 251/1/1
f 250/3/2 248/2/2 246/1/2
f 248/3/2 250/2/2 249/1/2
f 258/221/3 252/212/3 251/5/3
f 252/212/3 258/221/3 257/5/3
f 258/5/4 250/208/4 257/225/4
f 250/208/4 258/5/4 249/5/4
f 250/210/5 252/215/5 257/5/5
f 252/215/5 250/210/5 246/5/5
f 248/2/6 258/3/6 251/11/6
f 258/3/6 248/2/6 249/1/6

usemtl color14

f 263/3/1 262/2/1 261/1/1
f 262/3/1 263/2/1 264/1/1
f 265/3/2 263/2/2 261/1/2
f 263/3/2 265/2/2 266/1/2
f 267/5/3 262/5/3 264/226/3
f 262/5/3 267/5/3 268/227/3
f 267/5/4 265/5/4 268/228/4
f 265/5/4 267/5/4 266/229/4
f 265/5/5 262/5/5 268/230/5
f 262/5/5 265/5/5 261/231/5
f 263/2/6 267/3/6 264/11/6
f 267/3/6 263/2/6 266/1/6
f 271/3/1 270/2/1 269/1/1
f 270/3/1 271/2/1 272/1/1
f 273/3/2 271/2/2 269/1/2
f 271/3/2 273/2/2 274/1/2
f 275/5/3 270/5/3 272/232/3
f 270/5/3 275/5/3 276/233/3
f 275/5/4 273/5/4 276/234/4
f 273/5/4 275/5/4 274/235/4
f 273/5/5 270/5/5 276/236/5
f 270/5/5 273/5/5 269/237/5
f 271/2/6 275/3/6 272/11/6
f 275/3/6 271/2/6 274/1/6
f 279/3/1 278/2/1 277/1/1
f 278/3/1 279/2/1 280/1/1
f 281/3/2 279/2/2 277/1/2
f 279/3/2 281/2/2 282/1/2
f 283/5/3 278/5/3 280/238/3
f 278/5/3 283/5/3 284/239/3
f 283/5/4 281/5/4 284/240/4
f 281/5/4 283/5/4 282/241/4
f 281/5/5 278/5/5 284/242/5
f 278/5/5 281/5/5 277/243/5
f 279/2/6 283/3/6 280/11/6
f 283/3/6 279/2/6 282/1/6
f 287/3/1 286/2/1 285/1/1
f 286/3/1 287/2/1 288/1/1
f 278/3/2 287/2/2 285/1/2
f 287/3/2 278/2/2 280/1/2
f 289/5/3 286/5/3 288/244/3
f 286/5/3 289/5/3 290/245/3
f 289/5/4 278/5/4 290/246/4
f 278/5/4 289/5/4 280/247/4
f 278/5/5 286/5/5 290/248/5
f 286/5/5 278/5/5 285/249/5
f 287/2/6 289/3/6 288/11/6
f 289/3/6 287/2/6 280/1/6
f 293/3/1 292/2/1 291/1/1
f 292/3/1 293/2/1 294/1/1
f 295/3/2 293/2/2 291/1/2
f 293/3/2 295/2/2 296/1/2
f 297/5/3 292/5/3 294/250/3
f 292/5/3 297/5/3 298/251/3
f 297/5/4 295/5/4 298/252/4
f 295/5/4 297/5/4 296/253/4
f 295/5/5 292/5/5 298/254/5
f 292/5/5 295/5/5 291/255/5
f 293/2/6 297/3/6 294/11/6
f 297/3/6 293/2/6 296/1/6
f 301/3/1 300/2/1 299/1/1
f 300/3/1 301/2/1 302/1/1
f 303/3/2 301/2/2 299/1/2
f 301/3/2 303/2/2 304/1/2
f 305/5/3 300/5/3 302/256/3
f 300/5/3 305/5/3 306/257/3
f 305/5/4 303/5/4 306/258/4
f 303/5/4 305/5/4 304/259/4
f 303/5/5 300/5/5 306/260/5
f 300/5/5 303/5/5 299/261/5
f 301/2/6 305/3/6 302/11/6
f 305/3/6 301/2/6 304/1/6

usemtl color12

f 309/3/1 308/2/1 307/1/1
f 308/3/1 309/2/1 310/1/1
f 269/3/2 309/2/2 307/1/2
f 309/3/2 269/2/2 271/1/2
f 272/232/3 308/5/3 310/262/3
f 308/5/3 272/232/3 270/5/3
f 272/5/4 269/5/4 270/263/4
f 269/5/4 272/5/4 271/264/4
f 269/237/5 308/5/5 270/5/5
f 308/5/5 269/237/5 307/265/5
f 309/2/6 272/3/6 310/11/6
f 272/3/6 309/2/6 271/1/6
f 313/3/1 312/2/1 311/1/1
f 312/3/1 313/2/1 314/1/1
f 315/3/2 313/2/2 311/1/2
f 313/3/2 315/2/2 316/1/2
f 317/5/3 312/5/3 314/266/3
f 312/5/3 317/5/3 318/267/3
f 317/5/4 315/5/4 318/268/4
f 315/5/4 317/5/4 316/269/4
f 315/5/5 312/5/5 318/270/5
f 312/5/5 315/5/5 311/271/5
f 313/2/6 317/3/6 314/11/6
f 317/3/6 313/2/6 316/1/6
f 321/3/1 320/2/1 319/1/1
f 320/3/1 321/2/1 322/1/1
f 323/3/2 321/2/2 319/1/2
f 321/3/2 323/2/2 324/1/2
f 325/5/3 320/5/3 322/272/3
f 320/5/3 325/5/3 326/273/3
f 325/5/4 323/5/4 326/274/4
f 323/5/4 325/5/4 324/275/4
f 323/5/5 320/5/5 326/276/5
f 320/5/5 323/5/5 319/277/5
f 321/2/6 325/3/6 322/11/6
f 325/3/6 321/2/6 324/1/6

usemtl color23

f 274/3/1 276/2/1 273/1/1
f 276/3/1 274/2/1 275/1/1
f 327/3/2 274/2/2 273/1/2
f 274/3/2 327/2/2 328/1/2
f 329/5/3 276/233/3 275/5/3
f 276/233/3 329/5/3 330/278/3
f 329/5/4 327/5/4 330/279/4
f 327/5/4 329/5/4 328/280/4
f 327/5/5 276/236/5 330/281/5
f 276/236/5 327/5/5 273/5/5
f 274/2/6 329/3/6 275/11/6
f 329/3/6 274/2/6 328/1/6

usemtl color6

f 333/3/1 332/2/1 331/1/1
f 332/3/1 333/2/1 334/1/1
f 17/3/2 333/2/2 331/1/2
f 333/3/2 17/2/2 19/1/2
f 335/5/3 332/5/3 334/282/3
f 332/5/3 335/5/3 336/283/3
f 335/5/4 17/5/4 336/284/4
f 17/5/4 335/5/4 19/285/4
f 17/23/5 332/5/5 336/286/5
f 332/5/5 17/23/5 331/287/5
f 333/2/6 335/3/6 334/11/6
f 335/3/6 333/2/6 19/1/6
f 12/3/1 337/2/1 10/1/1
f 337/3/1 12/2/1 338/1/1
f 122/3/2 12/2/2 10/1/2
f 12/3/2 122/2/2 121/1/2
f 339/5/3 337/5/3 338/288/3
f 337/5/3 339/5/3 340/289/3
f 339/5/4 122/100/4 340/290/4
f 122/100/4 339/5/4 121/5/4
f 122/102/5 337/5/5 340/291/5
f 337/5/5 122/102/5 10/5/5
f 12/2/6 339/3/6 338/11/6
f 339/3/6 12/2/6 121/1/6
f 343/3/1 342/2/1 341/1/1
f 342/3/1 343/2/1 344/1/1
f 345/3/2 343/2/2 341/1/2
f 343/3/2 345/2/2 346/1/2
f 347/5/3 342/5/3 344/292/3
f 342/5/3 347/5/3 348/293/3
f 347/5/4 345/5/4 348/294/4
f 345/5/4 347/5/4 346/295/4
f 345/5/5 342/5/5 348/296/5
f 342/5/5 345/5/5 341/297/5
f 343/2/6 347/3/6 344/11/6
f 347/3/6 343/2/6 346/1/6
f 20/3/1 349/2/1 18/1/1
f 349/3/1 20/2/1 350/1/1
f 337/3/2 20/2/2 18/1/2
f 20/3/2 337/2/2 338/1/2
f 351/5/3 349/5/3 350/298/3
f 349/5/3 351/5/3 352/299/3
f 351/5/4 337/5/4 352/300/4
f 337/5/4 351/5/4 338/301/4
f 337/5/5 349/5/5 352/302/5
f 349/5/5 337/5/5 18/5/5
f 20/2/6 351/3/6 350/11/6
f 351/3/6 20/2/6 338/1/6
f 339/3/1 353/2/1 340/1/1
f 353/3/1 339/2/1 354/1/1
f 32/3/2 339/2/2 340/1/2
f 339/3/2 32/2/2 31/1/2
f 355/5/3 353/5/3 354/303/3
f 353/5/3 355/5/3 356/304/3
f 355/5/4 32/26/4 356/305/4
f 32/26/4 355/5/4 31/5/4
f 32/28/5 353/5/5 356/306/5
f 353/5/5 32/28/5 340/291/5
f 339/2/6 355/3/6 354/11/6
f 355/3/6 339/2/6 31/1/6
f 359/3/1 358/2/1 357/1/1
f 358/3/1 359/2/1 360/1/1
f 133/3/2 359/2/2 357/1/2
f 359/3/2 133/2/2 135/1/2
f 136/113/3 358/5/3 360/307/3
f 358/5/3 136/113/3 134/5/3
f 136/5/4 133/5/4 134/308/4
f 133/5/4 136/5/4 135/309/4
f 133/115/5 358/5/5 134/5/5
f 358/5/5 133/115/5 357/310/5
f 359/2/6 136/3/6 360/11/6
f 136/3/6 359/2/6 135/1/6
f 347/3/1 141/2/1 348/1/1
f 141/3/1 347/2/1 142/1/1
f 361/3/2 347/2/2 348/1/2
f 347/3/2 361/2/2 362/1/2
f 363/5/3 141/5/3 142/311/3
f 141/5/3 363/5/3 364/312/3
f 363/5/4 361/5/4 364/313/4
f 361/5/4 363/5/4 362/314/4
f 361/5/5 141/5/5 364/315/5
f 141/5/5 361/5/5 348/296/5
f 347/2/6 363/3/6 142/11/6
f 363/3/6 347/2/6 362/1/6
f 62/3/1 64/2/1 61/1/1
f 64/3/1 62/2/1 63/1/1
f 365/3/2 62/2/2 61/1/2
f 62/3/2 365/2/2 366/1/2
f 334/282/3 64/49/3 63/5/3
f 64/49/3 334/282/3 332/5/3
f 334/5/4 365/5/4 332/316/4
f 365/5/4 334/5/4 366/317/4
f 365/5/5 64/52/5 332/5/5
f 64/52/5 365/5/5 61/5/5
f 62/2/6 334/3/6 63/11/6
f 334/3/6 62/2/6 366/1/6
f 351/3/1 367/2/1 352/1/1
f 367/3/1 351/2/1 368/1/1
f 353/3/2 351/2/2 352/1/2
f 351/3/2 353/2/2 354/1/2
f 73/5/3 367/5/3 368/318/3
f 367/5/3 73/5/3 71/319/3
f 73/5/4 353/5/4 71/320/4
f 353/5/4 73/5/4 354/321/4
f 353/5/5 367/5/5 71/65/5
f 367/5/5 353/5/5 352/302/5
f 351/2/6 73/3/6 368/11/6
f 73/3/6 351/2/6 354/1/6
f 76/3/1 78/2/1 75/1/1
f 78/3/1 76/2/1 77/1/1
f 369/3/2 76/2/2 75/1/2
f 76/3/2 369/2/2 370/1/2
f 371/5/3 78/61/3 77/5/3
f 78/61/3 371/5/3 372/322/3
f 371/5/4 369/5/4 372/323/4
f 369/5/4 371/5/4 370/324/4
f 369/5/5 78/64/5 372/325/5
f 78/64/5 369/5/5 75/5/5
f 76/2/6 371/3/6 77/11/6
f 371/3/6 76/2/6 370/1/6
f 375/3/1 374/2/1 373/1/1
f 374/3/1 375/2/1 376/1/1
f 161/3/2 375/2/2 373/1/2
f 375/3/2 161/2/2 163/1/2
f 164/134/3 374/5/3 376/326/3
f 374/5/3 164/134/3 162/5/3
f 164/5/4 161/5/4 162/327/4
f 161/5/4 164/5/4 163/328/4
f 161/136/5 374/5/5 162/5/5
f 374/5/5 161/136/5 373/329/5
f 375/2/6 164/3/6 376/11/6
f 164/3/6 375/2/6 163/1/6
f 151/3/1 377/2/1 152/1/1
f 377/3/1 151/2/1 378/1/1
f 379/3/2 151/2/2 152/1/2
f 151/3/2 379/2/2 380/1/2
f 381/5/3 377/5/3 378/330/3
f 377/5/3 381/5/3 382/331/3
f 381/5/4 379/5/4 382/332/4
f 379/5/4 381/5/4 380/333/4
f 379/5/5 377/5/5 382/334/5
f 377/5/5 379/5/5 152/126/5
f 151/2/6 381/3/6 378/11/6
f 381/3/6 151/2/6 380/1/6
f 156/3/1 170/2/1 154/1/1
f 170/3/1 156/2/1 169/1/1
f 160/3/2 156/2/2 154/1/2
f 156/3/2 160/2/2 159/1/2
f 383/5/3 170/138/3 169/5/3
f 170/138/3 383/5/3 384/335/3
f 383/5/4 160/130/4 384/336/4
f 160/130/4 383/5/4 159/5/4
f 160/132/5 170/141/5 384/337/5
f 170/141/5 160/132/5 154/5/5
f 156/2/6 383/3/6 169/11/6
f 383/3/6 156/2/6 159/1/6
f 387/3/1 386/2/1 385/1/1
f 386/3/1 387/2/1 388/1/1
f 389/3/2 387/2/2 385/1/2
f 387/3/2 389/2/2 390/1/2
f 391/5/3 386/5/3 388/338/3
f 386/5/3 391/5/3 392/339/3
f 391/5/4 389/5/4 392/340/4
f 389/5/4 391/5/4 390/341/4
f 389/5/5 386/5/5 392/342/5
f 386/5/5 389/5/5 385/343/5
f 387/2/6 391/3/6 388/11/6
f 391/3/6 387/2/6 390/1/6
f 395/3/1 394/2/1 393/1/1
f 394/3/1 395/2/1 396/1/1
f 377/3/2 395/2/2 393/1/2
f 395/3/2 377/2/2 378/1/2
f 397/5/3 394/5/3 396/344/3
f 394/5/3 397/5/3 398/345/3
f 397/5/4 377/5/4 398/346/4
f 377/5/4 397/5/4 378/347/4
f 377/5/5 394/5/5 398/348/5
f 394/5/5 377/5/5 393/349/5
f 395/2/6 397/3/6 396/11/6
f 397/3/6 395/2/6 378/1/6
f 401/3/1 400/2/1 399/1/1
f 400/3/1 401/2/1 402/1/1
f 403/3/2 401/2/2 399/1/2
f 401/3/2 403/2/2 404/1/2
f 405/5/3 400/5/3 402/350/3
f 400/5/3 405/5/3 406/351/3
f 405/5/4 403/5/4 406/352/4
f 403/5/4 405/5/4 404/353/4
f 403/5/5 400/5/5 406/354/5
f 400/5/5 403/5/5 399/355/5
f 401/2/6 405/3/6 402/11/6
f 405/3/6 401/2/6 404/1/6
f 409/3/1 408/2/1 407/1/1
f 408/3/1 409/2/1 410/1/1
f 411/3/2 409/2/2 407/1/2
f 409/3/2 411/2/2 412/1/2
f 413/5/3 408/5/3 410/356/3
f 408/5/3 413/5/3 414/357/3
f 413/5/4 411/5/4 414/358/4
f 411/5/4 413/5/4 412/359/4
f 411/5/5 408/5/5 414/360/5
f 408/5/5 411/5/5 407/361/5
f 409/2/6 413/3/6 410/11/6
f 413/3/6 409/2/6 412/1/6
f 168/3/1 415/2/1 166/1/1
f 415/3/1 168/2/1 416/1/1
f 170/3/2 168/2/2 166/1/2
f 168/3/2 170/2/2 169/1/2
f 417/5/3 415/5/3 416/362/3
f 415/5/3 417/5/3 418/363/3
f 417/5/4 170/139/4 418/364/4
f 170/139/4 417/5/4 169/5/4
f 170/141/5 415/5/5 418/365/5
f 415/5/5 170/141/5 166/5/5
f 168/2/6 417/3/6 416/11/6
f 417/3/6 168/2/6 169/1/6

usemtl color22

f 421/3/1 420/2/1 419/1/1
f 420/3/1 421/2/1 422/1/1
f 423/3/2 421/2/2 419/1/2
f 421/3/2 423/2/2 424/1/2
f 425/5/3 420/5/3 422/366/3
f 420/5/3 425/5/3 426/367/3
f 425/5/4 423/5/4 426/368/4
f 423/5/4 425/5/4 424/369/4
f 423/5/5 420/5/5 426/370/5
f 420/5/5 423/5/5 419/371/5
f 421/2/6 425/3/6 422/11/6
f 425/3/6 421/2/6 424/1/6

usemtl color9

f 264/3/1 427/2/1 262/1/1
f 427/3/1 264/2/1 428/1/1
f 268/3/2 264/2/2 262/1/2
f 264/3/2 268/2/2 267/1/2
f 429/5/3 427/5/3 428/372/3
f 427/5/3 429/5/3 430/373/3
f 429/5/4 268/228/4 430/374/4
f 268/228/4 429/5/4 267/5/4
f 268/230/5 427/5/5 430/375/5
f 427/5/5 268/230/5 262/5/5
f 264/2/6 429/3/6 428/11/6
f 429/3/6 264/2/6 267/1/6
f 433/3/1 432/2/1 431/1/1
f 432/3/1 433/2/1 434/1/1
f 330/3/2 433/2/2 431/1/2
f 433/3/2 330/2/2 329/1/2
f 435/5/3 432/5/3 434/376/3
f 432/5/3 435/5/3 436/377/3
f 435/5/4 330/279/4 436/378/4
f 330/279/4 435/5/4 329/5/4
f 330/281/5 432/5/5 436/379/5
f 432/5/5 330/281/5 431/380/5
f 433/2/6 435/3/6 434/11/6
f 435/3/6 433/2/6 329/1/6
f 334/3/1 277/2/1 332/1/1
f 277/3/1 334/2/1 279/1/1
f 336/3/2 334/2/2 332/1/2
f 334/3/2 336/2/2 335/1/2
f 282/5/3 277/5/3 279/381/3
f 277/5/3 282/5/3 281/382/3
f 282/241/4 336/284/4 281/5/4
f 336/284/4 282/241/4 335/5/4
f 336/286/5 277/243/5 281/5/5
f 277/243/5 336/286/5 332/5/5
f 334/2/6 282/3/6 279/11/6
f 282/3/6 334/2/6 335/1/6
f 439/3/1 438/2/1 437/1/1
f 438/3/1 439/2/1 440/1/1
f 291/3/2 439/2/2 437/1/2
f 439/3/2 291/2/2 293/1/2
f 294/250/3 438/5/3 440/383/3
f 438/5/3 294/250/3 292/5/3
f 294/5/4 291/5/4 292/384/4
f 291/5/4 294/5/4 293/385/4
f 291/255/5 438/5/5 292/5/5
f 438/5/5 291/255/5 437/386/5
f 439/2/6 294/3/6 440/11/6
f 294/3/6 439/2/6 293/1/6
f 288/3/1 399/2/1 286/1/1
f 399/3/1 288/2/1 401/1/1
f 290/3/2 288/2/2 286/1/2
f 288/3/2 290/2/2 289/1/2
f 404/5/3 399/5/3 401/387/3
f 399/5/3 404/5/3 403/388/3
f 404/353/4 290/246/4 403/5/4
f 290/246/4 404/353/4 289/5/4
f 290/248/5 399/355/5 403/5/5
f 399/355/5 290/248/5 286/5/5
f 288/2/6 404/3/6 401/11/6
f 404/3/6 288/2/6 289/1/6
f 442/3/1 319/2/1 441/1/1
f 319/3/1 442/2/1 321/1/1
f 443/3/2 442/2/2 441/1/2
f 442/3/2 443/2/2 444/1/2
f 324/5/3 319/5/3 321/389/3
f 319/5/3 324/5/3 323/390/3
f 324/275/4 443/5/4 323/5/4
f 443/5/4 324/275/4 444/391/4
f 443/5/5 319/277/5 323/5/5
f 319/277/5 443/5/5 441/392/5
f 442/2/6 324/3/6 321/11/6
f 324/3/6 442/2/6 444/1/6
f 302/3/1 445/2/1 300/1/1
f 445/3/1 302/2/1 446/1/1
f 306/3/2 302/2/2 300/1/2
f 302/3/2 306/2/2 305/1/2
f 447/5/3 445/5/3 446/393/3
f 445/5/3 447/5/3 448/394/3
f 447/5/4 306/258/4 448/395/4
f 306/258/4 447/5/4 305/5/4
f 306/260/5 445/5/5 448/396/5
f 445/5/5 306/260/5 300/5/5
f 302/2/6 447/3/6 446/11/6
f 447/3/6 302/2/6 305/1/6

usemtl color10

f 310/3/1 41/2/1 308/1/1
f 41/3/1 310/2/1 43/1/1
f 270/3/2 310/2/2 308/1/2
f 310/3/2 270/2/2 272/1/2
f 46/5/3 41/5/3 43/397/3
f 41/5/3 46/5/3 45/398/3
f 46/39/4 270/263/4 45/5/4
f 270/263/4 46/39/4 272/5/4
f 270/5/5 41/41/5 45/5/5
f 41/41/5 270/5/5 308/5/5
f 310/2/6 46/3/6 43/11/6
f 46/3/6 310/2/6 272/1/6
f 46/3/1 48/2/1 45/1/1
f 48/3/1 46/2/1 47/1/1
f 449/3/2 46/2/2 45/1/2
f 46/3/2 449/2/2 450/1/2
f 451/5/3 48/37/3 47/5/3
f 48/37/3 451/5/3 452/399/3
f 451/5/4 449/5/4 452/400/4
f 449/5/4 451/5/4 450/401/4
f 449/5/5 48/40/5 452/402/5
f 48/40/5 449/5/5 45/5/5
f 46/2/6 451/3/6 47/11/6
f 451/3/6 46/2/6 450/1/6
f 455/3/1 454/2/1 453/1/1
f 454/3/1 455/2/1 456/1/1
f 457/3/2 455/2/2 453/1/2
f 455/3/2 457/2/2 458/1/2
f 459/5/3 454/5/3 456/403/3
f 454/5/3 459/5/3 460/404/3
f 459/5/4 457/5/4 460/405/4
f 457/5/4 459/5/4 458/406/4
f 457/5/5 454/5/5 460/407/5
f 454/5/5 457/5/5 453/408/5
f 455/2/6 459/3/6 456/11/6
f 459/3/6 455/2/6 458/1/6
f 463/3/1 462/2/1 461/1/1
f 462/3/1 463/2/1 464/1/1
f 465/3/2 463/2/2 461/1/2
f 463/3/2 465/2/2 466/1/2
f 467/5/3 462/5/3 464/409/3
f 462/5/3 467/5/3 468/410/3
f 467/5/4 465/5/4 468/411/4
f 465/5/4 467/5/4 466/412/4
f 465/5/5 462/5/5 468/413/5
f 462/5/5 465/5/5 461/414/5
f 463/2/6 467/3/6 464/11/6
f 467/3/6 463/2/6 466/1/6
f 470/3/1 171/2/1 469/1/1
f 171/3/1 470/2/1 173/1/1
f 438/3/2 470/2/2 469/1/2
f 470/3/2 438/2/2 440/1/2
f 176/5/3 171/5/3 173/415/3
f 171/5/3 176/5/3 175/416/3
f 176/146/4 438/5/4 175/5/4
f 438/5/4 176/146/4 440/417/4
f 438/5/5 171/148/5 175/5/5
f 171/148/5 438/5/5 469/418/5
f 470/2/6 176/3/6 173/11/6
f 176/3/6 470/2/6 440/1/6
f 176/3/1 178/2/1 175/1/1
f 178/3/1 176/2/1 177/1/1
f 471/3/2 176/2/2 175/1/2
f 176/3/2 471/2/2 472/1/2
f 473/5/3 178/144/3 177/5/3
f 178/144/3 473/5/3 474/419/3
f 473/5/4 471/5/4 474/420/4
f 471/5/4 473/5/4 472/421/4
f 471/5/5 178/147/5 474/422/5
f 178/147/5 471/5/5 175/5/5
f 176/2/6 473/3/6 177/11/6
f 473/3/6 176/2/6 472/1/6

usemtl color11

f 272/3/1 45/2/1 270/1/1
f 45/3/1 272/2/1 46/1/1
f 431/3/2 272/2/2 270/1/2
f 272/3/2 431/2/2 433/1/2
f 434/376/3 45/398/3 46/5/3
f 45/398/3 434/376/3 432/5/3
f 434/5/4 431/5/4 432/423/4
f 431/5/4 434/5/4 433/424/4
f 431/380/5 45/5/5 432/5/5
f 45/5/5 431/380/5 270/5/5
f 272/2/6 434/3/6 46/11/6
f 434/3/6 272/2/6 433/1/6
f 450/3/1 452/2/1 449/1/1
f 452/3/1 450/2/1 451/1/1
f 475/3/2 450/2/2 449/1/2
f 450/3/2 475/2/2 476/1/2
f 477/5/3 452/399/3 451/5/3
f 452/399/3 477/5/3 478/425/3
f 477/5/4 475/5/4 478/426/4
f 475/5/4 477/5/4 476/427/4
f 475/5/5 452/402/5 478/428/5
f 452/402/5 475/5/5 449/5/5
f 450/2/6 477/3/6 451/11/6
f 477/3/6 450/2/6 476/1/6
f 456/3/1 479/2/1 454/1/1
f 479/3/1 456/2/1 480/1/1
f 460/3/2 456/2/2 454/1/2
f 456/3/2 460/2/2 459/1/2
f 481/5/3 479/5/3 480/429/3
f 479/5/3 481/5/3 482/430/3
f 481/5/4 460/405/4 482/431/4
f 460/405/4 481/5/4 459/5/4
f 460/407/5 479/5/5 482/432/5
f 479/5/5 460/407/5 454/5/5
f 456/2/6 481/3/6 480/11/6
f 481/3/6 456/2/6 459/1/6
f 484/3/1 461/2/1 483/1/1
f 461/3/1 484/2/1 463/1/1
f 479/3/2 484/2/2 483/1/2
f 484/3/2 479/2/2 480/1/2
f 466/5/3 461/5/3 463/433/3
f 461/5/3 466/5/3 465/434/3
f 466/412/4 479/5/4 465/5/4
f 479/5/4 466/412/4 480/435/4
f 479/5/5 461/414/5 465/5/5
f 461/414/5 479/5/5 483/436/5
f 484/2/6 466/3/6 463/11/6
f 466/3/6 484/2/6 480/1/6
f 440/3/1 175/2/1 438/1/1
f 175/3/1 440/2/1 176/1/1
f 441/3/2 440/2/2 438/1/2
f 440/3/2 441/2/2 442/1/2
f 321/389/3 175/416/3 176/5/3
f 175/416/3 321/389/3 319/5/3
f 321/5/4 441/5/4 319/437/4
f 441/5/4 321/5/4 442/438/4
f 441/392/5 175/5/5 319/277/5
f 175/5/5 441/392/5 438/5/5
f 440/2/6 321/3/6 176/11/6
f 321/3/6 440/2/6 442/1/6
f 472/3/1 474/2/1 471/1/1
f 474/3/1 472/2/1 473/1/1
f 319/3/2 472/2/2 471/1/2
f 472/3/2 319/2/2 321/1/2
f 322/272/3 474/419/3 473/5/3
f 474/419/3 322/272/3 320/5/3
f 322/5/4 319/437/4 320/439/4
f 319/437/4 322/5/4 321/5/4
f 319/277/5 474/422/5 320/5/5
f 474/422/5 319/277/5 471/5/5
f 472/2/6 322/3/6 473/11/6
f 322/3/6 472/2/6 321/1/6

usemtl color17

f 425/3/1 485/2/1 426/1/1
f 485/3/1 425/2/1 486/1/1
f 487/3/2 425/2/2 426/1/2
f 425/3/2 487/2/2 488/1/2
f 489/5/3 485/5/3 486/440/3
f 485/5/3 489/5/3 490/441/3
f 489/5/4 487/5/4 490/442/4
f 487/5/4 489/5/4 488/443/4
f 487/5/5 485/5/5 490/444/5
f 485/5/5 487/5/5 426/370/5
f 425/2/6 489/3/6 486/11/6
f 489/3/6 425/2/6 488/1/6
f 493/3/1 492/2/1 491/1/1
f 492/3/1 493/2/1 494/1/1
f 485/3/2 493/2/2 491/1/2
f 493/3/2 485/2/2 486/1/2
f 495/5/3 492/5/3 494/445/3
f 492/5/3 495/5/3 496/446/3
f 495/5/4 485/5/4 496/447/4
f 485/5/4 495/5/4 486/448/4
f 485/5/5 492/5/5 496/449/5
f 492/5/5 485/5/5 491/450/5
f 493/2/6 495/3/6 494/11/6
f 495/3/6 493/2/6 486/1/6
f 499/3/1 498/2/1 497/1/1
f 498/3/1 499/2/1 500/1/1
f 501/3/2 499/2/2 497/1/2
f 499/3/2 501/2/2 502/1/2
f 503/5/3 498/5/3 500/451/3
f 498/5/3 503/5/3 504/452/3
f 503/5/4 501/5/4 504/453/4
f 501/5/4 503/5/4 502/454/4
f 501/5/5 498/5/5 504/455/5
f 498/5/5 501/5/5 497/456/5
f 499/2/6 503/3/6 500/11/6
f 503/3/6 499/2/6 502/1/6

usemtl color16

f 488/3/1 490/2/1 487/1/1
f 490/3/1 488/2/1 489/1/1
f 427/3/2 488/2/2 487/1/2
f 488/3/2 427/2/2 428/1/2
f 505/5/3 490/441/3 489/5/3
f 490/441/3 505/5/3 506/457/3
f 505/5/4 427/5/4 506/458/4
f 427/5/4 505/5/4 428/459/4
f 427/5/5 490/444/5 506/460/5
f 490/444/5 427/5/5 487/5/5
f 488/2/6 505/3/6 489/11/6
f 505/3/6 488/2/6 428/1/6
f 495/3/1 507/2/1 496/1/1
f 507/3/1 495/2/1 508/1/1
f 497/3/2 495/2/2 496/1/2
f 495/3/2 497/2/2 499/1/2
f 500/451/3 507/5/3 508/461/3
f 507/5/3 500/451/3 498/5/3
f 500/5/4 497/5/4 498/462/4
f 497/5/4 500/5/4 499/463/4
f 497/456/5 507/5/5 498/5/5
f 507/5/5 497/456/5 496/449/5
f 495/2/6 500/3/6 508/11/6
f 500/3/6 495/2/6 499/1/6

usemtl color15

f 350/3/1 336/2/1 349/1/1
f 336/3/1 350/2/1 335/1/1
f 509/3/2 350/2/2 349/1/2
f 350/3/2 509/2/2 510/1/2
f 511/5/3 336/283/3 335/5/3
f 336/283/3 511/5/3 512/464/3
f 511/5/4 509/5/4 512/465/4
f 509/5/4 511/5/4 510/466/4
f 509/5/5 336/286/5 512/467/5
f 336/286/5 509/5/5 349/5/5
f 350/2/6 511/3/6 335/11/6
f 511/3/6 350/2/6 510/1/6
f 515/3/1 514/2/1 513/1/1
f 514/3/1 515/2/1 516/1/1
f 231/3/2 515/2/2 513/1/2
f 515/3/2 231/2/2 233/1/2
f 234/193/3 514/5/3 516/468/3
f 514/5/3 234/193/3 232/5/3
f 234/5/4 231/5/4 232/469/4
f 231/5/4 234/5/4 233/470/4
f 231/196/5 514/5/5 232/5/5
f 514/5/5 231/196/5 513/471/5
f 515/2/6 234/3/6 516/11/6
f 234/3/6 515/2/6 233/1/6
f 519/3/1 518/2/1 517/1/1
f 518/3/1 519/2/1 520/1/1
f 235/3/2 519/2/2 517/1/2
f 519/3/2 235/2/2 237/1/2
f 238/197/3 518/5/3 520/472/3
f 518/5/3 238/197/3 236/5/3
f 238/5/4 235/5/4 236/473/4
f 235/5/4 238/5/4 237/474/4
f 235/200/5 518/5/5 236/5/5
f 518/5/5 235/200/5 517/475/5
f 519/2/6 238/3/6 520/11/6
f 238/3/6 519/2/6 237/1/6

usemtl color8

f 522/3/1 79/2/1 521/1/1
f 79/3/1 522/2/1 81/1/1
f 523/3/2 522/2/2 521/1/2
f 522/3/2 523/2/2 524/1/2
f 84/5/3 79/5/3 81/476/3
f 79/5/3 84/5/3 83/477/3
f 84/69/4 523/5/4 83/5/4
f 523/5/4 84/69/4 524/478/4
f 523/5/5 79/71/5 83/5/5
f 79/71/5 523/5/5 521/479/5
f 522/2/6 84/3/6 81/11/6
f 84/3/6 522/2/6 524/1/6
f 481/3/1 101/2/1 482/1/1
f 101/3/1 481/2/1 103/1/1
f 80/3/2 481/2/2 482/1/2
f 481/3/2 80/2/2 82/1/2
f 106/5/3 101/5/3 103/480/3
f 101/5/3 106/5/3 105/481/3
f 106/86/4 80/5/4 105/5/4
f 80/5/4 106/86/4 82/482/4
f 80/5/5 101/88/5 105/5/5
f 101/88/5 80/5/5 482/432/5
f 481/2/6 106/3/6 103/11/6
f 106/3/6 481/2/6 82/1/6
f 158/3/1 160/2/1 157/1/1
f 160/3/1 158/2/1 159/1/1
f 525/3/2 158/2/2 157/1/2
f 158/3/2 525/2/2 526/1/2
f 390/5/3 160/129/3 159/5/3
f 160/129/3 390/5/3 389/483/3
f 390/341/4 525/5/4 389/5/4
f 525/5/4 390/341/4 526/484/4
f 525/5/5 160/132/5 389/5/5
f 160/132/5 525/5/5 157/5/5
f 158/2/6 390/3/6 159/11/6
f 390/3/6 158/2/6 526/1/6
f 528/3/1 469/2/1 527/1/1
f 469/3/1 528/2/1 470/1/1
f 437/3/2 528/2/2 527/1/2
f 528/3/2 437/2/2 439/1/2
f 440/383/3 469/5/3 470/485/3
f 469/5/3 440/383/3 438/5/3
f 440/417/4 437/5/4 438/5/4
f 437/5/4 440/417/4 439/486/4
f 437/386/5 469/418/5 438/5/5
f 469/418/5 437/386/5 527/487/5
f 528/2/6 440/3/6 470/11/6
f 440/3/6 528/2/6 439/1/6
f 169/3/1 418/2/1 170/1/1
f 418/3/1 169/2/1 417/1/1
f 384/3/2 169/2/2 170/1/2
f 169/3/2 384/2/2 383/1/2
f 181/5/3 418/363/3 417/5/3
f 418/363/3 181/5/3 179/488/3
f 181/5/4 384/336/4 179/489/4
f 384/336/4 181/5/4 383/5/4
f 384/337/5 418/365/5 179/154/5
f 418/365/5 384/337/5 170/141/5
f 169/2/6 181/3/6 417/11/6
f 181/3/6 169/2/6 383/1/6
f 388/3/1 183/2/1 386/1/1
f 183/3/1 388/2/1 184/1/1
f 392/3/2 388/2/2 386/1/2
f 388/3/2 392/2/2 391/1/2
f 211/5/3 183/5/3 184/490/3
f 183/5/3 211/5/3 209/491/3
f 211/5/4 392/340/4 209/492/4
f 392/340/4 211/5/4 391/5/4
f 392/342/5 183/5/5 209/178/5
f 183/5/5 392/342/5 386/5/5
f 388/2/6 211/3/6 184/11/6
f 211/3/6 388/2/6 391/1/6

usemtl color18

f 531/3/1 530/2/1 529/1/1
f 530/3/1 531/2/1 532/1/1
f 533/3/2 531/2/2 529/1/2
f 531/3/2 533/2/2 534/1/2
f 535/5/3 530/5/3 532/493/3
f 530/5/3 535/5/3 536/494/3
f 535/5/4 533/5/4 536/495/4
f 533/5/4 535/5/4 534/496/4
f 533/5/5 530/5/5 536/497/5
f 530/5/5 533/5/5 529/498/5
f 531/2/6 535/3/6 532/11/6
f 535/3/6 531/2/6 534/1/6

usemtl color19

f 68/3/1 87/2/1 66/1/1
f 87/3/1 68/2/1 89/1/1
f 537/3/2 68/2/2 66/1/2
f 68/3/2 537/2/2 538/1/2
f 539/5/3 87/5/3 89/499/3
f 87/5/3 539/5/3 540/500/3
f 539/5/4 537/5/4 540/501/4
f 537/5/4 539/5/4 538/502/4
f 537/5/5 87/77/5 540/503/5
f 87/77/5 537/5/5 66/5/5
f 68/2/6 539/3/6 89/11/6
f 539/3/6 68/2/6 538/1/6
f 543/3/1 542/2/1 541/1/1
f 542/3/1 543/2/1 544/1/1
f 545/3/2 543/2/2 541/1/2
f 543/3/2 545/2/2 546/1/2
f 547/5/3 542/5/3 544/504/3
f 542/5/3 547/5/3 548/505/3
f 547/5/4 545/5/4 548/506/4
f 545/5/4 547/5/4 546/507/4
f 545/5/5 542/5/5 548/508/5
f 542/5/5 545/5/5 541/509/5
f 543/2/6 547/3/6 544/11/6
f 547/3/6 543/2/6 546/1/6

usemtl color20

f 551/3/1 550/2/1 549/1/1
f 550/3/1 551/2/1 552/1/1
f 553/3/2 551/2/2 549/1/2
f 551/3/2 553/2/2 554/1/2
f 555/5/3 550/5/3 552/510/3
f 550/5/3 555/5/3 556/511/3
f 555/5/4 553/5/4 556/512/4
f 553/5/4 555/5/4 554/513/4
f 553/5/5 550/5/5 556/514/5
f 550/5/5 553/5/5 549/515/5
f 551/2/6 555/3/6 552/11/6
f 555/3/6 551/2/6 554/1/6

usemtl color21

f 559/3/1 558/2/1 557/1/1
f 558/3/1 559/2/1 560/1/1
f 138/3/2 559/2/2 557/1/2
f 559/3/2 138/2/2 140/1/2
f 147/5/3 558/5/3 560/516/3
f 558/5/3 147/5/3 145/517/3
f 147/5/4 138/5/4 145/518/4
f 138/5/4 147/5/4 140/519/4
f 138/5/5 558/5/5 145/127/5
f 558/5/5 138/5/5 557/520/5
f 559/2/6 147/3/6 560/11/6
f 147/3/6 559/2/6 140/1/6

usemtl color7

f 404/3/1 406/2/1 403/1/1
f 406/3/1 404/2/1 405/1/1
f 407/3/2 404/2/2 403/1/2
f 404/3/2 407/2/2 409/1/2
f 410/356/3 406/351/3 405/5/3
f 406/351/3 410/356/3 408/5/3
f 410/5/4 407/5/4 408/521/4
f 407/5/4 410/5/4 409/522/4
f 407/361/5 406/354/5 408/5/5
f 406/354/5 407/361/5 403/5/5
f 404/2/6 410/3/6 405/11/6
f 410/3/6 404/2/6 409/1/6

