# Created by Kenney (www.kenney.nl)

mtllib Grenade 6F3 Wavefire.mtl

v 3 5 -0.9
v 3 4 -0.9
v 3 5 0.9
v 3 4 0.9
v 2 5 -0.9
v 2 5 0.9
v 2 4 0.9
v 2 4 -0.9
v 3 4 -1.8
v 3 3 -1.8
v 3 4 1.8
v 3 3 1.8
v 2 4 -1.8
v 2 4 1.8
v 2 3 1.8
v 2 3 -1.8
v 3 3 -2.7
v 3 2 -2.7
v 3 3 2.7
v 3 2 2.7
v 2 3 -2.7
v 2 3 2.7
v 2 2 2.7
v 2 2 -2.7
v 2 3 -3.6
v 2 1 -3.6
v 2 3 3.6
v 2 1 3.6
v 1 3 -3.6
v 1 3 3.6
v 1 1 3.6
v 1 1 -3.6
v 4 2 -2.7
v 4 -1 -2.7
v 4 2 2.7
v 4 -1 2.7
v 3 -1 2.7
v 3 -1 -2.7
v 3 1 -3.6
v 3 -1 -3.6
v 3 1 3.6
v 3 -1 3.6
v 2 -1 3.6
v 2 -1 -3.6
v 1 0 -3.6
v 1 0 3.6
v 0 1 -3.6
v 0 1 3.6
v 0 0 3.6
v 0 0 -3.6
v 2 0 -3.6
v 2 -2 -3.6
v 2 0 3.6
v 2 -2 3.6
v 1 -2 3.6
v 1 -2 -3.6
v 0 -2 -3.6
v 0 -2 3.6
v -1 0 -3.6
v -1 0 3.6
v -1 -2 3.6
v -1 -2 -3.6
v -3 -1 -0.9
v -3 -2 -0.9
v -3 -1 0.9
v -3 -2 0.9
v -4 -1 -0.9
v -4 -1 0.9
v -4 -2 0.9
v -4 -2 -0.9
v 1 5 -0.9
v 1 5 0.9
v 1 4 0.9
v 1 4 -0.9
v 1 5 -1.8
v 1 4 -1.8
v 1 5 1.8
v 1 4 1.8
v 0 5 -1.8
v 0 5 1.8
v 0 4 1.8
v 0 4 -1.8
v 0 5 -0.9
v 0 4 -0.9
v 0 5 0.9
v 0 4 0.9
v -1 5 -0.9
v -1 5 0.9
v -1 4 0.9
v -1 4 -0.9
v -1 4 -1.8
v -1 3 -1.8
v -1 4 1.8
v -1 3 1.8
v -2 4 -1.8
v -2 4 1.8
v -2 3 1.8
v -2 3 -1.8
v 1 2 -3.6
v 1 2 3.6
v 0 3 -3.6
v 0 3 3.6
v 0 2 3.6
v 0 2 -3.6
v -1 2 -3.6
v -1 2 3.6
v -1 1 3.6
v -1 1 -3.6
v -2 2 -2.7
v -2 0 -2.7
v -2 2 2.7
v -2 0 2.7
v -3 2 -2.7
v -3 2 2.7
v -3 0 2.7
v -3 0 -2.7
v -1 -1 -3.6
v -1 -1 3.6
v -2 0 -3.6
v -2 0 3.6
v -2 -1 3.6
v -2 -1 -3.6
v -2 5 -0.9
v -2 5 0.9
v -2 4 0.9
v -2 4 -0.9
v -2 3 -0.9
v -2 3 0.9
v -3 4 -0.9
v -3 4 0.9
v -3 3 0.9
v -3 3 -0.9
v -3 1 -0.9
v -3 1 0.9
v -4 3 -0.9
v -4 3 0.9
v -4 1 0.9
v -4 1 -0.9
v -3 1 -1.8
v -3 0 -1.8
v -3 1 1.8
v -3 0 1.8
v -4 1 -1.8
v -4 1 1.8
v -4 0 1.8
v -4 0 -1.8
v -2 -1 -2.7
v -2 -1 2.7
v -3 -1 2.7
v -3 -1 -2.7
v -3 0 -0.9
v -3 0 0.9
v -4 0 -0.9
v -4 0 0.9
v 4 4 -0.9
v 4 3 -0.9
v 4 4 0.9
v 4 3 0.9
v 3 3 0.9
v 3 3 -0.9
v 5 3 -0.9
v 5 1 -0.9
v 5 3 0.9
v 5 1 0.9
v 4 1 0.9
v 4 1 -0.9
v 5 1 -1.8
v 5 0 -1.8
v 5 1 1.8
v 5 0 1.8
v 4 1 -1.8
v 4 1 1.8
v 4 0 1.8
v 4 0 -1.8
v 3 -2 -2.7
v 3 -2 2.7
v 2 -1 -2.7
v 2 -1 2.7
v 2 -2 2.7
v 2 -2 -2.7
v -1 -1 -2.7
v -1 -2 -2.7
v -1 -1 2.7
v -1 -2 2.7
v -2 -2 2.7
v -2 -2 -2.7
v 2 -3 -2.7
v 2 -3 2.7
v 1 -2 -2.7
v 1 -2 2.7
v 1 -3 2.7
v 1 -3 -2.7
v 0 -2 -2.7
v 0 -3 -2.7
v 0 -2 2.7
v 0 -3 2.7
v -1 -3 2.7
v -1 -3 -2.7
v -2 -2 -0.9
v -2 -3 -0.9
v -2 -2 0.9
v -2 -3 0.9
v -3 -3 0.9
v -3 -3 -0.9
v 2 4 -2.7
v 2 4 2.7
v 1 4 -2.7
v 1 4 2.7
v 1 3 2.7
v 1 3 -2.7
v -1 3 -3.6
v -1 3 3.6
v -2 1 -3.6
v -2 1 3.6
v 0 4 -2.7
v 0 4 2.7
v 0 3 2.7
v 0 3 -2.7
v 3 2 -3.6
v 3 2 3.6
v 2 2 -3.6
v 2 2 3.6
v -2 2 -3.6
v -2 2 3.6
v 4 -1 -1.8
v 4 -2 -1.8
v 4 -1 1.8
v 4 -2 1.8
v 3 -1 -1.8
v 3 -1 1.8
v 3 -2 1.8
v 3 -2 -1.8
v 1 -1 -3.6
v 1 -1 3.6
v 0 -1 -3.6
v 0 -1 3.6
v -2 -1 -1.8
v -2 -2 -1.8
v -2 -1 1.8
v -2 -2 1.8
v -3 -1 -1.8
v -3 -1 1.8
v -3 -2 1.8
v -3 -2 -1.8
v 3 -3 -1.8
v 3 -3 1.8
v 2 -2 -1.8
v 2 -2 1.8
v 2 -3 1.8
v 2 -3 -1.8
v -1 -2 -1.8
v -1 -3 -1.8
v -1 -2 1.8
v -1 -3 1.8
v -2 -3 1.8
v -2 -3 -1.8
v -1 4 -2.7
v -1 4 2.7
v -1 3 2.7
v -1 3 -2.7
v -1 2 -2.7
v -1 2 2.7
v -2 3 -2.7
v -2 3 2.7
v 4 3 -1.8
v 4 2 -1.8
v 4 3 1.8
v 4 2 1.8
v 3 2 1.8
v 3 2 -1.8
v -2 2 -1.8
v -2 2 1.8
v -3 3 -1.8
v -3 3 1.8
v -3 2 1.8
v -3 2 -1.8
v 1 -3 -1.8
v 1 -4 -1.8
v 1 -3 1.8
v 1 -4 1.8
v 0 -3 -1.8
v 0 -3 1.8
v 0 -4 1.8
v 0 -4 -1.8
v 1 2 -4.5
v 1 1 -4.5
v 1 2 4.5
v 1 1 4.5
v 0 2 -4.5
v 0 2 4.5
v 0 1 4.5
v 0 1 -4.5
v 2 1 -4.5
v 2 0 -4.5
v 2 1 4.5
v 2 0 4.5
v 1 0 4.5
v 1 0 -4.5
v 0 0 -4.5
v 0 0 4.5
v -1 1 -4.5
v -1 1 4.5
v -1 0 4.5
v -1 0 -4.5
v 1 -1 -4.5
v 1 -1 4.5
v 0 -1 4.5
v 0 -1 -4.5
v 5 0 -0.9
v 5 -2 -0.9
v 5 0 0.9
v 5 -2 0.9
v 4 0 -0.9
v 4 0 0.9
v 4 -2 0.9
v 4 -2 -0.9
v 4 -3 -0.9
v 4 -3 0.9
v 3 -2 -0.9
v 3 -2 0.9
v 3 -3 0.9
v 3 -3 -0.9
v -1 -3 -0.9
v -1 -4 -0.9
v -1 -3 0.9
v -1 -4 0.9
v -2 -4 0.9
v -2 -4 -0.9
v 3 -4 -0.9
v 3 -4 0.9
v 1 -3 -0.9
v 1 -3 0.9
v 1 -4 0.9
v 1 -4 -0.9
v 0 -3 -0.9
v 0 -4 -0.9
v 0 -3 0.9
v 0 -4 0.9

vn 1 0 0
vn 0 1 0
vn 0 -1 0
vn -1 0 0
vn 0 0 -1
vn 0 0 1

vt -19.68504 19.68504
vt 19.68504 19.68504
vt -19.68504 -19.68504
vt 0 NaN
vt 0 0
vt 0 NaN
vt 0 NaN
vt 0 NaN
vt 0 NaN
vt 0 NaN
vt 19.68504 -19.68504
vt 0 NaN
vt 0 NaN
vt 0 NaN
vt 0 NaN
vt 0 NaN
vt 0 NaN
vt 0 NaN
vt 0 NaN
vt 0 NaN
vt 0 NaN
vt 0 NaN
vt 0 NaN
vt 0 NaN
vt 0 NaN
vt 0 NaN
vt 0 NaN
vt 0 NaN
vt 0 NaN
vt 0 NaN
vt 0 NaN
vt 0 NaN
vt 0 NaN
vt 0 NaN
vt 0 NaN
vt 0 NaN
vt 0 NaN
vt 0 NaN
vt 0 NaN
vt 0 NaN
vt 0 NaN
vt 0 NaN
vt 0 NaN
vt 0 NaN
vt 0 NaN
vt 0 NaN
vt 0 NaN
vt 0 NaN
vt 0 NaN
vt 0 NaN
vt 0 NaN
vt 0 NaN
vt 0 NaN
vt 0 NaN
vt 0 NaN
vt 0 NaN
vt 0 NaN
vt 0 NaN
vt 0 NaN
vt 0 NaN
vt 0 NaN
vt 0 NaN
vt 0 NaN
vt 0 NaN
vt 0 NaN
vt 0 NaN
vt 0 NaN
vt 0 NaN
vt 0 NaN
vt 0 NaN
vt 0 NaN
vt 0 NaN
vt 0 NaN
vt 0 NaN
vt 0 NaN
vt 0 NaN
vt 0 NaN
vt 0 NaN
vt 0 NaN
vt 0 NaN
vt 0 NaN
vt 0 NaN
vt 0 NaN
vt 0 NaN
vt 0 NaN
vt 0 NaN
vt 0 NaN
vt 0 NaN
vt 0 NaN
vt 0 NaN
vt 0 NaN
vt 0 NaN
vt 0 NaN
vt 0 NaN
vt 0 NaN
vt 0 NaN
vt 0 NaN
vt 0 NaN
vt 0 NaN
vt 0 NaN
vt 0 NaN
vt 0 NaN
vt 0 NaN
vt 0 NaN
vt 0 NaN
vt 0 NaN
vt 0 NaN
vt 0 NaN
vt 0 NaN
vt 0 NaN
vt 0 NaN
vt 0 NaN
vt 0 NaN
vt 0 NaN
vt 0 NaN
vt 0 NaN
vt 0 NaN
vt 0 NaN
vt 0 NaN
vt 0 NaN
vt 0 NaN
vt 0 NaN
vt 0 NaN
vt 0 NaN
vt 0 NaN
vt 0 NaN
vt 0 NaN
vt 0 NaN
vt 0 NaN
vt 0 NaN
vt 0 NaN
vt 0 NaN
vt 0 NaN
vt 0 NaN
vt 0 NaN
vt 0 NaN
vt 0 NaN
vt 0 NaN
vt 0 NaN
vt 0 NaN
vt 0 NaN
vt 0 NaN
vt 0 NaN
vt 0 NaN
vt 0 NaN
vt 0 NaN
vt 0 NaN
vt 0 NaN
vt 0 NaN
vt 0 NaN
vt 0 NaN
vt 0 NaN
vt 0 NaN
vt 0 NaN
vt 0 NaN
vt 0 NaN
vt 0 NaN
vt 0 NaN
vt 0 NaN
vt 0 NaN
vt 0 NaN
vt 0 NaN
vt 0 NaN
vt 0 NaN
vt 0 NaN
vt 0 NaN
vt 0 NaN
vt 0 NaN
vt 0 NaN
vt 0 NaN
vt 0 NaN
vt 0 NaN
vt 0 NaN
vt 0 NaN
vt 0 NaN
vt 0 NaN
vt 0 NaN
vt 0 NaN
vt 0 NaN
vt 0 NaN
vt 0 NaN
vt 0 NaN
vt 0 NaN
vt 0 NaN
vt 0 NaN
vt 0 NaN
vt 0 NaN
vt 0 NaN
vt 0 NaN
vt 0 NaN
vt 0 NaN
vt 0 NaN
vt 0 NaN
vt 0 NaN
vt 0 NaN
vt 0 NaN
vt 0 NaN
vt 0 NaN
vt 0 NaN
vt 0 NaN
vt 0 NaN
vt 0 NaN
vt 0 NaN
vt 0 NaN
vt 0 NaN
vt 0 NaN
vt 0 NaN
vt 0 NaN
vt 0 NaN
vt 0 NaN
vt 0 NaN
vt 0 NaN
vt 0 NaN
vt 0 NaN
vt 0 NaN
vt 0 NaN
vt 0 NaN
vt 0 NaN
vt 0 NaN
vt 0 NaN
vt 0 NaN
vt 0 NaN
vt 0 NaN
vt 0 NaN
vt 0 NaN
vt 0 NaN
vt 0 NaN
vt 0 NaN
vt 0 NaN
vt 0 NaN
vt 0 NaN
vt 0 NaN
vt 0 NaN
vt 0 NaN
vt 0 NaN
vt 0 NaN
vt 0 NaN
vt 0 NaN
vt 0 NaN
vt 0 NaN
vt 0 NaN
vt 0 NaN
vt 0 NaN
vt 0 NaN
vt 0 NaN
vt 0 NaN
vt 0 NaN
vt 0 NaN
vt 0 NaN
vt 0 NaN
vt 0 NaN
vt 0 NaN
vt 0 NaN
vt 0 NaN
vt 0 NaN
vt 0 NaN
vt 0 NaN
vt 0 NaN
vt 0 NaN
vt 0 NaN
vt 0 NaN
vt 0 NaN
vt 0 NaN
vt 0 NaN
vt 0 NaN
vt 0 NaN
vt 0 NaN
vt 0 NaN
vt 0 NaN
vt 0 NaN
vt 0 NaN
vt 0 NaN
vt 0 NaN
vt 0 NaN
vt 0 NaN
vt 0 NaN
vt 0 NaN
vt 0 NaN
vt 0 NaN
vt 0 NaN
vt 0 NaN
vt 0 NaN
vt 0 NaN
vt 0 NaN
vt 0 NaN
vt 0 NaN
vt 0 NaN
vt 0 NaN
vt 0 NaN
vt 0 NaN
vt 0 NaN
vt 0 NaN
vt 0 NaN
vt 0 NaN
vt 0 NaN
vt 0 NaN
vt 0 NaN
vt 0 NaN
vt 0 NaN
vt 0 NaN
vt 0 NaN

usemtl color7

f 3/3/1 2/2/1 1/1/1
f 2/3/1 3/2/1 4/1/1
f 5/3/2 3/2/2 1/1/2
f 3/3/2 5/2/2 6/1/2
f 7/5/3 2/5/3 4/4/3
f 2/5/3 7/5/3 8/6/3
f 7/5/4 5/5/4 8/7/4
f 5/5/4 7/5/4 6/8/4
f 5/5/5 2/5/5 8/9/5
f 2/5/5 5/5/5 1/10/5
f 3/2/6 7/3/6 4/11/6
f 7/3/6 3/2/6 6/1/6
f 3/3/1 2/2/1 1/1/1
f 2/3/1 3/2/1 4/1/1
f 5/3/2 3/2/2 1/1/2
f 3/3/2 5/2/2 6/1/2
f 7/5/3 2/5/3 4/4/3
f 2/5/3 7/5/3 8/6/3
f 7/5/4 5/5/4 8/7/4
f 5/5/4 7/5/4 6/8/4
f 5/5/5 2/5/5 8/9/5
f 2/5/5 5/5/5 1/10/5
f 3/2/6 7/3/6 4/11/6
f 7/3/6 3/2/6 6/1/6
f 11/3/1 10/2/1 9/1/1
f 10/3/1 11/2/1 12/1/1
f 13/3/2 11/2/2 9/1/2
f 11/3/2 13/2/2 14/1/2
f 15/5/3 10/5/3 12/12/3
f 10/5/3 15/5/3 16/13/3
f 15/5/4 13/5/4 16/14/4
f 13/5/4 15/5/4 14/15/4
f 13/5/5 10/5/5 16/16/5
f 10/5/5 13/5/5 9/17/5
f 11/2/6 15/3/6 12/11/6
f 15/3/6 11/2/6 14/1/6
f 19/3/1 18/2/1 17/1/1
f 18/3/1 19/2/1 20/1/1
f 21/3/2 19/2/2 17/1/2
f 19/3/2 21/2/2 22/1/2
f 23/5/3 18/5/3 20/18/3
f 18/5/3 23/5/3 24/19/3
f 23/5/4 21/5/4 24/20/4
f 21/5/4 23/5/4 22/21/4
f 21/5/5 18/5/5 24/22/5
f 18/5/5 21/5/5 17/23/5
f 19/2/6 23/3/6 20/11/6
f 23/3/6 19/2/6 22/1/6
f 27/3/1 26/2/1 25/1/1
f 26/3/1 27/2/1 28/1/1
f 29/3/2 27/2/2 25/1/2
f 27/3/2 29/2/2 30/1/2
f 31/5/3 26/5/3 28/24/3
f 26/5/3 31/5/3 32/25/3
f 31/5/4 29/5/4 32/26/4
f 29/5/4 31/5/4 30/27/4
f 29/5/5 26/5/5 32/28/5
f 26/5/5 29/5/5 25/29/5
f 27/2/6 31/3/6 28/11/6
f 31/3/6 27/2/6 30/1/6
f 35/3/1 34/2/1 33/1/1
f 34/3/1 35/2/1 36/1/1
f 18/3/2 35/2/2 33/1/2
f 35/3/2 18/2/2 20/1/2
f 37/5/3 34/5/3 36/30/3
f 34/5/3 37/5/3 38/31/3
f 37/5/4 18/5/4 38/32/4
f 18/5/4 37/5/4 20/33/4
f 18/5/5 34/5/5 38/34/5
f 34/5/5 18/5/5 33/35/5
f 35/2/6 37/3/6 36/11/6
f 37/3/6 35/2/6 20/1/6
f 41/3/1 40/2/1 39/1/1
f 40/3/1 41/2/1 42/1/1
f 26/3/2 41/2/2 39/1/2
f 41/3/2 26/2/2 28/1/2
f 43/5/3 40/5/3 42/36/3
f 40/5/3 43/5/3 44/37/3
f 43/5/4 26/5/4 44/38/4
f 26/5/4 43/5/4 28/39/4
f 26/5/5 40/5/5 44/40/5
f 40/5/5 26/5/5 39/41/5
f 41/2/6 43/3/6 42/11/6
f 43/3/6 41/2/6 28/1/6
f 31/3/1 45/2/1 32/1/1
f 45/3/1 31/2/1 46/1/1
f 47/3/2 31/2/2 32/1/2
f 31/3/2 47/2/2 48/1/2
f 49/5/3 45/5/3 46/42/3
f 45/5/3 49/5/3 50/43/3
f 49/5/4 47/5/4 50/44/4
f 47/5/4 49/5/4 48/45/4
f 47/5/5 45/5/5 50/46/5
f 45/5/5 47/5/5 32/28/5
f 31/2/6 49/3/6 46/11/6
f 49/3/6 31/2/6 48/1/6
f 53/3/1 52/2/1 51/1/1
f 52/3/1 53/2/1 54/1/1
f 45/3/2 53/2/2 51/1/2
f 53/3/2 45/2/2 46/1/2
f 55/5/3 52/5/3 54/47/3
f 52/5/3 55/5/3 56/48/3
f 55/5/4 45/5/4 56/49/4
f 45/5/4 55/5/4 46/50/4
f 45/5/5 52/5/5 56/51/5
f 52/5/5 45/5/5 51/52/5
f 53/2/6 55/3/6 54/11/6
f 55/3/6 53/2/6 46/1/6
f 49/3/1 57/2/1 50/1/1
f 57/3/1 49/2/1 58/1/1
f 59/3/2 49/2/2 50/1/2
f 49/3/2 59/2/2 60/1/2
f 61/5/3 57/5/3 58/53/3
f 57/5/3 61/5/3 62/54/3
f 61/5/4 59/5/4 62/55/4
f 59/5/4 61/5/4 60/56/4
f 59/5/5 57/5/5 62/57/5
f 57/5/5 59/5/5 50/46/5
f 49/2/6 61/3/6 58/11/6
f 61/3/6 49/2/6 60/1/6
f 65/3/1 64/2/1 63/1/1
f 64/3/1 65/2/1 66/1/1
f 67/3/2 65/2/2 63/1/2
f 65/3/2 67/2/2 68/1/2
f 69/5/3 64/5/3 66/58/3
f 64/5/3 69/5/3 70/59/3
f 69/5/4 67/5/4 70/60/4
f 67/5/4 69/5/4 68/61/4
f 67/5/5 64/5/5 70/62/5
f 64/5/5 67/5/5 63/63/5
f 65/2/6 69/3/6 66/11/6
f 69/3/6 65/2/6 68/1/6

usemtl color9

f 6/3/1 8/2/1 5/1/1
f 8/3/1 6/2/1 7/1/1
f 71/3/2 6/2/2 5/1/2
f 6/3/2 71/2/2 72/1/2
f 73/5/3 8/6/3 7/5/3
f 8/6/3 73/5/3 74/64/3
f 73/5/4 71/5/4 74/65/4
f 71/5/4 73/5/4 72/66/4
f 71/5/5 8/9/5 74/67/5
f 8/9/5 71/5/5 5/5/5
f 6/2/6 73/3/6 7/11/6
f 73/3/6 6/2/6 72/1/6
f 77/3/1 76/2/1 75/1/1
f 76/3/1 77/2/1 78/1/1
f 79/3/2 77/2/2 75/1/2
f 77/3/2 79/2/2 80/1/2
f 81/5/3 76/5/3 78/68/3
f 76/5/3 81/5/3 82/69/3
f 81/5/4 79/5/4 82/70/4
f 79/5/4 81/5/4 80/71/4
f 79/5/5 76/5/5 82/72/5
f 76/5/5 79/5/5 75/73/5
f 77/2/6 81/3/6 78/11/6
f 81/3/6 77/2/6 80/1/6
f 85/3/1 84/2/1 83/1/1
f 84/3/1 85/2/1 86/1/1
f 87/3/2 85/2/2 83/1/2
f 85/3/2 87/2/2 88/1/2
f 89/5/3 84/5/3 86/74/3
f 84/5/3 89/5/3 90/75/3
f 89/5/4 87/5/4 90/76/4
f 87/5/4 89/5/4 88/77/4
f 87/5/5 84/5/5 90/78/5
f 84/5/5 87/5/5 83/79/5
f 85/2/6 89/3/6 86/11/6
f 89/3/6 85/2/6 88/1/6
f 93/3/1 92/2/1 91/1/1
f 92/3/1 93/2/1 94/1/1
f 95/3/2 93/2/2 91/1/2
f 93/3/2 95/2/2 96/1/2
f 97/5/3 92/5/3 94/80/3
f 92/5/3 97/5/3 98/81/3
f 97/5/4 95/5/4 98/82/4
f 95/5/4 97/5/4 96/83/4
f 95/5/5 92/5/5 98/84/5
f 92/5/5 95/5/5 91/85/5
f 93/2/6 97/3/6 94/11/6
f 97/3/6 93/2/6 96/1/6
f 30/3/1 99/2/1 29/1/1
f 99/3/1 30/2/1 100/1/1
f 101/3/2 30/2/2 29/1/2
f 30/3/2 101/2/2 102/1/2
f 103/5/3 99/5/3 100/86/3
f 99/5/3 103/5/3 104/87/3
f 103/5/4 101/5/4 104/88/4
f 101/5/4 103/5/4 102/89/4
f 101/5/5 99/5/5 104/90/5
f 99/5/5 101/5/5 29/5/5
f 30/2/6 103/3/6 100/11/6
f 103/3/6 30/2/6 102/1/6
f 103/3/1 47/2/1 104/1/1
f 47/3/1 103/2/1 48/1/1
f 105/3/2 103/2/2 104/1/2
f 103/3/2 105/2/2 106/1/2
f 107/5/3 47/5/3 48/91/3
f 47/5/3 107/5/3 108/92/3
f 107/5/4 105/5/4 108/93/4
f 105/5/4 107/5/4 106/94/4
f 105/5/5 47/5/5 108/95/5
f 47/5/5 105/5/5 104/90/5
f 103/2/6 107/3/6 48/11/6
f 107/3/6 103/2/6 106/1/6
f 111/3/1 110/2/1 109/1/1
f 110/3/1 111/2/1 112/1/1
f 113/3/2 111/2/2 109/1/2
f 111/3/2 113/2/2 114/1/2
f 115/5/3 110/5/3 112/96/3
f 110/5/3 115/5/3 116/97/3
f 115/5/4 113/5/4 116/98/4
f 113/5/4 115/5/4 114/99/4
f 113/5/5 110/5/5 116/100/5
f 110/5/5 113/5/5 109/101/5
f 111/2/6 115/3/6 112/11/6
f 115/3/6 111/2/6 114/1/6
f 60/3/1 117/2/1 59/1/1
f 117/3/1 60/2/1 118/1/1
f 119/3/2 60/2/2 59/1/2
f 60/3/2 119/2/2 120/1/2
f 121/5/3 117/5/3 118/102/3
f 117/5/3 121/5/3 122/103/3
f 121/5/4 119/5/4 122/104/4
f 119/5/4 121/5/4 120/105/4
f 119/5/5 117/5/5 122/106/5
f 117/5/5 119/5/5 59/5/5
f 60/2/6 121/3/6 118/11/6
f 121/3/6 60/2/6 120/1/6

usemtl color10

f 88/3/1 90/2/1 87/1/1
f 90/3/1 88/2/1 89/1/1
f 123/3/2 88/2/2 87/1/2
f 88/3/2 123/2/2 124/1/2
f 125/5/3 90/75/3 89/5/3
f 90/75/3 125/5/3 126/107/3
f 125/5/4 123/5/4 126/108/4
f 123/5/4 125/5/4 124/109/4
f 123/5/5 90/78/5 126/110/5
f 90/78/5 123/5/5 87/5/5
f 88/2/6 125/3/6 89/11/6
f 125/3/6 88/2/6 124/1/6
f 125/3/1 127/2/1 126/1/1
f 127/3/1 125/2/1 128/1/1
f 129/3/2 125/2/2 126/1/2
f 125/3/2 129/2/2 130/1/2
f 131/5/3 127/5/3 128/111/3
f 127/5/3 131/5/3 132/112/3
f 131/5/4 129/5/4 132/113/4
f 129/5/4 131/5/4 130/114/4
f 129/5/5 127/5/5 132/115/5
f 127/5/5 129/5/5 126/110/5
f 125/2/6 131/3/6 128/11/6
f 131/3/6 125/2/6 130/1/6
f 131/3/1 133/2/1 132/1/1
f 133/3/1 131/2/1 134/1/1
f 135/3/2 131/2/2 132/1/2
f 131/3/2 135/2/2 136/1/2
f 137/5/3 133/5/3 134/116/3
f 133/5/3 137/5/3 138/117/3
f 137/5/4 135/5/4 138/118/4
f 135/5/4 137/5/4 136/119/4
f 135/5/5 133/5/5 138/120/5
f 133/5/5 135/5/5 132/115/5
f 131/2/6 137/3/6 134/11/6
f 137/3/6 131/2/6 136/1/6
f 141/3/1 140/2/1 139/1/1
f 140/3/1 141/2/1 142/1/1
f 143/3/2 141/2/2 139/1/2
f 141/3/2 143/2/2 144/1/2
f 145/5/3 140/5/3 142/121/3
f 140/5/3 145/5/3 146/122/3
f 145/5/4 143/5/4 146/123/4
f 143/5/4 145/5/4 144/124/4
f 143/5/5 140/5/5 146/125/5
f 140/5/5 143/5/5 139/126/5
f 141/2/6 145/3/6 142/11/6
f 145/3/6 141/2/6 144/1/6
f 112/3/1 147/2/1 110/1/1
f 147/3/1 112/2/1 148/1/1
f 116/3/2 112/2/2 110/1/2
f 112/3/2 116/2/2 115/1/2
f 149/5/3 147/5/3 148/127/3
f 147/5/3 149/5/3 150/128/3
f 149/5/4 116/98/4 150/129/4
f 116/98/4 149/5/4 115/5/4
f 116/100/5 147/5/5 150/130/5
f 147/5/5 116/100/5 110/5/5
f 112/2/6 149/3/6 148/11/6
f 149/3/6 112/2/6 115/1/6
f 152/3/1 63/2/1 151/1/1
f 63/3/1 152/2/1 65/1/1
f 153/3/2 152/2/2 151/1/2
f 152/3/2 153/2/2 154/1/2
f 68/5/3 63/5/3 65/131/3
f 63/5/3 68/5/3 67/132/3
f 68/61/4 153/5/4 67/5/4
f 153/5/4 68/61/4 154/133/4
f 153/5/5 63/63/5 67/5/5
f 63/63/5 153/5/5 151/134/5
f 152/2/6 68/3/6 65/11/6
f 68/3/6 152/2/6 154/1/6

usemtl color6

f 157/3/1 156/2/1 155/1/1
f 156/3/1 157/2/1 158/1/1
f 2/3/2 157/2/2 155/1/2
f 157/3/2 2/2/2 4/1/2
f 159/5/3 156/5/3 158/135/3
f 156/5/3 159/5/3 160/136/3
f 159/5/4 2/5/4 160/137/4
f 2/5/4 159/5/4 4/138/4
f 2/5/5 156/5/5 160/139/5
f 156/5/5 2/5/5 155/140/5
f 157/2/6 159/3/6 158/11/6
f 159/3/6 157/2/6 4/1/6
f 163/3/1 162/2/1 161/1/1
f 162/3/1 163/2/1 164/1/1
f 156/3/2 163/2/2 161/1/2
f 163/3/2 156/2/2 158/1/2
f 165/5/3 162/5/3 164/141/3
f 162/5/3 165/5/3 166/142/3
f 165/5/4 156/5/4 166/143/4
f 156/5/4 165/5/4 158/144/4
f 156/5/5 162/5/5 166/145/5
f 162/5/5 156/5/5 161/146/5
f 163/2/6 165/3/6 164/11/6
f 165/3/6 163/2/6 158/1/6
f 169/3/1 168/2/1 167/1/1
f 168/3/1 169/2/1 170/1/1
f 171/3/2 169/2/2 167/1/2
f 169/3/2 171/2/2 172/1/2
f 173/5/3 168/5/3 170/147/3
f 168/5/3 173/5/3 174/148/3
f 173/5/4 171/5/4 174/149/4
f 171/5/4 173/5/4 172/150/4
f 171/5/5 168/5/5 174/151/5
f 168/5/5 171/5/5 167/152/5
f 169/2/6 173/3/6 170/11/6
f 173/3/6 169/2/6 172/1/6
f 37/3/1 175/2/1 38/1/1
f 175/3/1 37/2/1 176/1/1
f 177/3/2 37/2/2 38/1/2
f 37/3/2 177/2/2 178/1/2
f 179/5/3 175/5/3 176/153/3
f 175/5/3 179/5/3 180/154/3
f 179/5/4 177/5/4 180/155/4
f 177/5/4 179/5/4 178/156/4
f 177/5/5 175/5/5 180/157/5
f 175/5/5 177/5/5 38/34/5
f 37/2/6 179/3/6 176/11/6
f 179/3/6 37/2/6 178/1/6
f 183/3/1 182/2/1 181/1/1
f 182/3/1 183/2/1 184/1/1
f 147/3/2 183/2/2 181/1/2
f 183/3/2 147/2/2 148/1/2
f 185/5/3 182/5/3 184/158/3
f 182/5/3 185/5/3 186/159/3
f 185/5/4 147/5/4 186/160/4
f 147/5/4 185/5/4 148/161/4
f 147/5/5 182/5/5 186/162/5
f 182/5/5 147/5/5 181/163/5
f 183/2/6 185/3/6 184/11/6
f 185/3/6 183/2/6 148/1/6
f 179/3/1 187/2/1 180/1/1
f 187/3/1 179/2/1 188/1/1
f 189/3/2 179/2/2 180/1/2
f 179/3/2 189/2/2 190/1/2
f 191/5/3 187/5/3 188/164/3
f 187/5/3 191/5/3 192/165/3
f 191/5/4 189/5/4 192/166/4
f 189/5/4 191/5/4 190/167/4
f 189/5/5 187/5/5 192/168/5
f 187/5/5 189/5/5 180/157/5
f 179/2/6 191/3/6 188/11/6
f 191/3/6 179/2/6 190/1/6
f 195/3/1 194/2/1 193/1/1
f 194/3/1 195/2/1 196/1/1
f 182/3/2 195/2/2 193/1/2
f 195/3/2 182/2/2 184/1/2
f 197/5/3 194/5/3 196/169/3
f 194/5/3 197/5/3 198/170/3
f 197/5/4 182/5/4 198/171/4
f 182/5/4 197/5/4 184/172/4
f 182/5/5 194/5/5 198/173/5
f 194/5/5 182/5/5 193/174/5
f 195/2/6 197/3/6 196/11/6
f 197/3/6 195/2/6 184/1/6
f 201/3/1 200/2/1 199/1/1
f 200/3/1 201/2/1 202/1/1
f 64/3/2 201/2/2 199/1/2
f 201/3/2 64/2/2 66/1/2
f 203/5/3 200/5/3 202/175/3
f 200/5/3 203/5/3 204/176/3
f 203/5/4 64/5/4 204/177/4
f 64/5/4 203/5/4 66/178/4
f 64/5/5 200/5/5 204/179/5
f 200/5/5 64/5/5 199/180/5
f 201/2/6 203/3/6 202/11/6
f 203/3/6 201/2/6 66/1/6

usemtl color11

f 206/3/1 21/2/1 205/1/1
f 21/3/1 206/2/1 22/1/1
f 207/3/2 206/2/2 205/1/2
f 206/3/2 207/2/2 208/1/2
f 209/5/3 21/5/3 22/181/3
f 21/5/3 209/5/3 210/182/3
f 209/5/4 207/5/4 210/183/4
f 207/5/4 209/5/4 208/184/4
f 207/5/5 21/5/5 210/185/5
f 21/5/5 207/5/5 205/186/5
f 206/2/6 209/3/6 22/11/6
f 209/3/6 206/2/6 208/1/6
f 102/3/1 104/2/1 101/1/1
f 104/3/1 102/2/1 103/1/1
f 211/3/2 102/2/2 101/1/2
f 102/3/2 211/2/2 212/1/2
f 106/5/3 104/87/3 103/5/3
f 104/87/3 106/5/3 105/187/3
f 106/94/4 211/5/4 105/5/4
f 211/5/4 106/94/4 212/188/4
f 211/5/5 104/90/5 105/5/5
f 104/90/5 211/5/5 101/5/5
f 102/2/6 106/3/6 103/11/6
f 106/3/6 102/2/6 212/1/6
f 107/3/1 59/2/1 108/1/1
f 59/3/1 107/2/1 60/1/1
f 213/3/2 107/2/2 108/1/2
f 107/3/2 213/2/2 214/1/2
f 120/5/3 59/5/3 60/189/3
f 59/5/3 120/5/3 119/190/3
f 120/105/4 213/5/4 119/5/4
f 213/5/4 120/105/4 214/191/4
f 213/5/5 59/5/5 119/5/5
f 59/5/5 213/5/5 108/95/5
f 107/2/6 120/3/6 60/11/6
f 120/3/6 107/2/6 214/1/6

usemtl color5

f 208/3/1 210/2/1 207/1/1
f 210/3/1 208/2/1 209/1/1
f 215/3/2 208/2/2 207/1/2
f 208/3/2 215/2/2 216/1/2
f 217/5/3 210/182/3 209/5/3
f 210/182/3 217/5/3 218/192/3
f 217/5/4 215/5/4 218/193/4
f 215/5/4 217/5/4 216/194/4
f 215/5/5 210/185/5 218/195/5
f 210/185/5 215/5/5 207/5/5
f 208/2/6 217/3/6 209/11/6
f 217/3/6 208/2/6 216/1/6
f 220/3/1 39/2/1 219/1/1
f 39/3/1 220/2/1 41/1/1
f 221/3/2 220/2/2 219/1/2
f 220/3/2 221/2/2 222/1/2
f 28/24/3 39/5/3 41/196/3
f 39/5/3 28/24/3 26/5/3
f 28/39/4 221/5/4 26/5/4
f 221/5/4 28/39/4 222/197/4
f 221/5/5 39/41/5 26/5/5
f 39/41/5 221/5/5 219/198/5
f 220/2/6 28/3/6 41/11/6
f 28/3/6 220/2/6 222/1/6
f 106/3/1 108/2/1 105/1/1
f 108/3/1 106/2/1 107/1/1
f 223/3/2 106/2/2 105/1/2
f 106/3/2 223/2/2 224/1/2
f 214/5/3 108/92/3 107/5/3
f 108/92/3 214/5/3 213/199/3
f 214/191/4 223/5/4 213/5/4
f 223/5/4 214/191/4 224/200/4
f 223/5/5 108/95/5 213/5/5
f 108/95/5 223/5/5 105/5/5
f 106/2/6 214/3/6 107/11/6
f 214/3/6 106/2/6 224/1/6
f 227/3/1 226/2/1 225/1/1
f 226/3/1 227/2/1 228/1/1
f 229/3/2 227/2/2 225/1/2
f 227/3/2 229/2/2 230/1/2
f 231/5/3 226/5/3 228/201/3
f 226/5/3 231/5/3 232/202/3
f 231/5/4 229/5/4 232/203/4
f 229/5/4 231/5/4 230/204/4
f 229/5/5 226/5/5 232/205/5
f 226/5/5 229/5/5 225/206/5
f 227/2/6 231/3/6 228/11/6
f 231/3/6 227/2/6 230/1/6
f 234/3/1 56/2/1 233/1/1
f 56/3/1 234/2/1 55/1/1
f 235/3/2 234/2/2 233/1/2
f 234/3/2 235/2/2 236/1/2
f 58/53/3 56/48/3 55/5/3
f 56/48/3 58/53/3 57/5/3
f 58/5/4 235/5/4 57/207/4
f 235/5/4 58/5/4 236/208/4
f 235/5/5 56/51/5 57/5/5
f 56/51/5 235/5/5 233/209/5
f 234/2/6 58/3/6 55/11/6
f 58/3/6 234/2/6 236/1/6
f 239/3/1 238/2/1 237/1/1
f 238/3/1 239/2/1 240/1/1
f 241/3/2 239/2/2 237/1/2
f 239/3/2 241/2/2 242/1/2
f 243/5/3 238/5/3 240/210/3
f 238/5/3 243/5/3 244/211/3
f 243/5/4 241/5/4 244/212/4
f 241/5/4 243/5/4 242/213/4
f 241/5/5 238/5/5 244/214/5
f 238/5/5 241/5/5 237/215/5
f 239/2/6 243/3/6 240/11/6
f 243/3/6 239/2/6 242/1/6
f 231/3/1 245/2/1 232/1/1
f 245/3/1 231/2/1 246/1/1
f 247/3/2 231/2/2 232/1/2
f 231/3/2 247/2/2 248/1/2
f 249/5/3 245/5/3 246/216/3
f 245/5/3 249/5/3 250/217/3
f 249/5/4 247/5/4 250/218/4
f 247/5/4 249/5/4 248/219/4
f 247/5/5 245/5/5 250/220/5
f 245/5/5 247/5/5 232/205/5
f 231/2/6 249/3/6 246/11/6
f 249/3/6 231/2/6 248/1/6
f 190/3/1 192/2/1 189/1/1
f 192/3/1 190/2/1 191/1/1
f 193/3/2 190/2/2 189/1/2
f 190/3/2 193/2/2 195/1/2
f 196/169/3 192/165/3 191/5/3
f 192/165/3 196/169/3 194/5/3
f 196/5/4 193/5/4 194/221/4
f 193/5/4 196/5/4 195/222/4
f 193/174/5 192/168/5 194/5/5
f 192/168/5 193/174/5 189/5/5
f 190/2/6 196/3/6 191/11/6
f 196/3/6 190/2/6 195/1/6
f 253/3/1 252/2/1 251/1/1
f 252/3/1 253/2/1 254/1/1
f 238/3/2 253/2/2 251/1/2
f 253/3/2 238/2/2 240/1/2
f 255/5/3 252/5/3 254/223/3
f 252/5/3 255/5/3 256/224/3
f 255/5/4 238/5/4 256/225/4
f 238/5/4 255/5/4 240/226/4
f 238/5/5 252/5/5 256/227/5
f 252/5/5 238/5/5 251/228/5
f 253/2/6 255/3/6 254/11/6
f 255/3/6 253/2/6 240/1/6

usemtl color12

f 216/3/1 218/2/1 215/1/1
f 218/3/1 216/2/1 217/1/1
f 257/3/2 216/2/2 215/1/2
f 216/3/2 257/2/2 258/1/2
f 259/5/3 218/192/3 217/5/3
f 218/192/3 259/5/3 260/229/3
f 259/5/4 257/5/4 260/230/4
f 257/5/4 259/5/4 258/231/4
f 257/5/5 218/195/5 260/232/5
f 218/195/5 257/5/5 215/5/5
f 216/2/6 259/3/6 217/11/6
f 259/3/6 216/2/6 258/1/6
f 259/3/1 261/2/1 260/1/1
f 261/3/1 259/2/1 262/1/1
f 263/3/2 259/2/2 260/1/2
f 259/3/2 263/2/2 264/1/2
f 111/5/3 261/5/3 262/233/3
f 261/5/3 111/5/3 109/234/3
f 111/5/4 263/5/4 109/235/4
f 263/5/4 111/5/4 264/236/4
f 263/5/5 261/5/5 109/101/5
f 261/5/5 263/5/5 260/232/5
f 259/2/6 111/3/6 262/11/6
f 111/3/6 259/2/6 264/1/6

usemtl color3

f 267/3/1 266/2/1 265/1/1
f 266/3/1 267/2/1 268/1/1
f 10/3/2 267/2/2 265/1/2
f 267/3/2 10/2/2 12/1/2
f 269/5/3 266/5/3 268/237/3
f 266/5/3 269/5/3 270/238/3
f 269/5/4 10/5/4 270/239/4
f 10/5/4 269/5/4 12/240/4
f 10/5/5 266/5/5 270/241/5
f 266/5/5 10/5/5 265/242/5
f 267/2/6 269/3/6 268/11/6
f 269/3/6 267/2/6 12/1/6
f 97/3/1 271/2/1 98/1/1
f 271/3/1 97/2/1 272/1/1
f 273/3/2 97/2/2 98/1/2
f 97/3/2 273/2/2 274/1/2
f 275/5/3 271/5/3 272/243/3
f 271/5/3 275/5/3 276/244/3
f 275/5/4 273/5/4 276/245/4
f 273/5/4 275/5/4 274/246/4
f 273/5/5 271/5/5 276/247/5
f 271/5/5 273/5/5 98/84/5
f 97/2/6 275/3/6 272/11/6
f 275/3/6 97/2/6 274/1/6
f 279/3/1 278/2/1 277/1/1
f 278/3/1 279/2/1 280/1/1
f 281/3/2 279/2/2 277/1/2
f 279/3/2 281/2/2 282/1/2
f 283/5/3 278/5/3 280/248/3
f 278/5/3 283/5/3 284/249/3
f 283/5/4 281/5/4 284/250/4
f 281/5/4 283/5/4 282/251/4
f 281/5/5 278/5/5 284/252/5
f 278/5/5 281/5/5 277/253/5
f 279/2/6 283/3/6 280/11/6
f 283/3/6 279/2/6 282/1/6

usemtl color8

f 287/3/1 286/2/1 285/1/1
f 286/3/1 287/2/1 288/1/1
f 289/3/2 287/2/2 285/1/2
f 287/3/2 289/2/2 290/1/2
f 291/5/3 286/5/3 288/254/3
f 286/5/3 291/5/3 292/255/3
f 291/5/4 289/5/4 292/256/4
f 289/5/4 291/5/4 290/257/4
f 289/5/5 286/5/5 292/258/5
f 286/5/5 289/5/5 285/259/5
f 287/2/6 291/3/6 288/11/6
f 291/3/6 287/2/6 290/1/6
f 295/3/1 294/2/1 293/1/1
f 294/3/1 295/2/1 296/1/1
f 286/3/2 295/2/2 293/1/2
f 295/3/2 286/2/2 288/1/2
f 297/5/3 294/5/3 296/260/3
f 294/5/3 297/5/3 298/261/3
f 297/5/4 286/5/4 298/262/4
f 286/5/4 297/5/4 288/263/4
f 286/5/5 294/5/5 298/264/5
f 294/5/5 286/5/5 293/265/5
f 295/2/6 297/3/6 296/11/6
f 297/3/6 295/2/6 288/1/6
f 291/3/1 299/2/1 292/1/1
f 299/3/1 291/2/1 300/1/1
f 301/3/2 291/2/2 292/1/2
f 291/3/2 301/2/2 302/1/2
f 303/5/3 299/5/3 300/266/3
f 299/5/3 303/5/3 304/267/3
f 303/5/4 301/5/4 304/268/4
f 301/5/4 303/5/4 302/269/4
f 301/5/5 299/5/5 304/270/5
f 299/5/5 301/5/5 292/258/5
f 291/2/6 303/3/6 300/11/6
f 303/3/6 291/2/6 302/1/6
f 297/3/1 305/2/1 298/1/1
f 305/3/1 297/2/1 306/1/1
f 299/3/2 297/2/2 298/1/2
f 297/3/2 299/2/2 300/1/2
f 307/5/3 305/5/3 306/271/3
f 305/5/3 307/5/3 308/272/3
f 307/5/4 299/5/4 308/273/4
f 299/5/4 307/5/4 300/274/4
f 299/5/5 305/5/5 308/275/5
f 305/5/5 299/5/5 298/264/5
f 297/2/6 307/3/6 306/11/6
f 307/3/6 297/2/6 300/1/6

usemtl color4

f 311/3/1 310/2/1 309/1/1
f 310/3/1 311/2/1 312/1/1
f 313/3/2 311/2/2 309/1/2
f 311/3/2 313/2/2 314/1/2
f 315/5/3 310/5/3 312/276/3
f 310/5/3 315/5/3 316/277/3
f 315/5/4 313/5/4 316/278/4
f 313/5/4 315/5/4 314/279/4
f 313/5/5 310/5/5 316/280/5
f 310/5/5 313/5/5 309/281/5
f 311/2/6 315/3/6 312/11/6
f 315/3/6 311/2/6 314/1/6
f 315/3/1 317/2/1 316/1/1
f 317/3/1 315/2/1 318/1/1
f 319/3/2 315/2/2 316/1/2
f 315/3/2 319/2/2 320/1/2
f 321/5/3 317/5/3 318/282/3
f 317/5/3 321/5/3 322/283/3
f 321/5/4 319/5/4 322/284/4
f 319/5/4 321/5/4 320/285/4
f 319/5/5 317/5/5 322/286/5
f 317/5/5 319/5/5 316/280/5
f 315/2/6 321/3/6 318/11/6
f 321/3/6 315/2/6 320/1/6
f 325/3/1 324/2/1 323/1/1
f 324/3/1 325/2/1 326/1/1
f 200/3/2 325/2/2 323/1/2
f 325/3/2 200/2/2 202/1/2
f 327/5/3 324/5/3 326/287/3
f 324/5/3 327/5/3 328/288/3
f 327/5/4 200/5/4 328/289/4
f 200/5/4 327/5/4 202/290/4
f 200/5/5 324/5/5 328/291/5
f 324/5/5 200/5/5 323/292/5
f 325/2/6 327/3/6 326/11/6
f 327/3/6 325/2/6 202/1/6

usemtl color2

f 321/3/1 329/2/1 322/1/1
f 329/3/1 321/2/1 330/1/1
f 331/3/2 321/2/2 322/1/2
f 321/3/2 331/2/2 332/1/2
f 333/5/3 329/5/3 330/293/3
f 329/5/3 333/5/3 334/294/3
f 333/5/4 331/5/4 334/295/4
f 331/5/4 333/5/4 332/296/4
f 331/5/5 329/5/5 334/297/5
f 329/5/5 331/5/5 322/286/5
f 321/2/6 333/3/6 330/11/6
f 333/3/6 321/2/6 332/1/6
f 337/3/1 336/2/1 335/1/1
f 336/3/1 337/2/1 338/1/1
f 323/3/2 337/2/2 335/1/2
f 337/3/2 323/2/2 325/1/2
f 326/287/3 336/5/3 338/298/3
f 336/5/3 326/287/3 324/5/3
f 326/5/4 323/5/4 324/299/4
f 323/5/4 326/5/4 325/300/4
f 323/292/5 336/5/5 324/5/5
f 336/5/5 323/292/5 335/301/5
f 337/2/6 326/3/6 338/11/6
f 326/3/6 337/2/6 325/1/6

