# Created by Kenney (www.kenney.nl)

mtllib Grenade RNZ Hooppler.mtl

v 4 4 -1.6
v 4 3 -1.6
v 4 4 1.6
v 4 3 1.6
v 3 4 -1.6
v 3 4 1.6
v 3 3 1.6
v 3 3 -1.6
v -2 4 -1.6
v -2 3 -1.6
v -2 4 1.6
v -2 3 1.6
v -3 4 -1.6
v -3 4 1.6
v -3 3 1.6
v -3 3 -1.6
v 5 3 -1.6
v 5 2 -1.6
v 5 3 1.6
v 5 2 1.6
v 4 2 1.6
v 4 2 -1.6
v -3 2 -1.6
v -3 2 1.6
v -4 3 -1.6
v -4 3 1.6
v -4 2 1.6
v -4 2 -1.6
v 5 -2 -1.6
v 5 -3 -1.6
v 5 -2 1.6
v 5 -3 1.6
v 4 -2 -1.6
v 4 -2 1.6
v 4 -3 1.6
v 4 -3 -1.6
v -3 -2 -1.6
v -3 -3 -1.6
v -3 -2 1.6
v -3 -3 1.6
v -4 -2 -1.6
v -4 -2 1.6
v -4 -3 1.6
v -4 -3 -1.6
v 4 -4 -1.6
v 4 -4 1.6
v 3 -3 -1.6
v 3 -3 1.6
v 3 -4 1.6
v 3 -4 -1.6
v -2 -3 -1.6
v -2 -4 -1.6
v -2 -3 1.6
v -2 -4 1.6
v -3 -4 1.6
v -3 -4 -1.6
v 1 4 -1.6
v 1 4 1.6
v 1 3 1.6
v 1 3 -1.6
v 0 4 -1.6
v 0 3 -1.6
v 0 4 1.6
v 0 3 1.6
v 1 -3 -1.6
v 1 -3 1.6
v 1 -4 1.6
v 1 -4 -1.6
v 0 -3 -1.6
v 0 -4 -1.6
v 0 -3 1.6
v 0 -4 1.6
v 3 2 -1.6
v 3 1 -1.6
v 3 2 1.6
v 3 1 1.6
v 2 2 -1.6
v 2 2 1.6
v 2 1 1.6
v 2 1 -1.6
v 1 2 -1.6
v 1 1 -1.6
v 1 2 1.6
v 1 1 1.6
v 0 2 -1.6
v 0 2 1.6
v 0 1 1.6
v 0 1 -1.6
v -1 2 -1.6
v -1 1 -1.6
v -1 2 1.6
v -1 1 1.6
v -2 2 -1.6
v -2 2 1.6
v -2 1 1.6
v -2 1 -1.6
v 3 -1 -1.6
v 3 -2 -1.6
v 3 -1 1.6
v 3 -2 1.6
v 2 -1 -1.6
v 2 -1 1.6
v 2 -2 1.6
v 2 -2 -1.6
v 1 -1 -1.6
v 1 -2 -1.6
v 1 -1 1.6
v 1 -2 1.6
v 0 -1 -1.6
v 0 -1 1.6
v 0 -2 1.6
v 0 -2 -1.6
v -1 -1 -1.6
v -1 -2 -1.6
v -1 -1 1.6
v -1 -2 1.6
v -2 -1 -1.6
v -2 -1 1.6
v -2 -2 1.6
v -2 -2 -1.6
v 4 3 -2
v 4 2 -2
v 4 3 2
v 4 2 2
v 3 3 -2
v 3 3 2
v 3 2 2
v 3 2 -2
v 1 3 -2
v 1 2 -2
v 1 3 2
v 1 2 2
v 0 3 -2
v 0 3 2
v 0 2 2
v 0 2 -2
v -2 3 -2
v -2 2 -2
v -2 3 2
v -2 2 2
v -3 3 -2
v -3 3 2
v -3 2 2
v -3 2 -2
v 4 -2 -2
v 4 -3 -2
v 4 -2 2
v 4 -3 2
v 3 -2 -2
v 3 -2 2
v 3 -3 2
v 3 -3 -2
v 1 -2 -2
v 1 -3 -2
v 1 -2 2
v 1 -3 2
v 0 -2 -2
v 0 -2 2
v 0 -3 2
v 0 -3 -2
v -2 -2 -2
v -2 -3 -2
v -2 -2 2
v -2 -3 2
v -3 -2 -2
v -3 -2 2
v -3 -3 2
v -3 -3 -2
v 2 3 -2
v 2 3 2
v 2 2 2
v 2 2 -2
v -1 3 -2
v -1 3 2
v -1 2 2
v -1 2 -2
v 2 -2 -2
v 2 -2 2
v 2 -3 2
v 2 -3 -2
v -1 -2 -2
v -1 -2 2
v -1 -3 2
v -1 -3 -2
v 5 2 -0.8
v 5 1 -0.8
v 5 2 0.8
v 5 1 0.8
v 4 2 -0.8
v 4 2 0.8
v 4 1 0.8
v 4 1 -0.8
v -3 2 -0.8
v -3 1 -0.8
v -3 2 0.8
v -3 1 0.8
v -4 2 -0.8
v -4 2 0.8
v -4 1 0.8
v -4 1 -0.8
v 5 -1 -0.8
v 5 -2 -0.8
v 5 -1 0.8
v 5 -2 0.8
v 4 -1 -0.8
v 4 -1 0.8
v 4 -2 0.8
v 4 -2 -0.8
v -3 -1 -0.8
v -3 -2 -0.8
v -3 -1 0.8
v -3 -2 0.8
v -4 -1 -0.8
v -4 -1 0.8
v -4 -2 0.8
v -4 -2 -0.8
v 4 1 -1.6
v 4 1 1.6
v -3 1 1.6
v -3 1 -1.6
v 5 1 -1.2
v 5 -1 -1.2
v 5 1 1.2
v 5 -1 1.2
v 4 1 -1.2
v 4 1 1.2
v 4 -1 1.2
v 4 -1 -1.2
v -3 1 -1.2
v -3 -1 -1.2
v -3 1 1.2
v -3 -1 1.2
v -4 1 -1.2
v -4 1 1.2
v -4 -1 1.2
v -4 -1 -1.2
v 4 -1 -1.6
v 4 -1 1.6
v -3 -1 -1.6
v -3 -1 1.6
v 3 1 -1.2
v 3 -1 -1.2
v 3 1 1.2
v 3 -1 1.2
v 2 1 -1.2
v 2 1 1.2
v 2 -1 1.2
v 2 -1 -1.2
v 1 1 -1.2
v 1 -1 -1.2
v 1 1 1.2
v 1 -1 1.2
v 0 1 -1.2
v 0 1 1.2
v 0 -1 1.2
v 0 -1 -1.2
v -1 1 -1.2
v -1 -1 -1.2
v -1 1 1.2
v -1 -1 1.2
v -2 1 -1.2
v -2 1 1.2
v -2 -1 1.2
v -2 -1 -1.2

vn 1 0 0
vn 0 1 0
vn 0 -1 0
vn -1 0 0
vn 0 0 -1
vn 0 0 1

vt -19.68504 19.68504
vt 19.68504 19.68504
vt -19.68504 -19.68504
vt 0 NaN
vt 0 0
vt 0 NaN
vt 0 NaN
vt 0 NaN
vt 0 NaN
vt 0 NaN
vt 19.68504 -19.68504
vt 0 NaN
vt 0 NaN
vt 0 NaN
vt 0 NaN
vt 0 NaN
vt 0 NaN
vt 0 NaN
vt 0 NaN
vt 0 NaN
vt 0 NaN
vt 0 NaN
vt 0 NaN
vt 0 NaN
vt 0 NaN
vt 0 NaN
vt 0 NaN
vt 0 NaN
vt 0 NaN
vt 0 NaN
vt 0 NaN
vt 0 NaN
vt 0 NaN
vt 0 NaN
vt 0 NaN
vt 0 NaN
vt 0 NaN
vt 0 NaN
vt 0 NaN
vt 0 NaN
vt 0 NaN
vt 0 NaN
vt 0 NaN
vt 0 NaN
vt 0 NaN
vt 0 NaN
vt 0 NaN
vt 0 NaN
vt 0 NaN
vt 0 NaN
vt 0 NaN
vt 0 NaN
vt 0 NaN
vt 0 NaN
vt 0 NaN
vt 0 NaN
vt 0 NaN
vt 0 NaN
vt 0 NaN
vt 0 NaN
vt 0 NaN
vt 0 NaN
vt 0 NaN
vt 0 NaN
vt 0 NaN
vt 0 NaN
vt 0 NaN
vt 0 NaN
vt 0 NaN
vt 0 NaN
vt 0 NaN
vt 0 NaN
vt 0 NaN
vt 0 NaN
vt 0 NaN
vt 0 NaN
vt 0 NaN
vt 0 NaN
vt 0 NaN
vt 0 NaN
vt 0 NaN
vt 0 NaN
vt 0 NaN
vt 0 NaN
vt 0 NaN
vt 0 NaN
vt 0 NaN
vt 0 NaN
vt 0 NaN
vt 0 NaN
vt 0 NaN
vt 0 NaN
vt 0 NaN
vt 0 NaN
vt 0 NaN
vt 0 NaN
vt 0 NaN
vt 0 NaN
vt 0 NaN
vt 0 NaN
vt 0 NaN
vt 0 NaN
vt 0 NaN
vt 0 NaN
vt 0 NaN
vt 0 NaN
vt 0 NaN
vt 0 NaN
vt 0 NaN
vt 0 NaN
vt 0 NaN
vt 0 NaN
vt 0 NaN
vt 0 NaN
vt 0 NaN
vt 0 NaN
vt 0 NaN
vt 0 NaN
vt 0 NaN
vt 0 NaN
vt 0 NaN
vt 0 NaN
vt 0 NaN
vt 0 NaN
vt 0 NaN
vt 0 NaN
vt 0 NaN
vt 0 NaN
vt 0 NaN
vt 0 NaN
vt 0 NaN
vt 0 NaN
vt 0 NaN
vt 0 NaN
vt 0 NaN
vt 0 NaN
vt 0 NaN
vt 0 NaN
vt 0 NaN
vt 0 NaN
vt 0 NaN
vt 0 NaN
vt 0 NaN
vt 0 NaN
vt 0 NaN
vt 0 NaN
vt 0 NaN
vt 0 NaN
vt 0 NaN
vt 0 NaN
vt 0 NaN
vt 0 NaN
vt 0 NaN
vt 0 NaN
vt 0 NaN
vt 0 NaN
vt 0 NaN
vt 0 NaN
vt 0 NaN
vt 0 NaN
vt 0 NaN
vt 0 NaN
vt 0 NaN
vt 0 NaN
vt 0 NaN
vt 0 NaN
vt 0 NaN
vt 0 NaN
vt 0 NaN
vt 0 NaN
vt 0 NaN
vt 0 NaN
vt 0 NaN
vt 0 NaN
vt 0 NaN
vt 0 NaN
vt 0 NaN
vt 0 NaN
vt 0 NaN
vt 0 NaN
vt 0 NaN
vt 0 NaN
vt 0 NaN
vt 0 NaN
vt 0 NaN
vt 0 NaN
vt 0 NaN
vt 0 NaN
vt 0 NaN
vt 0 NaN
vt 0 NaN
vt 0 NaN
vt 0 NaN
vt 0 NaN
vt 0 NaN
vt 0 NaN
vt 0 NaN
vt 0 NaN
vt 0 NaN
vt 0 NaN
vt 0 NaN
vt 0 NaN
vt 0 NaN
vt 0 NaN
vt 0 NaN
vt 0 NaN
vt 0 NaN
vt 0 NaN
vt 0 NaN
vt 0 NaN
vt 0 NaN
vt 0 NaN
vt 0 NaN
vt 0 NaN
vt 0 NaN
vt 0 NaN
vt 0 NaN
vt 0 NaN
vt 0 NaN
vt 0 NaN
vt 0 NaN
vt 0 NaN
vt 0 NaN
vt 0 NaN
vt 0 NaN
vt 0 NaN
vt 0 NaN
vt 0 NaN
vt 0 NaN
vt 0 NaN
vt 0 NaN
vt 0 NaN
vt 0 NaN
vt 0 NaN
vt 0 NaN
vt 0 NaN
vt 0 NaN
vt 0 NaN
vt 0 NaN
vt 0 NaN
vt 0 NaN
vt 0 NaN
vt 0 NaN
vt 0 NaN
vt 0 NaN
vt 0 NaN
vt 0 NaN
vt 0 NaN
vt 0 NaN
vt 0 NaN
vt 0 NaN

usemtl color2

f 3/3/1 2/2/1 1/1/1
f 2/3/1 3/2/1 4/1/1
f 5/3/2 3/2/2 1/1/2
f 3/3/2 5/2/2 6/1/2
f 7/5/3 2/5/3 4/4/3
f 2/5/3 7/5/3 8/6/3
f 7/5/4 5/5/4 8/7/4
f 5/5/4 7/5/4 6/8/4
f 5/5/5 2/5/5 8/9/5
f 2/5/5 5/5/5 1/10/5
f 3/2/6 7/3/6 4/11/6
f 7/3/6 3/2/6 6/1/6
f 11/3/1 10/2/1 9/1/1
f 10/3/1 11/2/1 12/1/1
f 13/3/2 11/2/2 9/1/2
f 11/3/2 13/2/2 14/1/2
f 15/5/3 10/5/3 12/12/3
f 10/5/3 15/5/3 16/13/3
f 15/5/4 13/5/4 16/14/4
f 13/5/4 15/5/4 14/15/4
f 13/5/5 10/5/5 16/16/5
f 10/5/5 13/5/5 9/17/5
f 11/2/6 15/3/6 12/11/6
f 15/3/6 11/2/6 14/1/6
f 3/3/1 2/2/1 1/1/1
f 2/3/1 3/2/1 4/1/1
f 5/3/2 3/2/2 1/1/2
f 3/3/2 5/2/2 6/1/2
f 7/5/3 2/5/3 4/4/3
f 2/5/3 7/5/3 8/6/3
f 7/5/4 5/5/4 8/7/4
f 5/5/4 7/5/4 6/8/4
f 5/5/5 2/5/5 8/9/5
f 2/5/5 5/5/5 1/10/5
f 3/2/6 7/3/6 4/11/6
f 7/3/6 3/2/6 6/1/6
f 19/3/1 18/2/1 17/1/1
f 18/3/1 19/2/1 20/1/1
f 2/3/2 19/2/2 17/1/2
f 19/3/2 2/2/2 4/1/2
f 21/5/3 18/5/3 20/18/3
f 18/5/3 21/5/3 22/19/3
f 21/5/4 2/5/4 22/20/4
f 2/5/4 21/5/4 4/21/4
f 2/5/5 18/5/5 22/22/5
f 18/5/5 2/5/5 17/23/5
f 19/2/6 21/3/6 20/11/6
f 21/3/6 19/2/6 4/1/6
f 15/3/1 23/2/1 16/1/1
f 23/3/1 15/2/1 24/1/1
f 25/3/2 15/2/2 16/1/2
f 15/3/2 25/2/2 26/1/2
f 27/5/3 23/5/3 24/24/3
f 23/5/3 27/5/3 28/25/3
f 27/5/4 25/5/4 28/26/4
f 25/5/4 27/5/4 26/27/4
f 25/5/5 23/5/5 28/28/5
f 23/5/5 25/5/5 16/16/5
f 15/2/6 27/3/6 24/11/6
f 27/3/6 15/2/6 26/1/6
f 31/3/1 30/2/1 29/1/1
f 30/3/1 31/2/1 32/1/1
f 33/3/2 31/2/2 29/1/2
f 31/3/2 33/2/2 34/1/2
f 35/5/3 30/5/3 32/29/3
f 30/5/3 35/5/3 36/30/3
f 35/5/4 33/5/4 36/31/4
f 33/5/4 35/5/4 34/32/4
f 33/5/5 30/5/5 36/33/5
f 30/5/5 33/5/5 29/34/5
f 31/2/6 35/3/6 32/11/6
f 35/3/6 31/2/6 34/1/6
f 39/3/1 38/2/1 37/1/1
f 38/3/1 39/2/1 40/1/1
f 41/3/2 39/2/2 37/1/2
f 39/3/2 41/2/2 42/1/2
f 43/5/3 38/5/3 40/35/3
f 38/5/3 43/5/3 44/36/3
f 43/5/4 41/5/4 44/37/4
f 41/5/4 43/5/4 42/38/4
f 41/5/5 38/5/5 44/39/5
f 38/5/5 41/5/5 37/40/5
f 39/2/6 43/3/6 40/11/6
f 43/3/6 39/2/6 42/1/6
f 35/3/1 45/2/1 36/1/1
f 45/3/1 35/2/1 46/1/1
f 47/3/2 35/2/2 36/1/2
f 35/3/2 47/2/2 48/1/2
f 49/5/3 45/5/3 46/41/3
f 45/5/3 49/5/3 50/42/3
f 49/5/4 47/5/4 50/43/4
f 47/5/4 49/5/4 48/44/4
f 47/5/5 45/5/5 50/45/5
f 45/5/5 47/5/5 36/33/5
f 35/2/6 49/3/6 46/11/6
f 49/3/6 35/2/6 48/1/6
f 53/3/1 52/2/1 51/1/1
f 52/3/1 53/2/1 54/1/1
f 38/3/2 53/2/2 51/1/2
f 53/3/2 38/2/2 40/1/2
f 55/5/3 52/5/3 54/46/3
f 52/5/3 55/5/3 56/47/3
f 55/5/4 38/5/4 56/48/4
f 38/5/4 55/5/4 40/49/4
f 38/5/5 52/5/5 56/50/5
f 52/5/5 38/5/5 51/51/5
f 53/2/6 55/3/6 54/11/6
f 55/3/6 53/2/6 40/1/6

usemtl color3

f 6/3/1 8/2/1 5/1/1
f 8/3/1 6/2/1 7/1/1
f 57/3/2 6/2/2 5/1/2
f 6/3/2 57/2/2 58/1/2
f 59/5/3 8/6/3 7/5/3
f 8/6/3 59/5/3 60/52/3
f 59/5/4 57/5/4 60/53/4
f 57/5/4 59/5/4 58/54/4
f 57/5/5 8/9/5 60/55/5
f 8/9/5 57/5/5 5/5/5
f 6/2/6 59/3/6 7/11/6
f 59/3/6 6/2/6 58/1/6
f 63/3/1 62/2/1 61/1/1
f 62/3/1 63/2/1 64/1/1
f 9/3/2 63/2/2 61/1/2
f 63/3/2 9/2/2 11/1/2
f 12/12/3 62/5/3 64/56/3
f 62/5/3 12/12/3 10/5/3
f 12/5/4 9/5/4 10/57/4
f 9/5/4 12/5/4 11/58/4
f 9/17/5 62/5/5 10/5/5
f 62/5/5 9/17/5 61/59/5
f 63/2/6 12/3/6 64/11/6
f 12/3/6 63/2/6 11/1/6
f 48/3/1 50/2/1 47/1/1
f 50/3/1 48/2/1 49/1/1
f 65/3/2 48/2/2 47/1/2
f 48/3/2 65/2/2 66/1/2
f 67/5/3 50/42/3 49/5/3
f 50/42/3 67/5/3 68/60/3
f 67/5/4 65/5/4 68/61/4
f 65/5/4 67/5/4 66/62/4
f 65/5/5 50/45/5 68/63/5
f 50/45/5 65/5/5 47/5/5
f 48/2/6 67/3/6 49/11/6
f 67/3/6 48/2/6 66/1/6
f 71/3/1 70/2/1 69/1/1
f 70/3/1 71/2/1 72/1/1
f 51/3/2 71/2/2 69/1/2
f 71/3/2 51/2/2 53/1/2
f 54/46/3 70/5/3 72/64/3
f 70/5/3 54/46/3 52/5/3
f 54/5/4 51/5/4 52/65/4
f 51/5/4 54/5/4 53/66/4
f 51/51/5 70/5/5 52/5/5
f 70/5/5 51/51/5 69/67/5
f 71/2/6 54/3/6 72/11/6
f 54/3/6 71/2/6 53/1/6

usemtl color4

f 58/3/1 60/2/1 57/1/1
f 60/3/1 58/2/1 59/1/1
f 61/3/2 58/2/2 57/1/2
f 58/3/2 61/2/2 63/1/2
f 64/56/3 60/52/3 59/5/3
f 60/52/3 64/56/3 62/5/3
f 64/5/4 61/5/4 62/68/4
f 61/5/4 64/5/4 63/69/4
f 61/59/5 60/55/5 62/5/5
f 60/55/5 61/59/5 57/5/5
f 58/2/6 64/3/6 59/11/6
f 64/3/6 58/2/6 63/1/6
f 75/3/1 74/2/1 73/1/1
f 74/3/1 75/2/1 76/1/1
f 77/3/2 75/2/2 73/1/2
f 75/3/2 77/2/2 78/1/2
f 79/5/3 74/5/3 76/70/3
f 74/5/3 79/5/3 80/71/3
f 79/5/4 77/5/4 80/72/4
f 77/5/4 79/5/4 78/73/4
f 77/5/5 74/5/5 80/74/5
f 74/5/5 77/5/5 73/75/5
f 75/2/6 79/3/6 76/11/6
f 79/3/6 75/2/6 78/1/6
f 83/3/1 82/2/1 81/1/1
f 82/3/1 83/2/1 84/1/1
f 85/3/2 83/2/2 81/1/2
f 83/3/2 85/2/2 86/1/2
f 87/5/3 82/5/3 84/76/3
f 82/5/3 87/5/3 88/77/3
f 87/5/4 85/5/4 88/78/4
f 85/5/4 87/5/4 86/79/4
f 85/5/5 82/5/5 88/80/5
f 82/5/5 85/5/5 81/81/5
f 83/2/6 87/3/6 84/11/6
f 87/3/6 83/2/6 86/1/6
f 91/3/1 90/2/1 89/1/1
f 90/3/1 91/2/1 92/1/1
f 93/3/2 91/2/2 89/1/2
f 91/3/2 93/2/2 94/1/2
f 95/5/3 90/5/3 92/82/3
f 90/5/3 95/5/3 96/83/3
f 95/5/4 93/5/4 96/84/4
f 93/5/4 95/5/4 94/85/4
f 93/5/5 90/5/5 96/86/5
f 90/5/5 93/5/5 89/87/5
f 91/2/6 95/3/6 92/11/6
f 95/3/6 91/2/6 94/1/6
f 99/3/1 98/2/1 97/1/1
f 98/3/1 99/2/1 100/1/1
f 101/3/2 99/2/2 97/1/2
f 99/3/2 101/2/2 102/1/2
f 103/5/3 98/5/3 100/88/3
f 98/5/3 103/5/3 104/89/3
f 103/5/4 101/5/4 104/90/4
f 101/5/4 103/5/4 102/91/4
f 101/5/5 98/5/5 104/92/5
f 98/5/5 101/5/5 97/93/5
f 99/2/6 103/3/6 100/11/6
f 103/3/6 99/2/6 102/1/6
f 107/3/1 106/2/1 105/1/1
f 106/3/1 107/2/1 108/1/1
f 109/3/2 107/2/2 105/1/2
f 107/3/2 109/2/2 110/1/2
f 111/5/3 106/5/3 108/94/3
f 106/5/3 111/5/3 112/95/3
f 111/5/4 109/5/4 112/96/4
f 109/5/4 111/5/4 110/97/4
f 109/5/5 106/5/5 112/98/5
f 106/5/5 109/5/5 105/99/5
f 107/2/6 111/3/6 108/11/6
f 111/3/6 107/2/6 110/1/6
f 115/3/1 114/2/1 113/1/1
f 114/3/1 115/2/1 116/1/1
f 117/3/2 115/2/2 113/1/2
f 115/3/2 117/2/2 118/1/2
f 119/5/3 114/5/3 116/100/3
f 114/5/3 119/5/3 120/101/3
f 119/5/4 117/5/4 120/102/4
f 117/5/4 119/5/4 118/103/4
f 117/5/5 114/5/5 120/104/5
f 114/5/5 117/5/5 113/105/5
f 115/2/6 119/3/6 116/11/6
f 119/3/6 115/2/6 118/1/6
f 66/3/1 68/2/1 65/1/1
f 68/3/1 66/2/1 67/1/1
f 69/3/2 66/2/2 65/1/2
f 66/3/2 69/2/2 71/1/2
f 72/64/3 68/60/3 67/5/3
f 68/60/3 72/64/3 70/5/3
f 72/5/4 69/5/4 70/106/4
f 69/5/4 72/5/4 71/107/4
f 69/67/5 68/63/5 70/5/5
f 68/63/5 69/67/5 65/5/5
f 66/2/6 72/3/6 67/11/6
f 72/3/6 66/2/6 71/1/6

usemtl color5

f 123/3/1 122/2/1 121/1/1
f 122/3/1 123/2/1 124/1/1
f 125/3/2 123/2/2 121/1/2
f 123/3/2 125/2/2 126/1/2
f 127/5/3 122/5/3 124/108/3
f 122/5/3 127/5/3 128/109/3
f 127/5/4 125/5/4 128/110/4
f 125/5/4 127/5/4 126/111/4
f 125/5/5 122/5/5 128/112/5
f 122/5/5 125/5/5 121/113/5
f 123/2/6 127/3/6 124/11/6
f 127/3/6 123/2/6 126/1/6
f 131/3/1 130/2/1 129/1/1
f 130/3/1 131/2/1 132/1/1
f 133/3/2 131/2/2 129/1/2
f 131/3/2 133/2/2 134/1/2
f 135/5/3 130/5/3 132/114/3
f 130/5/3 135/5/3 136/115/3
f 135/5/4 133/5/4 136/116/4
f 133/5/4 135/5/4 134/117/4
f 133/5/5 130/5/5 136/118/5
f 130/5/5 133/5/5 129/119/5
f 131/2/6 135/3/6 132/11/6
f 135/3/6 131/2/6 134/1/6
f 139/3/1 138/2/1 137/1/1
f 138/3/1 139/2/1 140/1/1
f 141/3/2 139/2/2 137/1/2
f 139/3/2 141/2/2 142/1/2
f 143/5/3 138/5/3 140/120/3
f 138/5/3 143/5/3 144/121/3
f 143/5/4 141/5/4 144/122/4
f 141/5/4 143/5/4 142/123/4
f 141/5/5 138/5/5 144/124/5
f 138/5/5 141/5/5 137/125/5
f 139/2/6 143/3/6 140/11/6
f 143/3/6 139/2/6 142/1/6
f 147/3/1 146/2/1 145/1/1
f 146/3/1 147/2/1 148/1/1
f 149/3/2 147/2/2 145/1/2
f 147/3/2 149/2/2 150/1/2
f 151/5/3 146/5/3 148/126/3
f 146/5/3 151/5/3 152/127/3
f 151/5/4 149/5/4 152/128/4
f 149/5/4 151/5/4 150/129/4
f 149/5/5 146/5/5 152/130/5
f 146/5/5 149/5/5 145/131/5
f 147/2/6 151/3/6 148/11/6
f 151/3/6 147/2/6 150/1/6
f 155/3/1 154/2/1 153/1/1
f 154/3/1 155/2/1 156/1/1
f 157/3/2 155/2/2 153/1/2
f 155/3/2 157/2/2 158/1/2
f 159/5/3 154/5/3 156/132/3
f 154/5/3 159/5/3 160/133/3
f 159/5/4 157/5/4 160/134/4
f 157/5/4 159/5/4 158/135/4
f 157/5/5 154/5/5 160/136/5
f 154/5/5 157/5/5 153/137/5
f 155/2/6 159/3/6 156/11/6
f 159/3/6 155/2/6 158/1/6
f 163/3/1 162/2/1 161/1/1
f 162/3/1 163/2/1 164/1/1
f 165/3/2 163/2/2 161/1/2
f 163/3/2 165/2/2 166/1/2
f 167/5/3 162/5/3 164/138/3
f 162/5/3 167/5/3 168/139/3
f 167/5/4 165/5/4 168/140/4
f 165/5/4 167/5/4 166/141/4
f 165/5/5 162/5/5 168/142/5
f 162/5/5 165/5/5 161/143/5
f 163/2/6 167/3/6 164/11/6
f 167/3/6 163/2/6 166/1/6

usemtl color6

f 126/3/1 128/2/1 125/1/1
f 128/3/1 126/2/1 127/1/1
f 169/3/2 126/2/2 125/1/2
f 126/3/2 169/2/2 170/1/2
f 171/5/3 128/109/3 127/5/3
f 128/109/3 171/5/3 172/144/3
f 171/5/4 169/5/4 172/145/4
f 169/5/4 171/5/4 170/146/4
f 169/5/5 128/112/5 172/147/5
f 128/112/5 169/5/5 125/5/5
f 126/2/6 171/3/6 127/11/6
f 171/3/6 126/2/6 170/1/6
f 134/3/1 136/2/1 133/1/1
f 136/3/1 134/2/1 135/1/1
f 173/3/2 134/2/2 133/1/2
f 134/3/2 173/2/2 174/1/2
f 175/5/3 136/115/3 135/5/3
f 136/115/3 175/5/3 176/148/3
f 175/5/4 173/5/4 176/149/4
f 173/5/4 175/5/4 174/150/4
f 173/5/5 136/118/5 176/151/5
f 136/118/5 173/5/5 133/5/5
f 134/2/6 175/3/6 135/11/6
f 175/3/6 134/2/6 174/1/6
f 150/3/1 152/2/1 149/1/1
f 152/3/1 150/2/1 151/1/1
f 177/3/2 150/2/2 149/1/2
f 150/3/2 177/2/2 178/1/2
f 179/5/3 152/127/3 151/5/3
f 152/127/3 179/5/3 180/152/3
f 179/5/4 177/5/4 180/153/4
f 177/5/4 179/5/4 178/154/4
f 177/5/5 152/130/5 180/155/5
f 152/130/5 177/5/5 149/5/5
f 150/2/6 179/3/6 151/11/6
f 179/3/6 150/2/6 178/1/6
f 158/3/1 160/2/1 157/1/1
f 160/3/1 158/2/1 159/1/1
f 181/3/2 158/2/2 157/1/2
f 158/3/2 181/2/2 182/1/2
f 183/5/3 160/133/3 159/5/3
f 160/133/3 183/5/3 184/156/3
f 183/5/4 181/5/4 184/157/4
f 181/5/4 183/5/4 182/158/4
f 181/5/5 160/136/5 184/159/5
f 160/136/5 181/5/5 157/5/5
f 158/2/6 183/3/6 159/11/6
f 183/3/6 158/2/6 182/1/6

usemtl color7

f 170/3/1 172/2/1 169/1/1
f 172/3/1 170/2/1 171/1/1
f 129/3/2 170/2/2 169/1/2
f 170/3/2 129/2/2 131/1/2
f 132/114/3 172/144/3 171/5/3
f 172/144/3 132/114/3 130/5/3
f 132/5/4 129/5/4 130/160/4
f 129/5/4 132/5/4 131/161/4
f 129/119/5 172/147/5 130/5/5
f 172/147/5 129/119/5 169/5/5
f 170/2/6 132/3/6 171/11/6
f 132/3/6 170/2/6 131/1/6
f 174/3/1 176/2/1 173/1/1
f 176/3/1 174/2/1 175/1/1
f 137/3/2 174/2/2 173/1/2
f 174/3/2 137/2/2 139/1/2
f 140/120/3 176/148/3 175/5/3
f 176/148/3 140/120/3 138/5/3
f 140/5/4 137/5/4 138/162/4
f 137/5/4 140/5/4 139/163/4
f 137/125/5 176/151/5 138/5/5
f 176/151/5 137/125/5 173/5/5
f 174/2/6 140/3/6 175/11/6
f 140/3/6 174/2/6 139/1/6
f 178/3/1 180/2/1 177/1/1
f 180/3/1 178/2/1 179/1/1
f 153/3/2 178/2/2 177/1/2
f 178/3/2 153/2/2 155/1/2
f 156/132/3 180/152/3 179/5/3
f 180/152/3 156/132/3 154/5/3
f 156/5/4 153/5/4 154/164/4
f 153/5/4 156/5/4 155/165/4
f 153/137/5 180/155/5 154/5/5
f 180/155/5 153/137/5 177/5/5
f 178/2/6 156/3/6 179/11/6
f 156/3/6 178/2/6 155/1/6
f 182/3/1 184/2/1 181/1/1
f 184/3/1 182/2/1 183/1/1
f 161/3/2 182/2/2 181/1/2
f 182/3/2 161/2/2 163/1/2
f 164/138/3 184/156/3 183/5/3
f 184/156/3 164/138/3 162/5/3
f 164/5/4 161/5/4 162/166/4
f 161/5/4 164/5/4 163/167/4
f 161/143/5 184/159/5 162/5/5
f 184/159/5 161/143/5 181/5/5
f 182/2/6 164/3/6 183/11/6
f 164/3/6 182/2/6 163/1/6

usemtl color8

f 187/3/1 186/2/1 185/1/1
f 186/3/1 187/2/1 188/1/1
f 189/3/2 187/2/2 185/1/2
f 187/3/2 189/2/2 190/1/2
f 191/5/3 186/5/3 188/168/3
f 186/5/3 191/5/3 192/169/3
f 191/5/4 189/5/4 192/170/4
f 189/5/4 191/5/4 190/171/4
f 189/5/5 186/5/5 192/172/5
f 186/5/5 189/5/5 185/173/5
f 187/2/6 191/3/6 188/11/6
f 191/3/6 187/2/6 190/1/6
f 195/3/1 194/2/1 193/1/1
f 194/3/1 195/2/1 196/1/1
f 197/3/2 195/2/2 193/1/2
f 195/3/2 197/2/2 198/1/2
f 199/5/3 194/5/3 196/174/3
f 194/5/3 199/5/3 200/175/3
f 199/5/4 197/5/4 200/176/4
f 197/5/4 199/5/4 198/177/4
f 197/5/5 194/5/5 200/178/5
f 194/5/5 197/5/5 193/179/5
f 195/2/6 199/3/6 196/11/6
f 199/3/6 195/2/6 198/1/6
f 203/3/1 202/2/1 201/1/1
f 202/3/1 203/2/1 204/1/1
f 205/3/2 203/2/2 201/1/2
f 203/3/2 205/2/2 206/1/2
f 207/5/3 202/5/3 204/180/3
f 202/5/3 207/5/3 208/181/3
f 207/5/4 205/5/4 208/182/4
f 205/5/4 207/5/4 206/183/4
f 205/5/5 202/5/5 208/184/5
f 202/5/5 205/5/5 201/185/5
f 203/2/6 207/3/6 204/11/6
f 207/3/6 203/2/6 206/1/6
f 211/3/1 210/2/1 209/1/1
f 210/3/1 211/2/1 212/1/1
f 213/3/2 211/2/2 209/1/2
f 211/3/2 213/2/2 214/1/2
f 215/5/3 210/5/3 212/186/3
f 210/5/3 215/5/3 216/187/3
f 215/5/4 213/5/4 216/188/4
f 213/5/4 215/5/4 214/189/4
f 213/5/5 210/5/5 216/190/5
f 210/5/5 213/5/5 209/191/5
f 211/2/6 215/3/6 212/11/6
f 215/3/6 211/2/6 214/1/6

usemtl color9

f 21/3/1 217/2/1 22/1/1
f 217/3/1 21/2/1 218/1/1
f 73/3/2 21/2/2 22/1/2
f 21/3/2 73/2/2 75/1/2
f 76/70/3 217/5/3 218/192/3
f 217/5/3 76/70/3 74/5/3
f 76/5/4 73/5/4 74/193/4
f 73/5/4 76/5/4 75/194/4
f 73/75/5 217/5/5 74/5/5
f 217/5/5 73/75/5 22/22/5
f 21/2/6 76/3/6 218/11/6
f 76/3/6 21/2/6 75/1/6
f 78/3/1 80/2/1 77/1/1
f 80/3/1 78/2/1 79/1/1
f 81/3/2 78/2/2 77/1/2
f 78/3/2 81/2/2 83/1/2
f 84/76/3 80/71/3 79/5/3
f 80/71/3 84/76/3 82/5/3
f 84/5/4 81/5/4 82/195/4
f 81/5/4 84/5/4 83/196/4
f 81/81/5 80/74/5 82/5/5
f 80/74/5 81/81/5 77/5/5
f 78/2/6 84/3/6 79/11/6
f 84/3/6 78/2/6 83/1/6
f 86/3/1 88/2/1 85/1/1
f 88/3/1 86/2/1 87/1/1
f 89/3/2 86/2/2 85/1/2
f 86/3/2 89/2/2 91/1/2
f 92/82/3 88/77/3 87/5/3
f 88/77/3 92/82/3 90/5/3
f 92/5/4 89/5/4 90/197/4
f 89/5/4 92/5/4 91/198/4
f 89/87/5 88/80/5 90/5/5
f 88/80/5 89/87/5 85/5/5
f 86/2/6 92/3/6 87/11/6
f 92/3/6 86/2/6 91/1/6
f 94/3/1 96/2/1 93/1/1
f 96/3/1 94/2/1 95/1/1
f 23/3/2 94/2/2 93/1/2
f 94/3/2 23/2/2 24/1/2
f 219/5/3 96/83/3 95/5/3
f 96/83/3 219/5/3 220/199/3
f 219/5/4 23/5/4 220/200/4
f 23/5/4 219/5/4 24/201/4
f 23/5/5 96/86/5 220/202/5
f 96/86/5 23/5/5 93/5/5
f 94/2/6 219/3/6 95/11/6
f 219/3/6 94/2/6 24/1/6
f 223/3/1 222/2/1 221/1/1
f 222/3/1 223/2/1 224/1/1
f 225/3/2 223/2/2 221/1/2
f 223/3/2 225/2/2 226/1/2
f 227/5/3 222/5/3 224/203/3
f 222/5/3 227/5/3 228/204/3
f 227/5/4 225/5/4 228/205/4
f 225/5/4 227/5/4 226/206/4
f 225/5/5 222/5/5 228/207/5
f 222/5/5 225/5/5 221/208/5
f 223/2/6 227/3/6 224/11/6
f 227/3/6 223/2/6 226/1/6
f 231/3/1 230/2/1 229/1/1
f 230/3/1 231/2/1 232/1/1
f 233/3/2 231/2/2 229/1/2
f 231/3/2 233/2/2 234/1/2
f 235/5/3 230/5/3 232/209/3
f 230/5/3 235/5/3 236/210/3
f 235/5/4 233/5/4 236/211/4
f 233/5/4 235/5/4 234/212/4
f 233/5/5 230/5/5 236/213/5
f 230/5/5 233/5/5 229/214/5
f 231/2/6 235/3/6 232/11/6
f 235/3/6 231/2/6 234/1/6
f 238/3/1 33/2/1 237/1/1
f 33/3/1 238/2/1 34/1/1
f 97/3/2 238/2/2 237/1/2
f 238/3/2 97/2/2 99/1/2
f 100/88/3 33/5/3 34/215/3
f 33/5/3 100/88/3 98/5/3
f 100/5/4 97/5/4 98/216/4
f 97/5/4 100/5/4 99/217/4
f 97/93/5 33/5/5 98/5/5
f 33/5/5 97/93/5 237/218/5
f 238/2/6 100/3/6 34/11/6
f 100/3/6 238/2/6 99/1/6
f 102/3/1 104/2/1 101/1/1
f 104/3/1 102/2/1 103/1/1
f 105/3/2 102/2/2 101/1/2
f 102/3/2 105/2/2 107/1/2
f 108/94/3 104/89/3 103/5/3
f 104/89/3 108/94/3 106/5/3
f 108/5/4 105/5/4 106/219/4
f 105/5/4 108/5/4 107/220/4
f 105/99/5 104/92/5 106/5/5
f 104/92/5 105/99/5 101/5/5
f 102/2/6 108/3/6 103/11/6
f 108/3/6 102/2/6 107/1/6
f 110/3/1 112/2/1 109/1/1
f 112/3/1 110/2/1 111/1/1
f 113/3/2 110/2/2 109/1/2
f 110/3/2 113/2/2 115/1/2
f 116/100/3 112/95/3 111/5/3
f 112/95/3 116/100/3 114/5/3
f 116/5/4 113/5/4 114/221/4
f 113/5/4 116/5/4 115/222/4
f 113/105/5 112/98/5 114/5/5
f 112/98/5 113/105/5 109/5/5
f 110/2/6 116/3/6 111/11/6
f 116/3/6 110/2/6 115/1/6
f 118/3/1 120/2/1 117/1/1
f 120/3/1 118/2/1 119/1/1
f 239/3/2 118/2/2 117/1/2
f 118/3/2 239/2/2 240/1/2
f 39/5/3 120/101/3 119/5/3
f 120/101/3 39/5/3 37/223/3
f 39/5/4 239/5/4 37/224/4
f 239/5/4 39/5/4 240/225/4
f 239/5/5 120/104/5 37/40/5
f 120/104/5 239/5/5 117/5/5
f 118/2/6 39/3/6 119/11/6
f 39/3/6 118/2/6 240/1/6

usemtl color10

f 218/3/1 237/2/1 217/1/1
f 237/3/1 218/2/1 238/1/1
f 74/3/2 218/2/2 217/1/2
f 218/3/2 74/2/2 76/1/2
f 99/5/3 237/5/3 238/226/3
f 237/5/3 99/5/3 97/227/3
f 99/217/4 74/193/4 97/5/4
f 74/193/4 99/217/4 76/5/4
f 74/5/5 237/218/5 97/93/5
f 237/218/5 74/5/5 217/5/5
f 218/2/6 99/3/6 238/11/6
f 99/3/6 218/2/6 76/1/6
f 79/3/1 101/2/1 80/1/1
f 101/3/1 79/2/1 102/1/1
f 82/3/2 79/2/2 80/1/2
f 79/3/2 82/2/2 84/1/2
f 107/5/3 101/5/3 102/228/3
f 101/5/3 107/5/3 105/229/3
f 107/220/4 82/195/4 105/5/4
f 82/195/4 107/220/4 84/5/4
f 82/5/5 101/5/5 105/99/5
f 101/5/5 82/5/5 80/74/5
f 79/2/6 107/3/6 102/11/6
f 107/3/6 79/2/6 84/1/6
f 87/3/1 109/2/1 88/1/1
f 109/3/1 87/2/1 110/1/1
f 90/3/2 87/2/2 88/1/2
f 87/3/2 90/2/2 92/1/2
f 115/5/3 109/5/3 110/230/3
f 109/5/3 115/5/3 113/231/3
f 115/222/4 90/197/4 113/5/4
f 90/197/4 115/222/4 92/5/4
f 90/5/5 109/5/5 113/105/5
f 109/5/5 90/5/5 88/80/5
f 87/2/6 115/3/6 110/11/6
f 115/3/6 87/2/6 92/1/6
f 95/3/1 117/2/1 96/1/1
f 117/3/1 95/2/1 118/1/1
f 220/3/2 95/2/2 96/1/2
f 95/3/2 220/2/2 219/1/2
f 240/5/3 117/5/3 118/232/3
f 117/5/3 240/5/3 239/233/3
f 240/225/4 220/200/4 239/5/4
f 220/200/4 240/225/4 219/5/4
f 220/202/5 117/5/5 239/5/5
f 117/5/5 220/202/5 96/86/5
f 95/2/6 240/3/6 118/11/6
f 240/3/6 95/2/6 219/1/6

usemtl color11

f 243/3/1 242/2/1 241/1/1
f 242/3/1 243/2/1 244/1/1
f 245/3/2 243/2/2 241/1/2
f 243/3/2 245/2/2 246/1/2
f 247/5/3 242/5/3 244/234/3
f 242/5/3 247/5/3 248/235/3
f 247/5/4 245/5/4 248/236/4
f 245/5/4 247/5/4 246/237/4
f 245/5/5 242/5/5 248/238/5
f 242/5/5 245/5/5 241/239/5
f 243/2/6 247/3/6 244/11/6
f 247/3/6 243/2/6 246/1/6
f 251/3/1 250/2/1 249/1/1
f 250/3/1 251/2/1 252/1/1
f 253/3/2 251/2/2 249/1/2
f 251/3/2 253/2/2 254/1/2
f 255/5/3 250/5/3 252/240/3
f 250/5/3 255/5/3 256/241/3
f 255/5/4 253/5/4 256/242/4
f 253/5/4 255/5/4 254/243/4
f 253/5/5 250/5/5 256/244/5
f 250/5/5 253/5/5 249/245/5
f 251/2/6 255/3/6 252/11/6
f 255/3/6 251/2/6 254/1/6
f 259/3/1 258/2/1 257/1/1
f 258/3/1 259/2/1 260/1/1
f 261/3/2 259/2/2 257/1/2
f 259/3/2 261/2/2 262/1/2
f 263/5/3 258/5/3 260/246/3
f 258/5/3 263/5/3 264/247/3
f 263/5/4 261/5/4 264/248/4
f 261/5/4 263/5/4 262/249/4
f 261/5/5 258/5/5 264/250/5
f 258/5/5 261/5/5 257/251/5
f 259/2/6 263/3/6 260/11/6
f 263/3/6 259/2/6 262/1/6

