# Created by Kenney (www.kenney.nl)

mtllib Grenade SVH Novanoid.mtl

v 3 4 -0.45
v 3 3 -0.45
v 3 4 0.45
v 3 3 0.45
v 2 4 -0.45
v 2 4 0.45
v 2 3 0.45
v 2 3 -0.45
v 2 4 -0.9
v 2 3 -0.9
v 2 4 0.9
v 2 3 0.9
v 1 4 -0.9
v 1 4 0.9
v 1 3 0.9
v 1 3 -0.9
v 3 3 -0.9
v 3 2 -0.9
v 3 3 0.9
v 3 2 0.9
v 2 2 0.9
v 2 2 -0.9
v 0 -2 -1.8
v 0 -3 -1.8
v 0 -2 1.8
v 0 -3 1.8
v -1 -2 -1.8
v -1 -2 1.8
v -1 -3 1.8
v -1 -3 -1.8
v 1 4 -1.35
v 1 3 -1.35
v 1 4 1.35
v 1 3 1.35
v 0 4 -1.35
v 0 4 1.35
v 0 3 1.35
v 0 3 -1.35
v 0 4 -0.9
v 0 3 -0.9
v 0 4 0.9
v 0 3 0.9
v -1 4 -0.9
v -1 4 0.9
v -1 3 0.9
v -1 3 -0.9
v 1 2 -2.25
v 1 0 -2.25
v 1 2 2.25
v 1 0 2.25
v 0 2 -2.25
v 0 2 2.25
v 0 0 2.25
v 0 0 -2.25
v -1 2 -0.9
v -1 0 -0.9
v -1 2 0.9
v -1 0 0.9
v -2 2 -0.9
v -2 2 0.9
v -2 0 0.9
v -2 0 -0.9
v 1 -1 -2.25
v 1 -2 -2.25
v 1 -1 2.25
v 1 -2 2.25
v 0 -1 -2.25
v 0 -1 2.25
v 0 -2 2.25
v 0 -2 -2.25
v 2 3 -1.8
v 2 0 -1.8
v 2 3 1.8
v 2 0 1.8
v 1 3 -1.8
v 1 3 1.8
v 1 0 1.8
v 1 0 -1.8
v -2 3 -0.9
v -2 3 0.9
v 2 -1 -1.8
v 2 -2 -1.8
v 2 -1 1.8
v 2 -2 1.8
v 1 -1 -1.8
v 1 -1 1.8
v 1 -2 1.8
v 1 -2 -1.8
v -1 -1 -0.9
v -1 -2 -0.9
v -1 -1 0.9
v -1 -2 0.9
v -2 -1 -0.9
v -2 -1 0.9
v -2 -2 0.9
v -2 -2 -0.9
v 0 -3 -0.9
v 0 -4 -0.9
v 0 -3 0.9
v 0 -4 0.9
v -1 -3 -0.9
v -1 -3 0.9
v -1 -4 0.9
v -1 -4 -0.9
v 1 3 -2.25
v 1 3 2.25
v 0 3 -2.25
v 0 3 2.25
v 1 -3 -1.35
v 1 -4 -1.35
v 1 -3 1.35
v 1 -4 1.35
v 0 -3 -1.35
v 0 -3 1.35
v 0 -4 1.35
v 0 -4 -1.35
v 0 3 -1.8
v 0 0 -1.8
v 0 3 1.8
v 0 0 1.8
v -1 3 -1.8
v -1 3 1.8
v -1 0 1.8
v -1 0 -1.8
v 0 -1 -1.8
v 0 -1 1.8
v -1 -1 -1.8
v -1 -1 1.8
v 3 0 -0.9
v 3 0 0.9
v 2 0 0.9
v 2 0 -0.9
v 2 -3 -0.9
v 2 -4 -0.9
v 2 -3 0.9
v 2 -4 0.9
v 1 -3 -0.9
v 1 -3 0.9
v 1 -4 0.9
v 1 -4 -0.9
v 3 0 -0.45
v 3 -1 -0.45
v 3 0 0.45
v 3 -1 0.45
v 2 0 -0.45
v 2 0 0.45
v 2 -1 0.45
v 2 -1 -0.45
v -1 0 -0.45
v -1 -1 -0.45
v -1 0 0.45
v -1 -1 0.45
v -2 0 -0.45
v -2 0 0.45
v -2 -1 0.45
v -2 -1 -0.45
v 3 -1 -0.9
v 3 -2 -0.9
v 3 -1 0.9
v 3 -2 0.9
v 2 -1 -0.9
v 2 -1 0.9
v 2 -2 0.9
v 2 -2 -0.9
v 3 -3 -0.9
v 3 -3 0.9
v 2 -3 -1.8
v 2 -3 1.8
v 1 -3 1.8
v 1 -3 -1.8
v 1 -3 -2.25
v 1 -3 2.25
v 0 -3 2.25
v 0 -3 -2.25
v -2 -3 0.9
v -2 -3 -0.9

vn 1 0 0
vn 0 1 0
vn 0 -1 0
vn -1 0 0
vn 0 0 -1
vn 0 0 1

vt -19.68504 19.68504
vt 19.68504 19.68504
vt -19.68504 -19.68504
vt 0 NaN
vt 0 0
vt 0 NaN
vt 0 NaN
vt 0 NaN
vt 0 NaN
vt 0 NaN
vt 19.68504 -19.68504
vt 0 NaN
vt 0 NaN
vt 0 NaN
vt 0 NaN
vt 0 NaN
vt 0 NaN
vt 0 NaN
vt 0 NaN
vt 0 NaN
vt 0 NaN
vt 0 NaN
vt 0 NaN
vt 0 NaN
vt 0 NaN
vt 0 NaN
vt 0 NaN
vt 0 NaN
vt 0 NaN
vt 0 NaN
vt 0 NaN
vt 0 NaN
vt 0 NaN
vt 0 NaN
vt 0 NaN
vt 0 NaN
vt 0 NaN
vt 0 NaN
vt 0 NaN
vt 0 NaN
vt 0 NaN
vt 0 NaN
vt 0 NaN
vt 0 NaN
vt 0 NaN
vt 0 NaN
vt 0 NaN
vt 0 NaN
vt 0 NaN
vt 0 NaN
vt 0 NaN
vt 0 NaN
vt 0 NaN
vt 0 NaN
vt 0 NaN
vt 0 NaN
vt 0 NaN
vt 0 NaN
vt 0 NaN
vt 0 NaN
vt 0 NaN
vt 0 NaN
vt 0 NaN
vt 0 NaN
vt 0 NaN
vt 0 NaN
vt 0 NaN
vt 0 NaN
vt 0 NaN
vt 0 NaN
vt 0 NaN
vt 0 NaN
vt 0 NaN
vt 0 NaN
vt 0 NaN
vt 0 NaN
vt 0 NaN
vt 0 NaN
vt 0 NaN
vt 0 NaN
vt 0 NaN
vt 0 NaN
vt 0 NaN
vt 0 NaN
vt 0 NaN
vt 0 NaN
vt 0 NaN
vt 0 NaN
vt 0 NaN
vt 0 NaN
vt 0 NaN
vt 0 NaN
vt 0 NaN
vt 0 NaN
vt 0 NaN
vt 0 NaN
vt 0 NaN
vt 0 NaN
vt 0 NaN
vt 0 NaN
vt 0 NaN
vt 0 NaN
vt 0 NaN
vt 0 NaN
vt 0 NaN
vt 0 NaN
vt 0 NaN
vt 0 NaN
vt 0 NaN
vt 0 NaN
vt 0 NaN
vt 0 NaN
vt 0 NaN
vt 0 NaN
vt 0 NaN
vt 0 NaN
vt 0 NaN
vt 0 NaN
vt 0 NaN
vt 0 NaN
vt 0 NaN
vt 0 NaN
vt 0 NaN
vt 0 NaN
vt 0 NaN
vt 0 NaN
vt 0 NaN
vt 0 NaN
vt 0 NaN
vt 0 NaN
vt 0 NaN
vt 0 NaN
vt 0 NaN
vt 0 NaN
vt 0 NaN
vt 0 NaN
vt 0 NaN
vt 0 NaN
vt 0 NaN
vt 0 NaN
vt 0 NaN
vt 0 NaN
vt 0 NaN
vt 0 NaN
vt 0 NaN
vt 0 NaN
vt 0 NaN
vt 0 NaN
vt 0 NaN
vt 0 NaN
vt 0 NaN
vt 0 NaN
vt 0 NaN
vt 0 NaN
vt 0 NaN

usemtl color17

f 3/3/1 2/2/1 1/1/1
f 2/3/1 3/2/1 4/1/1
f 5/3/2 3/2/2 1/1/2
f 3/3/2 5/2/2 6/1/2
f 7/5/3 2/5/3 4/4/3
f 2/5/3 7/5/3 8/6/3
f 7/5/4 5/5/4 8/7/4
f 5/5/4 7/5/4 6/8/4
f 5/5/5 2/5/5 8/9/5
f 2/5/5 5/5/5 1/10/5
f 3/2/6 7/3/6 4/11/6
f 7/3/6 3/2/6 6/1/6
f 3/3/1 2/2/1 1/1/1
f 2/3/1 3/2/1 4/1/1
f 5/3/2 3/2/2 1/1/2
f 3/3/2 5/2/2 6/1/2
f 7/5/3 2/5/3 4/4/3
f 2/5/3 7/5/3 8/6/3
f 7/5/4 5/5/4 8/7/4
f 5/5/4 7/5/4 6/8/4
f 5/5/5 2/5/5 8/9/5
f 2/5/5 5/5/5 1/10/5
f 3/2/6 7/3/6 4/11/6
f 7/3/6 3/2/6 6/1/6

usemtl color8

f 11/3/1 10/2/1 9/1/1
f 10/3/1 11/2/1 12/1/1
f 13/3/2 11/2/2 9/1/2
f 11/3/2 13/2/2 14/1/2
f 15/5/3 10/5/3 12/12/3
f 10/5/3 15/5/3 16/13/3
f 15/5/4 13/5/4 16/14/4
f 13/5/4 15/5/4 14/15/4
f 13/5/5 10/5/5 16/16/5
f 10/5/5 13/5/5 9/17/5
f 11/2/6 15/3/6 12/11/6
f 15/3/6 11/2/6 14/1/6
f 19/3/1 18/2/1 17/1/1
f 18/3/1 19/2/1 20/1/1
f 10/3/2 19/2/2 17/1/2
f 19/3/2 10/2/2 12/1/2
f 21/5/3 18/5/3 20/18/3
f 18/5/3 21/5/3 22/19/3
f 21/5/4 10/5/4 22/20/4
f 10/5/4 21/5/4 12/21/4
f 10/5/5 18/5/5 22/22/5
f 18/5/5 10/5/5 17/23/5
f 19/2/6 21/3/6 20/11/6
f 21/3/6 19/2/6 12/1/6
f 25/3/1 24/2/1 23/1/1
f 24/3/1 25/2/1 26/1/1
f 27/3/2 25/2/2 23/1/2
f 25/3/2 27/2/2 28/1/2
f 29/5/3 24/5/3 26/24/3
f 24/5/3 29/5/3 30/25/3
f 29/5/4 27/5/4 30/26/4
f 27/5/4 29/5/4 28/27/4
f 27/5/5 24/5/5 30/28/5
f 24/5/5 27/5/5 23/29/5
f 25/2/6 29/3/6 26/11/6
f 29/3/6 25/2/6 28/1/6

usemtl color18

f 33/3/1 32/2/1 31/1/1
f 32/3/1 33/2/1 34/1/1
f 35/3/2 33/2/2 31/1/2
f 33/3/2 35/2/2 36/1/2
f 37/5/3 32/5/3 34/30/3
f 32/5/3 37/5/3 38/31/3
f 37/5/4 35/5/4 38/32/4
f 35/5/4 37/5/4 36/33/4
f 35/5/5 32/5/5 38/34/5
f 32/5/5 35/5/5 31/35/5
f 33/2/6 37/3/6 34/11/6
f 37/3/6 33/2/6 36/1/6

usemtl color10

f 41/3/1 40/2/1 39/1/1
f 40/3/1 41/2/1 42/1/1
f 43/3/2 41/2/2 39/1/2
f 41/3/2 43/2/2 44/1/2
f 45/5/3 40/5/3 42/36/3
f 40/5/3 45/5/3 46/37/3
f 45/5/4 43/5/4 46/38/4
f 43/5/4 45/5/4 44/39/4
f 43/5/5 40/5/5 46/40/5
f 40/5/5 43/5/5 39/41/5
f 41/2/6 45/3/6 42/11/6
f 45/3/6 41/2/6 44/1/6
f 49/3/1 48/2/1 47/1/1
f 48/3/1 49/2/1 50/1/1
f 51/3/2 49/2/2 47/1/2
f 49/3/2 51/2/2 52/1/2
f 53/5/3 48/5/3 50/42/3
f 48/5/3 53/5/3 54/43/3
f 53/5/4 51/5/4 54/44/4
f 51/5/4 53/5/4 52/45/4
f 51/5/5 48/5/5 54/46/5
f 48/5/5 51/5/5 47/47/5
f 49/2/6 53/3/6 50/11/6
f 53/3/6 49/2/6 52/1/6
f 57/3/1 56/2/1 55/1/1
f 56/3/1 57/2/1 58/1/1
f 59/3/2 57/2/2 55/1/2
f 57/3/2 59/2/2 60/1/2
f 61/5/3 56/5/3 58/48/3
f 56/5/3 61/5/3 62/49/3
f 61/5/4 59/5/4 62/50/4
f 59/5/4 61/5/4 60/51/4
f 59/5/5 56/5/5 62/52/5
f 56/5/5 59/5/5 55/53/5
f 57/2/6 61/3/6 58/11/6
f 61/3/6 57/2/6 60/1/6
f 65/3/1 64/2/1 63/1/1
f 64/3/1 65/2/1 66/1/1
f 67/3/2 65/2/2 63/1/2
f 65/3/2 67/2/2 68/1/2
f 69/5/3 64/5/3 66/54/3
f 64/5/3 69/5/3 70/55/3
f 69/5/4 67/5/4 70/56/4
f 67/5/4 69/5/4 68/57/4
f 67/5/5 64/5/5 70/58/5
f 64/5/5 67/5/5 63/59/5
f 65/2/6 69/3/6 66/11/6
f 69/3/6 65/2/6 68/1/6

usemtl color4

f 73/3/1 72/2/1 71/1/1
f 72/3/1 73/2/1 74/1/1
f 75/3/2 73/2/2 71/1/2
f 73/3/2 75/2/2 76/1/2
f 77/5/3 72/5/3 74/60/3
f 72/5/3 77/5/3 78/61/3
f 77/5/4 75/5/4 78/62/4
f 75/5/4 77/5/4 76/63/4
f 75/5/5 72/5/5 78/64/5
f 72/5/5 75/5/5 71/65/5
f 73/2/6 77/3/6 74/11/6
f 77/3/6 73/2/6 76/1/6
f 45/3/1 55/2/1 46/1/1
f 55/3/1 45/2/1 57/1/1
f 79/3/2 45/2/2 46/1/2
f 45/3/2 79/2/2 80/1/2
f 60/5/3 55/5/3 57/66/3
f 55/5/3 60/5/3 59/67/3
f 60/51/4 79/5/4 59/5/4
f 79/5/4 60/51/4 80/68/4
f 79/5/5 55/53/5 59/5/5
f 55/53/5 79/5/5 46/40/5
f 45/2/6 60/3/6 57/11/6
f 60/3/6 45/2/6 80/1/6
f 83/3/1 82/2/1 81/1/1
f 82/3/1 83/2/1 84/1/1
f 85/3/2 83/2/2 81/1/2
f 83/3/2 85/2/2 86/1/2
f 87/5/3 82/5/3 84/69/3
f 82/5/3 87/5/3 88/70/3
f 87/5/4 85/5/4 88/71/4
f 85/5/4 87/5/4 86/72/4
f 85/5/5 82/5/5 88/73/5
f 82/5/5 85/5/5 81/74/5
f 83/2/6 87/3/6 84/11/6
f 87/3/6 83/2/6 86/1/6
f 91/3/1 90/2/1 89/1/1
f 90/3/1 91/2/1 92/1/1
f 93/3/2 91/2/2 89/1/2
f 91/3/2 93/2/2 94/1/2
f 95/5/3 90/5/3 92/75/3
f 90/5/3 95/5/3 96/76/3
f 95/5/4 93/5/4 96/77/4
f 93/5/4 95/5/4 94/78/4
f 93/5/5 90/5/5 96/79/5
f 90/5/5 93/5/5 89/80/5
f 91/2/6 95/3/6 92/11/6
f 95/3/6 91/2/6 94/1/6
f 99/3/1 98/2/1 97/1/1
f 98/3/1 99/2/1 100/1/1
f 101/3/2 99/2/2 97/1/2
f 99/3/2 101/2/2 102/1/2
f 103/5/3 98/5/3 100/81/3
f 98/5/3 103/5/3 104/82/3
f 103/5/4 101/5/4 104/83/4
f 101/5/4 103/5/4 102/84/4
f 101/5/5 98/5/5 104/85/5
f 98/5/5 101/5/5 97/86/5
f 99/2/6 103/3/6 100/11/6
f 103/3/6 99/2/6 102/1/6

usemtl color3

f 106/3/1 47/2/1 105/1/1
f 47/3/1 106/2/1 49/1/1
f 107/3/2 106/2/2 105/1/2
f 106/3/2 107/2/2 108/1/2
f 52/5/3 47/5/3 49/87/3
f 47/5/3 52/5/3 51/88/3
f 52/45/4 107/5/4 51/5/4
f 107/5/4 52/45/4 108/89/4
f 107/5/5 47/47/5 51/5/5
f 47/47/5 107/5/5 105/90/5
f 106/2/6 52/3/6 49/11/6
f 52/3/6 106/2/6 108/1/6
f 111/3/1 110/2/1 109/1/1
f 110/3/1 111/2/1 112/1/1
f 113/3/2 111/2/2 109/1/2
f 111/3/2 113/2/2 114/1/2
f 115/5/3 110/5/3 112/91/3
f 110/5/3 115/5/3 116/92/3
f 115/5/4 113/5/4 116/93/4
f 113/5/4 115/5/4 114/94/4
f 113/5/5 110/5/5 116/95/5
f 110/5/5 113/5/5 109/96/5
f 111/2/6 115/3/6 112/11/6
f 115/3/6 111/2/6 114/1/6

usemtl color11

f 119/3/1 118/2/1 117/1/1
f 118/3/1 119/2/1 120/1/1
f 121/3/2 119/2/2 117/1/2
f 119/3/2 121/2/2 122/1/2
f 123/5/3 118/5/3 120/97/3
f 118/5/3 123/5/3 124/98/3
f 123/5/4 121/5/4 124/99/4
f 121/5/4 123/5/4 122/100/4
f 121/5/5 118/5/5 124/101/5
f 118/5/5 121/5/5 117/102/5
f 119/2/6 123/3/6 120/11/6
f 123/3/6 119/2/6 122/1/6
f 126/3/1 23/2/1 125/1/1
f 23/3/1 126/2/1 25/1/1
f 127/3/2 126/2/2 125/1/2
f 126/3/2 127/2/2 128/1/2
f 28/5/3 23/5/3 25/103/3
f 23/5/3 28/5/3 27/104/3
f 28/27/4 127/5/4 27/5/4
f 127/5/4 28/27/4 128/105/4
f 127/5/5 23/29/5 27/5/5
f 23/29/5 127/5/5 125/106/5
f 126/2/6 28/3/6 25/11/6
f 28/3/6 126/2/6 128/1/6

usemtl color2

f 20/3/1 129/2/1 18/1/1
f 129/3/1 20/2/1 130/1/1
f 22/3/2 20/2/2 18/1/2
f 20/3/2 22/2/2 21/1/2
f 131/5/3 129/5/3 130/107/3
f 129/5/3 131/5/3 132/108/3
f 131/5/4 22/20/4 132/109/4
f 22/20/4 131/5/4 21/5/4
f 22/22/5 129/5/5 132/110/5
f 129/5/5 22/22/5 18/5/5
f 20/2/6 131/3/6 130/11/6
f 131/3/6 20/2/6 21/1/6
f 135/3/1 134/2/1 133/1/1
f 134/3/1 135/2/1 136/1/1
f 137/3/2 135/2/2 133/1/2
f 135/3/2 137/2/2 138/1/2
f 139/5/3 134/5/3 136/111/3
f 134/5/3 139/5/3 140/112/3
f 139/5/4 137/5/4 140/113/4
f 137/5/4 139/5/4 138/114/4
f 137/5/5 134/5/5 140/115/5
f 134/5/5 137/5/5 133/116/5
f 135/2/6 139/3/6 136/11/6
f 139/3/6 135/2/6 138/1/6

usemtl color12

f 143/3/1 142/2/1 141/1/1
f 142/3/1 143/2/1 144/1/1
f 145/3/2 143/2/2 141/1/2
f 143/3/2 145/2/2 146/1/2
f 147/5/3 142/5/3 144/117/3
f 142/5/3 147/5/3 148/118/3
f 147/5/4 145/5/4 148/119/4
f 145/5/4 147/5/4 146/120/4
f 145/5/5 142/5/5 148/121/5
f 142/5/5 145/5/5 141/122/5
f 143/2/6 147/3/6 144/11/6
f 147/3/6 143/2/6 146/1/6

usemtl color13

f 74/3/1 81/2/1 72/1/1
f 81/3/1 74/2/1 83/1/1
f 78/3/2 74/2/2 72/1/2
f 74/3/2 78/2/2 77/1/2
f 86/5/3 81/5/3 83/123/3
f 81/5/3 86/5/3 85/124/3
f 86/72/4 78/62/4 85/5/4
f 78/62/4 86/72/4 77/5/4
f 78/64/5 81/74/5 85/5/5
f 81/74/5 78/64/5 72/5/5
f 74/2/6 86/3/6 83/11/6
f 86/3/6 74/2/6 77/1/6

usemtl color14

f 77/3/1 85/2/1 78/1/1
f 85/3/1 77/2/1 86/1/1
f 118/3/2 77/2/2 78/1/2
f 77/3/2 118/2/2 120/1/2
f 126/5/3 85/124/3 86/5/3
f 85/124/3 126/5/3 125/125/3
f 126/5/4 118/5/4 125/126/4
f 118/5/4 126/5/4 120/127/4
f 118/5/5 85/5/5 125/106/5
f 85/5/5 118/5/5 78/64/5
f 77/2/6 126/3/6 86/11/6
f 126/3/6 77/2/6 120/1/6

usemtl color15

f 120/3/1 125/2/1 118/1/1
f 125/3/1 120/2/1 126/1/1
f 124/3/2 120/2/2 118/1/2
f 120/3/2 124/2/2 123/1/2
f 128/5/3 125/125/3 126/5/3
f 125/125/3 128/5/3 127/128/3
f 128/105/4 124/99/4 127/5/4
f 124/99/4 128/105/4 123/5/4
f 124/101/5 125/106/5 127/5/5
f 125/106/5 124/101/5 118/5/5
f 120/2/6 128/3/6 126/11/6
f 128/3/6 120/2/6 123/1/6

usemtl color16

f 151/3/1 150/2/1 149/1/1
f 150/3/1 151/2/1 152/1/1
f 153/3/2 151/2/2 149/1/2
f 151/3/2 153/2/2 154/1/2
f 155/5/3 150/5/3 152/129/3
f 150/5/3 155/5/3 156/130/3
f 155/5/4 153/5/4 156/131/4
f 153/5/4 155/5/4 154/132/4
f 153/5/5 150/5/5 156/133/5
f 150/5/5 153/5/5 149/134/5
f 151/2/6 155/3/6 152/11/6
f 155/3/6 151/2/6 154/1/6

usemtl color9

f 159/3/1 158/2/1 157/1/1
f 158/3/1 159/2/1 160/1/1
f 161/3/2 159/2/2 157/1/2
f 159/3/2 161/2/2 162/1/2
f 163/5/3 158/5/3 160/135/3
f 158/5/3 163/5/3 164/136/3
f 163/5/4 161/5/4 164/137/4
f 161/5/4 163/5/4 162/138/4
f 161/5/5 158/5/5 164/139/5
f 158/5/5 161/5/5 157/140/5
f 159/2/6 163/3/6 160/11/6
f 163/3/6 159/2/6 162/1/6

usemtl color5

f 160/3/1 165/2/1 158/1/1
f 165/3/1 160/2/1 166/1/1
f 164/3/2 160/2/2 158/1/2
f 160/3/2 164/2/2 163/1/2
f 135/5/3 165/5/3 166/141/3
f 165/5/3 135/5/3 133/142/3
f 135/5/4 164/137/4 133/143/4
f 164/137/4 135/5/4 163/5/4
f 164/139/5 165/5/5 133/116/5
f 165/5/5 164/139/5 158/5/5
f 160/2/6 135/3/6 166/11/6
f 135/3/6 160/2/6 163/1/6

usemtl color6

f 84/3/1 167/2/1 82/1/1
f 167/3/1 84/2/1 168/1/1
f 88/3/2 84/2/2 82/1/2
f 84/3/2 88/2/2 87/1/2
f 169/5/3 167/5/3 168/144/3
f 167/5/3 169/5/3 170/145/3
f 169/5/4 88/71/4 170/146/4
f 88/71/4 169/5/4 87/5/4
f 88/73/5 167/5/5 170/147/5
f 167/5/5 88/73/5 82/5/5
f 84/2/6 169/3/6 168/11/6
f 169/3/6 84/2/6 87/1/6

usemtl color7

f 66/3/1 171/2/1 64/1/1
f 171/3/1 66/2/1 172/1/1
f 70/3/2 66/2/2 64/1/2
f 66/3/2 70/2/2 69/1/2
f 173/5/3 171/5/3 172/148/3
f 171/5/3 173/5/3 174/149/3
f 173/5/4 70/56/4 174/150/4
f 70/56/4 173/5/4 69/5/4
f 70/58/5 171/5/5 174/151/5
f 171/5/5 70/58/5 64/5/5
f 66/2/6 173/3/6 172/11/6
f 173/3/6 66/2/6 69/1/6
f 92/3/1 101/2/1 90/1/1
f 101/3/1 92/2/1 102/1/1
f 96/3/2 92/2/2 90/1/2
f 92/3/2 96/2/2 95/1/2
f 175/5/3 101/5/3 102/152/3
f 101/5/3 175/5/3 176/153/3
f 175/5/4 96/77/4 176/154/4
f 96/77/4 175/5/4 95/5/4
f 96/79/5 101/5/5 176/155/5
f 101/5/5 96/79/5 90/5/5
f 92/2/6 175/3/6 102/11/6
f 175/3/6 92/2/6 95/1/6

