# Created by Kenney (www.kenney.nl)

mtllib Grenade PQL Pirend.mtl

v 1 6 -1.1
v 1 5 -1.1
v 1 6 1.1
v 1 5 1.1
v 0 6 -1.1
v 0 6 1.1
v 0 5 1.1
v 0 5 -1.1
v -1 6 -1.1
v -1 5 -1.1
v -1 6 1.1
v -1 5 1.1
v -2 6 -1.1
v -2 6 1.1
v -2 5 1.1
v -2 5 -1.1
v 4 5 -0.55
v 4 4 -0.55
v 4 5 0.55
v 4 4 0.55
v 2 5 -0.55
v 2 5 0.55
v 2 4 0.55
v 2 4 -0.55
v 5 4 -0.55
v 5 1 -0.55
v 5 4 0.55
v 5 1 0.55
v 4 1 0.55
v 4 1 -0.55
v 1 4 -2.2
v 1 3 -2.2
v 1 4 2.2
v 1 3 2.2
v 0 4 -2.2
v 0 4 2.2
v 0 3 2.2
v 0 3 -2.2
v -1 4 -2.2
v -1 3 -2.2
v -1 4 2.2
v -1 3 2.2
v -2 4 -2.2
v -2 4 2.2
v -2 3 2.2
v -2 3 -2.2
v 0 6 -1.65
v 0 5 -1.65
v 0 6 1.65
v 0 5 1.65
v -1 6 -1.65
v -1 6 1.65
v -1 5 1.65
v -1 5 -1.65
v 2 5 -1.1
v 2 4 -1.1
v 2 5 1.1
v 2 4 1.1
v 1 4 1.1
v 1 4 -1.1
v -2 5 -1.65
v -2 4 -1.65
v -2 5 1.65
v -2 4 1.65
v -3 5 -1.65
v -3 5 1.65
v -3 4 1.65
v -3 4 -1.65
v 4 4 -1.1
v 4 3 -1.1
v 4 4 1.1
v 4 3 1.1
v 2 3 1.1
v 2 3 -1.1
v 5 0 -0.55
v 5 0 0.55
v 4 0 0.55
v 4 0 -0.55
v 4 0 -1.1
v 4 -1 -1.1
v 4 0 1.1
v 4 -1 1.1
v 3 0 -1.1
v 3 0 1.1
v 3 -1 1.1
v 3 -1 -1.1
v 1 5 -2.2
v 1 5 2.2
v 0 5 -2.2
v 0 5 2.2
v -1 5 -2.2
v -1 5 2.2
v -2 5 -2.2
v -2 5 2.2
v 2 4 -1.65
v 2 3 -1.65
v 2 4 1.65
v 2 3 1.65
v 1 4 -1.65
v 1 4 1.65
v 1 3 1.65
v 1 3 -1.65
v -2 3 -1.65
v -2 3 1.65
v -3 3 1.65
v -3 3 -1.65
v 3 3 -1.65
v 3 2 -1.65
v 3 3 1.65
v 3 2 1.65
v 2 2 1.65
v 2 2 -1.65
v 5 -1 -0.55
v 5 -1 0.55
v 4 -1 0.55
v 4 -1 -0.55
v 4 -2 -0.55
v 4 -2 0.55
v 3 -1 -0.55
v 3 -1 0.55
v 3 -2 0.55
v 3 -2 -0.55
v 0 5 -2.75
v 0 4 -2.75
v 0 5 2.75
v 0 4 2.75
v -1 5 -2.75
v -1 5 2.75
v -1 4 2.75
v -1 4 -2.75
v 2 3 -2.75
v 2 2 -2.75
v 2 3 2.75
v 2 2 2.75
v 1 3 -2.75
v 1 3 2.75
v 1 2 2.75
v 1 2 -2.75
v -2 3 -2.75
v -2 2 -2.75
v -2 3 2.75
v -2 2 2.75
v -3 3 -2.75
v -3 3 2.75
v -3 2 2.75
v -3 2 -2.75
v 3 1 -1.65
v 3 1 1.65
v 2 1 1.65
v 2 1 -1.65
v -3 2 -1.65
v -3 1 -1.65
v -3 2 1.65
v -3 1 1.65
v -4 2 -1.65
v -4 2 1.65
v -4 1 1.65
v -4 1 -1.65
v 2 1 -3.3
v 2 0 -3.3
v 2 1 3.3
v 2 0 3.3
v 1 1 -3.3
v 1 1 3.3
v 1 0 3.3
v 1 0 -3.3
v 0 1 -3.3
v 0 0 -3.3
v 0 1 3.3
v 0 0 3.3
v -1 1 -3.3
v -1 1 3.3
v -1 0 3.3
v -1 0 -3.3
v -2 1 -3.3
v -2 0 -3.3
v -2 1 3.3
v -2 0 3.3
v -3 1 -3.3
v -3 1 3.3
v -3 0 3.3
v -3 0 -3.3
v 3 0 -1.65
v 3 -1 -1.65
v 3 0 1.65
v 3 -1 1.65
v 2 0 -1.65
v 2 0 1.65
v 2 -1 1.65
v 2 -1 -1.65
v 1 -1 -3.3
v 1 -1 3.3
v 0 -1 3.3
v 0 -1 -3.3
v -1 -1 -3.3
v -1 -1 3.3
v -2 -1 3.3
v -2 -1 -3.3
v -3 0 -1.65
v -3 -1 -1.65
v -3 0 1.65
v -3 -1 1.65
v -4 0 -1.65
v -4 0 1.65
v -4 -1 1.65
v -4 -1 -1.65
v 2 -1 -3.3
v 2 -2 -3.3
v 2 -1 3.3
v 2 -2 3.3
v 1 -2 3.3
v 1 -2 -3.3
v 0 -2 -3.3
v 0 -2 3.3
v -1 -2 3.3
v -1 -2 -3.3
v -2 -2 -3.3
v -2 -2 3.3
v -3 -1 -3.3
v -3 -1 3.3
v -3 -2 3.3
v -3 -2 -3.3
v 3 -2 -1.65
v 3 -3 -1.65
v 3 -2 1.65
v 3 -3 1.65
v 2 -2 -1.65
v 2 -2 1.65
v 2 -3 1.65
v 2 -3 -1.65
v 1 -3 -3.3
v 1 -3 3.3
v 0 -3 3.3
v 0 -3 -3.3
v -1 -3 -3.3
v -1 -3 3.3
v -2 -3 3.3
v -2 -3 -3.3
v -3 -2 -1.65
v -3 -3 -1.65
v -3 -2 1.65
v -3 -3 1.65
v -4 -2 -1.65
v -4 -2 1.65
v -4 -3 1.65
v -4 -3 -1.65
v 2 -3 -3.3
v 2 -4 -3.3
v 2 -3 3.3
v 2 -4 3.3
v 1 -4 3.3
v 1 -4 -3.3
v 0 -4 -3.3
v 0 -4 3.3
v -1 -4 3.3
v -1 -4 -3.3
v -2 -4 -3.3
v -2 -4 3.3
v -3 -3 -3.3
v -3 -3 3.3
v -3 -4 3.3
v -3 -4 -3.3
v 1 3 -3.3
v 1 2 -3.3
v 1 3 3.3
v 1 2 3.3
v 0 3 -3.3
v 0 3 3.3
v 0 2 3.3
v 0 2 -3.3
v -1 3 -3.3
v -1 2 -3.3
v -1 3 3.3
v -1 2 3.3
v -2 3 -3.3
v -2 3 3.3
v -2 2 3.3
v -2 2 -3.3
v 1 1 -3.85
v 1 0 -3.85
v 1 1 3.85
v 1 0 3.85
v 0 1 -3.85
v 0 1 3.85
v 0 0 3.85
v 0 0 -3.85
v -1 1 -3.85
v -1 0 -3.85
v -1 1 3.85
v -1 0 3.85
v -2 1 -3.85
v -2 1 3.85
v -2 0 3.85
v -2 0 -3.85
v -3 1 -2.2
v -3 0 -2.2
v -3 1 2.2
v -3 0 2.2
v -4 1 -2.2
v -4 1 2.2
v -4 0 2.2
v -4 0 -2.2
v 1 -1 -3.85
v 1 -2 -3.85
v 1 -1 3.85
v 1 -2 3.85
v 0 -1 -3.85
v 0 -1 3.85
v 0 -2 3.85
v 0 -2 -3.85
v -1 -1 -3.85
v -1 -2 -3.85
v -1 -1 3.85
v -1 -2 3.85
v -2 -1 -3.85
v -2 -1 3.85
v -2 -2 3.85
v -2 -2 -3.85
v -3 -1 -2.2
v -3 -2 -2.2
v -3 -1 2.2
v -3 -2 2.2
v -4 -1 -2.2
v -4 -1 2.2
v -4 -2 2.2
v -4 -2 -2.2
v -3 -3 -1.1
v -3 -4 -1.1
v -3 -3 1.1
v -3 -4 1.1
v -4 -3 -1.1
v -4 -3 1.1
v -4 -4 1.1
v -4 -4 -1.1
v 0 3 -2.75
v 0 2 -2.75
v 0 3 2.75
v 0 2 2.75
v -1 3 -2.75
v -1 3 2.75
v -1 2 2.75
v -1 2 -2.75
v 3 1 -2.2
v 3 0 -2.2
v 3 1 2.2
v 3 0 2.2
v 2 1 -2.2
v 2 1 2.2
v 2 0 2.2
v 2 0 -2.2
v 3 -1 -2.2
v 3 -2 -2.2
v 3 -1 2.2
v 3 -2 2.2
v 2 -1 -2.2
v 2 -1 2.2
v 2 -2 2.2
v 2 -2 -2.2
v 3 -3 -1.1
v 3 -4 -1.1
v 3 -3 1.1
v 3 -4 1.1
v 2 -3 -1.1
v 2 -3 1.1
v 2 -4 1.1
v 2 -4 -1.1
v 1 -5 -3.3
v 1 -5 3.3
v 0 -5 3.3
v 0 -5 -3.3
v -1 -5 -3.3
v -1 -5 3.3
v -2 -5 3.3
v -2 -5 -3.3
v 2 1 -2.75
v 2 1 2.75
v 1 1 2.75
v 1 1 -2.75
v 0 1 -2.75
v 0 1 2.75
v -1 1 2.75
v -1 1 -2.75
v -2 1 -2.75
v -2 1 2.75
v -3 1 2.75
v -3 1 -2.75
v 2 0 -2.75
v 2 -1 -2.75
v 2 0 2.75
v 2 -1 2.75
v 1 0 -2.75
v 1 0 2.75
v 1 -1 2.75
v 1 -1 -2.75
v 0 0 -2.75
v 0 -1 -2.75
v 0 0 2.75
v 0 -1 2.75
v -1 0 -2.75
v -1 0 2.75
v -1 -1 2.75
v -1 -1 -2.75
v -2 0 -2.75
v -2 -1 -2.75
v -2 0 2.75
v -2 -1 2.75
v -3 0 -2.75
v -3 0 2.75
v -3 -1 2.75
v -3 -1 -2.75
v 2 -2 -2.75
v 2 -3 -2.75
v 2 -2 2.75
v 2 -3 2.75
v 1 -2 -2.75
v 1 -2 2.75
v 1 -3 2.75
v 1 -3 -2.75
v 0 -2 -2.75
v 0 -3 -2.75
v 0 -2 2.75
v 0 -3 2.75
v -1 -2 -2.75
v -1 -2 2.75
v -1 -3 2.75
v -1 -3 -2.75
v -2 -2 -2.75
v -2 -3 -2.75
v -2 -2 2.75
v -2 -3 2.75
v -3 -2 -2.75
v -3 -2 2.75
v -3 -3 2.75
v -3 -3 -2.75
v 2 -4 -2.75
v 2 -5 -2.75
v 2 -4 2.75
v 2 -5 2.75
v 1 -4 -2.75
v 1 -4 2.75
v 1 -5 2.75
v 1 -5 -2.75
v 0 -4 -2.75
v 0 -5 -2.75
v 0 -4 2.75
v 0 -5 2.75
v -1 -4 -2.75
v -1 -4 2.75
v -1 -5 2.75
v -1 -5 -2.75
v -2 -4 -2.75
v -2 -5 -2.75
v -2 -4 2.75
v -2 -5 2.75
v -3 -4 -2.75
v -3 -4 2.75
v -3 -5 2.75
v -3 -5 -2.75
v 1 -3 -3.85
v 1 -4 -3.85
v 1 -3 3.85
v 1 -4 3.85
v 0 -3 -3.85
v 0 -3 3.85
v 0 -4 3.85
v 0 -4 -3.85
v -1 -3 -3.85
v -1 -4 -3.85
v -1 -3 3.85
v -1 -4 3.85
v -2 -3 -3.85
v -2 -3 3.85
v -2 -4 3.85
v -2 -4 -3.85

vn 1 0 0
vn 0 1 0
vn 0 -1 0
vn -1 0 0
vn 0 0 -1
vn 0 0 1

vt -19.68504 19.68504
vt 19.68504 19.68504
vt -19.68504 -19.68504
vt 0 NaN
vt 0 0
vt 0 NaN
vt 0 NaN
vt 0 NaN
vt 0 NaN
vt 0 NaN
vt 19.68504 -19.68504
vt 0 NaN
vt 0 NaN
vt 0 NaN
vt 0 NaN
vt 0 NaN
vt 0 NaN
vt 0 NaN
vt 0 NaN
vt 0 NaN
vt 0 NaN
vt 0 NaN
vt 0 NaN
vt 0 NaN
vt 0 NaN
vt 0 NaN
vt 0 NaN
vt 0 NaN
vt 0 NaN
vt 0 NaN
vt 0 NaN
vt 0 NaN
vt 0 NaN
vt 0 NaN
vt 0 NaN
vt 0 NaN
vt 0 NaN
vt 0 NaN
vt 0 NaN
vt 0 NaN
vt 0 NaN
vt 0 NaN
vt 0 NaN
vt 0 NaN
vt 0 NaN
vt 0 NaN
vt 0 NaN
vt 0 NaN
vt 0 NaN
vt 0 NaN
vt 0 NaN
vt 0 NaN
vt 0 NaN
vt 0 NaN
vt 0 NaN
vt 0 NaN
vt 0 NaN
vt 0 NaN
vt 0 NaN
vt 0 NaN
vt 0 NaN
vt 0 NaN
vt 0 NaN
vt 0 NaN
vt 0 NaN
vt 0 NaN
vt 0 NaN
vt 0 NaN
vt 0 NaN
vt 0 NaN
vt 0 NaN
vt 0 NaN
vt 0 NaN
vt 0 NaN
vt 0 NaN
vt 0 NaN
vt 0 NaN
vt 0 NaN
vt 0 NaN
vt 0 NaN
vt 0 NaN
vt 0 NaN
vt 0 NaN
vt 0 NaN
vt 0 NaN
vt 0 NaN
vt 0 NaN
vt 0 NaN
vt 0 NaN
vt 0 NaN
vt 0 NaN
vt 0 NaN
vt 0 NaN
vt 0 NaN
vt 0 NaN
vt 0 NaN
vt 0 NaN
vt 0 NaN
vt 0 NaN
vt 0 NaN
vt 0 NaN
vt 0 NaN
vt 0 NaN
vt 0 NaN
vt 0 NaN
vt 0 NaN
vt 0 NaN
vt 0 NaN
vt 0 NaN
vt 0 NaN
vt 0 NaN
vt 0 NaN
vt 0 NaN
vt 0 NaN
vt 0 NaN
vt 0 NaN
vt 0 NaN
vt 0 NaN
vt 0 NaN
vt 0 NaN
vt 0 NaN
vt 0 NaN
vt 0 NaN
vt 0 NaN
vt 0 NaN
vt 0 NaN
vt 0 NaN
vt 0 NaN
vt 0 NaN
vt 0 NaN
vt 0 NaN
vt 0 NaN
vt 0 NaN
vt 0 NaN
vt 0 NaN
vt 0 NaN
vt 0 NaN
vt 0 NaN
vt 0 NaN
vt 0 NaN
vt 0 NaN
vt 0 NaN
vt 0 NaN
vt 0 NaN
vt 0 NaN
vt 0 NaN
vt 0 NaN
vt 0 NaN
vt 0 NaN
vt 0 NaN
vt 0 NaN
vt 0 NaN
vt 0 NaN
vt 0 NaN
vt 0 NaN
vt 0 NaN
vt 0 NaN
vt 0 NaN
vt 0 NaN
vt 0 NaN
vt 0 NaN
vt 0 NaN
vt 0 NaN
vt 0 NaN
vt 0 NaN
vt 0 NaN
vt 0 NaN
vt 0 NaN
vt 0 NaN
vt 0 NaN
vt 0 NaN
vt 0 NaN
vt 0 NaN
vt 0 NaN
vt 0 NaN
vt 0 NaN
vt 0 NaN
vt 0 NaN
vt 0 NaN
vt 0 NaN
vt 0 NaN
vt 0 NaN
vt 0 NaN
vt 0 NaN
vt 0 NaN
vt 0 NaN
vt 0 NaN
vt 0 NaN
vt 0 NaN
vt 0 NaN
vt 0 NaN
vt 0 NaN
vt 0 NaN
vt 0 NaN
vt 0 NaN
vt 0 NaN
vt 0 NaN
vt 0 NaN
vt 0 NaN
vt 0 NaN
vt 0 NaN
vt 0 NaN
vt 0 NaN
vt 0 NaN
vt 0 NaN
vt 0 NaN
vt 0 NaN
vt 0 NaN
vt 0 NaN
vt 0 NaN
vt 0 NaN
vt 0 NaN
vt 0 NaN
vt 0 NaN
vt 0 NaN
vt 0 NaN
vt 0 NaN
vt 0 NaN
vt 0 NaN
vt 0 NaN
vt 0 NaN
vt 0 NaN
vt 0 NaN
vt 0 NaN
vt 0 NaN
vt 0 NaN
vt 0 NaN
vt 0 NaN
vt 0 NaN
vt 0 NaN
vt 0 NaN
vt 0 NaN
vt 0 NaN
vt 0 NaN
vt 0 NaN
vt 0 NaN
vt 0 NaN
vt 0 NaN
vt 0 NaN
vt 0 NaN
vt 0 NaN
vt 0 NaN
vt 0 NaN
vt 0 NaN
vt 0 NaN
vt 0 NaN
vt 0 NaN
vt 0 NaN
vt 0 NaN
vt 0 NaN
vt 0 NaN
vt 0 NaN
vt 0 NaN
vt 0 NaN
vt 0 NaN
vt 0 NaN
vt 0 NaN
vt 0 NaN
vt 0 NaN
vt 0 NaN
vt 0 NaN
vt 0 NaN
vt 0 NaN
vt 0 NaN
vt 0 NaN
vt 0 NaN
vt 0 NaN
vt 0 NaN
vt 0 NaN
vt 0 NaN
vt 0 NaN
vt 0 NaN
vt 0 NaN
vt 0 NaN
vt 0 NaN
vt 0 NaN
vt 0 NaN
vt 0 NaN
vt 0 NaN
vt 0 NaN
vt 0 NaN
vt 0 NaN
vt 0 NaN
vt 0 NaN
vt 0 NaN
vt 0 NaN
vt 0 NaN
vt 0 NaN
vt 0 NaN
vt 0 NaN
vt 0 NaN
vt 0 NaN
vt 0 NaN
vt 0 NaN
vt 0 NaN
vt 0 NaN
vt 0 NaN
vt 0 NaN
vt 0 NaN
vt 0 NaN
vt 0 NaN
vt 0 NaN
vt 0 NaN
vt 0 NaN
vt 0 NaN
vt 0 NaN
vt 0 NaN
vt 0 NaN
vt 0 NaN
vt 0 NaN
vt 0 NaN
vt 0 NaN
vt 0 NaN
vt 0 NaN
vt 0 NaN
vt 0 NaN
vt 0 NaN
vt 0 NaN
vt 0 NaN
vt 0 NaN
vt 0 NaN
vt 0 NaN
vt 0 NaN
vt 0 NaN
vt 0 NaN
vt 0 NaN
vt 0 NaN
vt 0 NaN
vt 0 NaN
vt 0 NaN
vt 0 NaN
vt 0 NaN
vt 0 NaN
vt 0 NaN
vt 0 NaN
vt 0 NaN
vt 0 NaN
vt 0 NaN
vt 0 NaN
vt 0 NaN
vt 0 NaN
vt 0 NaN
vt 0 NaN
vt 0 NaN
vt 0 NaN
vt 0 NaN
vt 0 NaN
vt 0 NaN
vt 0 NaN
vt 0 NaN
vt 0 NaN
vt 0 NaN
vt 0 NaN
vt 0 NaN
vt 0 NaN
vt 0 NaN
vt 0 NaN
vt 0 NaN
vt 0 NaN
vt 0 NaN
vt 0 NaN
vt 0 NaN
vt 0 NaN
vt 0 NaN
vt 0 NaN
vt 0 NaN
vt 0 NaN
vt 0 NaN
vt 0 NaN
vt 0 NaN
vt 0 NaN
vt 0 NaN
vt 0 NaN
vt 0 NaN
vt 0 NaN
vt 0 NaN
vt 0 NaN
vt 0 NaN
vt 0 NaN
vt 0 NaN
vt 0 NaN
vt 0 NaN
vt 0 NaN
vt 0 NaN
vt 0 NaN
vt 0 NaN
vt 0 NaN
vt 0 NaN
vt 0 NaN
vt 0 NaN
vt 0 NaN
vt 0 NaN
vt 0 NaN
vt 0 NaN
vt 0 NaN
vt 0 NaN
vt 0 NaN
vt 0 NaN
vt 0 NaN
vt 0 NaN
vt 0 NaN
vt 0 NaN
vt 0 NaN
vt 0 NaN

usemtl color8

f 3/3/1 2/2/1 1/1/1
f 2/3/1 3/2/1 4/1/1
f 5/3/2 3/2/2 1/1/2
f 3/3/2 5/2/2 6/1/2
f 7/5/3 2/5/3 4/4/3
f 2/5/3 7/5/3 8/6/3
f 7/5/4 5/5/4 8/7/4
f 5/5/4 7/5/4 6/8/4
f 5/5/5 2/5/5 8/9/5
f 2/5/5 5/5/5 1/10/5
f 3/2/6 7/3/6 4/11/6
f 7/3/6 3/2/6 6/1/6
f 11/3/1 10/2/1 9/1/1
f 10/3/1 11/2/1 12/1/1
f 13/3/2 11/2/2 9/1/2
f 11/3/2 13/2/2 14/1/2
f 15/5/3 10/5/3 12/12/3
f 10/5/3 15/5/3 16/13/3
f 15/5/4 13/5/4 16/14/4
f 13/5/4 15/5/4 14/15/4
f 13/5/5 10/5/5 16/16/5
f 10/5/5 13/5/5 9/17/5
f 11/2/6 15/3/6 12/11/6
f 15/3/6 11/2/6 14/1/6
f 3/3/1 2/2/1 1/1/1
f 2/3/1 3/2/1 4/1/1
f 5/3/2 3/2/2 1/1/2
f 3/3/2 5/2/2 6/1/2
f 7/5/3 2/5/3 4/4/3
f 2/5/3 7/5/3 8/6/3
f 7/5/4 5/5/4 8/7/4
f 5/5/4 7/5/4 6/8/4
f 5/5/5 2/5/5 8/9/5
f 2/5/5 5/5/5 1/10/5
f 3/2/6 7/3/6 4/11/6
f 7/3/6 3/2/6 6/1/6
f 19/3/1 18/2/1 17/1/1
f 18/3/1 19/2/1 20/1/1
f 21/3/2 19/2/2 17/1/2
f 19/3/2 21/2/2 22/1/2
f 23/5/3 18/5/3 20/18/3
f 18/5/3 23/5/3 24/19/3
f 23/5/4 21/5/4 24/20/4
f 21/5/4 23/5/4 22/21/4
f 21/5/5 18/5/5 24/22/5
f 18/5/5 21/5/5 17/23/5
f 19/2/6 23/3/6 20/11/6
f 23/3/6 19/2/6 22/1/6
f 27/3/1 26/2/1 25/1/1
f 26/3/1 27/2/1 28/1/1
f 18/3/2 27/2/2 25/1/2
f 27/3/2 18/2/2 20/1/2
f 29/5/3 26/5/3 28/24/3
f 26/5/3 29/5/3 30/25/3
f 29/5/4 18/5/4 30/26/4
f 18/5/4 29/5/4 20/27/4
f 18/5/5 26/5/5 30/28/5
f 26/5/5 18/5/5 25/29/5
f 27/2/6 29/3/6 28/11/6
f 29/3/6 27/2/6 20/1/6
f 33/3/1 32/2/1 31/1/1
f 32/3/1 33/2/1 34/1/1
f 35/3/2 33/2/2 31/1/2
f 33/3/2 35/2/2 36/1/2
f 37/5/3 32/5/3 34/30/3
f 32/5/3 37/5/3 38/31/3
f 37/5/4 35/5/4 38/32/4
f 35/5/4 37/5/4 36/33/4
f 35/5/5 32/5/5 38/34/5
f 32/5/5 35/5/5 31/35/5
f 33/2/6 37/3/6 34/11/6
f 37/3/6 33/2/6 36/1/6
f 41/3/1 40/2/1 39/1/1
f 40/3/1 41/2/1 42/1/1
f 43/3/2 41/2/2 39/1/2
f 41/3/2 43/2/2 44/1/2
f 45/5/3 40/5/3 42/36/3
f 40/5/3 45/5/3 46/37/3
f 45/5/4 43/5/4 46/38/4
f 43/5/4 45/5/4 44/39/4
f 43/5/5 40/5/5 46/40/5
f 40/5/5 43/5/5 39/41/5
f 41/2/6 45/3/6 42/11/6
f 45/3/6 41/2/6 44/1/6

usemtl color7

f 49/3/1 48/2/1 47/1/1
f 48/3/1 49/2/1 50/1/1
f 51/3/2 49/2/2 47/1/2
f 49/3/2 51/2/2 52/1/2
f 53/5/3 48/5/3 50/42/3
f 48/5/3 53/5/3 54/43/3
f 53/5/4 51/5/4 54/44/4
f 51/5/4 53/5/4 52/45/4
f 51/5/5 48/5/5 54/46/5
f 48/5/5 51/5/5 47/47/5
f 49/2/6 53/3/6 50/11/6
f 53/3/6 49/2/6 52/1/6
f 57/3/1 56/2/1 55/1/1
f 56/3/1 57/2/1 58/1/1
f 2/3/2 57/2/2 55/1/2
f 57/3/2 2/2/2 4/1/2
f 59/5/3 56/5/3 58/48/3
f 56/5/3 59/5/3 60/49/3
f 59/5/4 2/5/4 60/50/4
f 2/5/4 59/5/4 4/51/4
f 2/5/5 56/5/5 60/52/5
f 56/5/5 2/5/5 55/53/5
f 57/2/6 59/3/6 58/11/6
f 59/3/6 57/2/6 4/1/6
f 63/3/1 62/2/1 61/1/1
f 62/3/1 63/2/1 64/1/1
f 65/3/2 63/2/2 61/1/2
f 63/3/2 65/2/2 66/1/2
f 67/5/3 62/5/3 64/54/3
f 62/5/3 67/5/3 68/55/3
f 67/5/4 65/5/4 68/56/4
f 65/5/4 67/5/4 66/57/4
f 65/5/5 62/5/5 68/58/5
f 62/5/5 65/5/5 61/59/5
f 63/2/6 67/3/6 64/11/6
f 67/3/6 63/2/6 66/1/6
f 71/3/1 70/2/1 69/1/1
f 70/3/1 71/2/1 72/1/1
f 56/3/2 71/2/2 69/1/2
f 71/3/2 56/2/2 58/1/2
f 73/5/3 70/5/3 72/60/3
f 70/5/3 73/5/3 74/61/3
f 73/5/4 56/5/4 74/62/4
f 56/5/4 73/5/4 58/63/4
f 56/5/5 70/5/5 74/64/5
f 70/5/5 56/5/5 69/65/5
f 71/2/6 73/3/6 72/11/6
f 73/3/6 71/2/6 58/1/6
f 28/3/1 75/2/1 26/1/1
f 75/3/1 28/2/1 76/1/1
f 30/3/2 28/2/2 26/1/2
f 28/3/2 30/2/2 29/1/2
f 77/5/3 75/5/3 76/66/3
f 75/5/3 77/5/3 78/67/3
f 77/5/4 30/26/4 78/68/4
f 30/26/4 77/5/4 29/5/4
f 30/28/5 75/5/5 78/69/5
f 75/5/5 30/28/5 26/5/5
f 28/2/6 77/3/6 76/11/6
f 77/3/6 28/2/6 29/1/6
f 81/3/1 80/2/1 79/1/1
f 80/3/1 81/2/1 82/1/1
f 83/3/2 81/2/2 79/1/2
f 81/3/2 83/2/2 84/1/2
f 85/5/3 80/5/3 82/70/3
f 80/5/3 85/5/3 86/71/3
f 85/5/4 83/5/4 86/72/4
f 83/5/4 85/5/4 84/73/4
f 83/5/5 80/5/5 86/74/5
f 80/5/5 83/5/5 79/75/5
f 81/2/6 85/3/6 82/11/6
f 85/3/6 81/2/6 84/1/6

usemtl color6

f 88/3/1 31/2/1 87/1/1
f 31/3/1 88/2/1 33/1/1
f 89/3/2 88/2/2 87/1/2
f 88/3/2 89/2/2 90/1/2
f 36/5/3 31/5/3 33/76/3
f 31/5/3 36/5/3 35/77/3
f 36/33/4 89/5/4 35/5/4
f 89/5/4 36/33/4 90/78/4
f 89/5/5 31/35/5 35/5/5
f 31/35/5 89/5/5 87/79/5
f 88/2/6 36/3/6 33/11/6
f 36/3/6 88/2/6 90/1/6
f 92/3/1 39/2/1 91/1/1
f 39/3/1 92/2/1 41/1/1
f 93/3/2 92/2/2 91/1/2
f 92/3/2 93/2/2 94/1/2
f 44/5/3 39/5/3 41/80/3
f 39/5/3 44/5/3 43/81/3
f 44/39/4 93/5/4 43/5/4
f 93/5/4 44/39/4 94/82/4
f 93/5/5 39/41/5 43/5/5
f 39/41/5 93/5/5 91/83/5
f 92/2/6 44/3/6 41/11/6
f 44/3/6 92/2/6 94/1/6
f 97/3/1 96/2/1 95/1/1
f 96/3/1 97/2/1 98/1/1
f 99/3/2 97/2/2 95/1/2
f 97/3/2 99/2/2 100/1/2
f 101/5/3 96/5/3 98/84/3
f 96/5/3 101/5/3 102/85/3
f 101/5/4 99/5/4 102/86/4
f 99/5/4 101/5/4 100/87/4
f 99/5/5 96/5/5 102/88/5
f 96/5/5 99/5/5 95/89/5
f 97/2/6 101/3/6 98/11/6
f 101/3/6 97/2/6 100/1/6
f 36/3/1 38/2/1 35/1/1
f 38/3/1 36/2/1 37/1/1
f 39/3/2 36/2/2 35/1/2
f 36/3/2 39/2/2 41/1/2
f 42/36/3 38/31/3 37/5/3
f 38/31/3 42/36/3 40/5/3
f 42/5/4 39/5/4 40/90/4
f 39/5/4 42/5/4 41/91/4
f 39/41/5 38/34/5 40/5/5
f 38/34/5 39/41/5 35/5/5
f 36/2/6 42/3/6 37/11/6
f 42/3/6 36/2/6 41/1/6
f 64/3/1 103/2/1 62/1/1
f 103/3/1 64/2/1 104/1/1
f 68/3/2 64/2/2 62/1/2
f 64/3/2 68/2/2 67/1/2
f 105/5/3 103/5/3 104/92/3
f 103/5/3 105/5/3 106/93/3
f 105/5/4 68/56/4 106/94/4
f 68/56/4 105/5/4 67/5/4
f 68/58/5 103/5/5 106/95/5
f 103/5/5 68/58/5 62/5/5
f 64/2/6 105/3/6 104/11/6
f 105/3/6 64/2/6 67/1/6
f 109/3/1 108/2/1 107/1/1
f 108/3/1 109/2/1 110/1/1
f 96/3/2 109/2/2 107/1/2
f 109/3/2 96/2/2 98/1/2
f 111/5/3 108/5/3 110/96/3
f 108/5/3 111/5/3 112/97/3
f 111/5/4 96/5/4 112/98/4
f 96/5/4 111/5/4 98/99/4
f 96/5/5 108/5/5 112/100/5
f 108/5/5 96/5/5 107/101/5
f 109/2/6 111/3/6 110/11/6
f 111/3/6 109/2/6 98/1/6
f 76/3/1 113/2/1 75/1/1
f 113/3/1 76/2/1 114/1/1
f 78/3/2 76/2/2 75/1/2
f 76/3/2 78/2/2 77/1/2
f 115/5/3 113/5/3 114/102/3
f 113/5/3 115/5/3 116/103/3
f 115/5/4 78/68/4 116/104/4
f 78/68/4 115/5/4 77/5/4
f 78/69/5 113/5/5 116/105/5
f 113/5/5 78/69/5 75/5/5
f 76/2/6 115/3/6 114/11/6
f 115/3/6 76/2/6 77/1/6
f 115/3/1 117/2/1 116/1/1
f 117/3/1 115/2/1 118/1/1
f 119/3/2 115/2/2 116/1/2
f 115/3/2 119/2/2 120/1/2
f 121/5/3 117/5/3 118/106/3
f 117/5/3 121/5/3 122/107/3
f 121/5/4 119/5/4 122/108/4
f 119/5/4 121/5/4 120/109/4
f 119/5/5 117/5/5 122/110/5
f 117/5/5 119/5/5 116/105/5
f 115/2/6 121/3/6 118/11/6
f 121/3/6 115/2/6 120/1/6

usemtl color9

f 125/3/1 124/2/1 123/1/1
f 124/3/1 125/2/1 126/1/1
f 127/3/2 125/2/2 123/1/2
f 125/3/2 127/2/2 128/1/2
f 129/5/3 124/5/3 126/111/3
f 124/5/3 129/5/3 130/112/3
f 129/5/4 127/5/4 130/113/4
f 127/5/4 129/5/4 128/114/4
f 127/5/5 124/5/5 130/115/5
f 124/5/5 127/5/5 123/116/5
f 125/2/6 129/3/6 126/11/6
f 129/3/6 125/2/6 128/1/6

usemtl color3

f 133/3/1 132/2/1 131/1/1
f 132/3/1 133/2/1 134/1/1
f 135/3/2 133/2/2 131/1/2
f 133/3/2 135/2/2 136/1/2
f 137/5/3 132/5/3 134/117/3
f 132/5/3 137/5/3 138/118/3
f 137/5/4 135/5/4 138/119/4
f 135/5/4 137/5/4 136/120/4
f 135/5/5 132/5/5 138/121/5
f 132/5/5 135/5/5 131/122/5
f 133/2/6 137/3/6 134/11/6
f 137/3/6 133/2/6 136/1/6
f 141/3/1 140/2/1 139/1/1
f 140/3/1 141/2/1 142/1/1
f 143/3/2 141/2/2 139/1/2
f 141/3/2 143/2/2 144/1/2
f 145/5/3 140/5/3 142/123/3
f 140/5/3 145/5/3 146/124/3
f 145/5/4 143/5/4 146/125/4
f 143/5/4 145/5/4 144/126/4
f 143/5/5 140/5/5 146/127/5
f 140/5/5 143/5/5 139/128/5
f 141/2/6 145/3/6 142/11/6
f 145/3/6 141/2/6 144/1/6
f 110/3/1 147/2/1 108/1/1
f 147/3/1 110/2/1 148/1/1
f 112/3/2 110/2/2 108/1/2
f 110/3/2 112/2/2 111/1/2
f 149/5/3 147/5/3 148/129/3
f 147/5/3 149/5/3 150/130/3
f 149/5/4 112/98/4 150/131/4
f 112/98/4 149/5/4 111/5/4
f 112/100/5 147/5/5 150/132/5
f 147/5/5 112/100/5 108/5/5
f 110/2/6 149/3/6 148/11/6
f 149/3/6 110/2/6 111/1/6
f 153/3/1 152/2/1 151/1/1
f 152/3/1 153/2/1 154/1/1
f 155/3/2 153/2/2 151/1/2
f 153/3/2 155/2/2 156/1/2
f 157/5/3 152/5/3 154/133/3
f 152/5/3 157/5/3 158/134/3
f 157/5/4 155/5/4 158/135/4
f 155/5/4 157/5/4 156/136/4
f 155/5/5 152/5/5 158/137/5
f 152/5/5 155/5/5 151/138/5
f 153/2/6 157/3/6 154/11/6
f 157/3/6 153/2/6 156/1/6
f 161/3/1 160/2/1 159/1/1
f 160/3/1 161/2/1 162/1/1
f 163/3/2 161/2/2 159/1/2
f 161/3/2 163/2/2 164/1/2
f 165/5/3 160/5/3 162/139/3
f 160/5/3 165/5/3 166/140/3
f 165/5/4 163/5/4 166/141/4
f 163/5/4 165/5/4 164/142/4
f 163/5/5 160/5/5 166/143/5
f 160/5/5 163/5/5 159/144/5
f 161/2/6 165/3/6 162/11/6
f 165/3/6 161/2/6 164/1/6
f 169/3/1 168/2/1 167/1/1
f 168/3/1 169/2/1 170/1/1
f 171/3/2 169/2/2 167/1/2
f 169/3/2 171/2/2 172/1/2
f 173/5/3 168/5/3 170/145/3
f 168/5/3 173/5/3 174/146/3
f 173/5/4 171/5/4 174/147/4
f 171/5/4 173/5/4 172/148/4
f 171/5/5 168/5/5 174/149/5
f 168/5/5 171/5/5 167/150/5
f 169/2/6 173/3/6 170/11/6
f 173/3/6 169/2/6 172/1/6
f 177/3/1 176/2/1 175/1/1
f 176/3/1 177/2/1 178/1/1
f 179/3/2 177/2/2 175/1/2
f 177/3/2 179/2/2 180/1/2
f 181/5/3 176/5/3 178/151/3
f 176/5/3 181/5/3 182/152/3
f 181/5/4 179/5/4 182/153/4
f 179/5/4 181/5/4 180/154/4
f 179/5/5 176/5/5 182/155/5
f 176/5/5 179/5/5 175/156/5
f 177/2/6 181/3/6 178/11/6
f 181/3/6 177/2/6 180/1/6
f 185/3/1 184/2/1 183/1/1
f 184/3/1 185/2/1 186/1/1
f 187/3/2 185/2/2 183/1/2
f 185/3/2 187/2/2 188/1/2
f 189/5/3 184/5/3 186/157/3
f 184/5/3 189/5/3 190/158/3
f 189/5/4 187/5/4 190/159/4
f 187/5/4 189/5/4 188/160/4
f 187/5/5 184/5/5 190/161/5
f 184/5/5 187/5/5 183/162/5
f 185/2/6 189/3/6 186/11/6
f 189/3/6 185/2/6 188/1/6
f 165/3/1 191/2/1 166/1/1
f 191/3/1 165/2/1 192/1/1
f 168/3/2 165/2/2 166/1/2
f 165/3/2 168/2/2 170/1/2
f 193/5/3 191/5/3 192/163/3
f 191/5/3 193/5/3 194/164/3
f 193/5/4 168/5/4 194/165/4
f 168/5/4 193/5/4 170/166/4
f 168/5/5 191/5/5 194/167/5
f 191/5/5 168/5/5 166/143/5
f 165/2/6 193/3/6 192/11/6
f 193/3/6 165/2/6 170/1/6
f 173/3/1 195/2/1 174/1/1
f 195/3/1 173/2/1 196/1/1
f 176/3/2 173/2/2 174/1/2
f 173/3/2 176/2/2 178/1/2
f 197/5/3 195/5/3 196/168/3
f 195/5/3 197/5/3 198/169/3
f 197/5/4 176/5/4 198/170/4
f 176/5/4 197/5/4 178/171/4
f 176/5/5 195/5/5 198/172/5
f 195/5/5 176/5/5 174/149/5
f 173/2/6 197/3/6 196/11/6
f 197/3/6 173/2/6 178/1/6
f 201/3/1 200/2/1 199/1/1
f 200/3/1 201/2/1 202/1/1
f 203/3/2 201/2/2 199/1/2
f 201/3/2 203/2/2 204/1/2
f 205/5/3 200/5/3 202/173/3
f 200/5/3 205/5/3 206/174/3
f 205/5/4 203/5/4 206/175/4
f 203/5/4 205/5/4 204/176/4
f 203/5/5 200/5/5 206/177/5
f 200/5/5 203/5/5 199/178/5
f 201/2/6 205/3/6 202/11/6
f 205/3/6 201/2/6 204/1/6
f 209/3/1 208/2/1 207/1/1
f 208/3/1 209/2/1 210/1/1
f 191/3/2 209/2/2 207/1/2
f 209/3/2 191/2/2 192/1/2
f 211/5/3 208/5/3 210/179/3
f 208/5/3 211/5/3 212/180/3
f 211/5/4 191/5/4 212/181/4
f 191/5/4 211/5/4 192/182/4
f 191/5/5 208/5/5 212/183/5
f 208/5/5 191/5/5 207/184/5
f 209/2/6 211/3/6 210/11/6
f 211/3/6 209/2/6 192/1/6
f 193/3/1 213/2/1 194/1/1
f 213/3/1 193/2/1 214/1/1
f 195/3/2 193/2/2 194/1/2
f 193/3/2 195/2/2 196/1/2
f 215/5/3 213/5/3 214/185/3
f 213/5/3 215/5/3 216/186/3
f 215/5/4 195/5/4 216/187/4
f 195/5/4 215/5/4 196/188/4
f 195/5/5 213/5/5 216/189/5
f 213/5/5 195/5/5 194/167/5
f 193/2/6 215/3/6 214/11/6
f 215/3/6 193/2/6 196/1/6
f 197/3/1 217/2/1 198/1/1
f 217/3/1 197/2/1 218/1/1
f 219/3/2 197/2/2 198/1/2
f 197/3/2 219/2/2 220/1/2
f 221/5/3 217/5/3 218/190/3
f 217/5/3 221/5/3 222/191/3
f 221/5/4 219/5/4 222/192/4
f 219/5/4 221/5/4 220/193/4
f 219/5/5 217/5/5 222/194/5
f 217/5/5 219/5/5 198/172/5
f 197/2/6 221/3/6 218/11/6
f 221/3/6 197/2/6 220/1/6
f 225/3/1 224/2/1 223/1/1
f 224/3/1 225/2/1 226/1/1
f 227/3/2 225/2/2 223/1/2
f 225/3/2 227/2/2 228/1/2
f 229/5/3 224/5/3 226/195/3
f 224/5/3 229/5/3 230/196/3
f 229/5/4 227/5/4 230/197/4
f 227/5/4 229/5/4 228/198/4
f 227/5/5 224/5/5 230/199/5
f 224/5/5 227/5/5 223/200/5
f 225/2/6 229/3/6 226/11/6
f 229/3/6 225/2/6 228/1/6
f 211/3/1 231/2/1 212/1/1
f 231/3/1 211/2/1 232/1/1
f 213/3/2 211/2/2 212/1/2
f 211/3/2 213/2/2 214/1/2
f 233/5/3 231/5/3 232/201/3
f 231/5/3 233/5/3 234/202/3
f 233/5/4 213/5/4 234/203/4
f 213/5/4 233/5/4 214/204/4
f 213/5/5 231/5/5 234/205/5
f 231/5/5 213/5/5 212/183/5
f 211/2/6 233/3/6 232/11/6
f 233/3/6 211/2/6 214/1/6
f 215/3/1 235/2/1 216/1/1
f 235/3/1 215/2/1 236/1/1
f 217/3/2 215/2/2 216/1/2
f 215/3/2 217/2/2 218/1/2
f 237/5/3 235/5/3 236/206/3
f 235/5/3 237/5/3 238/207/3
f 237/5/4 217/5/4 238/208/4
f 217/5/4 237/5/4 218/209/4
f 217/5/5 235/5/5 238/210/5
f 235/5/5 217/5/5 216/189/5
f 215/2/6 237/3/6 236/11/6
f 237/3/6 215/2/6 218/1/6
f 241/3/1 240/2/1 239/1/1
f 240/3/1 241/2/1 242/1/1
f 243/3/2 241/2/2 239/1/2
f 241/3/2 243/2/2 244/1/2
f 245/5/3 240/5/3 242/211/3
f 240/5/3 245/5/3 246/212/3
f 245/5/4 243/5/4 246/213/4
f 243/5/4 245/5/4 244/214/4
f 243/5/5 240/5/5 246/215/5
f 240/5/5 243/5/5 239/216/5
f 241/2/6 245/3/6 242/11/6
f 245/3/6 241/2/6 244/1/6
f 249/3/1 248/2/1 247/1/1
f 248/3/1 249/2/1 250/1/1
f 231/3/2 249/2/2 247/1/2
f 249/3/2 231/2/2 232/1/2
f 251/5/3 248/5/3 250/217/3
f 248/5/3 251/5/3 252/218/3
f 251/5/4 231/5/4 252/219/4
f 231/5/4 251/5/4 232/220/4
f 231/5/5 248/5/5 252/221/5
f 248/5/5 231/5/5 247/222/5
f 249/2/6 251/3/6 250/11/6
f 251/3/6 249/2/6 232/1/6
f 233/3/1 253/2/1 234/1/1
f 253/3/1 233/2/1 254/1/1
f 235/3/2 233/2/2 234/1/2
f 233/3/2 235/2/2 236/1/2
f 255/5/3 253/5/3 254/223/3
f 253/5/3 255/5/3 256/224/3
f 255/5/4 235/5/4 256/225/4
f 235/5/4 255/5/4 236/226/4
f 235/5/5 253/5/5 256/227/5
f 253/5/5 235/5/5 234/205/5
f 233/2/6 255/3/6 254/11/6
f 255/3/6 233/2/6 236/1/6
f 237/3/1 257/2/1 238/1/1
f 257/3/1 237/2/1 258/1/1
f 259/3/2 237/2/2 238/1/2
f 237/3/2 259/2/2 260/1/2
f 261/5/3 257/5/3 258/228/3
f 257/5/3 261/5/3 262/229/3
f 261/5/4 259/5/4 262/230/4
f 259/5/4 261/5/4 260/231/4
f 259/5/5 257/5/5 262/232/5
f 257/5/5 259/5/5 238/210/5
f 237/2/6 261/3/6 258/11/6
f 261/3/6 237/2/6 260/1/6

usemtl color5

f 265/3/1 264/2/1 263/1/1
f 264/3/1 265/2/1 266/1/1
f 267/3/2 265/2/2 263/1/2
f 265/3/2 267/2/2 268/1/2
f 269/5/3 264/5/3 266/233/3
f 264/5/3 269/5/3 270/234/3
f 269/5/4 267/5/4 270/235/4
f 267/5/4 269/5/4 268/236/4
f 267/5/5 264/5/5 270/237/5
f 264/5/5 267/5/5 263/238/5
f 265/2/6 269/3/6 266/11/6
f 269/3/6 265/2/6 268/1/6
f 273/3/1 272/2/1 271/1/1
f 272/3/1 273/2/1 274/1/1
f 275/3/2 273/2/2 271/1/2
f 273/3/2 275/2/2 276/1/2
f 277/5/3 272/5/3 274/239/3
f 272/5/3 277/5/3 278/240/3
f 277/5/4 275/5/4 278/241/4
f 275/5/4 277/5/4 276/242/4
f 275/5/5 272/5/5 278/243/5
f 272/5/5 275/5/5 271/244/5
f 273/2/6 277/3/6 274/11/6
f 277/3/6 273/2/6 276/1/6
f 281/3/1 280/2/1 279/1/1
f 280/3/1 281/2/1 282/1/1
f 283/3/2 281/2/2 279/1/2
f 281/3/2 283/2/2 284/1/2
f 285/5/3 280/5/3 282/245/3
f 280/5/3 285/5/3 286/246/3
f 285/5/4 283/5/4 286/247/4
f 283/5/4 285/5/4 284/248/4
f 283/5/5 280/5/5 286/249/5
f 280/5/5 283/5/5 279/250/5
f 281/2/6 285/3/6 282/11/6
f 285/3/6 281/2/6 284/1/6
f 289/3/1 288/2/1 287/1/1
f 288/3/1 289/2/1 290/1/1
f 291/3/2 289/2/2 287/1/2
f 289/3/2 291/2/2 292/1/2
f 293/5/3 288/5/3 290/251/3
f 288/5/3 293/5/3 294/252/3
f 293/5/4 291/5/4 294/253/4
f 291/5/4 293/5/4 292/254/4
f 291/5/5 288/5/5 294/255/5
f 288/5/5 291/5/5 287/256/5
f 289/2/6 293/3/6 290/11/6
f 293/3/6 289/2/6 292/1/6
f 297/3/1 296/2/1 295/1/1
f 296/3/1 297/2/1 298/1/1
f 299/3/2 297/2/2 295/1/2
f 297/3/2 299/2/2 300/1/2
f 301/5/3 296/5/3 298/257/3
f 296/5/3 301/5/3 302/258/3
f 301/5/4 299/5/4 302/259/4
f 299/5/4 301/5/4 300/260/4
f 299/5/5 296/5/5 302/261/5
f 296/5/5 299/5/5 295/262/5
f 297/2/6 301/3/6 298/11/6
f 301/3/6 297/2/6 300/1/6
f 305/3/1 304/2/1 303/1/1
f 304/3/1 305/2/1 306/1/1
f 307/3/2 305/2/2 303/1/2
f 305/3/2 307/2/2 308/1/2
f 309/5/3 304/5/3 306/263/3
f 304/5/3 309/5/3 310/264/3
f 309/5/4 307/5/4 310/265/4
f 307/5/4 309/5/4 308/266/4
f 307/5/5 304/5/5 310/267/5
f 304/5/5 307/5/5 303/268/5
f 305/2/6 309/3/6 306/11/6
f 309/3/6 305/2/6 308/1/6
f 313/3/1 312/2/1 311/1/1
f 312/3/1 313/2/1 314/1/1
f 315/3/2 313/2/2 311/1/2
f 313/3/2 315/2/2 316/1/2
f 317/5/3 312/5/3 314/269/3
f 312/5/3 317/5/3 318/270/3
f 317/5/4 315/5/4 318/271/4
f 315/5/4 317/5/4 316/272/4
f 315/5/5 312/5/5 318/273/5
f 312/5/5 315/5/5 311/274/5
f 313/2/6 317/3/6 314/11/6
f 317/3/6 313/2/6 316/1/6
f 321/3/1 320/2/1 319/1/1
f 320/3/1 321/2/1 322/1/1
f 323/3/2 321/2/2 319/1/2
f 321/3/2 323/2/2 324/1/2
f 325/5/3 320/5/3 322/275/3
f 320/5/3 325/5/3 326/276/3
f 325/5/4 323/5/4 326/277/4
f 323/5/4 325/5/4 324/278/4
f 323/5/5 320/5/5 326/279/5
f 320/5/5 323/5/5 319/280/5
f 321/2/6 325/3/6 322/11/6
f 325/3/6 321/2/6 324/1/6
f 329/3/1 328/2/1 327/1/1
f 328/3/1 329/2/1 330/1/1
f 331/3/2 329/2/2 327/1/2
f 329/3/2 331/2/2 332/1/2
f 333/5/3 328/5/3 330/281/3
f 328/5/3 333/5/3 334/282/3
f 333/5/4 331/5/4 334/283/4
f 331/5/4 333/5/4 332/284/4
f 331/5/5 328/5/5 334/285/5
f 328/5/5 331/5/5 327/286/5
f 329/2/6 333/3/6 330/11/6
f 333/3/6 329/2/6 332/1/6

usemtl color2

f 337/3/1 336/2/1 335/1/1
f 336/3/1 337/2/1 338/1/1
f 339/3/2 337/2/2 335/1/2
f 337/3/2 339/2/2 340/1/2
f 341/5/3 336/5/3 338/287/3
f 336/5/3 341/5/3 342/288/3
f 341/5/4 339/5/4 342/289/4
f 339/5/4 341/5/4 340/290/4
f 339/5/5 336/5/5 342/291/5
f 336/5/5 339/5/5 335/292/5
f 337/2/6 341/3/6 338/11/6
f 341/3/6 337/2/6 340/1/6
f 266/3/1 163/2/1 264/1/1
f 163/3/1 266/2/1 164/1/1
f 270/3/2 266/2/2 264/1/2
f 266/3/2 270/2/2 269/1/2
f 169/5/3 163/5/3 164/293/3
f 163/5/3 169/5/3 167/294/3
f 169/5/4 270/235/4 167/295/4
f 270/235/4 169/5/4 269/5/4
f 270/237/5 163/5/5 167/150/5
f 163/5/5 270/237/5 264/5/5
f 266/2/6 169/3/6 164/11/6
f 169/3/6 266/2/6 269/1/6
f 274/3/1 171/2/1 272/1/1
f 171/3/1 274/2/1 172/1/1
f 278/3/2 274/2/2 272/1/2
f 274/3/2 278/2/2 277/1/2
f 177/5/3 171/5/3 172/296/3
f 171/5/3 177/5/3 175/297/3
f 177/5/4 278/241/4 175/298/4
f 278/241/4 177/5/4 277/5/4
f 278/243/5 171/5/5 175/156/5
f 171/5/5 278/243/5 272/5/5
f 274/2/6 177/3/6 172/11/6
f 177/3/6 274/2/6 277/1/6
f 345/3/1 344/2/1 343/1/1
f 344/3/1 345/2/1 346/1/1
f 347/3/2 345/2/2 343/1/2
f 345/3/2 347/2/2 348/1/2
f 349/5/3 344/5/3 346/299/3
f 344/5/3 349/5/3 350/300/3
f 349/5/4 347/5/4 350/301/4
f 347/5/4 349/5/4 348/302/4
f 347/5/5 344/5/5 350/303/5
f 344/5/5 347/5/5 343/304/5
f 345/2/6 349/3/6 346/11/6
f 349/3/6 345/2/6 348/1/6
f 353/3/1 352/2/1 351/1/1
f 352/3/1 353/2/1 354/1/1
f 355/3/2 353/2/2 351/1/2
f 353/3/2 355/2/2 356/1/2
f 357/5/3 352/5/3 354/305/3
f 352/5/3 357/5/3 358/306/3
f 357/5/4 355/5/4 358/307/4
f 355/5/4 357/5/4 356/308/4
f 355/5/5 352/5/5 358/309/5
f 352/5/5 355/5/5 351/310/5
f 353/2/6 357/3/6 354/11/6
f 357/3/6 353/2/6 356/1/6
f 361/3/1 360/2/1 359/1/1
f 360/3/1 361/2/1 362/1/1
f 363/3/2 361/2/2 359/1/2
f 361/3/2 363/2/2 364/1/2
f 365/5/3 360/5/3 362/311/3
f 360/5/3 365/5/3 366/312/3
f 365/5/4 363/5/4 366/313/4
f 363/5/4 365/5/4 364/314/4
f 363/5/5 360/5/5 366/315/5
f 360/5/5 363/5/5 359/316/5
f 361/2/6 365/3/6 362/11/6
f 365/3/6 361/2/6 364/1/6
f 251/3/1 367/2/1 252/1/1
f 367/3/1 251/2/1 368/1/1
f 253/3/2 251/2/2 252/1/2
f 251/3/2 253/2/2 254/1/2
f 369/5/3 367/5/3 368/317/3
f 367/5/3 369/5/3 370/318/3
f 369/5/4 253/5/4 370/319/4
f 253/5/4 369/5/4 254/320/4
f 253/5/5 367/5/5 370/321/5
f 367/5/5 253/5/5 252/221/5
f 251/2/6 369/3/6 368/11/6
f 369/3/6 251/2/6 254/1/6
f 255/3/1 371/2/1 256/1/1
f 371/3/1 255/2/1 372/1/1
f 257/3/2 255/2/2 256/1/2
f 255/3/2 257/2/2 258/1/2
f 373/5/3 371/5/3 372/322/3
f 371/5/3 373/5/3 374/323/3
f 373/5/4 257/5/4 374/324/4
f 257/5/4 373/5/4 258/325/4
f 257/5/5 371/5/5 374/326/5
f 371/5/5 257/5/5 256/227/5
f 255/2/6 373/3/6 372/11/6
f 373/3/6 255/2/6 258/1/6

usemtl color1

f 134/3/1 375/2/1 132/1/1
f 375/3/1 134/2/1 376/1/1
f 138/3/2 134/2/2 132/1/2
f 134/3/2 138/2/2 137/1/2
f 377/5/3 375/5/3 376/327/3
f 375/5/3 377/5/3 378/328/3
f 377/5/4 138/119/4 378/329/4
f 138/119/4 377/5/4 137/5/4
f 138/121/5 375/5/5 378/330/5
f 375/5/5 138/121/5 132/5/5
f 134/2/6 377/3/6 376/11/6
f 377/3/6 134/2/6 137/1/6
f 338/3/1 379/2/1 336/1/1
f 379/3/1 338/2/1 380/1/1
f 342/3/2 338/2/2 336/1/2
f 338/3/2 342/2/2 341/1/2
f 381/5/3 379/5/3 380/331/3
f 379/5/3 381/5/3 382/332/3
f 381/5/4 342/289/4 382/333/4
f 342/289/4 381/5/4 341/5/4
f 342/291/5 379/5/5 382/334/5
f 379/5/5 342/291/5 336/5/5
f 338/2/6 381/3/6 380/11/6
f 381/3/6 338/2/6 341/1/6
f 142/3/1 383/2/1 140/1/1
f 383/3/1 142/2/1 384/1/1
f 146/3/2 142/2/2 140/1/2
f 142/3/2 146/2/2 145/1/2
f 385/5/3 383/5/3 384/335/3
f 383/5/3 385/5/3 386/336/3
f 385/5/4 146/125/4 386/337/4
f 146/125/4 385/5/4 145/5/4
f 146/127/5 383/5/5 386/338/5
f 383/5/5 146/127/5 140/5/5
f 142/2/6 385/3/6 384/11/6
f 385/3/6 142/2/6 145/1/6
f 389/3/1 388/2/1 387/1/1
f 388/3/1 389/2/1 390/1/1
f 391/3/2 389/2/2 387/1/2
f 389/3/2 391/2/2 392/1/2
f 393/5/3 388/5/3 390/339/3
f 388/5/3 393/5/3 394/340/3
f 393/5/4 391/5/4 394/341/4
f 391/5/4 393/5/4 392/342/4
f 391/5/5 388/5/5 394/343/5
f 388/5/5 391/5/5 387/344/5
f 389/2/6 393/3/6 390/11/6
f 393/3/6 389/2/6 392/1/6
f 397/3/1 396/2/1 395/1/1
f 396/3/1 397/2/1 398/1/1
f 399/3/2 397/2/2 395/1/2
f 397/3/2 399/2/2 400/1/2
f 401/5/3 396/5/3 398/345/3
f 396/5/3 401/5/3 402/346/3
f 401/5/4 399/5/4 402/347/4
f 399/5/4 401/5/4 400/348/4
f 399/5/5 396/5/5 402/349/5
f 396/5/5 399/5/5 395/350/5
f 397/2/6 401/3/6 398/11/6
f 401/3/6 397/2/6 400/1/6
f 405/3/1 404/2/1 403/1/1
f 404/3/1 405/2/1 406/1/1
f 407/3/2 405/2/2 403/1/2
f 405/3/2 407/2/2 408/1/2
f 409/5/3 404/5/3 406/351/3
f 404/5/3 409/5/3 410/352/3
f 409/5/4 407/5/4 410/353/4
f 407/5/4 409/5/4 408/354/4
f 407/5/5 404/5/5 410/355/5
f 404/5/5 407/5/5 403/356/5
f 405/2/6 409/3/6 406/11/6
f 409/3/6 405/2/6 408/1/6
f 413/3/1 412/2/1 411/1/1
f 412/3/1 413/2/1 414/1/1
f 415/3/2 413/2/2 411/1/2
f 413/3/2 415/2/2 416/1/2
f 417/5/3 412/5/3 414/357/3
f 412/5/3 417/5/3 418/358/3
f 417/5/4 415/5/4 418/359/4
f 415/5/4 417/5/4 416/360/4
f 415/5/5 412/5/5 418/361/5
f 412/5/5 415/5/5 411/362/5
f 413/2/6 417/3/6 414/11/6
f 417/3/6 413/2/6 416/1/6
f 421/3/1 420/2/1 419/1/1
f 420/3/1 421/2/1 422/1/1
f 423/3/2 421/2/2 419/1/2
f 421/3/2 423/2/2 424/1/2
f 425/5/3 420/5/3 422/363/3
f 420/5/3 425/5/3 426/364/3
f 425/5/4 423/5/4 426/365/4
f 423/5/4 425/5/4 424/366/4
f 423/5/5 420/5/5 426/367/5
f 420/5/5 423/5/5 419/368/5
f 421/2/6 425/3/6 422/11/6
f 425/3/6 421/2/6 424/1/6
f 429/3/1 428/2/1 427/1/1
f 428/3/1 429/2/1 430/1/1
f 431/3/2 429/2/2 427/1/2
f 429/3/2 431/2/2 432/1/2
f 433/5/3 428/5/3 430/369/3
f 428/5/3 433/5/3 434/370/3
f 433/5/4 431/5/4 434/371/4
f 431/5/4 433/5/4 432/372/4
f 431/5/5 428/5/5 434/373/5
f 428/5/5 431/5/5 427/374/5
f 429/2/6 433/3/6 430/11/6
f 433/3/6 429/2/6 432/1/6
f 437/3/1 436/2/1 435/1/1
f 436/3/1 437/2/1 438/1/1
f 439/3/2 437/2/2 435/1/2
f 437/3/2 439/2/2 440/1/2
f 441/5/3 436/5/3 438/375/3
f 436/5/3 441/5/3 442/376/3
f 441/5/4 439/5/4 442/377/4
f 439/5/4 441/5/4 440/378/4
f 439/5/5 436/5/5 442/379/5
f 436/5/5 439/5/5 435/380/5
f 437/2/6 441/3/6 438/11/6
f 441/3/6 437/2/6 440/1/6
f 445/3/1 444/2/1 443/1/1
f 444/3/1 445/2/1 446/1/1
f 447/3/2 445/2/2 443/1/2
f 445/3/2 447/2/2 448/1/2
f 449/5/3 444/5/3 446/381/3
f 444/5/3 449/5/3 450/382/3
f 449/5/4 447/5/4 450/383/4
f 447/5/4 449/5/4 448/384/4
f 447/5/5 444/5/5 450/385/5
f 444/5/5 447/5/5 443/386/5
f 445/2/6 449/3/6 446/11/6
f 449/3/6 445/2/6 448/1/6
f 453/3/1 452/2/1 451/1/1
f 452/3/1 453/2/1 454/1/1
f 455/3/2 453/2/2 451/1/2
f 453/3/2 455/2/2 456/1/2
f 457/5/3 452/5/3 454/387/3
f 452/5/3 457/5/3 458/388/3
f 457/5/4 455/5/4 458/389/4
f 455/5/4 457/5/4 456/390/4
f 455/5/5 452/5/5 458/391/5
f 452/5/5 455/5/5 451/392/5
f 453/2/6 457/3/6 454/11/6
f 457/3/6 453/2/6 456/1/6

usemtl color4

f 461/3/1 460/2/1 459/1/1
f 460/3/1 461/2/1 462/1/1
f 463/3/2 461/2/2 459/1/2
f 461/3/2 463/2/2 464/1/2
f 465/5/3 460/5/3 462/393/3
f 460/5/3 465/5/3 466/394/3
f 465/5/4 463/5/4 466/395/4
f 463/5/4 465/5/4 464/396/4
f 463/5/5 460/5/5 466/397/5
f 460/5/5 463/5/5 459/398/5
f 461/2/6 465/3/6 462/11/6
f 465/3/6 461/2/6 464/1/6
f 469/3/1 468/2/1 467/1/1
f 468/3/1 469/2/1 470/1/1
f 471/3/2 469/2/2 467/1/2
f 469/3/2 471/2/2 472/1/2
f 473/5/3 468/5/3 470/399/3
f 468/5/3 473/5/3 474/400/3
f 473/5/4 471/5/4 474/401/4
f 471/5/4 473/5/4 472/402/4
f 471/5/5 468/5/5 474/403/5
f 468/5/5 471/5/5 467/404/5
f 469/2/6 473/3/6 470/11/6
f 473/3/6 469/2/6 472/1/6

