# Created by Kenney (www.kenney.nl)

mtllib Kit BTP Cheilith.mtl

v 3 6 -0.6
v 3 4 -0.6
v 3 6 0.6
v 3 4 0.6
v 2 6 -0.6
v 2 6 0.6
v 2 4 0.6
v 2 4 -0.6
v -2 6 -0.6
v -2 4 -0.6
v -2 6 0.6
v -2 4 0.6
v -3 6 -0.6
v -3 6 0.6
v -3 4 0.6
v -3 4 -0.6
v 3 5 -0.6
v 3 5 0.6
v 2 5 0.6
v 2 5 -0.6
v 5 3 -1.8
v 5 2 -1.8
v 5 3 1.8
v 5 2 1.8
v 2 3 -1.8
v 2 3 1.8
v 2 2 1.8
v 2 2 -1.8
v -2 3 -1.8
v -2 2 -1.8
v -2 3 1.8
v -2 2 1.8
v -5 3 -1.8
v -5 3 1.8
v -5 2 1.8
v -5 2 -1.8
v 2 1 -2.4
v 2 0 -2.4
v 2 1 2.4
v 2 0 2.4
v 1 1 -2.4
v 1 1 2.4
v 1 0 2.4
v 1 0 -2.4
v -1 1 -2.4
v -1 0 -2.4
v -1 1 2.4
v -1 0 2.4
v -2 1 -2.4
v -2 1 2.4
v -2 0 2.4
v -2 0 -2.4
v 3 -1 -2.4
v 3 -4 -2.4
v 3 -1 2.4
v 3 -4 2.4
v 2 -1 -2.4
v 2 -1 2.4
v 2 -4 2.4
v 2 -4 -2.4
v -2 -1 -2.4
v -2 -4 -2.4
v -2 -1 2.4
v -2 -4 2.4
v -3 -1 -2.4
v -3 -1 2.4
v -3 -4 2.4
v -3 -4 -2.4
v 6 -4 -1.8
v 6 -5 -1.8
v 6 -4 1.8
v 6 -5 1.8
v 5 -4 -1.8
v 5 -4 1.8
v 5 -5 1.8
v 5 -5 -1.8
v -5 -4 -1.8
v -5 -5 -1.8
v -5 -4 1.8
v -5 -5 1.8
v -6 -4 -1.8
v -6 -4 1.8
v -6 -5 1.8
v -6 -5 -1.8
v 2 -5 -2.4
v 2 -6 -2.4
v 2 -5 2.4
v 2 -6 2.4
v 1 -5 -2.4
v 1 -5 2.4
v 1 -6 2.4
v 1 -6 -2.4
v -1 -5 -2.4
v -1 -6 -2.4
v -1 -5 2.4
v -1 -6 2.4
v -2 -5 -2.4
v -2 -5 2.4
v -2 -6 2.4
v -2 -6 -2.4
v 1 6 -0.6
v 1 6 0.6
v 1 5 0.6
v 1 5 -0.6
v -1 6 -0.6
v -1 5 -0.6
v -1 6 0.6
v -1 5 0.6
v -2 5 0.6
v -2 5 -0.6
v 3 4 -1.8
v 3 3 -1.8
v 3 4 1.8
v 3 3 1.8
v 2 4 -1.8
v 2 4 1.8
v -2 4 -1.8
v -2 4 1.8
v -3 4 -1.8
v -3 4 1.8
v -3 3 1.8
v -3 3 -1.8
v 3 1 -2.4
v 3 1 2.4
v -3 1 -2.4
v -3 1 2.4
v 3 -4 -1.8
v 3 -4 1.8
v 3 -5 1.8
v 3 -5 -1.8
v -3 -4 -1.8
v -3 -5 -1.8
v -3 -4 1.8
v -3 -5 1.8
v 5 5 -1.2
v 5 4 -1.2
v 5 5 1.2
v 5 4 1.2
v 3 5 -1.2
v 3 5 1.2
v 3 4 1.2
v 3 4 -1.2
v -3 5 -1.2
v -3 4 -1.2
v -3 5 1.2
v -3 4 1.2
v -5 5 -1.2
v -5 5 1.2
v -5 4 1.2
v -5 4 -1.2
v 1 -4 -2.4
v 1 -4 2.4
v -1 -4 -2.4
v -1 -4 2.4
v 6 4 -1.2
v 6 2 -1.2
v 6 4 1.2
v 6 2 1.2
v 5 2 1.2
v 5 2 -1.2
v 5 3 -1.2
v 5 3 1.2
v 3 3 1.2
v 3 3 -1.2
v -3 3 -1.2
v -3 3 1.2
v -6 4 -1.2
v -6 4 1.2
v -6 3 1.2
v -6 3 -1.2
v -5 3 -1.2
v -5 2 -1.2
v -5 3 1.2
v -5 2 1.2
v -6 2 1.2
v -6 2 -1.2
v 2 2 -2.4
v 2 2 2.4
v 1 2 -2.4
v 1 2 2.4
v -1 2 -2.4
v -1 2 2.4
v -2 2 -2.4
v -2 2 2.4
v 2 3 -1.2
v 2 2 -1.2
v 2 3 1.2
v 2 2 1.2
v 1 3 -1.2
v 1 3 1.2
v 1 2 1.2
v 1 2 -1.2
v -1 3 -1.2
v -1 2 -1.2
v -1 3 1.2
v -1 2 1.2
v -2 3 -1.2
v -2 3 1.2
v -2 2 1.2
v -2 2 -1.2
v 6 2 -1.8
v 6 1 -1.8
v 6 2 1.8
v 6 1 1.8
v 5 1 1.8
v 5 1 -1.8
v 4 2 -1.8
v 4 1 -1.8
v 4 2 1.8
v 4 1 1.8
v 3 2 -1.8
v 3 2 1.8
v 3 1 1.8
v 3 1 -1.8
v -3 2 -1.8
v -3 1 -1.8
v -3 2 1.8
v -3 1 1.8
v -4 2 -1.8
v -4 2 1.8
v -4 1 1.8
v -4 1 -1.8
v -5 1 1.8
v -5 1 -1.8
v 3 2 -2.4
v 3 2 2.4
v -3 2 -2.4
v -3 2 2.4
v 2 -3 -2.4
v 2 -3 2.4
v 1 -3 -2.4
v 1 -3 2.4
v -1 -3 -2.4
v -1 -3 2.4
v -2 -3 -2.4
v -2 -3 2.4
v 3 -5 -2.4
v 3 -5 2.4
v -3 -5 2.4
v -3 -5 -2.4
v -6 2 -1.8
v -6 2 1.8
v -6 1 1.8
v -6 1 -1.8
v 5 0 -1.8
v 5 0 1.8
v 4 0 1.8
v 4 0 -1.8
v -4 0 -1.8
v -4 0 1.8
v -5 0 1.8
v -5 0 -1.8
v 5 -1 -1.8
v 5 -2 -1.8
v 5 -1 1.8
v 5 -2 1.8
v 4 -1 -1.8
v 4 -1 1.8
v 4 -2 1.8
v 4 -2 -1.8
v -4 -1 -1.8
v -4 -2 -1.8
v -4 -1 1.8
v -4 -2 1.8
v -5 -1 -1.8
v -5 -1 1.8
v -5 -2 1.8
v -5 -2 -1.8
v 5 -3 -1.8
v 5 -3 1.8
v 4 -3 -1.8
v 4 -3 1.8
v 4 -4 1.8
v 4 -4 -1.8
v -4 -3 -1.8
v -4 -4 -1.8
v -4 -3 1.8
v -4 -4 1.8
v -5 -3 -1.8
v -5 -3 1.8
v 6 1 -1.2
v 6 0 -1.2
v 6 1 1.2
v 6 0 1.2
v 5 1 -1.2
v 5 1 1.2
v 5 0 1.2
v 5 0 -1.2
v 4 1 -1.2
v 4 0 -1.2
v 4 1 1.2
v 4 0 1.2
v 3 1 -1.2
v 3 1 1.2
v 3 0 1.2
v 3 0 -1.2
v -3 1 -1.2
v -3 0 -1.2
v -3 1 1.2
v -3 0 1.2
v -4 1 -1.2
v -4 1 1.2
v -4 0 1.2
v -4 0 -1.2
v -5 1 -1.2
v -5 0 -1.2
v -5 1 1.2
v -5 0 1.2
v -6 1 -1.2
v -6 1 1.2
v -6 0 1.2
v -6 0 -1.2
v 6 -1 -1.2
v 6 -2 -1.2
v 6 -1 1.2
v 6 -2 1.2
v 5 -1 -1.2
v 5 -1 1.2
v 5 -2 1.2
v 5 -2 -1.2
v 4 -1 -1.2
v 4 -2 -1.2
v 4 -1 1.2
v 4 -2 1.2
v 3 -1 -1.2
v 3 -1 1.2
v 3 -2 1.2
v 3 -2 -1.2
v 1 -1 -2.4
v 1 -2 -2.4
v 1 -1 2.4
v 1 -2 2.4
v 0 -1 -2.4
v 0 -1 2.4
v 0 -2 2.4
v 0 -2 -2.4
v -3 -1 -1.2
v -3 -2 -1.2
v -3 -1 1.2
v -3 -2 1.2
v -4 -1 -1.2
v -4 -1 1.2
v -4 -2 1.2
v -4 -2 -1.2
v -5 -1 -1.2
v -5 -2 -1.2
v -5 -1 1.2
v -5 -2 1.2
v -6 -1 -1.2
v -6 -1 1.2
v -6 -2 1.2
v -6 -2 -1.2
v 6 -3 -1.2
v 6 -4 -1.2
v 6 -3 1.2
v 6 -4 1.2
v 5 -3 -1.2
v 5 -3 1.2
v 5 -4 1.2
v 5 -4 -1.2
v 4 -3 -1.2
v 4 -4 -1.2
v 4 -3 1.2
v 4 -4 1.2
v 3 -3 -1.2
v 3 -3 1.2
v 3 -4 1.2
v 3 -4 -1.2
v -3 -3 -1.2
v -3 -4 -1.2
v -3 -3 1.2
v -3 -4 1.2
v -4 -3 -1.2
v -4 -3 1.2
v -4 -4 1.2
v -4 -4 -1.2
v -5 -3 -1.2
v -5 -4 -1.2
v -5 -3 1.2
v -5 -4 1.2
v -6 -3 -1.2
v -6 -3 1.2
v -6 -4 1.2
v -6 -4 -1.2
v 1 1 -3
v 1 -1 -3
v 1 1 3
v 1 -1 3
v -1 1 -3
v -1 1 3
v -1 -1 3
v -1 -1 -3
v 2 0 -3
v 2 -1 -3
v 2 0 3
v 2 -1 3
v 1 0 -3
v 1 0 3
v -1 0 -3
v -1 0 3
v -2 0 -3
v -2 0 3
v -2 -1 3
v -2 -1 -3
v 1 -2 -3
v 1 -3 -3
v 1 -2 3
v 1 -3 3
v -1 -2 -3
v -1 -2 3
v -1 -3 3
v -1 -3 -3
v 5 -5 -1.2
v 5 -6 -1.2
v 5 -5 1.2
v 5 -6 1.2
v 3 -5 -1.2
v 3 -5 1.2
v 3 -6 1.2
v 3 -6 -1.2
v -3 -5 -1.2
v -3 -6 -1.2
v -3 -5 1.2
v -3 -6 1.2
v -5 -5 -1.2
v -5 -5 1.2
v -5 -6 1.2
v -5 -6 -1.2
v -1 -1 -2.4
v -1 -1 2.4
v -1 -2 2.4
v -1 -2 -2.4
v 2 -3 -3
v 2 -3 3
v -2 -3 3
v -2 -3 -3
v 3 -6 -2.4
v 3 -6 2.4
v -3 -6 2.4
v -3 -6 -2.4

vn 1 0 0
vn 0 1 0
vn 0 -1 0
vn -1 0 0
vn 0 0 -1
vn 0 0 1

vt -19.68504 19.68504
vt 19.68504 19.68504
vt -19.68504 -19.68504
vt 0 NaN
vt 0 0
vt 0 NaN
vt 0 NaN
vt 0 NaN
vt 0 NaN
vt 0 NaN
vt 19.68504 -19.68504
vt 0 NaN
vt 0 NaN
vt 0 NaN
vt 0 NaN
vt 0 NaN
vt 0 NaN
vt 0 NaN
vt 0 NaN
vt 0 NaN
vt 0 NaN
vt 0 NaN
vt 0 NaN
vt 0 NaN
vt 0 NaN
vt 0 NaN
vt 0 NaN
vt 0 NaN
vt 0 NaN
vt 0 NaN
vt 0 NaN
vt 0 NaN
vt 0 NaN
vt 0 NaN
vt 0 NaN
vt 0 NaN
vt 0 NaN
vt 0 NaN
vt 0 NaN
vt 0 NaN
vt 0 NaN
vt 0 NaN
vt 0 NaN
vt 0 NaN
vt 0 NaN
vt 0 NaN
vt 0 NaN
vt 0 NaN
vt 0 NaN
vt 0 NaN
vt 0 NaN
vt 0 NaN
vt 0 NaN
vt 0 NaN
vt 0 NaN
vt 0 NaN
vt 0 NaN
vt 0 NaN
vt 0 NaN
vt 0 NaN
vt 0 NaN
vt 0 NaN
vt 0 NaN
vt 0 NaN
vt 0 NaN
vt 0 NaN
vt 0 NaN
vt 0 NaN
vt 0 NaN
vt 0 NaN
vt 0 NaN
vt 0 NaN
vt 0 NaN
vt 0 NaN
vt 0 NaN
vt 0 NaN
vt 0 NaN
vt 0 NaN
vt 0 NaN
vt 0 NaN
vt 0 NaN
vt 0 NaN
vt 0 NaN
vt 0 NaN
vt 0 NaN
vt 0 NaN
vt 0 NaN
vt 0 NaN
vt 0 NaN
vt 0 NaN
vt 0 NaN
vt 0 NaN
vt 0 NaN
vt 0 NaN
vt 0 NaN
vt 0 NaN
vt 0 NaN
vt 0 NaN
vt 0 NaN
vt 0 NaN
vt 0 NaN
vt 0 NaN
vt 0 NaN
vt 0 NaN
vt 0 NaN
vt 0 NaN
vt 0 NaN
vt 0 NaN
vt 0 NaN
vt 0 NaN
vt 0 NaN
vt 0 NaN
vt 0 NaN
vt 0 NaN
vt 0 NaN
vt 0 NaN
vt 0 NaN
vt 0 NaN
vt 0 NaN
vt 0 NaN
vt 0 NaN
vt 0 NaN
vt 0 NaN
vt 0 NaN
vt 0 NaN
vt 0 NaN
vt 0 NaN
vt 0 NaN
vt 0 NaN
vt 0 NaN
vt 0 NaN
vt 0 NaN
vt 0 NaN
vt 0 NaN
vt 0 NaN
vt 0 NaN
vt 0 NaN
vt 0 NaN
vt 0 NaN
vt 0 NaN
vt 0 NaN
vt 0 NaN
vt 0 NaN
vt 0 NaN
vt 0 NaN
vt 0 NaN
vt 0 NaN
vt 0 NaN
vt 0 NaN
vt 0 NaN
vt 0 NaN
vt 0 NaN
vt 0 NaN
vt 0 NaN
vt 0 NaN
vt 0 NaN
vt 0 NaN
vt 0 NaN
vt 0 NaN
vt 0 NaN
vt 0 NaN
vt 0 NaN
vt 0 NaN
vt 0 NaN
vt 0 NaN
vt 0 NaN
vt 0 NaN
vt 0 NaN
vt 0 NaN
vt 0 NaN
vt 0 NaN
vt 0 NaN
vt 0 NaN
vt 0 NaN
vt 0 NaN
vt 0 NaN
vt 0 NaN
vt 0 NaN
vt 0 NaN
vt 0 NaN
vt 0 NaN
vt 0 NaN
vt 0 NaN
vt 0 NaN
vt 0 NaN
vt 0 NaN
vt 0 NaN
vt 0 NaN
vt 0 NaN
vt 0 NaN
vt 0 NaN
vt 0 NaN
vt 0 NaN
vt 0 NaN
vt 0 NaN
vt 0 NaN
vt 0 NaN
vt 0 NaN
vt 0 NaN
vt 0 NaN
vt 0 NaN
vt 0 NaN
vt 0 NaN
vt 0 NaN
vt 0 NaN
vt 0 NaN
vt 0 NaN
vt 0 NaN
vt 0 NaN
vt 0 NaN
vt 0 NaN
vt 0 NaN
vt 0 NaN
vt 0 NaN
vt 0 NaN
vt 0 NaN
vt 0 NaN
vt 0 NaN
vt 0 NaN
vt 0 NaN
vt 0 NaN
vt 0 NaN
vt 0 NaN
vt 0 NaN
vt 0 NaN
vt 0 NaN
vt 0 NaN
vt 0 NaN
vt 0 NaN
vt 0 NaN
vt 0 NaN
vt 0 NaN
vt 0 NaN
vt 0 NaN
vt 0 NaN
vt 0 NaN
vt 0 NaN
vt 0 NaN
vt 0 NaN
vt 0 NaN
vt 0 NaN
vt 0 NaN
vt 0 NaN
vt 0 NaN
vt 0 NaN
vt 0 NaN
vt 0 NaN
vt 0 NaN
vt 0 NaN
vt 0 NaN
vt 0 NaN
vt 0 NaN
vt 0 NaN
vt 0 NaN
vt 0 NaN
vt 0 NaN
vt 0 NaN
vt 0 NaN
vt 0 NaN
vt 0 NaN
vt 0 NaN
vt 0 NaN
vt 0 NaN
vt 0 NaN
vt 0 NaN
vt 0 NaN
vt 0 NaN
vt 0 NaN
vt 0 NaN
vt 0 NaN
vt 0 NaN
vt 0 NaN
vt 0 NaN
vt 0 NaN
vt 0 NaN
vt 0 NaN
vt 0 NaN
vt 0 NaN
vt 0 NaN
vt 0 NaN
vt 0 NaN
vt 0 NaN
vt 0 NaN
vt 0 NaN
vt 0 NaN
vt 0 NaN
vt 0 NaN
vt 0 NaN
vt 0 NaN
vt 0 NaN
vt 0 NaN
vt 0 NaN
vt 0 NaN
vt 0 NaN
vt 0 NaN
vt 0 NaN
vt 0 NaN
vt 0 NaN
vt 0 NaN
vt 0 NaN
vt 0 NaN
vt 0 NaN
vt 0 NaN
vt 0 NaN
vt 0 NaN
vt 0 NaN
vt 0 NaN
vt 0 NaN
vt 0 NaN
vt 0 NaN
vt 0 NaN
vt 0 NaN
vt 0 NaN
vt 0 NaN
vt 0 NaN
vt 0 NaN
vt 0 NaN
vt 0 NaN
vt 0 NaN
vt 0 NaN
vt 0 NaN
vt 0 NaN
vt 0 NaN
vt 0 NaN
vt 0 NaN
vt 0 NaN
vt 0 NaN
vt 0 NaN
vt 0 NaN
vt 0 NaN
vt 0 NaN
vt 0 NaN
vt 0 NaN
vt 0 NaN
vt 0 NaN
vt 0 NaN
vt 0 NaN
vt 0 NaN
vt 0 NaN
vt 0 NaN
vt 0 NaN
vt 0 NaN
vt 0 NaN
vt 0 NaN
vt 0 NaN
vt 0 NaN
vt 0 NaN
vt 0 NaN
vt 0 NaN
vt 0 NaN
vt 0 NaN
vt 0 NaN
vt 0 NaN
vt 0 NaN
vt 0 NaN
vt 0 NaN
vt 0 NaN
vt 0 NaN
vt 0 NaN
vt 0 NaN
vt 0 NaN
vt 0 NaN
vt 0 NaN
vt 0 NaN
vt 0 NaN
vt 0 NaN
vt 0 NaN
vt 0 NaN
vt 0 NaN
vt 0 NaN
vt 0 NaN
vt 0 NaN
vt 0 NaN
vt 0 NaN
vt 0 NaN
vt 0 NaN
vt 0 NaN
vt 0 NaN
vt 0 NaN
vt 0 NaN
vt 0 NaN
vt 0 NaN
vt 0 NaN
vt 0 NaN
vt 0 NaN
vt 0 NaN
vt 0 NaN
vt 0 NaN
vt 0 NaN
vt 0 NaN
vt 0 NaN
vt 0 NaN
vt 0 NaN
vt 0 NaN
vt 0 NaN
vt 0 NaN
vt 0 NaN
vt 0 NaN
vt 0 NaN
vt 0 NaN
vt 0 NaN
vt 0 NaN
vt 0 NaN
vt 0 NaN
vt 0 NaN
vt 0 NaN
vt 0 NaN

usemtl color4

f 3/3/1 2/2/1 1/1/1
f 2/3/1 3/2/1 4/1/1
f 5/3/2 3/2/2 1/1/2
f 3/3/2 5/2/2 6/1/2
f 7/5/3 2/5/3 4/4/3
f 2/5/3 7/5/3 8/6/3
f 7/5/4 5/5/4 8/7/4
f 5/5/4 7/5/4 6/8/4
f 5/5/5 2/5/5 8/9/5
f 2/5/5 5/5/5 1/10/5
f 3/2/6 7/3/6 4/11/6
f 7/3/6 3/2/6 6/1/6
f 11/3/1 10/2/1 9/1/1
f 10/3/1 11/2/1 12/1/1
f 13/3/2 11/2/2 9/1/2
f 11/3/2 13/2/2 14/1/2
f 15/5/3 10/5/3 12/12/3
f 10/5/3 15/5/3 16/13/3
f 15/5/4 13/5/4 16/14/4
f 13/5/4 15/5/4 14/15/4
f 13/5/5 10/5/5 16/16/5
f 10/5/5 13/5/5 9/17/5
f 11/2/6 15/3/6 12/11/6
f 15/3/6 11/2/6 14/1/6
f 3/3/1 17/2/1 1/1/1
f 17/3/1 3/2/1 18/1/1
f 5/3/2 3/2/2 1/1/2
f 3/3/2 5/2/2 6/1/2
f 19/5/3 17/5/3 18/18/3
f 17/5/3 19/5/3 20/19/3
f 19/5/4 5/5/4 20/20/4
f 5/5/4 19/5/4 6/8/4
f 5/5/5 17/5/5 20/21/5
f 17/5/5 5/5/5 1/10/5
f 3/2/6 19/3/6 18/11/6
f 19/3/6 3/2/6 6/1/6
f 23/3/1 22/2/1 21/1/1
f 22/3/1 23/2/1 24/1/1
f 25/3/2 23/2/2 21/1/2
f 23/3/2 25/2/2 26/1/2
f 27/5/3 22/5/3 24/22/3
f 22/5/3 27/5/3 28/23/3
f 27/5/4 25/5/4 28/24/4
f 25/5/4 27/5/4 26/25/4
f 25/5/5 22/5/5 28/26/5
f 22/5/5 25/5/5 21/27/5
f 23/2/6 27/3/6 24/11/6
f 27/3/6 23/2/6 26/1/6
f 31/3/1 30/2/1 29/1/1
f 30/3/1 31/2/1 32/1/1
f 33/3/2 31/2/2 29/1/2
f 31/3/2 33/2/2 34/1/2
f 35/5/3 30/5/3 32/28/3
f 30/5/3 35/5/3 36/29/3
f 35/5/4 33/5/4 36/30/4
f 33/5/4 35/5/4 34/31/4
f 33/5/5 30/5/5 36/32/5
f 30/5/5 33/5/5 29/33/5
f 31/2/6 35/3/6 32/11/6
f 35/3/6 31/2/6 34/1/6
f 39/3/1 38/2/1 37/1/1
f 38/3/1 39/2/1 40/1/1
f 41/3/2 39/2/2 37/1/2
f 39/3/2 41/2/2 42/1/2
f 43/5/3 38/5/3 40/34/3
f 38/5/3 43/5/3 44/35/3
f 43/5/4 41/5/4 44/36/4
f 41/5/4 43/5/4 42/37/4
f 41/5/5 38/5/5 44/38/5
f 38/5/5 41/5/5 37/39/5
f 39/2/6 43/3/6 40/11/6
f 43/3/6 39/2/6 42/1/6
f 47/3/1 46/2/1 45/1/1
f 46/3/1 47/2/1 48/1/1
f 49/3/2 47/2/2 45/1/2
f 47/3/2 49/2/2 50/1/2
f 51/5/3 46/5/3 48/40/3
f 46/5/3 51/5/3 52/41/3
f 51/5/4 49/5/4 52/42/4
f 49/5/4 51/5/4 50/43/4
f 49/5/5 46/5/5 52/44/5
f 46/5/5 49/5/5 45/45/5
f 47/2/6 51/3/6 48/11/6
f 51/3/6 47/2/6 50/1/6
f 55/3/1 54/2/1 53/1/1
f 54/3/1 55/2/1 56/1/1
f 57/3/2 55/2/2 53/1/2
f 55/3/2 57/2/2 58/1/2
f 59/5/3 54/5/3 56/46/3
f 54/5/3 59/5/3 60/47/3
f 59/5/4 57/5/4 60/48/4
f 57/5/4 59/5/4 58/49/4
f 57/5/5 54/5/5 60/50/5
f 54/5/5 57/5/5 53/51/5
f 55/2/6 59/3/6 56/11/6
f 59/3/6 55/2/6 58/1/6
f 63/3/1 62/2/1 61/1/1
f 62/3/1 63/2/1 64/1/1
f 65/3/2 63/2/2 61/1/2
f 63/3/2 65/2/2 66/1/2
f 67/5/3 62/5/3 64/52/3
f 62/5/3 67/5/3 68/53/3
f 67/5/4 65/5/4 68/54/4
f 65/5/4 67/5/4 66/55/4
f 65/5/5 62/5/5 68/56/5
f 62/5/5 65/5/5 61/57/5
f 63/2/6 67/3/6 64/11/6
f 67/3/6 63/2/6 66/1/6
f 71/3/1 70/2/1 69/1/1
f 70/3/1 71/2/1 72/1/1
f 73/3/2 71/2/2 69/1/2
f 71/3/2 73/2/2 74/1/2
f 75/5/3 70/5/3 72/58/3
f 70/5/3 75/5/3 76/59/3
f 75/5/4 73/5/4 76/60/4
f 73/5/4 75/5/4 74/61/4
f 73/5/5 70/5/5 76/62/5
f 70/5/5 73/5/5 69/63/5
f 71/2/6 75/3/6 72/11/6
f 75/3/6 71/2/6 74/1/6
f 79/3/1 78/2/1 77/1/1
f 78/3/1 79/2/1 80/1/1
f 81/3/2 79/2/2 77/1/2
f 79/3/2 81/2/2 82/1/2
f 83/5/3 78/5/3 80/64/3
f 78/5/3 83/5/3 84/65/3
f 83/5/4 81/5/4 84/66/4
f 81/5/4 83/5/4 82/67/4
f 81/5/5 78/5/5 84/68/5
f 78/5/5 81/5/5 77/69/5
f 79/2/6 83/3/6 80/11/6
f 83/3/6 79/2/6 82/1/6
f 87/3/1 86/2/1 85/1/1
f 86/3/1 87/2/1 88/1/1
f 89/3/2 87/2/2 85/1/2
f 87/3/2 89/2/2 90/1/2
f 91/5/3 86/5/3 88/70/3
f 86/5/3 91/5/3 92/71/3
f 91/5/4 89/5/4 92/72/4
f 89/5/4 91/5/4 90/73/4
f 89/5/5 86/5/5 92/74/5
f 86/5/5 89/5/5 85/75/5
f 87/2/6 91/3/6 88/11/6
f 91/3/6 87/2/6 90/1/6
f 95/3/1 94/2/1 93/1/1
f 94/3/1 95/2/1 96/1/1
f 97/3/2 95/2/2 93/1/2
f 95/3/2 97/2/2 98/1/2
f 99/5/3 94/5/3 96/76/3
f 94/5/3 99/5/3 100/77/3
f 99/5/4 97/5/4 100/78/4
f 97/5/4 99/5/4 98/79/4
f 97/5/5 94/5/5 100/80/5
f 94/5/5 97/5/5 93/81/5
f 95/2/6 99/3/6 96/11/6
f 99/3/6 95/2/6 98/1/6

usemtl color5

f 6/3/1 20/2/1 5/1/1
f 20/3/1 6/2/1 19/1/1
f 101/3/2 6/2/2 5/1/2
f 6/3/2 101/2/2 102/1/2
f 103/5/3 20/19/3 19/5/3
f 20/19/3 103/5/3 104/82/3
f 103/5/4 101/5/4 104/83/4
f 101/5/4 103/5/4 102/84/4
f 101/5/5 20/21/5 104/85/5
f 20/21/5 101/5/5 5/5/5
f 6/2/6 103/3/6 19/11/6
f 103/3/6 6/2/6 102/1/6
f 107/3/1 106/2/1 105/1/1
f 106/3/1 107/2/1 108/1/1
f 9/3/2 107/2/2 105/1/2
f 107/3/2 9/2/2 11/1/2
f 109/5/3 106/5/3 108/86/3
f 106/5/3 109/5/3 110/87/3
f 109/5/4 9/5/4 110/88/4
f 9/5/4 109/5/4 11/89/4
f 9/17/5 106/5/5 110/90/5
f 106/5/5 9/17/5 105/91/5
f 107/2/6 109/3/6 108/11/6
f 109/3/6 107/2/6 11/1/6
f 113/3/1 112/2/1 111/1/1
f 112/3/1 113/2/1 114/1/1
f 115/3/2 113/2/2 111/1/2
f 113/3/2 115/2/2 116/1/2
f 26/5/3 112/5/3 114/92/3
f 112/5/3 26/5/3 25/93/3
f 26/25/4 115/5/4 25/5/4
f 115/5/4 26/25/4 116/94/4
f 115/5/5 112/5/5 25/5/5
f 112/5/5 115/5/5 111/95/5
f 113/2/6 26/3/6 114/11/6
f 26/3/6 113/2/6 116/1/6
f 118/3/1 29/2/1 117/1/1
f 29/3/1 118/2/1 31/1/1
f 119/3/2 118/2/2 117/1/2
f 118/3/2 119/2/2 120/1/2
f 121/5/3 29/5/3 31/96/3
f 29/5/3 121/5/3 122/97/3
f 121/5/4 119/5/4 122/98/4
f 119/5/4 121/5/4 120/99/4
f 119/5/5 29/33/5 122/100/5
f 29/33/5 119/5/5 117/101/5
f 118/2/6 121/3/6 31/11/6
f 121/3/6 118/2/6 120/1/6
f 124/3/1 53/2/1 123/1/1
f 53/3/1 124/2/1 55/1/1
f 37/3/2 124/2/2 123/1/2
f 124/3/2 37/2/2 39/1/2
f 58/5/3 53/5/3 55/102/3
f 53/5/3 58/5/3 57/103/3
f 58/49/4 37/5/4 57/5/4
f 37/5/4 58/49/4 39/104/4
f 37/39/5 53/51/5 57/5/5
f 53/51/5 37/39/5 123/105/5
f 124/2/6 58/3/6 55/11/6
f 58/3/6 124/2/6 39/1/6
f 50/3/1 61/2/1 49/1/1
f 61/3/1 50/2/1 63/1/1
f 125/3/2 50/2/2 49/1/2
f 50/3/2 125/2/2 126/1/2
f 66/5/3 61/5/3 63/106/3
f 61/5/3 66/5/3 65/107/3
f 66/55/4 125/5/4 65/5/4
f 125/5/4 66/55/4 126/108/4
f 125/5/5 61/57/5 65/5/5
f 61/57/5 125/5/5 49/5/5
f 50/2/6 66/3/6 63/11/6
f 66/3/6 50/2/6 126/1/6
f 74/3/1 76/2/1 73/1/1
f 76/3/1 74/2/1 75/1/1
f 127/3/2 74/2/2 73/1/2
f 74/3/2 127/2/2 128/1/2
f 129/5/3 76/59/3 75/5/3
f 76/59/3 129/5/3 130/109/3
f 129/5/4 127/5/4 130/110/4
f 127/5/4 129/5/4 128/111/4
f 127/5/5 76/62/5 130/112/5
f 76/62/5 127/5/5 73/5/5
f 74/2/6 129/3/6 75/11/6
f 129/3/6 74/2/6 128/1/6
f 133/3/1 132/2/1 131/1/1
f 132/3/1 133/2/1 134/1/1
f 77/3/2 133/2/2 131/1/2
f 133/3/2 77/2/2 79/1/2
f 80/64/3 132/5/3 134/113/3
f 132/5/3 80/64/3 78/5/3
f 80/5/4 77/5/4 78/114/4
f 77/5/4 80/5/4 79/115/4
f 77/69/5 132/5/5 78/5/5
f 132/5/5 77/69/5 131/116/5
f 133/2/6 80/3/6 134/11/6
f 80/3/6 133/2/6 79/1/6
f 90/3/1 92/2/1 89/1/1
f 92/3/1 90/2/1 91/1/1
f 93/3/2 90/2/2 89/1/2
f 90/3/2 93/2/2 95/1/2
f 96/76/3 92/71/3 91/5/3
f 92/71/3 96/76/3 94/5/3
f 96/5/4 93/5/4 94/117/4
f 93/5/4 96/5/4 95/118/4
f 93/81/5 92/74/5 94/5/5
f 92/74/5 93/81/5 89/5/5
f 90/2/6 96/3/6 91/11/6
f 96/3/6 90/2/6 95/1/6

usemtl color8

f 102/3/1 104/2/1 101/1/1
f 104/3/1 102/2/1 103/1/1
f 105/3/2 102/2/2 101/1/2
f 102/3/2 105/2/2 107/1/2
f 108/86/3 104/82/3 103/5/3
f 104/82/3 108/86/3 106/5/3
f 108/5/4 105/5/4 106/119/4
f 105/5/4 108/5/4 107/120/4
f 105/91/5 104/85/5 106/5/5
f 104/85/5 105/91/5 101/5/5
f 102/2/6 108/3/6 103/11/6
f 108/3/6 102/2/6 107/1/6
f 137/3/1 136/2/1 135/1/1
f 136/3/1 137/2/1 138/1/1
f 139/3/2 137/2/2 135/1/2
f 137/3/2 139/2/2 140/1/2
f 141/5/3 136/5/3 138/121/3
f 136/5/3 141/5/3 142/122/3
f 141/5/4 139/5/4 142/123/4
f 139/5/4 141/5/4 140/124/4
f 139/5/5 136/5/5 142/125/5
f 136/5/5 139/5/5 135/126/5
f 137/2/6 141/3/6 138/11/6
f 141/3/6 137/2/6 140/1/6
f 145/3/1 144/2/1 143/1/1
f 144/3/1 145/2/1 146/1/1
f 147/3/2 145/2/2 143/1/2
f 145/3/2 147/2/2 148/1/2
f 149/5/3 144/5/3 146/127/3
f 144/5/3 149/5/3 150/128/3
f 149/5/4 147/5/4 150/129/4
f 147/5/4 149/5/4 148/130/4
f 147/5/5 144/5/5 150/131/5
f 144/5/5 147/5/5 143/132/5
f 145/2/6 149/3/6 146/11/6
f 149/3/6 145/2/6 148/1/6
f 152/3/1 89/2/1 151/1/1
f 89/3/1 152/2/1 90/1/1
f 153/3/2 152/2/2 151/1/2
f 152/3/2 153/2/2 154/1/2
f 95/5/3 89/5/3 90/133/3
f 89/5/3 95/5/3 93/134/3
f 95/118/4 153/5/4 93/5/4
f 153/5/4 95/118/4 154/135/4
f 153/5/5 89/5/5 93/81/5
f 89/5/5 153/5/5 151/136/5
f 152/2/6 95/3/6 90/11/6
f 95/3/6 152/2/6 154/1/6

usemtl color17

f 157/3/1 156/2/1 155/1/1
f 156/3/1 157/2/1 158/1/1
f 136/3/2 157/2/2 155/1/2
f 157/3/2 136/2/2 138/1/2
f 159/5/3 156/5/3 158/137/3
f 156/5/3 159/5/3 160/138/3
f 159/5/4 136/5/4 160/139/4
f 136/5/4 159/5/4 138/140/4
f 136/5/5 156/5/5 160/141/5
f 156/5/5 136/5/5 155/142/5
f 157/2/6 159/3/6 158/11/6
f 159/3/6 157/2/6 138/1/6
f 138/3/1 161/2/1 136/1/1
f 161/3/1 138/2/1 162/1/1
f 142/3/2 138/2/2 136/1/2
f 138/3/2 142/2/2 141/1/2
f 163/5/3 161/5/3 162/143/3
f 161/5/3 163/5/3 164/144/3
f 163/5/4 142/123/4 164/145/4
f 142/123/4 163/5/4 141/5/4
f 142/125/5 161/5/5 164/146/5
f 161/5/5 142/125/5 136/5/5
f 138/2/6 163/3/6 162/11/6
f 163/3/6 138/2/6 141/1/6
f 146/3/1 165/2/1 144/1/1
f 165/3/1 146/2/1 166/1/1
f 167/3/2 146/2/2 144/1/2
f 146/3/2 167/2/2 168/1/2
f 169/5/3 165/5/3 166/147/3
f 165/5/3 169/5/3 170/148/3
f 169/5/4 167/5/4 170/149/4
f 167/5/4 169/5/4 168/150/4
f 167/5/5 165/5/5 170/151/5
f 165/5/5 167/5/5 144/5/5
f 146/2/6 169/3/6 166/11/6
f 169/3/6 146/2/6 168/1/6
f 173/3/1 172/2/1 171/1/1
f 172/3/1 173/2/1 174/1/1
f 170/3/2 173/2/2 171/1/2
f 173/3/2 170/2/2 169/1/2
f 175/5/3 172/5/3 174/152/3
f 172/5/3 175/5/3 176/153/3
f 175/5/4 170/149/4 176/154/4
f 170/149/4 175/5/4 169/5/4
f 170/151/5 172/5/5 176/155/5
f 172/5/5 170/151/5 171/156/5
f 173/2/6 175/3/6 174/11/6
f 175/3/6 173/2/6 169/1/6
f 178/3/1 37/2/1 177/1/1
f 37/3/1 178/2/1 39/1/1
f 179/3/2 178/2/2 177/1/2
f 178/3/2 179/2/2 180/1/2
f 42/5/3 37/5/3 39/157/3
f 37/5/3 42/5/3 41/158/3
f 42/37/4 179/5/4 41/5/4
f 179/5/4 42/37/4 180/159/4
f 179/5/5 37/39/5 41/5/5
f 37/39/5 179/5/5 177/160/5
f 178/2/6 42/3/6 39/11/6
f 42/3/6 178/2/6 180/1/6
f 182/3/1 45/2/1 181/1/1
f 45/3/1 182/2/1 47/1/1
f 183/3/2 182/2/2 181/1/2
f 182/3/2 183/2/2 184/1/2
f 50/5/3 45/5/3 47/161/3
f 45/5/3 50/5/3 49/162/3
f 50/43/4 183/5/4 49/5/4
f 183/5/4 50/43/4 184/163/4
f 183/5/5 45/45/5 49/5/5
f 45/45/5 183/5/5 181/164/5
f 182/2/6 50/3/6 47/11/6
f 50/3/6 182/2/6 184/1/6
f 138/3/1 161/2/1 136/1/1
f 161/3/1 138/2/1 162/1/1
f 142/3/2 138/2/2 136/1/2
f 138/3/2 142/2/2 141/1/2
f 163/5/3 161/5/3 162/143/3
f 161/5/3 163/5/3 164/144/3
f 163/5/4 142/123/4 164/145/4
f 142/123/4 163/5/4 141/5/4
f 142/125/5 161/5/5 164/146/5
f 161/5/5 142/125/5 136/5/5
f 138/2/6 163/3/6 162/11/6
f 163/3/6 138/2/6 141/1/6

usemtl color18

f 187/3/1 186/2/1 185/1/1
f 186/3/1 187/2/1 188/1/1
f 189/3/2 187/2/2 185/1/2
f 187/3/2 189/2/2 190/1/2
f 191/5/3 186/5/3 188/165/3
f 186/5/3 191/5/3 192/166/3
f 191/5/4 189/5/4 192/167/4
f 189/5/4 191/5/4 190/168/4
f 189/5/5 186/5/5 192/169/5
f 186/5/5 189/5/5 185/170/5
f 187/2/6 191/3/6 188/11/6
f 191/3/6 187/2/6 190/1/6
f 195/3/1 194/2/1 193/1/1
f 194/3/1 195/2/1 196/1/1
f 197/3/2 195/2/2 193/1/2
f 195/3/2 197/2/2 198/1/2
f 199/5/3 194/5/3 196/171/3
f 194/5/3 199/5/3 200/172/3
f 199/5/4 197/5/4 200/173/4
f 197/5/4 199/5/4 198/174/4
f 197/5/5 194/5/5 200/175/5
f 194/5/5 197/5/5 193/176/5
f 195/2/6 199/3/6 196/11/6
f 199/3/6 195/2/6 198/1/6

usemtl color19

f 190/3/1 192/2/1 189/1/1
f 192/3/1 190/2/1 191/1/1
f 193/3/2 190/2/2 189/1/2
f 190/3/2 193/2/2 195/1/2
f 196/171/3 192/166/3 191/5/3
f 192/166/3 196/171/3 194/5/3
f 196/5/4 193/5/4 194/177/4
f 193/5/4 196/5/4 195/178/4
f 193/176/5 192/169/5 194/5/5
f 192/169/5 193/176/5 189/5/5
f 190/2/6 196/3/6 191/11/6
f 196/3/6 190/2/6 195/1/6

usemtl color14

f 203/3/1 202/2/1 201/1/1
f 202/3/1 203/2/1 204/1/1
f 22/3/2 203/2/2 201/1/2
f 203/3/2 22/2/2 24/1/2
f 205/5/3 202/5/3 204/179/3
f 202/5/3 205/5/3 206/180/3
f 205/5/4 22/5/4 206/181/4
f 22/5/4 205/5/4 24/182/4
f 22/5/5 202/5/5 206/183/5
f 202/5/5 22/5/5 201/184/5
f 203/2/6 205/3/6 204/11/6
f 205/3/6 203/2/6 24/1/6
f 209/3/1 208/2/1 207/1/1
f 208/3/1 209/2/1 210/1/1
f 211/3/2 209/2/2 207/1/2
f 209/3/2 211/2/2 212/1/2
f 213/5/3 208/5/3 210/185/3
f 208/5/3 213/5/3 214/186/3
f 213/5/4 211/5/4 214/187/4
f 211/5/4 213/5/4 212/188/4
f 211/5/5 208/5/5 214/189/5
f 208/5/5 211/5/5 207/190/5
f 209/2/6 213/3/6 210/11/6
f 213/3/6 209/2/6 212/1/6
f 217/3/1 216/2/1 215/1/1
f 216/3/1 217/2/1 218/1/1
f 219/3/2 217/2/2 215/1/2
f 217/3/2 219/2/2 220/1/2
f 221/5/3 216/5/3 218/191/3
f 216/5/3 221/5/3 222/192/3
f 221/5/4 219/5/4 222/193/4
f 219/5/4 221/5/4 220/194/4
f 219/5/5 216/5/5 222/195/5
f 216/5/5 219/5/5 215/196/5
f 217/2/6 221/3/6 218/11/6
f 221/3/6 217/2/6 220/1/6

usemtl color15

f 24/3/1 206/2/1 22/1/1
f 206/3/1 24/2/1 205/1/1
f 207/3/2 24/2/2 22/1/2
f 24/3/2 207/2/2 209/1/2
f 210/185/3 206/180/3 205/5/3
f 206/180/3 210/185/3 208/5/3
f 210/5/4 207/5/4 208/197/4
f 207/5/4 210/5/4 209/198/4
f 207/190/5 206/183/5 208/5/5
f 206/183/5 207/190/5 22/5/5
f 24/2/6 210/3/6 205/11/6
f 210/3/6 24/2/6 209/1/6
f 220/3/1 222/2/1 219/1/1
f 222/3/1 220/2/1 221/1/1
f 36/3/2 220/2/2 219/1/2
f 220/3/2 36/2/2 35/1/2
f 223/5/3 222/192/3 221/5/3
f 222/192/3 223/5/3 224/199/3
f 223/5/4 36/30/4 224/200/4
f 36/30/4 223/5/4 35/5/4
f 36/32/5 222/195/5 224/201/5
f 222/195/5 36/32/5 219/5/5
f 220/2/6 223/3/6 221/11/6
f 223/3/6 220/2/6 35/1/6

usemtl color16

f 226/3/1 123/2/1 225/1/1
f 123/3/1 226/2/1 124/1/1
f 177/3/2 226/2/2 225/1/2
f 226/3/2 177/2/2 178/1/2
f 39/157/3 123/5/3 124/202/3
f 123/5/3 39/157/3 37/5/3
f 39/104/4 177/5/4 37/5/4
f 177/5/4 39/104/4 178/203/4
f 177/160/5 123/105/5 37/39/5
f 123/105/5 177/160/5 225/204/5
f 226/2/6 39/3/6 124/11/6
f 39/3/6 226/2/6 178/1/6
f 184/3/1 49/2/1 183/1/1
f 49/3/1 184/2/1 50/1/1
f 227/3/2 184/2/2 183/1/2
f 184/3/2 227/2/2 228/1/2
f 126/5/3 49/162/3 50/5/3
f 49/162/3 126/5/3 125/205/3
f 126/108/4 227/5/4 125/5/4
f 227/5/4 126/108/4 228/206/4
f 227/5/5 49/5/5 125/5/5
f 49/5/5 227/5/5 183/5/5
f 184/2/6 126/3/6 50/11/6
f 126/3/6 184/2/6 228/1/6

usemtl color6

f 180/3/1 41/2/1 179/1/1
f 41/3/1 180/2/1 42/1/1
f 181/3/2 180/2/2 179/1/2
f 180/3/2 181/2/2 182/1/2
f 47/161/3 41/158/3 42/5/3
f 41/158/3 47/161/3 45/5/3
f 47/5/4 181/5/4 45/207/4
f 181/5/4 47/5/4 182/208/4
f 181/164/5 41/5/5 45/45/5
f 41/5/5 181/164/5 179/5/5
f 180/2/6 47/3/6 42/11/6
f 47/3/6 180/2/6 182/1/6
f 230/3/1 60/2/1 229/1/1
f 60/3/1 230/2/1 59/1/1
f 231/3/2 230/2/2 229/1/2
f 230/3/2 231/2/2 232/1/2
f 152/5/3 60/47/3 59/5/3
f 60/47/3 152/5/3 151/209/3
f 152/5/4 231/5/4 151/210/4
f 231/5/4 152/5/4 232/211/4
f 231/5/5 60/50/5 151/136/5
f 60/50/5 231/5/5 229/212/5
f 230/2/6 152/3/6 59/11/6
f 152/3/6 230/2/6 232/1/6
f 234/3/1 153/2/1 233/1/1
f 153/3/1 234/2/1 154/1/1
f 235/3/2 234/2/2 233/1/2
f 234/3/2 235/2/2 236/1/2
f 64/52/3 153/5/3 154/213/3
f 153/5/3 64/52/3 62/5/3
f 64/5/4 235/5/4 62/214/4
f 235/5/4 64/5/4 236/215/4
f 235/5/5 153/5/5 62/5/5
f 153/5/5 235/5/5 233/216/5
f 234/2/6 64/3/6 154/11/6
f 64/3/6 234/2/6 236/1/6
f 56/3/1 237/2/1 54/1/1
f 237/3/1 56/2/1 238/1/1
f 60/3/2 56/2/2 54/1/2
f 56/3/2 60/2/2 59/1/2
f 87/5/3 237/5/3 238/217/3
f 237/5/3 87/5/3 85/218/3
f 87/5/4 60/48/4 85/219/4
f 60/48/4 87/5/4 59/5/4
f 60/50/5 237/5/5 85/75/5
f 237/5/5 60/50/5 54/5/5
f 56/2/6 87/3/6 238/11/6
f 87/3/6 56/2/6 59/1/6
f 64/3/1 97/2/1 62/1/1
f 97/3/1 64/2/1 98/1/1
f 68/3/2 64/2/2 62/1/2
f 64/3/2 68/2/2 67/1/2
f 239/5/3 97/5/3 98/220/3
f 97/5/3 239/5/3 240/221/3
f 239/5/4 68/54/4 240/222/4
f 68/54/4 239/5/4 67/5/4
f 68/56/5 97/5/5 240/223/5
f 97/5/5 68/56/5 62/5/5
f 64/2/6 239/3/6 98/11/6
f 239/3/6 64/2/6 67/1/6

usemtl color10

f 35/3/1 224/2/1 36/1/1
f 224/3/1 35/2/1 223/1/1
f 241/3/2 35/2/2 36/1/2
f 35/3/2 241/2/2 242/1/2
f 243/5/3 224/199/3 223/5/3
f 224/199/3 243/5/3 244/224/3
f 243/5/4 241/5/4 244/225/4
f 241/5/4 243/5/4 242/226/4
f 241/5/5 224/201/5 244/227/5
f 224/201/5 241/5/5 36/32/5
f 35/2/6 243/3/6 223/11/6
f 243/3/6 35/2/6 242/1/6
f 205/3/1 245/2/1 206/1/1
f 245/3/1 205/2/1 246/1/1
f 208/3/2 205/2/2 206/1/2
f 205/3/2 208/2/2 210/1/2
f 247/5/3 245/5/3 246/228/3
f 245/5/3 247/5/3 248/229/3
f 247/5/4 208/197/4 248/230/4
f 208/197/4 247/5/4 210/5/4
f 208/5/5 245/5/5 248/231/5
f 245/5/5 208/5/5 206/183/5
f 205/2/6 247/3/6 246/11/6
f 247/3/6 205/2/6 210/1/6
f 221/3/1 249/2/1 222/1/1
f 249/3/1 221/2/1 250/1/1
f 224/3/2 221/2/2 222/1/2
f 221/3/2 224/2/2 223/1/2
f 251/5/3 249/5/3 250/232/3
f 249/5/3 251/5/3 252/233/3
f 251/5/4 224/200/4 252/234/4
f 224/200/4 251/5/4 223/5/4
f 224/201/5 249/5/5 252/235/5
f 249/5/5 224/201/5 222/195/5
f 221/2/6 251/3/6 250/11/6
f 251/3/6 221/2/6 223/1/6
f 255/3/1 254/2/1 253/1/1
f 254/3/1 255/2/1 256/1/1
f 257/3/2 255/2/2 253/1/2
f 255/3/2 257/2/2 258/1/2
f 259/5/3 254/5/3 256/236/3
f 254/5/3 259/5/3 260/237/3
f 259/5/4 257/5/4 260/238/4
f 257/5/4 259/5/4 258/239/4
f 257/5/5 254/5/5 260/240/5
f 254/5/5 257/5/5 253/241/5
f 255/2/6 259/3/6 256/11/6
f 259/3/6 255/2/6 258/1/6
f 263/3/1 262/2/1 261/1/1
f 262/3/1 263/2/1 264/1/1
f 265/3/2 263/2/2 261/1/2
f 263/3/2 265/2/2 266/1/2
f 267/5/3 262/5/3 264/242/3
f 262/5/3 267/5/3 268/243/3
f 267/5/4 265/5/4 268/244/4
f 265/5/4 267/5/4 266/245/4
f 265/5/5 262/5/5 268/246/5
f 262/5/5 265/5/5 261/247/5
f 263/2/6 267/3/6 264/11/6
f 267/3/6 263/2/6 266/1/6
f 270/3/1 73/2/1 269/1/1
f 73/3/1 270/2/1 74/1/1
f 271/3/2 270/2/2 269/1/2
f 270/3/2 271/2/2 272/1/2
f 273/5/3 73/5/3 74/248/3
f 73/5/3 273/5/3 274/249/3
f 273/5/4 271/5/4 274/250/4
f 271/5/4 273/5/4 272/251/4
f 271/5/5 73/5/5 274/252/5
f 73/5/5 271/5/5 269/253/5
f 270/2/6 273/3/6 74/11/6
f 273/3/6 270/2/6 272/1/6
f 277/3/1 276/2/1 275/1/1
f 276/3/1 277/2/1 278/1/1
f 279/3/2 277/2/2 275/1/2
f 277/3/2 279/2/2 280/1/2
f 79/5/3 276/5/3 278/254/3
f 276/5/3 79/5/3 77/255/3
f 79/115/4 279/5/4 77/5/4
f 279/5/4 79/115/4 280/256/4
f 279/5/5 276/5/5 77/69/5
f 276/5/5 279/5/5 275/257/5
f 277/2/6 79/3/6 278/11/6
f 79/3/6 277/2/6 280/1/6

usemtl color9

f 283/3/1 282/2/1 281/1/1
f 282/3/1 283/2/1 284/1/1
f 285/3/2 283/2/2 281/1/2
f 283/3/2 285/2/2 286/1/2
f 287/5/3 282/5/3 284/258/3
f 282/5/3 287/5/3 288/259/3
f 287/5/4 285/5/4 288/260/4
f 285/5/4 287/5/4 286/261/4
f 285/5/5 282/5/5 288/262/5
f 282/5/5 285/5/5 281/263/5
f 283/2/6 287/3/6 284/11/6
f 287/3/6 283/2/6 286/1/6
f 291/3/1 290/2/1 289/1/1
f 290/3/1 291/2/1 292/1/1
f 293/3/2 291/2/2 289/1/2
f 291/3/2 293/2/2 294/1/2
f 295/5/3 290/5/3 292/264/3
f 290/5/3 295/5/3 296/265/3
f 295/5/4 293/5/4 296/266/4
f 293/5/4 295/5/4 294/267/4
f 293/5/5 290/5/5 296/268/5
f 290/5/5 293/5/5 289/269/5
f 291/2/6 295/3/6 292/11/6
f 295/3/6 291/2/6 294/1/6
f 299/3/1 298/2/1 297/1/1
f 298/3/1 299/2/1 300/1/1
f 301/3/2 299/2/2 297/1/2
f 299/3/2 301/2/2 302/1/2
f 303/5/3 298/5/3 300/270/3
f 298/5/3 303/5/3 304/271/3
f 303/5/4 301/5/4 304/272/4
f 301/5/4 303/5/4 302/273/4
f 301/5/5 298/5/5 304/274/5
f 298/5/5 301/5/5 297/275/5
f 299/2/6 303/3/6 300/11/6
f 303/3/6 299/2/6 302/1/6
f 307/3/1 306/2/1 305/1/1
f 306/3/1 307/2/1 308/1/1
f 309/3/2 307/2/2 305/1/2
f 307/3/2 309/2/2 310/1/2
f 311/5/3 306/5/3 308/276/3
f 306/5/3 311/5/3 312/277/3
f 311/5/4 309/5/4 312/278/4
f 309/5/4 311/5/4 310/279/4
f 309/5/5 306/5/5 312/280/5
f 306/5/5 309/5/5 305/281/5
f 307/2/6 311/3/6 308/11/6
f 311/3/6 307/2/6 310/1/6
f 315/3/1 314/2/1 313/1/1
f 314/3/1 315/2/1 316/1/1
f 317/3/2 315/2/2 313/1/2
f 315/3/2 317/2/2 318/1/2
f 319/5/3 314/5/3 316/282/3
f 314/5/3 319/5/3 320/283/3
f 319/5/4 317/5/4 320/284/4
f 317/5/4 319/5/4 318/285/4
f 317/5/5 314/5/5 320/286/5
f 314/5/5 317/5/5 313/287/5
f 315/2/6 319/3/6 316/11/6
f 319/3/6 315/2/6 318/1/6
f 323/3/1 322/2/1 321/1/1
f 322/3/1 323/2/1 324/1/1
f 325/3/2 323/2/2 321/1/2
f 323/3/2 325/2/2 326/1/2
f 327/5/3 322/5/3 324/288/3
f 322/5/3 327/5/3 328/289/3
f 327/5/4 325/5/4 328/290/4
f 325/5/4 327/5/4 326/291/4
f 325/5/5 322/5/5 328/292/5
f 322/5/5 325/5/5 321/293/5
f 323/2/6 327/3/6 324/11/6
f 327/3/6 323/2/6 326/1/6
f 331/3/1 330/2/1 329/1/1
f 330/3/1 331/2/1 332/1/1
f 333/3/2 331/2/2 329/1/2
f 331/3/2 333/2/2 334/1/2
f 335/5/3 330/5/3 332/294/3
f 330/5/3 335/5/3 336/295/3
f 335/5/4 333/5/4 336/296/4
f 333/5/4 335/5/4 334/297/4
f 333/5/5 330/5/5 336/298/5
f 330/5/5 333/5/5 329/299/5
f 331/2/6 335/3/6 332/11/6
f 335/3/6 331/2/6 334/1/6
f 339/3/1 338/2/1 337/1/1
f 338/3/1 339/2/1 340/1/1
f 341/3/2 339/2/2 337/1/2
f 339/3/2 341/2/2 342/1/2
f 343/5/3 338/5/3 340/300/3
f 338/5/3 343/5/3 344/301/3
f 343/5/4 341/5/4 344/302/4
f 341/5/4 343/5/4 342/303/4
f 341/5/5 338/5/5 344/304/5
f 338/5/5 341/5/5 337/305/5
f 339/2/6 343/3/6 340/11/6
f 343/3/6 339/2/6 342/1/6
f 347/3/1 346/2/1 345/1/1
f 346/3/1 347/2/1 348/1/1
f 349/3/2 347/2/2 345/1/2
f 347/3/2 349/2/2 350/1/2
f 351/5/3 346/5/3 348/306/3
f 346/5/3 351/5/3 352/307/3
f 351/5/4 349/5/4 352/308/4
f 349/5/4 351/5/4 350/309/4
f 349/5/5 346/5/5 352/310/5
f 346/5/5 349/5/5 345/311/5
f 347/2/6 351/3/6 348/11/6
f 351/3/6 347/2/6 350/1/6
f 355/3/1 354/2/1 353/1/1
f 354/3/1 355/2/1 356/1/1
f 357/3/2 355/2/2 353/1/2
f 355/3/2 357/2/2 358/1/2
f 359/5/3 354/5/3 356/312/3
f 354/5/3 359/5/3 360/313/3
f 359/5/4 357/5/4 360/314/4
f 357/5/4 359/5/4 358/315/4
f 357/5/5 354/5/5 360/316/5
f 354/5/5 357/5/5 353/317/5
f 355/2/6 359/3/6 356/11/6
f 359/3/6 355/2/6 358/1/6
f 363/3/1 362/2/1 361/1/1
f 362/3/1 363/2/1 364/1/1
f 365/3/2 363/2/2 361/1/2
f 363/3/2 365/2/2 366/1/2
f 367/5/3 362/5/3 364/318/3
f 362/5/3 367/5/3 368/319/3
f 367/5/4 365/5/4 368/320/4
f 365/5/4 367/5/4 366/321/4
f 365/5/5 362/5/5 368/322/5
f 362/5/5 365/5/5 361/323/5
f 363/2/6 367/3/6 364/11/6
f 367/3/6 363/2/6 366/1/6
f 371/3/1 370/2/1 369/1/1
f 370/3/1 371/2/1 372/1/1
f 373/3/2 371/2/2 369/1/2
f 371/3/2 373/2/2 374/1/2
f 375/5/3 370/5/3 372/324/3
f 370/5/3 375/5/3 376/325/3
f 375/5/4 373/5/4 376/326/4
f 373/5/4 375/5/4 374/327/4
f 373/5/5 370/5/5 376/328/5
f 370/5/5 373/5/5 369/329/5
f 371/2/6 375/3/6 372/11/6
f 375/3/6 371/2/6 374/1/6
f 379/3/1 378/2/1 377/1/1
f 378/3/1 379/2/1 380/1/1
f 381/3/2 379/2/2 377/1/2
f 379/3/2 381/2/2 382/1/2
f 383/5/3 378/5/3 380/330/3
f 378/5/3 383/5/3 384/331/3
f 383/5/4 381/5/4 384/332/4
f 381/5/4 383/5/4 382/333/4
f 381/5/5 378/5/5 384/334/5
f 378/5/5 381/5/5 377/335/5
f 379/2/6 383/3/6 380/11/6
f 383/3/6 379/2/6 382/1/6

usemtl color2

f 387/3/1 386/2/1 385/1/1
f 386/3/1 387/2/1 388/1/1
f 389/3/2 387/2/2 385/1/2
f 387/3/2 389/2/2 390/1/2
f 391/5/3 386/5/3 388/336/3
f 386/5/3 391/5/3 392/337/3
f 391/5/4 389/5/4 392/338/4
f 389/5/4 391/5/4 390/339/4
f 389/5/5 386/5/5 392/340/5
f 386/5/5 389/5/5 385/341/5
f 387/2/6 391/3/6 388/11/6
f 391/3/6 387/2/6 390/1/6
f 395/3/1 394/2/1 393/1/1
f 394/3/1 395/2/1 396/1/1
f 397/3/2 395/2/2 393/1/2
f 395/3/2 397/2/2 398/1/2
f 388/336/3 394/5/3 396/342/3
f 394/5/3 388/336/3 386/5/3
f 388/5/4 397/5/4 386/343/4
f 397/5/4 388/5/4 398/344/4
f 397/5/5 394/5/5 386/5/5
f 394/5/5 397/5/5 393/345/5
f 395/2/6 388/3/6 396/11/6
f 388/3/6 395/2/6 398/1/6
f 400/3/1 392/2/1 399/1/1
f 392/3/1 400/2/1 391/1/1
f 401/3/2 400/2/2 399/1/2
f 400/3/2 401/2/2 402/1/2
f 403/5/3 392/337/3 391/5/3
f 392/337/3 403/5/3 404/346/3
f 403/5/4 401/5/4 404/347/4
f 401/5/4 403/5/4 402/348/4
f 401/5/5 392/340/5 404/349/5
f 392/340/5 401/5/5 399/350/5
f 400/2/6 403/3/6 391/11/6
f 403/3/6 400/2/6 402/1/6
f 407/3/1 406/2/1 405/1/1
f 406/3/1 407/2/1 408/1/1
f 409/3/2 407/2/2 405/1/2
f 407/3/2 409/2/2 410/1/2
f 411/5/3 406/5/3 408/351/3
f 406/5/3 411/5/3 412/352/3
f 411/5/4 409/5/4 412/353/4
f 409/5/4 411/5/4 410/354/4
f 409/5/5 406/5/5 412/355/5
f 406/5/5 409/5/5 405/356/5
f 407/2/6 411/3/6 408/11/6
f 411/3/6 407/2/6 410/1/6
f 415/3/1 414/2/1 413/1/1
f 414/3/1 415/2/1 416/1/1
f 417/3/2 415/2/2 413/1/2
f 415/3/2 417/2/2 418/1/2
f 419/5/3 414/5/3 416/357/3
f 414/5/3 419/5/3 420/358/3
f 419/5/4 417/5/4 420/359/4
f 417/5/4 419/5/4 418/360/4
f 417/5/5 414/5/5 420/361/5
f 414/5/5 417/5/5 413/362/5
f 415/2/6 419/3/6 416/11/6
f 419/3/6 415/2/6 418/1/6
f 423/3/1 422/2/1 421/1/1
f 422/3/1 423/2/1 424/1/1
f 425/3/2 423/2/2 421/1/2
f 423/3/2 425/2/2 426/1/2
f 427/5/3 422/5/3 424/363/3
f 422/5/3 427/5/3 428/364/3
f 427/5/4 425/5/4 428/365/4
f 425/5/4 427/5/4 426/366/4
f 425/5/5 422/5/5 428/367/5
f 422/5/5 425/5/5 421/368/5
f 423/2/6 427/3/6 424/11/6
f 427/3/6 423/2/6 426/1/6

usemtl color11

f 284/3/1 313/2/1 282/1/1
f 313/3/1 284/2/1 315/1/1
f 288/3/2 284/2/2 282/1/2
f 284/3/2 288/2/2 287/1/2
f 318/5/3 313/5/3 315/369/3
f 313/5/3 318/5/3 317/370/3
f 318/285/4 288/260/4 317/5/4
f 288/260/4 318/285/4 287/5/4
f 288/262/5 313/287/5 317/5/5
f 313/287/5 288/262/5 282/5/5
f 284/2/6 318/3/6 315/11/6
f 318/3/6 284/2/6 287/1/6
f 292/3/1 321/2/1 290/1/1
f 321/3/1 292/2/1 323/1/1
f 296/3/2 292/2/2 290/1/2
f 292/3/2 296/2/2 295/1/2
f 326/5/3 321/5/3 323/371/3
f 321/5/3 326/5/3 325/372/3
f 326/291/4 296/266/4 325/5/4
f 296/266/4 326/291/4 295/5/4
f 296/268/5 321/293/5 325/5/5
f 321/293/5 296/268/5 290/5/5
f 292/2/6 326/3/6 323/11/6
f 326/3/6 292/2/6 295/1/6
f 300/3/1 337/2/1 298/1/1
f 337/3/1 300/2/1 339/1/1
f 304/3/2 300/2/2 298/1/2
f 300/3/2 304/2/2 303/1/2
f 342/5/3 337/5/3 339/373/3
f 337/5/3 342/5/3 341/374/3
f 342/303/4 304/272/4 341/5/4
f 304/272/4 342/303/4 303/5/4
f 304/274/5 337/305/5 341/5/5
f 337/305/5 304/274/5 298/5/5
f 300/2/6 342/3/6 339/11/6
f 342/3/6 300/2/6 303/1/6
f 308/3/1 345/2/1 306/1/1
f 345/3/1 308/2/1 347/1/1
f 312/3/2 308/2/2 306/1/2
f 308/3/2 312/2/2 311/1/2
f 350/5/3 345/5/3 347/375/3
f 345/5/3 350/5/3 349/376/3
f 350/309/4 312/278/4 349/5/4
f 312/278/4 350/309/4 311/5/4
f 312/280/5 345/311/5 349/5/5
f 345/311/5 312/280/5 306/5/5
f 308/2/6 350/3/6 347/11/6
f 350/3/6 308/2/6 311/1/6
f 334/3/1 336/2/1 333/1/1
f 336/3/1 334/2/1 335/1/1
f 429/3/2 334/2/2 333/1/2
f 334/3/2 429/2/2 430/1/2
f 431/5/3 336/295/3 335/5/3
f 336/295/3 431/5/3 432/377/3
f 431/5/4 429/5/4 432/378/4
f 429/5/4 431/5/4 430/379/4
f 429/5/5 336/298/5 432/380/5
f 336/298/5 429/5/5 333/5/5
f 334/2/6 431/3/6 335/11/6
f 431/3/6 334/2/6 430/1/6
f 316/3/1 353/2/1 314/1/1
f 353/3/1 316/2/1 355/1/1
f 320/3/2 316/2/2 314/1/2
f 316/3/2 320/2/2 319/1/2
f 358/5/3 353/5/3 355/381/3
f 353/5/3 358/5/3 357/382/3
f 358/315/4 320/284/4 357/5/4
f 320/284/4 358/315/4 319/5/4
f 320/286/5 353/317/5 357/5/5
f 353/317/5 320/286/5 314/5/5
f 316/2/6 358/3/6 355/11/6
f 358/3/6 316/2/6 319/1/6
f 324/3/1 361/2/1 322/1/1
f 361/3/1 324/2/1 363/1/1
f 328/3/2 324/2/2 322/1/2
f 324/3/2 328/2/2 327/1/2
f 366/5/3 361/5/3 363/383/3
f 361/5/3 366/5/3 365/384/3
f 366/321/4 328/290/4 365/5/4
f 328/290/4 366/321/4 327/5/4
f 328/292/5 361/323/5 365/5/5
f 361/323/5 328/292/5 322/5/5
f 324/2/6 366/3/6 363/11/6
f 366/3/6 324/2/6 327/1/6
f 340/3/1 369/2/1 338/1/1
f 369/3/1 340/2/1 371/1/1
f 344/3/2 340/2/2 338/1/2
f 340/3/2 344/2/2 343/1/2
f 374/5/3 369/5/3 371/385/3
f 369/5/3 374/5/3 373/386/3
f 374/327/4 344/302/4 373/5/4
f 344/302/4 374/327/4 343/5/4
f 344/304/5 369/329/5 373/5/5
f 369/329/5 344/304/5 338/5/5
f 340/2/6 374/3/6 371/11/6
f 374/3/6 340/2/6 343/1/6
f 348/3/1 377/2/1 346/1/1
f 377/3/1 348/2/1 379/1/1
f 352/3/2 348/2/2 346/1/2
f 348/3/2 352/2/2 351/1/2
f 382/5/3 377/5/3 379/387/3
f 377/5/3 382/5/3 381/388/3
f 382/333/4 352/308/4 381/5/4
f 352/308/4 382/333/4 351/5/4
f 352/310/5 377/335/5 381/5/5
f 377/335/5 352/310/5 346/5/5
f 348/2/6 382/3/6 379/11/6
f 382/3/6 348/2/6 351/1/6

usemtl color12

f 246/3/1 253/2/1 245/1/1
f 253/3/1 246/2/1 255/1/1
f 248/3/2 246/2/2 245/1/2
f 246/3/2 248/2/2 247/1/2
f 258/5/3 253/5/3 255/389/3
f 253/5/3 258/5/3 257/390/3
f 258/239/4 248/230/4 257/5/4
f 248/230/4 258/239/4 247/5/4
f 248/231/5 253/241/5 257/5/5
f 253/241/5 248/231/5 245/5/5
f 246/2/6 258/3/6 255/11/6
f 258/3/6 246/2/6 247/1/6
f 250/3/1 261/2/1 249/1/1
f 261/3/1 250/2/1 263/1/1
f 252/3/2 250/2/2 249/1/2
f 250/3/2 252/2/2 251/1/2
f 266/5/3 261/5/3 263/391/3
f 261/5/3 266/5/3 265/392/3
f 266/245/4 252/234/4 265/5/4
f 252/234/4 266/245/4 251/5/4
f 252/235/5 261/247/5 265/5/5
f 261/247/5 252/235/5 249/5/5
f 250/2/6 266/3/6 263/11/6
f 266/3/6 250/2/6 251/1/6
f 256/3/1 269/2/1 254/1/1
f 269/3/1 256/2/1 270/1/1
f 260/3/2 256/2/2 254/1/2
f 256/3/2 260/2/2 259/1/2
f 272/5/3 269/5/3 270/393/3
f 269/5/3 272/5/3 271/394/3
f 272/251/4 260/238/4 271/5/4
f 260/238/4 272/251/4 259/5/4
f 260/240/5 269/253/5 271/5/5
f 269/253/5 260/240/5 254/5/5
f 256/2/6 272/3/6 270/11/6
f 272/3/6 256/2/6 259/1/6
f 264/3/1 275/2/1 262/1/1
f 275/3/1 264/2/1 277/1/1
f 268/3/2 264/2/2 262/1/2
f 264/3/2 268/2/2 267/1/2
f 280/5/3 275/5/3 277/395/3
f 275/5/3 280/5/3 279/396/3
f 280/256/4 268/244/4 279/5/4
f 268/244/4 280/256/4 267/5/4
f 268/246/5 275/257/5 279/5/5
f 275/257/5 268/246/5 262/5/5
f 264/2/6 280/3/6 277/11/6
f 280/3/6 264/2/6 267/1/6

usemtl color13

f 396/3/1 433/2/1 394/1/1
f 433/3/1 396/2/1 434/1/1
f 386/3/2 396/2/2 394/1/2
f 396/3/2 386/2/2 388/1/2
f 408/351/3 433/5/3 434/397/3
f 433/5/3 408/351/3 406/5/3
f 408/5/4 386/343/4 406/398/4
f 386/343/4 408/5/4 388/5/4
f 386/5/5 433/5/5 406/5/5
f 433/5/5 386/5/5 394/5/5
f 396/2/6 408/3/6 434/11/6
f 408/3/6 396/2/6 388/1/6
f 391/3/1 412/2/1 392/1/1
f 412/3/1 391/2/1 411/1/1
f 404/3/2 391/2/2 392/1/2
f 391/3/2 404/2/2 403/1/2
f 435/5/3 412/352/3 411/5/3
f 412/352/3 435/5/3 436/399/3
f 435/5/4 404/347/4 436/400/4
f 404/347/4 435/5/4 403/5/4
f 404/349/5 412/355/5 436/401/5
f 412/355/5 404/349/5 392/340/5
f 391/2/6 435/3/6 411/11/6
f 435/3/6 391/2/6 403/1/6

usemtl color3

f 232/3/1 151/2/1 231/1/1
f 151/3/1 232/2/1 152/1/1
f 233/3/2 232/2/2 231/1/2
f 232/3/2 233/2/2 234/1/2
f 154/213/3 151/209/3 152/5/3
f 151/209/3 154/213/3 153/5/3
f 154/135/4 233/5/4 153/5/4
f 233/5/4 154/135/4 234/402/4
f 233/216/5 151/136/5 153/5/5
f 151/136/5 233/216/5 231/5/5
f 232/2/6 154/3/6 152/11/6
f 154/3/6 232/2/6 234/1/6
f 238/3/1 437/2/1 237/1/1
f 437/3/1 238/2/1 438/1/1
f 85/3/2 238/2/2 237/1/2
f 238/3/2 85/2/2 87/1/2
f 88/70/3 437/5/3 438/403/3
f 437/5/3 88/70/3 86/5/3
f 88/5/4 85/219/4 86/404/4
f 85/219/4 88/5/4 87/5/4
f 85/75/5 437/5/5 86/5/5
f 437/5/5 85/75/5 237/5/5
f 238/2/6 88/3/6 438/11/6
f 88/3/6 238/2/6 87/1/6
f 98/3/1 100/2/1 97/1/1
f 100/3/1 98/2/1 99/1/1
f 240/3/2 98/2/2 97/1/2
f 98/3/2 240/2/2 239/1/2
f 439/5/3 100/77/3 99/5/3
f 100/77/3 439/5/3 440/405/3
f 439/5/4 240/222/4 440/406/4
f 240/222/4 439/5/4 239/5/4
f 240/223/5 100/80/5 440/407/5
f 100/80/5 240/223/5 97/5/5
f 98/2/6 439/3/6 99/11/6
f 439/3/6 98/2/6 239/1/6

usemtl color7

f 59/3/1 85/2/1 60/1/1
f 85/3/1 59/2/1 87/1/1
f 151/3/2 59/2/2 60/1/2
f 59/3/2 151/2/2 152/1/2
f 90/133/3 85/218/3 87/5/3
f 85/218/3 90/133/3 89/5/3
f 90/73/4 151/210/4 89/5/4
f 151/210/4 90/73/4 152/5/4
f 151/136/5 85/75/5 89/5/5
f 85/75/5 151/136/5 60/50/5
f 59/2/6 90/3/6 87/11/6
f 90/3/6 59/2/6 152/1/6
f 154/3/1 93/2/1 153/1/1
f 93/3/1 154/2/1 95/1/1
f 62/3/2 154/2/2 153/1/2
f 154/3/2 62/2/2 64/1/2
f 98/220/3 93/134/3 95/5/3
f 93/134/3 98/220/3 97/5/3
f 98/79/4 62/214/4 97/5/4
f 62/214/4 98/79/4 64/5/4
f 62/5/5 93/81/5 97/5/5
f 93/81/5 62/5/5 153/5/5
f 154/2/6 98/3/6 95/11/6
f 98/3/6 154/2/6 64/1/6

