# Created by Kenney (www.kenney.nl)

mtllib Missile F100 Acaer.mtl

v 14 7 -0.4
v 14 6 -0.4
v 14 7 0.4
v 14 6 0.4
v 13 7 -0.4
v 13 7 0.4
v 13 6 0.4
v 13 6 -0.4
v 13 5 -0.8
v 13 4 -0.8
v 13 5 0.8
v 13 4 0.8
v 12 5 -0.8
v 12 5 0.8
v 12 4 0.8
v 12 4 -0.8
v 12 5 -0.4
v 12 4 -0.4
v 12 5 0.4
v 12 4 0.4
v 11 5 -0.4
v 11 5 0.4
v 11 4 0.4
v 11 4 -0.4
v 13 -3 -0.8
v 13 -4 -0.8
v 13 -3 0.8
v 13 -4 0.8
v 12 -3 -0.8
v 12 -3 0.8
v 12 -4 0.8
v 12 -4 -0.8
v 12 -3 -0.4
v 12 -4 -0.4
v 12 -3 0.4
v 12 -4 0.4
v 11 -3 -0.4
v 11 -3 0.4
v 11 -4 0.4
v 11 -4 -0.4
v 14 -5 -0.4
v 14 -6 -0.4
v 14 -5 0.4
v 14 -6 0.4
v 13 -5 -0.4
v 13 -5 0.4
v 13 -6 0.4
v 13 -6 -0.4
v 12 7 -0.4
v 12 7 0.4
v 12 6 0.4
v 12 6 -0.4
v 10 5 -0.4
v 10 5 0.4
v 10 4 0.4
v 10 4 -0.4
v -10 5 -0.4
v -10 4 -0.4
v -10 5 0.4
v -10 4 0.4
v -12 5 -0.4
v -12 5 0.4
v -12 4 0.4
v -12 4 -0.4
v 18 4 -0.4
v 18 3 -0.4
v 18 4 0.4
v 18 3 0.4
v 17 4 -0.4
v 17 4 0.4
v 17 3 0.4
v 17 3 -0.4
v 18 -2 -0.4
v 18 -3 -0.4
v 18 -2 0.4
v 18 -3 0.4
v 17 -2 -0.4
v 17 -2 0.4
v 17 -3 0.4
v 17 -3 -0.4
v 10 -3 -0.4
v 10 -3 0.4
v 10 -4 0.4
v 10 -4 -0.4
v -10 -3 -0.4
v -10 -4 -0.4
v -10 -3 0.4
v -10 -4 0.4
v -12 -3 -0.4
v -12 -3 0.4
v -12 -4 0.4
v -12 -4 -0.4
v 12 -5 -0.4
v 12 -5 0.4
v 12 -6 0.4
v 12 -6 -0.4
v 14 5 -0.4
v 14 5 0.4
v 13 5 0.4
v 13 5 -0.4
v 3 4 -1.2
v 3 3 -1.2
v 3 4 1.2
v 3 3 1.2
v 0 4 -1.2
v 0 4 1.2
v 0 3 1.2
v 0 3 -1.2
v 3 0 -2.8
v 3 -1 -2.8
v 3 0 2.8
v 3 -1 2.8
v 0 0 -2.8
v 0 0 2.8
v 0 -1 2.8
v 0 -1 -2.8
v 14 -4 -0.4
v 14 -4 0.4
v 13 -4 -0.4
v 13 -4 0.4
v 11 6 -0.4
v 11 6 0.4
v 3 2 -2.8
v 3 1 -2.8
v 3 2 2.8
v 3 1 2.8
v 0 2 -2.8
v 0 2 2.8
v 0 1 2.8
v 0 1 -2.8
v 11 -5 0.4
v 11 -5 -0.4
v 14 5 -0.8
v 14 4 -0.8
v 14 5 0.8
v 14 4 0.8
v 19 4 -0.4
v 19 3 -0.4
v 19 4 0.4
v 19 3 0.4
v 15 3 -2
v 15 2 -2
v 15 3 2
v 15 2 2
v 14 3 -2
v 14 3 2
v 14 2 2
v 14 2 -2
v 19 1 -2.8
v 19 0 -2.8
v 19 1 2.8
v 19 0 2.8
v 16 1 -2.8
v 16 1 2.8
v 16 0 2.8
v 16 0 -2.8
v 14 1 -3.2
v 14 0 -3.2
v 14 1 3.2
v 14 0 3.2
v 7 1 -3.2
v 7 1 3.2
v 7 0 3.2
v 7 0 -3.2
v 4 1 -3.2
v 4 0 -3.2
v 4 1 3.2
v 4 0 3.2
v 3 1 -3.2
v 3 1 3.2
v 3 0 3.2
v 3 0 -3.2
v 0 1 -3.2
v 0 0 -3.2
v 0 1 3.2
v 0 0 3.2
v -19 1 -3.2
v -19 1 3.2
v -19 0 3.2
v -19 0 -3.2
v -20 1 -2
v -20 0 -2
v -20 1 2
v -20 0 2
v -21 1 -2
v -21 1 2
v -21 0 2
v -21 0 -2
v 19 -2 -0.4
v 19 -3 -0.4
v 19 -2 0.4
v 19 -3 0.4
v 14 -3 -0.8
v 14 -4 -0.8
v 14 -3 0.8
v 14 -4 0.8
v -9 5 -0.4
v -9 4 -0.4
v -9 5 0.4
v -9 4 0.4
v 19 3 -1.2
v 19 2 -1.2
v 19 3 1.2
v 19 2 1.2
v 16 3 -1.2
v 16 3 1.2
v 16 2 1.2
v 16 2 -1.2
v 7 3 -2
v 7 3 2
v 7 2 2
v 7 2 -2
v 4 3 -2
v 4 2 -2
v 4 3 2
v 4 2 2
v 3 3 -2
v 3 3 2
v 3 2 2
v 3 2 -2
v 0 3 -2
v 0 2 -2
v 0 3 2
v 0 2 2
v -18 3 -2
v -18 3 2
v -18 2 2
v -18 2 -2
v -18 3 -1.2
v -18 2 -1.2
v -18 3 1.2
v -18 2 1.2
v -19 3 -1.2
v -19 3 1.2
v -19 2 1.2
v -19 2 -1.2
v 15 2 -2.8
v 15 1 -2.8
v 15 2 2.8
v 15 1 2.8
v 14 2 -2.8
v 14 2 2.8
v 14 1 2.8
v 14 1 -2.8
v 7 2 -2.8
v 7 1 -2.8
v 7 2 2.8
v 7 1 2.8
v 6 2 -2.8
v 6 2 2.8
v 6 1 2.8
v 6 1 -2.8
v 5 2 -2.8
v 5 1 -2.8
v 5 2 2.8
v 5 1 2.8
v 4 2 -2.8
v 4 2 2.8
v 4 1 2.8
v 4 1 -2.8
v -19 2 -2
v -19 1 -2
v -19 2 2
v -19 1 2
v -20 2 -2
v -20 2 2
v -9 -3 -0.4
v -9 -4 -0.4
v -9 -3 0.4
v -9 -4 0.4
v 15 4 -1.2
v 15 3 -1.2
v 15 4 1.2
v 15 3 1.2
v 6 4 -1.2
v 6 4 1.2
v 6 3 1.2
v 6 3 -1.2
v 5 4 -1.2
v 5 3 -1.2
v 5 4 1.2
v 5 3 1.2
v -18 4 -1.2
v -18 4 1.2
v 6 3 -2
v 6 3 2
v 6 2 2
v 6 2 -2
v 5 3 -2
v 5 2 -2
v 5 3 2
v 5 2 2
v -21 3 -1.2
v -21 3 1.2
v -21 2 1.2
v -21 2 -1.2
v -21 2 -2
v -21 2 2
v -21 1 -1.2
v -21 1 1.2
v -22 2 -1.2
v -22 2 1.2
v -22 1 1.2
v -22 1 -1.2
v 20 3 -1.2
v 20 2 -1.2
v 20 3 1.2
v 20 2 1.2
v 16 3 -1.6
v 16 2 -1.6
v 16 3 1.6
v 16 2 1.6
v 15 3 -1.6
v 15 3 1.6
v 15 2 1.6
v 15 2 -1.6
v 6 3 -1.6
v 6 2 -1.6
v 6 3 1.6
v 6 2 1.6
v 5 3 -1.6
v 5 3 1.6
v 5 2 1.6
v 5 2 -1.6
v 22 2 -1.2
v 22 1 -1.2
v 22 2 1.2
v 22 1 1.2
v 21 2 -1.2
v 21 2 1.2
v 21 1 1.2
v 21 1 -1.2
v 20 1 -2.8
v 20 0 -2.8
v 20 1 2.8
v 20 0 2.8
v 16 1 -2.4
v 16 0 -2.4
v 16 1 2.4
v 16 0 2.4
v 15 1 -2.4
v 15 1 2.4
v 15 0 2.4
v 15 0 -2.4
v 22 0 -1.2
v 22 -1 -1.2
v 22 0 1.2
v 22 -1 1.2
v 21 0 -1.2
v 21 0 1.2
v 21 -1 1.2
v 21 -1 -1.2
v 20 0 -2
v 20 -1 -2
v 20 0 2
v 20 -1 2
v 19 0 -2
v 19 0 2
v 19 -1 2
v 19 -1 -2
v 16 0 -2
v 16 -1 -2
v 16 0 2
v 16 -1 2
v 15 0 -2
v 15 0 2
v 15 -1 2
v 15 -1 -2
v 15 0 -2.8
v 15 -1 -2.8
v 15 0 2.8
v 15 -1 2.8
v 14 0 -2.8
v 14 0 2.8
v 14 -1 2.8
v 14 -1 -2.8
v -21 0 -1.2
v -21 -1 -1.2
v -21 0 1.2
v -21 -1 1.2
v -22 0 -1.2
v -22 0 1.2
v -22 -1 1.2
v -22 -1 -1.2
v 19 -1 -1.2
v 19 -2 -1.2
v 19 -1 1.2
v 19 -2 1.2
v 16 -1 -1.2
v 16 -1 1.2
v 16 -2 1.2
v 16 -2 -1.2
v 16 -1 -1.6
v 16 -2 -1.6
v 16 -1 1.6
v 16 -2 1.6
v 15 -1 -1.6
v 15 -1 1.6
v 15 -2 1.6
v 15 -2 -1.6
v 14 -1 -2
v 14 -2 -2
v 14 -1 2
v 14 -2 2
v 6 -1 -2
v 6 -1 2
v 6 -2 2
v 6 -2 -2
v 5 -1 -2
v 5 -2 -2
v 5 -1 2
v 5 -2 2
v 3 -1 -2
v 3 -1 2
v 3 -2 2
v 3 -2 -2
v 0 -1 -2
v 0 -2 -2
v 0 -1 2
v 0 -2 2
v -18 -1 -2
v -18 -1 2
v -18 -2 2
v -18 -2 -2
v -18 -1 -1.2
v -18 -2 -1.2
v -18 -1 1.2
v -18 -2 1.2
v -21 -2 1.2
v -21 -2 -1.2
v 20 1 1.2
v 20 1 -1.2
v 16 2 -2
v 16 1 -2
v 16 2 2
v 16 1 2
v 15 1 2
v 15 1 -2
v 6 1 -3.2
v 6 1 3.2
v 6 0 3.2
v 6 0 -3.2
v 5 1 -3.2
v 5 0 -3.2
v 5 1 3.2
v 5 0 3.2
v 20 0 -1.2
v 20 0 1.2
v 20 -1 1.2
v 20 -1 -1.2
v 20 2 -2
v 20 1 -2
v 20 2 2
v 20 1 2
v 19 2 -2
v 19 2 2
v 19 1 2
v 19 1 -2
v 15 1 -3.2
v 15 0 -3.2
v 15 1 3.2
v 15 0 3.2
v 6 0 -2.8
v 6 0 2.8
v 6 -1 2.8
v 6 -1 -2.8
v 5 0 -2.8
v 5 -1 -2.8
v 5 0 2.8
v 5 -1 2.8
v -19 0 -2.8
v -19 0 2.8
v -19 -1 2.8
v -19 -1 -2.8
v -19 0 -2
v -19 -1 -2
v -19 0 2
v -19 -1 2
v -21 -1 2
v -21 -1 -2
v 18 2 -2
v 18 2 2
v 18 1 2
v 18 1 -2
v -19 2 -2.8
v -19 2 2.8
v -19 1 2.8
v -19 1 -2.8
v 6 1 -2
v 6 1 2
v 5 1 2
v 5 1 -2
v 6 1 -2.4
v 6 0 -2.4
v 6 1 2.4
v 6 0 2.4
v 5 1 -2.4
v 5 1 2.4
v 5 0 2.4
v 5 0 -2.4
v 6 0 -2
v 6 0 2
v 5 0 -2
v 5 0 2
v 20 -2 -1.2
v 20 -2 1.2
v 15 -2 -2
v 15 -2 2
v 6 -1 -1.6
v 6 -2 -1.6
v 6 -1 1.6
v 6 -2 1.6
v 5 -1 -1.6
v 5 -1 1.6
v 5 -2 1.6
v 5 -2 -1.6
v 14 -2 -1.2
v 14 -3 -1.2
v 14 -2 1.2
v 14 -3 1.2
v 6 -2 -1.2
v 6 -2 1.2
v 6 -3 1.2
v 6 -3 -1.2
v 5 -2 -1.2
v 5 -3 -1.2
v 5 -2 1.2
v 5 -3 1.2
v 3 -2 -1.2
v 3 -2 1.2
v 3 -3 1.2
v 3 -3 -1.2
v 0 -2 -1.2
v 0 -3 -1.2
v 0 -2 1.2
v 0 -3 1.2
v -18 -3 1.2
v -18 -3 -1.2
v 22 1 -0.8
v 22 0 -0.8
v 22 1 0.8
v 22 0 0.8
v 21 1 -0.8
v 21 1 0.8
v 21 0 0.8
v 21 0 -0.8
v -20 1 -2.8
v -20 1 2.8
v -20 0 2.8
v -20 0 -2.8
v 15 -2 -1.2
v 15 -3 -1.2
v 15 -2 1.2
v 15 -3 1.2

vn 1 0 0
vn 0 1 0
vn 0 -1 0
vn -1 0 0
vn 0 0 -1
vn 0 0 1

vt -19.68504 19.68504
vt 19.68504 19.68504
vt -19.68504 -19.68504
vt 0 NaN
vt 0 0
vt 0 NaN
vt 0 NaN
vt 0 NaN
vt 0 NaN
vt 0 NaN
vt 19.68504 -19.68504
vt 0 NaN
vt 0 NaN
vt 0 NaN
vt 0 NaN
vt 0 NaN
vt 0 NaN
vt 0 NaN
vt 0 NaN
vt 0 NaN
vt 0 NaN
vt 0 NaN
vt 0 NaN
vt 0 NaN
vt 0 NaN
vt 0 NaN
vt 0 NaN
vt 0 NaN
vt 0 NaN
vt 0 NaN
vt 0 NaN
vt 0 NaN
vt 0 NaN
vt 0 NaN
vt 0 NaN
vt 0 NaN
vt 0 NaN
vt 0 NaN
vt 0 NaN
vt 0 NaN
vt 0 NaN
vt 0 NaN
vt 0 NaN
vt 0 NaN
vt 0 NaN
vt 0 NaN
vt 0 NaN
vt 0 NaN
vt 0 NaN
vt 0 NaN
vt 0 NaN
vt 0 NaN
vt 0 NaN
vt 0 NaN
vt 0 NaN
vt 0 NaN
vt 0 NaN
vt 0 NaN
vt 0 NaN
vt 0 NaN
vt 0 NaN
vt 0 NaN
vt 0 NaN
vt 0 NaN
vt 0 NaN
vt 0 NaN
vt 0 NaN
vt 0 NaN
vt 0 NaN
vt 0 NaN
vt 0 NaN
vt 0 NaN
vt 0 NaN
vt 0 NaN
vt 0 NaN
vt 0 NaN
vt 0 NaN
vt 0 NaN
vt 0 NaN
vt 0 NaN
vt 0 NaN
vt 0 NaN
vt 0 NaN
vt 0 NaN
vt 0 NaN
vt 0 NaN
vt 0 NaN
vt 0 NaN
vt 0 NaN
vt 0 NaN
vt 0 NaN
vt 0 NaN
vt 0 NaN
vt 0 NaN
vt 0 NaN
vt 0 NaN
vt 0 NaN
vt 0 NaN
vt 0 NaN
vt 0 NaN
vt 0 NaN
vt 0 NaN
vt 0 NaN
vt 0 NaN
vt 0 NaN
vt 0 NaN
vt 0 NaN
vt 0 NaN
vt 0 NaN
vt 0 NaN
vt 0 NaN
vt 0 NaN
vt 0 NaN
vt 0 NaN
vt 0 NaN
vt 0 NaN
vt 0 NaN
vt 0 NaN
vt 0 NaN
vt 0 NaN
vt 0 NaN
vt 0 NaN
vt 0 NaN
vt 0 NaN
vt 0 NaN
vt 0 NaN
vt 0 NaN
vt 0 NaN
vt 0 NaN
vt 0 NaN
vt 0 NaN
vt 0 NaN
vt 0 NaN
vt 0 NaN
vt 0 NaN
vt 0 NaN
vt 0 NaN
vt 0 NaN
vt 0 NaN
vt 0 NaN
vt 0 NaN
vt 0 NaN
vt 0 NaN
vt 0 NaN
vt 0 NaN
vt 0 NaN
vt 0 NaN
vt 0 NaN
vt 0 NaN
vt 0 NaN
vt 0 NaN
vt 0 NaN
vt 0 NaN
vt 0 NaN
vt 0 NaN
vt 0 NaN
vt 0 NaN
vt 0 NaN
vt 0 NaN
vt 0 NaN
vt 0 NaN
vt 0 NaN
vt 0 NaN
vt 0 NaN
vt 0 NaN
vt 0 NaN
vt 0 NaN
vt 0 NaN
vt 0 NaN
vt 0 NaN
vt 0 NaN
vt 0 NaN
vt 0 NaN
vt 0 NaN
vt 0 NaN
vt 0 NaN
vt 0 NaN
vt 0 NaN
vt 0 NaN
vt 0 NaN
vt 0 NaN
vt 0 NaN
vt 0 NaN
vt 0 NaN
vt 0 NaN
vt 0 NaN
vt 0 NaN
vt 0 NaN
vt 0 NaN
vt 0 NaN
vt 0 NaN
vt 0 NaN
vt 0 NaN
vt 0 NaN
vt 0 NaN
vt 0 NaN
vt 0 NaN
vt 0 NaN
vt 0 NaN
vt 0 NaN
vt 0 NaN
vt 0 NaN
vt 0 NaN
vt 0 NaN
vt 0 NaN
vt 0 NaN
vt 0 NaN
vt 0 NaN
vt 0 NaN
vt 0 NaN
vt 0 NaN
vt 0 NaN
vt 0 NaN
vt 0 NaN
vt 0 NaN
vt 0 NaN
vt 0 NaN
vt 0 NaN
vt 0 NaN
vt 0 NaN
vt 0 NaN
vt 0 NaN
vt 0 NaN
vt 0 NaN
vt 0 NaN
vt 0 NaN
vt 0 NaN
vt 0 NaN
vt 0 NaN
vt 0 NaN
vt 0 NaN
vt 0 NaN
vt 0 NaN
vt 0 NaN
vt 0 NaN
vt 0 NaN
vt 0 NaN
vt 0 NaN
vt 0 NaN
vt 0 NaN
vt 0 NaN
vt 0 NaN
vt 0 NaN
vt 0 NaN
vt 0 NaN
vt 0 NaN
vt 0 NaN
vt 0 NaN
vt 0 NaN
vt 0 NaN
vt 0 NaN
vt 0 NaN
vt 0 NaN
vt 0 NaN
vt 0 NaN
vt 0 NaN
vt 0 NaN
vt 0 NaN
vt 0 NaN
vt 0 NaN
vt 0 NaN
vt 0 NaN
vt 0 NaN
vt 0 NaN
vt 0 NaN
vt 0 NaN
vt 0 NaN
vt 0 NaN
vt 0 NaN
vt 0 NaN
vt 0 NaN
vt 0 NaN
vt 0 NaN
vt 0 NaN
vt 0 NaN
vt 0 NaN
vt 0 NaN
vt 0 NaN
vt 0 NaN
vt 0 NaN
vt 0 NaN
vt 0 NaN
vt 0 NaN
vt 0 NaN
vt 0 NaN
vt 0 NaN
vt 0 NaN
vt 0 NaN
vt 0 NaN
vt 0 NaN
vt 0 NaN
vt 0 NaN
vt 0 NaN
vt 0 NaN
vt 0 NaN
vt 0 NaN
vt 0 NaN
vt 0 NaN
vt 0 NaN
vt 0 NaN
vt 0 NaN
vt 0 NaN
vt 0 NaN
vt 0 NaN
vt 0 NaN
vt 0 NaN
vt 0 NaN
vt 0 NaN
vt 0 NaN
vt 0 NaN
vt 0 NaN
vt 0 NaN
vt 0 NaN
vt 0 NaN
vt 0 NaN
vt 0 NaN
vt 0 NaN
vt 0 NaN
vt 0 NaN
vt 0 NaN
vt 0 NaN
vt 0 NaN
vt 0 NaN
vt 0 NaN
vt 0 NaN
vt 0 NaN
vt 0 NaN
vt 0 NaN
vt 0 NaN
vt 0 NaN
vt 0 NaN
vt 0 NaN
vt 0 NaN
vt 0 NaN
vt 0 NaN
vt 0 NaN
vt 0 NaN
vt 0 NaN
vt 0 NaN
vt 0 NaN
vt 0 NaN
vt 0 NaN
vt 0 NaN
vt 0 NaN
vt 0 NaN
vt 0 NaN
vt 0 NaN
vt 0 NaN
vt 0 NaN
vt 0 NaN
vt 0 NaN
vt 0 NaN
vt 0 NaN
vt 0 NaN
vt 0 NaN
vt 0 NaN
vt 0 NaN
vt 0 NaN
vt 0 NaN
vt 0 NaN
vt 0 NaN
vt 0 NaN
vt 0 NaN
vt 0 NaN
vt 0 NaN
vt 0 NaN
vt 0 NaN
vt 0 NaN
vt 0 NaN
vt 0 NaN
vt 0 NaN
vt 0 NaN
vt 0 NaN
vt 0 NaN
vt 0 NaN
vt 0 NaN
vt 0 NaN
vt 0 NaN
vt 0 NaN
vt 0 NaN
vt 0 NaN
vt 0 NaN
vt 0 NaN
vt 0 NaN
vt 0 NaN
vt 0 NaN
vt 0 NaN
vt 0 NaN
vt 0 NaN
vt 0 NaN
vt 0 NaN
vt 0 NaN
vt 0 NaN
vt 0 NaN
vt 0 NaN
vt 0 NaN
vt 0 NaN
vt 0 NaN
vt 0 NaN
vt 0 NaN
vt 0 NaN
vt 0 NaN
vt 0 NaN
vt 0 NaN
vt 0 NaN
vt 0 NaN
vt 0 NaN
vt 0 NaN
vt 0 NaN
vt 0 NaN
vt 0 NaN
vt 0 NaN
vt 0 NaN
vt 0 NaN
vt 0 NaN
vt 0 NaN
vt 0 NaN
vt 0 NaN
vt 0 NaN
vt 0 NaN
vt 0 NaN
vt 0 NaN
vt 0 NaN
vt 0 NaN
vt 0 NaN
vt 0 NaN
vt 0 NaN
vt 0 NaN
vt 0 NaN
vt 0 NaN
vt 0 NaN
vt 0 NaN
vt 0 NaN
vt 0 NaN
vt 0 NaN
vt 0 NaN
vt 0 NaN
vt 0 NaN
vt 0 NaN
vt 0 NaN
vt 0 NaN
vt 0 NaN
vt 0 NaN
vt 0 NaN
vt 0 NaN
vt 0 NaN
vt 0 NaN
vt 0 NaN
vt 0 NaN
vt 0 NaN
vt 0 NaN
vt 0 NaN
vt 0 NaN
vt 0 NaN
vt 0 NaN
vt 0 NaN
vt 0 NaN
vt 0 NaN
vt 0 NaN
vt 0 NaN
vt 0 NaN
vt 0 NaN
vt 0 NaN
vt 0 NaN
vt 0 NaN
vt 0 NaN
vt 0 NaN
vt 0 NaN
vt 0 NaN
vt 0 NaN
vt 0 NaN
vt 0 NaN
vt 0 NaN
vt 0 NaN
vt 0 NaN
vt 0 NaN
vt 0 NaN
vt 0 NaN
vt 0 NaN
vt 0 NaN
vt 0 NaN
vt 0 NaN
vt 0 NaN
vt 0 NaN
vt 0 NaN
vt 0 NaN
vt 0 NaN
vt 0 NaN
vt 0 NaN
vt 0 NaN
vt 0 NaN

usemtl color2

f 3/3/1 2/2/1 1/1/1
f 2/3/1 3/2/1 4/1/1
f 5/3/2 3/2/2 1/1/2
f 3/3/2 5/2/2 6/1/2
f 7/5/3 2/5/3 4/4/3
f 2/5/3 7/5/3 8/6/3
f 7/5/4 5/5/4 8/7/4
f 5/5/4 7/5/4 6/8/4
f 5/5/5 2/5/5 8/9/5
f 2/5/5 5/5/5 1/10/5
f 3/2/6 7/3/6 4/11/6
f 7/3/6 3/2/6 6/1/6
f 3/3/1 2/2/1 1/1/1
f 2/3/1 3/2/1 4/1/1
f 5/3/2 3/2/2 1/1/2
f 3/3/2 5/2/2 6/1/2
f 7/5/3 2/5/3 4/4/3
f 2/5/3 7/5/3 8/6/3
f 7/5/4 5/5/4 8/7/4
f 5/5/4 7/5/4 6/8/4
f 5/5/5 2/5/5 8/9/5
f 2/5/5 5/5/5 1/10/5
f 3/2/6 7/3/6 4/11/6
f 7/3/6 3/2/6 6/1/6
f 11/3/1 10/2/1 9/1/1
f 10/3/1 11/2/1 12/1/1
f 13/3/2 11/2/2 9/1/2
f 11/3/2 13/2/2 14/1/2
f 15/5/3 10/5/3 12/12/3
f 10/5/3 15/5/3 16/13/3
f 15/5/4 13/5/4 16/14/4
f 13/5/4 15/5/4 14/15/4
f 13/5/5 10/5/5 16/16/5
f 10/5/5 13/5/5 9/17/5
f 11/2/6 15/3/6 12/11/6
f 15/3/6 11/2/6 14/1/6
f 19/3/1 18/2/1 17/1/1
f 18/3/1 19/2/1 20/1/1
f 21/3/2 19/2/2 17/1/2
f 19/3/2 21/2/2 22/1/2
f 23/5/3 18/5/3 20/18/3
f 18/5/3 23/5/3 24/19/3
f 23/5/4 21/5/4 24/20/4
f 21/5/4 23/5/4 22/21/4
f 21/5/5 18/5/5 24/22/5
f 18/5/5 21/5/5 17/23/5
f 19/2/6 23/3/6 20/11/6
f 23/3/6 19/2/6 22/1/6
f 27/3/1 26/2/1 25/1/1
f 26/3/1 27/2/1 28/1/1
f 29/3/2 27/2/2 25/1/2
f 27/3/2 29/2/2 30/1/2
f 31/5/3 26/5/3 28/24/3
f 26/5/3 31/5/3 32/25/3
f 31/5/4 29/5/4 32/26/4
f 29/5/4 31/5/4 30/27/4
f 29/5/5 26/5/5 32/28/5
f 26/5/5 29/5/5 25/29/5
f 27/2/6 31/3/6 28/11/6
f 31/3/6 27/2/6 30/1/6
f 35/3/1 34/2/1 33/1/1
f 34/3/1 35/2/1 36/1/1
f 37/3/2 35/2/2 33/1/2
f 35/3/2 37/2/2 38/1/2
f 39/5/3 34/5/3 36/30/3
f 34/5/3 39/5/3 40/31/3
f 39/5/4 37/5/4 40/32/4
f 37/5/4 39/5/4 38/33/4
f 37/5/5 34/5/5 40/34/5
f 34/5/5 37/5/5 33/35/5
f 35/2/6 39/3/6 36/11/6
f 39/3/6 35/2/6 38/1/6
f 43/3/1 42/2/1 41/1/1
f 42/3/1 43/2/1 44/1/1
f 45/3/2 43/2/2 41/1/2
f 43/3/2 45/2/2 46/1/2
f 47/5/3 42/5/3 44/36/3
f 42/5/3 47/5/3 48/37/3
f 47/5/4 45/5/4 48/38/4
f 45/5/4 47/5/4 46/39/4
f 45/5/5 42/5/5 48/40/5
f 42/5/5 45/5/5 41/41/5
f 43/2/6 47/3/6 44/11/6
f 47/3/6 43/2/6 46/1/6

usemtl color3

f 6/3/1 8/2/1 5/1/1
f 8/3/1 6/2/1 7/1/1
f 49/3/2 6/2/2 5/1/2
f 6/3/2 49/2/2 50/1/2
f 51/5/3 8/6/3 7/5/3
f 8/6/3 51/5/3 52/42/3
f 51/5/4 49/5/4 52/43/4
f 49/5/4 51/5/4 50/44/4
f 49/5/5 8/9/5 52/45/5
f 8/9/5 49/5/5 5/5/5
f 6/2/6 51/3/6 7/11/6
f 51/3/6 6/2/6 50/1/6
f 22/3/1 24/2/1 21/1/1
f 24/3/1 22/2/1 23/1/1
f 53/3/2 22/2/2 21/1/2
f 22/3/2 53/2/2 54/1/2
f 55/5/3 24/19/3 23/5/3
f 24/19/3 55/5/3 56/46/3
f 55/5/4 53/5/4 56/47/4
f 53/5/4 55/5/4 54/48/4
f 53/5/5 24/22/5 56/49/5
f 24/22/5 53/5/5 21/5/5
f 22/2/6 55/3/6 23/11/6
f 55/3/6 22/2/6 54/1/6
f 59/3/1 58/2/1 57/1/1
f 58/3/1 59/2/1 60/1/1
f 61/3/2 59/2/2 57/1/2
f 59/3/2 61/2/2 62/1/2
f 63/5/3 58/5/3 60/50/3
f 58/5/3 63/5/3 64/51/3
f 63/5/4 61/5/4 64/52/4
f 61/5/4 63/5/4 62/53/4
f 61/5/5 58/5/5 64/54/5
f 58/5/5 61/5/5 57/55/5
f 59/2/6 63/3/6 60/11/6
f 63/3/6 59/2/6 62/1/6
f 67/3/1 66/2/1 65/1/1
f 66/3/1 67/2/1 68/1/1
f 69/3/2 67/2/2 65/1/2
f 67/3/2 69/2/2 70/1/2
f 71/5/3 66/5/3 68/56/3
f 66/5/3 71/5/3 72/57/3
f 71/5/4 69/5/4 72/58/4
f 69/5/4 71/5/4 70/59/4
f 69/5/5 66/5/5 72/60/5
f 66/5/5 69/5/5 65/61/5
f 67/2/6 71/3/6 68/11/6
f 71/3/6 67/2/6 70/1/6
f 75/3/1 74/2/1 73/1/1
f 74/3/1 75/2/1 76/1/1
f 77/3/2 75/2/2 73/1/2
f 75/3/2 77/2/2 78/1/2
f 79/5/3 74/5/3 76/62/3
f 74/5/3 79/5/3 80/63/3
f 79/5/4 77/5/4 80/64/4
f 77/5/4 79/5/4 78/65/4
f 77/5/5 74/5/5 80/66/5
f 74/5/5 77/5/5 73/67/5
f 75/2/6 79/3/6 76/11/6
f 79/3/6 75/2/6 78/1/6
f 38/3/1 40/2/1 37/1/1
f 40/3/1 38/2/1 39/1/1
f 81/3/2 38/2/2 37/1/2
f 38/3/2 81/2/2 82/1/2
f 83/5/3 40/31/3 39/5/3
f 40/31/3 83/5/3 84/68/3
f 83/5/4 81/5/4 84/69/4
f 81/5/4 83/5/4 82/70/4
f 81/5/5 40/34/5 84/71/5
f 40/34/5 81/5/5 37/5/5
f 38/2/6 83/3/6 39/11/6
f 83/3/6 38/2/6 82/1/6
f 87/3/1 86/2/1 85/1/1
f 86/3/1 87/2/1 88/1/1
f 89/3/2 87/2/2 85/1/2
f 87/3/2 89/2/2 90/1/2
f 91/5/3 86/5/3 88/72/3
f 86/5/3 91/5/3 92/73/3
f 91/5/4 89/5/4 92/74/4
f 89/5/4 91/5/4 90/75/4
f 89/5/5 86/5/5 92/76/5
f 86/5/5 89/5/5 85/77/5
f 87/2/6 91/3/6 88/11/6
f 91/3/6 87/2/6 90/1/6
f 46/3/1 48/2/1 45/1/1
f 48/3/1 46/2/1 47/1/1
f 93/3/2 46/2/2 45/1/2
f 46/3/2 93/2/2 94/1/2
f 95/5/3 48/37/3 47/5/3
f 48/37/3 95/5/3 96/78/3
f 95/5/4 93/5/4 96/79/4
f 93/5/4 95/5/4 94/80/4
f 93/5/5 48/40/5 96/81/5
f 48/40/5 93/5/5 45/5/5
f 46/2/6 95/3/6 47/11/6
f 95/3/6 46/2/6 94/1/6

usemtl color4

f 4/3/1 97/2/1 2/1/1
f 97/3/1 4/2/1 98/1/1
f 8/3/2 4/2/2 2/1/2
f 4/3/2 8/2/2 7/1/2
f 99/5/3 97/5/3 98/82/3
f 97/5/3 99/5/3 100/83/3
f 99/5/4 8/7/4 100/84/4
f 8/7/4 99/5/4 7/5/4
f 8/9/5 97/5/5 100/85/5
f 97/5/5 8/9/5 2/5/5
f 4/2/6 99/3/6 98/11/6
f 99/3/6 4/2/6 7/1/6
f 103/3/1 102/2/1 101/1/1
f 102/3/1 103/2/1 104/1/1
f 105/3/2 103/2/2 101/1/2
f 103/3/2 105/2/2 106/1/2
f 107/5/3 102/5/3 104/86/3
f 102/5/3 107/5/3 108/87/3
f 107/5/4 105/5/4 108/88/4
f 105/5/4 107/5/4 106/89/4
f 105/5/5 102/5/5 108/90/5
f 102/5/5 105/5/5 101/91/5
f 103/2/6 107/3/6 104/11/6
f 107/3/6 103/2/6 106/1/6
f 111/3/1 110/2/1 109/1/1
f 110/3/1 111/2/1 112/1/1
f 113/3/2 111/2/2 109/1/2
f 111/3/2 113/2/2 114/1/2
f 115/5/3 110/5/3 112/92/3
f 110/5/3 115/5/3 116/93/3
f 115/5/4 113/5/4 116/94/4
f 113/5/4 115/5/4 114/95/4
f 113/5/5 110/5/5 116/96/5
f 110/5/5 113/5/5 109/97/5
f 111/2/6 115/3/6 112/11/6
f 115/3/6 111/2/6 114/1/6
f 118/3/1 41/2/1 117/1/1
f 41/3/1 118/2/1 43/1/1
f 119/3/2 118/2/2 117/1/2
f 118/3/2 119/2/2 120/1/2
f 46/5/3 41/5/3 43/98/3
f 41/5/3 46/5/3 45/99/3
f 46/39/4 119/5/4 45/5/4
f 119/5/4 46/39/4 120/100/4
f 119/5/5 41/41/5 45/5/5
f 41/41/5 119/5/5 117/101/5
f 118/2/6 46/3/6 43/11/6
f 46/3/6 118/2/6 120/1/6

usemtl color5

f 7/3/1 100/2/1 8/1/1
f 100/3/1 7/2/1 99/1/1
f 121/3/2 7/2/2 8/1/2
f 7/3/2 121/2/2 122/1/2
f 22/5/3 100/83/3 99/5/3
f 100/83/3 22/5/3 21/102/3
f 22/21/4 121/5/4 21/5/4
f 121/5/4 22/21/4 122/103/4
f 121/5/5 100/85/5 21/5/5
f 100/85/5 121/5/5 8/9/5
f 7/2/6 22/3/6 99/11/6
f 22/3/6 7/2/6 122/1/6
f 125/3/1 124/2/1 123/1/1
f 124/3/1 125/2/1 126/1/1
f 127/3/2 125/2/2 123/1/2
f 125/3/2 127/2/2 128/1/2
f 129/5/3 124/5/3 126/104/3
f 124/5/3 129/5/3 130/105/3
f 129/5/4 127/5/4 130/106/4
f 127/5/4 129/5/4 128/107/4
f 127/5/5 124/5/5 130/108/5
f 124/5/5 127/5/5 123/109/5
f 125/2/6 129/3/6 126/11/6
f 129/3/6 125/2/6 128/1/6
f 120/3/1 45/2/1 119/1/1
f 45/3/1 120/2/1 46/1/1
f 40/3/2 120/2/2 119/1/2
f 120/3/2 40/2/2 39/1/2
f 131/5/3 45/99/3 46/5/3
f 45/99/3 131/5/3 132/110/3
f 131/5/4 40/32/4 132/111/4
f 40/32/4 131/5/4 39/5/4
f 40/34/5 45/5/5 132/112/5
f 45/5/5 40/34/5 119/5/5
f 120/2/6 131/3/6 46/11/6
f 131/3/6 120/2/6 39/1/6

usemtl color6

f 135/3/1 134/2/1 133/1/1
f 134/3/1 135/2/1 136/1/1
f 9/3/2 135/2/2 133/1/2
f 135/3/2 9/2/2 11/1/2
f 12/12/3 134/5/3 136/113/3
f 134/5/3 12/12/3 10/5/3
f 12/5/4 9/5/4 10/114/4
f 9/5/4 12/5/4 11/115/4
f 9/17/5 134/5/5 10/5/5
f 134/5/5 9/17/5 133/116/5
f 135/2/6 12/3/6 136/11/6
f 12/3/6 135/2/6 11/1/6
f 139/3/1 138/2/1 137/1/1
f 138/3/1 139/2/1 140/1/1
f 65/3/2 139/2/2 137/1/2
f 139/3/2 65/2/2 67/1/2
f 68/56/3 138/5/3 140/117/3
f 138/5/3 68/56/3 66/5/3
f 68/5/4 65/5/4 66/118/4
f 65/5/4 68/5/4 67/119/4
f 65/61/5 138/5/5 66/5/5
f 138/5/5 65/61/5 137/120/5
f 139/2/6 68/3/6 140/11/6
f 68/3/6 139/2/6 67/1/6
f 143/3/1 142/2/1 141/1/1
f 142/3/1 143/2/1 144/1/1
f 145/3/2 143/2/2 141/1/2
f 143/3/2 145/2/2 146/1/2
f 147/5/3 142/5/3 144/121/3
f 142/5/3 147/5/3 148/122/3
f 147/5/4 145/5/4 148/123/4
f 145/5/4 147/5/4 146/124/4
f 145/5/5 142/5/5 148/125/5
f 142/5/5 145/5/5 141/126/5
f 143/2/6 147/3/6 144/11/6
f 147/3/6 143/2/6 146/1/6
f 151/3/1 150/2/1 149/1/1
f 150/3/1 151/2/1 152/1/1
f 153/3/2 151/2/2 149/1/2
f 151/3/2 153/2/2 154/1/2
f 155/5/3 150/5/3 152/127/3
f 150/5/3 155/5/3 156/128/3
f 155/5/4 153/5/4 156/129/4
f 153/5/4 155/5/4 154/130/4
f 153/5/5 150/5/5 156/131/5
f 150/5/5 153/5/5 149/132/5
f 151/2/6 155/3/6 152/11/6
f 155/3/6 151/2/6 154/1/6
f 159/3/1 158/2/1 157/1/1
f 158/3/1 159/2/1 160/1/1
f 161/3/2 159/2/2 157/1/2
f 159/3/2 161/2/2 162/1/2
f 163/5/3 158/5/3 160/133/3
f 158/5/3 163/5/3 164/134/3
f 163/5/4 161/5/4 164/135/4
f 161/5/4 163/5/4 162/136/4
f 161/5/5 158/5/5 164/137/5
f 158/5/5 161/5/5 157/138/5
f 159/2/6 163/3/6 160/11/6
f 163/3/6 159/2/6 162/1/6
f 167/3/1 166/2/1 165/1/1
f 166/3/1 167/2/1 168/1/1
f 169/3/2 167/2/2 165/1/2
f 167/3/2 169/2/2 170/1/2
f 171/5/3 166/5/3 168/139/3
f 166/5/3 171/5/3 172/140/3
f 171/5/4 169/5/4 172/141/4
f 169/5/4 171/5/4 170/142/4
f 169/5/5 166/5/5 172/143/5
f 166/5/5 169/5/5 165/144/5
f 167/2/6 171/3/6 168/11/6
f 171/3/6 167/2/6 170/1/6
f 175/3/1 174/2/1 173/1/1
f 174/3/1 175/2/1 176/1/1
f 177/3/2 175/2/2 173/1/2
f 175/3/2 177/2/2 178/1/2
f 179/5/3 174/5/3 176/145/3
f 174/5/3 179/5/3 180/146/3
f 179/5/4 177/5/4 180/147/4
f 177/5/4 179/5/4 178/148/4
f 177/5/5 174/5/5 180/149/5
f 174/5/5 177/5/5 173/150/5
f 175/2/6 179/3/6 176/11/6
f 179/3/6 175/2/6 178/1/6
f 183/3/1 182/2/1 181/1/1
f 182/3/1 183/2/1 184/1/1
f 185/3/2 183/2/2 181/1/2
f 183/3/2 185/2/2 186/1/2
f 187/5/3 182/5/3 184/151/3
f 182/5/3 187/5/3 188/152/3
f 187/5/4 185/5/4 188/153/4
f 185/5/4 187/5/4 186/154/4
f 185/5/5 182/5/5 188/155/5
f 182/5/5 185/5/5 181/156/5
f 183/2/6 187/3/6 184/11/6
f 187/3/6 183/2/6 186/1/6
f 191/3/1 190/2/1 189/1/1
f 190/3/1 191/2/1 192/1/1
f 73/3/2 191/2/2 189/1/2
f 191/3/2 73/2/2 75/1/2
f 76/62/3 190/5/3 192/157/3
f 190/5/3 76/62/3 74/5/3
f 76/5/4 73/5/4 74/158/4
f 73/5/4 76/5/4 75/159/4
f 73/67/5 190/5/5 74/5/5
f 190/5/5 73/67/5 189/160/5
f 191/2/6 76/3/6 192/11/6
f 76/3/6 191/2/6 75/1/6
f 195/3/1 194/2/1 193/1/1
f 194/3/1 195/2/1 196/1/1
f 25/3/2 195/2/2 193/1/2
f 195/3/2 25/2/2 27/1/2
f 28/24/3 194/5/3 196/161/3
f 194/5/3 28/24/3 26/5/3
f 28/5/4 25/5/4 26/162/4
f 25/5/4 28/5/4 27/163/4
f 25/29/5 194/5/5 26/5/5
f 194/5/5 25/29/5 193/164/5
f 195/2/6 28/3/6 196/11/6
f 28/3/6 195/2/6 27/1/6

usemtl color7

f 199/3/1 198/2/1 197/1/1
f 198/3/1 199/2/1 200/1/1
f 57/3/2 199/2/2 197/1/2
f 199/3/2 57/2/2 59/1/2
f 60/50/3 198/5/3 200/165/3
f 198/5/3 60/50/3 58/5/3
f 60/5/4 57/5/4 58/166/4
f 57/5/4 60/5/4 59/167/4
f 57/55/5 198/5/5 58/5/5
f 198/5/5 57/55/5 197/168/5
f 199/2/6 60/3/6 200/11/6
f 60/3/6 199/2/6 59/1/6
f 203/3/1 202/2/1 201/1/1
f 202/3/1 203/2/1 204/1/1
f 205/3/2 203/2/2 201/1/2
f 203/3/2 205/2/2 206/1/2
f 207/5/3 202/5/3 204/169/3
f 202/5/3 207/5/3 208/170/3
f 207/5/4 205/5/4 208/171/4
f 205/5/4 207/5/4 206/172/4
f 205/5/5 202/5/5 208/173/5
f 202/5/5 205/5/5 201/174/5
f 203/2/6 207/3/6 204/11/6
f 207/3/6 203/2/6 206/1/6
f 146/3/1 148/2/1 145/1/1
f 148/3/1 146/2/1 147/1/1
f 209/3/2 146/2/2 145/1/2
f 146/3/2 209/2/2 210/1/2
f 211/5/3 148/122/3 147/5/3
f 148/122/3 211/5/3 212/175/3
f 211/5/4 209/5/4 212/176/4
f 209/5/4 211/5/4 210/177/4
f 209/5/5 148/125/5 212/178/5
f 148/125/5 209/5/5 145/5/5
f 146/2/6 211/3/6 147/11/6
f 211/3/6 146/2/6 210/1/6
f 215/3/1 214/2/1 213/1/1
f 214/3/1 215/2/1 216/1/1
f 217/3/2 215/2/2 213/1/2
f 215/3/2 217/2/2 218/1/2
f 219/5/3 214/5/3 216/179/3
f 214/5/3 219/5/3 220/180/3
f 219/5/4 217/5/4 220/181/4
f 217/5/4 219/5/4 218/182/4
f 217/5/5 214/5/5 220/183/5
f 214/5/5 217/5/5 213/184/5
f 215/2/6 219/3/6 216/11/6
f 219/3/6 215/2/6 218/1/6
f 223/3/1 222/2/1 221/1/1
f 222/3/1 223/2/1 224/1/1
f 225/3/2 223/2/2 221/1/2
f 223/3/2 225/2/2 226/1/2
f 227/5/3 222/5/3 224/185/3
f 222/5/3 227/5/3 228/186/3
f 227/5/4 225/5/4 228/187/4
f 225/5/4 227/5/4 226/188/4
f 225/5/5 222/5/5 228/189/5
f 222/5/5 225/5/5 221/190/5
f 223/2/6 227/3/6 224/11/6
f 227/3/6 223/2/6 226/1/6
f 231/3/1 230/2/1 229/1/1
f 230/3/1 231/2/1 232/1/1
f 233/3/2 231/2/2 229/1/2
f 231/3/2 233/2/2 234/1/2
f 235/5/3 230/5/3 232/191/3
f 230/5/3 235/5/3 236/192/3
f 235/5/4 233/5/4 236/193/4
f 233/5/4 235/5/4 234/194/4
f 233/5/5 230/5/5 236/195/5
f 230/5/5 233/5/5 229/196/5
f 231/2/6 235/3/6 232/11/6
f 235/3/6 231/2/6 234/1/6
f 239/3/1 238/2/1 237/1/1
f 238/3/1 239/2/1 240/1/1
f 241/3/2 239/2/2 237/1/2
f 239/3/2 241/2/2 242/1/2
f 243/5/3 238/5/3 240/197/3
f 238/5/3 243/5/3 244/198/3
f 243/5/4 241/5/4 244/199/4
f 241/5/4 243/5/4 242/200/4
f 241/5/5 238/5/5 244/201/5
f 238/5/5 241/5/5 237/202/5
f 239/2/6 243/3/6 240/11/6
f 243/3/6 239/2/6 242/1/6
f 247/3/1 246/2/1 245/1/1
f 246/3/1 247/2/1 248/1/1
f 249/3/2 247/2/2 245/1/2
f 247/3/2 249/2/2 250/1/2
f 251/5/3 246/5/3 248/203/3
f 246/5/3 251/5/3 252/204/3
f 251/5/4 249/5/4 252/205/4
f 249/5/4 251/5/4 250/206/4
f 249/5/5 246/5/5 252/207/5
f 246/5/5 249/5/5 245/208/5
f 247/2/6 251/3/6 248/11/6
f 251/3/6 247/2/6 250/1/6
f 255/3/1 254/2/1 253/1/1
f 254/3/1 255/2/1 256/1/1
f 257/3/2 255/2/2 253/1/2
f 255/3/2 257/2/2 258/1/2
f 259/5/3 254/5/3 256/209/3
f 254/5/3 259/5/3 260/210/3
f 259/5/4 257/5/4 260/211/4
f 257/5/4 259/5/4 258/212/4
f 257/5/5 254/5/5 260/213/5
f 254/5/5 257/5/5 253/214/5
f 255/2/6 259/3/6 256/11/6
f 259/3/6 255/2/6 258/1/6
f 263/3/1 262/2/1 261/1/1
f 262/3/1 263/2/1 264/1/1
f 265/3/2 263/2/2 261/1/2
f 263/3/2 265/2/2 266/1/2
f 183/5/3 262/5/3 264/215/3
f 262/5/3 183/5/3 181/216/3
f 183/5/4 265/5/4 181/217/4
f 265/5/4 183/5/4 266/218/4
f 265/5/5 262/5/5 181/156/5
f 262/5/5 265/5/5 261/219/5
f 263/2/6 183/3/6 264/11/6
f 183/3/6 263/2/6 266/1/6
f 269/3/1 268/2/1 267/1/1
f 268/3/1 269/2/1 270/1/1
f 85/3/2 269/2/2 267/1/2
f 269/3/2 85/2/2 87/1/2
f 88/72/3 268/5/3 270/220/3
f 268/5/3 88/72/3 86/5/3
f 88/5/4 85/5/4 86/221/4
f 85/5/4 88/5/4 87/222/4
f 85/77/5 268/5/5 86/5/5
f 268/5/5 85/77/5 267/223/5
f 269/2/6 88/3/6 270/11/6
f 88/3/6 269/2/6 87/1/6

usemtl color20

f 273/3/1 272/2/1 271/1/1
f 272/3/1 273/2/1 274/1/1
f 275/3/2 273/2/2 271/1/2
f 273/3/2 275/2/2 276/1/2
f 277/5/3 272/5/3 274/224/3
f 272/5/3 277/5/3 278/225/3
f 277/5/4 275/5/4 278/226/4
f 275/5/4 277/5/4 276/227/4
f 275/5/5 272/5/5 278/228/5
f 272/5/5 275/5/5 271/229/5
f 273/2/6 277/3/6 274/11/6
f 277/3/6 273/2/6 276/1/6
f 281/3/1 280/2/1 279/1/1
f 280/3/1 281/2/1 282/1/1
f 101/3/2 281/2/2 279/1/2
f 281/3/2 101/2/2 103/1/2
f 104/86/3 280/5/3 282/230/3
f 280/5/3 104/86/3 102/5/3
f 104/5/4 101/5/4 102/231/4
f 101/5/4 104/5/4 103/232/4
f 101/91/5 280/5/5 102/5/5
f 280/5/5 101/91/5 279/233/5
f 281/2/6 104/3/6 282/11/6
f 104/3/6 281/2/6 103/1/6
f 106/3/1 108/2/1 105/1/1
f 108/3/1 106/2/1 107/1/1
f 283/3/2 106/2/2 105/1/2
f 106/3/2 283/2/2 284/1/2
f 231/5/3 108/87/3 107/5/3
f 108/87/3 231/5/3 229/234/3
f 231/5/4 283/5/4 229/235/4
f 283/5/4 231/5/4 284/236/4
f 283/5/5 108/90/5 229/196/5
f 108/90/5 283/5/5 105/5/5
f 106/2/6 231/3/6 107/11/6
f 231/3/6 106/2/6 284/1/6
f 210/3/1 212/2/1 209/1/1
f 212/3/1 210/2/1 211/1/1
f 285/3/2 210/2/2 209/1/2
f 210/3/2 285/2/2 286/1/2
f 287/5/3 212/175/3 211/5/3
f 212/175/3 287/5/3 288/237/3
f 287/5/4 285/5/4 288/238/4
f 285/5/4 287/5/4 286/239/4
f 285/5/5 212/178/5 288/240/5
f 212/178/5 285/5/5 209/5/5
f 210/2/6 287/3/6 211/11/6
f 287/3/6 210/2/6 286/1/6
f 291/3/1 290/2/1 289/1/1
f 290/3/1 291/2/1 292/1/1
f 213/3/2 291/2/2 289/1/2
f 291/3/2 213/2/2 215/1/2
f 216/179/3 290/5/3 292/241/3
f 290/5/3 216/179/3 214/5/3
f 216/5/4 213/5/4 214/242/4
f 213/5/4 216/5/4 215/243/4
f 213/184/5 290/5/5 214/5/5
f 290/5/5 213/184/5 289/244/5
f 291/2/6 216/3/6 292/11/6
f 216/3/6 291/2/6 215/1/6
f 234/3/1 236/2/1 233/1/1
f 236/3/1 234/2/1 235/1/1
f 293/3/2 234/2/2 233/1/2
f 234/3/2 293/2/2 294/1/2
f 295/5/3 236/192/3 235/5/3
f 236/192/3 295/5/3 296/245/3
f 295/5/4 293/5/4 296/246/4
f 293/5/4 295/5/4 294/247/4
f 293/5/5 236/195/5 296/248/5
f 236/195/5 293/5/5 233/5/5
f 234/2/6 295/3/6 235/11/6
f 295/3/6 234/2/6 294/1/6
f 266/3/1 181/2/1 265/1/1
f 181/3/1 266/2/1 183/1/1
f 297/3/2 266/2/2 265/1/2
f 266/3/2 297/2/2 298/1/2
f 186/5/3 181/216/3 183/5/3
f 181/216/3 186/5/3 185/249/3
f 186/154/4 297/5/4 185/5/4
f 297/5/4 186/154/4 298/250/4
f 297/5/5 181/156/5 185/5/5
f 181/156/5 297/5/5 265/5/5
f 266/2/6 186/3/6 183/11/6
f 186/3/6 266/2/6 298/1/6
f 295/3/1 299/2/1 296/1/1
f 299/3/1 295/2/1 300/1/1
f 301/3/2 295/2/2 296/1/2
f 295/3/2 301/2/2 302/1/2
f 303/5/3 299/5/3 300/251/3
f 299/5/3 303/5/3 304/252/3
f 303/5/4 301/5/4 304/253/4
f 301/5/4 303/5/4 302/254/4
f 301/5/5 299/5/5 304/255/5
f 299/5/5 301/5/5 296/248/5
f 295/2/6 303/3/6 300/11/6
f 303/3/6 295/2/6 302/1/6

usemtl color11

f 307/3/1 306/2/1 305/1/1
f 306/3/1 307/2/1 308/1/1
f 201/3/2 307/2/2 305/1/2
f 307/3/2 201/2/2 203/1/2
f 204/169/3 306/5/3 308/256/3
f 306/5/3 204/169/3 202/5/3
f 204/5/4 201/5/4 202/257/4
f 201/5/4 204/5/4 203/258/4
f 201/174/5 306/5/5 202/5/5
f 306/5/5 201/174/5 305/259/5
f 307/2/6 204/3/6 308/11/6
f 204/3/6 307/2/6 203/1/6
f 311/3/1 310/2/1 309/1/1
f 310/3/1 311/2/1 312/1/1
f 313/3/2 311/2/2 309/1/2
f 311/3/2 313/2/2 314/1/2
f 315/5/3 310/5/3 312/260/3
f 310/5/3 315/5/3 316/261/3
f 315/5/4 313/5/4 316/262/4
f 313/5/4 315/5/4 314/263/4
f 313/5/5 310/5/5 316/264/5
f 310/5/5 313/5/5 309/265/5
f 311/2/6 315/3/6 312/11/6
f 315/3/6 311/2/6 314/1/6
f 319/3/1 318/2/1 317/1/1
f 318/3/1 319/2/1 320/1/1
f 321/3/2 319/2/2 317/1/2
f 319/3/2 321/2/2 322/1/2
f 323/5/3 318/5/3 320/266/3
f 318/5/3 323/5/3 324/267/3
f 323/5/4 321/5/4 324/268/4
f 321/5/4 323/5/4 322/269/4
f 321/5/5 318/5/5 324/270/5
f 318/5/5 321/5/5 317/271/5
f 319/2/6 323/3/6 320/11/6
f 323/3/6 319/2/6 322/1/6
f 327/3/1 326/2/1 325/1/1
f 326/3/1 327/2/1 328/1/1
f 329/3/2 327/2/2 325/1/2
f 327/3/2 329/2/2 330/1/2
f 331/5/3 326/5/3 328/272/3
f 326/5/3 331/5/3 332/273/3
f 331/5/4 329/5/4 332/274/4
f 329/5/4 331/5/4 330/275/4
f 329/5/5 326/5/5 332/276/5
f 326/5/5 329/5/5 325/277/5
f 327/2/6 331/3/6 328/11/6
f 331/3/6 327/2/6 330/1/6
f 335/3/1 334/2/1 333/1/1
f 334/3/1 335/2/1 336/1/1
f 149/3/2 335/2/2 333/1/2
f 335/3/2 149/2/2 151/1/2
f 152/127/3 334/5/3 336/278/3
f 334/5/3 152/127/3 150/5/3
f 152/5/4 149/5/4 150/279/4
f 149/5/4 152/5/4 151/280/4
f 149/132/5 334/5/5 150/5/5
f 334/5/5 149/132/5 333/281/5
f 335/2/6 152/3/6 336/11/6
f 152/3/6 335/2/6 151/1/6
f 339/3/1 338/2/1 337/1/1
f 338/3/1 339/2/1 340/1/1
f 341/3/2 339/2/2 337/1/2
f 339/3/2 341/2/2 342/1/2
f 343/5/3 338/5/3 340/282/3
f 338/5/3 343/5/3 344/283/3
f 343/5/4 341/5/4 344/284/4
f 341/5/4 343/5/4 342/285/4
f 341/5/5 338/5/5 344/286/5
f 338/5/5 341/5/5 337/287/5
f 339/2/6 343/3/6 340/11/6
f 343/3/6 339/2/6 342/1/6
f 347/3/1 346/2/1 345/1/1
f 346/3/1 347/2/1 348/1/1
f 349/3/2 347/2/2 345/1/2
f 347/3/2 349/2/2 350/1/2
f 351/5/3 346/5/3 348/288/3
f 346/5/3 351/5/3 352/289/3
f 351/5/4 349/5/4 352/290/4
f 349/5/4 351/5/4 350/291/4
f 349/5/5 346/5/5 352/292/5
f 346/5/5 349/5/5 345/293/5
f 347/2/6 351/3/6 348/11/6
f 351/3/6 347/2/6 350/1/6
f 355/3/1 354/2/1 353/1/1
f 354/3/1 355/2/1 356/1/1
f 357/3/2 355/2/2 353/1/2
f 355/3/2 357/2/2 358/1/2
f 359/5/3 354/5/3 356/294/3
f 354/5/3 359/5/3 360/295/3
f 359/5/4 357/5/4 360/296/4
f 357/5/4 359/5/4 358/297/4
f 357/5/5 354/5/5 360/298/5
f 354/5/5 357/5/5 353/299/5
f 355/2/6 359/3/6 356/11/6
f 359/3/6 355/2/6 358/1/6
f 363/3/1 362/2/1 361/1/1
f 362/3/1 363/2/1 364/1/1
f 365/3/2 363/2/2 361/1/2
f 363/3/2 365/2/2 366/1/2
f 367/5/3 362/5/3 364/300/3
f 362/5/3 367/5/3 368/301/3
f 367/5/4 365/5/4 368/302/4
f 365/5/4 367/5/4 366/303/4
f 365/5/5 362/5/5 368/304/5
f 362/5/5 365/5/5 361/305/5
f 363/2/6 367/3/6 364/11/6
f 367/3/6 363/2/6 366/1/6
f 371/3/1 370/2/1 369/1/1
f 370/3/1 371/2/1 372/1/1
f 373/3/2 371/2/2 369/1/2
f 371/3/2 373/2/2 374/1/2
f 375/5/3 370/5/3 372/306/3
f 370/5/3 375/5/3 376/307/3
f 375/5/4 373/5/4 376/308/4
f 373/5/4 375/5/4 374/309/4
f 373/5/5 370/5/5 376/310/5
f 370/5/5 373/5/5 369/311/5
f 371/2/6 375/3/6 372/11/6
f 375/3/6 371/2/6 374/1/6
f 379/3/1 378/2/1 377/1/1
f 378/3/1 379/2/1 380/1/1
f 381/3/2 379/2/2 377/1/2
f 379/3/2 381/2/2 382/1/2
f 383/5/3 378/5/3 380/312/3
f 378/5/3 383/5/3 384/313/3
f 383/5/4 381/5/4 384/314/4
f 381/5/4 383/5/4 382/315/4
f 381/5/5 378/5/5 384/316/5
f 378/5/5 381/5/5 377/317/5
f 379/2/6 383/3/6 380/11/6
f 383/3/6 379/2/6 382/1/6
f 387/3/1 386/2/1 385/1/1
f 386/3/1 387/2/1 388/1/1
f 389/3/2 387/2/2 385/1/2
f 387/3/2 389/2/2 390/1/2
f 391/5/3 386/5/3 388/318/3
f 386/5/3 391/5/3 392/319/3
f 391/5/4 389/5/4 392/320/4
f 389/5/4 391/5/4 390/321/4
f 389/5/5 386/5/5 392/322/5
f 386/5/5 389/5/5 385/323/5
f 387/2/6 391/3/6 388/11/6
f 391/3/6 387/2/6 390/1/6
f 395/3/1 394/2/1 393/1/1
f 394/3/1 395/2/1 396/1/1
f 397/3/2 395/2/2 393/1/2
f 395/3/2 397/2/2 398/1/2
f 399/5/3 394/5/3 396/324/3
f 394/5/3 399/5/3 400/325/3
f 399/5/4 397/5/4 400/326/4
f 397/5/4 399/5/4 398/327/4
f 397/5/5 394/5/5 400/328/5
f 394/5/5 397/5/5 393/329/5
f 395/2/6 399/3/6 396/11/6
f 399/3/6 395/2/6 398/1/6
f 403/3/1 402/2/1 401/1/1
f 402/3/1 403/2/1 404/1/1
f 405/3/2 403/2/2 401/1/2
f 403/3/2 405/2/2 406/1/2
f 407/5/3 402/5/3 404/330/3
f 402/5/3 407/5/3 408/331/3
f 407/5/4 405/5/4 408/332/4
f 405/5/4 407/5/4 406/333/4
f 405/5/5 402/5/5 408/334/5
f 402/5/5 405/5/5 401/335/5
f 403/2/6 407/3/6 404/11/6
f 407/3/6 403/2/6 406/1/6
f 411/3/1 410/2/1 409/1/1
f 410/3/1 411/2/1 412/1/1
f 413/3/2 411/2/2 409/1/2
f 411/3/2 413/2/2 414/1/2
f 415/5/3 410/5/3 412/336/3
f 410/5/3 415/5/3 416/337/3
f 415/5/4 413/5/4 416/338/4
f 413/5/4 415/5/4 414/339/4
f 413/5/5 410/5/5 416/340/5
f 410/5/5 413/5/5 409/341/5
f 411/2/6 415/3/6 412/11/6
f 415/3/6 411/2/6 414/1/6
f 419/3/1 418/2/1 417/1/1
f 418/3/1 419/2/1 420/1/1
f 421/3/2 419/2/2 417/1/2
f 419/3/2 421/2/2 422/1/2
f 423/5/3 418/5/3 420/342/3
f 418/5/3 423/5/3 424/343/3
f 423/5/4 421/5/4 424/344/4
f 421/5/4 423/5/4 422/345/4
f 421/5/5 418/5/5 424/346/5
f 418/5/5 421/5/5 417/347/5
f 419/2/6 423/3/6 420/11/6
f 423/3/6 419/2/6 422/1/6
f 427/3/1 426/2/1 425/1/1
f 426/3/1 427/2/1 428/1/1
f 378/3/2 427/2/2 425/1/2
f 427/3/2 378/2/2 380/1/2
f 429/5/3 426/5/3 428/348/3
f 426/5/3 429/5/3 430/349/3
f 429/5/4 378/5/4 430/350/4
f 378/5/4 429/5/4 380/351/4
f 378/5/5 426/5/5 430/352/5
f 426/5/5 378/5/5 425/353/5
f 427/2/6 429/3/6 428/11/6
f 429/3/6 427/2/6 380/1/6

usemtl color16

f 218/3/1 220/2/1 217/1/1
f 220/3/1 218/2/1 219/1/1
f 221/3/2 218/2/2 217/1/2
f 218/3/2 221/2/2 223/1/2
f 224/185/3 220/180/3 219/5/3
f 220/180/3 224/185/3 222/5/3
f 224/5/4 221/5/4 222/354/4
f 221/5/4 224/5/4 223/355/4
f 221/190/5 220/183/5 222/5/5
f 220/183/5 221/190/5 217/5/5
f 218/2/6 224/3/6 219/11/6
f 224/3/6 218/2/6 223/1/6
f 170/3/1 172/2/1 169/1/1
f 172/3/1 170/2/1 171/1/1
f 173/3/2 170/2/2 169/1/2
f 170/3/2 173/2/2 175/1/2
f 176/145/3 172/140/3 171/5/3
f 172/140/3 176/145/3 174/5/3
f 176/5/4 173/5/4 174/356/4
f 173/5/4 176/5/4 175/357/4
f 173/150/5 172/143/5 174/5/5
f 172/143/5 173/150/5 169/5/5
f 170/2/6 176/3/6 171/11/6
f 176/3/6 170/2/6 175/1/6

usemtl color13

f 330/3/1 332/2/1 329/1/1
f 332/3/1 330/2/1 331/1/1
f 306/3/2 330/2/2 329/1/2
f 330/3/2 306/2/2 308/1/2
f 431/5/3 332/273/3 331/5/3
f 332/273/3 431/5/3 432/358/3
f 431/5/4 306/5/4 432/359/4
f 306/5/4 431/5/4 308/360/4
f 306/5/5 332/276/5 432/361/5
f 332/276/5 306/5/5 329/5/5
f 330/2/6 431/3/6 331/11/6
f 431/3/6 330/2/6 308/1/6
f 435/3/1 434/2/1 433/1/1
f 434/3/1 435/2/1 436/1/1
f 142/3/2 435/2/2 433/1/2
f 435/3/2 142/2/2 144/1/2
f 437/5/3 434/5/3 436/362/3
f 434/5/3 437/5/3 438/363/3
f 437/5/4 142/5/4 438/364/4
f 142/5/4 437/5/4 144/365/4
f 142/5/5 434/5/5 438/366/5
f 434/5/5 142/5/5 433/367/5
f 435/2/6 437/3/6 436/11/6
f 437/3/6 435/2/6 144/1/6
f 162/3/1 164/2/1 161/1/1
f 164/3/1 162/2/1 163/1/1
f 439/3/2 162/2/2 161/1/2
f 162/3/2 439/2/2 440/1/2
f 441/5/3 164/134/3 163/5/3
f 164/134/3 441/5/3 442/368/3
f 441/5/4 439/5/4 442/369/4
f 439/5/4 441/5/4 440/370/4
f 439/5/5 164/137/5 442/371/5
f 164/137/5 439/5/5 161/5/5
f 162/2/6 441/3/6 163/11/6
f 441/3/6 162/2/6 440/1/6
f 445/3/1 444/2/1 443/1/1
f 444/3/1 445/2/1 446/1/1
f 165/3/2 445/2/2 443/1/2
f 445/3/2 165/2/2 167/1/2
f 168/139/3 444/5/3 446/372/3
f 444/5/3 168/139/3 166/5/3
f 168/5/4 165/5/4 166/373/4
f 165/5/4 168/5/4 167/374/4
f 165/144/5 444/5/5 166/5/5
f 444/5/5 165/144/5 443/375/5
f 445/2/6 168/3/6 446/11/6
f 168/3/6 445/2/6 167/1/6
f 300/3/1 377/2/1 299/1/1
f 377/3/1 300/2/1 379/1/1
f 304/3/2 300/2/2 299/1/2
f 300/3/2 304/2/2 303/1/2
f 382/5/3 377/5/3 379/376/3
f 377/5/3 382/5/3 381/377/3
f 382/315/4 304/253/4 381/5/4
f 304/253/4 382/315/4 303/5/4
f 304/255/5 377/317/5 381/5/5
f 377/317/5 304/255/5 299/5/5
f 300/2/6 382/3/6 379/11/6
f 382/3/6 300/2/6 303/1/6
f 350/3/1 352/2/1 349/1/1
f 352/3/1 350/2/1 351/1/1
f 447/3/2 350/2/2 349/1/2
f 350/3/2 447/2/2 448/1/2
f 449/5/3 352/289/3 351/5/3
f 352/289/3 449/5/3 450/378/3
f 449/5/4 447/5/4 450/379/4
f 447/5/4 449/5/4 448/380/4
f 447/5/5 352/292/5 450/381/5
f 352/292/5 447/5/5 349/5/5
f 350/2/6 449/3/6 351/11/6
f 449/3/6 350/2/6 448/1/6

usemtl color14

f 453/3/1 452/2/1 451/1/1
f 452/3/1 453/2/1 454/1/1
f 455/3/2 453/2/2 451/1/2
f 453/3/2 455/2/2 456/1/2
f 457/5/3 452/5/3 454/382/3
f 452/5/3 457/5/3 458/383/3
f 457/5/4 455/5/4 458/384/4
f 455/5/4 457/5/4 456/385/4
f 455/5/5 452/5/5 458/386/5
f 452/5/5 455/5/5 451/387/5
f 453/2/6 457/3/6 454/11/6
f 457/3/6 453/2/6 456/1/6
f 461/3/1 460/2/1 459/1/1
f 460/3/1 461/2/1 462/1/1
f 157/3/2 461/2/2 459/1/2
f 461/3/2 157/2/2 159/1/2
f 160/133/3 460/5/3 462/388/3
f 460/5/3 160/133/3 158/5/3
f 160/5/4 157/5/4 158/389/4
f 157/5/4 160/5/4 159/390/4
f 157/138/5 460/5/5 158/5/5
f 460/5/5 157/138/5 459/391/5
f 461/2/6 160/3/6 462/11/6
f 160/3/6 461/2/6 159/1/6
f 358/3/1 360/2/1 357/1/1
f 360/3/1 358/2/1 359/1/1
f 361/3/2 358/2/2 357/1/2
f 358/3/2 361/2/2 363/1/2
f 364/300/3 360/295/3 359/5/3
f 360/295/3 364/300/3 362/5/3
f 364/5/4 361/5/4 362/392/4
f 361/5/4 364/5/4 363/393/4
f 361/305/5 360/298/5 362/5/5
f 360/298/5 361/305/5 357/5/5
f 358/2/6 364/3/6 359/11/6
f 364/3/6 358/2/6 363/1/6
f 374/3/1 376/2/1 373/1/1
f 376/3/1 374/2/1 375/1/1
f 463/3/2 374/2/2 373/1/2
f 374/3/2 463/2/2 464/1/2
f 465/5/3 376/307/3 375/5/3
f 376/307/3 465/5/3 466/394/3
f 465/5/4 463/5/4 466/395/4
f 463/5/4 465/5/4 464/396/4
f 463/5/5 376/310/5 466/397/5
f 376/310/5 463/5/5 373/5/5
f 374/2/6 465/3/6 375/11/6
f 465/3/6 374/2/6 464/1/6
f 469/3/1 468/2/1 467/1/1
f 468/3/1 469/2/1 470/1/1
f 109/3/2 469/2/2 467/1/2
f 469/3/2 109/2/2 111/1/2
f 112/92/3 468/5/3 470/398/3
f 468/5/3 112/92/3 110/5/3
f 112/5/4 109/5/4 110/399/4
f 109/5/4 112/5/4 111/400/4
f 109/97/5 468/5/5 110/5/5
f 468/5/5 109/97/5 467/401/5
f 469/2/6 112/3/6 470/11/6
f 112/3/6 469/2/6 111/1/6
f 114/3/1 116/2/1 113/1/1
f 116/3/1 114/2/1 115/1/1
f 471/3/2 114/2/2 113/1/2
f 114/3/2 471/2/2 472/1/2
f 473/5/3 116/93/3 115/5/3
f 116/93/3 473/5/3 474/402/3
f 473/5/4 471/5/4 474/403/4
f 471/5/4 473/5/4 472/404/4
f 471/5/5 116/96/5 474/405/5
f 116/96/5 471/5/5 113/5/5
f 114/2/6 473/3/6 115/11/6
f 473/3/6 114/2/6 472/1/6
f 477/3/1 476/2/1 475/1/1
f 476/3/1 477/2/1 478/1/1
f 188/3/2 477/2/2 475/1/2
f 477/3/2 188/2/2 187/1/2
f 479/5/3 476/5/3 478/406/3
f 476/5/3 479/5/3 480/407/3
f 479/5/4 188/153/4 480/408/4
f 188/153/4 479/5/4 187/5/4
f 188/155/5 476/5/5 480/409/5
f 476/5/5 188/155/5 475/410/5
f 477/2/6 479/3/6 478/11/6
f 479/3/6 477/2/6 187/1/6

usemtl color18

f 456/3/1 458/2/1 455/1/1
f 458/3/1 456/2/1 457/1/1
f 481/3/2 456/2/2 455/1/2
f 456/3/2 481/2/2 482/1/2
f 483/5/3 458/383/3 457/5/3
f 458/383/3 483/5/3 484/411/3
f 483/5/4 481/5/4 484/412/4
f 481/5/4 483/5/4 482/413/4
f 481/5/5 458/386/5 484/414/5
f 458/386/5 481/5/5 455/5/5
f 456/2/6 483/3/6 457/11/6
f 483/3/6 456/2/6 482/1/6
f 242/3/1 244/2/1 241/1/1
f 244/3/1 242/2/1 243/1/1
f 245/3/2 242/2/2 241/1/2
f 242/3/2 245/2/2 247/1/2
f 248/203/3 244/198/3 243/5/3
f 244/198/3 248/203/3 246/5/3
f 248/5/4 245/5/4 246/415/4
f 245/5/4 248/5/4 247/416/4
f 245/208/5 244/201/5 246/5/5
f 244/201/5 245/208/5 241/5/5
f 242/2/6 248/3/6 243/11/6
f 248/3/6 242/2/6 247/1/6
f 258/3/1 260/2/1 257/1/1
f 260/3/1 258/2/1 259/1/1
f 123/3/2 258/2/2 257/1/2
f 258/3/2 123/2/2 125/1/2
f 126/104/3 260/210/3 259/5/3
f 260/210/3 126/104/3 124/5/3
f 126/5/4 123/5/4 124/417/4
f 123/5/4 126/5/4 125/418/4
f 123/109/5 260/213/5 124/5/5
f 260/213/5 123/109/5 257/5/5
f 258/2/6 126/3/6 259/11/6
f 126/3/6 258/2/6 125/1/6
f 128/3/1 130/2/1 127/1/1
f 130/3/1 128/2/1 129/1/1
f 485/3/2 128/2/2 127/1/2
f 128/3/2 485/2/2 486/1/2
f 487/5/3 130/105/3 129/5/3
f 130/105/3 487/5/3 488/419/3
f 487/5/4 485/5/4 488/420/4
f 485/5/4 487/5/4 486/421/4
f 485/5/5 130/108/5 488/422/5
f 130/108/5 485/5/5 127/5/5
f 128/2/6 487/3/6 129/11/6
f 487/3/6 128/2/6 486/1/6

usemtl color19

f 482/3/1 484/2/1 481/1/1
f 484/3/1 482/2/1 483/1/1
f 433/3/2 482/2/2 481/1/2
f 482/3/2 433/2/2 435/1/2
f 436/362/3 484/411/3 483/5/3
f 484/411/3 436/362/3 434/5/3
f 436/5/4 433/5/4 434/423/4
f 433/5/4 436/5/4 435/424/4
f 433/367/5 484/414/5 434/5/5
f 484/414/5 433/367/5 481/5/5
f 482/2/6 436/3/6 483/11/6
f 436/3/6 482/2/6 435/1/6

usemtl color9

f 287/3/1 489/2/1 288/1/1
f 489/3/1 287/2/1 490/1/1
f 290/3/2 287/2/2 288/1/2
f 287/3/2 290/2/2 292/1/2
f 491/5/3 489/5/3 490/425/3
f 489/5/3 491/5/3 492/426/3
f 491/5/4 290/5/4 492/427/4
f 290/5/4 491/5/4 292/428/4
f 290/5/5 489/5/5 492/429/5
f 489/5/5 290/5/5 288/240/5
f 287/2/6 491/3/6 490/11/6
f 491/3/6 287/2/6 292/1/6
f 331/3/1 349/2/1 332/1/1
f 349/3/1 331/2/1 350/1/1
f 432/3/2 331/2/2 332/1/2
f 331/3/2 432/2/2 431/1/2
f 448/5/3 349/5/3 350/430/3
f 349/5/3 448/5/3 447/431/3
f 448/380/4 432/359/4 447/5/4
f 432/359/4 448/380/4 431/5/4
f 432/361/5 349/5/5 447/5/5
f 349/5/5 432/361/5 332/276/5
f 331/2/6 448/3/6 350/11/6
f 448/3/6 331/2/6 431/1/6
f 495/3/1 494/2/1 493/1/1
f 494/3/1 495/2/1 496/1/1
f 497/3/2 495/2/2 493/1/2
f 495/3/2 497/2/2 498/1/2
f 499/5/3 494/5/3 496/432/3
f 494/5/3 499/5/3 500/433/3
f 499/5/4 497/5/4 500/434/4
f 497/5/4 499/5/4 498/435/4
f 497/5/5 494/5/5 500/436/5
f 494/5/5 497/5/5 493/437/5
f 495/2/6 499/3/6 496/11/6
f 499/3/6 495/2/6 498/1/6
f 502/3/1 405/2/1 501/1/1
f 405/3/1 502/2/1 406/1/1
f 503/3/2 502/2/2 501/1/2
f 502/3/2 503/2/2 504/1/2
f 411/5/3 405/5/3 406/438/3
f 405/5/3 411/5/3 409/439/3
f 411/5/4 503/5/4 409/440/4
f 503/5/4 411/5/4 504/441/4
f 503/5/5 405/5/5 409/341/5
f 405/5/5 503/5/5 501/442/5
f 502/2/6 411/3/6 406/11/6
f 411/3/6 502/2/6 504/1/6
f 449/3/1 505/2/1 450/1/1
f 505/3/1 449/2/1 506/1/1
f 385/3/2 449/2/2 450/1/2
f 449/3/2 385/2/2 387/1/2
f 388/318/3 505/5/3 506/443/3
f 505/5/3 388/318/3 386/5/3
f 388/5/4 385/5/4 386/444/4
f 385/5/4 388/5/4 387/445/4
f 385/323/5 505/5/5 386/5/5
f 505/5/5 385/323/5 450/381/5
f 449/2/6 388/3/6 506/11/6
f 388/3/6 449/2/6 387/1/6
f 367/3/1 507/2/1 368/1/1
f 507/3/1 367/2/1 508/1/1
f 401/3/2 367/2/2 368/1/2
f 367/3/2 401/2/2 403/1/2
f 404/330/3 507/5/3 508/446/3
f 507/5/3 404/330/3 402/5/3
f 404/5/4 401/5/4 402/447/4
f 401/5/4 404/5/4 403/448/4
f 401/335/5 507/5/5 402/5/5
f 507/5/5 401/335/5 368/304/5
f 367/2/6 404/3/6 508/11/6
f 404/3/6 367/2/6 403/1/6
f 511/3/1 510/2/1 509/1/1
f 510/3/1 511/2/1 512/1/1
f 513/3/2 511/2/2 509/1/2
f 511/3/2 513/2/2 514/1/2
f 515/5/3 510/5/3 512/449/3
f 510/5/3 515/5/3 516/450/3
f 515/5/4 513/5/4 516/451/4
f 513/5/4 515/5/4 514/452/4
f 513/5/5 510/5/5 516/453/5
f 510/5/5 513/5/5 509/454/5
f 511/2/6 515/3/6 512/11/6
f 515/3/6 511/2/6 514/1/6
f 519/3/1 518/2/1 517/1/1
f 518/3/1 519/2/1 520/1/1
f 521/3/2 519/2/2 517/1/2
f 519/3/2 521/2/2 522/1/2
f 523/5/3 518/5/3 520/455/3
f 518/5/3 523/5/3 524/456/3
f 523/5/4 521/5/4 524/457/4
f 521/5/4 523/5/4 522/458/4
f 521/5/5 518/5/5 524/459/5
f 518/5/5 521/5/5 517/460/5
f 519/2/6 523/3/6 520/11/6
f 523/3/6 519/2/6 522/1/6
f 527/3/1 526/2/1 525/1/1
f 526/3/1 527/2/1 528/1/1
f 529/3/2 527/2/2 525/1/2
f 527/3/2 529/2/2 530/1/2
f 531/5/3 526/5/3 528/461/3
f 526/5/3 531/5/3 532/462/3
f 531/5/4 529/5/4 532/463/4
f 529/5/4 531/5/4 530/464/4
f 529/5/5 526/5/5 532/465/5
f 526/5/5 529/5/5 525/466/5
f 527/2/6 531/3/6 528/11/6
f 531/3/6 527/2/6 530/1/6
f 535/3/1 534/2/1 533/1/1
f 534/3/1 535/2/1 536/1/1
f 426/3/2 535/2/2 533/1/2
f 535/3/2 426/2/2 428/1/2
f 537/5/3 534/5/3 536/467/3
f 534/5/3 537/5/3 538/468/3
f 537/5/4 426/5/4 538/469/4
f 426/5/4 537/5/4 428/470/4
f 426/5/5 534/5/5 538/471/5
f 534/5/5 426/5/5 533/472/5
f 535/2/6 537/3/6 536/11/6
f 537/3/6 535/2/6 428/1/6

usemtl color15

f 541/3/1 540/2/1 539/1/1
f 540/3/1 541/2/1 542/1/1
f 543/3/2 541/2/2 539/1/2
f 541/3/2 543/2/2 544/1/2
f 545/5/3 540/5/3 542/473/3
f 540/5/3 545/5/3 546/474/3
f 545/5/4 543/5/4 546/475/4
f 543/5/4 545/5/4 544/476/4
f 543/5/5 540/5/5 546/477/5
f 540/5/5 543/5/5 539/478/5
f 541/2/6 545/3/6 542/11/6
f 545/3/6 541/2/6 544/1/6

usemtl color17

f 487/3/1 471/2/1 488/1/1
f 471/3/1 487/2/1 472/1/1
f 547/3/2 487/2/2 488/1/2
f 487/3/2 547/2/2 548/1/2
f 549/5/3 471/5/3 472/479/3
f 471/5/3 549/5/3 550/480/3
f 549/5/4 547/5/4 550/481/4
f 547/5/4 549/5/4 548/482/4
f 547/5/5 471/5/5 550/483/5
f 471/5/5 547/5/5 488/422/5
f 487/2/6 549/3/6 472/11/6
f 549/3/6 487/2/6 548/1/6

usemtl color12

f 414/3/1 416/2/1 413/1/1
f 416/3/1 414/2/1 415/1/1
f 417/3/2 414/2/2 413/1/2
f 414/3/2 417/2/2 419/1/2
f 420/342/3 416/337/3 415/5/3
f 416/337/3 420/342/3 418/5/3
f 420/5/4 417/5/4 418/484/4
f 417/5/4 420/5/4 419/485/4
f 417/347/5 416/340/5 418/5/5
f 416/340/5 417/347/5 413/5/5
f 414/2/6 420/3/6 415/11/6
f 420/3/6 414/2/6 419/1/6

usemtl color8

f 553/3/1 552/2/1 551/1/1
f 552/3/1 553/2/1 554/1/1
f 517/3/2 553/2/2 551/1/2
f 553/3/2 517/2/2 519/1/2
f 520/455/3 552/5/3 554/486/3
f 552/5/3 520/455/3 518/5/3
f 520/5/4 517/5/4 518/487/4
f 517/5/4 520/5/4 519/488/4
f 517/460/5 552/5/5 518/5/5
f 552/5/5 517/460/5 551/489/5
f 553/2/6 520/3/6 554/11/6
f 520/3/6 553/2/6 519/1/6

usemtl color10

f 530/3/1 532/2/1 529/1/1
f 532/3/1 530/2/1 531/1/1
f 533/3/2 530/2/2 529/1/2
f 530/3/2 533/2/2 535/1/2
f 536/467/3 532/462/3 531/5/3
f 532/462/3 536/467/3 534/5/3
f 536/5/4 533/5/4 534/490/4
f 533/5/4 536/5/4 535/491/4
f 533/472/5 532/465/5 534/5/5
f 532/465/5 533/472/5 529/5/5
f 530/2/6 536/3/6 531/11/6
f 536/3/6 530/2/6 535/1/6

