# Created by Kenney (www.kenney.nl)

mtllib Pistol SSL Printure.mtl

v 3 5 -0.8
v 3 4 -0.8
v 3 5 0.8
v 3 4 0.8
v 2 5 -0.8
v 2 5 0.8
v 2 4 0.8
v 2 4 -0.8
v 1 5 -0.8
v 1 4 -0.8
v 1 5 0.8
v 1 4 0.8
v 0 5 -0.8
v 0 5 0.8
v 0 4 0.8
v 0 4 -0.8
v -1 5 -0.8
v -1 4 -0.8
v -1 5 0.8
v -1 4 0.8
v -2 5 -0.8
v -2 5 0.8
v -2 4 0.8
v -2 4 -0.8
v -3 5 -0.8
v -3 4 -0.8
v -3 5 0.8
v -3 4 0.8
v -4 5 -0.8
v -4 5 0.8
v -4 4 0.8
v -4 4 -0.8
v -6 5 -0.4
v -6 4 -0.4
v -6 5 0.4
v -6 4 0.4
v -7 5 -0.4
v -7 5 0.4
v -7 4 0.4
v -7 4 -0.4
v 5 4 -1.2
v 5 3 -1.2
v 5 4 1.2
v 5 3 1.2
v 4 4 -1.2
v 4 4 1.2
v 4 3 1.2
v 4 3 -1.2
v 8 3 -1.2
v 8 2 -1.2
v 8 3 1.2
v 8 2 1.2
v 7 3 -1.2
v 7 3 1.2
v 7 2 1.2
v 7 2 -1.2
v -5 3 -1.6
v -5 1 -1.6
v -5 3 1.6
v -5 1 1.6
v -6 3 -1.6
v -6 3 1.6
v -6 1 1.6
v -6 1 -1.6
v 0 2 -1.6
v 0 1 -1.6
v 0 2 1.6
v 0 1 1.6
v -2 2 -1.6
v -2 2 1.6
v -2 1 1.6
v -2 1 -1.6
v -4 2 -1.6
v -4 1 -1.6
v -4 2 1.6
v -4 1 1.6
v -5 2 -1.6
v -5 2 1.6
v -6 2 -1.6
v -6 2 1.6
v -7 2 -1.6
v -7 2 1.6
v -7 1 1.6
v -7 1 -1.6
v 7 0 -0.8
v 7 -1 -0.8
v 7 0 0.8
v 7 -1 0.8
v 6 0 -0.8
v 6 0 0.8
v 6 -1 0.8
v 6 -1 -0.8
v 4 0 -0.8
v 4 -2 -0.8
v 4 0 0.8
v 4 -2 0.8
v 3 0 -0.8
v 3 0 0.8
v 3 -2 0.8
v 3 -2 -0.8
v 8 -1 -0.8
v 8 -3 -0.8
v 8 -1 0.8
v 8 -3 0.8
v 7 -3 0.8
v 7 -3 -0.8
v 8 4 -0.8
v 8 3 -0.8
v 8 4 0.8
v 8 3 0.8
v 7 4 -0.8
v 7 4 0.8
v 7 3 0.8
v 7 3 -0.8
v 7 4 -1.2
v 7 4 1.2
v -5 4 -1.2
v -5 3 -1.2
v -5 4 1.2
v -5 3 1.2
v -6 4 -1.2
v -6 4 1.2
v -6 3 1.2
v -6 3 -1.2
v -7 3 -1.6
v -7 3 1.6
v -8 3 -1.6
v -8 3 1.6
v -8 1 1.6
v -8 1 -1.6
v 9 -3 -0.8
v 9 -4 -0.8
v 9 -3 0.8
v 9 -4 0.8
v 6 -3 -0.8
v 6 -3 0.8
v 6 -4 0.8
v 6 -4 -0.8
v 4 4 -1.6
v 4 3 -1.6
v 4 4 1.6
v 4 3 1.6
v 3 4 -1.6
v 3 4 1.6
v 3 3 1.6
v 3 3 -1.6
v 2 4 -1.6
v 2 3 -1.6
v 2 4 1.6
v 2 3 1.6
v 1 4 -1.6
v 1 4 1.6
v 1 3 1.6
v 1 3 -1.6
v -2 4 -1.6
v -2 3 -1.6
v -2 4 1.6
v -2 3 1.6
v -4 4 -1.6
v -4 4 1.6
v -4 3 1.6
v -4 3 -1.6
v 5 3 -1.6
v 5 2 -1.6
v 5 3 1.6
v 5 2 1.6
v 4 2 1.6
v 4 2 -1.6
v -3 2 -1.6
v -3 1 -1.6
v -3 2 1.6
v -3 1 1.6
v -4 0 -1.6
v -4 -2 -1.6
v -4 0 1.6
v -4 -2 1.6
v -5 0 -1.6
v -5 0 1.6
v -5 -2 1.6
v -5 -2 -1.6
v -1 4 -1.6
v -1 4 1.6
v -1 3 1.6
v -1 3 -1.6
v 3 2 1.6
v 3 2 -1.6
v -3 3 -1.6
v -3 3 1.6
v -3 0 -1.6
v -3 0 1.6
v 2 2 -1.6
v 2 2 1.6
v 0 3 -1.6
v 0 3 1.6
v -2 0 -1.6
v -2 0 1.6
v -3 -2 -1.6
v -3 -2 1.6
v -5 4 -1.6
v -5 4 1.6
v 4 1 -1.6
v 4 1 1.6
v 3 1 1.6
v 3 1 -1.6
v -3 -2 -1.2
v -3 -3 -1.2
v -3 -2 1.2
v -3 -3 1.2
v -5 -2 -1.2
v -5 -2 1.2
v -5 -3 1.2
v -5 -3 -1.2
v -6 4 -0.8
v -6 2 -0.8
v -6 4 0.8
v -6 2 0.8
v -7 4 -0.8
v -7 4 0.8
v -7 2 0.8
v -7 2 -0.8
v -4 3 -0.8
v -4 2 -0.8
v -4 3 0.8
v -4 2 0.8
v -5 3 -0.8
v -5 3 0.8
v -5 2 0.8
v -5 2 -0.8
v 7 2 -1.6
v 7 1 -1.6
v 7 2 1.6
v 7 1 1.6
v 3 2 -1.2
v 3 1 -1.2
v 3 2 1.2
v 3 1 1.2
v 0 2 -1.2
v 0 2 1.2
v 0 1 1.2
v 0 1 -1.2
v 7 1 -0.8
v 7 1 0.8
v 6 1 -0.8
v 6 1 0.8
v 4 1 -0.8
v 4 1 0.8
v 3 1 -0.8
v 3 1 0.8
v 6 0 -0.4
v 6 -1 -0.4
v 6 0 0.4
v 6 -1 0.4
v 4 0 -0.4
v 4 0 0.4
v 4 -1 0.4
v 4 -1 -0.4
v 3 0 -1.2
v 3 -1 -1.2
v 3 0 1.2
v 3 -1 1.2
v 0 0 -1.2
v 0 0 1.2
v 0 -1 1.2
v 0 -1 -1.2
v -6 0 -1.2
v -6 -2 -1.2
v -6 0 1.2
v -6 -2 1.2
v -7 0 -1.2
v -7 0 1.2
v -7 -2 1.2
v -7 -2 -1.2
v -2 -1 -1.2
v -2 -2 -1.2
v -2 -1 1.2
v -2 -2 1.2
v -3 -1 -1.2
v -3 -1 1.2
v -1 -2 -1.2
v -1 -3 -1.2
v -1 -2 1.2
v -1 -3 1.2
v -2 -3 1.2
v -2 -3 -1.2
v -6 -3 1.2
v -6 -3 -1.2
v -7 -3 -1.2
v -7 -3 1.2
v -8 -2 -1.2
v -8 -2 1.2
v -8 -3 1.2
v -8 -3 -1.2
v -7 4 -1.2
v -7 3 -1.2
v -7 4 1.2
v -7 3 1.2
v -8 4 -1.2
v -8 4 1.2
v -8 3 1.2
v -8 3 -1.2
v 7 -1 -0.4
v 7 -3 -0.4
v 7 -1 0.4
v 7 -3 0.4
v 6 -3 0.4
v 6 -3 -0.4
v 9 3 -0.8
v 9 1 -0.8
v 9 3 0.8
v 9 1 0.8
v 8 1 0.8
v 8 1 -0.8
v 7 3 -1.6
v 7 3 1.6
v 8 1 -1.2
v 8 1 1.2
v 7 1 1.2
v 7 1 -1.2
v 3 0 -1.6
v 3 0 1.6
v -8 0 1.6
v -8 0 -1.6
v 0 0 -1.6
v 0 -1 -1.6
v 0 0 1.6
v 0 -1 1.6
v -2 -1 1.6
v -2 -1 -1.6
v -6 0 -1.6
v -6 0 1.6
v -6 -2 1.6
v -6 -2 -1.6
v -7 0 -1.6
v -7 -2 -1.6
v -7 0 1.6
v -7 -2 1.6
v -8 -2 1.6
v -8 -2 -1.6
v 9 -1 -0.8
v 9 -1 0.8
v -1 -1 -1.6
v -1 -2 -1.6
v -1 -1 1.6
v -1 -2 1.6
v -2 -2 1.6
v -2 -2 -1.6
v -8 3 -0.8
v -8 1 -0.8
v -8 3 0.8
v -8 1 0.8
v -9 3 -0.8
v -9 3 0.8
v -9 1 0.8
v -9 1 -0.8
v 6 1 -0.4
v 6 1 0.4
v 5 1 -0.4
v 5 1 0.4
v 5 0 0.4
v 5 0 -0.4
v -2 0 -1.2
v -2 0 1.2
v -3 0 -1.2
v -3 0 1.2
v 3 -1 -0.8
v 3 -4 -0.8
v 3 -1 0.8
v 3 -4 0.8
v 2 -1 -0.8
v 2 -1 0.8
v 2 -4 0.8
v 2 -4 -0.8
v 1 -1 -0.8
v 1 -4 -0.8
v 1 -1 0.8
v 1 -4 0.8
v 0 -1 -0.8
v 0 -1 0.8
v 0 -4 0.8
v 0 -4 -0.8
v 0 -3 -0.8
v 0 -3 0.8
v -1 -3 -0.8
v -1 -3 0.8
v -1 -4 0.8
v -1 -4 -0.8
v 0 -2 -1.2
v 0 -2 1.2
v -1 -1 -1.2
v -1 -1 1.2
v 0 -2 -0.8
v 0 -2 0.8
v -1 -2 -0.8
v -1 -2 0.8

vn 1 0 0
vn 0 1 0
vn 0 -1 0
vn -1 0 0
vn 0 0 -1
vn 0 0 1

vt -19.68504 19.68504
vt 19.68504 19.68504
vt -19.68504 -19.68504
vt 0 NaN
vt 0 0
vt 0 NaN
vt 0 NaN
vt 0 NaN
vt 0 NaN
vt 0 NaN
vt 19.68504 -19.68504
vt 0 NaN
vt 0 NaN
vt 0 NaN
vt 0 NaN
vt 0 NaN
vt 0 NaN
vt 0 NaN
vt 0 NaN
vt 0 NaN
vt 0 NaN
vt 0 NaN
vt 0 NaN
vt 0 NaN
vt 0 NaN
vt 0 NaN
vt 0 NaN
vt 0 NaN
vt 0 NaN
vt 0 NaN
vt 0 NaN
vt 0 NaN
vt 0 NaN
vt 0 NaN
vt 0 NaN
vt 0 NaN
vt 0 NaN
vt 0 NaN
vt 0 NaN
vt 0 NaN
vt 0 NaN
vt 0 NaN
vt 0 NaN
vt 0 NaN
vt 0 NaN
vt 0 NaN
vt 0 NaN
vt 0 NaN
vt 0 NaN
vt 0 NaN
vt 0 NaN
vt 0 NaN
vt 0 NaN
vt 0 NaN
vt 0 NaN
vt 0 NaN
vt 0 NaN
vt 0 NaN
vt 0 NaN
vt 0 NaN
vt 0 NaN
vt 0 NaN
vt 0 NaN
vt 0 NaN
vt 0 NaN
vt 0 NaN
vt 0 NaN
vt 0 NaN
vt 0 NaN
vt 0 NaN
vt 0 NaN
vt 0 NaN
vt 0 NaN
vt 0 NaN
vt 0 NaN
vt 0 NaN
vt 0 NaN
vt 0 NaN
vt 0 NaN
vt 0 NaN
vt 0 NaN
vt 0 NaN
vt 0 NaN
vt 0 NaN
vt 0 NaN
vt 0 NaN
vt 0 NaN
vt 0 NaN
vt 0 NaN
vt 0 NaN
vt 0 NaN
vt 0 NaN
vt 0 NaN
vt 0 NaN
vt 0 NaN
vt 0 NaN
vt 0 NaN
vt 0 NaN
vt 0 NaN
vt 0 NaN
vt 0 NaN
vt 0 NaN
vt 0 NaN
vt 0 NaN
vt 0 NaN
vt 0 NaN
vt 0 NaN
vt 0 NaN
vt 0 NaN
vt 0 NaN
vt 0 NaN
vt 0 NaN
vt 0 NaN
vt 0 NaN
vt 0 NaN
vt 0 NaN
vt 0 NaN
vt 0 NaN
vt 0 NaN
vt 0 NaN
vt 0 NaN
vt 0 NaN
vt 0 NaN
vt 0 NaN
vt 0 NaN
vt 0 NaN
vt 0 NaN
vt 0 NaN
vt 0 NaN
vt 0 NaN
vt 0 NaN
vt 0 NaN
vt 0 NaN
vt 0 NaN
vt 0 NaN
vt 0 NaN
vt 0 NaN
vt 0 NaN
vt 0 NaN
vt 0 NaN
vt 0 NaN
vt 0 NaN
vt 0 NaN
vt 0 NaN
vt 0 NaN
vt 0 NaN
vt 0 NaN
vt 0 NaN
vt 0 NaN
vt 0 NaN
vt 0 NaN
vt 0 NaN
vt 0 NaN
vt 0 NaN
vt 0 NaN
vt 0 NaN
vt 0 NaN
vt 0 NaN
vt 0 NaN
vt 0 NaN
vt 0 NaN
vt 0 NaN
vt 0 NaN
vt 0 NaN
vt 0 NaN
vt 0 NaN
vt 0 NaN
vt 0 NaN
vt 0 NaN
vt 0 NaN
vt 0 NaN
vt 0 NaN
vt 0 NaN
vt 0 NaN
vt 0 NaN
vt 0 NaN
vt 0 NaN
vt 0 NaN
vt 0 NaN
vt 0 NaN
vt 0 NaN
vt 0 NaN
vt 0 NaN
vt 0 NaN
vt 0 NaN
vt 0 NaN
vt 0 NaN
vt 0 NaN
vt 0 NaN
vt 0 NaN
vt 0 NaN
vt 0 NaN
vt 0 NaN
vt 0 NaN
vt 0 NaN
vt 0 NaN
vt 0 NaN
vt 0 NaN
vt 0 NaN
vt 0 NaN
vt 0 NaN
vt 0 NaN
vt 0 NaN
vt 0 NaN
vt 0 NaN
vt 0 NaN
vt 0 NaN
vt 0 NaN
vt 0 NaN
vt 0 NaN
vt 0 NaN
vt 0 NaN
vt 0 NaN
vt 0 NaN
vt 0 NaN
vt 0 NaN
vt 0 NaN
vt 0 NaN
vt 0 NaN
vt 0 NaN
vt 0 NaN
vt 0 NaN
vt 0 NaN
vt 0 NaN
vt 0 NaN
vt 0 NaN
vt 0 NaN
vt 0 NaN
vt 0 NaN
vt 0 NaN
vt 0 NaN
vt 0 NaN
vt 0 NaN
vt 0 NaN
vt 0 NaN
vt 0 NaN
vt 0 NaN
vt 0 NaN
vt 0 NaN
vt 0 NaN
vt 0 NaN
vt 0 NaN
vt 0 NaN
vt 0 NaN
vt 0 NaN
vt 0 NaN
vt 0 NaN
vt 0 NaN
vt 0 NaN
vt 0 NaN
vt 0 NaN
vt 0 NaN
vt 0 NaN
vt 0 NaN
vt 0 NaN
vt 0 NaN
vt 0 NaN
vt 0 NaN
vt 0 NaN
vt 0 NaN
vt 0 NaN
vt 0 NaN
vt 0 NaN
vt 0 NaN
vt 0 NaN
vt 0 NaN
vt 0 NaN
vt 0 NaN
vt 0 NaN
vt 0 NaN
vt 0 NaN
vt 0 NaN
vt 0 NaN
vt 0 NaN
vt 0 NaN
vt 0 NaN
vt 0 NaN
vt 0 NaN
vt 0 NaN
vt 0 NaN
vt 0 NaN
vt 0 NaN
vt 0 NaN
vt 0 NaN
vt 0 NaN
vt 0 NaN
vt 0 NaN
vt 0 NaN
vt 0 NaN
vt 0 NaN
vt 0 NaN
vt 0 NaN
vt 0 NaN
vt 0 NaN
vt 0 NaN
vt 0 NaN
vt 0 NaN
vt 0 NaN
vt 0 NaN
vt 0 NaN
vt 0 NaN
vt 0 NaN
vt 0 NaN
vt 0 NaN
vt 0 NaN
vt 0 NaN
vt 0 NaN
vt 0 NaN
vt 0 NaN
vt 0 NaN
vt 0 NaN
vt 0 NaN
vt 0 NaN
vt 0 NaN
vt 0 NaN
vt 0 NaN
vt 0 NaN
vt 0 NaN
vt 0 NaN
vt 0 NaN
vt 0 NaN
vt 0 NaN
vt 0 NaN
vt 0 NaN
vt 0 NaN
vt 0 NaN
vt 0 NaN
vt 0 NaN
vt 0 NaN
vt 0 NaN
vt 0 NaN
vt 0 NaN
vt 0 NaN
vt 0 NaN
vt 0 NaN
vt 0 NaN
vt 0 NaN
vt 0 NaN
vt 0 NaN
vt 0 NaN
vt 0 NaN
vt 0 NaN
vt 0 NaN
vt 0 NaN
vt 0 NaN
vt 0 NaN
vt 0 NaN
vt 0 NaN
vt 0 NaN
vt 0 NaN
vt 0 NaN
vt 0 NaN
vt 0 NaN
vt 0 NaN
vt 0 NaN
vt 0 NaN

usemtl color16

f 3/3/1 2/2/1 1/1/1
f 2/3/1 3/2/1 4/1/1
f 5/3/2 3/2/2 1/1/2
f 3/3/2 5/2/2 6/1/2
f 7/5/3 2/5/3 4/4/3
f 2/5/3 7/5/3 8/6/3
f 7/5/4 5/5/4 8/7/4
f 5/5/4 7/5/4 6/8/4
f 5/5/5 2/5/5 8/9/5
f 2/5/5 5/5/5 1/10/5
f 3/2/6 7/3/6 4/11/6
f 7/3/6 3/2/6 6/1/6
f 11/3/1 10/2/1 9/1/1
f 10/3/1 11/2/1 12/1/1
f 13/3/2 11/2/2 9/1/2
f 11/3/2 13/2/2 14/1/2
f 15/5/3 10/5/3 12/12/3
f 10/5/3 15/5/3 16/13/3
f 15/5/4 13/5/4 16/14/4
f 13/5/4 15/5/4 14/15/4
f 13/5/5 10/5/5 16/16/5
f 10/5/5 13/5/5 9/17/5
f 11/2/6 15/3/6 12/11/6
f 15/3/6 11/2/6 14/1/6
f 19/3/1 18/2/1 17/1/1
f 18/3/1 19/2/1 20/1/1
f 21/3/2 19/2/2 17/1/2
f 19/3/2 21/2/2 22/1/2
f 23/5/3 18/5/3 20/18/3
f 18/5/3 23/5/3 24/19/3
f 23/5/4 21/5/4 24/20/4
f 21/5/4 23/5/4 22/21/4
f 21/5/5 18/5/5 24/22/5
f 18/5/5 21/5/5 17/23/5
f 19/2/6 23/3/6 20/11/6
f 23/3/6 19/2/6 22/1/6
f 27/3/1 26/2/1 25/1/1
f 26/3/1 27/2/1 28/1/1
f 29/3/2 27/2/2 25/1/2
f 27/3/2 29/2/2 30/1/2
f 31/5/3 26/5/3 28/24/3
f 26/5/3 31/5/3 32/25/3
f 31/5/4 29/5/4 32/26/4
f 29/5/4 31/5/4 30/27/4
f 29/5/5 26/5/5 32/28/5
f 26/5/5 29/5/5 25/29/5
f 27/2/6 31/3/6 28/11/6
f 31/3/6 27/2/6 30/1/6
f 3/3/1 2/2/1 1/1/1
f 2/3/1 3/2/1 4/1/1
f 5/3/2 3/2/2 1/1/2
f 3/3/2 5/2/2 6/1/2
f 7/5/3 2/5/3 4/4/3
f 2/5/3 7/5/3 8/6/3
f 7/5/4 5/5/4 8/7/4
f 5/5/4 7/5/4 6/8/4
f 5/5/5 2/5/5 8/9/5
f 2/5/5 5/5/5 1/10/5
f 3/2/6 7/3/6 4/11/6
f 7/3/6 3/2/6 6/1/6

usemtl color6

f 35/3/1 34/2/1 33/1/1
f 34/3/1 35/2/1 36/1/1
f 37/3/2 35/2/2 33/1/2
f 35/3/2 37/2/2 38/1/2
f 39/5/3 34/5/3 36/30/3
f 34/5/3 39/5/3 40/31/3
f 39/5/4 37/5/4 40/32/4
f 37/5/4 39/5/4 38/33/4
f 37/5/5 34/5/5 40/34/5
f 34/5/5 37/5/5 33/35/5
f 35/2/6 39/3/6 36/11/6
f 39/3/6 35/2/6 38/1/6
f 43/3/1 42/2/1 41/1/1
f 42/3/1 43/2/1 44/1/1
f 45/3/2 43/2/2 41/1/2
f 43/3/2 45/2/2 46/1/2
f 47/5/3 42/5/3 44/36/3
f 42/5/3 47/5/3 48/37/3
f 47/5/4 45/5/4 48/38/4
f 45/5/4 47/5/4 46/39/4
f 45/5/5 42/5/5 48/40/5
f 42/5/5 45/5/5 41/41/5
f 43/2/6 47/3/6 44/11/6
f 47/3/6 43/2/6 46/1/6
f 51/3/1 50/2/1 49/1/1
f 50/3/1 51/2/1 52/1/1
f 53/3/2 51/2/2 49/1/2
f 51/3/2 53/2/2 54/1/2
f 55/5/3 50/5/3 52/42/3
f 50/5/3 55/5/3 56/43/3
f 55/5/4 53/5/4 56/44/4
f 53/5/4 55/5/4 54/45/4
f 53/5/5 50/5/5 56/46/5
f 50/5/5 53/5/5 49/47/5
f 51/2/6 55/3/6 52/11/6
f 55/3/6 51/2/6 54/1/6
f 59/3/1 58/2/1 57/1/1
f 58/3/1 59/2/1 60/1/1
f 61/3/2 59/2/2 57/1/2
f 59/3/2 61/2/2 62/1/2
f 63/5/3 58/5/3 60/48/3
f 58/5/3 63/5/3 64/49/3
f 63/5/4 61/5/4 64/50/4
f 61/5/4 63/5/4 62/51/4
f 61/5/5 58/5/5 64/52/5
f 58/5/5 61/5/5 57/53/5
f 59/2/6 63/3/6 60/11/6
f 63/3/6 59/2/6 62/1/6
f 67/3/1 66/2/1 65/1/1
f 66/3/1 67/2/1 68/1/1
f 69/3/2 67/2/2 65/1/2
f 67/3/2 69/2/2 70/1/2
f 71/5/3 66/5/3 68/54/3
f 66/5/3 71/5/3 72/55/3
f 71/5/4 69/5/4 72/56/4
f 69/5/4 71/5/4 70/57/4
f 69/5/5 66/5/5 72/58/5
f 66/5/5 69/5/5 65/59/5
f 67/2/6 71/3/6 68/11/6
f 71/3/6 67/2/6 70/1/6
f 75/3/1 74/2/1 73/1/1
f 74/3/1 75/2/1 76/1/1
f 77/3/2 75/2/2 73/1/2
f 75/3/2 77/2/2 78/1/2
f 60/48/3 74/5/3 76/60/3
f 74/5/3 60/48/3 58/5/3
f 60/5/4 77/5/4 58/61/4
f 77/5/4 60/5/4 78/62/4
f 77/5/5 74/5/5 58/5/5
f 74/5/5 77/5/5 73/63/5
f 75/2/6 60/3/6 76/11/6
f 60/3/6 75/2/6 78/1/6
f 80/3/1 64/2/1 79/1/1
f 64/3/1 80/2/1 63/1/1
f 81/3/2 80/2/2 79/1/2
f 80/3/2 81/2/2 82/1/2
f 83/5/3 64/49/3 63/5/3
f 64/49/3 83/5/3 84/64/3
f 83/5/4 81/5/4 84/65/4
f 81/5/4 83/5/4 82/66/4
f 81/5/5 64/52/5 84/67/5
f 64/52/5 81/5/5 79/68/5
f 80/2/6 83/3/6 63/11/6
f 83/3/6 80/2/6 82/1/6
f 87/3/1 86/2/1 85/1/1
f 86/3/1 87/2/1 88/1/1
f 89/3/2 87/2/2 85/1/2
f 87/3/2 89/2/2 90/1/2
f 91/5/3 86/5/3 88/69/3
f 86/5/3 91/5/3 92/70/3
f 91/5/4 89/5/4 92/71/4
f 89/5/4 91/5/4 90/72/4
f 89/5/5 86/5/5 92/73/5
f 86/5/5 89/5/5 85/74/5
f 87/2/6 91/3/6 88/11/6
f 91/3/6 87/2/6 90/1/6
f 95/3/1 94/2/1 93/1/1
f 94/3/1 95/2/1 96/1/1
f 97/3/2 95/2/2 93/1/2
f 95/3/2 97/2/2 98/1/2
f 99/5/3 94/5/3 96/75/3
f 94/5/3 99/5/3 100/76/3
f 99/5/4 97/5/4 100/77/4
f 97/5/4 99/5/4 98/78/4
f 97/5/5 94/5/5 100/79/5
f 94/5/5 97/5/5 93/80/5
f 95/2/6 99/3/6 96/11/6
f 99/3/6 95/2/6 98/1/6
f 103/3/1 102/2/1 101/1/1
f 102/3/1 103/2/1 104/1/1
f 86/3/2 103/2/2 101/1/2
f 103/3/2 86/2/2 88/1/2
f 105/5/3 102/5/3 104/81/3
f 102/5/3 105/5/3 106/82/3
f 105/5/4 86/5/4 106/83/4
f 86/5/4 105/5/4 88/84/4
f 86/5/5 102/5/5 106/85/5
f 102/5/5 86/5/5 101/86/5
f 103/2/6 105/3/6 104/11/6
f 105/3/6 103/2/6 88/1/6

usemtl color1

f 109/3/1 108/2/1 107/1/1
f 108/3/1 109/2/1 110/1/1
f 111/3/2 109/2/2 107/1/2
f 109/3/2 111/2/2 112/1/2
f 113/5/3 108/5/3 110/87/3
f 108/5/3 113/5/3 114/88/3
f 113/5/4 111/5/4 114/89/4
f 111/5/4 113/5/4 112/90/4
f 111/5/5 108/5/5 114/91/5
f 108/5/5 111/5/5 107/92/5
f 109/2/6 113/3/6 110/11/6
f 113/3/6 109/2/6 112/1/6
f 116/3/1 53/2/1 115/1/1
f 53/3/1 116/2/1 54/1/1
f 41/3/2 116/2/2 115/1/2
f 116/3/2 41/2/2 43/1/2
f 44/36/3 53/5/3 54/93/3
f 53/5/3 44/36/3 42/5/3
f 44/5/4 41/5/4 42/94/4
f 41/5/4 44/5/4 43/95/4
f 41/41/5 53/5/5 42/5/5
f 53/5/5 41/41/5 115/96/5
f 116/2/6 44/3/6 54/11/6
f 44/3/6 116/2/6 43/1/6
f 119/3/1 118/2/1 117/1/1
f 118/3/1 119/2/1 120/1/1
f 121/3/2 119/2/2 117/1/2
f 119/3/2 121/2/2 122/1/2
f 123/5/3 118/5/3 120/97/3
f 118/5/3 123/5/3 124/98/3
f 123/5/4 121/5/4 124/99/4
f 121/5/4 123/5/4 122/100/4
f 121/5/5 118/5/5 124/101/5
f 118/5/5 121/5/5 117/102/5
f 119/2/6 123/3/6 120/11/6
f 123/3/6 119/2/6 122/1/6
f 126/3/1 84/2/1 125/1/1
f 84/3/1 126/2/1 83/1/1
f 127/3/2 126/2/2 125/1/2
f 126/3/2 127/2/2 128/1/2
f 129/5/3 84/64/3 83/5/3
f 84/64/3 129/5/3 130/103/3
f 129/5/4 127/5/4 130/104/4
f 127/5/4 129/5/4 128/105/4
f 127/5/5 84/67/5 130/106/5
f 84/67/5 127/5/5 125/107/5
f 126/2/6 129/3/6 83/11/6
f 129/3/6 126/2/6 128/1/6
f 133/3/1 132/2/1 131/1/1
f 132/3/1 133/2/1 134/1/1
f 135/3/2 133/2/2 131/1/2
f 133/3/2 135/2/2 136/1/2
f 137/5/3 132/5/3 134/108/3
f 132/5/3 137/5/3 138/109/3
f 137/5/4 135/5/4 138/110/4
f 135/5/4 137/5/4 136/111/4
f 135/5/5 132/5/5 138/112/5
f 132/5/5 135/5/5 131/113/5
f 133/2/6 137/3/6 134/11/6
f 137/3/6 133/2/6 136/1/6

usemtl color12

f 141/3/1 140/2/1 139/1/1
f 140/3/1 141/2/1 142/1/1
f 143/3/2 141/2/2 139/1/2
f 141/3/2 143/2/2 144/1/2
f 145/5/3 140/5/3 142/114/3
f 140/5/3 145/5/3 146/115/3
f 145/5/4 143/5/4 146/116/4
f 143/5/4 145/5/4 144/117/4
f 143/5/5 140/5/5 146/118/5
f 140/5/5 143/5/5 139/119/5
f 141/2/6 145/3/6 142/11/6
f 145/3/6 141/2/6 144/1/6
f 149/3/1 148/2/1 147/1/1
f 148/3/1 149/2/1 150/1/1
f 151/3/2 149/2/2 147/1/2
f 149/3/2 151/2/2 152/1/2
f 153/5/3 148/5/3 150/120/3
f 148/5/3 153/5/3 154/121/3
f 153/5/4 151/5/4 154/122/4
f 151/5/4 153/5/4 152/123/4
f 151/5/5 148/5/5 154/124/5
f 148/5/5 151/5/5 147/125/5
f 149/2/6 153/3/6 150/11/6
f 153/3/6 149/2/6 152/1/6
f 157/3/1 156/2/1 155/1/1
f 156/3/1 157/2/1 158/1/1
f 159/3/2 157/2/2 155/1/2
f 157/3/2 159/2/2 160/1/2
f 161/5/3 156/5/3 158/126/3
f 156/5/3 161/5/3 162/127/3
f 161/5/4 159/5/4 162/128/4
f 159/5/4 161/5/4 160/129/4
f 159/5/5 156/5/5 162/130/5
f 156/5/5 159/5/5 155/131/5
f 157/2/6 161/3/6 158/11/6
f 161/3/6 157/2/6 160/1/6
f 165/3/1 164/2/1 163/1/1
f 164/3/1 165/2/1 166/1/1
f 140/3/2 165/2/2 163/1/2
f 165/3/2 140/2/2 142/1/2
f 167/5/3 164/5/3 166/132/3
f 164/5/3 167/5/3 168/133/3
f 167/5/4 140/5/4 168/134/4
f 140/5/4 167/5/4 142/135/4
f 140/5/5 164/5/5 168/136/5
f 164/5/5 140/5/5 163/137/5
f 165/2/6 167/3/6 166/11/6
f 167/3/6 165/2/6 142/1/6
f 171/3/1 170/2/1 169/1/1
f 170/3/1 171/2/1 172/1/1
f 73/3/2 171/2/2 169/1/2
f 171/3/2 73/2/2 75/1/2
f 76/60/3 170/5/3 172/138/3
f 170/5/3 76/60/3 74/5/3
f 76/5/4 73/5/4 74/139/4
f 73/5/4 76/5/4 75/140/4
f 73/63/5 170/5/5 74/5/5
f 170/5/5 73/63/5 169/141/5
f 171/2/6 76/3/6 172/11/6
f 76/3/6 171/2/6 75/1/6
f 175/3/1 174/2/1 173/1/1
f 174/3/1 175/2/1 176/1/1
f 177/3/2 175/2/2 173/1/2
f 175/3/2 177/2/2 178/1/2
f 179/5/3 174/5/3 176/142/3
f 174/5/3 179/5/3 180/143/3
f 179/5/4 177/5/4 180/144/4
f 177/5/4 179/5/4 178/145/4
f 177/5/5 174/5/5 180/146/5
f 174/5/5 177/5/5 173/147/5
f 175/2/6 179/3/6 176/11/6
f 179/3/6 175/2/6 178/1/6

usemtl color15

f 144/3/1 146/2/1 143/1/1
f 146/3/1 144/2/1 145/1/1
f 147/3/2 144/2/2 143/1/2
f 144/3/2 147/2/2 149/1/2
f 150/120/3 146/115/3 145/5/3
f 146/115/3 150/120/3 148/5/3
f 150/5/4 147/5/4 148/148/4
f 147/5/4 150/5/4 149/149/4
f 147/125/5 146/118/5 148/5/5
f 146/118/5 147/125/5 143/5/5
f 144/2/6 150/3/6 145/11/6
f 150/3/6 144/2/6 149/1/6
f 152/3/1 154/2/1 151/1/1
f 154/3/1 152/2/1 153/1/1
f 181/3/2 152/2/2 151/1/2
f 152/3/2 181/2/2 182/1/2
f 183/5/3 154/121/3 153/5/3
f 154/121/3 183/5/3 184/150/3
f 183/5/4 181/5/4 184/151/4
f 181/5/4 183/5/4 182/152/4
f 181/5/5 154/124/5 184/153/5
f 154/124/5 181/5/5 151/5/5
f 152/2/6 183/3/6 153/11/6
f 183/3/6 152/2/6 182/1/6
f 142/3/1 168/2/1 140/1/1
f 168/3/1 142/2/1 167/1/1
f 146/3/2 142/2/2 140/1/2
f 142/3/2 146/2/2 145/1/2
f 185/5/3 168/133/3 167/5/3
f 168/133/3 185/5/3 186/154/3
f 185/5/4 146/116/4 186/155/4
f 146/116/4 185/5/4 145/5/4
f 146/118/5 168/136/5 186/156/5
f 168/136/5 146/118/5 140/5/5
f 142/2/6 185/3/6 167/11/6
f 185/3/6 142/2/6 145/1/6
f 158/3/1 69/2/1 156/1/1
f 69/3/1 158/2/1 70/1/1
f 187/3/2 158/2/2 156/1/2
f 158/3/2 187/2/2 188/1/2
f 171/5/3 69/5/3 70/157/3
f 69/5/3 171/5/3 169/158/3
f 171/5/4 187/5/4 169/159/4
f 187/5/4 171/5/4 188/160/4
f 187/5/5 69/5/5 169/141/5
f 69/5/5 187/5/5 156/5/5
f 158/2/6 171/3/6 70/11/6
f 171/3/6 158/2/6 188/1/6
f 172/3/1 189/2/1 170/1/1
f 189/3/1 172/2/1 190/1/1
f 74/3/2 172/2/2 170/1/2
f 172/3/2 74/2/2 76/1/2
f 175/5/3 189/5/3 190/161/3
f 189/5/3 175/5/3 173/162/3
f 175/5/4 74/139/4 173/163/4
f 74/139/4 175/5/4 76/5/4
f 74/5/5 189/5/5 173/147/5
f 189/5/5 74/5/5 170/5/5
f 172/2/6 175/3/6 190/11/6
f 175/3/6 172/2/6 76/1/6

usemtl color11

f 182/3/1 184/2/1 181/1/1
f 184/3/1 182/2/1 183/1/1
f 155/3/2 182/2/2 181/1/2
f 182/3/2 155/2/2 157/1/2
f 158/126/3 184/150/3 183/5/3
f 184/150/3 158/126/3 156/5/3
f 158/5/4 155/5/4 156/164/4
f 155/5/4 158/5/4 157/165/4
f 155/131/5 184/153/5 156/5/5
f 184/153/5 155/131/5 181/5/5
f 182/2/6 158/3/6 183/11/6
f 158/3/6 182/2/6 157/1/6
f 150/3/1 191/2/1 148/1/1
f 191/3/1 150/2/1 192/1/1
f 193/3/2 150/2/2 148/1/2
f 150/3/2 193/2/2 194/1/2
f 67/5/3 191/5/3 192/166/3
f 191/5/3 67/5/3 65/167/3
f 67/5/4 193/5/4 65/168/4
f 193/5/4 67/5/4 194/169/4
f 193/5/5 191/5/5 65/59/5
f 191/5/5 193/5/5 148/5/5
f 150/2/6 67/3/6 192/11/6
f 67/3/6 150/2/6 194/1/6
f 188/3/1 169/2/1 187/1/1
f 169/3/1 188/2/1 171/1/1
f 162/3/2 188/2/2 187/1/2
f 188/3/2 162/2/2 161/1/2
f 75/5/3 169/158/3 171/5/3
f 169/158/3 75/5/3 73/170/3
f 75/140/4 162/128/4 73/5/4
f 162/128/4 75/140/4 161/5/4
f 162/130/5 169/141/5 73/63/5
f 169/141/5 162/130/5 187/5/5
f 188/2/6 75/3/6 171/11/6
f 75/3/6 188/2/6 161/1/6
f 70/3/1 195/2/1 69/1/1
f 195/3/1 70/2/1 196/1/1
f 169/3/2 70/2/2 69/1/2
f 70/3/2 169/2/2 171/1/2
f 190/161/3 195/5/3 196/171/3
f 195/5/3 190/161/3 189/5/3
f 190/5/4 169/159/4 189/172/4
f 169/159/4 190/5/4 171/5/4
f 169/141/5 195/5/5 189/5/5
f 195/5/5 169/141/5 69/5/5
f 70/2/6 190/3/6 196/11/6
f 190/3/6 70/2/6 171/1/6
f 190/3/1 197/2/1 189/1/1
f 197/3/1 190/2/1 198/1/1
f 173/3/2 190/2/2 189/1/2
f 190/3/2 173/2/2 175/1/2
f 176/142/3 197/5/3 198/173/3
f 197/5/3 176/142/3 174/5/3
f 176/5/4 173/163/4 174/174/4
f 173/163/4 176/5/4 175/5/4
f 173/147/5 197/5/5 174/5/5
f 197/5/5 173/147/5 189/5/5
f 190/2/6 176/3/6 198/11/6
f 176/3/6 190/2/6 175/1/6

usemtl color10

f 160/3/1 162/2/1 159/1/1
f 162/3/1 160/2/1 161/1/1
f 199/3/2 160/2/2 159/1/2
f 160/3/2 199/2/2 200/1/2
f 59/5/3 162/127/3 161/5/3
f 162/127/3 59/5/3 57/175/3
f 59/5/4 199/5/4 57/176/4
f 199/5/4 59/5/4 200/177/4
f 199/5/5 162/130/5 57/53/5
f 162/130/5 199/5/5 159/5/5
f 160/2/6 59/3/6 161/11/6
f 59/3/6 160/2/6 200/1/6
f 145/3/1 186/2/1 146/1/1
f 186/3/1 145/2/1 185/1/1
f 148/3/2 145/2/2 146/1/2
f 145/3/2 148/2/2 150/1/2
f 192/166/3 186/154/3 185/5/3
f 186/154/3 192/166/3 191/5/3
f 192/5/4 148/148/4 191/178/4
f 148/148/4 192/5/4 150/5/4
f 148/5/5 186/156/5 191/5/5
f 186/156/5 148/5/5 146/118/5
f 145/2/6 192/3/6 185/11/6
f 192/3/6 145/2/6 150/1/6
f 194/3/1 65/2/1 193/1/1
f 65/3/1 194/2/1 67/1/1
f 156/3/2 194/2/2 193/1/2
f 194/3/2 156/2/2 158/1/2
f 70/157/3 65/167/3 67/5/3
f 65/167/3 70/157/3 69/5/3
f 70/57/4 156/164/4 69/5/4
f 156/164/4 70/57/4 158/5/4
f 156/5/5 65/59/5 69/5/5
f 65/59/5 156/5/5 193/5/5
f 194/2/6 70/3/6 67/11/6
f 70/3/6 194/2/6 158/1/6
f 167/3/1 201/2/1 168/1/1
f 201/3/1 167/2/1 202/1/1
f 186/3/2 167/2/2 168/1/2
f 167/3/2 186/2/2 185/1/2
f 203/5/3 201/5/3 202/179/3
f 201/5/3 203/5/3 204/180/3
f 203/5/4 186/155/4 204/181/4
f 186/155/4 203/5/4 185/5/4
f 186/156/5 201/5/5 204/182/5
f 201/5/5 186/156/5 168/136/5
f 167/2/6 203/3/6 202/11/6
f 203/3/6 167/2/6 185/1/6
f 207/3/1 206/2/1 205/1/1
f 206/3/1 207/2/1 208/1/1
f 209/3/2 207/2/2 205/1/2
f 207/3/2 209/2/2 210/1/2
f 211/5/3 206/5/3 208/183/3
f 206/5/3 211/5/3 212/184/3
f 211/5/4 209/5/4 212/185/4
f 209/5/4 211/5/4 210/186/4
f 209/5/5 206/5/5 212/187/5
f 206/5/5 209/5/5 205/188/5
f 207/2/6 211/3/6 208/11/6
f 211/3/6 207/2/6 210/1/6

usemtl color9

f 215/3/1 214/2/1 213/1/1
f 214/3/1 215/2/1 216/1/1
f 217/3/2 215/2/2 213/1/2
f 215/3/2 217/2/2 218/1/2
f 219/5/3 214/5/3 216/189/3
f 214/5/3 219/5/3 220/190/3
f 219/5/4 217/5/4 220/191/4
f 217/5/4 219/5/4 218/192/4
f 217/5/5 214/5/5 220/193/5
f 214/5/5 217/5/5 213/194/5
f 215/2/6 219/3/6 216/11/6
f 219/3/6 215/2/6 218/1/6
f 223/3/1 222/2/1 221/1/1
f 222/3/1 223/2/1 224/1/1
f 225/3/2 223/2/2 221/1/2
f 223/3/2 225/2/2 226/1/2
f 227/5/3 222/5/3 224/195/3
f 222/5/3 227/5/3 228/196/3
f 227/5/4 225/5/4 228/197/4
f 225/5/4 227/5/4 226/198/4
f 225/5/5 222/5/5 228/199/5
f 222/5/5 225/5/5 221/200/5
f 223/2/6 227/3/6 224/11/6
f 227/3/6 223/2/6 226/1/6
f 231/3/1 230/2/1 229/1/1
f 230/3/1 231/2/1 232/1/1
f 168/3/2 231/2/2 229/1/2
f 231/3/2 168/2/2 167/1/2
f 202/179/3 230/5/3 232/201/3
f 230/5/3 202/179/3 201/5/3
f 202/5/4 168/134/4 201/202/4
f 168/134/4 202/5/4 167/5/4
f 168/136/5 230/5/5 201/5/5
f 230/5/5 168/136/5 229/203/5
f 231/2/6 202/3/6 232/11/6
f 202/3/6 231/2/6 167/1/6
f 235/3/1 234/2/1 233/1/1
f 234/3/1 235/2/1 236/1/1
f 237/3/2 235/2/2 233/1/2
f 235/3/2 237/2/2 238/1/2
f 239/5/3 234/5/3 236/204/3
f 234/5/3 239/5/3 240/205/3
f 239/5/4 237/5/4 240/206/4
f 237/5/4 239/5/4 238/207/4
f 237/5/5 234/5/5 240/208/5
f 234/5/5 237/5/5 233/209/5
f 235/2/6 239/3/6 236/11/6
f 239/3/6 235/2/6 238/1/6
f 242/3/1 85/2/1 241/1/1
f 85/3/1 242/2/1 87/1/1
f 243/3/2 242/2/2 241/1/2
f 242/3/2 243/2/2 244/1/2
f 90/5/3 85/5/3 87/210/3
f 85/5/3 90/5/3 89/211/3
f 90/72/4 243/5/4 89/5/4
f 243/5/4 90/72/4 244/212/4
f 243/5/5 85/74/5 89/5/5
f 85/74/5 243/5/5 241/213/5
f 242/2/6 90/3/6 87/11/6
f 90/3/6 242/2/6 244/1/6
f 246/3/1 93/2/1 245/1/1
f 93/3/1 246/2/1 95/1/1
f 247/3/2 246/2/2 245/1/2
f 246/3/2 247/2/2 248/1/2
f 98/5/3 93/5/3 95/214/3
f 93/5/3 98/5/3 97/215/3
f 98/78/4 247/5/4 97/5/4
f 247/5/4 98/78/4 248/216/4
f 247/5/5 93/80/5 97/5/5
f 93/80/5 247/5/5 245/217/5
f 246/2/6 98/3/6 95/11/6
f 98/3/6 246/2/6 248/1/6
f 251/3/1 250/2/1 249/1/1
f 250/3/1 251/2/1 252/1/1
f 253/3/2 251/2/2 249/1/2
f 251/3/2 253/2/2 254/1/2
f 255/5/3 250/5/3 252/218/3
f 250/5/3 255/5/3 256/219/3
f 255/5/4 253/5/4 256/220/4
f 253/5/4 255/5/4 254/221/4
f 253/5/5 250/5/5 256/222/5
f 250/5/5 253/5/5 249/223/5
f 251/2/6 255/3/6 252/11/6
f 255/3/6 251/2/6 254/1/6
f 259/3/1 258/2/1 257/1/1
f 258/3/1 259/2/1 260/1/1
f 261/3/2 259/2/2 257/1/2
f 259/3/2 261/2/2 262/1/2
f 263/5/3 258/5/3 260/224/3
f 258/5/3 263/5/3 264/225/3
f 263/5/4 261/5/4 264/226/4
f 261/5/4 263/5/4 262/227/4
f 261/5/5 258/5/5 264/228/5
f 258/5/5 261/5/5 257/229/5
f 259/2/6 263/3/6 260/11/6
f 263/3/6 259/2/6 262/1/6
f 267/3/1 266/2/1 265/1/1
f 266/3/1 267/2/1 268/1/1
f 269/3/2 267/2/2 265/1/2
f 267/3/2 269/2/2 270/1/2
f 271/5/3 266/5/3 268/230/3
f 266/5/3 271/5/3 272/231/3
f 271/5/4 269/5/4 272/232/4
f 269/5/4 271/5/4 270/233/4
f 269/5/5 266/5/5 272/234/5
f 266/5/5 269/5/5 265/235/5
f 267/2/6 271/3/6 268/11/6
f 271/3/6 267/2/6 270/1/6
f 275/3/1 274/2/1 273/1/1
f 274/3/1 275/2/1 276/1/1
f 277/3/2 275/2/2 273/1/2
f 275/3/2 277/2/2 278/1/2
f 207/5/3 274/5/3 276/236/3
f 274/5/3 207/5/3 205/237/3
f 207/5/4 277/5/4 205/238/4
f 277/5/4 207/5/4 278/239/4
f 277/5/5 274/5/5 205/188/5
f 274/5/5 277/5/5 273/240/5
f 275/2/6 207/3/6 276/11/6
f 207/3/6 275/2/6 278/1/6
f 281/3/1 280/2/1 279/1/1
f 280/3/1 281/2/1 282/1/1
f 274/3/2 281/2/2 279/1/2
f 281/3/2 274/2/2 276/1/2
f 283/5/3 280/5/3 282/241/3
f 280/5/3 283/5/3 284/242/3
f 283/5/4 274/5/4 284/243/4
f 274/5/4 283/5/4 276/244/4
f 274/5/5 280/5/5 284/245/5
f 280/5/5 274/5/5 279/246/5
f 281/2/6 283/3/6 282/11/6
f 283/3/6 281/2/6 276/1/6
f 210/3/1 212/2/1 209/1/1
f 212/3/1 210/2/1 211/1/1
f 266/3/2 210/2/2 209/1/2
f 210/3/2 266/2/2 268/1/2
f 285/5/3 212/184/3 211/5/3
f 212/184/3 285/5/3 286/247/3
f 285/5/4 266/5/4 286/248/4
f 266/5/4 285/5/4 268/249/4
f 266/5/5 212/187/5 286/250/5
f 212/187/5 266/5/5 209/5/5
f 210/2/6 285/3/6 211/11/6
f 285/3/6 210/2/6 268/1/6
f 271/3/1 287/2/1 272/1/1
f 287/3/1 271/2/1 288/1/1
f 289/3/2 271/2/2 272/1/2
f 271/3/2 289/2/2 290/1/2
f 291/5/3 287/5/3 288/251/3
f 287/5/3 291/5/3 292/252/3
f 291/5/4 289/5/4 292/253/4
f 289/5/4 291/5/4 290/254/4
f 289/5/5 287/5/5 292/255/5
f 287/5/5 289/5/5 272/234/5
f 271/2/6 291/3/6 288/11/6
f 291/3/6 271/2/6 290/1/6

usemtl color7

f 295/3/1 294/2/1 293/1/1
f 294/3/1 295/2/1 296/1/1
f 297/3/2 295/2/2 293/1/2
f 295/3/2 297/2/2 298/1/2
f 299/5/3 294/5/3 296/256/3
f 294/5/3 299/5/3 300/257/3
f 299/5/4 297/5/4 300/258/4
f 297/5/4 299/5/4 298/259/4
f 297/5/5 294/5/5 300/260/5
f 294/5/5 297/5/5 293/261/5
f 295/2/6 299/3/6 296/11/6
f 299/3/6 295/2/6 298/1/6
f 303/3/1 302/2/1 301/1/1
f 302/3/1 303/2/1 304/1/1
f 250/3/2 303/2/2 301/1/2
f 303/3/2 250/2/2 252/1/2
f 305/5/3 302/5/3 304/262/3
f 302/5/3 305/5/3 306/263/3
f 305/5/4 250/5/4 306/264/4
f 250/5/4 305/5/4 252/265/4
f 250/5/5 302/5/5 306/266/5
f 302/5/5 250/5/5 301/267/5
f 303/2/6 305/3/6 304/11/6
f 305/3/6 303/2/6 252/1/6

usemtl color5

f 309/3/1 308/2/1 307/1/1
f 308/3/1 309/2/1 310/1/1
f 108/3/2 309/2/2 307/1/2
f 309/3/2 108/2/2 110/1/2
f 311/5/3 308/5/3 310/268/3
f 308/5/3 311/5/3 312/269/3
f 311/5/4 108/5/4 312/270/4
f 108/5/4 311/5/4 110/271/4
f 108/5/5 308/5/5 312/272/5
f 308/5/5 108/5/5 307/273/5
f 309/2/6 311/3/6 310/11/6
f 311/3/6 309/2/6 110/1/6
f 314/3/1 229/2/1 313/1/1
f 229/3/1 314/2/1 231/1/1
f 163/3/2 314/2/2 313/1/2
f 314/3/2 163/2/2 165/1/2
f 166/132/3 229/5/3 231/274/3
f 229/5/3 166/132/3 164/5/3
f 166/5/4 163/5/4 164/275/4
f 163/5/4 166/5/4 165/276/4
f 163/137/5 229/203/5 164/5/5
f 229/203/5 163/137/5 313/277/5
f 314/2/6 166/3/6 231/11/6
f 166/3/6 314/2/6 165/1/6
f 52/3/1 315/2/1 50/1/1
f 315/3/1 52/2/1 316/1/1
f 56/3/2 52/2/2 50/1/2
f 52/3/2 56/2/2 55/1/2
f 317/5/3 315/5/3 316/278/3
f 315/5/3 317/5/3 318/279/3
f 317/5/4 56/44/4 318/280/4
f 56/44/4 317/5/4 55/5/4
f 56/46/5 315/5/5 318/281/5
f 315/5/5 56/46/5 50/5/5
f 52/2/6 317/3/6 316/11/6
f 317/3/6 52/2/6 55/1/6
f 311/3/1 101/2/1 312/1/1
f 101/3/1 311/2/1 103/1/1
f 241/3/2 311/2/2 312/1/2
f 311/3/2 241/2/2 242/1/2
f 88/69/3 101/5/3 103/282/3
f 101/5/3 88/69/3 86/5/3
f 88/84/4 241/5/4 86/5/4
f 241/5/4 88/84/4 242/283/4
f 241/213/5 101/86/5 86/5/5
f 101/86/5 241/213/5 312/272/5
f 311/2/6 88/3/6 103/11/6
f 88/3/6 311/2/6 242/1/6
f 203/3/1 319/2/1 204/1/1
f 319/3/1 203/2/1 320/1/1
f 72/3/2 203/2/2 204/1/2
f 203/3/2 72/2/2 71/1/2
f 196/171/3 319/5/3 320/284/3
f 319/5/3 196/171/3 195/5/3
f 196/5/4 72/56/4 195/285/4
f 72/56/4 196/5/4 71/5/4
f 72/58/5 319/5/5 195/5/5
f 319/5/5 72/58/5 204/182/5
f 203/2/6 196/3/6 320/11/6
f 196/3/6 203/2/6 71/1/6
f 76/3/1 173/2/1 74/1/1
f 173/3/1 76/2/1 175/1/1
f 130/3/2 76/2/2 74/1/2
f 76/3/2 130/2/2 129/1/2
f 321/5/3 173/162/3 175/5/3
f 173/162/3 321/5/3 322/286/3
f 321/5/4 130/104/4 322/287/4
f 130/104/4 321/5/4 129/5/4
f 130/106/5 173/147/5 322/288/5
f 173/147/5 130/106/5 74/5/5
f 76/2/6 321/3/6 175/11/6
f 321/3/6 76/2/6 129/1/6
f 325/3/1 324/2/1 323/1/1
f 324/3/1 325/2/1 326/1/1
f 195/3/2 325/2/2 323/1/2
f 325/3/2 195/2/2 196/1/2
f 327/5/3 324/5/3 326/289/3
f 324/5/3 327/5/3 328/290/3
f 327/5/4 195/285/4 328/291/4
f 195/285/4 327/5/4 196/5/4
f 195/5/5 324/5/5 328/292/5
f 324/5/5 195/5/5 323/293/5
f 325/2/6 327/3/6 326/11/6
f 327/3/6 325/2/6 196/1/6
f 178/3/1 180/2/1 177/1/1
f 180/3/1 178/2/1 179/1/1
f 329/3/2 178/2/2 177/1/2
f 178/3/2 329/2/2 330/1/2
f 331/5/3 180/143/3 179/5/3
f 180/143/3 331/5/3 332/294/3
f 331/5/4 329/5/4 332/295/4
f 329/5/4 331/5/4 330/296/4
f 329/5/5 180/146/5 332/297/5
f 180/146/5 329/5/5 177/5/5
f 178/2/6 331/3/6 179/11/6
f 331/3/6 178/2/6 330/1/6
f 335/3/1 334/2/1 333/1/1
f 334/3/1 335/2/1 336/1/1
f 322/3/2 335/2/2 333/1/2
f 335/3/2 322/2/2 321/1/2
f 337/5/3 334/5/3 336/298/3
f 334/5/3 337/5/3 338/299/3
f 337/5/4 322/287/4 338/300/4
f 322/287/4 337/5/4 321/5/4
f 322/288/5 334/5/5 338/301/5
f 334/5/5 322/288/5 333/302/5
f 335/2/6 337/3/6 336/11/6
f 337/3/6 335/2/6 321/1/6
f 340/3/1 131/2/1 339/1/1
f 131/3/1 340/2/1 133/1/1
f 101/3/2 340/2/2 339/1/2
f 340/3/2 101/2/2 103/1/2
f 104/81/3 131/5/3 133/303/3
f 131/5/3 104/81/3 102/5/3
f 104/5/4 101/5/4 102/304/4
f 101/5/4 104/5/4 103/305/4
f 101/86/5 131/113/5 102/5/5
f 131/113/5 101/86/5 339/306/5
f 340/2/6 104/3/6 133/11/6
f 104/3/6 340/2/6 103/1/6
f 343/3/1 342/2/1 341/1/1
f 342/3/1 343/2/1 344/1/1
f 328/3/2 343/2/2 341/1/2
f 343/3/2 328/2/2 327/1/2
f 345/5/3 342/5/3 344/307/3
f 342/5/3 345/5/3 346/308/3
f 345/5/4 328/291/4 346/309/4
f 328/291/4 345/5/4 327/5/4
f 328/292/5 342/5/5 346/310/5
f 342/5/5 328/292/5 341/311/5
f 343/2/6 345/3/6 344/11/6
f 345/3/6 343/2/6 327/1/6

usemtl color0

f 349/3/1 348/2/1 347/1/1
f 348/3/1 349/2/1 350/1/1
f 351/3/2 349/2/2 347/1/2
f 349/3/2 351/2/2 352/1/2
f 353/5/3 348/5/3 350/312/3
f 348/5/3 353/5/3 354/313/3
f 353/5/4 351/5/4 354/314/4
f 351/5/4 353/5/4 352/315/4
f 351/5/5 348/5/5 354/316/5
f 348/5/5 351/5/5 347/317/5
f 349/2/6 353/3/6 350/11/6
f 353/3/6 349/2/6 352/1/6

usemtl color14

f 356/3/1 249/2/1 355/1/1
f 249/3/1 356/2/1 251/1/1
f 357/3/2 356/2/2 355/1/2
f 356/3/2 357/2/2 358/1/2
f 359/5/3 249/5/3 251/318/3
f 249/5/3 359/5/3 360/319/3
f 359/5/4 357/5/4 360/320/4
f 357/5/4 359/5/4 358/321/4
f 357/5/5 249/223/5 360/322/5
f 249/223/5 357/5/5 355/323/5
f 356/2/6 359/3/6 251/11/6
f 359/3/6 356/2/6 358/1/6

usemtl color13

f 362/3/1 273/2/1 361/1/1
f 273/3/1 362/2/1 275/1/1
f 363/3/2 362/2/2 361/1/2
f 362/3/2 363/2/2 364/1/2
f 278/5/3 273/5/3 275/324/3
f 273/5/3 278/5/3 277/325/3
f 278/239/4 363/5/4 277/5/4
f 363/5/4 278/239/4 364/326/4
f 363/5/5 273/240/5 277/5/5
f 273/240/5 363/5/5 361/327/5
f 362/2/6 278/3/6 275/11/6
f 278/3/6 362/2/6 364/1/6

usemtl color3

f 367/3/1 366/2/1 365/1/1
f 366/3/1 367/2/1 368/1/1
f 369/3/2 367/2/2 365/1/2
f 367/3/2 369/2/2 370/1/2
f 371/5/3 366/5/3 368/328/3
f 366/5/3 371/5/3 372/329/3
f 371/5/4 369/5/4 372/330/4
f 369/5/4 371/5/4 370/331/4
f 369/5/5 366/5/5 372/332/5
f 366/5/5 369/5/5 365/333/5
f 367/2/6 371/3/6 368/11/6
f 371/3/6 367/2/6 370/1/6
f 375/3/1 374/2/1 373/1/1
f 374/3/1 375/2/1 376/1/1
f 377/3/2 375/2/2 373/1/2
f 375/3/2 377/2/2 378/1/2
f 379/5/3 374/5/3 376/334/3
f 374/5/3 379/5/3 380/335/3
f 379/5/4 377/5/4 380/336/4
f 377/5/4 379/5/4 378/337/4
f 377/5/5 374/5/5 380/338/5
f 374/5/5 377/5/5 373/339/5
f 375/2/6 379/3/6 376/11/6
f 379/3/6 375/2/6 378/1/6
f 382/3/1 380/2/1 381/1/1
f 380/3/1 382/2/1 379/1/1
f 383/3/2 382/2/2 381/1/2
f 382/3/2 383/2/2 384/1/2
f 385/5/3 380/335/3 379/5/3
f 380/335/3 385/5/3 386/340/3
f 385/5/4 383/5/4 386/341/4
f 383/5/4 385/5/4 384/342/4
f 383/5/5 380/338/5 386/343/5
f 380/338/5 383/5/5 381/344/5
f 382/2/6 385/3/6 379/11/6
f 385/3/6 382/2/6 384/1/6

usemtl color4

f 370/3/1 372/2/1 369/1/1
f 372/3/1 370/2/1 371/1/1
f 373/3/2 370/2/2 369/1/2
f 370/3/2 373/2/2 375/1/2
f 376/334/3 372/329/3 371/5/3
f 372/329/3 376/334/3 374/5/3
f 376/5/4 373/5/4 374/345/4
f 373/5/4 376/5/4 375/346/4
f 373/339/5 372/332/5 374/5/5
f 372/332/5 373/339/5 369/5/5
f 370/2/6 376/3/6 371/11/6
f 376/3/6 370/2/6 375/1/6

usemtl color8

f 263/3/1 387/2/1 264/1/1
f 387/3/1 263/2/1 388/1/1
f 389/3/2 263/2/2 264/1/2
f 263/3/2 389/2/2 390/1/2
f 281/5/3 387/5/3 388/347/3
f 387/5/3 281/5/3 279/348/3
f 281/5/4 389/5/4 279/349/4
f 389/5/4 281/5/4 390/350/4
f 389/5/5 387/5/5 279/246/5
f 387/5/5 389/5/5 264/228/5
f 263/2/6 281/3/6 388/11/6
f 281/3/6 263/2/6 390/1/6
f 392/3/1 381/2/1 391/1/1
f 381/3/1 392/2/1 382/1/1
f 393/3/2 392/2/2 391/1/2
f 392/3/2 393/2/2 394/1/2
f 384/5/3 381/5/3 382/351/3
f 381/5/3 384/5/3 383/352/3
f 384/342/4 393/5/4 383/5/4
f 393/5/4 384/342/4 394/353/4
f 393/5/5 381/344/5 383/5/5
f 381/344/5 393/5/5 391/354/5
f 392/2/6 384/3/6 382/11/6
f 384/3/6 392/2/6 394/1/6
f 276/3/1 284/2/1 274/1/1
f 284/3/1 276/2/1 283/1/1
f 205/3/2 276/2/2 274/1/2
f 276/3/2 205/2/2 207/1/2
f 208/183/3 284/242/3 283/5/3
f 284/242/3 208/183/3 206/5/3
f 208/5/4 205/238/4 206/355/4
f 205/238/4 208/5/4 207/5/4
f 205/188/5 284/245/5 206/5/5
f 284/245/5 205/188/5 274/5/5
f 276/2/6 208/3/6 283/11/6
f 208/3/6 276/2/6 207/1/6
f 268/3/1 286/2/1 266/1/1
f 286/3/1 268/2/1 285/1/1
f 272/3/2 268/2/2 266/1/2
f 268/3/2 272/2/2 271/1/2
f 288/251/3 286/247/3 285/5/3
f 286/247/3 288/251/3 287/5/3
f 288/5/4 272/232/4 287/356/4
f 272/232/4 288/5/4 271/5/4
f 272/234/5 286/250/5 287/5/5
f 286/250/5 272/234/5 266/5/5
f 268/2/6 288/3/6 285/11/6
f 288/3/6 268/2/6 271/1/6

