<?xml version="1.0" standalone="no"?>
<!DOCTYPE svg PUBLIC "-//W3C//DTD SVG 20010904//EN"
 "http://www.w3.org/TR/2001/REC-SVG-20010904/DTD/svg10.dtd">
<svg version="1.0" xmlns="http://www.w3.org/2000/svg"
 width="512.000000pt" height="512.000000pt" viewBox="0 0 512.000000 512.000000"
 preserveAspectRatio="xMidYMid meet">
<metadata>
Created by potrace 1.14, written by Peter Selinger 2001-2017
</metadata>
<g transform="translate(0.000000,512.000000) scale(0.100000,-0.100000)"
fill="#000000" stroke="none">
<path d="M2883 4696 c-62 -15 -92 -34 -158 -97 -54 -53 -113 -88 -210 -124
-72 -27 -108 -32 -300 -40 -77 -3 -178 -7 -225 -10 -47 -2 -159 -7 -250 -10
-178 -7 -192 -8 -278 -30 -334 -83 -333 -83 -404 -192 -34 -52 -58 -155 -49
-208 6 -38 5 -41 -35 -70 -23 -16 -90 -75 -149 -130 -135 -125 -235 -267 -254
-360 -12 -58 -11 -75 4 -140 10 -38 55 -111 76 -122 15 -7 12 -24 -28 -148
-96 -297 -117 -431 -86 -553 13 -50 25 -73 65 -115 28 -28 51 -63 53 -77 2
-14 7 -54 10 -90 9 -90 49 -238 81 -302 27 -53 138 -232 158 -255 19 -21 31
-37 49 -65 9 -15 53 -72 96 -126 75 -92 118 -127 181 -145 9 -3 42 -56 74
-118 51 -99 80 -153 147 -269 8 -14 52 -76 98 -139 108 -146 195 -213 306
-236 22 -5 45 -9 50 -11 72 -17 116 -25 187 -31 109 -10 449 -9 563 1 88 7
145 17 310 52 25 5 152 57 330 134 22 9 56 23 75 30 107 42 154 100 235 290
65 155 65 156 110 375 27 133 29 148 40 270 4 39 8 71 10 73 1 2 15 5 31 8
178 32 303 102 366 202 32 51 66 203 63 282 -2 78 -28 188 -58 250 -12 24 -47
71 -77 104 -34 36 -50 61 -42 63 18 7 71 87 75 115 2 13 12 24 23 26 76 11
254 47 324 65 93 23 158 64 201 127 20 29 49 93 48 103 -1 1 2 18 6 38 9 49
-20 153 -58 206 -48 67 -133 114 -247 137 -14 3 -36 7 -50 10 -28 6 -196 88
-283 137 -43 25 -54 36 -48 48 5 9 14 41 20 72 9 44 9 68 -3 116 -22 97 -69
147 -187 201 -35 16 -98 46 -140 65 -170 78 -224 99 -337 129 -64 16 -128 32
-142 35 -14 3 -32 6 -40 8 -8 2 -21 4 -28 4 -9 1 -10 6 -4 19 5 9 17 49 27 89
15 65 16 78 2 137 -14 60 -64 146 -86 146 -4 0 -17 9 -29 20 -12 12 -22 19
-22 16 0 -3 -21 1 -47 9 -56 17 -71 17 -140 1z"/>
</g>
</svg>
