# Created by Kenney (www.kenney.nl)

mtllib Cannon LHD Feandra shot1.mtl

v 5 2 -1.1
v 5 1 -1.1
v 5 2 1.1
v 5 1 1.1
v 4 2 -1.1
v 4 2 1.1
v 4 1 1.1
v 4 1 -1.1
v 3 2 -1.1
v 3 1 -1.1
v 3 2 1.1
v 3 1 1.1
v 2 2 -1.1
v 2 2 1.1
v 2 1 1.1
v 2 1 -1.1
v 1 2 -1.1
v 1 1 -1.1
v 1 2 1.1
v 1 1 1.1
v 0 2 -1.1
v 0 2 1.1
v 0 1 1.1
v 0 1 -1.1
v 0 2 -0.55
v 0 1 -0.55
v 0 2 0.55
v 0 1 0.55
v -2 2 -0.55
v -2 2 0.55
v -2 1 0.55
v -2 1 -0.55
v 5 0 -1.1
v 5 -1 -1.1
v 5 0 1.1
v 5 -1 1.1
v 4 0 -1.1
v 4 0 1.1
v 4 -1 1.1
v 4 -1 -1.1
v 3 0 -1.1
v 3 -1 -1.1
v 3 0 1.1
v 3 -1 1.1
v 2 0 -1.1
v 2 0 1.1
v 2 -1 1.1
v 2 -1 -1.1
v 1 0 -1.1
v 1 -1 -1.1
v 1 0 1.1
v 1 -1 1.1
v 0 0 -1.1
v 0 0 1.1
v 0 -1 1.1
v 0 -1 -1.1
v 0 0 -0.55
v 0 -1 -0.55
v 0 0 0.55
v 0 -1 0.55
v -2 0 -0.55
v -2 0 0.55
v -2 -1 0.55
v -2 -1 -0.55
v 5 1 -1.65
v 5 0 -1.65
v 5 1 1.65
v 5 0 1.65
v 4 1 -1.65
v 4 1 1.65
v 4 0 1.65
v 4 0 -1.65
v 3 1 -1.65
v 3 0 -1.65
v 3 1 1.65
v 3 0 1.65
v 2 1 -1.65
v 2 1 1.65
v 2 0 1.65
v 2 0 -1.65
v 1 1 -1.65
v 1 0 -1.65
v 1 1 1.65
v 1 0 1.65
v 0 1 -1.65
v 0 1 1.65
v 0 0 1.65
v 0 0 -1.65
v -3 1 -0.55
v -3 0 -0.55
v -3 1 0.55
v -3 0 0.55
v -4 1 -0.55
v -4 1 0.55
v -4 0 0.55
v -4 0 -0.55
v -2 1 -1.1
v -2 1 1.1
v -2 0 1.1
v -2 0 -1.1

vn 1 0 0
vn 0 1 0
vn 0 -1 0
vn -1 0 0
vn 0 0 -1
vn 0 0 1

vt -19.68504 19.68504
vt 19.68504 19.68504
vt -19.68504 -19.68504
vt 0 NaN
vt 0 0
vt 0 NaN
vt 0 NaN
vt 0 NaN
vt 0 NaN
vt 0 NaN
vt 19.68504 -19.68504
vt 0 NaN
vt 0 NaN
vt 0 NaN
vt 0 NaN
vt 0 NaN
vt 0 NaN
vt 0 NaN
vt 0 NaN
vt 0 NaN
vt 0 NaN
vt 0 NaN
vt 0 NaN
vt 0 NaN
vt 0 NaN
vt 0 NaN
vt 0 NaN
vt 0 NaN
vt 0 NaN
vt 0 NaN
vt 0 NaN
vt 0 NaN
vt 0 NaN
vt 0 NaN
vt 0 NaN
vt 0 NaN
vt 0 NaN
vt 0 NaN
vt 0 NaN
vt 0 NaN
vt 0 NaN
vt 0 NaN
vt 0 NaN
vt 0 NaN
vt 0 NaN
vt 0 NaN
vt 0 NaN
vt 0 NaN
vt 0 NaN
vt 0 NaN
vt 0 NaN
vt 0 NaN
vt 0 NaN
vt 0 NaN
vt 0 NaN
vt 0 NaN
vt 0 NaN
vt 0 NaN
vt 0 NaN
vt 0 NaN
vt 0 NaN
vt 0 NaN
vt 0 NaN
vt 0 NaN
vt 0 NaN
vt 0 NaN
vt 0 NaN
vt 0 NaN
vt 0 NaN
vt 0 NaN
vt 0 NaN
vt 0 NaN
vt 0 NaN
vt 0 NaN
vt 0 NaN
vt 0 NaN
vt 0 NaN
vt 0 NaN
vt 0 NaN
vt 0 NaN
vt 0 NaN
vt 0 NaN
vt 0 NaN
vt 0 NaN
vt 0 NaN
vt 0 NaN
vt 0 NaN
vt 0 NaN
vt 0 NaN
vt 0 NaN
vt 0 NaN
vt 0 NaN
vt 0 NaN
vt 0 NaN
vt 0 NaN
vt 0 NaN
vt 0 NaN

usemtl color1

f 3/3/1 2/2/1 1/1/1
f 2/3/1 3/2/1 4/1/1
f 5/3/2 3/2/2 1/1/2
f 3/3/2 5/2/2 6/1/2
f 7/5/3 2/5/3 4/4/3
f 2/5/3 7/5/3 8/6/3
f 7/5/4 5/5/4 8/7/4
f 5/5/4 7/5/4 6/8/4
f 5/5/5 2/5/5 8/9/5
f 2/5/5 5/5/5 1/10/5
f 3/2/6 7/3/6 4/11/6
f 7/3/6 3/2/6 6/1/6
f 11/3/1 10/2/1 9/1/1
f 10/3/1 11/2/1 12/1/1
f 13/3/2 11/2/2 9/1/2
f 11/3/2 13/2/2 14/1/2
f 15/5/3 10/5/3 12/12/3
f 10/5/3 15/5/3 16/13/3
f 15/5/4 13/5/4 16/14/4
f 13/5/4 15/5/4 14/15/4
f 13/5/5 10/5/5 16/16/5
f 10/5/5 13/5/5 9/17/5
f 11/2/6 15/3/6 12/11/6
f 15/3/6 11/2/6 14/1/6
f 19/3/1 18/2/1 17/1/1
f 18/3/1 19/2/1 20/1/1
f 21/3/2 19/2/2 17/1/2
f 19/3/2 21/2/2 22/1/2
f 23/5/3 18/5/3 20/18/3
f 18/5/3 23/5/3 24/19/3
f 23/5/4 21/5/4 24/20/4
f 21/5/4 23/5/4 22/21/4
f 21/5/5 18/5/5 24/22/5
f 18/5/5 21/5/5 17/23/5
f 19/2/6 23/3/6 20/11/6
f 23/3/6 19/2/6 22/1/6
f 27/3/1 26/2/1 25/1/1
f 26/3/1 27/2/1 28/1/1
f 29/3/2 27/2/2 25/1/2
f 27/3/2 29/2/2 30/1/2
f 31/5/3 26/5/3 28/24/3
f 26/5/3 31/5/3 32/25/3
f 31/5/4 29/5/4 32/26/4
f 29/5/4 31/5/4 30/27/4
f 29/5/5 26/5/5 32/28/5
f 26/5/5 29/5/5 25/29/5
f 27/2/6 31/3/6 28/11/6
f 31/3/6 27/2/6 30/1/6
f 3/3/1 2/2/1 1/1/1
f 2/3/1 3/2/1 4/1/1
f 5/3/2 3/2/2 1/1/2
f 3/3/2 5/2/2 6/1/2
f 7/5/3 2/5/3 4/4/3
f 2/5/3 7/5/3 8/6/3
f 7/5/4 5/5/4 8/7/4
f 5/5/4 7/5/4 6/8/4
f 5/5/5 2/5/5 8/9/5
f 2/5/5 5/5/5 1/10/5
f 3/2/6 7/3/6 4/11/6
f 7/3/6 3/2/6 6/1/6
f 35/3/1 34/2/1 33/1/1
f 34/3/1 35/2/1 36/1/1
f 37/3/2 35/2/2 33/1/2
f 35/3/2 37/2/2 38/1/2
f 39/5/3 34/5/3 36/30/3
f 34/5/3 39/5/3 40/31/3
f 39/5/4 37/5/4 40/32/4
f 37/5/4 39/5/4 38/33/4
f 37/5/5 34/5/5 40/34/5
f 34/5/5 37/5/5 33/35/5
f 35/2/6 39/3/6 36/11/6
f 39/3/6 35/2/6 38/1/6
f 43/3/1 42/2/1 41/1/1
f 42/3/1 43/2/1 44/1/1
f 45/3/2 43/2/2 41/1/2
f 43/3/2 45/2/2 46/1/2
f 47/5/3 42/5/3 44/36/3
f 42/5/3 47/5/3 48/37/3
f 47/5/4 45/5/4 48/38/4
f 45/5/4 47/5/4 46/39/4
f 45/5/5 42/5/5 48/40/5
f 42/5/5 45/5/5 41/41/5
f 43/2/6 47/3/6 44/11/6
f 47/3/6 43/2/6 46/1/6
f 51/3/1 50/2/1 49/1/1
f 50/3/1 51/2/1 52/1/1
f 53/3/2 51/2/2 49/1/2
f 51/3/2 53/2/2 54/1/2
f 55/5/3 50/5/3 52/42/3
f 50/5/3 55/5/3 56/43/3
f 55/5/4 53/5/4 56/44/4
f 53/5/4 55/5/4 54/45/4
f 53/5/5 50/5/5 56/46/5
f 50/5/5 53/5/5 49/47/5
f 51/2/6 55/3/6 52/11/6
f 55/3/6 51/2/6 54/1/6
f 59/3/1 58/2/1 57/1/1
f 58/3/1 59/2/1 60/1/1
f 61/3/2 59/2/2 57/1/2
f 59/3/2 61/2/2 62/1/2
f 63/5/3 58/5/3 60/48/3
f 58/5/3 63/5/3 64/49/3
f 63/5/4 61/5/4 64/50/4
f 61/5/4 63/5/4 62/51/4
f 61/5/5 58/5/5 64/52/5
f 58/5/5 61/5/5 57/53/5
f 59/2/6 63/3/6 60/11/6
f 63/3/6 59/2/6 62/1/6

usemtl color2

f 6/3/1 8/2/1 5/1/1
f 8/3/1 6/2/1 7/1/1
f 9/3/2 6/2/2 5/1/2
f 6/3/2 9/2/2 11/1/2
f 12/12/3 8/6/3 7/5/3
f 8/6/3 12/12/3 10/5/3
f 12/5/4 9/5/4 10/54/4
f 9/5/4 12/5/4 11/55/4
f 9/17/5 8/9/5 10/5/5
f 8/9/5 9/17/5 5/5/5
f 6/2/6 12/3/6 7/11/6
f 12/3/6 6/2/6 11/1/6
f 14/3/1 16/2/1 13/1/1
f 16/3/1 14/2/1 15/1/1
f 17/3/2 14/2/2 13/1/2
f 14/3/2 17/2/2 19/1/2
f 20/18/3 16/13/3 15/5/3
f 16/13/3 20/18/3 18/5/3
f 20/5/4 17/5/4 18/56/4
f 17/5/4 20/5/4 19/57/4
f 17/23/5 16/16/5 18/5/5
f 16/16/5 17/23/5 13/5/5
f 14/2/6 20/3/6 15/11/6
f 20/3/6 14/2/6 19/1/6
f 38/3/1 40/2/1 37/1/1
f 40/3/1 38/2/1 39/1/1
f 41/3/2 38/2/2 37/1/2
f 38/3/2 41/2/2 43/1/2
f 44/36/3 40/31/3 39/5/3
f 40/31/3 44/36/3 42/5/3
f 44/5/4 41/5/4 42/58/4
f 41/5/4 44/5/4 43/59/4
f 41/41/5 40/34/5 42/5/5
f 40/34/5 41/41/5 37/5/5
f 38/2/6 44/3/6 39/11/6
f 44/3/6 38/2/6 43/1/6
f 46/3/1 48/2/1 45/1/1
f 48/3/1 46/2/1 47/1/1
f 49/3/2 46/2/2 45/1/2
f 46/3/2 49/2/2 51/1/2
f 52/42/3 48/37/3 47/5/3
f 48/37/3 52/42/3 50/5/3
f 52/5/4 49/5/4 50/60/4
f 49/5/4 52/5/4 51/61/4
f 49/47/5 48/40/5 50/5/5
f 48/40/5 49/47/5 45/5/5
f 46/2/6 52/3/6 47/11/6
f 52/3/6 46/2/6 51/1/6

usemtl color3

f 67/3/1 66/2/1 65/1/1
f 66/3/1 67/2/1 68/1/1
f 69/3/2 67/2/2 65/1/2
f 67/3/2 69/2/2 70/1/2
f 71/5/3 66/5/3 68/62/3
f 66/5/3 71/5/3 72/63/3
f 71/5/4 69/5/4 72/64/4
f 69/5/4 71/5/4 70/65/4
f 69/5/5 66/5/5 72/66/5
f 66/5/5 69/5/5 65/67/5
f 67/2/6 71/3/6 68/11/6
f 71/3/6 67/2/6 70/1/6
f 75/3/1 74/2/1 73/1/1
f 74/3/1 75/2/1 76/1/1
f 77/3/2 75/2/2 73/1/2
f 75/3/2 77/2/2 78/1/2
f 79/5/3 74/5/3 76/68/3
f 74/5/3 79/5/3 80/69/3
f 79/5/4 77/5/4 80/70/4
f 77/5/4 79/5/4 78/71/4
f 77/5/5 74/5/5 80/72/5
f 74/5/5 77/5/5 73/73/5
f 75/2/6 79/3/6 76/11/6
f 79/3/6 75/2/6 78/1/6
f 83/3/1 82/2/1 81/1/1
f 82/3/1 83/2/1 84/1/1
f 85/3/2 83/2/2 81/1/2
f 83/3/2 85/2/2 86/1/2
f 87/5/3 82/5/3 84/74/3
f 82/5/3 87/5/3 88/75/3
f 87/5/4 85/5/4 88/76/4
f 85/5/4 87/5/4 86/77/4
f 85/5/5 82/5/5 88/78/5
f 82/5/5 85/5/5 81/79/5
f 83/2/6 87/3/6 84/11/6
f 87/3/6 83/2/6 86/1/6
f 91/3/1 90/2/1 89/1/1
f 90/3/1 91/2/1 92/1/1
f 93/3/2 91/2/2 89/1/2
f 91/3/2 93/2/2 94/1/2
f 95/5/3 90/5/3 92/80/3
f 90/5/3 95/5/3 96/81/3
f 95/5/4 93/5/4 96/82/4
f 93/5/4 95/5/4 94/83/4
f 93/5/5 90/5/5 96/84/5
f 90/5/5 93/5/5 89/85/5
f 91/2/6 95/3/6 92/11/6
f 95/3/6 91/2/6 94/1/6

usemtl color4

f 7/3/1 37/2/1 8/1/1
f 37/3/1 7/2/1 38/1/1
f 10/3/2 7/2/2 8/1/2
f 7/3/2 10/2/2 12/1/2
f 43/5/3 37/5/3 38/86/3
f 37/5/3 43/5/3 41/87/3
f 43/59/4 10/54/4 41/5/4
f 10/54/4 43/59/4 12/5/4
f 10/5/5 37/5/5 41/41/5
f 37/5/5 10/5/5 8/9/5
f 7/2/6 43/3/6 38/11/6
f 43/3/6 7/2/6 12/1/6
f 15/3/1 45/2/1 16/1/1
f 45/3/1 15/2/1 46/1/1
f 18/3/2 15/2/2 16/1/2
f 15/3/2 18/2/2 20/1/2
f 51/5/3 45/5/3 46/88/3
f 45/5/3 51/5/3 49/89/3
f 51/61/4 18/56/4 49/5/4
f 18/56/4 51/61/4 20/5/4
f 18/5/5 45/5/5 49/47/5
f 45/5/5 18/5/5 16/16/5
f 15/2/6 51/3/6 46/11/6
f 51/3/6 15/2/6 20/1/6

usemtl color5

f 23/3/1 53/2/1 24/1/1
f 53/3/1 23/2/1 54/1/1
f 97/3/2 23/2/2 24/1/2
f 23/3/2 97/2/2 98/1/2
f 99/5/3 53/5/3 54/90/3
f 53/5/3 99/5/3 100/91/3
f 99/5/4 97/5/4 100/92/4
f 97/5/4 99/5/4 98/93/4
f 97/5/5 53/5/5 100/94/5
f 53/5/5 97/5/5 24/22/5
f 23/2/6 99/3/6 54/11/6
f 99/3/6 23/2/6 98/1/6
f 31/3/1 61/2/1 32/1/1
f 61/3/1 31/2/1 62/1/1
f 89/3/2 31/2/2 32/1/2
f 31/3/2 89/2/2 91/1/2
f 92/80/3 61/5/3 62/95/3
f 61/5/3 92/80/3 90/5/3
f 92/5/4 89/5/4 90/96/4
f 89/5/4 92/5/4 91/97/4
f 89/85/5 61/5/5 90/5/5
f 61/5/5 89/85/5 32/28/5
f 31/2/6 92/3/6 62/11/6
f 92/3/6 31/2/6 91/1/6

