# Created by Kenney (www.kenney.nl)

mtllib Cannon Q6O Sassee shot 2.mtl

v 3 2 -1.1
v 3 1 -1.1
v 3 2 1.1
v 3 1 1.1
v 2 2 -1.1
v 2 2 1.1
v 2 1 1.1
v 2 1 -1.1
v 1 2 -1.1
v 1 1 -1.1
v 1 2 1.1
v 1 1 1.1
v 0 2 -1.1
v 0 2 1.1
v 0 1 1.1
v 0 1 -1.1
v 3 0 -1.1
v 3 -1 -1.1
v 3 0 1.1
v 3 -1 1.1
v 2 0 -1.1
v 2 0 1.1
v 2 -1 1.1
v 2 -1 -1.1
v 1 0 -1.1
v 1 -1 -1.1
v 1 0 1.1
v 1 -1 1.1
v 0 0 -1.1
v 0 0 1.1
v 0 -1 1.1
v 0 -1 -1.1
v -1 2 -1.1
v -1 2 1.1
v -1 1 1.1
v -1 1 -1.1
v -1 2 -0.55
v -1 1 -0.55
v -1 2 0.55
v -1 1 0.55
v -2 2 -0.55
v -2 2 0.55
v -2 1 0.55
v -2 1 -0.55
v -2 0 -0.55
v -2 0 0.55
v -3 1 -0.55
v -3 1 0.55
v -3 0 0.55
v -3 0 -0.55
v -1 0 -1.1
v -1 0 1.1
v -1 -1 1.1
v -1 -1 -1.1
v -1 0 -0.55
v -1 -1 -0.55
v -1 0 0.55
v -1 -1 0.55
v -2 -1 0.55
v -2 -1 -0.55
v 3 1 -1.65
v 3 0 -1.65
v 3 1 1.65
v 3 0 1.65
v 2 1 -1.65
v 2 1 1.65
v 2 0 1.65
v 2 0 -1.65
v 1 1 -1.65
v 1 0 -1.65
v 1 1 1.65
v 1 0 1.65
v 0 1 -1.65
v 0 1 1.65
v 0 0 1.65
v 0 0 -1.65
v -1 1 -1.65
v -1 1 1.65
v -1 0 1.65
v -1 0 -1.65
v -2 1 -1.1
v -2 1 1.1
v -2 0 1.1
v -2 0 -1.1

vn 1 0 0
vn 0 1 0
vn 0 -1 0
vn -1 0 0
vn 0 0 -1
vn 0 0 1

vt -19.68504 19.68504
vt 19.68504 19.68504
vt -19.68504 -19.68504
vt 0 NaN
vt 0 0
vt 0 NaN
vt 0 NaN
vt 0 NaN
vt 0 NaN
vt 0 NaN
vt 19.68504 -19.68504
vt 0 NaN
vt 0 NaN
vt 0 NaN
vt 0 NaN
vt 0 NaN
vt 0 NaN
vt 0 NaN
vt 0 NaN
vt 0 NaN
vt 0 NaN
vt 0 NaN
vt 0 NaN
vt 0 NaN
vt 0 NaN
vt 0 NaN
vt 0 NaN
vt 0 NaN
vt 0 NaN
vt 0 NaN
vt 0 NaN
vt 0 NaN
vt 0 NaN
vt 0 NaN
vt 0 NaN
vt 0 NaN
vt 0 NaN
vt 0 NaN
vt 0 NaN
vt 0 NaN
vt 0 NaN
vt 0 NaN
vt 0 NaN
vt 0 NaN
vt 0 NaN
vt 0 NaN
vt 0 NaN
vt 0 NaN
vt 0 NaN
vt 0 NaN
vt 0 NaN
vt 0 NaN
vt 0 NaN
vt 0 NaN
vt 0 NaN
vt 0 NaN
vt 0 NaN
vt 0 NaN
vt 0 NaN
vt 0 NaN
vt 0 NaN
vt 0 NaN
vt 0 NaN
vt 0 NaN
vt 0 NaN
vt 0 NaN
vt 0 NaN
vt 0 NaN
vt 0 NaN
vt 0 NaN
vt 0 NaN
vt 0 NaN
vt 0 NaN
vt 0 NaN
vt 0 NaN
vt 0 NaN
vt 0 NaN
vt 0 NaN
vt 0 NaN
vt 0 NaN
vt 0 NaN

usemtl color2

f 3/3/1 2/2/1 1/1/1
f 2/3/1 3/2/1 4/1/1
f 5/3/2 3/2/2 1/1/2
f 3/3/2 5/2/2 6/1/2
f 7/5/3 2/5/3 4/4/3
f 2/5/3 7/5/3 8/6/3
f 7/5/4 5/5/4 8/7/4
f 5/5/4 7/5/4 6/8/4
f 5/5/5 2/5/5 8/9/5
f 2/5/5 5/5/5 1/10/5
f 3/2/6 7/3/6 4/11/6
f 7/3/6 3/2/6 6/1/6
f 11/3/1 10/2/1 9/1/1
f 10/3/1 11/2/1 12/1/1
f 13/3/2 11/2/2 9/1/2
f 11/3/2 13/2/2 14/1/2
f 15/5/3 10/5/3 12/12/3
f 10/5/3 15/5/3 16/13/3
f 15/5/4 13/5/4 16/14/4
f 13/5/4 15/5/4 14/15/4
f 13/5/5 10/5/5 16/16/5
f 10/5/5 13/5/5 9/17/5
f 11/2/6 15/3/6 12/11/6
f 15/3/6 11/2/6 14/1/6
f 3/3/1 2/2/1 1/1/1
f 2/3/1 3/2/1 4/1/1
f 5/3/2 3/2/2 1/1/2
f 3/3/2 5/2/2 6/1/2
f 7/5/3 2/5/3 4/4/3
f 2/5/3 7/5/3 8/6/3
f 7/5/4 5/5/4 8/7/4
f 5/5/4 7/5/4 6/8/4
f 5/5/5 2/5/5 8/9/5
f 2/5/5 5/5/5 1/10/5
f 3/2/6 7/3/6 4/11/6
f 7/3/6 3/2/6 6/1/6
f 19/3/1 18/2/1 17/1/1
f 18/3/1 19/2/1 20/1/1
f 21/3/2 19/2/2 17/1/2
f 19/3/2 21/2/2 22/1/2
f 23/5/3 18/5/3 20/18/3
f 18/5/3 23/5/3 24/19/3
f 23/5/4 21/5/4 24/20/4
f 21/5/4 23/5/4 22/21/4
f 21/5/5 18/5/5 24/22/5
f 18/5/5 21/5/5 17/23/5
f 19/2/6 23/3/6 20/11/6
f 23/3/6 19/2/6 22/1/6
f 27/3/1 26/2/1 25/1/1
f 26/3/1 27/2/1 28/1/1
f 29/3/2 27/2/2 25/1/2
f 27/3/2 29/2/2 30/1/2
f 31/5/3 26/5/3 28/24/3
f 26/5/3 31/5/3 32/25/3
f 31/5/4 29/5/4 32/26/4
f 29/5/4 31/5/4 30/27/4
f 29/5/5 26/5/5 32/28/5
f 26/5/5 29/5/5 25/29/5
f 27/2/6 31/3/6 28/11/6
f 31/3/6 27/2/6 30/1/6

usemtl color3

f 6/3/1 8/2/1 5/1/1
f 8/3/1 6/2/1 7/1/1
f 9/3/2 6/2/2 5/1/2
f 6/3/2 9/2/2 11/1/2
f 12/12/3 8/6/3 7/5/3
f 8/6/3 12/12/3 10/5/3
f 12/5/4 9/5/4 10/30/4
f 9/5/4 12/5/4 11/31/4
f 9/17/5 8/9/5 10/5/5
f 8/9/5 9/17/5 5/5/5
f 6/2/6 12/3/6 7/11/6
f 12/3/6 6/2/6 11/1/6
f 22/3/1 24/2/1 21/1/1
f 24/3/1 22/2/1 23/1/1
f 25/3/2 22/2/2 21/1/2
f 22/3/2 25/2/2 27/1/2
f 28/24/3 24/19/3 23/5/3
f 24/19/3 28/24/3 26/5/3
f 28/5/4 25/5/4 26/32/4
f 25/5/4 28/5/4 27/33/4
f 25/29/5 24/22/5 26/5/5
f 24/22/5 25/29/5 21/5/5
f 22/2/6 28/3/6 23/11/6
f 28/3/6 22/2/6 27/1/6

usemtl color4

f 14/3/1 16/2/1 13/1/1
f 16/3/1 14/2/1 15/1/1
f 33/3/2 14/2/2 13/1/2
f 14/3/2 33/2/2 34/1/2
f 35/5/3 16/13/3 15/5/3
f 16/13/3 35/5/3 36/34/3
f 35/5/4 33/5/4 36/35/4
f 33/5/4 35/5/4 34/36/4
f 33/5/5 16/16/5 36/37/5
f 16/16/5 33/5/5 13/5/5
f 14/2/6 35/3/6 15/11/6
f 35/3/6 14/2/6 34/1/6
f 39/3/1 38/2/1 37/1/1
f 38/3/1 39/2/1 40/1/1
f 41/3/2 39/2/2 37/1/2
f 39/3/2 41/2/2 42/1/2
f 43/5/3 38/5/3 40/38/3
f 38/5/3 43/5/3 44/39/3
f 43/5/4 41/5/4 44/40/4
f 41/5/4 43/5/4 42/41/4
f 41/5/5 38/5/5 44/42/5
f 38/5/5 41/5/5 37/43/5
f 39/2/6 43/3/6 40/11/6
f 43/3/6 39/2/6 42/1/6
f 43/3/1 45/2/1 44/1/1
f 45/3/1 43/2/1 46/1/1
f 47/3/2 43/2/2 44/1/2
f 43/3/2 47/2/2 48/1/2
f 49/5/3 45/5/3 46/44/3
f 45/5/3 49/5/3 50/45/3
f 49/5/4 47/5/4 50/46/4
f 47/5/4 49/5/4 48/47/4
f 47/5/5 45/5/5 50/48/5
f 45/5/5 47/5/5 44/42/5
f 43/2/6 49/3/6 46/11/6
f 49/3/6 43/2/6 48/1/6
f 30/3/1 32/2/1 29/1/1
f 32/3/1 30/2/1 31/1/1
f 51/3/2 30/2/2 29/1/2
f 30/3/2 51/2/2 52/1/2
f 53/5/3 32/25/3 31/5/3
f 32/25/3 53/5/3 54/49/3
f 53/5/4 51/5/4 54/50/4
f 51/5/4 53/5/4 52/51/4
f 51/5/5 32/28/5 54/52/5
f 32/28/5 51/5/5 29/5/5
f 30/2/6 53/3/6 31/11/6
f 53/3/6 30/2/6 52/1/6
f 57/3/1 56/2/1 55/1/1
f 56/3/1 57/2/1 58/1/1
f 45/3/2 57/2/2 55/1/2
f 57/3/2 45/2/2 46/1/2
f 59/5/3 56/5/3 58/53/3
f 56/5/3 59/5/3 60/54/3
f 59/5/4 45/5/4 60/55/4
f 45/5/4 59/5/4 46/56/4
f 45/5/5 56/5/5 60/57/5
f 56/5/5 45/5/5 55/58/5
f 57/2/6 59/3/6 58/11/6
f 59/3/6 57/2/6 46/1/6

usemtl color7

f 63/3/1 62/2/1 61/1/1
f 62/3/1 63/2/1 64/1/1
f 65/3/2 63/2/2 61/1/2
f 63/3/2 65/2/2 66/1/2
f 67/5/3 62/5/3 64/59/3
f 62/5/3 67/5/3 68/60/3
f 67/5/4 65/5/4 68/61/4
f 65/5/4 67/5/4 66/62/4
f 65/5/5 62/5/5 68/63/5
f 62/5/5 65/5/5 61/64/5
f 63/2/6 67/3/6 64/11/6
f 67/3/6 63/2/6 66/1/6
f 71/3/1 70/2/1 69/1/1
f 70/3/1 71/2/1 72/1/1
f 73/3/2 71/2/2 69/1/2
f 71/3/2 73/2/2 74/1/2
f 75/5/3 70/5/3 72/65/3
f 70/5/3 75/5/3 76/66/3
f 75/5/4 73/5/4 76/67/4
f 73/5/4 75/5/4 74/68/4
f 73/5/5 70/5/5 76/69/5
f 70/5/5 73/5/5 69/70/5
f 71/2/6 75/3/6 72/11/6
f 75/3/6 71/2/6 74/1/6

usemtl color6

f 66/3/1 68/2/1 65/1/1
f 68/3/1 66/2/1 67/1/1
f 69/3/2 66/2/2 65/1/2
f 66/3/2 69/2/2 71/1/2
f 72/65/3 68/60/3 67/5/3
f 68/60/3 72/65/3 70/5/3
f 72/5/4 69/5/4 70/71/4
f 69/5/4 72/5/4 71/72/4
f 69/70/5 68/63/5 70/5/5
f 68/63/5 69/70/5 65/5/5
f 66/2/6 72/3/6 67/11/6
f 72/3/6 66/2/6 71/1/6

usemtl color8

f 74/3/1 76/2/1 73/1/1
f 76/3/1 74/2/1 75/1/1
f 77/3/2 74/2/2 73/1/2
f 74/3/2 77/2/2 78/1/2
f 79/5/3 76/66/3 75/5/3
f 76/66/3 79/5/3 80/73/3
f 79/5/4 77/5/4 80/74/4
f 77/5/4 79/5/4 78/75/4
f 77/5/5 76/69/5 80/76/5
f 76/69/5 77/5/5 73/5/5
f 74/2/6 79/3/6 75/11/6
f 79/3/6 74/2/6 78/1/6
f 35/3/1 51/2/1 36/1/1
f 51/3/1 35/2/1 52/1/1
f 81/3/2 35/2/2 36/1/2
f 35/3/2 81/2/2 82/1/2
f 83/5/3 51/5/3 52/77/3
f 51/5/3 83/5/3 84/78/3
f 83/5/4 81/5/4 84/79/4
f 81/5/4 83/5/4 82/80/4
f 81/5/5 51/5/5 84/81/5
f 51/5/5 81/5/5 36/37/5
f 35/2/6 83/3/6 52/11/6
f 83/3/6 35/2/6 82/1/6

