# Created by Kenney (www.kenney.nl)

mtllib Device 85P Sepezz.mtl

v 5 4 -1
v 5 2 -1
v 5 4 1
v 5 2 1
v 4 4 -1
v 4 4 1
v 4 2 1
v 4 2 -1
v 1 4 -1
v 1 3 -1
v 1 4 1
v 1 3 1
v 0 4 -1
v 0 4 1
v 0 3 1
v 0 3 -1
v -2 4 -1
v -2 3 -1
v -2 4 1
v -2 3 1
v -3 4 -1
v -3 4 1
v -3 3 1
v -3 3 -1
v 5 3 -1
v 5 3 1
v 4 3 1
v 4 3 -1
v 4 3 -1.5
v 4 2 -1.5
v 4 3 1.5
v 4 2 1.5
v 3 3 -1.5
v 3 3 1.5
v 3 2 1.5
v 3 2 -1.5
v -3 3 -1.5
v -3 2 -1.5
v -3 3 1.5
v -3 2 1.5
v -4 3 -1.5
v -4 3 1.5
v -4 2 1.5
v -4 2 -1.5
v -4 3 -1
v -4 2 -1
v -4 3 1
v -4 2 1
v -5 3 -1
v -5 3 1
v -5 2 1
v -5 2 -1
v 4 1 -1.5
v 4 -1 -1.5
v 4 1 1.5
v 4 -1 1.5
v 3 1 -1.5
v 3 1 1.5
v 3 -1 1.5
v 3 -1 -1.5
v -3 1 -1.5
v -3 -1 -1.5
v -3 1 1.5
v -3 -1 1.5
v -4 1 -1.5
v -4 1 1.5
v -4 -1 1.5
v -4 -1 -1.5
v 4 -2 -1.5
v 4 -3 -1.5
v 4 -2 1.5
v 4 -3 1.5
v 3 -2 -1.5
v 3 -2 1.5
v 3 -3 1.5
v 3 -3 -1.5
v -3 -2 -1.5
v -3 -3 -1.5
v -3 -2 1.5
v -3 -3 1.5
v -4 -2 -1.5
v -4 -2 1.5
v -4 -3 1.5
v -4 -3 -1.5
v -4 -2 -1
v -4 -3 -1
v -4 -2 1
v -4 -3 1
v -5 -2 -1
v -5 -2 1
v -5 -3 1
v -5 -3 -1
v 4 4 -1.5
v 4 4 1.5
v 3 4 -1.5
v 3 4 1.5
v -4 1 -1
v -4 -1 -1
v -4 1 1
v -4 -1 1
v -5 1 -1
v -5 1 1
v -5 -1 1
v -5 -1 -1
v 3 4 -1
v 3 3 -1
v 3 4 1
v 3 3 1
v 2 4 -1
v 2 4 1
v 2 3 1
v 2 3 -1
v -1 4 -1
v -1 4 1
v -1 3 1
v -1 3 -1
v -3 4 -1.5
v -3 4 1.5
v -4 4 -1.5
v -4 4 1.5
v -4 4 -1
v -4 4 1
v -5 4 -1
v -5 4 1
v 3 2 -1
v 3 2 1
v 2 2 1
v 2 2 -1
v -2 2 -1
v -2 2 1
v -3 2 1
v -3 2 -1
v 5 2 -0.5
v 5 1 -0.5
v 5 2 0.5
v 5 1 0.5
v 4 2 -0.5
v 4 2 0.5
v 4 1 0.5
v 4 1 -0.5
v -4 2 -0.5
v -4 1 -0.5
v -4 2 0.5
v -4 1 0.5
v -5 2 -0.5
v -5 2 0.5
v -5 1 0.5
v -5 1 -0.5
v 3 1 -1
v 3 0 -1
v 3 1 1
v 3 0 1
v 2 1 -1
v 2 1 1
v 2 0 1
v 2 0 -1
v -2 1 -1
v -2 0 -1
v -2 1 1
v -2 0 1
v -3 1 -1
v -3 1 1
v -3 0 1
v -3 0 -1
v 5 -1 -0.5
v 5 -2 -0.5
v 5 -1 0.5
v 5 -2 0.5
v 4 -1 -0.5
v 4 -1 0.5
v 4 -2 0.5
v 4 -2 -0.5
v -4 -1 -0.5
v -4 -2 -0.5
v -4 -1 0.5
v -4 -2 0.5
v -5 -1 -0.5
v -5 -1 0.5
v -5 -2 0.5
v -5 -2 -0.5
v 2 3 -1.5
v 2 2 -1.5
v 2 3 1.5
v 2 2 1.5
v 1 3 -1.5
v 1 3 1.5
v 1 2 1.5
v 1 2 -1.5
v 2 1 1.5
v 2 1 -1.5
v 1 1 -1.5
v 1 0 -1.5
v 1 1 1.5
v 1 0 1.5
v -1 1 -1.5
v -1 1 1.5
v -1 0 1.5
v -1 0 -1.5
v 2 -1 -1.5
v 2 -1 1.5
v 2 -2 1.5
v 2 -2 -1.5
v -2 -1 -1.5
v -2 -2 -1.5
v -2 -1 1.5
v -2 -2 1.5
v 1 -2 -1.5
v 1 -3 -1.5
v 1 -2 1.5
v 1 -3 1.5
v -1 -2 -1.5
v -1 -2 1.5
v -1 -3 1.5
v -1 -3 -1.5
v -2 3 -1.5
v -2 3 1.5
v -2 2 1.5
v -2 2 -1.5
v -1 2 -1.5
v -1 2 1.5
v -2 -3 1.5
v -2 -3 -1.5
v 4 1 -1
v 4 1 1
v 2 -3 -1.5
v 2 -3 1.5
v 4 -1 -1
v 4 -2 -1
v 4 -1 1
v 4 -2 1
v 3 -1 -1
v 3 -1 1
v 3 -2 1
v 3 -2 -1
v -3 -1 -1
v -3 -2 -1
v -3 -1 1
v -3 -2 1
v 1 2 -2
v 1 1 -2
v 1 2 2
v 1 1 2
v -1 2 -2
v -1 2 2
v -1 1 2
v -1 1 -2
v -2 1 -1.5
v -2 1 1.5
v 5 1 -1
v 5 -1 -1
v 5 1 1
v 5 -1 1
v 5 -2 -1
v 5 -3 -1
v 5 -2 1
v 5 -3 1
v 4 -3 1
v 4 -3 -1
v 4 -4 -1.5
v 4 -4 1.5
v 3 -4 1.5
v 3 -4 -1.5
v 3 -3 -1
v 3 -4 -1
v 3 -3 1
v 3 -4 1
v 2 -3 -1
v 2 -3 1
v 2 -4 1
v 2 -4 -1
v -3 -4 -1.5
v -3 -4 1.5
v -4 -4 1.5
v -4 -4 -1.5
v -4 -4 -1
v -4 -4 1
v -5 -4 1
v -5 -4 -1
v 2 -1 1
v 2 -1 -1
v -2 -1 -1
v -2 -1 1
v 2 -2 -1
v 2 -2 1
v -2 -2 -1
v -2 -3 -1
v -2 -2 1
v -2 -3 1
v -3 -3 1
v -3 -3 -1
v 1 0 -2
v 1 -1 -2
v 1 0 2
v 1 -1 2
v 0 0 -2
v 0 0 2
v 0 -1 2
v 0 -1 -2
v 0 -2 -2
v 0 -2 2
v -1 -1 -2
v -1 -1 2
v -1 -2 2
v -1 -2 -2
v -1 0 -2
v -1 0 2
v 1 -2 -2
v 1 -2 2
v 5 -4 -1
v 5 -4 1
v 4 -4 1
v 4 -4 -1
v 1 -3 -1
v 1 -4 -1
v 1 -3 1
v 1 -4 1
v -1 -3 -1
v -1 -3 1
v -1 -4 1
v -1 -4 -1
v -2 -4 -1
v -2 -4 1
v -3 -4 1
v -3 -4 -1

vn 1 0 0
vn 0 1 0
vn 0 -1 0
vn -1 0 0
vn 0 0 -1
vn 0 0 1

vt -19.68504 19.68504
vt 19.68504 19.68504
vt -19.68504 -19.68504
vt 0 NaN
vt 0 0
vt 0 NaN
vt 0 NaN
vt 0 NaN
vt 0 NaN
vt 0 NaN
vt 19.68504 -19.68504
vt 0 NaN
vt 0 NaN
vt 0 NaN
vt 0 NaN
vt 0 NaN
vt 0 NaN
vt 0 NaN
vt 0 NaN
vt 0 NaN
vt 0 NaN
vt 0 NaN
vt 0 NaN
vt 0 NaN
vt 0 NaN
vt 0 NaN
vt 0 NaN
vt 0 NaN
vt 0 NaN
vt 0 NaN
vt 0 NaN
vt 0 NaN
vt 0 NaN
vt 0 NaN
vt 0 NaN
vt 0 NaN
vt 0 NaN
vt 0 NaN
vt 0 NaN
vt 0 NaN
vt 0 NaN
vt 0 NaN
vt 0 NaN
vt 0 NaN
vt 0 NaN
vt 0 NaN
vt 0 NaN
vt 0 NaN
vt 0 NaN
vt 0 NaN
vt 0 NaN
vt 0 NaN
vt 0 NaN
vt 0 NaN
vt 0 NaN
vt 0 NaN
vt 0 NaN
vt 0 NaN
vt 0 NaN
vt 0 NaN
vt 0 NaN
vt 0 NaN
vt 0 NaN
vt 0 NaN
vt 0 NaN
vt 0 NaN
vt 0 NaN
vt 0 NaN
vt 0 NaN
vt 0 NaN
vt 0 NaN
vt 0 NaN
vt 0 NaN
vt 0 NaN
vt 0 NaN
vt 0 NaN
vt 0 NaN
vt 0 NaN
vt 0 NaN
vt 0 NaN
vt 0 NaN
vt 0 NaN
vt 0 NaN
vt 0 NaN
vt 0 NaN
vt 0 NaN
vt 0 NaN
vt 0 NaN
vt 0 NaN
vt 0 NaN
vt 0 NaN
vt 0 NaN
vt 0 NaN
vt 0 NaN
vt 0 NaN
vt 0 NaN
vt 0 NaN
vt 0 NaN
vt 0 NaN
vt 0 NaN
vt 0 NaN
vt 0 NaN
vt 0 NaN
vt 0 NaN
vt 0 NaN
vt 0 NaN
vt 0 NaN
vt 0 NaN
vt 0 NaN
vt 0 NaN
vt 0 NaN
vt 0 NaN
vt 0 NaN
vt 0 NaN
vt 0 NaN
vt 0 NaN
vt 0 NaN
vt 0 NaN
vt 0 NaN
vt 0 NaN
vt 0 NaN
vt 0 NaN
vt 0 NaN
vt 0 NaN
vt 0 NaN
vt 0 NaN
vt 0 NaN
vt 0 NaN
vt 0 NaN
vt 0 NaN
vt 0 NaN
vt 0 NaN
vt 0 NaN
vt 0 NaN
vt 0 NaN
vt 0 NaN
vt 0 NaN
vt 0 NaN
vt 0 NaN
vt 0 NaN
vt 0 NaN
vt 0 NaN
vt 0 NaN
vt 0 NaN
vt 0 NaN
vt 0 NaN
vt 0 NaN
vt 0 NaN
vt 0 NaN
vt 0 NaN
vt 0 NaN
vt 0 NaN
vt 0 NaN
vt 0 NaN
vt 0 NaN
vt 0 NaN
vt 0 NaN
vt 0 NaN
vt 0 NaN
vt 0 NaN
vt 0 NaN
vt 0 NaN
vt 0 NaN
vt 0 NaN
vt 0 NaN
vt 0 NaN
vt 0 NaN
vt 0 NaN
vt 0 NaN
vt 0 NaN
vt 0 NaN
vt 0 NaN
vt 0 NaN
vt 0 NaN
vt 0 NaN
vt 0 NaN
vt 0 NaN
vt 0 NaN
vt 0 NaN
vt 0 NaN
vt 0 NaN
vt 0 NaN
vt 0 NaN
vt 0 NaN
vt 0 NaN
vt 0 NaN
vt 0 NaN
vt 0 NaN
vt 0 NaN
vt 0 NaN
vt 0 NaN
vt 0 NaN
vt 0 NaN
vt 0 NaN
vt 0 NaN
vt 0 NaN
vt 0 NaN
vt 0 NaN
vt 0 NaN
vt 0 NaN
vt 0 NaN
vt 0 NaN
vt 0 NaN
vt 0 NaN
vt 0 NaN
vt 0 NaN
vt 0 NaN
vt 0 NaN
vt 0 NaN
vt 0 NaN
vt 0 NaN
vt 0 NaN
vt 0 NaN
vt 0 NaN
vt 0 NaN
vt 0 NaN
vt 0 NaN
vt 0 NaN
vt 0 NaN
vt 0 NaN
vt 0 NaN
vt 0 NaN
vt 0 NaN
vt 0 NaN
vt 0 NaN
vt 0 NaN
vt 0 NaN
vt 0 NaN
vt 0 NaN
vt 0 NaN
vt 0 NaN
vt 0 NaN
vt 0 NaN
vt 0 NaN
vt 0 NaN
vt 0 NaN
vt 0 NaN
vt 0 NaN
vt 0 NaN
vt 0 NaN
vt 0 NaN
vt 0 NaN
vt 0 NaN
vt 0 NaN
vt 0 NaN
vt 0 NaN
vt 0 NaN
vt 0 NaN
vt 0 NaN
vt 0 NaN
vt 0 NaN
vt 0 NaN
vt 0 NaN
vt 0 NaN
vt 0 NaN
vt 0 NaN
vt 0 NaN
vt 0 NaN
vt 0 NaN
vt 0 NaN
vt 0 NaN
vt 0 NaN
vt 0 NaN
vt 0 NaN
vt 0 NaN
vt 0 NaN
vt 0 NaN
vt 0 NaN
vt 0 NaN
vt 0 NaN
vt 0 NaN
vt 0 NaN
vt 0 NaN
vt 0 NaN
vt 0 NaN
vt 0 NaN
vt 0 NaN
vt 0 NaN
vt 0 NaN
vt 0 NaN
vt 0 NaN
vt 0 NaN
vt 0 NaN
vt 0 NaN
vt 0 NaN
vt 0 NaN
vt 0 NaN
vt 0 NaN
vt 0 NaN
vt 0 NaN
vt 0 NaN
vt 0 NaN
vt 0 NaN

usemtl color4

f 3/3/1 2/2/1 1/1/1
f 2/3/1 3/2/1 4/1/1
f 5/3/2 3/2/2 1/1/2
f 3/3/2 5/2/2 6/1/2
f 7/5/3 2/5/3 4/4/3
f 2/5/3 7/5/3 8/6/3
f 7/5/4 5/5/4 8/7/4
f 5/5/4 7/5/4 6/8/4
f 5/5/5 2/5/5 8/9/5
f 2/5/5 5/5/5 1/10/5
f 3/2/6 7/3/6 4/11/6
f 7/3/6 3/2/6 6/1/6
f 11/3/1 10/2/1 9/1/1
f 10/3/1 11/2/1 12/1/1
f 13/3/2 11/2/2 9/1/2
f 11/3/2 13/2/2 14/1/2
f 15/5/3 10/5/3 12/12/3
f 10/5/3 15/5/3 16/13/3
f 15/5/4 13/5/4 16/14/4
f 13/5/4 15/5/4 14/15/4
f 13/5/5 10/5/5 16/16/5
f 10/5/5 13/5/5 9/17/5
f 11/2/6 15/3/6 12/11/6
f 15/3/6 11/2/6 14/1/6
f 19/3/1 18/2/1 17/1/1
f 18/3/1 19/2/1 20/1/1
f 21/3/2 19/2/2 17/1/2
f 19/3/2 21/2/2 22/1/2
f 23/5/3 18/5/3 20/18/3
f 18/5/3 23/5/3 24/19/3
f 23/5/4 21/5/4 24/20/4
f 21/5/4 23/5/4 22/21/4
f 21/5/5 18/5/5 24/22/5
f 18/5/5 21/5/5 17/23/5
f 19/2/6 23/3/6 20/11/6
f 23/3/6 19/2/6 22/1/6
f 3/3/1 25/2/1 1/1/1
f 25/3/1 3/2/1 26/1/1
f 5/3/2 3/2/2 1/1/2
f 3/3/2 5/2/2 6/1/2
f 27/5/3 25/5/3 26/24/3
f 25/5/3 27/5/3 28/25/3
f 27/5/4 5/5/4 28/26/4
f 5/5/4 27/5/4 6/8/4
f 5/5/5 25/5/5 28/27/5
f 25/5/5 5/5/5 1/10/5
f 3/2/6 27/3/6 26/11/6
f 27/3/6 3/2/6 6/1/6
f 31/3/1 30/2/1 29/1/1
f 30/3/1 31/2/1 32/1/1
f 33/3/2 31/2/2 29/1/2
f 31/3/2 33/2/2 34/1/2
f 35/5/3 30/5/3 32/28/3
f 30/5/3 35/5/3 36/29/3
f 35/5/4 33/5/4 36/30/4
f 33/5/4 35/5/4 34/31/4
f 33/5/5 30/5/5 36/32/5
f 30/5/5 33/5/5 29/33/5
f 31/2/6 35/3/6 32/11/6
f 35/3/6 31/2/6 34/1/6
f 39/3/1 38/2/1 37/1/1
f 38/3/1 39/2/1 40/1/1
f 41/3/2 39/2/2 37/1/2
f 39/3/2 41/2/2 42/1/2
f 43/5/3 38/5/3 40/34/3
f 38/5/3 43/5/3 44/35/3
f 43/5/4 41/5/4 44/36/4
f 41/5/4 43/5/4 42/37/4
f 41/5/5 38/5/5 44/38/5
f 38/5/5 41/5/5 37/39/5
f 39/2/6 43/3/6 40/11/6
f 43/3/6 39/2/6 42/1/6
f 47/3/1 46/2/1 45/1/1
f 46/3/1 47/2/1 48/1/1
f 49/3/2 47/2/2 45/1/2
f 47/3/2 49/2/2 50/1/2
f 51/5/3 46/5/3 48/40/3
f 46/5/3 51/5/3 52/41/3
f 51/5/4 49/5/4 52/42/4
f 49/5/4 51/5/4 50/43/4
f 49/5/5 46/5/5 52/44/5
f 46/5/5 49/5/5 45/45/5
f 47/2/6 51/3/6 48/11/6
f 51/3/6 47/2/6 50/1/6
f 55/3/1 54/2/1 53/1/1
f 54/3/1 55/2/1 56/1/1
f 57/3/2 55/2/2 53/1/2
f 55/3/2 57/2/2 58/1/2
f 59/5/3 54/5/3 56/46/3
f 54/5/3 59/5/3 60/47/3
f 59/5/4 57/5/4 60/48/4
f 57/5/4 59/5/4 58/49/4
f 57/5/5 54/5/5 60/50/5
f 54/5/5 57/5/5 53/51/5
f 55/2/6 59/3/6 56/11/6
f 59/3/6 55/2/6 58/1/6
f 63/3/1 62/2/1 61/1/1
f 62/3/1 63/2/1 64/1/1
f 65/3/2 63/2/2 61/1/2
f 63/3/2 65/2/2 66/1/2
f 67/5/3 62/5/3 64/52/3
f 62/5/3 67/5/3 68/53/3
f 67/5/4 65/5/4 68/54/4
f 65/5/4 67/5/4 66/55/4
f 65/5/5 62/5/5 68/56/5
f 62/5/5 65/5/5 61/57/5
f 63/2/6 67/3/6 64/11/6
f 67/3/6 63/2/6 66/1/6
f 71/3/1 70/2/1 69/1/1
f 70/3/1 71/2/1 72/1/1
f 73/3/2 71/2/2 69/1/2
f 71/3/2 73/2/2 74/1/2
f 75/5/3 70/5/3 72/58/3
f 70/5/3 75/5/3 76/59/3
f 75/5/4 73/5/4 76/60/4
f 73/5/4 75/5/4 74/61/4
f 73/5/5 70/5/5 76/62/5
f 70/5/5 73/5/5 69/63/5
f 71/2/6 75/3/6 72/11/6
f 75/3/6 71/2/6 74/1/6
f 79/3/1 78/2/1 77/1/1
f 78/3/1 79/2/1 80/1/1
f 81/3/2 79/2/2 77/1/2
f 79/3/2 81/2/2 82/1/2
f 83/5/3 78/5/3 80/64/3
f 78/5/3 83/5/3 84/65/3
f 83/5/4 81/5/4 84/66/4
f 81/5/4 83/5/4 82/67/4
f 81/5/5 78/5/5 84/68/5
f 78/5/5 81/5/5 77/69/5
f 79/2/6 83/3/6 80/11/6
f 83/3/6 79/2/6 82/1/6
f 87/3/1 86/2/1 85/1/1
f 86/3/1 87/2/1 88/1/1
f 89/3/2 87/2/2 85/1/2
f 87/3/2 89/2/2 90/1/2
f 91/5/3 86/5/3 88/70/3
f 86/5/3 91/5/3 92/71/3
f 91/5/4 89/5/4 92/72/4
f 89/5/4 91/5/4 90/73/4
f 89/5/5 86/5/5 92/74/5
f 86/5/5 89/5/5 85/75/5
f 87/2/6 91/3/6 88/11/6
f 91/3/6 87/2/6 90/1/6

usemtl color12

f 94/3/1 29/2/1 93/1/1
f 29/3/1 94/2/1 31/1/1
f 95/3/2 94/2/2 93/1/2
f 94/3/2 95/2/2 96/1/2
f 34/5/3 29/5/3 31/76/3
f 29/5/3 34/5/3 33/77/3
f 34/31/4 95/5/4 33/5/4
f 95/5/4 34/31/4 96/78/4
f 95/5/5 29/33/5 33/5/5
f 29/33/5 95/5/5 93/79/5
f 94/2/6 34/3/6 31/11/6
f 34/3/6 94/2/6 96/1/6
f 99/3/1 98/2/1 97/1/1
f 98/3/1 99/2/1 100/1/1
f 101/3/2 99/2/2 97/1/2
f 99/3/2 101/2/2 102/1/2
f 103/5/3 98/5/3 100/80/3
f 98/5/3 103/5/3 104/81/3
f 103/5/4 101/5/4 104/82/4
f 101/5/4 103/5/4 102/83/4
f 101/5/5 98/5/5 104/84/5
f 98/5/5 101/5/5 97/85/5
f 99/2/6 103/3/6 100/11/6
f 103/3/6 99/2/6 102/1/6

usemtl color15

f 107/3/1 106/2/1 105/1/1
f 106/3/1 107/2/1 108/1/1
f 109/3/2 107/2/2 105/1/2
f 107/3/2 109/2/2 110/1/2
f 111/5/3 106/5/3 108/86/3
f 106/5/3 111/5/3 112/87/3
f 111/5/4 109/5/4 112/88/4
f 109/5/4 111/5/4 110/89/4
f 109/5/5 106/5/5 112/90/5
f 106/5/5 109/5/5 105/91/5
f 107/2/6 111/3/6 108/11/6
f 111/3/6 107/2/6 110/1/6
f 14/3/1 16/2/1 13/1/1
f 16/3/1 14/2/1 15/1/1
f 113/3/2 14/2/2 13/1/2
f 14/3/2 113/2/2 114/1/2
f 115/5/3 16/13/3 15/5/3
f 16/13/3 115/5/3 116/92/3
f 115/5/4 113/5/4 116/93/4
f 113/5/4 115/5/4 114/94/4
f 113/5/5 16/16/5 116/95/5
f 16/16/5 113/5/5 13/5/5
f 14/2/6 115/3/6 15/11/6
f 115/3/6 14/2/6 114/1/6
f 118/3/1 37/2/1 117/1/1
f 37/3/1 118/2/1 39/1/1
f 119/3/2 118/2/2 117/1/2
f 118/3/2 119/2/2 120/1/2
f 42/5/3 37/5/3 39/96/3
f 37/5/3 42/5/3 41/97/3
f 42/37/4 119/5/4 41/5/4
f 119/5/4 42/37/4 120/98/4
f 119/5/5 37/39/5 41/5/5
f 37/39/5 119/5/5 117/99/5
f 118/2/6 42/3/6 39/11/6
f 42/3/6 118/2/6 120/1/6
f 122/3/1 45/2/1 121/1/1
f 45/3/1 122/2/1 47/1/1
f 123/3/2 122/2/2 121/1/2
f 122/3/2 123/2/2 124/1/2
f 50/5/3 45/5/3 47/100/3
f 45/5/3 50/5/3 49/101/3
f 50/43/4 123/5/4 49/5/4
f 123/5/4 50/43/4 124/102/4
f 123/5/5 45/45/5 49/5/5
f 45/45/5 123/5/5 121/103/5
f 122/2/6 50/3/6 47/11/6
f 50/3/6 122/2/6 124/1/6

usemtl color9

f 108/3/1 125/2/1 106/1/1
f 125/3/1 108/2/1 126/1/1
f 112/3/2 108/2/2 106/1/2
f 108/3/2 112/2/2 111/1/2
f 127/5/3 125/5/3 126/104/3
f 125/5/3 127/5/3 128/105/3
f 127/5/4 112/88/4 128/106/4
f 112/88/4 127/5/4 111/5/4
f 112/90/5 125/5/5 128/107/5
f 125/5/5 112/90/5 106/5/5
f 108/2/6 127/3/6 126/11/6
f 127/3/6 108/2/6 111/1/6
f 20/3/1 129/2/1 18/1/1
f 129/3/1 20/2/1 130/1/1
f 24/3/2 20/2/2 18/1/2
f 20/3/2 24/2/2 23/1/2
f 131/5/3 129/5/3 130/108/3
f 129/5/3 131/5/3 132/109/3
f 131/5/4 24/20/4 132/110/4
f 24/20/4 131/5/4 23/5/4
f 24/22/5 129/5/5 132/111/5
f 129/5/5 24/22/5 18/5/5
f 20/2/6 131/3/6 130/11/6
f 131/3/6 20/2/6 23/1/6
f 135/3/1 134/2/1 133/1/1
f 134/3/1 135/2/1 136/1/1
f 137/3/2 135/2/2 133/1/2
f 135/3/2 137/2/2 138/1/2
f 139/5/3 134/5/3 136/112/3
f 134/5/3 139/5/3 140/113/3
f 139/5/4 137/5/4 140/114/4
f 137/5/4 139/5/4 138/115/4
f 137/5/5 134/5/5 140/116/5
f 134/5/5 137/5/5 133/117/5
f 135/2/6 139/3/6 136/11/6
f 139/3/6 135/2/6 138/1/6
f 143/3/1 142/2/1 141/1/1
f 142/3/1 143/2/1 144/1/1
f 145/3/2 143/2/2 141/1/2
f 143/3/2 145/2/2 146/1/2
f 147/5/3 142/5/3 144/118/3
f 142/5/3 147/5/3 148/119/3
f 147/5/4 145/5/4 148/120/4
f 145/5/4 147/5/4 146/121/4
f 145/5/5 142/5/5 148/122/5
f 142/5/5 145/5/5 141/123/5
f 143/2/6 147/3/6 144/11/6
f 147/3/6 143/2/6 146/1/6
f 151/3/1 150/2/1 149/1/1
f 150/3/1 151/2/1 152/1/1
f 153/3/2 151/2/2 149/1/2
f 151/3/2 153/2/2 154/1/2
f 155/5/3 150/5/3 152/124/3
f 150/5/3 155/5/3 156/125/3
f 155/5/4 153/5/4 156/126/4
f 153/5/4 155/5/4 154/127/4
f 153/5/5 150/5/5 156/128/5
f 150/5/5 153/5/5 149/129/5
f 151/2/6 155/3/6 152/11/6
f 155/3/6 151/2/6 154/1/6
f 159/3/1 158/2/1 157/1/1
f 158/3/1 159/2/1 160/1/1
f 161/3/2 159/2/2 157/1/2
f 159/3/2 161/2/2 162/1/2
f 163/5/3 158/5/3 160/130/3
f 158/5/3 163/5/3 164/131/3
f 163/5/4 161/5/4 164/132/4
f 161/5/4 163/5/4 162/133/4
f 161/5/5 158/5/5 164/134/5
f 158/5/5 161/5/5 157/135/5
f 159/2/6 163/3/6 160/11/6
f 163/3/6 159/2/6 162/1/6
f 167/3/1 166/2/1 165/1/1
f 166/3/1 167/2/1 168/1/1
f 169/3/2 167/2/2 165/1/2
f 167/3/2 169/2/2 170/1/2
f 171/5/3 166/5/3 168/136/3
f 166/5/3 171/5/3 172/137/3
f 171/5/4 169/5/4 172/138/4
f 169/5/4 171/5/4 170/139/4
f 169/5/5 166/5/5 172/140/5
f 166/5/5 169/5/5 165/141/5
f 167/2/6 171/3/6 168/11/6
f 171/3/6 167/2/6 170/1/6
f 175/3/1 174/2/1 173/1/1
f 174/3/1 175/2/1 176/1/1
f 177/3/2 175/2/2 173/1/2
f 175/3/2 177/2/2 178/1/2
f 179/5/3 174/5/3 176/142/3
f 174/5/3 179/5/3 180/143/3
f 179/5/4 177/5/4 180/144/4
f 177/5/4 179/5/4 178/145/4
f 177/5/5 174/5/5 180/146/5
f 174/5/5 177/5/5 173/147/5
f 175/2/6 179/3/6 176/11/6
f 179/3/6 175/2/6 178/1/6

usemtl color7

f 183/3/1 182/2/1 181/1/1
f 182/3/1 183/2/1 184/1/1
f 185/3/2 183/2/2 181/1/2
f 183/3/2 185/2/2 186/1/2
f 187/5/3 182/5/3 184/148/3
f 182/5/3 187/5/3 188/149/3
f 187/5/4 185/5/4 188/150/4
f 185/5/4 187/5/4 186/151/4
f 185/5/5 182/5/5 188/152/5
f 182/5/5 185/5/5 181/153/5
f 183/2/6 187/3/6 184/11/6
f 187/3/6 183/2/6 186/1/6
f 35/3/1 57/2/1 36/1/1
f 57/3/1 35/2/1 58/1/1
f 182/3/2 35/2/2 36/1/2
f 35/3/2 182/2/2 184/1/2
f 189/5/3 57/5/3 58/154/3
f 57/5/3 189/5/3 190/155/3
f 189/5/4 182/5/4 190/156/4
f 182/5/4 189/5/4 184/157/4
f 182/5/5 57/5/5 190/158/5
f 57/5/5 182/5/5 36/32/5
f 35/2/6 189/3/6 58/11/6
f 189/3/6 35/2/6 184/1/6
f 193/3/1 192/2/1 191/1/1
f 192/3/1 193/2/1 194/1/1
f 195/3/2 193/2/2 191/1/2
f 193/3/2 195/2/2 196/1/2
f 197/5/3 192/5/3 194/159/3
f 192/5/3 197/5/3 198/160/3
f 197/5/4 195/5/4 198/161/4
f 195/5/4 197/5/4 196/162/4
f 195/5/5 192/5/5 198/163/5
f 192/5/5 195/5/5 191/164/5
f 193/2/6 197/3/6 194/11/6
f 197/3/6 193/2/6 196/1/6
f 59/3/1 73/2/1 60/1/1
f 73/3/1 59/2/1 74/1/1
f 199/3/2 59/2/2 60/1/2
f 59/3/2 199/2/2 200/1/2
f 201/5/3 73/5/3 74/165/3
f 73/5/3 201/5/3 202/166/3
f 201/5/4 199/5/4 202/167/4
f 199/5/4 201/5/4 200/168/4
f 199/5/5 73/5/5 202/169/5
f 73/5/5 199/5/5 60/50/5
f 59/2/6 201/3/6 74/11/6
f 201/3/6 59/2/6 200/1/6
f 205/3/1 204/2/1 203/1/1
f 204/3/1 205/2/1 206/1/1
f 62/3/2 205/2/2 203/1/2
f 205/3/2 62/2/2 64/1/2
f 79/5/3 204/5/3 206/170/3
f 204/5/3 79/5/3 77/171/3
f 79/5/4 62/5/4 77/172/4
f 62/5/4 79/5/4 64/173/4
f 62/5/5 204/5/5 77/69/5
f 204/5/5 62/5/5 203/174/5
f 205/2/6 79/3/6 206/11/6
f 79/3/6 205/2/6 64/1/6
f 209/3/1 208/2/1 207/1/1
f 208/3/1 209/2/1 210/1/1
f 211/3/2 209/2/2 207/1/2
f 209/3/2 211/2/2 212/1/2
f 213/5/3 208/5/3 210/175/3
f 208/5/3 213/5/3 214/176/3
f 213/5/4 211/5/4 214/177/4
f 211/5/4 213/5/4 212/178/4
f 211/5/5 208/5/5 214/179/5
f 208/5/5 211/5/5 207/180/5
f 209/2/6 213/3/6 210/11/6
f 213/3/6 209/2/6 212/1/6

usemtl color8

f 186/3/1 188/2/1 185/1/1
f 188/3/1 186/2/1 187/1/1
f 215/3/2 186/2/2 185/1/2
f 186/3/2 215/2/2 216/1/2
f 217/5/3 188/149/3 187/5/3
f 188/149/3 217/5/3 218/181/3
f 217/5/4 215/5/4 218/182/4
f 215/5/4 217/5/4 216/183/4
f 215/5/5 188/152/5 218/184/5
f 188/152/5 215/5/5 185/5/5
f 186/2/6 217/3/6 187/11/6
f 217/3/6 186/2/6 216/1/6
f 220/3/1 214/2/1 219/1/1
f 214/3/1 220/2/1 213/1/1
f 218/3/2 220/2/2 219/1/2
f 220/3/2 218/2/2 217/1/2
f 221/5/3 214/176/3 213/5/3
f 214/176/3 221/5/3 222/185/3
f 221/5/4 218/182/4 222/186/4
f 218/182/4 221/5/4 217/5/4
f 218/184/5 214/179/5 222/187/5
f 214/179/5 218/184/5 219/188/5
f 220/2/6 221/3/6 213/11/6
f 221/3/6 220/2/6 217/1/6

usemtl color6

f 7/3/1 223/2/1 8/1/1
f 223/3/1 7/2/1 224/1/1
f 125/3/2 7/2/2 8/1/2
f 7/3/2 125/2/2 126/1/2
f 151/5/3 223/5/3 224/189/3
f 223/5/3 151/5/3 149/190/3
f 151/5/4 125/5/4 149/191/4
f 125/5/4 151/5/4 126/192/4
f 125/5/5 223/5/5 149/129/5
f 223/5/5 125/5/5 8/9/5
f 7/2/6 151/3/6 224/11/6
f 151/3/6 7/2/6 126/1/6
f 184/3/1 225/2/1 182/1/1
f 225/3/1 184/2/1 226/1/1
f 188/3/2 184/2/2 182/1/2
f 184/3/2 188/2/2 187/1/2
f 210/175/3 225/5/3 226/193/3
f 225/5/3 210/175/3 208/5/3
f 210/5/4 188/150/4 208/194/4
f 188/150/4 210/5/4 187/5/4
f 188/152/5 225/5/5 208/5/5
f 225/5/5 188/152/5 182/5/5
f 184/2/6 210/3/6 226/11/6
f 210/3/6 184/2/6 187/1/6
f 131/3/1 161/2/1 132/1/1
f 161/3/1 131/2/1 162/1/1
f 46/3/2 131/2/2 132/1/2
f 131/3/2 46/2/2 48/1/2
f 99/5/3 161/5/3 162/195/3
f 161/5/3 99/5/3 97/196/3
f 99/5/4 46/5/4 97/197/4
f 46/5/4 99/5/4 48/198/4
f 46/5/5 161/5/5 97/85/5
f 161/5/5 46/5/5 132/111/5
f 131/2/6 99/3/6 162/11/6
f 99/3/6 131/2/6 48/1/6
f 229/3/1 228/2/1 227/1/1
f 228/3/1 229/2/1 230/1/1
f 231/3/2 229/2/2 227/1/2
f 229/3/2 231/2/2 232/1/2
f 233/5/3 228/5/3 230/199/3
f 228/5/3 233/5/3 234/200/3
f 233/5/4 231/5/4 234/201/4
f 231/5/4 233/5/4 232/202/4
f 231/5/5 228/5/5 234/203/5
f 228/5/5 231/5/5 227/204/5
f 229/2/6 233/3/6 230/11/6
f 233/3/6 229/2/6 232/1/6
f 237/3/1 236/2/1 235/1/1
f 236/3/1 237/2/1 238/1/1
f 98/3/2 237/2/2 235/1/2
f 237/3/2 98/2/2 100/1/2
f 87/5/3 236/5/3 238/205/3
f 236/5/3 87/5/3 85/206/3
f 87/5/4 98/5/4 85/207/4
f 98/5/4 87/5/4 100/208/4
f 98/5/5 236/5/5 85/75/5
f 236/5/5 98/5/5 235/209/5
f 237/2/6 87/3/6 238/11/6
f 87/3/6 237/2/6 100/1/6

usemtl color13

f 241/3/1 240/2/1 239/1/1
f 240/3/1 241/2/1 242/1/1
f 243/3/2 241/2/2 239/1/2
f 241/3/2 243/2/2 244/1/2
f 245/5/3 240/5/3 242/210/3
f 240/5/3 245/5/3 246/211/3
f 245/5/4 243/5/4 246/212/4
f 243/5/4 245/5/4 244/213/4
f 243/5/5 240/5/5 246/214/5
f 240/5/5 243/5/5 239/215/5
f 241/2/6 245/3/6 242/11/6
f 245/3/6 241/2/6 244/1/6

usemtl color14

f 217/3/1 247/2/1 218/1/1
f 247/3/1 217/2/1 248/1/1
f 38/3/2 217/2/2 218/1/2
f 217/3/2 38/2/2 40/1/2
f 63/5/3 247/5/3 248/216/3
f 247/5/3 63/5/3 61/217/3
f 63/5/4 38/5/4 61/218/4
f 38/5/4 63/5/4 40/219/4
f 38/5/5 247/5/5 61/57/5
f 247/5/5 38/5/5 218/184/5
f 217/2/6 63/3/6 248/11/6
f 63/3/6 217/2/6 40/1/6

usemtl color2

f 251/3/1 250/2/1 249/1/1
f 250/3/1 251/2/1 252/1/1
f 223/3/2 251/2/2 249/1/2
f 251/3/2 223/2/2 224/1/2
f 229/5/3 250/5/3 252/220/3
f 250/5/3 229/5/3 227/221/3
f 229/5/4 223/5/4 227/222/4
f 223/5/4 229/5/4 224/223/4
f 223/5/5 250/5/5 227/204/5
f 250/5/5 223/5/5 249/224/5
f 251/2/6 229/3/6 252/11/6
f 229/3/6 251/2/6 224/1/6
f 255/3/1 254/2/1 253/1/1
f 254/3/1 255/2/1 256/1/1
f 228/3/2 255/2/2 253/1/2
f 255/3/2 228/2/2 230/1/2
f 257/5/3 254/5/3 256/225/3
f 254/5/3 257/5/3 258/226/3
f 257/5/4 228/5/4 258/227/4
f 228/5/4 257/5/4 230/228/4
f 228/5/5 254/5/5 258/229/5
f 254/5/5 228/5/5 253/230/5
f 255/2/6 257/3/6 256/11/6
f 257/3/6 255/2/6 230/1/6
f 72/3/1 259/2/1 70/1/1
f 259/3/1 72/2/1 260/1/1
f 76/3/2 72/2/2 70/1/2
f 72/3/2 76/2/2 75/1/2
f 261/5/3 259/5/3 260/231/3
f 259/5/3 261/5/3 262/232/3
f 261/5/4 76/60/4 262/233/4
f 76/60/4 261/5/4 75/5/4
f 76/62/5 259/5/5 262/234/5
f 259/5/5 76/62/5 70/5/5
f 72/2/6 261/3/6 260/11/6
f 261/3/6 72/2/6 75/1/6
f 265/3/1 264/2/1 263/1/1
f 264/3/1 265/2/1 266/1/1
f 267/3/2 265/2/2 263/1/2
f 265/3/2 267/2/2 268/1/2
f 269/5/3 264/5/3 266/235/3
f 264/5/3 269/5/3 270/236/3
f 269/5/4 267/5/4 270/237/4
f 267/5/4 269/5/4 268/238/4
f 267/5/5 264/5/5 270/239/5
f 264/5/5 267/5/5 263/240/5
f 265/2/6 269/3/6 266/11/6
f 269/3/6 265/2/6 268/1/6
f 80/3/1 271/2/1 78/1/1
f 271/3/1 80/2/1 272/1/1
f 84/3/2 80/2/2 78/1/2
f 80/3/2 84/2/2 83/1/2
f 273/5/3 271/5/3 272/241/3
f 271/5/3 273/5/3 274/242/3
f 273/5/4 84/66/4 274/243/4
f 84/66/4 273/5/4 83/5/4
f 84/68/5 271/5/5 274/244/5
f 271/5/5 84/68/5 78/5/5
f 80/2/6 273/3/6 272/11/6
f 273/3/6 80/2/6 83/1/6
f 88/3/1 275/2/1 86/1/1
f 275/3/1 88/2/1 276/1/1
f 92/3/2 88/2/2 86/1/2
f 88/3/2 92/2/2 91/1/2
f 277/5/3 275/5/3 276/245/3
f 275/5/3 277/5/3 278/246/3
f 277/5/4 92/72/4 278/247/4
f 92/72/4 277/5/4 91/5/4
f 92/74/5 275/5/5 278/248/5
f 275/5/5 92/74/5 86/5/5
f 88/2/6 277/3/6 276/11/6
f 277/3/6 88/2/6 91/1/6

usemtl color5

f 152/3/1 231/2/1 150/1/1
f 231/3/1 152/2/1 232/1/1
f 156/3/2 152/2/2 150/1/2
f 152/3/2 156/2/2 155/1/2
f 279/5/3 231/5/3 232/249/3
f 231/5/3 279/5/3 280/250/3
f 279/5/4 156/126/4 280/251/4
f 156/126/4 279/5/4 155/5/4
f 156/128/5 231/5/5 280/252/5
f 231/5/5 156/128/5 150/5/5
f 152/2/6 279/3/6 232/11/6
f 279/3/6 152/2/6 155/1/6
f 160/3/1 281/2/1 158/1/1
f 281/3/1 160/2/1 282/1/1
f 164/3/2 160/2/2 158/1/2
f 160/3/2 164/2/2 163/1/2
f 237/5/3 281/5/3 282/253/3
f 281/5/3 237/5/3 235/254/3
f 237/5/4 164/132/4 235/255/4
f 164/132/4 237/5/4 163/5/4
f 164/134/5 281/5/5 235/209/5
f 281/5/5 164/134/5 158/5/5
f 160/2/6 237/3/6 282/11/6
f 237/3/6 160/2/6 163/1/6
f 233/3/1 263/2/1 234/1/1
f 263/3/1 233/2/1 265/1/1
f 283/3/2 233/2/2 234/1/2
f 233/3/2 283/2/2 284/1/2
f 268/5/3 263/5/3 265/256/3
f 263/5/3 268/5/3 267/257/3
f 268/238/4 283/5/4 267/5/4
f 283/5/4 268/238/4 284/258/4
f 283/5/5 263/240/5 267/5/5
f 263/240/5 283/5/5 234/203/5
f 233/2/6 268/3/6 265/11/6
f 268/3/6 233/2/6 284/1/6
f 287/3/1 286/2/1 285/1/1
f 286/3/1 287/2/1 288/1/1
f 236/3/2 287/2/2 285/1/2
f 287/3/2 236/2/2 238/1/2
f 289/5/3 286/5/3 288/259/3
f 286/5/3 289/5/3 290/260/3
f 289/5/4 236/5/4 290/261/4
f 236/5/4 289/5/4 238/262/4
f 236/5/5 286/5/5 290/263/5
f 286/5/5 236/5/5 285/264/5
f 287/2/6 289/3/6 288/11/6
f 289/3/6 287/2/6 238/1/6

usemtl color11

f 293/3/1 292/2/1 291/1/1
f 292/3/1 293/2/1 294/1/1
f 295/3/2 293/2/2 291/1/2
f 293/3/2 295/2/2 296/1/2
f 297/5/3 292/5/3 294/265/3
f 292/5/3 297/5/3 298/266/3
f 297/5/4 295/5/4 298/267/4
f 295/5/4 297/5/4 296/268/4
f 295/5/5 292/5/5 298/269/5
f 292/5/5 295/5/5 291/270/5
f 293/2/6 297/3/6 294/11/6
f 297/3/6 293/2/6 296/1/6
f 297/3/1 299/2/1 298/1/1
f 299/3/1 297/2/1 300/1/1
f 301/3/2 297/2/2 298/1/2
f 297/3/2 301/2/2 302/1/2
f 303/5/3 299/5/3 300/271/3
f 299/5/3 303/5/3 304/272/3
f 303/5/4 301/5/4 304/273/4
f 301/5/4 303/5/4 302/274/4
f 301/5/5 299/5/5 304/275/5
f 299/5/5 301/5/5 298/269/5
f 297/2/6 303/3/6 300/11/6
f 303/3/6 297/2/6 302/1/6

usemtl color10

f 296/3/1 298/2/1 295/1/1
f 298/3/1 296/2/1 297/1/1
f 305/3/2 296/2/2 295/1/2
f 296/3/2 305/2/2 306/1/2
f 302/5/3 298/266/3 297/5/3
f 298/266/3 302/5/3 301/276/3
f 302/274/4 305/5/4 301/5/4
f 305/5/4 302/274/4 306/277/4
f 305/5/5 298/269/5 301/5/5
f 298/269/5 305/5/5 295/5/5
f 296/2/6 302/3/6 297/11/6
f 302/3/6 296/2/6 306/1/6
f 294/3/1 307/2/1 292/1/1
f 307/3/1 294/2/1 308/1/1
f 298/3/2 294/2/2 292/1/2
f 294/3/2 298/2/2 297/1/2
f 300/271/3 307/5/3 308/278/3
f 307/5/3 300/271/3 299/5/3
f 300/5/4 298/267/4 299/279/4
f 298/267/4 300/5/4 297/5/4
f 298/269/5 307/5/5 299/5/5
f 307/5/5 298/269/5 292/5/5
f 294/2/6 300/3/6 308/11/6
f 300/3/6 294/2/6 297/1/6

usemtl color1

f 256/3/1 309/2/1 254/1/1
f 309/3/1 256/2/1 310/1/1
f 258/3/2 256/2/2 254/1/2
f 256/3/2 258/2/2 257/1/2
f 311/5/3 309/5/3 310/280/3
f 309/5/3 311/5/3 312/281/3
f 311/5/4 258/227/4 312/282/4
f 258/227/4 311/5/4 257/5/4
f 258/229/5 309/5/5 312/283/5
f 309/5/5 258/229/5 254/5/5
f 256/2/6 311/3/6 310/11/6
f 311/3/6 256/2/6 257/1/6
f 315/3/1 314/2/1 313/1/1
f 314/3/1 315/2/1 316/1/1
f 317/3/2 315/2/2 313/1/2
f 315/3/2 317/2/2 318/1/2
f 319/5/3 314/5/3 316/284/3
f 314/5/3 319/5/3 320/285/3
f 319/5/4 317/5/4 320/286/4
f 317/5/4 319/5/4 318/287/4
f 317/5/5 314/5/5 320/288/5
f 314/5/5 317/5/5 313/289/5
f 315/2/6 319/3/6 316/11/6
f 319/3/6 315/2/6 318/1/6
f 288/3/1 321/2/1 286/1/1
f 321/3/1 288/2/1 322/1/1
f 290/3/2 288/2/2 286/1/2
f 288/3/2 290/2/2 289/1/2
f 323/5/3 321/5/3 322/290/3
f 321/5/3 323/5/3 324/291/3
f 323/5/4 290/261/4 324/292/4
f 290/261/4 323/5/4 289/5/4
f 290/263/5 321/5/5 324/293/5
f 321/5/5 290/263/5 286/5/5
f 288/2/6 323/3/6 322/11/6
f 323/3/6 288/2/6 289/1/6

