# Created by Kenney (www.kenney.nl)

mtllib Grenade 4WG Chershoe.mtl

v -2 6 -0.6
v -2 5 -0.6
v -2 6 0.6
v -2 5 0.6
v -3 6 -0.6
v -3 6 0.6
v -3 5 0.6
v -3 5 -0.6
v -2 4 -0.6
v -2 3 -0.6
v -2 4 0.6
v -2 3 0.6
v -3 4 -0.6
v -3 4 0.6
v -3 3 0.6
v -3 3 -0.6
v -2 2 -0.6
v -2 1 -0.6
v -2 2 0.6
v -2 1 0.6
v -3 2 -0.6
v -3 2 0.6
v -3 1 0.6
v -3 1 -0.6
v 3 5 -1.8
v 3 4 -1.8
v 3 5 1.8
v 3 4 1.8
v 2 5 -1.8
v 2 5 1.8
v 2 4 1.8
v 2 4 -1.8
v -1 5 -1.8
v -1 4 -1.8
v -1 5 1.8
v -1 4 1.8
v -2 5 -1.8
v -2 5 1.8
v -2 4 1.8
v -2 4 -1.8
v 3 2 -1.8
v 3 1 -1.8
v 3 2 1.8
v 3 1 1.8
v 2 2 -1.8
v 2 2 1.8
v 2 1 1.8
v 2 1 -1.8
v -1 2 -1.8
v -1 1 -1.8
v -1 2 1.8
v -1 1 1.8
v -2 2 -1.8
v -2 2 1.8
v -2 1 1.8
v -2 1 -1.8
v 3 0 -1.8
v 3 -1 -1.8
v 3 0 1.8
v 3 -1 1.8
v 2 0 -1.8
v 2 0 1.8
v 2 -1 1.8
v 2 -1 -1.8
v -1 0 -1.8
v -1 -1 -1.8
v -1 0 1.8
v -1 -1 1.8
v -2 0 -1.8
v -2 0 1.8
v -2 -1 1.8
v -2 -1 -1.8
v 3 -4 -1.8
v 3 -5 -1.8
v 3 -4 1.8
v 3 -5 1.8
v 2 -4 -1.8
v 2 -4 1.8
v 2 -5 1.8
v 2 -5 -1.8
v -1 -4 -1.8
v -1 -5 -1.8
v -1 -4 1.8
v -1 -5 1.8
v -2 -4 -1.8
v -2 -4 1.8
v -2 -5 1.8
v -2 -5 -1.8
v 2 5 -2.4
v 2 4 -2.4
v 2 5 2.4
v 2 4 2.4
v -1 5 -2.4
v -1 5 2.4
v -1 4 2.4
v -1 4 -2.4
v 2 2 -2.4
v 2 1 -2.4
v 2 2 2.4
v 2 1 2.4
v -1 2 -2.4
v -1 2 2.4
v -1 1 2.4
v -1 1 -2.4
v 2 0 -2.4
v 2 -1 -2.4
v 2 0 2.4
v 2 -1 2.4
v -1 0 -2.4
v -1 0 2.4
v -1 -1 2.4
v -1 -1 -2.4
v -2 0 -0.6
v -2 0 0.6
v -3 0 0.6
v -3 0 -0.6
v 4 -1 -1.2
v 4 -2 -1.2
v 4 -1 1.2
v 4 -2 1.2
v 3 -1 -1.2
v 3 -1 1.2
v 3 -2 1.2
v 3 -2 -1.2
v -2 -1 -1.2
v -2 -2 -1.2
v -2 -1 1.2
v -2 -2 1.2
v -3 -1 -1.2
v -3 -1 1.2
v -3 -2 1.2
v -3 -2 -1.2
v 4 -2 -0.6
v 4 -3 -0.6
v 4 -2 0.6
v 4 -3 0.6
v 3 -2 -0.6
v 3 -2 0.6
v 3 -3 0.6
v 3 -3 -0.6
v -2 -2 -0.6
v -2 -3 -0.6
v -2 -2 0.6
v -2 -3 0.6
v -3 -2 -0.6
v -3 -2 0.6
v -3 -3 0.6
v -3 -3 -0.6
v 4 -3 -1.2
v 4 -4 -1.2
v 4 -3 1.2
v 4 -4 1.2
v 3 -3 -1.2
v 3 -3 1.2
v 3 -4 1.2
v 3 -4 -1.2
v -2 -3 -1.2
v -2 -4 -1.2
v -2 -3 1.2
v -2 -4 1.2
v -3 -3 -1.2
v -3 -3 1.2
v -3 -4 1.2
v -3 -4 -1.2
v 3 -2 -1.8
v 3 -2 1.8
v 2 -2 1.8
v 2 -2 -1.8
v -1 -2 -1.8
v -1 -2 1.8
v -2 -2 1.8
v -2 -2 -1.8
v 3 -3 -1.8
v 3 -3 1.8
v 2 -3 -1.8
v 2 -3 1.8
v -1 -3 -1.8
v -1 -3 1.8
v -2 -3 -1.8
v -2 -3 1.8
v 2 -4 -2.4
v 2 -5 -2.4
v 2 -4 2.4
v 2 -5 2.4
v -1 -4 -2.4
v -1 -4 2.4
v -1 -5 2.4
v -1 -5 -2.4
v 2 -2 -2.4
v 2 -2 2.4
v -1 -2 2.4
v -1 -2 -2.4
v 2 -3 -2.4
v 2 -3 2.4
v -1 -3 -2.4
v -1 -3 2.4
v 1 -2 -2.4
v 1 -3 -2.4
v 1 -2 2.4
v 1 -3 2.4
v 0 -2 -2.4
v 0 -2 2.4
v 0 -3 2.4
v 0 -3 -2.4
v 1 -2 -1.8
v 1 -2 1.8
v 1 -3 1.8
v 1 -3 -1.8
v 0 -2 -1.8
v 0 -3 -1.8
v 0 -2 1.8
v 0 -3 1.8

vn 1 0 0
vn 0 1 0
vn 0 -1 0
vn -1 0 0
vn 0 0 -1
vn 0 0 1

vt -19.68504 19.68504
vt 19.68504 19.68504
vt -19.68504 -19.68504
vt 0 NaN
vt 0 0
vt 0 NaN
vt 0 NaN
vt 0 NaN
vt 0 NaN
vt 0 NaN
vt 19.68504 -19.68504
vt 0 NaN
vt 0 NaN
vt 0 NaN
vt 0 NaN
vt 0 NaN
vt 0 NaN
vt 0 NaN
vt 0 NaN
vt 0 NaN
vt 0 NaN
vt 0 NaN
vt 0 NaN
vt 0 NaN
vt 0 NaN
vt 0 NaN
vt 0 NaN
vt 0 NaN
vt 0 NaN
vt 0 NaN
vt 0 NaN
vt 0 NaN
vt 0 NaN
vt 0 NaN
vt 0 NaN
vt 0 NaN
vt 0 NaN
vt 0 NaN
vt 0 NaN
vt 0 NaN
vt 0 NaN
vt 0 NaN
vt 0 NaN
vt 0 NaN
vt 0 NaN
vt 0 NaN
vt 0 NaN
vt 0 NaN
vt 0 NaN
vt 0 NaN
vt 0 NaN
vt 0 NaN
vt 0 NaN
vt 0 NaN
vt 0 NaN
vt 0 NaN
vt 0 NaN
vt 0 NaN
vt 0 NaN
vt 0 NaN
vt 0 NaN
vt 0 NaN
vt 0 NaN
vt 0 NaN
vt 0 NaN
vt 0 NaN
vt 0 NaN
vt 0 NaN
vt 0 NaN
vt 0 NaN
vt 0 NaN
vt 0 NaN
vt 0 NaN
vt 0 NaN
vt 0 NaN
vt 0 NaN
vt 0 NaN
vt 0 NaN
vt 0 NaN
vt 0 NaN
vt 0 NaN
vt 0 NaN
vt 0 NaN
vt 0 NaN
vt 0 NaN
vt 0 NaN
vt 0 NaN
vt 0 NaN
vt 0 NaN
vt 0 NaN
vt 0 NaN
vt 0 NaN
vt 0 NaN
vt 0 NaN
vt 0 NaN
vt 0 NaN
vt 0 NaN
vt 0 NaN
vt 0 NaN
vt 0 NaN
vt 0 NaN
vt 0 NaN
vt 0 NaN
vt 0 NaN
vt 0 NaN
vt 0 NaN
vt 0 NaN
vt 0 NaN
vt 0 NaN
vt 0 NaN
vt 0 NaN
vt 0 NaN
vt 0 NaN
vt 0 NaN
vt 0 NaN
vt 0 NaN
vt 0 NaN
vt 0 NaN
vt 0 NaN
vt 0 NaN
vt 0 NaN
vt 0 NaN
vt 0 NaN
vt 0 NaN
vt 0 NaN
vt 0 NaN
vt 0 NaN
vt 0 NaN
vt 0 NaN
vt 0 NaN
vt 0 NaN
vt 0 NaN
vt 0 NaN
vt 0 NaN
vt 0 NaN
vt 0 NaN
vt 0 NaN
vt 0 NaN
vt 0 NaN
vt 0 NaN
vt 0 NaN
vt 0 NaN
vt 0 NaN
vt 0 NaN
vt 0 NaN
vt 0 NaN
vt 0 NaN
vt 0 NaN
vt 0 NaN
vt 0 NaN
vt 0 NaN
vt 0 NaN
vt 0 NaN
vt 0 NaN
vt 0 NaN
vt 0 NaN
vt 0 NaN
vt 0 NaN
vt 0 NaN
vt 0 NaN
vt 0 NaN
vt 0 NaN
vt 0 NaN
vt 0 NaN
vt 0 NaN
vt 0 NaN
vt 0 NaN
vt 0 NaN
vt 0 NaN
vt 0 NaN
vt 0 NaN
vt 0 NaN
vt 0 NaN
vt 0 NaN
vt 0 NaN
vt 0 NaN
vt 0 NaN
vt 0 NaN
vt 0 NaN
vt 0 NaN
vt 0 NaN
vt 0 NaN
vt 0 NaN
vt 0 NaN
vt 0 NaN
vt 0 NaN
vt 0 NaN
vt 0 NaN
vt 0 NaN
vt 0 NaN
vt 0 NaN
vt 0 NaN
vt 0 NaN

usemtl color14

f 3/3/1 2/2/1 1/1/1
f 2/3/1 3/2/1 4/1/1
f 5/3/2 3/2/2 1/1/2
f 3/3/2 5/2/2 6/1/2
f 7/5/3 2/5/3 4/4/3
f 2/5/3 7/5/3 8/6/3
f 7/5/4 5/5/4 8/7/4
f 5/5/4 7/5/4 6/8/4
f 5/5/5 2/5/5 8/9/5
f 2/5/5 5/5/5 1/10/5
f 3/2/6 7/3/6 4/11/6
f 7/3/6 3/2/6 6/1/6
f 3/3/1 2/2/1 1/1/1
f 2/3/1 3/2/1 4/1/1
f 5/3/2 3/2/2 1/1/2
f 3/3/2 5/2/2 6/1/2
f 7/5/3 2/5/3 4/4/3
f 2/5/3 7/5/3 8/6/3
f 7/5/4 5/5/4 8/7/4
f 5/5/4 7/5/4 6/8/4
f 5/5/5 2/5/5 8/9/5
f 2/5/5 5/5/5 1/10/5
f 3/2/6 7/3/6 4/11/6
f 7/3/6 3/2/6 6/1/6
f 11/3/1 10/2/1 9/1/1
f 10/3/1 11/2/1 12/1/1
f 13/3/2 11/2/2 9/1/2
f 11/3/2 13/2/2 14/1/2
f 15/5/3 10/5/3 12/12/3
f 10/5/3 15/5/3 16/13/3
f 15/5/4 13/5/4 16/14/4
f 13/5/4 15/5/4 14/15/4
f 13/5/5 10/5/5 16/16/5
f 10/5/5 13/5/5 9/17/5
f 11/2/6 15/3/6 12/11/6
f 15/3/6 11/2/6 14/1/6
f 19/3/1 18/2/1 17/1/1
f 18/3/1 19/2/1 20/1/1
f 21/3/2 19/2/2 17/1/2
f 19/3/2 21/2/2 22/1/2
f 23/5/3 18/5/3 20/18/3
f 18/5/3 23/5/3 24/19/3
f 23/5/4 21/5/4 24/20/4
f 21/5/4 23/5/4 22/21/4
f 21/5/5 18/5/5 24/22/5
f 18/5/5 21/5/5 17/23/5
f 19/2/6 23/3/6 20/11/6
f 23/3/6 19/2/6 22/1/6

usemtl color4

f 27/3/1 26/2/1 25/1/1
f 26/3/1 27/2/1 28/1/1
f 29/3/2 27/2/2 25/1/2
f 27/3/2 29/2/2 30/1/2
f 31/5/3 26/5/3 28/24/3
f 26/5/3 31/5/3 32/25/3
f 31/5/4 29/5/4 32/26/4
f 29/5/4 31/5/4 30/27/4
f 29/5/5 26/5/5 32/28/5
f 26/5/5 29/5/5 25/29/5
f 27/2/6 31/3/6 28/11/6
f 31/3/6 27/2/6 30/1/6
f 35/3/1 34/2/1 33/1/1
f 34/3/1 35/2/1 36/1/1
f 37/3/2 35/2/2 33/1/2
f 35/3/2 37/2/2 38/1/2
f 39/5/3 34/5/3 36/30/3
f 34/5/3 39/5/3 40/31/3
f 39/5/4 37/5/4 40/32/4
f 37/5/4 39/5/4 38/33/4
f 37/5/5 34/5/5 40/34/5
f 34/5/5 37/5/5 33/35/5
f 35/2/6 39/3/6 36/11/6
f 39/3/6 35/2/6 38/1/6
f 43/3/1 42/2/1 41/1/1
f 42/3/1 43/2/1 44/1/1
f 45/3/2 43/2/2 41/1/2
f 43/3/2 45/2/2 46/1/2
f 47/5/3 42/5/3 44/36/3
f 42/5/3 47/5/3 48/37/3
f 47/5/4 45/5/4 48/38/4
f 45/5/4 47/5/4 46/39/4
f 45/5/5 42/5/5 48/40/5
f 42/5/5 45/5/5 41/41/5
f 43/2/6 47/3/6 44/11/6
f 47/3/6 43/2/6 46/1/6
f 51/3/1 50/2/1 49/1/1
f 50/3/1 51/2/1 52/1/1
f 53/3/2 51/2/2 49/1/2
f 51/3/2 53/2/2 54/1/2
f 55/5/3 50/5/3 52/42/3
f 50/5/3 55/5/3 56/43/3
f 55/5/4 53/5/4 56/44/4
f 53/5/4 55/5/4 54/45/4
f 53/5/5 50/5/5 56/46/5
f 50/5/5 53/5/5 49/47/5
f 51/2/6 55/3/6 52/11/6
f 55/3/6 51/2/6 54/1/6
f 59/3/1 58/2/1 57/1/1
f 58/3/1 59/2/1 60/1/1
f 61/3/2 59/2/2 57/1/2
f 59/3/2 61/2/2 62/1/2
f 63/5/3 58/5/3 60/48/3
f 58/5/3 63/5/3 64/49/3
f 63/5/4 61/5/4 64/50/4
f 61/5/4 63/5/4 62/51/4
f 61/5/5 58/5/5 64/52/5
f 58/5/5 61/5/5 57/53/5
f 59/2/6 63/3/6 60/11/6
f 63/3/6 59/2/6 62/1/6
f 67/3/1 66/2/1 65/1/1
f 66/3/1 67/2/1 68/1/1
f 69/3/2 67/2/2 65/1/2
f 67/3/2 69/2/2 70/1/2
f 71/5/3 66/5/3 68/54/3
f 66/5/3 71/5/3 72/55/3
f 71/5/4 69/5/4 72/56/4
f 69/5/4 71/5/4 70/57/4
f 69/5/5 66/5/5 72/58/5
f 66/5/5 69/5/5 65/59/5
f 67/2/6 71/3/6 68/11/6
f 71/3/6 67/2/6 70/1/6
f 75/3/1 74/2/1 73/1/1
f 74/3/1 75/2/1 76/1/1
f 77/3/2 75/2/2 73/1/2
f 75/3/2 77/2/2 78/1/2
f 79/5/3 74/5/3 76/60/3
f 74/5/3 79/5/3 80/61/3
f 79/5/4 77/5/4 80/62/4
f 77/5/4 79/5/4 78/63/4
f 77/5/5 74/5/5 80/64/5
f 74/5/5 77/5/5 73/65/5
f 75/2/6 79/3/6 76/11/6
f 79/3/6 75/2/6 78/1/6
f 83/3/1 82/2/1 81/1/1
f 82/3/1 83/2/1 84/1/1
f 85/3/2 83/2/2 81/1/2
f 83/3/2 85/2/2 86/1/2
f 87/5/3 82/5/3 84/66/3
f 82/5/3 87/5/3 88/67/3
f 87/5/4 85/5/4 88/68/4
f 85/5/4 87/5/4 86/69/4
f 85/5/5 82/5/5 88/70/5
f 82/5/5 85/5/5 81/71/5
f 83/2/6 87/3/6 84/11/6
f 87/3/6 83/2/6 86/1/6

usemtl color6

f 91/3/1 90/2/1 89/1/1
f 90/3/1 91/2/1 92/1/1
f 93/3/2 91/2/2 89/1/2
f 91/3/2 93/2/2 94/1/2
f 95/5/3 90/5/3 92/72/3
f 90/5/3 95/5/3 96/73/3
f 95/5/4 93/5/4 96/74/4
f 93/5/4 95/5/4 94/75/4
f 93/5/5 90/5/5 96/76/5
f 90/5/5 93/5/5 89/77/5
f 91/2/6 95/3/6 92/11/6
f 95/3/6 91/2/6 94/1/6
f 99/3/1 98/2/1 97/1/1
f 98/3/1 99/2/1 100/1/1
f 101/3/2 99/2/2 97/1/2
f 99/3/2 101/2/2 102/1/2
f 103/5/3 98/5/3 100/78/3
f 98/5/3 103/5/3 104/79/3
f 103/5/4 101/5/4 104/80/4
f 101/5/4 103/5/4 102/81/4
f 101/5/5 98/5/5 104/82/5
f 98/5/5 101/5/5 97/83/5
f 99/2/6 103/3/6 100/11/6
f 103/3/6 99/2/6 102/1/6
f 107/3/1 106/2/1 105/1/1
f 106/3/1 107/2/1 108/1/1
f 109/3/2 107/2/2 105/1/2
f 107/3/2 109/2/2 110/1/2
f 111/5/3 106/5/3 108/84/3
f 106/5/3 111/5/3 112/85/3
f 111/5/4 109/5/4 112/86/4
f 109/5/4 111/5/4 110/87/4
f 109/5/5 106/5/5 112/88/5
f 106/5/5 109/5/5 105/89/5
f 107/2/6 111/3/6 108/11/6
f 111/3/6 107/2/6 110/1/6

usemtl color15

f 4/3/1 9/2/1 2/1/1
f 9/3/1 4/2/1 11/1/1
f 8/3/2 4/2/2 2/1/2
f 4/3/2 8/2/2 7/1/2
f 14/5/3 9/5/3 11/90/3
f 9/5/3 14/5/3 13/91/3
f 14/15/4 8/7/4 13/5/4
f 8/7/4 14/15/4 7/5/4
f 8/9/5 9/17/5 13/5/5
f 9/17/5 8/9/5 2/5/5
f 4/2/6 14/3/6 11/11/6
f 14/3/6 4/2/6 7/1/6

usemtl color12

f 28/3/1 41/2/1 26/1/1
f 41/3/1 28/2/1 43/1/1
f 32/3/2 28/2/2 26/1/2
f 28/3/2 32/2/2 31/1/2
f 46/5/3 41/5/3 43/92/3
f 41/5/3 46/5/3 45/93/3
f 46/39/4 32/26/4 45/5/4
f 32/26/4 46/39/4 31/5/4
f 32/28/5 41/41/5 45/5/5
f 41/41/5 32/28/5 26/5/5
f 28/2/6 46/3/6 43/11/6
f 46/3/6 28/2/6 31/1/6
f 36/3/1 49/2/1 34/1/1
f 49/3/1 36/2/1 51/1/1
f 40/3/2 36/2/2 34/1/2
f 36/3/2 40/2/2 39/1/2
f 54/5/3 49/5/3 51/94/3
f 49/5/3 54/5/3 53/95/3
f 54/45/4 40/32/4 53/5/4
f 40/32/4 54/45/4 39/5/4
f 40/34/5 49/47/5 53/5/5
f 49/47/5 40/34/5 34/5/5
f 36/2/6 54/3/6 51/11/6
f 54/3/6 36/2/6 39/1/6
f 44/3/1 57/2/1 42/1/1
f 57/3/1 44/2/1 59/1/1
f 48/3/2 44/2/2 42/1/2
f 44/3/2 48/2/2 47/1/2
f 62/5/3 57/5/3 59/96/3
f 57/5/3 62/5/3 61/97/3
f 62/51/4 48/38/4 61/5/4
f 48/38/4 62/51/4 47/5/4
f 48/40/5 57/53/5 61/5/5
f 57/53/5 48/40/5 42/5/5
f 44/2/6 62/3/6 59/11/6
f 62/3/6 44/2/6 47/1/6
f 52/3/1 65/2/1 50/1/1
f 65/3/1 52/2/1 67/1/1
f 56/3/2 52/2/2 50/1/2
f 52/3/2 56/2/2 55/1/2
f 70/5/3 65/5/3 67/98/3
f 65/5/3 70/5/3 69/99/3
f 70/57/4 56/44/4 69/5/4
f 56/44/4 70/57/4 55/5/4
f 56/46/5 65/59/5 69/5/5
f 65/59/5 56/46/5 50/5/5
f 52/2/6 70/3/6 67/11/6
f 70/3/6 52/2/6 55/1/6

usemtl color11

f 92/3/1 97/2/1 90/1/1
f 97/3/1 92/2/1 99/1/1
f 96/3/2 92/2/2 90/1/2
f 92/3/2 96/2/2 95/1/2
f 102/5/3 97/5/3 99/100/3
f 97/5/3 102/5/3 101/101/3
f 102/81/4 96/74/4 101/5/4
f 96/74/4 102/81/4 95/5/4
f 96/76/5 97/83/5 101/5/5
f 97/83/5 96/76/5 90/5/5
f 92/2/6 102/3/6 99/11/6
f 102/3/6 92/2/6 95/1/6
f 100/3/1 105/2/1 98/1/1
f 105/3/1 100/2/1 107/1/1
f 104/3/2 100/2/2 98/1/2
f 100/3/2 104/2/2 103/1/2
f 110/5/3 105/5/3 107/102/3
f 105/5/3 110/5/3 109/103/3
f 110/87/4 104/80/4 109/5/4
f 104/80/4 110/87/4 103/5/4
f 104/82/5 105/89/5 109/5/5
f 105/89/5 104/82/5 98/5/5
f 100/2/6 110/3/6 107/11/6
f 110/3/6 100/2/6 103/1/6

usemtl color13

f 12/3/1 17/2/1 10/1/1
f 17/3/1 12/2/1 19/1/1
f 16/3/2 12/2/2 10/1/2
f 12/3/2 16/2/2 15/1/2
f 22/5/3 17/5/3 19/104/3
f 17/5/3 22/5/3 21/105/3
f 22/21/4 16/14/4 21/5/4
f 16/14/4 22/21/4 15/5/4
f 16/16/5 17/23/5 21/5/5
f 17/23/5 16/16/5 10/5/5
f 12/2/6 22/3/6 19/11/6
f 22/3/6 12/2/6 15/1/6
f 20/3/1 113/2/1 18/1/1
f 113/3/1 20/2/1 114/1/1
f 24/3/2 20/2/2 18/1/2
f 20/3/2 24/2/2 23/1/2
f 115/5/3 113/5/3 114/106/3
f 113/5/3 115/5/3 116/107/3
f 115/5/4 24/20/4 116/108/4
f 24/20/4 115/5/4 23/5/4
f 24/22/5 113/5/5 116/109/5
f 113/5/5 24/22/5 18/5/5
f 20/2/6 115/3/6 114/11/6
f 115/3/6 20/2/6 23/1/6

usemtl color5

f 119/3/1 118/2/1 117/1/1
f 118/3/1 119/2/1 120/1/1
f 121/3/2 119/2/2 117/1/2
f 119/3/2 121/2/2 122/1/2
f 123/5/3 118/5/3 120/110/3
f 118/5/3 123/5/3 124/111/3
f 123/5/4 121/5/4 124/112/4
f 121/5/4 123/5/4 122/113/4
f 121/5/5 118/5/5 124/114/5
f 118/5/5 121/5/5 117/115/5
f 119/2/6 123/3/6 120/11/6
f 123/3/6 119/2/6 122/1/6
f 127/3/1 126/2/1 125/1/1
f 126/3/1 127/2/1 128/1/1
f 129/3/2 127/2/2 125/1/2
f 127/3/2 129/2/2 130/1/2
f 131/5/3 126/5/3 128/116/3
f 126/5/3 131/5/3 132/117/3
f 131/5/4 129/5/4 132/118/4
f 129/5/4 131/5/4 130/119/4
f 129/5/5 126/5/5 132/120/5
f 126/5/5 129/5/5 125/121/5
f 127/2/6 131/3/6 128/11/6
f 131/3/6 127/2/6 130/1/6
f 135/3/1 134/2/1 133/1/1
f 134/3/1 135/2/1 136/1/1
f 137/3/2 135/2/2 133/1/2
f 135/3/2 137/2/2 138/1/2
f 139/5/3 134/5/3 136/122/3
f 134/5/3 139/5/3 140/123/3
f 139/5/4 137/5/4 140/124/4
f 137/5/4 139/5/4 138/125/4
f 137/5/5 134/5/5 140/126/5
f 134/5/5 137/5/5 133/127/5
f 135/2/6 139/3/6 136/11/6
f 139/3/6 135/2/6 138/1/6
f 143/3/1 142/2/1 141/1/1
f 142/3/1 143/2/1 144/1/1
f 145/3/2 143/2/2 141/1/2
f 143/3/2 145/2/2 146/1/2
f 147/5/3 142/5/3 144/128/3
f 142/5/3 147/5/3 148/129/3
f 147/5/4 145/5/4 148/130/4
f 145/5/4 147/5/4 146/131/4
f 145/5/5 142/5/5 148/132/5
f 142/5/5 145/5/5 141/133/5
f 143/2/6 147/3/6 144/11/6
f 147/3/6 143/2/6 146/1/6
f 151/3/1 150/2/1 149/1/1
f 150/3/1 151/2/1 152/1/1
f 153/3/2 151/2/2 149/1/2
f 151/3/2 153/2/2 154/1/2
f 155/5/3 150/5/3 152/134/3
f 150/5/3 155/5/3 156/135/3
f 155/5/4 153/5/4 156/136/4
f 153/5/4 155/5/4 154/137/4
f 153/5/5 150/5/5 156/138/5
f 150/5/5 153/5/5 149/139/5
f 151/2/6 155/3/6 152/11/6
f 155/3/6 151/2/6 154/1/6
f 159/3/1 158/2/1 157/1/1
f 158/3/1 159/2/1 160/1/1
f 161/3/2 159/2/2 157/1/2
f 159/3/2 161/2/2 162/1/2
f 163/5/3 158/5/3 160/140/3
f 158/5/3 163/5/3 164/141/3
f 163/5/4 161/5/4 164/142/4
f 161/5/4 163/5/4 162/143/4
f 161/5/5 158/5/5 164/144/5
f 158/5/5 161/5/5 157/145/5
f 159/2/6 163/3/6 160/11/6
f 163/3/6 159/2/6 162/1/6

usemtl color3

f 60/3/1 165/2/1 58/1/1
f 165/3/1 60/2/1 166/1/1
f 64/3/2 60/2/2 58/1/2
f 60/3/2 64/2/2 63/1/2
f 167/5/3 165/5/3 166/146/3
f 165/5/3 167/5/3 168/147/3
f 167/5/4 64/50/4 168/148/4
f 64/50/4 167/5/4 63/5/4
f 64/52/5 165/5/5 168/149/5
f 165/5/5 64/52/5 58/5/5
f 60/2/6 167/3/6 166/11/6
f 167/3/6 60/2/6 63/1/6
f 68/3/1 169/2/1 66/1/1
f 169/3/1 68/2/1 170/1/1
f 72/3/2 68/2/2 66/1/2
f 68/3/2 72/2/2 71/1/2
f 171/5/3 169/5/3 170/150/3
f 169/5/3 171/5/3 172/151/3
f 171/5/4 72/56/4 172/152/4
f 72/56/4 171/5/4 71/5/4
f 72/58/5 169/5/5 172/153/5
f 169/5/5 72/58/5 66/5/5
f 68/2/6 171/3/6 170/11/6
f 171/3/6 68/2/6 71/1/6
f 174/3/1 73/2/1 173/1/1
f 73/3/1 174/2/1 75/1/1
f 175/3/2 174/2/2 173/1/2
f 174/3/2 175/2/2 176/1/2
f 78/5/3 73/5/3 75/154/3
f 73/5/3 78/5/3 77/155/3
f 78/63/4 175/5/4 77/5/4
f 175/5/4 78/63/4 176/156/4
f 175/5/5 73/65/5 77/5/5
f 73/65/5 175/5/5 173/157/5
f 174/2/6 78/3/6 75/11/6
f 78/3/6 174/2/6 176/1/6
f 178/3/1 81/2/1 177/1/1
f 81/3/1 178/2/1 83/1/1
f 179/3/2 178/2/2 177/1/2
f 178/3/2 179/2/2 180/1/2
f 86/5/3 81/5/3 83/158/3
f 81/5/3 86/5/3 85/159/3
f 86/69/4 179/5/4 85/5/4
f 179/5/4 86/69/4 180/160/4
f 179/5/5 81/71/5 85/5/5
f 81/71/5 179/5/5 177/161/5
f 178/2/6 86/3/6 83/11/6
f 86/3/6 178/2/6 180/1/6
f 183/3/1 182/2/1 181/1/1
f 182/3/1 183/2/1 184/1/1
f 185/3/2 183/2/2 181/1/2
f 183/3/2 185/2/2 186/1/2
f 187/5/3 182/5/3 184/162/3
f 182/5/3 187/5/3 188/163/3
f 187/5/4 185/5/4 188/164/4
f 185/5/4 187/5/4 186/165/4
f 185/5/5 182/5/5 188/166/5
f 182/5/5 185/5/5 181/167/5
f 183/2/6 187/3/6 184/11/6
f 187/3/6 183/2/6 186/1/6

usemtl color2

f 108/3/1 189/2/1 106/1/1
f 189/3/1 108/2/1 190/1/1
f 112/3/2 108/2/2 106/1/2
f 108/3/2 112/2/2 111/1/2
f 191/5/3 189/5/3 190/168/3
f 189/5/3 191/5/3 192/169/3
f 191/5/4 112/86/4 192/170/4
f 112/86/4 191/5/4 111/5/4
f 112/88/5 189/5/5 192/171/5
f 189/5/5 112/88/5 106/5/5
f 108/2/6 191/3/6 190/11/6
f 191/3/6 108/2/6 111/1/6
f 194/3/1 181/2/1 193/1/1
f 181/3/1 194/2/1 183/1/1
f 195/3/2 194/2/2 193/1/2
f 194/3/2 195/2/2 196/1/2
f 186/5/3 181/5/3 183/172/3
f 181/5/3 186/5/3 185/173/3
f 186/165/4 195/5/4 185/5/4
f 195/5/4 186/165/4 196/174/4
f 195/5/5 181/167/5 185/5/5
f 181/167/5 195/5/5 193/175/5
f 194/2/6 186/3/6 183/11/6
f 186/3/6 194/2/6 196/1/6

usemtl color7

f 166/3/1 173/2/1 165/1/1
f 173/3/1 166/2/1 174/1/1
f 168/3/2 166/2/2 165/1/2
f 166/3/2 168/2/2 167/1/2
f 176/5/3 173/5/3 174/176/3
f 173/5/3 176/5/3 175/177/3
f 176/156/4 168/148/4 175/5/4
f 168/148/4 176/156/4 167/5/4
f 168/149/5 173/157/5 175/5/5
f 173/157/5 168/149/5 165/5/5
f 166/2/6 176/3/6 174/11/6
f 176/3/6 166/2/6 167/1/6
f 199/3/1 198/2/1 197/1/1
f 198/3/1 199/2/1 200/1/1
f 201/3/2 199/2/2 197/1/2
f 199/3/2 201/2/2 202/1/2
f 203/5/3 198/5/3 200/178/3
f 198/5/3 203/5/3 204/179/3
f 203/5/4 201/5/4 204/180/4
f 201/5/4 203/5/4 202/181/4
f 201/5/5 198/5/5 204/182/5
f 198/5/5 201/5/5 197/183/5
f 199/2/6 203/3/6 200/11/6
f 203/3/6 199/2/6 202/1/6
f 170/3/1 177/2/1 169/1/1
f 177/3/1 170/2/1 178/1/1
f 172/3/2 170/2/2 169/1/2
f 170/3/2 172/2/2 171/1/2
f 180/5/3 177/5/3 178/184/3
f 177/5/3 180/5/3 179/185/3
f 180/160/4 172/152/4 179/5/4
f 172/152/4 180/160/4 171/5/4
f 172/153/5 177/161/5 179/5/5
f 177/161/5 172/153/5 169/5/5
f 170/2/6 180/3/6 178/11/6
f 180/3/6 170/2/6 171/1/6

usemtl color8

f 167/3/1 175/2/1 168/1/1
f 175/3/1 167/2/1 176/1/1
f 205/3/2 167/2/2 168/1/2
f 167/3/2 205/2/2 206/1/2
f 207/5/3 175/177/3 176/5/3
f 175/177/3 207/5/3 208/186/3
f 207/5/4 205/5/4 208/187/4
f 205/5/4 207/5/4 206/188/4
f 205/5/5 175/5/5 208/189/5
f 175/5/5 205/5/5 168/149/5
f 167/2/6 207/3/6 176/11/6
f 207/3/6 167/2/6 206/1/6
f 211/3/1 210/2/1 209/1/1
f 210/3/1 211/2/1 212/1/1
f 169/3/2 211/2/2 209/1/2
f 211/3/2 169/2/2 170/1/2
f 178/184/3 210/5/3 212/190/3
f 210/5/3 178/184/3 177/5/3
f 178/5/4 169/5/4 177/191/4
f 169/5/4 178/5/4 170/192/4
f 169/5/5 210/5/5 177/161/5
f 210/5/5 169/5/5 209/193/5
f 211/2/6 178/3/6 212/11/6
f 178/3/6 211/2/6 170/1/6

