# Created by Kenney (www.kenney.nl)

mtllib Grenade QM7 Parede.mtl

v 1 6 -0.6
v 1 5 -0.6
v 1 6 0.6
v 1 5 0.6
v -1 6 -0.6
v -1 6 0.6
v -1 5 0.6
v -1 5 -0.6
v 0 6 -0.6
v 0 6 0.6
v 0 5 0.6
v 0 5 -0.6
v -1 5 -1.8
v -1 4 -1.8
v -1 5 1.8
v -1 4 1.8
v -2 5 -1.8
v -2 5 1.8
v -2 4 1.8
v -2 4 -1.8
v 3 4 -0.6
v 3 3 -0.6
v 3 4 0.6
v 3 3 0.6
v 2 4 -0.6
v 2 4 0.6
v 2 3 0.6
v 2 3 -0.6
v -2 3 -2.4
v -2 2 -2.4
v -2 3 2.4
v -2 2 2.4
v -3 3 -2.4
v -3 3 2.4
v -3 2 2.4
v -3 2 -2.4
v -3 3 -1.8
v -3 2 -1.8
v -3 3 1.8
v -3 2 1.8
v -4 3 -1.8
v -4 3 1.8
v -4 2 1.8
v -4 2 -1.8
v 2 2 -1.8
v 2 0 -1.8
v 2 2 1.8
v 2 0 1.8
v 1 2 -1.8
v 1 2 1.8
v 1 0 1.8
v 1 0 -1.8
v -1 2 -2.4
v -1 -1 -2.4
v -1 2 2.4
v -1 -1 2.4
v -2 -1 2.4
v -2 -1 -2.4
v 1 0 -2.4
v 1 -1 -2.4
v 1 0 2.4
v 1 -1 2.4
v 0 0 -2.4
v 0 0 2.4
v 0 -1 2.4
v 0 -1 -2.4
v 0 -4 -1.8
v 0 -5 -1.8
v 0 -4 1.8
v 0 -5 1.8
v -3 -4 -1.8
v -3 -4 1.8
v -3 -5 1.8
v -3 -5 -1.8
v -2 6 -0.6
v -2 6 0.6
v -2 5 0.6
v -2 5 -0.6
v 0 5 -1.2
v 0 4 -1.2
v 0 5 1.2
v 0 4 1.2
v -1 5 -1.2
v -1 5 1.2
v -1 4 1.2
v -1 4 -1.2
v 3 1 -0.6
v 3 1 0.6
v 2 1 0.6
v 2 1 -0.6
v -1 3 -2.4
v -1 3 2.4
v 4 1 -0.6
v 4 0 -0.6
v 4 1 0.6
v 4 0 0.6
v 3 0 0.6
v 3 0 -0.6
v 2 -1 -1.8
v 2 -1 1.8
v 1 -1 1.8
v 1 -1 -1.8
v 1 -4 -1.2
v 1 -5 -1.2
v 1 -4 1.2
v 1 -5 1.2
v 0 -4 -1.2
v 0 -4 1.2
v 0 -5 1.2
v 0 -5 -1.2
v 2 5 -0.6
v 2 5 0.6
v 1 4 0.6
v 1 4 -0.6
v 0 4 0.6
v 0 4 -0.6
v -2 4 -0.6
v -2 4 0.6
v -3 5 -0.6
v -3 5 0.6
v -3 4 0.6
v -3 4 -0.6
v 1 2 -2.4
v 1 2 2.4
v 0 2 -2.4
v 0 2 2.4
v -3 0 -1.8
v -3 0 1.8
v -4 0 1.8
v -4 0 -1.8
v -2 0 -2.4
v -2 0 2.4
v -3 0 -2.4
v -3 0 2.4
v -3 -1 2.4
v -3 -1 -2.4
v 1 4 -1.2
v 1 3 -1.2
v 1 4 1.2
v 1 3 1.2
v 0 3 1.2
v 0 3 -1.2
v 0 4 -1.8
v 0 3 -1.8
v 0 4 1.8
v 0 3 1.8
v -1 3 1.8
v -1 3 -1.8
v -2 2 -1.8
v -2 1 -1.8
v -2 2 1.8
v -2 1 1.8
v -3 1 1.8
v -3 1 -1.8
v 1 -1 -1.2
v 1 -3 -1.2
v 1 -1 1.2
v 1 -3 1.2
v 0 -1 -1.2
v 0 -1 1.2
v 0 -3 1.2
v 0 -3 -1.2
v -3 4 -1.8
v -3 4 1.8
v -2 0 -1.8
v -2 0 1.8
v 0 -1 -1.8
v 0 -3 -1.8
v 0 -1 1.8
v 0 -3 1.8
v -2 -1 -1.8
v -2 -1 1.8
v -2 -3 1.8
v -2 -3 -1.8
v 2 3 -1.8
v 2 3 1.8
v 1 3 -1.8
v 1 3 1.8
v 1 3 -2.4
v 1 3 2.4
v 0 3 -2.4
v 0 3 2.4
v -1 -3 -1.8
v -1 -4 -1.8
v -1 -3 1.8
v -1 -4 1.8
v -2 -4 1.8
v -2 -4 -1.8
v 0 1 -2.4
v 0 1 2.4
v -1 1 -2.4
v -1 1 2.4
v -1 0 2.4
v -1 0 -2.4
v -3 -1 -1.8
v -3 -1 1.8
v -3 -3 1.8
v -3 -3 -1.8

vn 1 0 0
vn 0 1 0
vn 0 -1 0
vn -1 0 0
vn 0 0 -1
vn 0 0 1

vt -19.68504 19.68504
vt 19.68504 19.68504
vt -19.68504 -19.68504
vt 0 NaN
vt 0 0
vt 0 NaN
vt 0 NaN
vt 0 NaN
vt 0 NaN
vt 0 NaN
vt 19.68504 -19.68504
vt 0 NaN
vt 0 NaN
vt 0 NaN
vt 0 NaN
vt 0 NaN
vt 0 NaN
vt 0 NaN
vt 0 NaN
vt 0 NaN
vt 0 NaN
vt 0 NaN
vt 0 NaN
vt 0 NaN
vt 0 NaN
vt 0 NaN
vt 0 NaN
vt 0 NaN
vt 0 NaN
vt 0 NaN
vt 0 NaN
vt 0 NaN
vt 0 NaN
vt 0 NaN
vt 0 NaN
vt 0 NaN
vt 0 NaN
vt 0 NaN
vt 0 NaN
vt 0 NaN
vt 0 NaN
vt 0 NaN
vt 0 NaN
vt 0 NaN
vt 0 NaN
vt 0 NaN
vt 0 NaN
vt 0 NaN
vt 0 NaN
vt 0 NaN
vt 0 NaN
vt 0 NaN
vt 0 NaN
vt 0 NaN
vt 0 NaN
vt 0 NaN
vt 0 NaN
vt 0 NaN
vt 0 NaN
vt 0 NaN
vt 0 NaN
vt 0 NaN
vt 0 NaN
vt 0 NaN
vt 0 NaN
vt 0 NaN
vt 0 NaN
vt 0 NaN
vt 0 NaN
vt 0 NaN
vt 0 NaN
vt 0 NaN
vt 0 NaN
vt 0 NaN
vt 0 NaN
vt 0 NaN
vt 0 NaN
vt 0 NaN
vt 0 NaN
vt 0 NaN
vt 0 NaN
vt 0 NaN
vt 0 NaN
vt 0 NaN
vt 0 NaN
vt 0 NaN
vt 0 NaN
vt 0 NaN
vt 0 NaN
vt 0 NaN
vt 0 NaN
vt 0 NaN
vt 0 NaN
vt 0 NaN
vt 0 NaN
vt 0 NaN
vt 0 NaN
vt 0 NaN
vt 0 NaN
vt 0 NaN
vt 0 NaN
vt 0 NaN
vt 0 NaN
vt 0 NaN
vt 0 NaN
vt 0 NaN
vt 0 NaN
vt 0 NaN
vt 0 NaN
vt 0 NaN
vt 0 NaN
vt 0 NaN
vt 0 NaN
vt 0 NaN
vt 0 NaN
vt 0 NaN
vt 0 NaN
vt 0 NaN
vt 0 NaN
vt 0 NaN
vt 0 NaN
vt 0 NaN
vt 0 NaN
vt 0 NaN
vt 0 NaN
vt 0 NaN
vt 0 NaN
vt 0 NaN
vt 0 NaN
vt 0 NaN
vt 0 NaN
vt 0 NaN
vt 0 NaN
vt 0 NaN
vt 0 NaN
vt 0 NaN
vt 0 NaN
vt 0 NaN
vt 0 NaN
vt 0 NaN
vt 0 NaN
vt 0 NaN
vt 0 NaN
vt 0 NaN
vt 0 NaN
vt 0 NaN
vt 0 NaN
vt 0 NaN
vt 0 NaN
vt 0 NaN
vt 0 NaN
vt 0 NaN
vt 0 NaN
vt 0 NaN
vt 0 NaN
vt 0 NaN
vt 0 NaN
vt 0 NaN
vt 0 NaN
vt 0 NaN
vt 0 NaN
vt 0 NaN
vt 0 NaN
vt 0 NaN
vt 0 NaN
vt 0 NaN
vt 0 NaN
vt 0 NaN
vt 0 NaN
vt 0 NaN
vt 0 NaN
vt 0 NaN
vt 0 NaN
vt 0 NaN
vt 0 NaN
vt 0 NaN
vt 0 NaN
vt 0 NaN
vt 0 NaN
vt 0 NaN
vt 0 NaN
vt 0 NaN
vt 0 NaN
vt 0 NaN
vt 0 NaN
vt 0 NaN
vt 0 NaN
vt 0 NaN
vt 0 NaN
vt 0 NaN
vt 0 NaN

usemtl color3

f 3/3/1 2/2/1 1/1/1
f 2/3/1 3/2/1 4/1/1
f 5/3/2 3/2/2 1/1/2
f 3/3/2 5/2/2 6/1/2
f 7/5/3 2/5/3 4/4/3
f 2/5/3 7/5/3 8/6/3
f 7/5/4 5/5/4 8/7/4
f 5/5/4 7/5/4 6/8/4
f 5/5/5 2/5/5 8/9/5
f 2/5/5 5/5/5 1/10/5
f 3/2/6 7/3/6 4/11/6
f 7/3/6 3/2/6 6/1/6
f 3/3/1 2/2/1 1/1/1
f 2/3/1 3/2/1 4/1/1
f 9/3/2 3/2/2 1/1/2
f 3/3/2 9/2/2 10/1/2
f 11/5/3 2/5/3 4/4/3
f 2/5/3 11/5/3 12/12/3
f 11/5/4 9/5/4 12/13/4
f 9/5/4 11/5/4 10/14/4
f 9/5/5 2/5/5 12/15/5
f 2/5/5 9/5/5 1/10/5
f 3/2/6 11/3/6 4/11/6
f 11/3/6 3/2/6 10/1/6
f 15/3/1 14/2/1 13/1/1
f 14/3/1 15/2/1 16/1/1
f 17/3/2 15/2/2 13/1/2
f 15/3/2 17/2/2 18/1/2
f 19/5/3 14/5/3 16/16/3
f 14/5/3 19/5/3 20/17/3
f 19/5/4 17/5/4 20/18/4
f 17/5/4 19/5/4 18/19/4
f 17/5/5 14/5/5 20/20/5
f 14/5/5 17/5/5 13/21/5
f 15/2/6 19/3/6 16/11/6
f 19/3/6 15/2/6 18/1/6
f 23/3/1 22/2/1 21/1/1
f 22/3/1 23/2/1 24/1/1
f 25/3/2 23/2/2 21/1/2
f 23/3/2 25/2/2 26/1/2
f 27/5/3 22/5/3 24/22/3
f 22/5/3 27/5/3 28/23/3
f 27/5/4 25/5/4 28/24/4
f 25/5/4 27/5/4 26/25/4
f 25/5/5 22/5/5 28/26/5
f 22/5/5 25/5/5 21/27/5
f 23/2/6 27/3/6 24/11/6
f 27/3/6 23/2/6 26/1/6
f 31/3/1 30/2/1 29/1/1
f 30/3/1 31/2/1 32/1/1
f 33/3/2 31/2/2 29/1/2
f 31/3/2 33/2/2 34/1/2
f 35/5/3 30/5/3 32/28/3
f 30/5/3 35/5/3 36/29/3
f 35/5/4 33/5/4 36/30/4
f 33/5/4 35/5/4 34/31/4
f 33/5/5 30/5/5 36/32/5
f 30/5/5 33/5/5 29/33/5
f 31/2/6 35/3/6 32/11/6
f 35/3/6 31/2/6 34/1/6
f 39/3/1 38/2/1 37/1/1
f 38/3/1 39/2/1 40/1/1
f 41/3/2 39/2/2 37/1/2
f 39/3/2 41/2/2 42/1/2
f 43/5/3 38/5/3 40/34/3
f 38/5/3 43/5/3 44/35/3
f 43/5/4 41/5/4 44/36/4
f 41/5/4 43/5/4 42/37/4
f 41/5/5 38/5/5 44/38/5
f 38/5/5 41/5/5 37/39/5
f 39/2/6 43/3/6 40/11/6
f 43/3/6 39/2/6 42/1/6
f 47/3/1 46/2/1 45/1/1
f 46/3/1 47/2/1 48/1/1
f 49/3/2 47/2/2 45/1/2
f 47/3/2 49/2/2 50/1/2
f 51/5/3 46/5/3 48/40/3
f 46/5/3 51/5/3 52/41/3
f 51/5/4 49/5/4 52/42/4
f 49/5/4 51/5/4 50/43/4
f 49/5/5 46/5/5 52/44/5
f 46/5/5 49/5/5 45/45/5
f 47/2/6 51/3/6 48/11/6
f 51/3/6 47/2/6 50/1/6
f 55/3/1 54/2/1 53/1/1
f 54/3/1 55/2/1 56/1/1
f 30/3/2 55/2/2 53/1/2
f 55/3/2 30/2/2 32/1/2
f 57/5/3 54/5/3 56/46/3
f 54/5/3 57/5/3 58/47/3
f 57/5/4 30/5/4 58/48/4
f 30/5/4 57/5/4 32/49/4
f 30/5/5 54/5/5 58/50/5
f 54/5/5 30/5/5 53/51/5
f 55/2/6 57/3/6 56/11/6
f 57/3/6 55/2/6 32/1/6
f 61/3/1 60/2/1 59/1/1
f 60/3/1 61/2/1 62/1/1
f 63/3/2 61/2/2 59/1/2
f 61/3/2 63/2/2 64/1/2
f 65/5/3 60/5/3 62/52/3
f 60/5/3 65/5/3 66/53/3
f 65/5/4 63/5/4 66/54/4
f 63/5/4 65/5/4 64/55/4
f 63/5/5 60/5/5 66/56/5
f 60/5/5 63/5/5 59/57/5
f 61/2/6 65/3/6 62/11/6
f 65/3/6 61/2/6 64/1/6
f 69/3/1 68/2/1 67/1/1
f 68/3/1 69/2/1 70/1/1
f 71/3/2 69/2/2 67/1/2
f 69/3/2 71/2/2 72/1/2
f 73/5/3 68/5/3 70/58/3
f 68/5/3 73/5/3 74/59/3
f 73/5/4 71/5/4 74/60/4
f 71/5/4 73/5/4 72/61/4
f 71/5/5 68/5/5 74/62/5
f 68/5/5 71/5/5 67/63/5
f 69/2/6 73/3/6 70/11/6
f 73/3/6 69/2/6 72/1/6

usemtl color2

f 6/3/1 8/2/1 5/1/1
f 8/3/1 6/2/1 7/1/1
f 75/3/2 6/2/2 5/1/2
f 6/3/2 75/2/2 76/1/2
f 77/5/3 8/6/3 7/5/3
f 8/6/3 77/5/3 78/64/3
f 77/5/4 75/5/4 78/65/4
f 75/5/4 77/5/4 76/66/4
f 75/5/5 8/9/5 78/67/5
f 8/9/5 75/5/5 5/5/5
f 6/2/6 77/3/6 7/11/6
f 77/3/6 6/2/6 76/1/6
f 81/3/1 80/2/1 79/1/1
f 80/3/1 81/2/1 82/1/1
f 83/3/2 81/2/2 79/1/2
f 81/3/2 83/2/2 84/1/2
f 85/5/3 80/5/3 82/68/3
f 80/5/3 85/5/3 86/69/3
f 85/5/4 83/5/4 86/70/4
f 83/5/4 85/5/4 84/71/4
f 83/5/5 80/5/5 86/72/5
f 80/5/5 83/5/5 79/73/5
f 81/2/6 85/3/6 82/11/6
f 85/3/6 81/2/6 84/1/6
f 24/3/1 87/2/1 22/1/1
f 87/3/1 24/2/1 88/1/1
f 28/3/2 24/2/2 22/1/2
f 24/3/2 28/2/2 27/1/2
f 89/5/3 87/5/3 88/74/3
f 87/5/3 89/5/3 90/75/3
f 89/5/4 28/24/4 90/76/4
f 28/24/4 89/5/4 27/5/4
f 28/26/5 87/5/5 90/77/5
f 87/5/5 28/26/5 22/5/5
f 24/2/6 89/3/6 88/11/6
f 89/3/6 24/2/6 27/1/6
f 92/3/1 53/2/1 91/1/1
f 53/3/1 92/2/1 55/1/1
f 29/3/2 92/2/2 91/1/2
f 92/3/2 29/2/2 31/1/2
f 32/28/3 53/5/3 55/78/3
f 53/5/3 32/28/3 30/5/3
f 32/49/4 29/5/4 30/5/4
f 29/5/4 32/49/4 31/79/4
f 29/33/5 53/51/5 30/5/5
f 53/51/5 29/33/5 91/80/5
f 92/2/6 32/3/6 55/11/6
f 32/3/6 92/2/6 31/1/6
f 95/3/1 94/2/1 93/1/1
f 94/3/1 95/2/1 96/1/1
f 87/3/2 95/2/2 93/1/2
f 95/3/2 87/2/2 88/1/2
f 97/5/3 94/5/3 96/81/3
f 94/5/3 97/5/3 98/82/3
f 97/5/4 87/5/4 98/83/4
f 87/5/4 97/5/4 88/84/4
f 87/5/5 94/5/5 98/85/5
f 94/5/5 87/5/5 93/86/5
f 95/2/6 97/3/6 96/11/6
f 97/3/6 95/2/6 88/1/6
f 48/3/1 99/2/1 46/1/1
f 99/3/1 48/2/1 100/1/1
f 52/3/2 48/2/2 46/1/2
f 48/3/2 52/2/2 51/1/2
f 101/5/3 99/5/3 100/87/3
f 99/5/3 101/5/3 102/88/3
f 101/5/4 52/42/4 102/89/4
f 52/42/4 101/5/4 51/5/4
f 52/44/5 99/5/5 102/90/5
f 99/5/5 52/44/5 46/5/5
f 48/2/6 101/3/6 100/11/6
f 101/3/6 48/2/6 51/1/6
f 105/3/1 104/2/1 103/1/1
f 104/3/1 105/2/1 106/1/1
f 107/3/2 105/2/2 103/1/2
f 105/3/2 107/2/2 108/1/2
f 109/5/3 104/5/3 106/91/3
f 104/5/3 109/5/3 110/92/3
f 109/5/4 107/5/4 110/93/4
f 107/5/4 109/5/4 108/94/4
f 107/5/5 104/5/5 110/95/5
f 104/5/5 107/5/5 103/96/5
f 105/2/6 109/3/6 106/11/6
f 109/3/6 105/2/6 108/1/6

usemtl color13

f 112/3/1 25/2/1 111/1/1
f 25/3/1 112/2/1 26/1/1
f 2/3/2 112/2/2 111/1/2
f 112/3/2 2/2/2 4/1/2
f 113/5/3 25/5/3 26/97/3
f 25/5/3 113/5/3 114/98/3
f 113/5/4 2/5/4 114/99/4
f 2/5/4 113/5/4 4/100/4
f 2/5/5 25/5/5 114/101/5
f 25/5/5 2/5/5 111/102/5
f 112/2/6 113/3/6 26/11/6
f 113/3/6 112/2/6 4/1/6

usemtl color11

f 4/3/1 114/2/1 2/1/1
f 114/3/1 4/2/1 113/1/1
f 12/3/2 4/2/2 2/1/2
f 4/3/2 12/2/2 11/1/2
f 115/5/3 114/98/3 113/5/3
f 114/98/3 115/5/3 116/103/3
f 115/5/4 12/13/4 116/104/4
f 12/13/4 115/5/4 11/5/4
f 12/15/5 114/101/5 116/105/5
f 114/101/5 12/15/5 2/5/5
f 4/2/6 115/3/6 113/11/6
f 115/3/6 4/2/6 11/1/6
f 77/3/1 117/2/1 78/1/1
f 117/3/1 77/2/1 118/1/1
f 119/3/2 77/2/2 78/1/2
f 77/3/2 119/2/2 120/1/2
f 121/5/3 117/5/3 118/106/3
f 117/5/3 121/5/3 122/107/3
f 121/5/4 119/5/4 122/108/4
f 119/5/4 121/5/4 120/109/4
f 119/5/5 117/5/5 122/110/5
f 117/5/5 119/5/5 78/67/5
f 77/2/6 121/3/6 118/11/6
f 121/3/6 77/2/6 120/1/6
f 124/3/1 59/2/1 123/1/1
f 59/3/1 124/2/1 61/1/1
f 125/3/2 124/2/2 123/1/2
f 124/3/2 125/2/2 126/1/2
f 64/5/3 59/5/3 61/111/3
f 59/5/3 64/5/3 63/112/3
f 64/55/4 125/5/4 63/5/4
f 125/5/4 64/55/4 126/113/4
f 125/5/5 59/57/5 63/5/5
f 59/57/5 125/5/5 123/114/5
f 124/2/6 64/3/6 61/11/6
f 64/3/6 124/2/6 126/1/6
f 40/3/1 127/2/1 38/1/1
f 127/3/1 40/2/1 128/1/1
f 44/3/2 40/2/2 38/1/2
f 40/3/2 44/2/2 43/1/2
f 129/5/3 127/5/3 128/115/3
f 127/5/3 129/5/3 130/116/3
f 129/5/4 44/36/4 130/117/4
f 44/36/4 129/5/4 43/5/4
f 44/38/5 127/5/5 130/118/5
f 127/5/5 44/38/5 38/5/5
f 40/2/6 129/3/6 128/11/6
f 129/3/6 40/2/6 43/1/6
f 132/3/1 58/2/1 131/1/1
f 58/3/1 132/2/1 57/1/1
f 133/3/2 132/2/2 131/1/2
f 132/3/2 133/2/2 134/1/2
f 135/5/3 58/47/3 57/5/3
f 58/47/3 135/5/3 136/119/3
f 135/5/4 133/5/4 136/120/4
f 133/5/4 135/5/4 134/121/4
f 133/5/5 58/50/5 136/122/5
f 58/50/5 133/5/5 131/123/5
f 132/2/6 135/3/6 57/11/6
f 135/3/6 132/2/6 134/1/6

usemtl color7

f 139/3/1 138/2/1 137/1/1
f 138/3/1 139/2/1 140/1/1
f 80/3/2 139/2/2 137/1/2
f 139/3/2 80/2/2 82/1/2
f 141/5/3 138/5/3 140/124/3
f 138/5/3 141/5/3 142/125/3
f 141/5/4 80/5/4 142/126/4
f 80/5/4 141/5/4 82/127/4
f 80/5/5 138/5/5 142/128/5
f 138/5/5 80/5/5 137/129/5
f 139/2/6 141/3/6 140/11/6
f 141/3/6 139/2/6 82/1/6
f 145/3/1 144/2/1 143/1/1
f 144/3/1 145/2/1 146/1/1
f 14/3/2 145/2/2 143/1/2
f 145/3/2 14/2/2 16/1/2
f 147/5/3 144/5/3 146/130/3
f 144/5/3 147/5/3 148/131/3
f 147/5/4 14/5/4 148/132/4
f 14/5/4 147/5/4 16/133/4
f 14/5/5 144/5/5 148/134/5
f 144/5/5 14/5/5 143/135/5
f 145/2/6 147/3/6 146/11/6
f 147/3/6 145/2/6 16/1/6
f 151/3/1 150/2/1 149/1/1
f 150/3/1 151/2/1 152/1/1
f 38/3/2 151/2/2 149/1/2
f 151/3/2 38/2/2 40/1/2
f 153/5/3 150/5/3 152/136/3
f 150/5/3 153/5/3 154/137/3
f 153/5/4 38/5/4 154/138/4
f 38/5/4 153/5/4 40/139/4
f 38/5/5 150/5/5 154/140/5
f 150/5/5 38/5/5 149/141/5
f 151/2/6 153/3/6 152/11/6
f 153/3/6 151/2/6 40/1/6
f 157/3/1 156/2/1 155/1/1
f 156/3/1 157/2/1 158/1/1
f 159/3/2 157/2/2 155/1/2
f 157/3/2 159/2/2 160/1/2
f 161/5/3 156/5/3 158/142/3
f 156/5/3 161/5/3 162/143/3
f 161/5/4 159/5/4 162/144/4
f 159/5/4 161/5/4 160/145/4
f 159/5/5 156/5/5 162/146/5
f 156/5/5 159/5/5 155/147/5
f 157/2/6 161/3/6 158/11/6
f 161/3/6 157/2/6 160/1/6

usemtl color8

f 16/3/1 148/2/1 14/1/1
f 148/3/1 16/2/1 147/1/1
f 163/3/2 16/2/2 14/1/2
f 16/3/2 163/2/2 164/1/2
f 39/5/3 148/131/3 147/5/3
f 148/131/3 39/5/3 37/148/3
f 39/5/4 163/5/4 37/149/4
f 163/5/4 39/5/4 164/150/4
f 163/5/5 148/134/5 37/39/5
f 148/134/5 163/5/5 14/5/5
f 16/2/6 39/3/6 147/11/6
f 39/3/6 16/2/6 164/1/6
f 152/3/1 165/2/1 150/1/1
f 165/3/1 152/2/1 166/1/1
f 154/3/2 152/2/2 150/1/2
f 152/3/2 154/2/2 153/1/2
f 128/115/3 165/5/3 166/151/3
f 165/5/3 128/115/3 127/5/3
f 128/5/4 154/138/4 127/152/4
f 154/138/4 128/5/4 153/5/4
f 154/140/5 165/5/5 127/5/5
f 165/5/5 154/140/5 150/5/5
f 152/2/6 128/3/6 166/11/6
f 128/3/6 152/2/6 153/1/6
f 169/3/1 168/2/1 167/1/1
f 168/3/1 169/2/1 170/1/1
f 171/3/2 169/2/2 167/1/2
f 169/3/2 171/2/2 172/1/2
f 173/5/3 168/5/3 170/153/3
f 168/5/3 173/5/3 174/154/3
f 173/5/4 171/5/4 174/155/4
f 171/5/4 173/5/4 172/156/4
f 171/5/5 168/5/5 174/157/5
f 168/5/5 171/5/5 167/158/5
f 169/2/6 173/3/6 170/11/6
f 173/3/6 169/2/6 172/1/6

usemtl color4

f 176/3/1 45/2/1 175/1/1
f 45/3/1 176/2/1 47/1/1
f 177/3/2 176/2/2 175/1/2
f 176/3/2 177/2/2 178/1/2
f 50/5/3 45/5/3 47/159/3
f 45/5/3 50/5/3 49/160/3
f 50/43/4 177/5/4 49/5/4
f 177/5/4 50/43/4 178/161/4
f 177/5/5 45/45/5 49/5/5
f 45/45/5 177/5/5 175/162/5
f 176/2/6 50/3/6 47/11/6
f 50/3/6 176/2/6 178/1/6
f 158/3/1 103/2/1 156/1/1
f 103/3/1 158/2/1 105/1/1
f 162/3/2 158/2/2 156/1/2
f 158/3/2 162/2/2 161/1/2
f 108/5/3 103/5/3 105/163/3
f 103/5/3 108/5/3 107/164/3
f 108/94/4 162/144/4 107/5/4
f 162/144/4 108/94/4 161/5/4
f 162/146/5 103/96/5 107/5/5
f 103/96/5 162/146/5 156/5/5
f 158/2/6 108/3/6 105/11/6
f 108/3/6 158/2/6 161/1/6

usemtl color6

f 180/3/1 123/2/1 179/1/1
f 123/3/1 180/2/1 124/1/1
f 181/3/2 180/2/2 179/1/2
f 180/3/2 181/2/2 182/1/2
f 126/5/3 123/5/3 124/165/3
f 123/5/3 126/5/3 125/166/3
f 126/113/4 181/5/4 125/5/4
f 181/5/4 126/113/4 182/167/4
f 181/5/5 123/114/5 125/5/5
f 123/114/5 181/5/5 179/168/5
f 180/2/6 126/3/6 124/11/6
f 126/3/6 180/2/6 182/1/6
f 185/3/1 184/2/1 183/1/1
f 184/3/1 185/2/1 186/1/1
f 174/3/2 185/2/2 183/1/2
f 185/3/2 174/2/2 173/1/2
f 187/5/3 184/5/3 186/169/3
f 184/5/3 187/5/3 188/170/3
f 187/5/4 174/155/4 188/171/4
f 174/155/4 187/5/4 173/5/4
f 174/157/5 184/5/5 188/172/5
f 184/5/5 174/157/5 183/173/5
f 185/2/6 187/3/6 186/11/6
f 187/3/6 185/2/6 173/1/6

usemtl color12

f 182/3/1 125/2/1 181/1/1
f 125/3/1 182/2/1 126/1/1
f 91/3/2 182/2/2 181/1/2
f 182/3/2 91/2/2 92/1/2
f 55/78/3 125/166/3 126/5/3
f 125/166/3 55/78/3 53/5/3
f 55/5/4 91/5/4 53/174/4
f 91/5/4 55/5/4 92/175/4
f 91/80/5 125/5/5 53/51/5
f 125/5/5 91/80/5 181/5/5
f 182/2/6 55/3/6 126/11/6
f 55/3/6 182/2/6 92/1/6
f 190/3/1 63/2/1 189/1/1
f 63/3/1 190/2/1 64/1/1
f 191/3/2 190/2/2 189/1/2
f 190/3/2 191/2/2 192/1/2
f 193/5/3 63/112/3 64/5/3
f 63/112/3 193/5/3 194/176/3
f 193/5/4 191/5/4 194/177/4
f 191/5/4 193/5/4 192/178/4
f 191/5/5 63/5/5 194/179/5
f 63/5/5 191/5/5 189/180/5
f 190/2/6 193/3/6 64/11/6
f 193/3/6 190/2/6 192/1/6

usemtl color10

f 126/3/1 189/2/1 125/1/1
f 189/3/1 126/2/1 190/1/1
f 53/3/2 126/2/2 125/1/2
f 126/3/2 53/2/2 55/1/2
f 192/5/3 189/5/3 190/181/3
f 189/5/3 192/5/3 191/182/3
f 192/178/4 53/174/4 191/5/4
f 53/174/4 192/178/4 55/5/4
f 53/51/5 189/180/5 191/5/5
f 189/180/5 53/51/5 125/5/5
f 126/2/6 192/3/6 190/11/6
f 192/3/6 126/2/6 55/1/6
f 64/3/1 66/2/1 63/1/1
f 66/3/1 64/2/1 65/1/1
f 194/3/2 64/2/2 63/1/2
f 64/3/2 194/2/2 193/1/2
f 56/46/3 66/53/3 65/5/3
f 66/53/3 56/46/3 54/5/3
f 56/5/4 194/177/4 54/183/4
f 194/177/4 56/5/4 193/5/4
f 194/179/5 66/56/5 54/5/5
f 66/56/5 194/179/5 63/5/5
f 64/2/6 56/3/6 65/11/6
f 56/3/6 64/2/6 193/1/6

usemtl color9

f 172/3/1 174/2/1 171/1/1
f 174/3/1 172/2/1 173/1/1
f 195/3/2 172/2/2 171/1/2
f 172/3/2 195/2/2 196/1/2
f 197/5/3 174/154/3 173/5/3
f 174/154/3 197/5/3 198/184/3
f 197/5/4 195/5/4 198/185/4
f 195/5/4 197/5/4 196/186/4
f 195/5/5 174/157/5 198/187/5
f 174/157/5 195/5/5 171/5/5
f 172/2/6 197/3/6 173/11/6
f 197/3/6 172/2/6 196/1/6

usemtl color5

f 170/3/1 67/2/1 168/1/1
f 67/3/1 170/2/1 69/1/1
f 183/3/2 170/2/2 168/1/2
f 170/3/2 183/2/2 185/1/2
f 186/169/3 67/5/3 69/188/3
f 67/5/3 186/169/3 184/5/3
f 186/5/4 183/5/4 184/189/4
f 183/5/4 186/5/4 185/190/4
f 183/173/5 67/63/5 184/5/5
f 67/63/5 183/173/5 168/5/5
f 170/2/6 186/3/6 69/11/6
f 186/3/6 170/2/6 185/1/6
f 173/3/1 188/2/1 174/1/1
f 188/3/1 173/2/1 187/1/1
f 198/3/2 173/2/2 174/1/2
f 173/3/2 198/2/2 197/1/2
f 72/5/3 188/170/3 187/5/3
f 188/170/3 72/5/3 71/191/3
f 72/61/4 198/185/4 71/5/4
f 198/185/4 72/61/4 197/5/4
f 198/187/5 188/172/5 71/5/5
f 188/172/5 198/187/5 174/157/5
f 173/2/6 72/3/6 187/11/6
f 72/3/6 173/2/6 197/1/6

