# Created by Kenney (www.kenney.nl)

mtllib Grenade 2F6 Loheckle.mtl

v 2 5 -0.5
v 2 4 -0.5
v 2 5 0.5
v 2 4 0.5
v 1 5 -0.5
v 1 5 0.5
v 1 4 0.5
v 1 4 -0.5
v -1 5 -0.5
v -1 4 -0.5
v -1 5 0.5
v -1 4 0.5
v -2 5 -0.5
v -2 5 0.5
v -2 4 0.5
v -2 4 -0.5
v 3 4 -0.5
v 3 3 -0.5
v 3 4 0.5
v 3 3 0.5
v 2 3 0.5
v 2 3 -0.5
v 1 4 -1.5
v 1 3 -1.5
v 1 4 1.5
v 1 3 1.5
v 0 4 -1.5
v 0 4 1.5
v 0 3 1.5
v 0 3 -1.5
v 4 1 -0.5
v 4 0 -0.5
v 4 1 0.5
v 4 0 0.5
v 3 1 -0.5
v 3 1 0.5
v 3 0 0.5
v 3 0 -0.5
v 1 5 -1
v 1 4 -1
v 1 5 1
v 1 4 1
v -1 5 -1
v -1 5 1
v -1 4 1
v -1 4 -1
v 4 4 -0.5
v 4 4 0.5
v 2 4 -1
v 2 3 -1
v 2 4 1
v 2 3 1
v 1 3 1
v 1 3 -1
v -1 3 -1
v -1 3 1
v -2 4 -1
v -2 4 1
v -2 3 1
v -2 3 -1
v 3 3 -1
v 3 2 -1
v 3 3 1
v 3 2 1
v 2 2 1
v 2 2 -1
v 4 -2 -0.5
v 4 -2 0.5
v 3 -2 0.5
v 3 -2 -0.5
v 0 4 -2
v 0 3 -2
v 0 4 2
v 0 3 2
v -1 4 -2
v -1 4 2
v -1 3 2
v -1 3 -2
v 2 3 -1.5
v 2 2 -1.5
v 2 3 1.5
v 2 2 1.5
v 1 2 1.5
v 1 2 -1.5
v -1 3 -1.5
v -1 2 -1.5
v -1 3 1.5
v -1 2 1.5
v -2 3 -1.5
v -2 3 1.5
v -2 2 1.5
v -2 2 -1.5
v 3 2 -1.5
v 3 1 -1.5
v 3 2 1.5
v 3 1 1.5
v 2 1 1.5
v 2 1 -1.5
v 3 0 -1.5
v 3 -1 -1.5
v 3 0 1.5
v 3 -1 1.5
v 2 0 -1.5
v 2 0 1.5
v 2 -1 1.5
v 2 -1 -1.5
v 3 -2 -1.5
v 3 -3 -1.5
v 3 -2 1.5
v 3 -3 1.5
v 2 -2 -1.5
v 2 -2 1.5
v 2 -3 1.5
v 2 -3 -1.5
v 1 3 -2
v 1 2 -2
v 1 3 2
v 1 2 2
v -1 2 2
v -1 2 -2
v -2 1 -1.5
v -2 1 1.5
v -3 2 -1.5
v -3 2 1.5
v -3 1 1.5
v -3 1 -1.5
v 1 0 -3
v 1 -1 -3
v 1 0 3
v 1 -1 3
v -1 0 -3
v -1 0 3
v -1 -1 3
v -1 -1 -3
v -2 0 -1.5
v -2 -1 -1.5
v -2 0 1.5
v -2 -1 1.5
v -3 0 -1.5
v -3 0 1.5
v -3 -1 1.5
v -3 -1 -1.5
v 1 -2 -3
v 1 -3 -3
v 1 -2 3
v 1 -3 3
v -1 -2 -3
v -1 -2 3
v -1 -3 3
v -1 -3 -3
v -2 -2 -1.5
v -2 -3 -1.5
v -2 -2 1.5
v -2 -3 1.5
v -3 -2 -1.5
v -3 -2 1.5
v -3 -3 1.5
v -3 -3 -1.5
v 2 2 -2.5
v 2 1 -2.5
v 2 2 2.5
v 2 1 2.5
v 1 2 -2.5
v 1 2 2.5
v 1 1 2.5
v 1 1 -2.5
v -1 2 -2.5
v -1 1 -2.5
v -1 2 2.5
v -1 1 2.5
v -2 2 -2.5
v -2 2 2.5
v -2 1 2.5
v -2 1 -2.5
v 3 1 -1
v 3 0 -1
v 3 1 1
v 3 0 1
v 2 1 -1
v 2 1 1
v 2 0 1
v 2 0 -1
v 1 0 -2.5
v 1 0 2.5
v -1 0 2.5
v -1 0 -2.5
v -2 1 -1
v -2 0 -1
v -2 1 1
v -2 0 1
v -3 1 -1
v -3 1 1
v -3 0 1
v -3 0 -1
v 2 0 -2.5
v 2 -1 -2.5
v 2 0 2.5
v 2 -1 2.5
v 1 -1 2.5
v 1 -1 -2.5
v -1 -1 -2.5
v -1 -1 2.5
v -2 0 -2.5
v -2 0 2.5
v -2 -1 2.5
v -2 -1 -2.5
v 3 -1 -1
v 3 -2 -1
v 3 -1 1
v 3 -2 1
v 2 -1 -1
v 2 -1 1
v 2 -2 1
v 2 -2 -1
v 1 -2 -2.5
v 1 -2 2.5
v -1 -2 2.5
v -1 -2 -2.5
v -2 -1 -1
v -2 -2 -1
v -2 -1 1
v -2 -2 1
v -3 -1 -1
v -3 -1 1
v -3 -2 1
v -3 -2 -1
v 2 -2 -2.5
v 2 -3 -2.5
v 2 -2 2.5
v 2 -3 2.5
v 1 -3 2.5
v 1 -3 -2.5
v -1 -3 -2.5
v -1 -3 2.5
v -2 -2 -2.5
v -2 -2 2.5
v -2 -3 2.5
v -2 -3 -2.5
v 1 -3 -2
v 1 -4 -2
v 1 -3 2
v 1 -4 2
v -1 -3 -2
v -1 -3 2
v -1 -4 2
v -1 -4 -2
v 1 2 -3
v 1 1 -3
v 1 2 3
v 1 1 3
v -1 2 -3
v -1 2 3
v -1 1 3
v -1 1 -3
v 2 1 -2
v 2 0 -2
v 2 1 2
v 2 0 2
v 1 1 -2
v 1 1 2
v 1 0 2
v 1 0 -2
v -1 1 -2
v -1 0 -2
v -1 1 2
v -1 0 2
v -2 1 -2
v -2 1 2
v -2 0 2
v -2 0 -2
v 2 -1 -2
v 2 -2 -2
v 2 -1 2
v 2 -2 2
v 1 -1 -2
v 1 -1 2
v 1 -2 2
v 1 -2 -2
v -1 -1 -2
v -1 -2 -2
v -1 -1 2
v -1 -2 2
v -2 -1 -2
v -2 -1 2
v -2 -2 2
v -2 -2 -2
v 2 -4 -1.5
v 2 -4 1.5
v 1 -3 -1.5
v 1 -3 1.5
v 1 -4 1.5
v 1 -4 -1.5
v -1 -3 -1.5
v -1 -4 -1.5
v -1 -3 1.5
v -1 -4 1.5
v -2 -4 1.5
v -2 -4 -1.5

vn 1 0 0
vn 0 1 0
vn 0 -1 0
vn -1 0 0
vn 0 0 -1
vn 0 0 1

vt -19.68504 19.68504
vt 19.68504 19.68504
vt -19.68504 -19.68504
vt 0 NaN
vt 0 0
vt 0 NaN
vt 0 NaN
vt 0 NaN
vt 0 NaN
vt 0 NaN
vt 19.68504 -19.68504
vt 0 NaN
vt 0 NaN
vt 0 NaN
vt 0 NaN
vt 0 NaN
vt 0 NaN
vt 0 NaN
vt 0 NaN
vt 0 NaN
vt 0 NaN
vt 0 NaN
vt 0 NaN
vt 0 NaN
vt 0 NaN
vt 0 NaN
vt 0 NaN
vt 0 NaN
vt 0 NaN
vt 0 NaN
vt 0 NaN
vt 0 NaN
vt 0 NaN
vt 0 NaN
vt 0 NaN
vt 0 NaN
vt 0 NaN
vt 0 NaN
vt 0 NaN
vt 0 NaN
vt 0 NaN
vt 0 NaN
vt 0 NaN
vt 0 NaN
vt 0 NaN
vt 0 NaN
vt 0 NaN
vt 0 NaN
vt 0 NaN
vt 0 NaN
vt 0 NaN
vt 0 NaN
vt 0 NaN
vt 0 NaN
vt 0 NaN
vt 0 NaN
vt 0 NaN
vt 0 NaN
vt 0 NaN
vt 0 NaN
vt 0 NaN
vt 0 NaN
vt 0 NaN
vt 0 NaN
vt 0 NaN
vt 0 NaN
vt 0 NaN
vt 0 NaN
vt 0 NaN
vt 0 NaN
vt 0 NaN
vt 0 NaN
vt 0 NaN
vt 0 NaN
vt 0 NaN
vt 0 NaN
vt 0 NaN
vt 0 NaN
vt 0 NaN
vt 0 NaN
vt 0 NaN
vt 0 NaN
vt 0 NaN
vt 0 NaN
vt 0 NaN
vt 0 NaN
vt 0 NaN
vt 0 NaN
vt 0 NaN
vt 0 NaN
vt 0 NaN
vt 0 NaN
vt 0 NaN
vt 0 NaN
vt 0 NaN
vt 0 NaN
vt 0 NaN
vt 0 NaN
vt 0 NaN
vt 0 NaN
vt 0 NaN
vt 0 NaN
vt 0 NaN
vt 0 NaN
vt 0 NaN
vt 0 NaN
vt 0 NaN
vt 0 NaN
vt 0 NaN
vt 0 NaN
vt 0 NaN
vt 0 NaN
vt 0 NaN
vt 0 NaN
vt 0 NaN
vt 0 NaN
vt 0 NaN
vt 0 NaN
vt 0 NaN
vt 0 NaN
vt 0 NaN
vt 0 NaN
vt 0 NaN
vt 0 NaN
vt 0 NaN
vt 0 NaN
vt 0 NaN
vt 0 NaN
vt 0 NaN
vt 0 NaN
vt 0 NaN
vt 0 NaN
vt 0 NaN
vt 0 NaN
vt 0 NaN
vt 0 NaN
vt 0 NaN
vt 0 NaN
vt 0 NaN
vt 0 NaN
vt 0 NaN
vt 0 NaN
vt 0 NaN
vt 0 NaN
vt 0 NaN
vt 0 NaN
vt 0 NaN
vt 0 NaN
vt 0 NaN
vt 0 NaN
vt 0 NaN
vt 0 NaN
vt 0 NaN
vt 0 NaN
vt 0 NaN
vt 0 NaN
vt 0 NaN
vt 0 NaN
vt 0 NaN
vt 0 NaN
vt 0 NaN
vt 0 NaN
vt 0 NaN
vt 0 NaN
vt 0 NaN
vt 0 NaN
vt 0 NaN
vt 0 NaN
vt 0 NaN
vt 0 NaN
vt 0 NaN
vt 0 NaN
vt 0 NaN
vt 0 NaN
vt 0 NaN
vt 0 NaN
vt 0 NaN
vt 0 NaN
vt 0 NaN
vt 0 NaN
vt 0 NaN
vt 0 NaN
vt 0 NaN
vt 0 NaN
vt 0 NaN
vt 0 NaN
vt 0 NaN
vt 0 NaN
vt 0 NaN
vt 0 NaN
vt 0 NaN
vt 0 NaN
vt 0 NaN
vt 0 NaN
vt 0 NaN
vt 0 NaN
vt 0 NaN
vt 0 NaN
vt 0 NaN
vt 0 NaN
vt 0 NaN
vt 0 NaN
vt 0 NaN
vt 0 NaN
vt 0 NaN
vt 0 NaN
vt 0 NaN
vt 0 NaN
vt 0 NaN
vt 0 NaN
vt 0 NaN
vt 0 NaN
vt 0 NaN
vt 0 NaN
vt 0 NaN
vt 0 NaN
vt 0 NaN
vt 0 NaN
vt 0 NaN
vt 0 NaN
vt 0 NaN
vt 0 NaN
vt 0 NaN
vt 0 NaN
vt 0 NaN
vt 0 NaN
vt 0 NaN
vt 0 NaN
vt 0 NaN
vt 0 NaN
vt 0 NaN
vt 0 NaN
vt 0 NaN
vt 0 NaN
vt 0 NaN
vt 0 NaN
vt 0 NaN
vt 0 NaN
vt 0 NaN
vt 0 NaN
vt 0 NaN
vt 0 NaN
vt 0 NaN
vt 0 NaN
vt 0 NaN
vt 0 NaN
vt 0 NaN
vt 0 NaN
vt 0 NaN
vt 0 NaN
vt 0 NaN

usemtl color6

f 3/3/1 2/2/1 1/1/1
f 2/3/1 3/2/1 4/1/1
f 5/3/2 3/2/2 1/1/2
f 3/3/2 5/2/2 6/1/2
f 7/5/3 2/5/3 4/4/3
f 2/5/3 7/5/3 8/6/3
f 7/5/4 5/5/4 8/7/4
f 5/5/4 7/5/4 6/8/4
f 5/5/5 2/5/5 8/9/5
f 2/5/5 5/5/5 1/10/5
f 3/2/6 7/3/6 4/11/6
f 7/3/6 3/2/6 6/1/6
f 11/3/1 10/2/1 9/1/1
f 10/3/1 11/2/1 12/1/1
f 13/3/2 11/2/2 9/1/2
f 11/3/2 13/2/2 14/1/2
f 15/5/3 10/5/3 12/12/3
f 10/5/3 15/5/3 16/13/3
f 15/5/4 13/5/4 16/14/4
f 13/5/4 15/5/4 14/15/4
f 13/5/5 10/5/5 16/16/5
f 10/5/5 13/5/5 9/17/5
f 11/2/6 15/3/6 12/11/6
f 15/3/6 11/2/6 14/1/6
f 3/3/1 2/2/1 1/1/1
f 2/3/1 3/2/1 4/1/1
f 5/3/2 3/2/2 1/1/2
f 3/3/2 5/2/2 6/1/2
f 7/5/3 2/5/3 4/4/3
f 2/5/3 7/5/3 8/6/3
f 7/5/4 5/5/4 8/7/4
f 5/5/4 7/5/4 6/8/4
f 5/5/5 2/5/5 8/9/5
f 2/5/5 5/5/5 1/10/5
f 3/2/6 7/3/6 4/11/6
f 7/3/6 3/2/6 6/1/6
f 19/3/1 18/2/1 17/1/1
f 18/3/1 19/2/1 20/1/1
f 2/3/2 19/2/2 17/1/2
f 19/3/2 2/2/2 4/1/2
f 21/5/3 18/5/3 20/18/3
f 18/5/3 21/5/3 22/19/3
f 21/5/4 2/5/4 22/20/4
f 2/5/4 21/5/4 4/21/4
f 2/5/5 18/5/5 22/22/5
f 18/5/5 2/5/5 17/23/5
f 19/2/6 21/3/6 20/11/6
f 21/3/6 19/2/6 4/1/6
f 25/3/1 24/2/1 23/1/1
f 24/3/1 25/2/1 26/1/1
f 27/3/2 25/2/2 23/1/2
f 25/3/2 27/2/2 28/1/2
f 29/5/3 24/5/3 26/24/3
f 24/5/3 29/5/3 30/25/3
f 29/5/4 27/5/4 30/26/4
f 27/5/4 29/5/4 28/27/4
f 27/5/5 24/5/5 30/28/5
f 24/5/5 27/5/5 23/29/5
f 25/2/6 29/3/6 26/11/6
f 29/3/6 25/2/6 28/1/6
f 33/3/1 32/2/1 31/1/1
f 32/3/1 33/2/1 34/1/1
f 35/3/2 33/2/2 31/1/2
f 33/3/2 35/2/2 36/1/2
f 37/5/3 32/5/3 34/30/3
f 32/5/3 37/5/3 38/31/3
f 37/5/4 35/5/4 38/32/4
f 35/5/4 37/5/4 36/33/4
f 35/5/5 32/5/5 38/34/5
f 32/5/5 35/5/5 31/35/5
f 33/2/6 37/3/6 34/11/6
f 37/3/6 33/2/6 36/1/6

usemtl color7

f 41/3/1 40/2/1 39/1/1
f 40/3/1 41/2/1 42/1/1
f 43/3/2 41/2/2 39/1/2
f 41/3/2 43/2/2 44/1/2
f 45/5/3 40/5/3 42/36/3
f 40/5/3 45/5/3 46/37/3
f 45/5/4 43/5/4 46/38/4
f 43/5/4 45/5/4 44/39/4
f 43/5/5 40/5/5 46/40/5
f 40/5/5 43/5/5 39/41/5
f 41/2/6 45/3/6 42/11/6
f 45/3/6 41/2/6 44/1/6
f 48/3/1 31/2/1 47/1/1
f 31/3/1 48/2/1 33/1/1
f 17/3/2 48/2/2 47/1/2
f 48/3/2 17/2/2 19/1/2
f 36/5/3 31/5/3 33/42/3
f 31/5/3 36/5/3 35/43/3
f 36/33/4 17/5/4 35/5/4
f 17/5/4 36/33/4 19/44/4
f 17/23/5 31/35/5 35/5/5
f 31/35/5 17/23/5 47/45/5
f 48/2/6 36/3/6 33/11/6
f 36/3/6 48/2/6 19/1/6

usemtl color5

f 51/3/1 50/2/1 49/1/1
f 50/3/1 51/2/1 52/1/1
f 40/3/2 51/2/2 49/1/2
f 51/3/2 40/2/2 42/1/2
f 53/5/3 50/5/3 52/46/3
f 50/5/3 53/5/3 54/47/3
f 53/5/4 40/5/4 54/48/4
f 40/5/4 53/5/4 42/49/4
f 40/5/5 50/5/5 54/50/5
f 50/5/5 40/5/5 49/51/5
f 51/2/6 53/3/6 52/11/6
f 53/3/6 51/2/6 42/1/6
f 45/3/1 55/2/1 46/1/1
f 55/3/1 45/2/1 56/1/1
f 57/3/2 45/2/2 46/1/2
f 45/3/2 57/2/2 58/1/2
f 59/5/3 55/5/3 56/52/3
f 55/5/3 59/5/3 60/53/3
f 59/5/4 57/5/4 60/54/4
f 57/5/4 59/5/4 58/55/4
f 57/5/5 55/5/5 60/56/5
f 55/5/5 57/5/5 46/40/5
f 45/2/6 59/3/6 56/11/6
f 59/3/6 45/2/6 58/1/6
f 63/3/1 62/2/1 61/1/1
f 62/3/1 63/2/1 64/1/1
f 50/3/2 63/2/2 61/1/2
f 63/3/2 50/2/2 52/1/2
f 65/5/3 62/5/3 64/57/3
f 62/5/3 65/5/3 66/58/3
f 65/5/4 50/5/4 66/59/4
f 50/5/4 65/5/4 52/60/4
f 50/5/5 62/5/5 66/61/5
f 62/5/5 50/5/5 61/62/5
f 63/2/6 65/3/6 64/11/6
f 65/3/6 63/2/6 52/1/6
f 34/3/1 67/2/1 32/1/1
f 67/3/1 34/2/1 68/1/1
f 38/3/2 34/2/2 32/1/2
f 34/3/2 38/2/2 37/1/2
f 69/5/3 67/5/3 68/63/3
f 67/5/3 69/5/3 70/64/3
f 69/5/4 38/32/4 70/65/4
f 38/32/4 69/5/4 37/5/4
f 38/34/5 67/5/5 70/66/5
f 67/5/5 38/34/5 32/5/5
f 34/2/6 69/3/6 68/11/6
f 69/3/6 34/2/6 37/1/6

usemtl color9

f 73/3/1 72/2/1 71/1/1
f 72/3/1 73/2/1 74/1/1
f 75/3/2 73/2/2 71/1/2
f 73/3/2 75/2/2 76/1/2
f 77/5/3 72/5/3 74/67/3
f 72/5/3 77/5/3 78/68/3
f 77/5/4 75/5/4 78/69/4
f 75/5/4 77/5/4 76/70/4
f 75/5/5 72/5/5 78/71/5
f 72/5/5 75/5/5 71/72/5
f 73/2/6 77/3/6 74/11/6
f 77/3/6 73/2/6 76/1/6

usemtl color3

f 81/3/1 80/2/1 79/1/1
f 80/3/1 81/2/1 82/1/1
f 24/3/2 81/2/2 79/1/2
f 81/3/2 24/2/2 26/1/2
f 83/5/3 80/5/3 82/73/3
f 80/5/3 83/5/3 84/74/3
f 83/5/4 24/5/4 84/75/4
f 24/5/4 83/5/4 26/76/4
f 24/5/5 80/5/5 84/77/5
f 80/5/5 24/5/5 79/78/5
f 81/2/6 83/3/6 82/11/6
f 83/3/6 81/2/6 26/1/6
f 87/3/1 86/2/1 85/1/1
f 86/3/1 87/2/1 88/1/1
f 89/3/2 87/2/2 85/1/2
f 87/3/2 89/2/2 90/1/2
f 91/5/3 86/5/3 88/79/3
f 86/5/3 91/5/3 92/80/3
f 91/5/4 89/5/4 92/81/4
f 89/5/4 91/5/4 90/82/4
f 89/5/5 86/5/5 92/83/5
f 86/5/5 89/5/5 85/84/5
f 87/2/6 91/3/6 88/11/6
f 91/3/6 87/2/6 90/1/6
f 95/3/1 94/2/1 93/1/1
f 94/3/1 95/2/1 96/1/1
f 80/3/2 95/2/2 93/1/2
f 95/3/2 80/2/2 82/1/2
f 97/5/3 94/5/3 96/85/3
f 94/5/3 97/5/3 98/86/3
f 97/5/4 80/5/4 98/87/4
f 80/5/4 97/5/4 82/88/4
f 80/5/5 94/5/5 98/89/5
f 94/5/5 80/5/5 93/90/5
f 95/2/6 97/3/6 96/11/6
f 97/3/6 95/2/6 82/1/6
f 101/3/1 100/2/1 99/1/1
f 100/3/1 101/2/1 102/1/1
f 103/3/2 101/2/2 99/1/2
f 101/3/2 103/2/2 104/1/2
f 105/5/3 100/5/3 102/91/3
f 100/5/3 105/5/3 106/92/3
f 105/5/4 103/5/4 106/93/4
f 103/5/4 105/5/4 104/94/4
f 103/5/5 100/5/5 106/95/5
f 100/5/5 103/5/5 99/96/5
f 101/2/6 105/3/6 102/11/6
f 105/3/6 101/2/6 104/1/6
f 109/3/1 108/2/1 107/1/1
f 108/3/1 109/2/1 110/1/1
f 111/3/2 109/2/2 107/1/2
f 109/3/2 111/2/2 112/1/2
f 113/5/3 108/5/3 110/97/3
f 108/5/3 113/5/3 114/98/3
f 113/5/4 111/5/4 114/99/4
f 111/5/4 113/5/4 112/100/4
f 111/5/5 108/5/5 114/101/5
f 108/5/5 111/5/5 107/102/5
f 109/2/6 113/3/6 110/11/6
f 113/3/6 109/2/6 112/1/6

usemtl color4

f 117/3/1 116/2/1 115/1/1
f 116/3/1 117/2/1 118/1/1
f 78/3/2 117/2/2 115/1/2
f 117/3/2 78/2/2 77/1/2
f 119/5/3 116/5/3 118/103/3
f 116/5/3 119/5/3 120/104/3
f 119/5/4 78/69/4 120/105/4
f 78/69/4 119/5/4 77/5/4
f 78/71/5 116/5/5 120/106/5
f 116/5/5 78/71/5 115/107/5
f 117/2/6 119/3/6 118/11/6
f 119/3/6 117/2/6 77/1/6
f 91/3/1 121/2/1 92/1/1
f 121/3/1 91/2/1 122/1/1
f 123/3/2 91/2/2 92/1/2
f 91/3/2 123/2/2 124/1/2
f 125/5/3 121/5/3 122/108/3
f 121/5/3 125/5/3 126/109/3
f 125/5/4 123/5/4 126/110/4
f 123/5/4 125/5/4 124/111/4
f 123/5/5 121/5/5 126/112/5
f 121/5/5 123/5/5 92/83/5
f 91/2/6 125/3/6 122/11/6
f 125/3/6 91/2/6 124/1/6
f 129/3/1 128/2/1 127/1/1
f 128/3/1 129/2/1 130/1/1
f 131/3/2 129/2/2 127/1/2
f 129/3/2 131/2/2 132/1/2
f 133/5/3 128/5/3 130/113/3
f 128/5/3 133/5/3 134/114/3
f 133/5/4 131/5/4 134/115/4
f 131/5/4 133/5/4 132/116/4
f 131/5/5 128/5/5 134/117/5
f 128/5/5 131/5/5 127/118/5
f 129/2/6 133/3/6 130/11/6
f 133/3/6 129/2/6 132/1/6
f 137/3/1 136/2/1 135/1/1
f 136/3/1 137/2/1 138/1/1
f 139/3/2 137/2/2 135/1/2
f 137/3/2 139/2/2 140/1/2
f 141/5/3 136/5/3 138/119/3
f 136/5/3 141/5/3 142/120/3
f 141/5/4 139/5/4 142/121/4
f 139/5/4 141/5/4 140/122/4
f 139/5/5 136/5/5 142/123/5
f 136/5/5 139/5/5 135/124/5
f 137/2/6 141/3/6 138/11/6
f 141/3/6 137/2/6 140/1/6
f 145/3/1 144/2/1 143/1/1
f 144/3/1 145/2/1 146/1/1
f 147/3/2 145/2/2 143/1/2
f 145/3/2 147/2/2 148/1/2
f 149/5/3 144/5/3 146/125/3
f 144/5/3 149/5/3 150/126/3
f 149/5/4 147/5/4 150/127/4
f 147/5/4 149/5/4 148/128/4
f 147/5/5 144/5/5 150/129/5
f 144/5/5 147/5/5 143/130/5
f 145/2/6 149/3/6 146/11/6
f 149/3/6 145/2/6 148/1/6
f 153/3/1 152/2/1 151/1/1
f 152/3/1 153/2/1 154/1/1
f 155/3/2 153/2/2 151/1/2
f 153/3/2 155/2/2 156/1/2
f 157/5/3 152/5/3 154/131/3
f 152/5/3 157/5/3 158/132/3
f 157/5/4 155/5/4 158/133/4
f 155/5/4 157/5/4 156/134/4
f 155/5/5 152/5/5 158/135/5
f 152/5/5 155/5/5 151/136/5
f 153/2/6 157/3/6 154/11/6
f 157/3/6 153/2/6 156/1/6

usemtl color2

f 161/3/1 160/2/1 159/1/1
f 160/3/1 161/2/1 162/1/1
f 163/3/2 161/2/2 159/1/2
f 161/3/2 163/2/2 164/1/2
f 165/5/3 160/5/3 162/137/3
f 160/5/3 165/5/3 166/138/3
f 165/5/4 163/5/4 166/139/4
f 163/5/4 165/5/4 164/140/4
f 163/5/5 160/5/5 166/141/5
f 160/5/5 163/5/5 159/142/5
f 161/2/6 165/3/6 162/11/6
f 165/3/6 161/2/6 164/1/6
f 169/3/1 168/2/1 167/1/1
f 168/3/1 169/2/1 170/1/1
f 171/3/2 169/2/2 167/1/2
f 169/3/2 171/2/2 172/1/2
f 173/5/3 168/5/3 170/143/3
f 168/5/3 173/5/3 174/144/3
f 173/5/4 171/5/4 174/145/4
f 171/5/4 173/5/4 172/146/4
f 171/5/5 168/5/5 174/147/5
f 168/5/5 171/5/5 167/148/5
f 169/2/6 173/3/6 170/11/6
f 173/3/6 169/2/6 172/1/6
f 177/3/1 176/2/1 175/1/1
f 176/3/1 177/2/1 178/1/1
f 179/3/2 177/2/2 175/1/2
f 177/3/2 179/2/2 180/1/2
f 181/5/3 176/5/3 178/149/3
f 176/5/3 181/5/3 182/150/3
f 181/5/4 179/5/4 182/151/4
f 179/5/4 181/5/4 180/152/4
f 179/5/5 176/5/5 182/153/5
f 176/5/5 179/5/5 175/154/5
f 177/2/6 181/3/6 178/11/6
f 181/3/6 177/2/6 180/1/6
f 165/3/1 183/2/1 166/1/1
f 183/3/1 165/2/1 184/1/1
f 168/3/2 165/2/2 166/1/2
f 165/3/2 168/2/2 170/1/2
f 185/5/3 183/5/3 184/155/3
f 183/5/3 185/5/3 186/156/3
f 185/5/4 168/5/4 186/157/4
f 168/5/4 185/5/4 170/158/4
f 168/5/5 183/5/5 186/159/5
f 183/5/5 168/5/5 166/141/5
f 165/2/6 185/3/6 184/11/6
f 185/3/6 165/2/6 170/1/6
f 189/3/1 188/2/1 187/1/1
f 188/3/1 189/2/1 190/1/1
f 191/3/2 189/2/2 187/1/2
f 189/3/2 191/2/2 192/1/2
f 193/5/3 188/5/3 190/160/3
f 188/5/3 193/5/3 194/161/3
f 193/5/4 191/5/4 194/162/4
f 191/5/4 193/5/4 192/163/4
f 191/5/5 188/5/5 194/164/5
f 188/5/5 191/5/5 187/165/5
f 189/2/6 193/3/6 190/11/6
f 193/3/6 189/2/6 192/1/6
f 197/3/1 196/2/1 195/1/1
f 196/3/1 197/2/1 198/1/1
f 183/3/2 197/2/2 195/1/2
f 197/3/2 183/2/2 184/1/2
f 199/5/3 196/5/3 198/166/3
f 196/5/3 199/5/3 200/167/3
f 199/5/4 183/5/4 200/168/4
f 183/5/4 199/5/4 184/169/4
f 183/5/5 196/5/5 200/170/5
f 196/5/5 183/5/5 195/171/5
f 197/2/6 199/3/6 198/11/6
f 199/3/6 197/2/6 184/1/6
f 185/3/1 201/2/1 186/1/1
f 201/3/1 185/2/1 202/1/1
f 203/3/2 185/2/2 186/1/2
f 185/3/2 203/2/2 204/1/2
f 205/5/3 201/5/3 202/172/3
f 201/5/3 205/5/3 206/173/3
f 205/5/4 203/5/4 206/174/4
f 203/5/4 205/5/4 204/175/4
f 203/5/5 201/5/5 206/176/5
f 201/5/5 203/5/5 186/159/5
f 185/2/6 205/3/6 202/11/6
f 205/3/6 185/2/6 204/1/6
f 209/3/1 208/2/1 207/1/1
f 208/3/1 209/2/1 210/1/1
f 211/3/2 209/2/2 207/1/2
f 209/3/2 211/2/2 212/1/2
f 213/5/3 208/5/3 210/177/3
f 208/5/3 213/5/3 214/178/3
f 213/5/4 211/5/4 214/179/4
f 211/5/4 213/5/4 212/180/4
f 211/5/5 208/5/5 214/181/5
f 208/5/5 211/5/5 207/182/5
f 209/2/6 213/3/6 210/11/6
f 213/3/6 209/2/6 212/1/6
f 199/3/1 215/2/1 200/1/1
f 215/3/1 199/2/1 216/1/1
f 201/3/2 199/2/2 200/1/2
f 199/3/2 201/2/2 202/1/2
f 217/5/3 215/5/3 216/183/3
f 215/5/3 217/5/3 218/184/3
f 217/5/4 201/5/4 218/185/4
f 201/5/4 217/5/4 202/186/4
f 201/5/5 215/5/5 218/187/5
f 215/5/5 201/5/5 200/170/5
f 199/2/6 217/3/6 216/11/6
f 217/3/6 199/2/6 202/1/6
f 221/3/1 220/2/1 219/1/1
f 220/3/1 221/2/1 222/1/1
f 223/3/2 221/2/2 219/1/2
f 221/3/2 223/2/2 224/1/2
f 225/5/3 220/5/3 222/188/3
f 220/5/3 225/5/3 226/189/3
f 225/5/4 223/5/4 226/190/4
f 223/5/4 225/5/4 224/191/4
f 223/5/5 220/5/5 226/192/5
f 220/5/5 223/5/5 219/193/5
f 221/2/6 225/3/6 222/11/6
f 225/3/6 221/2/6 224/1/6
f 229/3/1 228/2/1 227/1/1
f 228/3/1 229/2/1 230/1/1
f 215/3/2 229/2/2 227/1/2
f 229/3/2 215/2/2 216/1/2
f 231/5/3 228/5/3 230/194/3
f 228/5/3 231/5/3 232/195/3
f 231/5/4 215/5/4 232/196/4
f 215/5/4 231/5/4 216/197/4
f 215/5/5 228/5/5 232/198/5
f 228/5/5 215/5/5 227/199/5
f 229/2/6 231/3/6 230/11/6
f 231/3/6 229/2/6 216/1/6
f 217/3/1 233/2/1 218/1/1
f 233/3/1 217/2/1 234/1/1
f 235/3/2 217/2/2 218/1/2
f 217/3/2 235/2/2 236/1/2
f 237/5/3 233/5/3 234/200/3
f 233/5/3 237/5/3 238/201/3
f 237/5/4 235/5/4 238/202/4
f 235/5/4 237/5/4 236/203/4
f 235/5/5 233/5/5 238/204/5
f 233/5/5 235/5/5 218/187/5
f 217/2/6 237/3/6 234/11/6
f 237/3/6 217/2/6 236/1/6
f 241/3/1 240/2/1 239/1/1
f 240/3/1 241/2/1 242/1/1
f 243/3/2 241/2/2 239/1/2
f 241/3/2 243/2/2 244/1/2
f 245/5/3 240/5/3 242/205/3
f 240/5/3 245/5/3 246/206/3
f 245/5/4 243/5/4 246/207/4
f 243/5/4 245/5/4 244/208/4
f 243/5/5 240/5/5 246/209/5
f 240/5/5 243/5/5 239/210/5
f 241/2/6 245/3/6 242/11/6
f 245/3/6 241/2/6 244/1/6

usemtl color8

f 249/3/1 248/2/1 247/1/1
f 248/3/1 249/2/1 250/1/1
f 251/3/2 249/2/2 247/1/2
f 249/3/2 251/2/2 252/1/2
f 253/5/3 248/5/3 250/211/3
f 248/5/3 253/5/3 254/212/3
f 253/5/4 251/5/4 254/213/4
f 251/5/4 253/5/4 252/214/4
f 251/5/5 248/5/5 254/215/5
f 248/5/5 251/5/5 247/216/5
f 249/2/6 253/3/6 250/11/6
f 253/3/6 249/2/6 252/1/6

usemtl color1

f 257/3/1 256/2/1 255/1/1
f 256/3/1 257/2/1 258/1/1
f 259/3/2 257/2/2 255/1/2
f 257/3/2 259/2/2 260/1/2
f 261/5/3 256/5/3 258/217/3
f 256/5/3 261/5/3 262/218/3
f 261/5/4 259/5/4 262/219/4
f 259/5/4 261/5/4 260/220/4
f 259/5/5 256/5/5 262/221/5
f 256/5/5 259/5/5 255/222/5
f 257/2/6 261/3/6 258/11/6
f 261/3/6 257/2/6 260/1/6
f 265/3/1 264/2/1 263/1/1
f 264/3/1 265/2/1 266/1/1
f 267/3/2 265/2/2 263/1/2
f 265/3/2 267/2/2 268/1/2
f 269/5/3 264/5/3 266/223/3
f 264/5/3 269/5/3 270/224/3
f 269/5/4 267/5/4 270/225/4
f 267/5/4 269/5/4 268/226/4
f 267/5/5 264/5/5 270/227/5
f 264/5/5 267/5/5 263/228/5
f 265/2/6 269/3/6 266/11/6
f 269/3/6 265/2/6 268/1/6
f 273/3/1 272/2/1 271/1/1
f 272/3/1 273/2/1 274/1/1
f 275/3/2 273/2/2 271/1/2
f 273/3/2 275/2/2 276/1/2
f 277/5/3 272/5/3 274/229/3
f 272/5/3 277/5/3 278/230/3
f 277/5/4 275/5/4 278/231/4
f 275/5/4 277/5/4 276/232/4
f 275/5/5 272/5/5 278/233/5
f 272/5/5 275/5/5 271/234/5
f 273/2/6 277/3/6 274/11/6
f 277/3/6 273/2/6 276/1/6
f 281/3/1 280/2/1 279/1/1
f 280/3/1 281/2/1 282/1/1
f 283/3/2 281/2/2 279/1/2
f 281/3/2 283/2/2 284/1/2
f 285/5/3 280/5/3 282/235/3
f 280/5/3 285/5/3 286/236/3
f 285/5/4 283/5/4 286/237/4
f 283/5/4 285/5/4 284/238/4
f 283/5/5 280/5/5 286/239/5
f 280/5/5 283/5/5 279/240/5
f 281/2/6 285/3/6 282/11/6
f 285/3/6 281/2/6 284/1/6
f 113/3/1 287/2/1 114/1/1
f 287/3/1 113/2/1 288/1/1
f 289/3/2 113/2/2 114/1/2
f 113/3/2 289/2/2 290/1/2
f 291/5/3 287/5/3 288/241/3
f 287/5/3 291/5/3 292/242/3
f 291/5/4 289/5/4 292/243/4
f 289/5/4 291/5/4 290/244/4
f 289/5/5 287/5/5 292/245/5
f 287/5/5 289/5/5 114/101/5
f 113/2/6 291/3/6 288/11/6
f 291/3/6 113/2/6 290/1/6
f 295/3/1 294/2/1 293/1/1
f 294/3/1 295/2/1 296/1/1
f 152/3/2 295/2/2 293/1/2
f 295/3/2 152/2/2 154/1/2
f 297/5/3 294/5/3 296/246/3
f 294/5/3 297/5/3 298/247/3
f 297/5/4 152/5/4 298/248/4
f 152/5/4 297/5/4 154/249/4
f 152/5/5 294/5/5 298/250/5
f 294/5/5 152/5/5 293/251/5
f 295/2/6 297/3/6 296/11/6
f 297/3/6 295/2/6 154/1/6

