# Created by Kenney (www.kenney.nl)

mtllib Grenade MKR Nekmit.mtl

v 1 5 -0.55
v 1 4 -0.55
v 1 5 0.55
v 1 4 0.55
v 0 5 -0.55
v 0 5 0.55
v 0 4 0.55
v 0 4 -0.55
v 2 4 -0.55
v 2 3 -0.55
v 2 4 0.55
v 2 3 0.55
v 1 3 0.55
v 1 3 -0.55
v -1 4 -0.55
v -1 3 -0.55
v -1 4 0.55
v -1 3 0.55
v -2 4 -0.55
v -2 4 0.55
v -2 3 0.55
v -2 3 -0.55
v 3 3 -0.55
v 3 1 -0.55
v 3 3 0.55
v 3 1 0.55
v 2 1 0.55
v 2 1 -0.55
v -2 5 -0.55
v -2 5 0.55
v 0 3 0.55
v 0 3 -0.55
v 2 2 -0.55
v 2 2 0.55
v 1 2 0.55
v 1 2 -0.55
v 3 0 -0.55
v 3 -2 -0.55
v 3 0 0.55
v 3 -2 0.55
v 2 0 -0.55
v 2 0 0.55
v 2 -2 0.55
v 2 -2 -0.55
v 0 4 -1.1
v 0 3 -1.1
v 0 4 1.1
v 0 3 1.1
v -1 4 -1.1
v -1 4 1.1
v -1 3 1.1
v -1 3 -1.1
v 1 3 -1.1
v 1 2 -1.1
v 1 3 1.1
v 1 2 1.1
v 0 2 1.1
v 0 2 -1.1
v -1 2 -1.1
v -1 2 1.1
v -2 3 -1.1
v -2 3 1.1
v -2 2 1.1
v -2 2 -1.1
v 1 1 0.55
v 1 1 -0.55
v 0 -2 -2.2
v 0 -3 -2.2
v 0 -2 2.2
v 0 -3 2.2
v -1 -2 -2.2
v -1 -2 2.2
v -1 -3 2.2
v -1 -3 -2.2
v -2 -2 -0.55
v -2 -3 -0.55
v -2 -2 0.55
v -2 -3 0.55
v -3 -2 -0.55
v -3 -2 0.55
v -3 -3 0.55
v -3 -3 -0.55
v 0 3 -1.65
v 0 2 -1.65
v 0 3 1.65
v 0 2 1.65
v -1 3 -1.65
v -1 3 1.65
v -1 2 1.65
v -1 2 -1.65
v -2 2 -0.55
v -2 1 -0.55
v -2 2 0.55
v -2 1 0.55
v -3 2 -0.55
v -3 2 0.55
v -3 1 0.55
v -3 1 -0.55
v 0 0 -2.75
v 0 -1 -2.75
v 0 0 2.75
v 0 -1 2.75
v -1 0 -2.75
v -1 0 2.75
v -1 -1 2.75
v -1 -1 -2.75
v -2 0 -0.55
v -2 -1 -0.55
v -2 0 0.55
v -2 -1 0.55
v -3 0 -0.55
v -3 0 0.55
v -3 -1 0.55
v -3 -1 -0.55
v 1 2 -1.65
v 1 1 -1.65
v 1 2 1.65
v 1 1 1.65
v 0 1 1.65
v 0 1 -1.65
v -1 1 -1.65
v -1 1 1.65
v -2 2 -1.65
v -2 2 1.65
v -2 1 1.65
v -2 1 -1.65
v 2 1 -1.1
v 2 0 -1.1
v 2 1 1.1
v 2 0 1.1
v 1 1 -1.1
v 1 1 1.1
v 1 0 1.1
v 1 0 -1.1
v 0 1 -2.75
v 0 1 2.75
v -1 1 -2.75
v -1 1 2.75
v -2 1 -1.1
v -2 0 -1.1
v -2 1 1.1
v -2 0 1.1
v -3 1 -1.1
v -3 1 1.1
v -3 0 1.1
v -3 0 -1.1
v 1 0 -2.2
v 1 -1 -2.2
v 1 0 2.2
v 1 -1 2.2
v 0 0 -2.2
v 0 0 2.2
v 0 -1 2.2
v 0 -1 -2.2
v -1 0 -2.2
v -1 -1 -2.2
v -1 0 2.2
v -1 -1 2.2
v -2 0 -2.2
v -2 0 2.2
v -2 -1 2.2
v -2 -1 -2.2
v 2 -1 -1.1
v 2 -2 -1.1
v 2 -1 1.1
v 2 -2 1.1
v 1 -1 -1.1
v 1 -1 1.1
v 1 -2 1.1
v 1 -2 -1.1
v 0 -2 -2.75
v 0 -2 2.75
v -1 -2 2.75
v -1 -2 -2.75
v -2 -1 -1.1
v -2 -2 -1.1
v -2 -1 1.1
v -2 -2 1.1
v -3 -1 -1.1
v -3 -1 1.1
v -3 -2 1.1
v -3 -2 -1.1
v 1 -2 -1.65
v 1 -3 -1.65
v 1 -2 1.65
v 1 -3 1.65
v 0 -2 -1.65
v 0 -2 1.65
v 0 -3 1.65
v 0 -3 -1.65
v -1 -2 -1.65
v -1 -3 -1.65
v -1 -2 1.65
v -1 -3 1.65
v -2 -2 -1.65
v -2 -2 1.65
v -2 -3 1.65
v -2 -3 -1.65
v 0 2 -2.2
v 0 1 -2.2
v 0 2 2.2
v 0 1 2.2
v -1 2 -2.2
v -1 2 2.2
v -1 1 2.2
v -1 1 -2.2
v 1 1 -2.2
v 1 1 2.2
v -2 1 -2.2
v -2 1 2.2
v 1 -2 -2.2
v 1 -2 2.2
v -2 -2 2.2
v -2 -2 -2.2
v 1 -3 -1.1
v 1 -4 -1.1
v 1 -3 1.1
v 1 -4 1.1
v 0 -3 -1.1
v 0 -3 1.1
v 0 -4 1.1
v 0 -4 -1.1
v -1 -3 -1.1
v -1 -4 -1.1
v -1 -3 1.1
v -1 -4 1.1
v -2 -3 -1.1
v -2 -3 1.1
v -2 -4 1.1
v -2 -4 -1.1
v 2 -1 -0.55
v 2 -1 0.55
v 1 0 -0.55
v 1 0 0.55
v 1 -1 0.55
v 1 -1 -0.55
v 2 -3 -0.55
v 2 -3 0.55
v 1 -2 -0.55
v 1 -2 0.55
v 1 -3 0.55
v 1 -3 -0.55
v 0 -4 -1.65
v 0 -4 1.65
v -1 -4 1.65
v -1 -4 -1.65

vn 1 0 0
vn 0 1 0
vn 0 -1 0
vn -1 0 0
vn 0 0 -1
vn 0 0 1

vt -19.68504 19.68504
vt 19.68504 19.68504
vt -19.68504 -19.68504
vt 0 NaN
vt 0 0
vt 0 NaN
vt 0 NaN
vt 0 NaN
vt 0 NaN
vt 0 NaN
vt 19.68504 -19.68504
vt 0 NaN
vt 0 NaN
vt 0 NaN
vt 0 NaN
vt 0 NaN
vt 0 NaN
vt 0 NaN
vt 0 NaN
vt 0 NaN
vt 0 NaN
vt 0 NaN
vt 0 NaN
vt 0 NaN
vt 0 NaN
vt 0 NaN
vt 0 NaN
vt 0 NaN
vt 0 NaN
vt 0 NaN
vt 0 NaN
vt 0 NaN
vt 0 NaN
vt 0 NaN
vt 0 NaN
vt 0 NaN
vt 0 NaN
vt 0 NaN
vt 0 NaN
vt 0 NaN
vt 0 NaN
vt 0 NaN
vt 0 NaN
vt 0 NaN
vt 0 NaN
vt 0 NaN
vt 0 NaN
vt 0 NaN
vt 0 NaN
vt 0 NaN
vt 0 NaN
vt 0 NaN
vt 0 NaN
vt 0 NaN
vt 0 NaN
vt 0 NaN
vt 0 NaN
vt 0 NaN
vt 0 NaN
vt 0 NaN
vt 0 NaN
vt 0 NaN
vt 0 NaN
vt 0 NaN
vt 0 NaN
vt 0 NaN
vt 0 NaN
vt 0 NaN
vt 0 NaN
vt 0 NaN
vt 0 NaN
vt 0 NaN
vt 0 NaN
vt 0 NaN
vt 0 NaN
vt 0 NaN
vt 0 NaN
vt 0 NaN
vt 0 NaN
vt 0 NaN
vt 0 NaN
vt 0 NaN
vt 0 NaN
vt 0 NaN
vt 0 NaN
vt 0 NaN
vt 0 NaN
vt 0 NaN
vt 0 NaN
vt 0 NaN
vt 0 NaN
vt 0 NaN
vt 0 NaN
vt 0 NaN
vt 0 NaN
vt 0 NaN
vt 0 NaN
vt 0 NaN
vt 0 NaN
vt 0 NaN
vt 0 NaN
vt 0 NaN
vt 0 NaN
vt 0 NaN
vt 0 NaN
vt 0 NaN
vt 0 NaN
vt 0 NaN
vt 0 NaN
vt 0 NaN
vt 0 NaN
vt 0 NaN
vt 0 NaN
vt 0 NaN
vt 0 NaN
vt 0 NaN
vt 0 NaN
vt 0 NaN
vt 0 NaN
vt 0 NaN
vt 0 NaN
vt 0 NaN
vt 0 NaN
vt 0 NaN
vt 0 NaN
vt 0 NaN
vt 0 NaN
vt 0 NaN
vt 0 NaN
vt 0 NaN
vt 0 NaN
vt 0 NaN
vt 0 NaN
vt 0 NaN
vt 0 NaN
vt 0 NaN
vt 0 NaN
vt 0 NaN
vt 0 NaN
vt 0 NaN
vt 0 NaN
vt 0 NaN
vt 0 NaN
vt 0 NaN
vt 0 NaN
vt 0 NaN
vt 0 NaN
vt 0 NaN
vt 0 NaN
vt 0 NaN
vt 0 NaN
vt 0 NaN
vt 0 NaN
vt 0 NaN
vt 0 NaN
vt 0 NaN
vt 0 NaN
vt 0 NaN
vt 0 NaN
vt 0 NaN
vt 0 NaN
vt 0 NaN
vt 0 NaN
vt 0 NaN
vt 0 NaN
vt 0 NaN
vt 0 NaN
vt 0 NaN
vt 0 NaN
vt 0 NaN
vt 0 NaN
vt 0 NaN
vt 0 NaN
vt 0 NaN
vt 0 NaN
vt 0 NaN
vt 0 NaN
vt 0 NaN
vt 0 NaN
vt 0 NaN
vt 0 NaN
vt 0 NaN
vt 0 NaN
vt 0 NaN
vt 0 NaN
vt 0 NaN
vt 0 NaN
vt 0 NaN
vt 0 NaN
vt 0 NaN
vt 0 NaN
vt 0 NaN
vt 0 NaN
vt 0 NaN
vt 0 NaN
vt 0 NaN
vt 0 NaN
vt 0 NaN
vt 0 NaN
vt 0 NaN
vt 0 NaN
vt 0 NaN
vt 0 NaN
vt 0 NaN
vt 0 NaN
vt 0 NaN
vt 0 NaN
vt 0 NaN
vt 0 NaN
vt 0 NaN
vt 0 NaN
vt 0 NaN
vt 0 NaN
vt 0 NaN
vt 0 NaN
vt 0 NaN

usemtl color8

f 3/3/1 2/2/1 1/1/1
f 2/3/1 3/2/1 4/1/1
f 5/3/2 3/2/2 1/1/2
f 3/3/2 5/2/2 6/1/2
f 7/5/3 2/5/3 4/4/3
f 2/5/3 7/5/3 8/6/3
f 7/5/4 5/5/4 8/7/4
f 5/5/4 7/5/4 6/8/4
f 5/5/5 2/5/5 8/9/5
f 2/5/5 5/5/5 1/10/5
f 3/2/6 7/3/6 4/11/6
f 7/3/6 3/2/6 6/1/6
f 3/3/1 2/2/1 1/1/1
f 2/3/1 3/2/1 4/1/1
f 5/3/2 3/2/2 1/1/2
f 3/3/2 5/2/2 6/1/2
f 7/5/3 2/5/3 4/4/3
f 2/5/3 7/5/3 8/6/3
f 7/5/4 5/5/4 8/7/4
f 5/5/4 7/5/4 6/8/4
f 5/5/5 2/5/5 8/9/5
f 2/5/5 5/5/5 1/10/5
f 3/2/6 7/3/6 4/11/6
f 7/3/6 3/2/6 6/1/6
f 11/3/1 10/2/1 9/1/1
f 10/3/1 11/2/1 12/1/1
f 2/3/2 11/2/2 9/1/2
f 11/3/2 2/2/2 4/1/2
f 13/5/3 10/5/3 12/12/3
f 10/5/3 13/5/3 14/13/3
f 13/5/4 2/5/4 14/14/4
f 2/5/4 13/5/4 4/15/4
f 2/5/5 10/5/5 14/16/5
f 10/5/5 2/5/5 9/17/5
f 11/2/6 13/3/6 12/11/6
f 13/3/6 11/2/6 4/1/6
f 17/3/1 16/2/1 15/1/1
f 16/3/1 17/2/1 18/1/1
f 19/3/2 17/2/2 15/1/2
f 17/3/2 19/2/2 20/1/2
f 21/5/3 16/5/3 18/18/3
f 16/5/3 21/5/3 22/19/3
f 21/5/4 19/5/4 22/20/4
f 19/5/4 21/5/4 20/21/4
f 19/5/5 16/5/5 22/22/5
f 16/5/5 19/5/5 15/23/5
f 17/2/6 21/3/6 18/11/6
f 21/3/6 17/2/6 20/1/6
f 25/3/1 24/2/1 23/1/1
f 24/3/1 25/2/1 26/1/1
f 10/3/2 25/2/2 23/1/2
f 25/3/2 10/2/2 12/1/2
f 27/5/3 24/5/3 26/24/3
f 24/5/3 27/5/3 28/25/3
f 27/5/4 10/5/4 28/26/4
f 10/5/4 27/5/4 12/27/4
f 10/5/5 24/5/5 28/28/5
f 24/5/5 10/5/5 23/29/5
f 25/2/6 27/3/6 26/11/6
f 27/3/6 25/2/6 12/1/6

usemtl color5

f 6/3/1 8/2/1 5/1/1
f 8/3/1 6/2/1 7/1/1
f 29/3/2 6/2/2 5/1/2
f 6/3/2 29/2/2 30/1/2
f 20/5/3 8/6/3 7/5/3
f 8/6/3 20/5/3 19/30/3
f 20/21/4 29/5/4 19/5/4
f 29/5/4 20/21/4 30/31/4
f 29/5/5 8/9/5 19/5/5
f 8/9/5 29/5/5 5/5/5
f 6/2/6 20/3/6 7/11/6
f 20/3/6 6/2/6 30/1/6
f 4/3/1 14/2/1 2/1/1
f 14/3/1 4/2/1 13/1/1
f 8/3/2 4/2/2 2/1/2
f 4/3/2 8/2/2 7/1/2
f 31/5/3 14/13/3 13/5/3
f 14/13/3 31/5/3 32/32/3
f 31/5/4 8/7/4 32/33/4
f 8/7/4 31/5/4 7/5/4
f 8/9/5 14/16/5 32/34/5
f 14/16/5 8/9/5 2/5/5
f 4/2/6 31/3/6 13/11/6
f 31/3/6 4/2/6 7/1/6
f 12/3/1 33/2/1 10/1/1
f 33/3/1 12/2/1 34/1/1
f 14/3/2 12/2/2 10/1/2
f 12/3/2 14/2/2 13/1/2
f 35/5/3 33/5/3 34/35/3
f 33/5/3 35/5/3 36/36/3
f 35/5/4 14/14/4 36/37/4
f 14/14/4 35/5/4 13/5/4
f 14/16/5 33/5/5 36/38/5
f 33/5/5 14/16/5 10/5/5
f 12/2/6 35/3/6 34/11/6
f 35/3/6 12/2/6 13/1/6
f 39/3/1 38/2/1 37/1/1
f 38/3/1 39/2/1 40/1/1
f 41/3/2 39/2/2 37/1/2
f 39/3/2 41/2/2 42/1/2
f 43/5/3 38/5/3 40/39/3
f 38/5/3 43/5/3 44/40/3
f 43/5/4 41/5/4 44/41/4
f 41/5/4 43/5/4 42/42/4
f 41/5/5 38/5/5 44/43/5
f 38/5/5 41/5/5 37/44/5
f 39/2/6 43/3/6 40/11/6
f 43/3/6 39/2/6 42/1/6

usemtl color10

f 47/3/1 46/2/1 45/1/1
f 46/3/1 47/2/1 48/1/1
f 49/3/2 47/2/2 45/1/2
f 47/3/2 49/2/2 50/1/2
f 51/5/3 46/5/3 48/45/3
f 46/5/3 51/5/3 52/46/3
f 51/5/4 49/5/4 52/47/4
f 49/5/4 51/5/4 50/48/4
f 49/5/5 46/5/5 52/49/5
f 46/5/5 49/5/5 45/50/5
f 47/2/6 51/3/6 48/11/6
f 51/3/6 47/2/6 50/1/6

usemtl color4

f 55/3/1 54/2/1 53/1/1
f 54/3/1 55/2/1 56/1/1
f 46/3/2 55/2/2 53/1/2
f 55/3/2 46/2/2 48/1/2
f 57/5/3 54/5/3 56/51/3
f 54/5/3 57/5/3 58/52/3
f 57/5/4 46/5/4 58/53/4
f 46/5/4 57/5/4 48/54/4
f 46/5/5 54/5/5 58/55/5
f 54/5/5 46/5/5 53/56/5
f 55/2/6 57/3/6 56/11/6
f 57/3/6 55/2/6 48/1/6
f 51/3/1 59/2/1 52/1/1
f 59/3/1 51/2/1 60/1/1
f 61/3/2 51/2/2 52/1/2
f 51/3/2 61/2/2 62/1/2
f 63/5/3 59/5/3 60/57/3
f 59/5/3 63/5/3 64/58/3
f 63/5/4 61/5/4 64/59/4
f 61/5/4 63/5/4 62/60/4
f 61/5/5 59/5/5 64/61/5
f 59/5/5 61/5/5 52/49/5
f 51/2/6 63/3/6 60/11/6
f 63/3/6 51/2/6 62/1/6
f 34/3/1 28/2/1 33/1/1
f 28/3/1 34/2/1 27/1/1
f 36/3/2 34/2/2 33/1/2
f 34/3/2 36/2/2 35/1/2
f 65/5/3 28/25/3 27/5/3
f 28/25/3 65/5/3 66/62/3
f 65/5/4 36/37/4 66/63/4
f 36/37/4 65/5/4 35/5/4
f 36/38/5 28/28/5 66/64/5
f 28/28/5 36/38/5 33/5/5
f 34/2/6 65/3/6 27/11/6
f 65/3/6 34/2/6 35/1/6
f 69/3/1 68/2/1 67/1/1
f 68/3/1 69/2/1 70/1/1
f 71/3/2 69/2/2 67/1/2
f 69/3/2 71/2/2 72/1/2
f 73/5/3 68/5/3 70/65/3
f 68/5/3 73/5/3 74/66/3
f 73/5/4 71/5/4 74/67/4
f 71/5/4 73/5/4 72/68/4
f 71/5/5 68/5/5 74/69/5
f 68/5/5 71/5/5 67/70/5
f 69/2/6 73/3/6 70/11/6
f 73/3/6 69/2/6 72/1/6
f 77/3/1 76/2/1 75/1/1
f 76/3/1 77/2/1 78/1/1
f 79/3/2 77/2/2 75/1/2
f 77/3/2 79/2/2 80/1/2
f 81/5/3 76/5/3 78/71/3
f 76/5/3 81/5/3 82/72/3
f 81/5/4 79/5/4 82/73/4
f 79/5/4 81/5/4 80/74/4
f 79/5/5 76/5/5 82/75/5
f 76/5/5 79/5/5 75/76/5
f 77/2/6 81/3/6 78/11/6
f 81/3/6 77/2/6 80/1/6

usemtl color6

f 85/3/1 84/2/1 83/1/1
f 84/3/1 85/2/1 86/1/1
f 87/3/2 85/2/2 83/1/2
f 85/3/2 87/2/2 88/1/2
f 89/5/3 84/5/3 86/77/3
f 84/5/3 89/5/3 90/78/3
f 89/5/4 87/5/4 90/79/4
f 87/5/4 89/5/4 88/80/4
f 87/5/5 84/5/5 90/81/5
f 84/5/5 87/5/5 83/82/5
f 85/2/6 89/3/6 86/11/6
f 89/3/6 85/2/6 88/1/6
f 93/3/1 92/2/1 91/1/1
f 92/3/1 93/2/1 94/1/1
f 95/3/2 93/2/2 91/1/2
f 93/3/2 95/2/2 96/1/2
f 97/5/3 92/5/3 94/83/3
f 92/5/3 97/5/3 98/84/3
f 97/5/4 95/5/4 98/85/4
f 95/5/4 97/5/4 96/86/4
f 95/5/5 92/5/5 98/87/5
f 92/5/5 95/5/5 91/88/5
f 93/2/6 97/3/6 94/11/6
f 97/3/6 93/2/6 96/1/6
f 101/3/1 100/2/1 99/1/1
f 100/3/1 101/2/1 102/1/1
f 103/3/2 101/2/2 99/1/2
f 101/3/2 103/2/2 104/1/2
f 105/5/3 100/5/3 102/89/3
f 100/5/3 105/5/3 106/90/3
f 105/5/4 103/5/4 106/91/4
f 103/5/4 105/5/4 104/92/4
f 103/5/5 100/5/5 106/93/5
f 100/5/5 103/5/5 99/94/5
f 101/2/6 105/3/6 102/11/6
f 105/3/6 101/2/6 104/1/6
f 109/3/1 108/2/1 107/1/1
f 108/3/1 109/2/1 110/1/1
f 111/3/2 109/2/2 107/1/2
f 109/3/2 111/2/2 112/1/2
f 113/5/3 108/5/3 110/95/3
f 108/5/3 113/5/3 114/96/3
f 113/5/4 111/5/4 114/97/4
f 111/5/4 113/5/4 112/98/4
f 111/5/5 108/5/5 114/99/5
f 108/5/5 111/5/5 107/100/5
f 109/2/6 113/3/6 110/11/6
f 113/3/6 109/2/6 112/1/6

usemtl color3

f 117/3/1 116/2/1 115/1/1
f 116/3/1 117/2/1 118/1/1
f 84/3/2 117/2/2 115/1/2
f 117/3/2 84/2/2 86/1/2
f 119/5/3 116/5/3 118/101/3
f 116/5/3 119/5/3 120/102/3
f 119/5/4 84/5/4 120/103/4
f 84/5/4 119/5/4 86/104/4
f 84/5/5 116/5/5 120/105/5
f 116/5/5 84/5/5 115/106/5
f 117/2/6 119/3/6 118/11/6
f 119/3/6 117/2/6 86/1/6
f 89/3/1 121/2/1 90/1/1
f 121/3/1 89/2/1 122/1/1
f 123/3/2 89/2/2 90/1/2
f 89/3/2 123/2/2 124/1/2
f 125/5/3 121/5/3 122/107/3
f 121/5/3 125/5/3 126/108/3
f 125/5/4 123/5/4 126/109/4
f 123/5/4 125/5/4 124/110/4
f 123/5/5 121/5/5 126/111/5
f 121/5/5 123/5/5 90/81/5
f 89/2/6 125/3/6 122/11/6
f 125/3/6 89/2/6 124/1/6
f 129/3/1 128/2/1 127/1/1
f 128/3/1 129/2/1 130/1/1
f 131/3/2 129/2/2 127/1/2
f 129/3/2 131/2/2 132/1/2
f 133/5/3 128/5/3 130/112/3
f 128/5/3 133/5/3 134/113/3
f 133/5/4 131/5/4 134/114/4
f 131/5/4 133/5/4 132/115/4
f 131/5/5 128/5/5 134/116/5
f 128/5/5 131/5/5 127/117/5
f 129/2/6 133/3/6 130/11/6
f 133/3/6 129/2/6 132/1/6
f 136/3/1 99/2/1 135/1/1
f 99/3/1 136/2/1 101/1/1
f 137/3/2 136/2/2 135/1/2
f 136/3/2 137/2/2 138/1/2
f 104/5/3 99/5/3 101/118/3
f 99/5/3 104/5/3 103/119/3
f 104/92/4 137/5/4 103/5/4
f 137/5/4 104/92/4 138/120/4
f 137/5/5 99/94/5 103/5/5
f 99/94/5 137/5/5 135/121/5
f 136/2/6 104/3/6 101/11/6
f 104/3/6 136/2/6 138/1/6
f 141/3/1 140/2/1 139/1/1
f 140/3/1 141/2/1 142/1/1
f 143/3/2 141/2/2 139/1/2
f 141/3/2 143/2/2 144/1/2
f 145/5/3 140/5/3 142/122/3
f 140/5/3 145/5/3 146/123/3
f 145/5/4 143/5/4 146/124/4
f 143/5/4 145/5/4 144/125/4
f 143/5/5 140/5/5 146/126/5
f 140/5/5 143/5/5 139/127/5
f 141/2/6 145/3/6 142/11/6
f 145/3/6 141/2/6 144/1/6
f 149/3/1 148/2/1 147/1/1
f 148/3/1 149/2/1 150/1/1
f 151/3/2 149/2/2 147/1/2
f 149/3/2 151/2/2 152/1/2
f 153/5/3 148/5/3 150/128/3
f 148/5/3 153/5/3 154/129/3
f 153/5/4 151/5/4 154/130/4
f 151/5/4 153/5/4 152/131/4
f 151/5/5 148/5/5 154/132/5
f 148/5/5 151/5/5 147/133/5
f 149/2/6 153/3/6 150/11/6
f 153/3/6 149/2/6 152/1/6
f 157/3/1 156/2/1 155/1/1
f 156/3/1 157/2/1 158/1/1
f 159/3/2 157/2/2 155/1/2
f 157/3/2 159/2/2 160/1/2
f 161/5/3 156/5/3 158/134/3
f 156/5/3 161/5/3 162/135/3
f 161/5/4 159/5/4 162/136/4
f 159/5/4 161/5/4 160/137/4
f 159/5/5 156/5/5 162/138/5
f 156/5/5 159/5/5 155/139/5
f 157/2/6 161/3/6 158/11/6
f 161/3/6 157/2/6 160/1/6
f 165/3/1 164/2/1 163/1/1
f 164/3/1 165/2/1 166/1/1
f 167/3/2 165/2/2 163/1/2
f 165/3/2 167/2/2 168/1/2
f 169/5/3 164/5/3 166/140/3
f 164/5/3 169/5/3 170/141/3
f 169/5/4 167/5/4 170/142/4
f 167/5/4 169/5/4 168/143/4
f 167/5/5 164/5/5 170/144/5
f 164/5/5 167/5/5 163/145/5
f 165/2/6 169/3/6 166/11/6
f 169/3/6 165/2/6 168/1/6
f 102/3/1 171/2/1 100/1/1
f 171/3/1 102/2/1 172/1/1
f 106/3/2 102/2/2 100/1/2
f 102/3/2 106/2/2 105/1/2
f 173/5/3 171/5/3 172/146/3
f 171/5/3 173/5/3 174/147/3
f 173/5/4 106/91/4 174/148/4
f 106/91/4 173/5/4 105/5/4
f 106/93/5 171/5/5 174/149/5
f 171/5/5 106/93/5 100/5/5
f 102/2/6 173/3/6 172/11/6
f 173/3/6 102/2/6 105/1/6
f 177/3/1 176/2/1 175/1/1
f 176/3/1 177/2/1 178/1/1
f 179/3/2 177/2/2 175/1/2
f 177/3/2 179/2/2 180/1/2
f 181/5/3 176/5/3 178/150/3
f 176/5/3 181/5/3 182/151/3
f 181/5/4 179/5/4 182/152/4
f 179/5/4 181/5/4 180/153/4
f 179/5/5 176/5/5 182/154/5
f 176/5/5 179/5/5 175/155/5
f 177/2/6 181/3/6 178/11/6
f 181/3/6 177/2/6 180/1/6
f 185/3/1 184/2/1 183/1/1
f 184/3/1 185/2/1 186/1/1
f 187/3/2 185/2/2 183/1/2
f 185/3/2 187/2/2 188/1/2
f 189/5/3 184/5/3 186/156/3
f 184/5/3 189/5/3 190/157/3
f 189/5/4 187/5/4 190/158/4
f 187/5/4 189/5/4 188/159/4
f 187/5/5 184/5/5 190/160/5
f 184/5/5 187/5/5 183/161/5
f 185/2/6 189/3/6 186/11/6
f 189/3/6 185/2/6 188/1/6
f 193/3/1 192/2/1 191/1/1
f 192/3/1 193/2/1 194/1/1
f 195/3/2 193/2/2 191/1/2
f 193/3/2 195/2/2 196/1/2
f 197/5/3 192/5/3 194/162/3
f 192/5/3 197/5/3 198/163/3
f 197/5/4 195/5/4 198/164/4
f 195/5/4 197/5/4 196/165/4
f 195/5/5 192/5/5 198/166/5
f 192/5/5 195/5/5 191/167/5
f 193/2/6 197/3/6 194/11/6
f 197/3/6 193/2/6 196/1/6

usemtl color9

f 201/3/1 200/2/1 199/1/1
f 200/3/1 201/2/1 202/1/1
f 203/3/2 201/2/2 199/1/2
f 201/3/2 203/2/2 204/1/2
f 205/5/3 200/5/3 202/168/3
f 200/5/3 205/5/3 206/169/3
f 205/5/4 203/5/4 206/170/4
f 203/5/4 205/5/4 204/171/4
f 203/5/5 200/5/5 206/172/5
f 200/5/5 203/5/5 199/173/5
f 201/2/6 205/3/6 202/11/6
f 205/3/6 201/2/6 204/1/6

usemtl color7

f 26/3/1 37/2/1 24/1/1
f 37/3/1 26/2/1 39/1/1
f 28/3/2 26/2/2 24/1/2
f 26/3/2 28/2/2 27/1/2
f 42/5/3 37/5/3 39/174/3
f 37/5/3 42/5/3 41/175/3
f 42/42/4 28/26/4 41/5/4
f 28/26/4 42/42/4 27/5/4
f 28/28/5 37/44/5 41/5/5
f 37/44/5 28/28/5 24/5/5
f 26/2/6 42/3/6 39/11/6
f 42/3/6 26/2/6 27/1/6

usemtl color1

f 208/3/1 147/2/1 207/1/1
f 147/3/1 208/2/1 149/1/1
f 200/3/2 208/2/2 207/1/2
f 208/3/2 200/2/2 202/1/2
f 152/5/3 147/5/3 149/176/3
f 147/5/3 152/5/3 151/177/3
f 152/131/4 200/5/4 151/5/4
f 200/5/4 152/131/4 202/178/4
f 200/5/5 147/133/5 151/5/5
f 147/133/5 200/5/5 207/179/5
f 208/2/6 152/3/6 149/11/6
f 152/3/6 208/2/6 202/1/6
f 205/3/1 155/2/1 206/1/1
f 155/3/1 205/2/1 157/1/1
f 209/3/2 205/2/2 206/1/2
f 205/3/2 209/2/2 210/1/2
f 160/5/3 155/5/3 157/180/3
f 155/5/3 160/5/3 159/181/3
f 160/137/4 209/5/4 159/5/4
f 209/5/4 160/137/4 210/182/4
f 209/5/5 155/139/5 159/5/5
f 155/139/5 209/5/5 206/172/5
f 205/2/6 160/3/6 157/11/6
f 160/3/6 205/2/6 210/1/6
f 150/3/1 211/2/1 148/1/1
f 211/3/1 150/2/1 212/1/1
f 154/3/2 150/2/2 148/1/2
f 150/3/2 154/2/2 153/1/2
f 69/5/3 211/5/3 212/183/3
f 211/5/3 69/5/3 67/184/3
f 69/5/4 154/130/4 67/185/4
f 154/130/4 69/5/4 153/5/4
f 154/132/5 211/5/5 67/70/5
f 211/5/5 154/132/5 148/5/5
f 150/2/6 69/3/6 212/11/6
f 69/3/6 150/2/6 153/1/6
f 158/3/1 71/2/1 156/1/1
f 71/3/1 158/2/1 72/1/1
f 162/3/2 158/2/2 156/1/2
f 158/3/2 162/2/2 161/1/2
f 213/5/3 71/5/3 72/186/3
f 71/5/3 213/5/3 214/187/3
f 213/5/4 162/136/4 214/188/4
f 162/136/4 213/5/4 161/5/4
f 162/138/5 71/5/5 214/189/5
f 71/5/5 162/138/5 156/5/5
f 158/2/6 213/3/6 72/11/6
f 213/3/6 158/2/6 161/1/6
f 217/3/1 216/2/1 215/1/1
f 216/3/1 217/2/1 218/1/1
f 219/3/2 217/2/2 215/1/2
f 217/3/2 219/2/2 220/1/2
f 221/5/3 216/5/3 218/190/3
f 216/5/3 221/5/3 222/191/3
f 221/5/4 219/5/4 222/192/4
f 219/5/4 221/5/4 220/193/4
f 219/5/5 216/5/5 222/194/5
f 216/5/5 219/5/5 215/195/5
f 217/2/6 221/3/6 218/11/6
f 221/3/6 217/2/6 220/1/6
f 225/3/1 224/2/1 223/1/1
f 224/3/1 225/2/1 226/1/1
f 227/3/2 225/2/2 223/1/2
f 225/3/2 227/2/2 228/1/2
f 229/5/3 224/5/3 226/196/3
f 224/5/3 229/5/3 230/197/3
f 229/5/4 227/5/4 230/198/4
f 227/5/4 229/5/4 228/199/4
f 227/5/5 224/5/5 230/200/5
f 224/5/5 227/5/5 223/201/5
f 225/2/6 229/3/6 226/11/6
f 229/3/6 225/2/6 228/1/6

usemtl color2

f 42/3/1 231/2/1 41/1/1
f 231/3/1 42/2/1 232/1/1
f 233/3/2 42/2/2 41/1/2
f 42/3/2 233/2/2 234/1/2
f 235/5/3 231/5/3 232/202/3
f 231/5/3 235/5/3 236/203/3
f 235/5/4 233/5/4 236/204/4
f 233/5/4 235/5/4 234/205/4
f 233/5/5 231/5/5 236/206/5
f 231/5/5 233/5/5 41/5/5
f 42/2/6 235/3/6 232/11/6
f 235/3/6 42/2/6 234/1/6
f 43/3/1 237/2/1 44/1/1
f 237/3/1 43/2/1 238/1/1
f 239/3/2 43/2/2 44/1/2
f 43/3/2 239/2/2 240/1/2
f 241/5/3 237/5/3 238/207/3
f 237/5/3 241/5/3 242/208/3
f 241/5/4 239/5/4 242/209/4
f 239/5/4 241/5/4 240/210/4
f 239/5/5 237/5/5 242/211/5
f 237/5/5 239/5/5 44/43/5
f 43/2/6 241/3/6 238/11/6
f 241/3/6 43/2/6 240/1/6
f 189/3/1 243/2/1 190/1/1
f 243/3/1 189/2/1 244/1/1
f 192/3/2 189/2/2 190/1/2
f 189/3/2 192/2/2 194/1/2
f 245/5/3 243/5/3 244/212/3
f 243/5/3 245/5/3 246/213/3
f 245/5/4 192/5/4 246/214/4
f 192/5/4 245/5/4 194/215/4
f 192/5/5 243/5/5 246/216/5
f 243/5/5 192/5/5 190/160/5
f 189/2/6 245/3/6 244/11/6
f 245/3/6 189/2/6 194/1/6

