# Created by Kenney (www.kenney.nl)

mtllib Revolver F9D Pegmode.mtl

v -8 5 -0.5
v -8 4 -0.5
v -8 5 0.5
v -8 4 0.5
v -9 5 -0.5
v -9 5 0.5
v -9 4 0.5
v -9 4 -0.5
v 5 4 -1
v 5 3 -1
v 5 4 1
v 5 3 1
v 4 4 -1
v 4 4 1
v 4 3 1
v 4 3 -1
v 2 4 -1
v 2 3 -1
v 2 4 1
v 2 3 1
v 1 4 -1
v 1 4 1
v 1 3 1
v 1 3 -1
v 0 3 -1.5
v 0 2 -1.5
v 0 3 1.5
v 0 2 1.5
v -1 3 -1.5
v -1 3 1.5
v -1 2 1.5
v -1 2 -1.5
v -5 1 -0.5
v -5 0 -0.5
v -5 1 0.5
v -5 0 0.5
v -6 1 -0.5
v -6 1 0.5
v -6 0 0.5
v -6 0 -0.5
v 6 -1 -0.5
v 6 -2 -0.5
v 6 -1 0.5
v 6 -2 0.5
v 5 -1 -0.5
v 5 -1 0.5
v 5 -2 0.5
v 5 -2 -0.5
v 5 -3 -0.5
v 5 -3 0.5
v 4 -2 -0.5
v 4 -2 0.5
v 4 -3 0.5
v 4 -3 -0.5
v -10 5 -0.5
v -10 5 0.5
v -10 4 0.5
v -10 4 -0.5
v 2 3 -1.5
v 2 2 -1.5
v 2 3 1.5
v 2 2 1.5
v 1 3 -1.5
v 1 3 1.5
v 1 2 1.5
v 1 2 -1.5
v -2 3 -1.5
v -2 3 1.5
v -2 2 1.5
v -2 2 -1.5
v -5 2 -1
v -5 1 -1
v -5 2 1
v -5 1 1
v -6 2 -1
v -6 2 1
v -6 1 1
v -6 1 -1
v 4 -1 -0.5
v 4 -1 0.5
v 3 -1 -0.5
v 3 -1 0.5
v 3 -2 0.5
v 3 -2 -0.5
v 8 4 -0.5
v 8 3 -0.5
v 8 4 0.5
v 8 3 0.5
v 7 4 -0.5
v 7 4 0.5
v 7 3 0.5
v 7 3 -0.5
v -1 4 -1
v -1 3 -1
v -1 4 1
v -1 3 1
v -11 4 -1
v -11 4 1
v -11 3 1
v -11 3 -1
v 7 2 -0.5
v 7 2 0.5
v 6 3 -0.5
v 6 3 0.5
v 6 2 0.5
v 6 2 -0.5
v 6 0 -0.5
v 6 0 0.5
v 1 0 -0.5
v 1 0 0.5
v 1 -1 0.5
v 1 -1 -0.5
v 6 4 -0.5
v 6 4 0.5
v 6 3 -1
v 6 2 -1
v 6 3 1
v 6 2 1
v 5 2 1
v 5 2 -1
v -2 3 -1
v -2 2 -1
v -2 3 1
v -2 2 1
v -5 3 -1
v -5 3 1
v 1 2 -1
v 1 1 -1
v 1 2 1
v 1 1 1
v 0 2 -1
v 0 2 1
v 0 1 1
v 0 1 -1
v -1 2 -1
v -1 1 -1
v -1 2 1
v -1 1 1
v -2 1 1
v -2 1 -1
v -3 2 -1
v -3 1 -1
v -3 2 1
v -3 1 1
v -7 2 -1
v -7 2 1
v -7 1 1
v -7 1 -1
v 8 1 -0.5
v 8 0 -0.5
v 8 1 0.5
v 8 0 0.5
v 7 1 -0.5
v 7 1 0.5
v 7 0 0.5
v 7 0 -0.5
v 5 1 -1
v 5 0 -1
v 5 1 1
v 5 0 1
v 1 0 1
v 1 0 -1
v 7 -1 -0.5
v 7 -1 0.5
v -11 4 -0.5
v -11 3 -0.5
v -11 4 0.5
v -11 3 0.5
v -12 4 -0.5
v -12 4 0.5
v -12 3 0.5
v -12 3 -0.5
v 5 3 -1.5
v 5 2 -1.5
v 5 3 1.5
v 5 2 1.5
v 4 3 -1.5
v 4 3 1.5
v 4 2 1.5
v 4 2 -1.5
v 3 3 -1.5
v 3 2 -1.5
v 3 3 1.5
v 3 2 1.5
v -11 2 1
v -11 2 -1
v 6 0 -1
v 6 0 1
v 6 1 -0.5
v 6 1 0.5
v 1 1 -0.5
v 1 1 0.5
v 0 1 -0.5
v 0 1 0.5
v 0 0 0.5
v 0 0 -0.5
v -1 1 -0.5
v -1 0 -0.5
v -1 1 0.5
v -1 0 0.5
v -2 1 -0.5
v -2 1 0.5
v -2 0 0.5
v -2 0 -0.5
v -3 1 -0.5
v -3 0 -0.5
v -3 1 0.5
v -3 0 0.5
v -7 1 -0.5
v -7 1 0.5
v -7 0 0.5
v -7 0 -0.5
v 4 2 -1
v 4 2 1
v 4 1 1
v 4 1 -1
v 2 2 -1
v 2 1 -1
v 2 2 1
v 2 1 1
v 9 1 -0.5
v 9 0 -0.5
v 9 1 0.5
v 9 0 0.5
v 10 0 -0.5
v 10 -1 -0.5
v 10 0 0.5
v 10 -1 0.5
v 9 -1 0.5
v 9 -1 -0.5
v 11 -1 -0.5
v 11 -4 -0.5
v 11 -1 0.5
v 11 -4 0.5
v 10 -4 0.5
v 10 -4 -0.5
v 8 -2 -0.5
v 8 -3 -0.5
v 8 -2 0.5
v 8 -3 0.5
v 7 -2 -0.5
v 7 -2 0.5
v 7 -3 0.5
v 7 -3 -0.5
v 9 -3 -1
v 9 -5 -1
v 9 -3 1
v 9 -5 1
v 8 -3 -1
v 8 -3 1
v 8 -5 1
v 8 -5 -1
v 9 0 -1
v 9 -2 -1
v 9 0 1
v 9 -2 1
v 8 0 -1
v 8 0 1
v 8 -2 1
v 8 -2 -1
v 8 -1 -1
v 8 -1 1
v 7 0 -1
v 7 0 1
v 7 -1 1
v 7 -1 -1
v 10 -1 -1
v 10 -3 -1
v 10 -1 1
v 10 -3 1
v 9 -1 -1
v 9 -1 1
v 7 -2 1
v 7 -2 -1
v 11 -4 -1
v 11 -5 -1
v 11 -4 1
v 11 -5 1
v 9 -4 -1
v 9 -4 1
v 6 -1 -1
v 6 -1 1
v 6 -2 1
v 6 -2 -1
v 10 -4 -1
v 10 -4 1

vn 1 0 0
vn 0 1 0
vn 0 -1 0
vn -1 0 0
vn 0 0 -1
vn 0 0 1

vt -19.68504 19.68504
vt 19.68504 19.68504
vt -19.68504 -19.68504
vt 0 NaN
vt 0 0
vt 0 NaN
vt 0 NaN
vt 0 NaN
vt 0 NaN
vt 0 NaN
vt 19.68504 -19.68504
vt 0 NaN
vt 0 NaN
vt 0 NaN
vt 0 NaN
vt 0 NaN
vt 0 NaN
vt 0 NaN
vt 0 NaN
vt 0 NaN
vt 0 NaN
vt 0 NaN
vt 0 NaN
vt 0 NaN
vt 0 NaN
vt 0 NaN
vt 0 NaN
vt 0 NaN
vt 0 NaN
vt 0 NaN
vt 0 NaN
vt 0 NaN
vt 0 NaN
vt 0 NaN
vt 0 NaN
vt 0 NaN
vt 0 NaN
vt 0 NaN
vt 0 NaN
vt 0 NaN
vt 0 NaN
vt 0 NaN
vt 0 NaN
vt 0 NaN
vt 0 NaN
vt 0 NaN
vt 0 NaN
vt 0 NaN
vt 0 NaN
vt 0 NaN
vt 0 NaN
vt 0 NaN
vt 0 NaN
vt 0 NaN
vt 0 NaN
vt 0 NaN
vt 0 NaN
vt 0 NaN
vt 0 NaN
vt 0 NaN
vt 0 NaN
vt 0 NaN
vt 0 NaN
vt 0 NaN
vt 0 NaN
vt 0 NaN
vt 0 NaN
vt 0 NaN
vt 0 NaN
vt 0 NaN
vt 0 NaN
vt 0 NaN
vt 0 NaN
vt 0 NaN
vt 0 NaN
vt 0 NaN
vt 0 NaN
vt 0 NaN
vt 0 NaN
vt 0 NaN
vt 0 NaN
vt 0 NaN
vt 0 NaN
vt 0 NaN
vt 0 NaN
vt 0 NaN
vt 0 NaN
vt 0 NaN
vt 0 NaN
vt 0 NaN
vt 0 NaN
vt 0 NaN
vt 0 NaN
vt 0 NaN
vt 0 NaN
vt 0 NaN
vt 0 NaN
vt 0 NaN
vt 0 NaN
vt 0 NaN
vt 0 NaN
vt 0 NaN
vt 0 NaN
vt 0 NaN
vt 0 NaN
vt 0 NaN
vt 0 NaN
vt 0 NaN
vt 0 NaN
vt 0 NaN
vt 0 NaN
vt 0 NaN
vt 0 NaN
vt 0 NaN
vt 0 NaN
vt 0 NaN
vt 0 NaN
vt 0 NaN
vt 0 NaN
vt 0 NaN
vt 0 NaN
vt 0 NaN
vt 0 NaN
vt 0 NaN
vt 0 NaN
vt 0 NaN
vt 0 NaN
vt 0 NaN
vt 0 NaN
vt 0 NaN
vt 0 NaN
vt 0 NaN
vt 0 NaN
vt 0 NaN
vt 0 NaN
vt 0 NaN
vt 0 NaN
vt 0 NaN
vt 0 NaN
vt 0 NaN
vt 0 NaN
vt 0 NaN
vt 0 NaN
vt 0 NaN
vt 0 NaN
vt 0 NaN
vt 0 NaN
vt 0 NaN
vt 0 NaN
vt 0 NaN
vt 0 NaN
vt 0 NaN
vt 0 NaN
vt 0 NaN
vt 0 NaN
vt 0 NaN
vt 0 NaN
vt 0 NaN
vt 0 NaN
vt 0 NaN
vt 0 NaN
vt 0 NaN
vt 0 NaN
vt 0 NaN
vt 0 NaN
vt 0 NaN
vt 0 NaN
vt 0 NaN
vt 0 NaN
vt 0 NaN
vt 0 NaN
vt 0 NaN
vt 0 NaN
vt 0 NaN
vt 0 NaN
vt 0 NaN
vt 0 NaN
vt 0 NaN
vt 0 NaN
vt 0 NaN
vt 0 NaN
vt 0 NaN
vt 0 NaN
vt 0 NaN
vt 0 NaN
vt 0 NaN
vt 0 NaN
vt 0 NaN
vt 0 NaN
vt 0 NaN
vt 0 NaN
vt 0 NaN
vt 0 NaN
vt 0 NaN
vt 0 NaN
vt 0 NaN
vt 0 NaN
vt 0 NaN
vt 0 NaN
vt 0 NaN
vt 0 NaN
vt 0 NaN
vt 0 NaN
vt 0 NaN
vt 0 NaN
vt 0 NaN
vt 0 NaN
vt 0 NaN
vt 0 NaN
vt 0 NaN
vt 0 NaN
vt 0 NaN
vt 0 NaN
vt 0 NaN
vt 0 NaN
vt 0 NaN
vt 0 NaN
vt 0 NaN
vt 0 NaN
vt 0 NaN
vt 0 NaN
vt 0 NaN
vt 0 NaN
vt 0 NaN
vt 0 NaN
vt 0 NaN
vt 0 NaN
vt 0 NaN
vt 0 NaN
vt 0 NaN
vt 0 NaN
vt 0 NaN
vt 0 NaN
vt 0 NaN
vt 0 NaN
vt 0 NaN
vt 0 NaN
vt 0 NaN
vt 0 NaN
vt 0 NaN
vt 0 NaN
vt 0 NaN
vt 0 NaN
vt 0 NaN
vt 0 NaN
vt 0 NaN
vt 0 NaN
vt 0 NaN
vt 0 NaN
vt 0 NaN
vt 0 NaN
vt 0 NaN
vt 0 NaN
vt 0 NaN
vt 0 NaN
vt 0 NaN
vt 0 NaN
vt 0 NaN
vt 0 NaN
vt 0 NaN
vt 0 NaN
vt 0 NaN
vt 0 NaN
vt 0 NaN
vt 0 NaN
vt 0 NaN
vt 0 NaN
vt 0 NaN
vt 0 NaN

usemtl color6

f 3/3/1 2/2/1 1/1/1
f 2/3/1 3/2/1 4/1/1
f 5/3/2 3/2/2 1/1/2
f 3/3/2 5/2/2 6/1/2
f 7/5/3 2/5/3 4/4/3
f 2/5/3 7/5/3 8/6/3
f 7/5/4 5/5/4 8/7/4
f 5/5/4 7/5/4 6/8/4
f 5/5/5 2/5/5 8/9/5
f 2/5/5 5/5/5 1/10/5
f 3/2/6 7/3/6 4/11/6
f 7/3/6 3/2/6 6/1/6
f 3/3/1 2/2/1 1/1/1
f 2/3/1 3/2/1 4/1/1
f 5/3/2 3/2/2 1/1/2
f 3/3/2 5/2/2 6/1/2
f 7/5/3 2/5/3 4/4/3
f 2/5/3 7/5/3 8/6/3
f 7/5/4 5/5/4 8/7/4
f 5/5/4 7/5/4 6/8/4
f 5/5/5 2/5/5 8/9/5
f 2/5/5 5/5/5 1/10/5
f 3/2/6 7/3/6 4/11/6
f 7/3/6 3/2/6 6/1/6
f 11/3/1 10/2/1 9/1/1
f 10/3/1 11/2/1 12/1/1
f 13/3/2 11/2/2 9/1/2
f 11/3/2 13/2/2 14/1/2
f 15/5/3 10/5/3 12/12/3
f 10/5/3 15/5/3 16/13/3
f 15/5/4 13/5/4 16/14/4
f 13/5/4 15/5/4 14/15/4
f 13/5/5 10/5/5 16/16/5
f 10/5/5 13/5/5 9/17/5
f 11/2/6 15/3/6 12/11/6
f 15/3/6 11/2/6 14/1/6
f 19/3/1 18/2/1 17/1/1
f 18/3/1 19/2/1 20/1/1
f 21/3/2 19/2/2 17/1/2
f 19/3/2 21/2/2 22/1/2
f 23/5/3 18/5/3 20/18/3
f 18/5/3 23/5/3 24/19/3
f 23/5/4 21/5/4 24/20/4
f 21/5/4 23/5/4 22/21/4
f 21/5/5 18/5/5 24/22/5
f 18/5/5 21/5/5 17/23/5
f 19/2/6 23/3/6 20/11/6
f 23/3/6 19/2/6 22/1/6
f 27/3/1 26/2/1 25/1/1
f 26/3/1 27/2/1 28/1/1
f 29/3/2 27/2/2 25/1/2
f 27/3/2 29/2/2 30/1/2
f 31/5/3 26/5/3 28/24/3
f 26/5/3 31/5/3 32/25/3
f 31/5/4 29/5/4 32/26/4
f 29/5/4 31/5/4 30/27/4
f 29/5/5 26/5/5 32/28/5
f 26/5/5 29/5/5 25/29/5
f 27/2/6 31/3/6 28/11/6
f 31/3/6 27/2/6 30/1/6
f 35/3/1 34/2/1 33/1/1
f 34/3/1 35/2/1 36/1/1
f 37/3/2 35/2/2 33/1/2
f 35/3/2 37/2/2 38/1/2
f 39/5/3 34/5/3 36/30/3
f 34/5/3 39/5/3 40/31/3
f 39/5/4 37/5/4 40/32/4
f 37/5/4 39/5/4 38/33/4
f 37/5/5 34/5/5 40/34/5
f 34/5/5 37/5/5 33/35/5
f 35/2/6 39/3/6 36/11/6
f 39/3/6 35/2/6 38/1/6
f 43/3/1 42/2/1 41/1/1
f 42/3/1 43/2/1 44/1/1
f 45/3/2 43/2/2 41/1/2
f 43/3/2 45/2/2 46/1/2
f 47/5/3 42/5/3 44/36/3
f 42/5/3 47/5/3 48/37/3
f 47/5/4 45/5/4 48/38/4
f 45/5/4 47/5/4 46/39/4
f 45/5/5 42/5/5 48/40/5
f 42/5/5 45/5/5 41/41/5
f 43/2/6 47/3/6 44/11/6
f 47/3/6 43/2/6 46/1/6
f 47/3/1 49/2/1 48/1/1
f 49/3/1 47/2/1 50/1/1
f 51/3/2 47/2/2 48/1/2
f 47/3/2 51/2/2 52/1/2
f 53/5/3 49/5/3 50/42/3
f 49/5/3 53/5/3 54/43/3
f 53/5/4 51/5/4 54/44/4
f 51/5/4 53/5/4 52/45/4
f 51/5/5 49/5/5 54/46/5
f 49/5/5 51/5/5 48/40/5
f 47/2/6 53/3/6 50/11/6
f 53/3/6 47/2/6 52/1/6

usemtl color8

f 6/3/1 8/2/1 5/1/1
f 8/3/1 6/2/1 7/1/1
f 55/3/2 6/2/2 5/1/2
f 6/3/2 55/2/2 56/1/2
f 57/5/3 8/6/3 7/5/3
f 8/6/3 57/5/3 58/47/3
f 57/5/4 55/5/4 58/48/4
f 55/5/4 57/5/4 56/49/4
f 55/5/5 8/9/5 58/50/5
f 8/9/5 55/5/5 5/5/5
f 6/2/6 57/3/6 7/11/6
f 57/3/6 6/2/6 56/1/6
f 61/3/1 60/2/1 59/1/1
f 60/3/1 61/2/1 62/1/1
f 63/3/2 61/2/2 59/1/2
f 61/3/2 63/2/2 64/1/2
f 65/5/3 60/5/3 62/51/3
f 60/5/3 65/5/3 66/52/3
f 65/5/4 63/5/4 66/53/4
f 63/5/4 65/5/4 64/54/4
f 63/5/5 60/5/5 66/55/5
f 60/5/5 63/5/5 59/56/5
f 61/2/6 65/3/6 62/11/6
f 65/3/6 61/2/6 64/1/6
f 30/3/1 32/2/1 29/1/1
f 32/3/1 30/2/1 31/1/1
f 67/3/2 30/2/2 29/1/2
f 30/3/2 67/2/2 68/1/2
f 69/5/3 32/25/3 31/5/3
f 32/25/3 69/5/3 70/57/3
f 69/5/4 67/5/4 70/58/4
f 67/5/4 69/5/4 68/59/4
f 67/5/5 32/28/5 70/60/5
f 32/28/5 67/5/5 29/5/5
f 30/2/6 69/3/6 31/11/6
f 69/3/6 30/2/6 68/1/6
f 73/3/1 72/2/1 71/1/1
f 72/3/1 73/2/1 74/1/1
f 75/3/2 73/2/2 71/1/2
f 73/3/2 75/2/2 76/1/2
f 77/5/3 72/5/3 74/61/3
f 72/5/3 77/5/3 78/62/3
f 77/5/4 75/5/4 78/63/4
f 75/5/4 77/5/4 76/64/4
f 75/5/5 72/5/5 78/65/5
f 72/5/5 75/5/5 71/66/5
f 73/2/6 77/3/6 74/11/6
f 77/3/6 73/2/6 76/1/6
f 80/3/1 51/2/1 79/1/1
f 51/3/1 80/2/1 52/1/1
f 81/3/2 80/2/2 79/1/2
f 80/3/2 81/2/2 82/1/2
f 83/5/3 51/5/3 52/67/3
f 51/5/3 83/5/3 84/68/3
f 83/5/4 81/5/4 84/69/4
f 81/5/4 83/5/4 82/70/4
f 81/5/5 51/5/5 84/71/5
f 51/5/5 81/5/5 79/72/5
f 80/2/6 83/3/6 52/11/6
f 83/3/6 80/2/6 82/1/6

usemtl color10

f 87/3/1 86/2/1 85/1/1
f 86/3/1 87/2/1 88/1/1
f 89/3/2 87/2/2 85/1/2
f 87/3/2 89/2/2 90/1/2
f 91/5/3 86/5/3 88/73/3
f 86/5/3 91/5/3 92/74/3
f 91/5/4 89/5/4 92/75/4
f 89/5/4 91/5/4 90/76/4
f 89/5/5 86/5/5 92/77/5
f 86/5/5 89/5/5 85/78/5
f 87/2/6 91/3/6 88/11/6
f 91/3/6 87/2/6 90/1/6
f 14/3/1 16/2/1 13/1/1
f 16/3/1 14/2/1 15/1/1
f 17/3/2 14/2/2 13/1/2
f 14/3/2 17/2/2 19/1/2
f 20/18/3 16/13/3 15/5/3
f 16/13/3 20/18/3 18/5/3
f 20/5/4 17/5/4 18/79/4
f 17/5/4 20/5/4 19/80/4
f 17/23/5 16/16/5 18/5/5
f 16/16/5 17/23/5 13/5/5
f 14/2/6 20/3/6 15/11/6
f 20/3/6 14/2/6 19/1/6
f 95/3/1 94/2/1 93/1/1
f 94/3/1 95/2/1 96/1/1
f 97/3/2 95/2/2 93/1/2
f 95/3/2 97/2/2 98/1/2
f 99/5/3 94/5/3 96/81/3
f 94/5/3 99/5/3 100/82/3
f 99/5/4 97/5/4 100/83/4
f 97/5/4 99/5/4 98/84/4
f 97/5/5 94/5/5 100/85/5
f 94/5/5 97/5/5 93/86/5
f 95/2/6 99/3/6 96/11/6
f 99/3/6 95/2/6 98/1/6
f 91/3/1 101/2/1 92/1/1
f 101/3/1 91/2/1 102/1/1
f 103/3/2 91/2/2 92/1/2
f 91/3/2 103/2/2 104/1/2
f 105/5/3 101/5/3 102/87/3
f 101/5/3 105/5/3 106/88/3
f 105/5/4 103/5/4 106/89/4
f 103/5/4 105/5/4 104/90/4
f 103/5/5 101/5/5 106/91/5
f 101/5/5 103/5/5 92/77/5
f 91/2/6 105/3/6 102/11/6
f 105/3/6 91/2/6 104/1/6
f 108/3/1 41/2/1 107/1/1
f 41/3/1 108/2/1 43/1/1
f 109/3/2 108/2/2 107/1/2
f 108/3/2 109/2/2 110/1/2
f 111/5/3 41/5/3 43/92/3
f 41/5/3 111/5/3 112/93/3
f 111/5/4 109/5/4 112/94/4
f 109/5/4 111/5/4 110/95/4
f 109/5/5 41/41/5 112/96/5
f 41/41/5 109/5/5 107/97/5
f 108/2/6 111/3/6 43/11/6
f 111/3/6 108/2/6 110/1/6

usemtl color9

f 90/3/1 92/2/1 89/1/1
f 92/3/1 90/2/1 91/1/1
f 113/3/2 90/2/2 89/1/2
f 90/3/2 113/2/2 114/1/2
f 104/5/3 92/74/3 91/5/3
f 92/74/3 104/5/3 103/98/3
f 104/90/4 113/5/4 103/5/4
f 113/5/4 104/90/4 114/99/4
f 113/5/5 92/77/5 103/5/5
f 92/77/5 113/5/5 89/5/5
f 90/2/6 104/3/6 91/11/6
f 104/3/6 90/2/6 114/1/6
f 22/3/1 24/2/1 21/1/1
f 24/3/1 22/2/1 23/1/1
f 93/3/2 22/2/2 21/1/2
f 22/3/2 93/2/2 95/1/2
f 96/81/3 24/19/3 23/5/3
f 24/19/3 96/81/3 94/5/3
f 96/5/4 93/5/4 94/100/4
f 93/5/4 96/5/4 95/101/4
f 93/86/5 24/22/5 94/5/5
f 24/22/5 93/86/5 21/5/5
f 22/2/6 96/3/6 23/11/6
f 96/3/6 22/2/6 95/1/6
f 117/3/1 116/2/1 115/1/1
f 116/3/1 117/2/1 118/1/1
f 10/3/2 117/2/2 115/1/2
f 117/3/2 10/2/2 12/1/2
f 119/5/3 116/5/3 118/102/3
f 116/5/3 119/5/3 120/103/3
f 119/5/4 10/5/4 120/104/4
f 10/5/4 119/5/4 12/105/4
f 10/5/5 116/5/5 120/106/5
f 116/5/5 10/5/5 115/107/5
f 117/2/6 119/3/6 118/11/6
f 119/3/6 117/2/6 12/1/6
f 123/3/1 122/2/1 121/1/1
f 122/3/1 123/2/1 124/1/1
f 125/3/2 123/2/2 121/1/2
f 123/3/2 125/2/2 126/1/2
f 73/5/3 122/5/3 124/108/3
f 122/5/3 73/5/3 71/109/3
f 73/5/4 125/5/4 71/110/4
f 125/5/4 73/5/4 126/111/4
f 125/5/5 122/5/5 71/66/5
f 122/5/5 125/5/5 121/112/5
f 123/2/6 73/3/6 124/11/6
f 73/3/6 123/2/6 126/1/6
f 129/3/1 128/2/1 127/1/1
f 128/3/1 129/2/1 130/1/1
f 131/3/2 129/2/2 127/1/2
f 129/3/2 131/2/2 132/1/2
f 133/5/3 128/5/3 130/113/3
f 128/5/3 133/5/3 134/114/3
f 133/5/4 131/5/4 134/115/4
f 131/5/4 133/5/4 132/116/4
f 131/5/5 128/5/5 134/117/5
f 128/5/5 131/5/5 127/118/5
f 129/2/6 133/3/6 130/11/6
f 133/3/6 129/2/6 132/1/6
f 137/3/1 136/2/1 135/1/1
f 136/3/1 137/2/1 138/1/1
f 122/3/2 137/2/2 135/1/2
f 137/3/2 122/2/2 124/1/2
f 139/5/3 136/5/3 138/119/3
f 136/5/3 139/5/3 140/120/3
f 139/5/4 122/5/4 140/121/4
f 122/5/4 139/5/4 124/122/4
f 122/5/5 136/5/5 140/123/5
f 136/5/5 122/5/5 135/124/5
f 137/2/6 139/3/6 138/11/6
f 139/3/6 137/2/6 124/1/6
f 143/3/1 142/2/1 141/1/1
f 142/3/1 143/2/1 144/1/1
f 71/3/2 143/2/2 141/1/2
f 143/3/2 71/2/2 73/1/2
f 74/61/3 142/5/3 144/125/3
f 142/5/3 74/61/3 72/5/3
f 74/5/4 71/110/4 72/126/4
f 71/110/4 74/5/4 73/5/4
f 71/66/5 142/5/5 72/5/5
f 142/5/5 71/66/5 141/127/5
f 143/2/6 74/3/6 144/11/6
f 74/3/6 143/2/6 73/1/6
f 76/3/1 78/2/1 75/1/1
f 78/3/1 76/2/1 77/1/1
f 145/3/2 76/2/2 75/1/2
f 76/3/2 145/2/2 146/1/2
f 147/5/3 78/62/3 77/5/3
f 78/62/3 147/5/3 148/128/3
f 147/5/4 145/5/4 148/129/4
f 145/5/4 147/5/4 146/130/4
f 145/5/5 78/65/5 148/131/5
f 78/65/5 145/5/5 75/5/5
f 76/2/6 147/3/6 77/11/6
f 147/3/6 76/2/6 146/1/6
f 151/3/1 150/2/1 149/1/1
f 150/3/1 151/2/1 152/1/1
f 153/3/2 151/2/2 149/1/2
f 151/3/2 153/2/2 154/1/2
f 155/5/3 150/5/3 152/132/3
f 150/5/3 155/5/3 156/133/3
f 155/5/4 153/5/4 156/134/4
f 153/5/4 155/5/4 154/135/4
f 153/5/5 150/5/5 156/136/5
f 150/5/5 153/5/5 149/137/5
f 151/2/6 155/3/6 152/11/6
f 155/3/6 151/2/6 154/1/6
f 159/3/1 158/2/1 157/1/1
f 158/3/1 159/2/1 160/1/1
f 128/3/2 159/2/2 157/1/2
f 159/3/2 128/2/2 130/1/2
f 161/5/3 158/5/3 160/138/3
f 158/5/3 161/5/3 162/139/3
f 161/5/4 128/5/4 162/140/4
f 128/5/4 161/5/4 130/141/4
f 128/5/5 158/5/5 162/142/5
f 158/5/5 128/5/5 157/143/5
f 159/2/6 161/3/6 160/11/6
f 161/3/6 159/2/6 130/1/6
f 155/3/1 163/2/1 156/1/1
f 163/3/1 155/2/1 164/1/1
f 107/3/2 155/2/2 156/1/2
f 155/3/2 107/2/2 108/1/2
f 43/92/3 163/5/3 164/144/3
f 163/5/3 43/92/3 41/5/3
f 43/5/4 107/5/4 41/145/4
f 107/5/4 43/5/4 108/146/4
f 107/97/5 163/5/5 41/41/5
f 163/5/5 107/97/5 156/136/5
f 155/2/6 43/3/6 164/11/6
f 43/3/6 155/2/6 108/1/6

usemtl color0

f 167/3/1 166/2/1 165/1/1
f 166/3/1 167/2/1 168/1/1
f 169/3/2 167/2/2 165/1/2
f 167/3/2 169/2/2 170/1/2
f 171/5/3 166/5/3 168/147/3
f 166/5/3 171/5/3 172/148/3
f 171/5/4 169/5/4 172/149/4
f 169/5/4 171/5/4 170/150/4
f 169/5/5 166/5/5 172/151/5
f 166/5/5 169/5/5 165/152/5
f 167/2/6 171/3/6 168/11/6
f 171/3/6 167/2/6 170/1/6

usemtl color15

f 175/3/1 174/2/1 173/1/1
f 174/3/1 175/2/1 176/1/1
f 177/3/2 175/2/2 173/1/2
f 175/3/2 177/2/2 178/1/2
f 179/5/3 174/5/3 176/153/3
f 174/5/3 179/5/3 180/154/3
f 179/5/4 177/5/4 180/155/4
f 177/5/4 179/5/4 178/156/4
f 177/5/5 174/5/5 180/157/5
f 174/5/5 177/5/5 173/158/5
f 175/2/6 179/3/6 176/11/6
f 179/3/6 175/2/6 178/1/6
f 183/3/1 182/2/1 181/1/1
f 182/3/1 183/2/1 184/1/1
f 59/3/2 183/2/2 181/1/2
f 183/3/2 59/2/2 61/1/2
f 62/51/3 182/5/3 184/159/3
f 182/5/3 62/51/3 60/5/3
f 62/5/4 59/5/4 60/160/4
f 59/5/4 62/5/4 61/161/4
f 59/56/5 182/5/5 60/5/5
f 182/5/5 59/56/5 181/162/5
f 183/2/6 62/3/6 184/11/6
f 62/3/6 183/2/6 61/1/6

usemtl color16

f 178/3/1 180/2/1 177/1/1
f 180/3/1 178/2/1 179/1/1
f 181/3/2 178/2/2 177/1/2
f 178/3/2 181/2/2 183/1/2
f 184/159/3 180/154/3 179/5/3
f 180/154/3 184/159/3 182/5/3
f 184/5/4 181/5/4 182/163/4
f 181/5/4 184/5/4 183/164/4
f 181/162/5 180/157/5 182/5/5
f 180/157/5 181/162/5 177/5/5
f 178/2/6 184/3/6 179/11/6
f 184/3/6 178/2/6 183/1/6

usemtl color17

f 64/3/1 66/2/1 63/1/1
f 66/3/1 64/2/1 65/1/1
f 25/3/2 64/2/2 63/1/2
f 64/3/2 25/2/2 27/1/2
f 28/24/3 66/52/3 65/5/3
f 66/52/3 28/24/3 26/5/3
f 28/5/4 25/5/4 26/165/4
f 25/5/4 28/5/4 27/166/4
f 25/29/5 66/55/5 26/5/5
f 66/55/5 25/29/5 63/5/5
f 64/2/6 28/3/6 65/11/6
f 28/3/6 64/2/6 27/1/6

usemtl color11

f 126/3/1 71/2/1 125/1/1
f 71/3/1 126/2/1 73/1/1
f 100/3/2 126/2/2 125/1/2
f 126/3/2 100/2/2 99/1/2
f 185/5/3 71/109/3 73/5/3
f 71/109/3 185/5/3 186/167/3
f 185/5/4 100/83/4 186/168/4
f 100/83/4 185/5/4 99/5/4
f 100/85/5 71/66/5 186/169/5
f 71/66/5 100/85/5 125/5/5
f 126/2/6 185/3/6 73/11/6
f 185/3/6 126/2/6 99/1/6
f 118/3/1 187/2/1 116/1/1
f 187/3/1 118/2/1 188/1/1
f 120/3/2 118/2/2 116/1/2
f 118/3/2 120/2/2 119/1/2
f 160/138/3 187/5/3 188/170/3
f 187/5/3 160/138/3 158/5/3
f 160/5/4 120/104/4 158/171/4
f 120/104/4 160/5/4 119/5/4
f 120/106/5 187/5/5 158/5/5
f 187/5/5 120/106/5 116/5/5
f 118/2/6 160/3/6 188/11/6
f 160/3/6 118/2/6 119/1/6
f 132/3/1 134/2/1 131/1/1
f 134/3/1 132/2/1 133/1/1
f 135/3/2 132/2/2 131/1/2
f 132/3/2 135/2/2 137/1/2
f 138/119/3 134/114/3 133/5/3
f 134/114/3 138/119/3 136/5/3
f 138/5/4 135/5/4 136/172/4
f 135/5/4 138/5/4 137/173/4
f 135/124/5 134/117/5 136/5/5
f 134/117/5 135/124/5 131/5/5
f 132/2/6 138/3/6 133/11/6
f 138/3/6 132/2/6 137/1/6
f 124/3/1 140/2/1 122/1/1
f 140/3/1 124/2/1 139/1/1
f 141/3/2 124/2/2 122/1/2
f 124/3/2 141/2/2 143/1/2
f 144/125/3 140/120/3 139/5/3
f 140/120/3 144/125/3 142/5/3
f 144/5/4 141/5/4 142/174/4
f 141/5/4 144/5/4 143/175/4
f 141/127/5 140/123/5 142/5/5
f 140/123/5 141/127/5 122/5/5
f 124/2/6 144/3/6 139/11/6
f 144/3/6 124/2/6 143/1/6
f 154/3/1 156/2/1 153/1/1
f 156/3/1 154/2/1 155/1/1
f 189/3/2 154/2/2 153/1/2
f 154/3/2 189/2/2 190/1/2
f 108/5/3 156/133/3 155/5/3
f 156/133/3 108/5/3 107/176/3
f 108/146/4 189/5/4 107/5/4
f 189/5/4 108/146/4 190/177/4
f 189/5/5 156/136/5 107/97/5
f 156/136/5 189/5/5 153/5/5
f 154/2/6 108/3/6 155/11/6
f 108/3/6 154/2/6 190/1/6
f 192/3/1 109/2/1 191/1/1
f 109/3/1 192/2/1 110/1/1
f 193/3/2 192/2/2 191/1/2
f 192/3/2 193/2/2 194/1/2
f 195/5/3 109/5/3 110/178/3
f 109/5/3 195/5/3 196/179/3
f 195/5/4 193/5/4 196/180/4
f 193/5/4 195/5/4 194/181/4
f 193/5/5 109/5/5 196/182/5
f 109/5/5 193/5/5 191/183/5
f 192/2/6 195/3/6 110/11/6
f 195/3/6 192/2/6 194/1/6
f 199/3/1 198/2/1 197/1/1
f 198/3/1 199/2/1 200/1/1
f 201/3/2 199/2/2 197/1/2
f 199/3/2 201/2/2 202/1/2
f 203/5/3 198/5/3 200/184/3
f 198/5/3 203/5/3 204/185/3
f 203/5/4 201/5/4 204/186/4
f 201/5/4 203/5/4 202/187/4
f 201/5/5 198/5/5 204/188/5
f 198/5/5 201/5/5 197/189/5
f 199/2/6 203/3/6 200/11/6
f 203/3/6 199/2/6 202/1/6
f 207/3/1 206/2/1 205/1/1
f 206/3/1 207/2/1 208/1/1
f 33/3/2 207/2/2 205/1/2
f 207/3/2 33/2/2 35/1/2
f 36/30/3 206/5/3 208/190/3
f 206/5/3 36/30/3 34/5/3
f 36/5/4 33/5/4 34/191/4
f 33/5/4 36/5/4 35/192/4
f 33/35/5 206/5/5 34/5/5
f 206/5/5 33/35/5 205/193/5
f 207/2/6 36/3/6 208/11/6
f 36/3/6 207/2/6 35/1/6
f 38/3/1 40/2/1 37/1/1
f 40/3/1 38/2/1 39/1/1
f 209/3/2 38/2/2 37/1/2
f 38/3/2 209/2/2 210/1/2
f 211/5/3 40/31/3 39/5/3
f 40/31/3 211/5/3 212/194/3
f 211/5/4 209/5/4 212/195/4
f 209/5/4 211/5/4 210/196/4
f 209/5/5 40/34/5 212/197/5
f 40/34/5 209/5/5 37/5/5
f 38/2/6 211/3/6 39/11/6
f 211/3/6 38/2/6 210/1/6

usemtl color13

f 119/3/1 157/2/1 120/1/1
f 157/3/1 119/2/1 159/1/1
f 213/3/2 119/2/2 120/1/2
f 119/3/2 213/2/2 214/1/2
f 215/5/3 157/5/3 159/198/3
f 157/5/3 215/5/3 216/199/3
f 215/5/4 213/5/4 216/200/4
f 213/5/4 215/5/4 214/201/4
f 213/5/5 157/143/5 216/202/5
f 157/143/5 213/5/5 120/106/5
f 119/2/6 215/3/6 159/11/6
f 215/3/6 119/2/6 214/1/6
f 219/3/1 218/2/1 217/1/1
f 218/3/1 219/2/1 220/1/1
f 127/3/2 219/2/2 217/1/2
f 219/3/2 127/2/2 129/1/2
f 130/113/3 218/5/3 220/203/3
f 218/5/3 130/113/3 128/5/3
f 130/141/4 127/5/4 128/5/4
f 127/5/4 130/141/4 129/204/4
f 127/118/5 218/5/5 128/5/5
f 218/5/5 127/118/5 217/205/5
f 219/2/6 130/3/6 220/11/6
f 130/3/6 219/2/6 129/1/6

usemtl color14

f 214/3/1 216/2/1 213/1/1
f 216/3/1 214/2/1 215/1/1
f 217/3/2 214/2/2 213/1/2
f 214/3/2 217/2/2 219/1/2
f 220/203/3 216/199/3 215/5/3
f 216/199/3 220/203/3 218/5/3
f 220/5/4 217/5/4 218/206/4
f 217/5/4 220/5/4 219/207/4
f 217/205/5 216/202/5 218/5/5
f 216/202/5 217/205/5 213/5/5
f 214/2/6 220/3/6 215/11/6
f 220/3/6 214/2/6 219/1/6

usemtl color2

f 223/3/1 222/2/1 221/1/1
f 222/3/1 223/2/1 224/1/1
f 149/3/2 223/2/2 221/1/2
f 223/3/2 149/2/2 151/1/2
f 152/132/3 222/5/3 224/208/3
f 222/5/3 152/132/3 150/5/3
f 152/5/4 149/5/4 150/209/4
f 149/5/4 152/5/4 151/210/4
f 149/137/5 222/5/5 150/5/5
f 222/5/5 149/137/5 221/211/5
f 223/2/6 152/3/6 224/11/6
f 152/3/6 223/2/6 151/1/6
f 227/3/1 226/2/1 225/1/1
f 226/3/1 227/2/1 228/1/1
f 222/3/2 227/2/2 225/1/2
f 227/3/2 222/2/2 224/1/2
f 229/5/3 226/5/3 228/212/3
f 226/5/3 229/5/3 230/213/3
f 229/5/4 222/5/4 230/214/4
f 222/5/4 229/5/4 224/215/4
f 222/5/5 226/5/5 230/216/5
f 226/5/5 222/5/5 225/217/5
f 227/2/6 229/3/6 228/11/6
f 229/3/6 227/2/6 224/1/6
f 233/3/1 232/2/1 231/1/1
f 232/3/1 233/2/1 234/1/1
f 226/3/2 233/2/2 231/1/2
f 233/3/2 226/2/2 228/1/2
f 235/5/3 232/5/3 234/218/3
f 232/5/3 235/5/3 236/219/3
f 235/5/4 226/5/4 236/220/4
f 226/5/4 235/5/4 228/221/4
f 226/5/5 232/5/5 236/222/5
f 232/5/5 226/5/5 231/223/5
f 233/2/6 235/3/6 234/11/6
f 235/3/6 233/2/6 228/1/6
f 239/3/1 238/2/1 237/1/1
f 238/3/1 239/2/1 240/1/1
f 241/3/2 239/2/2 237/1/2
f 239/3/2 241/2/2 242/1/2
f 243/5/3 238/5/3 240/224/3
f 238/5/3 243/5/3 244/225/3
f 243/5/4 241/5/4 244/226/4
f 241/5/4 243/5/4 242/227/4
f 241/5/5 238/5/5 244/228/5
f 238/5/5 241/5/5 237/229/5
f 239/2/6 243/3/6 240/11/6
f 243/3/6 239/2/6 242/1/6
f 247/3/1 246/2/1 245/1/1
f 246/3/1 247/2/1 248/1/1
f 249/3/2 247/2/2 245/1/2
f 247/3/2 249/2/2 250/1/2
f 251/5/3 246/5/3 248/230/3
f 246/5/3 251/5/3 252/231/3
f 251/5/4 249/5/4 252/232/4
f 249/5/4 251/5/4 250/233/4
f 249/5/5 246/5/5 252/234/5
f 246/5/5 249/5/5 245/235/5
f 247/2/6 251/3/6 248/11/6
f 251/3/6 247/2/6 250/1/6

usemtl color12

f 194/3/1 196/2/1 193/1/1
f 196/3/1 194/2/1 195/1/1
f 197/3/2 194/2/2 193/1/2
f 194/3/2 197/2/2 199/1/2
f 200/184/3 196/179/3 195/5/3
f 196/179/3 200/184/3 198/5/3
f 200/5/4 197/5/4 198/236/4
f 197/5/4 200/5/4 199/237/4
f 197/189/5 196/182/5 198/5/5
f 196/182/5 197/189/5 193/5/5
f 194/2/6 200/3/6 195/11/6
f 200/3/6 194/2/6 199/1/6
f 202/3/1 204/2/1 201/1/1
f 204/3/1 202/2/1 203/1/1
f 205/3/2 202/2/2 201/1/2
f 202/3/2 205/2/2 207/1/2
f 208/190/3 204/185/3 203/5/3
f 204/185/3 208/190/3 206/5/3
f 208/5/4 205/5/4 206/238/4
f 205/5/4 208/5/4 207/239/4
f 205/193/5 204/188/5 206/5/5
f 204/188/5 205/193/5 201/5/5
f 202/2/6 208/3/6 203/11/6
f 208/3/6 202/2/6 207/1/6

usemtl color5

f 255/3/1 254/2/1 253/1/1
f 254/3/1 255/2/1 256/1/1
f 257/3/2 255/2/2 253/1/2
f 255/3/2 257/2/2 258/1/2
f 259/5/3 254/5/3 256/240/3
f 254/5/3 259/5/3 260/241/3
f 259/5/4 257/5/4 260/242/4
f 257/5/4 259/5/4 258/243/4
f 257/5/5 254/5/5 260/244/5
f 254/5/5 257/5/5 253/245/5
f 255/2/6 259/3/6 256/11/6
f 259/3/6 255/2/6 258/1/6
f 258/3/1 261/2/1 257/1/1
f 261/3/1 258/2/1 262/1/1
f 263/3/2 258/2/2 257/1/2
f 258/3/2 263/2/2 264/1/2
f 265/5/3 261/5/3 262/246/3
f 261/5/3 265/5/3 266/247/3
f 265/5/4 263/5/4 266/248/4
f 263/5/4 265/5/4 264/249/4
f 263/5/5 261/5/5 266/250/5
f 261/5/5 263/5/5 257/5/5
f 258/2/6 265/3/6 262/11/6
f 265/3/6 258/2/6 264/1/6
f 269/3/1 268/2/1 267/1/1
f 268/3/1 269/2/1 270/1/1
f 271/3/2 269/2/2 267/1/2
f 269/3/2 271/2/2 272/1/2
f 247/5/3 268/5/3 270/251/3
f 268/5/3 247/5/3 245/252/3
f 247/5/4 271/5/4 245/253/4
f 271/5/4 247/5/4 272/254/4
f 271/5/5 268/5/5 245/235/5
f 268/5/5 271/5/5 267/255/5
f 269/2/6 247/3/6 270/11/6
f 247/3/6 269/2/6 272/1/6
f 258/3/1 261/2/1 257/1/1
f 261/3/1 258/2/1 262/1/1
f 263/3/2 258/2/2 257/1/2
f 258/3/2 263/2/2 264/1/2
f 265/5/3 261/5/3 262/246/3
f 261/5/3 265/5/3 266/247/3
f 265/5/4 263/5/4 266/248/4
f 263/5/4 265/5/4 264/249/4
f 263/5/5 261/5/5 266/250/5
f 261/5/5 263/5/5 257/5/5
f 258/2/6 265/3/6 262/11/6
f 265/3/6 258/2/6 264/1/6

usemtl color1

f 262/3/1 260/2/1 261/1/1
f 260/3/1 262/2/1 259/1/1
f 266/3/2 262/2/2 261/1/2
f 262/3/2 266/2/2 265/1/2
f 273/5/3 260/241/3 259/5/3
f 260/241/3 273/5/3 274/256/3
f 273/5/4 266/248/4 274/257/4
f 266/248/4 273/5/4 265/5/4
f 266/250/5 260/244/5 274/258/5
f 260/244/5 266/250/5 261/5/5
f 262/2/6 273/3/6 259/11/6
f 273/3/6 262/2/6 265/1/6
f 256/3/1 245/2/1 254/1/1
f 245/3/1 256/2/1 247/1/1
f 260/3/2 256/2/2 254/1/2
f 256/3/2 260/2/2 259/1/2
f 250/5/3 245/252/3 247/5/3
f 245/252/3 250/5/3 249/259/3
f 250/233/4 260/242/4 249/5/4
f 260/242/4 250/233/4 259/5/4
f 260/244/5 245/235/5 249/5/5
f 245/235/5 260/244/5 254/5/5
f 256/2/6 250/3/6 247/11/6
f 250/3/6 256/2/6 259/1/6
f 277/3/1 276/2/1 275/1/1
f 276/3/1 277/2/1 278/1/1
f 279/3/2 277/2/2 275/1/2
f 277/3/2 279/2/2 280/1/2
f 248/230/3 276/5/3 278/260/3
f 276/5/3 248/230/3 246/5/3
f 248/5/4 279/5/4 246/261/4
f 279/5/4 248/5/4 280/262/4
f 279/5/5 276/5/5 246/5/5
f 276/5/5 279/5/5 275/263/5
f 277/2/6 248/3/6 278/11/6
f 248/3/6 277/2/6 280/1/6

usemtl color7

f 265/3/1 274/2/1 266/1/1
f 274/3/1 265/2/1 273/1/1
f 281/3/2 265/2/2 266/1/2
f 265/3/2 281/2/2 282/1/2
f 283/5/3 274/256/3 273/5/3
f 274/256/3 283/5/3 284/264/3
f 283/5/4 281/5/4 284/265/4
f 281/5/4 283/5/4 282/266/4
f 281/5/5 274/258/5 284/267/5
f 274/258/5 281/5/5 266/250/5
f 265/2/6 283/3/6 273/11/6
f 283/3/6 265/2/6 282/1/6

usemtl color4

f 270/3/1 285/2/1 268/1/1
f 285/3/1 270/2/1 286/1/1
f 245/3/2 270/2/2 268/1/2
f 270/3/2 245/2/2 247/1/2
f 280/5/3 285/5/3 286/268/3
f 285/5/3 280/5/3 279/269/3
f 280/262/4 245/253/4 279/5/4
f 245/253/4 280/262/4 247/5/4
f 245/235/5 285/5/5 279/5/5
f 285/5/5 245/235/5 268/5/5
f 270/2/6 280/3/6 286/11/6
f 280/3/6 270/2/6 247/1/6

