# Created by Kenney (www.kenney.nl)

mtllib Shotgun RE4 Chacaka.mtl

v 6 5 -0.5
v 6 4 -0.5
v 6 5 0.5
v 6 4 0.5
v 5 5 -0.5
v 5 5 0.5
v 5 4 0.5
v 5 4 -0.5
v 6 4 -1
v 6 3 -1
v 6 4 1
v 6 3 1
v 4 4 -1
v 4 4 1
v 4 3 1
v 4 3 -1
v 2 4 -1
v 2 3 -1
v 2 4 1
v 2 3 1
v 1 4 -1
v 1 4 1
v 1 3 1
v 1 3 -1
v -1 4 -1
v -1 3 -1
v -1 4 1
v -1 3 1
v -2 4 -1
v -2 4 1
v -2 3 1
v -2 3 -1
v -4 4 -1
v -4 3 -1
v -4 4 1
v -4 3 1
v -5 4 -1
v -5 4 1
v -5 3 1
v -5 3 -1
v -7 4 -1
v -7 3 -1
v -7 4 1
v -7 3 1
v -8 4 -1
v -8 4 1
v -8 3 1
v -8 3 -1
v -10 4 -1
v -10 3 -1
v -10 4 1
v -10 3 1
v -11 4 -1
v -11 4 1
v -11 3 1
v -11 3 -1
v 4 2 -1
v 4 2 1
v 2 2 1
v 2 2 -1
v 1 2 -1
v 1 2 1
v -1 2 1
v -1 2 -1
v -2 2 -1
v -2 2 1
v -4 2 1
v -4 2 -1
v -5 2 -1
v -5 2 1
v -7 2 1
v -7 2 -1
v 17 2 -0.5
v 17 1 -0.5
v 17 2 0.5
v 17 1 0.5
v 16 2 -0.5
v 16 2 0.5
v 16 1 0.5
v 16 1 -0.5
v 1 2 -1.5
v 1 1 -1.5
v 1 2 1.5
v 1 1 1.5
v 0 2 -1.5
v 0 2 1.5
v 0 1 1.5
v 0 1 -1.5
v -5 2 -1.5
v -5 1 -1.5
v -5 2 1.5
v -5 1 1.5
v -6 2 -1.5
v -6 2 1.5
v -6 1 1.5
v -6 1 -1.5
v -10 2 -1
v -10 1 -1
v -10 2 1
v -10 1 1
v -12 2 -1
v -12 2 1
v -12 1 1
v -12 1 -1
v -13 2 -1
v -13 1 -1
v -13 2 1
v -13 1 1
v -14 2 -1
v -14 2 1
v -14 1 1
v -14 1 -1
v 16 1 -1
v 16 0 -1
v 16 1 1
v 16 0 1
v 15 1 -1
v 15 1 1
v 15 0 1
v 15 0 -1
v 15 1 -1.5
v 15 0 -1.5
v 15 1 1.5
v 15 0 1.5
v 13 1 -1.5
v 13 1 1.5
v 13 0 1.5
v 13 0 -1.5
v -3 0 -0.5
v -3 -2 -0.5
v -3 0 0.5
v -3 -2 0.5
v -4 0 -0.5
v -4 0 0.5
v -4 -2 0.5
v -4 -2 -0.5
v -13 0 -1
v -13 -1 -1
v -13 0 1
v -13 -1 1
v -14 0 -1
v -14 0 1
v -14 -1 1
v -14 -1 -1
v 13 -1 -0.5
v 13 -2 -0.5
v 13 -1 0.5
v 13 -2 0.5
v 12 -1 -0.5
v 12 -1 0.5
v 12 -2 0.5
v 12 -2 -0.5
v -2 -1 -1
v -2 -2 -1
v -2 -1 1
v -2 -2 1
v -3 -1 -1
v -3 -1 1
v -3 -2 1
v -3 -2 -1
v 14 -2 -0.5
v 14 -4 -0.5
v 14 -2 0.5
v 14 -4 0.5
v 13 -4 0.5
v 13 -4 -0.5
v -2 -2 -0.5
v -2 -4 -0.5
v -2 -2 0.5
v -2 -4 0.5
v -3 -4 0.5
v -3 -4 -0.5
v 15 -3 -1
v 15 -4 -1
v 15 -3 1
v 15 -4 1
v 14 -3 -1
v 14 -3 1
v 14 -4 1
v 14 -4 -1
v -1 -3 -1
v -1 -4 -1
v -1 -3 1
v -1 -4 1
v -2 -3 -1
v -2 -3 1
v -2 -4 1
v -2 -4 -1
v -8 5 -0.5
v -8 4 -0.5
v -8 5 0.5
v -8 4 0.5
v -9 5 -0.5
v -9 5 0.5
v -9 4 0.5
v -9 4 -0.5
v -9 4 -1
v -9 4 1
v -9 3 1
v -9 3 -1
v 16 2 -1
v 16 2 1
v 15 2 -1
v 15 2 1
v 6 2 -1
v 6 0 -1
v 6 2 1
v 6 0 1
v 5 2 -1
v 5 2 1
v 5 0 1
v 5 0 -1
v -1 2 -1.5
v -1 1 -1.5
v -1 2 1.5
v -1 1 1.5
v -4 2 -1.5
v -4 2 1.5
v -4 1 1.5
v -4 1 -1.5
v 12 1 -1.5
v 12 1 1.5
v 12 0 1.5
v 12 0 -1.5
v 16 -4 -0.5
v 16 -5 -0.5
v 16 -4 0.5
v 16 -5 0.5
v 15 -4 -0.5
v 15 -4 0.5
v 15 -5 0.5
v 15 -5 -0.5
v 15 -5 -1
v 15 -5 1
v 14 -5 1
v 14 -5 -1
v 0 -4 -0.5
v 0 -5 -0.5
v 0 -4 0.5
v 0 -5 0.5
v -1 -4 -0.5
v -1 -4 0.5
v -1 -5 0.5
v -1 -5 -0.5
v -1 -5 -1
v -1 -5 1
v -2 -5 1
v -2 -5 -1
v -10 5 -0.5
v -10 5 0.5
v -10 4 0.5
v -10 4 -0.5
v -4 1 -1
v -4 1 1
v -5 1 1
v -5 1 -1
v -9 2 1
v -9 2 -1
v -11 2 1
v -11 2 -1
v 0 2 -1
v 0 1 -1
v 0 2 1
v 0 1 1
v -1 1 1
v -1 1 -1
v -12 2 -0.5
v -12 1 -0.5
v -12 2 0.5
v -12 1 0.5
v -13 2 -0.5
v -13 2 0.5
v -13 1 0.5
v -13 1 -0.5
v 17 0 -0.5
v 17 0 0.5
v 16 0 0.5
v 16 0 -0.5
v 1 0 -1.5
v 1 0 1.5
v 0 0 1.5
v 0 0 -1.5
v -1 0 -1.5
v -1 0 1.5
v -4 0 1.5
v -4 0 -1.5
v -5 0 -1.5
v -5 0 1.5
v -6 0 1.5
v -6 0 -1.5
v 14 0 -1
v 14 -2 -1
v 14 0 1
v 14 -2 1
v 13 0 -1
v 13 0 1
v 13 -2 1
v 13 -2 -1
v -2 0 -1
v -2 0 1
v -3 0 -1
v -3 0 1
v -8 0 -0.5
v -8 -1 -0.5
v -8 0 0.5
v -8 -1 0.5
v -9 0 -0.5
v -9 0 0.5
v -9 -1 0.5
v -9 -1 -0.5
v -12 0 -1
v -12 -1 -1
v -12 0 1
v -12 -1 1
v -1 -1 -0.5
v -1 -2 -0.5
v -1 -1 0.5
v -1 -2 0.5
v -2 -1 -0.5
v -2 -1 0.5
v -11 -1 -0.5
v -11 -2 -0.5
v -11 -1 0.5
v -11 -2 0.5
v -12 -1 -0.5
v -12 -1 0.5
v -12 -2 0.5
v -12 -2 -0.5
v -14 -2 -1
v -14 -2 1
v -15 -1 -1
v -15 -1 1
v -15 -2 1
v -15 -2 -1
v 15 -2 -1
v 15 -2 1
v -1 -2 -1
v -1 -2 1
v 0 -3 -0.5
v 0 -3 0.5
v -1 -3 -0.5
v -1 -3 0.5
v 13 4 -1
v 13 3 -1
v 13 4 1
v 13 3 1
v -13 4 -0.5
v -13 3 -0.5
v -13 4 0.5
v -13 3 0.5
v -15 4 -0.5
v -15 4 0.5
v -15 3 0.5
v -15 3 -0.5
v 14 3 -1
v 14 2 -1
v 14 3 1
v 14 2 1
v 13 2 1
v 13 2 -1
v 4 4 -0.5
v 4 3 -0.5
v 4 4 0.5
v 4 3 0.5
v 3 4 -0.5
v 3 4 0.5
v 3 3 0.5
v 3 3 -0.5
v 1 4 -0.5
v 1 3 -0.5
v 1 4 0.5
v 1 3 0.5
v 0 4 -0.5
v 0 4 0.5
v 0 3 0.5
v 0 3 -0.5
v -2 4 -0.5
v -2 3 -0.5
v -2 4 0.5
v -2 3 0.5
v -3 4 -0.5
v -3 4 0.5
v -3 3 0.5
v -3 3 -0.5
v -5 4 -0.5
v -5 3 -0.5
v -5 4 0.5
v -5 3 0.5
v -6 4 -0.5
v -6 4 0.5
v -6 3 0.5
v -6 3 -0.5
v -8 2 -1
v -8 0 -1
v -8 2 1
v -8 0 1
v -9 0 1
v -9 0 -1
v -9 2 -0.5
v -9 2 0.5
v -10 2 -0.5
v -10 2 0.5
v -10 0 0.5
v -10 0 -0.5
v 0 0 -1
v 0 0 1
v -1 0 1
v -1 0 -1
v -4 0 -1
v -4 0 1
v -5 0 1
v -5 0 -1
v -10 1 -0.5
v -10 1 0.5
v -15 1 -0.5
v -15 1 0.5
v -15 0 0.5
v -15 0 -0.5
v -1 0 -0.5
v -1 0 0.5
v -2 0 -0.5
v -2 0 0.5
v -9 -2 -0.5
v -9 -2 0.5
v -13 -2 -1
v -13 -2 1
v 0 -2 -0.5
v 0 -2 0.5
v 2 4 -0.5
v 2 4 0.5
v 2 3 0.5
v 2 3 -0.5
v -1 4 -0.5
v -1 4 0.5
v -1 3 0.5
v -1 3 -0.5
v -4 4 -0.5
v -4 4 0.5
v -4 3 0.5
v -4 3 -0.5
v -7 4 -0.5
v -7 4 0.5
v -7 3 0.5
v -7 3 -0.5
v 15 0 -0.5
v 15 -2 -0.5
v 15 0 0.5
v 15 -2 0.5
v 14 0 -0.5
v 14 0 0.5
v 13 0 -0.5
v 13 0 0.5
v 12 0 -0.5
v 12 0 0.5
v 10 0 -0.5
v 10 -1 -0.5
v 10 0 0.5
v 10 -1 0.5
v 9 0 -0.5
v 9 0 0.5
v 9 -1 0.5
v 9 -1 -0.5
v 10 -2 0.5
v 10 -2 -0.5
v 16 -2 -0.5
v 16 -2 0.5
v -11 4 -0.5
v -11 3 -0.5
v -11 4 0.5
v -11 3 0.5
v -14 3 -1
v -14 3 1
v -15 3 -1
v -15 3 1
v -15 2 1
v -15 2 -1
v 5 2 -1.5
v 5 1 -1.5
v 5 2 1.5
v 5 1 1.5
v 4 2 -1.5
v 4 2 1.5
v 4 1 1.5
v 4 1 -1.5
v -7 2 -1.5
v -7 1 -1.5
v -7 2 1.5
v -7 1 1.5
v -8 2 -1.5
v -8 2 1.5
v -8 1 1.5
v -8 1 -1.5
v -16 4 -0.5
v -16 4 0.5
v -16 3 0.5
v -16 3 -0.5
v -16 3 -1
v -16 3 1
v -16 2 1
v -16 2 -1
v 15 3 -1
v 15 3 1
v 13 3 -1.5
v 13 2 -1.5
v 13 3 1.5
v 13 2 1.5
v 9 3 -1.5
v 9 3 1.5
v 9 2 1.5
v 9 2 -1.5
v 8 3 -1.5
v 8 2 -1.5
v 8 3 1.5
v 8 2 1.5
v 7 3 -1.5
v 7 3 1.5
v 7 2 1.5
v 7 2 -1.5
v 14 2 -1.5
v 14 1 -1.5
v 14 2 1.5
v 14 1 1.5
v 12 2 -1.5
v 12 2 1.5
v 8 1 1.5
v 8 1 -1.5
v 7 1 -1.5
v 7 1 1.5
v 6 2 -1.5
v 6 2 1.5
v 6 1 1.5
v 6 1 -1.5
v 5 0 -1.5
v 5 0 1.5
v 4 0 1.5
v 4 0 -1.5
v -7 0 -1.5
v -7 0 1.5
v -8 0 1.5
v -8 0 -1.5
v 6 3 -1.5
v 6 3 1.5
v 13 2 -2
v 13 1 -2
v 13 2 2
v 13 1 2
v 12 2 -2
v 12 2 2
v 12 1 2
v 12 1 -2
v 15 2 -1.5
v 15 2 1.5
v 6 0 1.5
v 6 0 -1.5
v 13 -4 -1
v 13 -4 1
v 13 -5 1
v 13 -5 -1
v -3 -4 -1
v -3 -4 1
v -3 -5 1
v -3 -5 -1
v -9 -1 -1
v -9 -1 1
v -10 0 -1
v -10 0 1
v -10 -1 1
v -10 -1 -1
v -11 0 -1
v -11 -1 -1
v -11 0 1
v -11 -1 1
v -15 0 -1
v -15 0 1
v -15 -1 -0.5
v -15 -1 0.5
v -16 0 -0.5
v -16 0 0.5
v -16 -1 0.5
v -16 -1 -0.5

vn 1 0 0
vn 0 1 0
vn 0 -1 0
vn -1 0 0
vn 0 0 -1
vn 0 0 1

vt -19.68504 19.68504
vt 19.68504 19.68504
vt -19.68504 -19.68504
vt 0 NaN
vt 0 0
vt 0 NaN
vt 0 NaN
vt 0 NaN
vt 0 NaN
vt 0 NaN
vt 19.68504 -19.68504
vt 0 NaN
vt 0 NaN
vt 0 NaN
vt 0 NaN
vt 0 NaN
vt 0 NaN
vt 0 NaN
vt 0 NaN
vt 0 NaN
vt 0 NaN
vt 0 NaN
vt 0 NaN
vt 0 NaN
vt 0 NaN
vt 0 NaN
vt 0 NaN
vt 0 NaN
vt 0 NaN
vt 0 NaN
vt 0 NaN
vt 0 NaN
vt 0 NaN
vt 0 NaN
vt 0 NaN
vt 0 NaN
vt 0 NaN
vt 0 NaN
vt 0 NaN
vt 0 NaN
vt 0 NaN
vt 0 NaN
vt 0 NaN
vt 0 NaN
vt 0 NaN
vt 0 NaN
vt 0 NaN
vt 0 NaN
vt 0 NaN
vt 0 NaN
vt 0 NaN
vt 0 NaN
vt 0 NaN
vt 0 NaN
vt 0 NaN
vt 0 NaN
vt 0 NaN
vt 0 NaN
vt 0 NaN
vt 0 NaN
vt 0 NaN
vt 0 NaN
vt 0 NaN
vt 0 NaN
vt 0 NaN
vt 0 NaN
vt 0 NaN
vt 0 NaN
vt 0 NaN
vt 0 NaN
vt 0 NaN
vt 0 NaN
vt 0 NaN
vt 0 NaN
vt 0 NaN
vt 0 NaN
vt 0 NaN
vt 0 NaN
vt 0 NaN
vt 0 NaN
vt 0 NaN
vt 0 NaN
vt 0 NaN
vt 0 NaN
vt 0 NaN
vt 0 NaN
vt 0 NaN
vt 0 NaN
vt 0 NaN
vt 0 NaN
vt 0 NaN
vt 0 NaN
vt 0 NaN
vt 0 NaN
vt 0 NaN
vt 0 NaN
vt 0 NaN
vt 0 NaN
vt 0 NaN
vt 0 NaN
vt 0 NaN
vt 0 NaN
vt 0 NaN
vt 0 NaN
vt 0 NaN
vt 0 NaN
vt 0 NaN
vt 0 NaN
vt 0 NaN
vt 0 NaN
vt 0 NaN
vt 0 NaN
vt 0 NaN
vt 0 NaN
vt 0 NaN
vt 0 NaN
vt 0 NaN
vt 0 NaN
vt 0 NaN
vt 0 NaN
vt 0 NaN
vt 0 NaN
vt 0 NaN
vt 0 NaN
vt 0 NaN
vt 0 NaN
vt 0 NaN
vt 0 NaN
vt 0 NaN
vt 0 NaN
vt 0 NaN
vt 0 NaN
vt 0 NaN
vt 0 NaN
vt 0 NaN
vt 0 NaN
vt 0 NaN
vt 0 NaN
vt 0 NaN
vt 0 NaN
vt 0 NaN
vt 0 NaN
vt 0 NaN
vt 0 NaN
vt 0 NaN
vt 0 NaN
vt 0 NaN
vt 0 NaN
vt 0 NaN
vt 0 NaN
vt 0 NaN
vt 0 NaN
vt 0 NaN
vt 0 NaN
vt 0 NaN
vt 0 NaN
vt 0 NaN
vt 0 NaN
vt 0 NaN
vt 0 NaN
vt 0 NaN
vt 0 NaN
vt 0 NaN
vt 0 NaN
vt 0 NaN
vt 0 NaN
vt 0 NaN
vt 0 NaN
vt 0 NaN
vt 0 NaN
vt 0 NaN
vt 0 NaN
vt 0 NaN
vt 0 NaN
vt 0 NaN
vt 0 NaN
vt 0 NaN
vt 0 NaN
vt 0 NaN
vt 0 NaN
vt 0 NaN
vt 0 NaN
vt 0 NaN
vt 0 NaN
vt 0 NaN
vt 0 NaN
vt 0 NaN
vt 0 NaN
vt 0 NaN
vt 0 NaN
vt 0 NaN
vt 0 NaN
vt 0 NaN
vt 0 NaN
vt 0 NaN
vt 0 NaN
vt 0 NaN
vt 0 NaN
vt 0 NaN
vt 0 NaN
vt 0 NaN
vt 0 NaN
vt 0 NaN
vt 0 NaN
vt 0 NaN
vt 0 NaN
vt 0 NaN
vt 0 NaN
vt 0 NaN
vt 0 NaN
vt 0 NaN
vt 0 NaN
vt 0 NaN
vt 0 NaN
vt 0 NaN
vt 0 NaN
vt 0 NaN
vt 0 NaN
vt 0 NaN
vt 0 NaN
vt 0 NaN
vt 0 NaN
vt 0 NaN
vt 0 NaN
vt 0 NaN
vt 0 NaN
vt 0 NaN
vt 0 NaN
vt 0 NaN
vt 0 NaN
vt 0 NaN
vt 0 NaN
vt 0 NaN
vt 0 NaN
vt 0 NaN
vt 0 NaN
vt 0 NaN
vt 0 NaN
vt 0 NaN
vt 0 NaN
vt 0 NaN
vt 0 NaN
vt 0 NaN
vt 0 NaN
vt 0 NaN
vt 0 NaN
vt 0 NaN
vt 0 NaN
vt 0 NaN
vt 0 NaN
vt 0 NaN
vt 0 NaN
vt 0 NaN
vt 0 NaN
vt 0 NaN
vt 0 NaN
vt 0 NaN
vt 0 NaN
vt 0 NaN
vt 0 NaN
vt 0 NaN
vt 0 NaN
vt 0 NaN
vt 0 NaN
vt 0 NaN
vt 0 NaN
vt 0 NaN
vt 0 NaN
vt 0 NaN
vt 0 NaN
vt 0 NaN
vt 0 NaN
vt 0 NaN
vt 0 NaN
vt 0 NaN
vt 0 NaN
vt 0 NaN
vt 0 NaN
vt 0 NaN
vt 0 NaN
vt 0 NaN
vt 0 NaN
vt 0 NaN
vt 0 NaN
vt 0 NaN
vt 0 NaN
vt 0 NaN
vt 0 NaN
vt 0 NaN
vt 0 NaN
vt 0 NaN
vt 0 NaN
vt 0 NaN
vt 0 NaN
vt 0 NaN
vt 0 NaN
vt 0 NaN
vt 0 NaN
vt 0 NaN
vt 0 NaN
vt 0 NaN
vt 0 NaN
vt 0 NaN
vt 0 NaN
vt 0 NaN
vt 0 NaN
vt 0 NaN
vt 0 NaN
vt 0 NaN
vt 0 NaN
vt 0 NaN
vt 0 NaN
vt 0 NaN
vt 0 NaN
vt 0 NaN
vt 0 NaN
vt 0 NaN
vt 0 NaN
vt 0 NaN
vt 0 NaN
vt 0 NaN
vt 0 NaN
vt 0 NaN
vt 0 NaN
vt 0 NaN
vt 0 NaN
vt 0 NaN
vt 0 NaN
vt 0 NaN
vt 0 NaN
vt 0 NaN
vt 0 NaN
vt 0 NaN
vt 0 NaN
vt 0 NaN
vt 0 NaN
vt 0 NaN
vt 0 NaN
vt 0 NaN
vt 0 NaN
vt 0 NaN
vt 0 NaN
vt 0 NaN
vt 0 NaN
vt 0 NaN
vt 0 NaN
vt 0 NaN
vt 0 NaN
vt 0 NaN
vt 0 NaN
vt 0 NaN
vt 0 NaN
vt 0 NaN
vt 0 NaN
vt 0 NaN
vt 0 NaN
vt 0 NaN
vt 0 NaN
vt 0 NaN
vt 0 NaN
vt 0 NaN
vt 0 NaN
vt 0 NaN
vt 0 NaN
vt 0 NaN
vt 0 NaN
vt 0 NaN
vt 0 NaN
vt 0 NaN
vt 0 NaN
vt 0 NaN
vt 0 NaN
vt 0 NaN
vt 0 NaN
vt 0 NaN
vt 0 NaN
vt 0 NaN
vt 0 NaN
vt 0 NaN
vt 0 NaN
vt 0 NaN
vt 0 NaN
vt 0 NaN
vt 0 NaN
vt 0 NaN
vt 0 NaN
vt 0 NaN
vt 0 NaN
vt 0 NaN
vt 0 NaN
vt 0 NaN
vt 0 NaN
vt 0 NaN
vt 0 NaN
vt 0 NaN
vt 0 NaN
vt 0 NaN
vt 0 NaN
vt 0 NaN
vt 0 NaN
vt 0 NaN
vt 0 NaN
vt 0 NaN
vt 0 NaN
vt 0 NaN
vt 0 NaN
vt 0 NaN
vt 0 NaN
vt 0 NaN
vt 0 NaN
vt 0 NaN
vt 0 NaN
vt 0 NaN
vt 0 NaN
vt 0 NaN
vt 0 NaN
vt 0 NaN
vt 0 NaN
vt 0 NaN
vt 0 NaN
vt 0 NaN
vt 0 NaN
vt 0 NaN
vt 0 NaN
vt 0 NaN
vt 0 NaN
vt 0 NaN
vt 0 NaN
vt 0 NaN
vt 0 NaN
vt 0 NaN
vt 0 NaN
vt 0 NaN
vt 0 NaN
vt 0 NaN
vt 0 NaN
vt 0 NaN
vt 0 NaN
vt 0 NaN
vt 0 NaN
vt 0 NaN
vt 0 NaN
vt 0 NaN
vt 0 NaN
vt 0 NaN
vt 0 NaN
vt 0 NaN
vt 0 NaN
vt 0 NaN
vt 0 NaN
vt 0 NaN
vt 0 NaN
vt 0 NaN
vt 0 NaN
vt 0 NaN
vt 0 NaN
vt 0 NaN
vt 0 NaN
vt 0 NaN
vt 0 NaN
vt 0 NaN
vt 0 NaN
vt 0 NaN
vt 0 NaN
vt 0 NaN
vt 0 NaN
vt 0 NaN
vt 0 NaN
vt 0 NaN
vt 0 NaN
vt 0 NaN
vt 0 NaN
vt 0 NaN
vt 0 NaN
vt 0 NaN
vt 0 NaN
vt 0 NaN
vt 0 NaN
vt 0 NaN
vt 0 NaN
vt 0 NaN
vt 0 NaN
vt 0 NaN
vt 0 NaN
vt 0 NaN
vt 0 NaN
vt 0 NaN
vt 0 NaN
vt 0 NaN
vt 0 NaN
vt 0 NaN
vt 0 NaN
vt 0 NaN
vt 0 NaN
vt 0 NaN
vt 0 NaN
vt 0 NaN
vt 0 NaN
vt 0 NaN
vt 0 NaN
vt 0 NaN
vt 0 NaN
vt 0 NaN
vt 0 NaN
vt 0 NaN
vt 0 NaN
vt 0 NaN
vt 0 NaN
vt 0 NaN
vt 0 NaN
vt 0 NaN
vt 0 NaN
vt 0 NaN
vt 0 NaN
vt 0 NaN
vt 0 NaN
vt 0 NaN
vt 0 NaN
vt 0 NaN
vt 0 NaN
vt 0 NaN
vt 0 NaN
vt 0 NaN
vt 0 NaN
vt 0 NaN
vt 0 NaN
vt 0 NaN
vt 0 NaN
vt 0 NaN
vt 0 NaN
vt 0 NaN
vt 0 NaN
vt 0 NaN
vt 0 NaN
vt 0 NaN
vt 0 NaN
vt 0 NaN
vt 0 NaN
vt 0 NaN

usemtl color5

f 3/3/1 2/2/1 1/1/1
f 2/3/1 3/2/1 4/1/1
f 5/3/2 3/2/2 1/1/2
f 3/3/2 5/2/2 6/1/2
f 7/5/3 2/5/3 4/4/3
f 2/5/3 7/5/3 8/6/3
f 7/5/4 5/5/4 8/7/4
f 5/5/4 7/5/4 6/8/4
f 5/5/5 2/5/5 8/9/5
f 2/5/5 5/5/5 1/10/5
f 3/2/6 7/3/6 4/11/6
f 7/3/6 3/2/6 6/1/6
f 3/3/1 2/2/1 1/1/1
f 2/3/1 3/2/1 4/1/1
f 5/3/2 3/2/2 1/1/2
f 3/3/2 5/2/2 6/1/2
f 7/5/3 2/5/3 4/4/3
f 2/5/3 7/5/3 8/6/3
f 7/5/4 5/5/4 8/7/4
f 5/5/4 7/5/4 6/8/4
f 5/5/5 2/5/5 8/9/5
f 2/5/5 5/5/5 1/10/5
f 3/2/6 7/3/6 4/11/6
f 7/3/6 3/2/6 6/1/6
f 11/3/1 10/2/1 9/1/1
f 10/3/1 11/2/1 12/1/1
f 13/3/2 11/2/2 9/1/2
f 11/3/2 13/2/2 14/1/2
f 15/5/3 10/5/3 12/12/3
f 10/5/3 15/5/3 16/13/3
f 15/5/4 13/5/4 16/14/4
f 13/5/4 15/5/4 14/15/4
f 13/5/5 10/5/5 16/16/5
f 10/5/5 13/5/5 9/17/5
f 11/2/6 15/3/6 12/11/6
f 15/3/6 11/2/6 14/1/6
f 19/3/1 18/2/1 17/1/1
f 18/3/1 19/2/1 20/1/1
f 21/3/2 19/2/2 17/1/2
f 19/3/2 21/2/2 22/1/2
f 23/5/3 18/5/3 20/18/3
f 18/5/3 23/5/3 24/19/3
f 23/5/4 21/5/4 24/20/4
f 21/5/4 23/5/4 22/21/4
f 21/5/5 18/5/5 24/22/5
f 18/5/5 21/5/5 17/23/5
f 19/2/6 23/3/6 20/11/6
f 23/3/6 19/2/6 22/1/6
f 27/3/1 26/2/1 25/1/1
f 26/3/1 27/2/1 28/1/1
f 29/3/2 27/2/2 25/1/2
f 27/3/2 29/2/2 30/1/2
f 31/5/3 26/5/3 28/24/3
f 26/5/3 31/5/3 32/25/3
f 31/5/4 29/5/4 32/26/4
f 29/5/4 31/5/4 30/27/4
f 29/5/5 26/5/5 32/28/5
f 26/5/5 29/5/5 25/29/5
f 27/2/6 31/3/6 28/11/6
f 31/3/6 27/2/6 30/1/6
f 35/3/1 34/2/1 33/1/1
f 34/3/1 35/2/1 36/1/1
f 37/3/2 35/2/2 33/1/2
f 35/3/2 37/2/2 38/1/2
f 39/5/3 34/5/3 36/30/3
f 34/5/3 39/5/3 40/31/3
f 39/5/4 37/5/4 40/32/4
f 37/5/4 39/5/4 38/33/4
f 37/5/5 34/5/5 40/34/5
f 34/5/5 37/5/5 33/35/5
f 35/2/6 39/3/6 36/11/6
f 39/3/6 35/2/6 38/1/6
f 43/3/1 42/2/1 41/1/1
f 42/3/1 43/2/1 44/1/1
f 45/3/2 43/2/2 41/1/2
f 43/3/2 45/2/2 46/1/2
f 47/5/3 42/5/3 44/36/3
f 42/5/3 47/5/3 48/37/3
f 47/5/4 45/5/4 48/38/4
f 45/5/4 47/5/4 46/39/4
f 45/5/5 42/5/5 48/40/5
f 42/5/5 45/5/5 41/41/5
f 43/2/6 47/3/6 44/11/6
f 47/3/6 43/2/6 46/1/6
f 51/3/1 50/2/1 49/1/1
f 50/3/1 51/2/1 52/1/1
f 53/3/2 51/2/2 49/1/2
f 51/3/2 53/2/2 54/1/2
f 55/5/3 50/5/3 52/42/3
f 50/5/3 55/5/3 56/43/3
f 55/5/4 53/5/4 56/44/4
f 53/5/4 55/5/4 54/45/4
f 53/5/5 50/5/5 56/46/5
f 50/5/5 53/5/5 49/47/5
f 51/2/6 55/3/6 52/11/6
f 55/3/6 51/2/6 54/1/6
f 15/3/1 57/2/1 16/1/1
f 57/3/1 15/2/1 58/1/1
f 18/3/2 15/2/2 16/1/2
f 15/3/2 18/2/2 20/1/2
f 59/5/3 57/5/3 58/48/3
f 57/5/3 59/5/3 60/49/3
f 59/5/4 18/5/4 60/50/4
f 18/5/4 59/5/4 20/51/4
f 18/5/5 57/5/5 60/52/5
f 57/5/5 18/5/5 16/16/5
f 15/2/6 59/3/6 58/11/6
f 59/3/6 15/2/6 20/1/6
f 23/3/1 61/2/1 24/1/1
f 61/3/1 23/2/1 62/1/1
f 26/3/2 23/2/2 24/1/2
f 23/3/2 26/2/2 28/1/2
f 63/5/3 61/5/3 62/53/3
f 61/5/3 63/5/3 64/54/3
f 63/5/4 26/5/4 64/55/4
f 26/5/4 63/5/4 28/56/4
f 26/5/5 61/5/5 64/57/5
f 61/5/5 26/5/5 24/22/5
f 23/2/6 63/3/6 62/11/6
f 63/3/6 23/2/6 28/1/6
f 31/3/1 65/2/1 32/1/1
f 65/3/1 31/2/1 66/1/1
f 34/3/2 31/2/2 32/1/2
f 31/3/2 34/2/2 36/1/2
f 67/5/3 65/5/3 66/58/3
f 65/5/3 67/5/3 68/59/3
f 67/5/4 34/5/4 68/60/4
f 34/5/4 67/5/4 36/61/4
f 34/5/5 65/5/5 68/62/5
f 65/5/5 34/5/5 32/28/5
f 31/2/6 67/3/6 66/11/6
f 67/3/6 31/2/6 36/1/6
f 39/3/1 69/2/1 40/1/1
f 69/3/1 39/2/1 70/1/1
f 42/3/2 39/2/2 40/1/2
f 39/3/2 42/2/2 44/1/2
f 71/5/3 69/5/3 70/63/3
f 69/5/3 71/5/3 72/64/3
f 71/5/4 42/5/4 72/65/4
f 42/5/4 71/5/4 44/66/4
f 42/5/5 69/5/5 72/67/5
f 69/5/5 42/5/5 40/34/5
f 39/2/6 71/3/6 70/11/6
f 71/3/6 39/2/6 44/1/6
f 75/3/1 74/2/1 73/1/1
f 74/3/1 75/2/1 76/1/1
f 77/3/2 75/2/2 73/1/2
f 75/3/2 77/2/2 78/1/2
f 79/5/3 74/5/3 76/68/3
f 74/5/3 79/5/3 80/69/3
f 79/5/4 77/5/4 80/70/4
f 77/5/4 79/5/4 78/71/4
f 77/5/5 74/5/5 80/72/5
f 74/5/5 77/5/5 73/73/5
f 75/2/6 79/3/6 76/11/6
f 79/3/6 75/2/6 78/1/6
f 83/3/1 82/2/1 81/1/1
f 82/3/1 83/2/1 84/1/1
f 85/3/2 83/2/2 81/1/2
f 83/3/2 85/2/2 86/1/2
f 87/5/3 82/5/3 84/74/3
f 82/5/3 87/5/3 88/75/3
f 87/5/4 85/5/4 88/76/4
f 85/5/4 87/5/4 86/77/4
f 85/5/5 82/5/5 88/78/5
f 82/5/5 85/5/5 81/79/5
f 83/2/6 87/3/6 84/11/6
f 87/3/6 83/2/6 86/1/6
f 91/3/1 90/2/1 89/1/1
f 90/3/1 91/2/1 92/1/1
f 93/3/2 91/2/2 89/1/2
f 91/3/2 93/2/2 94/1/2
f 95/5/3 90/5/3 92/80/3
f 90/5/3 95/5/3 96/81/3
f 95/5/4 93/5/4 96/82/4
f 93/5/4 95/5/4 94/83/4
f 93/5/5 90/5/5 96/84/5
f 90/5/5 93/5/5 89/85/5
f 91/2/6 95/3/6 92/11/6
f 95/3/6 91/2/6 94/1/6
f 99/3/1 98/2/1 97/1/1
f 98/3/1 99/2/1 100/1/1
f 101/3/2 99/2/2 97/1/2
f 99/3/2 101/2/2 102/1/2
f 103/5/3 98/5/3 100/86/3
f 98/5/3 103/5/3 104/87/3
f 103/5/4 101/5/4 104/88/4
f 101/5/4 103/5/4 102/89/4
f 101/5/5 98/5/5 104/90/5
f 98/5/5 101/5/5 97/91/5
f 99/2/6 103/3/6 100/11/6
f 103/3/6 99/2/6 102/1/6
f 107/3/1 106/2/1 105/1/1
f 106/3/1 107/2/1 108/1/1
f 109/3/2 107/2/2 105/1/2
f 107/3/2 109/2/2 110/1/2
f 111/5/3 106/5/3 108/92/3
f 106/5/3 111/5/3 112/93/3
f 111/5/4 109/5/4 112/94/4
f 109/5/4 111/5/4 110/95/4
f 109/5/5 106/5/5 112/96/5
f 106/5/5 109/5/5 105/97/5
f 107/2/6 111/3/6 108/11/6
f 111/3/6 107/2/6 110/1/6
f 115/3/1 114/2/1 113/1/1
f 114/3/1 115/2/1 116/1/1
f 117/3/2 115/2/2 113/1/2
f 115/3/2 117/2/2 118/1/2
f 119/5/3 114/5/3 116/98/3
f 114/5/3 119/5/3 120/99/3
f 119/5/4 117/5/4 120/100/4
f 117/5/4 119/5/4 118/101/4
f 117/5/5 114/5/5 120/102/5
f 114/5/5 117/5/5 113/103/5
f 115/2/6 119/3/6 116/11/6
f 119/3/6 115/2/6 118/1/6
f 123/3/1 122/2/1 121/1/1
f 122/3/1 123/2/1 124/1/1
f 125/3/2 123/2/2 121/1/2
f 123/3/2 125/2/2 126/1/2
f 127/5/3 122/5/3 124/104/3
f 122/5/3 127/5/3 128/105/3
f 127/5/4 125/5/4 128/106/4
f 125/5/4 127/5/4 126/107/4
f 125/5/5 122/5/5 128/108/5
f 122/5/5 125/5/5 121/109/5
f 123/2/6 127/3/6 124/11/6
f 127/3/6 123/2/6 126/1/6
f 131/3/1 130/2/1 129/1/1
f 130/3/1 131/2/1 132/1/1
f 133/3/2 131/2/2 129/1/2
f 131/3/2 133/2/2 134/1/2
f 135/5/3 130/5/3 132/110/3
f 130/5/3 135/5/3 136/111/3
f 135/5/4 133/5/4 136/112/4
f 133/5/4 135/5/4 134/113/4
f 133/5/5 130/5/5 136/114/5
f 130/5/5 133/5/5 129/115/5
f 131/2/6 135/3/6 132/11/6
f 135/3/6 131/2/6 134/1/6
f 139/3/1 138/2/1 137/1/1
f 138/3/1 139/2/1 140/1/1
f 141/3/2 139/2/2 137/1/2
f 139/3/2 141/2/2 142/1/2
f 143/5/3 138/5/3 140/116/3
f 138/5/3 143/5/3 144/117/3
f 143/5/4 141/5/4 144/118/4
f 141/5/4 143/5/4 142/119/4
f 141/5/5 138/5/5 144/120/5
f 138/5/5 141/5/5 137/121/5
f 139/2/6 143/3/6 140/11/6
f 143/3/6 139/2/6 142/1/6
f 147/3/1 146/2/1 145/1/1
f 146/3/1 147/2/1 148/1/1
f 149/3/2 147/2/2 145/1/2
f 147/3/2 149/2/2 150/1/2
f 151/5/3 146/5/3 148/122/3
f 146/5/3 151/5/3 152/123/3
f 151/5/4 149/5/4 152/124/4
f 149/5/4 151/5/4 150/125/4
f 149/5/5 146/5/5 152/126/5
f 146/5/5 149/5/5 145/127/5
f 147/2/6 151/3/6 148/11/6
f 151/3/6 147/2/6 150/1/6
f 155/3/1 154/2/1 153/1/1
f 154/3/1 155/2/1 156/1/1
f 157/3/2 155/2/2 153/1/2
f 155/3/2 157/2/2 158/1/2
f 159/5/3 154/5/3 156/128/3
f 154/5/3 159/5/3 160/129/3
f 159/5/4 157/5/4 160/130/4
f 157/5/4 159/5/4 158/131/4
f 157/5/5 154/5/5 160/132/5
f 154/5/5 157/5/5 153/133/5
f 155/2/6 159/3/6 156/11/6
f 159/3/6 155/2/6 158/1/6
f 163/3/1 162/2/1 161/1/1
f 162/3/1 163/2/1 164/1/1
f 146/3/2 163/2/2 161/1/2
f 163/3/2 146/2/2 148/1/2
f 165/5/3 162/5/3 164/134/3
f 162/5/3 165/5/3 166/135/3
f 165/5/4 146/5/4 166/136/4
f 146/5/4 165/5/4 148/137/4
f 146/5/5 162/5/5 166/138/5
f 162/5/5 146/5/5 161/139/5
f 163/2/6 165/3/6 164/11/6
f 165/3/6 163/2/6 148/1/6
f 169/3/1 168/2/1 167/1/1
f 168/3/1 169/2/1 170/1/1
f 130/3/2 169/2/2 167/1/2
f 169/3/2 130/2/2 132/1/2
f 171/5/3 168/5/3 170/140/3
f 168/5/3 171/5/3 172/141/3
f 171/5/4 130/5/4 172/142/4
f 130/5/4 171/5/4 132/143/4
f 130/5/5 168/5/5 172/144/5
f 168/5/5 130/5/5 167/145/5
f 169/2/6 171/3/6 170/11/6
f 171/3/6 169/2/6 132/1/6
f 175/3/1 174/2/1 173/1/1
f 174/3/1 175/2/1 176/1/1
f 177/3/2 175/2/2 173/1/2
f 175/3/2 177/2/2 178/1/2
f 179/5/3 174/5/3 176/146/3
f 174/5/3 179/5/3 180/147/3
f 179/5/4 177/5/4 180/148/4
f 177/5/4 179/5/4 178/149/4
f 177/5/5 174/5/5 180/150/5
f 174/5/5 177/5/5 173/151/5
f 175/2/6 179/3/6 176/11/6
f 179/3/6 175/2/6 178/1/6
f 183/3/1 182/2/1 181/1/1
f 182/3/1 183/2/1 184/1/1
f 185/3/2 183/2/2 181/1/2
f 183/3/2 185/2/2 186/1/2
f 187/5/3 182/5/3 184/152/3
f 182/5/3 187/5/3 188/153/3
f 187/5/4 185/5/4 188/154/4
f 185/5/4 187/5/4 186/155/4
f 185/5/5 182/5/5 188/156/5
f 182/5/5 185/5/5 181/157/5
f 183/2/6 187/3/6 184/11/6
f 187/3/6 183/2/6 186/1/6

usemtl color2

f 191/3/1 190/2/1 189/1/1
f 190/3/1 191/2/1 192/1/1
f 193/3/2 191/2/2 189/1/2
f 191/3/2 193/2/2 194/1/2
f 195/5/3 190/5/3 192/158/3
f 190/5/3 195/5/3 196/159/3
f 195/5/4 193/5/4 196/160/4
f 193/5/4 195/5/4 194/161/4
f 193/5/5 190/5/5 196/162/5
f 190/5/5 193/5/5 189/163/5
f 191/2/6 195/3/6 192/11/6
f 195/3/6 191/2/6 194/1/6
f 46/3/1 48/2/1 45/1/1
f 48/3/1 46/2/1 47/1/1
f 197/3/2 46/2/2 45/1/2
f 46/3/2 197/2/2 198/1/2
f 199/5/3 48/37/3 47/5/3
f 48/37/3 199/5/3 200/164/3
f 199/5/4 197/5/4 200/165/4
f 197/5/4 199/5/4 198/166/4
f 197/5/5 48/40/5 200/167/5
f 48/40/5 197/5/5 45/5/5
f 46/2/6 199/3/6 47/11/6
f 199/3/6 46/2/6 198/1/6
f 202/3/1 113/2/1 201/1/1
f 113/3/1 202/2/1 115/1/1
f 203/3/2 202/2/2 201/1/2
f 202/3/2 203/2/2 204/1/2
f 118/5/3 113/5/3 115/168/3
f 113/5/3 118/5/3 117/169/3
f 118/101/4 203/5/4 117/5/4
f 203/5/4 118/101/4 204/170/4
f 203/5/5 113/103/5 117/5/5
f 113/103/5 203/5/5 201/171/5
f 202/2/6 118/3/6 115/11/6
f 118/3/6 202/2/6 204/1/6
f 207/3/1 206/2/1 205/1/1
f 206/3/1 207/2/1 208/1/1
f 209/3/2 207/2/2 205/1/2
f 207/3/2 209/2/2 210/1/2
f 211/5/3 206/5/3 208/172/3
f 206/5/3 211/5/3 212/173/3
f 211/5/4 209/5/4 212/174/4
f 209/5/4 211/5/4 210/175/4
f 209/5/5 206/5/5 212/176/5
f 206/5/5 209/5/5 205/177/5
f 207/2/6 211/3/6 208/11/6
f 211/3/6 207/2/6 210/1/6
f 215/3/1 214/2/1 213/1/1
f 214/3/1 215/2/1 216/1/1
f 217/3/2 215/2/2 213/1/2
f 215/3/2 217/2/2 218/1/2
f 219/5/3 214/5/3 216/178/3
f 214/5/3 219/5/3 220/179/3
f 219/5/4 217/5/4 220/180/4
f 217/5/4 219/5/4 218/181/4
f 217/5/5 214/5/5 220/182/5
f 214/5/5 217/5/5 213/183/5
f 215/2/6 219/3/6 216/11/6
f 219/3/6 215/2/6 218/1/6
f 126/3/1 128/2/1 125/1/1
f 128/3/1 126/2/1 127/1/1
f 221/3/2 126/2/2 125/1/2
f 126/3/2 221/2/2 222/1/2
f 223/5/3 128/105/3 127/5/3
f 128/105/3 223/5/3 224/184/3
f 223/5/4 221/5/4 224/185/4
f 221/5/4 223/5/4 222/186/4
f 221/5/5 128/108/5 224/187/5
f 128/108/5 221/5/5 125/5/5
f 126/2/6 223/3/6 127/11/6
f 223/3/6 126/2/6 222/1/6
f 227/3/1 226/2/1 225/1/1
f 226/3/1 227/2/1 228/1/1
f 229/3/2 227/2/2 225/1/2
f 227/3/2 229/2/2 230/1/2
f 231/5/3 226/5/3 228/188/3
f 226/5/3 231/5/3 232/189/3
f 231/5/4 229/5/4 232/190/4
f 229/5/4 231/5/4 230/191/4
f 229/5/5 226/5/5 232/192/5
f 226/5/5 229/5/5 225/193/5
f 227/2/6 231/3/6 228/11/6
f 231/3/6 227/2/6 230/1/6
f 176/3/1 233/2/1 174/1/1
f 233/3/1 176/2/1 234/1/1
f 180/3/2 176/2/2 174/1/2
f 176/3/2 180/2/2 179/1/2
f 235/5/3 233/5/3 234/194/3
f 233/5/3 235/5/3 236/195/3
f 235/5/4 180/148/4 236/196/4
f 180/148/4 235/5/4 179/5/4
f 180/150/5 233/5/5 236/197/5
f 233/5/5 180/150/5 174/5/5
f 176/2/6 235/3/6 234/11/6
f 235/3/6 176/2/6 179/1/6
f 239/3/1 238/2/1 237/1/1
f 238/3/1 239/2/1 240/1/1
f 241/3/2 239/2/2 237/1/2
f 239/3/2 241/2/2 242/1/2
f 243/5/3 238/5/3 240/198/3
f 238/5/3 243/5/3 244/199/3
f 243/5/4 241/5/4 244/200/4
f 241/5/4 243/5/4 242/201/4
f 241/5/5 238/5/5 244/202/5
f 238/5/5 241/5/5 237/203/5
f 239/2/6 243/3/6 240/11/6
f 243/3/6 239/2/6 242/1/6
f 184/3/1 245/2/1 182/1/1
f 245/3/1 184/2/1 246/1/1
f 188/3/2 184/2/2 182/1/2
f 184/3/2 188/2/2 187/1/2
f 247/5/3 245/5/3 246/204/3
f 245/5/3 247/5/3 248/205/3
f 247/5/4 188/154/4 248/206/4
f 188/154/4 247/5/4 187/5/4
f 188/156/5 245/5/5 248/207/5
f 245/5/5 188/156/5 182/5/5
f 184/2/6 247/3/6 246/11/6
f 247/3/6 184/2/6 187/1/6

usemtl color6

f 194/3/1 196/2/1 193/1/1
f 196/3/1 194/2/1 195/1/1
f 249/3/2 194/2/2 193/1/2
f 194/3/2 249/2/2 250/1/2
f 251/5/3 196/159/3 195/5/3
f 196/159/3 251/5/3 252/208/3
f 251/5/4 249/5/4 252/209/4
f 249/5/4 251/5/4 250/210/4
f 249/5/5 196/162/5 252/211/5
f 196/162/5 249/5/5 193/5/5
f 194/2/6 251/3/6 195/11/6
f 251/3/6 194/2/6 250/1/6
f 198/3/1 200/2/1 197/1/1
f 200/3/1 198/2/1 199/1/1
f 49/3/2 198/2/2 197/1/2
f 198/3/2 49/2/2 51/1/2
f 52/42/3 200/164/3 199/5/3
f 200/164/3 52/42/3 50/5/3
f 52/5/4 49/5/4 50/212/4
f 49/5/4 52/5/4 51/213/4
f 49/47/5 200/167/5 50/5/5
f 200/167/5 49/47/5 197/5/5
f 198/2/6 52/3/6 199/11/6
f 52/3/6 198/2/6 51/1/6
f 12/3/1 205/2/1 10/1/1
f 205/3/1 12/2/1 207/1/1
f 16/3/2 12/2/2 10/1/2
f 12/3/2 16/2/2 15/1/2
f 58/48/3 205/5/3 207/214/3
f 205/5/3 58/48/3 57/5/3
f 58/5/4 16/14/4 57/215/4
f 16/14/4 58/5/4 15/5/4
f 16/16/5 205/177/5 57/5/5
f 205/177/5 16/16/5 10/5/5
f 12/2/6 58/3/6 207/11/6
f 58/3/6 12/2/6 15/1/6
f 20/3/1 60/2/1 18/1/1
f 60/3/1 20/2/1 59/1/1
f 24/3/2 20/2/2 18/1/2
f 20/3/2 24/2/2 23/1/2
f 62/53/3 60/49/3 59/5/3
f 60/49/3 62/53/3 61/5/3
f 62/5/4 24/20/4 61/216/4
f 24/20/4 62/5/4 23/5/4
f 24/22/5 60/52/5 61/5/5
f 60/52/5 24/22/5 18/5/5
f 20/2/6 62/3/6 59/11/6
f 62/3/6 20/2/6 23/1/6
f 28/3/1 64/2/1 26/1/1
f 64/3/1 28/2/1 63/1/1
f 32/3/2 28/2/2 26/1/2
f 28/3/2 32/2/2 31/1/2
f 66/58/3 64/54/3 63/5/3
f 64/54/3 66/58/3 65/5/3
f 66/5/4 32/26/4 65/217/4
f 32/26/4 66/5/4 31/5/4
f 32/28/5 64/57/5 65/5/5
f 64/57/5 32/28/5 26/5/5
f 28/2/6 66/3/6 63/11/6
f 66/3/6 28/2/6 31/1/6
f 36/3/1 253/2/1 34/1/1
f 253/3/1 36/2/1 254/1/1
f 40/3/2 36/2/2 34/1/2
f 36/3/2 40/2/2 39/1/2
f 255/5/3 253/5/3 254/218/3
f 253/5/3 255/5/3 256/219/3
f 255/5/4 40/32/4 256/220/4
f 40/32/4 255/5/4 39/5/4
f 40/34/5 253/5/5 256/221/5
f 253/5/5 40/34/5 34/5/5
f 36/2/6 255/3/6 254/11/6
f 255/3/6 36/2/6 39/1/6
f 44/3/1 72/2/1 42/1/1
f 72/3/1 44/2/1 71/1/1
f 200/3/2 44/2/2 42/1/2
f 44/3/2 200/2/2 199/1/2
f 257/5/3 72/64/3 71/5/3
f 72/64/3 257/5/3 258/222/3
f 257/5/4 200/165/4 258/223/4
f 200/165/4 257/5/4 199/5/4
f 200/167/5 72/67/5 258/224/5
f 72/67/5 200/167/5 42/5/5
f 44/2/6 257/3/6 71/11/6
f 257/3/6 44/2/6 199/1/6
f 52/3/1 97/2/1 50/1/1
f 97/3/1 52/2/1 99/1/1
f 56/3/2 52/2/2 50/1/2
f 52/3/2 56/2/2 55/1/2
f 259/5/3 97/5/3 99/225/3
f 97/5/3 259/5/3 260/226/3
f 259/5/4 56/44/4 260/227/4
f 56/44/4 259/5/4 55/5/4
f 56/46/5 97/91/5 260/228/5
f 97/91/5 56/46/5 50/5/5
f 52/2/6 259/3/6 99/11/6
f 259/3/6 52/2/6 55/1/6
f 263/3/1 262/2/1 261/1/1
f 262/3/1 263/2/1 264/1/1
f 64/3/2 263/2/2 261/1/2
f 263/3/2 64/2/2 63/1/2
f 265/5/3 262/5/3 264/229/3
f 262/5/3 265/5/3 266/230/3
f 265/5/4 64/55/4 266/231/4
f 64/55/4 265/5/4 63/5/4
f 64/57/5 262/5/5 266/232/5
f 262/5/5 64/57/5 261/233/5
f 263/2/6 265/3/6 264/11/6
f 265/3/6 263/2/6 63/1/6
f 269/3/1 268/2/1 267/1/1
f 268/3/1 269/2/1 270/1/1
f 271/3/2 269/2/2 267/1/2
f 269/3/2 271/2/2 272/1/2
f 273/5/3 268/5/3 270/234/3
f 268/5/3 273/5/3 274/235/3
f 273/5/4 271/5/4 274/236/4
f 271/5/4 273/5/4 272/237/4
f 271/5/5 268/5/5 274/238/5
f 268/5/5 271/5/5 267/239/5
f 269/2/6 273/3/6 270/11/6
f 273/3/6 269/2/6 272/1/6
f 76/3/1 275/2/1 74/1/1
f 275/3/1 76/2/1 276/1/1
f 80/3/2 76/2/2 74/1/2
f 76/3/2 80/2/2 79/1/2
f 277/5/3 275/5/3 276/240/3
f 275/5/3 277/5/3 278/241/3
f 277/5/4 80/70/4 278/242/4
f 80/70/4 277/5/4 79/5/4
f 80/72/5 275/5/5 278/243/5
f 275/5/5 80/72/5 74/5/5
f 76/2/6 277/3/6 276/11/6
f 277/3/6 76/2/6 79/1/6
f 84/3/1 279/2/1 82/1/1
f 279/3/1 84/2/1 280/1/1
f 88/3/2 84/2/2 82/1/2
f 84/3/2 88/2/2 87/1/2
f 281/5/3 279/5/3 280/244/3
f 279/5/3 281/5/3 282/245/3
f 281/5/4 88/76/4 282/246/4
f 88/76/4 281/5/4 87/5/4
f 88/78/5 279/5/5 282/247/5
f 279/5/5 88/78/5 82/5/5
f 84/2/6 281/3/6 280/11/6
f 281/3/6 84/2/6 87/1/6
f 216/3/1 283/2/1 214/1/1
f 283/3/1 216/2/1 284/1/1
f 220/3/2 216/2/2 214/1/2
f 216/3/2 220/2/2 219/1/2
f 285/5/3 283/5/3 284/248/3
f 283/5/3 285/5/3 286/249/3
f 285/5/4 220/180/4 286/250/4
f 220/180/4 285/5/4 219/5/4
f 220/182/5 283/5/5 286/251/5
f 283/5/5 220/182/5 214/5/5
f 216/2/6 285/3/6 284/11/6
f 285/3/6 216/2/6 219/1/6
f 92/3/1 287/2/1 90/1/1
f 287/3/1 92/2/1 288/1/1
f 96/3/2 92/2/2 90/1/2
f 92/3/2 96/2/2 95/1/2
f 289/5/3 287/5/3 288/252/3
f 287/5/3 289/5/3 290/253/3
f 289/5/4 96/82/4 290/254/4
f 96/82/4 289/5/4 95/5/4
f 96/84/5 287/5/5 290/255/5
f 287/5/5 96/84/5 90/5/5
f 92/2/6 289/3/6 288/11/6
f 289/3/6 92/2/6 95/1/6
f 293/3/1 292/2/1 291/1/1
f 292/3/1 293/2/1 294/1/1
f 295/3/2 293/2/2 291/1/2
f 293/3/2 295/2/2 296/1/2
f 297/5/3 292/5/3 294/256/3
f 292/5/3 297/5/3 298/257/3
f 297/5/4 295/5/4 298/258/4
f 295/5/4 297/5/4 296/259/4
f 295/5/5 292/5/5 298/260/5
f 292/5/5 295/5/5 291/261/5
f 293/2/6 297/3/6 294/11/6
f 297/3/6 293/2/6 296/1/6
f 300/3/1 153/2/1 299/1/1
f 153/3/1 300/2/1 155/1/1
f 301/3/2 300/2/2 299/1/2
f 300/3/2 301/2/2 302/1/2
f 158/5/3 153/5/3 155/262/3
f 153/5/3 158/5/3 157/263/3
f 158/131/4 301/5/4 157/5/4
f 301/5/4 158/131/4 302/264/4
f 301/5/5 153/133/5 157/5/5
f 153/133/5 301/5/5 299/265/5
f 300/2/6 158/3/6 155/11/6
f 158/3/6 300/2/6 302/1/6
f 305/3/1 304/2/1 303/1/1
f 304/3/1 305/2/1 306/1/1
f 307/3/2 305/2/2 303/1/2
f 305/3/2 307/2/2 308/1/2
f 309/5/3 304/5/3 306/266/3
f 304/5/3 309/5/3 310/267/3
f 309/5/4 307/5/4 310/268/4
f 307/5/4 309/5/4 308/269/4
f 307/5/5 304/5/5 310/270/5
f 304/5/5 307/5/5 303/271/5
f 305/2/6 309/3/6 306/11/6
f 309/3/6 305/2/6 308/1/6
f 313/3/1 312/2/1 311/1/1
f 312/3/1 313/2/1 314/1/1
f 137/3/2 313/2/2 311/1/2
f 313/3/2 137/2/2 139/1/2
f 140/116/3 312/5/3 314/272/3
f 312/5/3 140/116/3 138/5/3
f 140/5/4 137/5/4 138/273/4
f 137/5/4 140/5/4 139/274/4
f 137/121/5 312/5/5 138/5/5
f 312/5/5 137/121/5 311/275/5
f 313/2/6 140/3/6 314/11/6
f 140/3/6 313/2/6 139/1/6
f 317/3/1 316/2/1 315/1/1
f 316/3/1 317/2/1 318/1/1
f 319/3/2 317/2/2 315/1/2
f 317/3/2 319/2/2 320/1/2
f 169/5/3 316/5/3 318/276/3
f 316/5/3 169/5/3 167/277/3
f 169/5/4 319/5/4 167/278/4
f 319/5/4 169/5/4 320/279/4
f 319/5/5 316/5/5 167/145/5
f 316/5/5 319/5/5 315/280/5
f 317/2/6 169/3/6 318/11/6
f 169/3/6 317/2/6 320/1/6
f 323/3/1 322/2/1 321/1/1
f 322/3/1 323/2/1 324/1/1
f 325/3/2 323/2/2 321/1/2
f 323/3/2 325/2/2 326/1/2
f 327/5/3 322/5/3 324/281/3
f 322/5/3 327/5/3 328/282/3
f 327/5/4 325/5/4 328/283/4
f 325/5/4 327/5/4 326/284/4
f 325/5/5 322/5/5 328/285/5
f 322/5/5 325/5/5 321/286/5
f 323/2/6 327/3/6 324/11/6
f 327/3/6 323/2/6 326/1/6
f 143/3/1 329/2/1 144/1/1
f 329/3/1 143/2/1 330/1/1
f 331/3/2 143/2/2 144/1/2
f 143/3/2 331/2/2 332/1/2
f 333/5/3 329/5/3 330/287/3
f 329/5/3 333/5/3 334/288/3
f 333/5/4 331/5/4 334/289/4
f 331/5/4 333/5/4 332/290/4
f 331/5/5 329/5/5 334/291/5
f 329/5/5 331/5/5 144/120/5
f 143/2/6 333/3/6 330/11/6
f 333/3/6 143/2/6 332/1/6
f 336/3/1 173/2/1 335/1/1
f 173/3/1 336/2/1 175/1/1
f 292/3/2 336/2/2 335/1/2
f 336/3/2 292/2/2 294/1/2
f 178/5/3 173/5/3 175/292/3
f 173/5/3 178/5/3 177/293/3
f 178/149/4 292/5/4 177/5/4
f 292/5/4 178/149/4 294/294/4
f 292/5/5 173/151/5 177/5/5
f 173/151/5 292/5/5 335/295/5
f 336/2/6 178/3/6 175/11/6
f 178/3/6 336/2/6 294/1/6
f 338/3/1 181/2/1 337/1/1
f 181/3/1 338/2/1 183/1/1
f 154/3/2 338/2/2 337/1/2
f 338/3/2 154/2/2 156/1/2
f 186/5/3 181/5/3 183/296/3
f 181/5/3 186/5/3 185/297/3
f 186/155/4 154/5/4 185/5/4
f 154/5/4 186/155/4 156/298/4
f 154/5/5 181/157/5 185/5/5
f 181/157/5 154/5/5 337/299/5
f 338/2/6 186/3/6 183/11/6
f 186/3/6 338/2/6 156/1/6
f 340/3/1 237/2/1 339/1/1
f 237/3/1 340/2/1 239/1/1
f 341/3/2 340/2/2 339/1/2
f 340/3/2 341/2/2 342/1/2
f 242/5/3 237/5/3 239/300/3
f 237/5/3 242/5/3 241/301/3
f 242/201/4 341/5/4 241/5/4
f 341/5/4 242/201/4 342/302/4
f 341/5/5 237/203/5 241/5/5
f 237/203/5 341/5/5 339/303/5
f 340/2/6 242/3/6 239/11/6
f 242/3/6 340/2/6 342/1/6

usemtl color16

f 345/3/1 344/2/1 343/1/1
f 344/3/1 345/2/1 346/1/1
f 9/3/2 345/2/2 343/1/2
f 345/3/2 9/2/2 11/1/2
f 12/12/3 344/5/3 346/304/3
f 344/5/3 12/12/3 10/5/3
f 12/5/4 9/5/4 10/305/4
f 9/5/4 12/5/4 11/306/4
f 9/17/5 344/5/5 10/5/5
f 344/5/5 9/17/5 343/307/5
f 345/2/6 12/3/6 346/11/6
f 12/3/6 345/2/6 11/1/6
f 349/3/1 348/2/1 347/1/1
f 348/3/1 349/2/1 350/1/1
f 351/3/2 349/2/2 347/1/2
f 349/3/2 351/2/2 352/1/2
f 353/5/3 348/5/3 350/308/3
f 348/5/3 353/5/3 354/309/3
f 353/5/4 351/5/4 354/310/4
f 351/5/4 353/5/4 352/311/4
f 351/5/5 348/5/5 354/312/5
f 348/5/5 351/5/5 347/313/5
f 349/2/6 353/3/6 350/11/6
f 353/3/6 349/2/6 352/1/6
f 357/3/1 356/2/1 355/1/1
f 356/3/1 357/2/1 358/1/1
f 344/3/2 357/2/2 355/1/2
f 357/3/2 344/2/2 346/1/2
f 359/5/3 356/5/3 358/314/3
f 356/5/3 359/5/3 360/315/3
f 359/5/4 344/5/4 360/316/4
f 344/5/4 359/5/4 346/317/4
f 344/5/5 356/5/5 360/318/5
f 356/5/5 344/5/5 355/319/5
f 357/2/6 359/3/6 358/11/6
f 359/3/6 357/2/6 346/1/6

usemtl color7

f 363/3/1 362/2/1 361/1/1
f 362/3/1 363/2/1 364/1/1
f 365/3/2 363/2/2 361/1/2
f 363/3/2 365/2/2 366/1/2
f 367/5/3 362/5/3 364/320/3
f 362/5/3 367/5/3 368/321/3
f 367/5/4 365/5/4 368/322/4
f 365/5/4 367/5/4 366/323/4
f 365/5/5 362/5/5 368/324/5
f 362/5/5 365/5/5 361/325/5
f 363/2/6 367/3/6 364/11/6
f 367/3/6 363/2/6 366/1/6
f 371/3/1 370/2/1 369/1/1
f 370/3/1 371/2/1 372/1/1
f 373/3/2 371/2/2 369/1/2
f 371/3/2 373/2/2 374/1/2
f 375/5/3 370/5/3 372/326/3
f 370/5/3 375/5/3 376/327/3
f 375/5/4 373/5/4 376/328/4
f 373/5/4 375/5/4 374/329/4
f 373/5/5 370/5/5 376/330/5
f 370/5/5 373/5/5 369/331/5
f 371/2/6 375/3/6 372/11/6
f 375/3/6 371/2/6 374/1/6
f 379/3/1 378/2/1 377/1/1
f 378/3/1 379/2/1 380/1/1
f 381/3/2 379/2/2 377/1/2
f 379/3/2 381/2/2 382/1/2
f 383/5/3 378/5/3 380/332/3
f 378/5/3 383/5/3 384/333/3
f 383/5/4 381/5/4 384/334/4
f 381/5/4 383/5/4 382/335/4
f 381/5/5 378/5/5 384/336/5
f 378/5/5 381/5/5 377/337/5
f 379/2/6 383/3/6 380/11/6
f 383/3/6 379/2/6 382/1/6
f 387/3/1 386/2/1 385/1/1
f 386/3/1 387/2/1 388/1/1
f 389/3/2 387/2/2 385/1/2
f 387/3/2 389/2/2 390/1/2
f 391/5/3 386/5/3 388/338/3
f 386/5/3 391/5/3 392/339/3
f 391/5/4 389/5/4 392/340/4
f 389/5/4 391/5/4 390/341/4
f 389/5/5 386/5/5 392/342/5
f 386/5/5 389/5/5 385/343/5
f 387/2/6 391/3/6 388/11/6
f 391/3/6 387/2/6 390/1/6
f 199/3/1 258/2/1 200/1/1
f 258/3/1 199/2/1 257/1/1
f 50/3/2 199/2/2 200/1/2
f 199/3/2 50/2/2 52/1/2
f 99/225/3 258/222/3 257/5/3
f 258/222/3 99/225/3 97/5/3
f 99/5/4 50/212/4 97/344/4
f 50/212/4 99/5/4 52/5/4
f 50/5/5 258/224/5 97/91/5
f 258/224/5 50/5/5 200/167/5
f 199/2/6 99/3/6 257/11/6
f 99/3/6 199/2/6 52/1/6
f 395/3/1 394/2/1 393/1/1
f 394/3/1 395/2/1 396/1/1
f 258/3/2 395/2/2 393/1/2
f 395/3/2 258/2/2 257/1/2
f 397/5/3 394/5/3 396/345/3
f 394/5/3 397/5/3 398/346/3
f 397/5/4 258/223/4 398/347/4
f 258/223/4 397/5/4 257/5/4
f 258/224/5 394/5/5 398/348/5
f 394/5/5 258/224/5 393/349/5
f 395/2/6 397/3/6 396/11/6
f 397/3/6 395/2/6 257/1/6
f 400/3/1 307/2/1 399/1/1
f 307/3/1 400/2/1 308/1/1
f 401/3/2 400/2/2 399/1/2
f 400/3/2 401/2/2 402/1/2
f 403/5/3 307/5/3 308/350/3
f 307/5/3 403/5/3 404/351/3
f 403/5/4 401/5/4 404/352/4
f 401/5/4 403/5/4 402/353/4
f 401/5/5 307/5/5 404/354/5
f 307/5/5 401/5/5 399/355/5
f 400/2/6 403/3/6 308/11/6
f 403/3/6 400/2/6 402/1/6
f 264/3/1 405/2/1 262/1/1
f 405/3/1 264/2/1 406/1/1
f 266/3/2 264/2/2 262/1/2
f 264/3/2 266/2/2 265/1/2
f 407/5/3 405/5/3 406/356/3
f 405/5/3 407/5/3 408/357/3
f 407/5/4 266/231/4 408/358/4
f 266/231/4 407/5/4 265/5/4
f 266/232/5 405/5/5 408/359/5
f 405/5/5 266/232/5 262/5/5
f 264/2/6 407/3/6 406/11/6
f 407/3/6 264/2/6 265/1/6
f 254/3/1 409/2/1 253/1/1
f 409/3/1 254/2/1 410/1/1
f 256/3/2 254/2/2 253/1/2
f 254/3/2 256/2/2 255/1/2
f 411/5/3 409/5/3 410/360/3
f 409/5/3 411/5/3 412/361/3
f 411/5/4 256/220/4 412/362/4
f 256/220/4 411/5/4 255/5/4
f 256/221/5 409/5/5 412/363/5
f 409/5/5 256/221/5 253/5/5
f 254/2/6 411/3/6 410/11/6
f 411/3/6 254/2/6 255/1/6
f 414/3/1 404/2/1 413/1/1
f 404/3/1 414/2/1 403/1/1
f 415/3/2 414/2/2 413/1/2
f 414/3/2 415/2/2 416/1/2
f 417/5/3 404/351/3 403/5/3
f 404/351/3 417/5/3 418/364/3
f 417/5/4 415/5/4 418/365/4
f 415/5/4 417/5/4 416/366/4
f 415/5/5 404/354/5 418/367/5
f 404/354/5 415/5/5 413/368/5
f 414/2/6 417/3/6 403/11/6
f 417/3/6 414/2/6 416/1/6
f 420/3/1 315/2/1 419/1/1
f 315/3/1 420/2/1 317/1/1
f 421/3/2 420/2/2 419/1/2
f 420/3/2 421/2/2 422/1/2
f 320/5/3 315/5/3 317/369/3
f 315/5/3 320/5/3 319/370/3
f 320/279/4 421/5/4 319/5/4
f 421/5/4 320/279/4 422/371/4
f 421/5/5 315/280/5 319/5/5
f 315/280/5 421/5/5 419/372/5
f 420/2/6 320/3/6 317/11/6
f 320/3/6 420/2/6 422/1/6
f 309/3/1 423/2/1 310/1/1
f 423/3/1 309/2/1 424/1/1
f 321/3/2 309/2/2 310/1/2
f 309/3/2 321/2/2 323/1/2
f 324/281/3 423/5/3 424/373/3
f 423/5/3 324/281/3 322/5/3
f 324/5/4 321/5/4 322/374/4
f 321/5/4 324/5/4 323/375/4
f 321/286/5 423/5/5 322/5/5
f 423/5/5 321/286/5 310/270/5
f 309/2/6 324/3/6 424/11/6
f 324/3/6 309/2/6 323/1/6
f 140/3/1 425/2/1 138/1/1
f 425/3/1 140/2/1 426/1/1
f 144/3/2 140/2/2 138/1/2
f 140/3/2 144/2/2 143/1/2
f 330/287/3 425/5/3 426/376/3
f 425/5/3 330/287/3 329/5/3
f 330/5/4 144/118/4 329/377/4
f 144/118/4 330/5/4 143/5/4
f 144/120/5 425/5/5 329/5/5
f 425/5/5 144/120/5 138/5/5
f 140/2/6 330/3/6 426/11/6
f 330/3/6 140/2/6 143/1/6
f 428/3/1 339/2/1 427/1/1
f 339/3/1 428/2/1 340/1/1
f 316/3/2 428/2/2 427/1/2
f 428/3/2 316/2/2 318/1/2
f 342/5/3 339/5/3 340/378/3
f 339/5/3 342/5/3 341/379/3
f 342/302/4 316/5/4 341/5/4
f 316/5/4 342/302/4 318/380/4
f 316/5/5 339/303/5 341/5/5
f 339/303/5 316/5/5 427/381/5
f 428/2/6 342/3/6 340/11/6
f 342/3/6 428/2/6 318/1/6

usemtl color4

f 366/3/1 368/2/1 365/1/1
f 368/3/1 366/2/1 367/1/1
f 429/3/2 366/2/2 365/1/2
f 366/3/2 429/2/2 430/1/2
f 431/5/3 368/321/3 367/5/3
f 368/321/3 431/5/3 432/382/3
f 431/5/4 429/5/4 432/383/4
f 429/5/4 431/5/4 430/384/4
f 429/5/5 368/324/5 432/385/5
f 368/324/5 429/5/5 365/5/5
f 366/2/6 431/3/6 367/11/6
f 431/3/6 366/2/6 430/1/6
f 374/3/1 376/2/1 373/1/1
f 376/3/1 374/2/1 375/1/1
f 433/3/2 374/2/2 373/1/2
f 374/3/2 433/2/2 434/1/2
f 435/5/3 376/327/3 375/5/3
f 376/327/3 435/5/3 436/386/3
f 435/5/4 433/5/4 436/387/4
f 433/5/4 435/5/4 434/388/4
f 433/5/5 376/330/5 436/389/5
f 376/330/5 433/5/5 373/5/5
f 374/2/6 435/3/6 375/11/6
f 435/3/6 374/2/6 434/1/6
f 382/3/1 384/2/1 381/1/1
f 384/3/1 382/2/1 383/1/1
f 437/3/2 382/2/2 381/1/2
f 382/3/2 437/2/2 438/1/2
f 439/5/3 384/333/3 383/5/3
f 384/333/3 439/5/3 440/390/3
f 439/5/4 437/5/4 440/391/4
f 437/5/4 439/5/4 438/392/4
f 437/5/5 384/336/5 440/393/5
f 384/336/5 437/5/5 381/5/5
f 382/2/6 439/3/6 383/11/6
f 439/3/6 382/2/6 438/1/6
f 390/3/1 392/2/1 389/1/1
f 392/3/1 390/2/1 391/1/1
f 441/3/2 390/2/2 389/1/2
f 390/3/2 441/2/2 442/1/2
f 443/5/3 392/339/3 391/5/3
f 392/339/3 443/5/3 444/394/3
f 443/5/4 441/5/4 444/395/4
f 441/5/4 443/5/4 442/396/4
f 441/5/5 392/342/5 444/397/5
f 392/342/5 441/5/5 389/5/5
f 390/2/6 443/3/6 391/11/6
f 443/3/6 390/2/6 442/1/6
f 447/3/1 446/2/1 445/1/1
f 446/3/1 447/2/1 448/1/1
f 449/3/2 447/2/2 445/1/2
f 447/3/2 449/2/2 450/1/2
f 163/5/3 446/5/3 448/398/3
f 446/5/3 163/5/3 161/399/3
f 163/5/4 449/5/4 161/400/4
f 449/5/4 163/5/4 450/401/4
f 449/5/5 446/5/5 161/139/5
f 446/5/5 449/5/5 445/402/5
f 447/2/6 163/3/6 448/11/6
f 163/3/6 447/2/6 450/1/6
f 452/3/1 145/2/1 451/1/1
f 145/3/1 452/2/1 147/1/1
f 453/3/2 452/2/2 451/1/2
f 452/3/2 453/2/2 454/1/2
f 150/5/3 145/5/3 147/403/3
f 145/5/3 150/5/3 149/404/3
f 150/125/4 453/5/4 149/5/4
f 453/5/4 150/125/4 454/405/4
f 453/5/5 145/127/5 149/5/5
f 145/127/5 453/5/5 451/406/5
f 452/2/6 150/3/6 147/11/6
f 150/3/6 452/2/6 454/1/6
f 457/3/1 456/2/1 455/1/1
f 456/3/1 457/2/1 458/1/1
f 459/3/2 457/2/2 455/1/2
f 457/3/2 459/2/2 460/1/2
f 461/5/3 456/5/3 458/407/3
f 456/5/3 461/5/3 462/408/3
f 461/5/4 459/5/4 462/409/4
f 459/5/4 461/5/4 460/410/4
f 459/5/5 456/5/5 462/411/5
f 456/5/5 459/5/5 455/412/5
f 457/2/6 461/3/6 458/11/6
f 461/3/6 457/2/6 460/1/6
f 150/3/1 152/2/1 149/1/1
f 152/3/1 150/2/1 151/1/1
f 456/3/2 150/2/2 149/1/2
f 150/3/2 456/2/2 458/1/2
f 463/5/3 152/123/3 151/5/3
f 152/123/3 463/5/3 464/413/3
f 463/5/4 456/5/4 464/414/4
f 456/5/4 463/5/4 458/415/4
f 456/5/5 152/126/5 464/416/5
f 152/126/5 456/5/5 149/5/5
f 150/2/6 463/3/6 151/11/6
f 463/3/6 150/2/6 458/1/6
f 466/3/1 225/2/1 465/1/1
f 225/3/1 466/2/1 227/1/1
f 446/3/2 466/2/2 465/1/2
f 466/3/2 446/2/2 448/1/2
f 230/5/3 225/5/3 227/417/3
f 225/5/3 230/5/3 229/418/3
f 230/191/4 446/5/4 229/5/4
f 446/5/4 230/191/4 448/419/4
f 446/5/5 225/193/5 229/5/5
f 225/193/5 446/5/5 465/420/5
f 466/2/6 230/3/6 227/11/6
f 230/3/6 466/2/6 448/1/6

usemtl color14

f 469/3/1 468/2/1 467/1/1
f 468/3/1 469/2/1 470/1/1
f 347/3/2 469/2/2 467/1/2
f 469/3/2 347/2/2 349/1/2
f 350/308/3 468/5/3 470/421/3
f 468/5/3 350/308/3 348/5/3
f 350/5/4 347/5/4 348/422/4
f 347/5/4 350/5/4 349/423/4
f 347/313/5 468/5/5 348/5/5
f 468/5/5 347/313/5 467/424/5
f 469/2/6 350/3/6 470/11/6
f 350/3/6 469/2/6 349/1/6
f 472/3/1 109/2/1 471/1/1
f 109/3/1 472/2/1 110/1/1
f 473/3/2 472/2/2 471/1/2
f 472/3/2 473/2/2 474/1/2
f 475/5/3 109/5/3 110/425/3
f 109/5/3 475/5/3 476/426/3
f 475/5/4 473/5/4 476/427/4
f 473/5/4 475/5/4 474/428/4
f 473/5/5 109/5/5 476/429/5
f 109/5/5 473/5/5 471/430/5
f 472/2/6 475/3/6 110/11/6
f 475/3/6 472/2/6 474/1/6
f 479/3/1 478/2/1 477/1/1
f 478/3/1 479/2/1 480/1/1
f 481/3/2 479/2/2 477/1/2
f 479/3/2 481/2/2 482/1/2
f 483/5/3 478/5/3 480/431/3
f 478/5/3 483/5/3 484/432/3
f 483/5/4 481/5/4 484/433/4
f 481/5/4 483/5/4 482/434/4
f 481/5/5 478/5/5 484/435/5
f 478/5/5 481/5/5 477/436/5
f 479/2/6 483/3/6 480/11/6
f 483/3/6 479/2/6 482/1/6
f 487/3/1 486/2/1 485/1/1
f 486/3/1 487/2/1 488/1/1
f 489/3/2 487/2/2 485/1/2
f 487/3/2 489/2/2 490/1/2
f 491/5/3 486/5/3 488/437/3
f 486/5/3 491/5/3 492/438/3
f 491/5/4 489/5/4 492/439/4
f 489/5/4 491/5/4 490/440/4
f 489/5/5 486/5/5 492/441/5
f 486/5/5 489/5/5 485/442/5
f 487/2/6 491/3/6 488/11/6
f 491/3/6 487/2/6 490/1/6

usemtl color0

f 352/3/1 354/2/1 351/1/1
f 354/3/1 352/2/1 353/1/1
f 493/3/2 352/2/2 351/1/2
f 352/3/2 493/2/2 494/1/2
f 495/5/3 354/309/3 353/5/3
f 354/309/3 495/5/3 496/443/3
f 495/5/4 493/5/4 496/444/4
f 493/5/4 495/5/4 494/445/4
f 493/5/5 354/312/5 496/446/5
f 354/312/5 493/5/5 351/5/5
f 352/2/6 495/3/6 353/11/6
f 495/3/6 352/2/6 494/1/6
f 474/3/1 476/2/1 473/1/1
f 476/3/1 474/2/1 475/1/1
f 497/3/2 474/2/2 473/1/2
f 474/3/2 497/2/2 498/1/2
f 499/5/3 476/426/3 475/5/3
f 476/426/3 499/5/3 500/447/3
f 499/5/4 497/5/4 500/448/4
f 497/5/4 499/5/4 498/449/4
f 497/5/5 476/429/5 500/450/5
f 476/429/5 497/5/5 473/5/5
f 474/2/6 499/3/6 475/11/6
f 499/3/6 474/2/6 498/1/6

usemtl color15

f 502/3/1 203/2/1 501/1/1
f 203/3/1 502/2/1 204/1/1
f 355/3/2 502/2/2 501/1/2
f 502/3/2 355/2/2 357/1/2
f 358/314/3 203/5/3 204/451/3
f 203/5/3 358/314/3 356/5/3
f 358/5/4 355/5/4 356/452/4
f 355/5/4 358/5/4 357/453/4
f 355/319/5 203/5/5 356/5/5
f 203/5/5 355/319/5 501/454/5
f 502/2/6 358/3/6 204/11/6
f 358/3/6 502/2/6 357/1/6

usemtl color12

f 505/3/1 504/2/1 503/1/1
f 504/3/1 505/2/1 506/1/1
f 507/3/2 505/2/2 503/1/2
f 505/3/2 507/2/2 508/1/2
f 509/5/3 504/5/3 506/455/3
f 504/5/3 509/5/3 510/456/3
f 509/5/4 507/5/4 510/457/4
f 507/5/4 509/5/4 508/458/4
f 507/5/5 504/5/5 510/459/5
f 504/5/5 507/5/5 503/460/5
f 505/2/6 509/3/6 506/11/6
f 509/3/6 505/2/6 508/1/6
f 513/3/1 512/2/1 511/1/1
f 512/3/1 513/2/1 514/1/1
f 515/3/2 513/2/2 511/1/2
f 513/3/2 515/2/2 516/1/2
f 517/5/3 512/5/3 514/461/3
f 512/5/3 517/5/3 518/462/3
f 517/5/4 515/5/4 518/463/4
f 515/5/4 517/5/4 516/464/4
f 515/5/5 512/5/5 518/465/5
f 512/5/5 515/5/5 511/466/5
f 513/2/6 517/3/6 514/11/6
f 517/3/6 513/2/6 516/1/6
f 55/3/1 260/2/1 56/1/1
f 260/3/1 55/2/1 259/1/1
f 471/3/2 55/2/2 56/1/2
f 55/3/2 471/2/2 472/1/2
f 110/425/3 260/226/3 259/5/3
f 260/226/3 110/425/3 109/5/3
f 110/95/4 471/5/4 109/5/4
f 471/5/4 110/95/4 472/467/4
f 471/430/5 260/228/5 109/5/5
f 260/228/5 471/430/5 56/46/5
f 55/2/6 110/3/6 259/11/6
f 110/3/6 55/2/6 472/1/6
f 521/3/1 520/2/1 519/1/1
f 520/3/1 521/2/1 522/1/1
f 504/3/2 521/2/2 519/1/2
f 521/3/2 504/2/2 506/1/2
f 126/5/3 520/5/3 522/468/3
f 520/5/3 126/5/3 125/469/3
f 126/107/4 504/5/4 125/5/4
f 504/5/4 126/107/4 506/470/4
f 504/5/5 520/5/5 125/5/5
f 520/5/5 504/5/5 519/471/5
f 521/2/6 126/3/6 522/11/6
f 126/3/6 521/2/6 506/1/6
f 524/3/1 221/2/1 523/1/1
f 221/3/1 524/2/1 222/1/1
f 512/3/2 524/2/2 523/1/2
f 524/3/2 512/2/2 514/1/2
f 525/5/3 221/5/3 222/472/3
f 221/5/3 525/5/3 526/473/3
f 525/5/4 512/5/4 526/474/4
f 512/5/4 525/5/4 514/475/4
f 512/5/5 221/5/5 526/476/5
f 221/5/5 512/5/5 523/477/5
f 524/2/6 525/3/6 222/11/6
f 525/3/6 524/2/6 514/1/6
f 517/3/1 527/2/1 518/1/1
f 527/3/1 517/2/1 528/1/1
f 529/3/2 517/2/2 518/1/2
f 517/3/2 529/2/2 530/1/2
f 531/5/3 527/5/3 528/478/3
f 527/5/3 531/5/3 532/479/3
f 531/5/4 529/5/4 532/480/4
f 529/5/4 531/5/4 530/481/4
f 529/5/5 527/5/5 532/482/5
f 527/5/5 529/5/5 518/465/5
f 517/2/6 531/3/6 528/11/6
f 531/3/6 517/2/6 530/1/6
f 482/3/1 484/2/1 481/1/1
f 484/3/1 482/2/1 483/1/1
f 81/3/2 482/2/2 481/1/2
f 482/3/2 81/2/2 83/1/2
f 84/74/3 484/432/3 483/5/3
f 484/432/3 84/74/3 82/5/3
f 84/5/4 81/5/4 82/483/4
f 81/5/4 84/5/4 83/484/4
f 81/79/5 484/435/5 82/5/5
f 484/435/5 81/79/5 481/5/5
f 482/2/6 84/3/6 483/11/6
f 84/3/6 482/2/6 83/1/6
f 94/3/1 96/2/1 93/1/1
f 96/3/1 94/2/1 95/1/1
f 485/3/2 94/2/2 93/1/2
f 94/3/2 485/2/2 487/1/2
f 488/437/3 96/81/3 95/5/3
f 96/81/3 488/437/3 486/5/3
f 488/5/4 485/5/4 486/485/4
f 485/5/4 488/5/4 487/486/4
f 485/442/5 96/84/5 486/5/5
f 96/84/5 485/442/5 93/5/5
f 94/2/6 488/3/6 95/11/6
f 488/3/6 94/2/6 487/1/6
f 480/3/1 533/2/1 478/1/1
f 533/3/1 480/2/1 534/1/1
f 484/3/2 480/2/2 478/1/2
f 480/3/2 484/2/2 483/1/2
f 535/5/3 533/5/3 534/487/3
f 533/5/3 535/5/3 536/488/3
f 535/5/4 484/433/4 536/489/4
f 484/433/4 535/5/4 483/5/4
f 484/435/5 533/5/5 536/490/5
f 533/5/5 484/435/5 478/5/5
f 480/2/6 535/3/6 534/11/6
f 535/3/6 480/2/6 483/1/6
f 488/3/1 537/2/1 486/1/1
f 537/3/1 488/2/1 538/1/1
f 492/3/2 488/2/2 486/1/2
f 488/3/2 492/2/2 491/1/2
f 539/5/3 537/5/3 538/491/3
f 537/5/3 539/5/3 540/492/3
f 539/5/4 492/439/4 540/493/4
f 492/439/4 539/5/4 491/5/4
f 492/441/5 537/5/5 540/494/5
f 537/5/5 492/441/5 486/5/5
f 488/2/6 539/3/6 538/11/6
f 539/3/6 488/2/6 491/1/6

usemtl color13

f 508/3/1 510/2/1 507/1/1
f 510/3/1 508/2/1 509/1/1
f 511/3/2 508/2/2 507/1/2
f 508/3/2 511/2/2 513/1/2
f 514/461/3 510/456/3 509/5/3
f 510/456/3 514/461/3 512/5/3
f 514/475/4 511/5/4 512/5/4
f 511/5/4 514/475/4 513/495/4
f 511/466/5 510/459/5 512/5/5
f 510/459/5 511/466/5 507/5/5
f 508/2/6 514/3/6 509/11/6
f 514/3/6 508/2/6 513/1/6
f 516/3/1 518/2/1 515/1/1
f 518/3/1 516/2/1 517/1/1
f 541/3/2 516/2/2 515/1/2
f 516/3/2 541/2/2 542/1/2
f 530/5/3 518/462/3 517/5/3
f 518/462/3 530/5/3 529/496/3
f 530/481/4 541/5/4 529/5/4
f 541/5/4 530/481/4 542/497/4
f 541/5/5 518/465/5 529/5/5
f 518/465/5 541/5/5 515/5/5
f 516/2/6 530/3/6 517/11/6
f 530/3/6 516/2/6 542/1/6
f 545/3/1 544/2/1 543/1/1
f 544/3/1 545/2/1 546/1/1
f 547/3/2 545/2/2 543/1/2
f 545/3/2 547/2/2 548/1/2
f 549/5/3 544/5/3 546/498/3
f 544/5/3 549/5/3 550/499/3
f 549/5/4 547/5/4 550/500/4
f 547/5/4 549/5/4 548/501/4
f 547/5/5 544/5/5 550/502/5
f 544/5/5 547/5/5 543/503/5
f 545/2/6 549/3/6 546/11/6
f 549/3/6 545/2/6 548/1/6
f 514/3/1 526/2/1 512/1/1
f 526/3/1 514/2/1 525/1/1
f 518/3/2 514/2/2 512/1/2
f 514/3/2 518/2/2 517/1/2
f 528/478/3 526/473/3 525/5/3
f 526/473/3 528/478/3 527/5/3
f 528/5/4 518/463/4 527/504/4
f 518/463/4 528/5/4 517/5/4
f 518/465/5 526/476/5 527/5/5
f 526/476/5 518/465/5 512/5/5
f 514/2/6 528/3/6 525/11/6
f 528/3/6 514/2/6 517/1/6

usemtl color3

f 552/3/1 121/2/1 551/1/1
f 121/3/1 552/2/1 123/1/1
f 519/3/2 552/2/2 551/1/2
f 552/3/2 519/2/2 521/1/2
f 522/468/3 121/5/3 123/505/3
f 121/5/3 522/468/3 520/5/3
f 522/5/4 519/5/4 520/506/4
f 519/5/4 522/5/4 521/507/4
f 519/471/5 121/109/5 520/5/5
f 121/109/5 519/471/5 551/508/5
f 552/2/6 522/3/6 123/11/6
f 522/3/6 552/2/6 521/1/6
f 222/3/1 224/2/1 221/1/1
f 224/3/1 222/2/1 223/1/1
f 532/3/2 222/2/2 221/1/2
f 222/3/2 532/2/2 531/1/2
f 553/5/3 224/184/3 223/5/3
f 224/184/3 553/5/3 554/509/3
f 553/5/4 532/480/4 554/510/4
f 532/480/4 553/5/4 531/5/4
f 532/482/5 224/187/5 554/511/5
f 224/187/5 532/482/5 221/5/5
f 222/2/6 553/3/6 223/11/6
f 553/3/6 222/2/6 531/1/6
f 483/3/1 536/2/1 484/1/1
f 536/3/1 483/2/1 535/1/1
f 82/3/2 483/2/2 484/1/2
f 483/3/2 82/2/2 84/1/2
f 280/244/3 536/488/3 535/5/3
f 536/488/3 280/244/3 279/5/3
f 280/5/4 82/483/4 279/512/4
f 82/483/4 280/5/4 84/5/4
f 82/5/5 536/490/5 279/5/5
f 536/490/5 82/5/5 484/435/5
f 483/2/6 280/3/6 535/11/6
f 280/3/6 483/2/6 84/1/6
f 95/3/1 290/2/1 96/1/1
f 290/3/1 95/2/1 289/1/1
f 486/3/2 95/2/2 96/1/2
f 95/3/2 486/2/2 488/1/2
f 538/491/3 290/253/3 289/5/3
f 290/253/3 538/491/3 537/5/3
f 538/5/4 486/485/4 537/513/4
f 486/485/4 538/5/4 488/5/4
f 486/5/5 290/255/5 537/5/5
f 290/255/5 486/5/5 96/84/5
f 95/2/6 538/3/6 289/11/6
f 538/3/6 95/2/6 488/1/6
f 179/3/1 236/2/1 180/1/1
f 236/3/1 179/2/1 235/1/1
f 555/3/2 179/2/2 180/1/2
f 179/3/2 555/2/2 556/1/2
f 557/5/3 236/195/3 235/5/3
f 236/195/3 557/5/3 558/514/3
f 557/5/4 555/5/4 558/515/4
f 555/5/4 557/5/4 556/516/4
f 555/5/5 236/197/5 558/517/5
f 236/197/5 555/5/5 180/150/5
f 179/2/6 557/3/6 235/11/6
f 557/3/6 179/2/6 556/1/6
f 187/3/1 248/2/1 188/1/1
f 248/3/1 187/2/1 247/1/1
f 559/3/2 187/2/2 188/1/2
f 187/3/2 559/2/2 560/1/2
f 561/5/3 248/205/3 247/5/3
f 248/205/3 561/5/3 562/518/3
f 561/5/4 559/5/4 562/519/4
f 559/5/4 561/5/4 560/520/4
f 559/5/5 248/207/5 562/521/5
f 248/207/5 559/5/5 188/156/5
f 187/2/6 561/3/6 247/11/6
f 561/3/6 187/2/6 560/1/6

usemtl color8

f 397/3/1 563/2/1 398/1/1
f 563/3/1 397/2/1 564/1/1
f 565/3/2 397/2/2 398/1/2
f 397/3/2 565/2/2 566/1/2
f 567/5/3 563/5/3 564/522/3
f 563/5/3 567/5/3 568/523/3
f 567/5/4 565/5/4 568/524/4
f 565/5/4 567/5/4 566/525/4
f 565/5/5 563/5/5 568/526/5
f 563/5/5 565/5/5 398/348/5
f 397/2/6 567/3/6 564/11/6
f 567/3/6 397/2/6 566/1/6
f 571/3/1 570/2/1 569/1/1
f 570/3/1 571/2/1 572/1/1
f 311/3/2 571/2/2 569/1/2
f 571/3/2 311/2/2 313/1/2
f 314/272/3 570/5/3 572/527/3
f 570/5/3 314/272/3 312/5/3
f 314/5/4 311/5/4 312/528/4
f 311/5/4 314/5/4 313/529/4
f 311/275/5 570/5/5 312/5/5
f 570/5/5 311/275/5 569/530/5
f 571/2/6 314/3/6 572/11/6
f 314/3/6 571/2/6 313/1/6

usemtl color9

f 566/3/1 568/2/1 565/1/1
f 568/3/1 566/2/1 567/1/1
f 569/3/2 566/2/2 565/1/2
f 566/3/2 569/2/2 571/1/2
f 572/527/3 568/523/3 567/5/3
f 568/523/3 572/527/3 570/5/3
f 572/5/4 569/5/4 570/531/4
f 569/5/4 572/5/4 571/532/4
f 569/530/5 568/526/5 570/5/5
f 568/526/5 569/530/5 565/5/5
f 566/2/6 572/3/6 567/11/6
f 572/3/6 566/2/6 571/1/6

usemtl color10

f 142/3/1 144/2/1 141/1/1
f 144/3/1 142/2/1 143/1/1
f 573/3/2 142/2/2 141/1/2
f 142/3/2 573/2/2 574/1/2
f 332/5/3 144/117/3 143/5/3
f 144/117/3 332/5/3 331/533/3
f 332/290/4 573/5/4 331/5/4
f 573/5/4 332/290/4 574/534/4
f 573/5/5 144/120/5 331/5/5
f 144/120/5 573/5/5 141/5/5
f 142/2/6 332/3/6 143/11/6
f 332/3/6 142/2/6 574/1/6

usemtl color11

f 417/3/1 575/2/1 418/1/1
f 575/3/1 417/2/1 576/1/1
f 577/3/2 417/2/2 418/1/2
f 417/3/2 577/2/2 578/1/2
f 579/5/3 575/5/3 576/535/3
f 575/5/3 579/5/3 580/536/3
f 579/5/4 577/5/4 580/537/4
f 577/5/4 579/5/4 578/538/4
f 577/5/5 575/5/5 580/539/5
f 575/5/5 577/5/5 418/367/5
f 417/2/6 579/3/6 576/11/6
f 579/3/6 417/2/6 578/1/6

