# Created by Kenney (www.kenney.nl)

mtllib Shotgun LXH Replitz.mtl

v -8 6 -0.45
v -8 5 -0.45
v -8 6 0.45
v -8 5 0.45
v -9 6 -0.45
v -9 6 0.45
v -9 5 0.45
v -9 5 -0.45
v -2 5 -1.8
v -2 4 -1.8
v -2 5 1.8
v -2 4 1.8
v -3 5 -1.8
v -3 5 1.8
v -3 4 1.8
v -3 4 -1.8
v 4 4 -2.25
v 4 3 -2.25
v 4 4 2.25
v 4 3 2.25
v 3 4 -2.25
v 3 4 2.25
v 3 3 2.25
v 3 3 -2.25
v 4 -1 -0.45
v 4 -2 -0.45
v 4 -1 0.45
v 4 -2 0.45
v 3 -1 -0.45
v 3 -1 0.45
v 3 -2 0.45
v 3 -2 -0.45
v 5 -2 -0.45
v 5 -3 -0.45
v 5 -2 0.45
v 5 -3 0.45
v 4 -3 0.45
v 4 -3 -0.45
v 11 5 -0.9
v 11 4 -0.9
v 11 5 0.9
v 11 4 0.9
v 10 5 -0.9
v 10 5 0.9
v 10 4 0.9
v 10 4 -0.9
v 6 5 -1.35
v 6 4 -1.35
v 6 5 1.35
v 6 4 1.35
v 5 5 -1.35
v 5 5 1.35
v 5 4 1.35
v 5 4 -1.35
v -1 0 -0.9
v -1 -5 -0.9
v -1 0 0.9
v -1 -5 0.9
v -2 0 -0.9
v -2 0 0.9
v -2 -5 0.9
v -2 -5 -0.9
v 10 5 -1.35
v 10 4 -1.35
v 10 5 1.35
v 10 4 1.35
v 9 5 -1.35
v 9 5 1.35
v 9 4 1.35
v 9 4 -1.35
v 8 1 -1.35
v 8 0 -1.35
v 8 1 1.35
v 8 0 1.35
v 6 1 -1.35
v 6 1 1.35
v 6 0 1.35
v 6 0 -1.35
v 5 0 -0.45
v 5 -1 -0.45
v 5 0 0.45
v 5 -1 0.45
v 4 0 -0.45
v 4 0 0.45
v 3 0 -0.9
v 3 -5 -0.9
v 3 0 0.9
v 3 -5 0.9
v 2 0 -0.9
v 2 0 0.9
v 2 -5 0.9
v 2 -5 -0.9
v 3 -5 -1.35
v 3 -6 -1.35
v 3 -5 1.35
v 3 -6 1.35
v 2 -5 -1.35
v 2 -5 1.35
v 2 -6 1.35
v 2 -6 -1.35
v 7 5 -1.35
v 7 5 1.35
v 7 4 1.35
v 7 4 -1.35
v 7 3 -1.35
v 7 3 1.35
v 6 3 1.35
v 6 3 -1.35
v 3 5 -2.25
v 3 5 2.25
v 0 5 -2.25
v 0 5 2.25
v 0 4 2.25
v 0 4 -2.25
v 3 1 -2.25
v 3 0 -2.25
v 3 1 2.25
v 3 0 2.25
v 2 1 -2.25
v 2 1 2.25
v 2 0 2.25
v 2 0 -2.25
v 4 5 -1.35
v 4 5 1.35
v 4 4 1.35
v 4 4 -1.35
v -8 5 -1.8
v -8 4 -1.8
v -8 5 1.8
v -8 4 1.8
v -9 5 -1.8
v -9 5 1.8
v -9 4 1.8
v -9 4 -1.8
v -10 4 -1.35
v -10 3 -1.35
v -10 4 1.35
v -10 3 1.35
v -11 4 -1.35
v -11 4 1.35
v -11 3 1.35
v -11 3 -1.35
v 6 -2 -0.45
v 6 -3 -0.45
v 6 -2 0.45
v 6 -3 0.45
v 4 5 -2.25
v 4 5 2.25
v 0 5 -1.8
v 0 3 -1.8
v 0 5 1.8
v 0 3 1.8
v -1 5 -1.8
v -1 5 1.8
v -1 3 1.8
v -1 3 -1.8
v -1 4 -1.8
v -1 4 1.8
v -2 3 1.8
v -2 3 -1.8
v 8 3 -1.8
v 8 2 -1.8
v 8 3 1.8
v 8 2 1.8
v 7 3 -1.8
v 7 3 1.8
v 7 2 1.8
v 7 2 -1.8
v 6 3 -1.8
v 6 2 -1.8
v 6 3 1.8
v 6 2 1.8
v 4 3 -1.8
v 4 3 1.8
v 4 2 1.8
v 4 2 -1.8
v -3 3 1.8
v -3 3 -1.8
v -4 5 -1.8
v -4 5 1.8
v -4 4 1.8
v -4 4 -1.8
v 1 4 -2.25
v 1 4 2.25
v 1 3 2.25
v 1 3 -2.25
v 2 -4 -0.9
v 2 -4 0.9
v 1 -4 -0.9
v 1 -4 0.9
v 1 -5 0.9
v 1 -5 -0.9
v 0 -4 -0.9
v 0 -5 -0.9
v 0 -4 0.9
v 0 -5 0.9
v -1 -4 -0.9
v -1 -4 0.9
v -11 5 -1.8
v -11 5 1.8
v -11 4 1.8
v -11 4 -1.8
v -11 5 -1.35
v -11 5 1.35
v -12 5 -1.35
v -12 5 1.35
v -12 4 1.35
v -12 4 -1.35
v -11 4 -0.9
v -11 3 -0.9
v -11 4 0.9
v -11 3 0.9
v -12 4 -0.9
v -12 4 0.9
v -12 3 0.9
v -12 3 -0.9
v 11 3 -0.9
v 11 3 0.9
v 10 3 0.9
v 10 3 -0.9
v 9 3 -1.35
v 9 3 1.35
v 5 3 1.35
v 5 3 -1.35
v 2 -2 -0.9
v 2 -3 -0.9
v 2 -2 0.9
v 2 -3 0.9
v 1 -2 -0.9
v 1 -2 0.9
v 1 -3 0.9
v 1 -3 -0.9
v 0 -2 -0.9
v 0 -3 -0.9
v 0 -2 0.9
v 0 -3 0.9
v -1 -2 -0.9
v -1 -2 0.9
v -1 -3 0.9
v -1 -3 -0.9
v 10 3 -1.35
v 10 3 1.35
v -8 4 -1.35
v -8 3 -1.35
v -8 4 1.35
v -8 3 1.35
v -9 4 -1.35
v -9 4 1.35
v -9 3 1.35
v -9 3 -1.35
v -5 3 -0.9
v -5 2 -0.9
v -5 3 0.9
v -5 2 0.9
v -7 3 -0.9
v -7 3 0.9
v -7 2 0.9
v -7 2 -0.9
v -3 2 -0.9
v -3 1 -0.9
v -3 2 0.9
v -3 1 0.9
v -5 1 0.9
v -5 1 -0.9
v 4 3 1.35
v 4 3 -1.35
v -3 4 -1.35
v -3 3 -1.35
v -3 4 1.35
v -3 3 1.35
v 10 1 -0.9
v 10 0 -0.9
v 10 1 0.9
v 10 0 0.9
v 9 1 -0.9
v 9 1 0.9
v 9 0 0.9
v 9 0 -0.9
v 9 1 -1.35
v 9 0 -1.35
v 9 1 1.35
v 9 0 1.35
v 3 0 -0.45
v 3 0 0.45
v 6 -1 -0.45
v 6 -1 0.45
v 1 4 -1.8
v 1 2 -1.8
v 1 4 1.8
v 1 2 1.8
v 0 4 -1.8
v 0 4 1.8
v 0 2 1.8
v 0 2 -1.8
v 9 3 -1.8
v 9 2 -1.8
v 9 3 1.8
v 9 2 1.8
v 3 3 -1.8
v 3 3 1.8
v 3 2 1.8
v 3 2 -1.8
v 2 3 -1.8
v 2 2 -1.8
v 2 3 1.8
v 2 2 1.8
v 1 3 -1.8
v 1 3 1.8
v -1 1 -1.8
v -1 1 1.8
v -2 1 1.8
v -2 1 -1.8
v 10 2 -1.35
v 10 1 -1.35
v 10 2 1.35
v 10 1 1.35
v 9 2 -1.35
v 9 2 1.35
v 6 1 -1.8
v 6 1 1.8
v 5 2 -1.8
v 5 2 1.8
v 5 1 1.8
v 5 1 -1.8
v 3 1 -1.8
v 3 1 1.8
v 2 1 1.8
v 2 1 -1.8
v 5 1 -1.35
v 5 1 1.35
v 5 0 1.35
v 5 0 -1.35
v 0 1 -1.8
v 0 0 -1.8
v 0 1 1.8
v 0 0 1.8
v -1 0 1.8
v -1 0 -1.8
v 9 -1 -0.9
v 9 -1 0.9
v 8 0 -0.9
v 8 0 0.9
v 8 -1 0.9
v 8 -1 -0.9
v 9 -2 -0.45
v 9 -3 -0.45
v 9 -2 0.45
v 9 -3 0.45
v 8 -2 -0.45
v 8 -2 0.45
v 8 -3 0.45
v 8 -3 -0.45
v 10 -3 -0.45
v 10 -4 -0.45
v 10 -3 0.45
v 10 -4 0.45
v 9 -4 0.45
v 9 -4 -0.45
v 11 3 -1.35
v 11 2 -1.35
v 11 3 1.35
v 11 2 1.35
v -3 2 -1.35
v -3 2 1.35
v -5 3 -1.35
v -5 3 1.35
v -5 2 1.35
v -5 2 -1.35
v 1 1 1.8
v 1 1 -1.8
v -2 2 -1.35
v -2 1 -1.35
v -2 2 1.35
v -2 1 1.35
v -3 1 1.35
v -3 1 -1.35
v 10 3 -1.8
v 10 2 -1.8
v 10 3 1.8
v 10 2 1.8
v 9 1 -1.8
v 9 1 1.8
v 8 1 1.8
v 8 1 -1.8
v -1 2 1.8
v -1 2 -1.8
v 4 1 1.8
v 4 1 -1.8
v 1 0 -1.8
v 1 0 1.8
v 4 1 -1.35
v 4 1 1.35
v 4 0 1.35
v 4 0 -1.35
v 2 0 -1.8
v 2 0 1.8
v -2 3 -1.35
v -2 3 1.35
v 11 2 -0.9
v 11 1 -0.9
v 11 2 0.9
v 11 1 0.9
v 10 2 -0.9
v 10 2 0.9
v -1 1 -1.35
v -1 0 -1.35
v -1 1 1.35
v -1 0 1.35
v -2 0 1.35
v -2 0 -1.35
v 8 -4 -0.9
v 8 -5 -0.9
v 8 -4 0.9
v 8 -5 0.9
v 7 -4 -0.9
v 7 -4 0.9
v 7 -5 0.9
v 7 -5 -0.9
v 4 2 -1.35
v 4 2 1.35
v 3 2 -1.35
v 3 2 1.35
v 3 0 1.35
v 3 0 -1.35
v 0 2 -1.35
v 0 1 -1.35
v 0 2 1.35
v 0 1 1.35
v -1 2 -1.35
v -1 2 1.35
v 7 0 -0.9
v 7 0 0.9
v 7 -1 0.9
v 7 -1 -0.9
v 9 -1 -0.45
v 9 -1 0.45
v 8 -1 -0.45
v 8 -1 0.45
v 7 -2 -0.9
v 7 -2 0.9
v 6 -1 -0.9
v 6 -1 0.9
v 6 -2 0.9
v 6 -2 -0.9
v 9 -3 -0.9
v 9 -4 -0.9
v 9 -3 0.9
v 9 -4 0.9
v 8 -3 -0.9
v 8 -3 0.9
v 10 -5 -0.45
v 10 -5 0.45
v 9 -5 0.45
v 9 -5 -0.45
v 9 -5 -0.9
v 9 -6 -0.9
v 9 -5 0.9
v 9 -6 0.9
v 8 -6 0.9
v 8 -6 -0.9
v 6 0 -0.9
v 6 0 0.9
v 8 -2 -0.9
v 8 -2 0.9
v 7 -3 0.9
v 7 -3 -0.9
v 7 -6 0.9
v 7 -6 -0.9
v 1 0 -0.9
v 1 0 0.9
v 0 0 -0.9
v 0 0 0.9
v -2 -5 -1.35
v -2 -5 1.35
v -2 -6 1.35
v -2 -6 -1.35
v 6 -3 0.9
v 6 -3 -0.9

vn 1 0 0
vn 0 1 0
vn 0 -1 0
vn -1 0 0
vn 0 0 -1
vn 0 0 1

vt -19.68504 19.68504
vt 19.68504 19.68504
vt -19.68504 -19.68504
vt 0 NaN
vt 0 0
vt 0 NaN
vt 0 NaN
vt 0 NaN
vt 0 NaN
vt 0 NaN
vt 19.68504 -19.68504
vt 0 NaN
vt 0 NaN
vt 0 NaN
vt 0 NaN
vt 0 NaN
vt 0 NaN
vt 0 NaN
vt 0 NaN
vt 0 NaN
vt 0 NaN
vt 0 NaN
vt 0 NaN
vt 0 NaN
vt 0 NaN
vt 0 NaN
vt 0 NaN
vt 0 NaN
vt 0 NaN
vt 0 NaN
vt 0 NaN
vt 0 NaN
vt 0 NaN
vt 0 NaN
vt 0 NaN
vt 0 NaN
vt 0 NaN
vt 0 NaN
vt 0 NaN
vt 0 NaN
vt 0 NaN
vt 0 NaN
vt 0 NaN
vt 0 NaN
vt 0 NaN
vt 0 NaN
vt 0 NaN
vt 0 NaN
vt 0 NaN
vt 0 NaN
vt 0 NaN
vt 0 NaN
vt 0 NaN
vt 0 NaN
vt 0 NaN
vt 0 NaN
vt 0 NaN
vt 0 NaN
vt 0 NaN
vt 0 NaN
vt 0 NaN
vt 0 NaN
vt 0 NaN
vt 0 NaN
vt 0 NaN
vt 0 NaN
vt 0 NaN
vt 0 NaN
vt 0 NaN
vt 0 NaN
vt 0 NaN
vt 0 NaN
vt 0 NaN
vt 0 NaN
vt 0 NaN
vt 0 NaN
vt 0 NaN
vt 0 NaN
vt 0 NaN
vt 0 NaN
vt 0 NaN
vt 0 NaN
vt 0 NaN
vt 0 NaN
vt 0 NaN
vt 0 NaN
vt 0 NaN
vt 0 NaN
vt 0 NaN
vt 0 NaN
vt 0 NaN
vt 0 NaN
vt 0 NaN
vt 0 NaN
vt 0 NaN
vt 0 NaN
vt 0 NaN
vt 0 NaN
vt 0 NaN
vt 0 NaN
vt 0 NaN
vt 0 NaN
vt 0 NaN
vt 0 NaN
vt 0 NaN
vt 0 NaN
vt 0 NaN
vt 0 NaN
vt 0 NaN
vt 0 NaN
vt 0 NaN
vt 0 NaN
vt 0 NaN
vt 0 NaN
vt 0 NaN
vt 0 NaN
vt 0 NaN
vt 0 NaN
vt 0 NaN
vt 0 NaN
vt 0 NaN
vt 0 NaN
vt 0 NaN
vt 0 NaN
vt 0 NaN
vt 0 NaN
vt 0 NaN
vt 0 NaN
vt 0 NaN
vt 0 NaN
vt 0 NaN
vt 0 NaN
vt 0 NaN
vt 0 NaN
vt 0 NaN
vt 0 NaN
vt 0 NaN
vt 0 NaN
vt 0 NaN
vt 0 NaN
vt 0 NaN
vt 0 NaN
vt 0 NaN
vt 0 NaN
vt 0 NaN
vt 0 NaN
vt 0 NaN
vt 0 NaN
vt 0 NaN
vt 0 NaN
vt 0 NaN
vt 0 NaN
vt 0 NaN
vt 0 NaN
vt 0 NaN
vt 0 NaN
vt 0 NaN
vt 0 NaN
vt 0 NaN
vt 0 NaN
vt 0 NaN
vt 0 NaN
vt 0 NaN
vt 0 NaN
vt 0 NaN
vt 0 NaN
vt 0 NaN
vt 0 NaN
vt 0 NaN
vt 0 NaN
vt 0 NaN
vt 0 NaN
vt 0 NaN
vt 0 NaN
vt 0 NaN
vt 0 NaN
vt 0 NaN
vt 0 NaN
vt 0 NaN
vt 0 NaN
vt 0 NaN
vt 0 NaN
vt 0 NaN
vt 0 NaN
vt 0 NaN
vt 0 NaN
vt 0 NaN
vt 0 NaN
vt 0 NaN
vt 0 NaN
vt 0 NaN
vt 0 NaN
vt 0 NaN
vt 0 NaN
vt 0 NaN
vt 0 NaN
vt 0 NaN
vt 0 NaN
vt 0 NaN
vt 0 NaN
vt 0 NaN
vt 0 NaN
vt 0 NaN
vt 0 NaN
vt 0 NaN
vt 0 NaN
vt 0 NaN
vt 0 NaN
vt 0 NaN
vt 0 NaN
vt 0 NaN
vt 0 NaN
vt 0 NaN
vt 0 NaN
vt 0 NaN
vt 0 NaN
vt 0 NaN
vt 0 NaN
vt 0 NaN
vt 0 NaN
vt 0 NaN
vt 0 NaN
vt 0 NaN
vt 0 NaN
vt 0 NaN
vt 0 NaN
vt 0 NaN
vt 0 NaN
vt 0 NaN
vt 0 NaN
vt 0 NaN
vt 0 NaN
vt 0 NaN
vt 0 NaN
vt 0 NaN
vt 0 NaN
vt 0 NaN
vt 0 NaN
vt 0 NaN
vt 0 NaN
vt 0 NaN
vt 0 NaN
vt 0 NaN
vt 0 NaN
vt 0 NaN
vt 0 NaN
vt 0 NaN
vt 0 NaN
vt 0 NaN
vt 0 NaN
vt 0 NaN
vt 0 NaN
vt 0 NaN
vt 0 NaN
vt 0 NaN
vt 0 NaN
vt 0 NaN
vt 0 NaN
vt 0 NaN
vt 0 NaN
vt 0 NaN
vt 0 NaN
vt 0 NaN
vt 0 NaN
vt 0 NaN
vt 0 NaN
vt 0 NaN
vt 0 NaN
vt 0 NaN
vt 0 NaN
vt 0 NaN
vt 0 NaN
vt 0 NaN
vt 0 NaN
vt 0 NaN
vt 0 NaN
vt 0 NaN
vt 0 NaN
vt 0 NaN
vt 0 NaN
vt 0 NaN
vt 0 NaN
vt 0 NaN
vt 0 NaN
vt 0 NaN
vt 0 NaN
vt 0 NaN
vt 0 NaN
vt 0 NaN
vt 0 NaN
vt 0 NaN
vt 0 NaN
vt 0 NaN
vt 0 NaN
vt 0 NaN
vt 0 NaN
vt 0 NaN
vt 0 NaN
vt 0 NaN
vt 0 NaN
vt 0 NaN
vt 0 NaN
vt 0 NaN
vt 0 NaN
vt 0 NaN
vt 0 NaN
vt 0 NaN
vt 0 NaN
vt 0 NaN
vt 0 NaN
vt 0 NaN
vt 0 NaN
vt 0 NaN
vt 0 NaN
vt 0 NaN
vt 0 NaN
vt 0 NaN
vt 0 NaN
vt 0 NaN
vt 0 NaN
vt 0 NaN
vt 0 NaN
vt 0 NaN
vt 0 NaN
vt 0 NaN
vt 0 NaN
vt 0 NaN
vt 0 NaN
vt 0 NaN
vt 0 NaN
vt 0 NaN
vt 0 NaN
vt 0 NaN
vt 0 NaN
vt 0 NaN
vt 0 NaN
vt 0 NaN
vt 0 NaN
vt 0 NaN
vt 0 NaN
vt 0 NaN
vt 0 NaN
vt 0 NaN
vt 0 NaN
vt 0 NaN
vt 0 NaN
vt 0 NaN
vt 0 NaN
vt 0 NaN
vt 0 NaN
vt 0 NaN
vt 0 NaN
vt 0 NaN
vt 0 NaN
vt 0 NaN
vt 0 NaN
vt 0 NaN
vt 0 NaN
vt 0 NaN
vt 0 NaN
vt 0 NaN
vt 0 NaN
vt 0 NaN
vt 0 NaN
vt 0 NaN
vt 0 NaN
vt 0 NaN
vt 0 NaN
vt 0 NaN
vt 0 NaN
vt 0 NaN
vt 0 NaN
vt 0 NaN
vt 0 NaN
vt 0 NaN
vt 0 NaN
vt 0 NaN
vt 0 NaN
vt 0 NaN
vt 0 NaN
vt 0 NaN
vt 0 NaN
vt 0 NaN
vt 0 NaN
vt 0 NaN
vt 0 NaN
vt 0 NaN
vt 0 NaN
vt 0 NaN
vt 0 NaN
vt 0 NaN
vt 0 NaN
vt 0 NaN
vt 0 NaN
vt 0 NaN
vt 0 NaN
vt 0 NaN
vt 0 NaN
vt 0 NaN
vt 0 NaN
vt 0 NaN
vt 0 NaN
vt 0 NaN
vt 0 NaN
vt 0 NaN
vt 0 NaN
vt 0 NaN
vt 0 NaN
vt 0 NaN
vt 0 NaN
vt 0 NaN
vt 0 NaN
vt 0 NaN
vt 0 NaN
vt 0 NaN
vt 0 NaN
vt 0 NaN
vt 0 NaN
vt 0 NaN
vt 0 NaN
vt 0 NaN
vt 0 NaN
vt 0 NaN
vt 0 NaN
vt 0 NaN
vt 0 NaN
vt 0 NaN
vt 0 NaN
vt 0 NaN
vt 0 NaN
vt 0 NaN
vt 0 NaN
vt 0 NaN
vt 0 NaN
vt 0 NaN
vt 0 NaN
vt 0 NaN
vt 0 NaN
vt 0 NaN
vt 0 NaN
vt 0 NaN
vt 0 NaN
vt 0 NaN
vt 0 NaN
vt 0 NaN
vt 0 NaN
vt 0 NaN
vt 0 NaN
vt 0 NaN
vt 0 NaN
vt 0 NaN
vt 0 NaN
vt 0 NaN
vt 0 NaN
vt 0 NaN
vt 0 NaN
vt 0 NaN

usemtl color15

f 3/3/1 2/2/1 1/1/1
f 2/3/1 3/2/1 4/1/1
f 5/3/2 3/2/2 1/1/2
f 3/3/2 5/2/2 6/1/2
f 7/5/3 2/5/3 4/4/3
f 2/5/3 7/5/3 8/6/3
f 7/5/4 5/5/4 8/7/4
f 5/5/4 7/5/4 6/8/4
f 5/5/5 2/5/5 8/9/5
f 2/5/5 5/5/5 1/10/5
f 3/2/6 7/3/6 4/11/6
f 7/3/6 3/2/6 6/1/6
f 3/3/1 2/2/1 1/1/1
f 2/3/1 3/2/1 4/1/1
f 5/3/2 3/2/2 1/1/2
f 3/3/2 5/2/2 6/1/2
f 7/5/3 2/5/3 4/4/3
f 2/5/3 7/5/3 8/6/3
f 7/5/4 5/5/4 8/7/4
f 5/5/4 7/5/4 6/8/4
f 5/5/5 2/5/5 8/9/5
f 2/5/5 5/5/5 1/10/5
f 3/2/6 7/3/6 4/11/6
f 7/3/6 3/2/6 6/1/6
f 11/3/1 10/2/1 9/1/1
f 10/3/1 11/2/1 12/1/1
f 13/3/2 11/2/2 9/1/2
f 11/3/2 13/2/2 14/1/2
f 15/5/3 10/5/3 12/12/3
f 10/5/3 15/5/3 16/13/3
f 15/5/4 13/5/4 16/14/4
f 13/5/4 15/5/4 14/15/4
f 13/5/5 10/5/5 16/16/5
f 10/5/5 13/5/5 9/17/5
f 11/2/6 15/3/6 12/11/6
f 15/3/6 11/2/6 14/1/6
f 19/3/1 18/2/1 17/1/1
f 18/3/1 19/2/1 20/1/1
f 21/3/2 19/2/2 17/1/2
f 19/3/2 21/2/2 22/1/2
f 23/5/3 18/5/3 20/18/3
f 18/5/3 23/5/3 24/19/3
f 23/5/4 21/5/4 24/20/4
f 21/5/4 23/5/4 22/21/4
f 21/5/5 18/5/5 24/22/5
f 18/5/5 21/5/5 17/23/5
f 19/2/6 23/3/6 20/11/6
f 23/3/6 19/2/6 22/1/6
f 27/3/1 26/2/1 25/1/1
f 26/3/1 27/2/1 28/1/1
f 29/3/2 27/2/2 25/1/2
f 27/3/2 29/2/2 30/1/2
f 31/5/3 26/5/3 28/24/3
f 26/5/3 31/5/3 32/25/3
f 31/5/4 29/5/4 32/26/4
f 29/5/4 31/5/4 30/27/4
f 29/5/5 26/5/5 32/28/5
f 26/5/5 29/5/5 25/29/5
f 27/2/6 31/3/6 28/11/6
f 31/3/6 27/2/6 30/1/6
f 35/3/1 34/2/1 33/1/1
f 34/3/1 35/2/1 36/1/1
f 26/3/2 35/2/2 33/1/2
f 35/3/2 26/2/2 28/1/2
f 37/5/3 34/5/3 36/30/3
f 34/5/3 37/5/3 38/31/3
f 37/5/4 26/5/4 38/32/4
f 26/5/4 37/5/4 28/33/4
f 26/5/5 34/5/5 38/34/5
f 34/5/5 26/5/5 33/35/5
f 35/2/6 37/3/6 36/11/6
f 37/3/6 35/2/6 28/1/6

usemtl color10

f 41/3/1 40/2/1 39/1/1
f 40/3/1 41/2/1 42/1/1
f 43/3/2 41/2/2 39/1/2
f 41/3/2 43/2/2 44/1/2
f 45/5/3 40/5/3 42/36/3
f 40/5/3 45/5/3 46/37/3
f 45/5/4 43/5/4 46/38/4
f 43/5/4 45/5/4 44/39/4
f 43/5/5 40/5/5 46/40/5
f 40/5/5 43/5/5 39/41/5
f 41/2/6 45/3/6 42/11/6
f 45/3/6 41/2/6 44/1/6
f 49/3/1 48/2/1 47/1/1
f 48/3/1 49/2/1 50/1/1
f 51/3/2 49/2/2 47/1/2
f 49/3/2 51/2/2 52/1/2
f 53/5/3 48/5/3 50/42/3
f 48/5/3 53/5/3 54/43/3
f 53/5/4 51/5/4 54/44/4
f 51/5/4 53/5/4 52/45/4
f 51/5/5 48/5/5 54/46/5
f 48/5/5 51/5/5 47/47/5
f 49/2/6 53/3/6 50/11/6
f 53/3/6 49/2/6 52/1/6
f 57/3/1 56/2/1 55/1/1
f 56/3/1 57/2/1 58/1/1
f 59/3/2 57/2/2 55/1/2
f 57/3/2 59/2/2 60/1/2
f 61/5/3 56/5/3 58/48/3
f 56/5/3 61/5/3 62/49/3
f 61/5/4 59/5/4 62/50/4
f 59/5/4 61/5/4 60/51/4
f 59/5/5 56/5/5 62/52/5
f 56/5/5 59/5/5 55/53/5
f 57/2/6 61/3/6 58/11/6
f 61/3/6 57/2/6 60/1/6

usemtl color4

f 65/3/1 64/2/1 63/1/1
f 64/3/1 65/2/1 66/1/1
f 67/3/2 65/2/2 63/1/2
f 65/3/2 67/2/2 68/1/2
f 69/5/3 64/5/3 66/54/3
f 64/5/3 69/5/3 70/55/3
f 69/5/4 67/5/4 70/56/4
f 67/5/4 69/5/4 68/57/4
f 67/5/5 64/5/5 70/58/5
f 64/5/5 67/5/5 63/59/5
f 65/2/6 69/3/6 66/11/6
f 69/3/6 65/2/6 68/1/6
f 73/3/1 72/2/1 71/1/1
f 72/3/1 73/2/1 74/1/1
f 75/3/2 73/2/2 71/1/2
f 73/3/2 75/2/2 76/1/2
f 77/5/3 72/5/3 74/60/3
f 72/5/3 77/5/3 78/61/3
f 77/5/4 75/5/4 78/62/4
f 75/5/4 77/5/4 76/63/4
f 75/5/5 72/5/5 78/64/5
f 72/5/5 75/5/5 71/65/5
f 73/2/6 77/3/6 74/11/6
f 77/3/6 73/2/6 76/1/6
f 81/3/1 80/2/1 79/1/1
f 80/3/1 81/2/1 82/1/1
f 83/3/2 81/2/2 79/1/2
f 81/3/2 83/2/2 84/1/2
f 27/5/3 80/5/3 82/66/3
f 80/5/3 27/5/3 25/67/3
f 27/5/4 83/5/4 25/68/4
f 83/5/4 27/5/4 84/69/4
f 83/5/5 80/5/5 25/29/5
f 80/5/5 83/5/5 79/70/5
f 81/2/6 27/3/6 82/11/6
f 27/3/6 81/2/6 84/1/6
f 87/3/1 86/2/1 85/1/1
f 86/3/1 87/2/1 88/1/1
f 89/3/2 87/2/2 85/1/2
f 87/3/2 89/2/2 90/1/2
f 91/5/3 86/5/3 88/71/3
f 86/5/3 91/5/3 92/72/3
f 91/5/4 89/5/4 92/73/4
f 89/5/4 91/5/4 90/74/4
f 89/5/5 86/5/5 92/75/5
f 86/5/5 89/5/5 85/76/5
f 87/2/6 91/3/6 88/11/6
f 91/3/6 87/2/6 90/1/6
f 95/3/1 94/2/1 93/1/1
f 94/3/1 95/2/1 96/1/1
f 97/3/2 95/2/2 93/1/2
f 95/3/2 97/2/2 98/1/2
f 99/5/3 94/5/3 96/77/3
f 94/5/3 99/5/3 100/78/3
f 99/5/4 97/5/4 100/79/4
f 97/5/4 99/5/4 98/80/4
f 97/5/5 94/5/5 100/81/5
f 94/5/5 97/5/5 93/82/5
f 95/2/6 99/3/6 96/11/6
f 99/3/6 95/2/6 98/1/6

usemtl color26

f 68/3/1 70/2/1 67/1/1
f 70/3/1 68/2/1 69/1/1
f 101/3/2 68/2/2 67/1/2
f 68/3/2 101/2/2 102/1/2
f 103/5/3 70/55/3 69/5/3
f 70/55/3 103/5/3 104/83/3
f 103/5/4 101/5/4 104/84/4
f 101/5/4 103/5/4 102/85/4
f 101/5/5 70/58/5 104/86/5
f 70/58/5 101/5/5 67/5/5
f 68/2/6 103/3/6 69/11/6
f 103/3/6 68/2/6 102/1/6
f 103/3/1 105/2/1 104/1/1
f 105/3/1 103/2/1 106/1/1
f 48/3/2 103/2/2 104/1/2
f 103/3/2 48/2/2 50/1/2
f 107/5/3 105/5/3 106/87/3
f 105/5/3 107/5/3 108/88/3
f 107/5/4 48/5/4 108/89/4
f 48/5/4 107/5/4 50/90/4
f 48/5/5 105/5/5 108/91/5
f 105/5/5 48/5/5 104/86/5
f 103/2/6 107/3/6 106/11/6
f 107/3/6 103/2/6 50/1/6

usemtl color21

f 102/3/1 104/2/1 101/1/1
f 104/3/1 102/2/1 103/1/1
f 47/3/2 102/2/2 101/1/2
f 102/3/2 47/2/2 49/1/2
f 50/42/3 104/83/3 103/5/3
f 104/83/3 50/42/3 48/5/3
f 50/90/4 47/5/4 48/5/4
f 47/5/4 50/90/4 49/92/4
f 47/47/5 104/86/5 48/5/5
f 104/86/5 47/47/5 101/5/5
f 102/2/6 50/3/6 103/11/6
f 50/3/6 102/2/6 49/1/6
f 110/3/1 21/2/1 109/1/1
f 21/3/1 110/2/1 22/1/1
f 111/3/2 110/2/2 109/1/2
f 110/3/2 111/2/2 112/1/2
f 113/5/3 21/5/3 22/93/3
f 21/5/3 113/5/3 114/94/3
f 113/5/4 111/5/4 114/95/4
f 111/5/4 113/5/4 112/96/4
f 111/5/5 21/5/5 114/97/5
f 21/5/5 111/5/5 109/98/5
f 110/2/6 113/3/6 22/11/6
f 113/3/6 110/2/6 112/1/6
f 117/3/1 116/2/1 115/1/1
f 116/3/1 117/2/1 118/1/1
f 119/3/2 117/2/2 115/1/2
f 117/3/2 119/2/2 120/1/2
f 121/5/3 116/5/3 118/99/3
f 116/5/3 121/5/3 122/100/3
f 121/5/4 119/5/4 122/101/4
f 119/5/4 121/5/4 120/102/4
f 119/5/5 116/5/5 122/103/5
f 116/5/5 119/5/5 115/104/5
f 117/2/6 121/3/6 118/11/6
f 121/3/6 117/2/6 120/1/6

usemtl color14

f 52/3/1 54/2/1 51/1/1
f 54/3/1 52/2/1 53/1/1
f 123/3/2 52/2/2 51/1/2
f 52/3/2 123/2/2 124/1/2
f 125/5/3 54/43/3 53/5/3
f 54/43/3 125/5/3 126/105/3
f 125/5/4 123/5/4 126/106/4
f 123/5/4 125/5/4 124/107/4
f 123/5/5 54/46/5 126/108/5
f 54/46/5 123/5/5 51/5/5
f 52/2/6 125/3/6 53/11/6
f 125/3/6 52/2/6 124/1/6
f 129/3/1 128/2/1 127/1/1
f 128/3/1 129/2/1 130/1/1
f 131/3/2 129/2/2 127/1/2
f 129/3/2 131/2/2 132/1/2
f 133/5/3 128/5/3 130/109/3
f 128/5/3 133/5/3 134/110/3
f 133/5/4 131/5/4 134/111/4
f 131/5/4 133/5/4 132/112/4
f 131/5/5 128/5/5 134/113/5
f 128/5/5 131/5/5 127/114/5
f 129/2/6 133/3/6 130/11/6
f 133/3/6 129/2/6 132/1/6
f 137/3/1 136/2/1 135/1/1
f 136/3/1 137/2/1 138/1/1
f 139/3/2 137/2/2 135/1/2
f 137/3/2 139/2/2 140/1/2
f 141/5/3 136/5/3 138/115/3
f 136/5/3 141/5/3 142/116/3
f 141/5/4 139/5/4 142/117/4
f 139/5/4 141/5/4 140/118/4
f 139/5/5 136/5/5 142/119/5
f 136/5/5 139/5/5 135/120/5
f 137/2/6 141/3/6 138/11/6
f 141/3/6 137/2/6 140/1/6
f 145/3/1 144/2/1 143/1/1
f 144/3/1 145/2/1 146/1/1
f 33/3/2 145/2/2 143/1/2
f 145/3/2 33/2/2 35/1/2
f 36/30/3 144/5/3 146/121/3
f 144/5/3 36/30/3 34/5/3
f 36/5/4 33/5/4 34/122/4
f 33/5/4 36/5/4 35/123/4
f 33/35/5 144/5/5 34/5/5
f 144/5/5 33/35/5 143/124/5
f 145/2/6 36/3/6 146/11/6
f 36/3/6 145/2/6 35/1/6

usemtl color28

f 148/3/1 17/2/1 147/1/1
f 17/3/1 148/2/1 19/1/1
f 109/3/2 148/2/2 147/1/2
f 148/3/2 109/2/2 110/1/2
f 22/93/3 17/5/3 19/125/3
f 17/5/3 22/93/3 21/5/3
f 22/21/4 109/5/4 21/5/4
f 109/5/4 22/21/4 110/126/4
f 109/98/5 17/23/5 21/5/5
f 17/23/5 109/98/5 147/127/5
f 148/2/6 22/3/6 19/11/6
f 22/3/6 148/2/6 110/1/6

usemtl color25

f 151/3/1 150/2/1 149/1/1
f 150/3/1 151/2/1 152/1/1
f 153/3/2 151/2/2 149/1/2
f 151/3/2 153/2/2 154/1/2
f 155/5/3 150/5/3 152/128/3
f 150/5/3 155/5/3 156/129/3
f 155/5/4 153/5/4 156/130/4
f 153/5/4 155/5/4 154/131/4
f 153/5/5 150/5/5 156/132/5
f 150/5/5 153/5/5 149/133/5
f 151/2/6 155/3/6 152/11/6
f 155/3/6 151/2/6 154/1/6
f 158/3/1 156/2/1 157/1/1
f 156/3/1 158/2/1 155/1/1
f 10/3/2 158/2/2 157/1/2
f 158/3/2 10/2/2 12/1/2
f 159/5/3 156/129/3 155/5/3
f 156/129/3 159/5/3 160/134/3
f 159/5/4 10/5/4 160/135/4
f 10/5/4 159/5/4 12/136/4
f 10/5/5 156/132/5 160/137/5
f 156/132/5 10/5/5 157/138/5
f 158/2/6 159/3/6 155/11/6
f 159/3/6 158/2/6 12/1/6
f 163/3/1 162/2/1 161/1/1
f 162/3/1 163/2/1 164/1/1
f 165/3/2 163/2/2 161/1/2
f 163/3/2 165/2/2 166/1/2
f 167/5/3 162/5/3 164/139/3
f 162/5/3 167/5/3 168/140/3
f 167/5/4 165/5/4 168/141/4
f 165/5/4 167/5/4 166/142/4
f 165/5/5 162/5/5 168/143/5
f 162/5/5 165/5/5 161/144/5
f 163/2/6 167/3/6 164/11/6
f 167/3/6 163/2/6 166/1/6
f 171/3/1 170/2/1 169/1/1
f 170/3/1 171/2/1 172/1/1
f 173/3/2 171/2/2 169/1/2
f 171/3/2 173/2/2 174/1/2
f 175/5/3 170/5/3 172/145/3
f 170/5/3 175/5/3 176/146/3
f 175/5/4 173/5/4 176/147/4
f 173/5/4 175/5/4 174/148/4
f 173/5/5 170/5/5 176/149/5
f 170/5/5 173/5/5 169/150/5
f 171/2/6 175/3/6 172/11/6
f 175/3/6 171/2/6 174/1/6

usemtl color27

f 154/3/1 157/2/1 153/1/1
f 157/3/1 154/2/1 158/1/1
f 9/3/2 154/2/2 153/1/2
f 154/3/2 9/2/2 11/1/2
f 12/12/3 157/5/3 158/151/3
f 157/5/3 12/12/3 10/5/3
f 12/136/4 9/5/4 10/5/4
f 9/5/4 12/136/4 11/152/4
f 9/17/5 157/138/5 10/5/5
f 157/138/5 9/17/5 153/5/5
f 154/2/6 12/3/6 158/11/6
f 12/3/6 154/2/6 11/1/6
f 12/3/1 160/2/1 10/1/1
f 160/3/1 12/2/1 159/1/1
f 16/3/2 12/2/2 10/1/2
f 12/3/2 16/2/2 15/1/2
f 177/5/3 160/134/3 159/5/3
f 160/134/3 177/5/3 178/153/3
f 177/5/4 16/14/4 178/154/4
f 16/14/4 177/5/4 15/5/4
f 16/16/5 160/137/5 178/155/5
f 160/137/5 16/16/5 10/5/5
f 12/2/6 177/3/6 159/11/6
f 177/3/6 12/2/6 15/1/6

usemtl color8

f 14/3/1 16/2/1 13/1/1
f 16/3/1 14/2/1 15/1/1
f 179/3/2 14/2/2 13/1/2
f 14/3/2 179/2/2 180/1/2
f 181/5/3 16/13/3 15/5/3
f 16/13/3 181/5/3 182/156/3
f 181/5/4 179/5/4 182/157/4
f 179/5/4 181/5/4 180/158/4
f 179/5/5 16/16/5 182/159/5
f 16/16/5 179/5/5 13/5/5
f 14/2/6 181/3/6 15/11/6
f 181/3/6 14/2/6 180/1/6
f 22/3/1 24/2/1 21/1/1
f 24/3/1 22/2/1 23/1/1
f 183/3/2 22/2/2 21/1/2
f 22/3/2 183/2/2 184/1/2
f 185/5/3 24/19/3 23/5/3
f 24/19/3 185/5/3 186/160/3
f 185/5/4 183/5/4 186/161/4
f 183/5/4 185/5/4 184/162/4
f 183/5/5 24/22/5 186/163/5
f 24/22/5 183/5/5 21/5/5
f 22/2/6 185/3/6 23/11/6
f 185/3/6 22/2/6 184/1/6
f 188/3/1 92/2/1 187/1/1
f 92/3/1 188/2/1 91/1/1
f 189/3/2 188/2/2 187/1/2
f 188/3/2 189/2/2 190/1/2
f 191/5/3 92/72/3 91/5/3
f 92/72/3 191/5/3 192/164/3
f 191/5/4 189/5/4 192/165/4
f 189/5/4 191/5/4 190/166/4
f 189/5/5 92/75/5 192/167/5
f 92/75/5 189/5/5 187/168/5
f 188/2/6 191/3/6 91/11/6
f 191/3/6 188/2/6 190/1/6
f 195/3/1 194/2/1 193/1/1
f 194/3/1 195/2/1 196/1/1
f 197/3/2 195/2/2 193/1/2
f 195/3/2 197/2/2 198/1/2
f 58/48/3 194/5/3 196/169/3
f 194/5/3 58/48/3 56/5/3
f 58/5/4 197/5/4 56/170/4
f 197/5/4 58/5/4 198/171/4
f 197/5/5 194/5/5 56/5/5
f 194/5/5 197/5/5 193/172/5
f 195/2/6 58/3/6 196/11/6
f 58/3/6 195/2/6 198/1/6

usemtl color29

f 180/3/1 182/2/1 179/1/1
f 182/3/1 180/2/1 181/1/1
f 127/3/2 180/2/2 179/1/2
f 180/3/2 127/2/2 129/1/2
f 130/109/3 182/156/3 181/5/3
f 182/156/3 130/109/3 128/5/3
f 130/5/4 127/5/4 128/173/4
f 127/5/4 130/5/4 129/174/4
f 127/114/5 182/159/5 128/5/5
f 182/159/5 127/114/5 179/5/5
f 180/2/6 130/3/6 181/11/6
f 130/3/6 180/2/6 129/1/6
f 132/3/1 134/2/1 131/1/1
f 134/3/1 132/2/1 133/1/1
f 199/3/2 132/2/2 131/1/2
f 132/3/2 199/2/2 200/1/2
f 201/5/3 134/110/3 133/5/3
f 134/110/3 201/5/3 202/175/3
f 201/5/4 199/5/4 202/176/4
f 199/5/4 201/5/4 200/177/4
f 199/5/5 134/113/5 202/178/5
f 134/113/5 199/5/5 131/5/5
f 132/2/6 201/3/6 133/11/6
f 201/3/6 132/2/6 200/1/6

usemtl color0

f 204/3/1 139/2/1 203/1/1
f 139/3/1 204/2/1 140/1/1
f 205/3/2 204/2/2 203/1/2
f 204/3/2 205/2/2 206/1/2
f 207/5/3 139/5/3 140/179/3
f 139/5/3 207/5/3 208/180/3
f 207/5/4 205/5/4 208/181/4
f 205/5/4 207/5/4 206/182/4
f 205/5/5 139/5/5 208/183/5
f 139/5/5 205/5/5 203/184/5
f 204/2/6 207/3/6 140/11/6
f 207/3/6 204/2/6 206/1/6
f 211/3/1 210/2/1 209/1/1
f 210/3/1 211/2/1 212/1/1
f 213/3/2 211/2/2 209/1/2
f 211/3/2 213/2/2 214/1/2
f 215/5/3 210/5/3 212/185/3
f 210/5/3 215/5/3 216/186/3
f 215/5/4 213/5/4 216/187/4
f 213/5/4 215/5/4 214/188/4
f 213/5/5 210/5/5 216/189/5
f 210/5/5 213/5/5 209/190/5
f 211/2/6 215/3/6 212/11/6
f 215/3/6 211/2/6 214/1/6

usemtl color16

f 42/3/1 217/2/1 40/1/1
f 217/3/1 42/2/1 218/1/1
f 46/3/2 42/2/2 40/1/2
f 42/3/2 46/2/2 45/1/2
f 219/5/3 217/5/3 218/191/3
f 217/5/3 219/5/3 220/192/3
f 219/5/4 46/38/4 220/193/4
f 46/38/4 219/5/4 45/5/4
f 46/40/5 217/5/5 220/194/5
f 217/5/5 46/40/5 40/5/5
f 42/2/6 219/3/6 218/11/6
f 219/3/6 42/2/6 45/1/6
f 69/3/1 221/2/1 70/1/1
f 221/3/1 69/2/1 222/1/1
f 104/3/2 69/2/2 70/1/2
f 69/3/2 104/2/2 103/1/2
f 106/87/3 221/5/3 222/195/3
f 221/5/3 106/87/3 105/5/3
f 106/5/4 104/84/4 105/196/4
f 104/84/4 106/5/4 103/5/4
f 104/86/5 221/5/5 105/5/5
f 221/5/5 104/86/5 70/58/5
f 69/2/6 106/3/6 222/11/6
f 106/3/6 69/2/6 103/1/6
f 50/3/1 108/2/1 48/1/1
f 108/3/1 50/2/1 107/1/1
f 54/3/2 50/2/2 48/1/2
f 50/3/2 54/2/2 53/1/2
f 223/5/3 108/88/3 107/5/3
f 108/88/3 223/5/3 224/197/3
f 223/5/4 54/44/4 224/198/4
f 54/44/4 223/5/4 53/5/4
f 54/46/5 108/91/5 224/199/5
f 108/91/5 54/46/5 48/5/5
f 50/2/6 223/3/6 107/11/6
f 223/3/6 50/2/6 53/1/6
f 227/3/1 226/2/1 225/1/1
f 226/3/1 227/2/1 228/1/1
f 229/3/2 227/2/2 225/1/2
f 227/3/2 229/2/2 230/1/2
f 231/5/3 226/5/3 228/200/3
f 226/5/3 231/5/3 232/201/3
f 231/5/4 229/5/4 232/202/4
f 229/5/4 231/5/4 230/203/4
f 229/5/5 226/5/5 232/204/5
f 226/5/5 229/5/5 225/205/5
f 227/2/6 231/3/6 228/11/6
f 231/3/6 227/2/6 230/1/6
f 235/3/1 234/2/1 233/1/1
f 234/3/1 235/2/1 236/1/1
f 237/3/2 235/2/2 233/1/2
f 235/3/2 237/2/2 238/1/2
f 239/5/3 234/5/3 236/206/3
f 234/5/3 239/5/3 240/207/3
f 239/5/4 237/5/4 240/208/4
f 237/5/4 239/5/4 238/209/4
f 237/5/5 234/5/5 240/210/5
f 234/5/5 237/5/5 233/211/5
f 235/2/6 239/3/6 236/11/6
f 239/3/6 235/2/6 238/1/6

usemtl color24

f 66/3/1 241/2/1 64/1/1
f 241/3/1 66/2/1 242/1/1
f 70/3/2 66/2/2 64/1/2
f 66/3/2 70/2/2 69/1/2
f 222/195/3 241/5/3 242/212/3
f 241/5/3 222/195/3 221/5/3
f 222/5/4 70/56/4 221/213/4
f 70/56/4 222/5/4 69/5/4
f 70/58/5 241/5/5 221/5/5
f 241/5/5 70/58/5 64/5/5
f 66/2/6 222/3/6 242/11/6
f 222/3/6 66/2/6 69/1/6
f 245/3/1 244/2/1 243/1/1
f 244/3/1 245/2/1 246/1/1
f 247/3/2 245/2/2 243/1/2
f 245/3/2 247/2/2 248/1/2
f 249/5/3 244/5/3 246/214/3
f 244/5/3 249/5/3 250/215/3
f 249/5/4 247/5/4 250/216/4
f 247/5/4 249/5/4 248/217/4
f 247/5/5 244/5/5 250/218/5
f 244/5/5 247/5/5 243/219/5
f 245/2/6 249/3/6 246/11/6
f 249/3/6 245/2/6 248/1/6
f 253/3/1 252/2/1 251/1/1
f 252/3/1 253/2/1 254/1/1
f 255/3/2 253/2/2 251/1/2
f 253/3/2 255/2/2 256/1/2
f 257/5/3 252/5/3 254/220/3
f 252/5/3 257/5/3 258/221/3
f 257/5/4 255/5/4 258/222/4
f 255/5/4 257/5/4 256/223/4
f 255/5/5 252/5/5 258/224/5
f 252/5/5 255/5/5 251/225/5
f 253/2/6 257/3/6 254/11/6
f 257/3/6 253/2/6 256/1/6
f 261/3/1 260/2/1 259/1/1
f 260/3/1 261/2/1 262/1/1
f 252/3/2 261/2/2 259/1/2
f 261/3/2 252/2/2 254/1/2
f 263/5/3 260/5/3 262/226/3
f 260/5/3 263/5/3 264/227/3
f 263/5/4 252/5/4 264/228/4
f 252/5/4 263/5/4 254/229/4
f 252/5/5 260/5/5 264/230/5
f 260/5/5 252/5/5 259/231/5
f 261/2/6 263/3/6 262/11/6
f 263/3/6 261/2/6 254/1/6

usemtl color18

f 53/3/1 224/2/1 54/1/1
f 224/3/1 53/2/1 223/1/1
f 126/3/2 53/2/2 54/1/2
f 53/3/2 126/2/2 125/1/2
f 265/5/3 224/197/3 223/5/3
f 224/197/3 265/5/3 266/232/3
f 265/5/4 126/106/4 266/233/4
f 126/106/4 265/5/4 125/5/4
f 126/108/5 224/199/5 266/234/5
f 224/199/5 126/108/5 54/46/5
f 53/2/6 265/3/6 223/11/6
f 265/3/6 53/2/6 125/1/6
f 269/3/1 268/2/1 267/1/1
f 268/3/1 269/2/1 270/1/1
f 243/3/2 269/2/2 267/1/2
f 269/3/2 243/2/2 245/1/2
f 246/214/3 268/5/3 270/235/3
f 268/5/3 246/214/3 244/5/3
f 246/5/4 243/5/4 244/236/4
f 243/5/4 246/5/4 245/237/4
f 243/219/5 268/5/5 244/5/5
f 268/5/5 243/219/5 267/238/5
f 269/2/6 246/3/6 270/11/6
f 246/3/6 269/2/6 245/1/6
f 248/3/1 250/2/1 247/1/1
f 250/3/1 248/2/1 249/1/1
f 135/3/2 248/2/2 247/1/2
f 248/3/2 135/2/2 137/1/2
f 138/115/3 250/215/3 249/5/3
f 250/215/3 138/115/3 136/5/3
f 138/5/4 135/5/4 136/239/4
f 135/5/4 138/5/4 137/240/4
f 135/120/5 250/218/5 136/5/5
f 250/218/5 135/120/5 247/5/5
f 248/2/6 138/3/6 249/11/6
f 138/3/6 248/2/6 137/1/6
f 273/3/1 272/2/1 271/1/1
f 272/3/1 273/2/1 274/1/1
f 275/3/2 273/2/2 271/1/2
f 273/3/2 275/2/2 276/1/2
f 277/5/3 272/5/3 274/241/3
f 272/5/3 277/5/3 278/242/3
f 277/5/4 275/5/4 278/243/4
f 275/5/4 277/5/4 276/244/4
f 275/5/5 272/5/5 278/245/5
f 272/5/5 275/5/5 271/246/5
f 273/2/6 277/3/6 274/11/6
f 277/3/6 273/2/6 276/1/6
f 281/3/1 280/2/1 279/1/1
f 280/3/1 281/2/1 282/1/1
f 71/3/2 281/2/2 279/1/2
f 281/3/2 71/2/2 73/1/2
f 74/60/3 280/5/3 282/247/3
f 280/5/3 74/60/3 72/5/3
f 74/5/4 71/5/4 72/248/4
f 71/5/4 74/5/4 73/249/4
f 71/65/5 280/5/5 72/5/5
f 280/5/5 71/65/5 279/250/5
f 281/2/6 74/3/6 282/11/6
f 74/3/6 281/2/6 73/1/6
f 84/3/1 25/2/1 83/1/1
f 25/3/1 84/2/1 27/1/1
f 283/3/2 84/2/2 83/1/2
f 84/3/2 283/2/2 284/1/2
f 30/5/3 25/67/3 27/5/3
f 25/67/3 30/5/3 29/251/3
f 30/27/4 283/5/4 29/5/4
f 283/5/4 30/27/4 284/252/4
f 283/5/5 25/29/5 29/5/5
f 25/29/5 283/5/5 83/5/5
f 84/2/6 30/3/6 27/11/6
f 30/3/6 84/2/6 284/1/6
f 286/3/1 143/2/1 285/1/1
f 143/3/1 286/2/1 145/1/1
f 80/3/2 286/2/2 285/1/2
f 286/3/2 80/2/2 82/1/2
f 35/5/3 143/5/3 145/253/3
f 143/5/3 35/5/3 33/254/3
f 35/123/4 80/5/4 33/5/4
f 80/5/4 35/123/4 82/255/4
f 80/5/5 143/124/5 33/35/5
f 143/124/5 80/5/5 285/256/5
f 286/2/6 35/3/6 145/11/6
f 35/3/6 286/2/6 82/1/6

usemtl color11

f 289/3/1 288/2/1 287/1/1
f 288/3/1 289/2/1 290/1/1
f 291/3/2 289/2/2 287/1/2
f 289/3/2 291/2/2 292/1/2
f 293/5/3 288/5/3 290/257/3
f 288/5/3 293/5/3 294/258/3
f 293/5/4 291/5/4 294/259/4
f 291/5/4 293/5/4 292/260/4
f 291/5/5 288/5/5 294/261/5
f 288/5/5 291/5/5 287/262/5
f 289/2/6 293/3/6 290/11/6
f 293/3/6 289/2/6 292/1/6
f 297/3/1 296/2/1 295/1/1
f 296/3/1 297/2/1 298/1/1
f 161/3/2 297/2/2 295/1/2
f 297/3/2 161/2/2 163/1/2
f 164/139/3 296/5/3 298/263/3
f 296/5/3 164/139/3 162/5/3
f 164/5/4 161/5/4 162/264/4
f 161/5/4 164/5/4 163/265/4
f 161/144/5 296/5/5 162/5/5
f 296/5/5 161/144/5 295/266/5
f 297/2/6 164/3/6 298/11/6
f 164/3/6 297/2/6 163/1/6
f 174/3/1 176/2/1 173/1/1
f 176/3/1 174/2/1 175/1/1
f 299/3/2 174/2/2 173/1/2
f 174/3/2 299/2/2 300/1/2
f 301/5/3 176/146/3 175/5/3
f 176/146/3 301/5/3 302/267/3
f 301/5/4 299/5/4 302/268/4
f 299/5/4 301/5/4 300/269/4
f 299/5/5 176/149/5 302/270/5
f 176/149/5 299/5/5 173/5/5
f 174/2/6 301/3/6 175/11/6
f 301/3/6 174/2/6 300/1/6
f 305/3/1 304/2/1 303/1/1
f 304/3/1 305/2/1 306/1/1
f 307/3/2 305/2/2 303/1/2
f 305/3/2 307/2/2 308/1/2
f 290/257/3 304/5/3 306/271/3
f 304/5/3 290/257/3 288/5/3
f 290/5/4 307/5/4 288/272/4
f 307/5/4 290/5/4 308/273/4
f 307/5/5 304/5/5 288/5/5
f 304/5/5 307/5/5 303/274/5
f 305/2/6 290/3/6 306/11/6
f 290/3/6 305/2/6 308/1/6
f 155/3/1 309/2/1 156/1/1
f 309/3/1 155/2/1 310/1/1
f 160/3/2 155/2/2 156/1/2
f 155/3/2 160/2/2 159/1/2
f 311/5/3 309/5/3 310/275/3
f 309/5/3 311/5/3 312/276/3
f 311/5/4 160/135/4 312/277/4
f 160/135/4 311/5/4 159/5/4
f 160/137/5 309/5/5 312/278/5
f 309/5/5 160/137/5 156/132/5
f 155/2/6 311/3/6 310/11/6
f 311/3/6 155/2/6 159/1/6
f 315/3/1 314/2/1 313/1/1
f 314/3/1 315/2/1 316/1/1
f 317/3/2 315/2/2 313/1/2
f 315/3/2 317/2/2 318/1/2
f 281/5/3 314/5/3 316/279/3
f 314/5/3 281/5/3 279/280/3
f 281/5/4 317/5/4 279/281/4
f 317/5/4 281/5/4 318/282/4
f 317/5/5 314/5/5 279/250/5
f 314/5/5 317/5/5 313/283/5
f 315/2/6 281/3/6 316/11/6
f 281/3/6 315/2/6 318/1/6
f 172/3/1 319/2/1 170/1/1
f 319/3/1 172/2/1 320/1/1
f 321/3/2 172/2/2 170/1/2
f 172/3/2 321/2/2 322/1/2
f 323/5/3 319/5/3 320/284/3
f 319/5/3 323/5/3 324/285/3
f 323/5/4 321/5/4 324/286/4
f 321/5/4 323/5/4 322/287/4
f 321/5/5 319/5/5 324/288/5
f 319/5/5 321/5/5 170/5/5
f 172/2/6 323/3/6 320/11/6
f 323/3/6 172/2/6 322/1/6
f 301/3/1 325/2/1 302/1/1
f 325/3/1 301/2/1 326/1/1
f 304/3/2 301/2/2 302/1/2
f 301/3/2 304/2/2 306/1/2
f 327/5/3 325/5/3 326/289/3
f 325/5/3 327/5/3 328/290/3
f 327/5/4 304/5/4 328/291/4
f 304/5/4 327/5/4 306/292/4
f 304/5/5 325/5/5 328/293/5
f 325/5/5 304/5/5 302/270/5
f 301/2/6 327/3/6 326/11/6
f 327/3/6 301/2/6 306/1/6
f 76/3/1 78/2/1 75/1/1
f 78/3/1 76/2/1 77/1/1
f 329/3/2 76/2/2 75/1/2
f 76/3/2 329/2/2 330/1/2
f 331/5/3 78/61/3 77/5/3
f 78/61/3 331/5/3 332/294/3
f 331/5/4 329/5/4 332/295/4
f 329/5/4 331/5/4 330/296/4
f 329/5/5 78/64/5 332/297/5
f 78/64/5 329/5/5 75/5/5
f 76/2/6 331/3/6 77/11/6
f 331/3/6 76/2/6 330/1/6
f 335/3/1 334/2/1 333/1/1
f 334/3/1 335/2/1 336/1/1
f 309/3/2 335/2/2 333/1/2
f 335/3/2 309/2/2 310/1/2
f 337/5/3 334/5/3 336/298/3
f 334/5/3 337/5/3 338/299/3
f 337/5/4 309/5/4 338/300/4
f 309/5/4 337/5/4 310/301/4
f 309/5/5 334/5/5 338/302/5
f 334/5/5 309/5/5 333/303/5
f 335/2/6 337/3/6 336/11/6
f 337/3/6 335/2/6 310/1/6
f 277/3/1 339/2/1 278/1/1
f 339/3/1 277/2/1 340/1/1
f 341/3/2 277/2/2 278/1/2
f 277/3/2 341/2/2 342/1/2
f 343/5/3 339/5/3 340/304/3
f 339/5/3 343/5/3 344/305/3
f 343/5/4 341/5/4 344/306/4
f 341/5/4 343/5/4 342/307/4
f 341/5/5 339/5/5 344/308/5
f 339/5/5 341/5/5 278/245/5
f 277/2/6 343/3/6 340/11/6
f 343/3/6 277/2/6 342/1/6
f 347/3/1 346/2/1 345/1/1
f 346/3/1 347/2/1 348/1/1
f 349/3/2 347/2/2 345/1/2
f 347/3/2 349/2/2 350/1/2
f 351/5/3 346/5/3 348/309/3
f 346/5/3 351/5/3 352/310/3
f 351/5/4 349/5/4 352/311/4
f 349/5/4 351/5/4 350/312/4
f 349/5/5 346/5/5 352/313/5
f 346/5/5 349/5/5 345/314/5
f 347/2/6 351/3/6 348/11/6
f 351/3/6 347/2/6 350/1/6
f 355/3/1 354/2/1 353/1/1
f 354/3/1 355/2/1 356/1/1
f 346/3/2 355/2/2 353/1/2
f 355/3/2 346/2/2 348/1/2
f 357/5/3 354/5/3 356/315/3
f 354/5/3 357/5/3 358/316/3
f 357/5/4 346/5/4 358/317/4
f 346/5/4 357/5/4 348/318/4
f 346/5/5 354/5/5 358/319/5
f 354/5/5 346/5/5 353/320/5
f 355/2/6 357/3/6 356/11/6
f 357/3/6 355/2/6 348/1/6

usemtl color23

f 361/3/1 360/2/1 359/1/1
f 360/3/1 361/2/1 362/1/1
f 241/3/2 361/2/2 359/1/2
f 361/3/2 241/2/2 242/1/2
f 315/5/3 360/5/3 362/321/3
f 360/5/3 315/5/3 313/322/3
f 315/5/4 241/5/4 313/323/4
f 241/5/4 315/5/4 242/324/4
f 241/5/5 360/5/5 313/283/5
f 360/5/5 241/5/5 359/325/5
f 361/2/6 315/3/6 362/11/6
f 315/3/6 361/2/6 242/1/6
f 166/3/1 168/2/1 165/1/1
f 168/3/1 166/2/1 167/1/1
f 169/3/2 166/2/2 165/1/2
f 166/3/2 169/2/2 171/1/2
f 172/145/3 168/140/3 167/5/3
f 168/140/3 172/145/3 170/5/3
f 172/5/4 169/5/4 170/326/4
f 169/5/4 172/5/4 171/327/4
f 169/150/5 168/143/5 170/5/5
f 168/143/5 169/150/5 165/5/5
f 166/2/6 172/3/6 167/11/6
f 172/3/6 166/2/6 171/1/6
f 300/3/1 302/2/1 299/1/1
f 302/3/1 300/2/1 301/1/1
f 303/3/2 300/2/2 299/1/2
f 300/3/2 303/2/2 305/1/2
f 306/271/3 302/267/3 301/5/3
f 302/267/3 306/271/3 304/5/3
f 306/292/4 303/5/4 304/5/4
f 303/5/4 306/292/4 305/328/4
f 303/274/5 302/270/5 304/5/5
f 302/270/5 303/274/5 299/5/5
f 300/2/6 306/3/6 301/11/6
f 306/3/6 300/2/6 305/1/6
f 270/3/1 363/2/1 268/1/1
f 363/3/1 270/2/1 364/1/1
f 365/3/2 270/2/2 268/1/2
f 270/3/2 365/2/2 366/1/2
f 367/5/3 363/5/3 364/329/3
f 363/5/3 367/5/3 368/330/3
f 367/5/4 365/5/4 368/331/4
f 365/5/4 367/5/4 366/332/4
f 365/5/5 363/5/5 368/333/5
f 363/5/5 365/5/5 268/5/5
f 270/2/6 367/3/6 364/11/6
f 367/3/6 270/2/6 366/1/6
f 306/3/1 328/2/1 304/1/1
f 328/3/1 306/2/1 327/1/1
f 288/3/2 306/2/2 304/1/2
f 306/3/2 288/2/2 290/1/2
f 369/5/3 328/290/3 327/5/3
f 328/290/3 369/5/3 370/334/3
f 369/5/4 288/272/4 370/335/4
f 288/272/4 369/5/4 290/5/4
f 288/5/5 328/293/5 370/336/5
f 328/293/5 288/5/5 304/5/5
f 306/2/6 369/3/6 327/11/6
f 369/3/6 306/2/6 290/1/6
f 373/3/1 372/2/1 371/1/1
f 372/3/1 373/2/1 374/1/1
f 363/3/2 373/2/2 371/1/2
f 373/3/2 363/2/2 364/1/2
f 375/5/3 372/5/3 374/337/3
f 372/5/3 375/5/3 376/338/3
f 375/5/4 363/5/4 376/339/4
f 363/5/4 375/5/4 364/340/4
f 363/5/5 372/5/5 376/341/5
f 372/5/5 363/5/5 371/342/5
f 373/2/6 375/3/6 374/11/6
f 375/3/6 373/2/6 364/1/6

usemtl color22

f 379/3/1 378/2/1 377/1/1
f 378/3/1 379/2/1 380/1/1
f 295/3/2 379/2/2 377/1/2
f 379/3/2 295/2/2 297/1/2
f 298/263/3 378/5/3 380/343/3
f 378/5/3 298/263/3 296/5/3
f 298/5/4 295/5/4 296/344/4
f 295/5/4 298/5/4 297/345/4
f 295/266/5 378/5/5 296/5/5
f 378/5/5 295/266/5 377/346/5
f 379/2/6 298/3/6 380/11/6
f 298/3/6 379/2/6 297/1/6
f 298/3/1 381/2/1 296/1/1
f 381/3/1 298/2/1 382/1/1
f 162/3/2 298/2/2 296/1/2
f 298/3/2 162/2/2 164/1/2
f 383/5/3 381/5/3 382/347/3
f 381/5/3 383/5/3 384/348/3
f 383/5/4 162/264/4 384/349/4
f 162/264/4 383/5/4 164/5/4
f 162/5/5 381/5/5 384/350/5
f 381/5/5 162/5/5 296/5/5
f 298/2/6 383/3/6 382/11/6
f 383/3/6 298/2/6 164/1/6

usemtl color19

f 152/3/1 294/2/1 150/1/1
f 294/3/1 152/2/1 293/1/1
f 156/3/2 152/2/2 150/1/2
f 152/3/2 156/2/2 155/1/2
f 385/5/3 294/258/3 293/5/3
f 294/258/3 385/5/3 386/351/3
f 385/5/4 156/130/4 386/352/4
f 156/130/4 385/5/4 155/5/4
f 156/132/5 294/261/5 386/353/5
f 294/261/5 156/132/5 150/5/5
f 152/2/6 385/3/6 293/11/6
f 385/3/6 152/2/6 155/1/6
f 322/3/1 324/2/1 321/1/1
f 324/3/1 322/2/1 323/1/1
f 176/3/2 322/2/2 321/1/2
f 322/3/2 176/2/2 175/1/2
f 387/5/3 324/285/3 323/5/3
f 324/285/3 387/5/3 388/354/3
f 387/5/4 176/147/4 388/355/4
f 176/147/4 387/5/4 175/5/4
f 176/149/5 324/288/5 388/356/5
f 324/288/5 176/149/5 321/5/5
f 322/2/6 387/3/6 323/11/6
f 387/3/6 322/2/6 175/1/6
f 290/3/1 389/2/1 288/1/1
f 389/3/1 290/2/1 390/1/1
f 294/3/2 290/2/2 288/1/2
f 290/3/2 294/2/2 293/1/2
f 336/298/3 389/5/3 390/357/3
f 389/5/3 336/298/3 334/5/3
f 336/5/4 294/259/4 334/358/4
f 294/259/4 336/5/4 293/5/4
f 294/261/5 389/5/5 334/5/5
f 389/5/5 294/261/5 288/5/5
f 290/2/6 336/3/6 390/11/6
f 336/3/6 290/2/6 293/1/6
f 330/3/1 332/2/1 329/1/1
f 332/3/1 330/2/1 331/1/1
f 391/3/2 330/2/2 329/1/2
f 330/3/2 391/2/2 392/1/2
f 393/5/3 332/294/3 331/5/3
f 332/294/3 393/5/3 394/359/3
f 393/5/4 391/5/4 394/360/4
f 391/5/4 393/5/4 392/361/4
f 391/5/5 332/297/5 394/362/5
f 332/297/5 391/5/5 329/5/5
f 330/2/6 393/3/6 331/11/6
f 393/3/6 330/2/6 392/1/6
f 327/3/1 395/2/1 328/1/1
f 395/3/1 327/2/1 396/1/1
f 370/3/2 327/2/2 328/1/2
f 327/3/2 370/2/2 369/1/2
f 390/357/3 395/5/3 396/363/3
f 395/5/3 390/357/3 389/5/3
f 390/5/4 370/335/4 389/364/4
f 370/335/4 390/5/4 369/5/4
f 370/336/5 395/5/5 389/5/5
f 395/5/5 370/336/5 328/293/5
f 327/2/6 390/3/6 396/11/6
f 390/3/6 327/2/6 369/1/6

usemtl color7

f 398/3/1 371/2/1 397/1/1
f 371/3/1 398/2/1 373/1/1
f 268/3/2 398/2/2 397/1/2
f 398/3/2 268/2/2 270/1/2
f 364/329/3 371/5/3 373/365/3
f 371/5/3 364/329/3 363/5/3
f 364/340/4 268/5/4 363/5/4
f 268/5/4 364/340/4 270/366/4
f 268/5/5 371/342/5 363/5/5
f 371/342/5 268/5/5 397/367/5
f 398/2/6 364/3/6 373/11/6
f 364/3/6 398/2/6 270/1/6
f 401/3/1 400/2/1 399/1/1
f 400/3/1 401/2/1 402/1/1
f 403/3/2 401/2/2 399/1/2
f 401/3/2 403/2/2 404/1/2
f 273/5/3 400/5/3 402/368/3
f 400/5/3 273/5/3 271/369/3
f 273/5/4 403/5/4 271/370/4
f 403/5/4 273/5/4 404/371/4
f 403/5/5 400/5/5 271/246/5
f 400/5/5 403/5/5 399/372/5
f 401/2/6 273/3/6 402/11/6
f 273/3/6 401/2/6 404/1/6
f 407/3/1 406/2/1 405/1/1
f 406/3/1 407/2/1 408/1/1
f 372/3/2 407/2/2 405/1/2
f 407/3/2 372/2/2 374/1/2
f 409/5/3 406/5/3 408/373/3
f 406/5/3 409/5/3 410/374/3
f 409/5/4 372/5/4 410/375/4
f 372/5/4 409/5/4 374/376/4
f 372/5/5 406/5/5 410/377/5
f 406/5/5 372/5/5 405/378/5
f 407/2/6 409/3/6 408/11/6
f 409/3/6 407/2/6 374/1/6
f 413/3/1 412/2/1 411/1/1
f 412/3/1 413/2/1 414/1/1
f 415/3/2 413/2/2 411/1/2
f 413/3/2 415/2/2 416/1/2
f 417/5/3 412/5/3 414/379/3
f 412/5/3 417/5/3 418/380/3
f 417/5/4 415/5/4 418/381/4
f 415/5/4 417/5/4 416/382/4
f 415/5/5 412/5/5 418/383/5
f 412/5/5 415/5/5 411/384/5
f 413/2/6 417/3/6 414/11/6
f 417/3/6 413/2/6 416/1/6

usemtl color20

f 164/3/1 384/2/1 162/1/1
f 384/3/1 164/2/1 383/1/1
f 170/3/2 164/2/2 162/1/2
f 164/3/2 170/2/2 172/1/2
f 320/284/3 384/348/3 383/5/3
f 384/348/3 320/284/3 319/5/3
f 320/5/4 170/326/4 319/385/4
f 170/326/4 320/5/4 172/5/4
f 170/5/5 384/350/5 319/5/5
f 384/350/5 170/5/5 162/5/5
f 164/2/6 320/3/6 383/11/6
f 320/3/6 164/2/6 172/1/6
f 420/3/1 394/2/1 419/1/1
f 394/3/1 420/2/1 393/1/1
f 421/3/2 420/2/2 419/1/2
f 420/3/2 421/2/2 422/1/2
f 423/5/3 394/359/3 393/5/3
f 394/359/3 423/5/3 424/386/3
f 423/5/4 421/5/4 424/387/4
f 421/5/4 423/5/4 422/388/4
f 421/5/5 394/362/5 424/389/5
f 394/362/5 421/5/5 419/390/5
f 420/2/6 423/3/6 393/11/6
f 423/3/6 420/2/6 422/1/6
f 427/3/1 426/2/1 425/1/1
f 426/3/1 427/2/1 428/1/1
f 429/3/2 427/2/2 425/1/2
f 427/3/2 429/2/2 430/1/2
f 407/5/3 426/5/3 428/391/3
f 426/5/3 407/5/3 405/392/3
f 407/5/4 429/5/4 405/393/4
f 429/5/4 407/5/4 430/394/4
f 429/5/5 426/5/5 405/378/5
f 426/5/5 429/5/5 425/395/5
f 427/2/6 407/3/6 428/11/6
f 407/3/6 427/2/6 430/1/6

usemtl color2

f 342/3/1 344/2/1 341/1/1
f 344/3/1 342/2/1 343/1/1
f 431/3/2 342/2/2 341/1/2
f 342/3/2 431/2/2 432/1/2
f 433/5/3 344/305/3 343/5/3
f 344/305/3 433/5/3 434/396/3
f 433/5/4 431/5/4 434/397/4
f 431/5/4 433/5/4 432/398/4
f 431/5/5 344/308/5 434/399/5
f 344/308/5 431/5/5 341/5/5
f 342/2/6 433/3/6 343/11/6
f 433/3/6 342/2/6 432/1/6
f 436/3/1 345/2/1 435/1/1
f 345/3/1 436/2/1 347/1/1
f 437/3/2 436/2/2 435/1/2
f 436/3/2 437/2/2 438/1/2
f 350/5/3 345/5/3 347/400/3
f 345/5/3 350/5/3 349/401/3
f 350/312/4 437/5/4 349/5/4
f 437/5/4 350/312/4 438/402/4
f 437/5/5 345/314/5 349/5/5
f 345/314/5 437/5/5 435/403/5
f 436/2/6 350/3/6 347/11/6
f 350/3/6 436/2/6 438/1/6
f 433/3/1 439/2/1 434/1/1
f 439/3/1 433/2/1 440/1/1
f 441/3/2 433/2/2 434/1/2
f 433/3/2 441/2/2 442/1/2
f 443/5/3 439/5/3 440/404/3
f 439/5/3 443/5/3 444/405/3
f 443/5/4 441/5/4 444/406/4
f 441/5/4 443/5/4 442/407/4
f 441/5/5 439/5/5 444/408/5
f 439/5/5 441/5/5 434/399/5
f 433/2/6 443/3/6 440/11/6
f 443/3/6 433/2/6 442/1/6
f 447/3/1 446/2/1 445/1/1
f 446/3/1 447/2/1 448/1/1
f 449/3/2 447/2/2 445/1/2
f 447/3/2 449/2/2 450/1/2
f 413/5/3 446/5/3 448/409/3
f 446/5/3 413/5/3 411/410/3
f 413/5/4 449/5/4 411/411/4
f 449/5/4 413/5/4 450/412/4
f 449/5/5 446/5/5 411/384/5
f 446/5/5 449/5/5 445/413/5
f 447/2/6 413/3/6 448/11/6
f 413/3/6 447/2/6 450/1/6
f 356/3/1 451/2/1 354/1/1
f 451/3/1 356/2/1 452/1/1
f 358/3/2 356/2/2 354/1/2
f 356/3/2 358/2/2 357/1/2
f 453/5/3 451/5/3 452/414/3
f 451/5/3 453/5/3 454/415/3
f 453/5/4 358/317/4 454/416/4
f 358/317/4 453/5/4 357/5/4
f 358/319/5 451/5/5 454/417/5
f 451/5/5 358/319/5 354/5/5
f 356/2/6 453/3/6 452/11/6
f 453/3/6 356/2/6 357/1/6
f 457/3/1 456/2/1 455/1/1
f 456/3/1 457/2/1 458/1/1
f 412/3/2 457/2/2 455/1/2
f 457/3/2 412/2/2 414/1/2
f 459/5/3 456/5/3 458/418/3
f 456/5/3 459/5/3 460/419/3
f 459/5/4 412/5/4 460/420/4
f 412/5/4 459/5/4 414/421/4
f 412/5/5 456/5/5 460/422/5
f 456/5/5 412/5/5 455/423/5
f 457/2/6 459/3/6 458/11/6
f 459/3/6 457/2/6 414/1/6

usemtl color3

f 432/3/1 434/2/1 431/1/1
f 434/3/1 432/2/1 433/1/1
f 461/3/2 432/2/2 431/1/2
f 432/3/2 461/2/2 462/1/2
f 442/5/3 434/396/3 433/5/3
f 434/396/3 442/5/3 441/424/3
f 442/407/4 461/5/4 441/5/4
f 461/5/4 442/407/4 462/425/4
f 461/5/5 434/399/5 441/5/5
f 434/399/5 461/5/5 431/5/5
f 432/2/6 442/3/6 433/11/6
f 442/3/6 432/2/6 462/1/6
f 464/3/1 449/2/1 463/1/1
f 449/3/1 464/2/1 450/1/1
f 439/3/2 464/2/2 463/1/2
f 464/3/2 439/2/2 440/1/2
f 465/5/3 449/5/3 450/426/3
f 449/5/3 465/5/3 466/427/3
f 465/5/4 439/5/4 466/428/4
f 439/5/4 465/5/4 440/429/4
f 439/5/5 449/5/5 466/430/5
f 449/5/5 439/5/5 463/431/5
f 464/2/6 465/3/6 450/11/6
f 465/3/6 464/2/6 440/1/6
f 414/3/1 460/2/1 412/1/1
f 460/3/1 414/2/1 459/1/1
f 418/3/2 414/2/2 412/1/2
f 414/3/2 418/2/2 417/1/2
f 467/5/3 460/419/3 459/5/3
f 460/419/3 467/5/3 468/432/3
f 467/5/4 418/381/4 468/433/4
f 418/381/4 467/5/4 417/5/4
f 418/383/5 460/422/5 468/434/5
f 460/422/5 418/383/5 412/5/5
f 414/2/6 467/3/6 459/11/6
f 467/3/6 414/2/6 417/1/6

usemtl color5

f 90/3/1 225/2/1 89/1/1
f 225/3/1 90/2/1 227/1/1
f 469/3/2 90/2/2 89/1/2
f 90/3/2 469/2/2 470/1/2
f 230/5/3 225/5/3 227/435/3
f 225/5/3 230/5/3 229/436/3
f 230/203/4 469/5/4 229/5/4
f 469/5/4 230/203/4 470/437/4
f 469/5/5 225/205/5 229/5/5
f 225/205/5 469/5/5 89/5/5
f 90/2/6 230/3/6 227/11/6
f 230/3/6 90/2/6 470/1/6
f 472/3/1 233/2/1 471/1/1
f 233/3/1 472/2/1 235/1/1
f 55/3/2 472/2/2 471/1/2
f 472/3/2 55/2/2 57/1/2
f 238/5/3 233/5/3 235/438/3
f 233/5/3 238/5/3 237/439/3
f 238/209/4 55/5/4 237/5/4
f 55/5/4 238/209/4 57/440/4
f 55/53/5 233/211/5 237/5/5
f 233/211/5 55/53/5 471/441/5
f 472/2/6 238/3/6 235/11/6
f 238/3/6 472/2/6 57/1/6
f 98/3/1 100/2/1 97/1/1
f 100/3/1 98/2/1 99/1/1
f 473/3/2 98/2/2 97/1/2
f 98/3/2 473/2/2 474/1/2
f 475/5/3 100/78/3 99/5/3
f 100/78/3 475/5/3 476/442/3
f 475/5/4 473/5/4 476/443/4
f 473/5/4 475/5/4 474/444/4
f 473/5/5 100/81/5 476/445/5
f 100/81/5 473/5/5 97/5/5
f 98/2/6 475/3/6 99/11/6
f 475/3/6 98/2/6 474/1/6

usemtl color9

f 470/3/1 192/2/1 469/1/1
f 192/3/1 470/2/1 191/1/1
f 471/3/2 470/2/2 469/1/2
f 470/3/2 471/2/2 472/1/2
f 196/169/3 192/164/3 191/5/3
f 192/164/3 196/169/3 194/5/3
f 196/5/4 471/5/4 194/446/4
f 471/5/4 196/5/4 472/447/4
f 471/441/5 192/167/5 194/5/5
f 192/167/5 471/441/5 469/5/5
f 470/2/6 196/3/6 191/11/6
f 196/3/6 470/2/6 472/1/6

usemtl color17

f 343/3/1 463/2/1 344/1/1
f 463/3/1 343/2/1 464/1/1
f 434/3/2 343/2/2 344/1/2
f 343/3/2 434/2/2 433/1/2
f 440/404/3 463/5/3 464/448/3
f 463/5/3 440/404/3 439/5/3
f 440/429/4 434/397/4 439/5/4
f 434/397/4 440/429/4 433/5/4
f 434/399/5 463/431/5 439/5/5
f 463/431/5 434/399/5 344/308/5
f 343/2/6 440/3/6 464/11/6
f 440/3/6 343/2/6 433/1/6

usemtl color12

f 440/3/1 466/2/1 439/1/1
f 466/3/1 440/2/1 465/1/1
f 444/3/2 440/2/2 439/1/2
f 440/3/2 444/2/2 443/1/2
f 477/5/3 466/427/3 465/5/3
f 466/427/3 477/5/3 478/449/3
f 477/5/4 444/406/4 478/450/4
f 444/406/4 477/5/4 443/5/4
f 444/408/5 466/430/5 478/451/5
f 466/430/5 444/408/5 439/5/5
f 440/2/6 477/3/6 465/11/6
f 477/3/6 440/2/6 443/1/6
f 450/3/1 411/2/1 449/1/1
f 411/3/1 450/2/1 413/1/1
f 466/3/2 450/2/2 449/1/2
f 450/3/2 466/2/2 465/1/2
f 416/5/3 411/410/3 413/5/3
f 411/410/3 416/5/3 415/452/3
f 416/382/4 466/428/4 415/5/4
f 466/428/4 416/382/4 465/5/4
f 466/430/5 411/384/5 415/5/5
f 411/384/5 466/430/5 449/5/5
f 450/2/6 416/3/6 413/11/6
f 416/3/6 450/2/6 465/1/6

usemtl color13

f 228/3/1 187/2/1 226/1/1
f 187/3/1 228/2/1 188/1/1
f 232/3/2 228/2/2 226/1/2
f 228/3/2 232/2/2 231/1/2
f 190/5/3 187/5/3 188/453/3
f 187/5/3 190/5/3 189/454/3
f 190/166/4 232/202/4 189/5/4
f 232/202/4 190/166/4 231/5/4
f 232/204/5 187/168/5 189/5/5
f 187/168/5 232/204/5 226/5/5
f 228/2/6 190/3/6 188/11/6
f 190/3/6 228/2/6 231/1/6
f 236/3/1 193/2/1 234/1/1
f 193/3/1 236/2/1 195/1/1
f 240/3/2 236/2/2 234/1/2
f 236/3/2 240/2/2 239/1/2
f 198/5/3 193/5/3 195/455/3
f 193/5/3 198/5/3 197/456/3
f 198/171/4 240/208/4 197/5/4
f 240/208/4 198/171/4 239/5/4
f 240/210/5 193/172/5 197/5/5
f 193/172/5 240/210/5 234/5/5
f 236/2/6 198/3/6 195/11/6
f 198/3/6 236/2/6 239/1/6

usemtl color6

f 448/3/1 455/2/1 446/1/1
f 455/3/1 448/2/1 457/1/1
f 411/3/2 448/2/2 446/1/2
f 448/3/2 411/2/2 413/1/2
f 414/379/3 455/5/3 457/457/3
f 455/5/3 414/379/3 412/5/3
f 414/421/4 411/411/4 412/5/4
f 411/411/4 414/421/4 413/5/4
f 411/384/5 455/423/5 412/5/5
f 455/423/5 411/384/5 446/5/5
f 448/2/6 414/3/6 457/11/6
f 414/3/6 448/2/6 413/1/6

