# Created by Kenney (www.kenney.nl)

mtllib SMG 1G9 Waratel.mtl

v 10 9 -0.4
v 10 8 -0.4
v 10 9 0.4
v 10 8 0.4
v 8 9 -0.4
v 8 9 0.4
v 8 8 0.4
v 8 8 -0.4
v 9 9 -0.4
v 9 9 0.4
v 9 8 0.4
v 9 8 -0.4
v 10 8 -1.2
v 10 7 -1.2
v 10 8 1.2
v 10 7 1.2
v 9 8 -1.2
v 9 8 1.2
v 9 7 1.2
v 9 7 -1.2
v 8 8 -1.2
v 8 7 -1.2
v 8 8 1.2
v 8 7 1.2
v 7 8 -1.2
v 7 8 1.2
v 7 7 1.2
v 7 7 -1.2
v 5 7 -1.2
v 5 6 -1.2
v 5 7 1.2
v 5 6 1.2
v 1 7 -1.2
v 1 7 1.2
v 1 6 1.2
v 1 6 -1.2
v 0 7 -1.2
v 0 6 -1.2
v 0 7 1.2
v 0 6 1.2
v -1 7 -1.2
v -1 7 1.2
v -1 6 1.2
v -1 6 -1.2
v -2 7 -1.2
v -2 6 -1.2
v -2 7 1.2
v -2 6 1.2
v -3 7 -1.2
v -3 7 1.2
v -3 6 1.2
v -3 6 -1.2
v -5 7 -0.8
v -5 6 -0.8
v -5 7 0.8
v -5 6 0.8
v -6 7 -0.8
v -6 7 0.8
v -6 6 0.8
v -6 6 -0.8
v 3 6 -1.2
v 3 5 -1.2
v 3 6 1.2
v 3 5 1.2
v 2 6 -1.2
v 2 6 1.2
v 2 5 1.2
v 2 5 -1.2
v 1 5 -1.2
v 1 5 1.2
v 0 5 1.2
v 0 5 -1.2
v -6 5 -0.8
v -6 5 0.8
v -9 6 -0.8
v -9 6 0.8
v -9 5 0.8
v -9 5 -0.8
v -10 6 -0.8
v -10 5 -0.8
v -10 6 0.8
v -10 5 0.8
v -11 6 -0.8
v -11 6 0.8
v -11 5 0.8
v -11 5 -0.8
v 10 4 -0.8
v 10 3 -0.8
v 10 4 0.8
v 10 3 0.8
v 9 4 -0.8
v 9 4 0.8
v 9 3 0.8
v 9 3 -0.8
v 0 4 -0.8
v 0 3 -0.8
v 0 4 0.8
v 0 3 0.8
v -2 4 -0.8
v -2 4 0.8
v -2 3 0.8
v -2 3 -0.8
v 7 2 -0.4
v 7 1 -0.4
v 7 2 0.4
v 7 1 0.4
v 6 2 -0.4
v 6 2 0.4
v 6 1 0.4
v 6 1 -0.4
v 5 2 -0.8
v 5 1 -0.8
v 5 2 0.8
v 5 1 0.8
v 4 2 -0.8
v 4 2 0.8
v 4 1 0.8
v 4 1 -0.8
v 6 0 -0.8
v 6 -1 -0.8
v 6 0 0.8
v 6 -1 0.8
v 5 0 -0.8
v 5 0 0.8
v 5 -1 0.8
v 5 -1 -0.8
v 6 -5 -0.8
v 6 -7 -0.8
v 6 -5 0.8
v 6 -7 0.8
v 5 -5 -0.8
v 5 -5 0.8
v 5 -7 0.8
v 5 -7 -0.8
v -3 9 -0.4
v -3 8 -0.4
v -3 9 0.4
v -3 8 0.4
v -4 9 -0.4
v -4 9 0.4
v -4 8 0.4
v -4 8 -0.4
v 1 7 -1.6
v 1 6 -1.6
v 1 7 1.6
v 1 6 1.6
v 0 7 -1.6
v 0 7 1.6
v 0 6 1.6
v 0 6 -1.6
v -1 7 -1.6
v -1 6 -1.6
v -1 7 1.6
v -1 6 1.6
v -2 7 -1.6
v -2 7 1.6
v -2 6 1.6
v -2 6 -1.6
v 2 6 -1.6
v 2 5 -1.6
v 2 6 1.6
v 2 5 1.6
v 1 5 1.6
v 1 5 -1.6
v -3 5 -1.6
v -3 4 -1.6
v -3 5 1.6
v -3 4 1.6
v -4 5 -1.6
v -4 5 1.6
v -4 4 1.6
v -4 4 -1.6
v -4 2 -0.4
v -4 1 -0.4
v -4 2 0.4
v -4 1 0.4
v -5 2 -0.4
v -5 2 0.4
v -5 1 0.4
v -5 1 -0.4
v -5 9 -0.4
v -5 9 0.4
v -5 8 0.4
v -5 8 -0.4
v -9 7 -0.8
v -9 7 0.8
v -10 7 -0.8
v -10 7 0.8
v -5 5 -1.6
v -5 5 1.6
v -5 4 1.6
v -5 4 -1.6
v 6 3 -0.4
v 6 3 0.4
v 5 3 -0.4
v 5 3 0.4
v 5 2 0.4
v 5 2 -0.4
v 11 8 -0.8
v 11 7 -0.8
v 11 8 0.8
v 11 7 0.8
v 10 8 -0.8
v 10 8 0.8
v 10 7 0.8
v 10 7 -0.8
v 2 8 -1.2
v 2 7 -1.2
v 2 8 1.2
v 2 7 1.2
v -3 8 -1.2
v -3 8 1.2
v 6 6 -1.2
v 6 5 -1.2
v 6 6 1.2
v 6 5 1.2
v 4 6 -1.2
v 4 6 1.2
v 4 5 1.2
v 4 5 -1.2
v 10 5 -1.2
v 10 4 -1.2
v 10 5 1.2
v 10 4 1.2
v 9 5 -1.2
v 9 5 1.2
v 9 4 1.2
v 9 4 -1.2
v 2 2 -0.8
v 2 1 -0.8
v 2 2 0.8
v 2 1 0.8
v -1 2 -0.8
v -1 2 0.8
v -1 1 0.8
v -1 1 -0.8
v 7 0 -0.4
v 7 0 0.4
v 6 0 0.4
v 6 0 -0.4
v 4 -1 0.8
v 4 -1 -0.8
v 7 8 -1.6
v 7 6 -1.6
v 7 8 1.6
v 7 6 1.6
v 6 8 -1.6
v 6 8 1.6
v 6 6 1.6
v 6 6 -1.6
v 6 7 -1.6
v 6 7 1.6
v 4 8 -1.6
v 4 8 1.6
v 4 7 1.6
v 4 7 -1.6
v 9 7 -1.6
v 9 6 -1.6
v 9 7 1.6
v 9 6 1.6
v 7 7 -1.6
v 7 7 1.6
v 10 6 -1.6
v 10 5 -1.6
v 10 6 1.6
v 10 5 1.6
v 9 5 1.6
v 9 5 -1.6
v 8 6 -1.6
v 8 5 -1.6
v 8 6 1.6
v 8 5 1.6
v 7 5 1.6
v 7 5 -1.6
v 9 4 -1.6
v 9 4 1.6
v 8 4 1.6
v 8 4 -1.6
v -2 4 -0.4
v -2 3 -0.4
v -2 4 0.4
v -2 3 0.4
v -3 4 -0.4
v -3 4 0.4
v -3 3 0.4
v -3 3 -0.4
v 0 1 -0.4
v 0 0 -0.4
v 0 1 0.4
v 0 0 0.4
v -1 1 -0.4
v -1 1 0.4
v -1 0 0.4
v -1 0 -0.4
v 2 8 -1.6
v 2 8 1.6
v 2 7 1.6
v 2 7 -1.6
v 5 7 -1.6
v 5 7 1.6
v 5 6 1.6
v 5 6 -1.6
v 7 4 1.6
v 7 4 -1.6
v -3 8 -1.6
v -3 7 -1.6
v -3 8 1.6
v -3 7 1.6
v -4 8 -1.6
v -4 8 1.6
v -4 7 1.6
v -4 7 -1.6
v 11 6 -0.8
v 11 6 0.8
v 10 6 0.8
v 10 6 -0.8
v 0 5 -1.6
v 0 5 1.6
v -1 5 1.6
v -1 5 -1.6
v -4 6 -1.6
v -4 6 1.6
v -5 6 -1.6
v -5 6 1.6
v 2 4 -1.6
v 2 4 1.6
v 1 4 1.6
v 1 4 -1.6
v 6 4 -0.4
v 6 4 0.4
v 5 4 -0.4
v 5 4 0.4
v -2 1 -0.4
v -2 1 0.4
v -2 0 0.4
v -2 0 -0.4
v -5 8 -1.6
v -5 8 1.6
v -5 7 1.6
v -5 7 -1.6
v 11 5 -0.8
v 11 5 0.8
v 10 5 0.8
v 10 5 -0.8
v 9 6 -1.2
v 9 6 1.2
v 8 6 -1.2
v 8 6 1.2
v 8 5 1.2
v 8 5 -1.2
v -7 3 -0.4
v -7 2 -0.4
v -7 3 0.4
v -7 2 0.4
v -8 3 -0.4
v -8 3 0.4
v -8 2 0.4
v -8 2 -0.4
v -6 2 -0.4
v -6 2 0.4
v -6 1 0.4
v -6 1 -0.4
v 5 -2 -1.2
v 5 -3 -1.2
v 5 -2 1.2
v 5 -3 1.2
v 4 -2 -1.2
v 4 -2 1.2
v 4 -3 1.2
v 4 -3 -1.2
v 5 -4 -1.2
v 5 -5 -1.2
v 5 -4 1.2
v 5 -5 1.2
v 4 -4 -1.2
v 4 -4 1.2
v 4 -5 1.2
v 4 -5 -1.2
v 5 -6 -1.2
v 5 -7 -1.2
v 5 -6 1.2
v 5 -7 1.2
v 4 -6 -1.2
v 4 -6 1.2
v 4 -7 1.2
v 4 -7 -1.2
v 10 6 -1.2
v 10 6 1.2
v -7 7 -0.8
v -7 7 0.8
v -7 6 0.8
v -7 6 -0.8
v -11 7 -0.8
v -11 7 0.8
v 4 2 -0.4
v 4 1 -0.4
v 4 2 0.4
v 4 1 0.4
v 3 2 -0.4
v 3 2 0.4
v 3 1 0.4
v 3 1 -0.4
v -3 2 -0.4
v -3 1 -0.4
v -3 2 0.4
v -3 1 0.4
v 7 -1 -0.4
v 7 -1 0.4
v 6 -1 0.4
v 6 -1 -0.4
v -3 6 -1.6
v -3 6 1.6
v 0 4 -1.6
v 0 4 1.6
v -1 4 1.6
v -1 4 -1.6
v 1 3 -0.4
v 1 2 -0.4
v 1 3 0.4
v 1 2 0.4
v 0 3 -0.4
v 0 3 0.4
v 0 2 0.4
v 0 2 -0.4
v -6 3 -0.4
v -6 3 0.4
v 5 -2 -0.8
v 5 -2 0.8
v 4 -2 0.8
v 4 -2 -0.8
v 5 -3 -0.8
v 5 -4 -0.8
v 5 -3 0.8
v 5 -4 0.8
v 4 -3 -0.8
v 4 -3 0.8
v 4 -4 0.8
v 4 -4 -0.8
v 5 -6 -0.8
v 5 -6 0.8
v 4 -5 -0.8
v 4 -5 0.8
v 4 -6 0.8
v 4 -6 -0.8
v -3 0 0.4
v -3 0 -0.4
v -12 7 -0.8
v -12 7 0.8
v -12 6 0.8
v -12 6 -0.8
v -11 6 -0.4
v -11 5 -0.4
v -11 6 0.4
v -11 5 0.4
v -12 6 -0.4
v -12 6 0.4
v -12 5 0.4
v -12 5 -0.4
v 7 6 -0.8
v 7 5 -0.8
v 7 6 0.8
v 7 5 0.8
v 6 6 -0.8
v 6 6 0.8
v 6 5 0.8
v 6 5 -0.8
v 4 6 -0.8
v 4 5 -0.8
v 4 6 0.8
v 4 5 0.8
v 3 6 -0.8
v 3 6 0.8
v 3 5 0.8
v 3 5 -0.8
v -2 5 -1.2
v -2 5 1.2
v -3 5 1.2
v -3 5 -1.2
v 6 -3 -0.8
v 6 -3 0.8
v 6 -8 -0.8
v 6 -8 0.8
v 4 -7 -0.8
v 4 -7 0.8
v 4 -8 0.8
v 4 -8 -0.8
v -1 4 -1.2
v -1 4 1.2
v -2 4 1.2
v -2 4 -1.2
v -5 5 -0.8
v -5 5 0.8
v 7 5 -1.2
v 7 4 -1.2
v 7 5 1.2
v 7 4 1.2
v 2 4 1.2
v 2 4 -1.2
v 1 4 -1.2
v 1 4 1.2
v 0 4 1.2
v 0 4 -1.2
v 5 4 -0.8
v 5 4 0.8
v 4 4 -0.8
v 4 4 0.8
v 2 4 -0.8
v 2 4 0.8
v 1 4 -0.8
v 1 4 0.8
v 1 2 0.8
v 1 2 -0.8
v 1 3 -0.8
v 1 3 0.8
v 4 3 -0.4
v 4 3 0.4
v 2 3 -0.4
v 2 3 0.4
v 2 2 0.4
v 2 2 -0.4
v 6 2 -0.8
v 6 2 0.8
v -4 6 -1.2
v -4 6 1.2
v -4 5 1.2
v -4 5 -1.2
v -3 4 1.2
v -3 4 -1.2
v 4 4 -0.4
v 4 4 0.4
v 3 4 -0.4
v 3 4 0.4
v 3 3 0.4
v 3 3 -0.4
v -5 4 -0.4
v -5 4 0.4
v -5 3 0.4
v -5 3 -0.4
v 1 0 -0.4
v 1 -1 -0.4
v 1 0 0.4
v 1 -1 0.4
v 0 -1 0.4
v 0 -1 -0.4
v -8 4 -0.4
v -8 4 0.4
v -1 -1 0.4
v -1 -1 -0.4
v -9 4 -0.4
v -9 4 0.4
v -9 2 0.4
v -9 2 -0.4
v -9 3 -0.4
v -9 3 0.4
v -10 4 -0.4
v -10 4 0.4
v -10 3 0.4
v -10 3 -0.4
v -7 1 -0.4
v -7 1 0.4
v -8 1 0.4
v -8 1 -0.4
v -6 0 0.4
v -6 0 -0.4
v -3 -1 0.4
v -3 -1 -0.4

vn 1 0 0
vn 0 1 0
vn 0 -1 0
vn -1 0 0
vn 0 0 -1
vn 0 0 1

vt -19.68504 19.68504
vt 19.68504 19.68504
vt -19.68504 -19.68504
vt 0 NaN
vt 0 0
vt 0 NaN
vt 0 NaN
vt 0 NaN
vt 0 NaN
vt 0 NaN
vt 19.68504 -19.68504
vt 0 NaN
vt 0 NaN
vt 0 NaN
vt 0 NaN
vt 0 NaN
vt 0 NaN
vt 0 NaN
vt 0 NaN
vt 0 NaN
vt 0 NaN
vt 0 NaN
vt 0 NaN
vt 0 NaN
vt 0 NaN
vt 0 NaN
vt 0 NaN
vt 0 NaN
vt 0 NaN
vt 0 NaN
vt 0 NaN
vt 0 NaN
vt 0 NaN
vt 0 NaN
vt 0 NaN
vt 0 NaN
vt 0 NaN
vt 0 NaN
vt 0 NaN
vt 0 NaN
vt 0 NaN
vt 0 NaN
vt 0 NaN
vt 0 NaN
vt 0 NaN
vt 0 NaN
vt 0 NaN
vt 0 NaN
vt 0 NaN
vt 0 NaN
vt 0 NaN
vt 0 NaN
vt 0 NaN
vt 0 NaN
vt 0 NaN
vt 0 NaN
vt 0 NaN
vt 0 NaN
vt 0 NaN
vt 0 NaN
vt 0 NaN
vt 0 NaN
vt 0 NaN
vt 0 NaN
vt 0 NaN
vt 0 NaN
vt 0 NaN
vt 0 NaN
vt 0 NaN
vt 0 NaN
vt 0 NaN
vt 0 NaN
vt 0 NaN
vt 0 NaN
vt 0 NaN
vt 0 NaN
vt 0 NaN
vt 0 NaN
vt 0 NaN
vt 0 NaN
vt 0 NaN
vt 0 NaN
vt 0 NaN
vt 0 NaN
vt 0 NaN
vt 0 NaN
vt 0 NaN
vt 0 NaN
vt 0 NaN
vt 0 NaN
vt 0 NaN
vt 0 NaN
vt 0 NaN
vt 0 NaN
vt 0 NaN
vt 0 NaN
vt 0 NaN
vt 0 NaN
vt 0 NaN
vt 0 NaN
vt 0 NaN
vt 0 NaN
vt 0 NaN
vt 0 NaN
vt 0 NaN
vt 0 NaN
vt 0 NaN
vt 0 NaN
vt 0 NaN
vt 0 NaN
vt 0 NaN
vt 0 NaN
vt 0 NaN
vt 0 NaN
vt 0 NaN
vt 0 NaN
vt 0 NaN
vt 0 NaN
vt 0 NaN
vt 0 NaN
vt 0 NaN
vt 0 NaN
vt 0 NaN
vt 0 NaN
vt 0 NaN
vt 0 NaN
vt 0 NaN
vt 0 NaN
vt 0 NaN
vt 0 NaN
vt 0 NaN
vt 0 NaN
vt 0 NaN
vt 0 NaN
vt 0 NaN
vt 0 NaN
vt 0 NaN
vt 0 NaN
vt 0 NaN
vt 0 NaN
vt 0 NaN
vt 0 NaN
vt 0 NaN
vt 0 NaN
vt 0 NaN
vt 0 NaN
vt 0 NaN
vt 0 NaN
vt 0 NaN
vt 0 NaN
vt 0 NaN
vt 0 NaN
vt 0 NaN
vt 0 NaN
vt 0 NaN
vt 0 NaN
vt 0 NaN
vt 0 NaN
vt 0 NaN
vt 0 NaN
vt 0 NaN
vt 0 NaN
vt 0 NaN
vt 0 NaN
vt 0 NaN
vt 0 NaN
vt 0 NaN
vt 0 NaN
vt 0 NaN
vt 0 NaN
vt 0 NaN
vt 0 NaN
vt 0 NaN
vt 0 NaN
vt 0 NaN
vt 0 NaN
vt 0 NaN
vt 0 NaN
vt 0 NaN
vt 0 NaN
vt 0 NaN
vt 0 NaN
vt 0 NaN
vt 0 NaN
vt 0 NaN
vt 0 NaN
vt 0 NaN
vt 0 NaN
vt 0 NaN
vt 0 NaN
vt 0 NaN
vt 0 NaN
vt 0 NaN
vt 0 NaN
vt 0 NaN
vt 0 NaN
vt 0 NaN
vt 0 NaN
vt 0 NaN
vt 0 NaN
vt 0 NaN
vt 0 NaN
vt 0 NaN
vt 0 NaN
vt 0 NaN
vt 0 NaN
vt 0 NaN
vt 0 NaN
vt 0 NaN
vt 0 NaN
vt 0 NaN
vt 0 NaN
vt 0 NaN
vt 0 NaN
vt 0 NaN
vt 0 NaN
vt 0 NaN
vt 0 NaN
vt 0 NaN
vt 0 NaN
vt 0 NaN
vt 0 NaN
vt 0 NaN
vt 0 NaN
vt 0 NaN
vt 0 NaN
vt 0 NaN
vt 0 NaN
vt 0 NaN
vt 0 NaN
vt 0 NaN
vt 0 NaN
vt 0 NaN
vt 0 NaN
vt 0 NaN
vt 0 NaN
vt 0 NaN
vt 0 NaN
vt 0 NaN
vt 0 NaN
vt 0 NaN
vt 0 NaN
vt 0 NaN
vt 0 NaN
vt 0 NaN
vt 0 NaN
vt 0 NaN
vt 0 NaN
vt 0 NaN
vt 0 NaN
vt 0 NaN
vt 0 NaN
vt 0 NaN
vt 0 NaN
vt 0 NaN
vt 0 NaN
vt 0 NaN
vt 0 NaN
vt 0 NaN
vt 0 NaN
vt 0 NaN
vt 0 NaN
vt 0 NaN
vt 0 NaN
vt 0 NaN
vt 0 NaN
vt 0 NaN
vt 0 NaN
vt 0 NaN
vt 0 NaN
vt 0 NaN
vt 0 NaN
vt 0 NaN
vt 0 NaN
vt 0 NaN
vt 0 NaN
vt 0 NaN
vt 0 NaN
vt 0 NaN
vt 0 NaN
vt 0 NaN
vt 0 NaN
vt 0 NaN
vt 0 NaN
vt 0 NaN
vt 0 NaN
vt 0 NaN
vt 0 NaN
vt 0 NaN
vt 0 NaN
vt 0 NaN
vt 0 NaN
vt 0 NaN
vt 0 NaN
vt 0 NaN
vt 0 NaN
vt 0 NaN
vt 0 NaN
vt 0 NaN
vt 0 NaN
vt 0 NaN
vt 0 NaN
vt 0 NaN
vt 0 NaN
vt 0 NaN
vt 0 NaN
vt 0 NaN
vt 0 NaN
vt 0 NaN
vt 0 NaN
vt 0 NaN
vt 0 NaN
vt 0 NaN
vt 0 NaN
vt 0 NaN
vt 0 NaN
vt 0 NaN
vt 0 NaN
vt 0 NaN
vt 0 NaN
vt 0 NaN
vt 0 NaN
vt 0 NaN
vt 0 NaN
vt 0 NaN
vt 0 NaN
vt 0 NaN
vt 0 NaN
vt 0 NaN
vt 0 NaN
vt 0 NaN
vt 0 NaN
vt 0 NaN
vt 0 NaN
vt 0 NaN
vt 0 NaN
vt 0 NaN
vt 0 NaN
vt 0 NaN
vt 0 NaN
vt 0 NaN
vt 0 NaN
vt 0 NaN
vt 0 NaN
vt 0 NaN
vt 0 NaN
vt 0 NaN
vt 0 NaN
vt 0 NaN
vt 0 NaN
vt 0 NaN
vt 0 NaN
vt 0 NaN
vt 0 NaN
vt 0 NaN
vt 0 NaN
vt 0 NaN
vt 0 NaN
vt 0 NaN
vt 0 NaN
vt 0 NaN
vt 0 NaN
vt 0 NaN
vt 0 NaN
vt 0 NaN
vt 0 NaN
vt 0 NaN
vt 0 NaN
vt 0 NaN
vt 0 NaN
vt 0 NaN
vt 0 NaN
vt 0 NaN
vt 0 NaN
vt 0 NaN
vt 0 NaN
vt 0 NaN
vt 0 NaN
vt 0 NaN
vt 0 NaN
vt 0 NaN
vt 0 NaN
vt 0 NaN
vt 0 NaN
vt 0 NaN
vt 0 NaN
vt 0 NaN
vt 0 NaN
vt 0 NaN
vt 0 NaN
vt 0 NaN
vt 0 NaN
vt 0 NaN
vt 0 NaN
vt 0 NaN
vt 0 NaN
vt 0 NaN
vt 0 NaN
vt 0 NaN
vt 0 NaN
vt 0 NaN
vt 0 NaN
vt 0 NaN
vt 0 NaN
vt 0 NaN
vt 0 NaN
vt 0 NaN
vt 0 NaN
vt 0 NaN
vt 0 NaN
vt 0 NaN
vt 0 NaN
vt 0 NaN
vt 0 NaN
vt 0 NaN
vt 0 NaN
vt 0 NaN
vt 0 NaN
vt 0 NaN
vt 0 NaN
vt 0 NaN
vt 0 NaN
vt 0 NaN
vt 0 NaN
vt 0 NaN
vt 0 NaN
vt 0 NaN
vt 0 NaN
vt 0 NaN
vt 0 NaN
vt 0 NaN
vt 0 NaN
vt 0 NaN
vt 0 NaN
vt 0 NaN
vt 0 NaN
vt 0 NaN
vt 0 NaN
vt 0 NaN
vt 0 NaN
vt 0 NaN
vt 0 NaN
vt 0 NaN
vt 0 NaN
vt 0 NaN
vt 0 NaN
vt 0 NaN
vt 0 NaN
vt 0 NaN
vt 0 NaN
vt 0 NaN
vt 0 NaN
vt 0 NaN
vt 0 NaN
vt 0 NaN
vt 0 NaN
vt 0 NaN
vt 0 NaN
vt 0 NaN
vt 0 NaN
vt 0 NaN
vt 0 NaN
vt 0 NaN
vt 0 NaN
vt 0 NaN
vt 0 NaN
vt 0 NaN
vt 0 NaN
vt 0 NaN
vt 0 NaN
vt 0 NaN
vt 0 NaN
vt 0 NaN
vt 0 NaN
vt 0 NaN
vt 0 NaN
vt 0 NaN
vt 0 NaN
vt 0 NaN
vt 0 NaN
vt 0 NaN
vt 0 NaN
vt 0 NaN
vt 0 NaN
vt 0 NaN
vt 0 NaN
vt 0 NaN
vt 0 NaN
vt 0 NaN
vt 0 NaN
vt 0 NaN
vt 0 NaN
vt 0 NaN
vt 0 NaN
vt 0 NaN
vt 0 NaN
vt 0 NaN
vt 0 NaN
vt 0 NaN
vt 0 NaN
vt 0 NaN
vt 0 NaN
vt 0 NaN
vt 0 NaN
vt 0 NaN
vt 0 NaN
vt 0 NaN
vt 0 NaN
vt 0 NaN
vt 0 NaN
vt 0 NaN

usemtl color3

f 3/3/1 2/2/1 1/1/1
f 2/3/1 3/2/1 4/1/1
f 5/3/2 3/2/2 1/1/2
f 3/3/2 5/2/2 6/1/2
f 7/5/3 2/5/3 4/4/3
f 2/5/3 7/5/3 8/6/3
f 7/5/4 5/5/4 8/7/4
f 5/5/4 7/5/4 6/8/4
f 5/5/5 2/5/5 8/9/5
f 2/5/5 5/5/5 1/10/5
f 3/2/6 7/3/6 4/11/6
f 7/3/6 3/2/6 6/1/6
f 3/3/1 2/2/1 1/1/1
f 2/3/1 3/2/1 4/1/1
f 9/3/2 3/2/2 1/1/2
f 3/3/2 9/2/2 10/1/2
f 11/5/3 2/5/3 4/4/3
f 2/5/3 11/5/3 12/12/3
f 11/5/4 9/5/4 12/13/4
f 9/5/4 11/5/4 10/14/4
f 9/5/5 2/5/5 12/15/5
f 2/5/5 9/5/5 1/10/5
f 3/2/6 11/3/6 4/11/6
f 11/3/6 3/2/6 10/1/6
f 15/3/1 14/2/1 13/1/1
f 14/3/1 15/2/1 16/1/1
f 17/3/2 15/2/2 13/1/2
f 15/3/2 17/2/2 18/1/2
f 19/5/3 14/5/3 16/16/3
f 14/5/3 19/5/3 20/17/3
f 19/5/4 17/5/4 20/18/4
f 17/5/4 19/5/4 18/19/4
f 17/5/5 14/5/5 20/20/5
f 14/5/5 17/5/5 13/21/5
f 15/2/6 19/3/6 16/11/6
f 19/3/6 15/2/6 18/1/6
f 23/3/1 22/2/1 21/1/1
f 22/3/1 23/2/1 24/1/1
f 25/3/2 23/2/2 21/1/2
f 23/3/2 25/2/2 26/1/2
f 27/5/3 22/5/3 24/22/3
f 22/5/3 27/5/3 28/23/3
f 27/5/4 25/5/4 28/24/4
f 25/5/4 27/5/4 26/25/4
f 25/5/5 22/5/5 28/26/5
f 22/5/5 25/5/5 21/27/5
f 23/2/6 27/3/6 24/11/6
f 27/3/6 23/2/6 26/1/6
f 31/3/1 30/2/1 29/1/1
f 30/3/1 31/2/1 32/1/1
f 33/3/2 31/2/2 29/1/2
f 31/3/2 33/2/2 34/1/2
f 35/5/3 30/5/3 32/28/3
f 30/5/3 35/5/3 36/29/3
f 35/5/4 33/5/4 36/30/4
f 33/5/4 35/5/4 34/31/4
f 33/5/5 30/5/5 36/32/5
f 30/5/5 33/5/5 29/33/5
f 31/2/6 35/3/6 32/11/6
f 35/3/6 31/2/6 34/1/6
f 39/3/1 38/2/1 37/1/1
f 38/3/1 39/2/1 40/1/1
f 41/3/2 39/2/2 37/1/2
f 39/3/2 41/2/2 42/1/2
f 43/5/3 38/5/3 40/34/3
f 38/5/3 43/5/3 44/35/3
f 43/5/4 41/5/4 44/36/4
f 41/5/4 43/5/4 42/37/4
f 41/5/5 38/5/5 44/38/5
f 38/5/5 41/5/5 37/39/5
f 39/2/6 43/3/6 40/11/6
f 43/3/6 39/2/6 42/1/6
f 47/3/1 46/2/1 45/1/1
f 46/3/1 47/2/1 48/1/1
f 49/3/2 47/2/2 45/1/2
f 47/3/2 49/2/2 50/1/2
f 51/5/3 46/5/3 48/40/3
f 46/5/3 51/5/3 52/41/3
f 51/5/4 49/5/4 52/42/4
f 49/5/4 51/5/4 50/43/4
f 49/5/5 46/5/5 52/44/5
f 46/5/5 49/5/5 45/45/5
f 47/2/6 51/3/6 48/11/6
f 51/3/6 47/2/6 50/1/6
f 55/3/1 54/2/1 53/1/1
f 54/3/1 55/2/1 56/1/1
f 57/3/2 55/2/2 53/1/2
f 55/3/2 57/2/2 58/1/2
f 59/5/3 54/5/3 56/46/3
f 54/5/3 59/5/3 60/47/3
f 59/5/4 57/5/4 60/48/4
f 57/5/4 59/5/4 58/49/4
f 57/5/5 54/5/5 60/50/5
f 54/5/5 57/5/5 53/51/5
f 55/2/6 59/3/6 56/11/6
f 59/3/6 55/2/6 58/1/6
f 63/3/1 62/2/1 61/1/1
f 62/3/1 63/2/1 64/1/1
f 65/3/2 63/2/2 61/1/2
f 63/3/2 65/2/2 66/1/2
f 67/5/3 62/5/3 64/52/3
f 62/5/3 67/5/3 68/53/3
f 67/5/4 65/5/4 68/54/4
f 65/5/4 67/5/4 66/55/4
f 65/5/5 62/5/5 68/56/5
f 62/5/5 65/5/5 61/57/5
f 63/2/6 67/3/6 64/11/6
f 67/3/6 63/2/6 66/1/6
f 35/3/1 69/2/1 36/1/1
f 69/3/1 35/2/1 70/1/1
f 38/3/2 35/2/2 36/1/2
f 35/3/2 38/2/2 40/1/2
f 71/5/3 69/5/3 70/58/3
f 69/5/3 71/5/3 72/59/3
f 71/5/4 38/5/4 72/60/4
f 38/5/4 71/5/4 40/61/4
f 38/5/5 69/5/5 72/62/5
f 69/5/5 38/5/5 36/32/5
f 35/2/6 71/3/6 70/11/6
f 71/3/6 35/2/6 40/1/6
f 59/3/1 73/2/1 60/1/1
f 73/3/1 59/2/1 74/1/1
f 75/3/2 59/2/2 60/1/2
f 59/3/2 75/2/2 76/1/2
f 77/5/3 73/5/3 74/63/3
f 73/5/3 77/5/3 78/64/3
f 77/5/4 75/5/4 78/65/4
f 75/5/4 77/5/4 76/66/4
f 75/5/5 73/5/5 78/67/5
f 73/5/5 75/5/5 60/50/5
f 59/2/6 77/3/6 74/11/6
f 77/3/6 59/2/6 76/1/6
f 81/3/1 80/2/1 79/1/1
f 80/3/1 81/2/1 82/1/1
f 83/3/2 81/2/2 79/1/2
f 81/3/2 83/2/2 84/1/2
f 85/5/3 80/5/3 82/68/3
f 80/5/3 85/5/3 86/69/3
f 85/5/4 83/5/4 86/70/4
f 83/5/4 85/5/4 84/71/4
f 83/5/5 80/5/5 86/72/5
f 80/5/5 83/5/5 79/73/5
f 81/2/6 85/3/6 82/11/6
f 85/3/6 81/2/6 84/1/6
f 89/3/1 88/2/1 87/1/1
f 88/3/1 89/2/1 90/1/1
f 91/3/2 89/2/2 87/1/2
f 89/3/2 91/2/2 92/1/2
f 93/5/3 88/5/3 90/74/3
f 88/5/3 93/5/3 94/75/3
f 93/5/4 91/5/4 94/76/4
f 91/5/4 93/5/4 92/77/4
f 91/5/5 88/5/5 94/78/5
f 88/5/5 91/5/5 87/79/5
f 89/2/6 93/3/6 90/11/6
f 93/3/6 89/2/6 92/1/6
f 97/3/1 96/2/1 95/1/1
f 96/3/1 97/2/1 98/1/1
f 99/3/2 97/2/2 95/1/2
f 97/3/2 99/2/2 100/1/2
f 101/5/3 96/5/3 98/80/3
f 96/5/3 101/5/3 102/81/3
f 101/5/4 99/5/4 102/82/4
f 99/5/4 101/5/4 100/83/4
f 99/5/5 96/5/5 102/84/5
f 96/5/5 99/5/5 95/85/5
f 97/2/6 101/3/6 98/11/6
f 101/3/6 97/2/6 100/1/6
f 105/3/1 104/2/1 103/1/1
f 104/3/1 105/2/1 106/1/1
f 107/3/2 105/2/2 103/1/2
f 105/3/2 107/2/2 108/1/2
f 109/5/3 104/5/3 106/86/3
f 104/5/3 109/5/3 110/87/3
f 109/5/4 107/5/4 110/88/4
f 107/5/4 109/5/4 108/89/4
f 107/5/5 104/5/5 110/90/5
f 104/5/5 107/5/5 103/91/5
f 105/2/6 109/3/6 106/11/6
f 109/3/6 105/2/6 108/1/6
f 113/3/1 112/2/1 111/1/1
f 112/3/1 113/2/1 114/1/1
f 115/3/2 113/2/2 111/1/2
f 113/3/2 115/2/2 116/1/2
f 117/5/3 112/5/3 114/92/3
f 112/5/3 117/5/3 118/93/3
f 117/5/4 115/5/4 118/94/4
f 115/5/4 117/5/4 116/95/4
f 115/5/5 112/5/5 118/96/5
f 112/5/5 115/5/5 111/97/5
f 113/2/6 117/3/6 114/11/6
f 117/3/6 113/2/6 116/1/6
f 121/3/1 120/2/1 119/1/1
f 120/3/1 121/2/1 122/1/1
f 123/3/2 121/2/2 119/1/2
f 121/3/2 123/2/2 124/1/2
f 125/5/3 120/5/3 122/98/3
f 120/5/3 125/5/3 126/99/3
f 125/5/4 123/5/4 126/100/4
f 123/5/4 125/5/4 124/101/4
f 123/5/5 120/5/5 126/102/5
f 120/5/5 123/5/5 119/103/5
f 121/2/6 125/3/6 122/11/6
f 125/3/6 121/2/6 124/1/6
f 129/3/1 128/2/1 127/1/1
f 128/3/1 129/2/1 130/1/1
f 131/3/2 129/2/2 127/1/2
f 129/3/2 131/2/2 132/1/2
f 133/5/3 128/5/3 130/104/3
f 128/5/3 133/5/3 134/105/3
f 133/5/4 131/5/4 134/106/4
f 131/5/4 133/5/4 132/107/4
f 131/5/5 128/5/5 134/108/5
f 128/5/5 131/5/5 127/109/5
f 129/2/6 133/3/6 130/11/6
f 133/3/6 129/2/6 132/1/6

usemtl color15

f 137/3/1 136/2/1 135/1/1
f 136/3/1 137/2/1 138/1/1
f 139/3/2 137/2/2 135/1/2
f 137/3/2 139/2/2 140/1/2
f 141/5/3 136/5/3 138/110/3
f 136/5/3 141/5/3 142/111/3
f 141/5/4 139/5/4 142/112/4
f 139/5/4 141/5/4 140/113/4
f 139/5/5 136/5/5 142/114/5
f 136/5/5 139/5/5 135/115/5
f 137/2/6 141/3/6 138/11/6
f 141/3/6 137/2/6 140/1/6
f 145/3/1 144/2/1 143/1/1
f 144/3/1 145/2/1 146/1/1
f 147/3/2 145/2/2 143/1/2
f 145/3/2 147/2/2 148/1/2
f 149/5/3 144/5/3 146/116/3
f 144/5/3 149/5/3 150/117/3
f 149/5/4 147/5/4 150/118/4
f 147/5/4 149/5/4 148/119/4
f 147/5/5 144/5/5 150/120/5
f 144/5/5 147/5/5 143/121/5
f 145/2/6 149/3/6 146/11/6
f 149/3/6 145/2/6 148/1/6
f 153/3/1 152/2/1 151/1/1
f 152/3/1 153/2/1 154/1/1
f 155/3/2 153/2/2 151/1/2
f 153/3/2 155/2/2 156/1/2
f 157/5/3 152/5/3 154/122/3
f 152/5/3 157/5/3 158/123/3
f 157/5/4 155/5/4 158/124/4
f 155/5/4 157/5/4 156/125/4
f 155/5/5 152/5/5 158/126/5
f 152/5/5 155/5/5 151/127/5
f 153/2/6 157/3/6 154/11/6
f 157/3/6 153/2/6 156/1/6
f 161/3/1 160/2/1 159/1/1
f 160/3/1 161/2/1 162/1/1
f 144/3/2 161/2/2 159/1/2
f 161/3/2 144/2/2 146/1/2
f 163/5/3 160/5/3 162/128/3
f 160/5/3 163/5/3 164/129/3
f 163/5/4 144/5/4 164/130/4
f 144/5/4 163/5/4 146/131/4
f 144/5/5 160/5/5 164/132/5
f 160/5/5 144/5/5 159/133/5
f 161/2/6 163/3/6 162/11/6
f 163/3/6 161/2/6 146/1/6
f 167/3/1 166/2/1 165/1/1
f 166/3/1 167/2/1 168/1/1
f 169/3/2 167/2/2 165/1/2
f 167/3/2 169/2/2 170/1/2
f 171/5/3 166/5/3 168/134/3
f 166/5/3 171/5/3 172/135/3
f 171/5/4 169/5/4 172/136/4
f 169/5/4 171/5/4 170/137/4
f 169/5/5 166/5/5 172/138/5
f 166/5/5 169/5/5 165/139/5
f 167/2/6 171/3/6 168/11/6
f 171/3/6 167/2/6 170/1/6
f 175/3/1 174/2/1 173/1/1
f 174/3/1 175/2/1 176/1/1
f 177/3/2 175/2/2 173/1/2
f 175/3/2 177/2/2 178/1/2
f 179/5/3 174/5/3 176/140/3
f 174/5/3 179/5/3 180/141/3
f 179/5/4 177/5/4 180/142/4
f 177/5/4 179/5/4 178/143/4
f 177/5/5 174/5/5 180/144/5
f 174/5/5 177/5/5 173/145/5
f 175/2/6 179/3/6 176/11/6
f 179/3/6 175/2/6 178/1/6

usemtl color17

f 140/3/1 142/2/1 139/1/1
f 142/3/1 140/2/1 141/1/1
f 181/3/2 140/2/2 139/1/2
f 140/3/2 181/2/2 182/1/2
f 183/5/3 142/111/3 141/5/3
f 142/111/3 183/5/3 184/146/3
f 183/5/4 181/5/4 184/147/4
f 181/5/4 183/5/4 182/148/4
f 181/5/5 142/114/5 184/149/5
f 142/114/5 181/5/5 139/5/5
f 140/2/6 183/3/6 141/11/6
f 183/3/6 140/2/6 182/1/6
f 186/3/1 75/2/1 185/1/1
f 75/3/1 186/2/1 76/1/1
f 187/3/2 186/2/2 185/1/2
f 186/3/2 187/2/2 188/1/2
f 81/5/3 75/5/3 76/150/3
f 75/5/3 81/5/3 79/151/3
f 81/5/4 187/5/4 79/152/4
f 187/5/4 81/5/4 188/153/4
f 187/5/5 75/5/5 79/73/5
f 75/5/5 187/5/5 185/154/5
f 186/2/6 81/3/6 76/11/6
f 81/3/6 186/2/6 188/1/6
f 170/3/1 172/2/1 169/1/1
f 172/3/1 170/2/1 171/1/1
f 189/3/2 170/2/2 169/1/2
f 170/3/2 189/2/2 190/1/2
f 191/5/3 172/135/3 171/5/3
f 172/135/3 191/5/3 192/155/3
f 191/5/4 189/5/4 192/156/4
f 189/5/4 191/5/4 190/157/4
f 189/5/5 172/138/5 192/158/5
f 172/138/5 189/5/5 169/5/5
f 170/2/6 191/3/6 171/11/6
f 191/3/6 170/2/6 190/1/6
f 194/3/1 107/2/1 193/1/1
f 107/3/1 194/2/1 108/1/1
f 195/3/2 194/2/2 193/1/2
f 194/3/2 195/2/2 196/1/2
f 197/5/3 107/5/3 108/159/3
f 107/5/3 197/5/3 198/160/3
f 197/5/4 195/5/4 198/161/4
f 195/5/4 197/5/4 196/162/4
f 195/5/5 107/5/5 198/163/5
f 107/5/5 195/5/5 193/164/5
f 194/2/6 197/3/6 108/11/6
f 197/3/6 194/2/6 196/1/6

usemtl color22

f 201/3/1 200/2/1 199/1/1
f 200/3/1 201/2/1 202/1/1
f 203/3/2 201/2/2 199/1/2
f 201/3/2 203/2/2 204/1/2
f 205/5/3 200/5/3 202/165/3
f 200/5/3 205/5/3 206/166/3
f 205/5/4 203/5/4 206/167/4
f 203/5/4 205/5/4 204/168/4
f 203/5/5 200/5/5 206/169/5
f 200/5/5 203/5/5 199/170/5
f 201/2/6 205/3/6 202/11/6
f 205/3/6 201/2/6 204/1/6

usemtl color8

f 18/3/1 20/2/1 17/1/1
f 20/3/1 18/2/1 19/1/1
f 21/3/2 18/2/2 17/1/2
f 18/3/2 21/2/2 23/1/2
f 24/22/3 20/17/3 19/5/3
f 20/17/3 24/22/3 22/5/3
f 24/5/4 21/5/4 22/171/4
f 21/5/4 24/5/4 23/172/4
f 21/27/5 20/20/5 22/5/5
f 20/20/5 21/27/5 17/5/5
f 18/2/6 24/3/6 19/11/6
f 24/3/6 18/2/6 23/1/6
f 209/3/1 208/2/1 207/1/1
f 208/3/1 209/2/1 210/1/1
f 211/3/2 209/2/2 207/1/2
f 209/3/2 211/2/2 212/1/2
f 50/5/3 208/5/3 210/173/3
f 208/5/3 50/5/3 49/174/3
f 50/43/4 211/5/4 49/5/4
f 211/5/4 50/43/4 212/175/4
f 211/5/5 208/5/5 49/5/5
f 208/5/5 211/5/5 207/176/5
f 209/2/6 50/3/6 210/11/6
f 50/3/6 209/2/6 212/1/6
f 215/3/1 214/2/1 213/1/1
f 214/3/1 215/2/1 216/1/1
f 217/3/2 215/2/2 213/1/2
f 215/3/2 217/2/2 218/1/2
f 219/5/3 214/5/3 216/177/3
f 214/5/3 219/5/3 220/178/3
f 219/5/4 217/5/4 220/179/4
f 217/5/4 219/5/4 218/180/4
f 217/5/5 214/5/5 220/181/5
f 214/5/5 217/5/5 213/182/5
f 215/2/6 219/3/6 216/11/6
f 219/3/6 215/2/6 218/1/6
f 223/3/1 222/2/1 221/1/1
f 222/3/1 223/2/1 224/1/1
f 225/3/2 223/2/2 221/1/2
f 223/3/2 225/2/2 226/1/2
f 227/5/3 222/5/3 224/183/3
f 222/5/3 227/5/3 228/184/3
f 227/5/4 225/5/4 228/185/4
f 225/5/4 227/5/4 226/186/4
f 225/5/5 222/5/5 228/187/5
f 222/5/5 225/5/5 221/188/5
f 223/2/6 227/3/6 224/11/6
f 227/3/6 223/2/6 226/1/6
f 231/3/1 230/2/1 229/1/1
f 230/3/1 231/2/1 232/1/1
f 233/3/2 231/2/2 229/1/2
f 231/3/2 233/2/2 234/1/2
f 235/5/3 230/5/3 232/189/3
f 230/5/3 235/5/3 236/190/3
f 235/5/4 233/5/4 236/191/4
f 233/5/4 235/5/4 234/192/4
f 233/5/5 230/5/5 236/193/5
f 230/5/5 233/5/5 229/194/5
f 231/2/6 235/3/6 232/11/6
f 235/3/6 231/2/6 234/1/6
f 106/3/1 237/2/1 104/1/1
f 237/3/1 106/2/1 238/1/1
f 110/3/2 106/2/2 104/1/2
f 106/3/2 110/2/2 109/1/2
f 239/5/3 237/5/3 238/195/3
f 237/5/3 239/5/3 240/196/3
f 239/5/4 110/88/4 240/197/4
f 110/88/4 239/5/4 109/5/4
f 110/90/5 237/5/5 240/198/5
f 237/5/5 110/90/5 104/5/5
f 106/2/6 239/3/6 238/11/6
f 239/3/6 106/2/6 109/1/6
f 114/3/1 126/2/1 112/1/1
f 126/3/1 114/2/1 125/1/1
f 118/3/2 114/2/2 112/1/2
f 114/3/2 118/2/2 117/1/2
f 241/5/3 126/99/3 125/5/3
f 126/99/3 241/5/3 242/199/3
f 241/5/4 118/94/4 242/200/4
f 118/94/4 241/5/4 117/5/4
f 118/96/5 126/102/5 242/201/5
f 126/102/5 118/96/5 112/5/5
f 114/2/6 241/3/6 125/11/6
f 241/3/6 114/2/6 117/1/6

usemtl color12

f 245/3/1 244/2/1 243/1/1
f 244/3/1 245/2/1 246/1/1
f 247/3/2 245/2/2 243/1/2
f 245/3/2 247/2/2 248/1/2
f 249/5/3 244/5/3 246/202/3
f 244/5/3 249/5/3 250/203/3
f 249/5/4 247/5/4 250/204/4
f 247/5/4 249/5/4 248/205/4
f 247/5/5 244/5/5 250/206/5
f 244/5/5 247/5/5 243/207/5
f 245/2/6 249/3/6 246/11/6
f 249/3/6 245/2/6 248/1/6
f 248/3/1 251/2/1 247/1/1
f 251/3/1 248/2/1 252/1/1
f 253/3/2 248/2/2 247/1/2
f 248/3/2 253/2/2 254/1/2
f 255/5/3 251/5/3 252/208/3
f 251/5/3 255/5/3 256/209/3
f 255/5/4 253/5/4 256/210/4
f 253/5/4 255/5/4 254/211/4
f 253/5/5 251/5/5 256/212/5
f 251/5/5 253/5/5 247/5/5
f 248/2/6 255/3/6 252/11/6
f 255/3/6 248/2/6 254/1/6
f 259/3/1 258/2/1 257/1/1
f 258/3/1 259/2/1 260/1/1
f 261/3/2 259/2/2 257/1/2
f 259/3/2 261/2/2 262/1/2
f 246/202/3 258/5/3 260/213/3
f 258/5/3 246/202/3 244/5/3
f 246/5/4 261/5/4 244/214/4
f 261/5/4 246/5/4 262/215/4
f 261/5/5 258/5/5 244/5/5
f 258/5/5 261/5/5 257/216/5
f 259/2/6 246/3/6 260/11/6
f 246/3/6 259/2/6 262/1/6
f 265/3/1 264/2/1 263/1/1
f 264/3/1 265/2/1 266/1/1
f 258/3/2 265/2/2 263/1/2
f 265/3/2 258/2/2 260/1/2
f 267/5/3 264/5/3 266/217/3
f 264/5/3 267/5/3 268/218/3
f 267/5/4 258/5/4 268/219/4
f 258/5/4 267/5/4 260/220/4
f 258/5/5 264/5/5 268/221/5
f 264/5/5 258/5/5 263/222/5
f 265/2/6 267/3/6 266/11/6
f 267/3/6 265/2/6 260/1/6
f 271/3/1 270/2/1 269/1/1
f 270/3/1 271/2/1 272/1/1
f 244/3/2 271/2/2 269/1/2
f 271/3/2 244/2/2 246/1/2
f 273/5/3 270/5/3 272/223/3
f 270/5/3 273/5/3 274/224/3
f 273/5/4 244/214/4 274/225/4
f 244/214/4 273/5/4 246/5/4
f 244/5/5 270/5/5 274/226/5
f 270/5/5 244/5/5 269/227/5
f 271/2/6 273/3/6 272/11/6
f 273/3/6 271/2/6 246/1/6
f 267/3/1 275/2/1 268/1/1
f 275/3/1 267/2/1 276/1/1
f 270/3/2 267/2/2 268/1/2
f 267/3/2 270/2/2 272/1/2
f 277/5/3 275/5/3 276/228/3
f 275/5/3 277/5/3 278/229/3
f 277/5/4 270/5/4 278/230/4
f 270/5/4 277/5/4 272/231/4
f 270/5/5 275/5/5 278/232/5
f 275/5/5 270/5/5 268/221/5
f 267/2/6 277/3/6 276/11/6
f 277/3/6 267/2/6 272/1/6
f 281/3/1 280/2/1 279/1/1
f 280/3/1 281/2/1 282/1/1
f 283/3/2 281/2/2 279/1/2
f 281/3/2 283/2/2 284/1/2
f 285/5/3 280/5/3 282/233/3
f 280/5/3 285/5/3 286/234/3
f 285/5/4 283/5/4 286/235/4
f 283/5/4 285/5/4 284/236/4
f 283/5/5 280/5/5 286/237/5
f 280/5/5 283/5/5 279/238/5
f 281/2/6 285/3/6 282/11/6
f 285/3/6 281/2/6 284/1/6
f 289/3/1 288/2/1 287/1/1
f 288/3/1 289/2/1 290/1/1
f 291/3/2 289/2/2 287/1/2
f 289/3/2 291/2/2 292/1/2
f 293/5/3 288/5/3 290/239/3
f 288/5/3 293/5/3 294/240/3
f 293/5/4 291/5/4 294/241/4
f 291/5/4 293/5/4 292/242/4
f 291/5/5 288/5/5 294/243/5
f 288/5/5 291/5/5 287/244/5
f 289/2/6 293/3/6 290/11/6
f 293/3/6 289/2/6 292/1/6
f 248/3/1 251/2/1 247/1/1
f 251/3/1 248/2/1 252/1/1
f 253/3/2 248/2/2 247/1/2
f 248/3/2 253/2/2 254/1/2
f 255/5/3 251/5/3 252/208/3
f 251/5/3 255/5/3 256/209/3
f 255/5/4 253/5/4 256/210/4
f 253/5/4 255/5/4 254/211/4
f 253/5/5 251/5/5 256/212/5
f 251/5/5 253/5/5 247/5/5
f 248/2/6 255/3/6 252/11/6
f 255/3/6 248/2/6 254/1/6

usemtl color19

f 254/3/1 256/2/1 253/1/1
f 256/3/1 254/2/1 255/1/1
f 295/3/2 254/2/2 253/1/2
f 254/3/2 295/2/2 296/1/2
f 297/5/3 256/209/3 255/5/3
f 256/209/3 297/5/3 298/245/3
f 297/5/4 295/5/4 298/246/4
f 295/5/4 297/5/4 296/247/4
f 295/5/5 256/212/5 298/248/5
f 256/212/5 295/5/5 253/5/5
f 254/2/6 297/3/6 255/11/6
f 297/3/6 254/2/6 296/1/6
f 252/3/1 250/2/1 251/1/1
f 250/3/1 252/2/1 249/1/1
f 299/3/2 252/2/2 251/1/2
f 252/3/2 299/2/2 300/1/2
f 301/5/3 250/203/3 249/5/3
f 250/203/3 301/5/3 302/249/3
f 301/5/4 299/5/4 302/250/4
f 299/5/4 301/5/4 300/251/4
f 299/5/5 250/206/5 302/252/5
f 250/206/5 299/5/5 251/5/5
f 252/2/6 301/3/6 249/11/6
f 301/3/6 252/2/6 300/1/6
f 272/3/1 278/2/1 270/1/1
f 278/3/1 272/2/1 277/1/1
f 274/3/2 272/2/2 270/1/2
f 272/3/2 274/2/2 273/1/2
f 303/5/3 278/229/3 277/5/3
f 278/229/3 303/5/3 304/253/3
f 303/5/4 274/225/4 304/254/4
f 274/225/4 303/5/4 273/5/4
f 274/226/5 278/232/5 304/255/5
f 278/232/5 274/226/5 270/5/5
f 272/2/6 303/3/6 277/11/6
f 303/3/6 272/2/6 273/1/6

usemtl color13

f 307/3/1 306/2/1 305/1/1
f 306/3/1 307/2/1 308/1/1
f 309/3/2 307/2/2 305/1/2
f 307/3/2 309/2/2 310/1/2
f 311/5/3 306/5/3 308/256/3
f 306/5/3 311/5/3 312/257/3
f 311/5/4 309/5/4 312/258/4
f 309/5/4 311/5/4 310/259/4
f 309/5/5 306/5/5 312/260/5
f 306/5/5 309/5/5 305/261/5
f 307/2/6 311/3/6 308/11/6
f 311/3/6 307/2/6 310/1/6
f 202/3/1 313/2/1 200/1/1
f 313/3/1 202/2/1 314/1/1
f 206/3/2 202/2/2 200/1/2
f 202/3/2 206/2/2 205/1/2
f 315/5/3 313/5/3 314/262/3
f 313/5/3 315/5/3 316/263/3
f 315/5/4 206/167/4 316/264/4
f 206/167/4 315/5/4 205/5/4
f 206/169/5 313/5/5 316/265/5
f 313/5/5 206/169/5 200/5/5
f 202/2/6 315/3/6 314/11/6
f 315/3/6 202/2/6 205/1/6
f 149/3/1 317/2/1 150/1/1
f 317/3/1 149/2/1 318/1/1
f 152/3/2 149/2/2 150/1/2
f 149/3/2 152/2/2 154/1/2
f 319/5/3 317/5/3 318/266/3
f 317/5/3 319/5/3 320/267/3
f 319/5/4 152/5/4 320/268/4
f 152/5/4 319/5/4 154/269/4
f 152/5/5 317/5/5 320/270/5
f 317/5/5 152/5/5 150/120/5
f 149/2/6 319/3/6 318/11/6
f 319/3/6 149/2/6 154/1/6
f 322/3/1 169/2/1 321/1/1
f 169/3/1 322/2/1 170/1/1
f 323/3/2 322/2/2 321/1/2
f 322/3/2 323/2/2 324/1/2
f 190/5/3 169/5/3 170/271/3
f 169/5/3 190/5/3 189/272/3
f 190/157/4 323/5/4 189/5/4
f 323/5/4 190/157/4 324/273/4
f 323/5/5 169/5/5 189/5/5
f 169/5/5 323/5/5 321/274/5
f 322/2/6 190/3/6 170/11/6
f 190/3/6 322/2/6 324/1/6
f 162/3/1 325/2/1 160/1/1
f 325/3/1 162/2/1 326/1/1
f 164/3/2 162/2/2 160/1/2
f 162/3/2 164/2/2 163/1/2
f 327/5/3 325/5/3 326/275/3
f 325/5/3 327/5/3 328/276/3
f 327/5/4 164/130/4 328/277/4
f 164/130/4 327/5/4 163/5/4
f 164/132/5 325/5/5 328/278/5
f 325/5/5 164/132/5 160/5/5
f 162/2/6 327/3/6 326/11/6
f 327/3/6 162/2/6 163/1/6
f 330/3/1 193/2/1 329/1/1
f 193/3/1 330/2/1 194/1/1
f 331/3/2 330/2/2 329/1/2
f 330/3/2 331/2/2 332/1/2
f 196/5/3 193/5/3 194/279/3
f 193/5/3 196/5/3 195/280/3
f 196/162/4 331/5/4 195/5/4
f 331/5/4 196/162/4 332/281/4
f 331/5/5 193/164/5 195/5/5
f 193/164/5 331/5/5 329/282/5
f 330/2/6 196/3/6 194/11/6
f 196/3/6 330/2/6 332/1/6
f 292/3/1 294/2/1 291/1/1
f 294/3/1 292/2/1 293/1/1
f 333/3/2 292/2/2 291/1/2
f 292/3/2 333/2/2 334/1/2
f 335/5/3 294/240/3 293/5/3
f 294/240/3 335/5/3 336/283/3
f 335/5/4 333/5/4 336/284/4
f 333/5/4 335/5/4 334/285/4
f 333/5/5 294/243/5 336/286/5
f 294/243/5 333/5/5 291/5/5
f 292/2/6 335/3/6 293/11/6
f 335/3/6 292/2/6 334/1/6

usemtl color4

f 310/3/1 312/2/1 309/1/1
f 312/3/1 310/2/1 311/1/1
f 337/3/2 310/2/2 309/1/2
f 310/3/2 337/2/2 338/1/2
f 339/5/3 312/257/3 311/5/3
f 312/257/3 339/5/3 340/287/3
f 339/5/4 337/5/4 340/288/4
f 337/5/4 339/5/4 338/289/4
f 337/5/5 312/260/5 340/290/5
f 312/260/5 337/5/5 309/5/5
f 310/2/6 339/3/6 311/11/6
f 339/3/6 310/2/6 338/1/6
f 314/3/1 341/2/1 313/1/1
f 341/3/1 314/2/1 342/1/1
f 316/3/2 314/2/2 313/1/2
f 314/3/2 316/2/2 315/1/2
f 343/5/3 341/5/3 342/291/3
f 341/5/3 343/5/3 344/292/3
f 343/5/4 316/264/4 344/293/4
f 316/264/4 343/5/4 315/5/4
f 316/265/5 341/5/5 344/294/5
f 341/5/5 316/265/5 313/5/5
f 314/2/6 343/3/6 342/11/6
f 343/3/6 314/2/6 315/1/6
f 346/3/1 225/2/1 345/1/1
f 225/3/1 346/2/1 226/1/1
f 347/3/2 346/2/2 345/1/2
f 346/3/2 347/2/2 348/1/2
f 349/5/3 225/5/3 226/295/3
f 225/5/3 349/5/3 350/296/3
f 349/5/4 347/5/4 350/297/4
f 347/5/4 349/5/4 348/298/4
f 347/5/5 225/5/5 350/299/5
f 225/5/5 347/5/5 345/300/5
f 346/2/6 349/3/6 226/11/6
f 349/3/6 346/2/6 348/1/6
f 353/3/1 352/2/1 351/1/1
f 352/3/1 353/2/1 354/1/1
f 355/3/2 353/2/2 351/1/2
f 353/3/2 355/2/2 356/1/2
f 357/5/3 352/5/3 354/301/3
f 352/5/3 357/5/3 358/302/3
f 357/5/4 355/5/4 358/303/4
f 355/5/4 357/5/4 356/304/4
f 355/5/5 352/5/5 358/305/5
f 352/5/5 355/5/5 351/306/5
f 353/2/6 357/3/6 354/11/6
f 357/3/6 353/2/6 356/1/6
f 178/3/1 180/2/1 177/1/1
f 180/3/1 178/2/1 179/1/1
f 359/3/2 178/2/2 177/1/2
f 178/3/2 359/2/2 360/1/2
f 361/5/3 180/141/3 179/5/3
f 180/141/3 361/5/3 362/307/3
f 361/5/4 359/5/4 362/308/4
f 359/5/4 361/5/4 360/309/4
f 359/5/5 180/144/5 362/310/5
f 180/144/5 359/5/5 177/5/5
f 178/2/6 361/3/6 179/11/6
f 361/3/6 178/2/6 360/1/6
f 365/3/1 364/2/1 363/1/1
f 364/3/1 365/2/1 366/1/1
f 367/3/2 365/2/2 363/1/2
f 365/3/2 367/2/2 368/1/2
f 369/5/3 364/5/3 366/311/3
f 364/5/3 369/5/3 370/312/3
f 369/5/4 367/5/4 370/313/4
f 367/5/4 369/5/4 368/314/4
f 367/5/5 364/5/5 370/315/5
f 364/5/5 367/5/5 363/316/5
f 365/2/6 369/3/6 366/11/6
f 369/3/6 365/2/6 368/1/6
f 373/3/1 372/2/1 371/1/1
f 372/3/1 373/2/1 374/1/1
f 375/3/2 373/2/2 371/1/2
f 373/3/2 375/2/2 376/1/2
f 377/5/3 372/5/3 374/317/3
f 372/5/3 377/5/3 378/318/3
f 377/5/4 375/5/4 378/319/4
f 375/5/4 377/5/4 376/320/4
f 375/5/5 372/5/5 378/321/5
f 372/5/5 375/5/5 371/322/5
f 373/2/6 377/3/6 374/11/6
f 377/3/6 373/2/6 376/1/6
f 381/3/1 380/2/1 379/1/1
f 380/3/1 381/2/1 382/1/1
f 383/3/2 381/2/2 379/1/2
f 381/3/2 383/2/2 384/1/2
f 385/5/3 380/5/3 382/323/3
f 380/5/3 385/5/3 386/324/3
f 385/5/4 383/5/4 386/325/4
f 383/5/4 385/5/4 384/326/4
f 383/5/5 380/5/5 386/327/5
f 380/5/5 383/5/5 379/328/5
f 381/2/6 385/3/6 382/11/6
f 385/3/6 381/2/6 384/1/6

usemtl color7

f 16/3/1 387/2/1 14/1/1
f 387/3/1 16/2/1 388/1/1
f 20/3/2 16/2/2 14/1/2
f 16/3/2 20/2/2 19/1/2
f 346/5/3 387/5/3 388/329/3
f 387/5/3 346/5/3 345/330/3
f 346/5/4 20/18/4 345/331/4
f 20/18/4 346/5/4 19/5/4
f 20/20/5 387/5/5 345/300/5
f 387/5/5 20/20/5 14/5/5
f 16/2/6 346/3/6 388/11/6
f 346/3/6 16/2/6 19/1/6
f 58/3/1 60/2/1 57/1/1
f 60/3/1 58/2/1 59/1/1
f 389/3/2 58/2/2 57/1/2
f 58/3/2 389/2/2 390/1/2
f 391/5/3 60/47/3 59/5/3
f 60/47/3 391/5/3 392/332/3
f 391/5/4 389/5/4 392/333/4
f 389/5/4 391/5/4 390/334/4
f 389/5/5 60/50/5 392/335/5
f 60/50/5 389/5/5 57/5/5
f 58/2/6 391/3/6 59/11/6
f 391/3/6 58/2/6 390/1/6
f 188/3/1 79/2/1 187/1/1
f 79/3/1 188/2/1 81/1/1
f 393/3/2 188/2/2 187/1/2
f 188/3/2 393/2/2 394/1/2
f 84/5/3 79/151/3 81/5/3
f 79/151/3 84/5/3 83/336/3
f 84/71/4 393/5/4 83/5/4
f 393/5/4 84/71/4 394/337/4
f 393/5/5 79/73/5 83/5/5
f 79/73/5 393/5/5 187/5/5
f 188/2/6 84/3/6 81/11/6
f 84/3/6 188/2/6 394/1/6
f 397/3/1 396/2/1 395/1/1
f 396/3/1 397/2/1 398/1/1
f 399/3/2 397/2/2 395/1/2
f 397/3/2 399/2/2 400/1/2
f 401/5/3 396/5/3 398/338/3
f 396/5/3 401/5/3 402/339/3
f 401/5/4 399/5/4 402/340/4
f 399/5/4 401/5/4 400/341/4
f 399/5/5 396/5/5 402/342/5
f 396/5/5 399/5/5 395/343/5
f 397/2/6 401/3/6 398/11/6
f 401/3/6 397/2/6 400/1/6
f 405/3/1 404/2/1 403/1/1
f 404/3/1 405/2/1 406/1/1
f 173/3/2 405/2/2 403/1/2
f 405/3/2 173/2/2 175/1/2
f 176/140/3 404/5/3 406/344/3
f 404/5/3 176/140/3 174/5/3
f 176/5/4 173/5/4 174/345/4
f 173/5/4 176/5/4 175/346/4
f 173/145/5 404/5/5 174/5/5
f 404/5/5 173/145/5 403/347/5
f 405/2/6 176/3/6 406/11/6
f 176/3/6 405/2/6 175/1/6
f 238/3/1 407/2/1 237/1/1
f 407/3/1 238/2/1 408/1/1
f 240/3/2 238/2/2 237/1/2
f 238/3/2 240/2/2 239/1/2
f 409/5/3 407/5/3 408/348/3
f 407/5/3 409/5/3 410/349/3
f 409/5/4 240/197/4 410/350/4
f 240/197/4 409/5/4 239/5/4
f 240/198/5 407/5/5 410/351/5
f 407/5/5 240/198/5 237/5/5
f 238/2/6 409/3/6 408/11/6
f 409/3/6 238/2/6 239/1/6

usemtl color5

f 308/3/1 411/2/1 306/1/1
f 411/3/1 308/2/1 412/1/1
f 340/3/2 308/2/2 306/1/2
f 308/3/2 340/2/2 339/1/2
f 324/5/3 411/5/3 412/352/3
f 411/5/3 324/5/3 323/353/3
f 324/273/4 340/288/4 323/5/4
f 340/288/4 324/273/4 339/5/4
f 340/290/5 411/5/5 323/5/5
f 411/5/5 340/290/5 306/5/5
f 308/2/6 324/3/6 412/11/6
f 324/3/6 308/2/6 339/1/6
f 76/3/1 78/2/1 75/1/1
f 78/3/1 76/2/1 77/1/1
f 79/3/2 76/2/2 75/1/2
f 76/3/2 79/2/2 81/1/2
f 82/68/3 78/64/3 77/5/3
f 78/64/3 82/68/3 80/5/3
f 82/5/4 79/152/4 80/354/4
f 79/152/4 82/5/4 81/5/4
f 79/73/5 78/67/5 80/5/5
f 78/67/5 79/73/5 75/5/5
f 76/2/6 82/3/6 77/11/6
f 82/3/6 76/2/6 81/1/6
f 318/3/1 413/2/1 317/1/1
f 413/3/1 318/2/1 414/1/1
f 320/3/2 318/2/2 317/1/2
f 318/3/2 320/2/2 319/1/2
f 415/5/3 413/5/3 414/355/3
f 413/5/3 415/5/3 416/356/3
f 415/5/4 320/268/4 416/357/4
f 320/268/4 415/5/4 319/5/4
f 320/270/5 413/5/5 416/358/5
f 413/5/5 320/270/5 317/5/5
f 318/2/6 415/3/6 414/11/6
f 415/3/6 318/2/6 319/1/6
f 419/3/1 418/2/1 417/1/1
f 418/3/1 419/2/1 420/1/1
f 421/3/2 419/2/2 417/1/2
f 419/3/2 421/2/2 422/1/2
f 423/5/3 418/5/3 420/359/3
f 418/5/3 423/5/3 424/360/3
f 423/5/4 421/5/4 424/361/4
f 421/5/4 423/5/4 422/362/4
f 421/5/5 418/5/5 424/363/5
f 418/5/5 421/5/5 417/364/5
f 419/2/6 423/3/6 420/11/6
f 423/3/6 419/2/6 422/1/6
f 426/3/1 359/2/1 425/1/1
f 359/3/1 426/2/1 360/1/1
f 351/3/2 426/2/2 425/1/2
f 426/3/2 351/2/2 353/1/2
f 354/301/3 359/5/3 360/365/3
f 359/5/3 354/301/3 352/5/3
f 354/5/4 351/5/4 352/366/4
f 351/5/4 354/5/4 353/367/4
f 351/306/5 359/5/5 352/5/5
f 359/5/5 351/306/5 425/368/5
f 426/2/6 354/3/6 360/11/6
f 354/3/6 426/2/6 353/1/6
f 125/3/1 427/2/1 126/1/1
f 427/3/1 125/2/1 428/1/1
f 242/3/2 125/2/2 126/1/2
f 125/3/2 242/2/2 241/1/2
f 429/5/3 427/5/3 428/369/3
f 427/5/3 429/5/3 430/370/3
f 429/5/4 242/200/4 430/371/4
f 242/200/4 429/5/4 241/5/4
f 242/201/5 427/5/5 430/372/5
f 427/5/5 242/201/5 126/102/5
f 125/2/6 429/3/6 428/11/6
f 429/3/6 125/2/6 241/1/6
f 433/3/1 432/2/1 431/1/1
f 432/3/1 433/2/1 434/1/1
f 435/3/2 433/2/2 431/1/2
f 433/3/2 435/2/2 436/1/2
f 437/5/3 432/5/3 434/373/3
f 432/5/3 437/5/3 438/374/3
f 437/5/4 435/5/4 438/375/4
f 435/5/4 437/5/4 436/376/4
f 435/5/5 432/5/5 438/377/5
f 432/5/5 435/5/5 431/378/5
f 433/2/6 437/3/6 434/11/6
f 437/3/6 433/2/6 436/1/6
f 132/3/1 439/2/1 131/1/1
f 439/3/1 132/2/1 440/1/1
f 441/3/2 132/2/2 131/1/2
f 132/3/2 441/2/2 442/1/2
f 443/5/3 439/5/3 440/379/3
f 439/5/3 443/5/3 444/380/3
f 443/5/4 441/5/4 444/381/4
f 441/5/4 443/5/4 442/382/4
f 441/5/5 439/5/5 444/383/5
f 439/5/5 441/5/5 131/5/5
f 132/2/6 443/3/6 440/11/6
f 443/3/6 132/2/6 442/1/6

usemtl color14

f 390/3/1 392/2/1 389/1/1
f 392/3/1 390/2/1 391/1/1
f 185/3/2 390/2/2 389/1/2
f 390/3/2 185/2/2 186/1/2
f 76/150/3 392/332/3 391/5/3
f 392/332/3 76/150/3 75/5/3
f 76/66/4 185/5/4 75/5/4
f 185/5/4 76/66/4 186/384/4
f 185/154/5 392/335/5 75/5/5
f 392/335/5 185/154/5 389/5/5
f 390/2/6 76/3/6 391/11/6
f 76/3/6 390/2/6 186/1/6
f 334/3/1 336/2/1 333/1/1
f 336/3/1 334/2/1 335/1/1
f 404/3/2 334/2/2 333/1/2
f 334/3/2 404/2/2 406/1/2
f 445/5/3 336/283/3 335/5/3
f 336/283/3 445/5/3 446/385/3
f 445/5/4 404/5/4 446/386/4
f 404/5/4 445/5/4 406/387/4
f 404/5/5 336/286/5 446/388/5
f 336/286/5 404/5/5 333/5/5
f 334/2/6 445/3/6 335/11/6
f 445/3/6 334/2/6 406/1/6

usemtl color0

f 394/3/1 83/2/1 393/1/1
f 83/3/1 394/2/1 84/1/1
f 447/3/2 394/2/2 393/1/2
f 394/3/2 447/2/2 448/1/2
f 449/5/3 83/336/3 84/5/3
f 83/336/3 449/5/3 450/389/3
f 449/5/4 447/5/4 450/390/4
f 447/5/4 449/5/4 448/391/4
f 447/5/5 83/5/5 450/392/5
f 83/5/5 447/5/5 393/5/5
f 394/2/6 449/3/6 84/11/6
f 449/3/6 394/2/6 448/1/6
f 453/3/1 452/2/1 451/1/1
f 452/3/1 453/2/1 454/1/1
f 455/3/2 453/2/2 451/1/2
f 453/3/2 455/2/2 456/1/2
f 457/5/3 452/5/3 454/393/3
f 452/5/3 457/5/3 458/394/3
f 457/5/4 455/5/4 458/395/4
f 455/5/4 457/5/4 456/396/4
f 455/5/5 452/5/5 458/397/5
f 452/5/5 455/5/5 451/398/5
f 453/2/6 457/3/6 454/11/6
f 457/3/6 453/2/6 456/1/6

usemtl color2

f 461/3/1 460/2/1 459/1/1
f 460/3/1 461/2/1 462/1/1
f 463/3/2 461/2/2 459/1/2
f 461/3/2 463/2/2 464/1/2
f 465/5/3 460/5/3 462/399/3
f 460/5/3 465/5/3 466/400/3
f 465/5/4 463/5/4 466/401/4
f 463/5/4 465/5/4 464/402/4
f 463/5/5 460/5/5 466/403/5
f 460/5/5 463/5/5 459/404/5
f 461/2/6 465/3/6 462/11/6
f 465/3/6 461/2/6 464/1/6
f 469/3/1 468/2/1 467/1/1
f 468/3/1 469/2/1 470/1/1
f 471/3/2 469/2/2 467/1/2
f 469/3/2 471/2/2 472/1/2
f 473/5/3 468/5/3 470/405/3
f 468/5/3 473/5/3 474/406/3
f 473/5/4 471/5/4 474/407/4
f 471/5/4 473/5/4 472/408/4
f 471/5/5 468/5/5 474/409/5
f 468/5/5 471/5/5 467/410/5
f 469/2/6 473/3/6 470/11/6
f 473/3/6 469/2/6 472/1/6
f 48/3/1 475/2/1 46/1/1
f 475/3/1 48/2/1 476/1/1
f 52/3/2 48/2/2 46/1/2
f 48/3/2 52/2/2 51/1/2
f 477/5/3 475/5/3 476/411/3
f 475/5/3 477/5/3 478/412/3
f 477/5/4 52/42/4 478/413/4
f 52/42/4 477/5/4 51/5/4
f 52/44/5 475/5/5 478/414/5
f 475/5/5 52/44/5 46/5/5
f 48/2/6 477/3/6 476/11/6
f 477/3/6 48/2/6 51/1/6
f 122/3/1 479/2/1 120/1/1
f 479/3/1 122/2/1 480/1/1
f 126/3/2 122/2/2 120/1/2
f 122/3/2 126/2/2 125/1/2
f 433/5/3 479/5/3 480/415/3
f 479/5/3 433/5/3 431/416/3
f 433/5/4 126/100/4 431/417/4
f 126/100/4 433/5/4 125/5/4
f 126/102/5 479/5/5 431/378/5
f 479/5/5 126/102/5 120/5/5
f 122/2/6 433/3/6 480/11/6
f 433/3/6 122/2/6 125/1/6
f 130/3/1 481/2/1 128/1/1
f 481/3/1 130/2/1 482/1/1
f 483/3/2 130/2/2 128/1/2
f 130/3/2 483/2/2 484/1/2
f 485/5/3 481/5/3 482/418/3
f 481/5/3 485/5/3 486/419/3
f 485/5/4 483/5/4 486/420/4
f 483/5/4 485/5/4 484/421/4
f 483/5/5 481/5/5 486/422/5
f 481/5/5 483/5/5 128/5/5
f 130/2/6 485/3/6 482/11/6
f 485/3/6 130/2/6 484/1/6

usemtl color6

f 43/3/1 487/2/1 44/1/1
f 487/3/1 43/2/1 488/1/1
f 46/3/2 43/2/2 44/1/2
f 43/3/2 46/2/2 48/1/2
f 489/5/3 487/5/3 488/423/3
f 487/5/3 489/5/3 490/424/3
f 489/5/4 46/5/4 490/425/4
f 46/5/4 489/5/4 48/426/4
f 46/5/5 487/5/5 490/427/5
f 487/5/5 46/5/5 44/38/5
f 43/2/6 489/3/6 488/11/6
f 489/3/6 43/2/6 48/1/6
f 56/3/1 491/2/1 54/1/1
f 491/3/1 56/2/1 492/1/1
f 60/3/2 56/2/2 54/1/2
f 56/3/2 60/2/2 59/1/2
f 74/63/3 491/5/3 492/428/3
f 491/5/3 74/63/3 73/5/3
f 74/5/4 60/48/4 73/429/4
f 60/48/4 74/5/4 59/5/4
f 60/50/5 491/5/5 73/5/5
f 491/5/5 60/50/5 54/5/5
f 56/2/6 74/3/6 492/11/6
f 74/3/6 56/2/6 59/1/6
f 495/3/1 494/2/1 493/1/1
f 494/3/1 495/2/1 496/1/1
f 68/3/2 495/2/2 493/1/2
f 495/3/2 68/2/2 67/1/2
f 497/5/3 494/5/3 496/430/3
f 494/5/3 497/5/3 498/431/3
f 497/5/4 68/54/4 498/432/4
f 68/54/4 497/5/4 67/5/4
f 68/56/5 494/5/5 498/433/5
f 494/5/5 68/56/5 493/434/5
f 495/2/6 497/3/6 496/11/6
f 497/3/6 495/2/6 67/1/6
f 70/3/1 499/2/1 69/1/1
f 499/3/1 70/2/1 500/1/1
f 72/3/2 70/2/2 69/1/2
f 70/3/2 72/2/2 71/1/2
f 501/5/3 499/5/3 500/435/3
f 499/5/3 501/5/3 502/436/3
f 501/5/4 72/60/4 502/437/4
f 72/60/4 501/5/4 71/5/4
f 72/62/5 499/5/5 502/438/5
f 499/5/5 72/62/5 69/5/5
f 70/2/6 501/3/6 500/11/6
f 501/3/6 70/2/6 71/1/6
f 504/3/1 111/2/1 503/1/1
f 111/3/1 504/2/1 113/1/1
f 505/3/2 504/2/2 503/1/2
f 504/3/2 505/2/2 506/1/2
f 116/5/3 111/5/3 113/439/3
f 111/5/3 116/5/3 115/440/3
f 116/95/4 505/5/4 115/5/4
f 505/5/4 116/95/4 506/441/4
f 505/5/5 111/97/5 115/5/5
f 111/97/5 505/5/5 503/442/5
f 504/2/6 116/3/6 113/11/6
f 116/3/6 504/2/6 506/1/6
f 508/3/1 229/2/1 507/1/1
f 229/3/1 508/2/1 231/1/1
f 509/3/2 508/2/2 507/1/2
f 508/3/2 509/2/2 510/1/2
f 511/5/3 229/5/3 231/443/3
f 229/5/3 511/5/3 512/444/3
f 511/5/4 509/5/4 512/445/4
f 509/5/4 511/5/4 510/446/4
f 509/5/5 229/194/5 512/447/5
f 229/194/5 509/5/5 507/448/5
f 508/2/6 511/3/6 231/11/6
f 511/3/6 508/2/6 510/1/6
f 510/3/1 513/2/1 509/1/1
f 513/3/1 510/2/1 514/1/1
f 95/3/2 510/2/2 509/1/2
f 510/3/2 95/2/2 97/1/2
f 98/80/3 513/5/3 514/449/3
f 513/5/3 98/80/3 96/5/3
f 98/5/4 95/5/4 96/450/4
f 95/5/4 98/5/4 97/451/4
f 95/85/5 513/5/5 96/5/5
f 513/5/5 95/85/5 509/5/5
f 510/2/6 98/3/6 514/11/6
f 98/3/6 510/2/6 97/1/6
f 516/3/1 395/2/1 515/1/1
f 395/3/1 516/2/1 397/1/1
f 517/3/2 516/2/2 515/1/2
f 516/3/2 517/2/2 518/1/2
f 519/5/3 395/5/3 397/452/3
f 395/5/3 519/5/3 520/453/3
f 519/5/4 517/5/4 520/454/4
f 517/5/4 519/5/4 518/455/4
f 517/5/5 395/343/5 520/456/5
f 395/343/5 517/5/5 515/457/5
f 516/2/6 519/3/6 397/11/6
f 519/3/6 516/2/6 518/1/6
f 522/3/1 119/2/1 521/1/1
f 119/3/1 522/2/1 121/1/1
f 111/3/2 522/2/2 521/1/2
f 522/3/2 111/2/2 113/1/2
f 124/5/3 119/5/3 121/458/3
f 119/5/3 124/5/3 123/459/3
f 124/101/4 111/5/4 123/5/4
f 111/5/4 124/101/4 113/460/4
f 111/97/5 119/103/5 123/5/5
f 119/103/5 111/97/5 521/461/5
f 522/2/6 124/3/6 121/11/6
f 124/3/6 522/2/6 113/1/6
f 480/3/1 127/2/1 479/1/1
f 127/3/1 480/2/1 129/1/1
f 431/3/2 480/2/2 479/1/2
f 480/3/2 431/2/2 433/1/2
f 132/5/3 127/5/3 129/462/3
f 127/5/3 132/5/3 131/463/3
f 132/107/4 431/417/4 131/5/4
f 431/417/4 132/107/4 433/5/4
f 431/378/5 127/109/5 131/5/5
f 127/109/5 431/378/5 479/5/5
f 480/2/6 132/3/6 129/11/6
f 132/3/6 480/2/6 433/1/6
f 510/3/1 513/2/1 509/1/1
f 513/3/1 510/2/1 514/1/1
f 95/3/2 510/2/2 509/1/2
f 510/3/2 95/2/2 97/1/2
f 98/80/3 513/5/3 514/449/3
f 513/5/3 98/80/3 96/5/3
f 98/5/4 95/5/4 96/450/4
f 95/5/4 98/5/4 97/451/4
f 95/85/5 513/5/5 96/5/5
f 513/5/5 95/85/5 509/5/5
f 510/2/6 98/3/6 514/11/6
f 98/3/6 510/2/6 97/1/6

usemtl color21

f 51/3/1 478/2/1 52/1/1
f 478/3/1 51/2/1 477/1/1
f 523/3/2 51/2/2 52/1/2
f 51/3/2 523/2/2 524/1/2
f 525/5/3 478/412/3 477/5/3
f 478/412/3 525/5/3 526/464/3
f 525/5/4 523/5/4 526/465/4
f 523/5/4 525/5/4 524/466/4
f 523/5/5 478/414/5 526/467/5
f 478/414/5 523/5/5 52/44/5
f 51/2/6 525/3/6 477/11/6
f 525/3/6 51/2/6 524/1/6

usemtl color20

f 476/3/1 490/2/1 475/1/1
f 490/3/1 476/2/1 489/1/1
f 478/3/2 476/2/2 475/1/2
f 476/3/2 478/2/2 477/1/2
f 527/5/3 490/424/3 489/5/3
f 490/424/3 527/5/3 528/468/3
f 527/5/4 478/413/4 528/469/4
f 478/413/4 527/5/4 477/5/4
f 478/414/5 490/427/5 528/470/5
f 490/427/5 478/414/5 475/5/5
f 476/2/6 527/3/6 489/11/6
f 527/3/6 476/2/6 477/1/6

usemtl color18

f 530/3/1 515/2/1 529/1/1
f 515/3/1 530/2/1 516/1/1
f 531/3/2 530/2/2 529/1/2
f 530/3/2 531/2/2 532/1/2
f 533/5/3 515/5/3 516/471/3
f 515/5/3 533/5/3 534/472/3
f 533/5/4 531/5/4 534/473/4
f 531/5/4 533/5/4 532/474/4
f 531/5/5 515/457/5 534/475/5
f 515/457/5 531/5/5 529/476/5
f 530/2/6 533/3/6 516/11/6
f 533/3/6 530/2/6 532/1/6

usemtl color9

f 284/3/1 286/2/1 283/1/1
f 286/3/1 284/2/1 285/1/1
f 535/3/2 284/2/2 283/1/2
f 284/3/2 535/2/2 536/1/2
f 537/5/3 286/234/3 285/5/3
f 286/234/3 537/5/3 538/477/3
f 537/5/4 535/5/4 538/478/4
f 535/5/4 537/5/4 536/479/4
f 535/5/5 286/237/5 538/480/5
f 286/237/5 535/5/5 283/5/5
f 284/2/6 537/3/6 285/11/6
f 537/3/6 284/2/6 536/1/6
f 541/3/1 540/2/1 539/1/1
f 540/3/1 541/2/1 542/1/1
f 288/3/2 541/2/2 539/1/2
f 541/3/2 288/2/2 290/1/2
f 543/5/3 540/5/3 542/481/3
f 540/5/3 543/5/3 544/482/3
f 543/5/4 288/5/4 544/483/4
f 288/5/4 543/5/4 290/484/4
f 288/5/5 540/5/5 544/485/5
f 540/5/5 288/5/5 539/486/5
f 541/2/6 543/3/6 542/11/6
f 543/3/6 541/2/6 290/1/6

usemtl color10

f 536/3/1 538/2/1 535/1/1
f 538/3/1 536/2/1 537/1/1
f 545/3/2 536/2/2 535/1/2
f 536/3/2 545/2/2 546/1/2
f 356/5/3 538/477/3 537/5/3
f 538/477/3 356/5/3 355/487/3
f 356/304/4 545/5/4 355/5/4
f 545/5/4 356/304/4 546/488/4
f 545/5/5 538/480/5 355/5/5
f 538/480/5 545/5/5 535/5/5
f 536/2/6 356/3/6 537/11/6
f 356/3/6 536/2/6 546/1/6
f 290/3/1 544/2/1 288/1/1
f 544/3/1 290/2/1 543/1/1
f 294/3/2 290/2/2 288/1/2
f 290/3/2 294/2/2 293/1/2
f 547/5/3 544/482/3 543/5/3
f 544/482/3 547/5/3 548/489/3
f 547/5/4 294/241/4 548/490/4
f 294/241/4 547/5/4 293/5/4
f 294/243/5 544/485/5 548/491/5
f 544/485/5 294/243/5 288/5/5
f 290/2/6 547/3/6 543/11/6
f 547/3/6 290/2/6 293/1/6

usemtl color16

f 546/3/1 358/2/1 545/1/1
f 358/3/1 546/2/1 357/1/1
f 549/3/2 546/2/2 545/1/2
f 546/3/2 549/2/2 550/1/2
f 551/5/3 358/302/3 357/5/3
f 358/302/3 551/5/3 552/492/3
f 551/5/4 549/5/4 552/493/4
f 549/5/4 551/5/4 550/494/4
f 549/5/5 358/305/5 552/495/5
f 358/305/5 549/5/5 545/5/5
f 546/2/6 551/3/6 357/11/6
f 551/3/6 546/2/6 550/1/6
f 550/3/1 553/2/1 549/1/1
f 553/3/1 550/2/1 554/1/1
f 555/3/2 550/2/2 549/1/2
f 550/3/2 555/2/2 556/1/2
f 557/5/3 553/5/3 554/496/3
f 553/5/3 557/5/3 558/497/3
f 557/5/4 555/5/4 558/498/4
f 555/5/4 557/5/4 556/499/4
f 555/5/5 553/5/5 558/500/5
f 553/5/5 555/5/5 549/5/5
f 550/2/6 557/3/6 554/11/6
f 557/3/6 550/2/6 556/1/6
f 354/3/1 559/2/1 352/1/1
f 559/3/1 354/2/1 560/1/1
f 358/3/2 354/2/2 352/1/2
f 354/3/2 358/2/2 357/1/2
f 561/5/3 559/5/3 560/501/3
f 559/5/3 561/5/3 562/502/3
f 561/5/4 358/303/4 562/503/4
f 358/303/4 561/5/4 357/5/4
f 358/305/5 559/5/5 562/504/5
f 559/5/5 358/305/5 352/5/5
f 354/2/6 561/3/6 560/11/6
f 561/3/6 354/2/6 357/1/6
f 550/3/1 553/2/1 549/1/1
f 553/3/1 550/2/1 554/1/1
f 555/3/2 550/2/2 549/1/2
f 550/3/2 555/2/2 556/1/2
f 557/5/3 553/5/3 554/496/3
f 553/5/3 557/5/3 558/497/3
f 557/5/4 555/5/4 558/498/4
f 555/5/4 557/5/4 556/499/4
f 555/5/5 553/5/5 558/500/5
f 553/5/5 555/5/5 549/5/5
f 550/2/6 557/3/6 554/11/6
f 557/3/6 550/2/6 556/1/6

usemtl color11

f 360/3/1 362/2/1 359/1/1
f 362/3/1 360/2/1 361/1/1
f 352/3/2 360/2/2 359/1/2
f 360/3/2 352/2/2 354/1/2
f 560/501/3 362/307/3 361/5/3
f 362/307/3 560/501/3 559/5/3
f 560/5/4 352/366/4 559/505/4
f 352/366/4 560/5/4 354/5/4
f 352/5/5 362/310/5 559/5/5
f 362/310/5 352/5/5 359/5/5
f 360/2/6 560/3/6 361/11/6
f 560/3/6 360/2/6 354/1/6
f 406/3/1 446/2/1 404/1/1
f 446/3/1 406/2/1 445/1/1
f 362/3/2 406/2/2 404/1/2
f 406/3/2 362/2/2 361/1/2
f 563/5/3 446/385/3 445/5/3
f 446/385/3 563/5/3 564/506/3
f 563/5/4 362/308/4 564/507/4
f 362/308/4 563/5/4 361/5/4
f 362/310/5 446/388/5 564/508/5
f 446/388/5 362/310/5 404/5/5
f 406/2/6 563/3/6 445/11/6
f 563/3/6 406/2/6 361/1/6
f 293/3/1 548/2/1 294/1/1
f 548/3/1 293/2/1 547/1/1
f 446/3/2 293/2/2 294/1/2
f 293/3/2 446/2/2 445/1/2
f 565/5/3 548/489/3 547/5/3
f 548/489/3 565/5/3 566/509/3
f 565/5/4 446/386/4 566/510/4
f 446/386/4 565/5/4 445/5/4
f 446/388/5 548/491/5 566/511/5
f 548/491/5 446/388/5 294/243/5
f 293/2/6 565/3/6 547/11/6
f 565/3/6 293/2/6 445/1/6

