# Created by Kenney (www.kenney.nl)

mtllib Blaster GBE Mk1.mtl

v 6 -3 -0.5
v 7 -3 -0.5
v 6 -2 -0.5
v 7 -2.5 -0.5
v 6.5 -2 -0.5
v 7 -2.5 0.5
v 6.5 -2 0.5
v 7 -3 0.5
v 6 -3 0.5
v 6 -2 0.5
v 5 0 -1
v 6 0 -1
v 5 1 -1
v 6 0.5 -1
v 5.5 1 -1
v 6 0.5 1
v 5.5 1 1
v 6 0 1
v 5 0 1
v 5 1 1
v 5 -2 -0.5
v 5 -1 -0.5
v 6 -1.5 -0.5
v 5.5 -1 -0.5
v 6 -1.5 0.5
v 5.5 -1 0.5
v 5 -2 0.5
v 5 -1 0.5
v 5 0 -0.5
v 5 0 0.5
v 4 0 -0.5
v 4 0 0.5
v 4 -1 0.5
v 4 -1 -0.5
v 7 -4 -0.5
v 7 -4 0.5
v 6 -4 0.5
v 6 -4 -0.5
v 5 -5 1
v 5 -4 1
v 6 -4.5 1
v 6 -4 1
v 6 -4 -1
v 6 -4.5 -1
v 5 -4 -1
v 5 -5 -1
v 1 0 -1
v 1 -1 -1
v 1 0 1
v 1 -1 1
v -5 0 -1
v -5 0 1
v -5 -1 1
v -5 -1 -1
v 5 -1 -1
v 5 -3 -1
v 5 -1 1
v 5 -3 1
v 4 -1 -1
v 4 -1 1
v 4 -3 1
v 4 -3 -1
v 4 -2 -0.5
v 4 -2 0.5
v 3 -1 -0.5
v 3 -1 0.5
v 3 -2 0.5
v 3 -2 -0.5
v 6 -2 -1
v 6 -2 1
v 5 -2 -1
v 5 -2 1
v 4 2 -0.5
v 5 2 -0.5
v 4 3 -0.5
v 5 2.5 -0.5
v 4.5 3 -0.5
v 5 2.5 0.5
v 4.5 3 0.5
v 5 2 0.5
v 4 2 0.5
v 4 3 0.5
v 3 3 -1
v 4 3 -1
v 3 4 -1
v 4 3.5 -1
v 3.5 4 -1
v 4 3.5 1
v 3.5 4 1
v 4 3 1
v 3 3 1
v 3 4 1
v 4 -3 -0.5
v 4 -3 0.5
v 4 -4 -1
v 4 -5 -1
v 4 -4 1
v 4 -5 1
v 3.5 -4 -1
v 3.5 -4 1
v 3 -5 -1
v 3 -4.5 -1
v 3 -5 1
v 3 -4.5 1
v -5 -1 -0.5
v -5 -2 -0.5
v -5 -1 0.5
v -5 -2 0.5
v -5.5 -2 0.5
v -5.5 -2 -0.5
v -5.5 -1 -0.5
v -5.5 -1 0.5
v 4 0 -1
v 4 0 1
v 3 0 -1
v 3 0 1
v 3 -1 1
v 3 -1 -1
v 1 -1 -0.5
v 1 -1 0.5
v 1 -2 0.5
v 1 -2 -0.5
v -5 0 -0.5
v -5 0 0.5
v -5.5 0 -0.5
v -5.5 0 0.5
v -6 3 -1
v -6 2 -1
v -6 3 1
v -6 2 1
v -6.5 2 1
v -6.5 2 -1
v -6.5 3 -1
v -6.5 3 1
v -6 1 -1
v -6 1 1
v -6.5 1 1
v -6.5 1 -1
v 3 4 -1.5
v 3 2 -1.5
v 3 4 1.5
v 3 2 1.5
v -6 4 -1.5
v -6 4 1.5
v -6 2 1.5
v -6 2 -1.5
v 5 1 -1.5
v 5 0 -1.5
v 5 1 1.5
v 5 0 1.5
v -6 1 -1.5
v -6 1 1.5
v -6 0 1.5
v -6 0 -1.5
v 1 -2 -1
v 1 -2 1
v -5 -2 1
v -5 -2 -1
v 4 2 -1
v 4 2 1
v 3 2 1
v 3 2 -1
v 5 2 -1
v 5 2 1
v 4 1 1
v 4 1 -1
v 4 2 -1.5
v 4 1 -1.5
v 4 2 1.5
v 4 1 1.5

vn 0 0 -1
vn 0.7071068 0.7071068 0
vn 0 -1 0
vn -1 0 0
vn 1 0 0
vn 0 1 0
vn 0 0 1
vn 0.7071068 0.7071068 0
vn 0.4472136 -0.8944272 0
vn -0.7071068 -0.7071068 0
vn -0.7071068 0.7071068 0

vt 0 0
vt NaN 0
vt NaN 0
vt NaN 0
vt 2.932868E-07 19.68504
vt 19.68504 3.338967E-11
vt -19.68504 19.68504
vt -19.68504 -19.68504
vt 19.68504 -19.68504
vt NaN 0
vt NaN 0
vt NaN 0
vt NaN 0
vt NaN 0
vt 19.68504 19.68504
vt 0 NaN
vt 0 NaN
vt 0 NaN
vt 0 NaN
vt 0 NaN
vt 0 NaN
vt 0 NaN
vt 0 NaN
vt 0 NaN
vt 0 NaN
vt -19.68504 -19.68504
vt -19.68504 19.68504
vt 19.68504 -1.173326E-06
vt 19.68504 19.68504
vt 0 NaN
vt 0 NaN
vt 0 NaN
vt 0 NaN
vt 0 NaN
vt 0 NaN
vt 0 NaN
vt 0 NaN
vt 0 NaN
vt 0 NaN
vt 0 NaN
vt 0 NaN
vt 0 NaN
vt 0 NaN
vt 0 NaN
vt 0 NaN
vt 0 NaN
vt 0 NaN
vt 0 NaN
vt 0 NaN
vt 0 NaN
vt NaN 0
vt NaN 0
vt NaN 0
vt NaN 0
vt NaN 0
vt NaN 0
vt NaN 0
vt -1.268826E-15 19.68504
vt -19.68504 -9.747377E-12
vt 0 NaN
vt 0 NaN
vt -6.387779E-12 19.68504
vt 0 NaN
vt 0 NaN
vt 0 NaN
vt 0 NaN
vt 0 NaN
vt 0 NaN
vt 0 NaN
vt 0 NaN
vt 2.285105E-11 -19.68504
vt 0 NaN
vt 0 NaN
vt 0 NaN
vt 0 NaN
vt 0 NaN
vt 0 NaN
vt 0 NaN
vt 0 NaN
vt 0 NaN
vt 0 NaN
vt 0 NaN
vt 0 NaN
vt 0 NaN
vt 0 NaN
vt 0 NaN
vt 0 NaN
vt 0 NaN
vt 0 NaN
vt 0 NaN
vt 0 NaN
vt 0 NaN
vt 0 NaN
vt 0 NaN
vt 0 NaN
vt 0 NaN
vt 0 NaN
vt 0 NaN
vt 0 NaN
vt 0 NaN
vt 0 NaN
vt 0 NaN
vt 0 NaN
vt 0 NaN
vt 0 NaN
vt 0 NaN
vt 0 NaN
vt 0 NaN
vt 0 NaN
vt 0 NaN
vt 0 NaN
vt 0 NaN
vt 0 NaN
vt 0 NaN
vt 0 NaN
vt 0 NaN
vt 0 NaN
vt 0 NaN
vt 0 NaN
vt 0 NaN
vt 0 NaN
vt 0 NaN
vt 0 NaN
vt 0 NaN
vt 0 NaN
vt 0 NaN
vt 0 NaN
vt 0 NaN
vt 0 NaN
vt 0 NaN
vt 0 NaN
vt 0 NaN

usemtl color3

f 3/1/1 2/2/1 1/1/1
f 2/2/1 3/1/1 4/1/1
f 4/1/1 3/1/1 5/1/1
f 5/1/2 6/3/2 4/1/2
f 6/3/2 5/1/2 7/1/2
f 9/1/3 2/4/3 8/1/3
f 2/4/3 9/1/3 1/1/3
f 9/7/4 3/6/4 1/5/4
f 3/7/4 9/6/4 10/5/4
f 4/7/5 8/6/5 2/5/5
f 8/7/5 4/6/5 6/5/5
f 3/7/6 7/6/6 5/5/6
f 7/7/6 3/6/6 10/5/6
f 8/9/7 10/7/7 9/8/7
f 10/7/7 8/9/7 6/6/7
f 10/7/7 6/6/7 7/5/7
f 13/1/1 12/10/1 11/1/1
f 12/10/1 13/1/1 14/1/1
f 14/1/1 13/1/1 15/1/1
f 15/1/8 16/11/8 14/1/8
f 16/11/8 15/1/8 17/1/8
f 19/1/3 12/12/3 18/1/3
f 12/12/3 19/1/3 11/1/3
f 19/7/4 13/6/4 11/5/4
f 13/7/4 19/6/4 20/5/4
f 14/7/5 18/6/5 12/5/5
f 18/7/5 14/6/5 16/5/5
f 13/7/6 17/6/6 15/5/6
f 17/7/6 13/6/6 20/5/6
f 18/9/7 20/7/7 19/8/7
f 20/7/7 18/9/7 16/6/7
f 20/7/7 16/6/7 17/5/7
f 22/1/1 3/1/1 21/1/1
f 3/1/1 22/1/1 23/1/1
f 23/1/1 22/1/1 24/1/1
f 24/1/2 25/13/2 23/1/2
f 25/13/2 24/1/2 26/1/2
f 27/1/3 3/14/3 10/1/3
f 3/14/3 27/1/3 21/1/3
f 27/7/4 22/6/4 21/5/4
f 22/7/4 27/6/4 28/5/4
f 23/7/5 10/6/5 3/5/5
f 10/7/5 23/6/5 25/5/5
f 22/7/6 26/6/6 24/5/6
f 26/7/6 22/6/6 28/5/6
f 10/9/7 28/7/7 27/8/7
f 28/7/7 10/9/7 25/6/7
f 28/7/7 25/6/7 26/5/7
f 30/8/5 22/15/5 29/7/5
f 22/8/5 30/15/5 28/7/5
f 31/8/6 30/15/6 29/7/6
f 30/8/6 31/15/6 32/7/6
f 33/1/3 22/1/3 28/16/3
f 22/1/3 33/1/3 34/17/3
f 33/1/4 31/1/4 34/18/4
f 31/1/4 33/1/4 32/19/4
f 31/1/1 22/1/1 34/20/1
f 22/1/1 31/1/1 29/21/1
f 30/15/7 33/8/7 28/9/7
f 33/8/7 30/15/7 32/7/7
f 8/8/5 35/15/5 2/7/5
f 35/8/5 8/15/5 36/7/5
f 1/8/6 8/15/6 2/7/6
f 8/8/6 1/15/6 9/7/6
f 37/1/3 35/1/3 36/22/3
f 35/1/3 37/1/3 38/23/3
f 37/1/4 1/1/4 38/24/4
f 1/1/4 37/1/4 9/7/4
f 1/1/1 35/1/1 38/25/1
f 35/1/1 1/1/1 2/2/1
f 8/15/7 37/8/7 36/9/7
f 37/8/7 8/15/7 9/7/7

usemtl color1

f 41/28/7 40/27/7 39/26/7
f 40/27/7 41/28/7 42/29/7
f 42/27/5 44/28/5 43/29/5
f 44/27/5 42/28/5 41/29/5
f 45/27/6 42/28/6 43/29/6
f 42/27/6 45/28/6 40/29/6
f 39/27/9 44/28/9 41/29/9
f 44/27/9 39/28/9 46/29/9
f 45/27/1 44/28/1 46/29/1
f 44/27/1 45/28/1 43/29/1
f 39/27/4 45/28/4 46/29/4
f 45/27/4 39/28/4 40/29/4
f 49/8/5 48/15/5 47/7/5
f 48/8/5 49/15/5 50/7/5
f 51/8/6 49/15/6 47/7/6
f 49/8/6 51/15/6 52/7/6
f 53/1/3 48/1/3 50/30/3
f 48/1/3 53/1/3 54/31/3
f 53/1/4 51/1/4 54/32/4
f 51/1/4 53/1/4 52/33/4
f 51/1/1 48/1/1 54/34/1
f 48/1/1 51/1/1 47/35/1
f 49/15/7 53/8/7 50/9/7
f 53/8/7 49/15/7 52/7/7
f 57/8/5 56/15/5 55/7/5
f 56/8/5 57/15/5 58/7/5
f 59/8/6 57/15/6 55/7/6
f 57/8/6 59/15/6 60/7/6
f 61/1/3 56/1/3 58/36/3
f 56/1/3 61/1/3 62/37/3
f 61/1/4 59/1/4 62/38/4
f 59/1/4 61/1/4 60/39/4
f 59/1/1 56/1/1 62/40/1
f 56/1/1 59/1/1 55/41/1
f 57/15/7 61/8/7 58/9/7
f 61/8/7 57/15/7 60/7/7
f 33/8/5 63/15/5 34/7/5
f 63/8/5 33/15/5 64/7/5
f 65/8/6 33/15/6 34/7/6
f 33/8/6 65/15/6 66/7/6
f 67/1/3 63/1/3 64/42/3
f 63/1/3 67/1/3 68/43/3
f 67/1/4 65/1/4 68/44/4
f 65/1/4 67/1/4 66/45/4
f 65/1/1 63/1/1 68/46/1
f 63/1/1 65/1/1 34/20/1
f 33/15/7 67/8/7 64/9/7
f 67/8/7 33/15/7 66/7/7
f 70/8/5 43/29/5 69/7/5
f 43/8/5 70/15/5 42/27/5
f 71/8/6 70/15/6 69/7/6
f 70/8/6 71/15/6 72/7/6
f 40/1/3 43/1/3 42/47/3
f 43/1/3 40/1/3 45/48/3
f 40/1/4 71/1/4 45/28/4
f 71/1/4 40/1/4 72/49/4
f 71/1/1 43/1/1 45/27/1
f 43/1/1 71/1/1 69/50/1
f 70/15/7 40/8/7 42/9/7
f 40/8/7 70/15/7 72/7/7

usemtl color9

f 75/1/1 74/51/1 73/1/1
f 74/51/1 75/1/1 76/1/1
f 76/1/1 75/1/1 77/1/1
f 77/1/2 78/52/2 76/1/2
f 78/52/2 77/1/2 79/1/2
f 81/1/3 74/53/3 80/1/3
f 74/53/3 81/1/3 73/1/3
f 81/7/4 75/6/4 73/5/4
f 75/7/4 81/6/4 82/5/4
f 76/7/5 80/6/5 74/5/5
f 80/7/5 76/6/5 78/5/5
f 75/7/6 79/6/6 77/5/6
f 79/7/6 75/6/6 82/5/6
f 80/9/7 82/7/7 81/8/7
f 82/7/7 80/9/7 78/6/7
f 82/7/7 78/6/7 79/5/7

usemtl color10

f 85/1/1 84/54/1 83/1/1
f 84/54/1 85/1/1 86/1/1
f 86/1/1 85/1/1 87/1/1
f 87/1/8 88/55/8 86/1/8
f 88/55/8 87/1/8 89/1/8
f 91/1/3 84/56/3 90/1/3
f 84/56/3 91/1/3 83/1/3
f 91/7/4 85/6/4 83/5/4
f 85/7/4 91/6/4 92/5/4
f 86/7/5 90/6/5 84/5/5
f 90/7/5 86/6/5 88/5/5
f 85/7/6 89/6/6 87/5/6
f 89/7/6 85/6/6 92/5/6
f 90/9/7 92/7/7 91/8/7
f 92/7/7 90/9/7 88/6/7
f 92/7/7 88/6/7 89/5/7

usemtl color2

f 64/1/5 93/57/5 63/1/5
f 93/57/5 64/7/5 94/1/5
f 94/7/10 68/9/10 93/15/10
f 68/7/10 94/9/10 67/15/10
f 68/46/1 63/9/1 93/15/1
f 68/7/6 64/9/6 63/15/6
f 64/7/6 68/9/6 67/15/6
f 67/7/7 94/9/7 64/15/7
f 97/59/5 96/15/5 95/58/5
f 96/59/5 97/15/5 98/58/5
f 99/59/6 97/15/6 95/58/6
f 97/59/6 99/15/6 100/58/6
f 103/59/4 102/15/4 101/58/4
f 102/59/4 103/15/4 104/58/4
f 102/59/1 96/15/1 101/58/1
f 96/59/1 102/15/1 95/58/1
f 95/59/1 102/15/1 99/58/1
f 104/59/11 99/15/11 102/58/11
f 99/59/11 104/15/11 100/58/11
f 103/1/3 96/1/3 98/60/3
f 96/1/3 103/1/3 101/61/3
f 97/15/7 103/8/7 98/9/7
f 103/8/7 97/15/7 104/59/7
f 104/59/7 97/15/7 100/58/7
f 107/62/5 106/9/5 105/15/5
f 106/62/5 107/9/5 108/15/5
f 109/1/3 106/1/3 108/63/3
f 106/1/3 109/1/3 110/64/3
f 111/1/1 106/1/1 110/65/1
f 106/1/1 111/1/1 105/66/1
f 109/1/4 111/1/4 110/67/4
f 111/1/4 109/1/4 112/68/4
f 111/1/6 107/1/6 105/69/6
f 107/1/6 111/1/6 112/70/6
f 108/9/7 112/62/7 109/71/7
f 112/62/7 108/9/7 107/15/7
f 114/8/5 59/15/5 113/7/5
f 59/8/5 114/15/5 60/7/5
f 115/8/6 114/15/6 113/7/6
f 114/8/6 115/15/6 116/7/6
f 117/1/3 59/1/3 60/72/3
f 59/1/3 117/1/3 118/73/3
f 117/1/4 115/1/4 118/74/4
f 115/1/4 117/1/4 116/75/4
f 115/1/1 59/1/1 118/76/1
f 59/1/1 115/1/1 113/77/1
f 114/15/7 117/8/7 60/9/7
f 117/8/7 114/15/7 116/7/7
f 66/8/5 68/15/5 65/7/5
f 68/8/5 66/15/5 67/7/5
f 119/8/6 66/15/6 65/7/6
f 66/8/6 119/15/6 120/7/6
f 121/1/3 68/43/3 67/1/3
f 68/43/3 121/1/3 122/78/3
f 121/1/4 119/1/4 122/79/4
f 119/1/4 121/1/4 120/80/4
f 119/1/1 68/46/1 122/81/1
f 68/46/1 119/1/1 65/1/1
f 66/15/7 121/8/7 67/9/7
f 121/8/7 66/15/7 120/7/7
f 58/8/5 46/15/5 56/7/5
f 46/8/5 58/15/5 39/7/5
f 62/8/6 58/15/6 56/7/6
f 58/8/6 62/15/6 61/7/6
f 98/60/3 46/1/3 39/82/3
f 46/1/3 98/60/3 96/1/3
f 98/1/4 62/38/4 96/83/4
f 62/38/4 98/1/4 61/1/4
f 62/40/1 46/1/1 96/15/1
f 46/1/1 62/40/1 56/1/1
f 58/15/7 98/8/7 39/9/7
f 98/8/7 58/15/7 61/7/7

usemtl color5

f 124/62/5 105/9/5 123/15/5
f 105/62/5 124/9/5 107/15/5
f 112/1/3 105/1/3 107/84/3
f 105/1/3 112/1/3 111/85/3
f 125/1/1 105/66/1 111/1/1
f 105/66/1 125/1/1 123/86/1
f 112/68/4 125/1/4 111/1/4
f 125/1/4 112/68/4 126/87/4
f 125/1/6 124/1/6 123/88/6
f 124/1/6 125/1/6 126/89/6
f 107/9/7 126/62/7 112/71/7
f 126/62/7 107/9/7 124/15/7

usemtl color8

f 129/62/5 128/9/5 127/15/5
f 128/62/5 129/9/5 130/15/5
f 131/1/3 128/1/3 130/90/3
f 128/1/3 131/1/3 132/91/3
f 133/1/1 128/1/1 132/92/1
f 128/1/1 133/1/1 127/93/1
f 131/1/4 133/1/4 132/94/4
f 133/1/4 131/1/4 134/95/4
f 133/1/6 129/1/6 127/96/6
f 129/1/6 133/1/6 134/97/6
f 130/9/7 134/62/7 131/71/7
f 134/62/7 130/9/7 129/15/7
f 130/62/5 135/9/5 128/15/5
f 135/62/5 130/9/5 136/15/5
f 137/1/3 135/1/3 136/98/3
f 135/1/3 137/1/3 138/99/3
f 132/92/1 135/1/1 138/100/1
f 135/1/1 132/92/1 128/1/1
f 137/1/4 132/94/4 138/101/4
f 132/94/4 137/1/4 131/1/4
f 132/1/6 130/1/6 128/102/6
f 130/1/6 132/1/6 131/103/6
f 136/9/7 131/62/7 137/71/7
f 131/62/7 136/9/7 130/15/7

usemtl color4

f 141/8/5 140/15/5 139/7/5
f 140/8/5 141/15/5 142/7/5
f 143/8/6 141/15/6 139/7/6
f 141/8/6 143/15/6 144/7/6
f 145/1/3 140/1/3 142/104/3
f 140/1/3 145/1/3 146/105/3
f 145/1/4 143/1/4 146/106/4
f 143/1/4 145/1/4 144/107/4
f 143/1/1 140/1/1 146/108/1
f 140/1/1 143/1/1 139/109/1
f 141/15/7 145/8/7 142/9/7
f 145/8/7 141/15/7 144/7/7
f 149/8/5 148/15/5 147/7/5
f 148/8/5 149/15/5 150/7/5
f 151/8/6 149/15/6 147/7/6
f 149/8/6 151/15/6 152/7/6
f 153/1/3 148/1/3 150/110/3
f 148/1/3 153/1/3 154/111/3
f 153/1/4 151/1/4 154/112/4
f 151/1/4 153/1/4 152/113/4
f 151/1/1 148/1/1 154/114/1
f 148/1/1 151/1/1 147/115/1
f 149/15/7 153/8/7 150/9/7
f 153/8/7 149/15/7 152/7/7
f 50/8/5 155/15/5 48/7/5
f 155/8/5 50/15/5 156/7/5
f 54/8/6 50/15/6 48/7/6
f 50/8/6 54/15/6 53/7/6
f 157/1/3 155/1/3 156/116/3
f 155/1/3 157/1/3 158/117/3
f 157/1/4 54/32/4 158/118/4
f 54/32/4 157/1/4 53/1/4
f 54/34/1 155/1/1 158/119/1
f 155/1/1 54/34/1 48/1/1
f 50/15/7 157/8/7 156/9/7
f 157/8/7 50/15/7 53/7/7

usemtl color6

f 90/8/5 159/15/5 84/7/5
f 159/8/5 90/15/5 160/7/5
f 83/8/6 90/15/6 84/7/6
f 90/8/6 83/15/6 91/7/6
f 161/1/3 159/1/3 160/120/3
f 159/1/3 161/1/3 162/121/3
f 161/1/4 83/1/4 162/122/4
f 83/1/4 161/1/4 91/7/4
f 83/1/1 159/1/1 162/123/1
f 159/1/1 83/1/1 84/54/1
f 90/15/7 161/8/7 160/9/7
f 161/8/7 90/15/7 91/7/7
f 164/8/5 13/15/5 163/7/5
f 13/8/5 164/15/5 20/7/5
f 159/8/6 164/15/6 163/7/6
f 164/8/6 159/15/6 160/7/6
f 165/1/3 13/1/3 20/124/3
f 13/1/3 165/1/3 166/125/3
f 165/1/4 159/1/4 166/126/4
f 159/1/4 165/1/4 160/127/4
f 159/1/1 13/1/1 166/128/1
f 13/1/1 159/1/1 163/129/1
f 164/15/7 165/8/7 20/9/7
f 165/8/7 164/15/7 160/7/7

usemtl color7

f 169/8/5 168/15/5 167/7/5
f 168/8/5 169/15/5 170/7/5
f 146/8/6 169/15/6 167/7/6
f 169/8/6 146/15/6 145/7/6
f 152/1/3 168/1/3 170/130/3
f 168/1/3 152/1/3 151/131/3
f 152/113/4 146/106/4 151/1/4
f 146/106/4 152/113/4 145/1/4
f 146/108/1 168/1/1 151/1/1
f 168/1/1 146/108/1 167/132/1
f 169/15/7 152/8/7 170/9/7
f 152/8/7 169/15/7 145/7/7

