# Created by Kenney (www.kenney.nl)

mtllib Blaster 4XZ Bumola.mtl

v -2 8 -1
v -2 7 -1
v -2 8 1
v -2 7 1
v -3 8 -1
v -3 8 1
v -3 7 1
v -3 7 -1
v -1 7 -1
v -1 6 -1
v -1 7 1
v -1 6 1
v -2 6 1
v -2 6 -1
v -3 7 -0.5
v -3 6 -0.5
v -3 7 0.5
v -3 6 0.5
v -4 7 -0.5
v -4 7 0.5
v -4 6 0.5
v -4 6 -0.5
v 10 6 -1
v 10 5 -1
v 10 6 1
v 10 5 1
v 6 6 -1
v 6 6 1
v 6 5 1
v 6 5 -1
v 11 5 -1
v 11 4 -1
v 11 5 1
v 11 4 1
v 10 4 1
v 10 4 -1
v 6 5 -0.5
v 6 4 -0.5
v 6 5 0.5
v 6 4 0.5
v 5 5 -0.5
v 5 5 0.5
v 5 4 0.5
v 5 4 -0.5
v 6 4 -1
v 6 3 -1
v 6 4 1
v 6 3 1
v 5 4 -1
v 5 4 1
v 5 3 1
v 5 3 -1
v 0 4 -1
v 0 3 -1
v 0 4 1
v 0 3 1
v -1 4 -1
v -1 4 1
v -1 3 1
v -1 3 -1
v 7 2 -3
v 7 1 -3
v 7 2 3
v 7 1 3
v 6 2 -3
v 6 2 3
v 6 1 3
v 6 1 -3
v -2 2 -3
v -2 1 -3
v -2 2 3
v -2 1 3
v -3 2 -3
v -3 2 3
v -3 1 3
v -3 1 -3
v -11 2 -1.5
v -11 1 -1.5
v -11 2 1.5
v -11 1 1.5
v -12 2 -1.5
v -12 2 1.5
v -12 1 1.5
v -12 1 -1.5
v 16 0 -1
v 16 -1 -1
v 16 0 1
v 16 -1 1
v 15 0 -1
v 15 0 1
v 15 -1 1
v 15 -1 -1
v 16 -2 -1
v 16 -3 -1
v 16 -2 1
v 16 -3 1
v 15 -2 -1
v 15 -2 1
v 15 -3 1
v 15 -3 -1
v -5 -2 -2
v -5 -3 -2
v -5 -2 2
v -5 -3 2
v -6 -2 -2
v -6 -2 2
v -6 -3 2
v -6 -3 -2
v -7 -2 -2
v -7 -3 -2
v -7 -2 2
v -7 -3 2
v -8 -2 -2
v -8 -2 2
v -8 -3 2
v -8 -3 -2
v -9 -2 -2
v -9 -3 -2
v -9 -2 2
v -9 -3 2
v -10 -2 -2
v -10 -2 2
v -10 -3 2
v -10 -3 -2
v -10 -3 -2.5
v -10 -4 -2.5
v -10 -3 2.5
v -10 -4 2.5
v -11 -3 -2.5
v -11 -3 2.5
v -11 -4 2.5
v -11 -4 -2.5
v -4 8 -1
v -4 8 1
v -4 7 1
v -4 7 -1
v 10 7 -0.5
v 10 6 -0.5
v 10 7 0.5
v 10 6 0.5
v 8 7 -0.5
v 8 7 0.5
v 8 6 0.5
v 8 6 -0.5
v 6 6 -0.5
v 6 6 0.5
v 5 6 -0.5
v 5 6 0.5
v 2 2 -3
v 2 1 -3
v 2 2 3
v 2 1 3
v 1 2 -3
v 1 2 3
v 1 1 3
v 1 1 -3
v -10 1 -2.5
v -10 0 -2.5
v -10 1 2.5
v -10 0 2.5
v -11 1 -2.5
v -11 1 2.5
v -11 0 2.5
v -11 0 -2.5
v 1 0 -3.5
v 1 -1 -3.5
v 1 0 3.5
v 1 -1 3.5
v 0 0 -3.5
v 0 0 3.5
v 0 -1 3.5
v 0 -1 -3.5
v -1 0 -3.5
v -1 -1 -3.5
v -1 0 3.5
v -1 -1 3.5
v -2 0 -3.5
v -2 0 3.5
v -2 -1 3.5
v -2 -1 -3.5
v -3 0 -2
v -3 -1 -2
v -3 0 2
v -3 -1 2
v -4 0 -2
v -4 0 2
v -4 -1 2
v -4 -1 -2
v -5 0 -2
v -5 -1 -2
v -5 0 2
v -5 -1 2
v -6 0 -2
v -6 0 2
v -6 -1 2
v -6 -1 -2
v -7 0 -2
v -7 -1 -2
v -7 0 2
v -7 -1 2
v -8 0 -2
v -8 0 2
v -8 -1 2
v -8 -1 -2
v -9 0 -2
v -9 -1 -2
v -9 0 2
v -9 -1 2
v -10 0 -2
v -10 0 2
v -10 -1 2
v -10 -1 -2
v 6 -1 -3.5
v 6 -2 -3.5
v 6 -1 3.5
v 6 -2 3.5
v 5 -1 -3.5
v 5 -1 3.5
v 5 -2 3.5
v 5 -2 -3.5
v 4 -1 -3.5
v 4 -2 -3.5
v 4 -1 3.5
v 4 -2 3.5
v 3 -1 -3.5
v 3 -1 3.5
v 3 -2 3.5
v 3 -2 -3.5
v 5 -3 -3
v 5 -4 -3
v 5 -3 3
v 5 -4 3
v 4 -3 -3
v 4 -3 3
v 4 -4 3
v 4 -4 -3
v 1 -3 -3
v 1 -4 -3
v 1 -3 3
v 1 -4 3
v 0 -3 -3
v 0 -3 3
v 0 -4 3
v 0 -4 -3
v -1 -3 -3
v -1 -4 -3
v -1 -3 3
v -1 -4 3
v -2 -3 -3
v -2 -3 3
v -2 -4 3
v -2 -4 -3
v 7 7 -0.5
v 7 7 0.5
v 7 6 0.5
v 7 6 -0.5
v 5 2 -3
v 5 2 3
v 5 1 3
v 5 1 -3
v 0 2 -3
v 0 2 3
v 0 1 3
v 0 1 -3
v -1 2 -3
v -1 1 -3
v -1 2 3
v -1 1 3
v 6 1 -3.5
v 6 0 -3.5
v 6 1 3.5
v 6 0 3.5
v 5 1 -3.5
v 5 1 3.5
v 5 0 3.5
v 5 0 -3.5
v 4 1 -3.5
v 4 0 -3.5
v 4 1 3.5
v 4 0 3.5
v 3 1 -3.5
v 3 1 3.5
v 3 0 3.5
v 3 0 -3.5
v 11 0 -2
v 11 -1 -2
v 11 0 2
v 11 -1 2
v 10 0 -2
v 10 0 2
v 10 -1 2
v 10 -1 -2
v 9 0 -2
v 9 -1 -2
v 9 0 2
v 9 -1 2
v 8 0 -2
v 8 0 2
v 8 -1 2
v 8 -1 -2
v 6 7 -0.5
v 6 7 0.5
v 10 -6 -2
v 10 -7 -2
v 10 -6 2
v 10 -7 2
v 9 -6 -2
v 9 -6 2
v 9 -7 2
v 9 -7 -2
v -3 6 1
v -3 6 -1
v 11 6 -0.5
v 11 5 -0.5
v 11 6 0.5
v 11 5 0.5
v 10 5 0.5
v 10 5 -0.5
v -1 5 -1
v -1 5 1
v -2 5 1
v -2 5 -1
v 12 5 -0.5
v 12 4 -0.5
v 12 5 0.5
v 12 4 0.5
v 11 4 0.5
v 11 4 -0.5
v 7 5 -1
v 7 4 -1
v 7 5 1
v 7 4 1
v -2 5 -0.5
v -2 3 -0.5
v -2 5 0.5
v -2 3 0.5
v -3 5 -0.5
v -3 5 0.5
v -3 3 0.5
v -3 3 -0.5
v 13 4 -0.5
v 13 2 -0.5
v 13 4 0.5
v 13 2 0.5
v 12 2 0.5
v 12 2 -0.5
v 7 3 -2
v 7 2 -2
v 7 3 2
v 7 2 2
v 5 3 -2
v 5 3 2
v 5 2 2
v 5 2 -2
v 4 3 -2
v 4 2 -2
v 4 3 2
v 4 2 2
v 1 3 -2
v 1 3 2
v 1 2 2
v 1 2 -2
v 0 3 -2
v 0 2 -2
v 0 3 2
v 0 2 2
v -1 3 -2
v -1 3 2
v -1 2 2
v -1 2 -2
v 13 2 -1.5
v 13 1 -1.5
v 13 2 1.5
v 13 1 1.5
v 12 2 -1.5
v 12 2 1.5
v 12 1 1.5
v 12 1 -1.5
v 8 2 -2
v 8 1 -2
v 8 2 2
v 8 1 2
v 7 1 2
v 7 1 -2
v -4 2 -0.5
v -4 1 -0.5
v -4 2 0.5
v -4 1 0.5
v -5 2 -0.5
v -5 2 0.5
v -5 1 0.5
v -5 1 -0.5
v -6 2 -0.5
v -6 1 -0.5
v -6 2 0.5
v -6 1 0.5
v -7 2 -0.5
v -7 2 0.5
v -7 1 0.5
v -7 1 -0.5
v -8 2 -0.5
v -8 1 -0.5
v -8 2 0.5
v -8 1 0.5
v -9 2 -0.5
v -9 2 0.5
v -9 1 0.5
v -9 1 -0.5
v 15 1 -1
v 15 1 1
v 13 1 -1
v 13 1 1
v 13 0 1
v 13 0 -1
v 12 1 -2.5
v 12 0 -2.5
v 12 1 2.5
v 12 0 2.5
v 7 1 -2.5
v 7 1 2.5
v 7 0 2.5
v 7 0 -2.5
v -3 1 -1.5
v -3 0 -1.5
v -3 1 1.5
v -3 0 1.5
v -4 1 -1.5
v -4 1 1.5
v -4 0 1.5
v -4 0 -1.5
v -5 1 -1.5
v -5 0 -1.5
v -5 1 1.5
v -5 0 1.5
v -6 1 -1.5
v -6 1 1.5
v -6 0 1.5
v -6 0 -1.5
v -7 1 -1.5
v -7 0 -1.5
v -7 1 1.5
v -7 0 1.5
v -8 1 -1.5
v -8 1 1.5
v -8 0 1.5
v -8 0 -1.5
v -9 1 -1.5
v -9 0 -1.5
v -9 1 1.5
v -9 0 1.5
v -10 1 -1.5
v -10 1 1.5
v -10 0 1.5
v -10 0 -1.5
v 13 0 -1.5
v 13 -1 -1.5
v 13 0 1.5
v 13 -1 1.5
v 12 0 -1.5
v 12 0 1.5
v 12 -1 1.5
v 12 -1 -1.5
v 16 -1 -1.5
v 16 -2 -1.5
v 16 -1 1.5
v 16 -2 1.5
v 13 -2 1.5
v 13 -2 -1.5
v 10 -1 -2.5
v 10 -2 -2.5
v 10 -1 2.5
v 10 -2 2.5
v 9 -1 -2.5
v 9 -1 2.5
v 9 -2 2.5
v 9 -2 -2.5
v 13 -3 -1.5
v 13 -3 1.5
v 12 -2 -1.5
v 12 -2 1.5
v 12 -3 1.5
v 12 -3 -1.5
v -3 -2 -2
v -3 -3 -2
v -3 -2 2
v -3 -3 2
v -4 -2 -2
v -4 -2 2
v -4 -3 2
v -4 -3 -2
v 15 -4 -1
v 15 -4 1
v 13 -3 -1
v 13 -3 1
v 13 -4 1
v 13 -4 -1
v -12 -4 -1
v -12 -5 -1
v -12 -4 1
v -12 -5 1
v -13 -4 -1
v -13 -4 1
v -13 -5 1
v -13 -5 -1
v -5 7 -0.5
v -5 7 0.5
v -5 6 0.5
v -5 6 -0.5
v 1 1 -3.5
v 1 1 3.5
v 0 1 -3.5
v 0 1 3.5
v -1 1 -3.5
v -1 1 3.5
v -2 1 -3.5
v -2 1 3.5
v 1 -2 -3.5
v 1 -2 3.5
v 0 -2 3.5
v 0 -2 -3.5
v -1 -2 -3.5
v -1 -2 3.5
v -2 -2 3.5
v -2 -2 -3.5
v 12 -5 -1
v 12 -6 -1
v 12 -5 1
v 12 -6 1
v 11 -5 -1
v 11 -5 1
v 11 -6 1
v 11 -6 -1
v 10 -5 -2
v 10 -5 2
v 9 -5 -2
v 9 -5 2
v 8 -5 -1
v 8 -6 -1
v 8 -5 1
v 8 -6 1
v 7 -5 -1
v 7 -5 1
v 7 -6 1
v 7 -6 -1
v -2 6 -0.5
v -2 6 0.5
v -2 3 1
v -2 3 -1
v 12 4 -1
v 12 2 -1
v 12 4 1
v 12 2 1
v 11 2 1
v 11 2 -1
v 7 3 -1
v 7 3 1
v 8 3 -2
v 8 3 2
v -3 3 -2
v -3 3 2
v -3 2 2
v -3 2 -2
v 12 2 -2
v 12 1 -2
v 12 2 2
v 12 1 2
v -2 -1 -3
v -2 -2 -3
v -2 -1 3
v -2 -2 3
v -3 -1 -3
v -3 -1 3
v -3 -2 3
v -3 -2 -3
v 13 -4 -1.5
v 13 -4 1.5
v 12 -4 1.5
v 12 -4 -1.5
v -10 2 -1.5
v -10 2 1.5
v -12 2 -1
v -12 1 -1
v -12 2 1
v -12 1 1
v -13 2 -1
v -13 2 1
v -13 1 1
v -13 1 -1
v 12 -2 -1
v 12 -3 -1
v 12 -2 1
v 12 -3 1
v 11 -2 -1
v 11 -2 1
v 11 -3 1
v 11 -3 -1
v 8 -2 -1
v 8 -3 -1
v 8 -2 1
v 8 -3 1
v 7 -2 -1
v 7 -2 1
v 7 -3 1
v 7 -3 -1
v 12 -7 -1
v 12 -7 1
v 11 -7 1
v 11 -7 -1
v 8 -7 -1
v 8 -7 1
v 7 -7 1
v 7 -7 -1
v 6 -3 -3
v 6 -4 -3
v 6 -3 3
v 6 -4 3
v 3 -3 -3
v 3 -3 3
v 3 -4 3
v 3 -4 -3
v -10 -4 -1.5
v -10 -5 -1.5
v -10 -4 1.5
v -10 -5 1.5
v -11 -4 -1.5
v -11 -4 1.5
v -11 -5 1.5
v -11 -5 -1.5
v 4 2 -3
v 4 2 3
v 4 1 3
v 4 1 -3
v 3 2 -3
v 3 1 -3
v 3 2 3
v 3 1 3
v 7 -2 -3
v 7 -2 3
v 6 -2 3
v 6 -2 -3
v 2 -2 -3
v 2 -2 3
v 1 -2 3
v 1 -2 -3
v 5 -2 -3
v 5 -2 3
v 4 -2 -3
v 4 -2 3
v 2 -3 3
v 2 -3 -3
v 5 -5 -3
v 5 -5 3
v 2 -4 -3
v 2 -4 3
v 2 -5 3
v 2 -5 -3
v 1 -5 -3
v 1 -5 3
v 0 -5 3
v 0 -5 -3
v -1 -5 -3
v -1 -5 3
v -2 -5 3
v -2 -5 -3
v 5 0 -3
v 5 0 3
v 4 0 3
v 4 0 -3
v 0 0 -3
v 0 0 3
v -1 0 3
v -1 0 -3
v -12 1 -2.5
v -12 1 2.5
v -12 0 2.5
v -12 0 -2.5
v 12 -2 -2.5
v 12 -2 2.5
v 11 0 -2.5
v 11 0 2.5
v 11 -2 2.5
v 11 -2 -2.5
v 8 0 -2.5
v 8 -2 -2.5
v 8 0 2.5
v 8 -2 2.5
v 7 -2 2.5
v 7 -2 -2.5
v 11 -1 -2.5
v 11 -1 2.5
v 8 -1 -2.5
v 8 -1 2.5
v 0 -1 -3
v 0 -2 -3
v 0 -1 3
v 0 -2 3
v -1 -1 -3
v -1 -1 3
v -1 -2 3
v -1 -2 -3
v 7 -3 -3
v 7 -4 -3
v 7 -3 3
v 7 -4 3
v -3 -3 -3
v -3 -3 3
v -3 -4 3
v -3 -4 -3
v -5 -3 -1.5
v -5 -4 -1.5
v -5 -3 1.5
v -5 -4 1.5
v -6 -3 -1.5
v -6 -3 1.5
v -6 -4 1.5
v -6 -4 -1.5
v -7 -3 -1.5
v -7 -4 -1.5
v -7 -3 1.5
v -7 -4 1.5
v -8 -3 -1.5
v -8 -3 1.5
v -8 -4 1.5
v -8 -4 -1.5
v -9 -3 -1.5
v -9 -4 -1.5
v -9 -3 1.5
v -9 -4 1.5
v -10 -3 -1.5
v -10 -3 1.5
v -12 -3 -2.5
v -12 -3 2.5
v -12 -4 2.5
v -12 -4 -2.5
v -8 -4 -0.5
v -8 -5 -0.5
v -8 -4 0.5
v -8 -5 0.5
v -9 -4 -0.5
v -9 -4 0.5
v -9 -5 0.5
v -9 -5 -0.5
v -12 -4 -1.5
v -12 -4 1.5
v -12 -5 1.5
v -12 -5 -1.5
v 4 -5 -2
v 4 -6 -2
v 4 -5 2
v 4 -6 2
v 3 -5 -2
v 3 -5 2
v 3 -6 2
v 3 -6 -2
v 1 -5 -2
v 1 -6 -2
v 1 -5 2
v 1 -6 2
v 0 -5 -2
v 0 -5 2
v 0 -6 2
v 0 -6 -2
v 3 0 -3
v 3 0 3
v 2 0 3
v 2 0 -3
v 4 -1 -3
v 4 -1 3
v 3 -1 3
v 3 -1 -3
v 5 -1 -3
v 5 -1 3
v 3 -2 -3
v 3 -2 3
v 2 -1 -3
v 2 -1 3
v 15 0 -2
v 15 -1 -2
v 15 0 2
v 15 -1 2
v 14 0 -2
v 14 0 2
v 14 -1 2
v 14 -1 -2
v -11 0 -2
v -11 -1 -2
v -11 0 2
v -11 -1 2
v -12 0 -2
v -12 0 2
v -12 -1 2
v -12 -1 -2
v 15 -2 -2
v 15 -3 -2
v 15 -2 2
v 15 -3 2
v 14 -2 -2
v 14 -2 2
v 14 -3 2
v 14 -3 -2
v -11 -2 -2
v -11 -3 -2
v -11 -2 2
v -11 -3 2
v -12 -2 -2
v -12 -2 2
v -12 -3 2
v -12 -3 -2
v -4 -3 -1.5
v -4 -4 -1.5
v -4 -3 1.5
v -4 -4 1.5
v -13 1 -2.5
v -13 1 2.5
v -13 0 2.5
v -13 0 -2.5
v -13 1 -1.5
v -13 0 -1.5
v -13 1 1.5
v -13 0 1.5
v -14 1 -1.5
v -14 1 1.5
v -14 0 1.5
v -14 0 -1.5
v -10 0 -3
v -10 -1 -3
v -10 0 3
v -10 -1 3
v -11 0 -3
v -11 0 3
v -11 -1 3
v -11 -1 -3
v -10 -2 -3
v -10 -3 -3
v -10 -2 3
v -10 -3 3
v -11 -2 -3
v -11 -2 3
v -11 -3 3
v -11 -3 -3
v -13 -3 -2.5
v -13 -3 2.5
v -13 -4 2.5
v -13 -4 -2.5
v -13 -3 -1.5
v -13 -4 -1.5
v -13 -3 1.5
v -13 -4 1.5
v -14 -3 -1.5
v -14 -3 1.5
v -14 -4 1.5
v -14 -4 -1.5
v 13 0 -2
v 13 0 2
v 13 -1 2
v 13 -1 -2
v -4 0 -2.5
v -4 -1 -2.5
v -4 0 2.5
v -4 -1 2.5
v -5 0 -2.5
v -5 0 2.5
v -5 -1 2.5
v -5 -1 -2.5
v -6 0 -2.5
v -6 -1 -2.5
v -6 0 2.5
v -6 -1 2.5
v -7 0 -2.5
v -7 0 2.5
v -7 -1 2.5
v -7 -1 -2.5
v -8 0 -2.5
v -8 -1 -2.5
v -8 0 2.5
v -8 -1 2.5
v -9 0 -2.5
v -9 0 2.5
v -9 -1 2.5
v -9 -1 -2.5
v -13 0 -1
v -13 -1 -1
v -13 0 1
v -13 -1 1
v -14 0 -1
v -14 0 1
v -14 -1 1
v -14 -1 -1
v 13 -2 -2
v 13 -2 2
v 13 -3 2
v 13 -3 -2
v -4 -2 -2.5
v -4 -3 -2.5
v -4 -2 2.5
v -4 -3 2.5
v -5 -2 -2.5
v -5 -2 2.5
v -5 -3 2.5
v -5 -3 -2.5
v -6 -2 -2.5
v -6 -3 -2.5
v -6 -2 2.5
v -6 -3 2.5
v -7 -2 -2.5
v -7 -2 2.5
v -7 -3 2.5
v -7 -3 -2.5
v -8 -2 -2.5
v -8 -3 -2.5
v -8 -2 2.5
v -8 -3 2.5
v -9 -2 -2.5
v -9 -2 2.5
v -9 -3 2.5
v -9 -3 -2.5
v -13 -2 -1
v -13 -3 -1
v -13 -2 1
v -13 -3 1
v -14 -2 -1
v -14 -2 1
v -14 -3 1
v -14 -3 -1
v 6 0 -3
v 6 -1 -3
v 6 0 3
v 6 -1 3
v 2 0 -3.5
v 2 0 3.5
v 2 -1 3.5
v 2 -1 -3.5
v -13 0 -2
v -13 0 2
v -13 -1 2
v -13 -1 -2
v -15 0 -1
v -15 0 1
v -15 -1 1
v -15 -1 -1
v -13 -2 -2
v -13 -2 2
v -13 -3 2
v -13 -3 -2
v -15 -2 -1
v -15 -2 1
v -15 -3 1
v -15 -3 -1
v -11 -1 -2.5
v -11 -2 -2.5
v -11 -1 2.5
v -11 -2 2.5
v -12 -1 -2.5
v -12 -1 2.5
v -12 -2 2.5
v -12 -2 -2.5
v -13 -1 -0.5
v -13 -2 -0.5
v -13 -1 0.5
v -13 -2 0.5
v -14 -1 -0.5
v -14 -1 0.5
v -14 -2 0.5
v -14 -2 -0.5
v 11 -2 -2
v 11 -3 -2
v 11 -2 2
v 11 -3 2
v 8 -2 -2
v 8 -2 2
v 8 -3 2
v 8 -3 -2
v 5 -5 -1.5
v 5 -6 -1.5
v 5 -5 1.5
v 5 -6 1.5
v 4 -5 -1.5
v 4 -5 1.5
v 4 -6 1.5
v 4 -6 -1.5
v 2 -5 -1.5
v 2 -6 -1.5
v 2 -5 1.5
v 2 -6 1.5
v 1 -5 -1.5
v 1 -5 1.5
v 1 -6 1.5
v 1 -6 -1.5
v 11 -6 -2
v 11 -7 -2
v 11 -6 2
v 11 -7 2
v 8 -6 -2
v 8 -6 2
v 8 -7 2
v 8 -7 -2
v 4 -6 -1
v 4 -7 -1
v 4 -6 1
v 4 -7 1
v 3 -6 -1
v 3 -6 1
v 3 -7 1
v 3 -7 -1
v 1 -6 -1
v 1 -7 -1
v 1 -6 1
v 1 -7 1
v 0 -6 -1
v 0 -6 1
v 0 -7 1
v 0 -7 -1
v -3 -3 -1.5
v -3 -4 -1.5
v -3 -3 1.5
v -3 -4 1.5
v 6 -5 -3
v 6 -5 3
v -4 -4 -0.5
v -4 -5 -0.5
v -4 -4 0.5
v -4 -5 0.5
v -5 -4 -0.5
v -5 -4 0.5
v -5 -5 0.5
v -5 -5 -0.5
v -6 -4 -0.5
v -6 -5 -0.5
v -6 -4 0.5
v -6 -5 0.5
v -7 -4 -0.5
v -7 -4 0.5
v -7 -5 0.5
v -7 -5 -0.5
v 11 -5 -2
v 11 -5 2
v 10 -3 -2
v 10 -3 2
v 9 -3 -2
v 9 -3 2
v 8 -5 2
v 8 -5 -2
v 2 -6 -1
v 2 -6 1
v 2 -7 1
v 2 -7 -1
v -1 -6 -1
v -1 -6 1
v -1 -7 1
v -1 -7 -1
v 2 -5 -2
v 2 -5 2
v 2 -6 2
v 2 -6 -2
v -1 -5 -2
v -1 -5 2
v -1 -6 2
v -1 -6 -2

vn 1 0 0
vn 0 1 0
vn 0 -1 0
vn -1 0 0
vn 0 0 -1
vn 0 0 1

vt -19.68504 19.68504
vt 19.68504 19.68504
vt -19.68504 -19.68504
vt 0 NaN
vt 0 0
vt 0 NaN
vt 0 NaN
vt 0 NaN
vt 0 NaN
vt 0 NaN
vt 19.68504 -19.68504
vt 0 NaN
vt 0 NaN
vt 0 NaN
vt 0 NaN
vt 0 NaN
vt 0 NaN
vt 0 NaN
vt 0 NaN
vt 0 NaN
vt 0 NaN
vt 0 NaN
vt 0 NaN
vt 0 NaN
vt 0 NaN
vt 0 NaN
vt 0 NaN
vt 0 NaN
vt 0 NaN
vt 0 NaN
vt 0 NaN
vt 0 NaN
vt 0 NaN
vt 0 NaN
vt 0 NaN
vt 0 NaN
vt 0 NaN
vt 0 NaN
vt 0 NaN
vt 0 NaN
vt 0 NaN
vt 0 NaN
vt 0 NaN
vt 0 NaN
vt 0 NaN
vt 0 NaN
vt 0 NaN
vt 0 NaN
vt 0 NaN
vt 0 NaN
vt 0 NaN
vt 0 NaN
vt 0 NaN
vt 0 NaN
vt 0 NaN
vt 0 NaN
vt 0 NaN
vt 0 NaN
vt 0 NaN
vt 0 NaN
vt 0 NaN
vt 0 NaN
vt 0 NaN
vt 0 NaN
vt 0 NaN
vt 0 NaN
vt 0 NaN
vt 0 NaN
vt 0 NaN
vt 0 NaN
vt 0 NaN
vt 0 NaN
vt 0 NaN
vt 0 NaN
vt 0 NaN
vt 0 NaN
vt 0 NaN
vt 0 NaN
vt 0 NaN
vt 0 NaN
vt 0 NaN
vt 0 NaN
vt 0 NaN
vt 0 NaN
vt 0 NaN
vt 0 NaN
vt 0 NaN
vt 0 NaN
vt 0 NaN
vt 0 NaN
vt 0 NaN
vt 0 NaN
vt 0 NaN
vt 0 NaN
vt 0 NaN
vt 0 NaN
vt 0 NaN
vt 0 NaN
vt 0 NaN
vt 0 NaN
vt 0 NaN
vt 0 NaN
vt 0 NaN
vt 0 NaN
vt 0 NaN
vt 0 NaN
vt 0 NaN
vt 0 NaN
vt 0 NaN
vt 0 NaN
vt 0 NaN
vt 0 NaN
vt 0 NaN
vt 0 NaN
vt 0 NaN
vt 0 NaN
vt 0 NaN
vt 0 NaN
vt 0 NaN
vt 0 NaN
vt 0 NaN
vt 0 NaN
vt 0 NaN
vt 0 NaN
vt 0 NaN
vt 0 NaN
vt 0 NaN
vt 0 NaN
vt 0 NaN
vt 0 NaN
vt 0 NaN
vt 0 NaN
vt 0 NaN
vt 0 NaN
vt 0 NaN
vt 0 NaN
vt 0 NaN
vt 0 NaN
vt 0 NaN
vt 0 NaN
vt 0 NaN
vt 0 NaN
vt 0 NaN
vt 0 NaN
vt 0 NaN
vt 0 NaN
vt 0 NaN
vt 0 NaN
vt 0 NaN
vt 0 NaN
vt 0 NaN
vt 0 NaN
vt 0 NaN
vt 0 NaN
vt 0 NaN
vt 0 NaN
vt 0 NaN
vt 0 NaN
vt 0 NaN
vt 0 NaN
vt 0 NaN
vt 0 NaN
vt 0 NaN
vt 0 NaN
vt 0 NaN
vt 0 NaN
vt 0 NaN
vt 0 NaN
vt 0 NaN
vt 0 NaN
vt 0 NaN
vt 0 NaN
vt 0 NaN
vt 0 NaN
vt 0 NaN
vt 0 NaN
vt 0 NaN
vt 0 NaN
vt 0 NaN
vt 0 NaN
vt 0 NaN
vt 0 NaN
vt 0 NaN
vt 0 NaN
vt 0 NaN
vt 0 NaN
vt 0 NaN
vt 0 NaN
vt 0 NaN
vt 0 NaN
vt 0 NaN
vt 0 NaN
vt 0 NaN
vt 0 NaN
vt 0 NaN
vt 0 NaN
vt 0 NaN
vt 0 NaN
vt 0 NaN
vt 0 NaN
vt 0 NaN
vt 0 NaN
vt 0 NaN
vt 0 NaN
vt 0 NaN
vt 0 NaN
vt 0 NaN
vt 0 NaN
vt 0 NaN
vt 0 NaN
vt 0 NaN
vt 0 NaN
vt 0 NaN
vt 0 NaN
vt 0 NaN
vt 0 NaN
vt 0 NaN
vt 0 NaN
vt 0 NaN
vt 0 NaN
vt 0 NaN
vt 0 NaN
vt 0 NaN
vt 0 NaN
vt 0 NaN
vt 0 NaN
vt 0 NaN
vt 0 NaN
vt 0 NaN
vt 0 NaN
vt 0 NaN
vt 0 NaN
vt 0 NaN
vt 0 NaN
vt 0 NaN
vt 0 NaN
vt 0 NaN
vt 0 NaN
vt 0 NaN
vt 0 NaN
vt 0 NaN
vt 0 NaN
vt 0 NaN
vt 0 NaN
vt 0 NaN
vt 0 NaN
vt 0 NaN
vt 0 NaN
vt 0 NaN
vt 0 NaN
vt 0 NaN
vt 0 NaN
vt 0 NaN
vt 0 NaN
vt 0 NaN
vt 0 NaN
vt 0 NaN
vt 0 NaN
vt 0 NaN
vt 0 NaN
vt 0 NaN
vt 0 NaN
vt 0 NaN
vt 0 NaN
vt 0 NaN
vt 0 NaN
vt 0 NaN
vt 0 NaN
vt 0 NaN
vt 0 NaN
vt 0 NaN
vt 0 NaN
vt 0 NaN
vt 0 NaN
vt 0 NaN
vt 0 NaN
vt 0 NaN
vt 0 NaN
vt 0 NaN
vt 0 NaN
vt 0 NaN
vt 0 NaN
vt 0 NaN
vt 0 NaN
vt 0 NaN
vt 0 NaN
vt 0 NaN
vt 0 NaN
vt 0 NaN
vt 0 NaN
vt 0 NaN
vt 0 NaN
vt 0 NaN
vt 0 NaN
vt 0 NaN
vt 0 NaN
vt 0 NaN
vt 0 NaN
vt 0 NaN
vt 0 NaN
vt 0 NaN
vt 0 NaN
vt 0 NaN
vt 0 NaN
vt 0 NaN
vt 0 NaN
vt 0 NaN
vt 0 NaN
vt 0 NaN
vt 0 NaN
vt 0 NaN
vt 0 NaN
vt 0 NaN
vt 0 NaN
vt 0 NaN
vt 0 NaN
vt 0 NaN
vt 0 NaN
vt 0 NaN
vt 0 NaN
vt 0 NaN
vt 0 NaN
vt 0 NaN
vt 0 NaN
vt 0 NaN
vt 0 NaN
vt 0 NaN
vt 0 NaN
vt 0 NaN
vt 0 NaN
vt 0 NaN
vt 0 NaN
vt 0 NaN
vt 0 NaN
vt 0 NaN
vt 0 NaN
vt 0 NaN
vt 0 NaN
vt 0 NaN
vt 0 NaN
vt 0 NaN
vt 0 NaN
vt 0 NaN
vt 0 NaN
vt 0 NaN
vt 0 NaN
vt 0 NaN
vt 0 NaN
vt 0 NaN
vt 0 NaN
vt 0 NaN
vt 0 NaN
vt 0 NaN
vt 0 NaN
vt 0 NaN
vt 0 NaN
vt 0 NaN
vt 0 NaN
vt 0 NaN
vt 0 NaN
vt 0 NaN
vt 0 NaN
vt 0 NaN
vt 0 NaN
vt 0 NaN
vt 0 NaN
vt 0 NaN
vt 0 NaN
vt 0 NaN
vt 0 NaN
vt 0 NaN
vt 0 NaN
vt 0 NaN
vt 0 NaN
vt 0 NaN
vt 0 NaN
vt 0 NaN
vt 0 NaN
vt 0 NaN
vt 0 NaN
vt 0 NaN
vt 0 NaN
vt 0 NaN
vt 0 NaN
vt 0 NaN
vt 0 NaN
vt 0 NaN
vt 0 NaN
vt 0 NaN
vt 0 NaN
vt 0 NaN
vt 0 NaN
vt 0 NaN
vt 0 NaN
vt 0 NaN
vt 0 NaN
vt 0 NaN
vt 0 NaN
vt 0 NaN
vt 0 NaN
vt 0 NaN
vt 0 NaN
vt 0 NaN
vt 0 NaN
vt 0 NaN
vt 0 NaN
vt 0 NaN
vt 0 NaN
vt 0 NaN
vt 0 NaN
vt 0 NaN
vt 0 NaN
vt 0 NaN
vt 0 NaN
vt 0 NaN
vt 0 NaN
vt 0 NaN
vt 0 NaN
vt 0 NaN
vt 0 NaN
vt 0 NaN
vt 0 NaN
vt 0 NaN
vt 0 NaN
vt 0 NaN
vt 0 NaN
vt 0 NaN
vt 0 NaN
vt 0 NaN
vt 0 NaN
vt 0 NaN
vt 0 NaN
vt 0 NaN
vt 0 NaN
vt 0 NaN
vt 0 NaN
vt 0 NaN
vt 0 NaN
vt 0 NaN
vt 0 NaN
vt 0 NaN
vt 0 NaN
vt 0 NaN
vt 0 NaN
vt 0 NaN
vt 0 NaN
vt 0 NaN
vt 0 NaN
vt 0 NaN
vt 0 NaN
vt 0 NaN
vt 0 NaN
vt 0 NaN
vt 0 NaN
vt 0 NaN
vt 0 NaN
vt 0 NaN
vt 0 NaN
vt 0 NaN
vt 0 NaN
vt 0 NaN
vt 0 NaN
vt 0 NaN
vt 0 NaN
vt 0 NaN
vt 0 NaN
vt 0 NaN
vt 0 NaN
vt 0 NaN
vt 0 NaN
vt 0 NaN
vt 0 NaN
vt 0 NaN
vt 0 NaN
vt 0 NaN
vt 0 NaN
vt 0 NaN
vt 0 NaN
vt 0 NaN
vt 0 NaN
vt 0 NaN
vt 0 NaN
vt 0 NaN
vt 0 NaN
vt 0 NaN
vt 0 NaN
vt 0 NaN
vt 0 NaN
vt 0 NaN
vt 0 NaN
vt 0 NaN
vt 0 NaN
vt 0 NaN
vt 0 NaN
vt 0 NaN
vt 0 NaN
vt 0 NaN
vt 0 NaN
vt 0 NaN
vt 0 NaN
vt 0 NaN
vt 0 NaN
vt 0 NaN
vt 0 NaN
vt 0 NaN
vt 0 NaN
vt 0 NaN
vt 0 NaN
vt 0 NaN
vt 0 NaN
vt 0 NaN
vt 0 NaN
vt 0 NaN
vt 0 NaN
vt 0 NaN
vt 0 NaN
vt 0 NaN
vt 0 NaN
vt 0 NaN
vt 0 NaN
vt 0 NaN
vt 0 NaN
vt 0 NaN
vt 0 NaN
vt 0 NaN
vt 0 NaN
vt 0 NaN
vt 0 NaN
vt 0 NaN
vt 0 NaN
vt 0 NaN
vt 0 NaN
vt 0 NaN
vt 0 NaN
vt 0 NaN
vt 0 NaN
vt 0 NaN
vt 0 NaN
vt 0 NaN
vt 0 NaN
vt 0 NaN
vt 0 NaN
vt 0 NaN
vt 0 NaN
vt 0 NaN
vt 0 NaN
vt 0 NaN
vt 0 NaN
vt 0 NaN
vt 0 NaN
vt 0 NaN
vt 0 NaN
vt 0 NaN
vt 0 NaN
vt 0 NaN
vt 0 NaN
vt 0 NaN
vt 0 NaN
vt 0 NaN
vt 0 NaN
vt 0 NaN
vt 0 NaN
vt 0 NaN
vt 0 NaN
vt 0 NaN
vt 0 NaN
vt 0 NaN
vt 0 NaN
vt 0 NaN
vt 0 NaN
vt 0 NaN
vt 0 NaN
vt 0 NaN
vt 0 NaN
vt 0 NaN
vt 0 NaN
vt 0 NaN
vt 0 NaN
vt 0 NaN
vt 0 NaN
vt 0 NaN
vt 0 NaN
vt 0 NaN
vt 0 NaN
vt 0 NaN
vt 0 NaN
vt 0 NaN
vt 0 NaN
vt 0 NaN
vt 0 NaN
vt 0 NaN
vt 0 NaN
vt 0 NaN
vt 0 NaN
vt 0 NaN
vt 0 NaN
vt 0 NaN
vt 0 NaN
vt 0 NaN
vt 0 NaN
vt 0 NaN
vt 0 NaN
vt 0 NaN
vt 0 NaN
vt 0 NaN
vt 0 NaN
vt 0 NaN
vt 0 NaN
vt 0 NaN
vt 0 NaN
vt 0 NaN
vt 0 NaN
vt 0 NaN
vt 0 NaN
vt 0 NaN
vt 0 NaN
vt 0 NaN
vt 0 NaN
vt 0 NaN
vt 0 NaN
vt 0 NaN
vt 0 NaN
vt 0 NaN
vt 0 NaN
vt 0 NaN
vt 0 NaN
vt 0 NaN
vt 0 NaN
vt 0 NaN
vt 0 NaN
vt 0 NaN
vt 0 NaN
vt 0 NaN
vt 0 NaN
vt 0 NaN
vt 0 NaN
vt 0 NaN
vt 0 NaN
vt 0 NaN
vt 0 NaN
vt 0 NaN
vt 0 NaN
vt 0 NaN
vt 0 NaN
vt 0 NaN
vt 0 NaN
vt 0 NaN
vt 0 NaN
vt 0 NaN
vt 0 NaN
vt 0 NaN
vt 0 NaN
vt 0 NaN
vt 0 NaN
vt 0 NaN
vt 0 NaN
vt 0 NaN
vt 0 NaN
vt 0 NaN
vt 0 NaN
vt 0 NaN
vt 0 NaN
vt 0 NaN
vt 0 NaN
vt 0 NaN
vt 0 NaN
vt 0 NaN
vt 0 NaN
vt 0 NaN
vt 0 NaN
vt 0 NaN
vt 0 NaN
vt 0 NaN
vt 0 NaN
vt 0 NaN
vt 0 NaN
vt 0 NaN
vt 0 NaN
vt 0 NaN
vt 0 NaN
vt 0 NaN
vt 0 NaN
vt 0 NaN
vt 0 NaN
vt 0 NaN
vt 0 NaN
vt 0 NaN
vt 0 NaN
vt 0 NaN
vt 0 NaN
vt 0 NaN
vt 0 NaN
vt 0 NaN
vt 0 NaN
vt 0 NaN
vt 0 NaN
vt 0 NaN
vt 0 NaN
vt 0 NaN
vt 0 NaN
vt 0 NaN
vt 0 NaN
vt 0 NaN
vt 0 NaN
vt 0 NaN
vt 0 NaN
vt 0 NaN
vt 0 NaN
vt 0 NaN
vt 0 NaN
vt 0 NaN
vt 0 NaN
vt 0 NaN
vt 0 NaN
vt 0 NaN
vt 0 NaN
vt 0 NaN
vt 0 NaN
vt 0 NaN
vt 0 NaN
vt 0 NaN
vt 0 NaN
vt 0 NaN
vt 0 NaN
vt 0 NaN
vt 0 NaN
vt 0 NaN
vt 0 NaN
vt 0 NaN
vt 0 NaN
vt 0 NaN
vt 0 NaN
vt 0 NaN
vt 0 NaN
vt 0 NaN
vt 0 NaN
vt 0 NaN
vt 0 NaN
vt 0 NaN
vt 0 NaN
vt 0 NaN
vt 0 NaN
vt 0 NaN
vt 0 NaN
vt 0 NaN
vt 0 NaN
vt 0 NaN
vt 0 NaN
vt 0 NaN
vt 0 NaN
vt 0 NaN
vt 0 NaN
vt 0 NaN
vt 0 NaN
vt 0 NaN
vt 0 NaN
vt 0 NaN
vt 0 NaN
vt 0 NaN
vt 0 NaN
vt 0 NaN
vt 0 NaN
vt 0 NaN
vt 0 NaN
vt 0 NaN
vt 0 NaN
vt 0 NaN
vt 0 NaN
vt 0 NaN
vt 0 NaN
vt 0 NaN
vt 0 NaN
vt 0 NaN
vt 0 NaN
vt 0 NaN
vt 0 NaN
vt 0 NaN
vt 0 NaN
vt 0 NaN
vt 0 NaN
vt 0 NaN
vt 0 NaN
vt 0 NaN
vt 0 NaN
vt 0 NaN
vt 0 NaN
vt 0 NaN
vt 0 NaN
vt 0 NaN
vt 0 NaN
vt 0 NaN
vt 0 NaN
vt 0 NaN
vt 0 NaN
vt 0 NaN
vt 0 NaN
vt 0 NaN
vt 0 NaN
vt 0 NaN
vt 0 NaN
vt 0 NaN
vt 0 NaN
vt 0 NaN
vt 0 NaN
vt 0 NaN
vt 0 NaN
vt 0 NaN
vt 0 NaN
vt 0 NaN
vt 0 NaN
vt 0 NaN
vt 0 NaN
vt 0 NaN
vt 0 NaN
vt 0 NaN
vt 0 NaN
vt 0 NaN
vt 0 NaN
vt 0 NaN
vt 0 NaN
vt 0 NaN
vt 0 NaN
vt 0 NaN
vt 0 NaN
vt 0 NaN
vt 0 NaN
vt 0 NaN
vt 0 NaN
vt 0 NaN
vt 0 NaN
vt 0 NaN
vt 0 NaN
vt 0 NaN
vt 0 NaN
vt 0 NaN
vt 0 NaN
vt 0 NaN
vt 0 NaN
vt 0 NaN
vt 0 NaN
vt 0 NaN
vt 0 NaN
vt 0 NaN
vt 0 NaN
vt 0 NaN
vt 0 NaN
vt 0 NaN
vt 0 NaN
vt 0 NaN
vt 0 NaN
vt 0 NaN
vt 0 NaN
vt 0 NaN
vt 0 NaN
vt 0 NaN
vt 0 NaN
vt 0 NaN
vt 0 NaN
vt 0 NaN
vt 0 NaN
vt 0 NaN
vt 0 NaN
vt 0 NaN
vt 0 NaN
vt 0 NaN
vt 0 NaN
vt 0 NaN
vt 0 NaN
vt 0 NaN
vt 0 NaN
vt 0 NaN
vt 0 NaN
vt 0 NaN
vt 0 NaN
vt 0 NaN
vt 0 NaN
vt 0 NaN
vt 0 NaN
vt 0 NaN
vt 0 NaN
vt 0 NaN
vt 0 NaN
vt 0 NaN
vt 0 NaN
vt 0 NaN
vt 0 NaN
vt 0 NaN
vt 0 NaN
vt 0 NaN
vt 0 NaN
vt 0 NaN
vt 0 NaN
vt 0 NaN
vt 0 NaN
vt 0 NaN
vt 0 NaN
vt 0 NaN
vt 0 NaN
vt 0 NaN
vt 0 NaN
vt 0 NaN
vt 0 NaN
vt 0 NaN
vt 0 NaN
vt 0 NaN
vt 0 NaN
vt 0 NaN
vt 0 NaN
vt 0 NaN
vt 0 NaN
vt 0 NaN
vt 0 NaN
vt 0 NaN
vt 0 NaN
vt 0 NaN
vt 0 NaN
vt 0 NaN
vt 0 NaN
vt 0 NaN
vt 0 NaN
vt 0 NaN
vt 0 NaN
vt 0 NaN
vt 0 NaN
vt 0 NaN
vt 0 NaN
vt 0 NaN
vt 0 NaN
vt 0 NaN
vt 0 NaN
vt 0 NaN
vt 0 NaN
vt 0 NaN
vt 0 NaN
vt 0 NaN
vt 0 NaN
vt 0 NaN
vt 0 NaN
vt 0 NaN
vt 0 NaN
vt 0 NaN
vt 0 NaN
vt 0 NaN
vt 0 NaN
vt 0 NaN
vt 0 NaN
vt 0 NaN
vt 0 NaN
vt 0 NaN
vt 0 NaN
vt 0 NaN
vt 0 NaN
vt 0 NaN
vt 0 NaN
vt 0 NaN
vt 0 NaN
vt 0 NaN
vt 0 NaN
vt 0 NaN
vt 0 NaN
vt 0 NaN
vt 0 NaN
vt 0 NaN
vt 0 NaN
vt 0 NaN
vt 0 NaN

usemtl color19

f 3/3/1 2/2/1 1/1/1
f 2/3/1 3/2/1 4/1/1
f 5/3/2 3/2/2 1/1/2
f 3/3/2 5/2/2 6/1/2
f 7/5/3 2/5/3 4/4/3
f 2/5/3 7/5/3 8/6/3
f 7/5/4 5/5/4 8/7/4
f 5/5/4 7/5/4 6/8/4
f 5/5/5 2/5/5 8/9/5
f 2/5/5 5/5/5 1/10/5
f 3/2/6 7/3/6 4/11/6
f 7/3/6 3/2/6 6/1/6
f 3/3/1 2/2/1 1/1/1
f 2/3/1 3/2/1 4/1/1
f 5/3/2 3/2/2 1/1/2
f 3/3/2 5/2/2 6/1/2
f 7/5/3 2/5/3 4/4/3
f 2/5/3 7/5/3 8/6/3
f 7/5/4 5/5/4 8/7/4
f 5/5/4 7/5/4 6/8/4
f 5/5/5 2/5/5 8/9/5
f 2/5/5 5/5/5 1/10/5
f 3/2/6 7/3/6 4/11/6
f 7/3/6 3/2/6 6/1/6
f 11/3/1 10/2/1 9/1/1
f 10/3/1 11/2/1 12/1/1
f 2/3/2 11/2/2 9/1/2
f 11/3/2 2/2/2 4/1/2
f 13/5/3 10/5/3 12/12/3
f 10/5/3 13/5/3 14/13/3
f 13/5/4 2/5/4 14/14/4
f 2/5/4 13/5/4 4/15/4
f 2/5/5 10/5/5 14/16/5
f 10/5/5 2/5/5 9/17/5
f 11/2/6 13/3/6 12/11/6
f 13/3/6 11/2/6 4/1/6
f 17/3/1 16/2/1 15/1/1
f 16/3/1 17/2/1 18/1/1
f 19/3/2 17/2/2 15/1/2
f 17/3/2 19/2/2 20/1/2
f 21/5/3 16/5/3 18/18/3
f 16/5/3 21/5/3 22/19/3
f 21/5/4 19/5/4 22/20/4
f 19/5/4 21/5/4 20/21/4
f 19/5/5 16/5/5 22/22/5
f 16/5/5 19/5/5 15/23/5
f 17/2/6 21/3/6 18/11/6
f 21/3/6 17/2/6 20/1/6
f 25/3/1 24/2/1 23/1/1
f 24/3/1 25/2/1 26/1/1
f 27/3/2 25/2/2 23/1/2
f 25/3/2 27/2/2 28/1/2
f 29/5/3 24/5/3 26/24/3
f 24/5/3 29/5/3 30/25/3
f 29/5/4 27/5/4 30/26/4
f 27/5/4 29/5/4 28/27/4
f 27/5/5 24/5/5 30/28/5
f 24/5/5 27/5/5 23/29/5
f 25/2/6 29/3/6 26/11/6
f 29/3/6 25/2/6 28/1/6
f 33/3/1 32/2/1 31/1/1
f 32/3/1 33/2/1 34/1/1
f 24/3/2 33/2/2 31/1/2
f 33/3/2 24/2/2 26/1/2
f 35/5/3 32/5/3 34/30/3
f 32/5/3 35/5/3 36/31/3
f 35/5/4 24/5/4 36/32/4
f 24/5/4 35/5/4 26/33/4
f 24/5/5 32/5/5 36/34/5
f 32/5/5 24/5/5 31/35/5
f 33/2/6 35/3/6 34/11/6
f 35/3/6 33/2/6 26/1/6
f 39/3/1 38/2/1 37/1/1
f 38/3/1 39/2/1 40/1/1
f 41/3/2 39/2/2 37/1/2
f 39/3/2 41/2/2 42/1/2
f 43/5/3 38/5/3 40/36/3
f 38/5/3 43/5/3 44/37/3
f 43/5/4 41/5/4 44/38/4
f 41/5/4 43/5/4 42/39/4
f 41/5/5 38/5/5 44/40/5
f 38/5/5 41/5/5 37/41/5
f 39/2/6 43/3/6 40/11/6
f 43/3/6 39/2/6 42/1/6
f 47/3/1 46/2/1 45/1/1
f 46/3/1 47/2/1 48/1/1
f 49/3/2 47/2/2 45/1/2
f 47/3/2 49/2/2 50/1/2
f 51/5/3 46/5/3 48/42/3
f 46/5/3 51/5/3 52/43/3
f 51/5/4 49/5/4 52/44/4
f 49/5/4 51/5/4 50/45/4
f 49/5/5 46/5/5 52/46/5
f 46/5/5 49/5/5 45/47/5
f 47/2/6 51/3/6 48/11/6
f 51/3/6 47/2/6 50/1/6
f 55/3/1 54/2/1 53/1/1
f 54/3/1 55/2/1 56/1/1
f 57/3/2 55/2/2 53/1/2
f 55/3/2 57/2/2 58/1/2
f 59/5/3 54/5/3 56/48/3
f 54/5/3 59/5/3 60/49/3
f 59/5/4 57/5/4 60/50/4
f 57/5/4 59/5/4 58/51/4
f 57/5/5 54/5/5 60/52/5
f 54/5/5 57/5/5 53/53/5
f 55/2/6 59/3/6 56/11/6
f 59/3/6 55/2/6 58/1/6
f 63/3/1 62/2/1 61/1/1
f 62/3/1 63/2/1 64/1/1
f 65/3/2 63/2/2 61/1/2
f 63/3/2 65/2/2 66/1/2
f 67/5/3 62/5/3 64/54/3
f 62/5/3 67/5/3 68/55/3
f 67/5/4 65/5/4 68/56/4
f 65/5/4 67/5/4 66/57/4
f 65/5/5 62/5/5 68/58/5
f 62/5/5 65/5/5 61/59/5
f 63/2/6 67/3/6 64/11/6
f 67/3/6 63/2/6 66/1/6
f 71/3/1 70/2/1 69/1/1
f 70/3/1 71/2/1 72/1/1
f 73/3/2 71/2/2 69/1/2
f 71/3/2 73/2/2 74/1/2
f 75/5/3 70/5/3 72/60/3
f 70/5/3 75/5/3 76/61/3
f 75/5/4 73/5/4 76/62/4
f 73/5/4 75/5/4 74/63/4
f 73/5/5 70/5/5 76/64/5
f 70/5/5 73/5/5 69/65/5
f 71/2/6 75/3/6 72/11/6
f 75/3/6 71/2/6 74/1/6
f 79/3/1 78/2/1 77/1/1
f 78/3/1 79/2/1 80/1/1
f 81/3/2 79/2/2 77/1/2
f 79/3/2 81/2/2 82/1/2
f 83/5/3 78/5/3 80/66/3
f 78/5/3 83/5/3 84/67/3
f 83/5/4 81/5/4 84/68/4
f 81/5/4 83/5/4 82/69/4
f 81/5/5 78/5/5 84/70/5
f 78/5/5 81/5/5 77/71/5
f 79/2/6 83/3/6 80/11/6
f 83/3/6 79/2/6 82/1/6
f 87/3/1 86/2/1 85/1/1
f 86/3/1 87/2/1 88/1/1
f 89/3/2 87/2/2 85/1/2
f 87/3/2 89/2/2 90/1/2
f 91/5/3 86/5/3 88/72/3
f 86/5/3 91/5/3 92/73/3
f 91/5/4 89/5/4 92/74/4
f 89/5/4 91/5/4 90/75/4
f 89/5/5 86/5/5 92/76/5
f 86/5/5 89/5/5 85/77/5
f 87/2/6 91/3/6 88/11/6
f 91/3/6 87/2/6 90/1/6
f 95/3/1 94/2/1 93/1/1
f 94/3/1 95/2/1 96/1/1
f 97/3/2 95/2/2 93/1/2
f 95/3/2 97/2/2 98/1/2
f 99/5/3 94/5/3 96/78/3
f 94/5/3 99/5/3 100/79/3
f 99/5/4 97/5/4 100/80/4
f 97/5/4 99/5/4 98/81/4
f 97/5/5 94/5/5 100/82/5
f 94/5/5 97/5/5 93/83/5
f 95/2/6 99/3/6 96/11/6
f 99/3/6 95/2/6 98/1/6
f 103/3/1 102/2/1 101/1/1
f 102/3/1 103/2/1 104/1/1
f 105/3/2 103/2/2 101/1/2
f 103/3/2 105/2/2 106/1/2
f 107/5/3 102/5/3 104/84/3
f 102/5/3 107/5/3 108/85/3
f 107/5/4 105/5/4 108/86/4
f 105/5/4 107/5/4 106/87/4
f 105/5/5 102/5/5 108/88/5
f 102/5/5 105/5/5 101/89/5
f 103/2/6 107/3/6 104/11/6
f 107/3/6 103/2/6 106/1/6
f 111/3/1 110/2/1 109/1/1
f 110/3/1 111/2/1 112/1/1
f 113/3/2 111/2/2 109/1/2
f 111/3/2 113/2/2 114/1/2
f 115/5/3 110/5/3 112/90/3
f 110/5/3 115/5/3 116/91/3
f 115/5/4 113/5/4 116/92/4
f 113/5/4 115/5/4 114/93/4
f 113/5/5 110/5/5 116/94/5
f 110/5/5 113/5/5 109/95/5
f 111/2/6 115/3/6 112/11/6
f 115/3/6 111/2/6 114/1/6
f 119/3/1 118/2/1 117/1/1
f 118/3/1 119/2/1 120/1/1
f 121/3/2 119/2/2 117/1/2
f 119/3/2 121/2/2 122/1/2
f 123/5/3 118/5/3 120/96/3
f 118/5/3 123/5/3 124/97/3
f 123/5/4 121/5/4 124/98/4
f 121/5/4 123/5/4 122/99/4
f 121/5/5 118/5/5 124/100/5
f 118/5/5 121/5/5 117/101/5
f 119/2/6 123/3/6 120/11/6
f 123/3/6 119/2/6 122/1/6
f 127/3/1 126/2/1 125/1/1
f 126/3/1 127/2/1 128/1/1
f 129/3/2 127/2/2 125/1/2
f 127/3/2 129/2/2 130/1/2
f 131/5/3 126/5/3 128/102/3
f 126/5/3 131/5/3 132/103/3
f 131/5/4 129/5/4 132/104/4
f 129/5/4 131/5/4 130/105/4
f 129/5/5 126/5/5 132/106/5
f 126/5/5 129/5/5 125/107/5
f 127/2/6 131/3/6 128/11/6
f 131/3/6 127/2/6 130/1/6

usemtl color16

f 6/3/1 8/2/1 5/1/1
f 8/3/1 6/2/1 7/1/1
f 133/3/2 6/2/2 5/1/2
f 6/3/2 133/2/2 134/1/2
f 135/5/3 8/6/3 7/5/3
f 8/6/3 135/5/3 136/108/3
f 135/5/4 133/5/4 136/109/4
f 133/5/4 135/5/4 134/110/4
f 133/5/5 8/9/5 136/111/5
f 8/9/5 133/5/5 5/5/5
f 6/2/6 135/3/6 7/11/6
f 135/3/6 6/2/6 134/1/6
f 139/3/1 138/2/1 137/1/1
f 138/3/1 139/2/1 140/1/1
f 141/3/2 139/2/2 137/1/2
f 139/3/2 141/2/2 142/1/2
f 143/5/3 138/5/3 140/112/3
f 138/5/3 143/5/3 144/113/3
f 143/5/4 141/5/4 144/114/4
f 141/5/4 143/5/4 142/115/4
f 141/5/5 138/5/5 144/116/5
f 138/5/5 141/5/5 137/117/5
f 139/2/6 143/3/6 140/11/6
f 143/3/6 139/2/6 142/1/6
f 146/3/1 37/2/1 145/1/1
f 37/3/1 146/2/1 39/1/1
f 147/3/2 146/2/2 145/1/2
f 146/3/2 147/2/2 148/1/2
f 42/5/3 37/5/3 39/118/3
f 37/5/3 42/5/3 41/119/3
f 42/39/4 147/5/4 41/5/4
f 147/5/4 42/39/4 148/120/4
f 147/5/5 37/41/5 41/5/5
f 37/41/5 147/5/5 145/121/5
f 146/2/6 42/3/6 39/11/6
f 42/3/6 146/2/6 148/1/6
f 151/3/1 150/2/1 149/1/1
f 150/3/1 151/2/1 152/1/1
f 153/3/2 151/2/2 149/1/2
f 151/3/2 153/2/2 154/1/2
f 155/5/3 150/5/3 152/122/3
f 150/5/3 155/5/3 156/123/3
f 155/5/4 153/5/4 156/124/4
f 153/5/4 155/5/4 154/125/4
f 153/5/5 150/5/5 156/126/5
f 150/5/5 153/5/5 149/127/5
f 151/2/6 155/3/6 152/11/6
f 155/3/6 151/2/6 154/1/6
f 159/3/1 158/2/1 157/1/1
f 158/3/1 159/2/1 160/1/1
f 161/3/2 159/2/2 157/1/2
f 159/3/2 161/2/2 162/1/2
f 163/5/3 158/5/3 160/128/3
f 158/5/3 163/5/3 164/129/3
f 163/5/4 161/5/4 164/130/4
f 161/5/4 163/5/4 162/131/4
f 161/5/5 158/5/5 164/132/5
f 158/5/5 161/5/5 157/133/5
f 159/2/6 163/3/6 160/11/6
f 163/3/6 159/2/6 162/1/6
f 167/3/1 166/2/1 165/1/1
f 166/3/1 167/2/1 168/1/1
f 169/3/2 167/2/2 165/1/2
f 167/3/2 169/2/2 170/1/2
f 171/5/3 166/5/3 168/134/3
f 166/5/3 171/5/3 172/135/3
f 171/5/4 169/5/4 172/136/4
f 169/5/4 171/5/4 170/137/4
f 169/5/5 166/5/5 172/138/5
f 166/5/5 169/5/5 165/139/5
f 167/2/6 171/3/6 168/11/6
f 171/3/6 167/2/6 170/1/6
f 175/3/1 174/2/1 173/1/1
f 174/3/1 175/2/1 176/1/1
f 177/3/2 175/2/2 173/1/2
f 175/3/2 177/2/2 178/1/2
f 179/5/3 174/5/3 176/140/3
f 174/5/3 179/5/3 180/141/3
f 179/5/4 177/5/4 180/142/4
f 177/5/4 179/5/4 178/143/4
f 177/5/5 174/5/5 180/144/5
f 174/5/5 177/5/5 173/145/5
f 175/2/6 179/3/6 176/11/6
f 179/3/6 175/2/6 178/1/6
f 183/3/1 182/2/1 181/1/1
f 182/3/1 183/2/1 184/1/1
f 185/3/2 183/2/2 181/1/2
f 183/3/2 185/2/2 186/1/2
f 187/5/3 182/5/3 184/146/3
f 182/5/3 187/5/3 188/147/3
f 187/5/4 185/5/4 188/148/4
f 185/5/4 187/5/4 186/149/4
f 185/5/5 182/5/5 188/150/5
f 182/5/5 185/5/5 181/151/5
f 183/2/6 187/3/6 184/11/6
f 187/3/6 183/2/6 186/1/6
f 191/3/1 190/2/1 189/1/1
f 190/3/1 191/2/1 192/1/1
f 193/3/2 191/2/2 189/1/2
f 191/3/2 193/2/2 194/1/2
f 195/5/3 190/5/3 192/152/3
f 190/5/3 195/5/3 196/153/3
f 195/5/4 193/5/4 196/154/4
f 193/5/4 195/5/4 194/155/4
f 193/5/5 190/5/5 196/156/5
f 190/5/5 193/5/5 189/157/5
f 191/2/6 195/3/6 192/11/6
f 195/3/6 191/2/6 194/1/6
f 199/3/1 198/2/1 197/1/1
f 198/3/1 199/2/1 200/1/1
f 201/3/2 199/2/2 197/1/2
f 199/3/2 201/2/2 202/1/2
f 203/5/3 198/5/3 200/158/3
f 198/5/3 203/5/3 204/159/3
f 203/5/4 201/5/4 204/160/4
f 201/5/4 203/5/4 202/161/4
f 201/5/5 198/5/5 204/162/5
f 198/5/5 201/5/5 197/163/5
f 199/2/6 203/3/6 200/11/6
f 203/3/6 199/2/6 202/1/6
f 207/3/1 206/2/1 205/1/1
f 206/3/1 207/2/1 208/1/1
f 209/3/2 207/2/2 205/1/2
f 207/3/2 209/2/2 210/1/2
f 211/5/3 206/5/3 208/164/3
f 206/5/3 211/5/3 212/165/3
f 211/5/4 209/5/4 212/166/4
f 209/5/4 211/5/4 210/167/4
f 209/5/5 206/5/5 212/168/5
f 206/5/5 209/5/5 205/169/5
f 207/2/6 211/3/6 208/11/6
f 211/3/6 207/2/6 210/1/6
f 215/3/1 214/2/1 213/1/1
f 214/3/1 215/2/1 216/1/1
f 217/3/2 215/2/2 213/1/2
f 215/3/2 217/2/2 218/1/2
f 219/5/3 214/5/3 216/170/3
f 214/5/3 219/5/3 220/171/3
f 219/5/4 217/5/4 220/172/4
f 217/5/4 219/5/4 218/173/4
f 217/5/5 214/5/5 220/174/5
f 214/5/5 217/5/5 213/175/5
f 215/2/6 219/3/6 216/11/6
f 219/3/6 215/2/6 218/1/6
f 223/3/1 222/2/1 221/1/1
f 222/3/1 223/2/1 224/1/1
f 225/3/2 223/2/2 221/1/2
f 223/3/2 225/2/2 226/1/2
f 227/5/3 222/5/3 224/176/3
f 222/5/3 227/5/3 228/177/3
f 227/5/4 225/5/4 228/178/4
f 225/5/4 227/5/4 226/179/4
f 225/5/5 222/5/5 228/180/5
f 222/5/5 225/5/5 221/181/5
f 223/2/6 227/3/6 224/11/6
f 227/3/6 223/2/6 226/1/6
f 231/3/1 230/2/1 229/1/1
f 230/3/1 231/2/1 232/1/1
f 233/3/2 231/2/2 229/1/2
f 231/3/2 233/2/2 234/1/2
f 235/5/3 230/5/3 232/182/3
f 230/5/3 235/5/3 236/183/3
f 235/5/4 233/5/4 236/184/4
f 233/5/4 235/5/4 234/185/4
f 233/5/5 230/5/5 236/186/5
f 230/5/5 233/5/5 229/187/5
f 231/2/6 235/3/6 232/11/6
f 235/3/6 231/2/6 234/1/6
f 239/3/1 238/2/1 237/1/1
f 238/3/1 239/2/1 240/1/1
f 241/3/2 239/2/2 237/1/2
f 239/3/2 241/2/2 242/1/2
f 243/5/3 238/5/3 240/188/3
f 238/5/3 243/5/3 244/189/3
f 243/5/4 241/5/4 244/190/4
f 241/5/4 243/5/4 242/191/4
f 241/5/5 238/5/5 244/192/5
f 238/5/5 241/5/5 237/193/5
f 239/2/6 243/3/6 240/11/6
f 243/3/6 239/2/6 242/1/6
f 247/3/1 246/2/1 245/1/1
f 246/3/1 247/2/1 248/1/1
f 249/3/2 247/2/2 245/1/2
f 247/3/2 249/2/2 250/1/2
f 251/5/3 246/5/3 248/194/3
f 246/5/3 251/5/3 252/195/3
f 251/5/4 249/5/4 252/196/4
f 249/5/4 251/5/4 250/197/4
f 249/5/5 246/5/5 252/198/5
f 246/5/5 249/5/5 245/199/5
f 247/2/6 251/3/6 248/11/6
f 251/3/6 247/2/6 250/1/6

usemtl color26

f 142/3/1 144/2/1 141/1/1
f 144/3/1 142/2/1 143/1/1
f 253/3/2 142/2/2 141/1/2
f 142/3/2 253/2/2 254/1/2
f 255/5/3 144/113/3 143/5/3
f 144/113/3 255/5/3 256/200/3
f 255/5/4 253/5/4 256/201/4
f 253/5/4 255/5/4 254/202/4
f 253/5/5 144/116/5 256/203/5
f 144/116/5 253/5/5 141/5/5
f 142/2/6 255/3/6 143/11/6
f 255/3/6 142/2/6 254/1/6
f 66/3/1 68/2/1 65/1/1
f 68/3/1 66/2/1 67/1/1
f 257/3/2 66/2/2 65/1/2
f 66/3/2 257/2/2 258/1/2
f 259/5/3 68/55/3 67/5/3
f 68/55/3 259/5/3 260/204/3
f 259/5/4 257/5/4 260/205/4
f 257/5/4 259/5/4 258/206/4
f 257/5/5 68/58/5 260/207/5
f 68/58/5 257/5/5 65/5/5
f 66/2/6 259/3/6 67/11/6
f 259/3/6 66/2/6 258/1/6
f 154/3/1 156/2/1 153/1/1
f 156/3/1 154/2/1 155/1/1
f 261/3/2 154/2/2 153/1/2
f 154/3/2 261/2/2 262/1/2
f 263/5/3 156/123/3 155/5/3
f 156/123/3 263/5/3 264/208/3
f 263/5/4 261/5/4 264/209/4
f 261/5/4 263/5/4 262/210/4
f 261/5/5 156/126/5 264/211/5
f 156/126/5 261/5/5 153/5/5
f 154/2/6 263/3/6 155/11/6
f 263/3/6 154/2/6 262/1/6
f 267/3/1 266/2/1 265/1/1
f 266/3/1 267/2/1 268/1/1
f 69/3/2 267/2/2 265/1/2
f 267/3/2 69/2/2 71/1/2
f 72/60/3 266/5/3 268/212/3
f 266/5/3 72/60/3 70/5/3
f 72/5/4 69/5/4 70/213/4
f 69/5/4 72/5/4 71/214/4
f 69/65/5 266/5/5 70/5/5
f 266/5/5 69/65/5 265/215/5
f 267/2/6 72/3/6 268/11/6
f 72/3/6 267/2/6 71/1/6
f 271/3/1 270/2/1 269/1/1
f 270/3/1 271/2/1 272/1/1
f 273/3/2 271/2/2 269/1/2
f 271/3/2 273/2/2 274/1/2
f 275/5/3 270/5/3 272/216/3
f 270/5/3 275/5/3 276/217/3
f 275/5/4 273/5/4 276/218/4
f 273/5/4 275/5/4 274/219/4
f 273/5/5 270/5/5 276/220/5
f 270/5/5 273/5/5 269/221/5
f 271/2/6 275/3/6 272/11/6
f 275/3/6 271/2/6 274/1/6
f 279/3/1 278/2/1 277/1/1
f 278/3/1 279/2/1 280/1/1
f 281/3/2 279/2/2 277/1/2
f 279/3/2 281/2/2 282/1/2
f 283/5/3 278/5/3 280/222/3
f 278/5/3 283/5/3 284/223/3
f 283/5/4 281/5/4 284/224/4
f 281/5/4 283/5/4 282/225/4
f 281/5/5 278/5/5 284/226/5
f 278/5/5 281/5/5 277/227/5
f 279/2/6 283/3/6 280/11/6
f 283/3/6 279/2/6 282/1/6
f 287/3/1 286/2/1 285/1/1
f 286/3/1 287/2/1 288/1/1
f 289/3/2 287/2/2 285/1/2
f 287/3/2 289/2/2 290/1/2
f 291/5/3 286/5/3 288/228/3
f 286/5/3 291/5/3 292/229/3
f 291/5/4 289/5/4 292/230/4
f 289/5/4 291/5/4 290/231/4
f 289/5/5 286/5/5 292/232/5
f 286/5/5 289/5/5 285/233/5
f 287/2/6 291/3/6 288/11/6
f 291/3/6 287/2/6 290/1/6
f 295/3/1 294/2/1 293/1/1
f 294/3/1 295/2/1 296/1/1
f 297/3/2 295/2/2 293/1/2
f 295/3/2 297/2/2 298/1/2
f 299/5/3 294/5/3 296/234/3
f 294/5/3 299/5/3 300/235/3
f 299/5/4 297/5/4 300/236/4
f 297/5/4 299/5/4 298/237/4
f 297/5/5 294/5/5 300/238/5
f 294/5/5 297/5/5 293/239/5
f 295/2/6 299/3/6 296/11/6
f 299/3/6 295/2/6 298/1/6

usemtl color4

f 254/3/1 256/2/1 253/1/1
f 256/3/1 254/2/1 255/1/1
f 301/3/2 254/2/2 253/1/2
f 254/3/2 301/2/2 302/1/2
f 146/5/3 256/200/3 255/5/3
f 256/200/3 146/5/3 145/240/3
f 146/5/4 301/5/4 145/241/4
f 301/5/4 146/5/4 302/242/4
f 301/5/5 256/203/5 145/121/5
f 256/203/5 301/5/5 253/5/5
f 254/2/6 146/3/6 255/11/6
f 146/3/6 254/2/6 302/1/6
f 208/3/1 117/2/1 206/1/1
f 117/3/1 208/2/1 119/1/1
f 212/3/2 208/2/2 206/1/2
f 208/3/2 212/2/2 211/1/2
f 122/5/3 117/5/3 119/243/3
f 117/5/3 122/5/3 121/244/3
f 122/99/4 212/166/4 121/5/4
f 212/166/4 122/99/4 211/5/4
f 212/168/5 117/101/5 121/5/5
f 117/101/5 212/168/5 206/5/5
f 208/2/6 122/3/6 119/11/6
f 122/3/6 208/2/6 211/1/6
f 305/3/1 304/2/1 303/1/1
f 304/3/1 305/2/1 306/1/1
f 307/3/2 305/2/2 303/1/2
f 305/3/2 307/2/2 308/1/2
f 309/5/3 304/5/3 306/245/3
f 304/5/3 309/5/3 310/246/3
f 309/5/4 307/5/4 310/247/4
f 307/5/4 309/5/4 308/248/4
f 307/5/5 304/5/5 310/249/5
f 304/5/5 307/5/5 303/250/5
f 305/2/6 309/3/6 306/11/6
f 309/3/6 305/2/6 308/1/6

usemtl color14

f 4/3/1 14/2/1 2/1/1
f 14/3/1 4/2/1 13/1/1
f 8/3/2 4/2/2 2/1/2
f 4/3/2 8/2/2 7/1/2
f 311/5/3 14/13/3 13/5/3
f 14/13/3 311/5/3 312/251/3
f 311/5/4 8/7/4 312/252/4
f 8/7/4 311/5/4 7/5/4
f 8/9/5 14/16/5 312/253/5
f 14/16/5 8/9/5 2/5/5
f 4/2/6 311/3/6 13/11/6
f 311/3/6 4/2/6 7/1/6
f 315/3/1 314/2/1 313/1/1
f 314/3/1 315/2/1 316/1/1
f 138/3/2 315/2/2 313/1/2
f 315/3/2 138/2/2 140/1/2
f 317/5/3 314/5/3 316/254/3
f 314/5/3 317/5/3 318/255/3
f 317/5/4 138/5/4 318/256/4
f 138/5/4 317/5/4 140/257/4
f 138/5/5 314/5/5 318/258/5
f 314/5/5 138/5/5 313/259/5
f 315/2/6 317/3/6 316/11/6
f 317/3/6 315/2/6 140/1/6
f 12/3/1 319/2/1 10/1/1
f 319/3/1 12/2/1 320/1/1
f 14/3/2 12/2/2 10/1/2
f 12/3/2 14/2/2 13/1/2
f 321/5/3 319/5/3 320/260/3
f 319/5/3 321/5/3 322/261/3
f 321/5/4 14/14/4 322/262/4
f 14/14/4 321/5/4 13/5/4
f 14/16/5 319/5/5 322/263/5
f 319/5/5 14/16/5 10/5/5
f 12/2/6 321/3/6 320/11/6
f 321/3/6 12/2/6 13/1/6
f 325/3/1 324/2/1 323/1/1
f 324/3/1 325/2/1 326/1/1
f 314/3/2 325/2/2 323/1/2
f 325/3/2 314/2/2 316/1/2
f 327/5/3 324/5/3 326/264/3
f 324/5/3 327/5/3 328/265/3
f 327/5/4 314/5/4 328/266/4
f 314/5/4 327/5/4 316/267/4
f 314/5/5 324/5/5 328/268/5
f 324/5/5 314/5/5 323/269/5
f 325/2/6 327/3/6 326/11/6
f 327/3/6 325/2/6 316/1/6
f 331/3/1 330/2/1 329/1/1
f 330/3/1 331/2/1 332/1/1
f 30/3/2 331/2/2 329/1/2
f 331/3/2 30/2/2 29/1/2
f 47/5/3 330/5/3 332/270/3
f 330/5/3 47/5/3 45/271/3
f 47/5/4 30/26/4 45/272/4
f 30/26/4 47/5/4 29/5/4
f 30/28/5 330/5/5 45/47/5
f 330/5/5 30/28/5 329/273/5
f 331/2/6 47/3/6 332/11/6
f 47/3/6 331/2/6 29/1/6
f 335/3/1 334/2/1 333/1/1
f 334/3/1 335/2/1 336/1/1
f 337/3/2 335/2/2 333/1/2
f 335/3/2 337/2/2 338/1/2
f 339/5/3 334/5/3 336/274/3
f 334/5/3 339/5/3 340/275/3
f 339/5/4 337/5/4 340/276/4
f 337/5/4 339/5/4 338/277/4
f 337/5/5 334/5/5 340/278/5
f 334/5/5 337/5/5 333/279/5
f 335/2/6 339/3/6 336/11/6
f 339/3/6 335/2/6 338/1/6
f 343/3/1 342/2/1 341/1/1
f 342/3/1 343/2/1 344/1/1
f 324/3/2 343/2/2 341/1/2
f 343/3/2 324/2/2 326/1/2
f 345/5/3 342/5/3 344/280/3
f 342/5/3 345/5/3 346/281/3
f 345/5/4 324/5/4 346/282/4
f 324/5/4 345/5/4 326/283/4
f 324/5/5 342/5/5 346/284/5
f 342/5/5 324/5/5 341/285/5
f 343/2/6 345/3/6 344/11/6
f 345/3/6 343/2/6 326/1/6
f 349/3/1 348/2/1 347/1/1
f 348/3/1 349/2/1 350/1/1
f 351/3/2 349/2/2 347/1/2
f 349/3/2 351/2/2 352/1/2
f 353/5/3 348/5/3 350/286/3
f 348/5/3 353/5/3 354/287/3
f 353/5/4 351/5/4 354/288/4
f 351/5/4 353/5/4 352/289/4
f 351/5/5 348/5/5 354/290/5
f 348/5/5 351/5/5 347/291/5
f 349/2/6 353/3/6 350/11/6
f 353/3/6 349/2/6 352/1/6
f 357/3/1 356/2/1 355/1/1
f 356/3/1 357/2/1 358/1/1
f 359/3/2 357/2/2 355/1/2
f 357/3/2 359/2/2 360/1/2
f 361/5/3 356/5/3 358/292/3
f 356/5/3 361/5/3 362/293/3
f 361/5/4 359/5/4 362/294/4
f 359/5/4 361/5/4 360/295/4
f 359/5/5 356/5/5 362/296/5
f 356/5/5 359/5/5 355/297/5
f 357/2/6 361/3/6 358/11/6
f 361/3/6 357/2/6 360/1/6
f 365/3/1 364/2/1 363/1/1
f 364/3/1 365/2/1 366/1/1
f 367/3/2 365/2/2 363/1/2
f 365/3/2 367/2/2 368/1/2
f 369/5/3 364/5/3 366/298/3
f 364/5/3 369/5/3 370/299/3
f 369/5/4 367/5/4 370/300/4
f 367/5/4 369/5/4 368/301/4
f 367/5/5 364/5/5 370/302/5
f 364/5/5 367/5/5 363/303/5
f 365/2/6 369/3/6 366/11/6
f 369/3/6 365/2/6 368/1/6
f 373/3/1 372/2/1 371/1/1
f 372/3/1 373/2/1 374/1/1
f 375/3/2 373/2/2 371/1/2
f 373/3/2 375/2/2 376/1/2
f 377/5/3 372/5/3 374/304/3
f 372/5/3 377/5/3 378/305/3
f 377/5/4 375/5/4 378/306/4
f 375/5/4 377/5/4 376/307/4
f 375/5/5 372/5/5 378/308/5
f 372/5/5 375/5/5 371/309/5
f 373/2/6 377/3/6 374/11/6
f 377/3/6 373/2/6 376/1/6
f 381/3/1 380/2/1 379/1/1
f 380/3/1 381/2/1 382/1/1
f 348/3/2 381/2/2 379/1/2
f 381/3/2 348/2/2 350/1/2
f 383/5/3 380/5/3 382/310/3
f 380/5/3 383/5/3 384/311/3
f 383/5/4 348/5/4 384/312/4
f 348/5/4 383/5/4 350/313/4
f 348/5/5 380/5/5 384/314/5
f 380/5/5 348/5/5 379/315/5
f 381/2/6 383/3/6 382/11/6
f 383/3/6 381/2/6 350/1/6
f 387/3/1 386/2/1 385/1/1
f 386/3/1 387/2/1 388/1/1
f 389/3/2 387/2/2 385/1/2
f 387/3/2 389/2/2 390/1/2
f 391/5/3 386/5/3 388/316/3
f 386/5/3 391/5/3 392/317/3
f 391/5/4 389/5/4 392/318/4
f 389/5/4 391/5/4 390/319/4
f 389/5/5 386/5/5 392/320/5
f 386/5/5 389/5/5 385/321/5
f 387/2/6 391/3/6 388/11/6
f 391/3/6 387/2/6 390/1/6
f 395/3/1 394/2/1 393/1/1
f 394/3/1 395/2/1 396/1/1
f 397/3/2 395/2/2 393/1/2
f 395/3/2 397/2/2 398/1/2
f 399/5/3 394/5/3 396/322/3
f 394/5/3 399/5/3 400/323/3
f 399/5/4 397/5/4 400/324/4
f 397/5/4 399/5/4 398/325/4
f 397/5/5 394/5/5 400/326/5
f 394/5/5 397/5/5 393/327/5
f 395/2/6 399/3/6 396/11/6
f 399/3/6 395/2/6 398/1/6
f 403/3/1 402/2/1 401/1/1
f 402/3/1 403/2/1 404/1/1
f 405/3/2 403/2/2 401/1/2
f 403/3/2 405/2/2 406/1/2
f 407/5/3 402/5/3 404/328/3
f 402/5/3 407/5/3 408/329/3
f 407/5/4 405/5/4 408/330/4
f 405/5/4 407/5/4 406/331/4
f 405/5/5 402/5/5 408/332/5
f 402/5/5 405/5/5 401/333/5
f 403/2/6 407/3/6 404/11/6
f 407/3/6 403/2/6 406/1/6
f 410/3/1 89/2/1 409/1/1
f 89/3/1 410/2/1 90/1/1
f 411/3/2 410/2/2 409/1/2
f 410/3/2 411/2/2 412/1/2
f 413/5/3 89/5/3 90/334/3
f 89/5/3 413/5/3 414/335/3
f 413/5/4 411/5/4 414/336/4
f 411/5/4 413/5/4 412/337/4
f 411/5/5 89/5/5 414/338/5
f 89/5/5 411/5/5 409/339/5
f 410/2/6 413/3/6 90/11/6
f 413/3/6 410/2/6 412/1/6
f 417/3/1 416/2/1 415/1/1
f 416/3/1 417/2/1 418/1/1
f 419/3/2 417/2/2 415/1/2
f 417/3/2 419/2/2 420/1/2
f 421/5/3 416/5/3 418/340/3
f 416/5/3 421/5/3 422/341/3
f 421/5/4 419/5/4 422/342/4
f 419/5/4 421/5/4 420/343/4
f 419/5/5 416/5/5 422/344/5
f 416/5/5 419/5/5 415/345/5
f 417/2/6 421/3/6 418/11/6
f 421/3/6 417/2/6 420/1/6
f 425/3/1 424/2/1 423/1/1
f 424/3/1 425/2/1 426/1/1
f 427/3/2 425/2/2 423/1/2
f 425/3/2 427/2/2 428/1/2
f 429/5/3 424/5/3 426/346/3
f 424/5/3 429/5/3 430/347/3
f 429/5/4 427/5/4 430/348/4
f 427/5/4 429/5/4 428/349/4
f 427/5/5 424/5/5 430/350/5
f 424/5/5 427/5/5 423/351/5
f 425/2/6 429/3/6 426/11/6
f 429/3/6 425/2/6 428/1/6
f 433/3/1 432/2/1 431/1/1
f 432/3/1 433/2/1 434/1/1
f 435/3/2 433/2/2 431/1/2
f 433/3/2 435/2/2 436/1/2
f 437/5/3 432/5/3 434/352/3
f 432/5/3 437/5/3 438/353/3
f 437/5/4 435/5/4 438/354/4
f 435/5/4 437/5/4 436/355/4
f 435/5/5 432/5/5 438/356/5
f 432/5/5 435/5/5 431/357/5
f 433/2/6 437/3/6 434/11/6
f 437/3/6 433/2/6 436/1/6
f 441/3/1 440/2/1 439/1/1
f 440/3/1 441/2/1 442/1/1
f 443/3/2 441/2/2 439/1/2
f 441/3/2 443/2/2 444/1/2
f 445/5/3 440/5/3 442/358/3
f 440/5/3 445/5/3 446/359/3
f 445/5/4 443/5/4 446/360/4
f 443/5/4 445/5/4 444/361/4
f 443/5/5 440/5/5 446/362/5
f 440/5/5 443/5/5 439/363/5
f 441/2/6 445/3/6 442/11/6
f 445/3/6 441/2/6 444/1/6
f 449/3/1 448/2/1 447/1/1
f 448/3/1 449/2/1 450/1/1
f 451/3/2 449/2/2 447/1/2
f 449/3/2 451/2/2 452/1/2
f 453/5/3 448/5/3 450/364/3
f 448/5/3 453/5/3 454/365/3
f 453/5/4 451/5/4 454/366/4
f 451/5/4 453/5/4 452/367/4
f 451/5/5 448/5/5 454/368/5
f 448/5/5 451/5/5 447/369/5
f 449/2/6 453/3/6 450/11/6
f 453/3/6 449/2/6 452/1/6
f 457/3/1 456/2/1 455/1/1
f 456/3/1 457/2/1 458/1/1
f 459/3/2 457/2/2 455/1/2
f 457/3/2 459/2/2 460/1/2
f 461/5/3 456/5/3 458/370/3
f 456/5/3 461/5/3 462/371/3
f 461/5/4 459/5/4 462/372/4
f 459/5/4 461/5/4 460/373/4
f 459/5/5 456/5/5 462/374/5
f 456/5/5 459/5/5 455/375/5
f 457/2/6 461/3/6 458/11/6
f 461/3/6 457/2/6 460/1/6
f 465/3/1 464/2/1 463/1/1
f 464/3/1 465/2/1 466/1/1
f 456/3/2 465/2/2 463/1/2
f 465/3/2 456/2/2 458/1/2
f 467/5/3 464/5/3 466/376/3
f 464/5/3 467/5/3 468/377/3
f 467/5/4 456/5/4 468/378/4
f 456/5/4 467/5/4 458/379/4
f 456/5/5 464/5/5 468/380/5
f 464/5/5 456/5/5 463/381/5
f 465/2/6 467/3/6 466/11/6
f 467/3/6 465/2/6 458/1/6
f 471/3/1 470/2/1 469/1/1
f 470/3/1 471/2/1 472/1/1
f 473/3/2 471/2/2 469/1/2
f 471/3/2 473/2/2 474/1/2
f 475/5/3 470/5/3 472/382/3
f 470/5/3 475/5/3 476/383/3
f 475/5/4 473/5/4 476/384/4
f 473/5/4 475/5/4 474/385/4
f 473/5/5 470/5/5 476/386/5
f 470/5/5 473/5/5 469/387/5
f 471/2/6 475/3/6 472/11/6
f 475/3/6 471/2/6 474/1/6
f 467/3/1 477/2/1 468/1/1
f 477/3/1 467/2/1 478/1/1
f 479/3/2 467/2/2 468/1/2
f 467/3/2 479/2/2 480/1/2
f 481/5/3 477/5/3 478/388/3
f 477/5/3 481/5/3 482/389/3
f 481/5/4 479/5/4 482/390/4
f 479/5/4 481/5/4 480/391/4
f 479/5/5 477/5/5 482/392/5
f 477/5/5 479/5/5 468/380/5
f 467/2/6 481/3/6 478/11/6
f 481/3/6 467/2/6 480/1/6
f 485/3/1 484/2/1 483/1/1
f 484/3/1 485/2/1 486/1/1
f 487/3/2 485/2/2 483/1/2
f 485/3/2 487/2/2 488/1/2
f 489/5/3 484/5/3 486/393/3
f 484/5/3 489/5/3 490/394/3
f 489/5/4 487/5/4 490/395/4
f 487/5/4 489/5/4 488/396/4
f 487/5/5 484/5/5 490/397/5
f 484/5/5 487/5/5 483/398/5
f 485/2/6 489/3/6 486/11/6
f 489/3/6 485/2/6 488/1/6
f 99/3/1 491/2/1 100/1/1
f 491/3/1 99/2/1 492/1/1
f 493/3/2 99/2/2 100/1/2
f 99/3/2 493/2/2 494/1/2
f 495/5/3 491/5/3 492/399/3
f 491/5/3 495/5/3 496/400/3
f 495/5/4 493/5/4 496/401/4
f 493/5/4 495/5/4 494/402/4
f 493/5/5 491/5/5 496/403/5
f 491/5/5 493/5/5 100/82/5
f 99/2/6 495/3/6 492/11/6
f 495/3/6 99/2/6 494/1/6
f 499/3/1 498/2/1 497/1/1
f 498/3/1 499/2/1 500/1/1
f 501/3/2 499/2/2 497/1/2
f 499/3/2 501/2/2 502/1/2
f 503/5/3 498/5/3 500/404/3
f 498/5/3 503/5/3 504/405/3
f 503/5/4 501/5/4 504/406/4
f 501/5/4 503/5/4 502/407/4
f 501/5/5 498/5/5 504/408/5
f 498/5/5 501/5/5 497/409/5
f 499/2/6 503/3/6 500/11/6
f 503/3/6 499/2/6 502/1/6

usemtl color6

f 20/3/1 22/2/1 19/1/1
f 22/3/1 20/2/1 21/1/1
f 505/3/2 20/2/2 19/1/2
f 20/3/2 505/2/2 506/1/2
f 507/5/3 22/19/3 21/5/3
f 22/19/3 507/5/3 508/410/3
f 507/5/4 505/5/4 508/411/4
f 505/5/4 507/5/4 506/412/4
f 505/5/5 22/22/5 508/413/5
f 22/22/5 505/5/5 19/5/5
f 20/2/6 507/3/6 21/11/6
f 507/3/6 20/2/6 506/1/6
f 510/3/1 165/2/1 509/1/1
f 165/3/1 510/2/1 167/1/1
f 511/3/2 510/2/2 509/1/2
f 510/3/2 511/2/2 512/1/2
f 170/5/3 165/5/3 167/414/3
f 165/5/3 170/5/3 169/415/3
f 170/137/4 511/5/4 169/5/4
f 511/5/4 170/137/4 512/416/4
f 511/5/5 165/139/5 169/5/5
f 165/139/5 511/5/5 509/417/5
f 510/2/6 170/3/6 167/11/6
f 170/3/6 510/2/6 512/1/6
f 514/3/1 173/2/1 513/1/1
f 173/3/1 514/2/1 175/1/1
f 515/3/2 514/2/2 513/1/2
f 514/3/2 515/2/2 516/1/2
f 178/5/3 173/5/3 175/418/3
f 173/5/3 178/5/3 177/419/3
f 178/143/4 515/5/4 177/5/4
f 515/5/4 178/143/4 516/420/4
f 515/5/5 173/145/5 177/5/5
f 173/145/5 515/5/5 513/421/5
f 514/2/6 178/3/6 175/11/6
f 178/3/6 514/2/6 516/1/6
f 168/3/1 517/2/1 166/1/1
f 517/3/1 168/2/1 518/1/1
f 172/3/2 168/2/2 166/1/2
f 168/3/2 172/2/2 171/1/2
f 519/5/3 517/5/3 518/422/3
f 517/5/3 519/5/3 520/423/3
f 519/5/4 172/136/4 520/424/4
f 172/136/4 519/5/4 171/5/4
f 172/138/5 517/5/5 520/425/5
f 517/5/5 172/138/5 166/5/5
f 168/2/6 519/3/6 518/11/6
f 519/3/6 168/2/6 171/1/6
f 176/3/1 521/2/1 174/1/1
f 521/3/1 176/2/1 522/1/1
f 180/3/2 176/2/2 174/1/2
f 176/3/2 180/2/2 179/1/2
f 523/5/3 521/5/3 522/426/3
f 521/5/3 523/5/3 524/427/3
f 523/5/4 180/142/4 524/428/4
f 180/142/4 523/5/4 179/5/4
f 180/144/5 521/5/5 524/429/5
f 521/5/5 180/144/5 174/5/5
f 176/2/6 523/3/6 522/11/6
f 523/3/6 176/2/6 179/1/6
f 527/3/1 526/2/1 525/1/1
f 526/3/1 527/2/1 528/1/1
f 529/3/2 527/2/2 525/1/2
f 527/3/2 529/2/2 530/1/2
f 531/5/3 526/5/3 528/430/3
f 526/5/3 531/5/3 532/431/3
f 531/5/4 529/5/4 532/432/4
f 529/5/4 531/5/4 530/433/4
f 529/5/5 526/5/5 532/434/5
f 526/5/5 529/5/5 525/435/5
f 527/2/6 531/3/6 528/11/6
f 531/3/6 527/2/6 530/1/6
f 534/3/1 303/2/1 533/1/1
f 303/3/1 534/2/1 305/1/1
f 535/3/2 534/2/2 533/1/2
f 534/3/2 535/2/2 536/1/2
f 308/5/3 303/5/3 305/436/3
f 303/5/3 308/5/3 307/437/3
f 308/248/4 535/5/4 307/5/4
f 535/5/4 308/248/4 536/438/4
f 535/5/5 303/250/5 307/5/5
f 303/250/5 535/5/5 533/439/5
f 534/2/6 308/3/6 305/11/6
f 308/3/6 534/2/6 536/1/6
f 539/3/1 538/2/1 537/1/1
f 538/3/1 539/2/1 540/1/1
f 541/3/2 539/2/2 537/1/2
f 539/3/2 541/2/2 542/1/2
f 543/5/3 538/5/3 540/440/3
f 538/5/3 543/5/3 544/441/3
f 543/5/4 541/5/4 544/442/4
f 541/5/4 543/5/4 542/443/4
f 541/5/5 538/5/5 544/444/5
f 538/5/5 541/5/5 537/445/5
f 539/2/6 543/3/6 540/11/6
f 543/3/6 539/2/6 542/1/6

usemtl color15

f 546/3/1 333/2/1 545/1/1
f 333/3/1 546/2/1 335/1/1
f 16/3/2 546/2/2 545/1/2
f 546/3/2 16/2/2 18/1/2
f 338/5/3 333/5/3 335/446/3
f 333/5/3 338/5/3 337/447/3
f 338/277/4 16/5/4 337/5/4
f 16/5/4 338/277/4 18/448/4
f 16/5/5 333/279/5 337/5/5
f 333/279/5 16/5/5 545/449/5
f 546/2/6 338/3/6 335/11/6
f 338/3/6 546/2/6 18/1/6
f 320/3/1 60/2/1 319/1/1
f 60/3/1 320/2/1 59/1/1
f 322/3/2 320/2/2 319/1/2
f 320/3/2 322/2/2 321/1/2
f 547/5/3 60/49/3 59/5/3
f 60/49/3 547/5/3 548/450/3
f 547/5/4 322/262/4 548/451/4
f 322/262/4 547/5/4 321/5/4
f 322/263/5 60/52/5 548/452/5
f 60/52/5 322/263/5 319/5/5
f 320/2/6 547/3/6 59/11/6
f 547/3/6 320/2/6 321/1/6
f 551/3/1 550/2/1 549/1/1
f 550/3/1 551/2/1 552/1/1
f 32/3/2 551/2/2 549/1/2
f 551/3/2 32/2/2 34/1/2
f 553/5/3 550/5/3 552/453/3
f 550/5/3 553/5/3 554/454/3
f 553/5/4 32/5/4 554/455/4
f 32/5/4 553/5/4 34/456/4
f 32/5/5 550/5/5 554/457/5
f 550/5/5 32/5/5 549/458/5
f 551/2/6 553/3/6 552/11/6
f 553/3/6 551/2/6 34/1/6
f 332/3/1 555/2/1 330/1/1
f 555/3/1 332/2/1 556/1/1
f 45/3/2 332/2/2 330/1/2
f 332/3/2 45/2/2 47/1/2
f 48/42/3 555/5/3 556/459/3
f 555/5/3 48/42/3 46/5/3
f 48/5/4 45/272/4 46/460/4
f 45/272/4 48/5/4 47/5/4
f 45/47/5 555/5/5 46/5/5
f 555/5/5 45/47/5 330/5/5
f 332/2/6 48/3/6 556/11/6
f 48/3/6 332/2/6 47/1/6
f 558/3/1 379/2/1 557/1/1
f 379/3/1 558/2/1 381/1/1
f 347/3/2 558/2/2 557/1/2
f 558/3/2 347/2/2 349/1/2
f 350/286/3 379/5/3 381/461/3
f 379/5/3 350/286/3 348/5/3
f 350/313/4 347/5/4 348/5/4
f 347/5/4 350/313/4 349/462/4
f 347/291/5 379/315/5 348/5/5
f 379/315/5 347/291/5 557/463/5
f 558/2/6 350/3/6 381/11/6
f 350/3/6 558/2/6 349/1/6
f 368/3/1 370/2/1 367/1/1
f 370/3/1 368/2/1 369/1/1
f 559/3/2 368/2/2 367/1/2
f 368/3/2 559/2/2 560/1/2
f 561/5/3 370/299/3 369/5/3
f 370/299/3 561/5/3 562/464/3
f 561/5/4 559/5/4 562/465/4
f 559/5/4 561/5/4 560/466/4
f 559/5/5 370/302/5 562/467/5
f 370/302/5 559/5/5 367/5/5
f 368/2/6 561/3/6 369/11/6
f 561/3/6 368/2/6 560/1/6
f 565/3/1 564/2/1 563/1/1
f 564/3/1 565/2/1 566/1/1
f 379/3/2 565/2/2 563/1/2
f 565/3/2 379/2/2 381/1/2
f 382/310/3 564/5/3 566/468/3
f 564/5/3 382/310/3 380/5/3
f 382/5/4 379/5/4 380/469/4
f 379/5/4 382/5/4 381/470/4
f 379/315/5 564/5/5 380/5/5
f 564/5/5 379/315/5 563/471/5
f 565/2/6 382/3/6 566/11/6
f 382/3/6 565/2/6 381/1/6
f 374/3/1 455/2/1 372/1/1
f 455/3/1 374/2/1 457/1/1
f 378/3/2 374/2/2 372/1/2
f 374/3/2 378/2/2 377/1/2
f 460/5/3 455/5/3 457/472/3
f 455/5/3 460/5/3 459/473/3
f 460/373/4 378/306/4 459/5/4
f 378/306/4 460/373/4 377/5/4
f 378/308/5 455/375/5 459/5/5
f 455/375/5 378/308/5 372/5/5
f 374/2/6 460/3/6 457/11/6
f 460/3/6 374/2/6 377/1/6
f 458/3/1 468/2/1 456/1/1
f 468/3/1 458/2/1 467/1/1
f 462/3/2 458/2/2 456/1/2
f 458/3/2 462/2/2 461/1/2
f 480/5/3 468/377/3 467/5/3
f 468/377/3 480/5/3 479/474/3
f 480/391/4 462/372/4 479/5/4
f 462/372/4 480/391/4 461/5/4
f 462/374/5 468/380/5 479/5/5
f 468/380/5 462/374/5 456/5/5
f 458/2/6 480/3/6 467/11/6
f 480/3/6 458/2/6 461/1/6
f 569/3/1 568/2/1 567/1/1
f 568/3/1 569/2/1 570/1/1
f 571/3/2 569/2/2 567/1/2
f 569/3/2 571/2/2 572/1/2
f 573/5/3 568/5/3 570/475/3
f 568/5/3 573/5/3 574/476/3
f 573/5/4 571/5/4 574/477/4
f 571/5/4 573/5/4 572/478/4
f 571/5/5 568/5/5 574/479/5
f 568/5/5 571/5/5 567/480/5
f 569/2/6 573/3/6 570/11/6
f 573/3/6 569/2/6 572/1/6
f 478/3/1 575/2/1 477/1/1
f 575/3/1 478/2/1 576/1/1
f 482/3/2 478/2/2 477/1/2
f 478/3/2 482/2/2 481/1/2
f 577/5/3 575/5/3 576/481/3
f 575/5/3 577/5/3 578/482/3
f 577/5/4 482/390/4 578/483/4
f 482/390/4 577/5/4 481/5/4
f 482/392/5 575/5/5 578/484/5
f 575/5/5 482/392/5 477/5/5
f 478/2/6 577/3/6 576/11/6
f 577/3/6 478/2/6 481/1/6

usemtl color2

f 50/3/1 52/2/1 49/1/1
f 52/3/1 50/2/1 51/1/1
f 53/3/2 50/2/2 49/1/2
f 50/3/2 53/2/2 55/1/2
f 56/48/3 52/43/3 51/5/3
f 52/43/3 56/48/3 54/5/3
f 56/5/4 53/5/4 54/485/4
f 53/5/4 56/5/4 55/486/4
f 53/53/5 52/46/5 54/5/5
f 52/46/5 53/53/5 49/5/5
f 50/2/6 56/3/6 51/11/6
f 56/3/6 50/2/6 55/1/6
f 580/3/1 451/2/1 579/1/1
f 451/3/1 580/2/1 452/1/1
f 77/3/2 580/2/2 579/1/2
f 580/3/2 77/2/2 79/1/2
f 80/66/3 451/5/3 452/487/3
f 451/5/3 80/66/3 78/5/3
f 80/5/4 77/5/4 78/488/4
f 77/5/4 80/5/4 79/489/4
f 77/71/5 451/5/5 78/5/5
f 451/5/5 77/71/5 579/490/5
f 580/2/6 80/3/6 452/11/6
f 80/3/6 580/2/6 79/1/6
f 583/3/1 582/2/1 581/1/1
f 582/3/1 583/2/1 584/1/1
f 585/3/2 583/2/2 581/1/2
f 583/3/2 585/2/2 586/1/2
f 587/5/3 582/5/3 584/491/3
f 582/5/3 587/5/3 588/492/3
f 587/5/4 585/5/4 588/493/4
f 585/5/4 587/5/4 586/494/4
f 585/5/5 582/5/5 588/495/5
f 582/5/5 585/5/5 581/496/5
f 583/2/6 587/3/6 584/11/6
f 587/3/6 583/2/6 586/1/6
f 591/3/1 590/2/1 589/1/1
f 590/3/1 591/2/1 592/1/1
f 593/3/2 591/2/2 589/1/2
f 591/3/2 593/2/2 594/1/2
f 595/5/3 590/5/3 592/497/3
f 590/5/3 595/5/3 596/498/3
f 595/5/4 593/5/4 596/499/4
f 593/5/4 595/5/4 594/500/4
f 593/5/5 590/5/5 596/501/5
f 590/5/5 593/5/5 589/502/5
f 591/2/6 595/3/6 592/11/6
f 595/3/6 591/2/6 594/1/6
f 599/3/1 598/2/1 597/1/1
f 598/3/1 599/2/1 600/1/1
f 601/3/2 599/2/2 597/1/2
f 599/3/2 601/2/2 602/1/2
f 603/5/3 598/5/3 600/503/3
f 598/5/3 603/5/3 604/504/3
f 603/5/4 601/5/4 604/505/4
f 601/5/4 603/5/4 602/506/4
f 601/5/5 598/5/5 604/507/5
f 598/5/5 601/5/5 597/508/5
f 599/2/6 603/3/6 600/11/6
f 603/3/6 599/2/6 602/1/6
f 528/3/1 605/2/1 526/1/1
f 605/3/1 528/2/1 606/1/1
f 532/3/2 528/2/2 526/1/2
f 528/3/2 532/2/2 531/1/2
f 607/5/3 605/5/3 606/509/3
f 605/5/3 607/5/3 608/510/3
f 607/5/4 532/432/4 608/511/4
f 532/432/4 607/5/4 531/5/4
f 532/434/5 605/5/5 608/512/5
f 605/5/5 532/434/5 526/5/5
f 528/2/6 607/3/6 606/11/6
f 607/3/6 528/2/6 531/1/6
f 540/3/1 609/2/1 538/1/1
f 609/3/1 540/2/1 610/1/1
f 544/3/2 540/2/2 538/1/2
f 540/3/2 544/2/2 543/1/2
f 611/5/3 609/5/3 610/513/3
f 609/5/3 611/5/3 612/514/3
f 611/5/4 544/442/4 612/515/4
f 544/442/4 611/5/4 543/5/4
f 544/444/5 609/5/5 612/516/5
f 609/5/5 544/444/5 538/5/5
f 540/2/6 611/3/6 610/11/6
f 611/3/6 540/2/6 543/1/6

usemtl color13

f 352/3/1 354/2/1 351/1/1
f 354/3/1 352/2/1 353/1/1
f 355/3/2 352/2/2 351/1/2
f 352/3/2 355/2/2 357/1/2
f 358/292/3 354/287/3 353/5/3
f 354/287/3 358/292/3 356/5/3
f 358/5/4 355/5/4 356/517/4
f 355/5/4 358/5/4 357/518/4
f 355/297/5 354/290/5 356/5/5
f 354/290/5 355/297/5 351/5/5
f 352/2/6 358/3/6 353/11/6
f 358/3/6 352/2/6 357/1/6
f 360/3/1 362/2/1 359/1/1
f 362/3/1 360/2/1 361/1/1
f 363/3/2 360/2/2 359/1/2
f 360/3/2 363/2/2 365/1/2
f 366/298/3 362/293/3 361/5/3
f 362/293/3 366/298/3 364/5/3
f 366/5/4 363/5/4 364/519/4
f 363/5/4 366/5/4 365/520/4
f 363/303/5 362/296/5 364/5/5
f 362/296/5 363/303/5 359/5/5
f 360/2/6 366/3/6 361/11/6
f 366/3/6 360/2/6 365/1/6
f 615/3/1 614/2/1 613/1/1
f 614/3/1 615/2/1 616/1/1
f 229/3/2 615/2/2 613/1/2
f 615/3/2 229/2/2 231/1/2
f 232/182/3 614/5/3 616/521/3
f 614/5/3 232/182/3 230/5/3
f 232/5/4 229/5/4 230/522/4
f 229/5/4 232/5/4 231/523/4
f 229/187/5 614/5/5 230/5/5
f 614/5/5 229/187/5 613/524/5
f 615/2/6 232/3/6 616/11/6
f 232/3/6 615/2/6 231/1/6
f 234/3/1 236/2/1 233/1/1
f 236/3/1 234/2/1 235/1/1
f 617/3/2 234/2/2 233/1/2
f 234/3/2 617/2/2 618/1/2
f 619/5/3 236/183/3 235/5/3
f 236/183/3 619/5/3 620/525/3
f 619/5/4 617/5/4 620/526/4
f 617/5/4 619/5/4 618/527/4
f 617/5/5 236/186/5 620/528/5
f 236/186/5 617/5/5 233/5/5
f 234/2/6 619/3/6 235/11/6
f 619/3/6 234/2/6 618/1/6
f 242/3/1 244/2/1 241/1/1
f 244/3/1 242/2/1 243/1/1
f 245/3/2 242/2/2 241/1/2
f 242/3/2 245/2/2 247/1/2
f 248/194/3 244/189/3 243/5/3
f 244/189/3 248/194/3 246/5/3
f 248/5/4 245/5/4 246/529/4
f 245/5/4 248/5/4 247/530/4
f 245/199/5 244/192/5 246/5/5
f 244/192/5 245/199/5 241/5/5
f 242/2/6 248/3/6 243/11/6
f 248/3/6 242/2/6 247/1/6
f 623/3/1 622/2/1 621/1/1
f 622/3/1 623/2/1 624/1/1
f 625/3/2 623/2/2 621/1/2
f 623/3/2 625/2/2 626/1/2
f 627/5/3 622/5/3 624/531/3
f 622/5/3 627/5/3 628/532/3
f 627/5/4 625/5/4 628/533/4
f 625/5/4 627/5/4 626/534/4
f 625/5/5 622/5/5 628/535/5
f 622/5/5 625/5/5 621/536/5
f 623/2/6 627/3/6 624/11/6
f 627/3/6 623/2/6 626/1/6

usemtl color27

f 258/3/1 260/2/1 257/1/1
f 260/3/1 258/2/1 259/1/1
f 629/3/2 258/2/2 257/1/2
f 258/3/2 629/2/2 630/1/2
f 631/5/3 260/204/3 259/5/3
f 260/204/3 631/5/3 632/537/3
f 631/5/4 629/5/4 632/538/4
f 629/5/4 631/5/4 630/539/4
f 629/5/5 260/207/5 632/540/5
f 260/207/5 629/5/5 257/5/5
f 258/2/6 631/3/6 259/11/6
f 631/3/6 258/2/6 630/1/6
f 635/3/1 634/2/1 633/1/1
f 634/3/1 635/2/1 636/1/1
f 149/3/2 635/2/2 633/1/2
f 635/3/2 149/2/2 151/1/2
f 152/122/3 634/5/3 636/541/3
f 634/5/3 152/122/3 150/5/3
f 152/5/4 149/5/4 150/542/4
f 149/5/4 152/5/4 151/543/4
f 149/127/5 634/5/5 150/5/5
f 634/5/5 149/127/5 633/544/5
f 635/2/6 152/3/6 636/11/6
f 152/3/6 635/2/6 151/1/6
f 262/3/1 264/2/1 261/1/1
f 264/3/1 262/2/1 263/1/1
f 265/3/2 262/2/2 261/1/2
f 262/3/2 265/2/2 267/1/2
f 268/212/3 264/208/3 263/5/3
f 264/208/3 268/212/3 266/5/3
f 268/5/4 265/5/4 266/545/4
f 265/5/4 268/5/4 267/546/4
f 265/215/5 264/211/5 266/5/5
f 264/211/5 265/215/5 261/5/5
f 262/2/6 268/3/6 263/11/6
f 268/3/6 262/2/6 267/1/6
f 290/3/1 292/2/1 289/1/1
f 292/3/1 290/2/1 291/1/1
f 293/3/2 290/2/2 289/1/2
f 290/3/2 293/2/2 295/1/2
f 296/234/3 292/229/3 291/5/3
f 292/229/3 296/234/3 294/5/3
f 296/5/4 293/5/4 294/547/4
f 293/5/4 296/5/4 295/548/4
f 293/239/5 292/232/5 294/5/5
f 292/232/5 293/239/5 289/5/5
f 290/2/6 296/3/6 291/11/6
f 296/3/6 290/2/6 295/1/6

usemtl color31

f 630/3/1 632/2/1 629/1/1
f 632/3/1 630/2/1 631/1/1
f 633/3/2 630/2/2 629/1/2
f 630/3/2 633/2/2 635/1/2
f 636/541/3 632/537/3 631/5/3
f 632/537/3 636/541/3 634/5/3
f 636/5/4 633/5/4 634/549/4
f 633/5/4 636/5/4 635/550/4
f 633/544/5 632/540/5 634/5/5
f 632/540/5 633/544/5 629/5/5
f 630/2/6 636/3/6 631/11/6
f 636/3/6 630/2/6 635/1/6

usemtl color12

f 64/3/1 637/2/1 62/1/1
f 637/3/1 64/2/1 638/1/1
f 68/3/2 64/2/2 62/1/2
f 64/3/2 68/2/2 67/1/2
f 639/5/3 637/5/3 638/551/3
f 637/5/3 639/5/3 640/552/3
f 639/5/4 68/56/4 640/553/4
f 68/56/4 639/5/4 67/5/4
f 68/58/5 637/5/5 640/554/5
f 637/5/5 68/58/5 62/5/5
f 64/2/6 639/3/6 638/11/6
f 639/3/6 64/2/6 67/1/6
f 152/3/1 641/2/1 150/1/1
f 641/3/1 152/2/1 642/1/1
f 156/3/2 152/2/2 150/1/2
f 152/3/2 156/2/2 155/1/2
f 643/5/3 641/5/3 642/555/3
f 641/5/3 643/5/3 644/556/3
f 643/5/4 156/124/4 644/557/4
f 156/124/4 643/5/4 155/5/4
f 156/126/5 641/5/5 644/558/5
f 641/5/5 156/126/5 150/5/5
f 152/2/6 643/3/6 642/11/6
f 643/3/6 152/2/6 155/1/6
f 72/3/1 567/2/1 70/1/1
f 567/3/1 72/2/1 569/1/1
f 76/3/2 72/2/2 70/1/2
f 72/3/2 76/2/2 75/1/2
f 572/5/3 567/5/3 569/559/3
f 567/5/3 572/5/3 571/560/3
f 572/478/4 76/62/4 571/5/4
f 76/62/4 572/478/4 75/5/4
f 76/64/5 567/480/5 571/5/5
f 567/480/5 76/64/5 70/5/5
f 72/2/6 572/3/6 569/11/6
f 572/3/6 72/2/6 75/1/6
f 639/3/1 613/2/1 640/1/1
f 613/3/1 639/2/1 615/1/1
f 645/3/2 639/2/2 640/1/2
f 639/3/2 645/2/2 646/1/2
f 231/5/3 613/5/3 615/561/3
f 613/5/3 231/5/3 229/562/3
f 231/523/4 645/5/4 229/5/4
f 645/5/4 231/523/4 646/563/4
f 645/5/5 613/524/5 229/187/5
f 613/524/5 645/5/5 640/554/5
f 639/2/6 231/3/6 615/11/6
f 231/3/6 639/2/6 646/1/6
f 648/3/1 233/2/1 647/1/1
f 233/3/1 648/2/1 234/1/1
f 641/3/2 648/2/2 647/1/2
f 648/3/2 641/2/2 642/1/2
f 649/5/3 233/5/3 234/564/3
f 233/5/3 649/5/3 650/565/3
f 649/5/4 641/5/4 650/566/4
f 641/5/4 649/5/4 642/567/4
f 641/5/5 233/5/5 650/568/5
f 233/5/5 641/5/5 647/569/5
f 648/2/6 649/3/6 234/11/6
f 649/3/6 648/2/6 642/1/6
f 643/3/1 237/2/1 644/1/1
f 237/3/1 643/2/1 239/1/1
f 568/3/2 643/2/2 644/1/2
f 643/3/2 568/2/2 570/1/2
f 250/5/3 237/5/3 239/570/3
f 237/5/3 250/5/3 249/571/3
f 250/197/4 568/5/4 249/5/4
f 568/5/4 250/197/4 570/572/4
f 568/5/5 237/193/5 249/5/5
f 237/193/5 568/5/5 644/558/5
f 643/2/6 250/3/6 239/11/6
f 250/3/6 643/2/6 570/1/6
f 232/3/1 651/2/1 230/1/1
f 651/3/1 232/2/1 652/1/1
f 653/3/2 232/2/2 230/1/2
f 232/3/2 653/2/2 654/1/2
f 655/5/3 651/5/3 652/573/3
f 651/5/3 655/5/3 656/574/3
f 655/5/4 653/5/4 656/575/4
f 653/5/4 655/5/4 654/576/4
f 653/5/5 651/5/5 656/577/5
f 651/5/5 653/5/5 230/5/5
f 232/2/6 655/3/6 652/11/6
f 655/3/6 232/2/6 654/1/6
f 240/3/1 657/2/1 238/1/1
f 657/3/1 240/2/1 658/1/1
f 244/3/2 240/2/2 238/1/2
f 240/3/2 244/2/2 243/1/2
f 659/5/3 657/5/3 658/578/3
f 657/5/3 659/5/3 660/579/3
f 659/5/4 244/190/4 660/580/4
f 244/190/4 659/5/4 243/5/4
f 244/192/5 657/5/5 660/581/5
f 657/5/5 244/192/5 238/5/5
f 240/2/6 659/3/6 658/11/6
f 659/3/6 240/2/6 243/1/6
f 248/3/1 661/2/1 246/1/1
f 661/3/1 248/2/1 662/1/1
f 252/3/2 248/2/2 246/1/2
f 248/3/2 252/2/2 251/1/2
f 663/5/3 661/5/3 662/582/3
f 661/5/3 663/5/3 664/583/3
f 663/5/4 252/196/4 664/584/4
f 252/196/4 663/5/4 251/5/4
f 252/198/5 661/5/5 664/585/5
f 661/5/5 252/198/5 246/5/5
f 248/2/6 663/3/6 662/11/6
f 663/3/6 248/2/6 251/1/6

usemtl color8

f 259/3/1 665/2/1 260/1/1
f 665/3/1 259/2/1 666/1/1
f 632/3/2 259/2/2 260/1/2
f 259/3/2 632/2/2 631/1/2
f 667/5/3 665/5/3 666/586/3
f 665/5/3 667/5/3 668/587/3
f 667/5/4 632/538/4 668/588/4
f 632/538/4 667/5/4 631/5/4
f 632/540/5 665/5/5 668/589/5
f 665/5/5 632/540/5 260/207/5
f 259/2/6 667/3/6 666/11/6
f 667/3/6 259/2/6 631/1/6
f 263/3/1 669/2/1 264/1/1
f 669/3/1 263/2/1 670/1/1
f 266/3/2 263/2/2 264/1/2
f 263/3/2 266/2/2 268/1/2
f 671/5/3 669/5/3 670/590/3
f 669/5/3 671/5/3 672/591/3
f 671/5/4 266/545/4 672/592/4
f 266/545/4 671/5/4 268/5/4
f 266/5/5 669/5/5 672/593/5
f 669/5/5 266/5/5 264/211/5
f 263/2/6 671/3/6 670/11/6
f 671/3/6 263/2/6 268/1/6
f 162/3/1 164/2/1 161/1/1
f 164/3/1 162/2/1 163/1/1
f 673/3/2 162/2/2 161/1/2
f 162/3/2 673/2/2 674/1/2
f 675/5/3 164/129/3 163/5/3
f 164/129/3 675/5/3 676/594/3
f 675/5/4 673/5/4 676/595/4
f 673/5/4 675/5/4 674/596/4
f 673/5/5 164/132/5 676/597/5
f 164/132/5 673/5/5 161/5/5
f 162/2/6 675/3/6 163/11/6
f 675/3/6 162/2/6 674/1/6
f 418/3/1 677/2/1 416/1/1
f 677/3/1 418/2/1 678/1/1
f 679/3/2 418/2/2 416/1/2
f 418/3/2 679/2/2 680/1/2
f 681/5/3 677/5/3 678/598/3
f 677/5/3 681/5/3 682/599/3
f 681/5/4 679/5/4 682/600/4
f 679/5/4 681/5/4 680/601/4
f 679/5/5 677/5/5 682/602/5
f 677/5/5 679/5/5 416/5/5
f 418/2/6 681/3/6 678/11/6
f 681/3/6 418/2/6 680/1/6
f 685/3/1 684/2/1 683/1/1
f 684/3/1 685/2/1 686/1/1
f 422/3/2 685/2/2 683/1/2
f 685/3/2 422/2/2 421/1/2
f 687/5/3 684/5/3 686/603/3
f 684/5/3 687/5/3 688/604/3
f 687/5/4 422/342/4 688/605/4
f 422/342/4 687/5/4 421/5/4
f 422/344/5 684/5/5 688/606/5
f 684/5/5 422/344/5 683/607/5
f 685/2/6 687/3/6 686/11/6
f 687/3/6 685/2/6 421/1/6
f 690/3/1 682/2/1 689/1/1
f 682/3/1 690/2/1 681/1/1
f 469/3/2 690/2/2 689/1/2
f 690/3/2 469/2/2 471/1/2
f 472/382/3 682/599/3 681/5/3
f 682/599/3 472/382/3 470/5/3
f 472/5/4 469/5/4 470/608/4
f 469/5/4 472/5/4 471/609/4
f 469/387/5 682/602/5 470/5/5
f 682/602/5 469/387/5 689/610/5
f 690/2/6 472/3/6 681/11/6
f 472/3/6 690/2/6 471/1/6
f 474/3/1 476/2/1 473/1/1
f 476/3/1 474/2/1 475/1/1
f 691/3/2 474/2/2 473/1/2
f 474/3/2 691/2/2 692/1/2
f 686/603/3 476/383/3 475/5/3
f 476/383/3 686/603/3 684/5/3
f 686/5/4 691/5/4 684/611/4
f 691/5/4 686/5/4 692/612/4
f 691/5/5 476/386/5 684/5/5
f 476/386/5 691/5/5 473/5/5
f 474/2/6 686/3/6 475/11/6
f 686/3/6 474/2/6 692/1/6
f 695/3/1 694/2/1 693/1/1
f 694/3/1 695/2/1 696/1/1
f 697/3/2 695/2/2 693/1/2
f 695/3/2 697/2/2 698/1/2
f 699/5/3 694/5/3 696/613/3
f 694/5/3 699/5/3 700/614/3
f 699/5/4 697/5/4 700/615/4
f 697/5/4 699/5/4 698/616/4
f 697/5/5 694/5/5 700/617/5
f 694/5/5 697/5/5 693/618/5
f 695/2/6 699/3/6 696/11/6
f 699/3/6 695/2/6 698/1/6
f 646/3/1 229/2/1 645/1/1
f 229/3/1 646/2/1 231/1/1
f 647/3/2 646/2/2 645/1/2
f 646/3/2 647/2/2 648/1/2
f 234/564/3 229/562/3 231/5/3
f 229/562/3 234/564/3 233/5/3
f 234/185/4 647/5/4 233/5/4
f 647/5/4 234/185/4 648/619/4
f 647/569/5 229/187/5 233/5/5
f 229/187/5 647/569/5 645/5/5
f 646/2/6 234/3/6 231/11/6
f 234/3/6 646/2/6 648/1/6
f 703/3/1 702/2/1 701/1/1
f 702/3/1 703/2/1 704/1/1
f 613/3/2 703/2/2 701/1/2
f 703/3/2 613/2/2 615/1/2
f 616/521/3 702/5/3 704/620/3
f 702/5/3 616/521/3 614/5/3
f 616/5/4 613/5/4 614/621/4
f 613/5/4 616/5/4 615/622/4
f 613/524/5 702/5/5 614/5/5
f 702/5/5 613/524/5 701/623/5
f 703/2/6 616/3/6 704/11/6
f 616/3/6 703/2/6 615/1/6
f 250/3/1 252/2/1 249/1/1
f 252/3/1 250/2/1 251/1/1
f 705/3/2 250/2/2 249/1/2
f 250/3/2 705/2/2 706/1/2
f 707/5/3 252/195/3 251/5/3
f 252/195/3 707/5/3 708/624/3
f 707/5/4 705/5/4 708/625/4
f 705/5/4 707/5/4 706/626/4
f 705/5/5 252/198/5 708/627/5
f 252/198/5 705/5/5 249/5/5
f 250/2/6 707/3/6 251/11/6
f 707/3/6 250/2/6 706/1/6
f 711/3/1 710/2/1 709/1/1
f 710/3/1 711/2/1 712/1/1
f 713/3/2 711/2/2 709/1/2
f 711/3/2 713/2/2 714/1/2
f 715/5/3 710/5/3 712/628/3
f 710/5/3 715/5/3 716/629/3
f 715/5/4 713/5/4 716/630/4
f 713/5/4 715/5/4 714/631/4
f 713/5/5 710/5/5 716/632/5
f 710/5/5 713/5/5 709/633/5
f 711/2/6 715/3/6 712/11/6
f 715/3/6 711/2/6 714/1/6
f 719/3/1 718/2/1 717/1/1
f 718/3/1 719/2/1 720/1/1
f 721/3/2 719/2/2 717/1/2
f 719/3/2 721/2/2 722/1/2
f 723/5/3 718/5/3 720/634/3
f 718/5/3 723/5/3 724/635/3
f 723/5/4 721/5/4 724/636/4
f 721/5/4 723/5/4 722/637/4
f 721/5/5 718/5/5 724/638/5
f 718/5/5 721/5/5 717/639/5
f 719/2/6 723/3/6 720/11/6
f 723/3/6 719/2/6 722/1/6
f 727/3/1 726/2/1 725/1/1
f 726/3/1 727/2/1 728/1/1
f 729/3/2 727/2/2 725/1/2
f 727/3/2 729/2/2 730/1/2
f 623/5/3 726/5/3 728/640/3
f 726/5/3 623/5/3 621/641/3
f 623/5/4 729/5/4 621/642/4
f 729/5/4 623/5/4 730/643/4
f 729/5/5 726/5/5 621/536/5
f 726/5/5 729/5/5 725/644/5
f 727/2/6 623/3/6 728/11/6
f 623/3/6 727/2/6 730/1/6
f 130/3/1 132/2/1 129/1/1
f 132/3/1 130/2/1 131/1/1
f 731/3/2 130/2/2 129/1/2
f 130/3/2 731/2/2 732/1/2
f 733/5/3 132/103/3 131/5/3
f 132/103/3 733/5/3 734/645/3
f 733/5/4 731/5/4 734/646/4
f 731/5/4 733/5/4 732/647/4
f 731/5/5 132/106/5 734/648/5
f 132/106/5 731/5/5 129/5/5
f 130/2/6 733/3/6 131/11/6
f 733/3/6 130/2/6 732/1/6
f 654/3/1 656/2/1 653/1/1
f 656/3/1 654/2/1 655/1/1
f 238/3/2 654/2/2 653/1/2
f 654/3/2 238/2/2 240/1/2
f 658/578/3 656/574/3 655/5/3
f 656/574/3 658/578/3 657/5/3
f 658/5/4 238/5/4 657/649/4
f 238/5/4 658/5/4 240/650/4
f 238/5/5 656/577/5 657/5/5
f 656/577/5 238/5/5 653/5/5
f 654/2/6 658/3/6 655/11/6
f 658/3/6 654/2/6 240/1/6
f 243/3/1 660/2/1 244/1/1
f 660/3/1 243/2/1 659/1/1
f 246/3/2 243/2/2 244/1/2
f 243/3/2 246/2/2 248/1/2
f 662/582/3 660/579/3 659/5/3
f 660/579/3 662/582/3 661/5/3
f 662/5/4 246/529/4 661/651/4
f 246/529/4 662/5/4 248/5/4
f 246/5/5 660/581/5 661/5/5
f 660/581/5 246/5/5 244/192/5
f 243/2/6 662/3/6 659/11/6
f 662/3/6 243/2/6 248/1/6
f 737/3/1 736/2/1 735/1/1
f 736/3/1 737/2/1 738/1/1
f 739/3/2 737/2/2 735/1/2
f 737/3/2 739/2/2 740/1/2
f 741/5/3 736/5/3 738/652/3
f 736/5/3 741/5/3 742/653/3
f 741/5/4 739/5/4 742/654/4
f 739/5/4 741/5/4 740/655/4
f 739/5/5 736/5/5 742/656/5
f 736/5/5 739/5/5 735/657/5
f 737/2/6 741/3/6 738/11/6
f 741/3/6 737/2/6 740/1/6
f 626/3/1 628/2/1 625/1/1
f 628/3/1 626/2/1 627/1/1
f 743/3/2 626/2/2 625/1/2
f 626/3/2 743/2/2 744/1/2
f 745/5/3 628/532/3 627/5/3
f 628/532/3 745/5/3 746/658/3
f 745/5/4 743/5/4 746/659/4
f 743/5/4 745/5/4 744/660/4
f 743/5/5 628/535/5 746/661/5
f 628/535/5 743/5/5 625/5/5
f 626/2/6 745/3/6 627/11/6
f 745/3/6 626/2/6 744/1/6
f 749/3/1 748/2/1 747/1/1
f 748/3/1 749/2/1 750/1/1
f 751/3/2 749/2/2 747/1/2
f 749/3/2 751/2/2 752/1/2
f 753/5/3 748/5/3 750/662/3
f 748/5/3 753/5/3 754/663/3
f 753/5/4 751/5/4 754/664/4
f 751/5/4 753/5/4 752/665/4
f 751/5/5 748/5/5 754/666/5
f 748/5/5 751/5/5 747/667/5
f 749/2/6 753/3/6 750/11/6
f 753/3/6 749/2/6 752/1/6
f 757/3/1 756/2/1 755/1/1
f 756/3/1 757/2/1 758/1/1
f 759/3/2 757/2/2 755/1/2
f 757/3/2 759/2/2 760/1/2
f 761/5/3 756/5/3 758/668/3
f 756/5/3 761/5/3 762/669/3
f 761/5/4 759/5/4 762/670/4
f 759/5/4 761/5/4 760/671/4
f 759/5/5 756/5/5 762/672/5
f 756/5/5 759/5/5 755/673/5
f 757/2/6 761/3/6 758/11/6
f 761/3/6 757/2/6 760/1/6

usemtl color22

f 636/3/1 763/2/1 634/1/1
f 763/3/1 636/2/1 764/1/1
f 150/3/2 636/2/2 634/1/2
f 636/3/2 150/2/2 152/1/2
f 765/5/3 763/5/3 764/674/3
f 763/5/3 765/5/3 766/675/3
f 765/5/4 150/542/4 766/676/4
f 150/542/4 765/5/4 152/5/4
f 150/5/5 763/5/5 766/677/5
f 763/5/5 150/5/5 634/5/5
f 636/2/6 765/3/6 764/11/6
f 765/3/6 636/2/6 152/1/6
f 667/3/1 767/2/1 668/1/1
f 767/3/1 667/2/1 768/1/1
f 763/3/2 667/2/2 668/1/2
f 667/3/2 763/2/2 764/1/2
f 769/5/3 767/5/3 768/678/3
f 767/5/3 769/5/3 770/679/3
f 769/5/4 763/5/4 770/680/4
f 763/5/4 769/5/4 764/681/4
f 763/5/5 767/5/5 770/682/5
f 767/5/5 763/5/5 668/589/5
f 667/2/6 769/3/6 768/11/6
f 769/3/6 667/2/6 764/1/6
f 772/3/1 645/2/1 771/1/1
f 645/3/1 772/2/1 646/1/1
f 767/3/2 772/2/2 771/1/2
f 772/3/2 767/2/2 768/1/2
f 648/5/3 645/5/3 646/683/3
f 645/5/3 648/5/3 647/684/3
f 648/619/4 767/5/4 647/5/4
f 767/5/4 648/619/4 768/685/4
f 767/5/5 645/5/5 647/569/5
f 645/5/5 767/5/5 771/686/5
f 772/2/6 648/3/6 646/11/6
f 648/3/6 772/2/6 768/1/6
f 769/3/1 773/2/1 770/1/1
f 773/3/1 769/2/1 774/1/1
f 775/3/2 769/2/2 770/1/2
f 769/3/2 775/2/2 776/1/2
f 642/555/3 773/5/3 774/687/3
f 773/5/3 642/555/3 641/5/3
f 642/567/4 775/5/4 641/5/4
f 775/5/4 642/567/4 776/688/4
f 775/5/5 773/5/5 641/5/5
f 773/5/5 775/5/5 770/682/5
f 769/2/6 642/3/6 774/11/6
f 642/3/6 769/2/6 776/1/6

usemtl color18

f 428/3/1 430/2/1 427/1/1
f 430/3/1 428/2/1 429/1/1
f 431/3/2 428/2/2 427/1/2
f 428/3/2 431/2/2 433/1/2
f 434/352/3 430/347/3 429/5/3
f 430/347/3 434/352/3 432/5/3
f 434/5/4 431/5/4 432/689/4
f 431/5/4 434/5/4 433/690/4
f 431/357/5 430/350/5 432/5/5
f 430/350/5 431/357/5 427/5/5
f 428/2/6 434/3/6 429/11/6
f 434/3/6 428/2/6 433/1/6
f 436/3/1 438/2/1 435/1/1
f 438/3/1 436/2/1 437/1/1
f 439/3/2 436/2/2 435/1/2
f 436/3/2 439/2/2 441/1/2
f 442/358/3 438/353/3 437/5/3
f 438/353/3 442/358/3 440/5/3
f 442/5/4 439/5/4 440/691/4
f 439/5/4 442/5/4 441/692/4
f 439/363/5 438/356/5 440/5/5
f 438/356/5 439/363/5 435/5/5
f 436/2/6 442/3/6 437/11/6
f 442/3/6 436/2/6 441/1/6
f 444/3/1 446/2/1 443/1/1
f 446/3/1 444/2/1 445/1/1
f 447/3/2 444/2/2 443/1/2
f 444/3/2 447/2/2 449/1/2
f 450/364/3 446/359/3 445/5/3
f 446/359/3 450/364/3 448/5/3
f 450/5/4 447/5/4 448/693/4
f 447/5/4 450/5/4 449/694/4
f 447/369/5 446/362/5 448/5/5
f 446/362/5 447/369/5 443/5/5
f 444/2/6 450/3/6 445/11/6
f 450/3/6 444/2/6 449/1/6
f 779/3/1 778/2/1 777/1/1
f 778/3/1 779/2/1 780/1/1
f 781/3/2 779/2/2 777/1/2
f 779/3/2 781/2/2 782/1/2
f 783/5/3 778/5/3 780/695/3
f 778/5/3 783/5/3 784/696/3
f 783/5/4 781/5/4 784/697/4
f 781/5/4 783/5/4 782/698/4
f 781/5/5 778/5/5 784/699/5
f 778/5/5 781/5/5 777/700/5
f 779/2/6 783/3/6 780/11/6
f 783/3/6 779/2/6 782/1/6
f 787/3/1 786/2/1 785/1/1
f 786/3/1 787/2/1 788/1/1
f 789/3/2 787/2/2 785/1/2
f 787/3/2 789/2/2 790/1/2
f 791/5/3 786/5/3 788/701/3
f 786/5/3 791/5/3 792/702/3
f 791/5/4 789/5/4 792/703/4
f 789/5/4 791/5/4 790/704/4
f 789/5/5 786/5/5 792/705/5
f 786/5/5 789/5/5 785/706/5
f 787/2/6 791/3/6 788/11/6
f 791/3/6 787/2/6 790/1/6
f 795/3/1 794/2/1 793/1/1
f 794/3/1 795/2/1 796/1/1
f 797/3/2 795/2/2 793/1/2
f 795/3/2 797/2/2 798/1/2
f 799/5/3 794/5/3 796/707/3
f 794/5/3 799/5/3 800/708/3
f 799/5/4 797/5/4 800/709/4
f 797/5/4 799/5/4 798/710/4
f 797/5/5 794/5/5 800/711/5
f 794/5/5 797/5/5 793/712/5
f 795/2/6 799/3/6 796/11/6
f 799/3/6 795/2/6 798/1/6
f 803/3/1 802/2/1 801/1/1
f 802/3/1 803/2/1 804/1/1
f 805/3/2 803/2/2 801/1/2
f 803/3/2 805/2/2 806/1/2
f 807/5/3 802/5/3 804/713/3
f 802/5/3 807/5/3 808/714/3
f 807/5/4 805/5/4 808/715/4
f 805/5/4 807/5/4 806/716/4
f 805/5/5 802/5/5 808/717/5
f 802/5/5 805/5/5 801/718/5
f 803/2/6 807/3/6 804/11/6
f 807/3/6 803/2/6 806/1/6
f 811/3/1 810/2/1 809/1/1
f 810/3/1 811/2/1 812/1/1
f 709/3/2 811/2/2 809/1/2
f 811/3/2 709/2/2 711/1/2
f 712/628/3 810/5/3 812/719/3
f 810/5/3 712/628/3 710/5/3
f 712/5/4 709/5/4 710/720/4
f 709/5/4 712/5/4 711/721/4
f 709/633/5 810/5/5 710/5/5
f 810/5/5 709/633/5 809/722/5
f 811/2/6 712/3/6 812/11/6
f 712/3/6 811/2/6 711/1/6
f 714/3/1 716/2/1 713/1/1
f 716/3/1 714/2/1 715/1/1
f 717/3/2 714/2/2 713/1/2
f 714/3/2 717/2/2 719/1/2
f 720/634/3 716/629/3 715/5/3
f 716/629/3 720/634/3 718/5/3
f 720/5/4 717/5/4 718/723/4
f 717/5/4 720/5/4 719/724/4
f 717/639/5 716/632/5 718/5/5
f 716/632/5 717/639/5 713/5/5
f 714/2/6 720/3/6 715/11/6
f 720/3/6 714/2/6 719/1/6
f 722/3/1 724/2/1 721/1/1
f 724/3/1 722/2/1 723/1/1
f 725/3/2 722/2/2 721/1/2
f 722/3/2 725/2/2 727/1/2
f 728/640/3 724/635/3 723/5/3
f 724/635/3 728/640/3 726/5/3
f 728/5/4 725/5/4 726/725/4
f 725/5/4 728/5/4 727/726/4
f 725/644/5 724/638/5 726/5/5
f 724/638/5 725/644/5 721/5/5
f 722/2/6 728/3/6 723/11/6
f 728/3/6 722/2/6 727/1/6

usemtl color17

f 674/3/1 676/2/1 673/1/1
f 676/3/1 674/2/1 675/1/1
f 813/3/2 674/2/2 673/1/2
f 674/3/2 813/2/2 814/1/2
f 815/5/3 676/594/3 675/5/3
f 676/594/3 815/5/3 816/727/3
f 815/5/4 813/5/4 816/728/4
f 813/5/4 815/5/4 814/729/4
f 813/5/5 676/597/5 816/730/5
f 676/597/5 813/5/5 673/5/5
f 674/2/6 815/3/6 675/11/6
f 815/3/6 674/2/6 814/1/6
f 819/3/1 818/2/1 817/1/1
f 818/3/1 819/2/1 820/1/1
f 821/3/2 819/2/2 817/1/2
f 819/3/2 821/2/2 822/1/2
f 823/5/3 818/5/3 820/731/3
f 818/5/3 823/5/3 824/732/3
f 823/5/4 821/5/4 824/733/4
f 821/5/4 823/5/4 822/734/4
f 821/5/5 818/5/5 824/735/5
f 818/5/5 821/5/5 817/736/5
f 819/2/6 823/3/6 820/11/6
f 823/3/6 819/2/6 822/1/6
f 827/3/1 826/2/1 825/1/1
f 826/3/1 827/2/1 828/1/1
f 829/3/2 827/2/2 825/1/2
f 827/3/2 829/2/2 830/1/2
f 831/5/3 826/5/3 828/737/3
f 826/5/3 831/5/3 832/738/3
f 831/5/4 829/5/4 832/739/4
f 829/5/4 831/5/4 830/740/4
f 829/5/5 826/5/5 832/741/5
f 826/5/5 829/5/5 825/742/5
f 827/2/6 831/3/6 828/11/6
f 831/3/6 827/2/6 830/1/6
f 835/3/1 834/2/1 833/1/1
f 834/3/1 835/2/1 836/1/1
f 837/3/2 835/2/2 833/1/2
f 835/3/2 837/2/2 838/1/2
f 839/5/3 834/5/3 836/743/3
f 834/5/3 839/5/3 840/744/3
f 839/5/4 837/5/4 840/745/4
f 837/5/4 839/5/4 838/746/4
f 837/5/5 834/5/5 840/747/5
f 834/5/5 837/5/5 833/748/5
f 835/2/6 839/3/6 836/11/6
f 839/3/6 835/2/6 838/1/6
f 618/3/1 620/2/1 617/1/1
f 620/3/1 618/2/1 619/1/1
f 650/3/2 618/2/2 617/1/2
f 618/3/2 650/2/2 649/1/2
f 654/5/3 620/525/3 619/5/3
f 620/525/3 654/5/3 653/749/3
f 654/576/4 650/566/4 653/5/4
f 650/566/4 654/576/4 649/5/4
f 650/568/5 620/528/5 653/5/5
f 620/528/5 650/568/5 617/5/5
f 618/2/6 654/3/6 619/11/6
f 654/3/6 618/2/6 649/1/6
f 732/3/1 734/2/1 731/1/1
f 734/3/1 732/2/1 733/1/1
f 841/3/2 732/2/2 731/1/2
f 732/3/2 841/2/2 842/1/2
f 843/5/3 734/645/3 733/5/3
f 734/645/3 843/5/3 844/750/3
f 843/5/4 841/5/4 844/751/4
f 841/5/4 843/5/4 842/752/4
f 841/5/5 734/648/5 844/753/5
f 734/648/5 841/5/5 731/5/5
f 732/2/6 843/3/6 733/11/6
f 843/3/6 732/2/6 842/1/6
f 847/3/1 846/2/1 845/1/1
f 846/3/1 847/2/1 848/1/1
f 849/3/2 847/2/2 845/1/2
f 847/3/2 849/2/2 850/1/2
f 851/5/3 846/5/3 848/754/3
f 846/5/3 851/5/3 852/755/3
f 851/5/4 849/5/4 852/756/4
f 849/5/4 851/5/4 850/757/4
f 849/5/5 846/5/5 852/758/5
f 846/5/5 849/5/5 845/759/5
f 847/2/6 851/3/6 848/11/6
f 851/3/6 847/2/6 850/1/6

usemtl color20

f 782/3/1 784/2/1 781/1/1
f 784/3/1 782/2/1 783/1/1
f 853/3/2 782/2/2 781/1/2
f 782/3/2 853/2/2 854/1/2
f 855/5/3 784/696/3 783/5/3
f 784/696/3 855/5/3 856/760/3
f 855/5/4 853/5/4 856/761/4
f 853/5/4 855/5/4 854/762/4
f 853/5/5 784/699/5 856/763/5
f 784/699/5 853/5/5 781/5/5
f 782/2/6 855/3/6 783/11/6
f 855/3/6 782/2/6 854/1/6
f 859/3/1 858/2/1 857/1/1
f 858/3/1 859/2/1 860/1/1
f 861/3/2 859/2/2 857/1/2
f 859/3/2 861/2/2 862/1/2
f 863/5/3 858/5/3 860/764/3
f 858/5/3 863/5/3 864/765/3
f 863/5/4 861/5/4 864/766/4
f 861/5/4 863/5/4 862/767/4
f 861/5/5 858/5/5 864/768/5
f 858/5/5 861/5/5 857/769/5
f 859/2/6 863/3/6 860/11/6
f 863/3/6 859/2/6 862/1/6
f 867/3/1 866/2/1 865/1/1
f 866/3/1 867/2/1 868/1/1
f 869/3/2 867/2/2 865/1/2
f 867/3/2 869/2/2 870/1/2
f 871/5/3 866/5/3 868/770/3
f 866/5/3 871/5/3 872/771/3
f 871/5/4 869/5/4 872/772/4
f 869/5/4 871/5/4 870/773/4
f 869/5/5 866/5/5 872/774/5
f 866/5/5 869/5/5 865/775/5
f 867/2/6 871/3/6 868/11/6
f 871/3/6 867/2/6 870/1/6
f 875/3/1 874/2/1 873/1/1
f 874/3/1 875/2/1 876/1/1
f 877/3/2 875/2/2 873/1/2
f 875/3/2 877/2/2 878/1/2
f 879/5/3 874/5/3 876/776/3
f 874/5/3 879/5/3 880/777/3
f 879/5/4 877/5/4 880/778/4
f 877/5/4 879/5/4 878/779/4
f 877/5/5 874/5/5 880/780/5
f 874/5/5 877/5/5 873/781/5
f 875/2/6 879/3/6 876/11/6
f 879/3/6 875/2/6 878/1/6
f 883/3/1 882/2/1 881/1/1
f 882/3/1 883/2/1 884/1/1
f 885/3/2 883/2/2 881/1/2
f 883/3/2 885/2/2 886/1/2
f 887/5/3 882/5/3 884/782/3
f 882/5/3 887/5/3 888/783/3
f 887/5/4 885/5/4 888/784/4
f 885/5/4 887/5/4 886/785/4
f 885/5/5 882/5/5 888/786/5
f 882/5/5 885/5/5 881/787/5
f 883/2/6 887/3/6 884/11/6
f 887/3/6 883/2/6 886/1/6
f 798/3/1 800/2/1 797/1/1
f 800/3/1 798/2/1 799/1/1
f 889/3/2 798/2/2 797/1/2
f 798/3/2 889/2/2 890/1/2
f 891/5/3 800/708/3 799/5/3
f 800/708/3 891/5/3 892/788/3
f 891/5/4 889/5/4 892/789/4
f 889/5/4 891/5/4 890/790/4
f 889/5/5 800/711/5 892/791/5
f 800/711/5 889/5/5 797/5/5
f 798/2/6 891/3/6 799/11/6
f 891/3/6 798/2/6 890/1/6
f 895/3/1 894/2/1 893/1/1
f 894/3/1 895/2/1 896/1/1
f 897/3/2 895/2/2 893/1/2
f 895/3/2 897/2/2 898/1/2
f 899/5/3 894/5/3 896/792/3
f 894/5/3 899/5/3 900/793/3
f 899/5/4 897/5/4 900/794/4
f 897/5/4 899/5/4 898/795/4
f 897/5/5 894/5/5 900/796/5
f 894/5/5 897/5/5 893/797/5
f 895/2/6 899/3/6 896/11/6
f 899/3/6 895/2/6 898/1/6
f 903/3/1 902/2/1 901/1/1
f 902/3/1 903/2/1 904/1/1
f 905/3/2 903/2/2 901/1/2
f 903/3/2 905/2/2 906/1/2
f 907/5/3 902/5/3 904/798/3
f 902/5/3 907/5/3 908/799/3
f 907/5/4 905/5/4 908/800/4
f 905/5/4 907/5/4 906/801/4
f 905/5/5 902/5/5 908/802/5
f 902/5/5 905/5/5 901/803/5
f 903/2/6 907/3/6 904/11/6
f 907/3/6 903/2/6 906/1/6
f 911/3/1 910/2/1 909/1/1
f 910/3/1 911/2/1 912/1/1
f 913/3/2 911/2/2 909/1/2
f 911/3/2 913/2/2 914/1/2
f 915/5/3 910/5/3 912/804/3
f 910/5/3 915/5/3 916/805/3
f 915/5/4 913/5/4 916/806/4
f 913/5/4 915/5/4 914/807/4
f 913/5/5 910/5/5 916/808/5
f 910/5/5 913/5/5 909/809/5
f 911/2/6 915/3/6 912/11/6
f 915/3/6 911/2/6 914/1/6
f 919/3/1 918/2/1 917/1/1
f 918/3/1 919/2/1 920/1/1
f 921/3/2 919/2/2 917/1/2
f 919/3/2 921/2/2 922/1/2
f 923/5/3 918/5/3 920/810/3
f 918/5/3 923/5/3 924/811/3
f 923/5/4 921/5/4 924/812/4
f 921/5/4 923/5/4 922/813/4
f 921/5/5 918/5/5 924/814/5
f 918/5/5 921/5/5 917/815/5
f 919/2/6 923/3/6 920/11/6
f 923/3/6 919/2/6 922/1/6

usemtl color28

f 927/3/1 926/2/1 925/1/1
f 926/3/1 927/2/1 928/1/1
f 665/3/2 927/2/2 925/1/2
f 927/3/2 665/2/2 666/1/2
f 772/5/3 926/5/3 928/816/3
f 926/5/3 772/5/3 771/817/3
f 772/5/4 665/5/4 771/818/4
f 665/5/4 772/5/4 666/819/4
f 665/5/5 926/5/5 771/686/5
f 926/5/5 665/5/5 925/820/5
f 927/2/6 772/3/6 928/11/6
f 772/3/6 927/2/6 666/1/6

usemtl color29

f 275/3/1 217/2/1 276/1/1
f 217/3/1 275/2/1 218/1/1
f 278/3/2 275/2/2 276/1/2
f 275/3/2 278/2/2 280/1/2
f 223/5/3 217/5/3 218/821/3
f 217/5/3 223/5/3 221/822/3
f 223/5/4 278/5/4 221/823/4
f 278/5/4 223/5/4 280/824/4
f 278/5/5 217/5/5 221/181/5
f 217/5/5 278/5/5 276/220/5
f 275/2/6 223/3/6 218/11/6
f 223/3/6 275/2/6 280/1/6

usemtl color25

f 283/3/1 225/2/1 284/1/1
f 225/3/1 283/2/1 226/1/1
f 929/3/2 283/2/2 284/1/2
f 283/3/2 929/2/2 930/1/2
f 931/5/3 225/5/3 226/825/3
f 225/5/3 931/5/3 932/826/3
f 931/5/4 929/5/4 932/827/4
f 929/5/4 931/5/4 930/828/4
f 929/5/5 225/5/5 932/829/5
f 225/5/5 929/5/5 284/226/5
f 283/2/6 931/3/6 226/11/6
f 931/3/6 283/2/6 930/1/6
f 828/3/1 833/2/1 826/1/1
f 833/3/1 828/2/1 835/1/1
f 832/3/2 828/2/2 826/1/2
f 828/3/2 832/2/2 831/1/2
f 838/5/3 833/5/3 835/830/3
f 833/5/3 838/5/3 837/831/3
f 838/746/4 832/739/4 837/5/4
f 832/739/4 838/746/4 831/5/4
f 832/741/5 833/748/5 837/5/5
f 833/748/5 832/741/5 826/5/5
f 828/2/6 838/3/6 835/11/6
f 838/3/6 828/2/6 831/1/6

usemtl color30

f 670/3/1 693/2/1 669/1/1
f 693/3/1 670/2/1 695/1/1
f 672/3/2 670/2/2 669/1/2
f 670/3/2 672/2/2 671/1/2
f 698/5/3 693/5/3 695/832/3
f 693/5/3 698/5/3 697/833/3
f 698/616/4 672/592/4 697/5/4
f 672/592/4 698/616/4 671/5/4
f 672/593/5 693/618/5 697/5/5
f 693/618/5 672/593/5 669/5/5
f 670/2/6 698/3/6 695/11/6
f 698/3/6 670/2/6 671/1/6

usemtl color21

f 790/3/1 792/2/1 789/1/1
f 792/3/1 790/2/1 791/1/1
f 933/3/2 790/2/2 789/1/2
f 790/3/2 933/2/2 934/1/2
f 935/5/3 792/702/3 791/5/3
f 792/702/3 935/5/3 936/834/3
f 935/5/4 933/5/4 936/835/4
f 933/5/4 935/5/4 934/836/4
f 933/5/5 792/705/5 936/837/5
f 792/705/5 933/5/5 789/5/5
f 790/2/6 935/3/6 791/11/6
f 935/3/6 790/2/6 934/1/6
f 886/3/1 888/2/1 885/1/1
f 888/3/1 886/2/1 887/1/1
f 937/3/2 886/2/2 885/1/2
f 886/3/2 937/2/2 938/1/2
f 939/5/3 888/783/3 887/5/3
f 888/783/3 939/5/3 940/838/3
f 939/5/4 937/5/4 940/839/4
f 937/5/4 939/5/4 938/840/4
f 937/5/5 888/786/5 940/841/5
f 888/786/5 937/5/5 885/5/5
f 886/2/6 939/3/6 887/11/6
f 939/3/6 886/2/6 938/1/6
f 806/3/1 808/2/1 805/1/1
f 808/3/1 806/2/1 807/1/1
f 941/3/2 806/2/2 805/1/2
f 806/3/2 941/2/2 942/1/2
f 943/5/3 808/714/3 807/5/3
f 808/714/3 943/5/3 944/842/3
f 943/5/4 941/5/4 944/843/4
f 941/5/4 943/5/4 942/844/4
f 941/5/5 808/717/5 944/845/5
f 808/717/5 941/5/5 805/5/5
f 806/2/6 943/3/6 807/11/6
f 943/3/6 806/2/6 942/1/6
f 922/3/1 924/2/1 921/1/1
f 924/3/1 922/2/1 923/1/1
f 945/3/2 922/2/2 921/1/2
f 922/3/2 945/2/2 946/1/2
f 947/5/3 924/811/3 923/5/3
f 924/811/3 947/5/3 948/846/3
f 947/5/4 945/5/4 948/847/4
f 945/5/4 947/5/4 946/848/4
f 945/5/5 924/814/5 948/849/5
f 924/814/5 945/5/5 921/5/5
f 922/2/6 947/3/6 923/11/6
f 947/3/6 922/2/6 946/1/6

usemtl color23

f 184/3/1 483/2/1 182/1/1
f 483/3/1 184/2/1 485/1/1
f 188/3/2 184/2/2 182/1/2
f 184/3/2 188/2/2 187/1/2
f 488/5/3 483/5/3 485/850/3
f 483/5/3 488/5/3 487/851/3
f 488/396/4 188/148/4 487/5/4
f 188/148/4 488/396/4 187/5/4
f 188/150/5 483/398/5 487/5/5
f 483/398/5 188/150/5 182/5/5
f 184/2/6 488/3/6 485/11/6
f 488/3/6 184/2/6 187/1/6
f 192/3/1 101/2/1 190/1/1
f 101/3/1 192/2/1 103/1/1
f 196/3/2 192/2/2 190/1/2
f 192/3/2 196/2/2 195/1/2
f 106/5/3 101/5/3 103/852/3
f 101/5/3 106/5/3 105/853/3
f 106/87/4 196/154/4 105/5/4
f 196/154/4 106/87/4 195/5/4
f 196/156/5 101/89/5 105/5/5
f 101/89/5 196/156/5 190/5/5
f 192/2/6 106/3/6 103/11/6
f 106/3/6 192/2/6 195/1/6
f 200/3/1 109/2/1 198/1/1
f 109/3/1 200/2/1 111/1/1
f 204/3/2 200/2/2 198/1/2
f 200/3/2 204/2/2 203/1/2
f 114/5/3 109/5/3 111/854/3
f 109/5/3 114/5/3 113/855/3
f 114/93/4 204/160/4 113/5/4
f 204/160/4 114/93/4 203/5/4
f 204/162/5 109/95/5 113/5/5
f 109/95/5 204/162/5 198/5/5
f 200/2/6 114/3/6 111/11/6
f 114/3/6 200/2/6 203/1/6
f 951/3/1 950/2/1 949/1/1
f 950/3/1 951/2/1 952/1/1
f 953/3/2 951/2/2 949/1/2
f 951/3/2 953/2/2 954/1/2
f 955/5/3 950/5/3 952/856/3
f 950/5/3 955/5/3 956/857/3
f 955/5/4 953/5/4 956/858/4
f 953/5/4 955/5/4 954/859/4
f 953/5/5 950/5/5 956/860/5
f 950/5/5 953/5/5 949/861/5
f 951/2/6 955/3/6 952/11/6
f 955/3/6 951/2/6 954/1/6

usemtl color24

f 860/3/1 893/2/1 858/1/1
f 893/3/1 860/2/1 895/1/1
f 864/3/2 860/2/2 858/1/2
f 860/3/2 864/2/2 863/1/2
f 898/5/3 893/5/3 895/862/3
f 893/5/3 898/5/3 897/863/3
f 898/795/4 864/766/4 897/5/4
f 864/766/4 898/795/4 863/5/4
f 864/768/5 893/797/5 897/5/5
f 893/797/5 864/768/5 858/5/5
f 860/2/6 898/3/6 895/11/6
f 898/3/6 860/2/6 863/1/6
f 868/3/1 901/2/1 866/1/1
f 901/3/1 868/2/1 903/1/1
f 872/3/2 868/2/2 866/1/2
f 868/3/2 872/2/2 871/1/2
f 906/5/3 901/5/3 903/864/3
f 901/5/3 906/5/3 905/865/3
f 906/801/4 872/772/4 905/5/4
f 872/772/4 906/801/4 871/5/4
f 872/774/5 901/803/5 905/5/5
f 901/803/5 872/774/5 866/5/5
f 868/2/6 906/3/6 903/11/6
f 906/3/6 868/2/6 871/1/6
f 876/3/1 909/2/1 874/1/1
f 909/3/1 876/2/1 911/1/1
f 880/3/2 876/2/2 874/1/2
f 876/3/2 880/2/2 879/1/2
f 914/5/3 909/5/3 911/866/3
f 909/5/3 914/5/3 913/867/3
f 914/807/4 880/778/4 913/5/4
f 880/778/4 914/807/4 879/5/4
f 880/780/5 909/809/5 913/5/5
f 909/809/5 880/780/5 874/5/5
f 876/2/6 914/3/6 911/11/6
f 914/3/6 876/2/6 879/1/6
f 791/3/1 805/2/1 792/1/1
f 805/3/1 791/2/1 806/1/1
f 936/3/2 791/2/2 792/1/2
f 791/3/2 936/2/2 935/1/2
f 942/5/3 805/5/3 806/868/3
f 805/5/3 942/5/3 941/869/3
f 942/844/4 936/835/4 941/5/4
f 936/835/4 942/844/4 935/5/4
f 936/837/5 805/5/5 941/5/5
f 805/5/5 936/837/5 792/705/5
f 791/2/6 942/3/6 806/11/6
f 942/3/6 791/2/6 935/1/6
f 959/3/1 958/2/1 957/1/1
f 958/3/1 959/2/1 960/1/1
f 961/3/2 959/2/2 957/1/2
f 959/3/2 961/2/2 962/1/2
f 963/5/3 958/5/3 960/870/3
f 958/5/3 963/5/3 964/871/3
f 963/5/4 961/5/4 964/872/4
f 961/5/4 963/5/4 962/873/4
f 961/5/5 958/5/5 964/874/5
f 958/5/5 961/5/5 957/875/5
f 959/2/6 963/3/6 960/11/6
f 963/3/6 959/2/6 962/1/6

usemtl color3

f 967/3/1 966/2/1 965/1/1
f 966/3/1 967/2/1 968/1/1
f 969/3/2 967/2/2 965/1/2
f 967/3/2 969/2/2 970/1/2
f 971/5/3 966/5/3 968/876/3
f 966/5/3 971/5/3 972/877/3
f 971/5/4 969/5/4 972/878/4
f 969/5/4 971/5/4 970/879/4
f 969/5/5 966/5/5 972/880/5
f 966/5/5 969/5/5 965/881/5
f 967/2/6 971/3/6 968/11/6
f 971/3/6 967/2/6 970/1/6
f 592/3/1 525/2/1 590/1/1
f 525/3/1 592/2/1 527/1/1
f 596/3/2 592/2/2 590/1/2
f 592/3/2 596/2/2 595/1/2
f 530/5/3 525/5/3 527/882/3
f 525/5/3 530/5/3 529/883/3
f 530/433/4 596/499/4 529/5/4
f 596/499/4 530/433/4 595/5/4
f 596/501/5 525/435/5 529/5/5
f 525/435/5 596/501/5 590/5/5
f 592/2/6 530/3/6 527/11/6
f 530/3/6 592/2/6 595/1/6
f 600/3/1 537/2/1 598/1/1
f 537/3/1 600/2/1 539/1/1
f 604/3/2 600/2/2 598/1/2
f 600/3/2 604/2/2 603/1/2
f 542/5/3 537/5/3 539/884/3
f 537/5/3 542/5/3 541/885/3
f 542/443/4 604/505/4 541/5/4
f 604/505/4 542/443/4 603/5/4
f 604/507/5 537/445/5 541/5/5
f 537/445/5 604/507/5 598/5/5
f 600/2/6 542/3/6 539/11/6
f 542/3/6 600/2/6 603/1/6
f 975/3/1 974/2/1 973/1/1
f 974/3/1 975/2/1 976/1/1
f 977/3/2 975/2/2 973/1/2
f 975/3/2 977/2/2 978/1/2
f 979/5/3 974/5/3 976/886/3
f 974/5/3 979/5/3 980/887/3
f 979/5/4 977/5/4 980/888/4
f 977/5/4 979/5/4 978/889/4
f 977/5/5 974/5/5 980/890/5
f 974/5/5 977/5/5 973/891/5
f 975/2/6 979/3/6 976/11/6
f 979/3/6 975/2/6 978/1/6
f 983/3/1 982/2/1 981/1/1
f 982/3/1 983/2/1 984/1/1
f 985/3/2 983/2/2 981/1/2
f 983/3/2 985/2/2 986/1/2
f 987/5/3 982/5/3 984/892/3
f 982/5/3 987/5/3 988/893/3
f 987/5/4 985/5/4 988/894/4
f 985/5/4 987/5/4 986/895/4
f 985/5/5 982/5/5 988/896/5
f 982/5/5 985/5/5 981/897/5
f 983/2/6 987/3/6 984/11/6
f 987/3/6 983/2/6 986/1/6
f 991/3/1 990/2/1 989/1/1
f 990/3/1 991/2/1 992/1/1
f 303/3/2 991/2/2 989/1/2
f 991/3/2 303/2/2 305/1/2
f 306/245/3 990/5/3 992/898/3
f 990/5/3 306/245/3 304/5/3
f 306/5/4 303/5/4 304/899/4
f 303/5/4 306/5/4 305/900/4
f 303/250/5 990/5/5 304/5/5
f 990/5/5 303/250/5 989/901/5
f 991/2/6 306/3/6 992/11/6
f 306/3/6 991/2/6 305/1/6
f 308/3/1 310/2/1 307/1/1
f 310/3/1 308/2/1 309/1/1
f 993/3/2 308/2/2 307/1/2
f 308/3/2 993/2/2 994/1/2
f 995/5/3 310/246/3 309/5/3
f 310/246/3 995/5/3 996/902/3
f 995/5/4 993/5/4 996/903/4
f 993/5/4 995/5/4 994/904/4
f 993/5/5 310/249/5 996/905/5
f 310/249/5 993/5/5 307/5/5
f 308/2/6 995/3/6 309/11/6
f 995/3/6 308/2/6 994/1/6
f 999/3/1 998/2/1 997/1/1
f 998/3/1 999/2/1 1000/1/1
f 1001/3/2 999/2/2 997/1/2
f 999/3/2 1001/2/2 1002/1/2
f 1003/5/3 998/5/3 1000/906/3
f 998/5/3 1003/5/3 1004/907/3
f 1003/5/4 1001/5/4 1004/908/4
f 1001/5/4 1003/5/4 1002/909/4
f 1001/5/5 998/5/5 1004/910/5
f 998/5/5 1001/5/5 997/911/5
f 999/2/6 1003/3/6 1000/11/6
f 1003/3/6 999/2/6 1002/1/6
f 1007/3/1 1006/2/1 1005/1/1
f 1006/3/1 1007/2/1 1008/1/1
f 1009/3/2 1007/2/2 1005/1/2
f 1007/3/2 1009/2/2 1010/1/2
f 1011/5/3 1006/5/3 1008/912/3
f 1006/5/3 1011/5/3 1012/913/3
f 1011/5/4 1009/5/4 1012/914/4
f 1009/5/4 1011/5/4 1010/915/4
f 1009/5/5 1006/5/5 1012/916/5
f 1006/5/5 1009/5/5 1005/917/5
f 1007/2/6 1011/3/6 1008/11/6
f 1011/3/6 1007/2/6 1010/1/6

usemtl color11

f 638/3/1 701/2/1 637/1/1
f 701/3/1 638/2/1 703/1/1
f 640/3/2 638/2/2 637/1/2
f 638/3/2 640/2/2 639/1/2
f 615/561/3 701/5/3 703/918/3
f 701/5/3 615/561/3 613/5/3
f 615/622/4 640/553/4 613/5/4
f 640/553/4 615/622/4 639/5/4
f 640/554/5 701/623/5 613/524/5
f 701/623/5 640/554/5 637/5/5
f 638/2/6 615/3/6 703/11/6
f 615/3/6 638/2/6 639/1/6
f 642/3/1 650/2/1 641/1/1
f 650/3/1 642/2/1 649/1/1
f 644/3/2 642/2/2 641/1/2
f 642/3/2 644/2/2 643/1/2
f 239/570/3 650/565/3 649/5/3
f 650/565/3 239/570/3 237/5/3
f 239/5/4 644/557/4 237/919/4
f 644/557/4 239/5/4 643/5/4
f 644/558/5 650/568/5 237/193/5
f 650/568/5 644/558/5 641/5/5
f 642/2/6 239/3/6 649/11/6
f 239/3/6 642/2/6 643/1/6
f 570/3/1 249/2/1 568/1/1
f 249/3/1 570/2/1 250/1/1
f 574/3/2 570/2/2 568/1/2
f 570/3/2 574/2/2 573/1/2
f 706/5/3 249/571/3 250/5/3
f 249/571/3 706/5/3 705/920/3
f 706/626/4 574/477/4 705/5/4
f 574/477/4 706/626/4 573/5/4
f 574/479/5 249/5/5 705/5/5
f 249/5/5 574/479/5 568/5/5
f 570/2/6 706/3/6 250/11/6
f 706/3/6 570/2/6 573/1/6
f 1015/3/1 1014/2/1 1013/1/1
f 1014/3/1 1015/2/1 1016/1/1
f 809/3/2 1015/2/2 1013/1/2
f 1015/3/2 809/2/2 811/1/2
f 812/719/3 1014/5/3 1016/921/3
f 1014/5/3 812/719/3 810/5/3
f 812/5/4 809/5/4 810/922/4
f 809/5/4 812/5/4 811/923/4
f 809/722/5 1014/5/5 810/5/5
f 1014/5/5 809/722/5 1013/924/5
f 1015/2/6 812/3/6 1016/11/6
f 812/3/6 1015/2/6 811/1/6
f 616/3/1 1017/2/1 614/1/1
f 1017/3/1 616/2/1 1018/1/1
f 230/3/2 616/2/2 614/1/2
f 616/3/2 230/2/2 232/1/2
f 652/573/3 1017/5/3 1018/925/3
f 1017/5/3 652/573/3 651/5/3
f 652/5/4 230/522/4 651/926/4
f 230/522/4 652/5/4 232/5/4
f 230/5/5 1017/5/5 651/5/5
f 1017/5/5 230/5/5 614/5/5
f 616/2/6 652/3/6 1018/11/6
f 652/3/6 616/2/6 232/1/6
f 1021/3/1 1020/2/1 1019/1/1
f 1020/3/1 1021/2/1 1022/1/1
f 1023/3/2 1021/2/2 1019/1/2
f 1021/3/2 1023/2/2 1024/1/2
f 1025/5/3 1020/5/3 1022/927/3
f 1020/5/3 1025/5/3 1026/928/3
f 1025/5/4 1023/5/4 1026/929/4
f 1023/5/4 1025/5/4 1024/930/4
f 1023/5/5 1020/5/5 1026/931/5
f 1020/5/5 1023/5/5 1019/932/5
f 1021/2/6 1025/3/6 1022/11/6
f 1025/3/6 1021/2/6 1024/1/6
f 1029/3/1 1028/2/1 1027/1/1
f 1028/3/1 1029/2/1 1030/1/1
f 1031/3/2 1029/2/2 1027/1/2
f 1029/3/2 1031/2/2 1032/1/2
f 1033/5/3 1028/5/3 1030/933/3
f 1028/5/3 1033/5/3 1034/934/3
f 1033/5/4 1031/5/4 1034/935/4
f 1031/5/4 1033/5/4 1032/936/4
f 1031/5/5 1028/5/5 1034/937/5
f 1028/5/5 1031/5/5 1027/938/5
f 1029/2/6 1033/3/6 1030/11/6
f 1033/3/6 1029/2/6 1032/1/6

usemtl color5

f 968/3/1 1035/2/1 966/1/1
f 1035/3/1 968/2/1 1036/1/1
f 1037/3/2 968/2/2 966/1/2
f 968/3/2 1037/2/2 1038/1/2
f 534/5/3 1035/5/3 1036/939/3
f 1035/5/3 534/5/3 533/940/3
f 534/5/4 1037/5/4 533/941/4
f 1037/5/4 534/5/4 1038/942/4
f 1037/5/5 1035/5/5 533/439/5
f 1035/5/5 1037/5/5 966/5/5
f 968/2/6 534/3/6 1036/11/6
f 534/3/6 968/2/6 1038/1/6
f 1040/3/1 535/2/1 1039/1/1
f 535/3/1 1040/2/1 536/1/1
f 972/3/2 1040/2/2 1039/1/2
f 1040/3/2 972/2/2 971/1/2
f 1041/5/3 535/5/3 536/943/3
f 535/5/3 1041/5/3 1042/944/3
f 1041/5/4 972/878/4 1042/945/4
f 972/878/4 1041/5/4 971/5/4
f 972/880/5 535/5/5 1042/946/5
f 535/5/5 972/880/5 1039/947/5
f 1040/2/6 1041/3/6 536/11/6
f 1041/3/6 1040/2/6 971/1/6
f 1002/3/1 1004/2/1 1001/1/1
f 1004/3/1 1002/2/1 1003/1/1
f 1043/3/2 1002/2/2 1001/1/2
f 1002/3/2 1043/2/2 1044/1/2
f 1045/5/3 1004/907/3 1003/5/3
f 1004/907/3 1045/5/3 1046/948/3
f 1045/5/4 1043/5/4 1046/949/4
f 1043/5/4 1045/5/4 1044/950/4
f 1043/5/5 1004/910/5 1046/951/5
f 1004/910/5 1043/5/5 1001/5/5
f 1002/2/6 1045/3/6 1003/11/6
f 1045/3/6 1002/2/6 1044/1/6
f 1010/3/1 1012/2/1 1009/1/1
f 1012/3/1 1010/2/1 1011/1/1
f 1047/3/2 1010/2/2 1009/1/2
f 1010/3/2 1047/2/2 1048/1/2
f 1049/5/3 1012/913/3 1011/5/3
f 1012/913/3 1049/5/3 1050/952/3
f 1049/5/4 1047/5/4 1050/953/4
f 1047/5/4 1049/5/4 1048/954/4
f 1047/5/5 1012/916/5 1050/955/5
f 1012/916/5 1047/5/5 1009/5/5
f 1010/2/6 1049/3/6 1011/11/6
f 1049/3/6 1010/2/6 1048/1/6

usemtl color10

f 1038/3/1 533/2/1 1037/1/1
f 533/3/1 1038/2/1 534/1/1
f 1039/3/2 1038/2/2 1037/1/2
f 1038/3/2 1039/2/2 1040/1/2
f 536/943/3 533/940/3 534/5/3
f 533/940/3 536/943/3 535/5/3
f 536/438/4 1039/5/4 535/5/4
f 1039/5/4 536/438/4 1040/956/4
f 1039/947/5 533/439/5 535/5/5
f 533/439/5 1039/947/5 1037/5/5
f 1038/2/6 536/3/6 534/11/6
f 536/3/6 1038/2/6 1040/1/6

usemtl color9

f 649/3/1 653/2/1 650/1/1
f 653/3/1 649/2/1 654/1/1
f 237/3/2 649/2/2 650/1/2
f 649/3/2 237/2/2 239/1/2
f 240/188/3 653/749/3 654/5/3
f 653/749/3 240/188/3 238/5/3
f 240/650/4 237/919/4 238/5/4
f 237/919/4 240/650/4 239/5/4
f 237/193/5 653/5/5 238/5/5
f 653/5/5 237/193/5 650/568/5
f 649/2/6 240/3/6 654/11/6
f 240/3/6 649/2/6 239/1/6
f 752/3/1 754/2/1 751/1/1
f 754/3/1 752/2/1 753/1/1
f 1051/3/2 752/2/2 751/1/2
f 752/3/2 1051/2/2 1052/1/2
f 1053/5/3 754/663/3 753/5/3
f 754/663/3 1053/5/3 1054/957/3
f 1053/5/4 1051/5/4 1054/958/4
f 1051/5/4 1053/5/4 1052/959/4
f 1051/5/5 754/666/5 1054/960/5
f 754/666/5 1051/5/5 751/5/5
f 752/2/6 1053/3/6 753/11/6
f 1053/3/6 752/2/6 1052/1/6
f 760/3/1 762/2/1 759/1/1
f 762/3/1 760/2/1 761/1/1
f 1055/3/2 760/2/2 759/1/2
f 760/3/2 1055/2/2 1056/1/2
f 1057/5/3 762/669/3 761/5/3
f 762/669/3 1057/5/3 1058/961/3
f 1057/5/4 1055/5/4 1058/962/4
f 1055/5/4 1057/5/4 1056/963/4
f 1055/5/5 762/672/5 1058/964/5
f 762/672/5 1055/5/5 759/5/5
f 760/2/6 1057/3/6 761/11/6
f 1057/3/6 760/2/6 1056/1/6

usemtl color7

f 1036/3/1 989/2/1 1035/1/1
f 989/3/1 1036/2/1 991/1/1
f 533/3/2 1036/2/2 1035/1/2
f 1036/3/2 533/2/2 534/1/2
f 305/436/3 989/5/3 991/965/3
f 989/5/3 305/436/3 303/5/3
f 305/900/4 533/941/4 303/5/4
f 533/941/4 305/900/4 534/5/4
f 533/439/5 989/901/5 303/250/5
f 989/901/5 533/439/5 1035/5/5
f 1036/2/6 305/3/6 991/11/6
f 305/3/6 1036/2/6 534/1/6
f 536/3/1 307/2/1 535/1/1
f 307/3/1 536/2/1 308/1/1
f 1042/3/2 536/2/2 535/1/2
f 536/3/2 1042/2/2 1041/1/2
f 994/5/3 307/437/3 308/5/3
f 307/437/3 994/5/3 993/966/3
f 994/904/4 1042/945/4 993/5/4
f 1042/945/4 994/904/4 1041/5/4
f 1042/946/5 307/5/5 993/5/5
f 307/5/5 1042/946/5 535/5/5
f 536/2/6 994/3/6 308/11/6
f 994/3/6 536/2/6 1041/1/6

