# Created by Kenney (www.kenney.nl)

mtllib Cannon Q6O Sassee shot.mtl

v 4 2 -1
v 4 1 -1
v 4 2 1
v 4 1 1
v 3 2 -1
v 3 2 1
v 3 1 1
v 3 1 -1
v 4 0 -1
v 4 -1 -1
v 4 0 1
v 4 -1 1
v 3 0 -1
v 3 0 1
v 3 -1 1
v 3 -1 -1
v 2 2 -1
v 2 2 1
v 2 1 1
v 2 1 -1
v 1 2 -1
v 1 1 -1
v 1 2 1
v 1 1 1
v 0 2 -1
v 0 2 1
v 0 1 1
v 0 1 -1
v 2 0 -1
v 2 0 1
v 2 -1 1
v 2 -1 -1
v 1 0 -1
v 1 -1 -1
v 1 0 1
v 1 -1 1
v 0 0 -1
v 0 0 1
v 0 -1 1
v 0 -1 -1
v -1 2 -1
v -1 2 1
v -1 1 1
v -1 1 -1
v -1 2 -0.5
v -1 1 -0.5
v -1 2 0.5
v -1 1 0.5
v -2 2 -0.5
v -2 2 0.5
v -2 1 0.5
v -2 1 -0.5
v -2 1 -1
v -2 0 -1
v -2 1 1
v -2 0 1
v -3 1 -1
v -3 1 1
v -3 0 1
v -3 0 -1
v -3 1 -0.5
v -3 0 -0.5
v -3 1 0.5
v -3 0 0.5
v -4 1 -0.5
v -4 1 0.5
v -4 0 0.5
v -4 0 -0.5
v -1 0 -1
v -1 0 1
v -1 -1 1
v -1 -1 -1
v -1 0 -0.5
v -1 -1 -0.5
v -1 0 0.5
v -1 -1 0.5
v -2 0 -0.5
v -2 0 0.5
v -2 -1 0.5
v -2 -1 -0.5
v 4 1 -1.5
v 4 0 -1.5
v 4 1 1.5
v 4 0 1.5
v 3 1 -1.5
v 3 1 1.5
v 3 0 1.5
v 3 0 -1.5
v 2 1 -1.5
v 2 0 -1.5
v 2 1 1.5
v 2 0 1.5
v 1 1 -1.5
v 1 1 1.5
v 1 0 1.5
v 1 0 -1.5
v 0 1 -1.5
v 0 1 1.5
v 0 0 1.5
v 0 0 -1.5
v -1 1 -1.5
v -1 1 1.5
v -1 0 1.5
v -1 0 -1.5

vn 1 0 0
vn 0 1 0
vn 0 -1 0
vn -1 0 0
vn 0 0 -1
vn 0 0 1

vt -19.68504 19.68504
vt 19.68504 19.68504
vt -19.68504 -19.68504
vt 0 NaN
vt 0 0
vt 0 NaN
vt 0 NaN
vt 0 NaN
vt 0 NaN
vt 0 NaN
vt 19.68504 -19.68504
vt 0 NaN
vt 0 NaN
vt 0 NaN
vt 0 NaN
vt 0 NaN
vt 0 NaN
vt 0 NaN
vt 0 NaN
vt 0 NaN
vt 0 NaN
vt 0 NaN
vt 0 NaN
vt 0 NaN
vt 0 NaN
vt 0 NaN
vt 0 NaN
vt 0 NaN
vt 0 NaN
vt 0 NaN
vt 0 NaN
vt 0 NaN
vt 0 NaN
vt 0 NaN
vt 0 NaN
vt 0 NaN
vt 0 NaN
vt 0 NaN
vt 0 NaN
vt 0 NaN
vt 0 NaN
vt 0 NaN
vt 0 NaN
vt 0 NaN
vt 0 NaN
vt 0 NaN
vt 0 NaN
vt 0 NaN
vt 0 NaN
vt 0 NaN
vt 0 NaN
vt 0 NaN
vt 0 NaN
vt 0 NaN
vt 0 NaN
vt 0 NaN
vt 0 NaN
vt 0 NaN
vt 0 NaN
vt 0 NaN
vt 0 NaN
vt 0 NaN
vt 0 NaN
vt 0 NaN
vt 0 NaN
vt 0 NaN
vt 0 NaN
vt 0 NaN
vt 0 NaN
vt 0 NaN
vt 0 NaN
vt 0 NaN
vt 0 NaN
vt 0 NaN
vt 0 NaN
vt 0 NaN
vt 0 NaN
vt 0 NaN
vt 0 NaN
vt 0 NaN
vt 0 NaN
vt 0 NaN
vt 0 NaN
vt 0 NaN
vt 0 NaN
vt 0 NaN
vt 0 NaN
vt 0 NaN
vt 0 NaN
vt 0 NaN
vt 0 NaN
vt 0 NaN
vt 0 NaN
vt 0 NaN
vt 0 NaN
vt 0 NaN
vt 0 NaN
vt 0 NaN

usemtl color1

f 3/3/1 2/2/1 1/1/1
f 2/3/1 3/2/1 4/1/1
f 5/3/2 3/2/2 1/1/2
f 3/3/2 5/2/2 6/1/2
f 7/5/3 2/5/3 4/4/3
f 2/5/3 7/5/3 8/6/3
f 7/5/4 5/5/4 8/7/4
f 5/5/4 7/5/4 6/8/4
f 5/5/5 2/5/5 8/9/5
f 2/5/5 5/5/5 1/10/5
f 3/2/6 7/3/6 4/11/6
f 7/3/6 3/2/6 6/1/6
f 3/3/1 2/2/1 1/1/1
f 2/3/1 3/2/1 4/1/1
f 5/3/2 3/2/2 1/1/2
f 3/3/2 5/2/2 6/1/2
f 7/5/3 2/5/3 4/4/3
f 2/5/3 7/5/3 8/6/3
f 7/5/4 5/5/4 8/7/4
f 5/5/4 7/5/4 6/8/4
f 5/5/5 2/5/5 8/9/5
f 2/5/5 5/5/5 1/10/5
f 3/2/6 7/3/6 4/11/6
f 7/3/6 3/2/6 6/1/6
f 11/3/1 10/2/1 9/1/1
f 10/3/1 11/2/1 12/1/1
f 13/3/2 11/2/2 9/1/2
f 11/3/2 13/2/2 14/1/2
f 15/5/3 10/5/3 12/12/3
f 10/5/3 15/5/3 16/13/3
f 15/5/4 13/5/4 16/14/4
f 13/5/4 15/5/4 14/15/4
f 13/5/5 10/5/5 16/16/5
f 10/5/5 13/5/5 9/17/5
f 11/2/6 15/3/6 12/11/6
f 15/3/6 11/2/6 14/1/6

usemtl color2

f 6/3/1 8/2/1 5/1/1
f 8/3/1 6/2/1 7/1/1
f 17/3/2 6/2/2 5/1/2
f 6/3/2 17/2/2 18/1/2
f 19/5/3 8/6/3 7/5/3
f 8/6/3 19/5/3 20/18/3
f 19/5/4 17/5/4 20/19/4
f 17/5/4 19/5/4 18/20/4
f 17/5/5 8/9/5 20/21/5
f 8/9/5 17/5/5 5/5/5
f 6/2/6 19/3/6 7/11/6
f 19/3/6 6/2/6 18/1/6
f 23/3/1 22/2/1 21/1/1
f 22/3/1 23/2/1 24/1/1
f 25/3/2 23/2/2 21/1/2
f 23/3/2 25/2/2 26/1/2
f 27/5/3 22/5/3 24/22/3
f 22/5/3 27/5/3 28/23/3
f 27/5/4 25/5/4 28/24/4
f 25/5/4 27/5/4 26/25/4
f 25/5/5 22/5/5 28/26/5
f 22/5/5 25/5/5 21/27/5
f 23/2/6 27/3/6 24/11/6
f 27/3/6 23/2/6 26/1/6
f 14/3/1 16/2/1 13/1/1
f 16/3/1 14/2/1 15/1/1
f 29/3/2 14/2/2 13/1/2
f 14/3/2 29/2/2 30/1/2
f 31/5/3 16/13/3 15/5/3
f 16/13/3 31/5/3 32/28/3
f 31/5/4 29/5/4 32/29/4
f 29/5/4 31/5/4 30/30/4
f 29/5/5 16/16/5 32/31/5
f 16/16/5 29/5/5 13/5/5
f 14/2/6 31/3/6 15/11/6
f 31/3/6 14/2/6 30/1/6
f 35/3/1 34/2/1 33/1/1
f 34/3/1 35/2/1 36/1/1
f 37/3/2 35/2/2 33/1/2
f 35/3/2 37/2/2 38/1/2
f 39/5/3 34/5/3 36/32/3
f 34/5/3 39/5/3 40/33/3
f 39/5/4 37/5/4 40/34/4
f 37/5/4 39/5/4 38/35/4
f 37/5/5 34/5/5 40/36/5
f 34/5/5 37/5/5 33/37/5
f 35/2/6 39/3/6 36/11/6
f 39/3/6 35/2/6 38/1/6

usemtl color3

f 18/3/1 20/2/1 17/1/1
f 20/3/1 18/2/1 19/1/1
f 21/3/2 18/2/2 17/1/2
f 18/3/2 21/2/2 23/1/2
f 24/22/3 20/18/3 19/5/3
f 20/18/3 24/22/3 22/5/3
f 24/5/4 21/5/4 22/38/4
f 21/5/4 24/5/4 23/39/4
f 21/27/5 20/21/5 22/5/5
f 20/21/5 21/27/5 17/5/5
f 18/2/6 24/3/6 19/11/6
f 24/3/6 18/2/6 23/1/6
f 30/3/1 32/2/1 29/1/1
f 32/3/1 30/2/1 31/1/1
f 33/3/2 30/2/2 29/1/2
f 30/3/2 33/2/2 35/1/2
f 36/32/3 32/28/3 31/5/3
f 32/28/3 36/32/3 34/5/3
f 36/5/4 33/5/4 34/40/4
f 33/5/4 36/5/4 35/41/4
f 33/37/5 32/31/5 34/5/5
f 32/31/5 33/37/5 29/5/5
f 30/2/6 36/3/6 31/11/6
f 36/3/6 30/2/6 35/1/6

usemtl color4

f 26/3/1 28/2/1 25/1/1
f 28/3/1 26/2/1 27/1/1
f 41/3/2 26/2/2 25/1/2
f 26/3/2 41/2/2 42/1/2
f 43/5/3 28/23/3 27/5/3
f 28/23/3 43/5/3 44/42/3
f 43/5/4 41/5/4 44/43/4
f 41/5/4 43/5/4 42/44/4
f 41/5/5 28/26/5 44/45/5
f 28/26/5 41/5/5 25/5/5
f 26/2/6 43/3/6 27/11/6
f 43/3/6 26/2/6 42/1/6
f 47/3/1 46/2/1 45/1/1
f 46/3/1 47/2/1 48/1/1
f 49/3/2 47/2/2 45/1/2
f 47/3/2 49/2/2 50/1/2
f 51/5/3 46/5/3 48/46/3
f 46/5/3 51/5/3 52/47/3
f 51/5/4 49/5/4 52/48/4
f 49/5/4 51/5/4 50/49/4
f 49/5/5 46/5/5 52/50/5
f 46/5/5 49/5/5 45/51/5
f 47/2/6 51/3/6 48/11/6
f 51/3/6 47/2/6 50/1/6
f 55/3/1 54/2/1 53/1/1
f 54/3/1 55/2/1 56/1/1
f 57/3/2 55/2/2 53/1/2
f 55/3/2 57/2/2 58/1/2
f 59/5/3 54/5/3 56/52/3
f 54/5/3 59/5/3 60/53/3
f 59/5/4 57/5/4 60/54/4
f 57/5/4 59/5/4 58/55/4
f 57/5/5 54/5/5 60/56/5
f 54/5/5 57/5/5 53/57/5
f 55/2/6 59/3/6 56/11/6
f 59/3/6 55/2/6 58/1/6
f 63/3/1 62/2/1 61/1/1
f 62/3/1 63/2/1 64/1/1
f 65/3/2 63/2/2 61/1/2
f 63/3/2 65/2/2 66/1/2
f 67/5/3 62/5/3 64/58/3
f 62/5/3 67/5/3 68/59/3
f 67/5/4 65/5/4 68/60/4
f 65/5/4 67/5/4 66/61/4
f 65/5/5 62/5/5 68/62/5
f 62/5/5 65/5/5 61/63/5
f 63/2/6 67/3/6 64/11/6
f 67/3/6 63/2/6 66/1/6
f 38/3/1 40/2/1 37/1/1
f 40/3/1 38/2/1 39/1/1
f 69/3/2 38/2/2 37/1/2
f 38/3/2 69/2/2 70/1/2
f 71/5/3 40/33/3 39/5/3
f 40/33/3 71/5/3 72/64/3
f 71/5/4 69/5/4 72/65/4
f 69/5/4 71/5/4 70/66/4
f 69/5/5 40/36/5 72/67/5
f 40/36/5 69/5/5 37/5/5
f 38/2/6 71/3/6 39/11/6
f 71/3/6 38/2/6 70/1/6
f 75/3/1 74/2/1 73/1/1
f 74/3/1 75/2/1 76/1/1
f 77/3/2 75/2/2 73/1/2
f 75/3/2 77/2/2 78/1/2
f 79/5/3 74/5/3 76/68/3
f 74/5/3 79/5/3 80/69/3
f 79/5/4 77/5/4 80/70/4
f 77/5/4 79/5/4 78/71/4
f 77/5/5 74/5/5 80/72/5
f 74/5/5 77/5/5 73/73/5
f 75/2/6 79/3/6 76/11/6
f 79/3/6 75/2/6 78/1/6

usemtl color6

f 83/3/1 82/2/1 81/1/1
f 82/3/1 83/2/1 84/1/1
f 85/3/2 83/2/2 81/1/2
f 83/3/2 85/2/2 86/1/2
f 87/5/3 82/5/3 84/74/3
f 82/5/3 87/5/3 88/75/3
f 87/5/4 85/5/4 88/76/4
f 85/5/4 87/5/4 86/77/4
f 85/5/5 82/5/5 88/78/5
f 82/5/5 85/5/5 81/79/5
f 83/2/6 87/3/6 84/11/6
f 87/3/6 83/2/6 86/1/6
f 91/3/1 90/2/1 89/1/1
f 90/3/1 91/2/1 92/1/1
f 93/3/2 91/2/2 89/1/2
f 91/3/2 93/2/2 94/1/2
f 95/5/3 90/5/3 92/80/3
f 90/5/3 95/5/3 96/81/3
f 95/5/4 93/5/4 96/82/4
f 93/5/4 95/5/4 94/83/4
f 93/5/5 90/5/5 96/84/5
f 90/5/5 93/5/5 89/85/5
f 91/2/6 95/3/6 92/11/6
f 95/3/6 91/2/6 94/1/6

usemtl color7

f 86/3/1 88/2/1 85/1/1
f 88/3/1 86/2/1 87/1/1
f 89/3/2 86/2/2 85/1/2
f 86/3/2 89/2/2 91/1/2
f 92/80/3 88/75/3 87/5/3
f 88/75/3 92/80/3 90/5/3
f 92/5/4 89/5/4 90/86/4
f 89/5/4 92/5/4 91/87/4
f 89/85/5 88/78/5 90/5/5
f 88/78/5 89/85/5 85/5/5
f 86/2/6 92/3/6 87/11/6
f 92/3/6 86/2/6 91/1/6
f 94/3/1 96/2/1 93/1/1
f 96/3/1 94/2/1 95/1/1
f 97/3/2 94/2/2 93/1/2
f 94/3/2 97/2/2 98/1/2
f 99/5/3 96/81/3 95/5/3
f 96/81/3 99/5/3 100/88/3
f 99/5/4 97/5/4 100/89/4
f 97/5/4 99/5/4 98/90/4
f 97/5/5 96/84/5 100/91/5
f 96/84/5 97/5/5 93/5/5
f 94/2/6 99/3/6 95/11/6
f 99/3/6 94/2/6 98/1/6

usemtl color8

f 98/3/1 100/2/1 97/1/1
f 100/3/1 98/2/1 99/1/1
f 101/3/2 98/2/2 97/1/2
f 98/3/2 101/2/2 102/1/2
f 103/5/3 100/88/3 99/5/3
f 100/88/3 103/5/3 104/92/3
f 103/5/4 101/5/4 104/93/4
f 101/5/4 103/5/4 102/94/4
f 101/5/5 100/91/5 104/95/5
f 100/91/5 101/5/5 97/5/5
f 98/2/6 103/3/6 99/11/6
f 103/3/6 98/2/6 102/1/6
f 43/3/1 69/2/1 44/1/1
f 69/3/1 43/2/1 70/1/1
f 53/3/2 43/2/2 44/1/2
f 43/3/2 53/2/2 55/1/2
f 56/52/3 69/5/3 70/96/3
f 69/5/3 56/52/3 54/5/3
f 56/5/4 53/5/4 54/97/4
f 53/5/4 56/5/4 55/98/4
f 53/57/5 69/5/5 54/5/5
f 69/5/5 53/57/5 44/45/5
f 43/2/6 56/3/6 70/11/6
f 56/3/6 43/2/6 55/1/6

