# Created by Kenney (www.kenney.nl)

mtllib Cannon LHD Feandra shot2.mtl

v 5 2 -1.5
v 5 1 -1.5
v 5 2 1.5
v 5 1 1.5
v 4 2 -1.5
v 4 2 1.5
v 4 1 1.5
v 4 1 -1.5
v 3 2 -1.5
v 3 1 -1.5
v 3 2 1.5
v 3 1 1.5
v 2 2 -1.5
v 2 2 1.5
v 2 1 1.5
v 2 1 -1.5
v 1 2 -1.5
v 1 1 -1.5
v 1 2 1.5
v 1 1 1.5
v 0 2 -1.5
v 0 2 1.5
v 0 1 1.5
v 0 1 -1.5
v 0 2 -1
v 0 1 -1
v 0 2 1
v 0 1 1
v -2 2 -1
v -2 2 1
v -2 1 1
v -2 1 -1
v 4 2 -1
v 4 1 -1
v 4 2 1
v 4 1 1
v 3 2 -1
v 3 2 1
v 3 1 1
v 3 1 -1
v 2 2 -1
v 2 1 -1
v 2 2 1
v 2 1 1
v 1 2 -1
v 1 2 1
v 1 1 1
v 1 1 -1
v 5 1 -2
v 5 0 -2
v 5 1 2
v 5 0 2
v 4 1 -2
v 4 1 2
v 4 0 2
v 4 0 -2
v 3 1 -2
v 3 0 -2
v 3 1 2
v 3 0 2
v 2 1 -2
v 2 1 2
v 2 0 2
v 2 0 -2
v 1 1 -2
v 1 0 -2
v 1 1 2
v 1 0 2
v 0 1 -2
v 0 1 2
v 0 0 2
v 0 0 -2
v -2 0 -1
v -2 0 1
v -3 1 -1
v -3 1 1
v -3 0 1
v -3 0 -1
v 4 0 -1.5
v 4 0 1.5
v 3 0 1.5
v 3 0 -1.5
v 2 0 -1.5
v 2 0 1.5
v 1 0 1.5
v 1 0 -1.5
v 0 0 -1.5
v 0 0 1.5
v -2 1 -1.5
v -2 1 1.5
v -2 0 1.5
v -2 0 -1.5
v -3 1 -0.5
v -3 0 -0.5
v -3 1 0.5
v -3 0 0.5
v -4 1 -0.5
v -4 1 0.5
v -4 0 0.5
v -4 0 -0.5
v 5 -1 -2
v 5 -1 2
v 4 -1 2
v 4 -1 -2
v 3 -1 -2
v 3 -1 2
v 2 -1 2
v 2 -1 -2
v 1 -1 -2
v 1 -1 2
v 0 -1 2
v 0 -1 -2
v 0 -1 -1.5
v 0 -1 1.5
v -2 -1 1.5
v -2 -1 -1.5
v -2 -1 -1
v -2 -1 1
v -3 -1 1
v -3 -1 -1
v 4 -1 -1.5
v 4 -1 1.5
v 3 -1 1.5
v 3 -1 -1.5
v 2 -1 -1.5
v 2 -1 1.5
v 1 -1 1.5
v 1 -1 -1.5
v -3 -1 -0.5
v -3 -1 0.5
v -4 -1 0.5
v -4 -1 -0.5
v 5 -1 -1.5
v 5 -2 -1.5
v 5 -1 1.5
v 5 -2 1.5
v 4 -2 1.5
v 4 -2 -1.5
v 3 -2 -1.5
v 3 -2 1.5
v 2 -2 1.5
v 2 -2 -1.5
v 1 -2 -1.5
v 1 -2 1.5
v 0 -2 1.5
v 0 -2 -1.5
v 0 -1 -1
v 0 -2 -1
v 0 -1 1
v 0 -2 1
v -2 -2 1
v -2 -2 -1
v 4 -1 -1
v 4 -2 -1
v 4 -1 1
v 4 -2 1
v 3 -1 -1
v 3 -1 1
v 3 -2 1
v 3 -2 -1
v 2 -1 -1
v 2 -2 -1
v 2 -1 1
v 2 -2 1
v 1 -1 -1
v 1 -1 1
v 1 -2 1
v 1 -2 -1

vn 1 0 0
vn 0 1 0
vn 0 -1 0
vn -1 0 0
vn 0 0 -1
vn 0 0 1

vt -19.68504 19.68504
vt 19.68504 19.68504
vt -19.68504 -19.68504
vt 0 NaN
vt 0 0
vt 0 NaN
vt 0 NaN
vt 0 NaN
vt 0 NaN
vt 0 NaN
vt 19.68504 -19.68504
vt 0 NaN
vt 0 NaN
vt 0 NaN
vt 0 NaN
vt 0 NaN
vt 0 NaN
vt 0 NaN
vt 0 NaN
vt 0 NaN
vt 0 NaN
vt 0 NaN
vt 0 NaN
vt 0 NaN
vt 0 NaN
vt 0 NaN
vt 0 NaN
vt 0 NaN
vt 0 NaN
vt 0 NaN
vt 0 NaN
vt 0 NaN
vt 0 NaN
vt 0 NaN
vt 0 NaN
vt 0 NaN
vt 0 NaN
vt 0 NaN
vt 0 NaN
vt 0 NaN
vt 0 NaN
vt 0 NaN
vt 0 NaN
vt 0 NaN
vt 0 NaN
vt 0 NaN
vt 0 NaN
vt 0 NaN
vt 0 NaN
vt 0 NaN
vt 0 NaN
vt 0 NaN
vt 0 NaN
vt 0 NaN
vt 0 NaN
vt 0 NaN
vt 0 NaN
vt 0 NaN
vt 0 NaN
vt 0 NaN
vt 0 NaN
vt 0 NaN
vt 0 NaN
vt 0 NaN
vt 0 NaN
vt 0 NaN
vt 0 NaN
vt 0 NaN
vt 0 NaN
vt 0 NaN
vt 0 NaN
vt 0 NaN
vt 0 NaN
vt 0 NaN
vt 0 NaN
vt 0 NaN
vt 0 NaN
vt 0 NaN
vt 0 NaN
vt 0 NaN
vt 0 NaN
vt 0 NaN
vt 0 NaN
vt 0 NaN
vt 0 NaN
vt 0 NaN
vt 0 NaN
vt 0 NaN
vt 0 NaN
vt 0 NaN
vt 0 NaN
vt 0 NaN
vt 0 NaN
vt 0 NaN
vt 0 NaN
vt 0 NaN
vt 0 NaN
vt 0 NaN
vt 0 NaN
vt 0 NaN
vt 0 NaN
vt 0 NaN
vt 0 NaN
vt 0 NaN
vt 0 NaN
vt 0 NaN
vt 0 NaN
vt 0 NaN
vt 0 NaN
vt 0 NaN
vt 0 NaN
vt 0 NaN
vt 0 NaN
vt 0 NaN
vt 0 NaN
vt 0 NaN
vt 0 NaN
vt 0 NaN
vt 0 NaN
vt 0 NaN
vt 0 NaN
vt 0 NaN
vt 0 NaN
vt 0 NaN
vt 0 NaN
vt 0 NaN
vt 0 NaN
vt 0 NaN
vt 0 NaN
vt 0 NaN
vt 0 NaN
vt 0 NaN
vt 0 NaN
vt 0 NaN
vt 0 NaN
vt 0 NaN
vt 0 NaN
vt 0 NaN
vt 0 NaN
vt 0 NaN
vt 0 NaN
vt 0 NaN
vt 0 NaN
vt 0 NaN
vt 0 NaN
vt 0 NaN
vt 0 NaN
vt 0 NaN
vt 0 NaN
vt 0 NaN
vt 0 NaN

usemtl color8

f 3/3/1 2/2/1 1/1/1
f 2/3/1 3/2/1 4/1/1
f 5/3/2 3/2/2 1/1/2
f 3/3/2 5/2/2 6/1/2
f 7/5/3 2/5/3 4/4/3
f 2/5/3 7/5/3 8/6/3
f 7/5/4 5/5/4 8/7/4
f 5/5/4 7/5/4 6/8/4
f 5/5/5 2/5/5 8/9/5
f 2/5/5 5/5/5 1/10/5
f 3/2/6 7/3/6 4/11/6
f 7/3/6 3/2/6 6/1/6
f 11/3/1 10/2/1 9/1/1
f 10/3/1 11/2/1 12/1/1
f 13/3/2 11/2/2 9/1/2
f 11/3/2 13/2/2 14/1/2
f 15/5/3 10/5/3 12/12/3
f 10/5/3 15/5/3 16/13/3
f 15/5/4 13/5/4 16/14/4
f 13/5/4 15/5/4 14/15/4
f 13/5/5 10/5/5 16/16/5
f 10/5/5 13/5/5 9/17/5
f 11/2/6 15/3/6 12/11/6
f 15/3/6 11/2/6 14/1/6
f 19/3/1 18/2/1 17/1/1
f 18/3/1 19/2/1 20/1/1
f 21/3/2 19/2/2 17/1/2
f 19/3/2 21/2/2 22/1/2
f 23/5/3 18/5/3 20/18/3
f 18/5/3 23/5/3 24/19/3
f 23/5/4 21/5/4 24/20/4
f 21/5/4 23/5/4 22/21/4
f 21/5/5 18/5/5 24/22/5
f 18/5/5 21/5/5 17/23/5
f 19/2/6 23/3/6 20/11/6
f 23/3/6 19/2/6 22/1/6
f 27/3/1 26/2/1 25/1/1
f 26/3/1 27/2/1 28/1/1
f 29/3/2 27/2/2 25/1/2
f 27/3/2 29/2/2 30/1/2
f 31/5/3 26/5/3 28/24/3
f 26/5/3 31/5/3 32/25/3
f 31/5/4 29/5/4 32/26/4
f 29/5/4 31/5/4 30/27/4
f 29/5/5 26/5/5 32/28/5
f 26/5/5 29/5/5 25/29/5
f 27/2/6 31/3/6 28/11/6
f 31/3/6 27/2/6 30/1/6
f 3/3/1 2/2/1 1/1/1
f 2/3/1 3/2/1 4/1/1
f 5/3/2 3/2/2 1/1/2
f 3/3/2 5/2/2 6/1/2
f 7/5/3 2/5/3 4/4/3
f 2/5/3 7/5/3 8/6/3
f 7/5/4 5/5/4 8/7/4
f 5/5/4 7/5/4 6/8/4
f 5/5/5 2/5/5 8/9/5
f 2/5/5 5/5/5 1/10/5
f 3/2/6 7/3/6 4/11/6
f 7/3/6 3/2/6 6/1/6

usemtl color9

f 35/3/1 34/2/1 33/1/1
f 34/3/1 35/2/1 36/1/1
f 37/3/2 35/2/2 33/1/2
f 35/3/2 37/2/2 38/1/2
f 39/5/3 34/5/3 36/30/3
f 34/5/3 39/5/3 40/31/3
f 39/5/4 37/5/4 40/32/4
f 37/5/4 39/5/4 38/33/4
f 37/5/5 34/5/5 40/34/5
f 34/5/5 37/5/5 33/35/5
f 35/2/6 39/3/6 36/11/6
f 39/3/6 35/2/6 38/1/6
f 43/3/1 42/2/1 41/1/1
f 42/3/1 43/2/1 44/1/1
f 45/3/2 43/2/2 41/1/2
f 43/3/2 45/2/2 46/1/2
f 47/5/3 42/5/3 44/36/3
f 42/5/3 47/5/3 48/37/3
f 47/5/4 45/5/4 48/38/4
f 45/5/4 47/5/4 46/39/4
f 45/5/5 42/5/5 48/40/5
f 42/5/5 45/5/5 41/41/5
f 43/2/6 47/3/6 44/11/6
f 47/3/6 43/2/6 46/1/6

usemtl color5

f 51/3/1 50/2/1 49/1/1
f 50/3/1 51/2/1 52/1/1
f 53/3/2 51/2/2 49/1/2
f 51/3/2 53/2/2 54/1/2
f 55/5/3 50/5/3 52/42/3
f 50/5/3 55/5/3 56/43/3
f 55/5/4 53/5/4 56/44/4
f 53/5/4 55/5/4 54/45/4
f 53/5/5 50/5/5 56/46/5
f 50/5/5 53/5/5 49/47/5
f 51/2/6 55/3/6 52/11/6
f 55/3/6 51/2/6 54/1/6
f 59/3/1 58/2/1 57/1/1
f 58/3/1 59/2/1 60/1/1
f 61/3/2 59/2/2 57/1/2
f 59/3/2 61/2/2 62/1/2
f 63/5/3 58/5/3 60/48/3
f 58/5/3 63/5/3 64/49/3
f 63/5/4 61/5/4 64/50/4
f 61/5/4 63/5/4 62/51/4
f 61/5/5 58/5/5 64/52/5
f 58/5/5 61/5/5 57/53/5
f 59/2/6 63/3/6 60/11/6
f 63/3/6 59/2/6 62/1/6
f 67/3/1 66/2/1 65/1/1
f 66/3/1 67/2/1 68/1/1
f 69/3/2 67/2/2 65/1/2
f 67/3/2 69/2/2 70/1/2
f 71/5/3 66/5/3 68/54/3
f 66/5/3 71/5/3 72/55/3
f 71/5/4 69/5/4 72/56/4
f 69/5/4 71/5/4 70/57/4
f 69/5/5 66/5/5 72/58/5
f 66/5/5 69/5/5 65/59/5
f 67/2/6 71/3/6 68/11/6
f 71/3/6 67/2/6 70/1/6
f 31/3/1 73/2/1 32/1/1
f 73/3/1 31/2/1 74/1/1
f 75/3/2 31/2/2 32/1/2
f 31/3/2 75/2/2 76/1/2
f 77/5/3 73/5/3 74/60/3
f 73/5/3 77/5/3 78/61/3
f 77/5/4 75/5/4 78/62/4
f 75/5/4 77/5/4 76/63/4
f 75/5/5 73/5/5 78/64/5
f 73/5/5 75/5/5 32/28/5
f 31/2/6 77/3/6 74/11/6
f 77/3/6 31/2/6 76/1/6

usemtl color6

f 7/3/1 79/2/1 8/1/1
f 79/3/1 7/2/1 80/1/1
f 10/3/2 7/2/2 8/1/2
f 7/3/2 10/2/2 12/1/2
f 81/5/3 79/5/3 80/65/3
f 79/5/3 81/5/3 82/66/3
f 81/5/4 10/5/4 82/67/4
f 10/5/4 81/5/4 12/68/4
f 10/5/5 79/5/5 82/69/5
f 79/5/5 10/5/5 8/9/5
f 7/2/6 81/3/6 80/11/6
f 81/3/6 7/2/6 12/1/6
f 15/3/1 83/2/1 16/1/1
f 83/3/1 15/2/1 84/1/1
f 18/3/2 15/2/2 16/1/2
f 15/3/2 18/2/2 20/1/2
f 85/5/3 83/5/3 84/70/3
f 83/5/3 85/5/3 86/71/3
f 85/5/4 18/5/4 86/72/4
f 18/5/4 85/5/4 20/73/4
f 18/5/5 83/5/5 86/74/5
f 83/5/5 18/5/5 16/16/5
f 15/2/6 85/3/6 84/11/6
f 85/3/6 15/2/6 20/1/6

usemtl color7

f 23/3/1 87/2/1 24/1/1
f 87/3/1 23/2/1 88/1/1
f 89/3/2 23/2/2 24/1/2
f 23/3/2 89/2/2 90/1/2
f 91/5/3 87/5/3 88/75/3
f 87/5/3 91/5/3 92/76/3
f 91/5/4 89/5/4 92/77/4
f 89/5/4 91/5/4 90/78/4
f 89/5/5 87/5/5 92/79/5
f 87/5/5 89/5/5 24/22/5
f 23/2/6 91/3/6 88/11/6
f 91/3/6 23/2/6 90/1/6

usemtl color3

f 95/3/1 94/2/1 93/1/1
f 94/3/1 95/2/1 96/1/1
f 97/3/2 95/2/2 93/1/2
f 95/3/2 97/2/2 98/1/2
f 99/5/3 94/5/3 96/80/3
f 94/5/3 99/5/3 100/81/3
f 99/5/4 97/5/4 100/82/4
f 97/5/4 99/5/4 98/83/4
f 97/5/5 94/5/5 100/84/5
f 94/5/5 97/5/5 93/85/5
f 95/2/6 99/3/6 96/11/6
f 99/3/6 95/2/6 98/1/6
f 52/3/1 101/2/1 50/1/1
f 101/3/1 52/2/1 102/1/1
f 56/3/2 52/2/2 50/1/2
f 52/3/2 56/2/2 55/1/2
f 103/5/3 101/5/3 102/86/3
f 101/5/3 103/5/3 104/87/3
f 103/5/4 56/44/4 104/88/4
f 56/44/4 103/5/4 55/5/4
f 56/46/5 101/5/5 104/89/5
f 101/5/5 56/46/5 50/5/5
f 52/2/6 103/3/6 102/11/6
f 103/3/6 52/2/6 55/1/6
f 60/3/1 105/2/1 58/1/1
f 105/3/1 60/2/1 106/1/1
f 64/3/2 60/2/2 58/1/2
f 60/3/2 64/2/2 63/1/2
f 107/5/3 105/5/3 106/90/3
f 105/5/3 107/5/3 108/91/3
f 107/5/4 64/50/4 108/92/4
f 64/50/4 107/5/4 63/5/4
f 64/52/5 105/5/5 108/93/5
f 105/5/5 64/52/5 58/5/5
f 60/2/6 107/3/6 106/11/6
f 107/3/6 60/2/6 63/1/6
f 68/3/1 109/2/1 66/1/1
f 109/3/1 68/2/1 110/1/1
f 72/3/2 68/2/2 66/1/2
f 68/3/2 72/2/2 71/1/2
f 111/5/3 109/5/3 110/94/3
f 109/5/3 111/5/3 112/95/3
f 111/5/4 72/56/4 112/96/4
f 72/56/4 111/5/4 71/5/4
f 72/58/5 109/5/5 112/97/5
f 109/5/5 72/58/5 66/5/5
f 68/2/6 111/3/6 110/11/6
f 111/3/6 68/2/6 71/1/6
f 88/3/1 113/2/1 87/1/1
f 113/3/1 88/2/1 114/1/1
f 92/3/2 88/2/2 87/1/2
f 88/3/2 92/2/2 91/1/2
f 115/5/3 113/5/3 114/98/3
f 113/5/3 115/5/3 116/99/3
f 115/5/4 92/77/4 116/100/4
f 92/77/4 115/5/4 91/5/4
f 92/79/5 113/5/5 116/101/5
f 113/5/5 92/79/5 87/5/5
f 88/2/6 115/3/6 114/11/6
f 115/3/6 88/2/6 91/1/6
f 74/3/1 117/2/1 73/1/1
f 117/3/1 74/2/1 118/1/1
f 78/3/2 74/2/2 73/1/2
f 74/3/2 78/2/2 77/1/2
f 119/5/3 117/5/3 118/102/3
f 117/5/3 119/5/3 120/103/3
f 119/5/4 78/62/4 120/104/4
f 78/62/4 119/5/4 77/5/4
f 78/64/5 117/5/5 120/105/5
f 117/5/5 78/64/5 73/5/5
f 74/2/6 119/3/6 118/11/6
f 119/3/6 74/2/6 77/1/6

usemtl color4

f 80/3/1 121/2/1 79/1/1
f 121/3/1 80/2/1 122/1/1
f 82/3/2 80/2/2 79/1/2
f 80/3/2 82/2/2 81/1/2
f 123/5/3 121/5/3 122/106/3
f 121/5/3 123/5/3 124/107/3
f 123/5/4 82/67/4 124/108/4
f 82/67/4 123/5/4 81/5/4
f 82/69/5 121/5/5 124/109/5
f 121/5/5 82/69/5 79/5/5
f 80/2/6 123/3/6 122/11/6
f 123/3/6 80/2/6 81/1/6
f 84/3/1 125/2/1 83/1/1
f 125/3/1 84/2/1 126/1/1
f 86/3/2 84/2/2 83/1/2
f 84/3/2 86/2/2 85/1/2
f 127/5/3 125/5/3 126/110/3
f 125/5/3 127/5/3 128/111/3
f 127/5/4 86/72/4 128/112/4
f 86/72/4 127/5/4 85/5/4
f 86/74/5 125/5/5 128/113/5
f 125/5/5 86/74/5 83/5/5
f 84/2/6 127/3/6 126/11/6
f 127/3/6 84/2/6 85/1/6

usemtl color1

f 96/3/1 129/2/1 94/1/1
f 129/3/1 96/2/1 130/1/1
f 100/3/2 96/2/2 94/1/2
f 96/3/2 100/2/2 99/1/2
f 131/5/3 129/5/3 130/114/3
f 129/5/3 131/5/3 132/115/3
f 131/5/4 100/82/4 132/116/4
f 100/82/4 131/5/4 99/5/4
f 100/84/5 129/5/5 132/117/5
f 129/5/5 100/84/5 94/5/5
f 96/2/6 131/3/6 130/11/6
f 131/3/6 96/2/6 99/1/6
f 135/3/1 134/2/1 133/1/1
f 134/3/1 135/2/1 136/1/1
f 121/3/2 135/2/2 133/1/2
f 135/3/2 121/2/2 122/1/2
f 137/5/3 134/5/3 136/118/3
f 134/5/3 137/5/3 138/119/3
f 137/5/4 121/5/4 138/120/4
f 121/5/4 137/5/4 122/121/4
f 121/5/5 134/5/5 138/122/5
f 134/5/5 121/5/5 133/123/5
f 135/2/6 137/3/6 136/11/6
f 137/3/6 135/2/6 122/1/6
f 123/3/1 139/2/1 124/1/1
f 139/3/1 123/2/1 140/1/1
f 125/3/2 123/2/2 124/1/2
f 123/3/2 125/2/2 126/1/2
f 141/5/3 139/5/3 140/124/3
f 139/5/3 141/5/3 142/125/3
f 141/5/4 125/5/4 142/126/4
f 125/5/4 141/5/4 126/127/4
f 125/5/5 139/5/5 142/128/5
f 139/5/5 125/5/5 124/109/5
f 123/2/6 141/3/6 140/11/6
f 141/3/6 123/2/6 126/1/6
f 127/3/1 143/2/1 128/1/1
f 143/3/1 127/2/1 144/1/1
f 113/3/2 127/2/2 128/1/2
f 127/3/2 113/2/2 114/1/2
f 145/5/3 143/5/3 144/129/3
f 143/5/3 145/5/3 146/130/3
f 145/5/4 113/5/4 146/131/4
f 113/5/4 145/5/4 114/132/4
f 113/5/5 143/5/5 146/133/5
f 143/5/5 113/5/5 128/113/5
f 127/2/6 145/3/6 144/11/6
f 145/3/6 127/2/6 114/1/6
f 149/3/1 148/2/1 147/1/1
f 148/3/1 149/2/1 150/1/1
f 117/3/2 149/2/2 147/1/2
f 149/3/2 117/2/2 118/1/2
f 151/5/3 148/5/3 150/134/3
f 148/5/3 151/5/3 152/135/3
f 151/5/4 117/5/4 152/136/4
f 117/5/4 151/5/4 118/137/4
f 117/5/5 148/5/5 152/138/5
f 148/5/5 117/5/5 147/139/5
f 149/2/6 151/3/6 150/11/6
f 151/3/6 149/2/6 118/1/6

usemtl color2

f 155/3/1 154/2/1 153/1/1
f 154/3/1 155/2/1 156/1/1
f 157/3/2 155/2/2 153/1/2
f 155/3/2 157/2/2 158/1/2
f 159/5/3 154/5/3 156/140/3
f 154/5/3 159/5/3 160/141/3
f 159/5/4 157/5/4 160/142/4
f 157/5/4 159/5/4 158/143/4
f 157/5/5 154/5/5 160/144/5
f 154/5/5 157/5/5 153/145/5
f 155/2/6 159/3/6 156/11/6
f 159/3/6 155/2/6 158/1/6
f 163/3/1 162/2/1 161/1/1
f 162/3/1 163/2/1 164/1/1
f 165/3/2 163/2/2 161/1/2
f 163/3/2 165/2/2 166/1/2
f 167/5/3 162/5/3 164/146/3
f 162/5/3 167/5/3 168/147/3
f 167/5/4 165/5/4 168/148/4
f 165/5/4 167/5/4 166/149/4
f 165/5/5 162/5/5 168/150/5
f 162/5/5 165/5/5 161/151/5
f 163/2/6 167/3/6 164/11/6
f 167/3/6 163/2/6 166/1/6

