# Created by Kenney (www.kenney.nl)

mtllib Grenade 4X2 Onama.mtl

v 2 5 -1.4
v 2 4 -1.4
v 2 5 1.4
v 2 4 1.4
v 1 5 -1.4
v 1 5 1.4
v 1 4 1.4
v 1 4 -1.4
v 3 4 -1.4
v 3 3 -1.4
v 3 4 1.4
v 3 3 1.4
v 2 3 1.4
v 2 3 -1.4
v 1 4 -3.5
v 1 3 -3.5
v 1 4 3.5
v 1 3 3.5
v 0 4 -3.5
v 0 4 3.5
v 0 3 3.5
v 0 3 -3.5
v 4 3 -1.4
v 4 2 -1.4
v 4 3 1.4
v 4 2 1.4
v 3 2 1.4
v 3 2 -1.4
v 0 2 -3.5
v 0 2 3.5
v -2 3 -3.5
v -2 3 3.5
v -2 2 3.5
v -2 2 -3.5
v -3 -1 -1.4
v -3 -2 -1.4
v -3 -1 1.4
v -3 -2 1.4
v -4 -1 -1.4
v -4 -1 1.4
v -4 -2 1.4
v -4 -2 -1.4
v -2 -2 -1.4
v -2 -3 -1.4
v -2 -2 1.4
v -2 -3 1.4
v -3 -3 1.4
v -3 -3 -1.4
v 0 -3 -2.1
v 0 -4 -2.1
v 0 -3 2.1
v 0 -4 2.1
v -1 -3 -2.1
v -1 -3 2.1
v -1 -4 2.1
v -1 -4 -2.1
v -1 -3 -1.4
v -1 -4 -1.4
v -1 -3 1.4
v -1 -4 1.4
v -2 -4 1.4
v -2 -4 -1.4
v 1 5 -2.1
v 1 4 -2.1
v 1 5 2.1
v 1 4 2.1
v -1 5 -2.1
v -1 5 2.1
v -1 4 2.1
v -1 4 -2.1
v -1 4 -3.5
v -1 4 3.5
v -1 3 3.5
v -1 3 -3.5
v -3 3 -1.4
v -3 2 -1.4
v -3 3 1.4
v -3 2 1.4
v -4 3 -1.4
v -4 3 1.4
v -4 2 1.4
v -4 2 -1.4
v -1 5 -1.4
v -1 4 -1.4
v -1 5 1.4
v -1 4 1.4
v -2 5 -1.4
v -2 5 1.4
v -2 4 1.4
v -2 4 -1.4
v -2 3 -1.4
v -2 3 1.4
v -3 4 -1.4
v -3 4 1.4
v 2 4 -2.1
v 2 3 -2.1
v 2 4 2.1
v 2 3 2.1
v 1 3 2.1
v 1 3 -2.1
v -1 3 -2.1
v -1 3 2.1
v -2 4 -2.1
v -2 4 2.1
v -2 3 2.1
v -2 3 -2.1
v -1 1 -2.8
v -1 0 -2.8
v -1 1 2.8
v -1 0 2.8
v -2 1 -2.8
v -2 1 2.8
v -2 0 2.8
v -2 0 -2.8
v -3 1 -0.7
v -3 0 -0.7
v -3 1 0.7
v -3 0 0.7
v -4 1 -0.7
v -4 1 0.7
v -4 0 0.7
v -4 0 -0.7
v 3 3 -2.1
v 3 2 -2.1
v 3 3 2.1
v 3 2 2.1
v 2 2 2.1
v 2 2 -2.1
v -2 2 -2.1
v -2 2 2.1
v -3 3 -2.1
v -3 3 2.1
v -3 2 2.1
v -3 2 -2.1
v 3 -1 -2.1
v 3 -2 -2.1
v 3 -1 2.1
v 3 -2 2.1
v 2 -1 -2.1
v 2 -1 2.1
v 2 -2 2.1
v 2 -2 -2.1
v -2 -1 -2.1
v -2 -2 -2.1
v -2 -1 2.1
v -2 -2 2.1
v -3 -1 -2.1
v -3 -1 2.1
v -3 -2 2.1
v -3 -2 -2.1
v 2 3 -3.5
v 2 2 -3.5
v 2 3 3.5
v 2 2 3.5
v 0 -2 -3.5
v 0 -3 -3.5
v 0 -2 3.5
v 0 -3 3.5
v -1 -2 -3.5
v -1 -2 3.5
v -1 -3 3.5
v -1 -3 -3.5
v 1 -3 -2.1
v 1 -4 -2.1
v 1 -3 2.1
v 1 -4 2.1
v 4 1 -1.4
v 4 1 1.4
v 3 1 1.4
v 3 1 -1.4
v 3 2 -2.8
v 3 1 -2.8
v 3 2 2.8
v 3 1 2.8
v 2 2 -2.8
v 2 2 2.8
v 2 1 2.8
v 2 1 -2.8
v 2 1 -3.5
v 2 1 3.5
v 1 2 -3.5
v 1 2 3.5
v 1 1 3.5
v 1 1 -3.5
v -1 2 -3.5
v -1 1 -3.5
v -1 2 3.5
v -1 1 3.5
v -2 1 3.5
v -2 1 -3.5
v -2 2 -2.8
v -2 2 2.8
v -3 2 -2.8
v -3 2 2.8
v -3 1 2.8
v -3 1 -2.8
v 4 0 -1.4
v 4 -1 -1.4
v 4 0 1.4
v 4 -1 1.4
v 3 0 -1.4
v 3 0 1.4
v 3 -1 1.4
v 3 -1 -1.4
v -2 -1 -2.8
v -2 -1 2.8
v -3 0 -2.8
v -3 0 2.8
v -3 -1 2.8
v -3 -1 -2.8
v 1 2 -4.2
v 1 1 -4.2
v 1 2 4.2
v 1 1 4.2
v 0 2 -4.2
v 0 2 4.2
v 0 1 4.2
v 0 1 -4.2
v -1 2 -4.2
v -1 2 4.2
v -1 1 4.2
v -1 1 -4.2
v 1 0 -4.2
v 1 -1 -4.2
v 1 0 4.2
v 1 -1 4.2
v 0 0 -4.2
v 0 0 4.2
v 0 -1 4.2
v 0 -1 -4.2
v -3 1 -1.4
v -3 1 1.4
v -4 1 1.4
v -4 1 -1.4
v -3 0 -1.4
v -3 0 1.4
v -4 0 -1.4
v -4 0 1.4
v 4 -2 -1.4
v 4 -2 1.4
v 3 -2 1.4
v 3 -2 -1.4
v 2 -1 -3.5
v 2 -2 -3.5
v 2 -1 3.5
v 2 -2 3.5
v -2 -1 -3.5
v -2 -1 3.5
v -2 -2 3.5
v -2 -2 -3.5
v 3 -3 -1.4
v 3 -3 1.4
v 2 -2 -1.4
v 2 -2 1.4
v 2 -3 1.4
v 2 -3 -1.4
v 1 -2 -3.5
v 1 -3 -3.5
v 1 -2 3.5
v 1 -3 3.5
v 2 -4 -1.4
v 2 -4 1.4
v 1 -3 -1.4
v 1 -3 1.4
v 1 -4 1.4
v 1 -4 -1.4
v 4 1 -0.7
v 4 0 -0.7
v 4 1 0.7
v 4 0 0.7
v 3 1 -0.7
v 3 1 0.7
v 3 0 0.7
v 3 0 -0.7
v 2 0 -2.8
v 2 0 2.8
v 1 1 -2.8
v 1 1 2.8
v 1 0 2.8
v 1 0 -2.8
v 3 0 -2.8
v 3 0 2.8
v 1 0 -3.5
v 1 0 3.5
v -1 0 3.5
v -1 0 -3.5
v 3 -1 -2.8
v 3 -1 2.8
v 2 -1 2.8
v 2 -1 -2.8
v 2 0 -3.5
v 2 0 3.5
v 1 -1 3.5
v 1 -1 -3.5
v -1 -1 -3.5
v -1 -1 3.5
v -2 0 -3.5
v -2 0 3.5
v -1 0 -4.2
v -1 0 4.2
v -1 -1 4.2
v -1 -1 -4.2
v 2 -3 -2.1
v 2 -3 2.1
v 1 -2 -2.1
v 1 -2 2.1
v -1 -2 -2.1
v -1 -2 2.1
v -2 -3 2.1
v -2 -3 -2.1

vn 1 0 0
vn 0 1 0
vn 0 -1 0
vn -1 0 0
vn 0 0 -1
vn 0 0 1

vt -19.68504 19.68504
vt 19.68504 19.68504
vt -19.68504 -19.68504
vt 0 NaN
vt 0 0
vt 0 NaN
vt 0 NaN
vt 0 NaN
vt 0 NaN
vt 0 NaN
vt 19.68504 -19.68504
vt 0 NaN
vt 0 NaN
vt 0 NaN
vt 0 NaN
vt 0 NaN
vt 0 NaN
vt 0 NaN
vt 0 NaN
vt 0 NaN
vt 0 NaN
vt 0 NaN
vt 0 NaN
vt 0 NaN
vt 0 NaN
vt 0 NaN
vt 0 NaN
vt 0 NaN
vt 0 NaN
vt 0 NaN
vt 0 NaN
vt 0 NaN
vt 0 NaN
vt 0 NaN
vt 0 NaN
vt 0 NaN
vt 0 NaN
vt 0 NaN
vt 0 NaN
vt 0 NaN
vt 0 NaN
vt 0 NaN
vt 0 NaN
vt 0 NaN
vt 0 NaN
vt 0 NaN
vt 0 NaN
vt 0 NaN
vt 0 NaN
vt 0 NaN
vt 0 NaN
vt 0 NaN
vt 0 NaN
vt 0 NaN
vt 0 NaN
vt 0 NaN
vt 0 NaN
vt 0 NaN
vt 0 NaN
vt 0 NaN
vt 0 NaN
vt 0 NaN
vt 0 NaN
vt 0 NaN
vt 0 NaN
vt 0 NaN
vt 0 NaN
vt 0 NaN
vt 0 NaN
vt 0 NaN
vt 0 NaN
vt 0 NaN
vt 0 NaN
vt 0 NaN
vt 0 NaN
vt 0 NaN
vt 0 NaN
vt 0 NaN
vt 0 NaN
vt 0 NaN
vt 0 NaN
vt 0 NaN
vt 0 NaN
vt 0 NaN
vt 0 NaN
vt 0 NaN
vt 0 NaN
vt 0 NaN
vt 0 NaN
vt 0 NaN
vt 0 NaN
vt 0 NaN
vt 0 NaN
vt 0 NaN
vt 0 NaN
vt 0 NaN
vt 0 NaN
vt 0 NaN
vt 0 NaN
vt 0 NaN
vt 0 NaN
vt 0 NaN
vt 0 NaN
vt 0 NaN
vt 0 NaN
vt 0 NaN
vt 0 NaN
vt 0 NaN
vt 0 NaN
vt 0 NaN
vt 0 NaN
vt 0 NaN
vt 0 NaN
vt 0 NaN
vt 0 NaN
vt 0 NaN
vt 0 NaN
vt 0 NaN
vt 0 NaN
vt 0 NaN
vt 0 NaN
vt 0 NaN
vt 0 NaN
vt 0 NaN
vt 0 NaN
vt 0 NaN
vt 0 NaN
vt 0 NaN
vt 0 NaN
vt 0 NaN
vt 0 NaN
vt 0 NaN
vt 0 NaN
vt 0 NaN
vt 0 NaN
vt 0 NaN
vt 0 NaN
vt 0 NaN
vt 0 NaN
vt 0 NaN
vt 0 NaN
vt 0 NaN
vt 0 NaN
vt 0 NaN
vt 0 NaN
vt 0 NaN
vt 0 NaN
vt 0 NaN
vt 0 NaN
vt 0 NaN
vt 0 NaN
vt 0 NaN
vt 0 NaN
vt 0 NaN
vt 0 NaN
vt 0 NaN
vt 0 NaN
vt 0 NaN
vt 0 NaN
vt 0 NaN
vt 0 NaN
vt 0 NaN
vt 0 NaN
vt 0 NaN
vt 0 NaN
vt 0 NaN
vt 0 NaN
vt 0 NaN
vt 0 NaN
vt 0 NaN
vt 0 NaN
vt 0 NaN
vt 0 NaN
vt 0 NaN
vt 0 NaN
vt 0 NaN
vt 0 NaN
vt 0 NaN
vt 0 NaN
vt 0 NaN
vt 0 NaN
vt 0 NaN
vt 0 NaN
vt 0 NaN
vt 0 NaN
vt 0 NaN
vt 0 NaN
vt 0 NaN
vt 0 NaN
vt 0 NaN
vt 0 NaN
vt 0 NaN
vt 0 NaN
vt 0 NaN
vt 0 NaN
vt 0 NaN
vt 0 NaN
vt 0 NaN
vt 0 NaN
vt 0 NaN
vt 0 NaN
vt 0 NaN
vt 0 NaN
vt 0 NaN
vt 0 NaN
vt 0 NaN
vt 0 NaN
vt 0 NaN
vt 0 NaN
vt 0 NaN
vt 0 NaN
vt 0 NaN
vt 0 NaN
vt 0 NaN
vt 0 NaN
vt 0 NaN
vt 0 NaN
vt 0 NaN
vt 0 NaN
vt 0 NaN
vt 0 NaN
vt 0 NaN
vt 0 NaN
vt 0 NaN
vt 0 NaN
vt 0 NaN
vt 0 NaN
vt 0 NaN
vt 0 NaN
vt 0 NaN
vt 0 NaN
vt 0 NaN
vt 0 NaN
vt 0 NaN
vt 0 NaN
vt 0 NaN
vt 0 NaN
vt 0 NaN
vt 0 NaN
vt 0 NaN
vt 0 NaN
vt 0 NaN
vt 0 NaN
vt 0 NaN
vt 0 NaN
vt 0 NaN
vt 0 NaN
vt 0 NaN
vt 0 NaN
vt 0 NaN
vt 0 NaN
vt 0 NaN
vt 0 NaN
vt 0 NaN
vt 0 NaN
vt 0 NaN
vt 0 NaN
vt 0 NaN
vt 0 NaN
vt 0 NaN
vt 0 NaN
vt 0 NaN
vt 0 NaN
vt 0 NaN
vt 0 NaN
vt 0 NaN
vt 0 NaN
vt 0 NaN
vt 0 NaN
vt 0 NaN
vt 0 NaN
vt 0 NaN
vt 0 NaN
vt 0 NaN

usemtl color4

f 3/3/1 2/2/1 1/1/1
f 2/3/1 3/2/1 4/1/1
f 5/3/2 3/2/2 1/1/2
f 3/3/2 5/2/2 6/1/2
f 7/5/3 2/5/3 4/4/3
f 2/5/3 7/5/3 8/6/3
f 7/5/4 5/5/4 8/7/4
f 5/5/4 7/5/4 6/8/4
f 5/5/5 2/5/5 8/9/5
f 2/5/5 5/5/5 1/10/5
f 3/2/6 7/3/6 4/11/6
f 7/3/6 3/2/6 6/1/6
f 3/3/1 2/2/1 1/1/1
f 2/3/1 3/2/1 4/1/1
f 5/3/2 3/2/2 1/1/2
f 3/3/2 5/2/2 6/1/2
f 7/5/3 2/5/3 4/4/3
f 2/5/3 7/5/3 8/6/3
f 7/5/4 5/5/4 8/7/4
f 5/5/4 7/5/4 6/8/4
f 5/5/5 2/5/5 8/9/5
f 2/5/5 5/5/5 1/10/5
f 3/2/6 7/3/6 4/11/6
f 7/3/6 3/2/6 6/1/6
f 11/3/1 10/2/1 9/1/1
f 10/3/1 11/2/1 12/1/1
f 2/3/2 11/2/2 9/1/2
f 11/3/2 2/2/2 4/1/2
f 13/5/3 10/5/3 12/12/3
f 10/5/3 13/5/3 14/13/3
f 13/5/4 2/5/4 14/14/4
f 2/5/4 13/5/4 4/15/4
f 2/5/5 10/5/5 14/16/5
f 10/5/5 2/5/5 9/17/5
f 11/2/6 13/3/6 12/11/6
f 13/3/6 11/2/6 4/1/6
f 17/3/1 16/2/1 15/1/1
f 16/3/1 17/2/1 18/1/1
f 19/3/2 17/2/2 15/1/2
f 17/3/2 19/2/2 20/1/2
f 21/5/3 16/5/3 18/18/3
f 16/5/3 21/5/3 22/19/3
f 21/5/4 19/5/4 22/20/4
f 19/5/4 21/5/4 20/21/4
f 19/5/5 16/5/5 22/22/5
f 16/5/5 19/5/5 15/23/5
f 17/2/6 21/3/6 18/11/6
f 21/3/6 17/2/6 20/1/6
f 25/3/1 24/2/1 23/1/1
f 24/3/1 25/2/1 26/1/1
f 10/3/2 25/2/2 23/1/2
f 25/3/2 10/2/2 12/1/2
f 27/5/3 24/5/3 26/24/3
f 24/5/3 27/5/3 28/25/3
f 27/5/4 10/5/4 28/26/4
f 10/5/4 27/5/4 12/27/4
f 10/5/5 24/5/5 28/28/5
f 24/5/5 10/5/5 23/29/5
f 25/2/6 27/3/6 26/11/6
f 27/3/6 25/2/6 12/1/6
f 21/3/1 29/2/1 22/1/1
f 29/3/1 21/2/1 30/1/1
f 31/3/2 21/2/2 22/1/2
f 21/3/2 31/2/2 32/1/2
f 33/5/3 29/5/3 30/30/3
f 29/5/3 33/5/3 34/31/3
f 33/5/4 31/5/4 34/32/4
f 31/5/4 33/5/4 32/33/4
f 31/5/5 29/5/5 34/34/5
f 29/5/5 31/5/5 22/22/5
f 21/2/6 33/3/6 30/11/6
f 33/3/6 21/2/6 32/1/6
f 37/3/1 36/2/1 35/1/1
f 36/3/1 37/2/1 38/1/1
f 39/3/2 37/2/2 35/1/2
f 37/3/2 39/2/2 40/1/2
f 41/5/3 36/5/3 38/35/3
f 36/5/3 41/5/3 42/36/3
f 41/5/4 39/5/4 42/37/4
f 39/5/4 41/5/4 40/38/4
f 39/5/5 36/5/5 42/39/5
f 36/5/5 39/5/5 35/40/5
f 37/2/6 41/3/6 38/11/6
f 41/3/6 37/2/6 40/1/6
f 45/3/1 44/2/1 43/1/1
f 44/3/1 45/2/1 46/1/1
f 36/3/2 45/2/2 43/1/2
f 45/3/2 36/2/2 38/1/2
f 47/5/3 44/5/3 46/41/3
f 44/5/3 47/5/3 48/42/3
f 47/5/4 36/5/4 48/43/4
f 36/5/4 47/5/4 38/44/4
f 36/5/5 44/5/5 48/45/5
f 44/5/5 36/5/5 43/46/5
f 45/2/6 47/3/6 46/11/6
f 47/3/6 45/2/6 38/1/6
f 51/3/1 50/2/1 49/1/1
f 50/3/1 51/2/1 52/1/1
f 53/3/2 51/2/2 49/1/2
f 51/3/2 53/2/2 54/1/2
f 55/5/3 50/5/3 52/47/3
f 50/5/3 55/5/3 56/48/3
f 55/5/4 53/5/4 56/49/4
f 53/5/4 55/5/4 54/50/4
f 53/5/5 50/5/5 56/51/5
f 50/5/5 53/5/5 49/52/5
f 51/2/6 55/3/6 52/11/6
f 55/3/6 51/2/6 54/1/6
f 59/3/1 58/2/1 57/1/1
f 58/3/1 59/2/1 60/1/1
f 44/3/2 59/2/2 57/1/2
f 59/3/2 44/2/2 46/1/2
f 61/5/3 58/5/3 60/53/3
f 58/5/3 61/5/3 62/54/3
f 61/5/4 44/5/4 62/55/4
f 44/5/4 61/5/4 46/56/4
f 44/5/5 58/5/5 62/57/5
f 58/5/5 44/5/5 57/58/5
f 59/2/6 61/3/6 60/11/6
f 61/3/6 59/2/6 46/1/6

usemtl color16

f 65/3/1 64/2/1 63/1/1
f 64/3/1 65/2/1 66/1/1
f 67/3/2 65/2/2 63/1/2
f 65/3/2 67/2/2 68/1/2
f 69/5/3 64/5/3 66/59/3
f 64/5/3 69/5/3 70/60/3
f 69/5/4 67/5/4 70/61/4
f 67/5/4 69/5/4 68/62/4
f 67/5/5 64/5/5 70/63/5
f 64/5/5 67/5/5 63/64/5
f 65/2/6 69/3/6 66/11/6
f 69/3/6 65/2/6 68/1/6
f 20/3/1 22/2/1 19/1/1
f 22/3/1 20/2/1 21/1/1
f 71/3/2 20/2/2 19/1/2
f 20/3/2 71/2/2 72/1/2
f 73/5/3 22/19/3 21/5/3
f 22/19/3 73/5/3 74/65/3
f 73/5/4 71/5/4 74/66/4
f 71/5/4 73/5/4 72/67/4
f 71/5/5 22/22/5 74/68/5
f 22/22/5 71/5/5 19/5/5
f 20/2/6 73/3/6 21/11/6
f 73/3/6 20/2/6 72/1/6
f 77/3/1 76/2/1 75/1/1
f 76/3/1 77/2/1 78/1/1
f 79/3/2 77/2/2 75/1/2
f 77/3/2 79/2/2 80/1/2
f 81/5/3 76/5/3 78/69/3
f 76/5/3 81/5/3 82/70/3
f 81/5/4 79/5/4 82/71/4
f 79/5/4 81/5/4 80/72/4
f 79/5/5 76/5/5 82/73/5
f 76/5/5 79/5/5 75/74/5
f 77/2/6 81/3/6 78/11/6
f 81/3/6 77/2/6 80/1/6

usemtl color17

f 85/3/1 84/2/1 83/1/1
f 84/3/1 85/2/1 86/1/1
f 87/3/2 85/2/2 83/1/2
f 85/3/2 87/2/2 88/1/2
f 89/5/3 84/5/3 86/75/3
f 84/5/3 89/5/3 90/76/3
f 89/5/4 87/5/4 90/77/4
f 87/5/4 89/5/4 88/78/4
f 87/5/5 84/5/5 90/79/5
f 84/5/5 87/5/5 83/80/5
f 85/2/6 89/3/6 86/11/6
f 89/3/6 85/2/6 88/1/6
f 89/3/1 91/2/1 90/1/1
f 91/3/1 89/2/1 92/1/1
f 93/3/2 89/2/2 90/1/2
f 89/3/2 93/2/2 94/1/2
f 77/5/3 91/5/3 92/81/3
f 91/5/3 77/5/3 75/82/3
f 77/5/4 93/5/4 75/83/4
f 93/5/4 77/5/4 94/84/4
f 93/5/5 91/5/5 75/74/5
f 91/5/5 93/5/5 90/79/5
f 89/2/6 77/3/6 92/11/6
f 77/3/6 89/2/6 94/1/6

usemtl color13

f 97/3/1 96/2/1 95/1/1
f 96/3/1 97/2/1 98/1/1
f 64/3/2 97/2/2 95/1/2
f 97/3/2 64/2/2 66/1/2
f 99/5/3 96/5/3 98/85/3
f 96/5/3 99/5/3 100/86/3
f 99/5/4 64/5/4 100/87/4
f 64/5/4 99/5/4 66/88/4
f 64/5/5 96/5/5 100/89/5
f 96/5/5 64/5/5 95/90/5
f 97/2/6 99/3/6 98/11/6
f 99/3/6 97/2/6 66/1/6
f 69/3/1 101/2/1 70/1/1
f 101/3/1 69/2/1 102/1/1
f 103/3/2 69/2/2 70/1/2
f 69/3/2 103/2/2 104/1/2
f 105/5/3 101/5/3 102/91/3
f 101/5/3 105/5/3 106/92/3
f 105/5/4 103/5/4 106/93/4
f 103/5/4 105/5/4 104/94/4
f 103/5/5 101/5/5 106/95/5
f 101/5/5 103/5/5 70/63/5
f 69/2/6 105/3/6 102/11/6
f 105/3/6 69/2/6 104/1/6
f 109/3/1 108/2/1 107/1/1
f 108/3/1 109/2/1 110/1/1
f 111/3/2 109/2/2 107/1/2
f 109/3/2 111/2/2 112/1/2
f 113/5/3 108/5/3 110/96/3
f 108/5/3 113/5/3 114/97/3
f 113/5/4 111/5/4 114/98/4
f 111/5/4 113/5/4 112/99/4
f 111/5/5 108/5/5 114/100/5
f 108/5/5 111/5/5 107/101/5
f 109/2/6 113/3/6 110/11/6
f 113/3/6 109/2/6 112/1/6
f 117/3/1 116/2/1 115/1/1
f 116/3/1 117/2/1 118/1/1
f 119/3/2 117/2/2 115/1/2
f 117/3/2 119/2/2 120/1/2
f 121/5/3 116/5/3 118/102/3
f 116/5/3 121/5/3 122/103/3
f 121/5/4 119/5/4 122/104/4
f 119/5/4 121/5/4 120/105/4
f 119/5/5 116/5/5 122/106/5
f 116/5/5 119/5/5 115/107/5
f 117/2/6 121/3/6 118/11/6
f 121/3/6 117/2/6 120/1/6

usemtl color6

f 125/3/1 124/2/1 123/1/1
f 124/3/1 125/2/1 126/1/1
f 96/3/2 125/2/2 123/1/2
f 125/3/2 96/2/2 98/1/2
f 127/5/3 124/5/3 126/108/3
f 124/5/3 127/5/3 128/109/3
f 127/5/4 96/5/4 128/110/4
f 96/5/4 127/5/4 98/111/4
f 96/5/5 124/5/5 128/112/5
f 124/5/5 96/5/5 123/113/5
f 125/2/6 127/3/6 126/11/6
f 127/3/6 125/2/6 98/1/6
f 105/3/1 129/2/1 106/1/1
f 129/3/1 105/2/1 130/1/1
f 131/3/2 105/2/2 106/1/2
f 105/3/2 131/2/2 132/1/2
f 133/5/3 129/5/3 130/114/3
f 129/5/3 133/5/3 134/115/3
f 133/5/4 131/5/4 134/116/4
f 131/5/4 133/5/4 132/117/4
f 131/5/5 129/5/5 134/118/5
f 129/5/5 131/5/5 106/95/5
f 105/2/6 133/3/6 130/11/6
f 133/3/6 105/2/6 132/1/6
f 137/3/1 136/2/1 135/1/1
f 136/3/1 137/2/1 138/1/1
f 139/3/2 137/2/2 135/1/2
f 137/3/2 139/2/2 140/1/2
f 141/5/3 136/5/3 138/119/3
f 136/5/3 141/5/3 142/120/3
f 141/5/4 139/5/4 142/121/4
f 139/5/4 141/5/4 140/122/4
f 139/5/5 136/5/5 142/123/5
f 136/5/5 139/5/5 135/124/5
f 137/2/6 141/3/6 138/11/6
f 141/3/6 137/2/6 140/1/6
f 145/3/1 144/2/1 143/1/1
f 144/3/1 145/2/1 146/1/1
f 147/3/2 145/2/2 143/1/2
f 145/3/2 147/2/2 148/1/2
f 149/5/3 144/5/3 146/125/3
f 144/5/3 149/5/3 150/126/3
f 149/5/4 147/5/4 150/127/4
f 147/5/4 149/5/4 148/128/4
f 147/5/5 144/5/5 150/129/5
f 144/5/5 147/5/5 143/130/5
f 145/2/6 149/3/6 146/11/6
f 149/3/6 145/2/6 148/1/6

usemtl color3

f 153/3/1 152/2/1 151/1/1
f 152/3/1 153/2/1 154/1/1
f 22/3/2 153/2/2 151/1/2
f 153/3/2 22/2/2 21/1/2
f 30/30/3 152/5/3 154/131/3
f 152/5/3 30/30/3 29/5/3
f 30/5/4 22/20/4 29/132/4
f 22/20/4 30/5/4 21/5/4
f 22/22/5 152/5/5 29/5/5
f 152/5/5 22/22/5 151/133/5
f 153/2/6 30/3/6 154/11/6
f 30/3/6 153/2/6 21/1/6
f 157/3/1 156/2/1 155/1/1
f 156/3/1 157/2/1 158/1/1
f 159/3/2 157/2/2 155/1/2
f 157/3/2 159/2/2 160/1/2
f 161/5/3 156/5/3 158/134/3
f 156/5/3 161/5/3 162/135/3
f 161/5/4 159/5/4 162/136/4
f 159/5/4 161/5/4 160/137/4
f 159/5/5 156/5/5 162/138/5
f 156/5/5 159/5/5 155/139/5
f 157/2/6 161/3/6 158/11/6
f 161/3/6 157/2/6 160/1/6
f 165/3/1 164/2/1 163/1/1
f 164/3/1 165/2/1 166/1/1
f 49/3/2 165/2/2 163/1/2
f 165/3/2 49/2/2 51/1/2
f 52/47/3 164/5/3 166/140/3
f 164/5/3 52/47/3 50/5/3
f 52/5/4 49/5/4 50/141/4
f 49/5/4 52/5/4 51/142/4
f 49/52/5 164/5/5 50/5/5
f 164/5/5 49/52/5 163/143/5
f 165/2/6 52/3/6 166/11/6
f 52/3/6 165/2/6 51/1/6

usemtl color7

f 26/3/1 167/2/1 24/1/1
f 167/3/1 26/2/1 168/1/1
f 28/3/2 26/2/2 24/1/2
f 26/3/2 28/2/2 27/1/2
f 169/5/3 167/5/3 168/144/3
f 167/5/3 169/5/3 170/145/3
f 169/5/4 28/26/4 170/146/4
f 28/26/4 169/5/4 27/5/4
f 28/28/5 167/5/5 170/147/5
f 167/5/5 28/28/5 24/5/5
f 26/2/6 169/3/6 168/11/6
f 169/3/6 26/2/6 27/1/6
f 173/3/1 172/2/1 171/1/1
f 172/3/1 173/2/1 174/1/1
f 175/3/2 173/2/2 171/1/2
f 173/3/2 175/2/2 176/1/2
f 177/5/3 172/5/3 174/148/3
f 172/5/3 177/5/3 178/149/3
f 177/5/4 175/5/4 178/150/4
f 175/5/4 177/5/4 176/151/4
f 175/5/5 172/5/5 178/152/5
f 172/5/5 175/5/5 171/153/5
f 173/2/6 177/3/6 174/11/6
f 177/3/6 173/2/6 176/1/6
f 154/3/1 179/2/1 152/1/1
f 179/3/1 154/2/1 180/1/1
f 181/3/2 154/2/2 152/1/2
f 154/3/2 181/2/2 182/1/2
f 183/5/3 179/5/3 180/154/3
f 179/5/3 183/5/3 184/155/3
f 183/5/4 181/5/4 184/156/4
f 181/5/4 183/5/4 182/157/4
f 181/5/5 179/5/5 184/158/5
f 179/5/5 181/5/5 152/5/5
f 154/2/6 183/3/6 180/11/6
f 183/3/6 154/2/6 182/1/6
f 187/3/1 186/2/1 185/1/1
f 186/3/1 187/2/1 188/1/1
f 34/3/2 187/2/2 185/1/2
f 187/3/2 34/2/2 33/1/2
f 189/5/3 186/5/3 188/159/3
f 186/5/3 189/5/3 190/160/3
f 189/5/4 34/32/4 190/161/4
f 34/32/4 189/5/4 33/5/4
f 34/34/5 186/5/5 190/162/5
f 186/5/5 34/34/5 185/163/5
f 187/2/6 189/3/6 188/11/6
f 189/3/6 187/2/6 33/1/6
f 192/3/1 111/2/1 191/1/1
f 111/3/1 192/2/1 112/1/1
f 193/3/2 192/2/2 191/1/2
f 192/3/2 193/2/2 194/1/2
f 195/5/3 111/5/3 112/164/3
f 111/5/3 195/5/3 196/165/3
f 195/5/4 193/5/4 196/166/4
f 193/5/4 195/5/4 194/167/4
f 193/5/5 111/5/5 196/168/5
f 111/5/5 193/5/5 191/169/5
f 192/2/6 195/3/6 112/11/6
f 195/3/6 192/2/6 194/1/6
f 199/3/1 198/2/1 197/1/1
f 198/3/1 199/2/1 200/1/1
f 201/3/2 199/2/2 197/1/2
f 199/3/2 201/2/2 202/1/2
f 203/5/3 198/5/3 200/170/3
f 198/5/3 203/5/3 204/171/3
f 203/5/4 201/5/4 204/172/4
f 201/5/4 203/5/4 202/173/4
f 201/5/5 198/5/5 204/174/5
f 198/5/5 201/5/5 197/175/5
f 199/2/6 203/3/6 200/11/6
f 203/3/6 199/2/6 202/1/6
f 113/3/1 205/2/1 114/1/1
f 205/3/1 113/2/1 206/1/1
f 207/3/2 113/2/2 114/1/2
f 113/3/2 207/2/2 208/1/2
f 209/5/3 205/5/3 206/176/3
f 205/5/3 209/5/3 210/177/3
f 209/5/4 207/5/4 210/178/4
f 207/5/4 209/5/4 208/179/4
f 207/5/5 205/5/5 210/180/5
f 205/5/5 207/5/5 114/100/5
f 113/2/6 209/3/6 206/11/6
f 209/3/6 113/2/6 208/1/6

usemtl color15

f 213/3/1 212/2/1 211/1/1
f 212/3/1 213/2/1 214/1/1
f 215/3/2 213/2/2 211/1/2
f 213/3/2 215/2/2 216/1/2
f 217/5/3 212/5/3 214/181/3
f 212/5/3 217/5/3 218/182/3
f 217/5/4 215/5/4 218/183/4
f 215/5/4 217/5/4 216/184/4
f 215/5/5 212/5/5 218/185/5
f 212/5/5 215/5/5 211/186/5
f 213/2/6 217/3/6 214/11/6
f 217/3/6 213/2/6 216/1/6

usemtl color9

f 216/3/1 218/2/1 215/1/1
f 218/3/1 216/2/1 217/1/1
f 219/3/2 216/2/2 215/1/2
f 216/3/2 219/2/2 220/1/2
f 221/5/3 218/182/3 217/5/3
f 218/182/3 221/5/3 222/187/3
f 221/5/4 219/5/4 222/188/4
f 219/5/4 221/5/4 220/189/4
f 219/5/5 218/185/5 222/190/5
f 218/185/5 219/5/5 215/5/5
f 216/2/6 221/3/6 217/11/6
f 221/3/6 216/2/6 220/1/6
f 225/3/1 224/2/1 223/1/1
f 224/3/1 225/2/1 226/1/1
f 227/3/2 225/2/2 223/1/2
f 225/3/2 227/2/2 228/1/2
f 229/5/3 224/5/3 226/191/3
f 224/5/3 229/5/3 230/192/3
f 229/5/4 227/5/4 230/193/4
f 227/5/4 229/5/4 228/194/4
f 227/5/5 224/5/5 230/195/5
f 224/5/5 227/5/5 223/196/5
f 225/2/6 229/3/6 226/11/6
f 229/3/6 225/2/6 228/1/6

usemtl color2

f 78/3/1 231/2/1 76/1/1
f 231/3/1 78/2/1 232/1/1
f 82/3/2 78/2/2 76/1/2
f 78/3/2 82/2/2 81/1/2
f 233/5/3 231/5/3 232/197/3
f 231/5/3 233/5/3 234/198/3
f 233/5/4 82/71/4 234/199/4
f 82/71/4 233/5/4 81/5/4
f 82/73/5 231/5/5 234/200/5
f 231/5/5 82/73/5 76/5/5
f 78/2/6 233/3/6 232/11/6
f 233/3/6 78/2/6 81/1/6
f 236/3/1 35/2/1 235/1/1
f 35/3/1 236/2/1 37/1/1
f 237/3/2 236/2/2 235/1/2
f 236/3/2 237/2/2 238/1/2
f 40/5/3 35/5/3 37/201/3
f 35/5/3 40/5/3 39/202/3
f 40/38/4 237/5/4 39/5/4
f 237/5/4 40/38/4 238/203/4
f 237/5/5 35/40/5 39/5/5
f 35/40/5 237/5/5 235/204/5
f 236/2/6 40/3/6 37/11/6
f 40/3/6 236/2/6 238/1/6
f 200/3/1 239/2/1 198/1/1
f 239/3/1 200/2/1 240/1/1
f 204/3/2 200/2/2 198/1/2
f 200/3/2 204/2/2 203/1/2
f 241/5/3 239/5/3 240/205/3
f 239/5/3 241/5/3 242/206/3
f 241/5/4 204/172/4 242/207/4
f 204/172/4 241/5/4 203/5/4
f 204/174/5 239/5/5 242/208/5
f 239/5/5 204/174/5 198/5/5
f 200/2/6 241/3/6 240/11/6
f 241/3/6 200/2/6 203/1/6
f 245/3/1 244/2/1 243/1/1
f 244/3/1 245/2/1 246/1/1
f 247/3/2 245/2/2 243/1/2
f 245/3/2 247/2/2 248/1/2
f 249/5/3 244/5/3 246/209/3
f 244/5/3 249/5/3 250/210/3
f 249/5/4 247/5/4 250/211/4
f 247/5/4 249/5/4 248/212/4
f 247/5/5 244/5/5 250/213/5
f 244/5/5 247/5/5 243/214/5
f 245/2/6 249/3/6 246/11/6
f 249/3/6 245/2/6 248/1/6
f 241/3/1 251/2/1 242/1/1
f 251/3/1 241/2/1 252/1/1
f 253/3/2 241/2/2 242/1/2
f 241/3/2 253/2/2 254/1/2
f 255/5/3 251/5/3 252/215/3
f 251/5/3 255/5/3 256/216/3
f 255/5/4 253/5/4 256/217/4
f 253/5/4 255/5/4 254/218/4
f 253/5/5 251/5/5 256/219/5
f 251/5/5 253/5/5 242/208/5
f 241/2/6 255/3/6 252/11/6
f 255/3/6 241/2/6 254/1/6
f 259/3/1 258/2/1 257/1/1
f 258/3/1 259/2/1 260/1/1
f 155/3/2 259/2/2 257/1/2
f 259/3/2 155/2/2 157/1/2
f 158/134/3 258/5/3 260/220/3
f 258/5/3 158/134/3 156/5/3
f 158/5/4 155/5/4 156/221/4
f 155/5/4 158/5/4 157/222/4
f 155/139/5 258/5/5 156/5/5
f 258/5/5 155/139/5 257/223/5
f 259/2/6 158/3/6 260/11/6
f 158/3/6 259/2/6 157/1/6
f 255/3/1 261/2/1 256/1/1
f 261/3/1 255/2/1 262/1/1
f 263/3/2 255/2/2 256/1/2
f 255/3/2 263/2/2 264/1/2
f 265/5/3 261/5/3 262/224/3
f 261/5/3 265/5/3 266/225/3
f 265/5/4 263/5/4 266/226/4
f 263/5/4 265/5/4 264/227/4
f 263/5/5 261/5/5 266/228/5
f 261/5/5 263/5/5 256/219/5
f 255/2/6 265/3/6 262/11/6
f 265/3/6 255/2/6 264/1/6

usemtl color11

f 269/3/1 268/2/1 267/1/1
f 268/3/1 269/2/1 270/1/1
f 271/3/2 269/2/2 267/1/2
f 269/3/2 271/2/2 272/1/2
f 273/5/3 268/5/3 270/229/3
f 268/5/3 273/5/3 274/230/3
f 273/5/4 271/5/4 274/231/4
f 271/5/4 273/5/4 272/232/4
f 271/5/5 268/5/5 274/233/5
f 268/5/5 271/5/5 267/234/5
f 269/2/6 273/3/6 270/11/6
f 273/3/6 269/2/6 272/1/6
f 177/3/1 275/2/1 178/1/1
f 275/3/1 177/2/1 276/1/1
f 277/3/2 177/2/2 178/1/2
f 177/3/2 277/2/2 278/1/2
f 279/5/3 275/5/3 276/235/3
f 275/5/3 279/5/3 280/236/3
f 279/5/4 277/5/4 280/237/4
f 277/5/4 279/5/4 278/238/4
f 277/5/5 275/5/5 280/239/5
f 275/5/5 277/5/5 178/152/5
f 177/2/6 279/3/6 276/11/6
f 279/3/6 177/2/6 278/1/6

usemtl color12

f 174/3/1 281/2/1 172/1/1
f 281/3/1 174/2/1 282/1/1
f 178/3/2 174/2/2 172/1/2
f 174/3/2 178/2/2 177/1/2
f 276/235/3 281/5/3 282/240/3
f 281/5/3 276/235/3 275/5/3
f 276/5/4 178/150/4 275/241/4
f 178/150/4 276/5/4 177/5/4
f 178/152/5 281/5/5 275/5/5
f 281/5/5 178/152/5 172/5/5
f 174/2/6 276/3/6 282/11/6
f 276/3/6 174/2/6 177/1/6
f 183/3/1 283/2/1 184/1/1
f 283/3/1 183/2/1 284/1/1
f 186/3/2 183/2/2 184/1/2
f 183/3/2 186/2/2 188/1/2
f 285/5/3 283/5/3 284/242/3
f 283/5/3 285/5/3 286/243/3
f 285/5/4 186/5/4 286/244/4
f 186/5/4 285/5/4 188/245/4
f 186/5/5 283/5/5 286/246/5
f 283/5/5 186/5/5 184/158/5
f 183/2/6 285/3/6 284/11/6
f 285/3/6 183/2/6 188/1/6

usemtl color14

f 112/3/1 114/2/1 111/1/1
f 114/3/1 112/2/1 113/1/1
f 196/3/2 112/2/2 111/1/2
f 112/3/2 196/2/2 195/1/2
f 208/5/3 114/97/3 113/5/3
f 114/97/3 208/5/3 207/247/3
f 208/179/4 196/166/4 207/5/4
f 196/166/4 208/179/4 195/5/4
f 196/168/5 114/100/5 207/5/5
f 114/100/5 196/168/5 111/5/5
f 112/2/6 208/3/6 113/11/6
f 208/3/6 112/2/6 195/1/6

usemtl color8

f 282/3/1 287/2/1 281/1/1
f 287/3/1 282/2/1 288/1/1
f 275/3/2 282/2/2 281/1/2
f 282/3/2 275/2/2 276/1/2
f 289/5/3 287/5/3 288/248/3
f 287/5/3 289/5/3 290/249/3
f 289/5/4 275/241/4 290/250/4
f 275/241/4 289/5/4 276/5/4
f 275/5/5 287/5/5 290/251/5
f 287/5/5 275/5/5 281/5/5
f 282/2/6 289/3/6 288/11/6
f 289/3/6 282/2/6 276/1/6
f 292/3/1 243/2/1 291/1/1
f 243/3/1 292/2/1 245/1/1
f 283/3/2 292/2/2 291/1/2
f 292/3/2 283/2/2 284/1/2
f 293/5/3 243/5/3 245/252/3
f 243/5/3 293/5/3 294/253/3
f 293/5/4 283/5/4 294/254/4
f 283/5/4 293/5/4 284/255/4
f 283/5/5 243/214/5 294/256/5
f 243/214/5 283/5/5 291/257/5
f 292/2/6 293/3/6 245/11/6
f 293/3/6 292/2/6 284/1/6
f 285/3/1 295/2/1 286/1/1
f 295/3/1 285/2/1 296/1/1
f 297/3/2 285/2/2 286/1/2
f 285/3/2 297/2/2 298/1/2
f 248/5/3 295/5/3 296/258/3
f 295/5/3 248/5/3 247/259/3
f 248/212/4 297/5/4 247/5/4
f 297/5/4 248/212/4 298/260/4
f 297/5/5 295/5/5 247/5/5
f 295/5/5 297/5/5 286/246/5
f 285/2/6 248/3/6 296/11/6
f 248/3/6 285/2/6 298/1/6

usemtl color10

f 228/3/1 230/2/1 227/1/1
f 230/3/1 228/2/1 229/1/1
f 299/3/2 228/2/2 227/1/2
f 228/3/2 299/2/2 300/1/2
f 301/5/3 230/192/3 229/5/3
f 230/192/3 301/5/3 302/261/3
f 301/5/4 299/5/4 302/262/4
f 299/5/4 301/5/4 300/263/4
f 299/5/5 230/195/5 302/264/5
f 230/195/5 299/5/5 227/5/5
f 228/2/6 301/3/6 229/11/6
f 301/3/6 228/2/6 300/1/6

usemtl color5

f 141/3/1 303/2/1 142/1/1
f 303/3/1 141/2/1 304/1/1
f 305/3/2 141/2/2 142/1/2
f 141/3/2 305/2/2 306/1/2
f 165/5/3 303/5/3 304/265/3
f 303/5/3 165/5/3 163/266/3
f 165/5/4 305/5/4 163/267/4
f 305/5/4 165/5/4 306/268/4
f 305/5/5 303/5/5 163/143/5
f 303/5/5 305/5/5 142/123/5
f 141/2/6 165/3/6 304/11/6
f 165/3/6 141/2/6 306/1/6
f 308/3/1 53/2/1 307/1/1
f 53/3/1 308/2/1 54/1/1
f 144/3/2 308/2/2 307/1/2
f 308/3/2 144/2/2 146/1/2
f 309/5/3 53/5/3 54/269/3
f 53/5/3 309/5/3 310/270/3
f 309/5/4 144/5/4 310/271/4
f 144/5/4 309/5/4 146/272/4
f 144/5/5 53/5/5 310/273/5
f 53/5/5 144/5/5 307/274/5
f 308/2/6 309/3/6 54/11/6
f 309/3/6 308/2/6 146/1/6

