# Created by Kenney (www.kenney.nl)

mtllib Grenade 9H1 Digikiki.mtl

v 4 3 -1.2
v 4 2 -1.2
v 4 3 1.2
v 4 2 1.2
v 3 3 -1.2
v 3 3 1.2
v 3 2 1.2
v 3 2 -1.2
v 2 3 -1.2
v 2 2 -1.2
v 2 3 1.2
v 2 2 1.2
v 1 3 -1.2
v 1 3 1.2
v 1 2 1.2
v 1 2 -1.2
v 5 2 -1.2
v 5 1 -1.2
v 5 2 1.2
v 5 1 1.2
v 4 1 1.2
v 4 1 -1.2
v -3 -1 -1.2
v -3 -2 -1.2
v -3 -1 1.2
v -3 -2 1.2
v -4 -1 -1.2
v -4 -1 1.2
v -4 -2 1.2
v -4 -2 -1.2
v 3 3 -0.8
v 3 2 -0.8
v 3 3 0.8
v 3 2 0.8
v 2 3 -0.8
v 2 3 0.8
v 2 2 0.8
v 2 2 -0.8
v -2 3 -0.8
v -2 2 -0.8
v -2 3 0.8
v -2 2 0.8
v -3 3 -0.8
v -3 3 0.8
v -3 2 0.8
v -3 2 -0.8
v -1 3 -1.2
v -1 3 1.2
v -1 2 1.2
v -1 2 -1.2
v -4 0 -1.2
v -4 0 1.2
v -5 0 -1.2
v -5 0 1.2
v -5 -1 1.2
v -5 -1 -1.2
v -2 3 -1.2
v -2 3 1.2
v -2 2 1.2
v -2 2 -1.2
v -3 3 -1.2
v -3 2 -1.2
v -3 3 1.2
v -3 2 1.2
v -4 3 -1.2
v -4 3 1.2
v -4 2 1.2
v -4 2 -1.2
v -5 2 -1.2
v -5 2 1.2
v 4 2 -2
v 4 1 -2
v 4 2 2
v 4 1 2
v 3 2 -2
v 3 2 2
v 3 1 2
v 3 1 -2
v 2 2 -2
v 2 1 -2
v 2 2 2
v 2 1 2
v 1 2 -2
v 1 2 2
v 1 1 2
v 1 1 -2
v -3 1 -2
v -3 -1 -2
v -3 1 2
v -3 -1 2
v -4 1 -2
v -4 1 2
v -4 -1 2
v -4 -1 -2
v 5 0 -1.2
v 5 -1 -1.2
v 5 0 1.2
v 5 -1 1.2
v 4 0 -1.2
v 4 0 1.2
v 4 -1 1.2
v 4 -1 -1.2
v 4 -2 -1.2
v 4 -2 1.2
v 3 -1 -1.2
v 3 -1 1.2
v 3 -2 1.2
v 3 -2 -1.2
v 2 -1 -1.2
v 2 -2 -1.2
v 2 -1 1.2
v 2 -2 1.2
v 0 -1 -1.2
v 0 -1 1.2
v 0 -2 1.2
v 0 -2 -1.2
v 3 2 -1.6
v 3 1 -1.6
v 3 2 1.6
v 3 1 1.6
v 2 2 -1.6
v 2 2 1.6
v 2 1 1.6
v 2 1 -1.6
v -2 2 -1.6
v -2 1 -1.6
v -2 2 1.6
v -2 1 1.6
v -3 2 -1.6
v -3 2 1.6
v -3 1 1.6
v -3 1 -1.6
v 3 0 -1.6
v 3 -1 -1.6
v 3 0 1.6
v 3 -1 1.6
v 2 0 -1.6
v 2 0 1.6
v 2 -1 1.6
v 2 -1 -1.6
v -2 0 -1.6
v -2 -1 -1.6
v -2 0 1.6
v -2 -1 1.6
v -3 0 -1.6
v -3 0 1.6
v -3 -1 1.6
v -3 -1 -1.6
v 0 2 -2
v 0 2 2
v 0 1 2
v 0 1 -2
v 0 0 -2
v 0 0 2
v -1 1 -2
v -1 1 2
v -1 0 2
v -1 0 -2
v -1 2 -2
v -1 2 2
v -2 2 -2
v -2 2 2
v -2 1 2
v -2 1 -2
v -3 2 -2
v -3 2 2
v -4 2 -2
v -4 2 2
v -2 -1 -1.2
v -2 -1 1.2
v -2 -2 1.2
v -2 -2 -1.2
v 4 0 -2
v 4 0 2
v 3 0 2
v 3 0 -2
v 2 0 -2
v 2 0 2
v 1 0 2
v 1 0 -2
v -2 0 2
v -2 0 -2
v 4 -1 -2
v 4 -1 2
v 3 -1 2
v 3 -1 -2
v 2 -1 -2
v 2 -1 2
v -2 -1 2
v -2 -1 -2
v 3 -1 -0.8
v 3 -2 -0.8
v 3 -1 0.8
v 3 -2 0.8
v 2 -1 -0.8
v 2 -1 0.8
v 2 -2 0.8
v 2 -2 -0.8
v -2 -1 -0.8
v -2 -2 -0.8
v -2 -1 0.8
v -2 -2 0.8
v -3 -1 -0.8
v -3 -1 0.8
v -3 -2 0.8
v -3 -2 -0.8

vn 1 0 0
vn 0 1 0
vn 0 -1 0
vn -1 0 0
vn 0 0 -1
vn 0 0 1

vt -19.68504 19.68504
vt 19.68504 19.68504
vt -19.68504 -19.68504
vt 0 NaN
vt 0 0
vt 0 NaN
vt 0 NaN
vt 0 NaN
vt 0 NaN
vt 0 NaN
vt 19.68504 -19.68504
vt 0 NaN
vt 0 NaN
vt 0 NaN
vt 0 NaN
vt 0 NaN
vt 0 NaN
vt 0 NaN
vt 0 NaN
vt 0 NaN
vt 0 NaN
vt 0 NaN
vt 0 NaN
vt 0 NaN
vt 0 NaN
vt 0 NaN
vt 0 NaN
vt 0 NaN
vt 0 NaN
vt 0 NaN
vt 0 NaN
vt 0 NaN
vt 0 NaN
vt 0 NaN
vt 0 NaN
vt 0 NaN
vt 0 NaN
vt 0 NaN
vt 0 NaN
vt 0 NaN
vt 0 NaN
vt 0 NaN
vt 0 NaN
vt 0 NaN
vt 0 NaN
vt 0 NaN
vt 0 NaN
vt 0 NaN
vt 0 NaN
vt 0 NaN
vt 0 NaN
vt 0 NaN
vt 0 NaN
vt 0 NaN
vt 0 NaN
vt 0 NaN
vt 0 NaN
vt 0 NaN
vt 0 NaN
vt 0 NaN
vt 0 NaN
vt 0 NaN
vt 0 NaN
vt 0 NaN
vt 0 NaN
vt 0 NaN
vt 0 NaN
vt 0 NaN
vt 0 NaN
vt 0 NaN
vt 0 NaN
vt 0 NaN
vt 0 NaN
vt 0 NaN
vt 0 NaN
vt 0 NaN
vt 0 NaN
vt 0 NaN
vt 0 NaN
vt 0 NaN
vt 0 NaN
vt 0 NaN
vt 0 NaN
vt 0 NaN
vt 0 NaN
vt 0 NaN
vt 0 NaN
vt 0 NaN
vt 0 NaN
vt 0 NaN
vt 0 NaN
vt 0 NaN
vt 0 NaN
vt 0 NaN
vt 0 NaN
vt 0 NaN
vt 0 NaN
vt 0 NaN
vt 0 NaN
vt 0 NaN
vt 0 NaN
vt 0 NaN
vt 0 NaN
vt 0 NaN
vt 0 NaN
vt 0 NaN
vt 0 NaN
vt 0 NaN
vt 0 NaN
vt 0 NaN
vt 0 NaN
vt 0 NaN
vt 0 NaN
vt 0 NaN
vt 0 NaN
vt 0 NaN
vt 0 NaN
vt 0 NaN
vt 0 NaN
vt 0 NaN
vt 0 NaN
vt 0 NaN
vt 0 NaN
vt 0 NaN
vt 0 NaN
vt 0 NaN
vt 0 NaN
vt 0 NaN
vt 0 NaN
vt 0 NaN
vt 0 NaN
vt 0 NaN
vt 0 NaN
vt 0 NaN
vt 0 NaN
vt 0 NaN
vt 0 NaN
vt 0 NaN
vt 0 NaN
vt 0 NaN
vt 0 NaN
vt 0 NaN
vt 0 NaN
vt 0 NaN
vt 0 NaN
vt 0 NaN
vt 0 NaN
vt 0 NaN
vt 0 NaN
vt 0 NaN
vt 0 NaN
vt 0 NaN
vt 0 NaN
vt 0 NaN
vt 0 NaN
vt 0 NaN
vt 0 NaN
vt 0 NaN
vt 0 NaN
vt 0 NaN
vt 0 NaN
vt 0 NaN
vt 0 NaN
vt 0 NaN
vt 0 NaN
vt 0 NaN
vt 0 NaN
vt 0 NaN
vt 0 NaN
vt 0 NaN
vt 0 NaN
vt 0 NaN
vt 0 NaN
vt 0 NaN
vt 0 NaN
vt 0 NaN
vt 0 NaN
vt 0 NaN
vt 0 NaN
vt 0 NaN
vt 0 NaN
vt 0 NaN
vt 0 NaN
vt 0 NaN

usemtl color5

f 3/3/1 2/2/1 1/1/1
f 2/3/1 3/2/1 4/1/1
f 5/3/2 3/2/2 1/1/2
f 3/3/2 5/2/2 6/1/2
f 7/5/3 2/5/3 4/4/3
f 2/5/3 7/5/3 8/6/3
f 7/5/4 5/5/4 8/7/4
f 5/5/4 7/5/4 6/8/4
f 5/5/5 2/5/5 8/9/5
f 2/5/5 5/5/5 1/10/5
f 3/2/6 7/3/6 4/11/6
f 7/3/6 3/2/6 6/1/6
f 11/3/1 10/2/1 9/1/1
f 10/3/1 11/2/1 12/1/1
f 13/3/2 11/2/2 9/1/2
f 11/3/2 13/2/2 14/1/2
f 15/5/3 10/5/3 12/12/3
f 10/5/3 15/5/3 16/13/3
f 15/5/4 13/5/4 16/14/4
f 13/5/4 15/5/4 14/15/4
f 13/5/5 10/5/5 16/16/5
f 10/5/5 13/5/5 9/17/5
f 11/2/6 15/3/6 12/11/6
f 15/3/6 11/2/6 14/1/6
f 3/3/1 2/2/1 1/1/1
f 2/3/1 3/2/1 4/1/1
f 5/3/2 3/2/2 1/1/2
f 3/3/2 5/2/2 6/1/2
f 7/5/3 2/5/3 4/4/3
f 2/5/3 7/5/3 8/6/3
f 7/5/4 5/5/4 8/7/4
f 5/5/4 7/5/4 6/8/4
f 5/5/5 2/5/5 8/9/5
f 2/5/5 5/5/5 1/10/5
f 3/2/6 7/3/6 4/11/6
f 7/3/6 3/2/6 6/1/6
f 19/3/1 18/2/1 17/1/1
f 18/3/1 19/2/1 20/1/1
f 2/3/2 19/2/2 17/1/2
f 19/3/2 2/2/2 4/1/2
f 21/5/3 18/5/3 20/18/3
f 18/5/3 21/5/3 22/19/3
f 21/5/4 2/5/4 22/20/4
f 2/5/4 21/5/4 4/21/4
f 2/5/5 18/5/5 22/22/5
f 18/5/5 2/5/5 17/23/5
f 19/2/6 21/3/6 20/11/6
f 21/3/6 19/2/6 4/1/6
f 25/3/1 24/2/1 23/1/1
f 24/3/1 25/2/1 26/1/1
f 27/3/2 25/2/2 23/1/2
f 25/3/2 27/2/2 28/1/2
f 29/5/3 24/5/3 26/24/3
f 24/5/3 29/5/3 30/25/3
f 29/5/4 27/5/4 30/26/4
f 27/5/4 29/5/4 28/27/4
f 27/5/5 24/5/5 30/28/5
f 24/5/5 27/5/5 23/29/5
f 25/2/6 29/3/6 26/11/6
f 29/3/6 25/2/6 28/1/6

usemtl color16

f 33/3/1 32/2/1 31/1/1
f 32/3/1 33/2/1 34/1/1
f 35/3/2 33/2/2 31/1/2
f 33/3/2 35/2/2 36/1/2
f 37/5/3 32/5/3 34/30/3
f 32/5/3 37/5/3 38/31/3
f 37/5/4 35/5/4 38/32/4
f 35/5/4 37/5/4 36/33/4
f 35/5/5 32/5/5 38/34/5
f 32/5/5 35/5/5 31/35/5
f 33/2/6 37/3/6 34/11/6
f 37/3/6 33/2/6 36/1/6
f 41/3/1 40/2/1 39/1/1
f 40/3/1 41/2/1 42/1/1
f 43/3/2 41/2/2 39/1/2
f 41/3/2 43/2/2 44/1/2
f 45/5/3 40/5/3 42/36/3
f 40/5/3 45/5/3 46/37/3
f 45/5/4 43/5/4 46/38/4
f 43/5/4 45/5/4 44/39/4
f 43/5/5 40/5/5 46/40/5
f 40/5/5 43/5/5 39/41/5
f 41/2/6 45/3/6 42/11/6
f 45/3/6 41/2/6 44/1/6

usemtl color8

f 14/3/1 16/2/1 13/1/1
f 16/3/1 14/2/1 15/1/1
f 47/3/2 14/2/2 13/1/2
f 14/3/2 47/2/2 48/1/2
f 49/5/3 16/13/3 15/5/3
f 16/13/3 49/5/3 50/42/3
f 49/5/4 47/5/4 50/43/4
f 47/5/4 49/5/4 48/44/4
f 47/5/5 16/16/5 50/45/5
f 16/16/5 47/5/5 13/5/5
f 14/2/6 49/3/6 15/11/6
f 49/3/6 14/2/6 48/1/6
f 52/3/1 27/2/1 51/1/1
f 27/3/1 52/2/1 28/1/1
f 53/3/2 52/2/2 51/1/2
f 52/3/2 53/2/2 54/1/2
f 55/5/3 27/5/3 28/46/3
f 27/5/3 55/5/3 56/47/3
f 55/5/4 53/5/4 56/48/4
f 53/5/4 55/5/4 54/49/4
f 53/5/5 27/5/5 56/50/5
f 27/5/5 53/5/5 51/51/5
f 52/2/6 55/3/6 28/11/6
f 55/3/6 52/2/6 54/1/6

usemtl color13

f 48/3/1 50/2/1 47/1/1
f 50/3/1 48/2/1 49/1/1
f 57/3/2 48/2/2 47/1/2
f 48/3/2 57/2/2 58/1/2
f 59/5/3 50/42/3 49/5/3
f 50/42/3 59/5/3 60/52/3
f 59/5/4 57/5/4 60/53/4
f 57/5/4 59/5/4 58/54/4
f 57/5/5 50/45/5 60/55/5
f 50/45/5 57/5/5 47/5/5
f 48/2/6 59/3/6 49/11/6
f 59/3/6 48/2/6 58/1/6
f 63/3/1 62/2/1 61/1/1
f 62/3/1 63/2/1 64/1/1
f 65/3/2 63/2/2 61/1/2
f 63/3/2 65/2/2 66/1/2
f 67/5/3 62/5/3 64/56/3
f 62/5/3 67/5/3 68/57/3
f 67/5/4 65/5/4 68/58/4
f 65/5/4 67/5/4 66/59/4
f 65/5/5 62/5/5 68/60/5
f 62/5/5 65/5/5 61/61/5
f 63/2/6 67/3/6 64/11/6
f 67/3/6 63/2/6 66/1/6
f 67/3/1 51/2/1 68/1/1
f 51/3/1 67/2/1 52/1/1
f 69/3/2 67/2/2 68/1/2
f 67/3/2 69/2/2 70/1/2
f 54/5/3 51/5/3 52/62/3
f 51/5/3 54/5/3 53/63/3
f 54/49/4 69/5/4 53/5/4
f 69/5/4 54/49/4 70/64/4
f 69/5/5 51/51/5 53/5/5
f 51/51/5 69/5/5 68/60/5
f 67/2/6 54/3/6 52/11/6
f 54/3/6 67/2/6 70/1/6

usemtl color2

f 73/3/1 72/2/1 71/1/1
f 72/3/1 73/2/1 74/1/1
f 75/3/2 73/2/2 71/1/2
f 73/3/2 75/2/2 76/1/2
f 77/5/3 72/5/3 74/65/3
f 72/5/3 77/5/3 78/66/3
f 77/5/4 75/5/4 78/67/4
f 75/5/4 77/5/4 76/68/4
f 75/5/5 72/5/5 78/69/5
f 72/5/5 75/5/5 71/70/5
f 73/2/6 77/3/6 74/11/6
f 77/3/6 73/2/6 76/1/6
f 81/3/1 80/2/1 79/1/1
f 80/3/1 81/2/1 82/1/1
f 83/3/2 81/2/2 79/1/2
f 81/3/2 83/2/2 84/1/2
f 85/5/3 80/5/3 82/71/3
f 80/5/3 85/5/3 86/72/3
f 85/5/4 83/5/4 86/73/4
f 83/5/4 85/5/4 84/74/4
f 83/5/5 80/5/5 86/75/5
f 80/5/5 83/5/5 79/76/5
f 81/2/6 85/3/6 82/11/6
f 85/3/6 81/2/6 84/1/6
f 89/3/1 88/2/1 87/1/1
f 88/3/1 89/2/1 90/1/1
f 91/3/2 89/2/2 87/1/2
f 89/3/2 91/2/2 92/1/2
f 93/5/3 88/5/3 90/77/3
f 88/5/3 93/5/3 94/78/3
f 93/5/4 91/5/4 94/79/4
f 91/5/4 93/5/4 92/80/4
f 91/5/5 88/5/5 94/81/5
f 88/5/5 91/5/5 87/82/5
f 89/2/6 93/3/6 90/11/6
f 93/3/6 89/2/6 92/1/6
f 97/3/1 96/2/1 95/1/1
f 96/3/1 97/2/1 98/1/1
f 99/3/2 97/2/2 95/1/2
f 97/3/2 99/2/2 100/1/2
f 101/5/3 96/5/3 98/83/3
f 96/5/3 101/5/3 102/84/3
f 101/5/4 99/5/4 102/85/4
f 99/5/4 101/5/4 100/86/4
f 99/5/5 96/5/5 102/87/5
f 96/5/5 99/5/5 95/88/5
f 97/2/6 101/3/6 98/11/6
f 101/3/6 97/2/6 100/1/6
f 101/3/1 103/2/1 102/1/1
f 103/3/1 101/2/1 104/1/1
f 105/3/2 101/2/2 102/1/2
f 101/3/2 105/2/2 106/1/2
f 107/5/3 103/5/3 104/89/3
f 103/5/3 107/5/3 108/90/3
f 107/5/4 105/5/4 108/91/4
f 105/5/4 107/5/4 106/92/4
f 105/5/5 103/5/5 108/93/5
f 103/5/5 105/5/5 102/87/5
f 101/2/6 107/3/6 104/11/6
f 107/3/6 101/2/6 106/1/6
f 111/3/1 110/2/1 109/1/1
f 110/3/1 111/2/1 112/1/1
f 113/3/2 111/2/2 109/1/2
f 111/3/2 113/2/2 114/1/2
f 115/5/3 110/5/3 112/94/3
f 110/5/3 115/5/3 116/95/3
f 115/5/4 113/5/4 116/96/4
f 113/5/4 115/5/4 114/97/4
f 113/5/5 110/5/5 116/98/5
f 110/5/5 113/5/5 109/99/5
f 111/2/6 115/3/6 112/11/6
f 115/3/6 111/2/6 114/1/6

usemtl color7

f 119/3/1 118/2/1 117/1/1
f 118/3/1 119/2/1 120/1/1
f 121/3/2 119/2/2 117/1/2
f 119/3/2 121/2/2 122/1/2
f 123/5/3 118/5/3 120/100/3
f 118/5/3 123/5/3 124/101/3
f 123/5/4 121/5/4 124/102/4
f 121/5/4 123/5/4 122/103/4
f 121/5/5 118/5/5 124/104/5
f 118/5/5 121/5/5 117/105/5
f 119/2/6 123/3/6 120/11/6
f 123/3/6 119/2/6 122/1/6
f 127/3/1 126/2/1 125/1/1
f 126/3/1 127/2/1 128/1/1
f 129/3/2 127/2/2 125/1/2
f 127/3/2 129/2/2 130/1/2
f 131/5/3 126/5/3 128/106/3
f 126/5/3 131/5/3 132/107/3
f 131/5/4 129/5/4 132/108/4
f 129/5/4 131/5/4 130/109/4
f 129/5/5 126/5/5 132/110/5
f 126/5/5 129/5/5 125/111/5
f 127/2/6 131/3/6 128/11/6
f 131/3/6 127/2/6 130/1/6
f 135/3/1 134/2/1 133/1/1
f 134/3/1 135/2/1 136/1/1
f 137/3/2 135/2/2 133/1/2
f 135/3/2 137/2/2 138/1/2
f 139/5/3 134/5/3 136/112/3
f 134/5/3 139/5/3 140/113/3
f 139/5/4 137/5/4 140/114/4
f 137/5/4 139/5/4 138/115/4
f 137/5/5 134/5/5 140/116/5
f 134/5/5 137/5/5 133/117/5
f 135/2/6 139/3/6 136/11/6
f 139/3/6 135/2/6 138/1/6
f 143/3/1 142/2/1 141/1/1
f 142/3/1 143/2/1 144/1/1
f 145/3/2 143/2/2 141/1/2
f 143/3/2 145/2/2 146/1/2
f 147/5/3 142/5/3 144/118/3
f 142/5/3 147/5/3 148/119/3
f 147/5/4 145/5/4 148/120/4
f 145/5/4 147/5/4 146/121/4
f 145/5/5 142/5/5 148/122/5
f 142/5/5 145/5/5 141/123/5
f 143/2/6 147/3/6 144/11/6
f 147/3/6 143/2/6 146/1/6

usemtl color12

f 84/3/1 86/2/1 83/1/1
f 86/3/1 84/2/1 85/1/1
f 149/3/2 84/2/2 83/1/2
f 84/3/2 149/2/2 150/1/2
f 151/5/3 86/72/3 85/5/3
f 86/72/3 151/5/3 152/124/3
f 151/5/4 149/5/4 152/125/4
f 149/5/4 151/5/4 150/126/4
f 149/5/5 86/75/5 152/127/5
f 86/75/5 149/5/5 83/5/5
f 84/2/6 151/3/6 85/11/6
f 151/3/6 84/2/6 150/1/6
f 151/3/1 153/2/1 152/1/1
f 153/3/1 151/2/1 154/1/1
f 155/3/2 151/2/2 152/1/2
f 151/3/2 155/2/2 156/1/2
f 157/5/3 153/5/3 154/128/3
f 153/5/3 157/5/3 158/129/3
f 157/5/4 155/5/4 158/130/4
f 155/5/4 157/5/4 156/131/4
f 155/5/5 153/5/5 158/132/5
f 153/5/5 155/5/5 152/127/5
f 151/2/6 157/3/6 154/11/6
f 157/3/6 151/2/6 156/1/6

usemtl color14

f 150/3/1 152/2/1 149/1/1
f 152/3/1 150/2/1 151/1/1
f 159/3/2 150/2/2 149/1/2
f 150/3/2 159/2/2 160/1/2
f 156/5/3 152/124/3 151/5/3
f 152/124/3 156/5/3 155/133/3
f 156/131/4 159/5/4 155/5/4
f 159/5/4 156/131/4 160/134/4
f 159/5/5 152/127/5 155/5/5
f 152/127/5 159/5/5 149/5/5
f 150/2/6 156/3/6 151/11/6
f 156/3/6 150/2/6 160/1/6

usemtl color15

f 160/3/1 155/2/1 159/1/1
f 155/3/1 160/2/1 156/1/1
f 161/3/2 160/2/2 159/1/2
f 160/3/2 161/2/2 162/1/2
f 163/5/3 155/133/3 156/5/3
f 155/133/3 163/5/3 164/135/3
f 163/5/4 161/5/4 164/136/4
f 161/5/4 163/5/4 162/137/4
f 161/5/5 155/5/5 164/138/5
f 155/5/5 161/5/5 159/5/5
f 160/2/6 163/3/6 156/11/6
f 163/3/6 160/2/6 162/1/6
f 166/3/1 87/2/1 165/1/1
f 87/3/1 166/2/1 89/1/1
f 167/3/2 166/2/2 165/1/2
f 166/3/2 167/2/2 168/1/2
f 92/5/3 87/5/3 89/139/3
f 87/5/3 92/5/3 91/140/3
f 92/80/4 167/5/4 91/5/4
f 167/5/4 92/80/4 168/141/4
f 167/5/5 87/82/5 91/5/5
f 87/82/5 167/5/5 165/142/5
f 166/2/6 92/3/6 89/11/6
f 92/3/6 166/2/6 168/1/6

usemtl color4

f 20/3/1 95/2/1 18/1/1
f 95/3/1 20/2/1 97/1/1
f 22/3/2 20/2/2 18/1/2
f 20/3/2 22/2/2 21/1/2
f 100/5/3 95/5/3 97/143/3
f 95/5/3 100/5/3 99/144/3
f 100/86/4 22/20/4 99/5/4
f 22/20/4 100/86/4 21/5/4
f 22/22/5 95/88/5 99/5/5
f 95/88/5 22/22/5 18/5/5
f 20/2/6 100/3/6 97/11/6
f 100/3/6 20/2/6 21/1/6
f 114/3/1 116/2/1 113/1/1
f 116/3/1 114/2/1 115/1/1
f 169/3/2 114/2/2 113/1/2
f 114/3/2 169/2/2 170/1/2
f 171/5/3 116/95/3 115/5/3
f 116/95/3 171/5/3 172/145/3
f 171/5/4 169/5/4 172/146/4
f 169/5/4 171/5/4 170/147/4
f 169/5/5 116/98/5 172/148/5
f 116/98/5 169/5/5 113/5/5
f 114/2/6 171/3/6 115/11/6
f 171/3/6 114/2/6 170/1/6

usemtl color9

f 74/3/1 173/2/1 72/1/1
f 173/3/1 74/2/1 174/1/1
f 78/3/2 74/2/2 72/1/2
f 74/3/2 78/2/2 77/1/2
f 175/5/3 173/5/3 174/149/3
f 173/5/3 175/5/3 176/150/3
f 175/5/4 78/67/4 176/151/4
f 78/67/4 175/5/4 77/5/4
f 78/69/5 173/5/5 176/152/5
f 173/5/5 78/69/5 72/5/5
f 74/2/6 175/3/6 174/11/6
f 175/3/6 74/2/6 77/1/6
f 82/3/1 177/2/1 80/1/1
f 177/3/1 82/2/1 178/1/1
f 86/3/2 82/2/2 80/1/2
f 82/3/2 86/2/2 85/1/2
f 179/5/3 177/5/3 178/153/3
f 177/5/3 179/5/3 180/154/3
f 179/5/4 86/73/4 180/155/4
f 86/73/4 179/5/4 85/5/4
f 86/75/5 177/5/5 180/156/5
f 177/5/5 86/75/5 80/5/5
f 82/2/6 179/3/6 178/11/6
f 179/3/6 82/2/6 85/1/6
f 156/3/1 158/2/1 155/1/1
f 158/3/1 156/2/1 157/1/1
f 164/3/2 156/2/2 155/1/2
f 156/3/2 164/2/2 163/1/2
f 181/5/3 158/129/3 157/5/3
f 158/129/3 181/5/3 182/157/3
f 181/5/4 164/136/4 182/158/4
f 164/136/4 181/5/4 163/5/4
f 164/138/5 158/132/5 182/159/5
f 158/132/5 164/138/5 155/5/5
f 156/2/6 181/3/6 157/11/6
f 181/3/6 156/2/6 163/1/6

usemtl color10

f 120/3/1 133/2/1 118/1/1
f 133/3/1 120/2/1 135/1/1
f 124/3/2 120/2/2 118/1/2
f 120/3/2 124/2/2 123/1/2
f 138/5/3 133/5/3 135/160/3
f 133/5/3 138/5/3 137/161/3
f 138/115/4 124/102/4 137/5/4
f 124/102/4 138/115/4 123/5/4
f 124/104/5 133/117/5 137/5/5
f 133/117/5 124/104/5 118/5/5
f 120/2/6 138/3/6 135/11/6
f 138/3/6 120/2/6 123/1/6
f 128/3/1 141/2/1 126/1/1
f 141/3/1 128/2/1 143/1/1
f 132/3/2 128/2/2 126/1/2
f 128/3/2 132/2/2 131/1/2
f 146/5/3 141/5/3 143/162/3
f 141/5/3 146/5/3 145/163/3
f 146/121/4 132/108/4 145/5/4
f 132/108/4 146/121/4 131/5/4
f 132/110/5 141/123/5 145/5/5
f 141/123/5 132/110/5 126/5/5
f 128/2/6 146/3/6 143/11/6
f 146/3/6 128/2/6 131/1/6

usemtl color11

f 85/3/1 180/2/1 86/1/1
f 180/3/1 85/2/1 179/1/1
f 152/3/2 85/2/2 86/1/2
f 85/3/2 152/2/2 151/1/2
f 154/128/3 180/154/3 179/5/3
f 180/154/3 154/128/3 153/5/3
f 154/5/4 152/125/4 153/164/4
f 152/125/4 154/5/4 151/5/4
f 152/127/5 180/156/5 153/5/5
f 180/156/5 152/127/5 86/75/5
f 85/2/6 154/3/6 179/11/6
f 154/3/6 85/2/6 151/1/6

usemtl color6

f 174/3/1 183/2/1 173/1/1
f 183/3/1 174/2/1 184/1/1
f 176/3/2 174/2/2 173/1/2
f 174/3/2 176/2/2 175/1/2
f 185/5/3 183/5/3 184/165/3
f 183/5/3 185/5/3 186/166/3
f 185/5/4 176/151/4 186/167/4
f 176/151/4 185/5/4 175/5/4
f 176/152/5 183/5/5 186/168/5
f 183/5/5 176/152/5 173/5/5
f 174/2/6 185/3/6 184/11/6
f 185/3/6 174/2/6 175/1/6
f 178/3/1 187/2/1 177/1/1
f 187/3/1 178/2/1 188/1/1
f 182/3/2 178/2/2 177/1/2
f 178/3/2 182/2/2 181/1/2
f 189/5/3 187/5/3 188/169/3
f 187/5/3 189/5/3 190/170/3
f 189/5/4 182/158/4 190/171/4
f 182/158/4 189/5/4 181/5/4
f 182/159/5 187/5/5 190/172/5
f 187/5/5 182/159/5 177/5/5
f 178/2/6 189/3/6 188/11/6
f 189/3/6 178/2/6 181/1/6

usemtl color3

f 193/3/1 192/2/1 191/1/1
f 192/3/1 193/2/1 194/1/1
f 195/3/2 193/2/2 191/1/2
f 193/3/2 195/2/2 196/1/2
f 197/5/3 192/5/3 194/173/3
f 192/5/3 197/5/3 198/174/3
f 197/5/4 195/5/4 198/175/4
f 195/5/4 197/5/4 196/176/4
f 195/5/5 192/5/5 198/177/5
f 192/5/5 195/5/5 191/178/5
f 193/2/6 197/3/6 194/11/6
f 197/3/6 193/2/6 196/1/6
f 201/3/1 200/2/1 199/1/1
f 200/3/1 201/2/1 202/1/1
f 203/3/2 201/2/2 199/1/2
f 201/3/2 203/2/2 204/1/2
f 205/5/3 200/5/3 202/179/3
f 200/5/3 205/5/3 206/180/3
f 205/5/4 203/5/4 206/181/4
f 203/5/4 205/5/4 204/182/4
f 203/5/5 200/5/5 206/183/5
f 200/5/5 203/5/5 199/184/5
f 201/2/6 205/3/6 202/11/6
f 205/3/6 201/2/6 204/1/6

