# Created by Kenney (www.kenney.nl)

mtllib Grenade YZ3 Glomtom.mtl

v 2 6 -0.6
v 2 5 -0.6
v 2 6 0.6
v 2 5 0.6
v 1 6 -0.6
v 1 6 0.6
v 1 5 0.6
v 1 5 -0.6
v 3 5 -0.6
v 3 4 -0.6
v 3 5 0.6
v 3 4 0.6
v 2 4 0.6
v 2 4 -0.6
v 2 5 -1.2
v 2 4 -1.2
v 2 5 1.2
v 2 4 1.2
v 1 5 -1.2
v 1 5 1.2
v 1 4 1.2
v 1 4 -1.2
v 0 5 -1.2
v 0 4 -1.2
v 0 5 1.2
v 0 4 1.2
v -1 5 -1.2
v -1 5 1.2
v -1 4 1.2
v -1 4 -1.2
v 2 -4 -1.8
v 2 -5 -1.8
v 2 -4 1.8
v 2 -5 1.8
v 1 -4 -1.8
v 1 -4 1.8
v 1 -5 1.8
v 1 -5 -1.8
v 0 -4 -1.8
v 0 -5 -1.8
v 0 -4 1.8
v 0 -5 1.8
v -1 -4 -1.8
v -1 -4 1.8
v -1 -5 1.8
v -1 -5 -1.8
v 1 5 -1.8
v 1 4 -1.8
v 1 5 1.8
v 1 4 1.8
v 0 5 -1.8
v 0 5 1.8
v 0 4 1.8
v 0 4 -1.8
v 3 4 -1.2
v 3 3 -1.2
v 3 4 1.2
v 3 3 1.2
v 2 3 1.2
v 2 3 -1.2
v 3 0 -1.2
v 3 -2 -1.2
v 3 0 1.2
v 3 -2 1.2
v 2 0 -1.2
v 2 0 1.2
v 2 -2 1.2
v 2 -2 -1.2
v 2 4 -2.4
v 2 3 -2.4
v 2 4 2.4
v 2 3 2.4
v 0 4 -2.4
v 0 4 2.4
v 0 3 2.4
v 0 3 -2.4
v 2 0 -2.4
v 2 -2 -2.4
v 2 0 2.4
v 2 -2 2.4
v 0 0 -2.4
v 0 0 2.4
v 0 -2 2.4
v 0 -2 -2.4
v 2 -3 -2.4
v 2 -4 -2.4
v 2 -3 2.4
v 2 -4 2.4
v 0 -3 -2.4
v 0 -3 2.4
v 0 -4 2.4
v 0 -4 -2.4
v -1 4 -2.4
v -1 4 2.4
v -1 3 2.4
v -1 3 -2.4
v -1 0 -2.4
v -1 0 2.4
v -1 -2 2.4
v -1 -2 -2.4
v -1 -3 -2.4
v -1 -3 2.4
v -1 -4 2.4
v -1 -4 -2.4
v -1 3 -1.2
v -1 3 1.2
v -2 4 -1.2
v -2 4 1.2
v -2 3 1.2
v -2 3 -1.2
v -1 0 -1.2
v -1 -2 -1.2
v -1 0 1.2
v -1 -2 1.2
v -2 0 -1.2
v -2 0 1.2
v -2 -2 1.2
v -2 -2 -1.2
v -1 -3 -1.2
v -1 -4 -1.2
v -1 -3 1.2
v -1 -4 1.2
v -2 -3 -1.2
v -2 -3 1.2
v -2 -4 1.2
v -2 -4 -1.2
v 3 -2 -0.6
v 3 -3 -0.6
v 3 -2 0.6
v 3 -3 0.6
v 2 -2 -0.6
v 2 -2 0.6
v 2 -3 0.6
v 2 -3 -0.6
v 2 -2 -1.8
v 2 -3 -1.8
v 2 -2 1.8
v 2 -3 1.8
v 1 -2 -1.8
v 1 -2 1.8
v 1 -3 1.8
v 1 -3 -1.8
v 0 -2 -1.8
v 0 -3 -1.8
v 0 -2 1.8
v 0 -3 1.8
v -1 -2 -1.8
v -1 -2 1.8
v -1 -3 1.8
v -1 -3 -1.8
v 1 -2 -2.4
v 1 -3 -2.4
v 1 -2 2.4
v 1 -3 2.4
v -1 -2 -0.6
v -1 -3 -0.6
v -1 -2 0.6
v -1 -3 0.6
v -2 -2 -0.6
v -2 -2 0.6
v -2 -3 0.6
v -2 -3 -0.6
v 3 -3 -1.2
v 3 -4 -1.2
v 3 -3 1.2
v 3 -4 1.2
v 2 -3 -1.2
v 2 -3 1.2
v 2 -4 1.2
v 2 -4 -1.2

vn 1 0 0
vn 0 1 0
vn 0 -1 0
vn -1 0 0
vn 0 0 -1
vn 0 0 1

vt -19.68504 19.68504
vt 19.68504 19.68504
vt -19.68504 -19.68504
vt 0 NaN
vt 0 0
vt 0 NaN
vt 0 NaN
vt 0 NaN
vt 0 NaN
vt 0 NaN
vt 19.68504 -19.68504
vt 0 NaN
vt 0 NaN
vt 0 NaN
vt 0 NaN
vt 0 NaN
vt 0 NaN
vt 0 NaN
vt 0 NaN
vt 0 NaN
vt 0 NaN
vt 0 NaN
vt 0 NaN
vt 0 NaN
vt 0 NaN
vt 0 NaN
vt 0 NaN
vt 0 NaN
vt 0 NaN
vt 0 NaN
vt 0 NaN
vt 0 NaN
vt 0 NaN
vt 0 NaN
vt 0 NaN
vt 0 NaN
vt 0 NaN
vt 0 NaN
vt 0 NaN
vt 0 NaN
vt 0 NaN
vt 0 NaN
vt 0 NaN
vt 0 NaN
vt 0 NaN
vt 0 NaN
vt 0 NaN
vt 0 NaN
vt 0 NaN
vt 0 NaN
vt 0 NaN
vt 0 NaN
vt 0 NaN
vt 0 NaN
vt 0 NaN
vt 0 NaN
vt 0 NaN
vt 0 NaN
vt 0 NaN
vt 0 NaN
vt 0 NaN
vt 0 NaN
vt 0 NaN
vt 0 NaN
vt 0 NaN
vt 0 NaN
vt 0 NaN
vt 0 NaN
vt 0 NaN
vt 0 NaN
vt 0 NaN
vt 0 NaN
vt 0 NaN
vt 0 NaN
vt 0 NaN
vt 0 NaN
vt 0 NaN
vt 0 NaN
vt 0 NaN
vt 0 NaN
vt 0 NaN
vt 0 NaN
vt 0 NaN
vt 0 NaN
vt 0 NaN
vt 0 NaN
vt 0 NaN
vt 0 NaN
vt 0 NaN
vt 0 NaN
vt 0 NaN
vt 0 NaN
vt 0 NaN
vt 0 NaN
vt 0 NaN
vt 0 NaN
vt 0 NaN
vt 0 NaN
vt 0 NaN
vt 0 NaN
vt 0 NaN
vt 0 NaN
vt 0 NaN
vt 0 NaN
vt 0 NaN
vt 0 NaN
vt 0 NaN
vt 0 NaN
vt 0 NaN
vt 0 NaN
vt 0 NaN
vt 0 NaN
vt 0 NaN
vt 0 NaN
vt 0 NaN
vt 0 NaN
vt 0 NaN
vt 0 NaN
vt 0 NaN
vt 0 NaN
vt 0 NaN
vt 0 NaN
vt 0 NaN
vt 0 NaN
vt 0 NaN
vt 0 NaN
vt 0 NaN
vt 0 NaN
vt 0 NaN
vt 0 NaN
vt 0 NaN
vt 0 NaN
vt 0 NaN
vt 0 NaN
vt 0 NaN
vt 0 NaN
vt 0 NaN
vt 0 NaN
vt 0 NaN
vt 0 NaN
vt 0 NaN
vt 0 NaN
vt 0 NaN
vt 0 NaN
vt 0 NaN
vt 0 NaN
vt 0 NaN
vt 0 NaN

usemtl color16

f 3/3/1 2/2/1 1/1/1
f 2/3/1 3/2/1 4/1/1
f 5/3/2 3/2/2 1/1/2
f 3/3/2 5/2/2 6/1/2
f 7/5/3 2/5/3 4/4/3
f 2/5/3 7/5/3 8/6/3
f 7/5/4 5/5/4 8/7/4
f 5/5/4 7/5/4 6/8/4
f 5/5/5 2/5/5 8/9/5
f 2/5/5 5/5/5 1/10/5
f 3/2/6 7/3/6 4/11/6
f 7/3/6 3/2/6 6/1/6
f 3/3/1 2/2/1 1/1/1
f 2/3/1 3/2/1 4/1/1
f 5/3/2 3/2/2 1/1/2
f 3/3/2 5/2/2 6/1/2
f 7/5/3 2/5/3 4/4/3
f 2/5/3 7/5/3 8/6/3
f 7/5/4 5/5/4 8/7/4
f 5/5/4 7/5/4 6/8/4
f 5/5/5 2/5/5 8/9/5
f 2/5/5 5/5/5 1/10/5
f 3/2/6 7/3/6 4/11/6
f 7/3/6 3/2/6 6/1/6
f 11/3/1 10/2/1 9/1/1
f 10/3/1 11/2/1 12/1/1
f 2/3/2 11/2/2 9/1/2
f 11/3/2 2/2/2 4/1/2
f 13/5/3 10/5/3 12/12/3
f 10/5/3 13/5/3 14/13/3
f 13/5/4 2/5/4 14/14/4
f 2/5/4 13/5/4 4/15/4
f 2/5/5 10/5/5 14/16/5
f 10/5/5 2/5/5 9/17/5
f 11/2/6 13/3/6 12/11/6
f 13/3/6 11/2/6 4/1/6

usemtl color2

f 17/3/1 16/2/1 15/1/1
f 16/3/1 17/2/1 18/1/1
f 19/3/2 17/2/2 15/1/2
f 17/3/2 19/2/2 20/1/2
f 21/5/3 16/5/3 18/18/3
f 16/5/3 21/5/3 22/19/3
f 21/5/4 19/5/4 22/20/4
f 19/5/4 21/5/4 20/21/4
f 19/5/5 16/5/5 22/22/5
f 16/5/5 19/5/5 15/23/5
f 17/2/6 21/3/6 18/11/6
f 21/3/6 17/2/6 20/1/6
f 25/3/1 24/2/1 23/1/1
f 24/3/1 25/2/1 26/1/1
f 27/3/2 25/2/2 23/1/2
f 25/3/2 27/2/2 28/1/2
f 29/5/3 24/5/3 26/24/3
f 24/5/3 29/5/3 30/25/3
f 29/5/4 27/5/4 30/26/4
f 27/5/4 29/5/4 28/27/4
f 27/5/5 24/5/5 30/28/5
f 24/5/5 27/5/5 23/29/5
f 25/2/6 29/3/6 26/11/6
f 29/3/6 25/2/6 28/1/6
f 33/3/1 32/2/1 31/1/1
f 32/3/1 33/2/1 34/1/1
f 35/3/2 33/2/2 31/1/2
f 33/3/2 35/2/2 36/1/2
f 37/5/3 32/5/3 34/30/3
f 32/5/3 37/5/3 38/31/3
f 37/5/4 35/5/4 38/32/4
f 35/5/4 37/5/4 36/33/4
f 35/5/5 32/5/5 38/34/5
f 32/5/5 35/5/5 31/35/5
f 33/2/6 37/3/6 34/11/6
f 37/3/6 33/2/6 36/1/6
f 41/3/1 40/2/1 39/1/1
f 40/3/1 41/2/1 42/1/1
f 43/3/2 41/2/2 39/1/2
f 41/3/2 43/2/2 44/1/2
f 45/5/3 40/5/3 42/36/3
f 40/5/3 45/5/3 46/37/3
f 45/5/4 43/5/4 46/38/4
f 43/5/4 45/5/4 44/39/4
f 43/5/5 40/5/5 46/40/5
f 40/5/5 43/5/5 39/41/5
f 41/2/6 45/3/6 42/11/6
f 45/3/6 41/2/6 44/1/6

usemtl color3

f 49/3/1 48/2/1 47/1/1
f 48/3/1 49/2/1 50/1/1
f 51/3/2 49/2/2 47/1/2
f 49/3/2 51/2/2 52/1/2
f 53/5/3 48/5/3 50/42/3
f 48/5/3 53/5/3 54/43/3
f 53/5/4 51/5/4 54/44/4
f 51/5/4 53/5/4 52/45/4
f 51/5/5 48/5/5 54/46/5
f 48/5/5 51/5/5 47/47/5
f 49/2/6 53/3/6 50/11/6
f 53/3/6 49/2/6 52/1/6
f 36/3/1 38/2/1 35/1/1
f 38/3/1 36/2/1 37/1/1
f 39/3/2 36/2/2 35/1/2
f 36/3/2 39/2/2 41/1/2
f 42/36/3 38/31/3 37/5/3
f 38/31/3 42/36/3 40/5/3
f 42/5/4 39/5/4 40/48/4
f 39/5/4 42/5/4 41/49/4
f 39/41/5 38/34/5 40/5/5
f 38/34/5 39/41/5 35/5/5
f 36/2/6 42/3/6 37/11/6
f 42/3/6 36/2/6 41/1/6

usemtl color12

f 57/3/1 56/2/1 55/1/1
f 56/3/1 57/2/1 58/1/1
f 16/3/2 57/2/2 55/1/2
f 57/3/2 16/2/2 18/1/2
f 59/5/3 56/5/3 58/50/3
f 56/5/3 59/5/3 60/51/3
f 59/5/4 16/5/4 60/52/4
f 16/5/4 59/5/4 18/53/4
f 16/5/5 56/5/5 60/54/5
f 56/5/5 16/5/5 55/55/5
f 57/2/6 59/3/6 58/11/6
f 59/3/6 57/2/6 18/1/6
f 63/3/1 62/2/1 61/1/1
f 62/3/1 63/2/1 64/1/1
f 65/3/2 63/2/2 61/1/2
f 63/3/2 65/2/2 66/1/2
f 67/5/3 62/5/3 64/56/3
f 62/5/3 67/5/3 68/57/3
f 67/5/4 65/5/4 68/58/4
f 65/5/4 67/5/4 66/59/4
f 65/5/5 62/5/5 68/60/5
f 62/5/5 65/5/5 61/61/5
f 63/2/6 67/3/6 64/11/6
f 67/3/6 63/2/6 66/1/6

usemtl color5

f 71/3/1 70/2/1 69/1/1
f 70/3/1 71/2/1 72/1/1
f 73/3/2 71/2/2 69/1/2
f 71/3/2 73/2/2 74/1/2
f 75/5/3 70/5/3 72/62/3
f 70/5/3 75/5/3 76/63/3
f 75/5/4 73/5/4 76/64/4
f 73/5/4 75/5/4 74/65/4
f 73/5/5 70/5/5 76/66/5
f 70/5/5 73/5/5 69/67/5
f 71/2/6 75/3/6 72/11/6
f 75/3/6 71/2/6 74/1/6
f 79/3/1 78/2/1 77/1/1
f 78/3/1 79/2/1 80/1/1
f 81/3/2 79/2/2 77/1/2
f 79/3/2 81/2/2 82/1/2
f 83/5/3 78/5/3 80/68/3
f 78/5/3 83/5/3 84/69/3
f 83/5/4 81/5/4 84/70/4
f 81/5/4 83/5/4 82/71/4
f 81/5/5 78/5/5 84/72/5
f 78/5/5 81/5/5 77/73/5
f 79/2/6 83/3/6 80/11/6
f 83/3/6 79/2/6 82/1/6
f 87/3/1 86/2/1 85/1/1
f 86/3/1 87/2/1 88/1/1
f 89/3/2 87/2/2 85/1/2
f 87/3/2 89/2/2 90/1/2
f 91/5/3 86/5/3 88/74/3
f 86/5/3 91/5/3 92/75/3
f 91/5/4 89/5/4 92/76/4
f 89/5/4 91/5/4 90/77/4
f 89/5/5 86/5/5 92/78/5
f 86/5/5 89/5/5 85/79/5
f 87/2/6 91/3/6 88/11/6
f 91/3/6 87/2/6 90/1/6

usemtl color6

f 74/3/1 76/2/1 73/1/1
f 76/3/1 74/2/1 75/1/1
f 93/3/2 74/2/2 73/1/2
f 74/3/2 93/2/2 94/1/2
f 95/5/3 76/63/3 75/5/3
f 76/63/3 95/5/3 96/80/3
f 95/5/4 93/5/4 96/81/4
f 93/5/4 95/5/4 94/82/4
f 93/5/5 76/66/5 96/83/5
f 76/66/5 93/5/5 73/5/5
f 74/2/6 95/3/6 75/11/6
f 95/3/6 74/2/6 94/1/6
f 82/3/1 84/2/1 81/1/1
f 84/3/1 82/2/1 83/1/1
f 97/3/2 82/2/2 81/1/2
f 82/3/2 97/2/2 98/1/2
f 99/5/3 84/69/3 83/5/3
f 84/69/3 99/5/3 100/84/3
f 99/5/4 97/5/4 100/85/4
f 97/5/4 99/5/4 98/86/4
f 97/5/5 84/72/5 100/87/5
f 84/72/5 97/5/5 81/5/5
f 82/2/6 99/3/6 83/11/6
f 99/3/6 82/2/6 98/1/6
f 90/3/1 92/2/1 89/1/1
f 92/3/1 90/2/1 91/1/1
f 101/3/2 90/2/2 89/1/2
f 90/3/2 101/2/2 102/1/2
f 103/5/3 92/75/3 91/5/3
f 92/75/3 103/5/3 104/88/3
f 103/5/4 101/5/4 104/89/4
f 101/5/4 103/5/4 102/90/4
f 101/5/5 92/78/5 104/91/5
f 92/78/5 101/5/5 89/5/5
f 90/2/6 103/3/6 91/11/6
f 103/3/6 90/2/6 102/1/6

usemtl color7

f 29/3/1 105/2/1 30/1/1
f 105/3/1 29/2/1 106/1/1
f 107/3/2 29/2/2 30/1/2
f 29/3/2 107/2/2 108/1/2
f 109/5/3 105/5/3 106/92/3
f 105/5/3 109/5/3 110/93/3
f 109/5/4 107/5/4 110/94/4
f 107/5/4 109/5/4 108/95/4
f 107/5/5 105/5/5 110/96/5
f 105/5/5 107/5/5 30/28/5
f 29/2/6 109/3/6 106/11/6
f 109/3/6 29/2/6 108/1/6
f 113/3/1 112/2/1 111/1/1
f 112/3/1 113/2/1 114/1/1
f 115/3/2 113/2/2 111/1/2
f 113/3/2 115/2/2 116/1/2
f 117/5/3 112/5/3 114/97/3
f 112/5/3 117/5/3 118/98/3
f 117/5/4 115/5/4 118/99/4
f 115/5/4 117/5/4 116/100/4
f 115/5/5 112/5/5 118/101/5
f 112/5/5 115/5/5 111/102/5
f 113/2/6 117/3/6 114/11/6
f 117/3/6 113/2/6 116/1/6
f 121/3/1 120/2/1 119/1/1
f 120/3/1 121/2/1 122/1/1
f 123/3/2 121/2/2 119/1/2
f 121/3/2 123/2/2 124/1/2
f 125/5/3 120/5/3 122/103/3
f 120/5/3 125/5/3 126/104/3
f 125/5/4 123/5/4 126/105/4
f 123/5/4 125/5/4 124/106/4
f 123/5/5 120/5/5 126/107/5
f 120/5/5 123/5/5 119/108/5
f 121/2/6 125/3/6 122/11/6
f 125/3/6 121/2/6 124/1/6

usemtl color13

f 58/3/1 61/2/1 56/1/1
f 61/3/1 58/2/1 63/1/1
f 60/3/2 58/2/2 56/1/2
f 58/3/2 60/2/2 59/1/2
f 66/5/3 61/5/3 63/109/3
f 61/5/3 66/5/3 65/110/3
f 66/59/4 60/52/4 65/5/4
f 60/52/4 66/59/4 59/5/4
f 60/54/5 61/61/5 65/5/5
f 61/61/5 60/54/5 56/5/5
f 58/2/6 66/3/6 63/11/6
f 66/3/6 58/2/6 59/1/6

usemtl color14

f 72/3/1 77/2/1 70/1/1
f 77/3/1 72/2/1 79/1/1
f 76/3/2 72/2/2 70/1/2
f 72/3/2 76/2/2 75/1/2
f 82/5/3 77/5/3 79/111/3
f 77/5/3 82/5/3 81/112/3
f 82/71/4 76/64/4 81/5/4
f 76/64/4 82/71/4 75/5/4
f 76/66/5 77/73/5 81/5/5
f 77/73/5 76/66/5 70/5/5
f 72/2/6 82/3/6 79/11/6
f 82/3/6 72/2/6 75/1/6
f 106/3/1 111/2/1 105/1/1
f 111/3/1 106/2/1 113/1/1
f 110/3/2 106/2/2 105/1/2
f 106/3/2 110/2/2 109/1/2
f 116/5/3 111/5/3 113/113/3
f 111/5/3 116/5/3 115/114/3
f 116/100/4 110/94/4 115/5/4
f 110/94/4 116/100/4 109/5/4
f 110/96/5 111/102/5 115/5/5
f 111/102/5 110/96/5 105/5/5
f 106/2/6 116/3/6 113/11/6
f 116/3/6 106/2/6 109/1/6

usemtl color15

f 75/3/1 81/2/1 76/1/1
f 81/3/1 75/2/1 82/1/1
f 96/3/2 75/2/2 76/1/2
f 75/3/2 96/2/2 95/1/2
f 98/5/3 81/112/3 82/5/3
f 81/112/3 98/5/3 97/115/3
f 98/86/4 96/81/4 97/5/4
f 96/81/4 98/86/4 95/5/4
f 96/83/5 81/5/5 97/5/5
f 81/5/5 96/83/5 76/66/5
f 75/2/6 98/3/6 82/11/6
f 98/3/6 75/2/6 95/1/6

usemtl color8

f 129/3/1 128/2/1 127/1/1
f 128/3/1 129/2/1 130/1/1
f 131/3/2 129/2/2 127/1/2
f 129/3/2 131/2/2 132/1/2
f 133/5/3 128/5/3 130/116/3
f 128/5/3 133/5/3 134/117/3
f 133/5/4 131/5/4 134/118/4
f 131/5/4 133/5/4 132/119/4
f 131/5/5 128/5/5 134/120/5
f 128/5/5 131/5/5 127/121/5
f 129/2/6 133/3/6 130/11/6
f 133/3/6 129/2/6 132/1/6

usemtl color9

f 137/3/1 136/2/1 135/1/1
f 136/3/1 137/2/1 138/1/1
f 139/3/2 137/2/2 135/1/2
f 137/3/2 139/2/2 140/1/2
f 141/5/3 136/5/3 138/122/3
f 136/5/3 141/5/3 142/123/3
f 141/5/4 139/5/4 142/124/4
f 139/5/4 141/5/4 140/125/4
f 139/5/5 136/5/5 142/126/5
f 136/5/5 139/5/5 135/127/5
f 137/2/6 141/3/6 138/11/6
f 141/3/6 137/2/6 140/1/6
f 145/3/1 144/2/1 143/1/1
f 144/3/1 145/2/1 146/1/1
f 147/3/2 145/2/2 143/1/2
f 145/3/2 147/2/2 148/1/2
f 149/5/3 144/5/3 146/128/3
f 144/5/3 149/5/3 150/129/3
f 149/5/4 147/5/4 150/130/4
f 147/5/4 149/5/4 148/131/4
f 147/5/5 144/5/5 150/132/5
f 144/5/5 147/5/5 143/133/5
f 145/2/6 149/3/6 146/11/6
f 149/3/6 145/2/6 148/1/6

usemtl color10

f 153/3/1 152/2/1 151/1/1
f 152/3/1 153/2/1 154/1/1
f 84/3/2 153/2/2 151/1/2
f 153/3/2 84/2/2 83/1/2
f 90/5/3 152/5/3 154/134/3
f 152/5/3 90/5/3 89/135/3
f 90/77/4 84/70/4 89/5/4
f 84/70/4 90/77/4 83/5/4
f 84/72/5 152/5/5 89/5/5
f 152/5/5 84/72/5 151/136/5
f 153/2/6 90/3/6 154/11/6
f 90/3/6 153/2/6 83/1/6

usemtl color11

f 157/3/1 156/2/1 155/1/1
f 156/3/1 157/2/1 158/1/1
f 159/3/2 157/2/2 155/1/2
f 157/3/2 159/2/2 160/1/2
f 161/5/3 156/5/3 158/137/3
f 156/5/3 161/5/3 162/138/3
f 161/5/4 159/5/4 162/139/4
f 159/5/4 161/5/4 160/140/4
f 159/5/5 156/5/5 162/141/5
f 156/5/5 159/5/5 155/142/5
f 157/2/6 161/3/6 158/11/6
f 161/3/6 157/2/6 160/1/6

usemtl color4

f 165/3/1 164/2/1 163/1/1
f 164/3/1 165/2/1 166/1/1
f 167/3/2 165/2/2 163/1/2
f 165/3/2 167/2/2 168/1/2
f 169/5/3 164/5/3 166/143/3
f 164/5/3 169/5/3 170/144/3
f 169/5/4 167/5/4 170/145/4
f 167/5/4 169/5/4 168/146/4
f 167/5/5 164/5/5 170/147/5
f 164/5/5 167/5/5 163/148/5
f 165/2/6 169/3/6 166/11/6
f 169/3/6 165/2/6 168/1/6

