# Created by Kenney (www.kenney.nl)

mtllib Grenade AUA Pounit.mtl

v 2 6 -0.5
v 2 5 -0.5
v 2 6 0.5
v 2 5 0.5
v 1 6 -0.5
v 1 6 0.5
v 1 5 0.5
v 1 5 -0.5
v 1 5 -2.5
v 1 4 -2.5
v 1 5 2.5
v 1 4 2.5
v 0 5 -2.5
v 0 5 2.5
v 0 4 2.5
v 0 4 -2.5
v -2 5 -2.5
v -2 4 -2.5
v -2 5 2.5
v -2 4 2.5
v -3 5 -2.5
v -3 5 2.5
v -3 4 2.5
v -3 4 -2.5
v 2 4 -1.5
v 2 3 -1.5
v 2 4 1.5
v 2 3 1.5
v 1 4 -1.5
v 1 4 1.5
v 1 3 1.5
v 1 3 -1.5
v 0 3 -2.5
v 0 3 2.5
v -2 3 2.5
v -2 3 -2.5
v -3 4 -1.5
v -3 3 -1.5
v -3 4 1.5
v -3 3 1.5
v -4 4 -1.5
v -4 4 1.5
v -4 3 1.5
v -4 3 -1.5
v 3 3 -1.5
v 3 2 -1.5
v 3 3 1.5
v 3 2 1.5
v 2 2 1.5
v 2 2 -1.5
v -4 2 -1.5
v -4 2 1.5
v -5 3 -1.5
v -5 3 1.5
v -5 2 1.5
v -5 2 -1.5
v 5 -1 -0.5
v 5 -2 -0.5
v 5 -1 0.5
v 5 -2 0.5
v 4 -1 -0.5
v 4 -1 0.5
v 4 -2 0.5
v 4 -2 -0.5
v 4 -3 -0.5
v 4 -3 0.5
v 3 -2 -0.5
v 3 -2 0.5
v 3 -3 0.5
v 3 -3 -0.5
v 3 -4 -1.5
v 3 -5 -1.5
v 3 -4 1.5
v 3 -5 1.5
v 2 -4 -1.5
v 2 -4 1.5
v 2 -5 1.5
v 2 -5 -1.5
v -4 -4 -1.5
v -4 -5 -1.5
v -4 -4 1.5
v -4 -5 1.5
v -5 -4 -1.5
v -5 -4 1.5
v -5 -5 1.5
v -5 -5 -1.5
v 2 -6 -1.5
v 2 -6 1.5
v 1 -5 -1.5
v 1 -5 1.5
v 1 -6 1.5
v 1 -6 -1.5
v -3 -5 -1.5
v -3 -6 -1.5
v -3 -5 1.5
v -3 -6 1.5
v -4 -6 1.5
v -4 -6 -1.5
v 1 6 -1
v 1 5 -1
v 1 6 1
v 1 5 1
v 0 6 -1
v 0 6 1
v 0 5 1
v 0 5 -1
v -2 6 -1
v -2 5 -1
v -2 6 1
v -2 5 1
v -3 6 -1
v -3 6 1
v -3 5 1
v -3 5 -1
v 4 5 -0.5
v 4 4 -0.5
v 4 5 0.5
v 4 4 0.5
v 3 5 -0.5
v 3 5 0.5
v 3 4 0.5
v 3 4 -0.5
v 5 4 -0.5
v 5 0 -0.5
v 5 4 0.5
v 5 0 0.5
v 4 0 0.5
v 4 0 -0.5
v 1 4 -2
v 1 3 -2
v 1 4 2
v 1 3 2
v 0 4 -2
v 0 4 2
v 0 3 2
v 0 3 -2
v -2 4 -2
v -2 3 -2
v -2 4 2
v -2 3 2
v -3 4 -2
v -3 4 2
v -3 3 2
v -3 3 -2
v 1 -5 -2
v 1 -6 -2
v 1 -5 2
v 1 -6 2
v 0 -5 -2
v 0 -5 2
v 0 -6 2
v 0 -6 -2
v -2 -5 -2
v -2 -6 -2
v -2 -5 2
v -2 -6 2
v -3 -5 -2
v -3 -5 2
v -3 -6 2
v -3 -6 -2
v 0 6 -2
v 0 5 -2
v 0 6 2
v 0 5 2
v -2 6 -2
v -2 6 2
v -2 5 2
v -2 5 -2
v 3 5 -1
v 3 4 -1
v 3 5 1
v 3 4 1
v 1 4 1
v 1 4 -1
v -3 4 -1
v -3 4 1
v -4 5 -1
v -4 5 1
v -4 4 1
v -4 4 -1
v 4 4 -1
v 4 3 -1
v 4 4 1
v 4 3 1
v 3 3 1
v 3 3 -1
v 4 -1 -1
v 4 -2 -1
v 4 -1 1
v 4 -2 1
v 3 -1 -1
v 3 -1 1
v 3 -2 1
v 3 -2 -1
v 0 5 -3
v 0 4 -3
v 0 5 3
v 0 4 3
v -2 5 -3
v -2 5 3
v -2 4 3
v -2 4 -3
v 0 -5 -2.5
v 0 -6 -2.5
v 0 -5 2.5
v 0 -6 2.5
v -2 -5 -2.5
v -2 -5 2.5
v -2 -6 2.5
v -2 -6 -2.5
v 2 3 -3.5
v 2 2 -3.5
v 2 3 3.5
v 2 2 3.5
v 1 3 -3.5
v 1 3 3.5
v 1 2 3.5
v 1 2 -3.5
v -3 3 -3.5
v -3 2 -3.5
v -3 3 3.5
v -3 2 3.5
v -4 3 -3.5
v -4 3 3.5
v -4 2 3.5
v -4 2 -3.5
v 3 2 -2.5
v 3 1 -2.5
v 3 2 2.5
v 3 1 2.5
v 2 2 -2.5
v 2 2 2.5
v 2 1 2.5
v 2 1 -2.5
v -4 2 -2.5
v -4 1 -2.5
v -4 2 2.5
v -4 1 2.5
v -5 2 -2.5
v -5 2 2.5
v -5 1 2.5
v -5 1 -2.5
v 2 1 -3.5
v 2 0 -3.5
v 2 1 3.5
v 2 0 3.5
v 1 1 -3.5
v 1 1 3.5
v 1 0 3.5
v 1 0 -3.5
v -3 1 -3.5
v -3 0 -3.5
v -3 1 3.5
v -3 0 3.5
v -4 1 -3.5
v -4 1 3.5
v -4 0 3.5
v -4 0 -3.5
v 3 0 -2.5
v 3 -1 -2.5
v 3 0 2.5
v 3 -1 2.5
v 2 0 -2.5
v 2 0 2.5
v 2 -1 2.5
v 2 -1 -2.5
v 1 0 -4
v 1 -1 -4
v 1 0 4
v 1 -1 4
v -3 0 -4
v -3 0 4
v -3 -1 4
v -3 -1 -4
v -4 0 -2.5
v -4 -1 -2.5
v -4 0 2.5
v -4 -1 2.5
v -5 0 -2.5
v -5 0 2.5
v -5 -1 2.5
v -5 -1 -2.5
v 2 -1 -3.5
v 2 -2 -3.5
v 2 -1 3.5
v 2 -2 3.5
v 1 -1 -3.5
v 1 -1 3.5
v 1 -2 3.5
v 1 -2 -3.5
v -3 -1 -3.5
v -3 -2 -3.5
v -3 -1 3.5
v -3 -2 3.5
v -4 -1 -3.5
v -4 -1 3.5
v -4 -2 3.5
v -4 -2 -3.5
v 3 -2 -2.5
v 3 -3 -2.5
v 3 -2 2.5
v 3 -3 2.5
v 2 -2 -2.5
v 2 -2 2.5
v 2 -3 2.5
v 2 -3 -2.5
v 1 -2 -4
v 1 -3 -4
v 1 -2 4
v 1 -3 4
v -3 -2 -4
v -3 -2 4
v -3 -3 4
v -3 -3 -4
v -4 -2 -2.5
v -4 -3 -2.5
v -4 -2 2.5
v -4 -3 2.5
v -5 -2 -2.5
v -5 -2 2.5
v -5 -3 2.5
v -5 -3 -2.5
v 2 -3 -3.5
v 2 -4 -3.5
v 2 -3 3.5
v 2 -4 3.5
v 1 -3 -3.5
v 1 -3 3.5
v 1 -4 3.5
v 1 -4 -3.5
v -3 -3 -3.5
v -3 -4 -3.5
v -3 -3 3.5
v -3 -4 3.5
v -4 -3 -3.5
v -4 -3 3.5
v -4 -4 3.5
v -4 -4 -3.5
v 1 1 -4
v 1 1 4
v -3 1 -4
v -3 1 4
v -4 -4 -2.5
v -4 -4 2.5
v -5 -4 2.5
v -5 -4 -2.5
v 2 -5 -3.5
v 2 -5 3.5
v 1 -5 3.5
v 1 -5 -3.5
v -3 -5 -3.5
v -3 -5 3.5
v -4 -5 3.5
v -4 -5 -3.5
v 1 2 -4
v 1 2 4
v -3 2 -4
v -3 2 4
v 3 -4 -2.5
v 3 -4 2.5
v 2 -4 2.5
v 2 -4 -2.5
v 1 -4 -4
v 1 -4 4
v -3 -4 4
v -3 -4 -4

vn 1 0 0
vn 0 1 0
vn 0 -1 0
vn -1 0 0
vn 0 0 -1
vn 0 0 1

vt -19.68504 19.68504
vt 19.68504 19.68504
vt -19.68504 -19.68504
vt 0 NaN
vt 0 0
vt 0 NaN
vt 0 NaN
vt 0 NaN
vt 0 NaN
vt 0 NaN
vt 19.68504 -19.68504
vt 0 NaN
vt 0 NaN
vt 0 NaN
vt 0 NaN
vt 0 NaN
vt 0 NaN
vt 0 NaN
vt 0 NaN
vt 0 NaN
vt 0 NaN
vt 0 NaN
vt 0 NaN
vt 0 NaN
vt 0 NaN
vt 0 NaN
vt 0 NaN
vt 0 NaN
vt 0 NaN
vt 0 NaN
vt 0 NaN
vt 0 NaN
vt 0 NaN
vt 0 NaN
vt 0 NaN
vt 0 NaN
vt 0 NaN
vt 0 NaN
vt 0 NaN
vt 0 NaN
vt 0 NaN
vt 0 NaN
vt 0 NaN
vt 0 NaN
vt 0 NaN
vt 0 NaN
vt 0 NaN
vt 0 NaN
vt 0 NaN
vt 0 NaN
vt 0 NaN
vt 0 NaN
vt 0 NaN
vt 0 NaN
vt 0 NaN
vt 0 NaN
vt 0 NaN
vt 0 NaN
vt 0 NaN
vt 0 NaN
vt 0 NaN
vt 0 NaN
vt 0 NaN
vt 0 NaN
vt 0 NaN
vt 0 NaN
vt 0 NaN
vt 0 NaN
vt 0 NaN
vt 0 NaN
vt 0 NaN
vt 0 NaN
vt 0 NaN
vt 0 NaN
vt 0 NaN
vt 0 NaN
vt 0 NaN
vt 0 NaN
vt 0 NaN
vt 0 NaN
vt 0 NaN
vt 0 NaN
vt 0 NaN
vt 0 NaN
vt 0 NaN
vt 0 NaN
vt 0 NaN
vt 0 NaN
vt 0 NaN
vt 0 NaN
vt 0 NaN
vt 0 NaN
vt 0 NaN
vt 0 NaN
vt 0 NaN
vt 0 NaN
vt 0 NaN
vt 0 NaN
vt 0 NaN
vt 0 NaN
vt 0 NaN
vt 0 NaN
vt 0 NaN
vt 0 NaN
vt 0 NaN
vt 0 NaN
vt 0 NaN
vt 0 NaN
vt 0 NaN
vt 0 NaN
vt 0 NaN
vt 0 NaN
vt 0 NaN
vt 0 NaN
vt 0 NaN
vt 0 NaN
vt 0 NaN
vt 0 NaN
vt 0 NaN
vt 0 NaN
vt 0 NaN
vt 0 NaN
vt 0 NaN
vt 0 NaN
vt 0 NaN
vt 0 NaN
vt 0 NaN
vt 0 NaN
vt 0 NaN
vt 0 NaN
vt 0 NaN
vt 0 NaN
vt 0 NaN
vt 0 NaN
vt 0 NaN
vt 0 NaN
vt 0 NaN
vt 0 NaN
vt 0 NaN
vt 0 NaN
vt 0 NaN
vt 0 NaN
vt 0 NaN
vt 0 NaN
vt 0 NaN
vt 0 NaN
vt 0 NaN
vt 0 NaN
vt 0 NaN
vt 0 NaN
vt 0 NaN
vt 0 NaN
vt 0 NaN
vt 0 NaN
vt 0 NaN
vt 0 NaN
vt 0 NaN
vt 0 NaN
vt 0 NaN
vt 0 NaN
vt 0 NaN
vt 0 NaN
vt 0 NaN
vt 0 NaN
vt 0 NaN
vt 0 NaN
vt 0 NaN
vt 0 NaN
vt 0 NaN
vt 0 NaN
vt 0 NaN
vt 0 NaN
vt 0 NaN
vt 0 NaN
vt 0 NaN
vt 0 NaN
vt 0 NaN
vt 0 NaN
vt 0 NaN
vt 0 NaN
vt 0 NaN
vt 0 NaN
vt 0 NaN
vt 0 NaN
vt 0 NaN
vt 0 NaN
vt 0 NaN
vt 0 NaN
vt 0 NaN
vt 0 NaN
vt 0 NaN
vt 0 NaN
vt 0 NaN
vt 0 NaN
vt 0 NaN
vt 0 NaN
vt 0 NaN
vt 0 NaN
vt 0 NaN
vt 0 NaN
vt 0 NaN
vt 0 NaN
vt 0 NaN
vt 0 NaN
vt 0 NaN
vt 0 NaN
vt 0 NaN
vt 0 NaN
vt 0 NaN
vt 0 NaN
vt 0 NaN
vt 0 NaN
vt 0 NaN
vt 0 NaN
vt 0 NaN
vt 0 NaN
vt 0 NaN
vt 0 NaN
vt 0 NaN
vt 0 NaN
vt 0 NaN
vt 0 NaN
vt 0 NaN
vt 0 NaN
vt 0 NaN
vt 0 NaN
vt 0 NaN
vt 0 NaN
vt 0 NaN
vt 0 NaN
vt 0 NaN
vt 0 NaN
vt 0 NaN
vt 0 NaN
vt 0 NaN
vt 0 NaN
vt 0 NaN
vt 0 NaN
vt 0 NaN
vt 0 NaN
vt 0 NaN
vt 0 NaN
vt 0 NaN
vt 0 NaN
vt 0 NaN
vt 0 NaN
vt 0 NaN
vt 0 NaN
vt 0 NaN
vt 0 NaN
vt 0 NaN
vt 0 NaN
vt 0 NaN
vt 0 NaN
vt 0 NaN
vt 0 NaN
vt 0 NaN
vt 0 NaN
vt 0 NaN
vt 0 NaN
vt 0 NaN
vt 0 NaN
vt 0 NaN
vt 0 NaN
vt 0 NaN
vt 0 NaN
vt 0 NaN
vt 0 NaN
vt 0 NaN
vt 0 NaN
vt 0 NaN
vt 0 NaN
vt 0 NaN
vt 0 NaN
vt 0 NaN
vt 0 NaN
vt 0 NaN
vt 0 NaN
vt 0 NaN
vt 0 NaN
vt 0 NaN
vt 0 NaN
vt 0 NaN
vt 0 NaN
vt 0 NaN
vt 0 NaN
vt 0 NaN
vt 0 NaN
vt 0 NaN
vt 0 NaN
vt 0 NaN
vt 0 NaN
vt 0 NaN
vt 0 NaN
vt 0 NaN
vt 0 NaN
vt 0 NaN
vt 0 NaN
vt 0 NaN
vt 0 NaN
vt 0 NaN
vt 0 NaN
vt 0 NaN
vt 0 NaN
vt 0 NaN
vt 0 NaN
vt 0 NaN
vt 0 NaN
vt 0 NaN
vt 0 NaN
vt 0 NaN
vt 0 NaN
vt 0 NaN
vt 0 NaN
vt 0 NaN
vt 0 NaN
vt 0 NaN
vt 0 NaN
vt 0 NaN
vt 0 NaN
vt 0 NaN
vt 0 NaN
vt 0 NaN
vt 0 NaN
vt 0 NaN
vt 0 NaN

usemtl color1

f 3/3/1 2/2/1 1/1/1
f 2/3/1 3/2/1 4/1/1
f 5/3/2 3/2/2 1/1/2
f 3/3/2 5/2/2 6/1/2
f 7/5/3 2/5/3 4/4/3
f 2/5/3 7/5/3 8/6/3
f 7/5/4 5/5/4 8/7/4
f 5/5/4 7/5/4 6/8/4
f 5/5/5 2/5/5 8/9/5
f 2/5/5 5/5/5 1/10/5
f 3/2/6 7/3/6 4/11/6
f 7/3/6 3/2/6 6/1/6
f 3/3/1 2/2/1 1/1/1
f 2/3/1 3/2/1 4/1/1
f 5/3/2 3/2/2 1/1/2
f 3/3/2 5/2/2 6/1/2
f 7/5/3 2/5/3 4/4/3
f 2/5/3 7/5/3 8/6/3
f 7/5/4 5/5/4 8/7/4
f 5/5/4 7/5/4 6/8/4
f 5/5/5 2/5/5 8/9/5
f 2/5/5 5/5/5 1/10/5
f 3/2/6 7/3/6 4/11/6
f 7/3/6 3/2/6 6/1/6
f 11/3/1 10/2/1 9/1/1
f 10/3/1 11/2/1 12/1/1
f 13/3/2 11/2/2 9/1/2
f 11/3/2 13/2/2 14/1/2
f 15/5/3 10/5/3 12/12/3
f 10/5/3 15/5/3 16/13/3
f 15/5/4 13/5/4 16/14/4
f 13/5/4 15/5/4 14/15/4
f 13/5/5 10/5/5 16/16/5
f 10/5/5 13/5/5 9/17/5
f 11/2/6 15/3/6 12/11/6
f 15/3/6 11/2/6 14/1/6
f 19/3/1 18/2/1 17/1/1
f 18/3/1 19/2/1 20/1/1
f 21/3/2 19/2/2 17/1/2
f 19/3/2 21/2/2 22/1/2
f 23/5/3 18/5/3 20/18/3
f 18/5/3 23/5/3 24/19/3
f 23/5/4 21/5/4 24/20/4
f 21/5/4 23/5/4 22/21/4
f 21/5/5 18/5/5 24/22/5
f 18/5/5 21/5/5 17/23/5
f 19/2/6 23/3/6 20/11/6
f 23/3/6 19/2/6 22/1/6
f 27/3/1 26/2/1 25/1/1
f 26/3/1 27/2/1 28/1/1
f 29/3/2 27/2/2 25/1/2
f 27/3/2 29/2/2 30/1/2
f 31/5/3 26/5/3 28/24/3
f 26/5/3 31/5/3 32/25/3
f 31/5/4 29/5/4 32/26/4
f 29/5/4 31/5/4 30/27/4
f 29/5/5 26/5/5 32/28/5
f 26/5/5 29/5/5 25/29/5
f 27/2/6 31/3/6 28/11/6
f 31/3/6 27/2/6 30/1/6
f 15/3/1 33/2/1 16/1/1
f 33/3/1 15/2/1 34/1/1
f 18/3/2 15/2/2 16/1/2
f 15/3/2 18/2/2 20/1/2
f 35/5/3 33/5/3 34/30/3
f 33/5/3 35/5/3 36/31/3
f 35/5/4 18/5/4 36/32/4
f 18/5/4 35/5/4 20/33/4
f 18/5/5 33/5/5 36/34/5
f 33/5/5 18/5/5 16/16/5
f 15/2/6 35/3/6 34/11/6
f 35/3/6 15/2/6 20/1/6
f 39/3/1 38/2/1 37/1/1
f 38/3/1 39/2/1 40/1/1
f 41/3/2 39/2/2 37/1/2
f 39/3/2 41/2/2 42/1/2
f 43/5/3 38/5/3 40/35/3
f 38/5/3 43/5/3 44/36/3
f 43/5/4 41/5/4 44/37/4
f 41/5/4 43/5/4 42/38/4
f 41/5/5 38/5/5 44/39/5
f 38/5/5 41/5/5 37/40/5
f 39/2/6 43/3/6 40/11/6
f 43/3/6 39/2/6 42/1/6
f 47/3/1 46/2/1 45/1/1
f 46/3/1 47/2/1 48/1/1
f 26/3/2 47/2/2 45/1/2
f 47/3/2 26/2/2 28/1/2
f 49/5/3 46/5/3 48/41/3
f 46/5/3 49/5/3 50/42/3
f 49/5/4 26/5/4 50/43/4
f 26/5/4 49/5/4 28/44/4
f 26/5/5 46/5/5 50/45/5
f 46/5/5 26/5/5 45/46/5
f 47/2/6 49/3/6 48/11/6
f 49/3/6 47/2/6 28/1/6
f 43/3/1 51/2/1 44/1/1
f 51/3/1 43/2/1 52/1/1
f 53/3/2 43/2/2 44/1/2
f 43/3/2 53/2/2 54/1/2
f 55/5/3 51/5/3 52/47/3
f 51/5/3 55/5/3 56/48/3
f 55/5/4 53/5/4 56/49/4
f 53/5/4 55/5/4 54/50/4
f 53/5/5 51/5/5 56/51/5
f 51/5/5 53/5/5 44/39/5
f 43/2/6 55/3/6 52/11/6
f 55/3/6 43/2/6 54/1/6
f 59/3/1 58/2/1 57/1/1
f 58/3/1 59/2/1 60/1/1
f 61/3/2 59/2/2 57/1/2
f 59/3/2 61/2/2 62/1/2
f 63/5/3 58/5/3 60/52/3
f 58/5/3 63/5/3 64/53/3
f 63/5/4 61/5/4 64/54/4
f 61/5/4 63/5/4 62/55/4
f 61/5/5 58/5/5 64/56/5
f 58/5/5 61/5/5 57/57/5
f 59/2/6 63/3/6 60/11/6
f 63/3/6 59/2/6 62/1/6
f 63/3/1 65/2/1 64/1/1
f 65/3/1 63/2/1 66/1/1
f 67/3/2 63/2/2 64/1/2
f 63/3/2 67/2/2 68/1/2
f 69/5/3 65/5/3 66/58/3
f 65/5/3 69/5/3 70/59/3
f 69/5/4 67/5/4 70/60/4
f 67/5/4 69/5/4 68/61/4
f 67/5/5 65/5/5 70/62/5
f 65/5/5 67/5/5 64/56/5
f 63/2/6 69/3/6 66/11/6
f 69/3/6 63/2/6 68/1/6
f 73/3/1 72/2/1 71/1/1
f 72/3/1 73/2/1 74/1/1
f 75/3/2 73/2/2 71/1/2
f 73/3/2 75/2/2 76/1/2
f 77/5/3 72/5/3 74/63/3
f 72/5/3 77/5/3 78/64/3
f 77/5/4 75/5/4 78/65/4
f 75/5/4 77/5/4 76/66/4
f 75/5/5 72/5/5 78/67/5
f 72/5/5 75/5/5 71/68/5
f 73/2/6 77/3/6 74/11/6
f 77/3/6 73/2/6 76/1/6
f 81/3/1 80/2/1 79/1/1
f 80/3/1 81/2/1 82/1/1
f 83/3/2 81/2/2 79/1/2
f 81/3/2 83/2/2 84/1/2
f 85/5/3 80/5/3 82/69/3
f 80/5/3 85/5/3 86/70/3
f 85/5/4 83/5/4 86/71/4
f 83/5/4 85/5/4 84/72/4
f 83/5/5 80/5/5 86/73/5
f 80/5/5 83/5/5 79/74/5
f 81/2/6 85/3/6 82/11/6
f 85/3/6 81/2/6 84/1/6
f 77/3/1 87/2/1 78/1/1
f 87/3/1 77/2/1 88/1/1
f 89/3/2 77/2/2 78/1/2
f 77/3/2 89/2/2 90/1/2
f 91/5/3 87/5/3 88/75/3
f 87/5/3 91/5/3 92/76/3
f 91/5/4 89/5/4 92/77/4
f 89/5/4 91/5/4 90/78/4
f 89/5/5 87/5/5 92/79/5
f 87/5/5 89/5/5 78/67/5
f 77/2/6 91/3/6 88/11/6
f 91/3/6 77/2/6 90/1/6
f 95/3/1 94/2/1 93/1/1
f 94/3/1 95/2/1 96/1/1
f 80/3/2 95/2/2 93/1/2
f 95/3/2 80/2/2 82/1/2
f 97/5/3 94/5/3 96/80/3
f 94/5/3 97/5/3 98/81/3
f 97/5/4 80/5/4 98/82/4
f 80/5/4 97/5/4 82/83/4
f 80/5/5 94/5/5 98/84/5
f 94/5/5 80/5/5 93/85/5
f 95/2/6 97/3/6 96/11/6
f 97/3/6 95/2/6 82/1/6

usemtl color2

f 101/3/1 100/2/1 99/1/1
f 100/3/1 101/2/1 102/1/1
f 103/3/2 101/2/2 99/1/2
f 101/3/2 103/2/2 104/1/2
f 105/5/3 100/5/3 102/86/3
f 100/5/3 105/5/3 106/87/3
f 105/5/4 103/5/4 106/88/4
f 103/5/4 105/5/4 104/89/4
f 103/5/5 100/5/5 106/90/5
f 100/5/5 103/5/5 99/91/5
f 101/2/6 105/3/6 102/11/6
f 105/3/6 101/2/6 104/1/6
f 109/3/1 108/2/1 107/1/1
f 108/3/1 109/2/1 110/1/1
f 111/3/2 109/2/2 107/1/2
f 109/3/2 111/2/2 112/1/2
f 113/5/3 108/5/3 110/92/3
f 108/5/3 113/5/3 114/93/3
f 113/5/4 111/5/4 114/94/4
f 111/5/4 113/5/4 112/95/4
f 111/5/5 108/5/5 114/96/5
f 108/5/5 111/5/5 107/97/5
f 109/2/6 113/3/6 110/11/6
f 113/3/6 109/2/6 112/1/6
f 117/3/1 116/2/1 115/1/1
f 116/3/1 117/2/1 118/1/1
f 119/3/2 117/2/2 115/1/2
f 117/3/2 119/2/2 120/1/2
f 121/5/3 116/5/3 118/98/3
f 116/5/3 121/5/3 122/99/3
f 121/5/4 119/5/4 122/100/4
f 119/5/4 121/5/4 120/101/4
f 119/5/5 116/5/5 122/102/5
f 116/5/5 119/5/5 115/103/5
f 117/2/6 121/3/6 118/11/6
f 121/3/6 117/2/6 120/1/6
f 125/3/1 124/2/1 123/1/1
f 124/3/1 125/2/1 126/1/1
f 116/3/2 125/2/2 123/1/2
f 125/3/2 116/2/2 118/1/2
f 127/5/3 124/5/3 126/104/3
f 124/5/3 127/5/3 128/105/3
f 127/5/4 116/5/4 128/106/4
f 116/5/4 127/5/4 118/107/4
f 116/5/5 124/5/5 128/108/5
f 124/5/5 116/5/5 123/109/5
f 125/2/6 127/3/6 126/11/6
f 127/3/6 125/2/6 118/1/6
f 131/3/1 130/2/1 129/1/1
f 130/3/1 131/2/1 132/1/1
f 133/3/2 131/2/2 129/1/2
f 131/3/2 133/2/2 134/1/2
f 135/5/3 130/5/3 132/110/3
f 130/5/3 135/5/3 136/111/3
f 135/5/4 133/5/4 136/112/4
f 133/5/4 135/5/4 134/113/4
f 133/5/5 130/5/5 136/114/5
f 130/5/5 133/5/5 129/115/5
f 131/2/6 135/3/6 132/11/6
f 135/3/6 131/2/6 134/1/6
f 139/3/1 138/2/1 137/1/1
f 138/3/1 139/2/1 140/1/1
f 141/3/2 139/2/2 137/1/2
f 139/3/2 141/2/2 142/1/2
f 143/5/3 138/5/3 140/116/3
f 138/5/3 143/5/3 144/117/3
f 143/5/4 141/5/4 144/118/4
f 141/5/4 143/5/4 142/119/4
f 141/5/5 138/5/5 144/120/5
f 138/5/5 141/5/5 137/121/5
f 139/2/6 143/3/6 140/11/6
f 143/3/6 139/2/6 142/1/6
f 147/3/1 146/2/1 145/1/1
f 146/3/1 147/2/1 148/1/1
f 149/3/2 147/2/2 145/1/2
f 147/3/2 149/2/2 150/1/2
f 151/5/3 146/5/3 148/122/3
f 146/5/3 151/5/3 152/123/3
f 151/5/4 149/5/4 152/124/4
f 149/5/4 151/5/4 150/125/4
f 149/5/5 146/5/5 152/126/5
f 146/5/5 149/5/5 145/127/5
f 147/2/6 151/3/6 148/11/6
f 151/3/6 147/2/6 150/1/6
f 155/3/1 154/2/1 153/1/1
f 154/3/1 155/2/1 156/1/1
f 157/3/2 155/2/2 153/1/2
f 155/3/2 157/2/2 158/1/2
f 159/5/3 154/5/3 156/128/3
f 154/5/3 159/5/3 160/129/3
f 159/5/4 157/5/4 160/130/4
f 157/5/4 159/5/4 158/131/4
f 157/5/5 154/5/5 160/132/5
f 154/5/5 157/5/5 153/133/5
f 155/2/6 159/3/6 156/11/6
f 159/3/6 155/2/6 158/1/6

usemtl color9

f 163/3/1 162/2/1 161/1/1
f 162/3/1 163/2/1 164/1/1
f 165/3/2 163/2/2 161/1/2
f 163/3/2 165/2/2 166/1/2
f 167/5/3 162/5/3 164/134/3
f 162/5/3 167/5/3 168/135/3
f 167/5/4 165/5/4 168/136/4
f 165/5/4 167/5/4 166/137/4
f 165/5/5 162/5/5 168/138/5
f 162/5/5 165/5/5 161/139/5
f 163/2/6 167/3/6 164/11/6
f 167/3/6 163/2/6 166/1/6
f 171/3/1 170/2/1 169/1/1
f 170/3/1 171/2/1 172/1/1
f 100/3/2 171/2/2 169/1/2
f 171/3/2 100/2/2 102/1/2
f 173/5/3 170/5/3 172/140/3
f 170/5/3 173/5/3 174/141/3
f 173/5/4 100/5/4 174/142/4
f 100/5/4 173/5/4 102/143/4
f 100/5/5 170/5/5 174/144/5
f 170/5/5 100/5/5 169/145/5
f 171/2/6 173/3/6 172/11/6
f 173/3/6 171/2/6 102/1/6
f 113/3/1 175/2/1 114/1/1
f 175/3/1 113/2/1 176/1/1
f 177/3/2 113/2/2 114/1/2
f 113/3/2 177/2/2 178/1/2
f 179/5/3 175/5/3 176/146/3
f 175/5/3 179/5/3 180/147/3
f 179/5/4 177/5/4 180/148/4
f 177/5/4 179/5/4 178/149/4
f 177/5/5 175/5/5 180/150/5
f 175/5/5 177/5/5 114/96/5
f 113/2/6 179/3/6 176/11/6
f 179/3/6 113/2/6 178/1/6
f 183/3/1 182/2/1 181/1/1
f 182/3/1 183/2/1 184/1/1
f 170/3/2 183/2/2 181/1/2
f 183/3/2 170/2/2 172/1/2
f 185/5/3 182/5/3 184/151/3
f 182/5/3 185/5/3 186/152/3
f 185/5/4 170/5/4 186/153/4
f 170/5/4 185/5/4 172/154/4
f 170/5/5 182/5/5 186/155/5
f 182/5/5 170/5/5 181/156/5
f 183/2/6 185/3/6 184/11/6
f 185/3/6 183/2/6 172/1/6
f 126/3/1 57/2/1 124/1/1
f 57/3/1 126/2/1 59/1/1
f 128/3/2 126/2/2 124/1/2
f 126/3/2 128/2/2 127/1/2
f 62/5/3 57/5/3 59/157/3
f 57/5/3 62/5/3 61/158/3
f 62/55/4 128/106/4 61/5/4
f 128/106/4 62/55/4 127/5/4
f 128/108/5 57/57/5 61/5/5
f 57/57/5 128/108/5 124/5/5
f 126/2/6 62/3/6 59/11/6
f 62/3/6 126/2/6 127/1/6
f 189/3/1 188/2/1 187/1/1
f 188/3/1 189/2/1 190/1/1
f 191/3/2 189/2/2 187/1/2
f 189/3/2 191/2/2 192/1/2
f 193/5/3 188/5/3 190/159/3
f 188/5/3 193/5/3 194/160/3
f 193/5/4 191/5/4 194/161/4
f 191/5/4 193/5/4 192/162/4
f 191/5/5 188/5/5 194/163/5
f 188/5/5 191/5/5 187/164/5
f 189/2/6 193/3/6 190/11/6
f 193/3/6 189/2/6 192/1/6

usemtl color3

f 197/3/1 196/2/1 195/1/1
f 196/3/1 197/2/1 198/1/1
f 199/3/2 197/2/2 195/1/2
f 197/3/2 199/2/2 200/1/2
f 201/5/3 196/5/3 198/165/3
f 196/5/3 201/5/3 202/166/3
f 201/5/4 199/5/4 202/167/4
f 199/5/4 201/5/4 200/168/4
f 199/5/5 196/5/5 202/169/5
f 196/5/5 199/5/5 195/170/5
f 197/2/6 201/3/6 198/11/6
f 201/3/6 197/2/6 200/1/6
f 205/3/1 204/2/1 203/1/1
f 204/3/1 205/2/1 206/1/1
f 207/3/2 205/2/2 203/1/2
f 205/3/2 207/2/2 208/1/2
f 209/5/3 204/5/3 206/171/3
f 204/5/3 209/5/3 210/172/3
f 209/5/4 207/5/4 210/173/4
f 207/5/4 209/5/4 208/174/4
f 207/5/5 204/5/5 210/175/5
f 204/5/5 207/5/5 203/176/5
f 205/2/6 209/3/6 206/11/6
f 209/3/6 205/2/6 208/1/6

usemtl color6

f 213/3/1 212/2/1 211/1/1
f 212/3/1 213/2/1 214/1/1
f 215/3/2 213/2/2 211/1/2
f 213/3/2 215/2/2 216/1/2
f 217/5/3 212/5/3 214/177/3
f 212/5/3 217/5/3 218/178/3
f 217/5/4 215/5/4 218/179/4
f 215/5/4 217/5/4 216/180/4
f 215/5/5 212/5/5 218/181/5
f 212/5/5 215/5/5 211/182/5
f 213/2/6 217/3/6 214/11/6
f 217/3/6 213/2/6 216/1/6
f 221/3/1 220/2/1 219/1/1
f 220/3/1 221/2/1 222/1/1
f 223/3/2 221/2/2 219/1/2
f 221/3/2 223/2/2 224/1/2
f 225/5/3 220/5/3 222/183/3
f 220/5/3 225/5/3 226/184/3
f 225/5/4 223/5/4 226/185/4
f 223/5/4 225/5/4 224/186/4
f 223/5/5 220/5/5 226/187/5
f 220/5/5 223/5/5 219/188/5
f 221/2/6 225/3/6 222/11/6
f 225/3/6 221/2/6 224/1/6
f 229/3/1 228/2/1 227/1/1
f 228/3/1 229/2/1 230/1/1
f 231/3/2 229/2/2 227/1/2
f 229/3/2 231/2/2 232/1/2
f 233/5/3 228/5/3 230/189/3
f 228/5/3 233/5/3 234/190/3
f 233/5/4 231/5/4 234/191/4
f 231/5/4 233/5/4 232/192/4
f 231/5/5 228/5/5 234/193/5
f 228/5/5 231/5/5 227/194/5
f 229/2/6 233/3/6 230/11/6
f 233/3/6 229/2/6 232/1/6
f 237/3/1 236/2/1 235/1/1
f 236/3/1 237/2/1 238/1/1
f 239/3/2 237/2/2 235/1/2
f 237/3/2 239/2/2 240/1/2
f 241/5/3 236/5/3 238/195/3
f 236/5/3 241/5/3 242/196/3
f 241/5/4 239/5/4 242/197/4
f 239/5/4 241/5/4 240/198/4
f 239/5/5 236/5/5 242/199/5
f 236/5/5 239/5/5 235/200/5
f 237/2/6 241/3/6 238/11/6
f 241/3/6 237/2/6 240/1/6
f 245/3/1 244/2/1 243/1/1
f 244/3/1 245/2/1 246/1/1
f 247/3/2 245/2/2 243/1/2
f 245/3/2 247/2/2 248/1/2
f 249/5/3 244/5/3 246/201/3
f 244/5/3 249/5/3 250/202/3
f 249/5/4 247/5/4 250/203/4
f 247/5/4 249/5/4 248/204/4
f 247/5/5 244/5/5 250/205/5
f 244/5/5 247/5/5 243/206/5
f 245/2/6 249/3/6 246/11/6
f 249/3/6 245/2/6 248/1/6
f 253/3/1 252/2/1 251/1/1
f 252/3/1 253/2/1 254/1/1
f 255/3/2 253/2/2 251/1/2
f 253/3/2 255/2/2 256/1/2
f 257/5/3 252/5/3 254/207/3
f 252/5/3 257/5/3 258/208/3
f 257/5/4 255/5/4 258/209/4
f 255/5/4 257/5/4 256/210/4
f 255/5/5 252/5/5 258/211/5
f 252/5/5 255/5/5 251/212/5
f 253/2/6 257/3/6 254/11/6
f 257/3/6 253/2/6 256/1/6
f 261/3/1 260/2/1 259/1/1
f 260/3/1 261/2/1 262/1/1
f 263/3/2 261/2/2 259/1/2
f 261/3/2 263/2/2 264/1/2
f 265/5/3 260/5/3 262/213/3
f 260/5/3 265/5/3 266/214/3
f 265/5/4 263/5/4 266/215/4
f 263/5/4 265/5/4 264/216/4
f 263/5/5 260/5/5 266/217/5
f 260/5/5 263/5/5 259/218/5
f 261/2/6 265/3/6 262/11/6
f 265/3/6 261/2/6 264/1/6
f 269/3/1 268/2/1 267/1/1
f 268/3/1 269/2/1 270/1/1
f 271/3/2 269/2/2 267/1/2
f 269/3/2 271/2/2 272/1/2
f 273/5/3 268/5/3 270/219/3
f 268/5/3 273/5/3 274/220/3
f 273/5/4 271/5/4 274/221/4
f 271/5/4 273/5/4 272/222/4
f 271/5/5 268/5/5 274/223/5
f 268/5/5 271/5/5 267/224/5
f 269/2/6 273/3/6 270/11/6
f 273/3/6 269/2/6 272/1/6
f 277/3/1 276/2/1 275/1/1
f 276/3/1 277/2/1 278/1/1
f 279/3/2 277/2/2 275/1/2
f 277/3/2 279/2/2 280/1/2
f 281/5/3 276/5/3 278/225/3
f 276/5/3 281/5/3 282/226/3
f 281/5/4 279/5/4 282/227/4
f 279/5/4 281/5/4 280/228/4
f 279/5/5 276/5/5 282/229/5
f 276/5/5 279/5/5 275/230/5
f 277/2/6 281/3/6 278/11/6
f 281/3/6 277/2/6 280/1/6
f 285/3/1 284/2/1 283/1/1
f 284/3/1 285/2/1 286/1/1
f 287/3/2 285/2/2 283/1/2
f 285/3/2 287/2/2 288/1/2
f 289/5/3 284/5/3 286/231/3
f 284/5/3 289/5/3 290/232/3
f 289/5/4 287/5/4 290/233/4
f 287/5/4 289/5/4 288/234/4
f 287/5/5 284/5/5 290/235/5
f 284/5/5 287/5/5 283/236/5
f 285/2/6 289/3/6 286/11/6
f 289/3/6 285/2/6 288/1/6
f 293/3/1 292/2/1 291/1/1
f 292/3/1 293/2/1 294/1/1
f 295/3/2 293/2/2 291/1/2
f 293/3/2 295/2/2 296/1/2
f 297/5/3 292/5/3 294/237/3
f 292/5/3 297/5/3 298/238/3
f 297/5/4 295/5/4 298/239/4
f 295/5/4 297/5/4 296/240/4
f 295/5/5 292/5/5 298/241/5
f 292/5/5 295/5/5 291/242/5
f 293/2/6 297/3/6 294/11/6
f 297/3/6 293/2/6 296/1/6
f 301/3/1 300/2/1 299/1/1
f 300/3/1 301/2/1 302/1/1
f 303/3/2 301/2/2 299/1/2
f 301/3/2 303/2/2 304/1/2
f 305/5/3 300/5/3 302/243/3
f 300/5/3 305/5/3 306/244/3
f 305/5/4 303/5/4 306/245/4
f 303/5/4 305/5/4 304/246/4
f 303/5/5 300/5/5 306/247/5
f 300/5/5 303/5/5 299/248/5
f 301/2/6 305/3/6 302/11/6
f 305/3/6 301/2/6 304/1/6
f 309/3/1 308/2/1 307/1/1
f 308/3/1 309/2/1 310/1/1
f 311/3/2 309/2/2 307/1/2
f 309/3/2 311/2/2 312/1/2
f 313/5/3 308/5/3 310/249/3
f 308/5/3 313/5/3 314/250/3
f 313/5/4 311/5/4 314/251/4
f 311/5/4 313/5/4 312/252/4
f 311/5/5 308/5/5 314/253/5
f 308/5/5 311/5/5 307/254/5
f 309/2/6 313/3/6 310/11/6
f 313/3/6 309/2/6 312/1/6
f 317/3/1 316/2/1 315/1/1
f 316/3/1 317/2/1 318/1/1
f 319/3/2 317/2/2 315/1/2
f 317/3/2 319/2/2 320/1/2
f 321/5/3 316/5/3 318/255/3
f 316/5/3 321/5/3 322/256/3
f 321/5/4 319/5/4 322/257/4
f 319/5/4 321/5/4 320/258/4
f 319/5/5 316/5/5 322/259/5
f 316/5/5 319/5/5 315/260/5
f 317/2/6 321/3/6 318/11/6
f 321/3/6 317/2/6 320/1/6
f 325/3/1 324/2/1 323/1/1
f 324/3/1 325/2/1 326/1/1
f 327/3/2 325/2/2 323/1/2
f 325/3/2 327/2/2 328/1/2
f 329/5/3 324/5/3 326/261/3
f 324/5/3 329/5/3 330/262/3
f 329/5/4 327/5/4 330/263/4
f 327/5/4 329/5/4 328/264/4
f 327/5/5 324/5/5 330/265/5
f 324/5/5 327/5/5 323/266/5
f 325/2/6 329/3/6 326/11/6
f 329/3/6 325/2/6 328/1/6
f 333/3/1 332/2/1 331/1/1
f 332/3/1 333/2/1 334/1/1
f 335/3/2 333/2/2 331/1/2
f 333/3/2 335/2/2 336/1/2
f 337/5/3 332/5/3 334/267/3
f 332/5/3 337/5/3 338/268/3
f 337/5/4 335/5/4 338/269/4
f 335/5/4 337/5/4 336/270/4
f 335/5/5 332/5/5 338/271/5
f 332/5/5 335/5/5 331/272/5
f 333/2/6 337/3/6 334/11/6
f 337/3/6 333/2/6 336/1/6

usemtl color8

f 216/3/1 218/2/1 215/1/1
f 218/3/1 216/2/1 217/1/1
f 219/3/2 216/2/2 215/1/2
f 216/3/2 219/2/2 221/1/2
f 222/183/3 218/178/3 217/5/3
f 218/178/3 222/183/3 220/5/3
f 222/5/4 219/5/4 220/273/4
f 219/5/4 222/5/4 221/274/4
f 219/188/5 218/181/5 220/5/5
f 218/181/5 219/188/5 215/5/5
f 216/2/6 222/3/6 217/11/6
f 222/3/6 216/2/6 221/1/6
f 340/3/1 267/2/1 339/1/1
f 267/3/1 340/2/1 269/1/1
f 341/3/2 340/2/2 339/1/2
f 340/3/2 341/2/2 342/1/2
f 272/5/3 267/5/3 269/275/3
f 267/5/3 272/5/3 271/276/3
f 272/222/4 341/5/4 271/5/4
f 341/5/4 272/222/4 342/277/4
f 341/5/5 267/224/5 271/5/5
f 267/224/5 341/5/5 339/278/5
f 340/2/6 272/3/6 269/11/6
f 272/3/6 340/2/6 342/1/6
f 238/3/1 275/2/1 236/1/1
f 275/3/1 238/2/1 277/1/1
f 242/3/2 238/2/2 236/1/2
f 238/3/2 242/2/2 241/1/2
f 280/5/3 275/5/3 277/279/3
f 275/5/3 280/5/3 279/280/3
f 280/228/4 242/197/4 279/5/4
f 242/197/4 280/228/4 241/5/4
f 242/199/5 275/230/5 279/5/5
f 275/230/5 242/199/5 236/5/5
f 238/2/6 280/3/6 277/11/6
f 280/3/6 238/2/6 241/1/6
f 270/3/1 307/2/1 268/1/1
f 307/3/1 270/2/1 309/1/1
f 274/3/2 270/2/2 268/1/2
f 270/3/2 274/2/2 273/1/2
f 312/5/3 307/5/3 309/281/3
f 307/5/3 312/5/3 311/282/3
f 312/252/4 274/221/4 311/5/4
f 274/221/4 312/252/4 273/5/4
f 274/223/5 307/254/5 311/5/5
f 307/254/5 274/223/5 268/5/5
f 270/2/6 312/3/6 309/11/6
f 312/3/6 270/2/6 273/1/6
f 278/3/1 315/2/1 276/1/1
f 315/3/1 278/2/1 317/1/1
f 282/3/2 278/2/2 276/1/2
f 278/3/2 282/2/2 281/1/2
f 320/5/3 315/5/3 317/283/3
f 315/5/3 320/5/3 319/284/3
f 320/258/4 282/227/4 319/5/4
f 282/227/4 320/258/4 281/5/4
f 282/229/5 315/260/5 319/5/5
f 315/260/5 282/229/5 276/5/5
f 278/2/6 320/3/6 317/11/6
f 320/3/6 278/2/6 281/1/6
f 318/3/1 343/2/1 316/1/1
f 343/3/1 318/2/1 344/1/1
f 322/3/2 318/2/2 316/1/2
f 318/3/2 322/2/2 321/1/2
f 345/5/3 343/5/3 344/285/3
f 343/5/3 345/5/3 346/286/3
f 345/5/4 322/257/4 346/287/4
f 322/257/4 345/5/4 321/5/4
f 322/259/5 343/5/5 346/288/5
f 343/5/5 322/259/5 316/5/5
f 318/2/6 345/3/6 344/11/6
f 345/3/6 318/2/6 321/1/6

usemtl color4

f 214/3/1 243/2/1 212/1/1
f 243/3/1 214/2/1 245/1/1
f 218/3/2 214/2/2 212/1/2
f 214/3/2 218/2/2 217/1/2
f 248/5/3 243/5/3 245/289/3
f 243/5/3 248/5/3 247/290/3
f 248/204/4 218/179/4 247/5/4
f 218/179/4 248/204/4 217/5/4
f 218/181/5 243/206/5 247/5/5
f 243/206/5 218/181/5 212/5/5
f 214/2/6 248/3/6 245/11/6
f 248/3/6 214/2/6 217/1/6
f 222/3/1 251/2/1 220/1/1
f 251/3/1 222/2/1 253/1/1
f 226/3/2 222/2/2 220/1/2
f 222/3/2 226/2/2 225/1/2
f 256/5/3 251/5/3 253/291/3
f 251/5/3 256/5/3 255/292/3
f 256/210/4 226/185/4 255/5/4
f 226/185/4 256/210/4 225/5/4
f 226/187/5 251/212/5 255/5/5
f 251/212/5 226/187/5 220/5/5
f 222/2/6 256/3/6 253/11/6
f 256/3/6 222/2/6 225/1/6
f 246/3/1 283/2/1 244/1/1
f 283/3/1 246/2/1 285/1/1
f 250/3/2 246/2/2 244/1/2
f 246/3/2 250/2/2 249/1/2
f 288/5/3 283/5/3 285/293/3
f 283/5/3 288/5/3 287/294/3
f 288/234/4 250/203/4 287/5/4
f 250/203/4 288/234/4 249/5/4
f 250/205/5 283/236/5 287/5/5
f 283/236/5 250/205/5 244/5/5
f 246/2/6 288/3/6 285/11/6
f 288/3/6 246/2/6 249/1/6
f 254/3/1 291/2/1 252/1/1
f 291/3/1 254/2/1 293/1/1
f 258/3/2 254/2/2 252/1/2
f 254/3/2 258/2/2 257/1/2
f 296/5/3 291/5/3 293/295/3
f 291/5/3 296/5/3 295/296/3
f 296/240/4 258/209/4 295/5/4
f 258/209/4 296/240/4 257/5/4
f 258/211/5 291/242/5 295/5/5
f 291/242/5 258/211/5 252/5/5
f 254/2/6 296/3/6 293/11/6
f 296/3/6 254/2/6 257/1/6
f 286/3/1 323/2/1 284/1/1
f 323/3/1 286/2/1 325/1/1
f 290/3/2 286/2/2 284/1/2
f 286/3/2 290/2/2 289/1/2
f 328/5/3 323/5/3 325/297/3
f 323/5/3 328/5/3 327/298/3
f 328/264/4 290/233/4 327/5/4
f 290/233/4 328/264/4 289/5/4
f 290/235/5 323/266/5 327/5/5
f 323/266/5 290/235/5 284/5/5
f 286/2/6 328/3/6 325/11/6
f 328/3/6 286/2/6 289/1/6
f 294/3/1 331/2/1 292/1/1
f 331/3/1 294/2/1 333/1/1
f 298/3/2 294/2/2 292/1/2
f 294/3/2 298/2/2 297/1/2
f 336/5/3 331/5/3 333/299/3
f 331/5/3 336/5/3 335/300/3
f 336/270/4 298/239/4 335/5/4
f 298/239/4 336/270/4 297/5/4
f 298/241/5 331/272/5 335/5/5
f 331/272/5 298/241/5 292/5/5
f 294/2/6 336/3/6 333/11/6
f 336/3/6 294/2/6 297/1/6
f 326/3/1 347/2/1 324/1/1
f 347/3/1 326/2/1 348/1/1
f 330/3/2 326/2/2 324/1/2
f 326/3/2 330/2/2 329/1/2
f 349/5/3 347/5/3 348/301/3
f 347/5/3 349/5/3 350/302/3
f 349/5/4 330/263/4 350/303/4
f 330/263/4 349/5/4 329/5/4
f 330/265/5 347/5/5 350/304/5
f 347/5/5 330/265/5 324/5/5
f 326/2/6 349/3/6 348/11/6
f 349/3/6 326/2/6 329/1/6
f 334/3/1 351/2/1 332/1/1
f 351/3/1 334/2/1 352/1/1
f 338/3/2 334/2/2 332/1/2
f 334/3/2 338/2/2 337/1/2
f 353/5/3 351/5/3 352/305/3
f 351/5/3 353/5/3 354/306/3
f 353/5/4 338/269/4 354/307/4
f 338/269/4 353/5/4 337/5/4
f 338/271/5 351/5/5 354/308/5
f 351/5/5 338/271/5 332/5/5
f 334/2/6 353/3/6 352/11/6
f 353/3/6 334/2/6 337/1/6

usemtl color5

f 356/3/1 339/2/1 355/1/1
f 339/3/1 356/2/1 340/1/1
f 357/3/2 356/2/2 355/1/2
f 356/3/2 357/2/2 358/1/2
f 342/5/3 339/5/3 340/309/3
f 339/5/3 342/5/3 341/310/3
f 342/277/4 357/5/4 341/5/4
f 357/5/4 342/277/4 358/311/4
f 357/5/5 339/278/5 341/5/5
f 339/278/5 357/5/5 355/312/5
f 356/2/6 342/3/6 340/11/6
f 342/3/6 356/2/6 358/1/6
f 230/3/1 259/2/1 228/1/1
f 259/3/1 230/2/1 261/1/1
f 234/3/2 230/2/2 228/1/2
f 230/3/2 234/2/2 233/1/2
f 264/5/3 259/5/3 261/313/3
f 259/5/3 264/5/3 263/314/3
f 264/216/4 234/191/4 263/5/4
f 234/191/4 264/216/4 233/5/4
f 234/193/5 259/218/5 263/5/5
f 259/218/5 234/193/5 228/5/5
f 230/2/6 264/3/6 261/11/6
f 264/3/6 230/2/6 233/1/6
f 262/3/1 299/2/1 260/1/1
f 299/3/1 262/2/1 301/1/1
f 266/3/2 262/2/2 260/1/2
f 262/3/2 266/2/2 265/1/2
f 304/5/3 299/5/3 301/315/3
f 299/5/3 304/5/3 303/316/3
f 304/246/4 266/215/4 303/5/4
f 266/215/4 304/246/4 265/5/4
f 266/217/5 299/248/5 303/5/5
f 299/248/5 266/217/5 260/5/5
f 262/2/6 304/3/6 301/11/6
f 304/3/6 262/2/6 265/1/6
f 302/3/1 359/2/1 300/1/1
f 359/3/1 302/2/1 360/1/1
f 306/3/2 302/2/2 300/1/2
f 302/3/2 306/2/2 305/1/2
f 361/5/3 359/5/3 360/317/3
f 359/5/3 361/5/3 362/318/3
f 361/5/4 306/245/4 362/319/4
f 306/245/4 361/5/4 305/5/4
f 306/247/5 359/5/5 362/320/5
f 359/5/5 306/247/5 300/5/5
f 302/2/6 361/3/6 360/11/6
f 361/3/6 302/2/6 305/1/6
f 329/3/1 350/2/1 330/1/1
f 350/3/1 329/2/1 349/1/1
f 332/3/2 329/2/2 330/1/2
f 329/3/2 332/2/2 334/1/2
f 352/305/3 350/302/3 349/5/3
f 350/302/3 352/305/3 351/5/3
f 352/5/4 332/5/4 351/321/4
f 332/5/4 352/5/4 334/322/4
f 332/5/5 350/304/5 351/5/5
f 350/304/5 332/5/5 330/265/5
f 329/2/6 352/3/6 349/11/6
f 352/3/6 329/2/6 334/1/6

usemtl color7

f 310/3/1 363/2/1 308/1/1
f 363/3/1 310/2/1 364/1/1
f 314/3/2 310/2/2 308/1/2
f 310/3/2 314/2/2 313/1/2
f 365/5/3 363/5/3 364/323/3
f 363/5/3 365/5/3 366/324/3
f 365/5/4 314/251/4 366/325/4
f 314/251/4 365/5/4 313/5/4
f 314/253/5 363/5/5 366/326/5
f 363/5/5 314/253/5 308/5/5
f 310/2/6 365/3/6 364/11/6
f 365/3/6 310/2/6 313/1/6

