# Created by Kenney (www.kenney.nl)

mtllib SMG GF4 Luwest.mtl

v 9 6 -0.5
v 9 5 -0.5
v 9 6 0.5
v 9 5 0.5
v 8 6 -0.5
v 8 6 0.5
v 8 5 0.5
v 8 5 -0.5
v 8 6 -1
v 8 5 -1
v 8 6 1
v 8 5 1
v 7 6 -1
v 7 6 1
v 7 5 1
v 7 5 -1
v -7 6 -0.5
v -7 5 -0.5
v -7 6 0.5
v -7 5 0.5
v -8 6 -0.5
v -8 6 0.5
v -8 5 0.5
v -8 5 -0.5
v 14 5 -1
v 14 2 -1
v 14 5 1
v 14 2 1
v 13 5 -1
v 13 5 1
v 13 2 1
v 13 2 -1
v 13 4 -1
v 13 4 1
v 12 5 -1
v 12 5 1
v 12 4 1
v 12 4 -1
v 10 5 -1
v 10 4 -1
v 10 5 1
v 10 4 1
v 9 5 -1
v 9 5 1
v 9 4 1
v 9 4 -1
v 10 4 -1.5
v 10 3 -1.5
v 10 4 1.5
v 10 3 1.5
v 8 4 -1.5
v 8 4 1.5
v 8 3 1.5
v 8 3 -1.5
v -1 4 -1.5
v -1 1 -1.5
v -1 4 1.5
v -1 1 1.5
v -2 4 -1.5
v -2 4 1.5
v -2 1 1.5
v -2 1 -1.5
v -3 4 -1
v -3 2 -1
v -3 4 1
v -3 2 1
v -4 4 -1
v -4 4 1
v -4 2 1
v -4 2 -1
v -5 4 -1
v -5 1 -1
v -5 4 1
v -5 1 1
v -6 4 -1
v -6 4 1
v -6 1 1
v -6 1 -1
v -7 4 -1
v -7 1 -1
v -7 4 1
v -7 1 1
v -8 4 -1
v -8 4 1
v -8 1 1
v -8 1 -1
v 9 3 -1.5
v 9 2 -1.5
v 9 3 1.5
v 9 2 1.5
v 0 3 -1.5
v 0 3 1.5
v 0 2 1.5
v 0 2 -1.5
v -9 3 -1
v -9 2 -1
v -9 3 1
v -9 2 1
v -11 3 -1
v -11 3 1
v -11 2 1
v -11 2 -1
v 7 2 -1.5
v 7 1 -1.5
v 7 2 1.5
v 7 1 1.5
v 6 2 -1.5
v 6 2 1.5
v 6 1 1.5
v 6 1 -1.5
v -4 1 -1
v -4 1 1
v -5 2 -1
v -5 2 1
v -6 2 -1
v -6 2 1
v -7 2 -1
v -7 2 1
v -8 2 -1
v -8 2 1
v -9 1 1
v -9 1 -1
v 5 1 -0.5
v 5 0 -0.5
v 5 1 0.5
v 5 0 0.5
v 3 1 -0.5
v 3 1 0.5
v 3 0 0.5
v 3 0 -0.5
v 3 1 -1.5
v 3 -1 -1.5
v 3 1 1.5
v 3 -1 1.5
v 2 1 -1.5
v 2 1 1.5
v 2 -1 1.5
v 2 -1 -1.5
v 0 1 -1.5
v 0 -1 -1.5
v 0 1 1.5
v 0 -1 1.5
v -1 -1 1.5
v -1 -1 -1.5
v -1 1 -1
v -1 0 -1
v -1 1 1
v -1 0 1
v -4 0 1
v -4 0 -1
v 6 0 -1
v 6 -2 -1
v 6 0 1
v 6 -2 1
v 5 0 -1
v 5 0 1
v 5 -2 1
v 5 -2 -1
v 2 0 -1.5
v 2 0 1.5
v 0 0 -1.5
v 0 0 1.5
v 5 -1 -0.5
v 5 -2 -0.5
v 5 -1 0.5
v 5 -2 0.5
v 3 -1 -0.5
v 3 -1 0.5
v 3 -2 0.5
v 3 -2 -0.5
v 8 4 1
v 8 4 -1
v 8 5 -1.5
v 8 5 1.5
v 7 5 -1.5
v 7 5 1.5
v 7 4 1.5
v 7 4 -1.5
v -1 5 -1
v -1 4 -1
v -1 5 1
v -1 4 1
v -2 5 -1
v -2 5 1
v -2 4 1
v -2 4 -1
v -3 5 -1
v -3 5 1
v -4 5 -1
v -4 5 1
v -5 5 -1
v -5 5 1
v -6 5 -1
v -6 5 1
v -7 5 -1
v -7 5 1
v -8 5 -1
v -8 5 1
v 12 2 1
v 12 2 -1
v 1 4 -1.5
v 1 3 -1.5
v 1 4 1.5
v 1 3 1.5
v -1 3 1.5
v -1 3 -1.5
v -3 4 -1.5
v -3 4 1.5
v -3 1 1.5
v -3 1 -1.5
v -9 4 -1
v -9 4 1
v -10 4 -1
v -10 4 1
v -10 3 1
v -10 3 -1
v -4 3 -1.5
v -4 2 -1.5
v -4 3 1.5
v -4 2 1.5
v -5 3 -1.5
v -5 3 1.5
v -5 2 1.5
v -5 2 -1.5
v -6 3 -1.5
v -6 2 -1.5
v -6 3 1.5
v -6 2 1.5
v -7 3 -1.5
v -7 3 1.5
v -7 2 1.5
v -7 2 -1.5
v -13 3 -1
v -13 3 1
v -13 2 1
v -13 2 -1
v 14 0 -1
v 14 0 1
v 13 0 1
v 13 0 -1
v 9 2 -1
v 9 1 -1
v 9 2 1
v 9 1 1
v 8 2 -1
v 8 2 1
v 8 1 1
v 8 1 -1
v 5 2 -1.5
v 5 2 1.5
v 5 1 1.5
v 5 1 -1.5
v -1 2 -1.5
v -1 2 1.5
v -3 2 -1.5
v -3 2 1.5
v -4 1 1.5
v -4 1 -1.5
v 7 1 -0.5
v 7 0 -0.5
v 7 1 0.5
v 7 0 0.5
v 1 1 -1.5
v 1 1 1.5
v 1 0 1.5
v 1 0 -1.5
v -8 1 -0.5
v -8 0 -0.5
v -8 1 0.5
v -8 0 0.5
v -9 1 -0.5
v -9 1 0.5
v -9 0 0.5
v -9 0 -0.5
v 8 0 -0.5
v 8 -2 -0.5
v 8 0 0.5
v 8 -2 0.5
v 7 -2 0.5
v 7 -2 -0.5
v 2 -1 -1
v 2 -2 -1
v 2 -1 1
v 2 -2 1
v 1 -1 -1
v 1 -1 1
v 1 -2 1
v 1 -2 -1
v 9 -2 -0.5
v 9 -4 -0.5
v 9 -2 0.5
v 9 -4 0.5
v 8 -4 0.5
v 8 -4 -0.5
v 6 5 -1.5
v 6 5 1.5
v 6 4 1.5
v 6 4 -1.5
v 3 5 -1.5
v 3 4 -1.5
v 3 5 1.5
v 3 4 1.5
v 1 5 -1.5
v 1 5 1.5
v 5 5 -1.5
v 5 5 1.5
v 5 4 1.5
v 5 4 -1.5
v 0 5 -1.5
v 0 5 1.5
v 0 4 1.5
v 0 4 -1.5
v 0 5 -1
v 0 4 -1
v 0 5 1
v 0 4 1
v -9 5 -1
v -9 5 1
v -11 4 -1
v -11 4 1
v -13 4 -1
v -13 4 1
v 12 3 -0.5
v 12 2 -0.5
v 12 3 0.5
v 12 2 0.5
v 10 3 -0.5
v 10 3 0.5
v 10 2 0.5
v 10 2 -0.5
v 7 -2 -1
v 7 -3 -1
v 7 -2 1
v 7 -3 1
v 6 -3 1
v 6 -3 -1
v 1 -4 -1
v 1 -4 1
v 0 -2 -1
v 0 -2 1
v 0 -4 1
v 0 -4 -1
v 8 -3 -1
v 8 -5 -1
v 8 -3 1
v 8 -5 1
v 7 -5 1
v 7 -5 -1
v 0 -5 -1
v 0 -6 -1
v 0 -5 1
v 0 -6 1
v -1 -5 -1
v -1 -5 1
v -1 -6 1
v -1 -6 -1
v 12 4 -0.5
v 12 4 0.5
v 10 4 -0.5
v 10 4 0.5
v -4 4 -1.5
v -4 4 1.5
v -5 4 -1.5
v -5 4 1.5
v -6 4 -1.5
v -6 4 1.5
v -7 4 -1.5
v -7 4 1.5
v -8 4 -1.5
v -8 2 -1.5
v -8 4 1.5
v -8 2 1.5
v -9 4 -1.5
v -9 4 1.5
v -9 2 1.5
v -9 2 -1.5
v 10 3 -1
v 10 2 -1
v 10 3 1
v 10 2 1
v 9 3 -1
v 9 3 1
v 13 1 -1
v 13 1 1
v 12 1 1
v 12 1 -1
v 7 2 -1
v 7 2 1
v 7 1 1
v 7 1 -1
v 2 2 -1.5
v 2 2 1.5
v 1 2 -1.5
v 1 2 1.5
v 13 1 -0.5
v 13 0 -0.5
v 13 1 0.5
v 13 0 0.5
v 12 1 -0.5
v 12 1 0.5
v 12 0 0.5
v 12 0 -0.5
v 14 -1 -1
v 14 -1 1
v 13 -1 1
v 13 -1 -1
v 7 0 -1
v 7 0 1
v 14 -1 -0.5
v 14 -2 -0.5
v 14 -1 0.5
v 14 -2 0.5
v 13 -1 -0.5
v 13 -1 0.5
v 13 -2 0.5
v 13 -2 -0.5
v 0 -1 -1
v 0 -1 1
v 8 -2 -1
v 8 -2 1
v 2 -4 -1
v 2 -4 1
v 9 -4 -1
v 9 -5 -1
v 9 -4 1
v 9 -5 1
v 8 -4 -1
v 8 -4 1
v 1 -5 -1
v 1 -6 -1
v 1 -5 1
v 1 -6 1
v 8 3 -1
v 8 3 1
v 2 4 -1
v 2 4 1
v 2 3 1
v 2 3 -1
v 2 4 -1.5
v 2 3 -1.5
v 2 4 1.5
v 2 3 1.5
v -13 4 -0.5
v -13 3 -0.5
v -13 4 0.5
v -13 3 0.5
v -14 4 -0.5
v -14 4 0.5
v -14 3 0.5
v -14 3 -0.5
v 2 2 -2
v 2 1 -2
v 2 2 2
v 2 1 2
v 1 2 -2
v 1 2 2
v 1 1 2
v 1 1 -2
v 1 0 -2
v 1 0 2
v 0 1 -2
v 0 1 2
v 0 0 2
v 0 0 -2
v -1 -4 -1
v -1 -4 1

vn 1 0 0
vn 0 1 0
vn 0 -1 0
vn -1 0 0
vn 0 0 -1
vn 0 0 1

vt -19.68504 19.68504
vt 19.68504 19.68504
vt -19.68504 -19.68504
vt 0 NaN
vt 0 0
vt 0 NaN
vt 0 NaN
vt 0 NaN
vt 0 NaN
vt 0 NaN
vt 19.68504 -19.68504
vt 0 NaN
vt 0 NaN
vt 0 NaN
vt 0 NaN
vt 0 NaN
vt 0 NaN
vt 0 NaN
vt 0 NaN
vt 0 NaN
vt 0 NaN
vt 0 NaN
vt 0 NaN
vt 0 NaN
vt 0 NaN
vt 0 NaN
vt 0 NaN
vt 0 NaN
vt 0 NaN
vt 0 NaN
vt 0 NaN
vt 0 NaN
vt 0 NaN
vt 0 NaN
vt 0 NaN
vt 0 NaN
vt 0 NaN
vt 0 NaN
vt 0 NaN
vt 0 NaN
vt 0 NaN
vt 0 NaN
vt 0 NaN
vt 0 NaN
vt 0 NaN
vt 0 NaN
vt 0 NaN
vt 0 NaN
vt 0 NaN
vt 0 NaN
vt 0 NaN
vt 0 NaN
vt 0 NaN
vt 0 NaN
vt 0 NaN
vt 0 NaN
vt 0 NaN
vt 0 NaN
vt 0 NaN
vt 0 NaN
vt 0 NaN
vt 0 NaN
vt 0 NaN
vt 0 NaN
vt 0 NaN
vt 0 NaN
vt 0 NaN
vt 0 NaN
vt 0 NaN
vt 0 NaN
vt 0 NaN
vt 0 NaN
vt 0 NaN
vt 0 NaN
vt 0 NaN
vt 0 NaN
vt 0 NaN
vt 0 NaN
vt 0 NaN
vt 0 NaN
vt 0 NaN
vt 0 NaN
vt 0 NaN
vt 0 NaN
vt 0 NaN
vt 0 NaN
vt 0 NaN
vt 0 NaN
vt 0 NaN
vt 0 NaN
vt 0 NaN
vt 0 NaN
vt 0 NaN
vt 0 NaN
vt 0 NaN
vt 0 NaN
vt 0 NaN
vt 0 NaN
vt 0 NaN
vt 0 NaN
vt 0 NaN
vt 0 NaN
vt 0 NaN
vt 0 NaN
vt 0 NaN
vt 0 NaN
vt 0 NaN
vt 0 NaN
vt 0 NaN
vt 0 NaN
vt 0 NaN
vt 0 NaN
vt 0 NaN
vt 0 NaN
vt 0 NaN
vt 0 NaN
vt 0 NaN
vt 0 NaN
vt 0 NaN
vt 0 NaN
vt 0 NaN
vt 0 NaN
vt 0 NaN
vt 0 NaN
vt 0 NaN
vt 0 NaN
vt 0 NaN
vt 0 NaN
vt 0 NaN
vt 0 NaN
vt 0 NaN
vt 0 NaN
vt 0 NaN
vt 0 NaN
vt 0 NaN
vt 0 NaN
vt 0 NaN
vt 0 NaN
vt 0 NaN
vt 0 NaN
vt 0 NaN
vt 0 NaN
vt 0 NaN
vt 0 NaN
vt 0 NaN
vt 0 NaN
vt 0 NaN
vt 0 NaN
vt 0 NaN
vt 0 NaN
vt 0 NaN
vt 0 NaN
vt 0 NaN
vt 0 NaN
vt 0 NaN
vt 0 NaN
vt 0 NaN
vt 0 NaN
vt 0 NaN
vt 0 NaN
vt 0 NaN
vt 0 NaN
vt 0 NaN
vt 0 NaN
vt 0 NaN
vt 0 NaN
vt 0 NaN
vt 0 NaN
vt 0 NaN
vt 0 NaN
vt 0 NaN
vt 0 NaN
vt 0 NaN
vt 0 NaN
vt 0 NaN
vt 0 NaN
vt 0 NaN
vt 0 NaN
vt 0 NaN
vt 0 NaN
vt 0 NaN
vt 0 NaN
vt 0 NaN
vt 0 NaN
vt 0 NaN
vt 0 NaN
vt 0 NaN
vt 0 NaN
vt 0 NaN
vt 0 NaN
vt 0 NaN
vt 0 NaN
vt 0 NaN
vt 0 NaN
vt 0 NaN
vt 0 NaN
vt 0 NaN
vt 0 NaN
vt 0 NaN
vt 0 NaN
vt 0 NaN
vt 0 NaN
vt 0 NaN
vt 0 NaN
vt 0 NaN
vt 0 NaN
vt 0 NaN
vt 0 NaN
vt 0 NaN
vt 0 NaN
vt 0 NaN
vt 0 NaN
vt 0 NaN
vt 0 NaN
vt 0 NaN
vt 0 NaN
vt 0 NaN
vt 0 NaN
vt 0 NaN
vt 0 NaN
vt 0 NaN
vt 0 NaN
vt 0 NaN
vt 0 NaN
vt 0 NaN
vt 0 NaN
vt 0 NaN
vt 0 NaN
vt 0 NaN
vt 0 NaN
vt 0 NaN
vt 0 NaN
vt 0 NaN
vt 0 NaN
vt 0 NaN
vt 0 NaN
vt 0 NaN
vt 0 NaN
vt 0 NaN
vt 0 NaN
vt 0 NaN
vt 0 NaN
vt 0 NaN
vt 0 NaN
vt 0 NaN
vt 0 NaN
vt 0 NaN
vt 0 NaN
vt 0 NaN
vt 0 NaN
vt 0 NaN
vt 0 NaN
vt 0 NaN
vt 0 NaN
vt 0 NaN
vt 0 NaN
vt 0 NaN
vt 0 NaN
vt 0 NaN
vt 0 NaN
vt 0 NaN
vt 0 NaN
vt 0 NaN
vt 0 NaN
vt 0 NaN
vt 0 NaN
vt 0 NaN
vt 0 NaN
vt 0 NaN
vt 0 NaN
vt 0 NaN
vt 0 NaN
vt 0 NaN
vt 0 NaN
vt 0 NaN
vt 0 NaN
vt 0 NaN
vt 0 NaN
vt 0 NaN
vt 0 NaN
vt 0 NaN
vt 0 NaN
vt 0 NaN
vt 0 NaN
vt 0 NaN
vt 0 NaN
vt 0 NaN
vt 0 NaN
vt 0 NaN
vt 0 NaN
vt 0 NaN
vt 0 NaN
vt 0 NaN
vt 0 NaN
vt 0 NaN
vt 0 NaN
vt 0 NaN
vt 0 NaN
vt 0 NaN
vt 0 NaN
vt 0 NaN
vt 0 NaN
vt 0 NaN
vt 0 NaN
vt 0 NaN
vt 0 NaN
vt 0 NaN
vt 0 NaN
vt 0 NaN
vt 0 NaN
vt 0 NaN
vt 0 NaN
vt 0 NaN
vt 0 NaN
vt 0 NaN
vt 0 NaN
vt 0 NaN
vt 0 NaN
vt 0 NaN
vt 0 NaN
vt 0 NaN
vt 0 NaN
vt 0 NaN
vt 0 NaN
vt 0 NaN
vt 0 NaN
vt 0 NaN
vt 0 NaN
vt 0 NaN
vt 0 NaN
vt 0 NaN
vt 0 NaN
vt 0 NaN
vt 0 NaN
vt 0 NaN
vt 0 NaN
vt 0 NaN
vt 0 NaN
vt 0 NaN
vt 0 NaN
vt 0 NaN
vt 0 NaN
vt 0 NaN
vt 0 NaN
vt 0 NaN
vt 0 NaN
vt 0 NaN
vt 0 NaN
vt 0 NaN
vt 0 NaN
vt 0 NaN
vt 0 NaN
vt 0 NaN
vt 0 NaN
vt 0 NaN
vt 0 NaN
vt 0 NaN
vt 0 NaN
vt 0 NaN
vt 0 NaN
vt 0 NaN
vt 0 NaN
vt 0 NaN
vt 0 NaN
vt 0 NaN
vt 0 NaN
vt 0 NaN
vt 0 NaN
vt 0 NaN
vt 0 NaN
vt 0 NaN
vt 0 NaN
vt 0 NaN
vt 0 NaN
vt 0 NaN
vt 0 NaN
vt 0 NaN
vt 0 NaN
vt 0 NaN
vt 0 NaN
vt 0 NaN
vt 0 NaN
vt 0 NaN
vt 0 NaN
vt 0 NaN
vt 0 NaN
vt 0 NaN
vt 0 NaN
vt 0 NaN
vt 0 NaN
vt 0 NaN
vt 0 NaN
vt 0 NaN
vt 0 NaN
vt 0 NaN
vt 0 NaN
vt 0 NaN
vt 0 NaN
vt 0 NaN
vt 0 NaN
vt 0 NaN
vt 0 NaN
vt 0 NaN
vt 0 NaN
vt 0 NaN
vt 0 NaN
vt 0 NaN
vt 0 NaN
vt 0 NaN
vt 0 NaN
vt 0 NaN
vt 0 NaN
vt 0 NaN
vt 0 NaN
vt 0 NaN
vt 0 NaN
vt 0 NaN
vt 0 NaN
vt 0 NaN
vt 0 NaN
vt 0 NaN

usemtl color7

f 3/3/1 2/2/1 1/1/1
f 2/3/1 3/2/1 4/1/1
f 5/3/2 3/2/2 1/1/2
f 3/3/2 5/2/2 6/1/2
f 7/5/3 2/5/3 4/4/3
f 2/5/3 7/5/3 8/6/3
f 7/5/4 5/5/4 8/7/4
f 5/5/4 7/5/4 6/8/4
f 5/5/5 2/5/5 8/9/5
f 2/5/5 5/5/5 1/10/5
f 3/2/6 7/3/6 4/11/6
f 7/3/6 3/2/6 6/1/6
f 11/3/1 10/2/1 9/1/1
f 10/3/1 11/2/1 12/1/1
f 13/3/2 11/2/2 9/1/2
f 11/3/2 13/2/2 14/1/2
f 15/5/3 10/5/3 12/12/3
f 10/5/3 15/5/3 16/13/3
f 15/5/4 13/5/4 16/14/4
f 13/5/4 15/5/4 14/15/4
f 13/5/5 10/5/5 16/16/5
f 10/5/5 13/5/5 9/17/5
f 11/2/6 15/3/6 12/11/6
f 15/3/6 11/2/6 14/1/6
f 19/3/1 18/2/1 17/1/1
f 18/3/1 19/2/1 20/1/1
f 21/3/2 19/2/2 17/1/2
f 19/3/2 21/2/2 22/1/2
f 23/5/3 18/5/3 20/18/3
f 18/5/3 23/5/3 24/19/3
f 23/5/4 21/5/4 24/20/4
f 21/5/4 23/5/4 22/21/4
f 21/5/5 18/5/5 24/22/5
f 18/5/5 21/5/5 17/23/5
f 19/2/6 23/3/6 20/11/6
f 23/3/6 19/2/6 22/1/6
f 3/3/1 2/2/1 1/1/1
f 2/3/1 3/2/1 4/1/1
f 5/3/2 3/2/2 1/1/2
f 3/3/2 5/2/2 6/1/2
f 7/5/3 2/5/3 4/4/3
f 2/5/3 7/5/3 8/6/3
f 7/5/4 5/5/4 8/7/4
f 5/5/4 7/5/4 6/8/4
f 5/5/5 2/5/5 8/9/5
f 2/5/5 5/5/5 1/10/5
f 3/2/6 7/3/6 4/11/6
f 7/3/6 3/2/6 6/1/6
f 27/3/1 26/2/1 25/1/1
f 26/3/1 27/2/1 28/1/1
f 29/3/2 27/2/2 25/1/2
f 27/3/2 29/2/2 30/1/2
f 31/5/3 26/5/3 28/24/3
f 26/5/3 31/5/3 32/25/3
f 31/5/4 29/5/4 32/26/4
f 29/5/4 31/5/4 30/27/4
f 29/5/5 26/5/5 32/28/5
f 26/5/5 29/5/5 25/29/5
f 27/2/6 31/3/6 28/11/6
f 31/3/6 27/2/6 30/1/6
f 30/3/1 33/2/1 29/1/1
f 33/3/1 30/2/1 34/1/1
f 35/3/2 30/2/2 29/1/2
f 30/3/2 35/2/2 36/1/2
f 37/5/3 33/5/3 34/30/3
f 33/5/3 37/5/3 38/31/3
f 37/5/4 35/5/4 38/32/4
f 35/5/4 37/5/4 36/33/4
f 35/5/5 33/5/5 38/34/5
f 33/5/5 35/5/5 29/5/5
f 30/2/6 37/3/6 34/11/6
f 37/3/6 30/2/6 36/1/6
f 41/3/1 40/2/1 39/1/1
f 40/3/1 41/2/1 42/1/1
f 43/3/2 41/2/2 39/1/2
f 41/3/2 43/2/2 44/1/2
f 45/5/3 40/5/3 42/35/3
f 40/5/3 45/5/3 46/36/3
f 45/5/4 43/5/4 46/37/4
f 43/5/4 45/5/4 44/38/4
f 43/5/5 40/5/5 46/39/5
f 40/5/5 43/5/5 39/40/5
f 41/2/6 45/3/6 42/11/6
f 45/3/6 41/2/6 44/1/6
f 49/3/1 48/2/1 47/1/1
f 48/3/1 49/2/1 50/1/1
f 51/3/2 49/2/2 47/1/2
f 49/3/2 51/2/2 52/1/2
f 53/5/3 48/5/3 50/41/3
f 48/5/3 53/5/3 54/42/3
f 53/5/4 51/5/4 54/43/4
f 51/5/4 53/5/4 52/44/4
f 51/5/5 48/5/5 54/45/5
f 48/5/5 51/5/5 47/46/5
f 49/2/6 53/3/6 50/11/6
f 53/3/6 49/2/6 52/1/6
f 57/3/1 56/2/1 55/1/1
f 56/3/1 57/2/1 58/1/1
f 59/3/2 57/2/2 55/1/2
f 57/3/2 59/2/2 60/1/2
f 61/5/3 56/5/3 58/47/3
f 56/5/3 61/5/3 62/48/3
f 61/5/4 59/5/4 62/49/4
f 59/5/4 61/5/4 60/50/4
f 59/5/5 56/5/5 62/51/5
f 56/5/5 59/5/5 55/52/5
f 57/2/6 61/3/6 58/11/6
f 61/3/6 57/2/6 60/1/6
f 65/3/1 64/2/1 63/1/1
f 64/3/1 65/2/1 66/1/1
f 67/3/2 65/2/2 63/1/2
f 65/3/2 67/2/2 68/1/2
f 69/5/3 64/5/3 66/53/3
f 64/5/3 69/5/3 70/54/3
f 69/5/4 67/5/4 70/55/4
f 67/5/4 69/5/4 68/56/4
f 67/5/5 64/5/5 70/57/5
f 64/5/5 67/5/5 63/58/5
f 65/2/6 69/3/6 66/11/6
f 69/3/6 65/2/6 68/1/6
f 73/3/1 72/2/1 71/1/1
f 72/3/1 73/2/1 74/1/1
f 75/3/2 73/2/2 71/1/2
f 73/3/2 75/2/2 76/1/2
f 77/5/3 72/5/3 74/59/3
f 72/5/3 77/5/3 78/60/3
f 77/5/4 75/5/4 78/61/4
f 75/5/4 77/5/4 76/62/4
f 75/5/5 72/5/5 78/63/5
f 72/5/5 75/5/5 71/64/5
f 73/2/6 77/3/6 74/11/6
f 77/3/6 73/2/6 76/1/6
f 81/3/1 80/2/1 79/1/1
f 80/3/1 81/2/1 82/1/1
f 83/3/2 81/2/2 79/1/2
f 81/3/2 83/2/2 84/1/2
f 85/5/3 80/5/3 82/65/3
f 80/5/3 85/5/3 86/66/3
f 85/5/4 83/5/4 86/67/4
f 83/5/4 85/5/4 84/68/4
f 83/5/5 80/5/5 86/69/5
f 80/5/5 83/5/5 79/70/5
f 81/2/6 85/3/6 82/11/6
f 85/3/6 81/2/6 84/1/6
f 89/3/1 88/2/1 87/1/1
f 88/3/1 89/2/1 90/1/1
f 91/3/2 89/2/2 87/1/2
f 89/3/2 91/2/2 92/1/2
f 93/5/3 88/5/3 90/71/3
f 88/5/3 93/5/3 94/72/3
f 93/5/4 91/5/4 94/73/4
f 91/5/4 93/5/4 92/74/4
f 91/5/5 88/5/5 94/75/5
f 88/5/5 91/5/5 87/76/5
f 89/2/6 93/3/6 90/11/6
f 93/3/6 89/2/6 92/1/6
f 97/3/1 96/2/1 95/1/1
f 96/3/1 97/2/1 98/1/1
f 99/3/2 97/2/2 95/1/2
f 97/3/2 99/2/2 100/1/2
f 101/5/3 96/5/3 98/77/3
f 96/5/3 101/5/3 102/78/3
f 101/5/4 99/5/4 102/79/4
f 99/5/4 101/5/4 100/80/4
f 99/5/5 96/5/5 102/81/5
f 96/5/5 99/5/5 95/82/5
f 97/2/6 101/3/6 98/11/6
f 101/3/6 97/2/6 100/1/6
f 105/3/1 104/2/1 103/1/1
f 104/3/1 105/2/1 106/1/1
f 107/3/2 105/2/2 103/1/2
f 105/3/2 107/2/2 108/1/2
f 109/5/3 104/5/3 106/83/3
f 104/5/3 109/5/3 110/84/3
f 109/5/4 107/5/4 110/85/4
f 107/5/4 109/5/4 108/86/4
f 107/5/5 104/5/5 110/87/5
f 104/5/5 107/5/5 103/88/5
f 105/2/6 109/3/6 106/11/6
f 109/3/6 105/2/6 108/1/6
f 69/3/1 111/2/1 70/1/1
f 111/3/1 69/2/1 112/1/1
f 113/3/2 69/2/2 70/1/2
f 69/3/2 113/2/2 114/1/2
f 74/59/3 111/5/3 112/89/3
f 111/5/3 74/59/3 72/5/3
f 74/5/4 113/5/4 72/90/4
f 113/5/4 74/5/4 114/91/4
f 113/5/5 111/5/5 72/5/5
f 111/5/5 113/5/5 70/57/5
f 69/2/6 74/3/6 112/11/6
f 74/3/6 69/2/6 114/1/6
f 116/3/1 78/2/1 115/1/1
f 78/3/1 116/2/1 77/1/1
f 117/3/2 116/2/2 115/1/2
f 116/3/2 117/2/2 118/1/2
f 82/65/3 78/60/3 77/5/3
f 78/60/3 82/65/3 80/5/3
f 82/5/4 117/5/4 80/92/4
f 117/5/4 82/5/4 118/93/4
f 117/5/5 78/63/5 80/5/5
f 78/63/5 117/5/5 115/94/5
f 116/2/6 82/3/6 77/11/6
f 82/3/6 116/2/6 118/1/6
f 120/3/1 86/2/1 119/1/1
f 86/3/1 120/2/1 85/1/1
f 96/3/2 120/2/2 119/1/2
f 120/3/2 96/2/2 98/1/2
f 121/5/3 86/66/3 85/5/3
f 86/66/3 121/5/3 122/95/3
f 121/5/4 96/5/4 122/96/4
f 96/5/4 121/5/4 98/97/4
f 96/5/5 86/69/5 122/98/5
f 86/69/5 96/5/5 119/99/5
f 120/2/6 121/3/6 85/11/6
f 121/3/6 120/2/6 98/1/6
f 125/3/1 124/2/1 123/1/1
f 124/3/1 125/2/1 126/1/1
f 127/3/2 125/2/2 123/1/2
f 125/3/2 127/2/2 128/1/2
f 129/5/3 124/5/3 126/100/3
f 124/5/3 129/5/3 130/101/3
f 129/5/4 127/5/4 130/102/4
f 127/5/4 129/5/4 128/103/4
f 127/5/5 124/5/5 130/104/5
f 124/5/5 127/5/5 123/105/5
f 125/2/6 129/3/6 126/11/6
f 129/3/6 125/2/6 128/1/6
f 133/3/1 132/2/1 131/1/1
f 132/3/1 133/2/1 134/1/1
f 135/3/2 133/2/2 131/1/2
f 133/3/2 135/2/2 136/1/2
f 137/5/3 132/5/3 134/106/3
f 132/5/3 137/5/3 138/107/3
f 137/5/4 135/5/4 138/108/4
f 135/5/4 137/5/4 136/109/4
f 135/5/5 132/5/5 138/110/5
f 132/5/5 135/5/5 131/111/5
f 133/2/6 137/3/6 134/11/6
f 137/3/6 133/2/6 136/1/6
f 141/3/1 140/2/1 139/1/1
f 140/3/1 141/2/1 142/1/1
f 56/3/2 141/2/2 139/1/2
f 141/3/2 56/2/2 58/1/2
f 143/5/3 140/5/3 142/112/3
f 140/5/3 143/5/3 144/113/3
f 143/5/4 56/5/4 144/114/4
f 56/5/4 143/5/4 58/115/4
f 56/5/5 140/5/5 144/116/5
f 140/5/5 56/5/5 139/117/5
f 141/2/6 143/3/6 142/11/6
f 143/3/6 141/2/6 58/1/6
f 147/3/1 146/2/1 145/1/1
f 146/3/1 147/2/1 148/1/1
f 111/3/2 147/2/2 145/1/2
f 147/3/2 111/2/2 112/1/2
f 149/5/3 146/5/3 148/118/3
f 146/5/3 149/5/3 150/119/3
f 149/5/4 111/5/4 150/120/4
f 111/5/4 149/5/4 112/121/4
f 111/5/5 146/5/5 150/122/5
f 146/5/5 111/5/5 145/123/5
f 147/2/6 149/3/6 148/11/6
f 149/3/6 147/2/6 112/1/6
f 153/3/1 152/2/1 151/1/1
f 152/3/1 153/2/1 154/1/1
f 155/3/2 153/2/2 151/1/2
f 153/3/2 155/2/2 156/1/2
f 157/5/3 152/5/3 154/124/3
f 152/5/3 157/5/3 158/125/3
f 157/5/4 155/5/4 158/126/4
f 155/5/4 157/5/4 156/127/4
f 155/5/5 152/5/5 158/128/5
f 152/5/5 155/5/5 151/129/5
f 153/2/6 157/3/6 154/11/6
f 157/3/6 153/2/6 156/1/6
f 160/3/1 138/2/1 159/1/1
f 138/3/1 160/2/1 137/1/1
f 161/3/2 160/2/2 159/1/2
f 160/3/2 161/2/2 162/1/2
f 142/112/3 138/107/3 137/5/3
f 138/107/3 142/112/3 140/5/3
f 142/5/4 161/5/4 140/130/4
f 161/5/4 142/5/4 162/131/4
f 161/5/5 138/110/5 140/5/5
f 138/110/5 161/5/5 159/132/5
f 160/2/6 142/3/6 137/11/6
f 142/3/6 160/2/6 162/1/6
f 165/3/1 164/2/1 163/1/1
f 164/3/1 165/2/1 166/1/1
f 167/3/2 165/2/2 163/1/2
f 165/3/2 167/2/2 168/1/2
f 169/5/3 164/5/3 166/133/3
f 164/5/3 169/5/3 170/134/3
f 169/5/4 167/5/4 170/135/4
f 167/5/4 169/5/4 168/136/4
f 167/5/5 164/5/5 170/137/5
f 164/5/5 167/5/5 163/138/5
f 165/2/6 169/3/6 166/11/6
f 169/3/6 165/2/6 168/1/6
f 30/3/1 33/2/1 29/1/1
f 33/3/1 30/2/1 34/1/1
f 35/3/2 30/2/2 29/1/2
f 30/3/2 35/2/2 36/1/2
f 37/5/3 33/5/3 34/30/3
f 33/5/3 37/5/3 38/31/3
f 37/5/4 35/5/4 38/32/4
f 35/5/4 37/5/4 36/33/4
f 35/5/5 33/5/5 38/34/5
f 33/5/5 35/5/5 29/5/5
f 30/2/6 37/3/6 34/11/6
f 37/3/6 30/2/6 36/1/6

usemtl color6

f 44/3/1 46/2/1 43/1/1
f 46/3/1 44/2/1 45/1/1
f 10/3/2 44/2/2 43/1/2
f 44/3/2 10/2/2 12/1/2
f 171/5/3 46/36/3 45/5/3
f 46/36/3 171/5/3 172/139/3
f 171/5/4 10/5/4 172/140/4
f 10/5/4 171/5/4 12/141/4
f 10/5/5 46/39/5 172/142/5
f 46/39/5 10/5/5 43/5/5
f 44/2/6 171/3/6 45/11/6
f 171/3/6 44/2/6 12/1/6
f 174/3/1 51/2/1 173/1/1
f 51/3/1 174/2/1 52/1/1
f 175/3/2 174/2/2 173/1/2
f 174/3/2 175/2/2 176/1/2
f 177/5/3 51/5/3 52/143/3
f 51/5/3 177/5/3 178/144/3
f 177/5/4 175/5/4 178/145/4
f 175/5/4 177/5/4 176/146/4
f 175/5/5 51/5/5 178/147/5
f 51/5/5 175/5/5 173/148/5
f 174/2/6 177/3/6 52/11/6
f 177/3/6 174/2/6 176/1/6
f 181/3/1 180/2/1 179/1/1
f 180/3/1 181/2/1 182/1/1
f 183/3/2 181/2/2 179/1/2
f 181/3/2 183/2/2 184/1/2
f 185/5/3 180/5/3 182/149/3
f 180/5/3 185/5/3 186/150/3
f 185/5/4 183/5/4 186/151/4
f 183/5/4 185/5/4 184/152/4
f 183/5/5 180/5/5 186/153/5
f 180/5/5 183/5/5 179/154/5
f 181/2/6 185/3/6 182/11/6
f 185/3/6 181/2/6 184/1/6
f 188/3/1 63/2/1 187/1/1
f 63/3/1 188/2/1 65/1/1
f 189/3/2 188/2/2 187/1/2
f 188/3/2 189/2/2 190/1/2
f 68/5/3 63/5/3 65/155/3
f 63/5/3 68/5/3 67/156/3
f 68/56/4 189/5/4 67/5/4
f 189/5/4 68/56/4 190/157/4
f 189/5/5 63/58/5 67/5/5
f 63/58/5 189/5/5 187/158/5
f 188/2/6 68/3/6 65/11/6
f 68/3/6 188/2/6 190/1/6
f 192/3/1 71/2/1 191/1/1
f 71/3/1 192/2/1 73/1/1
f 193/3/2 192/2/2 191/1/2
f 192/3/2 193/2/2 194/1/2
f 76/5/3 71/5/3 73/159/3
f 71/5/3 76/5/3 75/160/3
f 76/62/4 193/5/4 75/5/4
f 193/5/4 76/62/4 194/161/4
f 193/5/5 71/64/5 75/5/5
f 71/64/5 193/5/5 191/162/5
f 192/2/6 76/3/6 73/11/6
f 76/3/6 192/2/6 194/1/6
f 196/3/1 79/2/1 195/1/1
f 79/3/1 196/2/1 81/1/1
f 197/3/2 196/2/2 195/1/2
f 196/3/2 197/2/2 198/1/2
f 84/5/3 79/5/3 81/163/3
f 79/5/3 84/5/3 83/164/3
f 84/68/4 197/5/4 83/5/4
f 197/5/4 84/68/4 198/165/4
f 197/5/5 79/70/5 83/5/5
f 79/70/5 197/5/5 195/166/5
f 196/2/6 84/3/6 81/11/6
f 84/3/6 196/2/6 198/1/6
f 34/3/1 32/2/1 33/1/1
f 32/3/1 34/2/1 31/1/1
f 38/3/2 34/2/2 33/1/2
f 34/3/2 38/2/2 37/1/2
f 199/5/3 32/25/3 31/5/3
f 32/25/3 199/5/3 200/167/3
f 199/5/4 38/32/4 200/168/4
f 38/32/4 199/5/4 37/5/4
f 38/34/5 32/28/5 200/169/5
f 32/28/5 38/34/5 33/5/5
f 34/2/6 199/3/6 31/11/6
f 199/3/6 34/2/6 37/1/6
f 203/3/1 202/2/1 201/1/1
f 202/3/1 203/2/1 204/1/1
f 55/3/2 203/2/2 201/1/2
f 203/3/2 55/2/2 57/1/2
f 205/5/3 202/5/3 204/170/3
f 202/5/3 205/5/3 206/171/3
f 205/5/4 55/5/4 206/172/4
f 55/5/4 205/5/4 57/173/4
f 55/52/5 202/5/5 206/174/5
f 202/5/5 55/52/5 201/175/5
f 203/2/6 205/3/6 204/11/6
f 205/3/6 203/2/6 57/1/6
f 60/3/1 62/2/1 59/1/1
f 62/3/1 60/2/1 61/1/1
f 207/3/2 60/2/2 59/1/2
f 60/3/2 207/2/2 208/1/2
f 209/5/3 62/48/3 61/5/3
f 62/48/3 209/5/3 210/176/3
f 209/5/4 207/5/4 210/177/4
f 207/5/4 209/5/4 208/178/4
f 207/5/5 62/51/5 210/179/5
f 62/51/5 207/5/5 59/5/5
f 60/2/6 209/3/6 61/11/6
f 209/3/6 60/2/6 208/1/6
f 212/3/1 95/2/1 211/1/1
f 95/3/1 212/2/1 97/1/1
f 213/3/2 212/2/2 211/1/2
f 212/3/2 213/2/2 214/1/2
f 215/5/3 95/5/3 97/180/3
f 95/5/3 215/5/3 216/181/3
f 215/5/4 213/5/4 216/182/4
f 213/5/4 215/5/4 214/183/4
f 213/5/5 95/82/5 216/184/5
f 95/82/5 213/5/5 211/185/5
f 212/2/6 215/3/6 97/11/6
f 215/3/6 212/2/6 214/1/6
f 219/3/1 218/2/1 217/1/1
f 218/3/1 219/2/1 220/1/1
f 221/3/2 219/2/2 217/1/2
f 219/3/2 221/2/2 222/1/2
f 223/5/3 218/5/3 220/186/3
f 218/5/3 223/5/3 224/187/3
f 223/5/4 221/5/4 224/188/4
f 221/5/4 223/5/4 222/189/4
f 221/5/5 218/5/5 224/190/5
f 218/5/5 221/5/5 217/191/5
f 219/2/6 223/3/6 220/11/6
f 223/3/6 219/2/6 222/1/6
f 227/3/1 226/2/1 225/1/1
f 226/3/1 227/2/1 228/1/1
f 229/3/2 227/2/2 225/1/2
f 227/3/2 229/2/2 230/1/2
f 231/5/3 226/5/3 228/192/3
f 226/5/3 231/5/3 232/193/3
f 231/5/4 229/5/4 232/194/4
f 229/5/4 231/5/4 230/195/4
f 229/5/5 226/5/5 232/196/5
f 226/5/5 229/5/5 225/197/5
f 227/2/6 231/3/6 228/11/6
f 231/3/6 227/2/6 230/1/6
f 100/3/1 102/2/1 99/1/1
f 102/3/1 100/2/1 101/1/1
f 233/3/2 100/2/2 99/1/2
f 100/3/2 233/2/2 234/1/2
f 235/5/3 102/78/3 101/5/3
f 102/78/3 235/5/3 236/198/3
f 235/5/4 233/5/4 236/199/4
f 233/5/4 235/5/4 234/200/4
f 233/5/5 102/81/5 236/201/5
f 102/81/5 233/5/5 99/5/5
f 100/2/6 235/3/6 101/11/6
f 235/3/6 100/2/6 234/1/6
f 28/3/1 237/2/1 26/1/1
f 237/3/1 28/2/1 238/1/1
f 32/3/2 28/2/2 26/1/2
f 28/3/2 32/2/2 31/1/2
f 239/5/3 237/5/3 238/202/3
f 237/5/3 239/5/3 240/203/3
f 239/5/4 32/26/4 240/204/4
f 32/26/4 239/5/4 31/5/4
f 32/28/5 237/5/5 240/205/5
f 237/5/5 32/28/5 26/5/5
f 28/2/6 239/3/6 238/11/6
f 239/3/6 28/2/6 31/1/6
f 243/3/1 242/2/1 241/1/1
f 242/3/1 243/2/1 244/1/1
f 245/3/2 243/2/2 241/1/2
f 243/3/2 245/2/2 246/1/2
f 247/5/3 242/5/3 244/206/3
f 242/5/3 247/5/3 248/207/3
f 247/5/4 245/5/4 248/208/4
f 245/5/4 247/5/4 246/209/4
f 245/5/5 242/5/5 248/210/5
f 242/5/5 245/5/5 241/211/5
f 243/2/6 247/3/6 244/11/6
f 247/3/6 243/2/6 246/1/6
f 108/3/1 110/2/1 107/1/1
f 110/3/1 108/2/1 109/1/1
f 249/3/2 108/2/2 107/1/2
f 108/3/2 249/2/2 250/1/2
f 251/5/3 110/84/3 109/5/3
f 110/84/3 251/5/3 252/212/3
f 251/5/4 249/5/4 252/213/4
f 249/5/4 251/5/4 250/214/4
f 249/5/5 110/87/5 252/215/5
f 110/87/5 249/5/5 107/5/5
f 108/2/6 251/3/6 109/11/6
f 251/3/6 108/2/6 250/1/6
f 93/3/1 139/2/1 94/1/1
f 139/3/1 93/2/1 141/1/1
f 253/3/2 93/2/2 94/1/2
f 93/3/2 253/2/2 254/1/2
f 58/47/3 139/5/3 141/216/3
f 139/5/3 58/47/3 56/5/3
f 58/115/4 253/5/4 56/5/4
f 253/5/4 58/115/4 254/217/4
f 253/5/5 139/117/5 56/5/5
f 139/117/5 253/5/5 94/75/5
f 93/2/6 58/3/6 141/11/6
f 58/3/6 93/2/6 254/1/6
f 256/3/1 210/2/1 255/1/1
f 210/3/1 256/2/1 209/1/1
f 218/3/2 256/2/2 255/1/2
f 256/3/2 218/2/2 220/1/2
f 257/5/3 210/176/3 209/5/3
f 210/176/3 257/5/3 258/218/3
f 257/5/4 218/5/4 258/219/4
f 218/5/4 257/5/4 220/220/4
f 218/5/5 210/179/5 258/221/5
f 210/179/5 218/5/5 255/222/5
f 256/2/6 257/3/6 209/11/6
f 257/3/6 256/2/6 220/1/6
f 261/3/1 260/2/1 259/1/1
f 260/3/1 261/2/1 262/1/1
f 123/3/2 261/2/2 259/1/2
f 261/3/2 123/2/2 125/1/2
f 126/100/3 260/5/3 262/223/3
f 260/5/3 126/100/3 124/5/3
f 126/5/4 123/5/4 124/224/4
f 123/5/4 126/5/4 125/225/4
f 123/105/5 260/5/5 124/5/5
f 260/5/5 123/105/5 259/226/5
f 261/2/6 126/3/6 262/11/6
f 126/3/6 261/2/6 125/1/6
f 136/3/1 159/2/1 135/1/1
f 159/3/1 136/2/1 160/1/1
f 263/3/2 136/2/2 135/1/2
f 136/3/2 263/2/2 264/1/2
f 265/5/3 159/5/3 160/227/3
f 159/5/3 265/5/3 266/228/3
f 265/5/4 263/5/4 266/229/4
f 263/5/4 265/5/4 264/230/4
f 263/5/5 159/132/5 266/231/5
f 159/132/5 263/5/5 135/5/5
f 136/2/6 265/3/6 160/11/6
f 265/3/6 136/2/6 264/1/6
f 269/3/1 268/2/1 267/1/1
f 268/3/1 269/2/1 270/1/1
f 271/3/2 269/2/2 267/1/2
f 269/3/2 271/2/2 272/1/2
f 273/5/3 268/5/3 270/232/3
f 268/5/3 273/5/3 274/233/3
f 273/5/4 271/5/4 274/234/4
f 271/5/4 273/5/4 272/235/4
f 271/5/5 268/5/5 274/236/5
f 268/5/5 271/5/5 267/237/5
f 269/2/6 273/3/6 270/11/6
f 273/3/6 269/2/6 272/1/6
f 277/3/1 276/2/1 275/1/1
f 276/3/1 277/2/1 278/1/1
f 260/3/2 277/2/2 275/1/2
f 277/3/2 260/2/2 262/1/2
f 279/5/3 276/5/3 278/238/3
f 276/5/3 279/5/3 280/239/3
f 279/5/4 260/5/4 280/240/4
f 260/5/4 279/5/4 262/241/4
f 260/5/5 276/5/5 280/242/5
f 276/5/5 260/5/5 275/243/5
f 277/2/6 279/3/6 278/11/6
f 279/3/6 277/2/6 262/1/6
f 283/3/1 282/2/1 281/1/1
f 282/3/1 283/2/1 284/1/1
f 285/3/2 283/2/2 281/1/2
f 283/3/2 285/2/2 286/1/2
f 287/5/3 282/5/3 284/244/3
f 282/5/3 287/5/3 288/245/3
f 287/5/4 285/5/4 288/246/4
f 285/5/4 287/5/4 286/247/4
f 285/5/5 282/5/5 288/248/5
f 282/5/5 285/5/5 281/249/5
f 283/2/6 287/3/6 284/11/6
f 287/3/6 283/2/6 286/1/6
f 291/3/1 290/2/1 289/1/1
f 290/3/1 291/2/1 292/1/1
f 276/3/2 291/2/2 289/1/2
f 291/3/2 276/2/2 278/1/2
f 293/5/3 290/5/3 292/250/3
f 290/5/3 293/5/3 294/251/3
f 293/5/4 276/5/4 294/252/4
f 276/5/4 293/5/4 278/253/4
f 276/5/5 290/5/5 294/254/5
f 290/5/5 276/5/5 289/255/5
f 291/2/6 293/3/6 292/11/6
f 293/3/6 291/2/6 278/1/6

usemtl color10

f 176/3/1 178/2/1 175/1/1
f 178/3/1 176/2/1 177/1/1
f 295/3/2 176/2/2 175/1/2
f 176/3/2 295/2/2 296/1/2
f 297/5/3 178/144/3 177/5/3
f 178/144/3 297/5/3 298/256/3
f 297/5/4 295/5/4 298/257/4
f 295/5/4 297/5/4 296/258/4
f 295/5/5 178/147/5 298/259/5
f 178/147/5 295/5/5 175/5/5
f 176/2/6 297/3/6 177/11/6
f 297/3/6 176/2/6 296/1/6
f 301/3/1 300/2/1 299/1/1
f 300/3/1 301/2/1 302/1/1
f 303/3/2 301/2/2 299/1/2
f 301/3/2 303/2/2 304/1/2
f 203/5/3 300/5/3 302/260/3
f 300/5/3 203/5/3 201/261/3
f 203/5/4 303/5/4 201/262/4
f 303/5/4 203/5/4 304/263/4
f 303/5/5 300/5/5 201/175/5
f 300/5/5 303/5/5 299/264/5
f 301/2/6 203/3/6 302/11/6
f 203/3/6 301/2/6 304/1/6

usemtl color11

f 296/3/1 298/2/1 295/1/1
f 298/3/1 296/2/1 297/1/1
f 305/3/2 296/2/2 295/1/2
f 296/3/2 305/2/2 306/1/2
f 307/5/3 298/256/3 297/5/3
f 298/256/3 307/5/3 308/265/3
f 307/5/4 305/5/4 308/266/4
f 305/5/4 307/5/4 306/267/4
f 305/5/5 298/259/5 308/268/5
f 298/259/5 305/5/5 295/5/5
f 296/2/6 307/3/6 297/11/6
f 307/3/6 296/2/6 306/1/6

usemtl color12

f 306/3/1 308/2/1 305/1/1
f 308/3/1 306/2/1 307/1/1
f 299/3/2 306/2/2 305/1/2
f 306/3/2 299/2/2 301/1/2
f 302/260/3 308/265/3 307/5/3
f 308/265/3 302/260/3 300/5/3
f 302/5/4 299/5/4 300/269/4
f 299/5/4 302/5/4 301/270/4
f 299/264/5 308/268/5 300/5/5
f 308/268/5 299/264/5 305/5/5
f 306/2/6 302/3/6 307/11/6
f 302/3/6 306/2/6 301/1/6

usemtl color3

f 304/3/1 201/2/1 303/1/1
f 201/3/1 304/2/1 203/1/1
f 309/3/2 304/2/2 303/1/2
f 304/3/2 309/2/2 310/1/2
f 311/5/3 201/261/3 203/5/3
f 201/261/3 311/5/3 312/271/3
f 311/5/4 309/5/4 312/272/4
f 309/5/4 311/5/4 310/273/4
f 309/5/5 201/175/5 312/274/5
f 201/175/5 309/5/5 303/5/5
f 304/2/6 311/3/6 203/11/6
f 311/3/6 304/2/6 310/1/6
f 315/3/1 314/2/1 313/1/1
f 314/3/1 315/2/1 316/1/1
f 179/3/2 315/2/2 313/1/2
f 315/3/2 179/2/2 181/1/2
f 182/149/3 314/5/3 316/275/3
f 314/5/3 182/149/3 180/5/3
f 182/5/4 179/5/4 180/276/4
f 179/5/4 182/5/4 181/277/4
f 179/154/5 314/5/5 180/5/5
f 314/5/5 179/154/5 313/278/5
f 315/2/6 182/3/6 316/11/6
f 182/3/6 315/2/6 181/1/6
f 184/3/1 186/2/1 183/1/1
f 186/3/1 184/2/1 185/1/1
f 187/3/2 184/2/2 183/1/2
f 184/3/2 187/2/2 188/1/2
f 65/155/3 186/150/3 185/5/3
f 186/150/3 65/155/3 63/5/3
f 65/5/4 187/5/4 63/279/4
f 187/5/4 65/5/4 188/280/4
f 187/158/5 186/153/5 63/58/5
f 186/153/5 187/158/5 183/5/5
f 184/2/6 65/3/6 185/11/6
f 65/3/6 184/2/6 188/1/6
f 190/3/1 67/2/1 189/1/1
f 67/3/1 190/2/1 68/1/1
f 191/3/2 190/2/2 189/1/2
f 190/3/2 191/2/2 192/1/2
f 73/159/3 67/156/3 68/5/3
f 67/156/3 73/159/3 71/5/3
f 73/5/4 191/5/4 71/281/4
f 191/5/4 73/5/4 192/282/4
f 191/162/5 67/5/5 71/64/5
f 67/5/5 191/162/5 189/5/5
f 190/2/6 73/3/6 68/11/6
f 73/3/6 190/2/6 192/1/6
f 194/3/1 75/2/1 193/1/1
f 75/3/1 194/2/1 76/1/1
f 195/3/2 194/2/2 193/1/2
f 194/3/2 195/2/2 196/1/2
f 81/163/3 75/160/3 76/5/3
f 75/160/3 81/163/3 79/5/3
f 81/5/4 195/5/4 79/283/4
f 195/5/4 81/5/4 196/284/4
f 195/166/5 75/5/5 79/70/5
f 75/5/5 195/166/5 193/5/5
f 194/2/6 81/3/6 76/11/6
f 81/3/6 194/2/6 196/1/6
f 198/3/1 83/2/1 197/1/1
f 83/3/1 198/2/1 84/1/1
f 317/3/2 198/2/2 197/1/2
f 198/3/2 317/2/2 318/1/2
f 212/5/3 83/164/3 84/5/3
f 83/164/3 212/5/3 211/285/3
f 212/5/4 317/5/4 211/286/4
f 317/5/4 212/5/4 318/287/4
f 317/5/5 83/5/5 211/185/5
f 83/5/5 317/5/5 197/5/5
f 198/2/6 212/3/6 84/11/6
f 212/3/6 198/2/6 318/1/6
f 320/3/1 99/2/1 319/1/1
f 99/3/1 320/2/1 100/1/1
f 321/3/2 320/2/2 319/1/2
f 320/3/2 321/2/2 322/1/2
f 234/5/3 99/5/3 100/288/3
f 99/5/3 234/5/3 233/289/3
f 234/200/4 321/5/4 233/5/4
f 321/5/4 234/200/4 322/290/4
f 321/5/5 99/5/5 233/5/5
f 99/5/5 321/5/5 319/291/5
f 320/2/6 234/3/6 100/11/6
f 234/3/6 320/2/6 322/1/6
f 325/3/1 324/2/1 323/1/1
f 324/3/1 325/2/1 326/1/1
f 327/3/2 325/2/2 323/1/2
f 325/3/2 327/2/2 328/1/2
f 329/5/3 324/5/3 326/292/3
f 324/5/3 329/5/3 330/293/3
f 329/5/4 327/5/4 330/294/4
f 327/5/4 329/5/4 328/295/4
f 327/5/5 324/5/5 330/296/5
f 324/5/5 327/5/5 323/297/5
f 325/2/6 329/3/6 326/11/6
f 329/3/6 325/2/6 328/1/6
f 333/3/1 332/2/1 331/1/1
f 332/3/1 333/2/1 334/1/1
f 152/3/2 333/2/2 331/1/2
f 333/3/2 152/2/2 154/1/2
f 335/5/3 332/5/3 334/298/3
f 332/5/3 335/5/3 336/299/3
f 335/5/4 152/5/4 336/300/4
f 152/5/4 335/5/4 154/301/4
f 152/5/5 332/5/5 336/302/5
f 332/5/5 152/5/5 331/303/5
f 333/2/6 335/3/6 334/11/6
f 335/3/6 333/2/6 154/1/6
f 287/3/1 337/2/1 288/1/1
f 337/3/1 287/2/1 338/1/1
f 339/3/2 287/2/2 288/1/2
f 287/3/2 339/2/2 340/1/2
f 341/5/3 337/5/3 338/304/3
f 337/5/3 341/5/3 342/305/3
f 341/5/4 339/5/4 342/306/4
f 339/5/4 341/5/4 340/307/4
f 339/5/5 337/5/5 342/308/5
f 337/5/5 339/5/5 288/248/5
f 287/2/6 341/3/6 338/11/6
f 341/3/6 287/2/6 340/1/6
f 345/3/1 344/2/1 343/1/1
f 344/3/1 345/2/1 346/1/1
f 332/3/2 345/2/2 343/1/2
f 345/3/2 332/2/2 334/1/2
f 347/5/3 344/5/3 346/309/3
f 344/5/3 347/5/3 348/310/3
f 347/5/4 332/5/4 348/311/4
f 332/5/4 347/5/4 334/312/4
f 332/5/5 344/5/5 348/313/5
f 344/5/5 332/5/5 343/314/5
f 345/2/6 347/3/6 346/11/6
f 347/3/6 345/2/6 334/1/6
f 351/3/1 350/2/1 349/1/1
f 350/3/1 351/2/1 352/1/1
f 353/3/2 351/2/2 349/1/2
f 351/3/2 353/2/2 354/1/2
f 355/5/3 350/5/3 352/315/3
f 350/5/3 355/5/3 356/316/3
f 355/5/4 353/5/4 356/317/4
f 353/5/4 355/5/4 354/318/4
f 353/5/5 350/5/5 356/319/5
f 350/5/5 353/5/5 349/320/5
f 351/2/6 355/3/6 352/11/6
f 355/3/6 351/2/6 354/1/6

usemtl color2

f 358/3/1 323/2/1 357/1/1
f 323/3/1 358/2/1 325/1/1
f 359/3/2 358/2/2 357/1/2
f 358/3/2 359/2/2 360/1/2
f 328/5/3 323/5/3 325/321/3
f 323/5/3 328/5/3 327/322/3
f 328/295/4 359/5/4 327/5/4
f 359/5/4 328/295/4 360/323/4
f 359/5/5 323/297/5 327/5/5
f 323/297/5 359/5/5 357/324/5
f 358/2/6 328/3/6 325/11/6
f 328/3/6 358/2/6 360/1/6
f 362/3/1 217/2/1 361/1/1
f 217/3/1 362/2/1 219/1/1
f 363/3/2 362/2/2 361/1/2
f 362/3/2 363/2/2 364/1/2
f 222/5/3 217/5/3 219/325/3
f 217/5/3 222/5/3 221/326/3
f 222/189/4 363/5/4 221/5/4
f 363/5/4 222/189/4 364/327/4
f 363/5/5 217/191/5 221/5/5
f 217/191/5 363/5/5 361/328/5
f 362/2/6 222/3/6 219/11/6
f 222/3/6 362/2/6 364/1/6
f 366/3/1 225/2/1 365/1/1
f 225/3/1 366/2/1 227/1/1
f 367/3/2 366/2/2 365/1/2
f 366/3/2 367/2/2 368/1/2
f 230/5/3 225/5/3 227/329/3
f 225/5/3 230/5/3 229/330/3
f 230/195/4 367/5/4 229/5/4
f 367/5/4 230/195/4 368/331/4
f 367/5/5 225/197/5 229/5/5
f 225/197/5 367/5/5 365/332/5
f 366/2/6 230/3/6 227/11/6
f 230/3/6 366/2/6 368/1/6
f 371/3/1 370/2/1 369/1/1
f 370/3/1 371/2/1 372/1/1
f 373/3/2 371/2/2 369/1/2
f 371/3/2 373/2/2 374/1/2
f 375/5/3 370/5/3 372/333/3
f 370/5/3 375/5/3 376/334/3
f 375/5/4 373/5/4 376/335/4
f 373/5/4 375/5/4 374/336/4
f 373/5/5 370/5/5 376/337/5
f 370/5/5 373/5/5 369/338/5
f 371/2/6 375/3/6 372/11/6
f 375/3/6 371/2/6 374/1/6
f 214/3/1 216/2/1 213/1/1
f 216/3/1 214/2/1 215/1/1
f 319/3/2 214/2/2 213/1/2
f 214/3/2 319/2/2 320/1/2
f 100/288/3 216/181/3 215/5/3
f 216/181/3 100/288/3 99/5/3
f 100/80/4 319/5/4 99/5/4
f 319/5/4 100/80/4 320/339/4
f 319/291/5 216/184/5 99/5/5
f 216/184/5 319/291/5 213/5/5
f 214/2/6 100/3/6 215/11/6
f 100/3/6 214/2/6 320/1/6
f 379/3/1 378/2/1 377/1/1
f 378/3/1 379/2/1 380/1/1
f 381/3/2 379/2/2 377/1/2
f 379/3/2 381/2/2 382/1/2
f 243/5/3 378/5/3 380/340/3
f 378/5/3 243/5/3 241/341/3
f 243/5/4 381/5/4 241/342/4
f 381/5/4 243/5/4 382/343/4
f 381/5/5 378/5/5 241/211/5
f 378/5/5 381/5/5 377/344/5
f 379/2/6 243/3/6 380/11/6
f 243/3/6 379/2/6 382/1/6
f 92/3/1 94/2/1 91/1/1
f 94/3/1 92/2/1 93/1/1
f 206/3/2 92/2/2 91/1/2
f 92/3/2 206/2/2 205/1/2
f 254/5/3 94/72/3 93/5/3
f 94/72/3 254/5/3 253/345/3
f 254/217/4 206/172/4 253/5/4
f 206/172/4 254/217/4 205/5/4
f 206/174/5 94/75/5 253/5/5
f 94/75/5 206/174/5 91/5/5
f 92/2/6 254/3/6 93/11/6
f 254/3/6 92/2/6 205/1/6
f 31/3/1 383/2/1 32/1/1
f 383/3/1 31/2/1 384/1/1
f 200/3/2 31/2/2 32/1/2
f 31/3/2 200/2/2 199/1/2
f 385/5/3 383/5/3 384/346/3
f 383/5/3 385/5/3 386/347/3
f 385/5/4 200/168/4 386/348/4
f 200/168/4 385/5/4 199/5/4
f 200/169/5 383/5/5 386/349/5
f 383/5/5 200/169/5 32/28/5
f 31/2/6 385/3/6 384/11/6
f 385/3/6 31/2/6 199/1/6
f 246/3/1 248/2/1 245/1/1
f 248/3/1 246/2/1 247/1/1
f 387/3/2 246/2/2 245/1/2
f 246/3/2 387/2/2 388/1/2
f 389/5/3 248/207/3 247/5/3
f 248/207/3 389/5/3 390/350/3
f 389/5/4 387/5/4 390/351/4
f 387/5/4 389/5/4 388/352/4
f 387/5/5 248/210/5 390/353/5
f 248/210/5 387/5/5 245/5/5
f 246/2/6 389/3/6 247/11/6
f 389/3/6 246/2/6 388/1/6
f 250/3/1 252/2/1 249/1/1
f 252/3/1 250/2/1 251/1/1
f 391/3/2 250/2/2 249/1/2
f 250/3/2 391/2/2 392/1/2
f 136/5/3 252/212/3 251/5/3
f 252/212/3 136/5/3 135/354/3
f 136/109/4 391/5/4 135/5/4
f 391/5/4 136/109/4 392/355/4
f 391/5/5 252/215/5 135/5/5
f 252/215/5 391/5/5 249/5/5
f 250/2/6 136/3/6 251/11/6
f 136/3/6 250/2/6 392/1/6
f 394/3/1 263/2/1 393/1/1
f 263/3/1 394/2/1 264/1/1
f 94/3/2 394/2/2 393/1/2
f 394/3/2 94/2/2 93/1/2
f 141/216/3 263/5/3 264/356/3
f 263/5/3 141/216/3 139/5/3
f 141/5/4 94/73/4 139/357/4
f 94/73/4 141/5/4 93/5/4
f 94/75/5 263/5/5 139/117/5
f 263/5/5 94/75/5 393/358/5
f 394/2/6 141/3/6 264/11/6
f 141/3/6 394/2/6 93/1/6
f 397/3/1 396/2/1 395/1/1
f 396/3/1 397/2/1 398/1/1
f 399/3/2 397/2/2 395/1/2
f 397/3/2 399/2/2 400/1/2
f 401/5/3 396/5/3 398/359/3
f 396/5/3 401/5/3 402/360/3
f 401/5/4 399/5/4 402/361/4
f 399/5/4 401/5/4 400/362/4
f 399/5/5 396/5/5 402/363/5
f 396/5/5 399/5/5 395/364/5
f 397/2/6 401/3/6 398/11/6
f 401/3/6 397/2/6 400/1/6
f 238/3/1 403/2/1 237/1/1
f 403/3/1 238/2/1 404/1/1
f 240/3/2 238/2/2 237/1/2
f 238/3/2 240/2/2 239/1/2
f 405/5/3 403/5/3 404/365/3
f 403/5/3 405/5/3 406/366/3
f 405/5/4 240/204/4 406/367/4
f 240/204/4 405/5/4 239/5/4
f 240/205/5 403/5/5 406/368/5
f 403/5/5 240/205/5 237/5/5
f 238/2/6 405/3/6 404/11/6
f 405/3/6 238/2/6 239/1/6
f 408/3/1 331/2/1 407/1/1
f 331/3/1 408/2/1 333/1/1
f 151/3/2 408/2/2 407/1/2
f 408/3/2 151/2/2 153/1/2
f 154/124/3 331/5/3 333/369/3
f 331/5/3 154/124/3 152/5/3
f 154/301/4 151/5/4 152/5/4
f 151/5/4 154/301/4 153/370/4
f 151/129/5 331/303/5 152/5/5
f 331/303/5 151/129/5 407/371/5
f 408/2/6 154/3/6 333/11/6
f 154/3/6 408/2/6 153/1/6
f 411/3/1 410/2/1 409/1/1
f 410/3/1 411/2/1 412/1/1
f 413/3/2 411/2/2 409/1/2
f 411/3/2 413/2/2 414/1/2
f 415/5/3 410/5/3 412/372/3
f 410/5/3 415/5/3 416/373/3
f 415/5/4 413/5/4 416/374/4
f 413/5/4 415/5/4 414/375/4
f 413/5/5 410/5/5 416/376/5
f 410/5/5 413/5/5 409/377/5
f 411/2/6 415/3/6 412/11/6
f 415/3/6 411/2/6 414/1/6
f 286/3/1 288/2/1 285/1/1
f 288/3/1 286/2/1 287/1/1
f 417/3/2 286/2/2 285/1/2
f 286/3/2 417/2/2 418/1/2
f 340/5/3 288/245/3 287/5/3
f 288/245/3 340/5/3 339/378/3
f 340/307/4 417/5/4 339/5/4
f 417/5/4 340/307/4 418/379/4
f 417/5/5 288/248/5 339/5/5
f 288/248/5 417/5/5 285/5/5
f 286/2/6 340/3/6 287/11/6
f 340/3/6 286/2/6 418/1/6
f 420/3/1 343/2/1 419/1/1
f 343/3/1 420/2/1 345/1/1
f 331/3/2 420/2/2 419/1/2
f 420/3/2 331/2/2 333/1/2
f 334/298/3 343/5/3 345/380/3
f 343/5/3 334/298/3 332/5/3
f 334/312/4 331/5/4 332/5/4
f 331/5/4 334/312/4 333/381/4
f 331/303/5 343/314/5 332/5/5
f 343/314/5 331/303/5 419/382/5
f 420/2/6 334/3/6 345/11/6
f 334/3/6 420/2/6 333/1/6
f 284/3/1 421/2/1 282/1/1
f 421/3/1 284/2/1 422/1/1
f 288/3/2 284/2/2 282/1/2
f 284/3/2 288/2/2 287/1/2
f 338/304/3 421/5/3 422/383/3
f 421/5/3 338/304/3 337/5/3
f 338/5/4 288/246/4 337/384/4
f 288/246/4 338/5/4 287/5/4
f 288/248/5 421/5/5 337/5/5
f 421/5/5 288/248/5 282/5/5
f 284/2/6 338/3/6 422/11/6
f 338/3/6 284/2/6 287/1/6
f 425/3/1 424/2/1 423/1/1
f 424/3/1 425/2/1 426/1/1
f 427/3/2 425/2/2 423/1/2
f 425/3/2 427/2/2 428/1/2
f 346/309/3 424/5/3 426/385/3
f 424/5/3 346/309/3 344/5/3
f 346/5/4 427/5/4 344/386/4
f 427/5/4 346/5/4 428/387/4
f 427/5/5 424/5/5 344/5/5
f 424/5/5 427/5/5 423/388/5
f 425/2/6 346/3/6 426/11/6
f 346/3/6 425/2/6 428/1/6
f 431/3/1 430/2/1 429/1/1
f 430/3/1 431/2/1 432/1/1
f 349/3/2 431/2/2 429/1/2
f 431/3/2 349/2/2 351/1/2
f 352/315/3 430/5/3 432/389/3
f 430/5/3 352/315/3 350/5/3
f 352/5/4 349/5/4 350/390/4
f 349/5/4 352/5/4 351/391/4
f 349/320/5 430/5/5 350/5/5
f 430/5/5 349/320/5 429/392/5
f 431/2/6 352/3/6 432/11/6
f 352/3/6 431/2/6 351/1/6

usemtl color9

f 171/3/1 433/2/1 172/1/1
f 433/3/1 171/2/1 434/1/1
f 435/3/2 171/2/2 172/1/2
f 171/3/2 435/2/2 436/1/2
f 437/5/3 433/5/3 434/393/3
f 433/5/3 437/5/3 438/394/3
f 437/5/4 435/5/4 438/395/4
f 435/5/4 437/5/4 436/396/4
f 435/5/5 433/5/5 438/397/5
f 433/5/5 435/5/5 172/142/5
f 171/2/6 437/3/6 434/11/6
f 437/3/6 171/2/6 436/1/6
f 441/3/1 440/2/1 439/1/1
f 440/3/1 441/2/1 442/1/1
f 201/3/2 441/2/2 439/1/2
f 441/3/2 201/2/2 203/1/2
f 204/170/3 440/5/3 442/398/3
f 440/5/3 204/170/3 202/5/3
f 204/5/4 201/262/4 202/399/4
f 201/262/4 204/5/4 203/5/4
f 201/175/5 440/5/5 202/5/5
f 440/5/5 201/175/5 439/400/5
f 441/2/6 204/3/6 442/11/6
f 204/3/6 441/2/6 203/1/6

usemtl color0

f 445/3/1 444/2/1 443/1/1
f 444/3/1 445/2/1 446/1/1
f 447/3/2 445/2/2 443/1/2
f 445/3/2 447/2/2 448/1/2
f 449/5/3 444/5/3 446/401/3
f 444/5/3 449/5/3 450/402/3
f 449/5/4 447/5/4 450/403/4
f 447/5/4 449/5/4 448/404/4
f 447/5/5 444/5/5 450/405/5
f 444/5/5 447/5/5 443/406/5
f 445/2/6 449/3/6 446/11/6
f 449/3/6 445/2/6 448/1/6

usemtl color8

f 453/3/1 452/2/1 451/1/1
f 452/3/1 453/2/1 454/1/1
f 455/3/2 453/2/2 451/1/2
f 453/3/2 455/2/2 456/1/2
f 457/5/3 452/5/3 454/407/3
f 452/5/3 457/5/3 458/408/3
f 457/5/4 455/5/4 458/409/4
f 455/5/4 457/5/4 456/410/4
f 455/5/5 452/5/5 458/411/5
f 452/5/5 455/5/5 451/412/5
f 453/2/6 457/3/6 454/11/6
f 457/3/6 453/2/6 456/1/6
f 457/3/1 459/2/1 458/1/1
f 459/3/1 457/2/1 460/1/1
f 461/3/2 457/2/2 458/1/2
f 457/3/2 461/2/2 462/1/2
f 463/5/3 459/5/3 460/413/3
f 459/5/3 463/5/3 464/414/3
f 463/5/4 461/5/4 464/415/4
f 461/5/4 463/5/4 462/416/4
f 461/5/5 459/5/5 464/417/5
f 459/5/5 461/5/5 458/411/5
f 457/2/6 463/3/6 460/11/6
f 463/3/6 457/2/6 462/1/6

usemtl color4

f 338/3/1 429/2/1 337/1/1
f 429/3/1 338/2/1 431/1/1
f 342/3/2 338/2/2 337/1/2
f 338/3/2 342/2/2 341/1/2
f 351/5/3 429/5/3 431/418/3
f 429/5/3 351/5/3 349/419/3
f 351/391/4 342/306/4 349/5/4
f 342/306/4 351/391/4 341/5/4
f 342/308/5 429/392/5 349/320/5
f 429/392/5 342/308/5 337/5/5
f 338/2/6 351/3/6 431/11/6
f 351/3/6 338/2/6 341/1/6

usemtl color5

f 341/3/1 349/2/1 342/1/1
f 349/3/1 341/2/1 351/1/1
f 465/3/2 341/2/2 342/1/2
f 341/3/2 465/2/2 466/1/2
f 354/5/3 349/419/3 351/5/3
f 349/419/3 354/5/3 353/420/3
f 354/318/4 465/5/4 353/5/4
f 465/5/4 354/318/4 466/421/4
f 465/5/5 349/320/5 353/5/5
f 349/320/5 465/5/5 342/308/5
f 341/2/6 354/3/6 351/11/6
f 354/3/6 341/2/6 466/1/6

