# Created by Kenney (www.kenney.nl)

mtllib Tool XEY Bioyino.mtl

v 5 10 -0.5
v 5 9 -0.5
v 5 10 0.5
v 5 9 0.5
v 3 10 -0.5
v 3 10 0.5
v 3 9 0.5
v 3 9 -0.5
v -1 10 -0.5
v -1 9 -0.5
v -1 10 0.5
v -1 9 0.5
v -2 10 -0.5
v -2 10 0.5
v -2 9 0.5
v -2 9 -0.5
v 4 10 -0.5
v 4 10 0.5
v 4 9 0.5
v 4 9 -0.5
v 8 9 -0.5
v 8 8 -0.5
v 8 9 0.5
v 8 8 0.5
v 5 8 0.5
v 5 8 -0.5
v 3 8 -0.5
v 3 8 0.5
v 2 9 -0.5
v 2 9 0.5
v 2 8 0.5
v 2 8 -0.5
v -4 8 -1
v -4 6 -1
v -4 8 1
v -4 6 1
v -5 8 -1
v -5 8 1
v -5 6 1
v -5 6 -1
v -5 7 -1
v -5 7 1
v -7 7 -1
v -7 7 1
v -7 6 1
v -7 6 -1
v 5 6 -0.5
v 5 5 -0.5
v 5 6 0.5
v 5 5 0.5
v 4 6 -0.5
v 4 6 0.5
v 4 5 0.5
v 4 5 -0.5
v 7 5 -0.5
v 7 4 -0.5
v 7 5 0.5
v 7 4 0.5
v 5 4 0.5
v 5 4 -0.5
v 4 5 -1
v 4 4 -1
v 4 5 1
v 4 4 1
v 3 5 -1
v 3 5 1
v 3 4 1
v 3 4 -1
v 8 4 -0.5
v 8 3 -0.5
v 8 4 0.5
v 8 3 0.5
v 7 3 0.5
v 7 3 -0.5
v 3 1 -1
v 3 0 -1
v 3 1 1
v 3 0 1
v 2 1 -1
v 2 1 1
v 2 0 1
v 2 0 -1
v -2 1 -1
v -2 0 -1
v -2 1 1
v -2 0 1
v -3 1 -1
v -3 1 1
v -3 0 1
v -3 0 -1
v 3 -1 -1
v 3 -2 -1
v 3 -1 1
v 3 -2 1
v 2 -1 -1
v 2 -1 1
v 2 -2 1
v 2 -2 -1
v 2 10 -0.5
v 2 10 0.5
v 3 6 -0.5
v 3 6 0.5
v 3 5 0.5
v 3 5 -0.5
v 3 6 -1
v 3 6 1
v 2 6 -1
v 2 6 1
v 2 5 1
v 2 5 -1
v 1 10 -1
v 1 9 -1
v 1 10 1
v 1 9 1
v -1 10 -1
v -1 10 1
v -1 9 1
v -1 9 -1
v 2 9 -1
v 2 8 -1
v 2 9 1
v 2 8 1
v 1 8 1
v 1 8 -1
v -2 7 -1
v -2 6 -1
v -2 7 1
v -2 6 1
v -3 7 -1
v -3 7 1
v -3 6 1
v -3 6 -1
v 3 3 -1
v 3 2 -1
v 3 3 1
v 3 2 1
v 2 3 -1
v 2 3 1
v 2 2 1
v 2 2 -1
v 2 3 -2
v 2 2 -2
v 2 3 2
v 2 2 2
v 1 3 -2
v 1 3 2
v 1 2 2
v 1 2 -2
v 1 3 -3
v 1 2 -3
v 1 3 3
v 1 2 3
v -1 3 -3
v -1 3 3
v -1 2 3
v -1 2 -3
v -1 3 -2
v -1 2 -2
v -1 3 2
v -1 2 2
v -2 3 -2
v -2 3 2
v -2 2 2
v -2 2 -2
v -2 3 -1
v -2 2 -1
v -2 3 1
v -2 2 1
v -3 3 -1
v -3 3 1
v -3 2 1
v -3 2 -1
v 5 9 -1
v 5 8 -1
v 5 9 1
v 5 8 1
v 3 9 -1
v 3 9 1
v 3 8 1
v 3 8 -1
v 6 8 -1
v 6 7 -1
v 6 8 1
v 6 7 1
v 5 7 1
v 5 7 -1
v 3 7 -1
v 3 7 1
v 2 7 1
v 2 7 -1
v 1 1 -3
v 1 0 -3
v 1 1 3
v 1 0 3
v 0 1 -3
v 0 1 3
v 0 0 3
v 0 0 -3
v 1 -1 -3
v 1 -2 -3
v 1 -1 3
v 1 -2 3
v 0 -1 -3
v 0 -1 3
v 0 -2 3
v 0 -2 -3
v -1 -1 -2
v -1 -2 -2
v -1 -1 2
v -1 -2 2
v -2 -1 -2
v -2 -1 2
v -2 -2 2
v -2 -2 -2
v 1 9 -2
v 1 8 -2
v 1 9 2
v 1 8 2
v -1 9 -2
v -1 9 2
v -1 8 2
v -1 8 -2
v 2 8 -2
v 2 6 -2
v 2 8 2
v 2 6 2
v 1 6 2
v 1 6 -2
v -1 6 -2
v -1 6 2
v -2 8 -2
v -2 8 2
v -2 6 2
v -2 6 -2
v 1 5 -2
v 1 5 2
v -1 5 2
v -1 5 -2
v -1 8 -1
v -1 8 1
v -2 9 -1
v -2 9 1
v -2 8 1
v -2 8 -1
v 7 8 -1
v 7 7 -1
v 7 8 1
v 7 7 1
v -7 8 -1
v -7 8 1
v 3 7 -0.5
v 3 7 0.5
v 2 7 -0.5
v 2 7 0.5
v 2 6 0.5
v 2 6 -0.5
v 5 5 -1
v 5 4 -1
v 5 5 1
v 5 4 1
v 7 4 -1
v 7 3 -1
v 7 4 1
v 7 3 1
v 5 3 1
v 5 3 -1
v -1 1 -2
v -1 0 -2
v -1 1 2
v -1 0 2
v -2 1 -2
v -2 1 2
v -2 0 2
v -2 0 -2
v 2 -1 -2
v 2 -2 -2
v 2 -1 2
v 2 -2 2
v 1 -1 -2
v 1 -1 2
v 1 -2 2
v 1 -2 -2
v -1 -3 -2
v -1 -3 2
v -2 -3 2
v -2 -3 -2
v 1 8 -1.5
v 1 7 -1.5
v 1 8 1.5
v 1 7 1.5
v 0 8 -1.5
v 0 8 1.5
v 0 7 1.5
v 0 7 -1.5
v -1 6 -0.5
v -1 5 -0.5
v -1 6 0.5
v -1 5 0.5
v -2 6 -0.5
v -2 6 0.5
v -2 5 0.5
v -2 5 -0.5
v 2 4 -1
v 2 4 1
v 1 5 -1
v 1 5 1
v 1 4 1
v 1 4 -1
v -2 4 -0.5
v -2 4 0.5
v -3 5 -0.5
v -3 5 0.5
v -3 4 0.5
v -3 4 -0.5
v 2 4 -2
v 2 4 2
v 1 4 -2
v 1 4 2
v 1 4 -3
v 1 4 3
v 0 4 -3
v 0 4 3
v 0 3 3
v 0 3 -3
v -2 4 -1
v -2 4 1
v -3 4 -1
v -3 4 1
v 2 -4 -2
v 2 -8 -2
v 2 -4 2
v 2 -8 2
v 1 -4 -2
v 1 -4 2
v 1 -8 2
v 1 -8 -2
v 1 -4 -3
v 1 -8 -3
v 1 -4 3
v 1 -8 3
v 0 -4 -3
v 0 -4 3
v 0 -8 3
v 0 -8 -3
v -2 -4 -1
v -2 -8 -1
v -2 -4 1
v -2 -8 1
v -3 -4 -1
v -3 -4 1
v -3 -8 1
v -3 -8 -1
v 0 6 -1.5
v 0 6 1.5
v -1 8 -1.5
v -1 8 1.5
v -1 6 1.5
v -1 6 -1.5
v 1 6 -1.5
v 1 6 1.5
v -3 7 -1.5
v -3 6 -1.5
v -3 7 1.5
v -3 6 1.5
v -4 7 -1.5
v -4 7 1.5
v -4 6 1.5
v -4 6 -1.5
v -2 -1 -1
v -2 -1 1
v -3 -1 1
v -3 -1 -1
v 3 -4 -1
v 3 -4 1
v 2 -4 1
v 2 -4 -1
v -2 -2 -1
v -2 -2 1
v -3 -2 -1
v -3 -2 1
v -2 8 -1.5
v -2 7 -1.5
v -2 8 1.5
v -2 7 1.5
v -4 8 -1.5
v -4 8 1.5
v -8 8 -1
v -8 8 1
v -8 7 1
v -8 7 -1
v -8 6 -1
v -8 6 1
v -9 8 -1
v -9 8 1
v -9 6 1
v -9 6 -1
v 2 1 -2
v 2 0 -2
v 2 1 2
v 2 0 2
v 1 1 -2
v 1 1 2
v 1 0 2
v 1 0 -2
v 2 5 -0.5
v 2 5 0.5
v 1 6 -0.5
v 1 6 0.5
v 1 5 0.5
v 1 5 -0.5
v 3 4 -0.5
v 3 4 0.5
v 2 4 0.5
v 2 4 -0.5
v 3 -8 -1
v 3 -8 1
v 2 -8 1
v 2 -8 -1
v 1 5 -1.5
v 1 4 -1.5
v 1 5 1.5
v 1 4 1.5
v -1 5 -1.5
v -1 5 1.5
v -1 4 1.5
v -1 4 -1.5
v -1 5 -1
v -1 4 -1
v -1 5 1
v -1 4 1
v -2 5 -1
v -2 5 1
v -1 4 -3
v -1 4 3
v -1 4 -2
v -1 4 2
v -2 4 -2
v -2 4 2
v -1 -4 -3
v -1 -4 3
v -1 -8 3
v -1 -8 -3
v -1 -4 -2
v -1 -8 -2
v -1 -4 2
v -1 -8 2
v -2 -4 -2
v -2 -4 2
v -2 -8 2
v -2 -8 -2
v -1 1 3
v -1 1 -3
v -1 0 -3
v -1 0 3
v -1 -1 3
v -1 -1 -3
v -1 -2 3
v -1 -2 -3
v 2 -3 -2
v 2 -3 2
v 1 -3 -2
v 1 -3 2
v 0 -3 -3
v 0 -3 3
v -1 -3 -3
v -1 -3 3
v 3 -9 -1
v 3 -9 1
v 2 -9 1
v 2 -9 -1
v 2 -9 -2
v 2 -9 2
v 1 -9 2
v 1 -9 -2
v 1 -9 -3
v 1 -9 3
v -1 -9 3
v -1 -9 -3
v -1 -9 -2
v -1 -9 2
v -2 -9 2
v -2 -9 -2
v -2 -9 -1
v -2 -9 1
v -3 -9 1
v -3 -9 -1

vn 1 0 0
vn 0 1 0
vn 0 -1 0
vn -1 0 0
vn 0 0 -1
vn 0 0 1

vt -19.68504 19.68504
vt 19.68504 19.68504
vt -19.68504 -19.68504
vt 0 NaN
vt 0 0
vt 0 NaN
vt 0 NaN
vt 0 NaN
vt 0 NaN
vt 0 NaN
vt 19.68504 -19.68504
vt 0 NaN
vt 0 NaN
vt 0 NaN
vt 0 NaN
vt 0 NaN
vt 0 NaN
vt 0 NaN
vt 0 NaN
vt 0 NaN
vt 0 NaN
vt 0 NaN
vt 0 NaN
vt 0 NaN
vt 0 NaN
vt 0 NaN
vt 0 NaN
vt 0 NaN
vt 0 NaN
vt 0 NaN
vt 0 NaN
vt 0 NaN
vt 0 NaN
vt 0 NaN
vt 0 NaN
vt 0 NaN
vt 0 NaN
vt 0 NaN
vt 0 NaN
vt 0 NaN
vt 0 NaN
vt 0 NaN
vt 0 NaN
vt 0 NaN
vt 0 NaN
vt 0 NaN
vt 0 NaN
vt 0 NaN
vt 0 NaN
vt 0 NaN
vt 0 NaN
vt 0 NaN
vt 0 NaN
vt 0 NaN
vt 0 NaN
vt 0 NaN
vt 0 NaN
vt 0 NaN
vt 0 NaN
vt 0 NaN
vt 0 NaN
vt 0 NaN
vt 0 NaN
vt 0 NaN
vt 0 NaN
vt 0 NaN
vt 0 NaN
vt 0 NaN
vt 0 NaN
vt 0 NaN
vt 0 NaN
vt 0 NaN
vt 0 NaN
vt 0 NaN
vt 0 NaN
vt 0 NaN
vt 0 NaN
vt 0 NaN
vt 0 NaN
vt 0 NaN
vt 0 NaN
vt 0 NaN
vt 0 NaN
vt 0 NaN
vt 0 NaN
vt 0 NaN
vt 0 NaN
vt 0 NaN
vt 0 NaN
vt 0 NaN
vt 0 NaN
vt 0 NaN
vt 0 NaN
vt 0 NaN
vt 0 NaN
vt 0 NaN
vt 0 NaN
vt 0 NaN
vt 0 NaN
vt 0 NaN
vt 0 NaN
vt 0 NaN
vt 0 NaN
vt 0 NaN
vt 0 NaN
vt 0 NaN
vt 0 NaN
vt 0 NaN
vt 0 NaN
vt 0 NaN
vt 0 NaN
vt 0 NaN
vt 0 NaN
vt 0 NaN
vt 0 NaN
vt 0 NaN
vt 0 NaN
vt 0 NaN
vt 0 NaN
vt 0 NaN
vt 0 NaN
vt 0 NaN
vt 0 NaN
vt 0 NaN
vt 0 NaN
vt 0 NaN
vt 0 NaN
vt 0 NaN
vt 0 NaN
vt 0 NaN
vt 0 NaN
vt 0 NaN
vt 0 NaN
vt 0 NaN
vt 0 NaN
vt 0 NaN
vt 0 NaN
vt 0 NaN
vt 0 NaN
vt 0 NaN
vt 0 NaN
vt 0 NaN
vt 0 NaN
vt 0 NaN
vt 0 NaN
vt 0 NaN
vt 0 NaN
vt 0 NaN
vt 0 NaN
vt 0 NaN
vt 0 NaN
vt 0 NaN
vt 0 NaN
vt 0 NaN
vt 0 NaN
vt 0 NaN
vt 0 NaN
vt 0 NaN
vt 0 NaN
vt 0 NaN
vt 0 NaN
vt 0 NaN
vt 0 NaN
vt 0 NaN
vt 0 NaN
vt 0 NaN
vt 0 NaN
vt 0 NaN
vt 0 NaN
vt 0 NaN
vt 0 NaN
vt 0 NaN
vt 0 NaN
vt 0 NaN
vt 0 NaN
vt 0 NaN
vt 0 NaN
vt 0 NaN
vt 0 NaN
vt 0 NaN
vt 0 NaN
vt 0 NaN
vt 0 NaN
vt 0 NaN
vt 0 NaN
vt 0 NaN
vt 0 NaN
vt 0 NaN
vt 0 NaN
vt 0 NaN
vt 0 NaN
vt 0 NaN
vt 0 NaN
vt 0 NaN
vt 0 NaN
vt 0 NaN
vt 0 NaN
vt 0 NaN
vt 0 NaN
vt 0 NaN
vt 0 NaN
vt 0 NaN
vt 0 NaN
vt 0 NaN
vt 0 NaN
vt 0 NaN
vt 0 NaN
vt 0 NaN
vt 0 NaN
vt 0 NaN
vt 0 NaN
vt 0 NaN
vt 0 NaN
vt 0 NaN
vt 0 NaN
vt 0 NaN
vt 0 NaN
vt 0 NaN
vt 0 NaN
vt 0 NaN
vt 0 NaN
vt 0 NaN
vt 0 NaN
vt 0 NaN
vt 0 NaN
vt 0 NaN
vt 0 NaN
vt 0 NaN
vt 0 NaN
vt 0 NaN
vt 0 NaN
vt 0 NaN
vt 0 NaN
vt 0 NaN
vt 0 NaN
vt 0 NaN
vt 0 NaN
vt 0 NaN
vt 0 NaN
vt 0 NaN
vt 0 NaN
vt 0 NaN
vt 0 NaN
vt 0 NaN
vt 0 NaN
vt 0 NaN
vt 0 NaN
vt 0 NaN
vt 0 NaN
vt 0 NaN
vt 0 NaN
vt 0 NaN
vt 0 NaN
vt 0 NaN
vt 0 NaN
vt 0 NaN
vt 0 NaN
vt 0 NaN
vt 0 NaN
vt 0 NaN
vt 0 NaN
vt 0 NaN
vt 0 NaN
vt 0 NaN
vt 0 NaN
vt 0 NaN
vt 0 NaN
vt 0 NaN
vt 0 NaN
vt 0 NaN
vt 0 NaN
vt 0 NaN
vt 0 NaN
vt 0 NaN
vt 0 NaN
vt 0 NaN
vt 0 NaN
vt 0 NaN
vt 0 NaN
vt 0 NaN
vt 0 NaN
vt 0 NaN
vt 0 NaN
vt 0 NaN
vt 0 NaN
vt 0 NaN
vt 0 NaN
vt 0 NaN
vt 0 NaN
vt 0 NaN
vt 0 NaN
vt 0 NaN
vt 0 NaN
vt 0 NaN
vt 0 NaN
vt 0 NaN
vt 0 NaN
vt 0 NaN
vt 0 NaN
vt 0 NaN
vt 0 NaN
vt 0 NaN
vt 0 NaN
vt 0 NaN
vt 0 NaN
vt 0 NaN
vt 0 NaN
vt 0 NaN
vt 0 NaN
vt 0 NaN
vt 0 NaN
vt 0 NaN
vt 0 NaN
vt 0 NaN
vt 0 NaN
vt 0 NaN
vt 0 NaN
vt 0 NaN
vt 0 NaN
vt 0 NaN
vt 0 NaN
vt 0 NaN
vt 0 NaN
vt 0 NaN
vt 0 NaN
vt 0 NaN
vt 0 NaN
vt 0 NaN
vt 0 NaN
vt 0 NaN
vt 0 NaN
vt 0 NaN
vt 0 NaN
vt 0 NaN
vt 0 NaN
vt 0 NaN
vt 0 NaN
vt 0 NaN
vt 0 NaN
vt 0 NaN
vt 0 NaN
vt 0 NaN
vt 0 NaN
vt 0 NaN
vt 0 NaN
vt 0 NaN
vt 0 NaN
vt 0 NaN
vt 0 NaN
vt 0 NaN
vt 0 NaN
vt 0 NaN
vt 0 NaN
vt 0 NaN
vt 0 NaN
vt 0 NaN
vt 0 NaN
vt 0 NaN
vt 0 NaN
vt 0 NaN
vt 0 NaN
vt 0 NaN
vt 0 NaN
vt 0 NaN
vt 0 NaN
vt 0 NaN
vt 0 NaN
vt 0 NaN
vt 0 NaN
vt 0 NaN
vt 0 NaN
vt 0 NaN
vt 0 NaN
vt 0 NaN
vt 0 NaN
vt 0 NaN
vt 0 NaN
vt 0 NaN
vt 0 NaN
vt 0 NaN
vt 0 NaN
vt 0 NaN
vt 0 NaN
vt 0 NaN
vt 0 NaN
vt 0 NaN
vt 0 NaN
vt 0 NaN
vt 0 NaN
vt 0 NaN
vt 0 NaN
vt 0 NaN
vt 0 NaN
vt 0 NaN
vt 0 NaN
vt 0 NaN
vt 0 NaN
vt 0 NaN
vt 0 NaN
vt 0 NaN
vt 0 NaN
vt 0 NaN
vt 0 NaN
vt 0 NaN
vt 0 NaN
vt 0 NaN
vt 0 NaN
vt 0 NaN
vt 0 NaN
vt 0 NaN
vt 0 NaN
vt 0 NaN
vt 0 NaN
vt 0 NaN
vt 0 NaN
vt 0 NaN
vt 0 NaN
vt 0 NaN
vt 0 NaN
vt 0 NaN
vt 0 NaN
vt 0 NaN
vt 0 NaN
vt 0 NaN
vt 0 NaN
vt 0 NaN
vt 0 NaN
vt 0 NaN
vt 0 NaN
vt 0 NaN
vt 0 NaN
vt 0 NaN
vt 0 NaN
vt 0 NaN
vt 0 NaN
vt 0 NaN
vt 0 NaN
vt 0 NaN
vt 0 NaN
vt 0 NaN
vt 0 NaN
vt 0 NaN
vt 0 NaN
vt 0 NaN
vt 0 NaN
vt 0 NaN
vt 0 NaN
vt 0 NaN
vt 0 NaN
vt 0 NaN
vt 0 NaN
vt 0 NaN
vt 0 NaN

usemtl color11

f 3/3/1 2/2/1 1/1/1
f 2/3/1 3/2/1 4/1/1
f 5/3/2 3/2/2 1/1/2
f 3/3/2 5/2/2 6/1/2
f 7/5/3 2/5/3 4/4/3
f 2/5/3 7/5/3 8/6/3
f 7/5/4 5/5/4 8/7/4
f 5/5/4 7/5/4 6/8/4
f 5/5/5 2/5/5 8/9/5
f 2/5/5 5/5/5 1/10/5
f 3/2/6 7/3/6 4/11/6
f 7/3/6 3/2/6 6/1/6
f 11/3/1 10/2/1 9/1/1
f 10/3/1 11/2/1 12/1/1
f 13/3/2 11/2/2 9/1/2
f 11/3/2 13/2/2 14/1/2
f 15/5/3 10/5/3 12/12/3
f 10/5/3 15/5/3 16/13/3
f 15/5/4 13/5/4 16/14/4
f 13/5/4 15/5/4 14/15/4
f 13/5/5 10/5/5 16/16/5
f 10/5/5 13/5/5 9/17/5
f 11/2/6 15/3/6 12/11/6
f 15/3/6 11/2/6 14/1/6
f 3/3/1 2/2/1 1/1/1
f 2/3/1 3/2/1 4/1/1
f 17/3/2 3/2/2 1/1/2
f 3/3/2 17/2/2 18/1/2
f 19/5/3 2/5/3 4/4/3
f 2/5/3 19/5/3 20/18/3
f 19/5/4 17/5/4 20/19/4
f 17/5/4 19/5/4 18/20/4
f 17/5/5 2/5/5 20/21/5
f 2/5/5 17/5/5 1/10/5
f 3/2/6 19/3/6 4/11/6
f 19/3/6 3/2/6 18/1/6
f 23/3/1 22/2/1 21/1/1
f 22/3/1 23/2/1 24/1/1
f 2/3/2 23/2/2 21/1/2
f 23/3/2 2/2/2 4/1/2
f 25/5/3 22/5/3 24/22/3
f 22/5/3 25/5/3 26/23/3
f 25/5/4 2/5/4 26/24/4
f 2/5/4 25/5/4 4/25/4
f 2/5/5 22/5/5 26/26/5
f 22/5/5 2/5/5 21/27/5
f 23/2/6 25/3/6 24/11/6
f 25/3/6 23/2/6 4/1/6
f 7/3/1 27/2/1 8/1/1
f 27/3/1 7/2/1 28/1/1
f 29/3/2 7/2/2 8/1/2
f 7/3/2 29/2/2 30/1/2
f 31/5/3 27/5/3 28/28/3
f 27/5/3 31/5/3 32/29/3
f 31/5/4 29/5/4 32/30/4
f 29/5/4 31/5/4 30/31/4
f 29/5/5 27/5/5 32/32/5
f 27/5/5 29/5/5 8/9/5
f 7/2/6 31/3/6 28/11/6
f 31/3/6 7/2/6 30/1/6
f 35/3/1 34/2/1 33/1/1
f 34/3/1 35/2/1 36/1/1
f 37/3/2 35/2/2 33/1/2
f 35/3/2 37/2/2 38/1/2
f 39/5/3 34/5/3 36/33/3
f 34/5/3 39/5/3 40/34/3
f 39/5/4 37/5/4 40/35/4
f 37/5/4 39/5/4 38/36/4
f 37/5/5 34/5/5 40/37/5
f 34/5/5 37/5/5 33/38/5
f 35/2/6 39/3/6 36/11/6
f 39/3/6 35/2/6 38/1/6
f 42/3/1 40/2/1 41/1/1
f 40/3/1 42/2/1 39/1/1
f 43/3/2 42/2/2 41/1/2
f 42/3/2 43/2/2 44/1/2
f 45/5/3 40/34/3 39/5/3
f 40/34/3 45/5/3 46/39/3
f 45/5/4 43/5/4 46/40/4
f 43/5/4 45/5/4 44/41/4
f 43/5/5 40/37/5 46/42/5
f 40/37/5 43/5/5 41/43/5
f 42/2/6 45/3/6 39/11/6
f 45/3/6 42/2/6 44/1/6
f 49/3/1 48/2/1 47/1/1
f 48/3/1 49/2/1 50/1/1
f 51/3/2 49/2/2 47/1/2
f 49/3/2 51/2/2 52/1/2
f 53/5/3 48/5/3 50/44/3
f 48/5/3 53/5/3 54/45/3
f 53/5/4 51/5/4 54/46/4
f 51/5/4 53/5/4 52/47/4
f 51/5/5 48/5/5 54/48/5
f 48/5/5 51/5/5 47/49/5
f 49/2/6 53/3/6 50/11/6
f 53/3/6 49/2/6 52/1/6
f 57/3/1 56/2/1 55/1/1
f 56/3/1 57/2/1 58/1/1
f 48/3/2 57/2/2 55/1/2
f 57/3/2 48/2/2 50/1/2
f 59/5/3 56/5/3 58/50/3
f 56/5/3 59/5/3 60/51/3
f 59/5/4 48/5/4 60/52/4
f 48/5/4 59/5/4 50/53/4
f 48/5/5 56/5/5 60/54/5
f 56/5/5 48/5/5 55/55/5
f 57/2/6 59/3/6 58/11/6
f 59/3/6 57/2/6 50/1/6
f 63/3/1 62/2/1 61/1/1
f 62/3/1 63/2/1 64/1/1
f 65/3/2 63/2/2 61/1/2
f 63/3/2 65/2/2 66/1/2
f 67/5/3 62/5/3 64/56/3
f 62/5/3 67/5/3 68/57/3
f 67/5/4 65/5/4 68/58/4
f 65/5/4 67/5/4 66/59/4
f 65/5/5 62/5/5 68/60/5
f 62/5/5 65/5/5 61/61/5
f 63/2/6 67/3/6 64/11/6
f 67/3/6 63/2/6 66/1/6
f 71/3/1 70/2/1 69/1/1
f 70/3/1 71/2/1 72/1/1
f 56/3/2 71/2/2 69/1/2
f 71/3/2 56/2/2 58/1/2
f 73/5/3 70/5/3 72/62/3
f 70/5/3 73/5/3 74/63/3
f 73/5/4 56/5/4 74/64/4
f 56/5/4 73/5/4 58/65/4
f 56/5/5 70/5/5 74/66/5
f 70/5/5 56/5/5 69/67/5
f 71/2/6 73/3/6 72/11/6
f 73/3/6 71/2/6 58/1/6
f 77/3/1 76/2/1 75/1/1
f 76/3/1 77/2/1 78/1/1
f 79/3/2 77/2/2 75/1/2
f 77/3/2 79/2/2 80/1/2
f 81/5/3 76/5/3 78/68/3
f 76/5/3 81/5/3 82/69/3
f 81/5/4 79/5/4 82/70/4
f 79/5/4 81/5/4 80/71/4
f 79/5/5 76/5/5 82/72/5
f 76/5/5 79/5/5 75/73/5
f 77/2/6 81/3/6 78/11/6
f 81/3/6 77/2/6 80/1/6
f 85/3/1 84/2/1 83/1/1
f 84/3/1 85/2/1 86/1/1
f 87/3/2 85/2/2 83/1/2
f 85/3/2 87/2/2 88/1/2
f 89/5/3 84/5/3 86/74/3
f 84/5/3 89/5/3 90/75/3
f 89/5/4 87/5/4 90/76/4
f 87/5/4 89/5/4 88/77/4
f 87/5/5 84/5/5 90/78/5
f 84/5/5 87/5/5 83/79/5
f 85/2/6 89/3/6 86/11/6
f 89/3/6 85/2/6 88/1/6
f 93/3/1 92/2/1 91/1/1
f 92/3/1 93/2/1 94/1/1
f 95/3/2 93/2/2 91/1/2
f 93/3/2 95/2/2 96/1/2
f 97/5/3 92/5/3 94/80/3
f 92/5/3 97/5/3 98/81/3
f 97/5/4 95/5/4 98/82/4
f 95/5/4 97/5/4 96/83/4
f 95/5/5 92/5/5 98/84/5
f 92/5/5 95/5/5 91/85/5
f 93/2/6 97/3/6 94/11/6
f 97/3/6 93/2/6 96/1/6

usemtl color17

f 6/3/1 8/2/1 5/1/1
f 8/3/1 6/2/1 7/1/1
f 99/3/2 6/2/2 5/1/2
f 6/3/2 99/2/2 100/1/2
f 30/5/3 8/6/3 7/5/3
f 8/6/3 30/5/3 29/86/3
f 30/31/4 99/5/4 29/5/4
f 99/5/4 30/31/4 100/87/4
f 99/5/5 8/9/5 29/5/5
f 8/9/5 99/5/5 5/5/5
f 6/2/6 30/3/6 7/11/6
f 30/3/6 6/2/6 100/1/6
f 52/3/1 54/2/1 51/1/1
f 54/3/1 52/2/1 53/1/1
f 101/3/2 52/2/2 51/1/2
f 52/3/2 101/2/2 102/1/2
f 103/5/3 54/45/3 53/5/3
f 54/45/3 103/5/3 104/88/3
f 103/5/4 101/5/4 104/89/4
f 101/5/4 103/5/4 102/90/4
f 101/5/5 54/48/5 104/91/5
f 54/48/5 101/5/5 51/5/5
f 52/2/6 103/3/6 53/11/6
f 103/3/6 52/2/6 102/1/6
f 106/3/1 65/2/1 105/1/1
f 65/3/1 106/2/1 66/1/1
f 107/3/2 106/2/2 105/1/2
f 106/3/2 107/2/2 108/1/2
f 109/5/3 65/5/3 66/92/3
f 65/5/3 109/5/3 110/93/3
f 109/5/4 107/5/4 110/94/4
f 107/5/4 109/5/4 108/95/4
f 107/5/5 65/5/5 110/96/5
f 65/5/5 107/5/5 105/97/5
f 106/2/6 109/3/6 66/11/6
f 109/3/6 106/2/6 108/1/6

usemtl color16

f 113/3/1 112/2/1 111/1/1
f 112/3/1 113/2/1 114/1/1
f 115/3/2 113/2/2 111/1/2
f 113/3/2 115/2/2 116/1/2
f 117/5/3 112/5/3 114/98/3
f 112/5/3 117/5/3 118/99/3
f 117/5/4 115/5/4 118/100/4
f 115/5/4 117/5/4 116/101/4
f 115/5/5 112/5/5 118/102/5
f 112/5/5 115/5/5 111/103/5
f 113/2/6 117/3/6 114/11/6
f 117/3/6 113/2/6 116/1/6
f 121/3/1 120/2/1 119/1/1
f 120/3/1 121/2/1 122/1/1
f 112/3/2 121/2/2 119/1/2
f 121/3/2 112/2/2 114/1/2
f 123/5/3 120/5/3 122/104/3
f 120/5/3 123/5/3 124/105/3
f 123/5/4 112/5/4 124/106/4
f 112/5/4 123/5/4 114/107/4
f 112/5/5 120/5/5 124/108/5
f 120/5/5 112/5/5 119/109/5
f 121/2/6 123/3/6 122/11/6
f 123/3/6 121/2/6 114/1/6
f 127/3/1 126/2/1 125/1/1
f 126/3/1 127/2/1 128/1/1
f 129/3/2 127/2/2 125/1/2
f 127/3/2 129/2/2 130/1/2
f 131/5/3 126/5/3 128/110/3
f 126/5/3 131/5/3 132/111/3
f 131/5/4 129/5/4 132/112/4
f 129/5/4 131/5/4 130/113/4
f 129/5/5 126/5/5 132/114/5
f 126/5/5 129/5/5 125/115/5
f 127/2/6 131/3/6 128/11/6
f 131/3/6 127/2/6 130/1/6
f 135/3/1 134/2/1 133/1/1
f 134/3/1 135/2/1 136/1/1
f 137/3/2 135/2/2 133/1/2
f 135/3/2 137/2/2 138/1/2
f 139/5/3 134/5/3 136/116/3
f 134/5/3 139/5/3 140/117/3
f 139/5/4 137/5/4 140/118/4
f 137/5/4 139/5/4 138/119/4
f 137/5/5 134/5/5 140/120/5
f 134/5/5 137/5/5 133/121/5
f 135/2/6 139/3/6 136/11/6
f 139/3/6 135/2/6 138/1/6
f 143/3/1 142/2/1 141/1/1
f 142/3/1 143/2/1 144/1/1
f 145/3/2 143/2/2 141/1/2
f 143/3/2 145/2/2 146/1/2
f 147/5/3 142/5/3 144/122/3
f 142/5/3 147/5/3 148/123/3
f 147/5/4 145/5/4 148/124/4
f 145/5/4 147/5/4 146/125/4
f 145/5/5 142/5/5 148/126/5
f 142/5/5 145/5/5 141/127/5
f 143/2/6 147/3/6 144/11/6
f 147/3/6 143/2/6 146/1/6
f 151/3/1 150/2/1 149/1/1
f 150/3/1 151/2/1 152/1/1
f 153/3/2 151/2/2 149/1/2
f 151/3/2 153/2/2 154/1/2
f 155/5/3 150/5/3 152/128/3
f 150/5/3 155/5/3 156/129/3
f 155/5/4 153/5/4 156/130/4
f 153/5/4 155/5/4 154/131/4
f 153/5/5 150/5/5 156/132/5
f 150/5/5 153/5/5 149/133/5
f 151/2/6 155/3/6 152/11/6
f 155/3/6 151/2/6 154/1/6
f 159/3/1 158/2/1 157/1/1
f 158/3/1 159/2/1 160/1/1
f 161/3/2 159/2/2 157/1/2
f 159/3/2 161/2/2 162/1/2
f 163/5/3 158/5/3 160/134/3
f 158/5/3 163/5/3 164/135/3
f 163/5/4 161/5/4 164/136/4
f 161/5/4 163/5/4 162/137/4
f 161/5/5 158/5/5 164/138/5
f 158/5/5 161/5/5 157/139/5
f 159/2/6 163/3/6 160/11/6
f 163/3/6 159/2/6 162/1/6
f 167/3/1 166/2/1 165/1/1
f 166/3/1 167/2/1 168/1/1
f 169/3/2 167/2/2 165/1/2
f 167/3/2 169/2/2 170/1/2
f 171/5/3 166/5/3 168/140/3
f 166/5/3 171/5/3 172/141/3
f 171/5/4 169/5/4 172/142/4
f 169/5/4 171/5/4 170/143/4
f 169/5/5 166/5/5 172/144/5
f 166/5/5 169/5/5 165/145/5
f 167/2/6 171/3/6 168/11/6
f 171/3/6 167/2/6 170/1/6

usemtl color12

f 175/3/1 174/2/1 173/1/1
f 174/3/1 175/2/1 176/1/1
f 177/3/2 175/2/2 173/1/2
f 175/3/2 177/2/2 178/1/2
f 179/5/3 174/5/3 176/146/3
f 174/5/3 179/5/3 180/147/3
f 179/5/4 177/5/4 180/148/4
f 177/5/4 179/5/4 178/149/4
f 177/5/5 174/5/5 180/150/5
f 174/5/5 177/5/5 173/151/5
f 175/2/6 179/3/6 176/11/6
f 179/3/6 175/2/6 178/1/6
f 183/3/1 182/2/1 181/1/1
f 182/3/1 183/2/1 184/1/1
f 174/3/2 183/2/2 181/1/2
f 183/3/2 174/2/2 176/1/2
f 185/5/3 182/5/3 184/152/3
f 182/5/3 185/5/3 186/153/3
f 185/5/4 174/5/4 186/154/4
f 174/5/4 185/5/4 176/155/4
f 174/5/5 182/5/5 186/156/5
f 182/5/5 174/5/5 181/157/5
f 183/2/6 185/3/6 184/11/6
f 185/3/6 183/2/6 176/1/6
f 179/3/1 187/2/1 180/1/1
f 187/3/1 179/2/1 188/1/1
f 120/3/2 179/2/2 180/1/2
f 179/3/2 120/2/2 122/1/2
f 189/5/3 187/5/3 188/158/3
f 187/5/3 189/5/3 190/159/3
f 189/5/4 120/5/4 190/160/4
f 120/5/4 189/5/4 122/161/4
f 120/5/5 187/5/5 190/162/5
f 187/5/5 120/5/5 180/150/5
f 179/2/6 189/3/6 188/11/6
f 189/3/6 179/2/6 122/1/6
f 193/3/1 192/2/1 191/1/1
f 192/3/1 193/2/1 194/1/1
f 195/3/2 193/2/2 191/1/2
f 193/3/2 195/2/2 196/1/2
f 197/5/3 192/5/3 194/163/3
f 192/5/3 197/5/3 198/164/3
f 197/5/4 195/5/4 198/165/4
f 195/5/4 197/5/4 196/166/4
f 195/5/5 192/5/5 198/167/5
f 192/5/5 195/5/5 191/168/5
f 193/2/6 197/3/6 194/11/6
f 197/3/6 193/2/6 196/1/6
f 201/3/1 200/2/1 199/1/1
f 200/3/1 201/2/1 202/1/1
f 203/3/2 201/2/2 199/1/2
f 201/3/2 203/2/2 204/1/2
f 205/5/3 200/5/3 202/169/3
f 200/5/3 205/5/3 206/170/3
f 205/5/4 203/5/4 206/171/4
f 203/5/4 205/5/4 204/172/4
f 203/5/5 200/5/5 206/173/5
f 200/5/5 203/5/5 199/174/5
f 201/2/6 205/3/6 202/11/6
f 205/3/6 201/2/6 204/1/6
f 209/3/1 208/2/1 207/1/1
f 208/3/1 209/2/1 210/1/1
f 211/3/2 209/2/2 207/1/2
f 209/3/2 211/2/2 212/1/2
f 213/5/3 208/5/3 210/175/3
f 208/5/3 213/5/3 214/176/3
f 213/5/4 211/5/4 214/177/4
f 211/5/4 213/5/4 212/178/4
f 211/5/5 208/5/5 214/179/5
f 208/5/5 211/5/5 207/180/5
f 209/2/6 213/3/6 210/11/6
f 213/3/6 209/2/6 212/1/6

usemtl color18

f 217/3/1 216/2/1 215/1/1
f 216/3/1 217/2/1 218/1/1
f 219/3/2 217/2/2 215/1/2
f 217/3/2 219/2/2 220/1/2
f 221/5/3 216/5/3 218/181/3
f 216/5/3 221/5/3 222/182/3
f 221/5/4 219/5/4 222/183/4
f 219/5/4 221/5/4 220/184/4
f 219/5/5 216/5/5 222/185/5
f 216/5/5 219/5/5 215/186/5
f 217/2/6 221/3/6 218/11/6
f 221/3/6 217/2/6 220/1/6
f 225/3/1 224/2/1 223/1/1
f 224/3/1 225/2/1 226/1/1
f 216/3/2 225/2/2 223/1/2
f 225/3/2 216/2/2 218/1/2
f 227/5/3 224/5/3 226/187/3
f 224/5/3 227/5/3 228/188/3
f 227/5/4 216/5/4 228/189/4
f 216/5/4 227/5/4 218/190/4
f 216/5/5 224/5/5 228/191/5
f 224/5/5 216/5/5 223/192/5
f 225/2/6 227/3/6 226/11/6
f 227/3/6 225/2/6 218/1/6
f 221/3/1 229/2/1 222/1/1
f 229/3/1 221/2/1 230/1/1
f 231/3/2 221/2/2 222/1/2
f 221/3/2 231/2/2 232/1/2
f 233/5/3 229/5/3 230/193/3
f 229/5/3 233/5/3 234/194/3
f 233/5/4 231/5/4 234/195/4
f 231/5/4 233/5/4 232/196/4
f 231/5/5 229/5/5 234/197/5
f 229/5/5 231/5/5 222/185/5
f 221/2/6 233/3/6 230/11/6
f 233/3/6 221/2/6 232/1/6
f 227/3/1 235/2/1 228/1/1
f 235/3/1 227/2/1 236/1/1
f 229/3/2 227/2/2 228/1/2
f 227/3/2 229/2/2 230/1/2
f 237/5/3 235/5/3 236/198/3
f 235/5/3 237/5/3 238/199/3
f 237/5/4 229/5/4 238/200/4
f 229/5/4 237/5/4 230/201/4
f 229/5/5 235/5/5 238/202/5
f 235/5/5 229/5/5 228/191/5
f 227/2/6 237/3/6 236/11/6
f 237/3/6 227/2/6 230/1/6

usemtl color21

f 117/3/1 239/2/1 118/1/1
f 239/3/1 117/2/1 240/1/1
f 241/3/2 117/2/2 118/1/2
f 117/3/2 241/2/2 242/1/2
f 243/5/3 239/5/3 240/203/3
f 239/5/3 243/5/3 244/204/3
f 243/5/4 241/5/4 244/205/4
f 241/5/4 243/5/4 242/206/4
f 241/5/5 239/5/5 244/207/5
f 239/5/5 241/5/5 118/102/5
f 117/2/6 243/3/6 240/11/6
f 243/3/6 117/2/6 242/1/6

usemtl color10

f 247/3/1 246/2/1 245/1/1
f 246/3/1 247/2/1 248/1/1
f 181/3/2 247/2/2 245/1/2
f 247/3/2 181/2/2 183/1/2
f 184/152/3 246/5/3 248/208/3
f 246/5/3 184/152/3 182/5/3
f 184/5/4 181/5/4 182/209/4
f 181/5/4 184/5/4 183/210/4
f 181/157/5 246/5/5 182/5/5
f 246/5/5 181/157/5 245/211/5
f 247/2/6 184/3/6 248/11/6
f 184/3/6 247/2/6 183/1/6
f 38/3/1 41/2/1 37/1/1
f 41/3/1 38/2/1 42/1/1
f 249/3/2 38/2/2 37/1/2
f 38/3/2 249/2/2 250/1/2
f 44/5/3 41/5/3 42/212/3
f 41/5/3 44/5/3 43/213/3
f 44/41/4 249/5/4 43/5/4
f 249/5/4 44/41/4 250/214/4
f 249/5/5 41/43/5 43/5/5
f 41/43/5 249/5/5 37/5/5
f 38/2/6 44/3/6 42/11/6
f 44/3/6 38/2/6 250/1/6
f 252/3/1 101/2/1 251/1/1
f 101/3/1 252/2/1 102/1/1
f 253/3/2 252/2/2 251/1/2
f 252/3/2 253/2/2 254/1/2
f 255/5/3 101/5/3 102/215/3
f 101/5/3 255/5/3 256/216/3
f 255/5/4 253/5/4 256/217/4
f 253/5/4 255/5/4 254/218/4
f 253/5/5 101/5/5 256/219/5
f 101/5/5 253/5/5 251/220/5
f 252/2/6 255/3/6 102/11/6
f 255/3/6 252/2/6 254/1/6
f 259/3/1 258/2/1 257/1/1
f 258/3/1 259/2/1 260/1/1
f 61/3/2 259/2/2 257/1/2
f 259/3/2 61/2/2 63/1/2
f 64/56/3 258/5/3 260/221/3
f 258/5/3 64/56/3 62/5/3
f 64/5/4 61/5/4 62/222/4
f 61/5/4 64/5/4 63/223/4
f 61/61/5 258/5/5 62/5/5
f 258/5/5 61/61/5 257/224/5
f 259/2/6 64/3/6 260/11/6
f 64/3/6 259/2/6 63/1/6
f 263/3/1 262/2/1 261/1/1
f 262/3/1 263/2/1 264/1/1
f 258/3/2 263/2/2 261/1/2
f 263/3/2 258/2/2 260/1/2
f 265/5/3 262/5/3 264/225/3
f 262/5/3 265/5/3 266/226/3
f 265/5/4 258/5/4 266/227/4
f 258/5/4 265/5/4 260/228/4
f 258/5/5 262/5/5 266/229/5
f 262/5/5 258/5/5 261/230/5
f 263/2/6 265/3/6 264/11/6
f 265/3/6 263/2/6 260/1/6
f 269/3/1 268/2/1 267/1/1
f 268/3/1 269/2/1 270/1/1
f 271/3/2 269/2/2 267/1/2
f 269/3/2 271/2/2 272/1/2
f 273/5/3 268/5/3 270/231/3
f 268/5/3 273/5/3 274/232/3
f 273/5/4 271/5/4 274/233/4
f 271/5/4 273/5/4 272/234/4
f 271/5/5 268/5/5 274/235/5
f 268/5/5 271/5/5 267/236/5
f 269/2/6 273/3/6 270/11/6
f 273/3/6 269/2/6 272/1/6
f 277/3/1 276/2/1 275/1/1
f 276/3/1 277/2/1 278/1/1
f 279/3/2 277/2/2 275/1/2
f 277/3/2 279/2/2 280/1/2
f 281/5/3 276/5/3 278/237/3
f 276/5/3 281/5/3 282/238/3
f 281/5/4 279/5/4 282/239/4
f 279/5/4 281/5/4 280/240/4
f 279/5/5 276/5/5 282/241/5
f 276/5/5 279/5/5 275/242/5
f 277/2/6 281/3/6 278/11/6
f 281/3/6 277/2/6 280/1/6
f 210/3/1 283/2/1 208/1/1
f 283/3/1 210/2/1 284/1/1
f 214/3/2 210/2/2 208/1/2
f 210/3/2 214/2/2 213/1/2
f 285/5/3 283/5/3 284/243/3
f 283/5/3 285/5/3 286/244/3
f 285/5/4 214/177/4 286/245/4
f 214/177/4 285/5/4 213/5/4
f 214/179/5 283/5/5 286/246/5
f 283/5/5 214/179/5 208/5/5
f 210/2/6 285/3/6 284/11/6
f 285/3/6 210/2/6 213/1/6

usemtl color5

f 289/3/1 288/2/1 287/1/1
f 288/3/1 289/2/1 290/1/1
f 291/3/2 289/2/2 287/1/2
f 289/3/2 291/2/2 292/1/2
f 293/5/3 288/5/3 290/247/3
f 288/5/3 293/5/3 294/248/3
f 293/5/4 291/5/4 294/249/4
f 291/5/4 293/5/4 292/250/4
f 291/5/5 288/5/5 294/251/5
f 288/5/5 291/5/5 287/252/5
f 289/2/6 293/3/6 290/11/6
f 293/3/6 289/2/6 292/1/6
f 297/3/1 296/2/1 295/1/1
f 296/3/1 297/2/1 298/1/1
f 299/3/2 297/2/2 295/1/2
f 297/3/2 299/2/2 300/1/2
f 301/5/3 296/5/3 298/253/3
f 296/5/3 301/5/3 302/254/3
f 301/5/4 299/5/4 302/255/4
f 299/5/4 301/5/4 300/256/4
f 299/5/5 296/5/5 302/257/5
f 296/5/5 299/5/5 295/258/5
f 297/2/6 301/3/6 298/11/6
f 301/3/6 297/2/6 300/1/6
f 109/3/1 303/2/1 110/1/1
f 303/3/1 109/2/1 304/1/1
f 305/3/2 109/2/2 110/1/2
f 109/3/2 305/2/2 306/1/2
f 307/5/3 303/5/3 304/259/3
f 303/5/3 307/5/3 308/260/3
f 307/5/4 305/5/4 308/261/4
f 305/5/4 307/5/4 306/262/4
f 305/5/5 303/5/5 308/263/5
f 303/5/5 305/5/5 110/96/5
f 109/2/6 307/3/6 304/11/6
f 307/3/6 109/2/6 306/1/6
f 301/3/1 309/2/1 302/1/1
f 309/3/1 301/2/1 310/1/1
f 311/3/2 301/2/2 302/1/2
f 301/3/2 311/2/2 312/1/2
f 313/5/3 309/5/3 310/264/3
f 309/5/3 313/5/3 314/265/3
f 313/5/4 311/5/4 314/266/4
f 311/5/4 313/5/4 312/267/4
f 311/5/5 309/5/5 314/268/5
f 309/5/5 311/5/5 302/257/5
f 301/2/6 313/3/6 310/11/6
f 313/3/6 301/2/6 312/1/6
f 316/3/1 141/2/1 315/1/1
f 141/3/1 316/2/1 143/1/1
f 317/3/2 316/2/2 315/1/2
f 316/3/2 317/2/2 318/1/2
f 146/5/3 141/5/3 143/269/3
f 141/5/3 146/5/3 145/270/3
f 146/125/4 317/5/4 145/5/4
f 317/5/4 146/125/4 318/271/4
f 317/5/5 141/127/5 145/5/5
f 141/127/5 317/5/5 315/272/5
f 316/2/6 146/3/6 143/11/6
f 146/3/6 316/2/6 318/1/6
f 320/3/1 149/2/1 319/1/1
f 149/3/1 320/2/1 151/1/1
f 321/3/2 320/2/2 319/1/2
f 320/3/2 321/2/2 322/1/2
f 323/5/3 149/5/3 151/273/3
f 149/5/3 323/5/3 324/274/3
f 323/5/4 321/5/4 324/275/4
f 321/5/4 323/5/4 322/276/4
f 321/5/5 149/133/5 324/277/5
f 149/133/5 321/5/5 319/278/5
f 320/2/6 323/3/6 151/11/6
f 323/3/6 320/2/6 322/1/6
f 326/3/1 165/2/1 325/1/1
f 165/3/1 326/2/1 167/1/1
f 327/3/2 326/2/2 325/1/2
f 326/3/2 327/2/2 328/1/2
f 170/5/3 165/5/3 167/279/3
f 165/5/3 170/5/3 169/280/3
f 170/143/4 327/5/4 169/5/4
f 327/5/4 170/143/4 328/281/4
f 327/5/5 165/145/5 169/5/5
f 165/145/5 327/5/5 325/282/5
f 326/2/6 170/3/6 167/11/6
f 170/3/6 326/2/6 328/1/6
f 331/3/1 330/2/1 329/1/1
f 330/3/1 331/2/1 332/1/1
f 333/3/2 331/2/2 329/1/2
f 331/3/2 333/2/2 334/1/2
f 335/5/3 330/5/3 332/283/3
f 330/5/3 335/5/3 336/284/3
f 335/5/4 333/5/4 336/285/4
f 333/5/4 335/5/4 334/286/4
f 333/5/5 330/5/5 336/287/5
f 330/5/5 333/5/5 329/288/5
f 331/2/6 335/3/6 332/11/6
f 335/3/6 331/2/6 334/1/6
f 339/3/1 338/2/1 337/1/1
f 338/3/1 339/2/1 340/1/1
f 341/3/2 339/2/2 337/1/2
f 339/3/2 341/2/2 342/1/2
f 343/5/3 338/5/3 340/289/3
f 338/5/3 343/5/3 344/290/3
f 343/5/4 341/5/4 344/291/4
f 341/5/4 343/5/4 342/292/4
f 341/5/5 338/5/5 344/293/5
f 338/5/5 341/5/5 337/294/5
f 339/2/6 343/3/6 340/11/6
f 343/3/6 339/2/6 342/1/6
f 347/3/1 346/2/1 345/1/1
f 346/3/1 347/2/1 348/1/1
f 349/3/2 347/2/2 345/1/2
f 347/3/2 349/2/2 350/1/2
f 351/5/3 346/5/3 348/295/3
f 346/5/3 351/5/3 352/296/3
f 351/5/4 349/5/4 352/297/4
f 349/5/4 351/5/4 350/298/4
f 349/5/5 346/5/5 352/299/5
f 346/5/5 349/5/5 345/300/5
f 347/2/6 351/3/6 348/11/6
f 351/3/6 347/2/6 350/1/6

usemtl color7

f 292/3/1 353/2/1 291/1/1
f 353/3/1 292/2/1 354/1/1
f 355/3/2 292/2/2 291/1/2
f 292/3/2 355/2/2 356/1/2
f 357/5/3 353/5/3 354/301/3
f 353/5/3 357/5/3 358/302/3
f 357/5/4 355/5/4 358/303/4
f 355/5/4 357/5/4 356/304/4
f 355/5/5 353/5/5 358/305/5
f 353/5/5 355/5/5 291/5/5
f 292/2/6 357/3/6 354/11/6
f 357/3/6 292/2/6 356/1/6
f 290/3/1 359/2/1 288/1/1
f 359/3/1 290/2/1 360/1/1
f 294/3/2 290/2/2 288/1/2
f 290/3/2 294/2/2 293/1/2
f 354/301/3 359/5/3 360/306/3
f 359/5/3 354/301/3 353/5/3
f 354/5/4 294/249/4 353/307/4
f 294/249/4 354/5/4 293/5/4
f 294/251/5 359/5/5 353/5/5
f 359/5/5 294/251/5 288/5/5
f 290/2/6 354/3/6 360/11/6
f 354/3/6 290/2/6 293/1/6
f 363/3/1 362/2/1 361/1/1
f 362/3/1 363/2/1 364/1/1
f 365/3/2 363/2/2 361/1/2
f 363/3/2 365/2/2 366/1/2
f 367/5/3 362/5/3 364/308/3
f 362/5/3 367/5/3 368/309/3
f 367/5/4 365/5/4 368/310/4
f 365/5/4 367/5/4 366/311/4
f 365/5/5 362/5/5 368/312/5
f 362/5/5 365/5/5 361/313/5
f 363/2/6 367/3/6 364/11/6
f 367/3/6 363/2/6 366/1/6
f 136/3/1 75/2/1 134/1/1
f 75/3/1 136/2/1 77/1/1
f 140/3/2 136/2/2 134/1/2
f 136/3/2 140/2/2 139/1/2
f 80/5/3 75/5/3 77/314/3
f 75/5/3 80/5/3 79/315/3
f 80/71/4 140/118/4 79/5/4
f 140/118/4 80/71/4 139/5/4
f 140/120/5 75/73/5 79/5/5
f 75/73/5 140/120/5 134/5/5
f 136/2/6 80/3/6 77/11/6
f 80/3/6 136/2/6 139/1/6
f 168/3/1 83/2/1 166/1/1
f 83/3/1 168/2/1 85/1/1
f 172/3/2 168/2/2 166/1/2
f 168/3/2 172/2/2 171/1/2
f 88/5/3 83/5/3 85/316/3
f 83/5/3 88/5/3 87/317/3
f 88/77/4 172/142/4 87/5/4
f 172/142/4 88/77/4 171/5/4
f 172/144/5 83/79/5 87/5/5
f 83/79/5 172/144/5 166/5/5
f 168/2/6 88/3/6 85/11/6
f 88/3/6 168/2/6 171/1/6
f 78/3/1 91/2/1 76/1/1
f 91/3/1 78/2/1 93/1/1
f 82/3/2 78/2/2 76/1/2
f 78/3/2 82/2/2 81/1/2
f 96/5/3 91/5/3 93/318/3
f 91/5/3 96/5/3 95/319/3
f 96/83/4 82/70/4 95/5/4
f 82/70/4 96/83/4 81/5/4
f 82/72/5 91/85/5 95/5/5
f 91/85/5 82/72/5 76/5/5
f 78/2/6 96/3/6 93/11/6
f 96/3/6 78/2/6 81/1/6
f 86/3/1 369/2/1 84/1/1
f 369/3/1 86/2/1 370/1/1
f 90/3/2 86/2/2 84/1/2
f 86/3/2 90/2/2 89/1/2
f 371/5/3 369/5/3 370/320/3
f 369/5/3 371/5/3 372/321/3
f 371/5/4 90/76/4 372/322/4
f 90/76/4 371/5/4 89/5/4
f 90/78/5 369/5/5 372/323/5
f 369/5/5 90/78/5 84/5/5
f 86/2/6 371/3/6 370/11/6
f 371/3/6 86/2/6 89/1/6
f 94/3/1 373/2/1 92/1/1
f 373/3/1 94/2/1 374/1/1
f 98/3/2 94/2/2 92/1/2
f 94/3/2 98/2/2 97/1/2
f 375/5/3 373/5/3 374/324/3
f 373/5/3 375/5/3 376/325/3
f 375/5/4 98/82/4 376/326/4
f 98/82/4 375/5/4 97/5/4
f 98/84/5 373/5/5 376/327/5
f 373/5/5 98/84/5 92/5/5
f 94/2/6 375/3/6 374/11/6
f 375/3/6 94/2/6 97/1/6
f 378/3/1 345/2/1 377/1/1
f 345/3/1 378/2/1 347/1/1
f 379/3/2 378/2/2 377/1/2
f 378/3/2 379/2/2 380/1/2
f 350/5/3 345/5/3 347/328/3
f 345/5/3 350/5/3 349/329/3
f 350/298/4 379/5/4 349/5/4
f 379/5/4 350/298/4 380/330/4
f 379/5/5 345/300/5 349/5/5
f 345/300/5 379/5/5 377/331/5
f 378/2/6 350/3/6 347/11/6
f 350/3/6 378/2/6 380/1/6

usemtl color19

f 383/3/1 382/2/1 381/1/1
f 382/3/1 383/2/1 384/1/1
f 385/3/2 383/2/2 381/1/2
f 383/3/2 385/2/2 386/1/2
f 366/5/3 382/5/3 384/332/3
f 382/5/3 366/5/3 365/333/3
f 366/311/4 385/5/4 365/5/4
f 385/5/4 366/311/4 386/334/4
f 385/5/5 382/5/5 365/5/5
f 382/5/5 385/5/5 381/335/5
f 383/2/6 366/3/6 384/11/6
f 366/3/6 383/2/6 386/1/6

usemtl color20

f 250/3/1 43/2/1 249/1/1
f 43/3/1 250/2/1 44/1/1
f 387/3/2 250/2/2 249/1/2
f 250/3/2 387/2/2 388/1/2
f 389/5/3 43/213/3 44/5/3
f 43/213/3 389/5/3 390/336/3
f 389/5/4 387/5/4 390/337/4
f 387/5/4 389/5/4 388/338/4
f 387/5/5 43/5/5 390/339/5
f 43/5/5 387/5/5 249/5/5
f 250/2/6 389/3/6 44/11/6
f 389/3/6 250/2/6 388/1/6

usemtl color0

f 388/3/1 391/2/1 387/1/1
f 391/3/1 388/2/1 392/1/1
f 393/3/2 388/2/2 387/1/2
f 388/3/2 393/2/2 394/1/2
f 395/5/3 391/5/3 392/340/3
f 391/5/3 395/5/3 396/341/3
f 395/5/4 393/5/4 396/342/4
f 393/5/4 395/5/4 394/343/4
f 393/5/5 391/5/5 396/344/5
f 391/5/5 393/5/5 387/5/5
f 388/2/6 395/3/6 392/11/6
f 395/3/6 388/2/6 394/1/6

usemtl color14

f 44/3/1 46/2/1 43/1/1
f 46/3/1 44/2/1 45/1/1
f 390/3/2 44/2/2 43/1/2
f 44/3/2 390/2/2 389/1/2
f 392/340/3 46/39/3 45/5/3
f 46/39/3 392/340/3 391/5/3
f 392/5/4 390/337/4 391/345/4
f 390/337/4 392/5/4 389/5/4
f 390/339/5 46/42/5 391/5/5
f 46/42/5 390/339/5 43/5/5
f 44/2/6 392/3/6 45/11/6
f 392/3/6 44/2/6 389/1/6
f 399/3/1 398/2/1 397/1/1
f 398/3/1 399/2/1 400/1/1
f 401/3/2 399/2/2 397/1/2
f 399/3/2 401/2/2 402/1/2
f 403/5/3 398/5/3 400/346/3
f 398/5/3 403/5/3 404/347/3
f 403/5/4 401/5/4 404/348/4
f 401/5/4 403/5/4 402/349/4
f 401/5/5 398/5/5 404/350/5
f 398/5/5 401/5/5 397/351/5
f 399/2/6 403/3/6 400/11/6
f 403/3/6 399/2/6 402/1/6

usemtl color4

f 255/3/1 405/2/1 256/1/1
f 405/3/1 255/2/1 406/1/1
f 407/3/2 255/2/2 256/1/2
f 255/3/2 407/2/2 408/1/2
f 409/5/3 405/5/3 406/352/3
f 405/5/3 409/5/3 410/353/3
f 409/5/4 407/5/4 410/354/4
f 407/5/4 409/5/4 408/355/4
f 407/5/5 405/5/5 410/356/5
f 405/5/5 407/5/5 256/219/5
f 255/2/6 409/3/6 406/11/6
f 409/3/6 255/2/6 408/1/6
f 103/3/1 411/2/1 104/1/1
f 411/3/1 103/2/1 412/1/1
f 405/3/2 103/2/2 104/1/2
f 103/3/2 405/2/2 406/1/2
f 413/5/3 411/5/3 412/357/3
f 411/5/3 413/5/3 414/358/3
f 413/5/4 405/5/4 414/359/4
f 405/5/4 413/5/4 406/360/4
f 405/5/5 411/5/5 414/361/5
f 411/5/5 405/5/5 104/91/5
f 103/2/6 413/3/6 412/11/6
f 413/3/6 103/2/6 406/1/6
f 67/3/1 133/2/1 68/1/1
f 133/3/1 67/2/1 135/1/1
f 303/3/2 67/2/2 68/1/2
f 67/3/2 303/2/2 304/1/2
f 138/5/3 133/5/3 135/362/3
f 133/5/3 138/5/3 137/363/3
f 138/119/4 303/5/4 137/5/4
f 303/5/4 138/119/4 304/364/4
f 303/5/5 133/121/5 137/5/5
f 133/121/5 303/5/5 68/60/5
f 67/2/6 138/3/6 135/11/6
f 138/3/6 67/2/6 304/1/6
f 374/3/1 415/2/1 373/1/1
f 415/3/1 374/2/1 416/1/1
f 376/3/2 374/2/2 373/1/2
f 374/3/2 376/2/2 375/1/2
f 417/5/3 415/5/3 416/365/3
f 415/5/3 417/5/3 418/366/3
f 417/5/4 376/326/4 418/367/4
f 376/326/4 417/5/4 375/5/4
f 376/327/5 415/5/5 418/368/5
f 415/5/5 376/327/5 373/5/5
f 374/2/6 417/3/6 416/11/6
f 417/3/6 374/2/6 375/1/6

usemtl color6

f 421/3/1 420/2/1 419/1/1
f 420/3/1 421/2/1 422/1/1
f 423/3/2 421/2/2 419/1/2
f 421/3/2 423/2/2 424/1/2
f 425/5/3 420/5/3 422/369/3
f 420/5/3 425/5/3 426/370/3
f 425/5/4 423/5/4 426/371/4
f 423/5/4 425/5/4 424/372/4
f 423/5/5 420/5/5 426/373/5
f 420/5/5 423/5/5 419/374/5
f 421/2/6 425/3/6 422/11/6
f 425/3/6 421/2/6 424/1/6
f 429/3/1 428/2/1 427/1/1
f 428/3/1 429/2/1 430/1/1
f 431/3/2 429/2/2 427/1/2
f 429/3/2 431/2/2 432/1/2
f 326/5/3 428/5/3 430/375/3
f 428/5/3 326/5/3 325/376/3
f 326/5/4 431/5/4 325/377/4
f 431/5/4 326/5/4 432/378/4
f 431/5/5 428/5/5 325/282/5
f 428/5/5 431/5/5 427/379/5
f 429/2/6 326/3/6 430/11/6
f 326/3/6 429/2/6 432/1/6
f 322/3/1 324/2/1 321/1/1
f 324/3/1 322/2/1 323/1/1
f 433/3/2 322/2/2 321/1/2
f 322/3/2 433/2/2 434/1/2
f 154/5/3 324/274/3 323/5/3
f 324/274/3 154/5/3 153/380/3
f 154/131/4 433/5/4 153/5/4
f 433/5/4 154/131/4 434/381/4
f 433/5/5 324/277/5 153/5/5
f 324/277/5 433/5/5 321/5/5
f 322/2/6 154/3/6 323/11/6
f 154/3/6 322/2/6 434/1/6
f 436/3/1 157/2/1 435/1/1
f 157/3/1 436/2/1 159/1/1
f 437/3/2 436/2/2 435/1/2
f 436/3/2 437/2/2 438/1/2
f 162/5/3 157/5/3 159/382/3
f 157/5/3 162/5/3 161/383/3
f 162/137/4 437/5/4 161/5/4
f 437/5/4 162/137/4 438/384/4
f 437/5/5 157/139/5 161/5/5
f 157/139/5 437/5/5 435/385/5
f 436/2/6 162/3/6 159/11/6
f 162/3/6 436/2/6 438/1/6
f 342/3/1 344/2/1 341/1/1
f 344/3/1 342/2/1 343/1/1
f 439/3/2 342/2/2 341/1/2
f 342/3/2 439/2/2 440/1/2
f 441/5/3 344/290/3 343/5/3
f 344/290/3 441/5/3 442/386/3
f 441/5/4 439/5/4 442/387/4
f 439/5/4 441/5/4 440/388/4
f 439/5/5 344/293/5 442/389/5
f 344/293/5 439/5/5 341/5/5
f 342/2/6 441/3/6 343/11/6
f 441/3/6 342/2/6 440/1/6
f 445/3/1 444/2/1 443/1/1
f 444/3/1 445/2/1 446/1/1
f 447/3/2 445/2/2 443/1/2
f 445/3/2 447/2/2 448/1/2
f 449/5/3 444/5/3 446/390/3
f 444/5/3 449/5/3 450/391/3
f 449/5/4 447/5/4 450/392/4
f 447/5/4 449/5/4 448/393/4
f 447/5/5 444/5/5 450/394/5
f 444/5/5 447/5/5 443/395/5
f 445/2/6 449/3/6 446/11/6
f 449/3/6 445/2/6 448/1/6

usemtl color8

f 144/3/1 397/2/1 142/1/1
f 397/3/1 144/2/1 399/1/1
f 148/3/2 144/2/2 142/1/2
f 144/3/2 148/2/2 147/1/2
f 402/5/3 397/5/3 399/396/3
f 397/5/3 402/5/3 401/397/3
f 402/349/4 148/124/4 401/5/4
f 148/124/4 402/349/4 147/5/4
f 148/126/5 397/351/5 401/5/5
f 397/351/5 148/126/5 142/5/5
f 144/2/6 402/3/6 399/11/6
f 402/3/6 144/2/6 147/1/6
f 152/3/1 191/2/1 150/1/1
f 191/3/1 152/2/1 193/1/1
f 156/3/2 152/2/2 150/1/2
f 152/3/2 156/2/2 155/1/2
f 451/5/3 191/5/3 193/398/3
f 191/5/3 451/5/3 452/399/3
f 451/5/4 156/130/4 452/400/4
f 156/130/4 451/5/4 155/5/4
f 156/132/5 191/168/5 452/401/5
f 191/168/5 156/132/5 150/5/5
f 152/2/6 451/3/6 193/11/6
f 451/3/6 152/2/6 155/1/6
f 160/3/1 267/2/1 158/1/1
f 267/3/1 160/2/1 269/1/1
f 164/3/2 160/2/2 158/1/2
f 160/3/2 164/2/2 163/1/2
f 272/5/3 267/5/3 269/402/3
f 267/5/3 272/5/3 271/403/3
f 272/234/4 164/136/4 271/5/4
f 164/136/4 272/234/4 163/5/4
f 164/138/5 267/236/5 271/5/5
f 267/236/5 164/138/5 158/5/5
f 160/2/6 272/3/6 269/11/6
f 272/3/6 160/2/6 163/1/6
f 400/3/1 275/2/1 398/1/1
f 275/3/1 400/2/1 277/1/1
f 404/3/2 400/2/2 398/1/2
f 400/3/2 404/2/2 403/1/2
f 280/5/3 275/5/3 277/404/3
f 275/5/3 280/5/3 279/405/3
f 280/240/4 404/348/4 279/5/4
f 404/348/4 280/240/4 403/5/4
f 404/350/5 275/242/5 279/5/5
f 275/242/5 404/350/5 398/5/5
f 400/2/6 280/3/6 277/11/6
f 280/3/6 400/2/6 403/1/6
f 194/3/1 199/2/1 192/1/1
f 199/3/1 194/2/1 201/1/1
f 453/3/2 194/2/2 192/1/2
f 194/3/2 453/2/2 454/1/2
f 455/5/3 199/5/3 201/406/3
f 199/5/3 455/5/3 456/407/3
f 455/5/4 453/5/4 456/408/4
f 453/5/4 455/5/4 454/409/4
f 453/5/5 199/174/5 456/410/5
f 199/174/5 453/5/5 192/5/5
f 194/2/6 455/3/6 201/11/6
f 455/3/6 194/2/6 454/1/6
f 270/3/1 207/2/1 268/1/1
f 207/3/1 270/2/1 209/1/1
f 274/3/2 270/2/2 268/1/2
f 270/3/2 274/2/2 273/1/2
f 212/5/3 207/5/3 209/411/3
f 207/5/3 212/5/3 211/412/3
f 212/178/4 274/233/4 211/5/4
f 274/233/4 212/178/4 273/5/4
f 274/235/5 207/180/5 211/5/5
f 207/180/5 274/235/5 268/5/5
f 270/2/6 212/3/6 209/11/6
f 212/3/6 270/2/6 273/1/6
f 204/3/1 206/2/1 203/1/1
f 206/3/1 204/2/1 205/1/1
f 456/3/2 204/2/2 203/1/2
f 204/3/2 456/2/2 455/1/2
f 457/5/3 206/170/3 205/5/3
f 206/170/3 457/5/3 458/413/3
f 457/5/4 456/408/4 458/414/4
f 456/408/4 457/5/4 455/5/4
f 456/410/5 206/173/5 458/415/5
f 206/173/5 456/410/5 203/5/5
f 204/2/6 457/3/6 205/11/6
f 457/3/6 204/2/6 455/1/6
f 202/3/1 337/2/1 200/1/1
f 337/3/1 202/2/1 339/1/1
f 206/3/2 202/2/2 200/1/2
f 202/3/2 206/2/2 205/1/2
f 342/5/3 337/5/3 339/416/3
f 337/5/3 342/5/3 341/417/3
f 342/292/4 206/171/4 341/5/4
f 206/171/4 342/292/4 205/5/4
f 206/173/5 337/294/5 341/5/5
f 337/294/5 206/173/5 200/5/5
f 202/2/6 342/3/6 339/11/6
f 342/3/6 202/2/6 205/1/6
f 460/3/1 329/2/1 459/1/1
f 329/3/1 460/2/1 331/1/1
f 461/3/2 460/2/2 459/1/2
f 460/3/2 461/2/2 462/1/2
f 334/5/3 329/5/3 331/418/3
f 329/5/3 334/5/3 333/419/3
f 334/286/4 461/5/4 333/5/4
f 461/5/4 334/286/4 462/420/4
f 461/5/5 329/288/5 333/5/5
f 329/288/5 461/5/5 459/421/5
f 460/2/6 334/3/6 331/11/6
f 334/3/6 460/2/6 462/1/6
f 464/3/1 341/2/1 463/1/1
f 341/3/1 464/2/1 342/1/1
f 465/3/2 464/2/2 463/1/2
f 464/3/2 465/2/2 466/1/2
f 440/5/3 341/417/3 342/5/3
f 341/417/3 440/5/3 439/422/3
f 440/388/4 465/5/4 439/5/4
f 465/5/4 440/388/4 466/423/4
f 465/5/5 341/5/5 439/5/5
f 341/5/5 465/5/5 463/424/5
f 464/2/6 440/3/6 342/11/6
f 440/3/6 464/2/6 466/1/6
f 284/3/1 443/2/1 283/1/1
f 443/3/1 284/2/1 445/1/1
f 286/3/2 284/2/2 283/1/2
f 284/3/2 286/2/2 285/1/2
f 448/5/3 443/5/3 445/425/3
f 443/5/3 448/5/3 447/426/3
f 448/393/4 286/245/4 447/5/4
f 286/245/4 448/393/4 285/5/4
f 286/246/5 443/395/5 447/5/5
f 443/395/5 286/246/5 283/5/5
f 284/2/6 448/3/6 445/11/6
f 448/3/6 284/2/6 285/1/6

usemtl color15

f 196/3/1 198/2/1 195/1/1
f 198/3/1 196/2/1 197/1/1
f 452/3/2 196/2/2 195/1/2
f 196/3/2 452/2/2 451/1/2
f 454/5/3 198/164/3 197/5/3
f 198/164/3 454/5/3 453/427/3
f 454/409/4 452/400/4 453/5/4
f 452/400/4 454/409/4 451/5/4
f 452/401/5 198/167/5 453/5/5
f 198/167/5 452/401/5 195/5/5
f 196/2/6 454/3/6 197/11/6
f 454/3/6 196/2/6 451/1/6

usemtl color13

f 370/3/1 377/2/1 369/1/1
f 377/3/1 370/2/1 378/1/1
f 372/3/2 370/2/2 369/1/2
f 370/3/2 372/2/2 371/1/2
f 380/5/3 377/5/3 378/428/3
f 377/5/3 380/5/3 379/429/3
f 380/330/4 372/322/4 379/5/4
f 372/322/4 380/330/4 371/5/4
f 372/323/5 377/331/5 379/5/5
f 377/331/5 372/323/5 369/5/5
f 370/2/6 380/3/6 378/11/6
f 380/3/6 370/2/6 371/1/6

usemtl color9

f 278/3/1 459/2/1 276/1/1
f 459/3/1 278/2/1 460/1/1
f 282/3/2 278/2/2 276/1/2
f 278/3/2 282/2/2 281/1/2
f 462/5/3 459/5/3 460/430/3
f 459/5/3 462/5/3 461/431/3
f 462/420/4 282/239/4 461/5/4
f 282/239/4 462/420/4 281/5/4
f 282/241/5 459/421/5 461/5/5
f 459/421/5 282/241/5 276/5/5
f 278/2/6 462/3/6 460/11/6
f 462/3/6 278/2/6 281/1/6
f 205/3/1 463/2/1 206/1/1
f 463/3/1 205/2/1 464/1/1
f 458/3/2 205/2/2 206/1/2
f 205/3/2 458/2/2 457/1/2
f 466/5/3 463/5/3 464/432/3
f 463/5/3 466/5/3 465/433/3
f 466/423/4 458/414/4 465/5/4
f 458/414/4 466/423/4 457/5/4
f 458/415/5 463/424/5 465/5/5
f 463/424/5 458/415/5 206/173/5
f 205/2/6 466/3/6 464/11/6
f 466/3/6 205/2/6 457/1/6

usemtl color2

f 416/3/1 467/2/1 415/1/1
f 467/3/1 416/2/1 468/1/1
f 418/3/2 416/2/2 415/1/2
f 416/3/2 418/2/2 417/1/2
f 469/5/3 467/5/3 468/434/3
f 467/5/3 469/5/3 470/435/3
f 469/5/4 418/367/4 470/436/4
f 418/367/4 469/5/4 417/5/4
f 418/368/5 467/5/5 470/437/5
f 467/5/5 418/368/5 415/5/5
f 416/2/6 469/3/6 468/11/6
f 469/3/6 416/2/6 417/1/6

usemtl color3

f 332/3/1 471/2/1 330/1/1
f 471/3/1 332/2/1 472/1/1
f 336/3/2 332/2/2 330/1/2
f 332/3/2 336/2/2 335/1/2
f 473/5/3 471/5/3 472/438/3
f 471/5/3 473/5/3 474/439/3
f 473/5/4 336/285/4 474/440/4
f 336/285/4 473/5/4 335/5/4
f 336/287/5 471/5/5 474/441/5
f 471/5/5 336/287/5 330/5/5
f 332/2/6 473/3/6 472/11/6
f 473/3/6 332/2/6 335/1/6
f 340/3/1 475/2/1 338/1/1
f 475/3/1 340/2/1 476/1/1
f 442/3/2 340/2/2 338/1/2
f 340/3/2 442/2/2 441/1/2
f 477/5/3 475/5/3 476/442/3
f 475/5/3 477/5/3 478/443/3
f 477/5/4 442/387/4 478/444/4
f 442/387/4 477/5/4 441/5/4
f 442/389/5 475/5/5 478/445/5
f 475/5/5 442/389/5 338/5/5
f 340/2/6 477/3/6 476/11/6
f 477/3/6 340/2/6 441/1/6
f 446/3/1 479/2/1 444/1/1
f 479/3/1 446/2/1 480/1/1
f 450/3/2 446/2/2 444/1/2
f 446/3/2 450/2/2 449/1/2
f 481/5/3 479/5/3 480/446/3
f 479/5/3 481/5/3 482/447/3
f 481/5/4 450/392/4 482/448/4
f 450/392/4 481/5/4 449/5/4
f 450/394/5 479/5/5 482/449/5
f 479/5/5 450/394/5 444/5/5
f 446/2/6 481/3/6 480/11/6
f 481/3/6 446/2/6 449/1/6
f 348/3/1 483/2/1 346/1/1
f 483/3/1 348/2/1 484/1/1
f 352/3/2 348/2/2 346/1/2
f 348/3/2 352/2/2 351/1/2
f 485/5/3 483/5/3 484/450/3
f 483/5/3 485/5/3 486/451/3
f 485/5/4 352/297/4 486/452/4
f 352/297/4 485/5/4 351/5/4
f 352/299/5 483/5/5 486/453/5
f 483/5/5 352/299/5 346/5/5
f 348/2/6 485/3/6 484/11/6
f 485/3/6 348/2/6 351/1/6

