# Created by Kenney (www.kenney.nl)

mtllib Blade MZ0 Stepjump.mtl

v 4 5 -0.9
v 4 4 -0.9
v 4 5 0.9
v 4 4 0.9
v 3 5 -0.9
v 3 5 0.9
v 3 4 0.9
v 3 4 -0.9
v 3 4 -0.45
v 3 3 -0.45
v 3 4 0.45
v 3 3 0.45
v 2 4 -0.45
v 2 4 0.45
v 2 3 0.45
v 2 3 -0.45
v 4 3 -0.9
v 4 2 -0.9
v 4 3 0.9
v 4 2 0.9
v 3 3 -0.9
v 3 3 0.9
v 3 2 0.9
v 3 2 -0.9
v 3 2 -0.45
v 3 1 -0.45
v 3 2 0.45
v 3 1 0.45
v 2 2 -0.45
v 2 2 0.45
v 2 1 0.45
v 2 1 -0.45
v 16 1 -0.9
v 16 0 -0.9
v 16 1 0.9
v 16 0 0.9
v 15 1 -0.9
v 15 1 0.9
v 15 0 0.9
v 15 0 -0.9
v 4 0 -1.35
v 4 -1 -1.35
v 4 0 1.35
v 4 -1 1.35
v 3 0 -1.35
v 3 0 1.35
v 3 -1 1.35
v 3 -1 -1.35
v 2 5 -0.9
v 2 5 0.9
v 2 4 0.9
v 2 4 -0.9
v 16 2 -1.35
v 16 1 -1.35
v 16 2 1.35
v 16 1 1.35
v 15 2 -1.35
v 15 2 1.35
v 15 1 1.35
v 15 1 -1.35
v 15 0 -1.35
v 15 0 1.35
v 14 1 -1.35
v 14 1 1.35
v 14 0 1.35
v 14 0 -1.35
v 3 1 -1.35
v 3 1 1.35
v 2 1 -1.35
v 2 1 1.35
v 2 0 1.35
v 2 0 -1.35
v 15 -1 -0.9
v 15 -2 -0.9
v 15 -1 0.9
v 15 -2 0.9
v 14 -1 -0.9
v 14 -1 0.9
v 14 -2 0.9
v 14 -2 -0.9
v 5 -1 -0.9
v 5 -2 -0.9
v 5 -1 0.9
v 5 -2 0.9
v 3 -1 -0.9
v 3 -1 0.9
v 3 -2 0.9
v 3 -2 -0.9
v 1 5 -0.9
v 1 5 0.9
v 1 4 0.9
v 1 4 -0.9
v 2 3 -0.9
v 2 3 0.9
v 2 2 0.9
v 2 2 -0.9
v 13 1 -1.35
v 13 1 1.35
v 13 0 1.35
v 13 0 -1.35
v -8 1 -0.9
v -8 0 -0.9
v -8 1 0.9
v -8 0 0.9
v -11 1 -0.9
v -11 1 0.9
v -11 0 0.9
v -11 0 -0.9
v 12 0 -0.9
v 12 -1 -0.9
v 12 0 0.9
v 12 -1 0.9
v 11 0 -0.9
v 11 0 0.9
v 11 -1 0.9
v 11 -1 -0.9
v 10 0 -0.9
v 10 -1 -0.9
v 10 0 0.9
v 10 -1 0.9
v 8 0 -0.9
v 8 0 0.9
v 8 -1 0.9
v 8 -1 -0.9
v 7 0 -0.9
v 7 -1 -0.9
v 7 0 0.9
v 7 -1 0.9
v 5 0 -0.9
v 5 0 0.9
v 3 0 -0.9
v 3 0 0.9
v 2 0 -0.9
v 2 0 0.9
v 2 -1 0.9
v 2 -1 -0.9
v -5 0 -0.9
v -5 -1 -0.9
v -5 0 0.9
v -5 -1 0.9
v -7 0 -0.9
v -7 0 0.9
v -7 -1 0.9
v -7 -1 -0.9
v 11 -2 -0.9
v 11 -2 0.9
v 10 -2 0.9
v 10 -2 -0.9
v 8 -2 -0.9
v 8 -2 0.9
v 7 -2 0.9
v 7 -2 -0.9
v 15 -2 -0.45
v 15 -3 -0.45
v 15 -2 0.45
v 15 -3 0.45
v 14 -2 -0.45
v 14 -2 0.45
v 14 -3 0.45
v 14 -3 -0.45
v 4 1 -0.9
v 4 1 0.9
v 3 1 0.9
v 3 1 -0.9
v 5 1 -0.9
v 5 1 0.9
v 4 0 0.9
v 4 0 -0.9
v 12 1 -1.35
v 12 1 1.35
v 12 0 1.35
v 12 0 -1.35
v 4 1 -1.35
v 4 1 1.35
v 5 0 -1.35
v 5 -1 -1.35
v 5 0 1.35
v 5 -1 1.35
v 2 1 -0.9
v 2 1 0.9
v 1 1 -0.9
v 1 1 0.9
v 1 0 0.9
v 1 0 -0.9
v 0 1 -0.9
v 0 0 -0.9
v 0 1 0.9
v 0 0 0.9
v -1 1 -0.9
v -1 1 0.9
v -1 0 0.9
v -1 0 -0.9
v -2 1 -0.9
v -2 0 -0.9
v -2 1 0.9
v -2 0 0.9
v -3 1 -0.9
v -3 1 0.9
v -3 0 0.9
v -3 0 -0.9
v -4 1 -0.9
v -4 0 -0.9
v -4 1 0.9
v -4 0 0.9
v -6 1 -0.9
v -6 1 0.9
v -6 0 0.9
v -6 0 -0.9
v -11 1 -0.45
v -11 0 -0.45
v -11 1 0.45
v -11 0 0.45
v -14 1 -0.45
v -14 1 0.45
v -14 0 0.45
v -14 0 -0.45
v 1 -1 -0.9
v 1 -1 0.9
v 0 -1 0.9
v 0 -1 -0.9
v -1 -1 -0.9
v -1 -1 0.9
v -2 -1 0.9
v -2 -1 -0.9
v -15 1 -0.45
v -15 1 0.45
v -15 0 0.45
v -15 0 -0.45
v 2 0 -0.45
v 2 -3 -0.45
v 2 0 0.45
v 2 -3 0.45
v 1 0 -0.45
v 1 0 0.45
v 1 -3 0.45
v 1 -3 -0.45
v 0 0 -0.45
v 0 -1 -0.45
v 0 0 0.45
v 0 -1 0.45
v -1 0 -0.45
v -1 0 0.45
v -1 -1 0.45
v -1 -1 -0.45
v -2 0 -0.45
v -2 -1 -0.45
v -2 0 0.45
v -2 -1 0.45
v -3 0 -0.45
v -3 0 0.45
v -3 -1 0.45
v -3 -1 -0.45
v -4 0 -0.45
v -4 -1 -0.45
v -4 0 0.45
v -4 -1 0.45
v -5 0 -0.45
v -5 0 0.45
v -5 -1 0.45
v -5 -1 -0.45
v -10 0 -0.45
v -10 -1 -0.45
v -10 0 0.45
v -10 -1 0.45
v -12 0 -0.45
v -12 0 0.45
v -12 -1 0.45
v -12 -1 -0.45
v 1 -1 -0.45
v 1 -2 -0.45
v 1 -1 0.45
v 1 -2 0.45
v 0 -2 0.45
v 0 -2 -0.45
v -3 -3 -0.45
v -3 -3 0.45
v -4 -3 0.45
v -4 -3 -0.45
v -7 -1 -0.45
v -7 -2 -0.45
v -7 -1 0.45
v -7 -2 0.45
v -8 -1 -0.45
v -8 -1 0.45
v -8 -2 0.45
v -8 -2 -0.45
v 13 -2 -0.45
v 13 -3 -0.45
v 13 -2 0.45
v 13 -3 0.45
v 12 -2 -0.45
v 12 -2 0.45
v 12 -3 0.45
v 12 -3 -0.45
v 9 -2 -0.45
v 9 -3 -0.45
v 9 -2 0.45
v 9 -3 0.45
v 8 -2 -0.45
v 8 -2 0.45
v 8 -3 0.45
v 8 -3 -0.45
v 6 -2 -0.45
v 6 -3 -0.45
v 6 -2 0.45
v 6 -3 0.45
v 5 -2 -0.45
v 5 -2 0.45
v 5 -3 0.45
v 5 -3 -0.45
v 15 -4 -0.45
v 15 -4 0.45
v 13 -4 0.45
v 13 -4 -0.45
v -16 1 -0.45
v -16 1 0.45
v -16 0 0.45
v -16 0 -0.45
v -13 0 -0.45
v -13 0 0.45
v -13 -1 0.45
v -13 -1 -0.45
v 9 -1 -0.45
v 9 -1 0.45
v 8 -1 -0.45
v 8 -1 0.45
v 6 -1 -0.45
v 6 -1 0.45
v 5 -1 -0.45
v 5 -1 0.45
v -10 -2 0.45
v -10 -2 -0.45
v 10 -2 -0.45
v 10 -3 -0.45
v 10 -2 0.45
v 10 -3 0.45
v 7 -2 -0.45
v 7 -3 -0.45
v 7 -2 0.45
v 7 -3 0.45
v 0 -3 0.45
v 0 -3 -0.45
v -4 -2 -0.45
v -4 -2 0.45
v -5 -2 -0.45
v -5 -2 0.45
v -5 -3 0.45
v -5 -3 -0.45
v -3 -1 -0.9
v -3 -1 0.9
v -4 -1 0.9
v -4 -1 -0.9
v -9 0 -0.9
v -9 0 0.9
v -9 -1 0.9
v -9 -1 -0.9
v -9 0 -0.45
v -9 -1 -0.45
v -9 0 0.45
v -9 -1 0.45
v 3 -1 -0.45
v 3 -2 -0.45
v 3 -1 0.45
v 3 -2 0.45
v 2 -1 -0.45
v 2 -1 0.45
v 2 -2 0.45
v 2 -2 -0.45
v -15 -1 0.45
v -15 -1 -0.45
v -12 -2 0.45
v -12 -2 -0.45
v -3 -2 -0.45
v -3 -2 0.45
v -8 -3 0.45
v -8 -3 -0.45
v 11 -2 -0.45
v 11 -2 0.45
v 11 -3 0.45
v 11 -3 -0.45
v 12 -4 0.45
v 12 -4 -0.45

vn 1 0 0
vn 0 1 0
vn 0 -1 0
vn -1 0 0
vn 0 0 -1
vn 0 0 1

vt -19.68504 19.68504
vt 19.68504 19.68504
vt -19.68504 -19.68504
vt 0 NaN
vt 0 0
vt 0 NaN
vt 0 NaN
vt 0 NaN
vt 0 NaN
vt 0 NaN
vt 19.68504 -19.68504
vt 0 NaN
vt 0 NaN
vt 0 NaN
vt 0 NaN
vt 0 NaN
vt 0 NaN
vt 0 NaN
vt 0 NaN
vt 0 NaN
vt 0 NaN
vt 0 NaN
vt 0 NaN
vt 0 NaN
vt 0 NaN
vt 0 NaN
vt 0 NaN
vt 0 NaN
vt 0 NaN
vt 0 NaN
vt 0 NaN
vt 0 NaN
vt 0 NaN
vt 0 NaN
vt 0 NaN
vt 0 NaN
vt 0 NaN
vt 0 NaN
vt 0 NaN
vt 0 NaN
vt 0 NaN
vt 0 NaN
vt 0 NaN
vt 0 NaN
vt 0 NaN
vt 0 NaN
vt 0 NaN
vt 0 NaN
vt 0 NaN
vt 0 NaN
vt 0 NaN
vt 0 NaN
vt 0 NaN
vt 0 NaN
vt 0 NaN
vt 0 NaN
vt 0 NaN
vt 0 NaN
vt 0 NaN
vt 0 NaN
vt 0 NaN
vt 0 NaN
vt 0 NaN
vt 0 NaN
vt 0 NaN
vt 0 NaN
vt 0 NaN
vt 0 NaN
vt 0 NaN
vt 0 NaN
vt 0 NaN
vt 0 NaN
vt 0 NaN
vt 0 NaN
vt 0 NaN
vt 0 NaN
vt 0 NaN
vt 0 NaN
vt 0 NaN
vt 0 NaN
vt 0 NaN
vt 0 NaN
vt 0 NaN
vt 0 NaN
vt 0 NaN
vt 0 NaN
vt 0 NaN
vt 0 NaN
vt 0 NaN
vt 0 NaN
vt 0 NaN
vt 0 NaN
vt 0 NaN
vt 0 NaN
vt 0 NaN
vt 0 NaN
vt 0 NaN
vt 0 NaN
vt 0 NaN
vt 0 NaN
vt 0 NaN
vt 0 NaN
vt 0 NaN
vt 0 NaN
vt 0 NaN
vt 0 NaN
vt 0 NaN
vt 0 NaN
vt 0 NaN
vt 0 NaN
vt 0 NaN
vt 0 NaN
vt 0 NaN
vt 0 NaN
vt 0 NaN
vt 0 NaN
vt 0 NaN
vt 0 NaN
vt 0 NaN
vt 0 NaN
vt 0 NaN
vt 0 NaN
vt 0 NaN
vt 0 NaN
vt 0 NaN
vt 0 NaN
vt 0 NaN
vt 0 NaN
vt 0 NaN
vt 0 NaN
vt 0 NaN
vt 0 NaN
vt 0 NaN
vt 0 NaN
vt 0 NaN
vt 0 NaN
vt 0 NaN
vt 0 NaN
vt 0 NaN
vt 0 NaN
vt 0 NaN
vt 0 NaN
vt 0 NaN
vt 0 NaN
vt 0 NaN
vt 0 NaN
vt 0 NaN
vt 0 NaN
vt 0 NaN
vt 0 NaN
vt 0 NaN
vt 0 NaN
vt 0 NaN
vt 0 NaN
vt 0 NaN
vt 0 NaN
vt 0 NaN
vt 0 NaN
vt 0 NaN
vt 0 NaN
vt 0 NaN
vt 0 NaN
vt 0 NaN
vt 0 NaN
vt 0 NaN
vt 0 NaN
vt 0 NaN
vt 0 NaN
vt 0 NaN
vt 0 NaN
vt 0 NaN
vt 0 NaN
vt 0 NaN
vt 0 NaN
vt 0 NaN
vt 0 NaN
vt 0 NaN
vt 0 NaN
vt 0 NaN
vt 0 NaN
vt 0 NaN
vt 0 NaN
vt 0 NaN
vt 0 NaN
vt 0 NaN
vt 0 NaN
vt 0 NaN
vt 0 NaN
vt 0 NaN
vt 0 NaN
vt 0 NaN
vt 0 NaN
vt 0 NaN
vt 0 NaN
vt 0 NaN
vt 0 NaN
vt 0 NaN
vt 0 NaN
vt 0 NaN
vt 0 NaN
vt 0 NaN
vt 0 NaN
vt 0 NaN
vt 0 NaN
vt 0 NaN
vt 0 NaN
vt 0 NaN
vt 0 NaN
vt 0 NaN
vt 0 NaN
vt 0 NaN
vt 0 NaN
vt 0 NaN
vt 0 NaN
vt 0 NaN
vt 0 NaN
vt 0 NaN
vt 0 NaN
vt 0 NaN
vt 0 NaN
vt 0 NaN
vt 0 NaN
vt 0 NaN
vt 0 NaN
vt 0 NaN
vt 0 NaN
vt 0 NaN
vt 0 NaN
vt 0 NaN
vt 0 NaN
vt 0 NaN
vt 0 NaN
vt 0 NaN
vt 0 NaN
vt 0 NaN
vt 0 NaN
vt 0 NaN
vt 0 NaN
vt 0 NaN
vt 0 NaN
vt 0 NaN
vt 0 NaN
vt 0 NaN
vt 0 NaN
vt 0 NaN
vt 0 NaN
vt 0 NaN
vt 0 NaN
vt 0 NaN
vt 0 NaN
vt 0 NaN
vt 0 NaN
vt 0 NaN
vt 0 NaN
vt 0 NaN
vt 0 NaN
vt 0 NaN
vt 0 NaN
vt 0 NaN
vt 0 NaN
vt 0 NaN
vt 0 NaN
vt 0 NaN
vt 0 NaN
vt 0 NaN
vt 0 NaN
vt 0 NaN
vt 0 NaN
vt 0 NaN
vt 0 NaN
vt 0 NaN
vt 0 NaN
vt 0 NaN
vt 0 NaN
vt 0 NaN
vt 0 NaN
vt 0 NaN
vt 0 NaN
vt 0 NaN
vt 0 NaN
vt 0 NaN
vt 0 NaN
vt 0 NaN
vt 0 NaN
vt 0 NaN
vt 0 NaN
vt 0 NaN
vt 0 NaN
vt 0 NaN
vt 0 NaN
vt 0 NaN
vt 0 NaN
vt 0 NaN
vt 0 NaN
vt 0 NaN
vt 0 NaN
vt 0 NaN
vt 0 NaN
vt 0 NaN
vt 0 NaN
vt 0 NaN
vt 0 NaN
vt 0 NaN
vt 0 NaN
vt 0 NaN
vt 0 NaN
vt 0 NaN
vt 0 NaN
vt 0 NaN
vt 0 NaN
vt 0 NaN
vt 0 NaN
vt 0 NaN
vt 0 NaN
vt 0 NaN
vt 0 NaN
vt 0 NaN
vt 0 NaN
vt 0 NaN
vt 0 NaN
vt 0 NaN
vt 0 NaN
vt 0 NaN
vt 0 NaN
vt 0 NaN
vt 0 NaN
vt 0 NaN
vt 0 NaN
vt 0 NaN
vt 0 NaN
vt 0 NaN
vt 0 NaN
vt 0 NaN
vt 0 NaN
vt 0 NaN
vt 0 NaN
vt 0 NaN
vt 0 NaN
vt 0 NaN
vt 0 NaN
vt 0 NaN
vt 0 NaN
vt 0 NaN
vt 0 NaN
vt 0 NaN
vt 0 NaN
vt 0 NaN
vt 0 NaN
vt 0 NaN
vt 0 NaN
vt 0 NaN
vt 0 NaN

usemtl color10

f 3/3/1 2/2/1 1/1/1
f 2/3/1 3/2/1 4/1/1
f 5/3/2 3/2/2 1/1/2
f 3/3/2 5/2/2 6/1/2
f 7/5/3 2/5/3 4/4/3
f 2/5/3 7/5/3 8/6/3
f 7/5/4 5/5/4 8/7/4
f 5/5/4 7/5/4 6/8/4
f 5/5/5 2/5/5 8/9/5
f 2/5/5 5/5/5 1/10/5
f 3/2/6 7/3/6 4/11/6
f 7/3/6 3/2/6 6/1/6
f 3/3/1 2/2/1 1/1/1
f 2/3/1 3/2/1 4/1/1
f 5/3/2 3/2/2 1/1/2
f 3/3/2 5/2/2 6/1/2
f 7/5/3 2/5/3 4/4/3
f 2/5/3 7/5/3 8/6/3
f 7/5/4 5/5/4 8/7/4
f 5/5/4 7/5/4 6/8/4
f 5/5/5 2/5/5 8/9/5
f 2/5/5 5/5/5 1/10/5
f 3/2/6 7/3/6 4/11/6
f 7/3/6 3/2/6 6/1/6
f 11/3/1 10/2/1 9/1/1
f 10/3/1 11/2/1 12/1/1
f 13/3/2 11/2/2 9/1/2
f 11/3/2 13/2/2 14/1/2
f 15/5/3 10/5/3 12/12/3
f 10/5/3 15/5/3 16/13/3
f 15/5/4 13/5/4 16/14/4
f 13/5/4 15/5/4 14/15/4
f 13/5/5 10/5/5 16/16/5
f 10/5/5 13/5/5 9/17/5
f 11/2/6 15/3/6 12/11/6
f 15/3/6 11/2/6 14/1/6
f 19/3/1 18/2/1 17/1/1
f 18/3/1 19/2/1 20/1/1
f 21/3/2 19/2/2 17/1/2
f 19/3/2 21/2/2 22/1/2
f 23/5/3 18/5/3 20/18/3
f 18/5/3 23/5/3 24/19/3
f 23/5/4 21/5/4 24/20/4
f 21/5/4 23/5/4 22/21/4
f 21/5/5 18/5/5 24/22/5
f 18/5/5 21/5/5 17/23/5
f 19/2/6 23/3/6 20/11/6
f 23/3/6 19/2/6 22/1/6
f 27/3/1 26/2/1 25/1/1
f 26/3/1 27/2/1 28/1/1
f 29/3/2 27/2/2 25/1/2
f 27/3/2 29/2/2 30/1/2
f 31/5/3 26/5/3 28/24/3
f 26/5/3 31/5/3 32/25/3
f 31/5/4 29/5/4 32/26/4
f 29/5/4 31/5/4 30/27/4
f 29/5/5 26/5/5 32/28/5
f 26/5/5 29/5/5 25/29/5
f 27/2/6 31/3/6 28/11/6
f 31/3/6 27/2/6 30/1/6
f 35/3/1 34/2/1 33/1/1
f 34/3/1 35/2/1 36/1/1
f 37/3/2 35/2/2 33/1/2
f 35/3/2 37/2/2 38/1/2
f 39/5/3 34/5/3 36/30/3
f 34/5/3 39/5/3 40/31/3
f 39/5/4 37/5/4 40/32/4
f 37/5/4 39/5/4 38/33/4
f 37/5/5 34/5/5 40/34/5
f 34/5/5 37/5/5 33/35/5
f 35/2/6 39/3/6 36/11/6
f 39/3/6 35/2/6 38/1/6
f 43/3/1 42/2/1 41/1/1
f 42/3/1 43/2/1 44/1/1
f 45/3/2 43/2/2 41/1/2
f 43/3/2 45/2/2 46/1/2
f 47/5/3 42/5/3 44/36/3
f 42/5/3 47/5/3 48/37/3
f 47/5/4 45/5/4 48/38/4
f 45/5/4 47/5/4 46/39/4
f 45/5/5 42/5/5 48/40/5
f 42/5/5 45/5/5 41/41/5
f 43/2/6 47/3/6 44/11/6
f 47/3/6 43/2/6 46/1/6

usemtl color8

f 6/3/1 8/2/1 5/1/1
f 8/3/1 6/2/1 7/1/1
f 49/3/2 6/2/2 5/1/2
f 6/3/2 49/2/2 50/1/2
f 51/5/3 8/6/3 7/5/3
f 8/6/3 51/5/3 52/42/3
f 51/5/4 49/5/4 52/43/4
f 49/5/4 51/5/4 50/44/4
f 49/5/5 8/9/5 52/45/5
f 8/9/5 49/5/5 5/5/5
f 6/2/6 51/3/6 7/11/6
f 51/3/6 6/2/6 50/1/6
f 55/3/1 54/2/1 53/1/1
f 54/3/1 55/2/1 56/1/1
f 57/3/2 55/2/2 53/1/2
f 55/3/2 57/2/2 58/1/2
f 59/5/3 54/5/3 56/46/3
f 54/5/3 59/5/3 60/47/3
f 59/5/4 57/5/4 60/48/4
f 57/5/4 59/5/4 58/49/4
f 57/5/5 54/5/5 60/50/5
f 54/5/5 57/5/5 53/51/5
f 55/2/6 59/3/6 56/11/6
f 59/3/6 55/2/6 58/1/6
f 59/3/1 61/2/1 60/1/1
f 61/3/1 59/2/1 62/1/1
f 63/3/2 59/2/2 60/1/2
f 59/3/2 63/2/2 64/1/2
f 65/5/3 61/5/3 62/52/3
f 61/5/3 65/5/3 66/53/3
f 65/5/4 63/5/4 66/54/4
f 63/5/4 65/5/4 64/55/4
f 63/5/5 61/5/5 66/56/5
f 61/5/5 63/5/5 60/50/5
f 59/2/6 65/3/6 62/11/6
f 65/3/6 59/2/6 64/1/6
f 68/3/1 45/2/1 67/1/1
f 45/3/1 68/2/1 46/1/1
f 69/3/2 68/2/2 67/1/2
f 68/3/2 69/2/2 70/1/2
f 71/5/3 45/5/3 46/57/3
f 45/5/3 71/5/3 72/58/3
f 71/5/4 69/5/4 72/59/4
f 69/5/4 71/5/4 70/60/4
f 69/5/5 45/5/5 72/61/5
f 45/5/5 69/5/5 67/62/5
f 68/2/6 71/3/6 46/11/6
f 71/3/6 68/2/6 70/1/6
f 75/3/1 74/2/1 73/1/1
f 74/3/1 75/2/1 76/1/1
f 77/3/2 75/2/2 73/1/2
f 75/3/2 77/2/2 78/1/2
f 79/5/3 74/5/3 76/63/3
f 74/5/3 79/5/3 80/64/3
f 79/5/4 77/5/4 80/65/4
f 77/5/4 79/5/4 78/66/4
f 77/5/5 74/5/5 80/67/5
f 74/5/5 77/5/5 73/68/5
f 75/2/6 79/3/6 76/11/6
f 79/3/6 75/2/6 78/1/6
f 83/3/1 82/2/1 81/1/1
f 82/3/1 83/2/1 84/1/1
f 85/3/2 83/2/2 81/1/2
f 83/3/2 85/2/2 86/1/2
f 87/5/3 82/5/3 84/69/3
f 82/5/3 87/5/3 88/70/3
f 87/5/4 85/5/4 88/71/4
f 85/5/4 87/5/4 86/72/4
f 85/5/5 82/5/5 88/73/5
f 82/5/5 85/5/5 81/74/5
f 83/2/6 87/3/6 84/11/6
f 87/3/6 83/2/6 86/1/6

usemtl color4

f 50/3/1 52/2/1 49/1/1
f 52/3/1 50/2/1 51/1/1
f 89/3/2 50/2/2 49/1/2
f 50/3/2 89/2/2 90/1/2
f 91/5/3 52/42/3 51/5/3
f 52/42/3 91/5/3 92/75/3
f 91/5/4 89/5/4 92/76/4
f 89/5/4 91/5/4 90/77/4
f 89/5/5 52/45/5 92/78/5
f 52/45/5 89/5/5 49/5/5
f 50/2/6 91/3/6 51/11/6
f 91/3/6 50/2/6 90/1/6
f 22/3/1 24/2/1 21/1/1
f 24/3/1 22/2/1 23/1/1
f 93/3/2 22/2/2 21/1/2
f 22/3/2 93/2/2 94/1/2
f 95/5/3 24/19/3 23/5/3
f 24/19/3 95/5/3 96/79/3
f 95/5/4 93/5/4 96/80/4
f 93/5/4 95/5/4 94/81/4
f 93/5/5 24/22/5 96/82/5
f 24/22/5 93/5/5 21/5/5
f 22/2/6 95/3/6 23/11/6
f 95/3/6 22/2/6 94/1/6
f 64/3/1 66/2/1 63/1/1
f 66/3/1 64/2/1 65/1/1
f 97/3/2 64/2/2 63/1/2
f 64/3/2 97/2/2 98/1/2
f 99/5/3 66/53/3 65/5/3
f 66/53/3 99/5/3 100/83/3
f 99/5/4 97/5/4 100/84/4
f 97/5/4 99/5/4 98/85/4
f 97/5/5 66/56/5 100/86/5
f 66/56/5 97/5/5 63/5/5
f 64/2/6 99/3/6 65/11/6
f 99/3/6 64/2/6 98/1/6
f 103/3/1 102/2/1 101/1/1
f 102/3/1 103/2/1 104/1/1
f 105/3/2 103/2/2 101/1/2
f 103/3/2 105/2/2 106/1/2
f 107/5/3 102/5/3 104/87/3
f 102/5/3 107/5/3 108/88/3
f 107/5/4 105/5/4 108/89/4
f 105/5/4 107/5/4 106/90/4
f 105/5/5 102/5/5 108/91/5
f 102/5/5 105/5/5 101/92/5
f 103/2/6 107/3/6 104/11/6
f 107/3/6 103/2/6 106/1/6
f 111/3/1 110/2/1 109/1/1
f 110/3/1 111/2/1 112/1/1
f 113/3/2 111/2/2 109/1/2
f 111/3/2 113/2/2 114/1/2
f 115/5/3 110/5/3 112/93/3
f 110/5/3 115/5/3 116/94/3
f 115/5/4 113/5/4 116/95/4
f 113/5/4 115/5/4 114/96/4
f 113/5/5 110/5/5 116/97/5
f 110/5/5 113/5/5 109/98/5
f 111/2/6 115/3/6 112/11/6
f 115/3/6 111/2/6 114/1/6
f 119/3/1 118/2/1 117/1/1
f 118/3/1 119/2/1 120/1/1
f 121/3/2 119/2/2 117/1/2
f 119/3/2 121/2/2 122/1/2
f 123/5/3 118/5/3 120/99/3
f 118/5/3 123/5/3 124/100/3
f 123/5/4 121/5/4 124/101/4
f 121/5/4 123/5/4 122/102/4
f 121/5/5 118/5/5 124/103/5
f 118/5/5 121/5/5 117/104/5
f 119/2/6 123/3/6 120/11/6
f 123/3/6 119/2/6 122/1/6
f 127/3/1 126/2/1 125/1/1
f 126/3/1 127/2/1 128/1/1
f 129/3/2 127/2/2 125/1/2
f 127/3/2 129/2/2 130/1/2
f 83/5/3 126/5/3 128/105/3
f 126/5/3 83/5/3 81/106/3
f 83/5/4 129/5/4 81/107/4
f 129/5/4 83/5/4 130/108/4
f 129/5/5 126/5/5 81/74/5
f 126/5/5 129/5/5 125/109/5
f 127/2/6 83/3/6 128/11/6
f 83/3/6 127/2/6 130/1/6
f 132/3/1 85/2/1 131/1/1
f 85/3/1 132/2/1 86/1/1
f 133/3/2 132/2/2 131/1/2
f 132/3/2 133/2/2 134/1/2
f 135/5/3 85/5/3 86/110/3
f 85/5/3 135/5/3 136/111/3
f 135/5/4 133/5/4 136/112/4
f 133/5/4 135/5/4 134/113/4
f 133/5/5 85/5/5 136/114/5
f 85/5/5 133/5/5 131/115/5
f 132/2/6 135/3/6 86/11/6
f 135/3/6 132/2/6 134/1/6
f 139/3/1 138/2/1 137/1/1
f 138/3/1 139/2/1 140/1/1
f 141/3/2 139/2/2 137/1/2
f 139/3/2 141/2/2 142/1/2
f 143/5/3 138/5/3 140/116/3
f 138/5/3 143/5/3 144/117/3
f 143/5/4 141/5/4 144/118/4
f 141/5/4 143/5/4 142/119/4
f 141/5/5 138/5/5 144/120/5
f 138/5/5 141/5/5 137/121/5
f 139/2/6 143/3/6 140/11/6
f 143/3/6 139/2/6 142/1/6
f 115/3/1 145/2/1 116/1/1
f 145/3/1 115/2/1 146/1/1
f 118/3/2 115/2/2 116/1/2
f 115/3/2 118/2/2 120/1/2
f 147/5/3 145/5/3 146/122/3
f 145/5/3 147/5/3 148/123/3
f 147/5/4 118/5/4 148/124/4
f 118/5/4 147/5/4 120/125/4
f 118/5/5 145/5/5 148/126/5
f 145/5/5 118/5/5 116/97/5
f 115/2/6 147/3/6 146/11/6
f 147/3/6 115/2/6 120/1/6
f 123/3/1 149/2/1 124/1/1
f 149/3/1 123/2/1 150/1/1
f 126/3/2 123/2/2 124/1/2
f 123/3/2 126/2/2 128/1/2
f 151/5/3 149/5/3 150/127/3
f 149/5/3 151/5/3 152/128/3
f 151/5/4 126/5/4 152/129/4
f 126/5/4 151/5/4 128/130/4
f 126/5/5 149/5/5 152/131/5
f 149/5/5 126/5/5 124/103/5
f 123/2/6 151/3/6 150/11/6
f 151/3/6 123/2/6 128/1/6
f 155/3/1 154/2/1 153/1/1
f 154/3/1 155/2/1 156/1/1
f 157/3/2 155/2/2 153/1/2
f 155/3/2 157/2/2 158/1/2
f 159/5/3 154/5/3 156/132/3
f 154/5/3 159/5/3 160/133/3
f 159/5/4 157/5/4 160/134/4
f 157/5/4 159/5/4 158/135/4
f 157/5/5 154/5/5 160/136/5
f 154/5/5 157/5/5 153/137/5
f 155/2/6 159/3/6 156/11/6
f 159/3/6 155/2/6 158/1/6

usemtl color12

f 4/3/1 17/2/1 2/1/1
f 17/3/1 4/2/1 19/1/1
f 8/3/2 4/2/2 2/1/2
f 4/3/2 8/2/2 7/1/2
f 22/5/3 17/5/3 19/138/3
f 17/5/3 22/5/3 21/139/3
f 22/21/4 8/7/4 21/5/4
f 8/7/4 22/21/4 7/5/4
f 8/9/5 17/23/5 21/5/5
f 17/23/5 8/9/5 2/5/5
f 4/2/6 22/3/6 19/11/6
f 22/3/6 4/2/6 7/1/6
f 20/3/1 161/2/1 18/1/1
f 161/3/1 20/2/1 162/1/1
f 24/3/2 20/2/2 18/1/2
f 20/3/2 24/2/2 23/1/2
f 163/5/3 161/5/3 162/140/3
f 161/5/3 163/5/3 164/141/3
f 163/5/4 24/20/4 164/142/4
f 24/20/4 163/5/4 23/5/4
f 24/22/5 161/5/5 164/143/5
f 161/5/5 24/22/5 18/5/5
f 20/2/6 163/3/6 162/11/6
f 163/3/6 20/2/6 23/1/6
f 166/3/1 129/2/1 165/1/1
f 129/3/1 166/2/1 130/1/1
f 161/3/2 166/2/2 165/1/2
f 166/3/2 161/2/2 162/1/2
f 167/5/3 129/5/3 130/144/3
f 129/5/3 167/5/3 168/145/3
f 167/5/4 161/5/4 168/146/4
f 161/5/4 167/5/4 162/147/4
f 161/5/5 129/5/5 168/148/5
f 129/5/5 161/5/5 165/149/5
f 166/2/6 167/3/6 130/11/6
f 167/3/6 166/2/6 162/1/6
f 39/3/1 73/2/1 40/1/1
f 73/3/1 39/2/1 75/1/1
f 109/3/2 39/2/2 40/1/2
f 39/3/2 109/2/2 111/1/2
f 112/93/3 73/5/3 75/150/3
f 73/5/3 112/93/3 110/5/3
f 112/5/4 109/5/4 110/151/4
f 109/5/4 112/5/4 111/152/4
f 109/98/5 73/68/5 110/5/5
f 73/68/5 109/98/5 40/34/5
f 39/2/6 112/3/6 75/11/6
f 112/3/6 39/2/6 111/1/6

usemtl color9

f 98/3/1 100/2/1 97/1/1
f 100/3/1 98/2/1 99/1/1
f 169/3/2 98/2/2 97/1/2
f 98/3/2 169/2/2 170/1/2
f 171/5/3 100/83/3 99/5/3
f 100/83/3 171/5/3 172/153/3
f 171/5/4 169/5/4 172/154/4
f 169/5/4 171/5/4 170/155/4
f 169/5/5 100/86/5 172/156/5
f 100/86/5 169/5/5 97/5/5
f 98/2/6 171/3/6 99/11/6
f 171/3/6 98/2/6 170/1/6
f 174/3/1 41/2/1 173/1/1
f 41/3/1 174/2/1 43/1/1
f 67/3/2 174/2/2 173/1/2
f 174/3/2 67/2/2 68/1/2
f 46/57/3 41/5/3 43/157/3
f 41/5/3 46/57/3 45/5/3
f 46/39/4 67/5/4 45/5/4
f 67/5/4 46/39/4 68/158/4
f 67/62/5 41/41/5 45/5/5
f 41/41/5 67/62/5 173/159/5
f 174/2/6 46/3/6 43/11/6
f 46/3/6 174/2/6 68/1/6
f 177/3/1 176/2/1 175/1/1
f 176/3/1 177/2/1 178/1/1
f 41/3/2 177/2/2 175/1/2
f 177/3/2 41/2/2 43/1/2
f 44/36/3 176/5/3 178/160/3
f 176/5/3 44/36/3 42/5/3
f 44/5/4 41/5/4 42/161/4
f 41/5/4 44/5/4 43/162/4
f 41/41/5 176/5/5 42/5/5
f 176/5/5 41/41/5 175/163/5
f 177/2/6 44/3/6 178/11/6
f 44/3/6 177/2/6 43/1/6

usemtl color5

f 180/3/1 133/2/1 179/1/1
f 133/3/1 180/2/1 134/1/1
f 181/3/2 180/2/2 179/1/2
f 180/3/2 181/2/2 182/1/2
f 183/5/3 133/5/3 134/164/3
f 133/5/3 183/5/3 184/165/3
f 183/5/4 181/5/4 184/166/4
f 181/5/4 183/5/4 182/167/4
f 181/5/5 133/5/5 184/168/5
f 133/5/5 181/5/5 179/169/5
f 180/2/6 183/3/6 134/11/6
f 183/3/6 180/2/6 182/1/6
f 187/3/1 186/2/1 185/1/1
f 186/3/1 187/2/1 188/1/1
f 189/3/2 187/2/2 185/1/2
f 187/3/2 189/2/2 190/1/2
f 191/5/3 186/5/3 188/170/3
f 186/5/3 191/5/3 192/171/3
f 191/5/4 189/5/4 192/172/4
f 189/5/4 191/5/4 190/173/4
f 189/5/5 186/5/5 192/174/5
f 186/5/5 189/5/5 185/175/5
f 187/2/6 191/3/6 188/11/6
f 191/3/6 187/2/6 190/1/6
f 195/3/1 194/2/1 193/1/1
f 194/3/1 195/2/1 196/1/1
f 197/3/2 195/2/2 193/1/2
f 195/3/2 197/2/2 198/1/2
f 199/5/3 194/5/3 196/176/3
f 194/5/3 199/5/3 200/177/3
f 199/5/4 197/5/4 200/178/4
f 197/5/4 199/5/4 198/179/4
f 197/5/5 194/5/5 200/180/5
f 194/5/5 197/5/5 193/181/5
f 195/2/6 199/3/6 196/11/6
f 199/3/6 195/2/6 198/1/6
f 203/3/1 202/2/1 201/1/1
f 202/3/1 203/2/1 204/1/1
f 205/3/2 203/2/2 201/1/2
f 203/3/2 205/2/2 206/1/2
f 207/5/3 202/5/3 204/182/3
f 202/5/3 207/5/3 208/183/3
f 207/5/4 205/5/4 208/184/4
f 205/5/4 207/5/4 206/185/4
f 205/5/5 202/5/5 208/186/5
f 202/5/5 205/5/5 201/187/5
f 203/2/6 207/3/6 204/11/6
f 207/3/6 203/2/6 206/1/6
f 211/3/1 210/2/1 209/1/1
f 210/3/1 211/2/1 212/1/1
f 213/3/2 211/2/2 209/1/2
f 211/3/2 213/2/2 214/1/2
f 215/5/3 210/5/3 212/188/3
f 210/5/3 215/5/3 216/189/3
f 215/5/4 213/5/4 216/190/4
f 213/5/4 215/5/4 214/191/4
f 213/5/5 210/5/5 216/192/5
f 210/5/5 213/5/5 209/193/5
f 211/2/6 215/3/6 212/11/6
f 215/3/6 211/2/6 214/1/6
f 183/3/1 217/2/1 184/1/1
f 217/3/1 183/2/1 218/1/1
f 186/3/2 183/2/2 184/1/2
f 183/3/2 186/2/2 188/1/2
f 219/5/3 217/5/3 218/194/3
f 217/5/3 219/5/3 220/195/3
f 219/5/4 186/5/4 220/196/4
f 186/5/4 219/5/4 188/197/4
f 186/5/5 217/5/5 220/198/5
f 217/5/5 186/5/5 184/168/5
f 183/2/6 219/3/6 218/11/6
f 219/3/6 183/2/6 188/1/6
f 191/3/1 221/2/1 192/1/1
f 221/3/1 191/2/1 222/1/1
f 194/3/2 191/2/2 192/1/2
f 191/3/2 194/2/2 196/1/2
f 223/5/3 221/5/3 222/199/3
f 221/5/3 223/5/3 224/200/3
f 223/5/4 194/5/4 224/201/4
f 194/5/4 223/5/4 196/202/4
f 194/5/5 221/5/5 224/203/5
f 221/5/5 194/5/5 192/174/5
f 191/2/6 223/3/6 222/11/6
f 223/3/6 191/2/6 196/1/6

usemtl color2

f 214/3/1 216/2/1 213/1/1
f 216/3/1 214/2/1 215/1/1
f 225/3/2 214/2/2 213/1/2
f 214/3/2 225/2/2 226/1/2
f 227/5/3 216/189/3 215/5/3
f 216/189/3 227/5/3 228/204/3
f 227/5/4 225/5/4 228/205/4
f 225/5/4 227/5/4 226/206/4
f 225/5/5 216/192/5 228/207/5
f 216/192/5 225/5/5 213/5/5
f 214/2/6 227/3/6 215/11/6
f 227/3/6 214/2/6 226/1/6
f 122/3/1 124/2/1 121/1/1
f 124/3/1 122/2/1 123/1/1
f 125/3/2 122/2/2 121/1/2
f 122/3/2 125/2/2 127/1/2
f 128/105/3 124/100/3 123/5/3
f 124/100/3 128/105/3 126/5/3
f 128/130/4 125/5/4 126/5/4
f 125/5/4 128/130/4 127/208/4
f 125/109/5 124/103/5 126/5/5
f 124/103/5 125/109/5 121/5/5
f 122/2/6 128/3/6 123/11/6
f 128/3/6 122/2/6 127/1/6
f 231/3/1 230/2/1 229/1/1
f 230/3/1 231/2/1 232/1/1
f 233/3/2 231/2/2 229/1/2
f 231/3/2 233/2/2 234/1/2
f 235/5/3 230/5/3 232/209/3
f 230/5/3 235/5/3 236/210/3
f 235/5/4 233/5/4 236/211/4
f 233/5/4 235/5/4 234/212/4
f 233/5/5 230/5/5 236/213/5
f 230/5/5 233/5/5 229/214/5
f 231/2/6 235/3/6 232/11/6
f 235/3/6 231/2/6 234/1/6
f 239/3/1 238/2/1 237/1/1
f 238/3/1 239/2/1 240/1/1
f 241/3/2 239/2/2 237/1/2
f 239/3/2 241/2/2 242/1/2
f 243/5/3 238/5/3 240/215/3
f 238/5/3 243/5/3 244/216/3
f 243/5/4 241/5/4 244/217/4
f 241/5/4 243/5/4 242/218/4
f 241/5/5 238/5/5 244/219/5
f 238/5/5 241/5/5 237/220/5
f 239/2/6 243/3/6 240/11/6
f 243/3/6 239/2/6 242/1/6
f 247/3/1 246/2/1 245/1/1
f 246/3/1 247/2/1 248/1/1
f 249/3/2 247/2/2 245/1/2
f 247/3/2 249/2/2 250/1/2
f 251/5/3 246/5/3 248/221/3
f 246/5/3 251/5/3 252/222/3
f 251/5/4 249/5/4 252/223/4
f 249/5/4 251/5/4 250/224/4
f 249/5/5 246/5/5 252/225/5
f 246/5/5 249/5/5 245/226/5
f 247/2/6 251/3/6 248/11/6
f 251/3/6 247/2/6 250/1/6
f 255/3/1 254/2/1 253/1/1
f 254/3/1 255/2/1 256/1/1
f 257/3/2 255/2/2 253/1/2
f 255/3/2 257/2/2 258/1/2
f 259/5/3 254/5/3 256/227/3
f 254/5/3 259/5/3 260/228/3
f 259/5/4 257/5/4 260/229/4
f 257/5/4 259/5/4 258/230/4
f 257/5/5 254/5/5 260/231/5
f 254/5/5 257/5/5 253/232/5
f 255/2/6 259/3/6 256/11/6
f 259/3/6 255/2/6 258/1/6
f 263/3/1 262/2/1 261/1/1
f 262/3/1 263/2/1 264/1/1
f 265/3/2 263/2/2 261/1/2
f 263/3/2 265/2/2 266/1/2
f 267/5/3 262/5/3 264/233/3
f 262/5/3 267/5/3 268/234/3
f 267/5/4 265/5/4 268/235/4
f 265/5/4 267/5/4 266/236/4
f 265/5/5 262/5/5 268/237/5
f 262/5/5 265/5/5 261/238/5
f 263/2/6 267/3/6 264/11/6
f 267/3/6 263/2/6 266/1/6
f 271/3/1 270/2/1 269/1/1
f 270/3/1 271/2/1 272/1/1
f 238/3/2 271/2/2 269/1/2
f 271/3/2 238/2/2 240/1/2
f 273/5/3 270/5/3 272/239/3
f 270/5/3 273/5/3 274/240/3
f 273/5/4 238/5/4 274/241/4
f 238/5/4 273/5/4 240/242/4
f 238/5/5 270/5/5 274/243/5
f 270/5/5 238/5/5 269/244/5
f 271/2/6 273/3/6 272/11/6
f 273/3/6 271/2/6 240/1/6
f 251/3/1 275/2/1 252/1/1
f 275/3/1 251/2/1 276/1/1
f 254/3/2 251/2/2 252/1/2
f 251/3/2 254/2/2 256/1/2
f 277/5/3 275/5/3 276/245/3
f 275/5/3 277/5/3 278/246/3
f 277/5/4 254/5/4 278/247/4
f 254/5/4 277/5/4 256/248/4
f 254/5/5 275/5/5 278/249/5
f 275/5/5 254/5/5 252/225/5
f 251/2/6 277/3/6 276/11/6
f 277/3/6 251/2/6 256/1/6
f 281/3/1 280/2/1 279/1/1
f 280/3/1 281/2/1 282/1/1
f 283/3/2 281/2/2 279/1/2
f 281/3/2 283/2/2 284/1/2
f 285/5/3 280/5/3 282/250/3
f 280/5/3 285/5/3 286/251/3
f 285/5/4 283/5/4 286/252/4
f 283/5/4 285/5/4 284/253/4
f 283/5/5 280/5/5 286/254/5
f 280/5/5 283/5/5 279/255/5
f 281/2/6 285/3/6 282/11/6
f 285/3/6 281/2/6 284/1/6
f 289/3/1 288/2/1 287/1/1
f 288/3/1 289/2/1 290/1/1
f 291/3/2 289/2/2 287/1/2
f 289/3/2 291/2/2 292/1/2
f 293/5/3 288/5/3 290/256/3
f 288/5/3 293/5/3 294/257/3
f 293/5/4 291/5/4 294/258/4
f 291/5/4 293/5/4 292/259/4
f 291/5/5 288/5/5 294/260/5
f 288/5/5 291/5/5 287/261/5
f 289/2/6 293/3/6 290/11/6
f 293/3/6 289/2/6 292/1/6
f 297/3/1 296/2/1 295/1/1
f 296/3/1 297/2/1 298/1/1
f 299/3/2 297/2/2 295/1/2
f 297/3/2 299/2/2 300/1/2
f 301/5/3 296/5/3 298/262/3
f 296/5/3 301/5/3 302/263/3
f 301/5/4 299/5/4 302/264/4
f 299/5/4 301/5/4 300/265/4
f 299/5/5 296/5/5 302/266/5
f 296/5/5 299/5/5 295/267/5
f 297/2/6 301/3/6 298/11/6
f 301/3/6 297/2/6 300/1/6
f 305/3/1 304/2/1 303/1/1
f 304/3/1 305/2/1 306/1/1
f 307/3/2 305/2/2 303/1/2
f 305/3/2 307/2/2 308/1/2
f 309/5/3 304/5/3 306/268/3
f 304/5/3 309/5/3 310/269/3
f 309/5/4 307/5/4 310/270/4
f 307/5/4 309/5/4 308/271/4
f 307/5/5 304/5/5 310/272/5
f 304/5/5 307/5/5 303/273/5
f 305/2/6 309/3/6 306/11/6
f 309/3/6 305/2/6 308/1/6
f 156/3/1 311/2/1 154/1/1
f 311/3/1 156/2/1 312/1/1
f 288/3/2 156/2/2 154/1/2
f 156/3/2 288/2/2 290/1/2
f 313/5/3 311/5/3 312/274/3
f 311/5/3 313/5/3 314/275/3
f 313/5/4 288/5/4 314/276/4
f 288/5/4 313/5/4 290/277/4
f 288/5/5 311/5/5 314/278/5
f 311/5/5 288/5/5 154/5/5
f 156/2/6 313/3/6 312/11/6
f 313/3/6 156/2/6 290/1/6

usemtl color6

f 226/3/1 228/2/1 225/1/1
f 228/3/1 226/2/1 227/1/1
f 315/3/2 226/2/2 225/1/2
f 226/3/2 315/2/2 316/1/2
f 317/5/3 228/204/3 227/5/3
f 228/204/3 317/5/3 318/279/3
f 317/5/4 315/5/4 318/280/4
f 315/5/4 317/5/4 316/281/4
f 315/5/5 228/207/5 318/282/5
f 228/207/5 315/5/5 225/5/5
f 226/2/6 317/3/6 227/11/6
f 317/3/6 226/2/6 316/1/6
f 266/3/1 268/2/1 265/1/1
f 268/3/1 266/2/1 267/1/1
f 319/3/2 266/2/2 265/1/2
f 266/3/2 319/2/2 320/1/2
f 321/5/3 268/234/3 267/5/3
f 268/234/3 321/5/3 322/283/3
f 321/5/4 319/5/4 322/284/4
f 319/5/4 321/5/4 320/285/4
f 319/5/5 268/237/5 322/286/5
f 268/237/5 319/5/5 265/5/5
f 266/2/6 321/3/6 267/11/6
f 321/3/6 266/2/6 320/1/6
f 324/3/1 295/2/1 323/1/1
f 295/3/1 324/2/1 297/1/1
f 325/3/2 324/2/2 323/1/2
f 324/3/2 325/2/2 326/1/2
f 300/5/3 295/5/3 297/287/3
f 295/5/3 300/5/3 299/288/3
f 300/265/4 325/5/4 299/5/4
f 325/5/4 300/265/4 326/289/4
f 325/5/5 295/267/5 299/5/5
f 295/267/5 325/5/5 323/290/5
f 324/2/6 300/3/6 297/11/6
f 300/3/6 324/2/6 326/1/6
f 328/3/1 303/2/1 327/1/1
f 303/3/1 328/2/1 305/1/1
f 329/3/2 328/2/2 327/1/2
f 328/3/2 329/2/2 330/1/2
f 308/5/3 303/5/3 305/291/3
f 303/5/3 308/5/3 307/292/3
f 308/271/4 329/5/4 307/5/4
f 329/5/4 308/271/4 330/293/4
f 329/5/5 303/273/5 307/5/5
f 303/273/5 329/5/5 327/294/5
f 328/2/6 308/3/6 305/11/6
f 308/3/6 328/2/6 330/1/6
f 284/3/1 286/2/1 283/1/1
f 286/3/1 284/2/1 285/1/1
f 262/3/2 284/2/2 283/1/2
f 284/3/2 262/2/2 264/1/2
f 331/5/3 286/251/3 285/5/3
f 286/251/3 331/5/3 332/295/3
f 331/5/4 262/5/4 332/296/4
f 262/5/4 331/5/4 264/297/4
f 262/5/5 286/254/5 332/298/5
f 286/254/5 262/5/5 283/5/5
f 284/2/6 331/3/6 285/11/6
f 331/3/6 284/2/6 264/1/6
f 335/3/1 334/2/1 333/1/1
f 334/3/1 335/2/1 336/1/1
f 295/3/2 335/2/2 333/1/2
f 335/3/2 295/2/2 297/1/2
f 298/262/3 334/5/3 336/299/3
f 334/5/3 298/262/3 296/5/3
f 298/5/4 295/5/4 296/300/4
f 295/5/4 298/5/4 297/301/4
f 295/267/5 334/5/5 296/5/5
f 334/5/5 295/267/5 333/302/5
f 335/2/6 298/3/6 336/11/6
f 298/3/6 335/2/6 297/1/6
f 339/3/1 338/2/1 337/1/1
f 338/3/1 339/2/1 340/1/1
f 303/3/2 339/2/2 337/1/2
f 339/3/2 303/2/2 305/1/2
f 306/268/3 338/5/3 340/303/3
f 338/5/3 306/268/3 304/5/3
f 306/5/4 303/5/4 304/304/4
f 303/5/4 306/5/4 305/305/4
f 303/273/5 338/5/5 304/5/5
f 338/5/5 303/273/5 337/306/5
f 339/2/6 306/3/6 340/11/6
f 306/3/6 339/2/6 305/1/6
f 272/3/1 236/2/1 270/1/1
f 236/3/1 272/2/1 235/1/1
f 274/3/2 272/2/2 270/1/2
f 272/3/2 274/2/2 273/1/2
f 341/5/3 236/210/3 235/5/3
f 236/210/3 341/5/3 342/307/3
f 341/5/4 274/241/4 342/308/4
f 274/241/4 341/5/4 273/5/4
f 274/243/5 236/213/5 342/309/5
f 236/213/5 274/243/5 270/5/5
f 272/2/6 341/3/6 235/11/6
f 341/3/6 272/2/6 273/1/6
f 344/3/1 278/2/1 343/1/1
f 278/3/1 344/2/1 277/1/1
f 345/3/2 344/2/2 343/1/2
f 344/3/2 345/2/2 346/1/2
f 347/5/3 278/246/3 277/5/3
f 278/246/3 347/5/3 348/310/3
f 347/5/4 345/5/4 348/311/4
f 345/5/4 347/5/4 346/312/4
f 345/5/5 278/249/5 348/313/5
f 278/249/5 345/5/5 343/314/5
f 344/2/6 347/3/6 277/11/6
f 347/3/6 344/2/6 346/1/6

usemtl color11

f 114/3/1 116/2/1 113/1/1
f 116/3/1 114/2/1 115/1/1
f 117/3/2 114/2/2 113/1/2
f 114/3/2 117/2/2 119/1/2
f 120/99/3 116/94/3 115/5/3
f 116/94/3 120/99/3 118/5/3
f 120/125/4 117/5/4 118/5/4
f 117/5/4 120/125/4 119/315/4
f 117/104/5 116/97/5 118/5/5
f 116/97/5 117/104/5 113/5/5
f 114/2/6 120/3/6 115/11/6
f 120/3/6 114/2/6 119/1/6
f 199/3/1 349/2/1 200/1/1
f 349/3/1 199/2/1 350/1/1
f 202/3/2 199/2/2 200/1/2
f 199/3/2 202/2/2 204/1/2
f 351/5/3 349/5/3 350/316/3
f 349/5/3 351/5/3 352/317/3
f 351/5/4 202/5/4 352/318/4
f 202/5/4 351/5/4 204/319/4
f 202/5/5 349/5/5 352/320/5
f 349/5/5 202/5/5 200/180/5
f 199/2/6 351/3/6 350/11/6
f 351/3/6 199/2/6 204/1/6
f 142/3/1 144/2/1 141/1/1
f 144/3/1 142/2/1 143/1/1
f 353/3/2 142/2/2 141/1/2
f 142/3/2 353/2/2 354/1/2
f 355/5/3 144/117/3 143/5/3
f 144/117/3 355/5/3 356/321/3
f 355/5/4 353/5/4 356/322/4
f 353/5/4 355/5/4 354/323/4
f 353/5/5 144/120/5 356/324/5
f 144/120/5 353/5/5 141/5/5
f 142/2/6 355/3/6 143/11/6
f 355/3/6 142/2/6 354/1/6
f 359/3/1 358/2/1 357/1/1
f 358/3/1 359/2/1 360/1/1
f 261/3/2 359/2/2 357/1/2
f 359/3/2 261/2/2 263/1/2
f 264/233/3 358/5/3 360/325/3
f 358/5/3 264/233/3 262/5/3
f 264/297/4 261/5/4 262/5/4
f 261/5/4 264/297/4 263/326/4
f 261/238/5 358/5/5 262/5/5
f 358/5/5 261/238/5 357/327/5
f 359/2/6 264/3/6 360/11/6
f 264/3/6 359/2/6 263/1/6
f 363/3/1 362/2/1 361/1/1
f 362/3/1 363/2/1 364/1/1
f 365/3/2 363/2/2 361/1/2
f 363/3/2 365/2/2 366/1/2
f 367/5/3 362/5/3 364/328/3
f 362/5/3 367/5/3 368/329/3
f 367/5/4 365/5/4 368/330/4
f 365/5/4 367/5/4 366/331/4
f 365/5/5 362/5/5 368/332/5
f 362/5/5 365/5/5 361/333/5
f 363/2/6 367/3/6 364/11/6
f 367/3/6 363/2/6 366/1/6

usemtl color7

f 320/3/1 322/2/1 319/1/1
f 322/3/1 320/2/1 321/1/1
f 228/3/2 320/2/2 319/1/2
f 320/3/2 228/2/2 227/1/2
f 369/5/3 322/283/3 321/5/3
f 322/283/3 369/5/3 370/334/3
f 369/5/4 228/205/4 370/335/4
f 228/205/4 369/5/4 227/5/4
f 228/207/5 322/286/5 370/336/5
f 322/286/5 228/207/5 319/5/5
f 320/2/6 369/3/6 321/11/6
f 369/3/6 320/2/6 227/1/6
f 264/3/1 332/2/1 262/1/1
f 332/3/1 264/2/1 331/1/1
f 268/3/2 264/2/2 262/1/2
f 264/3/2 268/2/2 267/1/2
f 371/5/3 332/295/3 331/5/3
f 332/295/3 371/5/3 372/337/3
f 371/5/4 268/235/4 372/338/4
f 268/235/4 371/5/4 267/5/4
f 268/237/5 332/298/5 372/339/5
f 332/298/5 268/237/5 262/5/5
f 264/2/6 371/3/6 331/11/6
f 371/3/6 264/2/6 267/1/6
f 273/3/1 342/2/1 274/1/1
f 342/3/1 273/2/1 341/1/1
f 373/3/2 273/2/2 274/1/2
f 273/3/2 373/2/2 374/1/2
f 276/245/3 342/307/3 341/5/3
f 342/307/3 276/245/3 275/5/3
f 276/5/4 373/5/4 275/340/4
f 373/5/4 276/5/4 374/341/4
f 373/5/5 342/309/5 275/5/5
f 342/309/5 373/5/5 274/243/5
f 273/2/6 276/3/6 341/11/6
f 276/3/6 273/2/6 374/1/6
f 346/3/1 348/2/1 345/1/1
f 348/3/1 346/2/1 347/1/1
f 286/3/2 346/2/2 345/1/2
f 346/3/2 286/2/2 285/1/2
f 375/5/3 348/310/3 347/5/3
f 348/310/3 375/5/3 376/342/3
f 375/5/4 286/252/4 376/343/4
f 286/252/4 375/5/4 285/5/4
f 286/254/5 348/313/5 376/344/5
f 348/313/5 286/254/5 345/5/5
f 346/2/6 375/3/6 347/11/6
f 375/3/6 346/2/6 285/1/6

usemtl color3

f 292/3/1 294/2/1 291/1/1
f 294/3/1 292/2/1 293/1/1
f 377/3/2 292/2/2 291/1/2
f 292/3/2 377/2/2 378/1/2
f 379/5/3 294/257/3 293/5/3
f 294/257/3 379/5/3 380/345/3
f 379/5/4 377/5/4 380/346/4
f 377/5/4 379/5/4 378/347/4
f 377/5/5 294/260/5 380/348/5
f 294/260/5 377/5/5 291/5/5
f 292/2/6 379/3/6 293/11/6
f 379/3/6 292/2/6 378/1/6
f 308/3/1 310/2/1 307/1/1
f 310/3/1 308/2/1 309/1/1
f 368/3/2 308/2/2 307/1/2
f 308/3/2 368/2/2 367/1/2
f 232/209/3 310/269/3 309/5/3
f 310/269/3 232/209/3 230/5/3
f 232/5/4 368/330/4 230/349/4
f 368/330/4 232/5/4 367/5/4
f 368/332/5 310/272/5 230/5/5
f 310/272/5 368/332/5 307/5/5
f 308/2/6 232/3/6 309/11/6
f 232/3/6 308/2/6 367/1/6
f 290/3/1 314/2/1 288/1/1
f 314/3/1 290/2/1 313/1/1
f 294/3/2 290/2/2 288/1/2
f 290/3/2 294/2/2 293/1/2
f 381/5/3 314/275/3 313/5/3
f 314/275/3 381/5/3 382/350/3
f 381/5/4 294/258/4 382/351/4
f 294/258/4 381/5/4 293/5/4
f 294/260/5 314/278/5 382/352/5
f 314/278/5 294/260/5 288/5/5
f 290/2/6 381/3/6 313/11/6
f 381/3/6 290/2/6 293/1/6

