# Created by Kenney (www.kenney.nl)

mtllib Blade 1R Chesture.mtl

v 12 4 -0.45
v 12 3 -0.45
v 12 4 0.45
v 12 3 0.45
v 11 4 -0.45
v 11 4 0.45
v 11 3 0.45
v 11 3 -0.45
v 16 2 -0.45
v 16 1 -0.45
v 16 2 0.45
v 16 1 0.45
v 15 2 -0.45
v 15 2 0.45
v 15 1 0.45
v 15 1 -0.45
v 13 1 -1.35
v 13 0 -1.35
v 13 1 1.35
v 13 0 1.35
v 12 1 -1.35
v 12 1 1.35
v 12 0 1.35
v 12 0 -1.35
v 11 1 -0.45
v 11 0 -0.45
v 11 1 0.45
v 11 0 0.45
v 10 1 -0.45
v 10 1 0.45
v 10 0 0.45
v 10 0 -0.45
v 9 1 -0.45
v 9 0 -0.45
v 9 1 0.45
v 9 0 0.45
v 8 1 -0.45
v 8 1 0.45
v 8 0 0.45
v 8 0 -0.45
v 7 1 -0.45
v 7 0 -0.45
v 7 1 0.45
v 7 0 0.45
v 5 1 -0.45
v 5 1 0.45
v 5 0 0.45
v 5 0 -0.45
v 4 1 -0.45
v 4 0 -0.45
v 4 1 0.45
v 4 0 0.45
v 2 1 -0.45
v 2 1 0.45
v 2 0 0.45
v 2 0 -0.45
v 1 1 -0.45
v 1 0 -0.45
v 1 1 0.45
v 1 0 0.45
v -1 1 -0.45
v -1 1 0.45
v -1 0 0.45
v -1 0 -0.45
v -2 1 -0.45
v -2 0 -0.45
v -2 1 0.45
v -2 0 0.45
v -4 1 -0.45
v -4 1 0.45
v -4 0 0.45
v -4 0 -0.45
v -5 1 -0.45
v -5 0 -0.45
v -5 1 0.45
v -5 0 0.45
v -7 1 -0.45
v -7 1 0.45
v -7 0 0.45
v -7 0 -0.45
v -8 1 -0.45
v -8 0 -0.45
v -8 1 0.45
v -8 0 0.45
v -10 1 -0.45
v -10 1 0.45
v -10 0 0.45
v -10 0 -0.45
v -11 1 -0.45
v -11 0 -0.45
v -11 1 0.45
v -11 0 0.45
v -13 1 -0.45
v -13 1 0.45
v -13 0 0.45
v -13 0 -0.45
v -14 1 -0.45
v -14 0 -0.45
v -14 1 0.45
v -14 0 0.45
v -16 1 -0.45
v -16 1 0.45
v -16 0 0.45
v -16 0 -0.45
v -17 1 -0.45
v -17 0 -0.45
v -17 1 0.45
v -17 0 0.45
v -19 1 -0.45
v -19 1 0.45
v -19 0 0.45
v -19 0 -0.45
v 16 0 -0.9
v 16 -1 -0.9
v 16 0 0.9
v 16 -1 0.9
v 15 0 -0.9
v 15 0 0.9
v 15 -1 0.9
v 15 -1 -0.9
v 14 -1 -0.9
v 14 -2 -0.9
v 14 -1 0.9
v 14 -2 0.9
v 13 -1 -0.9
v 13 -1 0.9
v 13 -2 0.9
v 13 -2 -0.9
v 14 -2 -0.45
v 14 -3 -0.45
v 14 -2 0.45
v 14 -3 0.45
v 13 -2 -0.45
v 13 -2 0.45
v 13 -3 0.45
v 13 -3 -0.45
v 10 4 -0.45
v 10 4 0.45
v 10 3 0.45
v 10 3 -0.45
v 13 3 -0.45
v 13 2 -0.45
v 13 3 0.45
v 13 2 0.45
v 12 2 0.45
v 12 2 -0.45
v 14 2 -0.45
v 14 1 -0.45
v 14 2 0.45
v 14 1 0.45
v 13 1 0.45
v 13 1 -0.45
v 10 1 -0.9
v 10 0 -0.9
v 10 1 0.9
v 10 0 0.9
v 9 1 -0.9
v 9 1 0.9
v 9 0 0.9
v 9 0 -0.9
v 8 1 -0.9
v 8 0 -0.9
v 8 1 0.9
v 8 0 0.9
v 7 1 -0.9
v 7 1 0.9
v 7 0 0.9
v 7 0 -0.9
v -20 1 -0.45
v -20 0 -0.45
v -20 1 0.45
v -20 0 0.45
v -21 1 -0.45
v -21 1 0.45
v -21 0 0.45
v -21 0 -0.45
v 13 -1 -1.35
v 13 -1 1.35
v 12 -1 1.35
v 12 -1 -1.35
v 11 -1 -0.45
v 11 -1 0.45
v 10 -1 0.45
v 10 -1 -0.45
v 9 4 -0.45
v 9 4 0.45
v 9 3 0.45
v 9 3 -0.45
v 12 3 -0.9
v 12 2 -0.9
v 12 3 0.9
v 12 2 0.9
v 11 3 -0.9
v 11 3 0.9
v 11 2 0.9
v 11 2 -0.9
v 21 1 -0.9
v 21 0 -0.9
v 21 1 0.9
v 21 0 0.9
v 20 1 -0.9
v 20 1 0.9
v 20 0 0.9
v 20 0 -0.9
v 19 1 -0.9
v 19 0 -0.9
v 19 1 0.9
v 19 0 0.9
v 18 1 -0.9
v 18 1 0.9
v 18 0 0.9
v 18 0 -0.9
v 17 1 -0.9
v 17 0 -0.9
v 17 1 0.9
v 17 0 0.9
v 16 1 -0.9
v 16 1 0.9
v 10 3 -0.9
v 10 3 0.9
v 10 2 0.9
v 10 2 -0.9
v 12 1 -0.9
v 12 1 0.9
v 11 1 0.9
v 11 1 -0.9
v 10 2 -0.45
v 10 2 0.45
v 9 2 0.45
v 9 2 -0.45
v 13 2 -0.9
v 13 1 -0.9
v 13 2 0.9
v 13 1 0.9
v 15 1 -0.9
v 15 1 0.9
v 8 -1 -0.9
v 8 -1 0.9
v 7 -1 0.9
v 7 -1 -0.9
v 22 1 -0.9
v 22 0 -0.9
v 22 1 0.9
v 22 0 0.9
v 12 0 -0.9
v 12 0 0.9
v 11 0 0.9
v 11 0 -0.9
v 5 1 -0.9
v 5 0 -0.9
v 5 1 0.9
v 5 0 0.9
v 4 1 -0.9
v 4 1 0.9
v 4 0 0.9
v 4 0 -0.9
v 2 1 -0.9
v 2 0 -0.9
v 2 1 0.9
v 2 0 0.9
v 1 1 -0.9
v 1 1 0.9
v 1 0 0.9
v 1 0 -0.9
v -1 1 -0.9
v -1 0 -0.9
v -1 1 0.9
v -1 0 0.9
v -2 1 -0.9
v -2 1 0.9
v -2 0 0.9
v -2 0 -0.9
v -4 1 -0.9
v -4 0 -0.9
v -4 1 0.9
v -4 0 0.9
v -5 1 -0.9
v -5 1 0.9
v -5 0 0.9
v -5 0 -0.9
v -7 1 -0.9
v -7 0 -0.9
v -7 1 0.9
v -7 0 0.9
v -8 1 -0.9
v -8 1 0.9
v -8 0 0.9
v -8 0 -0.9
v -10 1 -0.9
v -10 0 -0.9
v -10 1 0.9
v -10 0 0.9
v -11 1 -0.9
v -11 1 0.9
v -11 0 0.9
v -11 0 -0.9
v -13 1 -0.9
v -13 0 -0.9
v -13 1 0.9
v -13 0 0.9
v -14 1 -0.9
v -14 1 0.9
v -14 0 0.9
v -14 0 -0.9
v -16 1 -0.9
v -16 0 -0.9
v -16 1 0.9
v -16 0 0.9
v -17 1 -0.9
v -17 1 0.9
v -17 0 0.9
v -17 0 -0.9
v -19 1 -0.9
v -19 0 -0.9
v -19 1 0.9
v -19 0 0.9
v -20 1 -0.9
v -20 1 0.9
v -20 0 0.9
v -20 0 -0.9
v 13 -1 -0.45
v 13 -1 0.45
v 12 -1 -0.45
v 12 -1 0.45
v 12 -2 0.45
v 12 -2 -0.45
v 14 1 -0.9
v 14 1 0.9
v 14 0 0.9
v 14 0 -0.9
v 14 1 -1.35
v 14 -1 -1.35
v 14 1 1.35
v 14 -1 1.35
v -22 1 -0.45
v -22 1 0.45
v -22 0 0.45
v -22 0 -0.45
v -19 -1 -0.45
v -19 -1 0.45
v -20 -1 0.45
v -20 -1 -0.45
v 22 0 -0.45
v 22 -1 -0.45
v 22 0 0.45
v 22 -1 0.45
v 20 0 -0.45
v 20 0 0.45
v 20 -1 0.45
v 20 -1 -0.45
v 19 0 -0.45
v 19 -1 -0.45
v 19 0 0.45
v 19 -1 0.45
v 18 0 -0.45
v 18 0 0.45
v 18 -1 0.45
v 18 -1 -0.45
v 17 0 -0.45
v 17 -1 -0.45
v 17 0 0.45
v 17 -1 0.45
v 16 0 -0.45
v 16 0 0.45
v 16 -1 0.45
v 16 -1 -0.45
v 15 0 -0.45
v 15 -1 -0.45
v 15 0 0.45
v 15 -1 0.45
v 14 0 -0.45
v 14 0 0.45
v 14 -1 0.45
v 14 -1 -0.45
v 16 -2 -0.45
v 16 -2 0.45
v 15 -2 0.45
v 15 -2 -0.45
v 12 -1 -0.9
v 12 -1 0.9
v 11 -1 0.9
v 11 -1 -0.9
v 10 -1 -0.9
v 10 -1 0.9
v 9 -1 0.9
v 9 -1 -0.9
v -18 0 -0.9
v -18 -1 -0.9
v -18 0 0.9
v -18 -1 0.9
v -19 -1 0.9
v -19 -1 -0.9
v 9 -1 -0.45
v 9 -1 0.45
v 8 -1 0.45
v 8 -1 -0.45
v 1 -1 -0.45
v 1 -1 0.45
v 0 0 -0.45
v 0 0 0.45
v 0 -1 0.45
v 0 -1 -0.45
v 7 -1 -0.45
v 7 -1 0.45
v 5 -1 0.45
v 5 -1 -0.45
v 2 -1 -0.45
v 2 -1 0.45
v -1 -1 0.45
v -1 -1 -0.45
v -15 0 -0.45
v -15 -1 -0.45
v -15 0 0.45
v -15 -1 0.45
v -18 0 -0.45
v -18 0 0.45
v -18 -1 0.45
v -18 -1 -0.45
v -12 0 -0.45
v -12 0 0.45
v -12 -1 0.45
v -12 -1 -0.45
v -14 -1 -0.45
v -14 -1 0.45

vn 1 0 0
vn 0 1 0
vn 0 -1 0
vn -1 0 0
vn 0 0 -1
vn 0 0 1

vt -19.68504 19.68504
vt 19.68504 19.68504
vt -19.68504 -19.68504
vt 0 NaN
vt 0 0
vt 0 NaN
vt 0 NaN
vt 0 NaN
vt 0 NaN
vt 0 NaN
vt 19.68504 -19.68504
vt 0 NaN
vt 0 NaN
vt 0 NaN
vt 0 NaN
vt 0 NaN
vt 0 NaN
vt 0 NaN
vt 0 NaN
vt 0 NaN
vt 0 NaN
vt 0 NaN
vt 0 NaN
vt 0 NaN
vt 0 NaN
vt 0 NaN
vt 0 NaN
vt 0 NaN
vt 0 NaN
vt 0 NaN
vt 0 NaN
vt 0 NaN
vt 0 NaN
vt 0 NaN
vt 0 NaN
vt 0 NaN
vt 0 NaN
vt 0 NaN
vt 0 NaN
vt 0 NaN
vt 0 NaN
vt 0 NaN
vt 0 NaN
vt 0 NaN
vt 0 NaN
vt 0 NaN
vt 0 NaN
vt 0 NaN
vt 0 NaN
vt 0 NaN
vt 0 NaN
vt 0 NaN
vt 0 NaN
vt 0 NaN
vt 0 NaN
vt 0 NaN
vt 0 NaN
vt 0 NaN
vt 0 NaN
vt 0 NaN
vt 0 NaN
vt 0 NaN
vt 0 NaN
vt 0 NaN
vt 0 NaN
vt 0 NaN
vt 0 NaN
vt 0 NaN
vt 0 NaN
vt 0 NaN
vt 0 NaN
vt 0 NaN
vt 0 NaN
vt 0 NaN
vt 0 NaN
vt 0 NaN
vt 0 NaN
vt 0 NaN
vt 0 NaN
vt 0 NaN
vt 0 NaN
vt 0 NaN
vt 0 NaN
vt 0 NaN
vt 0 NaN
vt 0 NaN
vt 0 NaN
vt 0 NaN
vt 0 NaN
vt 0 NaN
vt 0 NaN
vt 0 NaN
vt 0 NaN
vt 0 NaN
vt 0 NaN
vt 0 NaN
vt 0 NaN
vt 0 NaN
vt 0 NaN
vt 0 NaN
vt 0 NaN
vt 0 NaN
vt 0 NaN
vt 0 NaN
vt 0 NaN
vt 0 NaN
vt 0 NaN
vt 0 NaN
vt 0 NaN
vt 0 NaN
vt 0 NaN
vt 0 NaN
vt 0 NaN
vt 0 NaN
vt 0 NaN
vt 0 NaN
vt 0 NaN
vt 0 NaN
vt 0 NaN
vt 0 NaN
vt 0 NaN
vt 0 NaN
vt 0 NaN
vt 0 NaN
vt 0 NaN
vt 0 NaN
vt 0 NaN
vt 0 NaN
vt 0 NaN
vt 0 NaN
vt 0 NaN
vt 0 NaN
vt 0 NaN
vt 0 NaN
vt 0 NaN
vt 0 NaN
vt 0 NaN
vt 0 NaN
vt 0 NaN
vt 0 NaN
vt 0 NaN
vt 0 NaN
vt 0 NaN
vt 0 NaN
vt 0 NaN
vt 0 NaN
vt 0 NaN
vt 0 NaN
vt 0 NaN
vt 0 NaN
vt 0 NaN
vt 0 NaN
vt 0 NaN
vt 0 NaN
vt 0 NaN
vt 0 NaN
vt 0 NaN
vt 0 NaN
vt 0 NaN
vt 0 NaN
vt 0 NaN
vt 0 NaN
vt 0 NaN
vt 0 NaN
vt 0 NaN
vt 0 NaN
vt 0 NaN
vt 0 NaN
vt 0 NaN
vt 0 NaN
vt 0 NaN
vt 0 NaN
vt 0 NaN
vt 0 NaN
vt 0 NaN
vt 0 NaN
vt 0 NaN
vt 0 NaN
vt 0 NaN
vt 0 NaN
vt 0 NaN
vt 0 NaN
vt 0 NaN
vt 0 NaN
vt 0 NaN
vt 0 NaN
vt 0 NaN
vt 0 NaN
vt 0 NaN
vt 0 NaN
vt 0 NaN
vt 0 NaN
vt 0 NaN
vt 0 NaN
vt 0 NaN
vt 0 NaN
vt 0 NaN
vt 0 NaN
vt 0 NaN
vt 0 NaN
vt 0 NaN
vt 0 NaN
vt 0 NaN
vt 0 NaN
vt 0 NaN
vt 0 NaN
vt 0 NaN
vt 0 NaN
vt 0 NaN
vt 0 NaN
vt 0 NaN
vt 0 NaN
vt 0 NaN
vt 0 NaN
vt 0 NaN
vt 0 NaN
vt 0 NaN
vt 0 NaN
vt 0 NaN
vt 0 NaN
vt 0 NaN
vt 0 NaN
vt 0 NaN
vt 0 NaN
vt 0 NaN
vt 0 NaN
vt 0 NaN
vt 0 NaN
vt 0 NaN
vt 0 NaN
vt 0 NaN
vt 0 NaN
vt 0 NaN
vt 0 NaN
vt 0 NaN
vt 0 NaN
vt 0 NaN
vt 0 NaN
vt 0 NaN
vt 0 NaN
vt 0 NaN
vt 0 NaN
vt 0 NaN
vt 0 NaN
vt 0 NaN
vt 0 NaN
vt 0 NaN
vt 0 NaN
vt 0 NaN
vt 0 NaN
vt 0 NaN
vt 0 NaN
vt 0 NaN
vt 0 NaN
vt 0 NaN
vt 0 NaN
vt 0 NaN
vt 0 NaN
vt 0 NaN
vt 0 NaN
vt 0 NaN
vt 0 NaN
vt 0 NaN
vt 0 NaN
vt 0 NaN
vt 0 NaN
vt 0 NaN
vt 0 NaN
vt 0 NaN
vt 0 NaN
vt 0 NaN
vt 0 NaN
vt 0 NaN
vt 0 NaN
vt 0 NaN
vt 0 NaN
vt 0 NaN
vt 0 NaN
vt 0 NaN
vt 0 NaN
vt 0 NaN
vt 0 NaN
vt 0 NaN
vt 0 NaN
vt 0 NaN
vt 0 NaN
vt 0 NaN
vt 0 NaN
vt 0 NaN
vt 0 NaN
vt 0 NaN
vt 0 NaN
vt 0 NaN
vt 0 NaN
vt 0 NaN
vt 0 NaN
vt 0 NaN
vt 0 NaN
vt 0 NaN
vt 0 NaN
vt 0 NaN
vt 0 NaN
vt 0 NaN
vt 0 NaN
vt 0 NaN
vt 0 NaN
vt 0 NaN
vt 0 NaN
vt 0 NaN
vt 0 NaN
vt 0 NaN
vt 0 NaN
vt 0 NaN
vt 0 NaN
vt 0 NaN
vt 0 NaN
vt 0 NaN
vt 0 NaN
vt 0 NaN
vt 0 NaN
vt 0 NaN
vt 0 NaN
vt 0 NaN
vt 0 NaN
vt 0 NaN
vt 0 NaN
vt 0 NaN
vt 0 NaN
vt 0 NaN
vt 0 NaN
vt 0 NaN
vt 0 NaN
vt 0 NaN
vt 0 NaN
vt 0 NaN
vt 0 NaN
vt 0 NaN
vt 0 NaN
vt 0 NaN
vt 0 NaN
vt 0 NaN
vt 0 NaN
vt 0 NaN
vt 0 NaN
vt 0 NaN
vt 0 NaN
vt 0 NaN
vt 0 NaN
vt 0 NaN
vt 0 NaN
vt 0 NaN
vt 0 NaN
vt 0 NaN
vt 0 NaN
vt 0 NaN
vt 0 NaN
vt 0 NaN
vt 0 NaN
vt 0 NaN
vt 0 NaN
vt 0 NaN
vt 0 NaN
vt 0 NaN
vt 0 NaN
vt 0 NaN
vt 0 NaN
vt 0 NaN
vt 0 NaN
vt 0 NaN

usemtl color2

f 3/3/1 2/2/1 1/1/1
f 2/3/1 3/2/1 4/1/1
f 5/3/2 3/2/2 1/1/2
f 3/3/2 5/2/2 6/1/2
f 7/5/3 2/5/3 4/4/3
f 2/5/3 7/5/3 8/6/3
f 7/5/4 5/5/4 8/7/4
f 5/5/4 7/5/4 6/8/4
f 5/5/5 2/5/5 8/9/5
f 2/5/5 5/5/5 1/10/5
f 3/2/6 7/3/6 4/11/6
f 7/3/6 3/2/6 6/1/6
f 3/3/1 2/2/1 1/1/1
f 2/3/1 3/2/1 4/1/1
f 5/3/2 3/2/2 1/1/2
f 3/3/2 5/2/2 6/1/2
f 7/5/3 2/5/3 4/4/3
f 2/5/3 7/5/3 8/6/3
f 7/5/4 5/5/4 8/7/4
f 5/5/4 7/5/4 6/8/4
f 5/5/5 2/5/5 8/9/5
f 2/5/5 5/5/5 1/10/5
f 3/2/6 7/3/6 4/11/6
f 7/3/6 3/2/6 6/1/6
f 11/3/1 10/2/1 9/1/1
f 10/3/1 11/2/1 12/1/1
f 13/3/2 11/2/2 9/1/2
f 11/3/2 13/2/2 14/1/2
f 15/5/3 10/5/3 12/12/3
f 10/5/3 15/5/3 16/13/3
f 15/5/4 13/5/4 16/14/4
f 13/5/4 15/5/4 14/15/4
f 13/5/5 10/5/5 16/16/5
f 10/5/5 13/5/5 9/17/5
f 11/2/6 15/3/6 12/11/6
f 15/3/6 11/2/6 14/1/6
f 19/3/1 18/2/1 17/1/1
f 18/3/1 19/2/1 20/1/1
f 21/3/2 19/2/2 17/1/2
f 19/3/2 21/2/2 22/1/2
f 23/5/3 18/5/3 20/18/3
f 18/5/3 23/5/3 24/19/3
f 23/5/4 21/5/4 24/20/4
f 21/5/4 23/5/4 22/21/4
f 21/5/5 18/5/5 24/22/5
f 18/5/5 21/5/5 17/23/5
f 19/2/6 23/3/6 20/11/6
f 23/3/6 19/2/6 22/1/6
f 27/3/1 26/2/1 25/1/1
f 26/3/1 27/2/1 28/1/1
f 29/3/2 27/2/2 25/1/2
f 27/3/2 29/2/2 30/1/2
f 31/5/3 26/5/3 28/24/3
f 26/5/3 31/5/3 32/25/3
f 31/5/4 29/5/4 32/26/4
f 29/5/4 31/5/4 30/27/4
f 29/5/5 26/5/5 32/28/5
f 26/5/5 29/5/5 25/29/5
f 27/2/6 31/3/6 28/11/6
f 31/3/6 27/2/6 30/1/6
f 35/3/1 34/2/1 33/1/1
f 34/3/1 35/2/1 36/1/1
f 37/3/2 35/2/2 33/1/2
f 35/3/2 37/2/2 38/1/2
f 39/5/3 34/5/3 36/30/3
f 34/5/3 39/5/3 40/31/3
f 39/5/4 37/5/4 40/32/4
f 37/5/4 39/5/4 38/33/4
f 37/5/5 34/5/5 40/34/5
f 34/5/5 37/5/5 33/35/5
f 35/2/6 39/3/6 36/11/6
f 39/3/6 35/2/6 38/1/6
f 43/3/1 42/2/1 41/1/1
f 42/3/1 43/2/1 44/1/1
f 45/3/2 43/2/2 41/1/2
f 43/3/2 45/2/2 46/1/2
f 47/5/3 42/5/3 44/36/3
f 42/5/3 47/5/3 48/37/3
f 47/5/4 45/5/4 48/38/4
f 45/5/4 47/5/4 46/39/4
f 45/5/5 42/5/5 48/40/5
f 42/5/5 45/5/5 41/41/5
f 43/2/6 47/3/6 44/11/6
f 47/3/6 43/2/6 46/1/6
f 51/3/1 50/2/1 49/1/1
f 50/3/1 51/2/1 52/1/1
f 53/3/2 51/2/2 49/1/2
f 51/3/2 53/2/2 54/1/2
f 55/5/3 50/5/3 52/42/3
f 50/5/3 55/5/3 56/43/3
f 55/5/4 53/5/4 56/44/4
f 53/5/4 55/5/4 54/45/4
f 53/5/5 50/5/5 56/46/5
f 50/5/5 53/5/5 49/47/5
f 51/2/6 55/3/6 52/11/6
f 55/3/6 51/2/6 54/1/6
f 59/3/1 58/2/1 57/1/1
f 58/3/1 59/2/1 60/1/1
f 61/3/2 59/2/2 57/1/2
f 59/3/2 61/2/2 62/1/2
f 63/5/3 58/5/3 60/48/3
f 58/5/3 63/5/3 64/49/3
f 63/5/4 61/5/4 64/50/4
f 61/5/4 63/5/4 62/51/4
f 61/5/5 58/5/5 64/52/5
f 58/5/5 61/5/5 57/53/5
f 59/2/6 63/3/6 60/11/6
f 63/3/6 59/2/6 62/1/6
f 67/3/1 66/2/1 65/1/1
f 66/3/1 67/2/1 68/1/1
f 69/3/2 67/2/2 65/1/2
f 67/3/2 69/2/2 70/1/2
f 71/5/3 66/5/3 68/54/3
f 66/5/3 71/5/3 72/55/3
f 71/5/4 69/5/4 72/56/4
f 69/5/4 71/5/4 70/57/4
f 69/5/5 66/5/5 72/58/5
f 66/5/5 69/5/5 65/59/5
f 67/2/6 71/3/6 68/11/6
f 71/3/6 67/2/6 70/1/6
f 75/3/1 74/2/1 73/1/1
f 74/3/1 75/2/1 76/1/1
f 77/3/2 75/2/2 73/1/2
f 75/3/2 77/2/2 78/1/2
f 79/5/3 74/5/3 76/60/3
f 74/5/3 79/5/3 80/61/3
f 79/5/4 77/5/4 80/62/4
f 77/5/4 79/5/4 78/63/4
f 77/5/5 74/5/5 80/64/5
f 74/5/5 77/5/5 73/65/5
f 75/2/6 79/3/6 76/11/6
f 79/3/6 75/2/6 78/1/6
f 83/3/1 82/2/1 81/1/1
f 82/3/1 83/2/1 84/1/1
f 85/3/2 83/2/2 81/1/2
f 83/3/2 85/2/2 86/1/2
f 87/5/3 82/5/3 84/66/3
f 82/5/3 87/5/3 88/67/3
f 87/5/4 85/5/4 88/68/4
f 85/5/4 87/5/4 86/69/4
f 85/5/5 82/5/5 88/70/5
f 82/5/5 85/5/5 81/71/5
f 83/2/6 87/3/6 84/11/6
f 87/3/6 83/2/6 86/1/6
f 91/3/1 90/2/1 89/1/1
f 90/3/1 91/2/1 92/1/1
f 93/3/2 91/2/2 89/1/2
f 91/3/2 93/2/2 94/1/2
f 95/5/3 90/5/3 92/72/3
f 90/5/3 95/5/3 96/73/3
f 95/5/4 93/5/4 96/74/4
f 93/5/4 95/5/4 94/75/4
f 93/5/5 90/5/5 96/76/5
f 90/5/5 93/5/5 89/77/5
f 91/2/6 95/3/6 92/11/6
f 95/3/6 91/2/6 94/1/6
f 99/3/1 98/2/1 97/1/1
f 98/3/1 99/2/1 100/1/1
f 101/3/2 99/2/2 97/1/2
f 99/3/2 101/2/2 102/1/2
f 103/5/3 98/5/3 100/78/3
f 98/5/3 103/5/3 104/79/3
f 103/5/4 101/5/4 104/80/4
f 101/5/4 103/5/4 102/81/4
f 101/5/5 98/5/5 104/82/5
f 98/5/5 101/5/5 97/83/5
f 99/2/6 103/3/6 100/11/6
f 103/3/6 99/2/6 102/1/6
f 107/3/1 106/2/1 105/1/1
f 106/3/1 107/2/1 108/1/1
f 109/3/2 107/2/2 105/1/2
f 107/3/2 109/2/2 110/1/2
f 111/5/3 106/5/3 108/84/3
f 106/5/3 111/5/3 112/85/3
f 111/5/4 109/5/4 112/86/4
f 109/5/4 111/5/4 110/87/4
f 109/5/5 106/5/5 112/88/5
f 106/5/5 109/5/5 105/89/5
f 107/2/6 111/3/6 108/11/6
f 111/3/6 107/2/6 110/1/6
f 115/3/1 114/2/1 113/1/1
f 114/3/1 115/2/1 116/1/1
f 117/3/2 115/2/2 113/1/2
f 115/3/2 117/2/2 118/1/2
f 119/5/3 114/5/3 116/90/3
f 114/5/3 119/5/3 120/91/3
f 119/5/4 117/5/4 120/92/4
f 117/5/4 119/5/4 118/93/4
f 117/5/5 114/5/5 120/94/5
f 114/5/5 117/5/5 113/95/5
f 115/2/6 119/3/6 116/11/6
f 119/3/6 115/2/6 118/1/6
f 123/3/1 122/2/1 121/1/1
f 122/3/1 123/2/1 124/1/1
f 125/3/2 123/2/2 121/1/2
f 123/3/2 125/2/2 126/1/2
f 127/5/3 122/5/3 124/96/3
f 122/5/3 127/5/3 128/97/3
f 127/5/4 125/5/4 128/98/4
f 125/5/4 127/5/4 126/99/4
f 125/5/5 122/5/5 128/100/5
f 122/5/5 125/5/5 121/101/5
f 123/2/6 127/3/6 124/11/6
f 127/3/6 123/2/6 126/1/6
f 131/3/1 130/2/1 129/1/1
f 130/3/1 131/2/1 132/1/1
f 133/3/2 131/2/2 129/1/2
f 131/3/2 133/2/2 134/1/2
f 135/5/3 130/5/3 132/102/3
f 130/5/3 135/5/3 136/103/3
f 135/5/4 133/5/4 136/104/4
f 133/5/4 135/5/4 134/105/4
f 133/5/5 130/5/5 136/106/5
f 130/5/5 133/5/5 129/107/5
f 131/2/6 135/3/6 132/11/6
f 135/3/6 131/2/6 134/1/6

usemtl color7

f 6/3/1 8/2/1 5/1/1
f 8/3/1 6/2/1 7/1/1
f 137/3/2 6/2/2 5/1/2
f 6/3/2 137/2/2 138/1/2
f 139/5/3 8/6/3 7/5/3
f 8/6/3 139/5/3 140/108/3
f 139/5/4 137/5/4 140/109/4
f 137/5/4 139/5/4 138/110/4
f 137/5/5 8/9/5 140/111/5
f 8/9/5 137/5/5 5/5/5
f 6/2/6 139/3/6 7/11/6
f 139/3/6 6/2/6 138/1/6
f 143/3/1 142/2/1 141/1/1
f 142/3/1 143/2/1 144/1/1
f 2/3/2 143/2/2 141/1/2
f 143/3/2 2/2/2 4/1/2
f 145/5/3 142/5/3 144/112/3
f 142/5/3 145/5/3 146/113/3
f 145/5/4 2/5/4 146/114/4
f 2/5/4 145/5/4 4/115/4
f 2/5/5 142/5/5 146/116/5
f 142/5/5 2/5/5 141/117/5
f 143/2/6 145/3/6 144/11/6
f 145/3/6 143/2/6 4/1/6
f 149/3/1 148/2/1 147/1/1
f 148/3/1 149/2/1 150/1/1
f 142/3/2 149/2/2 147/1/2
f 149/3/2 142/2/2 144/1/2
f 151/5/3 148/5/3 150/118/3
f 148/5/3 151/5/3 152/119/3
f 151/5/4 142/5/4 152/120/4
f 142/5/4 151/5/4 144/121/4
f 142/5/5 148/5/5 152/122/5
f 148/5/5 142/5/5 147/123/5
f 149/2/6 151/3/6 150/11/6
f 151/3/6 149/2/6 144/1/6
f 155/3/1 154/2/1 153/1/1
f 154/3/1 155/2/1 156/1/1
f 157/3/2 155/2/2 153/1/2
f 155/3/2 157/2/2 158/1/2
f 159/5/3 154/5/3 156/124/3
f 154/5/3 159/5/3 160/125/3
f 159/5/4 157/5/4 160/126/4
f 157/5/4 159/5/4 158/127/4
f 157/5/5 154/5/5 160/128/5
f 154/5/5 157/5/5 153/129/5
f 155/2/6 159/3/6 156/11/6
f 159/3/6 155/2/6 158/1/6
f 163/3/1 162/2/1 161/1/1
f 162/3/1 163/2/1 164/1/1
f 165/3/2 163/2/2 161/1/2
f 163/3/2 165/2/2 166/1/2
f 167/5/3 162/5/3 164/130/3
f 162/5/3 167/5/3 168/131/3
f 167/5/4 165/5/4 168/132/4
f 165/5/4 167/5/4 166/133/4
f 165/5/5 162/5/5 168/134/5
f 162/5/5 165/5/5 161/135/5
f 163/2/6 167/3/6 164/11/6
f 167/3/6 163/2/6 166/1/6
f 171/3/1 170/2/1 169/1/1
f 170/3/1 171/2/1 172/1/1
f 173/3/2 171/2/2 169/1/2
f 171/3/2 173/2/2 174/1/2
f 175/5/3 170/5/3 172/136/3
f 170/5/3 175/5/3 176/137/3
f 175/5/4 173/5/4 176/138/4
f 173/5/4 175/5/4 174/139/4
f 173/5/5 170/5/5 176/140/5
f 170/5/5 173/5/5 169/141/5
f 171/2/6 175/3/6 172/11/6
f 175/3/6 171/2/6 174/1/6
f 20/3/1 177/2/1 18/1/1
f 177/3/1 20/2/1 178/1/1
f 24/3/2 20/2/2 18/1/2
f 20/3/2 24/2/2 23/1/2
f 179/5/3 177/5/3 178/142/3
f 177/5/3 179/5/3 180/143/3
f 179/5/4 24/20/4 180/144/4
f 24/20/4 179/5/4 23/5/4
f 24/22/5 177/5/5 180/145/5
f 177/5/5 24/22/5 18/5/5
f 20/2/6 179/3/6 178/11/6
f 179/3/6 20/2/6 23/1/6
f 28/3/1 181/2/1 26/1/1
f 181/3/1 28/2/1 182/1/1
f 32/3/2 28/2/2 26/1/2
f 28/3/2 32/2/2 31/1/2
f 183/5/3 181/5/3 182/146/3
f 181/5/3 183/5/3 184/147/3
f 183/5/4 32/26/4 184/148/4
f 32/26/4 183/5/4 31/5/4
f 32/28/5 181/5/5 184/149/5
f 181/5/5 32/28/5 26/5/5
f 28/2/6 183/3/6 182/11/6
f 183/3/6 28/2/6 31/1/6

usemtl color20

f 138/3/1 140/2/1 137/1/1
f 140/3/1 138/2/1 139/1/1
f 185/3/2 138/2/2 137/1/2
f 138/3/2 185/2/2 186/1/2
f 187/5/3 140/108/3 139/5/3
f 140/108/3 187/5/3 188/150/3
f 187/5/4 185/5/4 188/151/4
f 185/5/4 187/5/4 186/152/4
f 185/5/5 140/111/5 188/153/5
f 140/111/5 185/5/5 137/5/5
f 138/2/6 187/3/6 139/11/6
f 187/3/6 138/2/6 186/1/6

usemtl color15

f 191/3/1 190/2/1 189/1/1
f 190/3/1 191/2/1 192/1/1
f 193/3/2 191/2/2 189/1/2
f 191/3/2 193/2/2 194/1/2
f 195/5/3 190/5/3 192/154/3
f 190/5/3 195/5/3 196/155/3
f 195/5/4 193/5/4 196/156/4
f 193/5/4 195/5/4 194/157/4
f 193/5/5 190/5/5 196/158/5
f 190/5/5 193/5/5 189/159/5
f 191/2/6 195/3/6 192/11/6
f 195/3/6 191/2/6 194/1/6
f 199/3/1 198/2/1 197/1/1
f 198/3/1 199/2/1 200/1/1
f 201/3/2 199/2/2 197/1/2
f 199/3/2 201/2/2 202/1/2
f 203/5/3 198/5/3 200/160/3
f 198/5/3 203/5/3 204/161/3
f 203/5/4 201/5/4 204/162/4
f 201/5/4 203/5/4 202/163/4
f 201/5/5 198/5/5 204/164/5
f 198/5/5 201/5/5 197/165/5
f 199/2/6 203/3/6 200/11/6
f 203/3/6 199/2/6 202/1/6
f 207/3/1 206/2/1 205/1/1
f 206/3/1 207/2/1 208/1/1
f 209/3/2 207/2/2 205/1/2
f 207/3/2 209/2/2 210/1/2
f 211/5/3 206/5/3 208/166/3
f 206/5/3 211/5/3 212/167/3
f 211/5/4 209/5/4 212/168/4
f 209/5/4 211/5/4 210/169/4
f 209/5/5 206/5/5 212/170/5
f 206/5/5 209/5/5 205/171/5
f 207/2/6 211/3/6 208/11/6
f 211/3/6 207/2/6 210/1/6
f 215/3/1 214/2/1 213/1/1
f 214/3/1 215/2/1 216/1/1
f 217/3/2 215/2/2 213/1/2
f 215/3/2 217/2/2 218/1/2
f 115/5/3 214/5/3 216/172/3
f 214/5/3 115/5/3 113/173/3
f 115/5/4 217/5/4 113/174/4
f 217/5/4 115/5/4 218/175/4
f 217/5/5 214/5/5 113/95/5
f 214/5/5 217/5/5 213/176/5
f 215/2/6 115/3/6 216/11/6
f 115/3/6 215/2/6 218/1/6

usemtl color17

f 194/3/1 196/2/1 193/1/1
f 196/3/1 194/2/1 195/1/1
f 219/3/2 194/2/2 193/1/2
f 194/3/2 219/2/2 220/1/2
f 221/5/3 196/155/3 195/5/3
f 196/155/3 221/5/3 222/177/3
f 221/5/4 219/5/4 222/178/4
f 219/5/4 221/5/4 220/179/4
f 219/5/5 196/158/5 222/180/5
f 196/158/5 219/5/5 193/5/5
f 194/2/6 221/3/6 195/11/6
f 221/3/6 194/2/6 220/1/6
f 192/3/1 223/2/1 190/1/1
f 223/3/1 192/2/1 224/1/1
f 196/3/2 192/2/2 190/1/2
f 192/3/2 196/2/2 195/1/2
f 225/5/3 223/5/3 224/181/3
f 223/5/3 225/5/3 226/182/3
f 225/5/4 196/156/4 226/183/4
f 196/156/4 225/5/4 195/5/4
f 196/158/5 223/5/5 226/184/5
f 223/5/5 196/158/5 190/5/5
f 192/2/6 225/3/6 224/11/6
f 225/3/6 192/2/6 195/1/6

usemtl color19

f 139/3/1 227/2/1 140/1/1
f 227/3/1 139/2/1 228/1/1
f 188/3/2 139/2/2 140/1/2
f 139/3/2 188/2/2 187/1/2
f 229/5/3 227/5/3 228/185/3
f 227/5/3 229/5/3 230/186/3
f 229/5/4 188/151/4 230/187/4
f 188/151/4 229/5/4 187/5/4
f 188/153/5 227/5/5 230/188/5
f 227/5/5 188/153/5 140/111/5
f 139/2/6 229/3/6 228/11/6
f 229/3/6 139/2/6 187/1/6

usemtl color10

f 233/3/1 232/2/1 231/1/1
f 232/3/1 233/2/1 234/1/1
f 190/3/2 233/2/2 231/1/2
f 233/3/2 190/2/2 192/1/2
f 224/181/3 232/5/3 234/189/3
f 232/5/3 224/181/3 223/5/3
f 224/5/4 190/5/4 223/190/4
f 190/5/4 224/5/4 192/191/4
f 190/5/5 232/5/5 223/5/5
f 232/5/5 190/5/5 231/192/5
f 233/2/6 224/3/6 234/11/6
f 224/3/6 233/2/6 192/1/6
f 218/3/1 113/2/1 217/1/1
f 113/3/1 218/2/1 115/1/1
f 235/3/2 218/2/2 217/1/2
f 218/3/2 235/2/2 236/1/2
f 118/5/3 113/173/3 115/5/3
f 113/173/3 118/5/3 117/193/3
f 118/93/4 235/5/4 117/5/4
f 235/5/4 118/93/4 236/194/4
f 235/5/5 113/95/5 117/5/5
f 113/95/5 235/5/5 217/5/5
f 218/2/6 118/3/6 115/11/6
f 118/3/6 218/2/6 236/1/6
f 164/3/1 237/2/1 162/1/1
f 237/3/1 164/2/1 238/1/1
f 168/3/2 164/2/2 162/1/2
f 164/3/2 168/2/2 167/1/2
f 239/5/3 237/5/3 238/195/3
f 237/5/3 239/5/3 240/196/3
f 239/5/4 168/132/4 240/197/4
f 168/132/4 239/5/4 167/5/4
f 168/134/5 237/5/5 240/198/5
f 237/5/5 168/134/5 162/5/5
f 164/2/6 239/3/6 238/11/6
f 239/3/6 164/2/6 167/1/6

usemtl color14

f 243/3/1 242/2/1 241/1/1
f 242/3/1 243/2/1 244/1/1
f 197/3/2 243/2/2 241/1/2
f 243/3/2 197/2/2 199/1/2
f 200/160/3 242/5/3 244/199/3
f 242/5/3 200/160/3 198/5/3
f 200/5/4 197/5/4 198/200/4
f 197/5/4 200/5/4 199/201/4
f 197/165/5 242/5/5 198/5/5
f 242/5/5 197/165/5 241/202/5
f 243/2/6 200/3/6 244/11/6
f 200/3/6 243/2/6 199/1/6
f 224/3/1 245/2/1 223/1/1
f 245/3/1 224/2/1 246/1/1
f 226/3/2 224/2/2 223/1/2
f 224/3/2 226/2/2 225/1/2
f 247/5/3 245/5/3 246/203/3
f 245/5/3 247/5/3 248/204/3
f 247/5/4 226/183/4 248/205/4
f 226/183/4 247/5/4 225/5/4
f 226/184/5 245/5/5 248/206/5
f 245/5/5 226/184/5 223/5/5
f 224/2/6 247/3/6 246/11/6
f 247/3/6 224/2/6 225/1/6
f 251/3/1 250/2/1 249/1/1
f 250/3/1 251/2/1 252/1/1
f 253/3/2 251/2/2 249/1/2
f 251/3/2 253/2/2 254/1/2
f 255/5/3 250/5/3 252/207/3
f 250/5/3 255/5/3 256/208/3
f 255/5/4 253/5/4 256/209/4
f 253/5/4 255/5/4 254/210/4
f 253/5/5 250/5/5 256/211/5
f 250/5/5 253/5/5 249/212/5
f 251/2/6 255/3/6 252/11/6
f 255/3/6 251/2/6 254/1/6
f 259/3/1 258/2/1 257/1/1
f 258/3/1 259/2/1 260/1/1
f 261/3/2 259/2/2 257/1/2
f 259/3/2 261/2/2 262/1/2
f 263/5/3 258/5/3 260/213/3
f 258/5/3 263/5/3 264/214/3
f 263/5/4 261/5/4 264/215/4
f 261/5/4 263/5/4 262/216/4
f 261/5/5 258/5/5 264/217/5
f 258/5/5 261/5/5 257/218/5
f 259/2/6 263/3/6 260/11/6
f 263/3/6 259/2/6 262/1/6
f 267/3/1 266/2/1 265/1/1
f 266/3/1 267/2/1 268/1/1
f 269/3/2 267/2/2 265/1/2
f 267/3/2 269/2/2 270/1/2
f 271/5/3 266/5/3 268/219/3
f 266/5/3 271/5/3 272/220/3
f 271/5/4 269/5/4 272/221/4
f 269/5/4 271/5/4 270/222/4
f 269/5/5 266/5/5 272/223/5
f 266/5/5 269/5/5 265/224/5
f 267/2/6 271/3/6 268/11/6
f 271/3/6 267/2/6 270/1/6
f 275/3/1 274/2/1 273/1/1
f 274/3/1 275/2/1 276/1/1
f 277/3/2 275/2/2 273/1/2
f 275/3/2 277/2/2 278/1/2
f 279/5/3 274/5/3 276/225/3
f 274/5/3 279/5/3 280/226/3
f 279/5/4 277/5/4 280/227/4
f 277/5/4 279/5/4 278/228/4
f 277/5/5 274/5/5 280/229/5
f 274/5/5 277/5/5 273/230/5
f 275/2/6 279/3/6 276/11/6
f 279/3/6 275/2/6 278/1/6
f 283/3/1 282/2/1 281/1/1
f 282/3/1 283/2/1 284/1/1
f 285/3/2 283/2/2 281/1/2
f 283/3/2 285/2/2 286/1/2
f 287/5/3 282/5/3 284/231/3
f 282/5/3 287/5/3 288/232/3
f 287/5/4 285/5/4 288/233/4
f 285/5/4 287/5/4 286/234/4
f 285/5/5 282/5/5 288/235/5
f 282/5/5 285/5/5 281/236/5
f 283/2/6 287/3/6 284/11/6
f 287/3/6 283/2/6 286/1/6
f 291/3/1 290/2/1 289/1/1
f 290/3/1 291/2/1 292/1/1
f 293/3/2 291/2/2 289/1/2
f 291/3/2 293/2/2 294/1/2
f 295/5/3 290/5/3 292/237/3
f 290/5/3 295/5/3 296/238/3
f 295/5/4 293/5/4 296/239/4
f 293/5/4 295/5/4 294/240/4
f 293/5/5 290/5/5 296/241/5
f 290/5/5 293/5/5 289/242/5
f 291/2/6 295/3/6 292/11/6
f 295/3/6 291/2/6 294/1/6
f 299/3/1 298/2/1 297/1/1
f 298/3/1 299/2/1 300/1/1
f 301/3/2 299/2/2 297/1/2
f 299/3/2 301/2/2 302/1/2
f 303/5/3 298/5/3 300/243/3
f 298/5/3 303/5/3 304/244/3
f 303/5/4 301/5/4 304/245/4
f 301/5/4 303/5/4 302/246/4
f 301/5/5 298/5/5 304/247/5
f 298/5/5 301/5/5 297/248/5
f 299/2/6 303/3/6 300/11/6
f 303/3/6 299/2/6 302/1/6
f 307/3/1 306/2/1 305/1/1
f 306/3/1 307/2/1 308/1/1
f 309/3/2 307/2/2 305/1/2
f 307/3/2 309/2/2 310/1/2
f 311/5/3 306/5/3 308/249/3
f 306/5/3 311/5/3 312/250/3
f 311/5/4 309/5/4 312/251/4
f 309/5/4 311/5/4 310/252/4
f 309/5/5 306/5/5 312/253/5
f 306/5/5 309/5/5 305/254/5
f 307/2/6 311/3/6 308/11/6
f 311/3/6 307/2/6 310/1/6
f 315/3/1 314/2/1 313/1/1
f 314/3/1 315/2/1 316/1/1
f 317/3/2 315/2/2 313/1/2
f 315/3/2 317/2/2 318/1/2
f 319/5/3 314/5/3 316/255/3
f 314/5/3 319/5/3 320/256/3
f 319/5/4 317/5/4 320/257/4
f 317/5/4 319/5/4 318/258/4
f 317/5/5 314/5/5 320/259/5
f 314/5/5 317/5/5 313/260/5
f 315/2/6 319/3/6 316/11/6
f 319/3/6 315/2/6 318/1/6

usemtl color4

f 202/3/1 204/2/1 201/1/1
f 204/3/1 202/2/1 203/1/1
f 205/3/2 202/2/2 201/1/2
f 202/3/2 205/2/2 207/1/2
f 208/166/3 204/161/3 203/5/3
f 204/161/3 208/166/3 206/5/3
f 208/5/4 205/5/4 206/261/4
f 205/5/4 208/5/4 207/262/4
f 205/171/5 204/164/5 206/5/5
f 204/164/5 205/171/5 201/5/5
f 202/2/6 208/3/6 203/11/6
f 208/3/6 202/2/6 207/1/6
f 210/3/1 212/2/1 209/1/1
f 212/3/1 210/2/1 211/1/1
f 213/3/2 210/2/2 209/1/2
f 210/3/2 213/2/2 215/1/2
f 216/172/3 212/167/3 211/5/3
f 212/167/3 216/172/3 214/5/3
f 216/5/4 213/5/4 214/263/4
f 213/5/4 216/5/4 215/264/4
f 213/176/5 212/170/5 214/5/5
f 212/170/5 213/176/5 209/5/5
f 210/2/6 216/3/6 211/11/6
f 216/3/6 210/2/6 215/1/6
f 322/3/1 133/2/1 321/1/1
f 133/3/1 322/2/1 134/1/1
f 323/3/2 322/2/2 321/1/2
f 322/3/2 323/2/2 324/1/2
f 325/5/3 133/5/3 134/265/3
f 133/5/3 325/5/3 326/266/3
f 325/5/4 323/5/4 326/267/4
f 323/5/4 325/5/4 324/268/4
f 323/5/5 133/5/5 326/269/5
f 133/5/5 323/5/5 321/270/5
f 322/2/6 325/3/6 134/11/6
f 325/3/6 322/2/6 324/1/6

usemtl color16

f 236/3/1 117/2/1 235/1/1
f 117/3/1 236/2/1 118/1/1
f 327/3/2 236/2/2 235/1/2
f 236/3/2 327/2/2 328/1/2
f 329/5/3 117/193/3 118/5/3
f 117/193/3 329/5/3 330/271/3
f 329/5/4 327/5/4 330/272/4
f 327/5/4 329/5/4 328/273/4
f 327/5/5 117/5/5 330/274/5
f 117/5/5 327/5/5 235/5/5
f 236/2/6 329/3/6 118/11/6
f 329/3/6 236/2/6 328/1/6

usemtl color6

f 333/3/1 332/2/1 331/1/1
f 332/3/1 333/2/1 334/1/1
f 17/3/2 333/2/2 331/1/2
f 333/3/2 17/2/2 19/1/2
f 178/142/3 332/5/3 334/275/3
f 332/5/3 178/142/3 177/5/3
f 178/5/4 17/5/4 177/276/4
f 17/5/4 178/5/4 19/277/4
f 17/23/5 332/5/5 177/5/5
f 332/5/5 17/23/5 331/278/5
f 333/2/6 178/3/6 334/11/6
f 178/3/6 333/2/6 19/1/6
f 174/3/1 176/2/1 173/1/1
f 176/3/1 174/2/1 175/1/1
f 335/3/2 174/2/2 173/1/2
f 174/3/2 335/2/2 336/1/2
f 337/5/3 176/137/3 175/5/3
f 176/137/3 337/5/3 338/279/3
f 337/5/4 335/5/4 338/280/4
f 335/5/4 337/5/4 336/281/4
f 335/5/5 176/140/5 338/282/5
f 176/140/5 335/5/5 173/5/5
f 174/2/6 337/3/6 175/11/6
f 337/3/6 174/2/6 336/1/6
f 111/3/1 339/2/1 112/1/1
f 339/3/1 111/2/1 340/1/1
f 170/3/2 111/2/2 112/1/2
f 111/3/2 170/2/2 172/1/2
f 341/5/3 339/5/3 340/283/3
f 339/5/3 341/5/3 342/284/3
f 341/5/4 170/5/4 342/285/4
f 170/5/4 341/5/4 172/286/4
f 170/5/5 339/5/5 342/287/5
f 339/5/5 170/5/5 112/88/5
f 111/2/6 341/3/6 340/11/6
f 341/3/6 111/2/6 172/1/6

usemtl color3

f 345/3/1 344/2/1 343/1/1
f 344/3/1 345/2/1 346/1/1
f 347/3/2 345/2/2 343/1/2
f 345/3/2 347/2/2 348/1/2
f 349/5/3 344/5/3 346/288/3
f 344/5/3 349/5/3 350/289/3
f 349/5/4 347/5/4 350/290/4
f 347/5/4 349/5/4 348/291/4
f 347/5/5 344/5/5 350/292/5
f 344/5/5 347/5/5 343/293/5
f 345/2/6 349/3/6 346/11/6
f 349/3/6 345/2/6 348/1/6
f 353/3/1 352/2/1 351/1/1
f 352/3/1 353/2/1 354/1/1
f 355/3/2 353/2/2 351/1/2
f 353/3/2 355/2/2 356/1/2
f 357/5/3 352/5/3 354/294/3
f 352/5/3 357/5/3 358/295/3
f 357/5/4 355/5/4 358/296/4
f 355/5/4 357/5/4 356/297/4
f 355/5/5 352/5/5 358/298/5
f 352/5/5 355/5/5 351/299/5
f 353/2/6 357/3/6 354/11/6
f 357/3/6 353/2/6 356/1/6
f 361/3/1 360/2/1 359/1/1
f 360/3/1 361/2/1 362/1/1
f 363/3/2 361/2/2 359/1/2
f 361/3/2 363/2/2 364/1/2
f 365/5/3 360/5/3 362/300/3
f 360/5/3 365/5/3 366/301/3
f 365/5/4 363/5/4 366/302/4
f 363/5/4 365/5/4 364/303/4
f 363/5/5 360/5/5 366/304/5
f 360/5/5 363/5/5 359/305/5
f 361/2/6 365/3/6 362/11/6
f 365/3/6 361/2/6 364/1/6
f 369/3/1 368/2/1 367/1/1
f 368/3/1 369/2/1 370/1/1
f 371/3/2 369/2/2 367/1/2
f 369/3/2 371/2/2 372/1/2
f 373/5/3 368/5/3 370/306/3
f 368/5/3 373/5/3 374/307/3
f 373/5/4 371/5/4 374/308/4
f 371/5/4 373/5/4 372/309/4
f 371/5/5 368/5/5 374/310/5
f 368/5/5 371/5/5 367/311/5
f 369/2/6 373/3/6 370/11/6
f 373/3/6 369/2/6 372/1/6
f 365/3/1 375/2/1 366/1/1
f 375/3/1 365/2/1 376/1/1
f 368/3/2 365/2/2 366/1/2
f 365/3/2 368/2/2 370/1/2
f 377/5/3 375/5/3 376/312/3
f 375/5/3 377/5/3 378/313/3
f 377/5/4 368/5/4 378/314/4
f 368/5/4 377/5/4 370/315/4
f 368/5/5 375/5/5 378/316/5
f 375/5/5 368/5/5 366/304/5
f 365/2/6 377/3/6 376/11/6
f 377/3/6 365/2/6 370/1/6

usemtl color5

f 348/3/1 350/2/1 347/1/1
f 350/3/1 348/2/1 349/1/1
f 351/3/2 348/2/2 347/1/2
f 348/3/2 351/2/2 353/1/2
f 354/294/3 350/289/3 349/5/3
f 350/289/3 354/294/3 352/5/3
f 354/5/4 351/5/4 352/317/4
f 351/5/4 354/5/4 353/318/4
f 351/299/5 350/292/5 352/5/5
f 350/292/5 351/299/5 347/5/5
f 348/2/6 354/3/6 349/11/6
f 354/3/6 348/2/6 353/1/6
f 356/3/1 358/2/1 355/1/1
f 358/3/1 356/2/1 357/1/1
f 359/3/2 356/2/2 355/1/2
f 356/3/2 359/2/2 361/1/2
f 362/300/3 358/295/3 357/5/3
f 358/295/3 362/300/3 360/5/3
f 362/5/4 359/5/4 360/319/4
f 359/5/4 362/5/4 361/320/4
f 359/305/5 358/298/5 360/5/5
f 358/298/5 359/305/5 355/5/5
f 356/2/6 362/3/6 357/11/6
f 362/3/6 356/2/6 361/1/6
f 246/3/1 379/2/1 245/1/1
f 379/3/1 246/2/1 380/1/1
f 248/3/2 246/2/2 245/1/2
f 246/3/2 248/2/2 247/1/2
f 381/5/3 379/5/3 380/321/3
f 379/5/3 381/5/3 382/322/3
f 381/5/4 248/205/4 382/323/4
f 248/205/4 381/5/4 247/5/4
f 248/206/5 379/5/5 382/324/5
f 379/5/5 248/206/5 245/5/5
f 246/2/6 381/3/6 380/11/6
f 381/3/6 246/2/6 247/1/6

usemtl color8

f 156/3/1 383/2/1 154/1/1
f 383/3/1 156/2/1 384/1/1
f 160/3/2 156/2/2 154/1/2
f 156/3/2 160/2/2 159/1/2
f 385/5/3 383/5/3 384/325/3
f 383/5/3 385/5/3 386/326/3
f 385/5/4 160/126/4 386/327/4
f 160/126/4 385/5/4 159/5/4
f 160/128/5 383/5/5 386/328/5
f 383/5/5 160/128/5 154/5/5
f 156/2/6 385/3/6 384/11/6
f 385/3/6 156/2/6 159/1/6
f 389/3/1 388/2/1 387/1/1
f 388/3/1 389/2/1 390/1/1
f 314/3/2 389/2/2 387/1/2
f 389/3/2 314/2/2 316/1/2
f 391/5/3 388/5/3 390/329/3
f 388/5/3 391/5/3 392/330/3
f 391/5/4 314/5/4 392/331/4
f 314/5/4 391/5/4 316/332/4
f 314/5/5 388/5/5 392/333/5
f 388/5/5 314/5/5 387/334/5
f 389/2/6 391/3/6 390/11/6
f 391/3/6 389/2/6 316/1/6

usemtl color9

f 36/3/1 393/2/1 34/1/1
f 393/3/1 36/2/1 394/1/1
f 40/3/2 36/2/2 34/1/2
f 36/3/2 40/2/2 39/1/2
f 395/5/3 393/5/3 394/335/3
f 393/5/3 395/5/3 396/336/3
f 395/5/4 40/32/4 396/337/4
f 40/32/4 395/5/4 39/5/4
f 40/34/5 393/5/5 396/338/5
f 393/5/5 40/34/5 34/5/5
f 36/2/6 395/3/6 394/11/6
f 395/3/6 36/2/6 39/1/6
f 60/3/1 397/2/1 58/1/1
f 397/3/1 60/2/1 398/1/1
f 399/3/2 60/2/2 58/1/2
f 60/3/2 399/2/2 400/1/2
f 401/5/3 397/5/3 398/339/3
f 397/5/3 401/5/3 402/340/3
f 401/5/4 399/5/4 402/341/4
f 399/5/4 401/5/4 400/342/4
f 399/5/5 397/5/5 402/343/5
f 397/5/5 399/5/5 58/5/5
f 60/2/6 401/3/6 398/11/6
f 401/3/6 60/2/6 400/1/6

usemtl color11

f 44/3/1 403/2/1 42/1/1
f 403/3/1 44/2/1 404/1/1
f 48/3/2 44/2/2 42/1/2
f 44/3/2 48/2/2 47/1/2
f 405/5/3 403/5/3 404/344/3
f 403/5/3 405/5/3 406/345/3
f 405/5/4 48/38/4 406/346/4
f 48/38/4 405/5/4 47/5/4
f 48/40/5 403/5/5 406/347/5
f 403/5/5 48/40/5 42/5/5
f 44/2/6 405/3/6 404/11/6
f 405/3/6 44/2/6 47/1/6
f 55/3/1 407/2/1 56/1/1
f 407/3/1 55/2/1 408/1/1
f 58/3/2 55/2/2 56/1/2
f 55/3/2 58/2/2 60/1/2
f 398/339/3 407/5/3 408/348/3
f 407/5/3 398/339/3 397/5/3
f 398/5/4 58/5/4 397/349/4
f 58/5/4 398/5/4 60/350/4
f 58/5/5 407/5/5 397/5/5
f 407/5/5 58/5/5 56/46/5
f 55/2/6 398/3/6 408/11/6
f 398/3/6 55/2/6 60/1/6
f 400/3/1 402/2/1 399/1/1
f 402/3/1 400/2/1 401/1/1
f 64/3/2 400/2/2 399/1/2
f 400/3/2 64/2/2 63/1/2
f 409/5/3 402/340/3 401/5/3
f 402/340/3 409/5/3 410/351/3
f 409/5/4 64/50/4 410/352/4
f 64/50/4 409/5/4 63/5/4
f 64/52/5 402/343/5 410/353/5
f 402/343/5 64/52/5 399/5/5
f 400/2/6 409/3/6 401/11/6
f 409/3/6 400/2/6 63/1/6
f 413/3/1 412/2/1 411/1/1
f 412/3/1 413/2/1 414/1/1
f 415/3/2 413/2/2 411/1/2
f 413/3/2 415/2/2 416/1/2
f 417/5/3 412/5/3 414/354/3
f 412/5/3 417/5/3 418/355/3
f 417/5/4 415/5/4 418/356/4
f 415/5/4 417/5/4 416/357/4
f 415/5/5 412/5/5 418/358/5
f 412/5/5 415/5/5 411/359/5
f 413/2/6 417/3/6 414/11/6
f 417/3/6 413/2/6 416/1/6

usemtl color12

f 47/3/1 406/2/1 48/1/1
f 406/3/1 47/2/1 405/1/1
f 56/3/2 47/2/2 48/1/2
f 47/3/2 56/2/2 55/1/2
f 408/348/3 406/345/3 405/5/3
f 406/345/3 408/348/3 407/5/3
f 408/5/4 56/44/4 407/360/4
f 56/44/4 408/5/4 55/5/4
f 56/46/5 406/347/5 407/5/5
f 406/347/5 56/46/5 48/40/5
f 47/2/6 408/3/6 405/11/6
f 408/3/6 47/2/6 55/1/6
f 63/3/1 410/2/1 64/1/1
f 410/3/1 63/2/1 409/1/1
f 419/3/2 63/2/2 64/1/2
f 63/3/2 419/2/2 420/1/2
f 421/5/3 410/351/3 409/5/3
f 410/351/3 421/5/3 422/361/3
f 421/5/4 419/5/4 422/362/4
f 419/5/4 421/5/4 420/363/4
f 419/5/5 410/353/5 422/364/5
f 410/353/5 419/5/5 64/52/5
f 63/2/6 421/3/6 409/11/6
f 421/3/6 63/2/6 420/1/6
f 100/3/1 423/2/1 98/1/1
f 423/3/1 100/2/1 424/1/1
f 411/3/2 100/2/2 98/1/2
f 100/3/2 411/2/2 413/1/2
f 414/354/3 423/5/3 424/365/3
f 423/5/3 414/354/3 412/5/3
f 414/5/4 411/5/4 412/366/4
f 411/5/4 414/5/4 413/367/4
f 411/359/5 423/5/5 412/5/5
f 423/5/5 411/359/5 98/5/5
f 100/2/6 414/3/6 424/11/6
f 414/3/6 100/2/6 413/1/6

usemtl color13

f 420/3/1 422/2/1 419/1/1
f 422/3/1 420/2/1 421/1/1
f 98/3/2 420/2/2 419/1/2
f 420/3/2 98/2/2 100/1/2
f 424/365/3 422/361/3 421/5/3
f 422/361/3 424/365/3 423/5/3
f 424/5/4 98/5/4 423/368/4
f 98/5/4 424/5/4 100/369/4
f 98/5/5 422/364/5 423/5/5
f 422/364/5 98/5/5 419/5/5
f 420/2/6 424/3/6 421/11/6
f 424/3/6 420/2/6 100/1/6

