# Created by Kenney (www.kenney.nl)

mtllib Grenade OFC Biasdo.mtl

v 2 8 -0.45
v 2 7 -0.45
v 2 8 0.45
v 2 7 0.45
v 1 8 -0.45
v 1 8 0.45
v 1 7 0.45
v 1 7 -0.45
v 3 7 -0.45
v 3 6 -0.45
v 3 7 0.45
v 3 6 0.45
v 2 6 0.45
v 2 6 -0.45
v 1 8 -0.9
v 1 7 -0.9
v 1 8 0.9
v 1 7 0.9
v 0 8 -0.9
v 0 8 0.9
v 0 7 0.9
v 0 7 -0.9
v 0 8 -0.45
v 0 7 -0.45
v 0 8 0.45
v 0 7 0.45
v -1 8 -0.45
v -1 8 0.45
v -1 7 0.45
v -1 7 -0.45
v 2 7 -1.35
v 2 6 -1.35
v 2 7 1.35
v 2 6 1.35
v 1 7 -1.35
v 1 7 1.35
v 1 6 1.35
v 1 6 -1.35
v -1 1 -1.35
v -1 0 -1.35
v -1 1 1.35
v -1 0 1.35
v -2 1 -1.35
v -2 1 1.35
v -2 0 1.35
v -2 0 -1.35
v 1 7 -1.8
v 1 6 -1.8
v 1 7 1.8
v 1 6 1.8
v 0 7 -1.8
v 0 7 1.8
v 0 6 1.8
v 0 6 -1.8
v -1 7 -1.35
v -1 6 -1.35
v -1 7 1.35
v -1 6 1.35
v -2 7 -1.35
v -2 7 1.35
v -2 6 1.35
v -2 6 -1.35
v 0 4 -1.8
v 0 3 -1.8
v 0 4 1.8
v 0 3 1.8
v -1 4 -1.8
v -1 4 1.8
v -1 3 1.8
v -1 3 -1.8
v 0 2 -1.8
v 0 1 -1.8
v 0 2 1.8
v 0 1 1.8
v -1 2 -1.8
v -1 2 1.8
v -1 1 1.8
v -1 1 -1.8
v -1 7 -1.8
v -1 7 1.8
v -1 6 1.8
v -1 6 -1.8
v 1 -6 -0.9
v 1 -7 -0.9
v 1 -6 0.9
v 1 -7 0.9
v 0 -6 -0.9
v 0 -6 0.9
v 0 -7 0.9
v 0 -7 -0.9
v 3 5 -0.45
v 3 5 0.45
v 2 5 0.45
v 2 5 -0.45
v 0 0 -0.9
v 0 -1 -0.9
v 0 0 0.9
v 0 -1 0.9
v -1 0 -0.9
v -1 0 0.9
v -1 -1 0.9
v -1 -1 -0.9
v 1 -1 -0.9
v 1 -1 0.9
v 1 -7 -0.45
v 1 -8 -0.45
v 1 -7 0.45
v 1 -8 0.45
v 0 -7 -0.45
v 0 -7 0.45
v 0 -8 0.45
v 0 -8 -0.45
v 2 4 -1.35
v 2 4 1.35
v 1 4 1.35
v 1 4 -1.35
v 2 3 -1.35
v 2 2 -1.35
v 2 3 1.35
v 2 2 1.35
v 1 3 -1.35
v 1 3 1.35
v 1 2 1.35
v 1 2 -1.35
v 1 4 -1.8
v 1 4 1.8
v -1 4 -1.35
v -1 4 1.35
v -2 4 1.35
v -2 4 -1.35
v 1 3 -1.8
v 1 2 -1.8
v 1 3 1.8
v 1 2 1.8
v -1 3 -1.35
v -1 2 -1.35
v -1 3 1.35
v -1 2 1.35
v -2 3 -1.35
v -2 3 1.35
v -2 2 1.35
v -2 2 -1.35
v 3 2 -0.45
v 3 2 0.45
v 2 2 0.45
v 2 2 -0.45
v 2 1 -1.35
v 2 1 1.35
v 1 1 1.35
v 1 1 -1.35
v 1 1 -1.8
v 1 1 1.8
v 2 0 -1.35
v 2 0 1.35
v 1 0 1.35
v 1 0 -1.35
v 1 0 -1.8
v 1 0 1.8
v -1 0 1.8
v -1 0 -1.8
v 1 0 -0.9
v 1 0 0.9
v -1 -6 0.9
v -1 -6 -0.9
v -1 -7 -0.45
v -1 -7 0.45
v -1 -8 0.45
v -1 -8 -0.45
v -1 -7 0.9
v -1 -7 -0.9

vn 1 0 0
vn 0 1 0
vn 0 -1 0
vn -1 0 0
vn 0 0 -1
vn 0 0 1

vt -19.68504 19.68504
vt 19.68504 19.68504
vt -19.68504 -19.68504
vt 0 NaN
vt 0 0
vt 0 NaN
vt 0 NaN
vt 0 NaN
vt 0 NaN
vt 0 NaN
vt 19.68504 -19.68504
vt 0 NaN
vt 0 NaN
vt 0 NaN
vt 0 NaN
vt 0 NaN
vt 0 NaN
vt 0 NaN
vt 0 NaN
vt 0 NaN
vt 0 NaN
vt 0 NaN
vt 0 NaN
vt 0 NaN
vt 0 NaN
vt 0 NaN
vt 0 NaN
vt 0 NaN
vt 0 NaN
vt 0 NaN
vt 0 NaN
vt 0 NaN
vt 0 NaN
vt 0 NaN
vt 0 NaN
vt 0 NaN
vt 0 NaN
vt 0 NaN
vt 0 NaN
vt 0 NaN
vt 0 NaN
vt 0 NaN
vt 0 NaN
vt 0 NaN
vt 0 NaN
vt 0 NaN
vt 0 NaN
vt 0 NaN
vt 0 NaN
vt 0 NaN
vt 0 NaN
vt 0 NaN
vt 0 NaN
vt 0 NaN
vt 0 NaN
vt 0 NaN
vt 0 NaN
vt 0 NaN
vt 0 NaN
vt 0 NaN
vt 0 NaN
vt 0 NaN
vt 0 NaN
vt 0 NaN
vt 0 NaN
vt 0 NaN
vt 0 NaN
vt 0 NaN
vt 0 NaN
vt 0 NaN
vt 0 NaN
vt 0 NaN
vt 0 NaN
vt 0 NaN
vt 0 NaN
vt 0 NaN
vt 0 NaN
vt 0 NaN
vt 0 NaN
vt 0 NaN
vt 0 NaN
vt 0 NaN
vt 0 NaN
vt 0 NaN
vt 0 NaN
vt 0 NaN
vt 0 NaN
vt 0 NaN
vt 0 NaN
vt 0 NaN
vt 0 NaN
vt 0 NaN
vt 0 NaN
vt 0 NaN
vt 0 NaN
vt 0 NaN
vt 0 NaN
vt 0 NaN
vt 0 NaN
vt 0 NaN
vt 0 NaN
vt 0 NaN
vt 0 NaN
vt 0 NaN
vt 0 NaN
vt 0 NaN
vt 0 NaN
vt 0 NaN
vt 0 NaN
vt 0 NaN
vt 0 NaN
vt 0 NaN
vt 0 NaN
vt 0 NaN
vt 0 NaN
vt 0 NaN
vt 0 NaN
vt 0 NaN
vt 0 NaN
vt 0 NaN
vt 0 NaN
vt 0 NaN
vt 0 NaN
vt 0 NaN
vt 0 NaN
vt 0 NaN
vt 0 NaN
vt 0 NaN
vt 0 NaN
vt 0 NaN
vt 0 NaN
vt 0 NaN
vt 0 NaN
vt 0 NaN
vt 0 NaN
vt 0 NaN
vt 0 NaN
vt 0 NaN
vt 0 NaN
vt 0 NaN
vt 0 NaN
vt 0 NaN
vt 0 NaN
vt 0 NaN
vt 0 NaN
vt 0 NaN
vt 0 NaN
vt 0 NaN
vt 0 NaN
vt 0 NaN
vt 0 NaN
vt 0 NaN
vt 0 NaN
vt 0 NaN
vt 0 NaN
vt 0 NaN
vt 0 NaN
vt 0 NaN
vt 0 NaN
vt 0 NaN
vt 0 NaN
vt 0 NaN
vt 0 NaN

usemtl color17

f 3/3/1 2/2/1 1/1/1
f 2/3/1 3/2/1 4/1/1
f 5/3/2 3/2/2 1/1/2
f 3/3/2 5/2/2 6/1/2
f 7/5/3 2/5/3 4/4/3
f 2/5/3 7/5/3 8/6/3
f 7/5/4 5/5/4 8/7/4
f 5/5/4 7/5/4 6/8/4
f 5/5/5 2/5/5 8/9/5
f 2/5/5 5/5/5 1/10/5
f 3/2/6 7/3/6 4/11/6
f 7/3/6 3/2/6 6/1/6
f 11/3/1 10/2/1 9/1/1
f 10/3/1 11/2/1 12/1/1
f 2/3/2 11/2/2 9/1/2
f 11/3/2 2/2/2 4/1/2
f 13/5/3 10/5/3 12/12/3
f 10/5/3 13/5/3 14/13/3
f 13/5/4 2/5/4 14/14/4
f 2/5/4 13/5/4 4/15/4
f 2/5/5 10/5/5 14/16/5
f 10/5/5 2/5/5 9/17/5
f 11/2/6 13/3/6 12/11/6
f 13/3/6 11/2/6 4/1/6

usemtl color18

f 17/3/1 16/2/1 15/1/1
f 16/3/1 17/2/1 18/1/1
f 19/3/2 17/2/2 15/1/2
f 17/3/2 19/2/2 20/1/2
f 21/5/3 16/5/3 18/18/3
f 16/5/3 21/5/3 22/19/3
f 21/5/4 19/5/4 22/20/4
f 19/5/4 21/5/4 20/21/4
f 19/5/5 16/5/5 22/22/5
f 16/5/5 19/5/5 15/23/5
f 17/2/6 21/3/6 18/11/6
f 21/3/6 17/2/6 20/1/6

usemtl color19

f 25/3/1 24/2/1 23/1/1
f 24/3/1 25/2/1 26/1/1
f 27/3/2 25/2/2 23/1/2
f 25/3/2 27/2/2 28/1/2
f 29/5/3 24/5/3 26/24/3
f 24/5/3 29/5/3 30/25/3
f 29/5/4 27/5/4 30/26/4
f 27/5/4 29/5/4 28/27/4
f 27/5/5 24/5/5 30/28/5
f 24/5/5 27/5/5 23/29/5
f 25/2/6 29/3/6 26/11/6
f 29/3/6 25/2/6 28/1/6

usemtl color9

f 33/3/1 32/2/1 31/1/1
f 32/3/1 33/2/1 34/1/1
f 35/3/2 33/2/2 31/1/2
f 33/3/2 35/2/2 36/1/2
f 37/5/3 32/5/3 34/30/3
f 32/5/3 37/5/3 38/31/3
f 37/5/4 35/5/4 38/32/4
f 35/5/4 37/5/4 36/33/4
f 35/5/5 32/5/5 38/34/5
f 32/5/5 35/5/5 31/35/5
f 33/2/6 37/3/6 34/11/6
f 37/3/6 33/2/6 36/1/6
f 41/3/1 40/2/1 39/1/1
f 40/3/1 41/2/1 42/1/1
f 43/3/2 41/2/2 39/1/2
f 41/3/2 43/2/2 44/1/2
f 45/5/3 40/5/3 42/36/3
f 40/5/3 45/5/3 46/37/3
f 45/5/4 43/5/4 46/38/4
f 43/5/4 45/5/4 44/39/4
f 43/5/5 40/5/5 46/40/5
f 40/5/5 43/5/5 39/41/5
f 41/2/6 45/3/6 42/11/6
f 45/3/6 41/2/6 44/1/6

usemtl color12

f 49/3/1 48/2/1 47/1/1
f 48/3/1 49/2/1 50/1/1
f 51/3/2 49/2/2 47/1/2
f 49/3/2 51/2/2 52/1/2
f 53/5/3 48/5/3 50/42/3
f 48/5/3 53/5/3 54/43/3
f 53/5/4 51/5/4 54/44/4
f 51/5/4 53/5/4 52/45/4
f 51/5/5 48/5/5 54/46/5
f 48/5/5 51/5/5 47/47/5
f 49/2/6 53/3/6 50/11/6
f 53/3/6 49/2/6 52/1/6
f 57/3/1 56/2/1 55/1/1
f 56/3/1 57/2/1 58/1/1
f 59/3/2 57/2/2 55/1/2
f 57/3/2 59/2/2 60/1/2
f 61/5/3 56/5/3 58/48/3
f 56/5/3 61/5/3 62/49/3
f 61/5/4 59/5/4 62/50/4
f 59/5/4 61/5/4 60/51/4
f 59/5/5 56/5/5 62/52/5
f 56/5/5 59/5/5 55/53/5
f 57/2/6 61/3/6 58/11/6
f 61/3/6 57/2/6 60/1/6
f 65/3/1 64/2/1 63/1/1
f 64/3/1 65/2/1 66/1/1
f 67/3/2 65/2/2 63/1/2
f 65/3/2 67/2/2 68/1/2
f 69/5/3 64/5/3 66/54/3
f 64/5/3 69/5/3 70/55/3
f 69/5/4 67/5/4 70/56/4
f 67/5/4 69/5/4 68/57/4
f 67/5/5 64/5/5 70/58/5
f 64/5/5 67/5/5 63/59/5
f 65/2/6 69/3/6 66/11/6
f 69/3/6 65/2/6 68/1/6
f 73/3/1 72/2/1 71/1/1
f 72/3/1 73/2/1 74/1/1
f 75/3/2 73/2/2 71/1/2
f 73/3/2 75/2/2 76/1/2
f 77/5/3 72/5/3 74/60/3
f 72/5/3 77/5/3 78/61/3
f 77/5/4 75/5/4 78/62/4
f 75/5/4 77/5/4 76/63/4
f 75/5/5 72/5/5 78/64/5
f 72/5/5 75/5/5 71/65/5
f 73/2/6 77/3/6 74/11/6
f 77/3/6 73/2/6 76/1/6

usemtl color4

f 52/3/1 54/2/1 51/1/1
f 54/3/1 52/2/1 53/1/1
f 79/3/2 52/2/2 51/1/2
f 52/3/2 79/2/2 80/1/2
f 81/5/3 54/43/3 53/5/3
f 54/43/3 81/5/3 82/66/3
f 81/5/4 79/5/4 82/67/4
f 79/5/4 81/5/4 80/68/4
f 79/5/5 54/46/5 82/69/5
f 54/46/5 79/5/5 51/5/5
f 52/2/6 81/3/6 53/11/6
f 81/3/6 52/2/6 80/1/6
f 85/3/1 84/2/1 83/1/1
f 84/3/1 85/2/1 86/1/1
f 87/3/2 85/2/2 83/1/2
f 85/3/2 87/2/2 88/1/2
f 89/5/3 84/5/3 86/70/3
f 84/5/3 89/5/3 90/71/3
f 89/5/4 87/5/4 90/72/4
f 87/5/4 89/5/4 88/73/4
f 87/5/5 84/5/5 90/74/5
f 84/5/5 87/5/5 83/75/5
f 85/2/6 89/3/6 86/11/6
f 89/3/6 85/2/6 88/1/6

usemtl color2

f 12/3/1 91/2/1 10/1/1
f 91/3/1 12/2/1 92/1/1
f 14/3/2 12/2/2 10/1/2
f 12/3/2 14/2/2 13/1/2
f 93/5/3 91/5/3 92/76/3
f 91/5/3 93/5/3 94/77/3
f 93/5/4 14/14/4 94/78/4
f 14/14/4 93/5/4 13/5/4
f 14/16/5 91/5/5 94/79/5
f 91/5/5 14/16/5 10/5/5
f 12/2/6 93/3/6 92/11/6
f 93/3/6 12/2/6 13/1/6
f 97/3/1 96/2/1 95/1/1
f 96/3/1 97/2/1 98/1/1
f 99/3/2 97/2/2 95/1/2
f 97/3/2 99/2/2 100/1/2
f 101/5/3 96/5/3 98/80/3
f 96/5/3 101/5/3 102/81/3
f 101/5/4 99/5/4 102/82/4
f 99/5/4 101/5/4 100/83/4
f 99/5/5 96/5/5 102/84/5
f 96/5/5 99/5/5 95/85/5
f 97/2/6 101/3/6 98/11/6
f 101/3/6 97/2/6 100/1/6
f 104/3/1 83/2/1 103/1/1
f 83/3/1 104/2/1 85/1/1
f 96/3/2 104/2/2 103/1/2
f 104/3/2 96/2/2 98/1/2
f 88/5/3 83/5/3 85/86/3
f 83/5/3 88/5/3 87/87/3
f 88/73/4 96/5/4 87/5/4
f 96/5/4 88/73/4 98/88/4
f 96/5/5 83/75/5 87/5/5
f 83/75/5 96/5/5 103/89/5
f 104/2/6 88/3/6 85/11/6
f 88/3/6 104/2/6 98/1/6
f 107/3/1 106/2/1 105/1/1
f 106/3/1 107/2/1 108/1/1
f 109/3/2 107/2/2 105/1/2
f 107/3/2 109/2/2 110/1/2
f 111/5/3 106/5/3 108/90/3
f 106/5/3 111/5/3 112/91/3
f 111/5/4 109/5/4 112/92/4
f 109/5/4 111/5/4 110/93/4
f 109/5/5 106/5/5 112/94/5
f 106/5/5 109/5/5 105/95/5
f 107/2/6 111/3/6 108/11/6
f 111/3/6 107/2/6 110/1/6

usemtl color13

f 34/3/1 113/2/1 32/1/1
f 113/3/1 34/2/1 114/1/1
f 38/3/2 34/2/2 32/1/2
f 34/3/2 38/2/2 37/1/2
f 115/5/3 113/5/3 114/96/3
f 113/5/3 115/5/3 116/97/3
f 115/5/4 38/32/4 116/98/4
f 38/32/4 115/5/4 37/5/4
f 38/34/5 113/5/5 116/99/5
f 113/5/5 38/34/5 32/5/5
f 34/2/6 115/3/6 114/11/6
f 115/3/6 34/2/6 37/1/6
f 119/3/1 118/2/1 117/1/1
f 118/3/1 119/2/1 120/1/1
f 121/3/2 119/2/2 117/1/2
f 119/3/2 121/2/2 122/1/2
f 123/5/3 118/5/3 120/100/3
f 118/5/3 123/5/3 124/101/3
f 123/5/4 121/5/4 124/102/4
f 121/5/4 123/5/4 122/103/4
f 121/5/5 118/5/5 124/104/5
f 118/5/5 121/5/5 117/105/5
f 119/2/6 123/3/6 120/11/6
f 123/3/6 119/2/6 122/1/6

usemtl color14

f 50/3/1 125/2/1 48/1/1
f 125/3/1 50/2/1 126/1/1
f 54/3/2 50/2/2 48/1/2
f 50/3/2 54/2/2 53/1/2
f 65/5/3 125/5/3 126/106/3
f 125/5/3 65/5/3 63/107/3
f 65/5/4 54/44/4 63/108/4
f 54/44/4 65/5/4 53/5/4
f 54/46/5 125/5/5 63/59/5
f 125/5/5 54/46/5 48/5/5
f 50/2/6 65/3/6 126/11/6
f 65/3/6 50/2/6 53/1/6
f 58/3/1 127/2/1 56/1/1
f 127/3/1 58/2/1 128/1/1
f 62/3/2 58/2/2 56/1/2
f 58/3/2 62/2/2 61/1/2
f 129/5/3 127/5/3 128/109/3
f 127/5/3 129/5/3 130/110/3
f 129/5/4 62/50/4 130/111/4
f 62/50/4 129/5/4 61/5/4
f 62/52/5 127/5/5 130/112/5
f 127/5/5 62/52/5 56/5/5
f 58/2/6 129/3/6 128/11/6
f 129/3/6 58/2/6 61/1/6
f 133/3/1 132/2/1 131/1/1
f 132/3/1 133/2/1 134/1/1
f 64/3/2 133/2/2 131/1/2
f 133/3/2 64/2/2 66/1/2
f 73/5/3 132/5/3 134/113/3
f 132/5/3 73/5/3 71/114/3
f 73/5/4 64/5/4 71/115/4
f 64/5/4 73/5/4 66/116/4
f 64/5/5 132/5/5 71/65/5
f 132/5/5 64/5/5 131/117/5
f 133/2/6 73/3/6 134/11/6
f 73/3/6 133/2/6 66/1/6
f 137/3/1 136/2/1 135/1/1
f 136/3/1 137/2/1 138/1/1
f 139/3/2 137/2/2 135/1/2
f 137/3/2 139/2/2 140/1/2
f 141/5/3 136/5/3 138/118/3
f 136/5/3 141/5/3 142/119/3
f 141/5/4 139/5/4 142/120/4
f 139/5/4 141/5/4 140/121/4
f 139/5/5 136/5/5 142/122/5
f 136/5/5 139/5/5 135/123/5
f 137/2/6 141/3/6 138/11/6
f 141/3/6 137/2/6 140/1/6

usemtl color15

f 53/3/1 63/2/1 54/1/1
f 63/3/1 53/2/1 65/1/1
f 82/3/2 53/2/2 54/1/2
f 53/3/2 82/2/2 81/1/2
f 68/5/3 63/107/3 65/5/3
f 63/107/3 68/5/3 67/124/3
f 68/57/4 82/67/4 67/5/4
f 82/67/4 68/57/4 81/5/4
f 82/69/5 63/59/5 67/5/5
f 63/59/5 82/69/5 54/46/5
f 53/2/6 68/3/6 65/11/6
f 68/3/6 53/2/6 81/1/6
f 66/3/1 71/2/1 64/1/1
f 71/3/1 66/2/1 73/1/1
f 70/3/2 66/2/2 64/1/2
f 66/3/2 70/2/2 69/1/2
f 76/5/3 71/114/3 73/5/3
f 71/114/3 76/5/3 75/125/3
f 76/63/4 70/56/4 75/5/4
f 70/56/4 76/63/4 69/5/4
f 70/58/5 71/65/5 75/5/5
f 71/65/5 70/58/5 64/5/5
f 66/2/6 76/3/6 73/11/6
f 76/3/6 66/2/6 69/1/6

usemtl color16

f 92/3/1 143/2/1 91/1/1
f 143/3/1 92/2/1 144/1/1
f 94/3/2 92/2/2 91/1/2
f 92/3/2 94/2/2 93/1/2
f 145/5/3 143/5/3 144/126/3
f 143/5/3 145/5/3 146/127/3
f 145/5/4 94/78/4 146/128/4
f 94/78/4 145/5/4 93/5/4
f 94/79/5 143/5/5 146/129/5
f 143/5/5 94/79/5 91/5/5
f 92/2/6 145/3/6 144/11/6
f 145/3/6 92/2/6 93/1/6

usemtl color10

f 114/3/1 117/2/1 113/1/1
f 117/3/1 114/2/1 119/1/1
f 116/3/2 114/2/2 113/1/2
f 114/3/2 116/2/2 115/1/2
f 122/5/3 117/5/3 119/130/3
f 117/5/3 122/5/3 121/131/3
f 122/103/4 116/98/4 121/5/4
f 116/98/4 122/103/4 115/5/4
f 116/99/5 117/105/5 121/5/5
f 117/105/5 116/99/5 113/5/5
f 114/2/6 122/3/6 119/11/6
f 122/3/6 114/2/6 115/1/6
f 120/3/1 147/2/1 118/1/1
f 147/3/1 120/2/1 148/1/1
f 124/3/2 120/2/2 118/1/2
f 120/3/2 124/2/2 123/1/2
f 149/5/3 147/5/3 148/132/3
f 147/5/3 149/5/3 150/133/3
f 149/5/4 124/102/4 150/134/4
f 124/102/4 149/5/4 123/5/4
f 124/104/5 147/5/5 150/135/5
f 147/5/5 124/104/5 118/5/5
f 120/2/6 149/3/6 148/11/6
f 149/3/6 120/2/6 123/1/6

usemtl color11

f 126/3/1 131/2/1 125/1/1
f 131/3/1 126/2/1 133/1/1
f 63/3/2 126/2/2 125/1/2
f 126/3/2 63/2/2 65/1/2
f 66/54/3 131/5/3 133/136/3
f 131/5/3 66/54/3 64/5/3
f 66/116/4 63/108/4 64/5/4
f 63/108/4 66/116/4 65/5/4
f 63/59/5 131/117/5 64/5/5
f 131/117/5 63/59/5 125/5/5
f 126/2/6 66/3/6 133/11/6
f 66/3/6 126/2/6 65/1/6
f 128/3/1 135/2/1 127/1/1
f 135/3/1 128/2/1 137/1/1
f 130/3/2 128/2/2 127/1/2
f 128/3/2 130/2/2 129/1/2
f 140/5/3 135/5/3 137/137/3
f 135/5/3 140/5/3 139/138/3
f 140/121/4 130/111/4 139/5/4
f 130/111/4 140/121/4 129/5/4
f 130/112/5 135/123/5 139/5/5
f 135/123/5 130/112/5 127/5/5
f 128/2/6 140/3/6 137/11/6
f 140/3/6 128/2/6 129/1/6
f 134/3/1 151/2/1 132/1/1
f 151/3/1 134/2/1 152/1/1
f 71/3/2 134/2/2 132/1/2
f 134/3/2 71/2/2 73/1/2
f 74/60/3 151/5/3 152/139/3
f 151/5/3 74/60/3 72/5/3
f 74/5/4 71/115/4 72/140/4
f 71/115/4 74/5/4 73/5/4
f 71/65/5 151/5/5 72/5/5
f 151/5/5 71/65/5 132/5/5
f 134/2/6 74/3/6 152/11/6
f 74/3/6 134/2/6 73/1/6
f 138/3/1 39/2/1 136/1/1
f 39/3/1 138/2/1 41/1/1
f 142/3/2 138/2/2 136/1/2
f 138/3/2 142/2/2 141/1/2
f 44/5/3 39/5/3 41/141/3
f 39/5/3 44/5/3 43/142/3
f 44/39/4 142/120/4 43/5/4
f 142/120/4 44/39/4 141/5/4
f 142/122/5 39/41/5 43/5/5
f 39/41/5 142/122/5 136/5/5
f 138/2/6 44/3/6 41/11/6
f 44/3/6 138/2/6 141/1/6

usemtl color7

f 148/3/1 153/2/1 147/1/1
f 153/3/1 148/2/1 154/1/1
f 150/3/2 148/2/2 147/1/2
f 148/3/2 150/2/2 149/1/2
f 155/5/3 153/5/3 154/143/3
f 153/5/3 155/5/3 156/144/3
f 155/5/4 150/134/4 156/145/4
f 150/134/4 155/5/4 149/5/4
f 150/135/5 153/5/5 156/146/5
f 153/5/5 150/135/5 147/5/5
f 148/2/6 155/3/6 154/11/6
f 155/3/6 148/2/6 149/1/6

usemtl color8

f 152/3/1 157/2/1 151/1/1
f 157/3/1 152/2/1 158/1/1
f 78/3/2 152/2/2 151/1/2
f 152/3/2 78/2/2 77/1/2
f 159/5/3 157/5/3 158/147/3
f 157/5/3 159/5/3 160/148/3
f 159/5/4 78/62/4 160/149/4
f 78/62/4 159/5/4 77/5/4
f 78/64/5 157/5/5 160/150/5
f 157/5/5 78/64/5 151/5/5
f 152/2/6 159/3/6 158/11/6
f 159/3/6 152/2/6 77/1/6

usemtl color6

f 162/3/1 103/2/1 161/1/1
f 103/3/1 162/2/1 104/1/1
f 95/3/2 162/2/2 161/1/2
f 162/3/2 95/2/2 97/1/2
f 98/80/3 103/5/3 104/151/3
f 103/5/3 98/80/3 96/5/3
f 98/88/4 95/5/4 96/5/4
f 95/5/4 98/88/4 97/152/4
f 95/85/5 103/89/5 96/5/5
f 103/89/5 95/85/5 161/153/5
f 162/2/6 98/3/6 104/11/6
f 98/3/6 162/2/6 97/1/6

usemtl color3

f 98/3/1 87/2/1 96/1/1
f 87/3/1 98/2/1 88/1/1
f 102/3/2 98/2/2 96/1/2
f 98/3/2 102/2/2 101/1/2
f 163/5/3 87/87/3 88/5/3
f 87/87/3 163/5/3 164/154/3
f 163/5/4 102/82/4 164/155/4
f 102/82/4 163/5/4 101/5/4
f 102/84/5 87/5/5 164/156/5
f 87/5/5 102/84/5 96/5/5
f 98/2/6 163/3/6 88/11/6
f 163/3/6 98/2/6 101/1/6
f 110/3/1 112/2/1 109/1/1
f 112/3/1 110/2/1 111/1/1
f 165/3/2 110/2/2 109/1/2
f 110/3/2 165/2/2 166/1/2
f 167/5/3 112/91/3 111/5/3
f 112/91/3 167/5/3 168/157/3
f 167/5/4 165/5/4 168/158/4
f 165/5/4 167/5/4 166/159/4
f 165/5/5 112/94/5 168/160/5
f 112/94/5 165/5/5 109/5/5
f 110/2/6 167/3/6 111/11/6
f 167/3/6 110/2/6 166/1/6

usemtl color5

f 88/3/1 90/2/1 87/1/1
f 90/3/1 88/2/1 89/1/1
f 164/3/2 88/2/2 87/1/2
f 88/3/2 164/2/2 163/1/2
f 169/5/3 90/71/3 89/5/3
f 90/71/3 169/5/3 170/161/3
f 169/5/4 164/155/4 170/162/4
f 164/155/4 169/5/4 163/5/4
f 164/156/5 90/74/5 170/163/5
f 90/74/5 164/156/5 87/5/5
f 88/2/6 169/3/6 89/11/6
f 169/3/6 88/2/6 163/1/6

