# Created by Kenney (www.kenney.nl)

mtllib Pistol I0L Moderock.mtl

v -6 5 -0.4
v -6 4 -0.4
v -6 5 0.4
v -6 4 0.4
v -7 5 -0.4
v -7 5 0.4
v -7 4 0.4
v -7 4 -0.4
v 6 4 -0.8
v 6 3 -0.8
v 6 4 0.8
v 6 3 0.8
v 5 4 -0.8
v 5 4 0.8
v 5 3 0.8
v 5 3 -0.8
v 4 3 -0.8
v 4 2 -0.8
v 4 3 0.8
v 4 2 0.8
v -8 3 -0.8
v -8 3 0.8
v -8 2 0.8
v -8 2 -0.8
v 7 1 -1.2
v 7 0 -1.2
v 7 1 1.2
v 7 0 1.2
v 5 1 -1.2
v 5 1 1.2
v 5 0 1.2
v 5 0 -1.2
v -2 0 -0.8
v -2 -2 -0.8
v -2 0 0.8
v -2 -2 0.8
v -3 0 -0.8
v -3 0 0.8
v -3 -2 0.8
v -3 -2 -0.8
v -6 0 -0.8
v -6 -2 -0.8
v -6 0 0.8
v -6 -2 0.8
v -7 0 -0.8
v -7 0 0.8
v -7 -2 0.8
v -7 -2 -0.8
v 8 4 -0.4
v 8 3 -0.4
v 8 4 0.4
v 8 3 0.4
v 7 4 -0.4
v 7 4 0.4
v 7 3 0.4
v 7 3 -0.4
v 4 4 -0.8
v 4 4 0.8
v 3 4 -0.8
v 3 4 0.8
v 3 3 0.8
v 3 3 -0.8
v 7 3 -0.8
v 7 2 -0.8
v 7 3 0.8
v 7 2 0.8
v 6 2 0.8
v 6 2 -0.8
v 5 2 -0.8
v 5 2 0.8
v 3 1 -0.8
v 3 0 -0.8
v 3 1 0.8
v 3 0 0.8
v 1 1 -0.8
v 1 1 0.8
v 1 0 0.8
v 1 0 -0.8
v 5 0 -0.4
v 5 -1 -0.4
v 5 0 0.4
v 5 -1 0.4
v 4 0 -0.4
v 4 0 0.4
v 4 -1 0.4
v 4 -1 -0.4
v 2 0 -0.4
v 2 -2 -0.4
v 2 0 0.4
v 2 -2 0.4
v 1 0 -0.4
v 1 0 0.4
v 1 -2 0.4
v 1 -2 -0.4
v 3 -1 -0.4
v 3 -2 -0.4
v 3 -1 0.4
v 3 -2 0.4
v 2 -1 -0.4
v 2 -1 0.4
v 5 4 -1.2
v 5 3 -1.2
v 5 4 1.2
v 5 3 1.2
v 4 4 -1.2
v 4 4 1.2
v 4 3 1.2
v 4 3 -1.2
v 3 4 -1.2
v 3 3 -1.2
v 3 4 1.2
v 3 3 1.2
v -5 4 -1.2
v -5 4 1.2
v -5 3 1.2
v -5 3 -1.2
v 6 3 -1.2
v 6 1 -1.2
v 6 3 1.2
v 6 1 1.2
v 8 2 -0.8
v 8 0 -0.8
v 8 2 0.8
v 8 0 0.8
v 7 0 0.8
v 7 0 -0.8
v 7 2 -1.2
v 7 2 1.2
v 6 2 -1.2
v 6 2 1.2
v 5 2 -1.2
v 5 2 1.2
v -8 2 -1.2
v -8 2 1.2
v -8 1 1.2
v -8 1 -1.2
v -3 0 -1.2
v -3 -1 -1.2
v -3 0 1.2
v -3 -1 1.2
v -6 0 -1.2
v -6 0 1.2
v -6 -1 1.2
v -6 -1 -1.2
v -8 4 -1.2
v -8 4 1.2
v -8 3 1.2
v -8 3 -1.2
v 1 1 -1.2
v 1 0 -1.2
v 1 1 1.2
v 1 0 1.2
v -6 1 -1.2
v -6 1 1.2
v -3 -2 -1.2
v -3 -2 1.2
v -6 -2 1.2
v -6 -2 -1.2
v -8 3 -0.4
v -8 2 -0.4
v -8 3 0.4
v -8 2 0.4
v -9 3 -0.4
v -9 3 0.4
v -9 2 0.4
v -9 2 -0.4
v 5 1 -0.8
v 5 0 -0.8
v 5 1 0.8
v 5 0 0.8
v 6 0 -0.8
v 6 -1 -0.8
v 6 0 0.8
v 6 -1 0.8
v 5 -1 0.8
v 5 -1 -0.8
v 7 -1 -0.8
v 7 -3 -0.8
v 7 -1 0.8
v 7 -3 0.8
v 6 -3 0.8
v 6 -3 -0.8
v 4 -2 -0.4
v 4 -2 0.4
v -8 0 1.2
v -8 0 -1.2
v 6 -2 -0.8
v 6 -2 0.8
v 5 -2 0.8
v 5 -2 -0.8
v 5 -2 -0.4
v 5 -3 -0.4
v 5 -2 0.4
v 5 -3 0.4
v 4 -3 0.4
v 4 -3 -0.4
v 6 -4 -0.8
v 6 -4 0.8
v 5 -3 -0.8
v 5 -3 0.8
v 5 -4 0.8
v 5 -4 -0.8
v 5 -5 -0.8
v 5 -5 0.8
v 4 -4 -0.8
v 4 -4 0.8
v 4 -5 0.8
v 4 -5 -0.8
v 5 -4 -0.4
v 5 -4 0.4
v 4 -4 0.4
v 4 -4 -0.4
v 7 -4 -0.4
v 7 -5 -0.4
v 7 -4 0.4
v 7 -5 0.4
v 6 -4 -0.4
v 6 -4 0.4
v 6 -5 0.4
v 6 -5 -0.4
v 6 -5 -0.8
v 6 -5 0.8
v 4 -5 -0.4
v 4 -5 0.4
v 3 -4 -0.4
v 3 -4 0.4
v 3 -5 0.4
v 3 -5 -0.4
v 7 -4 -0.8
v 7 -4 0.8

vn 1 0 0
vn 0 1 0
vn 0 -1 0
vn -1 0 0
vn 0 0 -1
vn 0 0 1

vt -19.68504 19.68504
vt 19.68504 19.68504
vt -19.68504 -19.68504
vt 0 NaN
vt 0 0
vt 0 NaN
vt 0 NaN
vt 0 NaN
vt 0 NaN
vt 0 NaN
vt 19.68504 -19.68504
vt 0 NaN
vt 0 NaN
vt 0 NaN
vt 0 NaN
vt 0 NaN
vt 0 NaN
vt 0 NaN
vt 0 NaN
vt 0 NaN
vt 0 NaN
vt 0 NaN
vt 0 NaN
vt 0 NaN
vt 0 NaN
vt 0 NaN
vt 0 NaN
vt 0 NaN
vt 0 NaN
vt 0 NaN
vt 0 NaN
vt 0 NaN
vt 0 NaN
vt 0 NaN
vt 0 NaN
vt 0 NaN
vt 0 NaN
vt 0 NaN
vt 0 NaN
vt 0 NaN
vt 0 NaN
vt 0 NaN
vt 0 NaN
vt 0 NaN
vt 0 NaN
vt 0 NaN
vt 0 NaN
vt 0 NaN
vt 0 NaN
vt 0 NaN
vt 0 NaN
vt 0 NaN
vt 0 NaN
vt 0 NaN
vt 0 NaN
vt 0 NaN
vt 0 NaN
vt 0 NaN
vt 0 NaN
vt 0 NaN
vt 0 NaN
vt 0 NaN
vt 0 NaN
vt 0 NaN
vt 0 NaN
vt 0 NaN
vt 0 NaN
vt 0 NaN
vt 0 NaN
vt 0 NaN
vt 0 NaN
vt 0 NaN
vt 0 NaN
vt 0 NaN
vt 0 NaN
vt 0 NaN
vt 0 NaN
vt 0 NaN
vt 0 NaN
vt 0 NaN
vt 0 NaN
vt 0 NaN
vt 0 NaN
vt 0 NaN
vt 0 NaN
vt 0 NaN
vt 0 NaN
vt 0 NaN
vt 0 NaN
vt 0 NaN
vt 0 NaN
vt 0 NaN
vt 0 NaN
vt 0 NaN
vt 0 NaN
vt 0 NaN
vt 0 NaN
vt 0 NaN
vt 0 NaN
vt 0 NaN
vt 0 NaN
vt 0 NaN
vt 0 NaN
vt 0 NaN
vt 0 NaN
vt 0 NaN
vt 0 NaN
vt 0 NaN
vt 0 NaN
vt 0 NaN
vt 0 NaN
vt 0 NaN
vt 0 NaN
vt 0 NaN
vt 0 NaN
vt 0 NaN
vt 0 NaN
vt 0 NaN
vt 0 NaN
vt 0 NaN
vt 0 NaN
vt 0 NaN
vt 0 NaN
vt 0 NaN
vt 0 NaN
vt 0 NaN
vt 0 NaN
vt 0 NaN
vt 0 NaN
vt 0 NaN
vt 0 NaN
vt 0 NaN
vt 0 NaN
vt 0 NaN
vt 0 NaN
vt 0 NaN
vt 0 NaN
vt 0 NaN
vt 0 NaN
vt 0 NaN
vt 0 NaN
vt 0 NaN
vt 0 NaN
vt 0 NaN
vt 0 NaN
vt 0 NaN
vt 0 NaN
vt 0 NaN
vt 0 NaN
vt 0 NaN
vt 0 NaN
vt 0 NaN
vt 0 NaN
vt 0 NaN
vt 0 NaN
vt 0 NaN
vt 0 NaN
vt 0 NaN
vt 0 NaN
vt 0 NaN
vt 0 NaN
vt 0 NaN
vt 0 NaN
vt 0 NaN
vt 0 NaN
vt 0 NaN
vt 0 NaN
vt 0 NaN
vt 0 NaN
vt 0 NaN
vt 0 NaN
vt 0 NaN
vt 0 NaN
vt 0 NaN
vt 0 NaN
vt 0 NaN
vt 0 NaN
vt 0 NaN
vt 0 NaN
vt 0 NaN
vt 0 NaN
vt 0 NaN
vt 0 NaN
vt 0 NaN
vt 0 NaN
vt 0 NaN
vt 0 NaN
vt 0 NaN
vt 0 NaN
vt 0 NaN
vt 0 NaN
vt 0 NaN
vt 0 NaN
vt 0 NaN
vt 0 NaN
vt 0 NaN
vt 0 NaN
vt 0 NaN
vt 0 NaN
vt 0 NaN
vt 0 NaN
vt 0 NaN

usemtl color9

f 3/3/1 2/2/1 1/1/1
f 2/3/1 3/2/1 4/1/1
f 5/3/2 3/2/2 1/1/2
f 3/3/2 5/2/2 6/1/2
f 7/5/3 2/5/3 4/4/3
f 2/5/3 7/5/3 8/6/3
f 7/5/4 5/5/4 8/7/4
f 5/5/4 7/5/4 6/8/4
f 5/5/5 2/5/5 8/9/5
f 2/5/5 5/5/5 1/10/5
f 3/2/6 7/3/6 4/11/6
f 7/3/6 3/2/6 6/1/6
f 3/3/1 2/2/1 1/1/1
f 2/3/1 3/2/1 4/1/1
f 5/3/2 3/2/2 1/1/2
f 3/3/2 5/2/2 6/1/2
f 7/5/3 2/5/3 4/4/3
f 2/5/3 7/5/3 8/6/3
f 7/5/4 5/5/4 8/7/4
f 5/5/4 7/5/4 6/8/4
f 5/5/5 2/5/5 8/9/5
f 2/5/5 5/5/5 1/10/5
f 3/2/6 7/3/6 4/11/6
f 7/3/6 3/2/6 6/1/6
f 11/3/1 10/2/1 9/1/1
f 10/3/1 11/2/1 12/1/1
f 13/3/2 11/2/2 9/1/2
f 11/3/2 13/2/2 14/1/2
f 15/5/3 10/5/3 12/12/3
f 10/5/3 15/5/3 16/13/3
f 15/5/4 13/5/4 16/14/4
f 13/5/4 15/5/4 14/15/4
f 13/5/5 10/5/5 16/16/5
f 10/5/5 13/5/5 9/17/5
f 11/2/6 15/3/6 12/11/6
f 15/3/6 11/2/6 14/1/6
f 19/3/1 18/2/1 17/1/1
f 18/3/1 19/2/1 20/1/1
f 21/3/2 19/2/2 17/1/2
f 19/3/2 21/2/2 22/1/2
f 23/5/3 18/5/3 20/18/3
f 18/5/3 23/5/3 24/19/3
f 23/5/4 21/5/4 24/20/4
f 21/5/4 23/5/4 22/21/4
f 21/5/5 18/5/5 24/22/5
f 18/5/5 21/5/5 17/23/5
f 19/2/6 23/3/6 20/11/6
f 23/3/6 19/2/6 22/1/6
f 27/3/1 26/2/1 25/1/1
f 26/3/1 27/2/1 28/1/1
f 29/3/2 27/2/2 25/1/2
f 27/3/2 29/2/2 30/1/2
f 31/5/3 26/5/3 28/24/3
f 26/5/3 31/5/3 32/25/3
f 31/5/4 29/5/4 32/26/4
f 29/5/4 31/5/4 30/27/4
f 29/5/5 26/5/5 32/28/5
f 26/5/5 29/5/5 25/29/5
f 27/2/6 31/3/6 28/11/6
f 31/3/6 27/2/6 30/1/6
f 35/3/1 34/2/1 33/1/1
f 34/3/1 35/2/1 36/1/1
f 37/3/2 35/2/2 33/1/2
f 35/3/2 37/2/2 38/1/2
f 39/5/3 34/5/3 36/30/3
f 34/5/3 39/5/3 40/31/3
f 39/5/4 37/5/4 40/32/4
f 37/5/4 39/5/4 38/33/4
f 37/5/5 34/5/5 40/34/5
f 34/5/5 37/5/5 33/35/5
f 35/2/6 39/3/6 36/11/6
f 39/3/6 35/2/6 38/1/6
f 43/3/1 42/2/1 41/1/1
f 42/3/1 43/2/1 44/1/1
f 45/3/2 43/2/2 41/1/2
f 43/3/2 45/2/2 46/1/2
f 47/5/3 42/5/3 44/36/3
f 42/5/3 47/5/3 48/37/3
f 47/5/4 45/5/4 48/38/4
f 45/5/4 47/5/4 46/39/4
f 45/5/5 42/5/5 48/40/5
f 42/5/5 45/5/5 41/41/5
f 43/2/6 47/3/6 44/11/6
f 47/3/6 43/2/6 46/1/6

usemtl color8

f 51/3/1 50/2/1 49/1/1
f 50/3/1 51/2/1 52/1/1
f 53/3/2 51/2/2 49/1/2
f 51/3/2 53/2/2 54/1/2
f 55/5/3 50/5/3 52/42/3
f 50/5/3 55/5/3 56/43/3
f 55/5/4 53/5/4 56/44/4
f 53/5/4 55/5/4 54/45/4
f 53/5/5 50/5/5 56/46/5
f 50/5/5 53/5/5 49/47/5
f 51/2/6 55/3/6 52/11/6
f 55/3/6 51/2/6 54/1/6
f 58/3/1 17/2/1 57/1/1
f 17/3/1 58/2/1 19/1/1
f 59/3/2 58/2/2 57/1/2
f 58/3/2 59/2/2 60/1/2
f 61/5/3 17/5/3 19/48/3
f 17/5/3 61/5/3 62/49/3
f 61/5/4 59/5/4 62/50/4
f 59/5/4 61/5/4 60/51/4
f 59/5/5 17/23/5 62/52/5
f 17/23/5 59/5/5 57/53/5
f 58/2/6 61/3/6 19/11/6
f 61/3/6 58/2/6 60/1/6
f 65/3/1 64/2/1 63/1/1
f 64/3/1 65/2/1 66/1/1
f 10/3/2 65/2/2 63/1/2
f 65/3/2 10/2/2 12/1/2
f 67/5/3 64/5/3 66/54/3
f 64/5/3 67/5/3 68/55/3
f 67/5/4 10/5/4 68/56/4
f 10/5/4 67/5/4 12/57/4
f 10/5/5 64/5/5 68/58/5
f 64/5/5 10/5/5 63/59/5
f 65/2/6 67/3/6 66/11/6
f 67/3/6 65/2/6 12/1/6
f 15/3/1 69/2/1 16/1/1
f 69/3/1 15/2/1 70/1/1
f 17/3/2 15/2/2 16/1/2
f 15/3/2 17/2/2 19/1/2
f 20/18/3 69/5/3 70/60/3
f 69/5/3 20/18/3 18/5/3
f 20/5/4 17/5/4 18/61/4
f 17/5/4 20/5/4 19/62/4
f 17/23/5 69/5/5 18/5/5
f 69/5/5 17/23/5 16/16/5
f 15/2/6 20/3/6 70/11/6
f 20/3/6 15/2/6 19/1/6
f 73/3/1 72/2/1 71/1/1
f 72/3/1 73/2/1 74/1/1
f 75/3/2 73/2/2 71/1/2
f 73/3/2 75/2/2 76/1/2
f 77/5/3 72/5/3 74/63/3
f 72/5/3 77/5/3 78/64/3
f 77/5/4 75/5/4 78/65/4
f 75/5/4 77/5/4 76/66/4
f 75/5/5 72/5/5 78/67/5
f 72/5/5 75/5/5 71/68/5
f 73/2/6 77/3/6 74/11/6
f 77/3/6 73/2/6 76/1/6
f 81/3/1 80/2/1 79/1/1
f 80/3/1 81/2/1 82/1/1
f 83/3/2 81/2/2 79/1/2
f 81/3/2 83/2/2 84/1/2
f 85/5/3 80/5/3 82/69/3
f 80/5/3 85/5/3 86/70/3
f 85/5/4 83/5/4 86/71/4
f 83/5/4 85/5/4 84/72/4
f 83/5/5 80/5/5 86/73/5
f 80/5/5 83/5/5 79/74/5
f 81/2/6 85/3/6 82/11/6
f 85/3/6 81/2/6 84/1/6
f 89/3/1 88/2/1 87/1/1
f 88/3/1 89/2/1 90/1/1
f 91/3/2 89/2/2 87/1/2
f 89/3/2 91/2/2 92/1/2
f 93/5/3 88/5/3 90/75/3
f 88/5/3 93/5/3 94/76/3
f 93/5/4 91/5/4 94/77/4
f 91/5/4 93/5/4 92/78/4
f 91/5/5 88/5/5 94/79/5
f 88/5/5 91/5/5 87/80/5
f 89/2/6 93/3/6 90/11/6
f 93/3/6 89/2/6 92/1/6
f 97/3/1 96/2/1 95/1/1
f 96/3/1 97/2/1 98/1/1
f 99/3/2 97/2/2 95/1/2
f 97/3/2 99/2/2 100/1/2
f 90/75/3 96/5/3 98/81/3
f 96/5/3 90/75/3 88/5/3
f 90/5/4 99/5/4 88/82/4
f 99/5/4 90/5/4 100/83/4
f 99/5/5 96/5/5 88/5/5
f 96/5/5 99/5/5 95/84/5
f 97/2/6 90/3/6 98/11/6
f 90/3/6 97/2/6 100/1/6

usemtl color11

f 103/3/1 102/2/1 101/1/1
f 102/3/1 103/2/1 104/1/1
f 105/3/2 103/2/2 101/1/2
f 103/3/2 105/2/2 106/1/2
f 107/5/3 102/5/3 104/85/3
f 102/5/3 107/5/3 108/86/3
f 107/5/4 105/5/4 108/87/4
f 105/5/4 107/5/4 106/88/4
f 105/5/5 102/5/5 108/89/5
f 102/5/5 105/5/5 101/90/5
f 103/2/6 107/3/6 104/11/6
f 107/3/6 103/2/6 106/1/6
f 111/3/1 110/2/1 109/1/1
f 110/3/1 111/2/1 112/1/1
f 113/3/2 111/2/2 109/1/2
f 111/3/2 113/2/2 114/1/2
f 115/5/3 110/5/3 112/91/3
f 110/5/3 115/5/3 116/92/3
f 115/5/4 113/5/4 116/93/4
f 113/5/4 115/5/4 114/94/4
f 113/5/5 110/5/5 116/95/5
f 110/5/5 113/5/5 109/96/5
f 111/2/6 115/3/6 112/11/6
f 115/3/6 111/2/6 114/1/6
f 119/3/1 118/2/1 117/1/1
f 118/3/1 119/2/1 120/1/1
f 102/3/2 119/2/2 117/1/2
f 119/3/2 102/2/2 104/1/2
f 30/5/3 118/5/3 120/97/3
f 118/5/3 30/5/3 29/98/3
f 30/27/4 102/5/4 29/5/4
f 102/5/4 30/27/4 104/99/4
f 102/5/5 118/5/5 29/5/5
f 118/5/5 102/5/5 117/100/5
f 119/2/6 30/3/6 120/11/6
f 30/3/6 119/2/6 104/1/6
f 123/3/1 122/2/1 121/1/1
f 122/3/1 123/2/1 124/1/1
f 64/3/2 123/2/2 121/1/2
f 123/3/2 64/2/2 66/1/2
f 125/5/3 122/5/3 124/101/3
f 122/5/3 125/5/3 126/102/3
f 125/5/4 64/5/4 126/103/4
f 64/5/4 125/5/4 66/104/4
f 64/5/5 122/5/5 126/105/5
f 122/5/5 64/5/5 121/106/5
f 123/2/6 125/3/6 124/11/6
f 125/3/6 123/2/6 66/1/6
f 128/3/1 25/2/1 127/1/1
f 25/3/1 128/2/1 27/1/1
f 129/3/2 128/2/2 127/1/2
f 128/3/2 129/2/2 130/1/2
f 120/97/3 25/5/3 27/107/3
f 25/5/3 120/97/3 118/5/3
f 120/5/4 129/5/4 118/108/4
f 129/5/4 120/5/4 130/109/4
f 129/5/5 25/29/5 118/5/5
f 25/29/5 129/5/5 127/110/5
f 128/2/6 120/3/6 27/11/6
f 120/3/6 128/2/6 130/1/6
f 132/3/1 29/2/1 131/1/1
f 29/3/1 132/2/1 30/1/1
f 133/3/2 132/2/2 131/1/2
f 132/3/2 133/2/2 134/1/2
f 135/5/3 29/98/3 30/5/3
f 29/98/3 135/5/3 136/111/3
f 135/5/4 133/5/4 136/112/4
f 133/5/4 135/5/4 134/113/4
f 133/5/5 29/5/5 136/114/5
f 29/5/5 133/5/5 131/115/5
f 132/2/6 135/3/6 30/11/6
f 135/3/6 132/2/6 134/1/6
f 139/3/1 138/2/1 137/1/1
f 138/3/1 139/2/1 140/1/1
f 141/3/2 139/2/2 137/1/2
f 139/3/2 141/2/2 142/1/2
f 143/5/3 138/5/3 140/116/3
f 138/5/3 143/5/3 144/117/3
f 143/5/4 141/5/4 144/118/4
f 141/5/4 143/5/4 142/119/4
f 141/5/5 138/5/5 144/120/5
f 138/5/5 141/5/5 137/121/5
f 139/2/6 143/3/6 140/11/6
f 143/3/6 139/2/6 142/1/6

usemtl color10

f 114/3/1 116/2/1 113/1/1
f 116/3/1 114/2/1 115/1/1
f 145/3/2 114/2/2 113/1/2
f 114/3/2 145/2/2 146/1/2
f 147/5/3 116/92/3 115/5/3
f 116/92/3 147/5/3 148/122/3
f 147/5/4 145/5/4 148/123/4
f 145/5/4 147/5/4 146/124/4
f 145/5/5 116/95/5 148/125/5
f 116/95/5 145/5/5 113/5/5
f 114/2/6 147/3/6 115/11/6
f 147/3/6 114/2/6 146/1/6
f 151/3/1 150/2/1 149/1/1
f 150/3/1 151/2/1 152/1/1
f 153/3/2 151/2/2 149/1/2
f 151/3/2 153/2/2 154/1/2
f 142/5/3 150/5/3 152/126/3
f 150/5/3 142/5/3 141/127/3
f 142/119/4 153/5/4 141/5/4
f 153/5/4 142/119/4 154/128/4
f 153/5/5 150/5/5 141/5/5
f 150/5/5 153/5/5 149/129/5
f 151/2/6 142/3/6 152/11/6
f 142/3/6 151/2/6 154/1/6
f 140/3/1 155/2/1 138/1/1
f 155/3/1 140/2/1 156/1/1
f 144/3/2 140/2/2 138/1/2
f 140/3/2 144/2/2 143/1/2
f 157/5/3 155/5/3 156/130/3
f 155/5/3 157/5/3 158/131/3
f 157/5/4 144/118/4 158/132/4
f 144/118/4 157/5/4 143/5/4
f 144/120/5 155/5/5 158/133/5
f 155/5/5 144/120/5 138/5/5
f 140/2/6 157/3/6 156/11/6
f 157/3/6 140/2/6 143/1/6

usemtl color0

f 161/3/1 160/2/1 159/1/1
f 160/3/1 161/2/1 162/1/1
f 163/3/2 161/2/2 159/1/2
f 161/3/2 163/2/2 164/1/2
f 165/5/3 160/5/3 162/134/3
f 160/5/3 165/5/3 166/135/3
f 165/5/4 163/5/4 166/136/4
f 163/5/4 165/5/4 164/137/4
f 163/5/5 160/5/5 166/138/5
f 160/5/5 163/5/5 159/139/5
f 161/2/6 165/3/6 162/11/6
f 165/3/6 161/2/6 164/1/6

usemtl color6

f 169/3/1 168/2/1 167/1/1
f 168/3/1 169/2/1 170/1/1
f 71/3/2 169/2/2 167/1/2
f 169/3/2 71/2/2 73/1/2
f 74/63/3 168/5/3 170/140/3
f 168/5/3 74/63/3 72/5/3
f 74/5/4 71/5/4 72/141/4
f 71/5/4 74/5/4 73/142/4
f 71/68/5 168/5/5 72/5/5
f 168/5/5 71/68/5 167/143/5
f 169/2/6 74/3/6 170/11/6
f 74/3/6 169/2/6 73/1/6
f 173/3/1 172/2/1 171/1/1
f 172/3/1 173/2/1 174/1/1
f 168/3/2 173/2/2 171/1/2
f 173/3/2 168/2/2 170/1/2
f 175/5/3 172/5/3 174/144/3
f 172/5/3 175/5/3 176/145/3
f 175/5/4 168/5/4 176/146/4
f 168/5/4 175/5/4 170/147/4
f 168/5/5 172/5/5 176/148/5
f 172/5/5 168/5/5 171/149/5
f 173/2/6 175/3/6 174/11/6
f 175/3/6 173/2/6 170/1/6
f 179/3/1 178/2/1 177/1/1
f 178/3/1 179/2/1 180/1/1
f 172/3/2 179/2/2 177/1/2
f 179/3/2 172/2/2 174/1/2
f 181/5/3 178/5/3 180/150/3
f 178/5/3 181/5/3 182/151/3
f 181/5/4 172/5/4 182/152/4
f 172/5/4 181/5/4 174/153/4
f 172/5/5 178/5/5 182/154/5
f 178/5/5 172/5/5 177/155/5
f 179/2/6 181/3/6 180/11/6
f 181/3/6 179/2/6 174/1/6
f 85/3/1 183/2/1 86/1/1
f 183/3/1 85/2/1 184/1/1
f 95/3/2 85/2/2 86/1/2
f 85/3/2 95/2/2 97/1/2
f 98/81/3 183/5/3 184/156/3
f 183/5/3 98/81/3 96/5/3
f 98/5/4 95/5/4 96/157/4
f 95/5/4 98/5/4 97/158/4
f 95/84/5 183/5/5 96/5/5
f 183/5/5 95/84/5 86/73/5
f 85/2/6 98/3/6 184/11/6
f 98/3/6 85/2/6 97/1/6

usemtl color12

f 154/3/1 141/2/1 153/1/1
f 141/3/1 154/2/1 142/1/1
f 136/3/2 154/2/2 153/1/2
f 154/3/2 136/2/2 135/1/2
f 185/5/3 141/127/3 142/5/3
f 141/127/3 185/5/3 186/159/3
f 185/5/4 136/112/4 186/160/4
f 136/112/4 185/5/4 135/5/4
f 136/114/5 141/5/5 186/161/5
f 141/5/5 136/114/5 153/5/5
f 154/2/6 185/3/6 142/11/6
f 185/3/6 154/2/6 135/1/6

usemtl color7

f 174/3/1 187/2/1 172/1/1
f 187/3/1 174/2/1 188/1/1
f 176/3/2 174/2/2 172/1/2
f 174/3/2 176/2/2 175/1/2
f 189/5/3 187/5/3 188/162/3
f 187/5/3 189/5/3 190/163/3
f 189/5/4 176/146/4 190/164/4
f 176/146/4 189/5/4 175/5/4
f 176/148/5 187/5/5 190/165/5
f 187/5/5 176/148/5 172/5/5
f 174/2/6 189/3/6 188/11/6
f 189/3/6 174/2/6 175/1/6
f 193/3/1 192/2/1 191/1/1
f 192/3/1 193/2/1 194/1/1
f 183/3/2 193/2/2 191/1/2
f 193/3/2 183/2/2 184/1/2
f 195/5/3 192/5/3 194/166/3
f 192/5/3 195/5/3 196/167/3
f 195/5/4 183/5/4 196/168/4
f 183/5/4 195/5/4 184/169/4
f 183/5/5 192/5/5 196/170/5
f 192/5/5 183/5/5 191/171/5
f 193/2/6 195/3/6 194/11/6
f 195/3/6 193/2/6 184/1/6

usemtl color3

f 82/3/1 191/2/1 80/1/1
f 191/3/1 82/2/1 193/1/1
f 86/3/2 82/2/2 80/1/2
f 82/3/2 86/2/2 85/1/2
f 184/156/3 191/5/3 193/172/3
f 191/5/3 184/156/3 183/5/3
f 184/169/4 86/71/4 183/5/4
f 86/71/4 184/169/4 85/5/4
f 86/73/5 191/171/5 183/5/5
f 191/171/5 86/73/5 80/5/5
f 82/2/6 184/3/6 193/11/6
f 184/3/6 82/2/6 85/1/6
f 181/3/1 197/2/1 182/1/1
f 197/3/1 181/2/1 198/1/1
f 199/3/2 181/2/2 182/1/2
f 181/3/2 199/2/2 200/1/2
f 201/5/3 197/5/3 198/173/3
f 197/5/3 201/5/3 202/174/3
f 201/5/4 199/5/4 202/175/4
f 199/5/4 201/5/4 200/176/4
f 199/5/5 197/5/5 202/177/5
f 197/5/5 199/5/5 182/154/5
f 181/2/6 201/3/6 198/11/6
f 201/3/6 181/2/6 200/1/6
f 201/3/1 203/2/1 202/1/1
f 203/3/1 201/2/1 204/1/1
f 205/3/2 201/2/2 202/1/2
f 201/3/2 205/2/2 206/1/2
f 207/5/3 203/5/3 204/178/3
f 203/5/3 207/5/3 208/179/3
f 207/5/4 205/5/4 208/180/4
f 205/5/4 207/5/4 206/181/4
f 205/5/5 203/5/5 208/182/5
f 203/5/5 205/5/5 202/177/5
f 201/2/6 207/3/6 204/11/6
f 207/3/6 201/2/6 206/1/6

usemtl color2

f 188/3/1 182/2/1 187/1/1
f 182/3/1 188/2/1 181/1/1
f 190/3/2 188/2/2 187/1/2
f 188/3/2 190/2/2 189/1/2
f 200/5/3 182/151/3 181/5/3
f 182/151/3 200/5/3 199/183/3
f 200/176/4 190/164/4 199/5/4
f 190/164/4 200/176/4 189/5/4
f 190/165/5 182/154/5 199/5/5
f 182/154/5 190/165/5 187/5/5
f 188/2/6 200/3/6 181/11/6
f 200/3/6 188/2/6 189/1/6
f 194/3/1 209/2/1 192/1/1
f 209/3/1 194/2/1 210/1/1
f 196/3/2 194/2/2 192/1/2
f 194/3/2 196/2/2 195/1/2
f 211/5/3 209/5/3 210/184/3
f 209/5/3 211/5/3 212/185/3
f 211/5/4 196/168/4 212/186/4
f 196/168/4 211/5/4 195/5/4
f 196/170/5 209/5/5 212/187/5
f 209/5/5 196/170/5 192/5/5
f 194/2/6 211/3/6 210/11/6
f 211/3/6 194/2/6 195/1/6
f 215/3/1 214/2/1 213/1/1
f 214/3/1 215/2/1 216/1/1
f 217/3/2 215/2/2 213/1/2
f 215/3/2 217/2/2 218/1/2
f 219/5/3 214/5/3 216/188/3
f 214/5/3 219/5/3 220/189/3
f 219/5/4 217/5/4 220/190/4
f 217/5/4 219/5/4 218/191/4
f 217/5/5 214/5/5 220/192/5
f 214/5/5 217/5/5 213/193/5
f 215/2/6 219/3/6 216/11/6
f 219/3/6 215/2/6 218/1/6
f 198/3/1 221/2/1 197/1/1
f 221/3/1 198/2/1 222/1/1
f 202/3/2 198/2/2 197/1/2
f 198/3/2 202/2/2 201/1/2
f 204/178/3 221/5/3 222/194/3
f 221/5/3 204/178/3 203/5/3
f 204/5/4 202/175/4 203/195/4
f 202/175/4 204/5/4 201/5/4
f 202/177/5 221/5/5 203/5/5
f 221/5/5 202/177/5 197/5/5
f 198/2/6 204/3/6 222/11/6
f 204/3/6 198/2/6 201/1/6
f 211/3/1 223/2/1 212/1/1
f 223/3/1 211/2/1 224/1/1
f 225/3/2 211/2/2 212/1/2
f 211/3/2 225/2/2 226/1/2
f 227/5/3 223/5/3 224/196/3
f 223/5/3 227/5/3 228/197/3
f 227/5/4 225/5/4 228/198/4
f 225/5/4 227/5/4 226/199/4
f 225/5/5 223/5/5 228/200/5
f 223/5/5 225/5/5 212/187/5
f 211/2/6 227/3/6 224/11/6
f 227/3/6 211/2/6 226/1/6

usemtl color5

f 180/3/1 229/2/1 178/1/1
f 229/3/1 180/2/1 230/1/1
f 182/3/2 180/2/2 178/1/2
f 180/3/2 182/2/2 181/1/2
f 198/173/3 229/5/3 230/201/3
f 229/5/3 198/173/3 197/5/3
f 198/5/4 182/152/4 197/202/4
f 182/152/4 198/5/4 181/5/4
f 182/154/5 229/5/5 197/5/5
f 229/5/5 182/154/5 178/5/5
f 180/2/6 198/3/6 230/11/6
f 198/3/6 180/2/6 181/1/6

