# Created by Kenney (www.kenney.nl)

mtllib Pistol P7 Kiraric.mtl

v 6 5 -0.4
v 6 4 -0.4
v 6 5 0.4
v 6 4 0.4
v 5 5 -0.4
v 5 5 0.4
v 5 4 0.4
v 5 4 -0.4
v -4 5 -0.4
v -4 4 -0.4
v -4 5 0.4
v -4 4 0.4
v -5 5 -0.4
v -5 5 0.4
v -5 4 0.4
v -5 4 -0.4
v 5 3 -0.8
v 5 2 -0.8
v 5 3 0.8
v 5 2 0.8
v 4 3 -0.8
v 4 3 0.8
v 4 2 0.8
v 4 2 -0.8
v 3 3 -0.8
v 3 2 -0.8
v 3 3 0.8
v 3 2 0.8
v 2 3 -0.8
v 2 3 0.8
v 2 2 0.8
v 2 2 -0.8
v 7 2 -0.4
v 7 1 -0.4
v 7 2 0.4
v 7 1 0.4
v 6 2 -0.4
v 6 2 0.4
v 6 1 0.4
v 6 1 -0.4
v 0 2 -0.8
v 0 1 -0.8
v 0 2 0.8
v 0 1 0.8
v -5 2 -0.8
v -5 2 0.8
v -5 1 0.8
v -5 1 -0.8
v 5 1 -0.8
v 5 0 -0.8
v 5 1 0.8
v 5 0 0.8
v 4 1 -0.8
v 4 1 0.8
v 4 0 0.8
v 4 0 -0.8
v 4 -1 -0.8
v 4 -1 0.8
v 3 0 -0.8
v 3 0 0.8
v 3 -1 0.8
v 3 -1 -0.8
v 0 0 -1.2
v 0 -1 -1.2
v 0 0 1.2
v 0 -1 1.2
v -1 0 -1.2
v -1 0 1.2
v -1 -1 1.2
v -1 -1 -1.2
v -2 0 -1.2
v -2 -1 -1.2
v -2 0 1.2
v -2 -1 1.2
v -3 0 -1.2
v -3 0 1.2
v -3 -1 1.2
v -3 -1 -1.2
v 6 -1 -0.8
v 6 -2 -0.8
v 6 -1 0.8
v 6 -2 0.8
v 5 -1 -0.8
v 5 -1 0.8
v 5 -2 0.8
v 5 -2 -0.8
v 5 -3 -0.8
v 5 -3 0.8
v 4 -2 -0.8
v 4 -2 0.8
v 4 -3 0.8
v 4 -3 -0.8
v 6 -3 -0.8
v 6 -4 -0.8
v 6 -3 0.8
v 6 -4 0.8
v 5 -4 0.8
v 5 -4 -0.8
v 7 4 -1.2
v 7 3 -1.2
v 7 4 1.2
v 7 3 1.2
v 6 4 -1.2
v 6 4 1.2
v 6 3 1.2
v 6 3 -1.2
v 6 2 -1.2
v 6 2 1.2
v 5 3 -1.2
v 5 3 1.2
v 5 2 1.2
v 5 2 -1.2
v 4 3 -1.2
v 4 2 -1.2
v 4 3 1.2
v 4 2 1.2
v 3 3 -1.2
v 3 3 1.2
v 3 2 1.2
v 3 2 -1.2
v 2 3 -1.2
v 2 2 -1.2
v 2 3 1.2
v 2 2 1.2
v -5 3 -1.2
v -5 3 1.2
v -5 2 1.2
v -5 2 -1.2
v 3 0 -0.4
v 3 -1 -0.4
v 3 0 0.4
v 3 -1 0.4
v 2 0 -0.4
v 2 0 0.4
v 2 -1 0.4
v 2 -1 -0.4
v 4 -1 -0.4
v 4 -2 -0.4
v 4 -1 0.4
v 4 -2 0.4
v 3 -2 0.4
v 3 -2 -0.4
v 4 -3 -0.4
v 4 -4 -0.4
v 4 -3 0.4
v 4 -4 0.4
v 3 -3 -0.4
v 3 -3 0.4
v 3 -4 0.4
v 3 -4 -0.4
v 5 4 -1.2
v 5 4 1.2
v 4 4 -1.2
v 4 4 1.2
v 3 4 -1.2
v 3 4 1.2
v 2 4 -1.2
v 2 4 1.2
v -1 4 -1.2
v -1 4 1.2
v -1 3 1.2
v -1 3 -1.2
v 5 4 -0.8
v 5 4 0.8
v 4 4 -0.8
v 4 4 0.8
v 3 4 -0.8
v 3 4 0.8
v 2 4 -0.8
v 2 4 0.8
v 6 2 -0.8
v 6 1 -0.8
v 6 2 0.8
v 6 1 0.8
v 0 1 -1.2
v 0 1 1.2
v -3 1 -1.2
v -3 1 1.2
v 4 -4 -0.8
v 4 -5 -0.8
v 4 -4 0.8
v 4 -5 0.8
v 3 -4 -0.8
v 3 -4 0.8
v 3 -5 0.8
v 3 -5 -0.8
v -2 4 -1.2
v -2 4 1.2
v -2 3 1.2
v -2 3 -1.2
v -4 4 -1.2
v -4 3 -1.2
v -4 4 1.2
v -4 3 1.2
v -5 4 -1.2
v -5 4 1.2
v 7 2 -1.2
v 7 2 1.2
v 6 0 -0.4
v 6 -1 -0.4
v 6 0 0.4
v 6 -1 0.4
v 5 0 -0.4
v 5 0 0.4
v 5 -1 0.4
v 5 -1 -0.4
v 0 0 -0.4
v 0 0 0.4
v 0 -1 0.4
v 0 -1 -0.4
v 7 -1 -0.4
v 7 -3 -0.4
v 7 -1 0.4
v 7 -3 0.4
v 6 -3 0.4
v 6 -3 -0.4
v -5 3 -0.4
v -5 2 -0.4
v -5 3 0.4
v -5 2 0.4
v -6 3 -0.4
v -6 3 0.4
v -6 2 0.4
v -6 2 -0.4
v 5 1 -1.2
v 5 1 1.2
v 4 1 1.2
v 4 1 -1.2
v 5 1 -0.4
v 5 1 0.4
v 1 1 -0.4
v 1 0 -0.4
v 1 1 0.4
v 1 0 0.4
v 0 1 -0.4
v 0 1 0.4
v 7 -4 -0.4
v 7 -4 0.4
v 6 -4 0.4
v 6 -4 -0.4
v 3 1 -0.8
v 3 1 0.8
v -3 1 -0.8
v -3 0 -0.8
v -3 1 0.8
v -3 0 0.8
v -4 1 -0.8
v -4 1 0.8
v -4 0 0.8
v -4 0 -0.8
v -5 0 0.8
v -5 0 -0.8
v -6 1 -0.8
v -6 1 0.8
v -6 0 0.8
v -6 0 -0.8
v -7 1 -0.8
v -7 1 0.8
v -7 0 0.8
v -7 0 -0.8
v -1 0 -0.8
v -1 -1 -0.8
v -1 0 0.8
v -1 -1 0.8
v -2 0 -0.8
v -2 0 0.8
v -2 -1 0.8
v -2 -1 -0.8
v -3 -1 -0.8
v -3 -1 0.8
v -4 -1 0.8
v -4 -1 -0.8
v -5 -1 -0.8
v -5 -1 0.8
v -6 -1 0.8
v -6 -1 -0.8
v -7 -1 0.8
v -7 -1 -0.8
v 6 -5 -0.8
v 6 -5 0.8

vn 1 0 0
vn 0 1 0
vn 0 -1 0
vn -1 0 0
vn 0 0 -1
vn 0 0 1

vt -19.68504 19.68504
vt 19.68504 19.68504
vt -19.68504 -19.68504
vt 0 NaN
vt 0 0
vt 0 NaN
vt 0 NaN
vt 0 NaN
vt 0 NaN
vt 0 NaN
vt 19.68504 -19.68504
vt 0 NaN
vt 0 NaN
vt 0 NaN
vt 0 NaN
vt 0 NaN
vt 0 NaN
vt 0 NaN
vt 0 NaN
vt 0 NaN
vt 0 NaN
vt 0 NaN
vt 0 NaN
vt 0 NaN
vt 0 NaN
vt 0 NaN
vt 0 NaN
vt 0 NaN
vt 0 NaN
vt 0 NaN
vt 0 NaN
vt 0 NaN
vt 0 NaN
vt 0 NaN
vt 0 NaN
vt 0 NaN
vt 0 NaN
vt 0 NaN
vt 0 NaN
vt 0 NaN
vt 0 NaN
vt 0 NaN
vt 0 NaN
vt 0 NaN
vt 0 NaN
vt 0 NaN
vt 0 NaN
vt 0 NaN
vt 0 NaN
vt 0 NaN
vt 0 NaN
vt 0 NaN
vt 0 NaN
vt 0 NaN
vt 0 NaN
vt 0 NaN
vt 0 NaN
vt 0 NaN
vt 0 NaN
vt 0 NaN
vt 0 NaN
vt 0 NaN
vt 0 NaN
vt 0 NaN
vt 0 NaN
vt 0 NaN
vt 0 NaN
vt 0 NaN
vt 0 NaN
vt 0 NaN
vt 0 NaN
vt 0 NaN
vt 0 NaN
vt 0 NaN
vt 0 NaN
vt 0 NaN
vt 0 NaN
vt 0 NaN
vt 0 NaN
vt 0 NaN
vt 0 NaN
vt 0 NaN
vt 0 NaN
vt 0 NaN
vt 0 NaN
vt 0 NaN
vt 0 NaN
vt 0 NaN
vt 0 NaN
vt 0 NaN
vt 0 NaN
vt 0 NaN
vt 0 NaN
vt 0 NaN
vt 0 NaN
vt 0 NaN
vt 0 NaN
vt 0 NaN
vt 0 NaN
vt 0 NaN
vt 0 NaN
vt 0 NaN
vt 0 NaN
vt 0 NaN
vt 0 NaN
vt 0 NaN
vt 0 NaN
vt 0 NaN
vt 0 NaN
vt 0 NaN
vt 0 NaN
vt 0 NaN
vt 0 NaN
vt 0 NaN
vt 0 NaN
vt 0 NaN
vt 0 NaN
vt 0 NaN
vt 0 NaN
vt 0 NaN
vt 0 NaN
vt 0 NaN
vt 0 NaN
vt 0 NaN
vt 0 NaN
vt 0 NaN
vt 0 NaN
vt 0 NaN
vt 0 NaN
vt 0 NaN
vt 0 NaN
vt 0 NaN
vt 0 NaN
vt 0 NaN
vt 0 NaN
vt 0 NaN
vt 0 NaN
vt 0 NaN
vt 0 NaN
vt 0 NaN
vt 0 NaN
vt 0 NaN
vt 0 NaN
vt 0 NaN
vt 0 NaN
vt 0 NaN
vt 0 NaN
vt 0 NaN
vt 0 NaN
vt 0 NaN
vt 0 NaN
vt 0 NaN
vt 0 NaN
vt 0 NaN
vt 0 NaN
vt 0 NaN
vt 0 NaN
vt 0 NaN
vt 0 NaN
vt 0 NaN
vt 0 NaN
vt 0 NaN
vt 0 NaN
vt 0 NaN
vt 0 NaN
vt 0 NaN
vt 0 NaN
vt 0 NaN
vt 0 NaN
vt 0 NaN
vt 0 NaN
vt 0 NaN
vt 0 NaN
vt 0 NaN
vt 0 NaN
vt 0 NaN
vt 0 NaN
vt 0 NaN
vt 0 NaN
vt 0 NaN
vt 0 NaN
vt 0 NaN
vt 0 NaN
vt 0 NaN
vt 0 NaN
vt 0 NaN
vt 0 NaN
vt 0 NaN
vt 0 NaN
vt 0 NaN
vt 0 NaN
vt 0 NaN
vt 0 NaN
vt 0 NaN
vt 0 NaN
vt 0 NaN
vt 0 NaN
vt 0 NaN
vt 0 NaN
vt 0 NaN
vt 0 NaN
vt 0 NaN
vt 0 NaN
vt 0 NaN
vt 0 NaN
vt 0 NaN
vt 0 NaN
vt 0 NaN
vt 0 NaN
vt 0 NaN
vt 0 NaN
vt 0 NaN
vt 0 NaN
vt 0 NaN
vt 0 NaN
vt 0 NaN
vt 0 NaN
vt 0 NaN
vt 0 NaN
vt 0 NaN
vt 0 NaN
vt 0 NaN
vt 0 NaN
vt 0 NaN
vt 0 NaN
vt 0 NaN
vt 0 NaN
vt 0 NaN
vt 0 NaN
vt 0 NaN
vt 0 NaN
vt 0 NaN
vt 0 NaN
vt 0 NaN
vt 0 NaN
vt 0 NaN
vt 0 NaN
vt 0 NaN
vt 0 NaN
vt 0 NaN
vt 0 NaN
vt 0 NaN
vt 0 NaN
vt 0 NaN
vt 0 NaN
vt 0 NaN
vt 0 NaN
vt 0 NaN
vt 0 NaN
vt 0 NaN
vt 0 NaN
vt 0 NaN
vt 0 NaN
vt 0 NaN
vt 0 NaN
vt 0 NaN
vt 0 NaN

usemtl color5

f 3/3/1 2/2/1 1/1/1
f 2/3/1 3/2/1 4/1/1
f 5/3/2 3/2/2 1/1/2
f 3/3/2 5/2/2 6/1/2
f 7/5/3 2/5/3 4/4/3
f 2/5/3 7/5/3 8/6/3
f 7/5/4 5/5/4 8/7/4
f 5/5/4 7/5/4 6/8/4
f 5/5/5 2/5/5 8/9/5
f 2/5/5 5/5/5 1/10/5
f 3/2/6 7/3/6 4/11/6
f 7/3/6 3/2/6 6/1/6
f 11/3/1 10/2/1 9/1/1
f 10/3/1 11/2/1 12/1/1
f 13/3/2 11/2/2 9/1/2
f 11/3/2 13/2/2 14/1/2
f 15/5/3 10/5/3 12/12/3
f 10/5/3 15/5/3 16/13/3
f 15/5/4 13/5/4 16/14/4
f 13/5/4 15/5/4 14/15/4
f 13/5/5 10/5/5 16/16/5
f 10/5/5 13/5/5 9/17/5
f 11/2/6 15/3/6 12/11/6
f 15/3/6 11/2/6 14/1/6
f 3/3/1 2/2/1 1/1/1
f 2/3/1 3/2/1 4/1/1
f 5/3/2 3/2/2 1/1/2
f 3/3/2 5/2/2 6/1/2
f 7/5/3 2/5/3 4/4/3
f 2/5/3 7/5/3 8/6/3
f 7/5/4 5/5/4 8/7/4
f 5/5/4 7/5/4 6/8/4
f 5/5/5 2/5/5 8/9/5
f 2/5/5 5/5/5 1/10/5
f 3/2/6 7/3/6 4/11/6
f 7/3/6 3/2/6 6/1/6
f 19/3/1 18/2/1 17/1/1
f 18/3/1 19/2/1 20/1/1
f 21/3/2 19/2/2 17/1/2
f 19/3/2 21/2/2 22/1/2
f 23/5/3 18/5/3 20/18/3
f 18/5/3 23/5/3 24/19/3
f 23/5/4 21/5/4 24/20/4
f 21/5/4 23/5/4 22/21/4
f 21/5/5 18/5/5 24/22/5
f 18/5/5 21/5/5 17/23/5
f 19/2/6 23/3/6 20/11/6
f 23/3/6 19/2/6 22/1/6
f 27/3/1 26/2/1 25/1/1
f 26/3/1 27/2/1 28/1/1
f 29/3/2 27/2/2 25/1/2
f 27/3/2 29/2/2 30/1/2
f 31/5/3 26/5/3 28/24/3
f 26/5/3 31/5/3 32/25/3
f 31/5/4 29/5/4 32/26/4
f 29/5/4 31/5/4 30/27/4
f 29/5/5 26/5/5 32/28/5
f 26/5/5 29/5/5 25/29/5
f 27/2/6 31/3/6 28/11/6
f 31/3/6 27/2/6 30/1/6
f 35/3/1 34/2/1 33/1/1
f 34/3/1 35/2/1 36/1/1
f 37/3/2 35/2/2 33/1/2
f 35/3/2 37/2/2 38/1/2
f 39/5/3 34/5/3 36/30/3
f 34/5/3 39/5/3 40/31/3
f 39/5/4 37/5/4 40/32/4
f 37/5/4 39/5/4 38/33/4
f 37/5/5 34/5/5 40/34/5
f 34/5/5 37/5/5 33/35/5
f 35/2/6 39/3/6 36/11/6
f 39/3/6 35/2/6 38/1/6
f 43/3/1 42/2/1 41/1/1
f 42/3/1 43/2/1 44/1/1
f 45/3/2 43/2/2 41/1/2
f 43/3/2 45/2/2 46/1/2
f 47/5/3 42/5/3 44/36/3
f 42/5/3 47/5/3 48/37/3
f 47/5/4 45/5/4 48/38/4
f 45/5/4 47/5/4 46/39/4
f 45/5/5 42/5/5 48/40/5
f 42/5/5 45/5/5 41/41/5
f 43/2/6 47/3/6 44/11/6
f 47/3/6 43/2/6 46/1/6
f 51/3/1 50/2/1 49/1/1
f 50/3/1 51/2/1 52/1/1
f 53/3/2 51/2/2 49/1/2
f 51/3/2 53/2/2 54/1/2
f 55/5/3 50/5/3 52/42/3
f 50/5/3 55/5/3 56/43/3
f 55/5/4 53/5/4 56/44/4
f 53/5/4 55/5/4 54/45/4
f 53/5/5 50/5/5 56/46/5
f 50/5/5 53/5/5 49/47/5
f 51/2/6 55/3/6 52/11/6
f 55/3/6 51/2/6 54/1/6
f 55/3/1 57/2/1 56/1/1
f 57/3/1 55/2/1 58/1/1
f 59/3/2 55/2/2 56/1/2
f 55/3/2 59/2/2 60/1/2
f 61/5/3 57/5/3 58/48/3
f 57/5/3 61/5/3 62/49/3
f 61/5/4 59/5/4 62/50/4
f 59/5/4 61/5/4 60/51/4
f 59/5/5 57/5/5 62/52/5
f 57/5/5 59/5/5 56/46/5
f 55/2/6 61/3/6 58/11/6
f 61/3/6 55/2/6 60/1/6
f 65/3/1 64/2/1 63/1/1
f 64/3/1 65/2/1 66/1/1
f 67/3/2 65/2/2 63/1/2
f 65/3/2 67/2/2 68/1/2
f 69/5/3 64/5/3 66/53/3
f 64/5/3 69/5/3 70/54/3
f 69/5/4 67/5/4 70/55/4
f 67/5/4 69/5/4 68/56/4
f 67/5/5 64/5/5 70/57/5
f 64/5/5 67/5/5 63/58/5
f 65/2/6 69/3/6 66/11/6
f 69/3/6 65/2/6 68/1/6
f 73/3/1 72/2/1 71/1/1
f 72/3/1 73/2/1 74/1/1
f 75/3/2 73/2/2 71/1/2
f 73/3/2 75/2/2 76/1/2
f 77/5/3 72/5/3 74/59/3
f 72/5/3 77/5/3 78/60/3
f 77/5/4 75/5/4 78/61/4
f 75/5/4 77/5/4 76/62/4
f 75/5/5 72/5/5 78/63/5
f 72/5/5 75/5/5 71/64/5
f 73/2/6 77/3/6 74/11/6
f 77/3/6 73/2/6 76/1/6
f 81/3/1 80/2/1 79/1/1
f 80/3/1 81/2/1 82/1/1
f 83/3/2 81/2/2 79/1/2
f 81/3/2 83/2/2 84/1/2
f 85/5/3 80/5/3 82/65/3
f 80/5/3 85/5/3 86/66/3
f 85/5/4 83/5/4 86/67/4
f 83/5/4 85/5/4 84/68/4
f 83/5/5 80/5/5 86/69/5
f 80/5/5 83/5/5 79/70/5
f 81/2/6 85/3/6 82/11/6
f 85/3/6 81/2/6 84/1/6
f 85/3/1 87/2/1 86/1/1
f 87/3/1 85/2/1 88/1/1
f 89/3/2 85/2/2 86/1/2
f 85/3/2 89/2/2 90/1/2
f 91/5/3 87/5/3 88/71/3
f 87/5/3 91/5/3 92/72/3
f 91/5/4 89/5/4 92/73/4
f 89/5/4 91/5/4 90/74/4
f 89/5/5 87/5/5 92/75/5
f 87/5/5 89/5/5 86/69/5
f 85/2/6 91/3/6 88/11/6
f 91/3/6 85/2/6 90/1/6
f 95/3/1 94/2/1 93/1/1
f 94/3/1 95/2/1 96/1/1
f 87/3/2 95/2/2 93/1/2
f 95/3/2 87/2/2 88/1/2
f 97/5/3 94/5/3 96/76/3
f 94/5/3 97/5/3 98/77/3
f 97/5/4 87/5/4 98/78/4
f 87/5/4 97/5/4 88/79/4
f 87/5/5 94/5/5 98/80/5
f 94/5/5 87/5/5 93/81/5
f 95/2/6 97/3/6 96/11/6
f 97/3/6 95/2/6 88/1/6

usemtl color7

f 101/3/1 100/2/1 99/1/1
f 100/3/1 101/2/1 102/1/1
f 103/3/2 101/2/2 99/1/2
f 101/3/2 103/2/2 104/1/2
f 105/5/3 100/5/3 102/82/3
f 100/5/3 105/5/3 106/83/3
f 105/5/4 103/5/4 106/84/4
f 103/5/4 105/5/4 104/85/4
f 103/5/5 100/5/5 106/86/5
f 100/5/5 103/5/5 99/87/5
f 101/2/6 105/3/6 102/11/6
f 105/3/6 101/2/6 104/1/6
f 105/3/1 107/2/1 106/1/1
f 107/3/1 105/2/1 108/1/1
f 109/3/2 105/2/2 106/1/2
f 105/3/2 109/2/2 110/1/2
f 111/5/3 107/5/3 108/88/3
f 107/5/3 111/5/3 112/89/3
f 111/5/4 109/5/4 112/90/4
f 109/5/4 111/5/4 110/91/4
f 109/5/5 107/5/5 112/92/5
f 107/5/5 109/5/5 106/86/5
f 105/2/6 111/3/6 108/11/6
f 111/3/6 105/2/6 110/1/6
f 115/3/1 114/2/1 113/1/1
f 114/3/1 115/2/1 116/1/1
f 117/3/2 115/2/2 113/1/2
f 115/3/2 117/2/2 118/1/2
f 119/5/3 114/5/3 116/93/3
f 114/5/3 119/5/3 120/94/3
f 119/5/4 117/5/4 120/95/4
f 117/5/4 119/5/4 118/96/4
f 117/5/5 114/5/5 120/97/5
f 114/5/5 117/5/5 113/98/5
f 115/2/6 119/3/6 116/11/6
f 119/3/6 115/2/6 118/1/6
f 123/3/1 122/2/1 121/1/1
f 122/3/1 123/2/1 124/1/1
f 125/3/2 123/2/2 121/1/2
f 123/3/2 125/2/2 126/1/2
f 127/5/3 122/5/3 124/99/3
f 122/5/3 127/5/3 128/100/3
f 127/5/4 125/5/4 128/101/4
f 125/5/4 127/5/4 126/102/4
f 125/5/5 122/5/5 128/103/5
f 122/5/5 125/5/5 121/104/5
f 123/2/6 127/3/6 124/11/6
f 127/3/6 123/2/6 126/1/6
f 131/3/1 130/2/1 129/1/1
f 130/3/1 131/2/1 132/1/1
f 133/3/2 131/2/2 129/1/2
f 131/3/2 133/2/2 134/1/2
f 135/5/3 130/5/3 132/105/3
f 130/5/3 135/5/3 136/106/3
f 135/5/4 133/5/4 136/107/4
f 133/5/4 135/5/4 134/108/4
f 133/5/5 130/5/5 136/109/5
f 130/5/5 133/5/5 129/110/5
f 131/2/6 135/3/6 132/11/6
f 135/3/6 131/2/6 134/1/6
f 139/3/1 138/2/1 137/1/1
f 138/3/1 139/2/1 140/1/1
f 130/3/2 139/2/2 137/1/2
f 139/3/2 130/2/2 132/1/2
f 141/5/3 138/5/3 140/111/3
f 138/5/3 141/5/3 142/112/3
f 141/5/4 130/5/4 142/113/4
f 130/5/4 141/5/4 132/114/4
f 130/5/5 138/5/5 142/115/5
f 138/5/5 130/5/5 137/116/5
f 139/2/6 141/3/6 140/11/6
f 141/3/6 139/2/6 132/1/6
f 145/3/1 144/2/1 143/1/1
f 144/3/1 145/2/1 146/1/1
f 147/3/2 145/2/2 143/1/2
f 145/3/2 147/2/2 148/1/2
f 149/5/3 144/5/3 146/117/3
f 144/5/3 149/5/3 150/118/3
f 149/5/4 147/5/4 150/119/4
f 147/5/4 149/5/4 148/120/4
f 147/5/5 144/5/5 150/121/5
f 144/5/5 147/5/5 143/122/5
f 145/2/6 149/3/6 146/11/6
f 149/3/6 145/2/6 148/1/6

usemtl color18

f 104/3/1 106/2/1 103/1/1
f 106/3/1 104/2/1 105/1/1
f 151/3/2 104/2/2 103/1/2
f 104/3/2 151/2/2 152/1/2
f 110/5/3 106/83/3 105/5/3
f 106/83/3 110/5/3 109/123/3
f 110/91/4 151/5/4 109/5/4
f 151/5/4 110/91/4 152/124/4
f 151/5/5 106/86/5 109/5/5
f 106/86/5 151/5/5 103/5/5
f 104/2/6 110/3/6 105/11/6
f 110/3/6 104/2/6 152/1/6
f 154/3/1 113/2/1 153/1/1
f 113/3/1 154/2/1 115/1/1
f 155/3/2 154/2/2 153/1/2
f 154/3/2 155/2/2 156/1/2
f 118/5/3 113/5/3 115/125/3
f 113/5/3 118/5/3 117/126/3
f 118/96/4 155/5/4 117/5/4
f 155/5/4 118/96/4 156/127/4
f 155/5/5 113/98/5 117/5/5
f 113/98/5 155/5/5 153/128/5
f 154/2/6 118/3/6 115/11/6
f 118/3/6 154/2/6 156/1/6
f 158/3/1 121/2/1 157/1/1
f 121/3/1 158/2/1 123/1/1
f 159/3/2 158/2/2 157/1/2
f 158/3/2 159/2/2 160/1/2
f 161/5/3 121/5/3 123/129/3
f 121/5/3 161/5/3 162/130/3
f 161/5/4 159/5/4 162/131/4
f 159/5/4 161/5/4 160/132/4
f 159/5/5 121/104/5 162/133/5
f 121/104/5 159/5/5 157/134/5
f 158/2/6 161/3/6 123/11/6
f 161/3/6 158/2/6 160/1/6

usemtl color3

f 164/3/1 17/2/1 163/1/1
f 17/3/1 164/2/1 19/1/1
f 165/3/2 164/2/2 163/1/2
f 164/3/2 165/2/2 166/1/2
f 22/5/3 17/5/3 19/135/3
f 17/5/3 22/5/3 21/136/3
f 22/21/4 165/5/4 21/5/4
f 165/5/4 22/21/4 166/137/4
f 165/5/5 17/23/5 21/5/5
f 17/23/5 165/5/5 163/138/5
f 164/2/6 22/3/6 19/11/6
f 22/3/6 164/2/6 166/1/6
f 168/3/1 25/2/1 167/1/1
f 25/3/1 168/2/1 27/1/1
f 169/3/2 168/2/2 167/1/2
f 168/3/2 169/2/2 170/1/2
f 30/5/3 25/5/3 27/139/3
f 25/5/3 30/5/3 29/140/3
f 30/27/4 169/5/4 29/5/4
f 169/5/4 30/27/4 170/141/4
f 169/5/5 25/29/5 29/5/5
f 25/29/5 169/5/5 167/142/5
f 168/2/6 30/3/6 27/11/6
f 30/3/6 168/2/6 170/1/6
f 173/3/1 172/2/1 171/1/1
f 172/3/1 173/2/1 174/1/1
f 18/3/2 173/2/2 171/1/2
f 173/3/2 18/2/2 20/1/2
f 51/5/3 172/5/3 174/143/3
f 172/5/3 51/5/3 49/144/3
f 51/5/4 18/5/4 49/145/4
f 18/5/4 51/5/4 20/146/4
f 18/5/5 172/5/5 49/47/5
f 172/5/5 18/5/5 171/147/5
f 173/2/6 51/3/6 174/11/6
f 51/3/6 173/2/6 20/1/6
f 23/3/1 53/2/1 24/1/1
f 53/3/1 23/2/1 54/1/1
f 41/3/2 23/2/2 24/1/2
f 23/3/2 41/2/2 43/1/2
f 44/36/3 53/5/3 54/148/3
f 53/5/3 44/36/3 42/5/3
f 44/5/4 41/5/4 42/149/4
f 41/5/4 44/5/4 43/150/4
f 41/41/5 53/5/5 42/5/5
f 53/5/5 41/41/5 24/22/5
f 23/2/6 44/3/6 54/11/6
f 44/3/6 23/2/6 43/1/6
f 176/3/1 63/2/1 175/1/1
f 63/3/1 176/2/1 65/1/1
f 177/3/2 176/2/2 175/1/2
f 176/3/2 177/2/2 178/1/2
f 76/5/3 63/5/3 65/151/3
f 63/5/3 76/5/3 75/152/3
f 76/62/4 177/5/4 75/5/4
f 177/5/4 76/62/4 178/153/4
f 177/5/5 63/58/5 75/5/5
f 63/58/5 177/5/5 175/154/5
f 176/2/6 76/3/6 65/11/6
f 76/3/6 176/2/6 178/1/6
f 52/3/1 83/2/1 50/1/1
f 83/3/1 52/2/1 84/1/1
f 56/3/2 52/2/2 50/1/2
f 52/3/2 56/2/2 55/1/2
f 58/48/3 83/5/3 84/155/3
f 83/5/3 58/48/3 57/5/3
f 58/5/4 56/44/4 57/156/4
f 56/44/4 58/5/4 55/5/4
f 56/46/5 83/5/5 57/5/5
f 83/5/5 56/46/5 50/5/5
f 52/2/6 58/3/6 84/11/6
f 58/3/6 52/2/6 55/1/6
f 82/3/1 93/2/1 80/1/1
f 93/3/1 82/2/1 95/1/1
f 86/3/2 82/2/2 80/1/2
f 82/3/2 86/2/2 85/1/2
f 88/71/3 93/5/3 95/157/3
f 93/5/3 88/71/3 87/5/3
f 88/79/4 86/67/4 87/5/4
f 86/67/4 88/79/4 85/5/4
f 86/69/5 93/81/5 87/5/5
f 93/81/5 86/69/5 80/5/5
f 82/2/6 88/3/6 95/11/6
f 88/3/6 82/2/6 85/1/6
f 181/3/1 180/2/1 179/1/1
f 180/3/1 181/2/1 182/1/1
f 183/3/2 181/2/2 179/1/2
f 181/3/2 183/2/2 184/1/2
f 185/5/3 180/5/3 182/158/3
f 180/5/3 185/5/3 186/159/3
f 185/5/4 183/5/4 186/160/4
f 183/5/4 185/5/4 184/161/4
f 183/5/5 180/5/5 186/162/5
f 180/5/5 183/5/5 179/163/5
f 181/2/6 185/3/6 182/11/6
f 185/3/6 181/2/6 184/1/6

usemtl color19

f 160/3/1 162/2/1 159/1/1
f 162/3/1 160/2/1 161/1/1
f 187/3/2 160/2/2 159/1/2
f 160/3/2 187/2/2 188/1/2
f 189/5/3 162/130/3 161/5/3
f 162/130/3 189/5/3 190/164/3
f 189/5/4 187/5/4 190/165/4
f 187/5/4 189/5/4 188/166/4
f 187/5/5 162/133/5 190/167/5
f 162/133/5 187/5/5 159/5/5
f 160/2/6 189/3/6 161/11/6
f 189/3/6 160/2/6 188/1/6
f 193/3/1 192/2/1 191/1/1
f 192/3/1 193/2/1 194/1/1
f 195/3/2 193/2/2 191/1/2
f 193/3/2 195/2/2 196/1/2
f 126/5/3 192/5/3 194/168/3
f 192/5/3 126/5/3 125/169/3
f 126/102/4 195/5/4 125/5/4
f 195/5/4 126/102/4 196/170/4
f 195/5/5 192/5/5 125/5/5
f 192/5/5 195/5/5 191/171/5
f 193/2/6 126/3/6 194/11/6
f 126/3/6 193/2/6 196/1/6

usemtl color20

f 188/3/1 190/2/1 187/1/1
f 190/3/1 188/2/1 189/1/1
f 191/3/2 188/2/2 187/1/2
f 188/3/2 191/2/2 193/1/2
f 194/168/3 190/164/3 189/5/3
f 190/164/3 194/168/3 192/5/3
f 194/5/4 191/5/4 192/172/4
f 191/5/4 194/5/4 193/173/4
f 191/171/5 190/167/5 192/5/5
f 190/167/5 191/171/5 187/5/5
f 188/2/6 194/3/6 189/11/6
f 194/3/6 188/2/6 193/1/6

usemtl color8

f 102/3/1 197/2/1 100/1/1
f 197/3/1 102/2/1 198/1/1
f 106/3/2 102/2/2 100/1/2
f 102/3/2 106/2/2 105/1/2
f 108/88/3 197/5/3 198/174/3
f 197/5/3 108/88/3 107/5/3
f 108/5/4 106/84/4 107/175/4
f 106/84/4 108/5/4 105/5/4
f 106/86/5 197/5/5 107/5/5
f 197/5/5 106/86/5 100/5/5
f 102/2/6 108/3/6 198/11/6
f 108/3/6 102/2/6 105/1/6
f 201/3/1 200/2/1 199/1/1
f 200/3/1 201/2/1 202/1/1
f 203/3/2 201/2/2 199/1/2
f 201/3/2 203/2/2 204/1/2
f 205/5/3 200/5/3 202/176/3
f 200/5/3 205/5/3 206/177/3
f 205/5/4 203/5/4 206/178/4
f 203/5/4 205/5/4 204/179/4
f 203/5/5 200/5/5 206/180/5
f 200/5/5 203/5/5 199/181/5
f 201/2/6 205/3/6 202/11/6
f 205/3/6 201/2/6 204/1/6
f 134/3/1 136/2/1 133/1/1
f 136/3/1 134/2/1 135/1/1
f 207/3/2 134/2/2 133/1/2
f 134/3/2 207/2/2 208/1/2
f 209/5/3 136/106/3 135/5/3
f 136/106/3 209/5/3 210/182/3
f 209/5/4 207/5/4 210/183/4
f 207/5/4 209/5/4 208/184/4
f 207/5/5 136/109/5 210/185/5
f 136/109/5 207/5/5 133/5/5
f 134/2/6 209/3/6 135/11/6
f 209/3/6 134/2/6 208/1/6
f 213/3/1 212/2/1 211/1/1
f 212/3/1 213/2/1 214/1/1
f 200/3/2 213/2/2 211/1/2
f 213/3/2 200/2/2 202/1/2
f 215/5/3 212/5/3 214/186/3
f 212/5/3 215/5/3 216/187/3
f 215/5/4 200/5/4 216/188/4
f 200/5/4 215/5/4 202/189/4
f 200/5/5 212/5/5 216/190/5
f 212/5/5 200/5/5 211/191/5
f 213/2/6 215/3/6 214/11/6
f 215/3/6 213/2/6 202/1/6

usemtl color0

f 219/3/1 218/2/1 217/1/1
f 218/3/1 219/2/1 220/1/1
f 221/3/2 219/2/2 217/1/2
f 219/3/2 221/2/2 222/1/2
f 223/5/3 218/5/3 220/192/3
f 218/5/3 223/5/3 224/193/3
f 223/5/4 221/5/4 224/194/4
f 221/5/4 223/5/4 222/195/4
f 221/5/5 218/5/5 224/196/5
f 218/5/5 221/5/5 217/197/5
f 219/2/6 223/3/6 220/11/6
f 223/3/6 219/2/6 222/1/6

usemtl color16

f 111/3/1 225/2/1 112/1/1
f 225/3/1 111/2/1 226/1/1
f 114/3/2 111/2/2 112/1/2
f 111/3/2 114/2/2 116/1/2
f 227/5/3 225/5/3 226/198/3
f 225/5/3 227/5/3 228/199/3
f 227/5/4 114/5/4 228/200/4
f 114/5/4 227/5/4 116/201/4
f 114/5/5 225/5/5 228/202/5
f 225/5/5 114/5/5 112/92/5
f 111/2/6 227/3/6 226/11/6
f 227/3/6 111/2/6 116/1/6

usemtl color4

f 39/3/1 199/2/1 40/1/1
f 199/3/1 39/2/1 201/1/1
f 229/3/2 39/2/2 40/1/2
f 39/3/2 229/2/2 230/1/2
f 204/5/3 199/5/3 201/203/3
f 199/5/3 204/5/3 203/204/3
f 204/179/4 229/5/4 203/5/4
f 229/5/4 204/179/4 230/205/4
f 229/5/5 199/181/5 203/5/5
f 199/181/5 229/5/5 40/34/5
f 39/2/6 204/3/6 201/11/6
f 204/3/6 39/2/6 230/1/6
f 233/3/1 232/2/1 231/1/1
f 232/3/1 233/2/1 234/1/1
f 235/3/2 233/2/2 231/1/2
f 233/3/2 235/2/2 236/1/2
f 208/5/3 232/5/3 234/206/3
f 232/5/3 208/5/3 207/207/3
f 208/184/4 235/5/4 207/5/4
f 235/5/4 208/184/4 236/208/4
f 235/5/5 232/5/5 207/5/5
f 232/5/5 235/5/5 231/209/5
f 233/2/6 208/3/6 234/11/6
f 208/3/6 233/2/6 236/1/6
f 140/3/1 143/2/1 138/1/1
f 143/3/1 140/2/1 145/1/1
f 142/3/2 140/2/2 138/1/2
f 140/3/2 142/2/2 141/1/2
f 148/5/3 143/5/3 145/210/3
f 143/5/3 148/5/3 147/211/3
f 148/120/4 142/113/4 147/5/4
f 142/113/4 148/120/4 141/5/4
f 142/115/5 143/122/5 147/5/5
f 143/122/5 142/115/5 138/5/5
f 140/2/6 148/3/6 145/11/6
f 148/3/6 140/2/6 141/1/6
f 214/3/1 237/2/1 212/1/1
f 237/3/1 214/2/1 238/1/1
f 216/3/2 214/2/2 212/1/2
f 214/3/2 216/2/2 215/1/2
f 239/5/3 237/5/3 238/212/3
f 237/5/3 239/5/3 240/213/3
f 239/5/4 216/188/4 240/214/4
f 216/188/4 239/5/4 215/5/4
f 216/190/5 237/5/5 240/215/5
f 237/5/5 216/190/5 212/5/5
f 214/2/6 239/3/6 238/11/6
f 239/3/6 214/2/6 215/1/6

usemtl color6

f 54/3/1 56/2/1 53/1/1
f 56/3/1 54/2/1 55/1/1
f 241/3/2 54/2/2 53/1/2
f 54/3/2 241/2/2 242/1/2
f 60/5/3 56/43/3 55/5/3
f 56/43/3 60/5/3 59/216/3
f 60/51/4 241/5/4 59/5/4
f 241/5/4 60/51/4 242/217/4
f 241/5/5 56/46/5 59/5/5
f 56/46/5 241/5/5 53/5/5
f 54/2/6 60/3/6 55/11/6
f 60/3/6 54/2/6 242/1/6
f 84/3/1 86/2/1 83/1/1
f 86/3/1 84/2/1 85/1/1
f 57/3/2 84/2/2 83/1/2
f 84/3/2 57/2/2 58/1/2
f 90/5/3 86/66/3 85/5/3
f 86/66/3 90/5/3 89/218/3
f 90/74/4 57/156/4 89/5/4
f 57/156/4 90/74/4 58/5/4
f 57/5/5 86/69/5 89/5/5
f 86/69/5 57/5/5 83/5/5
f 84/2/6 90/3/6 85/11/6
f 90/3/6 84/2/6 58/1/6
f 88/3/1 98/2/1 87/1/1
f 98/3/1 88/2/1 97/1/1
f 92/3/2 88/2/2 87/1/2
f 88/3/2 92/2/2 91/1/2
f 181/5/3 98/77/3 97/5/3
f 98/77/3 181/5/3 179/219/3
f 181/5/4 92/73/4 179/220/4
f 92/73/4 181/5/4 91/5/4
f 92/75/5 98/80/5 179/163/5
f 98/80/5 92/75/5 87/5/5
f 88/2/6 181/3/6 97/11/6
f 181/3/6 88/2/6 91/1/6

usemtl color12

f 245/3/1 244/2/1 243/1/1
f 244/3/1 245/2/1 246/1/1
f 247/3/2 245/2/2 243/1/2
f 245/3/2 247/2/2 248/1/2
f 249/5/3 244/5/3 246/221/3
f 244/5/3 249/5/3 250/222/3
f 249/5/4 247/5/4 250/223/4
f 247/5/4 249/5/4 248/224/4
f 247/5/5 244/5/5 250/225/5
f 244/5/5 247/5/5 243/226/5
f 245/2/6 249/3/6 246/11/6
f 249/3/6 245/2/6 248/1/6

usemtl color13

f 248/3/1 250/2/1 247/1/1
f 250/3/1 248/2/1 249/1/1
f 48/3/2 248/2/2 247/1/2
f 248/3/2 48/2/2 47/1/2
f 251/5/3 250/222/3 249/5/3
f 250/222/3 251/5/3 252/227/3
f 251/5/4 48/38/4 252/228/4
f 48/38/4 251/5/4 47/5/4
f 48/40/5 250/225/5 252/229/5
f 250/225/5 48/40/5 247/5/5
f 248/2/6 251/3/6 249/11/6
f 251/3/6 248/2/6 47/1/6

usemtl color14

f 47/3/1 252/2/1 48/1/1
f 252/3/1 47/2/1 251/1/1
f 253/3/2 47/2/2 48/1/2
f 47/3/2 253/2/2 254/1/2
f 255/5/3 252/227/3 251/5/3
f 252/227/3 255/5/3 256/230/3
f 255/5/4 253/5/4 256/231/4
f 253/5/4 255/5/4 254/232/4
f 253/5/5 252/229/5 256/233/5
f 252/229/5 253/5/5 48/40/5
f 47/2/6 255/3/6 251/11/6
f 255/3/6 47/2/6 254/1/6

usemtl color15

f 254/3/1 256/2/1 253/1/1
f 256/3/1 254/2/1 255/1/1
f 257/3/2 254/2/2 253/1/2
f 254/3/2 257/2/2 258/1/2
f 259/5/3 256/230/3 255/5/3
f 256/230/3 259/5/3 260/234/3
f 259/5/4 257/5/4 260/235/4
f 257/5/4 259/5/4 258/236/4
f 257/5/5 256/233/5 260/237/5
f 256/233/5 257/5/5 253/5/5
f 254/2/6 259/3/6 255/11/6
f 259/3/6 254/2/6 258/1/6

usemtl color9

f 263/3/1 262/2/1 261/1/1
f 262/3/1 263/2/1 264/1/1
f 265/3/2 263/2/2 261/1/2
f 263/3/2 265/2/2 266/1/2
f 267/5/3 262/5/3 264/238/3
f 262/5/3 267/5/3 268/239/3
f 267/5/4 265/5/4 268/240/4
f 265/5/4 267/5/4 266/241/4
f 265/5/5 262/5/5 268/242/5
f 262/5/5 265/5/5 261/243/5
f 263/2/6 267/3/6 264/11/6
f 267/3/6 263/2/6 266/1/6
f 246/3/1 269/2/1 244/1/1
f 269/3/1 246/2/1 270/1/1
f 250/3/2 246/2/2 244/1/2
f 246/3/2 250/2/2 249/1/2
f 271/5/3 269/5/3 270/244/3
f 269/5/3 271/5/3 272/245/3
f 271/5/4 250/223/4 272/246/4
f 250/223/4 271/5/4 249/5/4
f 250/225/5 269/5/5 272/247/5
f 269/5/5 250/225/5 244/5/5
f 246/2/6 271/3/6 270/11/6
f 271/3/6 246/2/6 249/1/6
f 251/3/1 273/2/1 252/1/1
f 273/3/1 251/2/1 274/1/1
f 256/3/2 251/2/2 252/1/2
f 251/3/2 256/2/2 255/1/2
f 275/5/3 273/5/3 274/248/3
f 273/5/3 275/5/3 276/249/3
f 275/5/4 256/231/4 276/250/4
f 256/231/4 275/5/4 255/5/4
f 256/233/5 273/5/5 276/251/5
f 273/5/5 256/233/5 252/229/5
f 251/2/6 275/3/6 274/11/6
f 275/3/6 251/2/6 255/1/6

usemtl color10

f 249/3/1 272/2/1 250/1/1
f 272/3/1 249/2/1 271/1/1
f 252/3/2 249/2/2 250/1/2
f 249/3/2 252/2/2 251/1/2
f 274/248/3 272/245/3 271/5/3
f 272/245/3 274/248/3 273/5/3
f 274/5/4 252/228/4 273/252/4
f 252/228/4 274/5/4 251/5/4
f 252/229/5 272/247/5 273/5/5
f 272/247/5 252/229/5 250/225/5
f 249/2/6 274/3/6 271/11/6
f 274/3/6 249/2/6 251/1/6

usemtl color11

f 255/3/1 276/2/1 256/1/1
f 276/3/1 255/2/1 275/1/1
f 260/3/2 255/2/2 256/1/2
f 255/3/2 260/2/2 259/1/2
f 277/5/3 276/249/3 275/5/3
f 276/249/3 277/5/3 278/253/3
f 277/5/4 260/235/4 278/254/4
f 260/235/4 277/5/4 259/5/4
f 260/237/5 276/251/5 278/255/5
f 276/251/5 260/237/5 256/233/5
f 255/2/6 277/3/6 275/11/6
f 277/3/6 255/2/6 259/1/6

usemtl color2

f 96/3/1 279/2/1 94/1/1
f 279/3/1 96/2/1 280/1/1
f 179/3/2 96/2/2 94/1/2
f 96/3/2 179/2/2 181/1/2
f 182/158/3 279/5/3 280/256/3
f 279/5/3 182/158/3 180/5/3
f 182/5/4 179/220/4 180/257/4
f 179/220/4 182/5/4 181/5/4
f 179/163/5 279/5/5 180/5/5
f 279/5/5 179/163/5 94/5/5
f 96/2/6 182/3/6 280/11/6
f 182/3/6 96/2/6 181/1/6

