# Created by Kenney (www.kenney.nl)

mtllib Revolver 3P8 Plakill.mtl

v 6 5 -0.5
v 6 4 -0.5
v 6 5 0.5
v 6 4 0.5
v 5 5 -0.5
v 5 5 0.5
v 5 4 0.5
v 5 4 -0.5
v -8 5 -0.5
v -8 4 -0.5
v -8 5 0.5
v -8 4 0.5
v -9 5 -0.5
v -9 5 0.5
v -9 4 0.5
v -9 4 -0.5
v -8 2 -0.5
v -8 1 -0.5
v -8 2 0.5
v -8 1 0.5
v -9 2 -0.5
v -9 2 0.5
v -9 1 0.5
v -9 1 -0.5
v 7 1 -1
v 7 0 -1
v 7 1 1
v 7 0 1
v 6 1 -1
v 6 1 1
v 6 0 1
v 6 0 -1
v 3 1 -2
v 3 0 -2
v 3 1 2
v 3 0 2
v 2 1 -2
v 2 1 2
v 2 0 2
v 2 0 -2
v 8 0 -1
v 8 -1 -1
v 8 0 1
v 8 -1 1
v 7 -1 1
v 7 -1 -1
v 9 -1 -1
v 9 -2 -1
v 9 -1 1
v 9 -2 1
v 8 -2 1
v 8 -2 -1
v -10 5 -0.5
v -10 5 0.5
v -10 4 0.5
v -10 4 -0.5
v 1 3 -1
v 1 2 -1
v 1 3 1
v 1 2 1
v -6 3 -1
v -6 3 1
v -6 2 1
v -6 2 -1
v -7 3 -1
v -7 2 -1
v -7 3 1
v -7 2 1
v -11 3 -1
v -11 3 1
v -11 2 1
v -11 2 -1
v 6 2 -1.5
v 6 1 -1.5
v 6 2 1.5
v 6 1 1.5
v 5 2 -1.5
v 5 2 1.5
v 5 1 1.5
v 5 1 -1.5
v 5 1 -2
v 5 0 -2
v 5 1 2
v 5 0 2
v 1 0 -1
v 1 -1 -1
v 1 0 1
v 1 -1 1
v -1 0 -1
v -1 0 1
v -1 -1 1
v -1 -1 -1
v -3 0 -1
v -3 -1 -1
v -3 0 1
v -3 -1 1
v -4 0 -1
v -4 0 1
v -4 -1 1
v -4 -1 -1
v -6 0 -1
v -6 -1 -1
v -6 0 1
v -6 -1 1
v -7 0 -1
v -7 0 1
v -7 -1 1
v -7 -1 -1
v -9 0 -1
v -9 -1 -1
v -9 0 1
v -9 -1 1
v -11 0 -1
v -11 0 1
v -11 -1 1
v -11 -1 -1
v 8 4 -0.5
v 8 3 -0.5
v 8 4 0.5
v 8 3 0.5
v 7 4 -0.5
v 7 4 0.5
v 7 3 0.5
v 7 3 -0.5
v -10 4 -1
v -10 3 -1
v -10 4 1
v -10 3 1
v -11 4 -1
v -11 4 1
v 5 3 -2
v 5 2 -2
v 5 3 2
v 5 2 2
v 3 3 -2
v 3 3 2
v 3 2 2
v 3 2 -2
v 3 2 -2.5
v 3 1 -2.5
v 3 2 2.5
v 3 1 2.5
v 2 2 -2.5
v 2 2 2.5
v 2 1 2.5
v 2 1 -2.5
v -10 1 -1
v -10 0 -1
v -10 1 1
v -10 0 1
v -11 1 -1
v -11 1 1
v 11 -3 -0.5
v 11 -4 -0.5
v 11 -3 0.5
v 11 -4 0.5
v 10 -3 -0.5
v 10 -3 0.5
v 10 -4 0.5
v 10 -4 -0.5
v 10 -3 -1
v 10 -4 -1
v 10 -3 1
v 10 -4 1
v 8 -3 -1
v 8 -3 1
v 8 -4 1
v 8 -4 -1
v 6 4 -1.5
v 6 4 1.5
v 5 4 -1.5
v 5 4 1.5
v 5 3 -1.5
v 5 3 1.5
v 1 4 -1.5
v 1 4 1.5
v 1 3 1.5
v 1 3 -1.5
v 1 4 -1
v 1 4 1
v 0 4 -1
v 0 4 1
v 0 3 1
v 0 3 -1
v 2 3 -1.5
v 2 2 -1.5
v 2 3 1.5
v 2 2 1.5
v 1 2 1.5
v 1 2 -1.5
v -3 2 -0.5
v -3 1 -0.5
v -3 2 0.5
v -3 1 0.5
v 9 1 -0.5
v 9 0 -0.5
v 9 1 0.5
v 9 0 0.5
v 7 1 -0.5
v 7 1 0.5
v 7 0 0.5
v 7 0 -0.5
v 6 0 -1.5
v 6 0 1.5
v 5 0 1.5
v 5 0 -1.5
v 10 0 -0.5
v 10 -1 -0.5
v 10 0 0.5
v 10 -1 0.5
v 9 -1 0.5
v 9 -1 -0.5
v 6 -1 1
v 6 -1 -1
v 2 0 -1.5
v 2 -1 -1.5
v 2 0 1.5
v 2 -1 1.5
v 1 0 -1.5
v 1 0 1.5
v 1 -1 1.5
v 1 -1 -1.5
v 11 -1 -0.5
v 11 -1 0.5
v 7 -2 1
v 7 -2 -1
v 2 -1 -1
v 2 -2 -1
v 2 -1 1
v 2 -2 1
v 1 -2 1
v 1 -2 -1
v 1 -1 -0.5
v 1 -2 -0.5
v 1 -1 0.5
v 1 -2 0.5
v -1 -1 -0.5
v -1 -1 0.5
v -1 -2 0.5
v -1 -2 -0.5
v 9 -3 -1
v 9 -3 1
v -1 4 -1
v -1 4 1
v -1 3 1
v -1 3 -1
v 2 3 -2
v 2 3 2
v 2 2 2
v 2 2 -2
v 0 1 -1
v 0 0 -1
v 0 1 1
v 0 0 1
v -1 1 -1
v -1 1 1
v 9 0 -1
v 9 0 1
v 10 -1 -1
v 10 -2 -1
v 10 -1 1
v 10 -2 1
v -1 4 -0.5
v -1 3 -0.5
v -1 4 0.5
v -1 3 0.5
v -2 4 -0.5
v -2 4 0.5
v -2 3 0.5
v -2 3 -0.5
v -4 4 -0.5
v -4 3 -0.5
v -4 4 0.5
v -4 3 0.5
v -5 4 -0.5
v -5 4 0.5
v -5 3 0.5
v -5 3 -0.5
v -7 4 -0.5
v -7 3 -0.5
v -7 4 0.5
v -7 3 0.5
v -8 3 0.5
v -8 3 -0.5
v 2 1 -1.5
v 2 1 1.5
v 1 1 -1.5
v 1 1 1.5
v 6 -1 -1.5
v 6 -1 1.5
v 5 -1 1.5
v 5 -1 -1.5
v -1 0 -0.5
v -1 0 0.5
v -2 0 -0.5
v -2 0 0.5
v -2 -1 0.5
v -2 -1 -0.5
v -4 0 -0.5
v -4 -1 -0.5
v -4 0 0.5
v -4 -1 0.5
v -5 0 -0.5
v -5 0 0.5
v -5 -1 0.5
v -5 -1 -0.5
v -7 0 -0.5
v -7 -1 -0.5
v -7 0 0.5
v -7 -1 0.5
v -8 0 -0.5
v -8 0 0.5
v -8 -1 0.5
v -8 -1 -0.5
v -3 4 -0.5
v -3 4 0.5
v -3 3 0.5
v -3 3 -0.5
v -6 4 -0.5
v -6 4 0.5
v -6 3 0.5
v -6 3 -0.5
v -9 3 0.5
v -9 3 -0.5
v 7 2 -1.5
v 7 1 -1.5
v 7 2 1.5
v 7 1 1.5
v 1 2 -0.5
v 1 1 -0.5
v 1 2 0.5
v 1 1 0.5
v -2 2 -0.5
v -2 2 0.5
v -2 1 0.5
v -2 1 -0.5
v -3 0 -0.5
v -3 0 0.5
v -3 -1 0.5
v -3 -1 -0.5
v -6 0 -0.5
v -6 0 0.5
v -6 -1 0.5
v -6 -1 -0.5
v -9 0 -0.5
v -9 0 0.5
v -9 -1 0.5
v -9 -1 -0.5
v 7 -1 -0.5
v 7 -2 -0.5
v 7 -1 0.5
v 7 -2 0.5
v 5 -1 -0.5
v 5 -1 0.5
v 5 -2 0.5
v 5 -2 -0.5
v 3 -1 -0.5
v 3 -3 -0.5
v 3 -1 0.5
v 3 -3 0.5
v 2 -1 -0.5
v 2 -1 0.5
v 2 -3 0.5
v 2 -3 -0.5
v 8 -2 -0.5
v 8 -3 -0.5
v 8 -2 0.5
v 8 -3 0.5
v 7 -3 0.5
v 7 -3 -0.5
v 5 -3 -0.5
v 5 -3 0.5
v 3 -2 -0.5
v 3 -2 0.5
v -3 4 -1
v -3 3 -1
v -3 4 1
v -3 3 1
v -4 4 -1
v -4 4 1
v -4 3 1
v -4 3 -1
v -6 4 -1
v -6 4 1
v -7 4 -1
v -7 4 1
v -9 4 -1
v -9 3 -1
v -9 4 1
v -9 3 1
v 5 2 -2.5
v 5 1 -2.5
v 5 2 2.5
v 5 1 2.5
v 7 3 -1
v 7 2 -1
v 7 3 1
v 7 2 1
v 6 3 -1
v 6 3 1
v 6 2 1
v 6 2 -1
v 1 1 -1
v 1 1 1
v 8 -4 -0.5
v 8 -4 0.5
v 7 -4 0.5
v 7 -4 -0.5
v -11 3 -0.5
v -11 2 -0.5
v -11 3 0.5
v -11 2 0.5
v -12 3 -0.5
v -12 3 0.5
v -12 2 0.5
v -12 2 -0.5
v -11 1 -0.5
v -11 0 -0.5
v -11 1 0.5
v -11 0 0.5
v -12 1 -0.5
v -12 1 0.5
v -12 0 0.5
v -12 0 -0.5

vn 1 0 0
vn 0 1 0
vn 0 -1 0
vn -1 0 0
vn 0 0 -1
vn 0 0 1

vt -19.68504 19.68504
vt 19.68504 19.68504
vt -19.68504 -19.68504
vt 0 NaN
vt 0 0
vt 0 NaN
vt 0 NaN
vt 0 NaN
vt 0 NaN
vt 0 NaN
vt 19.68504 -19.68504
vt 0 NaN
vt 0 NaN
vt 0 NaN
vt 0 NaN
vt 0 NaN
vt 0 NaN
vt 0 NaN
vt 0 NaN
vt 0 NaN
vt 0 NaN
vt 0 NaN
vt 0 NaN
vt 0 NaN
vt 0 NaN
vt 0 NaN
vt 0 NaN
vt 0 NaN
vt 0 NaN
vt 0 NaN
vt 0 NaN
vt 0 NaN
vt 0 NaN
vt 0 NaN
vt 0 NaN
vt 0 NaN
vt 0 NaN
vt 0 NaN
vt 0 NaN
vt 0 NaN
vt 0 NaN
vt 0 NaN
vt 0 NaN
vt 0 NaN
vt 0 NaN
vt 0 NaN
vt 0 NaN
vt 0 NaN
vt 0 NaN
vt 0 NaN
vt 0 NaN
vt 0 NaN
vt 0 NaN
vt 0 NaN
vt 0 NaN
vt 0 NaN
vt 0 NaN
vt 0 NaN
vt 0 NaN
vt 0 NaN
vt 0 NaN
vt 0 NaN
vt 0 NaN
vt 0 NaN
vt 0 NaN
vt 0 NaN
vt 0 NaN
vt 0 NaN
vt 0 NaN
vt 0 NaN
vt 0 NaN
vt 0 NaN
vt 0 NaN
vt 0 NaN
vt 0 NaN
vt 0 NaN
vt 0 NaN
vt 0 NaN
vt 0 NaN
vt 0 NaN
vt 0 NaN
vt 0 NaN
vt 0 NaN
vt 0 NaN
vt 0 NaN
vt 0 NaN
vt 0 NaN
vt 0 NaN
vt 0 NaN
vt 0 NaN
vt 0 NaN
vt 0 NaN
vt 0 NaN
vt 0 NaN
vt 0 NaN
vt 0 NaN
vt 0 NaN
vt 0 NaN
vt 0 NaN
vt 0 NaN
vt 0 NaN
vt 0 NaN
vt 0 NaN
vt 0 NaN
vt 0 NaN
vt 0 NaN
vt 0 NaN
vt 0 NaN
vt 0 NaN
vt 0 NaN
vt 0 NaN
vt 0 NaN
vt 0 NaN
vt 0 NaN
vt 0 NaN
vt 0 NaN
vt 0 NaN
vt 0 NaN
vt 0 NaN
vt 0 NaN
vt 0 NaN
vt 0 NaN
vt 0 NaN
vt 0 NaN
vt 0 NaN
vt 0 NaN
vt 0 NaN
vt 0 NaN
vt 0 NaN
vt 0 NaN
vt 0 NaN
vt 0 NaN
vt 0 NaN
vt 0 NaN
vt 0 NaN
vt 0 NaN
vt 0 NaN
vt 0 NaN
vt 0 NaN
vt 0 NaN
vt 0 NaN
vt 0 NaN
vt 0 NaN
vt 0 NaN
vt 0 NaN
vt 0 NaN
vt 0 NaN
vt 0 NaN
vt 0 NaN
vt 0 NaN
vt 0 NaN
vt 0 NaN
vt 0 NaN
vt 0 NaN
vt 0 NaN
vt 0 NaN
vt 0 NaN
vt 0 NaN
vt 0 NaN
vt 0 NaN
vt 0 NaN
vt 0 NaN
vt 0 NaN
vt 0 NaN
vt 0 NaN
vt 0 NaN
vt 0 NaN
vt 0 NaN
vt 0 NaN
vt 0 NaN
vt 0 NaN
vt 0 NaN
vt 0 NaN
vt 0 NaN
vt 0 NaN
vt 0 NaN
vt 0 NaN
vt 0 NaN
vt 0 NaN
vt 0 NaN
vt 0 NaN
vt 0 NaN
vt 0 NaN
vt 0 NaN
vt 0 NaN
vt 0 NaN
vt 0 NaN
vt 0 NaN
vt 0 NaN
vt 0 NaN
vt 0 NaN
vt 0 NaN
vt 0 NaN
vt 0 NaN
vt 0 NaN
vt 0 NaN
vt 0 NaN
vt 0 NaN
vt 0 NaN
vt 0 NaN
vt 0 NaN
vt 0 NaN
vt 0 NaN
vt 0 NaN
vt 0 NaN
vt 0 NaN
vt 0 NaN
vt 0 NaN
vt 0 NaN
vt 0 NaN
vt 0 NaN
vt 0 NaN
vt 0 NaN
vt 0 NaN
vt 0 NaN
vt 0 NaN
vt 0 NaN
vt 0 NaN
vt 0 NaN
vt 0 NaN
vt 0 NaN
vt 0 NaN
vt 0 NaN
vt 0 NaN
vt 0 NaN
vt 0 NaN
vt 0 NaN
vt 0 NaN
vt 0 NaN
vt 0 NaN
vt 0 NaN
vt 0 NaN
vt 0 NaN
vt 0 NaN
vt 0 NaN
vt 0 NaN
vt 0 NaN
vt 0 NaN
vt 0 NaN
vt 0 NaN
vt 0 NaN
vt 0 NaN
vt 0 NaN
vt 0 NaN
vt 0 NaN
vt 0 NaN
vt 0 NaN
vt 0 NaN
vt 0 NaN
vt 0 NaN
vt 0 NaN
vt 0 NaN
vt 0 NaN
vt 0 NaN
vt 0 NaN
vt 0 NaN
vt 0 NaN
vt 0 NaN
vt 0 NaN
vt 0 NaN
vt 0 NaN
vt 0 NaN
vt 0 NaN
vt 0 NaN
vt 0 NaN
vt 0 NaN
vt 0 NaN
vt 0 NaN
vt 0 NaN
vt 0 NaN
vt 0 NaN
vt 0 NaN
vt 0 NaN
vt 0 NaN
vt 0 NaN
vt 0 NaN
vt 0 NaN
vt 0 NaN
vt 0 NaN
vt 0 NaN
vt 0 NaN
vt 0 NaN
vt 0 NaN
vt 0 NaN
vt 0 NaN
vt 0 NaN
vt 0 NaN
vt 0 NaN
vt 0 NaN
vt 0 NaN
vt 0 NaN
vt 0 NaN
vt 0 NaN
vt 0 NaN
vt 0 NaN
vt 0 NaN
vt 0 NaN
vt 0 NaN
vt 0 NaN
vt 0 NaN
vt 0 NaN
vt 0 NaN
vt 0 NaN
vt 0 NaN
vt 0 NaN
vt 0 NaN
vt 0 NaN
vt 0 NaN
vt 0 NaN
vt 0 NaN
vt 0 NaN
vt 0 NaN
vt 0 NaN
vt 0 NaN
vt 0 NaN
vt 0 NaN
vt 0 NaN
vt 0 NaN
vt 0 NaN
vt 0 NaN
vt 0 NaN
vt 0 NaN
vt 0 NaN
vt 0 NaN
vt 0 NaN
vt 0 NaN
vt 0 NaN
vt 0 NaN
vt 0 NaN
vt 0 NaN
vt 0 NaN
vt 0 NaN
vt 0 NaN
vt 0 NaN
vt 0 NaN
vt 0 NaN
vt 0 NaN
vt 0 NaN
vt 0 NaN
vt 0 NaN
vt 0 NaN
vt 0 NaN
vt 0 NaN
vt 0 NaN
vt 0 NaN
vt 0 NaN
vt 0 NaN
vt 0 NaN
vt 0 NaN
vt 0 NaN
vt 0 NaN
vt 0 NaN
vt 0 NaN
vt 0 NaN
vt 0 NaN
vt 0 NaN
vt 0 NaN
vt 0 NaN
vt 0 NaN
vt 0 NaN
vt 0 NaN
vt 0 NaN
vt 0 NaN
vt 0 NaN
vt 0 NaN
vt 0 NaN
vt 0 NaN
vt 0 NaN
vt 0 NaN
vt 0 NaN
vt 0 NaN
vt 0 NaN
vt 0 NaN
vt 0 NaN
vt 0 NaN
vt 0 NaN
vt 0 NaN
vt 0 NaN

usemtl color7

f 3/3/1 2/2/1 1/1/1
f 2/3/1 3/2/1 4/1/1
f 5/3/2 3/2/2 1/1/2
f 3/3/2 5/2/2 6/1/2
f 7/5/3 2/5/3 4/4/3
f 2/5/3 7/5/3 8/6/3
f 7/5/4 5/5/4 8/7/4
f 5/5/4 7/5/4 6/8/4
f 5/5/5 2/5/5 8/9/5
f 2/5/5 5/5/5 1/10/5
f 3/2/6 7/3/6 4/11/6
f 7/3/6 3/2/6 6/1/6
f 11/3/1 10/2/1 9/1/1
f 10/3/1 11/2/1 12/1/1
f 13/3/2 11/2/2 9/1/2
f 11/3/2 13/2/2 14/1/2
f 15/5/3 10/5/3 12/12/3
f 10/5/3 15/5/3 16/13/3
f 15/5/4 13/5/4 16/14/4
f 13/5/4 15/5/4 14/15/4
f 13/5/5 10/5/5 16/16/5
f 10/5/5 13/5/5 9/17/5
f 11/2/6 15/3/6 12/11/6
f 15/3/6 11/2/6 14/1/6
f 3/3/1 2/2/1 1/1/1
f 2/3/1 3/2/1 4/1/1
f 5/3/2 3/2/2 1/1/2
f 3/3/2 5/2/2 6/1/2
f 7/5/3 2/5/3 4/4/3
f 2/5/3 7/5/3 8/6/3
f 7/5/4 5/5/4 8/7/4
f 5/5/4 7/5/4 6/8/4
f 5/5/5 2/5/5 8/9/5
f 2/5/5 5/5/5 1/10/5
f 3/2/6 7/3/6 4/11/6
f 7/3/6 3/2/6 6/1/6
f 19/3/1 18/2/1 17/1/1
f 18/3/1 19/2/1 20/1/1
f 21/3/2 19/2/2 17/1/2
f 19/3/2 21/2/2 22/1/2
f 23/5/3 18/5/3 20/18/3
f 18/5/3 23/5/3 24/19/3
f 23/5/4 21/5/4 24/20/4
f 21/5/4 23/5/4 22/21/4
f 21/5/5 18/5/5 24/22/5
f 18/5/5 21/5/5 17/23/5
f 19/2/6 23/3/6 20/11/6
f 23/3/6 19/2/6 22/1/6
f 27/3/1 26/2/1 25/1/1
f 26/3/1 27/2/1 28/1/1
f 29/3/2 27/2/2 25/1/2
f 27/3/2 29/2/2 30/1/2
f 31/5/3 26/5/3 28/24/3
f 26/5/3 31/5/3 32/25/3
f 31/5/4 29/5/4 32/26/4
f 29/5/4 31/5/4 30/27/4
f 29/5/5 26/5/5 32/28/5
f 26/5/5 29/5/5 25/29/5
f 27/2/6 31/3/6 28/11/6
f 31/3/6 27/2/6 30/1/6
f 35/3/1 34/2/1 33/1/1
f 34/3/1 35/2/1 36/1/1
f 37/3/2 35/2/2 33/1/2
f 35/3/2 37/2/2 38/1/2
f 39/5/3 34/5/3 36/30/3
f 34/5/3 39/5/3 40/31/3
f 39/5/4 37/5/4 40/32/4
f 37/5/4 39/5/4 38/33/4
f 37/5/5 34/5/5 40/34/5
f 34/5/5 37/5/5 33/35/5
f 35/2/6 39/3/6 36/11/6
f 39/3/6 35/2/6 38/1/6
f 43/3/1 42/2/1 41/1/1
f 42/3/1 43/2/1 44/1/1
f 26/3/2 43/2/2 41/1/2
f 43/3/2 26/2/2 28/1/2
f 45/5/3 42/5/3 44/36/3
f 42/5/3 45/5/3 46/37/3
f 45/5/4 26/5/4 46/38/4
f 26/5/4 45/5/4 28/39/4
f 26/5/5 42/5/5 46/40/5
f 42/5/5 26/5/5 41/41/5
f 43/2/6 45/3/6 44/11/6
f 45/3/6 43/2/6 28/1/6
f 49/3/1 48/2/1 47/1/1
f 48/3/1 49/2/1 50/1/1
f 42/3/2 49/2/2 47/1/2
f 49/3/2 42/2/2 44/1/2
f 51/5/3 48/5/3 50/42/3
f 48/5/3 51/5/3 52/43/3
f 51/5/4 42/5/4 52/44/4
f 42/5/4 51/5/4 44/45/4
f 42/5/5 48/5/5 52/46/5
f 48/5/5 42/5/5 47/47/5
f 49/2/6 51/3/6 50/11/6
f 51/3/6 49/2/6 44/1/6

usemtl color9

f 14/3/1 16/2/1 13/1/1
f 16/3/1 14/2/1 15/1/1
f 53/3/2 14/2/2 13/1/2
f 14/3/2 53/2/2 54/1/2
f 55/5/3 16/13/3 15/5/3
f 16/13/3 55/5/3 56/48/3
f 55/5/4 53/5/4 56/49/4
f 53/5/4 55/5/4 54/50/4
f 53/5/5 16/16/5 56/51/5
f 16/16/5 53/5/5 13/5/5
f 14/2/6 55/3/6 15/11/6
f 55/3/6 14/2/6 54/1/6
f 59/3/1 58/2/1 57/1/1
f 58/3/1 59/2/1 60/1/1
f 61/3/2 59/2/2 57/1/2
f 59/3/2 61/2/2 62/1/2
f 63/5/3 58/5/3 60/52/3
f 58/5/3 63/5/3 64/53/3
f 63/5/4 61/5/4 64/54/4
f 61/5/4 63/5/4 62/55/4
f 61/5/5 58/5/5 64/56/5
f 58/5/5 61/5/5 57/57/5
f 59/2/6 63/3/6 60/11/6
f 63/3/6 59/2/6 62/1/6
f 67/3/1 66/2/1 65/1/1
f 66/3/1 67/2/1 68/1/1
f 69/3/2 67/2/2 65/1/2
f 67/3/2 69/2/2 70/1/2
f 71/5/3 66/5/3 68/58/3
f 66/5/3 71/5/3 72/59/3
f 71/5/4 69/5/4 72/60/4
f 69/5/4 71/5/4 70/61/4
f 69/5/5 66/5/5 72/62/5
f 66/5/5 69/5/5 65/63/5
f 67/2/6 71/3/6 68/11/6
f 71/3/6 67/2/6 70/1/6
f 75/3/1 74/2/1 73/1/1
f 74/3/1 75/2/1 76/1/1
f 77/3/2 75/2/2 73/1/2
f 75/3/2 77/2/2 78/1/2
f 79/5/3 74/5/3 76/64/3
f 74/5/3 79/5/3 80/65/3
f 79/5/4 77/5/4 80/66/4
f 77/5/4 79/5/4 78/67/4
f 77/5/5 74/5/5 80/68/5
f 74/5/5 77/5/5 73/69/5
f 75/2/6 79/3/6 76/11/6
f 79/3/6 75/2/6 78/1/6
f 83/3/1 82/2/1 81/1/1
f 82/3/1 83/2/1 84/1/1
f 33/3/2 83/2/2 81/1/2
f 83/3/2 33/2/2 35/1/2
f 36/30/3 82/5/3 84/70/3
f 82/5/3 36/30/3 34/5/3
f 36/5/4 33/5/4 34/71/4
f 33/5/4 36/5/4 35/72/4
f 33/35/5 82/5/5 34/5/5
f 82/5/5 33/35/5 81/73/5
f 83/2/6 36/3/6 84/11/6
f 36/3/6 83/2/6 35/1/6
f 87/3/1 86/2/1 85/1/1
f 86/3/1 87/2/1 88/1/1
f 89/3/2 87/2/2 85/1/2
f 87/3/2 89/2/2 90/1/2
f 91/5/3 86/5/3 88/74/3
f 86/5/3 91/5/3 92/75/3
f 91/5/4 89/5/4 92/76/4
f 89/5/4 91/5/4 90/77/4
f 89/5/5 86/5/5 92/78/5
f 86/5/5 89/5/5 85/79/5
f 87/2/6 91/3/6 88/11/6
f 91/3/6 87/2/6 90/1/6
f 95/3/1 94/2/1 93/1/1
f 94/3/1 95/2/1 96/1/1
f 97/3/2 95/2/2 93/1/2
f 95/3/2 97/2/2 98/1/2
f 99/5/3 94/5/3 96/80/3
f 94/5/3 99/5/3 100/81/3
f 99/5/4 97/5/4 100/82/4
f 97/5/4 99/5/4 98/83/4
f 97/5/5 94/5/5 100/84/5
f 94/5/5 97/5/5 93/85/5
f 95/2/6 99/3/6 96/11/6
f 99/3/6 95/2/6 98/1/6
f 103/3/1 102/2/1 101/1/1
f 102/3/1 103/2/1 104/1/1
f 105/3/2 103/2/2 101/1/2
f 103/3/2 105/2/2 106/1/2
f 107/5/3 102/5/3 104/86/3
f 102/5/3 107/5/3 108/87/3
f 107/5/4 105/5/4 108/88/4
f 105/5/4 107/5/4 106/89/4
f 105/5/5 102/5/5 108/90/5
f 102/5/5 105/5/5 101/91/5
f 103/2/6 107/3/6 104/11/6
f 107/3/6 103/2/6 106/1/6
f 111/3/1 110/2/1 109/1/1
f 110/3/1 111/2/1 112/1/1
f 113/3/2 111/2/2 109/1/2
f 111/3/2 113/2/2 114/1/2
f 115/5/3 110/5/3 112/92/3
f 110/5/3 115/5/3 116/93/3
f 115/5/4 113/5/4 116/94/4
f 113/5/4 115/5/4 114/95/4
f 113/5/5 110/5/5 116/96/5
f 110/5/5 113/5/5 109/97/5
f 111/2/6 115/3/6 112/11/6
f 115/3/6 111/2/6 114/1/6

usemtl color1

f 119/3/1 118/2/1 117/1/1
f 118/3/1 119/2/1 120/1/1
f 121/3/2 119/2/2 117/1/2
f 119/3/2 121/2/2 122/1/2
f 123/5/3 118/5/3 120/98/3
f 118/5/3 123/5/3 124/99/3
f 123/5/4 121/5/4 124/100/4
f 121/5/4 123/5/4 122/101/4
f 121/5/5 118/5/5 124/102/5
f 118/5/5 121/5/5 117/103/5
f 119/2/6 123/3/6 120/11/6
f 123/3/6 119/2/6 122/1/6
f 127/3/1 126/2/1 125/1/1
f 126/3/1 127/2/1 128/1/1
f 129/3/2 127/2/2 125/1/2
f 127/3/2 129/2/2 130/1/2
f 70/5/3 126/5/3 128/104/3
f 126/5/3 70/5/3 69/105/3
f 70/61/4 129/5/4 69/5/4
f 129/5/4 70/61/4 130/106/4
f 129/5/5 126/5/5 69/5/5
f 126/5/5 129/5/5 125/107/5
f 127/2/6 70/3/6 128/11/6
f 70/3/6 127/2/6 130/1/6
f 133/3/1 132/2/1 131/1/1
f 132/3/1 133/2/1 134/1/1
f 135/3/2 133/2/2 131/1/2
f 133/3/2 135/2/2 136/1/2
f 137/5/3 132/5/3 134/108/3
f 132/5/3 137/5/3 138/109/3
f 137/5/4 135/5/4 138/110/4
f 135/5/4 137/5/4 136/111/4
f 135/5/5 132/5/5 138/112/5
f 132/5/5 135/5/5 131/113/5
f 133/2/6 137/3/6 134/11/6
f 137/3/6 133/2/6 136/1/6
f 141/3/1 140/2/1 139/1/1
f 140/3/1 141/2/1 142/1/1
f 143/3/2 141/2/2 139/1/2
f 141/3/2 143/2/2 144/1/2
f 145/5/3 140/5/3 142/114/3
f 140/5/3 145/5/3 146/115/3
f 145/5/4 143/5/4 146/116/4
f 143/5/4 145/5/4 144/117/4
f 143/5/5 140/5/5 146/118/5
f 140/5/5 143/5/5 139/119/5
f 141/2/6 145/3/6 142/11/6
f 145/3/6 141/2/6 144/1/6
f 149/3/1 148/2/1 147/1/1
f 148/3/1 149/2/1 150/1/1
f 151/3/2 149/2/2 147/1/2
f 149/3/2 151/2/2 152/1/2
f 114/5/3 148/5/3 150/120/3
f 148/5/3 114/5/3 113/121/3
f 114/95/4 151/5/4 113/5/4
f 151/5/4 114/95/4 152/122/4
f 151/5/5 148/5/5 113/5/5
f 148/5/5 151/5/5 147/123/5
f 149/2/6 114/3/6 150/11/6
f 114/3/6 149/2/6 152/1/6
f 155/3/1 154/2/1 153/1/1
f 154/3/1 155/2/1 156/1/1
f 157/3/2 155/2/2 153/1/2
f 155/3/2 157/2/2 158/1/2
f 159/5/3 154/5/3 156/124/3
f 154/5/3 159/5/3 160/125/3
f 159/5/4 157/5/4 160/126/4
f 157/5/4 159/5/4 158/127/4
f 157/5/5 154/5/5 160/128/5
f 154/5/5 157/5/5 153/129/5
f 155/2/6 159/3/6 156/11/6
f 159/3/6 155/2/6 158/1/6
f 163/3/1 162/2/1 161/1/1
f 162/3/1 163/2/1 164/1/1
f 165/3/2 163/2/2 161/1/2
f 163/3/2 165/2/2 166/1/2
f 167/5/3 162/5/3 164/130/3
f 162/5/3 167/5/3 168/131/3
f 167/5/4 165/5/4 168/132/4
f 165/5/4 167/5/4 166/133/4
f 165/5/5 162/5/5 168/134/5
f 162/5/5 165/5/5 161/135/5
f 163/2/6 167/3/6 164/11/6
f 167/3/6 163/2/6 166/1/6

usemtl color4

f 170/3/1 73/2/1 169/1/1
f 73/3/1 170/2/1 75/1/1
f 171/3/2 170/2/2 169/1/2
f 170/3/2 171/2/2 172/1/2
f 78/5/3 73/5/3 75/136/3
f 73/5/3 78/5/3 77/137/3
f 78/67/4 171/5/4 77/5/4
f 171/5/4 78/67/4 172/138/4
f 171/5/5 73/69/5 77/5/5
f 73/69/5 171/5/5 169/139/5
f 170/2/6 78/3/6 75/11/6
f 78/3/6 170/2/6 172/1/6
f 172/3/1 173/2/1 171/1/1
f 173/3/1 172/2/1 174/1/1
f 175/3/2 172/2/2 171/1/2
f 172/3/2 175/2/2 176/1/2
f 177/5/3 173/5/3 174/140/3
f 173/5/3 177/5/3 178/141/3
f 177/5/4 175/5/4 178/142/4
f 175/5/4 177/5/4 176/143/4
f 175/5/5 173/5/5 178/144/5
f 173/5/5 175/5/5 171/5/5
f 172/2/6 177/3/6 174/11/6
f 177/3/6 172/2/6 176/1/6
f 180/3/1 57/2/1 179/1/1
f 57/3/1 180/2/1 59/1/1
f 181/3/2 180/2/2 179/1/2
f 180/3/2 181/2/2 182/1/2
f 183/5/3 57/5/3 59/145/3
f 57/5/3 183/5/3 184/146/3
f 183/5/4 181/5/4 184/147/4
f 181/5/4 183/5/4 182/148/4
f 181/5/5 57/57/5 184/149/5
f 57/57/5 181/5/5 179/150/5
f 180/2/6 183/3/6 59/11/6
f 183/3/6 180/2/6 182/1/6
f 187/3/1 186/2/1 185/1/1
f 186/3/1 187/2/1 188/1/1
f 178/3/2 187/2/2 185/1/2
f 187/3/2 178/2/2 177/1/2
f 189/5/3 186/5/3 188/151/3
f 186/5/3 189/5/3 190/152/3
f 189/5/4 178/142/4 190/153/4
f 178/142/4 189/5/4 177/5/4
f 178/144/5 186/5/5 190/154/5
f 186/5/5 178/144/5 185/155/5
f 187/2/6 189/3/6 188/11/6
f 189/3/6 187/2/6 177/1/6
f 193/3/1 192/2/1 191/1/1
f 192/3/1 193/2/1 194/1/1
f 17/3/2 193/2/2 191/1/2
f 193/3/2 17/2/2 19/1/2
f 20/18/3 192/5/3 194/156/3
f 192/5/3 20/18/3 18/5/3
f 20/5/4 17/5/4 18/157/4
f 17/5/4 20/5/4 19/158/4
f 17/23/5 192/5/5 18/5/5
f 192/5/5 17/23/5 191/159/5
f 193/2/6 20/3/6 194/11/6
f 20/3/6 193/2/6 19/1/6
f 197/3/1 196/2/1 195/1/1
f 196/3/1 197/2/1 198/1/1
f 199/3/2 197/2/2 195/1/2
f 197/3/2 199/2/2 200/1/2
f 201/5/3 196/5/3 198/160/3
f 196/5/3 201/5/3 202/161/3
f 201/5/4 199/5/4 202/162/4
f 199/5/4 201/5/4 200/163/4
f 199/5/5 196/5/5 202/164/5
f 196/5/5 199/5/5 195/165/5
f 197/2/6 201/3/6 198/11/6
f 201/3/6 197/2/6 200/1/6
f 76/3/1 203/2/1 74/1/1
f 203/3/1 76/2/1 204/1/1
f 80/3/2 76/2/2 74/1/2
f 76/3/2 80/2/2 79/1/2
f 205/5/3 203/5/3 204/166/3
f 203/5/3 205/5/3 206/167/3
f 205/5/4 80/66/4 206/168/4
f 80/66/4 205/5/4 79/5/4
f 80/68/5 203/5/5 206/169/5
f 203/5/5 80/68/5 74/5/5
f 76/2/6 205/3/6 204/11/6
f 205/3/6 76/2/6 79/1/6
f 209/3/1 208/2/1 207/1/1
f 208/3/1 209/2/1 210/1/1
f 196/3/2 209/2/2 207/1/2
f 209/3/2 196/2/2 198/1/2
f 211/5/3 208/5/3 210/170/3
f 208/5/3 211/5/3 212/171/3
f 211/5/4 196/5/4 212/172/4
f 196/5/4 211/5/4 198/173/4
f 196/5/5 208/5/5 212/174/5
f 208/5/5 196/5/5 207/175/5
f 209/2/6 211/3/6 210/11/6
f 211/3/6 209/2/6 198/1/6
f 28/3/1 46/2/1 26/1/1
f 46/3/1 28/2/1 45/1/1
f 32/3/2 28/2/2 26/1/2
f 28/3/2 32/2/2 31/1/2
f 213/5/3 46/37/3 45/5/3
f 46/37/3 213/5/3 214/176/3
f 213/5/4 32/26/4 214/177/4
f 32/26/4 213/5/4 31/5/4
f 32/28/5 46/40/5 214/178/5
f 46/40/5 32/28/5 26/5/5
f 28/2/6 213/3/6 45/11/6
f 213/3/6 28/2/6 31/1/6
f 217/3/1 216/2/1 215/1/1
f 216/3/1 217/2/1 218/1/1
f 219/3/2 217/2/2 215/1/2
f 217/3/2 219/2/2 220/1/2
f 221/5/3 216/5/3 218/179/3
f 216/5/3 221/5/3 222/180/3
f 221/5/4 219/5/4 222/181/4
f 219/5/4 221/5/4 220/182/4
f 219/5/5 216/5/5 222/183/5
f 216/5/5 219/5/5 215/184/5
f 217/2/6 221/3/6 218/11/6
f 221/3/6 217/2/6 220/1/6
f 224/3/1 153/2/1 223/1/1
f 153/3/1 224/2/1 155/1/1
f 208/3/2 224/2/2 223/1/2
f 224/3/2 208/2/2 210/1/2
f 158/5/3 153/5/3 155/185/3
f 153/5/3 158/5/3 157/186/3
f 158/127/4 208/5/4 157/5/4
f 208/5/4 158/127/4 210/187/4
f 208/5/5 153/129/5 157/5/5
f 153/129/5 208/5/5 223/188/5
f 224/2/6 158/3/6 155/11/6
f 158/3/6 224/2/6 210/1/6
f 44/3/1 52/2/1 42/1/1
f 52/3/1 44/2/1 51/1/1
f 46/3/2 44/2/2 42/1/2
f 44/3/2 46/2/2 45/1/2
f 225/5/3 52/43/3 51/5/3
f 52/43/3 225/5/3 226/189/3
f 225/5/4 46/38/4 226/190/4
f 46/38/4 225/5/4 45/5/4
f 46/40/5 52/46/5 226/191/5
f 52/46/5 46/40/5 42/5/5
f 44/2/6 225/3/6 51/11/6
f 225/3/6 44/2/6 45/1/6
f 229/3/1 228/2/1 227/1/1
f 228/3/1 229/2/1 230/1/1
f 86/3/2 229/2/2 227/1/2
f 229/3/2 86/2/2 88/1/2
f 231/5/3 228/5/3 230/192/3
f 228/5/3 231/5/3 232/193/3
f 231/5/4 86/5/4 232/194/4
f 86/5/4 231/5/4 88/195/4
f 86/5/5 228/5/5 232/196/5
f 228/5/5 86/5/5 227/197/5
f 229/2/6 231/3/6 230/11/6
f 231/3/6 229/2/6 88/1/6
f 235/3/1 234/2/1 233/1/1
f 234/3/1 235/2/1 236/1/1
f 237/3/2 235/2/2 233/1/2
f 235/3/2 237/2/2 238/1/2
f 239/5/3 234/5/3 236/198/3
f 234/5/3 239/5/3 240/199/3
f 239/5/4 237/5/4 240/200/4
f 237/5/4 239/5/4 238/201/4
f 237/5/5 234/5/5 240/202/5
f 234/5/5 237/5/5 233/203/5
f 235/2/6 239/3/6 236/11/6
f 239/3/6 235/2/6 238/1/6
f 50/3/1 241/2/1 48/1/1
f 241/3/1 50/2/1 242/1/1
f 52/3/2 50/2/2 48/1/2
f 50/3/2 52/2/2 51/1/2
f 166/5/3 241/5/3 242/204/3
f 241/5/3 166/5/3 165/205/3
f 166/133/4 52/44/4 165/5/4
f 52/44/4 166/133/4 51/5/4
f 52/46/5 241/5/5 165/5/5
f 241/5/5 52/46/5 48/5/5
f 50/2/6 166/3/6 242/11/6
f 166/3/6 50/2/6 51/1/6
f 172/3/1 173/2/1 171/1/1
f 173/3/1 172/2/1 174/1/1
f 175/3/2 172/2/2 171/1/2
f 172/3/2 175/2/2 176/1/2
f 177/5/3 173/5/3 174/140/3
f 173/5/3 177/5/3 178/141/3
f 177/5/4 175/5/4 178/142/4
f 175/5/4 177/5/4 176/143/4
f 175/5/5 173/5/5 178/144/5
f 173/5/5 175/5/5 171/5/5
f 172/2/6 177/3/6 174/11/6
f 177/3/6 172/2/6 176/1/6

usemtl color6

f 182/3/1 184/2/1 181/1/1
f 184/3/1 182/2/1 183/1/1
f 243/3/2 182/2/2 181/1/2
f 182/3/2 243/2/2 244/1/2
f 245/5/3 184/146/3 183/5/3
f 184/146/3 245/5/3 246/206/3
f 245/5/4 243/5/4 246/207/4
f 243/5/4 245/5/4 244/208/4
f 243/5/5 184/149/5 246/209/5
f 184/149/5 243/5/5 181/5/5
f 182/2/6 245/3/6 183/11/6
f 245/3/6 182/2/6 244/1/6
f 136/3/1 138/2/1 135/1/1
f 138/3/1 136/2/1 137/1/1
f 247/3/2 136/2/2 135/1/2
f 136/3/2 247/2/2 248/1/2
f 249/5/3 138/109/3 137/5/3
f 138/109/3 249/5/3 250/210/3
f 249/5/4 247/5/4 250/211/4
f 247/5/4 249/5/4 248/212/4
f 247/5/5 138/112/5 250/213/5
f 138/112/5 247/5/5 135/5/5
f 136/2/6 249/3/6 137/11/6
f 249/3/6 136/2/6 248/1/6
f 253/3/1 252/2/1 251/1/1
f 252/3/1 253/2/1 254/1/1
f 255/3/2 253/2/2 251/1/2
f 253/3/2 255/2/2 256/1/2
f 90/5/3 252/5/3 254/214/3
f 252/5/3 90/5/3 89/215/3
f 90/77/4 255/5/4 89/5/4
f 255/5/4 90/77/4 256/216/4
f 255/5/5 252/5/5 89/5/5
f 252/5/5 255/5/5 251/217/5
f 253/2/6 90/3/6 254/11/6
f 90/3/6 253/2/6 256/1/6
f 258/3/1 47/2/1 257/1/1
f 47/3/1 258/2/1 49/1/1
f 41/3/2 258/2/2 257/1/2
f 258/3/2 41/2/2 43/1/2
f 44/36/3 47/5/3 49/218/3
f 47/5/3 44/36/3 42/5/3
f 44/45/4 41/5/4 42/5/4
f 41/5/4 44/45/4 43/219/4
f 41/41/5 47/47/5 42/5/5
f 47/47/5 41/41/5 257/220/5
f 258/2/6 44/3/6 49/11/6
f 44/3/6 258/2/6 43/1/6
f 261/3/1 260/2/1 259/1/1
f 260/3/1 261/2/1 262/1/1
f 47/3/2 261/2/2 259/1/2
f 261/3/2 47/2/2 49/1/2
f 50/42/3 260/5/3 262/221/3
f 260/5/3 50/42/3 48/5/3
f 50/5/4 47/5/4 48/222/4
f 47/5/4 50/5/4 49/223/4
f 47/47/5 260/5/5 48/5/5
f 260/5/5 47/47/5 259/224/5
f 261/2/6 50/3/6 262/11/6
f 50/3/6 261/2/6 49/1/6

usemtl color8

f 265/3/1 264/2/1 263/1/1
f 264/3/1 265/2/1 266/1/1
f 267/3/2 265/2/2 263/1/2
f 265/3/2 267/2/2 268/1/2
f 269/5/3 264/5/3 266/225/3
f 264/5/3 269/5/3 270/226/3
f 269/5/4 267/5/4 270/227/4
f 267/5/4 269/5/4 268/228/4
f 267/5/5 264/5/5 270/229/5
f 264/5/5 267/5/5 263/230/5
f 265/2/6 269/3/6 266/11/6
f 269/3/6 265/2/6 268/1/6
f 273/3/1 272/2/1 271/1/1
f 272/3/1 273/2/1 274/1/1
f 275/3/2 273/2/2 271/1/2
f 273/3/2 275/2/2 276/1/2
f 277/5/3 272/5/3 274/231/3
f 272/5/3 277/5/3 278/232/3
f 277/5/4 275/5/4 278/233/4
f 275/5/4 277/5/4 276/234/4
f 275/5/5 272/5/5 278/235/5
f 272/5/5 275/5/5 271/236/5
f 273/2/6 277/3/6 274/11/6
f 277/3/6 273/2/6 276/1/6
f 281/3/1 280/2/1 279/1/1
f 280/3/1 281/2/1 282/1/1
f 10/3/2 281/2/2 279/1/2
f 281/3/2 10/2/2 12/1/2
f 283/5/3 280/5/3 282/237/3
f 280/5/3 283/5/3 284/238/3
f 283/5/4 10/5/4 284/239/4
f 10/5/4 283/5/4 12/240/4
f 10/5/5 280/5/5 284/241/5
f 280/5/5 10/5/5 279/242/5
f 281/2/6 283/3/6 282/11/6
f 283/3/6 281/2/6 12/1/6
f 286/3/1 215/2/1 285/1/1
f 215/3/1 286/2/1 217/1/1
f 287/3/2 286/2/2 285/1/2
f 286/3/2 287/2/2 288/1/2
f 220/5/3 215/5/3 217/243/3
f 215/5/3 220/5/3 219/244/3
f 220/182/4 287/5/4 219/5/4
f 287/5/4 220/182/4 288/245/4
f 287/5/5 215/184/5 219/5/5
f 215/184/5 287/5/5 285/246/5
f 286/2/6 220/3/6 217/11/6
f 220/3/6 286/2/6 288/1/6
f 204/3/1 289/2/1 203/1/1
f 289/3/1 204/2/1 290/1/1
f 206/3/2 204/2/2 203/1/2
f 204/3/2 206/2/2 205/1/2
f 291/5/3 289/5/3 290/247/3
f 289/5/3 291/5/3 292/248/3
f 291/5/4 206/168/4 292/249/4
f 206/168/4 291/5/4 205/5/4
f 206/169/5 289/5/5 292/250/5
f 289/5/5 206/169/5 203/5/5
f 204/2/6 291/3/6 290/11/6
f 291/3/6 204/2/6 205/1/6
f 294/3/1 237/2/1 293/1/1
f 237/3/1 294/2/1 238/1/1
f 295/3/2 294/2/2 293/1/2
f 294/3/2 295/2/2 296/1/2
f 297/5/3 237/5/3 238/251/3
f 237/5/3 297/5/3 298/252/3
f 297/5/4 295/5/4 298/253/4
f 295/5/4 297/5/4 296/254/4
f 295/5/5 237/5/5 298/255/5
f 237/5/5 295/5/5 293/256/5
f 294/2/6 297/3/6 238/11/6
f 297/3/6 294/2/6 296/1/6
f 301/3/1 300/2/1 299/1/1
f 300/3/1 301/2/1 302/1/1
f 303/3/2 301/2/2 299/1/2
f 301/3/2 303/2/2 304/1/2
f 305/5/3 300/5/3 302/257/3
f 300/5/3 305/5/3 306/258/3
f 305/5/4 303/5/4 306/259/4
f 303/5/4 305/5/4 304/260/4
f 303/5/5 300/5/5 306/261/5
f 300/5/5 303/5/5 299/262/5
f 301/2/6 305/3/6 302/11/6
f 305/3/6 301/2/6 304/1/6
f 309/3/1 308/2/1 307/1/1
f 308/3/1 309/2/1 310/1/1
f 311/3/2 309/2/2 307/1/2
f 309/3/2 311/2/2 312/1/2
f 313/5/3 308/5/3 310/263/3
f 308/5/3 313/5/3 314/264/3
f 313/5/4 311/5/4 314/265/4
f 311/5/4 313/5/4 312/266/4
f 311/5/5 308/5/5 314/267/5
f 308/5/5 311/5/5 307/268/5
f 309/2/6 313/3/6 310/11/6
f 313/3/6 309/2/6 312/1/6

usemtl color5

f 268/3/1 270/2/1 267/1/1
f 270/3/1 268/2/1 269/1/1
f 315/3/2 268/2/2 267/1/2
f 268/3/2 315/2/2 316/1/2
f 317/5/3 270/226/3 269/5/3
f 270/226/3 317/5/3 318/269/3
f 317/5/4 315/5/4 318/270/4
f 315/5/4 317/5/4 316/271/4
f 315/5/5 270/229/5 318/272/5
f 270/229/5 315/5/5 267/5/5
f 268/2/6 317/3/6 269/11/6
f 317/3/6 268/2/6 316/1/6
f 276/3/1 278/2/1 275/1/1
f 278/3/1 276/2/1 277/1/1
f 319/3/2 276/2/2 275/1/2
f 276/3/2 319/2/2 320/1/2
f 321/5/3 278/232/3 277/5/3
f 278/232/3 321/5/3 322/273/3
f 321/5/4 319/5/4 322/274/4
f 319/5/4 321/5/4 320/275/4
f 319/5/5 278/235/5 322/276/5
f 278/235/5 319/5/5 275/5/5
f 276/2/6 321/3/6 277/11/6
f 321/3/6 276/2/6 320/1/6
f 12/3/1 284/2/1 10/1/1
f 284/3/1 12/2/1 283/1/1
f 16/3/2 12/2/2 10/1/2
f 12/3/2 16/2/2 15/1/2
f 323/5/3 284/238/3 283/5/3
f 284/238/3 323/5/3 324/277/3
f 323/5/4 16/14/4 324/278/4
f 16/14/4 323/5/4 15/5/4
f 16/16/5 284/241/5 324/279/5
f 284/241/5 16/16/5 10/5/5
f 12/2/6 323/3/6 283/11/6
f 323/3/6 12/2/6 15/1/6
f 327/3/1 326/2/1 325/1/1
f 326/3/1 327/2/1 328/1/1
f 73/3/2 327/2/2 325/1/2
f 327/3/2 73/2/2 75/1/2
f 76/64/3 326/5/3 328/280/3
f 326/5/3 76/64/3 74/5/3
f 76/5/4 73/5/4 74/281/4
f 73/5/4 76/5/4 75/282/4
f 73/69/5 326/5/5 74/5/5
f 326/5/5 73/69/5 325/283/5
f 327/2/6 76/3/6 328/11/6
f 76/3/6 327/2/6 75/1/6
f 188/3/1 285/2/1 186/1/1
f 285/3/1 188/2/1 286/1/1
f 190/3/2 188/2/2 186/1/2
f 188/3/2 190/2/2 189/1/2
f 288/5/3 285/5/3 286/284/3
f 285/5/3 288/5/3 287/285/3
f 288/245/4 190/153/4 287/5/4
f 190/153/4 288/245/4 189/5/4
f 190/154/5 285/246/5 287/5/5
f 285/246/5 190/154/5 186/5/5
f 188/2/6 288/3/6 286/11/6
f 288/3/6 188/2/6 189/1/6
f 331/3/1 330/2/1 329/1/1
f 330/3/1 331/2/1 332/1/1
f 333/3/2 331/2/2 329/1/2
f 331/3/2 333/2/2 334/1/2
f 335/5/3 330/5/3 332/286/3
f 330/5/3 335/5/3 336/287/3
f 335/5/4 333/5/4 336/288/4
f 333/5/4 335/5/4 334/289/4
f 333/5/5 330/5/5 336/290/5
f 330/5/5 333/5/5 329/291/5
f 331/2/6 335/3/6 332/11/6
f 335/3/6 331/2/6 334/1/6
f 205/3/1 292/2/1 206/1/1
f 292/3/1 205/2/1 291/1/1
f 215/3/2 205/2/2 206/1/2
f 205/3/2 215/2/2 217/1/2
f 218/179/3 292/248/3 291/5/3
f 292/248/3 218/179/3 216/5/3
f 218/5/4 215/5/4 216/292/4
f 215/5/4 218/5/4 217/293/4
f 215/184/5 292/250/5 216/5/5
f 292/250/5 215/184/5 206/169/5
f 205/2/6 218/3/6 291/11/6
f 218/3/6 205/2/6 217/1/6
f 296/3/1 298/2/1 295/1/1
f 298/3/1 296/2/1 297/1/1
f 337/3/2 296/2/2 295/1/2
f 296/3/2 337/2/2 338/1/2
f 339/5/3 298/252/3 297/5/3
f 298/252/3 339/5/3 340/294/3
f 339/5/4 337/5/4 340/295/4
f 337/5/4 339/5/4 338/296/4
f 337/5/5 298/255/5 340/297/5
f 298/255/5 337/5/5 295/5/5
f 296/2/6 339/3/6 297/11/6
f 339/3/6 296/2/6 338/1/6
f 304/3/1 306/2/1 303/1/1
f 306/3/1 304/2/1 305/1/1
f 341/3/2 304/2/2 303/1/2
f 304/3/2 341/2/2 342/1/2
f 343/5/3 306/258/3 305/5/3
f 306/258/3 343/5/3 344/298/3
f 343/5/4 341/5/4 344/299/4
f 341/5/4 343/5/4 342/300/4
f 341/5/5 306/261/5 344/301/5
f 306/261/5 341/5/5 303/5/5
f 304/2/6 343/3/6 305/11/6
f 343/3/6 304/2/6 342/1/6
f 312/3/1 314/2/1 311/1/1
f 314/3/1 312/2/1 313/1/1
f 345/3/2 312/2/2 311/1/2
f 312/3/2 345/2/2 346/1/2
f 347/5/3 314/264/3 313/5/3
f 314/264/3 347/5/3 348/302/3
f 347/5/4 345/5/4 348/303/4
f 345/5/4 347/5/4 346/304/4
f 345/5/5 314/267/5 348/305/5
f 314/267/5 345/5/5 311/5/5
f 312/2/6 347/3/6 313/11/6
f 347/3/6 312/2/6 346/1/6
f 351/3/1 350/2/1 349/1/1
f 350/3/1 351/2/1 352/1/1
f 353/3/2 351/2/2 349/1/2
f 351/3/2 353/2/2 354/1/2
f 355/5/3 350/5/3 352/306/3
f 350/5/3 355/5/3 356/307/3
f 355/5/4 353/5/4 356/308/4
f 353/5/4 355/5/4 354/309/4
f 353/5/5 350/5/5 356/310/5
f 350/5/5 353/5/5 349/311/5
f 351/2/6 355/3/6 352/11/6
f 355/3/6 351/2/6 354/1/6
f 359/3/1 358/2/1 357/1/1
f 358/3/1 359/2/1 360/1/1
f 361/3/2 359/2/2 357/1/2
f 359/3/2 361/2/2 362/1/2
f 363/5/3 358/5/3 360/312/3
f 358/5/3 363/5/3 364/313/3
f 363/5/4 361/5/4 364/314/4
f 361/5/4 363/5/4 362/315/4
f 361/5/5 358/5/5 364/316/5
f 358/5/5 361/5/5 357/317/5
f 359/2/6 363/3/6 360/11/6
f 363/3/6 359/2/6 362/1/6
f 367/3/1 366/2/1 365/1/1
f 366/3/1 367/2/1 368/1/1
f 350/3/2 367/2/2 365/1/2
f 367/3/2 350/2/2 352/1/2
f 369/5/3 366/5/3 368/318/3
f 366/5/3 369/5/3 370/319/3
f 369/5/4 350/5/4 370/320/4
f 350/5/4 369/5/4 352/321/4
f 350/5/5 366/5/5 370/322/5
f 366/5/5 350/5/5 365/323/5
f 367/2/6 369/3/6 368/11/6
f 369/3/6 367/2/6 352/1/6
f 355/3/1 371/2/1 356/1/1
f 371/3/1 355/2/1 372/1/1
f 373/3/2 355/2/2 356/1/2
f 355/3/2 373/2/2 374/1/2
f 360/312/3 371/5/3 372/324/3
f 371/5/3 360/312/3 358/5/3
f 360/5/4 373/5/4 358/325/4
f 373/5/4 360/5/4 374/326/4
f 373/5/5 371/5/5 358/5/5
f 371/5/5 373/5/5 356/310/5
f 355/2/6 360/3/6 372/11/6
f 360/3/6 355/2/6 374/1/6

usemtl color10

f 377/3/1 376/2/1 375/1/1
f 376/3/1 377/2/1 378/1/1
f 379/3/2 377/2/2 375/1/2
f 377/3/2 379/2/2 380/1/2
f 381/5/3 376/5/3 378/327/3
f 376/5/3 381/5/3 382/328/3
f 381/5/4 379/5/4 382/329/4
f 379/5/4 381/5/4 380/330/4
f 379/5/5 376/5/5 382/331/5
f 376/5/5 379/5/5 375/332/5
f 377/2/6 381/3/6 378/11/6
f 381/3/6 377/2/6 380/1/6
f 384/3/1 61/2/1 383/1/1
f 61/3/1 384/2/1 62/1/1
f 385/3/2 384/2/2 383/1/2
f 384/3/2 385/2/2 386/1/2
f 67/5/3 61/5/3 62/333/3
f 61/5/3 67/5/3 65/334/3
f 67/5/4 385/5/4 65/335/4
f 385/5/4 67/5/4 386/336/4
f 385/5/5 61/5/5 65/63/5
f 61/5/5 385/5/5 383/337/5
f 384/2/6 67/3/6 62/11/6
f 67/3/6 384/2/6 386/1/6
f 389/3/1 388/2/1 387/1/1
f 388/3/1 389/2/1 390/1/1
f 125/3/2 389/2/2 387/1/2
f 389/3/2 125/2/2 127/1/2
f 128/104/3 388/5/3 390/338/3
f 388/5/3 128/104/3 126/5/3
f 128/5/4 125/5/4 126/339/4
f 125/5/4 128/5/4 127/340/4
f 125/107/5 388/5/5 126/5/5
f 388/5/5 125/107/5 387/341/5
f 389/2/6 128/3/6 390/11/6
f 128/3/6 389/2/6 127/1/6
f 393/3/1 392/2/1 391/1/1
f 392/3/1 393/2/1 394/1/1
f 139/3/2 393/2/2 391/1/2
f 393/3/2 139/2/2 141/1/2
f 142/114/3 392/5/3 394/342/3
f 392/5/3 142/114/3 140/5/3
f 142/5/4 139/5/4 140/343/4
f 139/5/4 142/5/4 141/344/4
f 139/119/5 392/5/5 140/5/5
f 392/5/5 139/119/5 391/345/5
f 393/2/6 142/3/6 394/11/6
f 142/3/6 393/2/6 141/1/6
f 256/3/1 89/2/1 255/1/1
f 89/3/1 256/2/1 90/1/1
f 147/3/2 256/2/2 255/1/2
f 256/3/2 147/2/2 149/1/2
f 150/120/3 89/215/3 90/5/3
f 89/215/3 150/120/3 148/5/3
f 150/5/4 147/5/4 148/346/4
f 147/5/4 150/5/4 149/347/4
f 147/123/5 89/5/5 148/5/5
f 89/5/5 147/123/5 255/5/5
f 256/2/6 150/3/6 90/11/6
f 150/3/6 256/2/6 149/1/6

usemtl color2

f 397/3/1 396/2/1 395/1/1
f 396/3/1 397/2/1 398/1/1
f 399/3/2 397/2/2 395/1/2
f 397/3/2 399/2/2 400/1/2
f 401/5/3 396/5/3 398/348/3
f 396/5/3 401/5/3 402/349/3
f 401/5/4 399/5/4 402/350/4
f 399/5/4 401/5/4 400/351/4
f 399/5/5 396/5/5 402/352/5
f 396/5/5 399/5/5 395/353/5
f 397/2/6 401/3/6 398/11/6
f 401/3/6 397/2/6 400/1/6
f 62/3/1 64/2/1 61/1/1
f 64/3/1 62/2/1 63/1/1
f 65/3/2 62/2/2 61/1/2
f 62/3/2 65/2/2 67/1/2
f 68/58/3 64/53/3 63/5/3
f 64/53/3 68/58/3 66/5/3
f 68/5/4 65/335/4 66/354/4
f 65/335/4 68/5/4 67/5/4
f 65/63/5 64/56/5 66/5/5
f 64/56/5 65/63/5 61/5/5
f 62/2/6 68/3/6 63/11/6
f 68/3/6 62/2/6 67/1/6
f 404/3/1 85/2/1 403/1/1
f 85/3/1 404/2/1 87/1/1
f 251/3/2 404/2/2 403/1/2
f 404/3/2 251/2/2 253/1/2
f 254/214/3 85/5/3 87/355/3
f 85/5/3 254/214/3 252/5/3
f 254/5/4 251/5/4 252/356/4
f 251/5/4 254/5/4 253/357/4
f 251/217/5 85/79/5 252/5/5
f 85/79/5 251/217/5 403/358/5
f 404/2/6 254/3/6 87/11/6
f 254/3/6 404/2/6 253/1/6
f 262/3/1 161/2/1 260/1/1
f 161/3/1 262/2/1 163/1/1
f 48/3/2 262/2/2 260/1/2
f 262/3/2 48/2/2 50/1/2
f 242/204/3 161/5/3 163/359/3
f 161/5/3 242/204/3 241/5/3
f 242/5/4 48/222/4 241/360/4
f 48/222/4 242/5/4 50/5/4
f 48/5/5 161/135/5 241/5/5
f 161/135/5 48/5/5 260/5/5
f 262/2/6 242/3/6 163/11/6
f 242/3/6 262/2/6 50/1/6
f 368/3/1 405/2/1 366/1/1
f 405/3/1 368/2/1 406/1/1
f 370/3/2 368/2/2 366/1/2
f 368/3/2 370/2/2 369/1/2
f 407/5/3 405/5/3 406/361/3
f 405/5/3 407/5/3 408/362/3
f 407/5/4 370/320/4 408/363/4
f 370/320/4 407/5/4 369/5/4
f 370/322/5 405/5/5 408/364/5
f 405/5/5 370/322/5 366/5/5
f 368/2/6 407/3/6 406/11/6
f 407/3/6 368/2/6 369/1/6

usemtl color0

f 411/3/1 410/2/1 409/1/1
f 410/3/1 411/2/1 412/1/1
f 413/3/2 411/2/2 409/1/2
f 411/3/2 413/2/2 414/1/2
f 415/5/3 410/5/3 412/365/3
f 410/5/3 415/5/3 416/366/3
f 415/5/4 413/5/4 416/367/4
f 413/5/4 415/5/4 414/368/4
f 413/5/5 410/5/5 416/369/5
f 410/5/5 413/5/5 409/370/5
f 411/2/6 415/3/6 412/11/6
f 415/3/6 411/2/6 414/1/6
f 419/3/1 418/2/1 417/1/1
f 418/3/1 419/2/1 420/1/1
f 421/3/2 419/2/2 417/1/2
f 419/3/2 421/2/2 422/1/2
f 423/5/3 418/5/3 420/371/3
f 418/5/3 423/5/3 424/372/3
f 423/5/4 421/5/4 424/373/4
f 421/5/4 423/5/4 422/374/4
f 421/5/5 418/5/5 424/375/5
f 418/5/5 421/5/5 417/376/5
f 419/2/6 423/3/6 420/11/6
f 423/3/6 419/2/6 422/1/6

usemtl color11

f 334/3/1 336/2/1 333/1/1
f 336/3/1 334/2/1 335/1/1
f 191/3/2 334/2/2 333/1/2
f 334/3/2 191/2/2 193/1/2
f 194/156/3 336/287/3 335/5/3
f 336/287/3 194/156/3 192/5/3
f 194/5/4 191/5/4 192/377/4
f 191/5/4 194/5/4 193/378/4
f 191/159/5 336/290/5 192/5/5
f 336/290/5 191/159/5 333/5/5
f 334/2/6 194/3/6 335/11/6
f 194/3/6 334/2/6 193/1/6

