# Created by Kenney (www.kenney.nl)

mtllib SMG T0B Digisol.mtl

v 2 8 -0.5
v 2 7 -0.5
v 2 8 0.5
v 2 7 0.5
v 1 8 -0.5
v 1 8 0.5
v 1 7 0.5
v 1 7 -0.5
v 9 7 -1
v 9 6 -1
v 9 7 1
v 9 6 1
v 5 7 -1
v 5 7 1
v 5 6 1
v 5 6 -1
v 4 7 -1
v 4 6 -1
v 4 7 1
v 4 6 1
v 3 7 -1
v 3 7 1
v 3 6 1
v 3 6 -1
v 1 0 -1
v 1 -1 -1
v 1 0 1
v 1 -1 1
v 0 0 -1
v 0 0 1
v 0 -1 1
v 0 -1 -1
v 12 7 -1
v 12 6 -1
v 12 7 1
v 12 6 1
v 11 7 -1
v 11 7 1
v 11 6 1
v 11 6 -1
v 1 6 -1.5
v 1 5 -1.5
v 1 6 1.5
v 1 5 1.5
v 0 6 -1.5
v 0 6 1.5
v 0 5 1.5
v 0 5 -1.5
v 0 5 -1
v 0 4 -1
v 0 5 1
v 0 4 1
v -2 5 -1
v -2 5 1
v -2 4 1
v -2 4 -1
v 2 4 -1
v 2 1 -1
v 2 4 1
v 2 1 1
v 1 4 -1
v 1 4 1
v 1 1 1
v 1 1 -1
v -11 4 -1
v -11 3 -1
v -11 4 1
v -11 3 1
v -12 4 -1
v -12 4 1
v -12 3 1
v -12 3 -1
v 11 7 -1.5
v 11 6 -1.5
v 11 7 1.5
v 11 6 1.5
v 9 7 -1.5
v 9 7 1.5
v 9 6 1.5
v 9 6 -1.5
v 5 7 -1.5
v 5 6 -1.5
v 5 7 1.5
v 5 6 1.5
v 4 7 -1.5
v 4 7 1.5
v 4 6 1.5
v 4 6 -1.5
v 3 7 -1.5
v 3 6 -1.5
v 3 7 1.5
v 3 6 1.5
v 1 7 -1.5
v 1 7 1.5
v -11 7 -1
v -11 6 -1
v -11 7 1
v -11 6 1
v -12 7 -1
v -12 7 1
v -12 6 1
v -12 6 -1
v 9 5 -1.5
v 9 5 1.5
v 5 5 1.5
v 5 5 -1.5
v 0 6 -1
v 0 6 1
v -1 6 -1
v -1 6 1
v -1 5 1
v -1 5 -1
v -4 6 -1.5
v -4 5 -1.5
v -4 6 1.5
v -4 5 1.5
v -11 6 -1.5
v -11 6 1.5
v -11 5 1.5
v -11 5 -1.5
v -11 4 -1.5
v -11 4 1.5
v -12 5 -1.5
v -12 5 1.5
v -12 4 1.5
v -12 4 -1.5
v 3 0 -1
v 3 -1 -1
v 3 0 1
v 3 -1 1
v 2 0 -1
v 2 0 1
v 2 -1 1
v 2 -1 -1
v 4 -1 -1
v 4 -6 -1
v 4 -1 1
v 4 -6 1
v 3 -6 1
v 3 -6 -1
v 9 -2 -1
v 9 -3 -1
v 9 -2 1
v 9 -3 1
v 8 -2 -1
v 8 -2 1
v 8 -3 1
v 8 -3 -1
v 4 -7 -1
v 4 -8 -1
v 4 -7 1
v 4 -8 1
v 3 -7 -1
v 3 -7 1
v 3 -8 1
v 3 -8 -1
v 0 7 -1.5
v 0 7 1.5
v -2 6 -1
v -2 6 1
v -12 6 -1.5
v -12 6 1.5
v 10 4 -1
v 10 3 -1
v 10 4 1
v 10 3 1
v 9 4 -1
v 9 4 1
v 9 3 1
v 9 3 -1
v 8 4 -1
v 8 3 -1
v 8 4 1
v 8 3 1
v 7 4 -1
v 7 4 1
v 7 3 1
v 7 3 -1
v 9 2 -1
v 9 2 1
v 8 2 1
v 8 2 -1
v 2 -6 1
v 2 -6 -1
v 2 -7 -1
v 2 -7 1
v 2 -8 1
v 2 -8 -1
v -2 7 -1
v -2 7 1
v -3 7 -1
v -3 7 1
v -3 6 1
v -3 6 -1
v -4 7 -1
v -4 6 -1
v -4 7 1
v -4 6 1
v 10 6 -1.5
v 10 5 -1.5
v 10 6 1.5
v 10 5 1.5
v 4 5 -1.5
v 4 5 1.5
v -2 5 -1.5
v -2 4 -1.5
v -2 5 1.5
v -2 4 1.5
v -3 5 -1.5
v -3 5 1.5
v -3 4 1.5
v -3 4 -1.5
v -5 5 -1.5
v -5 4 -1.5
v -5 5 1.5
v -5 4 1.5
v 11 5 -1.5
v 11 5 1.5
v -5 4 -1
v -5 3 -1
v -5 4 1
v -5 3 1
v 0 1 -1
v 0 1 1
v 13 6 -1
v 13 5 -1
v 13 6 1
v 13 5 1
v 12 5 1
v 12 5 -1
v 1 2 -1
v 1 2 1
v 0 2 -1
v 0 2 1
v 12 6 -1.5
v 12 5 -1.5
v 12 6 1.5
v 12 5 1.5
v -3 6 -1.5
v -3 6 1.5
v -2 3 -1
v -2 3 1
v -1 2 -0.5
v -1 1 -0.5
v -1 2 0.5
v -1 1 0.5
v -2 2 -0.5
v -2 2 0.5
v -2 1 0.5
v -2 1 -0.5
v -2 6 -1.5
v -2 6 1.5
v -4 4 -1.5
v -4 4 1.5
v 4 0 -1
v 4 0 1
v 11 -2 -1
v 11 -3 -1
v 11 -2 1
v 11 -3 1
v -12 5 -1
v -12 5 1
v -13 6 -1
v -13 6 1
v -13 5 1
v -13 5 -1
v -12 5 -0.5
v -12 4 -0.5
v -12 5 0.5
v -12 4 0.5
v -13 5 -0.5
v -13 5 0.5
v -13 4 0.5
v -13 4 -0.5
v 12 4 -1
v 12 4 1
v 11 5 -1
v 11 5 1
v 11 4 1
v 11 4 -1
v 1 4 -1.5
v 1 4 1.5
v 0 4 1.5
v 0 4 -1.5
v 4 4 -1
v 4 3 -1
v 4 4 1
v 4 3 1
v 3 4 -1
v 3 4 1
v 3 3 1
v 3 3 -1
v 3 2 -1
v 3 2 1
v 2 3 -1
v 2 3 1
v 2 2 1
v 2 2 -1
v 9 1 -1
v 9 1 1
v 8 1 1
v 8 1 -1
v 10 1 -1
v 10 -2 -1
v 10 1 1
v 10 -2 1
v 4 1 -1.5
v 4 0 -1.5
v 4 1 1.5
v 4 0 1.5
v 2 1 -1.5
v 2 1 1.5
v 2 0 1.5
v 2 0 -1.5
v 9 -1 -1
v 9 -1 1
v 8 -1 -1
v 8 -1 1
v 11 4 -1.5
v 11 4 1.5
v 6 5 -1.5
v 6 5 1.5
v 6 4 1.5
v 6 4 -1.5
v 5 4 -1.5
v 5 4 1.5
v 4 4 1.5
v 4 4 -1.5
v 3 5 -1.5
v 3 4 -1.5
v 3 5 1.5
v 3 4 1.5
v 1 3 -1
v 1 3 1
v 0 3 1
v 0 3 -1
v 4 1 -1
v 4 1 1
v 3 1 1
v 3 1 -1
v 7 2 -1
v 7 2 1
v 7 1 1
v 7 1 -1
v 1 1 -1.5
v 1 1 1.5
v 1 0 1.5
v 1 0 -1.5
v 11 3 -1
v 11 3 1
v 10 2 -0.5
v 10 1 -0.5
v 10 2 0.5
v 10 1 0.5
v 9 2 -0.5
v 9 2 0.5
v 9 1 0.5
v 9 1 -0.5
v 5 1 -1.5
v 5 0 -1.5
v 5 1 1.5
v 5 0 1.5
v 7 2 -0.5
v 7 1 -0.5
v 7 2 0.5
v 7 1 0.5
v 5 2 -0.5
v 5 2 0.5
v 5 1 0.5
v 5 1 -0.5
v 0 2 -0.5
v 0 1 -0.5
v 0 2 0.5
v 0 1 0.5
v 12 4 -0.5
v 12 3 -0.5
v 12 4 0.5
v 12 3 0.5
v 11 4 -0.5
v 11 4 0.5
v 11 3 0.5
v 11 3 -0.5
v 10 3 -0.5
v 10 3 0.5
v 9 3 -0.5
v 9 3 0.5
v 5 3 -1
v 5 1 -1
v 5 3 1
v 5 1 1
v 11 1 -0.5
v 11 -1 -0.5
v 11 1 0.5
v 11 -1 0.5
v 10 -1 0.5
v 10 -1 -0.5
v -1 1 -1
v -1 1 1
v -1 0 1
v -1 0 -1
v -2 1 -1
v -2 1 1
v -2 0 1
v -2 0 -1
v 11 -2 -0.5
v 11 -2 0.5
v 10 -2 0.5
v 10 -2 -0.5

vn 1 0 0
vn 0 1 0
vn 0 -1 0
vn -1 0 0
vn 0 0 -1
vn 0 0 1

vt -19.68504 19.68504
vt 19.68504 19.68504
vt -19.68504 -19.68504
vt 0 NaN
vt 0 0
vt 0 NaN
vt 0 NaN
vt 0 NaN
vt 0 NaN
vt 0 NaN
vt 19.68504 -19.68504
vt 0 NaN
vt 0 NaN
vt 0 NaN
vt 0 NaN
vt 0 NaN
vt 0 NaN
vt 0 NaN
vt 0 NaN
vt 0 NaN
vt 0 NaN
vt 0 NaN
vt 0 NaN
vt 0 NaN
vt 0 NaN
vt 0 NaN
vt 0 NaN
vt 0 NaN
vt 0 NaN
vt 0 NaN
vt 0 NaN
vt 0 NaN
vt 0 NaN
vt 0 NaN
vt 0 NaN
vt 0 NaN
vt 0 NaN
vt 0 NaN
vt 0 NaN
vt 0 NaN
vt 0 NaN
vt 0 NaN
vt 0 NaN
vt 0 NaN
vt 0 NaN
vt 0 NaN
vt 0 NaN
vt 0 NaN
vt 0 NaN
vt 0 NaN
vt 0 NaN
vt 0 NaN
vt 0 NaN
vt 0 NaN
vt 0 NaN
vt 0 NaN
vt 0 NaN
vt 0 NaN
vt 0 NaN
vt 0 NaN
vt 0 NaN
vt 0 NaN
vt 0 NaN
vt 0 NaN
vt 0 NaN
vt 0 NaN
vt 0 NaN
vt 0 NaN
vt 0 NaN
vt 0 NaN
vt 0 NaN
vt 0 NaN
vt 0 NaN
vt 0 NaN
vt 0 NaN
vt 0 NaN
vt 0 NaN
vt 0 NaN
vt 0 NaN
vt 0 NaN
vt 0 NaN
vt 0 NaN
vt 0 NaN
vt 0 NaN
vt 0 NaN
vt 0 NaN
vt 0 NaN
vt 0 NaN
vt 0 NaN
vt 0 NaN
vt 0 NaN
vt 0 NaN
vt 0 NaN
vt 0 NaN
vt 0 NaN
vt 0 NaN
vt 0 NaN
vt 0 NaN
vt 0 NaN
vt 0 NaN
vt 0 NaN
vt 0 NaN
vt 0 NaN
vt 0 NaN
vt 0 NaN
vt 0 NaN
vt 0 NaN
vt 0 NaN
vt 0 NaN
vt 0 NaN
vt 0 NaN
vt 0 NaN
vt 0 NaN
vt 0 NaN
vt 0 NaN
vt 0 NaN
vt 0 NaN
vt 0 NaN
vt 0 NaN
vt 0 NaN
vt 0 NaN
vt 0 NaN
vt 0 NaN
vt 0 NaN
vt 0 NaN
vt 0 NaN
vt 0 NaN
vt 0 NaN
vt 0 NaN
vt 0 NaN
vt 0 NaN
vt 0 NaN
vt 0 NaN
vt 0 NaN
vt 0 NaN
vt 0 NaN
vt 0 NaN
vt 0 NaN
vt 0 NaN
vt 0 NaN
vt 0 NaN
vt 0 NaN
vt 0 NaN
vt 0 NaN
vt 0 NaN
vt 0 NaN
vt 0 NaN
vt 0 NaN
vt 0 NaN
vt 0 NaN
vt 0 NaN
vt 0 NaN
vt 0 NaN
vt 0 NaN
vt 0 NaN
vt 0 NaN
vt 0 NaN
vt 0 NaN
vt 0 NaN
vt 0 NaN
vt 0 NaN
vt 0 NaN
vt 0 NaN
vt 0 NaN
vt 0 NaN
vt 0 NaN
vt 0 NaN
vt 0 NaN
vt 0 NaN
vt 0 NaN
vt 0 NaN
vt 0 NaN
vt 0 NaN
vt 0 NaN
vt 0 NaN
vt 0 NaN
vt 0 NaN
vt 0 NaN
vt 0 NaN
vt 0 NaN
vt 0 NaN
vt 0 NaN
vt 0 NaN
vt 0 NaN
vt 0 NaN
vt 0 NaN
vt 0 NaN
vt 0 NaN
vt 0 NaN
vt 0 NaN
vt 0 NaN
vt 0 NaN
vt 0 NaN
vt 0 NaN
vt 0 NaN
vt 0 NaN
vt 0 NaN
vt 0 NaN
vt 0 NaN
vt 0 NaN
vt 0 NaN
vt 0 NaN
vt 0 NaN
vt 0 NaN
vt 0 NaN
vt 0 NaN
vt 0 NaN
vt 0 NaN
vt 0 NaN
vt 0 NaN
vt 0 NaN
vt 0 NaN
vt 0 NaN
vt 0 NaN
vt 0 NaN
vt 0 NaN
vt 0 NaN
vt 0 NaN
vt 0 NaN
vt 0 NaN
vt 0 NaN
vt 0 NaN
vt 0 NaN
vt 0 NaN
vt 0 NaN
vt 0 NaN
vt 0 NaN
vt 0 NaN
vt 0 NaN
vt 0 NaN
vt 0 NaN
vt 0 NaN
vt 0 NaN
vt 0 NaN
vt 0 NaN
vt 0 NaN
vt 0 NaN
vt 0 NaN
vt 0 NaN
vt 0 NaN
vt 0 NaN
vt 0 NaN
vt 0 NaN
vt 0 NaN
vt 0 NaN
vt 0 NaN
vt 0 NaN
vt 0 NaN
vt 0 NaN
vt 0 NaN
vt 0 NaN
vt 0 NaN
vt 0 NaN
vt 0 NaN
vt 0 NaN
vt 0 NaN
vt 0 NaN
vt 0 NaN
vt 0 NaN
vt 0 NaN
vt 0 NaN
vt 0 NaN
vt 0 NaN
vt 0 NaN
vt 0 NaN
vt 0 NaN
vt 0 NaN
vt 0 NaN
vt 0 NaN
vt 0 NaN
vt 0 NaN
vt 0 NaN
vt 0 NaN
vt 0 NaN
vt 0 NaN
vt 0 NaN
vt 0 NaN
vt 0 NaN
vt 0 NaN
vt 0 NaN
vt 0 NaN
vt 0 NaN
vt 0 NaN
vt 0 NaN
vt 0 NaN
vt 0 NaN
vt 0 NaN
vt 0 NaN
vt 0 NaN
vt 0 NaN
vt 0 NaN
vt 0 NaN
vt 0 NaN
vt 0 NaN
vt 0 NaN
vt 0 NaN
vt 0 NaN
vt 0 NaN
vt 0 NaN
vt 0 NaN
vt 0 NaN
vt 0 NaN
vt 0 NaN
vt 0 NaN
vt 0 NaN
vt 0 NaN
vt 0 NaN
vt 0 NaN
vt 0 NaN
vt 0 NaN
vt 0 NaN
vt 0 NaN
vt 0 NaN
vt 0 NaN
vt 0 NaN
vt 0 NaN
vt 0 NaN
vt 0 NaN
vt 0 NaN
vt 0 NaN
vt 0 NaN
vt 0 NaN
vt 0 NaN
vt 0 NaN
vt 0 NaN
vt 0 NaN
vt 0 NaN
vt 0 NaN
vt 0 NaN
vt 0 NaN
vt 0 NaN
vt 0 NaN
vt 0 NaN
vt 0 NaN
vt 0 NaN
vt 0 NaN
vt 0 NaN
vt 0 NaN
vt 0 NaN
vt 0 NaN
vt 0 NaN
vt 0 NaN
vt 0 NaN
vt 0 NaN
vt 0 NaN
vt 0 NaN
vt 0 NaN
vt 0 NaN
vt 0 NaN
vt 0 NaN
vt 0 NaN
vt 0 NaN
vt 0 NaN
vt 0 NaN
vt 0 NaN
vt 0 NaN
vt 0 NaN
vt 0 NaN
vt 0 NaN
vt 0 NaN
vt 0 NaN
vt 0 NaN
vt 0 NaN
vt 0 NaN
vt 0 NaN
vt 0 NaN
vt 0 NaN
vt 0 NaN
vt 0 NaN
vt 0 NaN
vt 0 NaN
vt 0 NaN
vt 0 NaN
vt 0 NaN
vt 0 NaN
vt 0 NaN
vt 0 NaN
vt 0 NaN
vt 0 NaN
vt 0 NaN
vt 0 NaN
vt 0 NaN
vt 0 NaN

usemtl color11

f 3/3/1 2/2/1 1/1/1
f 2/3/1 3/2/1 4/1/1
f 5/3/2 3/2/2 1/1/2
f 3/3/2 5/2/2 6/1/2
f 7/5/3 2/5/3 4/4/3
f 2/5/3 7/5/3 8/6/3
f 7/5/4 5/5/4 8/7/4
f 5/5/4 7/5/4 6/8/4
f 5/5/5 2/5/5 8/9/5
f 2/5/5 5/5/5 1/10/5
f 3/2/6 7/3/6 4/11/6
f 7/3/6 3/2/6 6/1/6
f 3/3/1 2/2/1 1/1/1
f 2/3/1 3/2/1 4/1/1
f 5/3/2 3/2/2 1/1/2
f 3/3/2 5/2/2 6/1/2
f 7/5/3 2/5/3 4/4/3
f 2/5/3 7/5/3 8/6/3
f 7/5/4 5/5/4 8/7/4
f 5/5/4 7/5/4 6/8/4
f 5/5/5 2/5/5 8/9/5
f 2/5/5 5/5/5 1/10/5
f 3/2/6 7/3/6 4/11/6
f 7/3/6 3/2/6 6/1/6
f 11/3/1 10/2/1 9/1/1
f 10/3/1 11/2/1 12/1/1
f 13/3/2 11/2/2 9/1/2
f 11/3/2 13/2/2 14/1/2
f 15/5/3 10/5/3 12/12/3
f 10/5/3 15/5/3 16/13/3
f 15/5/4 13/5/4 16/14/4
f 13/5/4 15/5/4 14/15/4
f 13/5/5 10/5/5 16/16/5
f 10/5/5 13/5/5 9/17/5
f 11/2/6 15/3/6 12/11/6
f 15/3/6 11/2/6 14/1/6
f 19/3/1 18/2/1 17/1/1
f 18/3/1 19/2/1 20/1/1
f 21/3/2 19/2/2 17/1/2
f 19/3/2 21/2/2 22/1/2
f 23/5/3 18/5/3 20/18/3
f 18/5/3 23/5/3 24/19/3
f 23/5/4 21/5/4 24/20/4
f 21/5/4 23/5/4 22/21/4
f 21/5/5 18/5/5 24/22/5
f 18/5/5 21/5/5 17/23/5
f 19/2/6 23/3/6 20/11/6
f 23/3/6 19/2/6 22/1/6
f 27/3/1 26/2/1 25/1/1
f 26/3/1 27/2/1 28/1/1
f 29/3/2 27/2/2 25/1/2
f 27/3/2 29/2/2 30/1/2
f 31/5/3 26/5/3 28/24/3
f 26/5/3 31/5/3 32/25/3
f 31/5/4 29/5/4 32/26/4
f 29/5/4 31/5/4 30/27/4
f 29/5/5 26/5/5 32/28/5
f 26/5/5 29/5/5 25/29/5
f 27/2/6 31/3/6 28/11/6
f 31/3/6 27/2/6 30/1/6

usemtl color17

f 35/3/1 34/2/1 33/1/1
f 34/3/1 35/2/1 36/1/1
f 37/3/2 35/2/2 33/1/2
f 35/3/2 37/2/2 38/1/2
f 39/5/3 34/5/3 36/30/3
f 34/5/3 39/5/3 40/31/3
f 39/5/4 37/5/4 40/32/4
f 37/5/4 39/5/4 38/33/4
f 37/5/5 34/5/5 40/34/5
f 34/5/5 37/5/5 33/35/5
f 35/2/6 39/3/6 36/11/6
f 39/3/6 35/2/6 38/1/6
f 43/3/1 42/2/1 41/1/1
f 42/3/1 43/2/1 44/1/1
f 45/3/2 43/2/2 41/1/2
f 43/3/2 45/2/2 46/1/2
f 47/5/3 42/5/3 44/36/3
f 42/5/3 47/5/3 48/37/3
f 47/5/4 45/5/4 48/38/4
f 45/5/4 47/5/4 46/39/4
f 45/5/5 42/5/5 48/40/5
f 42/5/5 45/5/5 41/41/5
f 43/2/6 47/3/6 44/11/6
f 47/3/6 43/2/6 46/1/6
f 51/3/1 50/2/1 49/1/1
f 50/3/1 51/2/1 52/1/1
f 53/3/2 51/2/2 49/1/2
f 51/3/2 53/2/2 54/1/2
f 55/5/3 50/5/3 52/42/3
f 50/5/3 55/5/3 56/43/3
f 55/5/4 53/5/4 56/44/4
f 53/5/4 55/5/4 54/45/4
f 53/5/5 50/5/5 56/46/5
f 50/5/5 53/5/5 49/47/5
f 51/2/6 55/3/6 52/11/6
f 55/3/6 51/2/6 54/1/6
f 59/3/1 58/2/1 57/1/1
f 58/3/1 59/2/1 60/1/1
f 61/3/2 59/2/2 57/1/2
f 59/3/2 61/2/2 62/1/2
f 63/5/3 58/5/3 60/48/3
f 58/5/3 63/5/3 64/49/3
f 63/5/4 61/5/4 64/50/4
f 61/5/4 63/5/4 62/51/4
f 61/5/5 58/5/5 64/52/5
f 58/5/5 61/5/5 57/53/5
f 59/2/6 63/3/6 60/11/6
f 63/3/6 59/2/6 62/1/6
f 67/3/1 66/2/1 65/1/1
f 66/3/1 67/2/1 68/1/1
f 69/3/2 67/2/2 65/1/2
f 67/3/2 69/2/2 70/1/2
f 71/5/3 66/5/3 68/54/3
f 66/5/3 71/5/3 72/55/3
f 71/5/4 69/5/4 72/56/4
f 69/5/4 71/5/4 70/57/4
f 69/5/5 66/5/5 72/58/5
f 66/5/5 69/5/5 65/59/5
f 67/2/6 71/3/6 68/11/6
f 71/3/6 67/2/6 70/1/6

usemtl color2

f 75/3/1 74/2/1 73/1/1
f 74/3/1 75/2/1 76/1/1
f 77/3/2 75/2/2 73/1/2
f 75/3/2 77/2/2 78/1/2
f 79/5/3 74/5/3 76/60/3
f 74/5/3 79/5/3 80/61/3
f 79/5/4 77/5/4 80/62/4
f 77/5/4 79/5/4 78/63/4
f 77/5/5 74/5/5 80/64/5
f 74/5/5 77/5/5 73/65/5
f 75/2/6 79/3/6 76/11/6
f 79/3/6 75/2/6 78/1/6
f 83/3/1 82/2/1 81/1/1
f 82/3/1 83/2/1 84/1/1
f 85/3/2 83/2/2 81/1/2
f 83/3/2 85/2/2 86/1/2
f 87/5/3 82/5/3 84/66/3
f 82/5/3 87/5/3 88/67/3
f 87/5/4 85/5/4 88/68/4
f 85/5/4 87/5/4 86/69/4
f 85/5/5 82/5/5 88/70/5
f 82/5/5 85/5/5 81/71/5
f 83/2/6 87/3/6 84/11/6
f 87/3/6 83/2/6 86/1/6
f 91/3/1 90/2/1 89/1/1
f 90/3/1 91/2/1 92/1/1
f 93/3/2 91/2/2 89/1/2
f 91/3/2 93/2/2 94/1/2
f 43/5/3 90/5/3 92/72/3
f 90/5/3 43/5/3 41/73/3
f 43/5/4 93/5/4 41/74/4
f 93/5/4 43/5/4 94/75/4
f 93/5/5 90/5/5 41/41/5
f 90/5/5 93/5/5 89/76/5
f 91/2/6 43/3/6 92/11/6
f 43/3/6 91/2/6 94/1/6
f 97/3/1 96/2/1 95/1/1
f 96/3/1 97/2/1 98/1/1
f 99/3/2 97/2/2 95/1/2
f 97/3/2 99/2/2 100/1/2
f 101/5/3 96/5/3 98/77/3
f 96/5/3 101/5/3 102/78/3
f 101/5/4 99/5/4 102/79/4
f 99/5/4 101/5/4 100/80/4
f 99/5/5 96/5/5 102/81/5
f 96/5/5 99/5/5 95/82/5
f 97/2/6 101/3/6 98/11/6
f 101/3/6 97/2/6 100/1/6
f 79/3/1 103/2/1 80/1/1
f 103/3/1 79/2/1 104/1/1
f 82/3/2 79/2/2 80/1/2
f 79/3/2 82/2/2 84/1/2
f 105/5/3 103/5/3 104/83/3
f 103/5/3 105/5/3 106/84/3
f 105/5/4 82/5/4 106/85/4
f 82/5/4 105/5/4 84/86/4
f 82/5/5 103/5/5 106/87/5
f 103/5/5 82/5/5 80/64/5
f 79/2/6 105/3/6 104/11/6
f 105/3/6 79/2/6 84/1/6
f 108/3/1 49/2/1 107/1/1
f 49/3/1 108/2/1 51/1/1
f 109/3/2 108/2/2 107/1/2
f 108/3/2 109/2/2 110/1/2
f 111/5/3 49/5/3 51/88/3
f 49/5/3 111/5/3 112/89/3
f 111/5/4 109/5/4 112/90/4
f 109/5/4 111/5/4 110/91/4
f 109/5/5 49/47/5 112/92/5
f 49/47/5 109/5/5 107/93/5
f 108/2/6 111/3/6 51/11/6
f 111/3/6 108/2/6 110/1/6
f 115/3/1 114/2/1 113/1/1
f 114/3/1 115/2/1 116/1/1
f 117/3/2 115/2/2 113/1/2
f 115/3/2 117/2/2 118/1/2
f 119/5/3 114/5/3 116/94/3
f 114/5/3 119/5/3 120/95/3
f 119/5/4 117/5/4 120/96/4
f 117/5/4 119/5/4 118/97/4
f 117/5/5 114/5/5 120/98/5
f 114/5/5 117/5/5 113/99/5
f 115/2/6 119/3/6 116/11/6
f 119/3/6 115/2/6 118/1/6
f 119/3/1 121/2/1 120/1/1
f 121/3/1 119/2/1 122/1/1
f 123/3/2 119/2/2 120/1/2
f 119/3/2 123/2/2 124/1/2
f 125/5/3 121/5/3 122/100/3
f 121/5/3 125/5/3 126/101/3
f 125/5/4 123/5/4 126/102/4
f 123/5/4 125/5/4 124/103/4
f 123/5/5 121/5/5 126/104/5
f 121/5/5 123/5/5 120/98/5
f 119/2/6 125/3/6 122/11/6
f 125/3/6 119/2/6 124/1/6
f 129/3/1 128/2/1 127/1/1
f 128/3/1 129/2/1 130/1/1
f 131/3/2 129/2/2 127/1/2
f 129/3/2 131/2/2 132/1/2
f 133/5/3 128/5/3 130/105/3
f 128/5/3 133/5/3 134/106/3
f 133/5/4 131/5/4 134/107/4
f 131/5/4 133/5/4 132/108/4
f 131/5/5 128/5/5 134/109/5
f 128/5/5 131/5/5 127/110/5
f 129/2/6 133/3/6 130/11/6
f 133/3/6 129/2/6 132/1/6
f 137/3/1 136/2/1 135/1/1
f 136/3/1 137/2/1 138/1/1
f 128/3/2 137/2/2 135/1/2
f 137/3/2 128/2/2 130/1/2
f 139/5/3 136/5/3 138/111/3
f 136/5/3 139/5/3 140/112/3
f 139/5/4 128/5/4 140/113/4
f 128/5/4 139/5/4 130/114/4
f 128/5/5 136/5/5 140/115/5
f 136/5/5 128/5/5 135/116/5
f 137/2/6 139/3/6 138/11/6
f 139/3/6 137/2/6 130/1/6
f 143/3/1 142/2/1 141/1/1
f 142/3/1 143/2/1 144/1/1
f 145/3/2 143/2/2 141/1/2
f 143/3/2 145/2/2 146/1/2
f 147/5/3 142/5/3 144/117/3
f 142/5/3 147/5/3 148/118/3
f 147/5/4 145/5/4 148/119/4
f 145/5/4 147/5/4 146/120/4
f 145/5/5 142/5/5 148/121/5
f 142/5/5 145/5/5 141/122/5
f 143/2/6 147/3/6 144/11/6
f 147/3/6 143/2/6 146/1/6
f 151/3/1 150/2/1 149/1/1
f 150/3/1 151/2/1 152/1/1
f 153/3/2 151/2/2 149/1/2
f 151/3/2 153/2/2 154/1/2
f 155/5/3 150/5/3 152/123/3
f 150/5/3 155/5/3 156/124/3
f 155/5/4 153/5/4 156/125/4
f 153/5/4 155/5/4 154/126/4
f 153/5/5 150/5/5 156/127/5
f 150/5/5 153/5/5 149/128/5
f 151/2/6 155/3/6 152/11/6
f 155/3/6 151/2/6 154/1/6

usemtl color3

f 94/3/1 41/2/1 93/1/1
f 41/3/1 94/2/1 43/1/1
f 157/3/2 94/2/2 93/1/2
f 94/3/2 157/2/2 158/1/2
f 46/5/3 41/73/3 43/5/3
f 41/73/3 46/5/3 45/129/3
f 46/39/4 157/5/4 45/5/4
f 157/5/4 46/39/4 158/130/4
f 157/5/5 41/41/5 45/5/5
f 41/41/5 157/5/5 93/5/5
f 94/2/6 46/3/6 43/11/6
f 46/3/6 94/2/6 158/1/6
f 110/3/1 112/2/1 109/1/1
f 112/3/1 110/2/1 111/1/1
f 159/3/2 110/2/2 109/1/2
f 110/3/2 159/2/2 160/1/2
f 54/5/3 112/89/3 111/5/3
f 112/89/3 54/5/3 53/131/3
f 54/45/4 159/5/4 53/5/4
f 159/5/4 54/45/4 160/132/4
f 159/5/5 112/92/5 53/5/5
f 112/92/5 159/5/5 109/5/5
f 110/2/6 54/3/6 111/11/6
f 54/3/6 110/2/6 160/1/6
f 118/3/1 120/2/1 117/1/1
f 120/3/1 118/2/1 119/1/1
f 161/3/2 118/2/2 117/1/2
f 118/3/2 161/2/2 162/1/2
f 124/5/3 120/95/3 119/5/3
f 120/95/3 124/5/3 123/133/3
f 124/103/4 161/5/4 123/5/4
f 161/5/4 124/103/4 162/134/4
f 161/5/5 120/98/5 123/5/5
f 120/98/5 161/5/5 117/5/5
f 118/2/6 124/3/6 119/11/6
f 124/3/6 118/2/6 162/1/6
f 165/3/1 164/2/1 163/1/1
f 164/3/1 165/2/1 166/1/1
f 167/3/2 165/2/2 163/1/2
f 165/3/2 167/2/2 168/1/2
f 169/5/3 164/5/3 166/135/3
f 164/5/3 169/5/3 170/136/3
f 169/5/4 167/5/4 170/137/4
f 167/5/4 169/5/4 168/138/4
f 167/5/5 164/5/5 170/139/5
f 164/5/5 167/5/5 163/140/5
f 165/2/6 169/3/6 166/11/6
f 169/3/6 165/2/6 168/1/6
f 173/3/1 172/2/1 171/1/1
f 172/3/1 173/2/1 174/1/1
f 175/3/2 173/2/2 171/1/2
f 173/3/2 175/2/2 176/1/2
f 177/5/3 172/5/3 174/141/3
f 172/5/3 177/5/3 178/142/3
f 177/5/4 175/5/4 178/143/4
f 175/5/4 177/5/4 176/144/4
f 175/5/5 172/5/5 178/145/5
f 172/5/5 175/5/5 171/146/5
f 173/2/6 177/3/6 174/11/6
f 177/3/6 173/2/6 176/1/6
f 169/3/1 179/2/1 170/1/1
f 179/3/1 169/2/1 180/1/1
f 172/3/2 169/2/2 170/1/2
f 169/3/2 172/2/2 174/1/2
f 181/5/3 179/5/3 180/147/3
f 179/5/3 181/5/3 182/148/3
f 181/5/4 172/5/4 182/149/4
f 172/5/4 181/5/4 174/150/4
f 172/5/5 179/5/5 182/151/5
f 179/5/5 172/5/5 170/139/5
f 169/2/6 181/3/6 180/11/6
f 181/3/6 169/2/6 174/1/6
f 130/3/1 140/2/1 128/1/1
f 140/3/1 130/2/1 139/1/1
f 134/3/2 130/2/2 128/1/2
f 130/3/2 134/2/2 133/1/2
f 183/5/3 140/112/3 139/5/3
f 140/112/3 183/5/3 184/152/3
f 183/5/4 134/107/4 184/153/4
f 134/107/4 183/5/4 133/5/4
f 134/109/5 140/115/5 184/154/5
f 140/115/5 134/109/5 128/5/5
f 130/2/6 183/3/6 139/11/6
f 183/3/6 130/2/6 133/1/6
f 138/3/1 149/2/1 136/1/1
f 149/3/1 138/2/1 151/1/1
f 140/3/2 138/2/2 136/1/2
f 138/3/2 140/2/2 139/1/2
f 154/5/3 149/5/3 151/155/3
f 149/5/3 154/5/3 153/156/3
f 154/126/4 140/113/4 153/5/4
f 140/113/4 154/126/4 139/5/4
f 140/115/5 149/128/5 153/5/5
f 149/128/5 140/115/5 136/5/5
f 138/2/6 154/3/6 151/11/6
f 154/3/6 138/2/6 139/1/6
f 154/3/1 156/2/1 153/1/1
f 156/3/1 154/2/1 155/1/1
f 185/3/2 154/2/2 153/1/2
f 154/3/2 185/2/2 186/1/2
f 187/5/3 156/124/3 155/5/3
f 156/124/3 187/5/3 188/157/3
f 187/5/4 185/5/4 188/158/4
f 185/5/4 187/5/4 186/159/4
f 185/5/5 156/127/5 188/160/5
f 156/127/5 185/5/5 153/5/5
f 154/2/6 187/3/6 155/11/6
f 187/3/6 154/2/6 186/1/6

usemtl color19

f 190/3/1 159/2/1 189/1/1
f 159/3/1 190/2/1 160/1/1
f 191/3/2 190/2/2 189/1/2
f 190/3/2 191/2/2 192/1/2
f 193/5/3 159/5/3 160/161/3
f 159/5/3 193/5/3 194/162/3
f 193/5/4 191/5/4 194/163/4
f 191/5/4 193/5/4 192/164/4
f 191/5/5 159/5/5 194/165/5
f 159/5/5 191/5/5 189/166/5
f 190/2/6 193/3/6 160/11/6
f 193/3/6 190/2/6 192/1/6
f 197/3/1 196/2/1 195/1/1
f 196/3/1 197/2/1 198/1/1
f 95/3/2 197/2/2 195/1/2
f 197/3/2 95/2/2 97/1/2
f 98/77/3 196/5/3 198/167/3
f 196/5/3 98/77/3 96/5/3
f 98/5/4 95/5/4 96/168/4
f 95/5/4 98/5/4 97/169/4
f 95/82/5 196/5/5 96/5/5
f 196/5/5 95/82/5 195/170/5
f 197/2/6 98/3/6 198/11/6
f 98/3/6 197/2/6 97/1/6
f 201/3/1 200/2/1 199/1/1
f 200/3/1 201/2/1 202/1/1
f 80/3/2 201/2/2 199/1/2
f 201/3/2 80/2/2 79/1/2
f 104/83/3 200/5/3 202/171/3
f 200/5/3 104/83/3 103/5/3
f 104/5/4 80/62/4 103/172/4
f 80/62/4 104/5/4 79/5/4
f 80/64/5 200/5/5 103/5/5
f 200/5/5 80/64/5 199/173/5
f 201/2/6 104/3/6 202/11/6
f 104/3/6 201/2/6 79/1/6
f 87/3/1 203/2/1 88/1/1
f 203/3/1 87/2/1 204/1/1
f 41/3/2 87/2/2 88/1/2
f 87/3/2 41/2/2 43/1/2
f 44/36/3 203/5/3 204/174/3
f 203/5/3 44/36/3 42/5/3
f 44/5/4 41/74/4 42/175/4
f 41/74/4 44/5/4 43/5/4
f 41/41/5 203/5/5 42/5/5
f 203/5/5 41/41/5 88/70/5
f 87/2/6 44/3/6 204/11/6
f 44/3/6 87/2/6 43/1/6
f 207/3/1 206/2/1 205/1/1
f 206/3/1 207/2/1 208/1/1
f 209/3/2 207/2/2 205/1/2
f 207/3/2 209/2/2 210/1/2
f 211/5/3 206/5/3 208/176/3
f 206/5/3 211/5/3 212/177/3
f 211/5/4 209/5/4 212/178/4
f 209/5/4 211/5/4 210/179/4
f 209/5/5 206/5/5 212/180/5
f 206/5/5 209/5/5 205/181/5
f 207/2/6 211/3/6 208/11/6
f 211/3/6 207/2/6 210/1/6
f 215/3/1 214/2/1 213/1/1
f 214/3/1 215/2/1 216/1/1
f 120/3/2 215/2/2 213/1/2
f 215/3/2 120/2/2 119/1/2
f 122/100/3 214/5/3 216/182/3
f 214/5/3 122/100/3 121/5/3
f 122/5/4 120/96/4 121/183/4
f 120/96/4 122/5/4 119/5/4
f 120/98/5 214/5/5 121/5/5
f 214/5/5 120/98/5 213/184/5
f 215/2/6 122/3/6 216/11/6
f 122/3/6 215/2/6 119/1/6

usemtl color13

f 192/3/1 194/2/1 191/1/1
f 194/3/1 192/2/1 193/1/1
f 195/3/2 192/2/2 191/1/2
f 192/3/2 195/2/2 197/1/2
f 198/167/3 194/162/3 193/5/3
f 194/162/3 198/167/3 196/5/3
f 198/5/4 195/5/4 196/185/4
f 195/5/4 198/5/4 197/186/4
f 195/170/5 194/165/5 196/5/5
f 194/165/5 195/170/5 191/5/5
f 192/2/6 198/3/6 193/11/6
f 198/3/6 192/2/6 197/1/6
f 76/3/1 217/2/1 74/1/1
f 217/3/1 76/2/1 218/1/1
f 199/3/2 76/2/2 74/1/2
f 76/3/2 199/2/2 201/1/2
f 202/171/3 217/5/3 218/187/3
f 217/5/3 202/171/3 200/5/3
f 202/5/4 199/5/4 200/188/4
f 199/5/4 202/5/4 201/189/4
f 199/173/5 217/5/5 200/5/5
f 217/5/5 199/173/5 74/5/5
f 76/2/6 202/3/6 218/11/6
f 202/3/6 76/2/6 201/1/6
f 221/3/1 220/2/1 219/1/1
f 220/3/1 221/2/1 222/1/1
f 65/3/2 221/2/2 219/1/2
f 221/3/2 65/2/2 67/1/2
f 68/54/3 220/5/3 222/190/3
f 220/5/3 68/54/3 66/5/3
f 68/5/4 65/5/4 66/191/4
f 65/5/4 68/5/4 67/192/4
f 65/59/5 220/5/5 66/5/5
f 220/5/5 65/59/5 219/193/5
f 221/2/6 68/3/6 222/11/6
f 68/3/6 221/2/6 67/1/6
f 63/3/1 25/2/1 64/1/1
f 25/3/1 63/2/1 27/1/1
f 223/3/2 63/2/2 64/1/2
f 63/3/2 223/2/2 224/1/2
f 30/5/3 25/5/3 27/194/3
f 25/5/3 30/5/3 29/195/3
f 30/27/4 223/5/4 29/5/4
f 223/5/4 30/27/4 224/196/4
f 223/5/5 25/29/5 29/5/5
f 25/29/5 223/5/5 64/52/5
f 63/2/6 30/3/6 27/11/6
f 30/3/6 63/2/6 224/1/6

usemtl color10

f 227/3/1 226/2/1 225/1/1
f 226/3/1 227/2/1 228/1/1
f 34/3/2 227/2/2 225/1/2
f 227/3/2 34/2/2 36/1/2
f 229/5/3 226/5/3 228/197/3
f 226/5/3 229/5/3 230/198/3
f 229/5/4 34/5/4 230/199/4
f 34/5/4 229/5/4 36/200/4
f 34/5/5 226/5/5 230/201/5
f 226/5/5 34/5/5 225/202/5
f 227/2/6 229/3/6 228/11/6
f 229/3/6 227/2/6 36/1/6
f 232/3/1 64/2/1 231/1/1
f 64/3/1 232/2/1 63/1/1
f 233/3/2 232/2/2 231/1/2
f 232/3/2 233/2/2 234/1/2
f 224/5/3 64/49/3 63/5/3
f 64/49/3 224/5/3 223/203/3
f 224/196/4 233/5/4 223/5/4
f 233/5/4 224/196/4 234/204/4
f 233/5/5 64/52/5 223/5/5
f 64/52/5 233/5/5 231/205/5
f 232/2/6 224/3/6 63/11/6
f 224/3/6 232/2/6 234/1/6
f 132/3/1 134/2/1 131/1/1
f 134/3/1 132/2/1 133/1/1
f 25/3/2 132/2/2 131/1/2
f 132/3/2 25/2/2 27/1/2
f 28/24/3 134/106/3 133/5/3
f 134/106/3 28/24/3 26/5/3
f 28/5/4 25/5/4 26/206/4
f 25/5/4 28/5/4 27/207/4
f 25/29/5 134/109/5 26/5/5
f 134/109/5 25/29/5 131/5/5
f 132/2/6 28/3/6 133/11/6
f 28/3/6 132/2/6 27/1/6

usemtl color18

f 237/3/1 236/2/1 235/1/1
f 236/3/1 237/2/1 238/1/1
f 74/3/2 237/2/2 235/1/2
f 237/3/2 74/2/2 76/1/2
f 218/187/3 236/5/3 238/208/3
f 236/5/3 218/187/3 217/5/3
f 218/5/4 74/5/4 217/209/4
f 74/5/4 218/5/4 76/210/4
f 74/5/5 236/5/5 217/5/5
f 236/5/5 74/5/5 235/211/5
f 237/2/6 218/3/6 238/11/6
f 218/3/6 237/2/6 76/1/6
f 240/3/1 209/2/1 239/1/1
f 209/3/1 240/2/1 210/1/1
f 113/3/2 240/2/2 239/1/2
f 240/3/2 113/2/2 115/1/2
f 116/94/3 209/5/3 210/212/3
f 209/5/3 116/94/3 114/5/3
f 116/5/4 113/5/4 114/213/4
f 113/5/4 116/5/4 115/214/4
f 113/99/5 209/5/5 114/5/5
f 209/5/5 113/99/5 239/215/5
f 240/2/6 116/3/6 210/11/6
f 116/3/6 240/2/6 115/1/6
f 55/3/1 241/2/1 56/1/1
f 241/3/1 55/2/1 242/1/1
f 219/3/2 55/2/2 56/1/2
f 55/3/2 219/2/2 221/1/2
f 222/190/3 241/5/3 242/216/3
f 241/5/3 222/190/3 220/5/3
f 222/5/4 219/5/4 220/217/4
f 219/5/4 222/5/4 221/218/4
f 219/193/5 241/5/5 220/5/5
f 241/5/5 219/193/5 56/46/5
f 55/2/6 222/3/6 242/11/6
f 222/3/6 55/2/6 221/1/6
f 245/3/1 244/2/1 243/1/1
f 244/3/1 245/2/1 246/1/1
f 247/3/2 245/2/2 243/1/2
f 245/3/2 247/2/2 248/1/2
f 249/5/3 244/5/3 246/219/3
f 244/5/3 249/5/3 250/220/3
f 249/5/4 247/5/4 250/221/4
f 247/5/4 249/5/4 248/222/4
f 247/5/5 244/5/5 250/223/5
f 244/5/5 247/5/5 243/224/5
f 245/2/6 249/3/6 246/11/6
f 249/3/6 245/2/6 248/1/6

usemtl color5

f 84/3/1 106/2/1 82/1/1
f 106/3/1 84/2/1 105/1/1
f 88/3/2 84/2/2 82/1/2
f 84/3/2 88/2/2 87/1/2
f 204/174/3 106/84/3 105/5/3
f 106/84/3 204/174/3 203/5/3
f 204/5/4 88/68/4 203/225/4
f 88/68/4 204/5/4 87/5/4
f 88/70/5 106/87/5 203/5/5
f 106/87/5 88/70/5 82/5/5
f 84/2/6 204/3/6 105/11/6
f 204/3/6 84/2/6 87/1/6
f 252/3/1 205/2/1 251/1/1
f 205/3/1 252/2/1 207/1/1
f 239/3/2 252/2/2 251/1/2
f 252/3/2 239/2/2 240/1/2
f 210/212/3 205/5/3 207/226/3
f 205/5/3 210/212/3 209/5/3
f 210/179/4 239/5/4 209/5/4
f 239/5/4 210/179/4 240/227/4
f 239/215/5 205/181/5 209/5/5
f 205/181/5 239/215/5 251/228/5
f 252/2/6 210/3/6 207/11/6
f 210/3/6 252/2/6 240/1/6
f 116/3/1 253/2/1 114/1/1
f 253/3/1 116/2/1 254/1/1
f 213/3/2 116/2/2 114/1/2
f 116/3/2 213/2/2 215/1/2
f 216/182/3 253/5/3 254/229/3
f 253/5/3 216/182/3 214/5/3
f 216/5/4 213/5/4 214/230/4
f 213/5/4 216/5/4 215/231/4
f 213/184/5 253/5/5 214/5/5
f 253/5/5 213/184/5 114/5/5
f 116/2/6 216/3/6 254/11/6
f 216/3/6 116/2/6 215/1/6
f 256/3/1 135/2/1 255/1/1
f 135/3/1 256/2/1 137/1/1
f 127/3/2 256/2/2 255/1/2
f 256/3/2 127/2/2 129/1/2
f 130/105/3 135/5/3 137/232/3
f 135/5/3 130/105/3 128/5/3
f 130/114/4 127/5/4 128/5/4
f 127/5/4 130/114/4 129/233/4
f 127/110/5 135/116/5 128/5/5
f 135/116/5 127/110/5 255/234/5
f 256/2/6 130/3/6 137/11/6
f 130/3/6 256/2/6 129/1/6
f 259/3/1 258/2/1 257/1/1
f 258/3/1 259/2/1 260/1/1
f 141/3/2 259/2/2 257/1/2
f 259/3/2 141/2/2 143/1/2
f 144/117/3 258/5/3 260/235/3
f 258/5/3 144/117/3 142/5/3
f 144/5/4 141/5/4 142/236/4
f 141/5/4 144/5/4 143/237/4
f 141/122/5 258/5/5 142/5/5
f 258/5/5 141/122/5 257/238/5
f 259/2/6 144/3/6 260/11/6
f 144/3/6 259/2/6 143/1/6

usemtl color0

f 101/3/1 261/2/1 102/1/1
f 261/3/1 101/2/1 262/1/1
f 263/3/2 101/2/2 102/1/2
f 101/3/2 263/2/2 264/1/2
f 265/5/3 261/5/3 262/239/3
f 261/5/3 265/5/3 266/240/3
f 265/5/4 263/5/4 266/241/4
f 263/5/4 265/5/4 264/242/4
f 263/5/5 261/5/5 266/243/5
f 261/5/5 263/5/5 102/81/5
f 101/2/6 265/3/6 262/11/6
f 265/3/6 101/2/6 264/1/6
f 269/3/1 268/2/1 267/1/1
f 268/3/1 269/2/1 270/1/1
f 271/3/2 269/2/2 267/1/2
f 269/3/2 271/2/2 272/1/2
f 273/5/3 268/5/3 270/244/3
f 268/5/3 273/5/3 274/245/3
f 273/5/4 271/5/4 274/246/4
f 271/5/4 273/5/4 272/247/4
f 271/5/5 268/5/5 274/248/5
f 268/5/5 271/5/5 267/249/5
f 269/2/6 273/3/6 270/11/6
f 273/3/6 269/2/6 272/1/6

usemtl color7

f 229/3/1 275/2/1 230/1/1
f 275/3/1 229/2/1 276/1/1
f 277/3/2 229/2/2 230/1/2
f 229/3/2 277/2/2 278/1/2
f 279/5/3 275/5/3 276/250/3
f 275/5/3 279/5/3 280/251/3
f 279/5/4 277/5/4 280/252/4
f 277/5/4 279/5/4 278/253/4
f 277/5/5 275/5/5 280/254/5
f 275/5/5 277/5/5 230/201/5
f 229/2/6 279/3/6 276/11/6
f 279/3/6 229/2/6 278/1/6
f 44/3/1 281/2/1 42/1/1
f 281/3/1 44/2/1 282/1/1
f 48/3/2 44/2/2 42/1/2
f 44/3/2 48/2/2 47/1/2
f 283/5/3 281/5/3 282/255/3
f 281/5/3 283/5/3 284/256/3
f 283/5/4 48/38/4 284/257/4
f 48/38/4 283/5/4 47/5/4
f 48/40/5 281/5/5 284/258/5
f 281/5/5 48/40/5 42/5/5
f 44/2/6 283/3/6 282/11/6
f 283/3/6 44/2/6 47/1/6
f 287/3/1 286/2/1 285/1/1
f 286/3/1 287/2/1 288/1/1
f 289/3/2 287/2/2 285/1/2
f 287/3/2 289/2/2 290/1/2
f 291/5/3 286/5/3 288/259/3
f 286/5/3 291/5/3 292/260/3
f 291/5/4 289/5/4 292/261/4
f 289/5/4 291/5/4 290/262/4
f 289/5/5 286/5/5 292/263/5
f 286/5/5 289/5/5 285/264/5
f 287/2/6 291/3/6 288/11/6
f 291/3/6 287/2/6 290/1/6
f 291/3/1 293/2/1 292/1/1
f 293/3/1 291/2/1 294/1/1
f 295/3/2 291/2/2 292/1/2
f 291/3/2 295/2/2 296/1/2
f 297/5/3 293/5/3 294/265/3
f 293/5/3 297/5/3 298/266/3
f 297/5/4 295/5/4 298/267/4
f 295/5/4 297/5/4 296/268/4
f 295/5/5 293/5/5 298/269/5
f 293/5/5 295/5/5 292/263/5
f 291/2/6 297/3/6 294/11/6
f 297/3/6 291/2/6 296/1/6
f 180/3/1 299/2/1 179/1/1
f 299/3/1 180/2/1 300/1/1
f 182/3/2 180/2/2 179/1/2
f 180/3/2 182/2/2 181/1/2
f 301/5/3 299/5/3 300/270/3
f 299/5/3 301/5/3 302/271/3
f 301/5/4 182/149/4 302/272/4
f 182/149/4 301/5/4 181/5/4
f 182/151/5 299/5/5 302/273/5
f 299/5/5 182/151/5 179/5/5
f 180/2/6 301/3/6 300/11/6
f 301/3/6 180/2/6 181/1/6
f 305/3/1 304/2/1 303/1/1
f 304/3/1 305/2/1 306/1/1
f 299/3/2 305/2/2 303/1/2
f 305/3/2 299/2/2 300/1/2
f 143/5/3 304/5/3 306/274/3
f 304/5/3 143/5/3 141/275/3
f 143/237/4 299/5/4 141/5/4
f 299/5/4 143/237/4 300/276/4
f 299/5/5 304/5/5 141/122/5
f 304/5/5 299/5/5 303/277/5
f 305/2/6 143/3/6 306/11/6
f 143/3/6 305/2/6 300/1/6
f 309/3/1 308/2/1 307/1/1
f 308/3/1 309/2/1 310/1/1
f 311/3/2 309/2/2 307/1/2
f 309/3/2 311/2/2 312/1/2
f 313/5/3 308/5/3 310/278/3
f 308/5/3 313/5/3 314/279/3
f 313/5/4 311/5/4 314/280/4
f 311/5/4 313/5/4 312/281/4
f 311/5/5 308/5/5 314/282/5
f 308/5/5 311/5/5 307/283/5
f 309/2/6 313/3/6 310/11/6
f 313/3/6 309/2/6 312/1/6
f 316/3/1 141/2/1 315/1/1
f 141/3/1 316/2/1 143/1/1
f 317/3/2 316/2/2 315/1/2
f 316/3/2 317/2/2 318/1/2
f 146/5/3 141/275/3 143/5/3
f 141/275/3 146/5/3 145/284/3
f 146/120/4 317/5/4 145/5/4
f 317/5/4 146/120/4 318/285/4
f 317/5/5 141/122/5 145/5/5
f 141/122/5 317/5/5 315/286/5
f 316/2/6 146/3/6 143/11/6
f 146/3/6 316/2/6 318/1/6

usemtl color9

f 218/3/1 319/2/1 217/1/1
f 319/3/1 218/2/1 320/1/1
f 321/3/2 218/2/2 217/1/2
f 218/3/2 321/2/2 322/1/2
f 323/5/3 319/5/3 320/287/3
f 319/5/3 323/5/3 324/288/3
f 323/5/4 321/5/4 324/289/4
f 321/5/4 323/5/4 322/290/4
f 321/5/5 319/5/5 324/291/5
f 319/5/5 321/5/5 217/5/5
f 218/2/6 323/3/6 320/11/6
f 323/3/6 218/2/6 322/1/6
f 105/3/1 325/2/1 106/1/1
f 325/3/1 105/2/1 326/1/1
f 203/3/2 105/2/2 106/1/2
f 105/3/2 203/2/2 204/1/2
f 327/5/3 325/5/3 326/292/3
f 325/5/3 327/5/3 328/293/3
f 327/5/4 203/225/4 328/294/4
f 203/225/4 327/5/4 204/5/4
f 203/5/5 325/5/5 328/295/5
f 325/5/5 203/5/5 106/87/5
f 105/2/6 327/3/6 326/11/6
f 327/3/6 105/2/6 204/1/6
f 331/3/1 330/2/1 329/1/1
f 330/3/1 331/2/1 332/1/1
f 42/3/2 331/2/2 329/1/2
f 331/3/2 42/2/2 44/1/2
f 282/255/3 330/5/3 332/296/3
f 330/5/3 282/255/3 281/5/3
f 282/5/4 42/175/4 281/297/4
f 42/175/4 282/5/4 44/5/4
f 42/5/5 330/5/5 281/5/5
f 330/5/5 42/5/5 329/298/5
f 331/2/6 282/3/6 332/11/6
f 282/3/6 331/2/6 44/1/6
f 168/3/1 170/2/1 167/1/1
f 170/3/1 168/2/1 169/1/1
f 171/3/2 168/2/2 167/1/2
f 168/3/2 171/2/2 173/1/2
f 174/141/3 170/136/3 169/5/3
f 170/136/3 174/141/3 172/5/3
f 174/150/4 171/5/4 172/5/4
f 171/5/4 174/150/4 173/299/4
f 171/146/5 170/139/5 172/5/5
f 170/139/5 171/146/5 167/5/5
f 168/2/6 174/3/6 169/11/6
f 174/3/6 168/2/6 173/1/6
f 290/3/1 292/2/1 289/1/1
f 292/3/1 290/2/1 291/1/1
f 57/3/2 290/2/2 289/1/2
f 290/3/2 57/2/2 59/1/2
f 296/5/3 292/260/3 291/5/3
f 292/260/3 296/5/3 295/300/3
f 296/268/4 57/5/4 295/5/4
f 57/5/4 296/268/4 59/301/4
f 57/53/5 292/263/5 295/5/5
f 292/263/5 57/53/5 289/5/5
f 290/2/6 296/3/6 291/11/6
f 296/3/6 290/2/6 59/1/6
f 62/3/1 333/2/1 61/1/1
f 333/3/1 62/2/1 334/1/1
f 50/3/2 62/2/2 61/1/2
f 62/3/2 50/2/2 52/1/2
f 335/5/3 333/5/3 334/302/3
f 333/5/3 335/5/3 336/303/3
f 335/5/4 50/5/4 336/304/4
f 50/5/4 335/5/4 52/305/4
f 50/5/5 333/5/5 336/306/5
f 333/5/5 50/5/5 61/5/5
f 62/2/6 335/3/6 334/11/6
f 335/3/6 62/2/6 52/1/6
f 288/3/1 337/2/1 286/1/1
f 337/3/1 288/2/1 338/1/1
f 292/3/2 288/2/2 286/1/2
f 288/3/2 292/2/2 291/1/2
f 339/5/3 337/5/3 338/307/3
f 337/5/3 339/5/3 340/308/3
f 339/5/4 292/261/4 340/309/4
f 292/261/4 339/5/4 291/5/4
f 292/263/5 337/5/5 340/310/5
f 337/5/5 292/263/5 286/5/5
f 288/2/6 339/3/6 338/11/6
f 339/3/6 288/2/6 291/1/6
f 181/3/1 302/2/1 182/1/1
f 302/3/1 181/2/1 301/1/1
f 341/3/2 181/2/2 182/1/2
f 181/3/2 341/2/2 342/1/2
f 343/5/3 302/271/3 301/5/3
f 302/271/3 343/5/3 344/311/3
f 343/5/4 341/5/4 344/312/4
f 341/5/4 343/5/4 342/313/4
f 341/5/5 302/273/5 344/314/5
f 302/273/5 341/5/5 182/151/5
f 181/2/6 343/3/6 301/11/6
f 343/3/6 181/2/6 342/1/6
f 294/3/1 340/2/1 293/1/1
f 340/3/1 294/2/1 339/1/1
f 298/3/2 294/2/2 293/1/2
f 294/3/2 298/2/2 297/1/2
f 60/48/3 340/308/3 339/5/3
f 340/308/3 60/48/3 58/5/3
f 60/5/4 298/267/4 58/315/4
f 298/267/4 60/5/4 297/5/4
f 298/269/5 340/310/5 58/5/5
f 340/310/5 298/269/5 293/5/5
f 294/2/6 60/3/6 339/11/6
f 60/3/6 294/2/6 297/1/6
f 300/3/1 315/2/1 299/1/1
f 315/3/1 300/2/1 316/1/1
f 302/3/2 300/2/2 299/1/2
f 300/3/2 302/2/2 301/1/2
f 318/5/3 315/5/3 316/316/3
f 315/5/3 318/5/3 317/317/3
f 318/285/4 302/272/4 317/5/4
f 302/272/4 318/285/4 301/5/4
f 302/273/5 315/286/5 317/5/5
f 315/286/5 302/273/5 299/5/5
f 300/2/6 318/3/6 316/11/6
f 318/3/6 300/2/6 301/1/6
f 312/3/1 314/2/1 311/1/1
f 314/3/1 312/2/1 313/1/1
f 345/3/2 312/2/2 311/1/2
f 312/3/2 345/2/2 346/1/2
f 347/5/3 314/279/3 313/5/3
f 314/279/3 347/5/3 348/318/3
f 347/5/4 345/5/4 348/319/4
f 345/5/4 347/5/4 346/320/4
f 345/5/5 314/282/5 348/321/5
f 314/282/5 345/5/5 311/5/5
f 312/2/6 347/3/6 313/11/6
f 347/3/6 312/2/6 346/1/6

usemtl color12

f 322/3/1 324/2/1 321/1/1
f 324/3/1 322/2/1 323/1/1
f 106/3/2 322/2/2 321/1/2
f 322/3/2 106/2/2 105/1/2
f 326/292/3 324/288/3 323/5/3
f 324/288/3 326/292/3 325/5/3
f 326/5/4 106/85/4 325/322/4
f 106/85/4 326/5/4 105/5/4
f 106/87/5 324/291/5 325/5/5
f 324/291/5 106/87/5 321/5/5
f 322/2/6 326/3/6 323/11/6
f 326/3/6 322/2/6 105/1/6
f 204/3/1 328/2/1 203/1/1
f 328/3/1 204/2/1 327/1/1
f 329/3/2 204/2/2 203/1/2
f 204/3/2 329/2/2 331/1/2
f 332/296/3 328/293/3 327/5/3
f 328/293/3 332/296/3 330/5/3
f 332/5/4 329/5/4 330/323/4
f 329/5/4 332/5/4 331/324/4
f 329/298/5 328/295/5 330/5/5
f 328/295/5 329/298/5 203/5/5
f 204/2/6 332/3/6 327/11/6
f 332/3/6 204/2/6 331/1/6
f 279/3/1 349/2/1 280/1/1
f 349/3/1 279/2/1 350/1/1
f 163/3/2 279/2/2 280/1/2
f 279/3/2 163/2/2 165/1/2
f 166/135/3 349/5/3 350/325/3
f 349/5/3 166/135/3 164/5/3
f 166/5/4 163/5/4 164/326/4
f 163/5/4 166/5/4 165/327/4
f 163/140/5 349/5/5 164/5/5
f 349/5/5 163/140/5 280/254/5
f 279/2/6 166/3/6 350/11/6
f 166/3/6 279/2/6 165/1/6
f 353/3/1 352/2/1 351/1/1
f 352/3/1 353/2/1 354/1/1
f 355/3/2 353/2/2 351/1/2
f 353/3/2 355/2/2 356/1/2
f 357/5/3 352/5/3 354/328/3
f 352/5/3 357/5/3 358/329/3
f 357/5/4 355/5/4 358/330/4
f 355/5/4 357/5/4 356/331/4
f 355/5/5 352/5/5 358/332/5
f 352/5/5 355/5/5 351/333/5
f 353/2/6 357/3/6 354/11/6
f 357/3/6 353/2/6 356/1/6
f 361/3/1 360/2/1 359/1/1
f 360/3/1 361/2/1 362/1/1
f 307/3/2 361/2/2 359/1/2
f 361/3/2 307/2/2 309/1/2
f 310/278/3 360/5/3 362/334/3
f 360/5/3 310/278/3 308/5/3
f 310/5/4 307/5/4 308/335/4
f 307/5/4 310/5/4 309/336/4
f 307/283/5 360/5/5 308/5/5
f 360/5/5 307/283/5 359/337/5
f 361/2/6 310/3/6 362/11/6
f 310/3/6 361/2/6 309/1/6

usemtl color16

f 210/3/1 212/2/1 209/1/1
f 212/3/1 210/2/1 211/1/1
f 114/3/2 210/2/2 209/1/2
f 210/3/2 114/2/2 116/1/2
f 254/229/3 212/177/3 211/5/3
f 212/177/3 254/229/3 253/5/3
f 254/5/4 114/213/4 253/338/4
f 114/213/4 254/5/4 116/5/4
f 114/5/5 212/180/5 253/5/5
f 212/180/5 114/5/5 209/5/5
f 210/2/6 254/3/6 211/11/6
f 254/3/6 210/2/6 116/1/6
f 365/3/1 364/2/1 363/1/1
f 364/3/1 365/2/1 366/1/1
f 367/3/2 365/2/2 363/1/2
f 365/3/2 367/2/2 368/1/2
f 369/5/3 364/5/3 366/339/3
f 364/5/3 369/5/3 370/340/3
f 369/5/4 367/5/4 370/341/4
f 367/5/4 369/5/4 368/342/4
f 367/5/5 364/5/5 370/343/5
f 364/5/5 367/5/5 363/344/5
f 365/2/6 369/3/6 366/11/6
f 369/3/6 365/2/6 368/1/6
f 373/3/1 372/2/1 371/1/1
f 372/3/1 373/2/1 374/1/1
f 243/3/2 373/2/2 371/1/2
f 373/3/2 243/2/2 245/1/2
f 246/219/3 372/5/3 374/345/3
f 372/5/3 246/219/3 244/5/3
f 246/5/4 243/5/4 244/346/4
f 243/5/4 246/5/4 245/347/4
f 243/224/5 372/5/5 244/5/5
f 372/5/5 243/224/5 371/348/5
f 373/2/6 246/3/6 374/11/6
f 246/3/6 373/2/6 245/1/6

usemtl color8

f 377/3/1 376/2/1 375/1/1
f 376/3/1 377/2/1 378/1/1
f 379/3/2 377/2/2 375/1/2
f 377/3/2 379/2/2 380/1/2
f 381/5/3 376/5/3 378/349/3
f 376/5/3 381/5/3 382/350/3
f 381/5/4 379/5/4 382/351/4
f 379/5/4 381/5/4 380/352/4
f 379/5/5 376/5/5 382/353/5
f 376/5/5 379/5/5 375/354/5
f 377/2/6 381/3/6 378/11/6
f 381/3/6 377/2/6 380/1/6
f 176/3/1 178/2/1 175/1/1
f 178/3/1 176/2/1 177/1/1
f 285/3/2 176/2/2 175/1/2
f 176/3/2 285/2/2 287/1/2
f 288/259/3 178/142/3 177/5/3
f 178/142/3 288/259/3 286/5/3
f 288/5/4 285/5/4 286/355/4
f 285/5/4 288/5/4 287/356/4
f 285/264/5 178/145/5 286/5/5
f 178/145/5 285/264/5 175/5/5
f 176/2/6 288/3/6 177/11/6
f 288/3/6 176/2/6 287/1/6
f 384/3/1 351/2/1 383/1/1
f 351/3/1 384/2/1 353/1/1
f 385/3/2 384/2/2 383/1/2
f 384/3/2 385/2/2 386/1/2
f 356/5/3 351/5/3 353/357/3
f 351/5/3 356/5/3 355/358/3
f 356/331/4 385/5/4 355/5/4
f 385/5/4 356/331/4 386/359/4
f 385/5/5 351/333/5 355/5/5
f 351/333/5 385/5/5 383/360/5
f 384/2/6 356/3/6 353/11/6
f 356/3/6 384/2/6 386/1/6
f 174/3/1 182/2/1 172/1/1
f 182/3/1 174/2/1 181/1/1
f 178/3/2 174/2/2 172/1/2
f 174/3/2 178/2/2 177/1/2
f 342/5/3 182/148/3 181/5/3
f 182/148/3 342/5/3 341/361/3
f 342/313/4 178/143/4 341/5/4
f 178/143/4 342/313/4 177/5/4
f 178/145/5 182/151/5 341/5/5
f 182/151/5 178/145/5 172/5/5
f 174/2/6 342/3/6 181/11/6
f 342/3/6 174/2/6 177/1/6
f 389/3/1 388/2/1 387/1/1
f 388/3/1 389/2/1 390/1/1
f 286/3/2 389/2/2 387/1/2
f 389/3/2 286/2/2 288/1/2
f 338/307/3 388/5/3 390/362/3
f 388/5/3 338/307/3 337/5/3
f 338/5/4 286/355/4 337/363/4
f 286/355/4 338/5/4 288/5/4
f 286/5/5 388/5/5 337/5/5
f 388/5/5 286/5/5 387/364/5
f 389/2/6 338/3/6 390/11/6
f 338/3/6 389/2/6 288/1/6
f 393/3/1 392/2/1 391/1/1
f 392/3/1 393/2/1 394/1/1
f 352/3/2 393/2/2 391/1/2
f 393/3/2 352/2/2 354/1/2
f 395/5/3 392/5/3 394/365/3
f 392/5/3 395/5/3 396/366/3
f 395/5/4 352/5/4 396/367/4
f 352/5/4 395/5/4 354/368/4
f 352/5/5 392/5/5 396/369/5
f 392/5/5 352/5/5 391/370/5
f 393/2/6 395/3/6 394/11/6
f 395/3/6 393/2/6 354/1/6

usemtl color14

f 224/3/1 29/2/1 223/1/1
f 29/3/1 224/2/1 30/1/1
f 397/3/2 224/2/2 223/1/2
f 224/3/2 397/2/2 398/1/2
f 399/5/3 29/195/3 30/5/3
f 29/195/3 399/5/3 400/371/3
f 399/5/4 397/5/4 400/372/4
f 397/5/4 399/5/4 398/373/4
f 397/5/5 29/5/5 400/374/5
f 29/5/5 397/5/5 223/5/5
f 224/2/6 399/3/6 30/11/6
f 399/3/6 224/2/6 398/1/6

usemtl color15

f 398/3/1 400/2/1 397/1/1
f 400/3/1 398/2/1 399/1/1
f 401/3/2 398/2/2 397/1/2
f 398/3/2 401/2/2 402/1/2
f 403/5/3 400/371/3 399/5/3
f 400/371/3 403/5/3 404/375/3
f 403/5/4 401/5/4 404/376/4
f 401/5/4 403/5/4 402/377/4
f 401/5/5 400/374/5 404/378/5
f 400/374/5 401/5/5 397/5/5
f 398/2/6 403/3/6 399/11/6
f 403/3/6 398/2/6 402/1/6

usemtl color6

f 394/3/1 405/2/1 392/1/1
f 405/3/1 394/2/1 406/1/1
f 396/3/2 394/2/2 392/1/2
f 394/3/2 396/2/2 395/1/2
f 407/5/3 405/5/3 406/379/3
f 405/5/3 407/5/3 408/380/3
f 407/5/4 396/367/4 408/381/4
f 396/367/4 407/5/4 395/5/4
f 396/369/5 405/5/5 408/382/5
f 405/5/5 396/369/5 392/5/5
f 394/2/6 407/3/6 406/11/6
f 407/3/6 394/2/6 395/1/6

usemtl color4

f 139/3/1 153/2/1 140/1/1
f 153/3/1 139/2/1 154/1/1
f 184/3/2 139/2/2 140/1/2
f 139/3/2 184/2/2 183/1/2
f 186/5/3 153/156/3 154/5/3
f 153/156/3 186/5/3 185/383/3
f 186/159/4 184/153/4 185/5/4
f 184/153/4 186/159/4 183/5/4
f 184/154/5 153/5/5 185/5/5
f 153/5/5 184/154/5 140/115/5
f 139/2/6 186/3/6 154/11/6
f 186/3/6 139/2/6 183/1/6

