# Created by Kenney (www.kenney.nl)

mtllib Tool 3KY Oleald.mtl

v 2 3 -1.65
v 2 2 -1.65
v 2 3 1.65
v 2 2 1.65
v 1 3 -1.65
v 1 3 1.65
v 1 2 1.65
v 1 2 -1.65
v 0 3 -2.2
v 0 2 -2.2
v 0 3 2.2
v 0 2 2.2
v -1 3 -2.2
v -1 3 2.2
v -1 2 2.2
v -1 2 -2.2
v 3 1 -3.85
v 3 0 -3.85
v 3 1 3.85
v 3 0 3.85
v 2 1 -3.85
v 2 1 3.85
v 2 0 3.85
v 2 0 -3.85
v 4 0 -3.3
v 4 -1 -3.3
v 4 0 3.3
v 4 -1 3.3
v 3 0 -3.3
v 3 0 3.3
v 3 -1 3.3
v 3 -1 -3.3
v 1 -1 -3.85
v 1 -2 -3.85
v 1 -1 3.85
v 1 -2 3.85
v 0 -1 -3.85
v 0 -1 3.85
v 0 -2 3.85
v 0 -2 -3.85
v -1 -1 -3.85
v -1 -2 -3.85
v -1 -1 3.85
v -1 -2 3.85
v -2 -1 -3.85
v -2 -1 3.85
v -2 -2 3.85
v -2 -2 -3.85
v 0 -3 -3.85
v 0 -3 3.85
v -1 -3 3.85
v -1 -3 -3.85
v -2 -3 -3.85
v -2 -3 3.85
v -4 -2 -3.85
v -4 -2 3.85
v -4 -3 3.85
v -4 -3 -3.85
v 1 3 -2.2
v 1 2 -2.2
v 1 3 2.2
v 1 2 2.2
v 3 -1 -3.85
v 3 -1 3.85
v 2 -1 3.85
v 2 -1 -3.85
v 6 -1 -2.75
v 6 -2 -2.75
v 6 -1 2.75
v 6 -2 2.75
v 3 -1 -2.75
v 3 -1 2.75
v 3 -2 2.75
v 3 -2 -2.75
v 2 -2 -3.85
v 2 -3 -3.85
v 2 -2 3.85
v 2 -3 3.85
v 1 -3 3.85
v 1 -3 -3.85
v 3 2 -3.3
v 3 1 -3.3
v 3 2 3.3
v 3 1 3.3
v 2 2 -3.3
v 2 2 3.3
v 2 1 3.3
v 2 1 -3.3
v 2 2 -3.85
v 2 2 3.85
v 0 2 -3.85
v 0 2 3.85
v 0 1 3.85
v 0 1 -3.85
v 6 0 -3.3
v 6 -1 -3.3
v 6 0 3.3
v 6 -1 3.3
v 2 -1 -4.4
v 2 -2 -4.4
v 2 -1 4.4
v 2 -2 4.4
v 1 -1 -4.4
v 1 -1 4.4
v 1 -2 4.4
v 1 -2 -4.4
v 0 -1 -4.4
v 0 -2 -4.4
v 0 -1 4.4
v 0 -2 4.4
v -1 -1 -4.4
v -1 -1 4.4
v -1 -2 4.4
v -1 -2 -4.4
v -2 -1 -4.4
v -2 -2 -4.4
v -2 -1 4.4
v -2 -2 4.4
v -4 -1 -4.4
v -4 -1 4.4
v -4 -2 4.4
v -4 -2 -4.4
v -4 -2 -3.3
v -4 -3 -3.3
v -4 -2 3.3
v -4 -3 3.3
v -5 -2 -3.3
v -5 -2 3.3
v -5 -3 3.3
v -5 -3 -3.3
v -1 2 -3.85
v -1 2 3.85
v -1 1 3.85
v -1 1 -3.85
v -5 2 -3.85
v -5 1 -3.85
v -5 2 3.85
v -5 1 3.85
v -6 2 -3.85
v -6 2 3.85
v -6 1 3.85
v -6 1 -3.85
v 4 1 -3.3
v 4 1 3.3
v 2 0 -4.4
v 2 0 4.4
v -5 0 -4.4
v -5 0 4.4
v -5 -1 4.4
v -5 -1 -4.4
v 6 1 -3.3
v 6 1 3.3
v 2 1 -4.4
v 2 1 4.4
v -1 1 -4.4
v -1 1 4.4
v -1 0 4.4
v -1 0 -4.4
v -4 1 -4.4
v -4 0 -4.4
v -4 1 4.4
v -4 0 4.4
v -5 1 -4.4
v -5 1 4.4
v -5 1 -3.3
v -5 0 -3.3
v -5 1 3.3
v -5 0 3.3
v -6 1 -3.3
v -6 1 3.3
v -6 0 3.3
v -6 0 -3.3
v 7 0 -2.75
v 7 -1 -2.75
v 7 0 2.75
v 7 -1 2.75
v 6 0 -2.75
v 6 0 2.75
v -5 -1 -3.3
v -5 -1 3.3
v -6 -1 3.3
v -6 -1 -3.3
v 7 -1 -2.2
v 7 -2 -2.2
v 7 -1 2.2
v 7 -2 2.2
v 6 -1 -2.2
v 6 -1 2.2
v 6 -2 2.2
v 6 -2 -2.2
v -4 -1 -3.3
v -4 -1 3.3
v 3 -2 -3.85
v 3 -2 3.85

vn 1 0 0
vn 0 1 0
vn 0 -1 0
vn -1 0 0
vn 0 0 -1
vn 0 0 1

vt -19.68504 19.68504
vt 19.68504 19.68504
vt -19.68504 -19.68504
vt 0 NaN
vt 0 0
vt 0 NaN
vt 0 NaN
vt 0 NaN
vt 0 NaN
vt 0 NaN
vt 19.68504 -19.68504
vt 0 NaN
vt 0 NaN
vt 0 NaN
vt 0 NaN
vt 0 NaN
vt 0 NaN
vt 0 NaN
vt 0 NaN
vt 0 NaN
vt 0 NaN
vt 0 NaN
vt 0 NaN
vt 0 NaN
vt 0 NaN
vt 0 NaN
vt 0 NaN
vt 0 NaN
vt 0 NaN
vt 0 NaN
vt 0 NaN
vt 0 NaN
vt 0 NaN
vt 0 NaN
vt 0 NaN
vt 0 NaN
vt 0 NaN
vt 0 NaN
vt 0 NaN
vt 0 NaN
vt 0 NaN
vt 0 NaN
vt 0 NaN
vt 0 NaN
vt 0 NaN
vt 0 NaN
vt 0 NaN
vt 0 NaN
vt 0 NaN
vt 0 NaN
vt 0 NaN
vt 0 NaN
vt 0 NaN
vt 0 NaN
vt 0 NaN
vt 0 NaN
vt 0 NaN
vt 0 NaN
vt 0 NaN
vt 0 NaN
vt 0 NaN
vt 0 NaN
vt 0 NaN
vt 0 NaN
vt 0 NaN
vt 0 NaN
vt 0 NaN
vt 0 NaN
vt 0 NaN
vt 0 NaN
vt 0 NaN
vt 0 NaN
vt 0 NaN
vt 0 NaN
vt 0 NaN
vt 0 NaN
vt 0 NaN
vt 0 NaN
vt 0 NaN
vt 0 NaN
vt 0 NaN
vt 0 NaN
vt 0 NaN
vt 0 NaN
vt 0 NaN
vt 0 NaN
vt 0 NaN
vt 0 NaN
vt 0 NaN
vt 0 NaN
vt 0 NaN
vt 0 NaN
vt 0 NaN
vt 0 NaN
vt 0 NaN
vt 0 NaN
vt 0 NaN
vt 0 NaN
vt 0 NaN
vt 0 NaN
vt 0 NaN
vt 0 NaN
vt 0 NaN
vt 0 NaN
vt 0 NaN
vt 0 NaN
vt 0 NaN
vt 0 NaN
vt 0 NaN
vt 0 NaN
vt 0 NaN
vt 0 NaN
vt 0 NaN
vt 0 NaN
vt 0 NaN
vt 0 NaN
vt 0 NaN
vt 0 NaN
vt 0 NaN
vt 0 NaN
vt 0 NaN
vt 0 NaN
vt 0 NaN
vt 0 NaN
vt 0 NaN
vt 0 NaN
vt 0 NaN
vt 0 NaN
vt 0 NaN
vt 0 NaN
vt 0 NaN
vt 0 NaN
vt 0 NaN
vt 0 NaN
vt 0 NaN
vt 0 NaN
vt 0 NaN
vt 0 NaN
vt 0 NaN
vt 0 NaN
vt 0 NaN
vt 0 NaN
vt 0 NaN
vt 0 NaN
vt 0 NaN
vt 0 NaN
vt 0 NaN
vt 0 NaN
vt 0 NaN
vt 0 NaN
vt 0 NaN
vt 0 NaN
vt 0 NaN
vt 0 NaN
vt 0 NaN
vt 0 NaN
vt 0 NaN
vt 0 NaN
vt 0 NaN
vt 0 NaN
vt 0 NaN
vt 0 NaN
vt 0 NaN
vt 0 NaN
vt 0 NaN
vt 0 NaN
vt 0 NaN
vt 0 NaN
vt 0 NaN
vt 0 NaN
vt 0 NaN
vt 0 NaN
vt 0 NaN
vt 0 NaN
vt 0 NaN
vt 0 NaN
vt 0 NaN
vt 0 NaN

usemtl color4

f 3/3/1 2/2/1 1/1/1
f 2/3/1 3/2/1 4/1/1
f 5/3/2 3/2/2 1/1/2
f 3/3/2 5/2/2 6/1/2
f 7/5/3 2/5/3 4/4/3
f 2/5/3 7/5/3 8/6/3
f 7/5/4 5/5/4 8/7/4
f 5/5/4 7/5/4 6/8/4
f 5/5/5 2/5/5 8/9/5
f 2/5/5 5/5/5 1/10/5
f 3/2/6 7/3/6 4/11/6
f 7/3/6 3/2/6 6/1/6
f 11/3/1 10/2/1 9/1/1
f 10/3/1 11/2/1 12/1/1
f 13/3/2 11/2/2 9/1/2
f 11/3/2 13/2/2 14/1/2
f 15/5/3 10/5/3 12/12/3
f 10/5/3 15/5/3 16/13/3
f 15/5/4 13/5/4 16/14/4
f 13/5/4 15/5/4 14/15/4
f 13/5/5 10/5/5 16/16/5
f 10/5/5 13/5/5 9/17/5
f 11/2/6 15/3/6 12/11/6
f 15/3/6 11/2/6 14/1/6
f 3/3/1 2/2/1 1/1/1
f 2/3/1 3/2/1 4/1/1
f 5/3/2 3/2/2 1/1/2
f 3/3/2 5/2/2 6/1/2
f 7/5/3 2/5/3 4/4/3
f 2/5/3 7/5/3 8/6/3
f 7/5/4 5/5/4 8/7/4
f 5/5/4 7/5/4 6/8/4
f 5/5/5 2/5/5 8/9/5
f 2/5/5 5/5/5 1/10/5
f 3/2/6 7/3/6 4/11/6
f 7/3/6 3/2/6 6/1/6
f 19/3/1 18/2/1 17/1/1
f 18/3/1 19/2/1 20/1/1
f 21/3/2 19/2/2 17/1/2
f 19/3/2 21/2/2 22/1/2
f 23/5/3 18/5/3 20/18/3
f 18/5/3 23/5/3 24/19/3
f 23/5/4 21/5/4 24/20/4
f 21/5/4 23/5/4 22/21/4
f 21/5/5 18/5/5 24/22/5
f 18/5/5 21/5/5 17/23/5
f 19/2/6 23/3/6 20/11/6
f 23/3/6 19/2/6 22/1/6
f 27/3/1 26/2/1 25/1/1
f 26/3/1 27/2/1 28/1/1
f 29/3/2 27/2/2 25/1/2
f 27/3/2 29/2/2 30/1/2
f 31/5/3 26/5/3 28/24/3
f 26/5/3 31/5/3 32/25/3
f 31/5/4 29/5/4 32/26/4
f 29/5/4 31/5/4 30/27/4
f 29/5/5 26/5/5 32/28/5
f 26/5/5 29/5/5 25/29/5
f 27/2/6 31/3/6 28/11/6
f 31/3/6 27/2/6 30/1/6
f 35/3/1 34/2/1 33/1/1
f 34/3/1 35/2/1 36/1/1
f 37/3/2 35/2/2 33/1/2
f 35/3/2 37/2/2 38/1/2
f 39/5/3 34/5/3 36/30/3
f 34/5/3 39/5/3 40/31/3
f 39/5/4 37/5/4 40/32/4
f 37/5/4 39/5/4 38/33/4
f 37/5/5 34/5/5 40/34/5
f 34/5/5 37/5/5 33/35/5
f 35/2/6 39/3/6 36/11/6
f 39/3/6 35/2/6 38/1/6
f 43/3/1 42/2/1 41/1/1
f 42/3/1 43/2/1 44/1/1
f 45/3/2 43/2/2 41/1/2
f 43/3/2 45/2/2 46/1/2
f 47/5/3 42/5/3 44/36/3
f 42/5/3 47/5/3 48/37/3
f 47/5/4 45/5/4 48/38/4
f 45/5/4 47/5/4 46/39/4
f 45/5/5 42/5/5 48/40/5
f 42/5/5 45/5/5 41/41/5
f 43/2/6 47/3/6 44/11/6
f 47/3/6 43/2/6 46/1/6
f 39/3/1 49/2/1 40/1/1
f 49/3/1 39/2/1 50/1/1
f 42/3/2 39/2/2 40/1/2
f 39/3/2 42/2/2 44/1/2
f 51/5/3 49/5/3 50/42/3
f 49/5/3 51/5/3 52/43/3
f 51/5/4 42/5/4 52/44/4
f 42/5/4 51/5/4 44/45/4
f 42/5/5 49/5/5 52/46/5
f 49/5/5 42/5/5 40/34/5
f 39/2/6 51/3/6 50/11/6
f 51/3/6 39/2/6 44/1/6
f 47/3/1 53/2/1 48/1/1
f 53/3/1 47/2/1 54/1/1
f 55/3/2 47/2/2 48/1/2
f 47/3/2 55/2/2 56/1/2
f 57/5/3 53/5/3 54/47/3
f 53/5/3 57/5/3 58/48/3
f 57/5/4 55/5/4 58/49/4
f 55/5/4 57/5/4 56/50/4
f 55/5/5 53/5/5 58/51/5
f 53/5/5 55/5/5 48/40/5
f 47/2/6 57/3/6 54/11/6
f 57/3/6 47/2/6 56/1/6

usemtl color2

f 61/3/1 60/2/1 59/1/1
f 60/3/1 61/2/1 62/1/1
f 9/3/2 61/2/2 59/1/2
f 61/3/2 9/2/2 11/1/2
f 12/12/3 60/5/3 62/52/3
f 60/5/3 12/12/3 10/5/3
f 12/5/4 9/5/4 10/53/4
f 9/5/4 12/5/4 11/54/4
f 9/17/5 60/5/5 10/5/5
f 60/5/5 9/17/5 59/55/5
f 61/2/6 12/3/6 62/11/6
f 12/3/6 61/2/6 11/1/6
f 20/3/1 63/2/1 18/1/1
f 63/3/1 20/2/1 64/1/1
f 24/3/2 20/2/2 18/1/2
f 20/3/2 24/2/2 23/1/2
f 65/5/3 63/5/3 64/56/3
f 63/5/3 65/5/3 66/57/3
f 65/5/4 24/20/4 66/58/4
f 24/20/4 65/5/4 23/5/4
f 24/22/5 63/5/5 66/59/5
f 63/5/5 24/22/5 18/5/5
f 20/2/6 65/3/6 64/11/6
f 65/3/6 20/2/6 23/1/6
f 69/3/1 68/2/1 67/1/1
f 68/3/1 69/2/1 70/1/1
f 71/3/2 69/2/2 67/1/2
f 69/3/2 71/2/2 72/1/2
f 73/5/3 68/5/3 70/60/3
f 68/5/3 73/5/3 74/61/3
f 73/5/4 71/5/4 74/62/4
f 71/5/4 73/5/4 72/63/4
f 71/5/5 68/5/5 74/64/5
f 68/5/5 71/5/5 67/65/5
f 69/2/6 73/3/6 70/11/6
f 73/3/6 69/2/6 72/1/6
f 77/3/1 76/2/1 75/1/1
f 76/3/1 77/2/1 78/1/1
f 34/3/2 77/2/2 75/1/2
f 77/3/2 34/2/2 36/1/2
f 79/5/3 76/5/3 78/66/3
f 76/5/3 79/5/3 80/67/3
f 79/5/4 34/5/4 80/68/4
f 34/5/4 79/5/4 36/69/4
f 34/5/5 76/5/5 80/70/5
f 76/5/5 34/5/5 75/71/5
f 77/2/6 79/3/6 78/11/6
f 79/3/6 77/2/6 36/1/6

usemtl color11

f 83/3/1 82/2/1 81/1/1
f 82/3/1 83/2/1 84/1/1
f 85/3/2 83/2/2 81/1/2
f 83/3/2 85/2/2 86/1/2
f 87/5/3 82/5/3 84/72/3
f 82/5/3 87/5/3 88/73/3
f 87/5/4 85/5/4 88/74/4
f 85/5/4 87/5/4 86/75/4
f 85/5/5 82/5/5 88/76/5
f 82/5/5 85/5/5 81/77/5
f 83/2/6 87/3/6 84/11/6
f 87/3/6 83/2/6 86/1/6

usemtl color5

f 90/3/1 21/2/1 89/1/1
f 21/3/1 90/2/1 22/1/1
f 91/3/2 90/2/2 89/1/2
f 90/3/2 91/2/2 92/1/2
f 93/5/3 21/5/3 22/78/3
f 21/5/3 93/5/3 94/79/3
f 93/5/4 91/5/4 94/80/4
f 91/5/4 93/5/4 92/81/4
f 91/5/5 21/5/5 94/82/5
f 21/5/5 91/5/5 89/83/5
f 90/2/6 93/3/6 22/11/6
f 93/3/6 90/2/6 92/1/6
f 97/3/1 96/2/1 95/1/1
f 96/3/1 97/2/1 98/1/1
f 25/3/2 97/2/2 95/1/2
f 97/3/2 25/2/2 27/1/2
f 28/24/3 96/5/3 98/84/3
f 96/5/3 28/24/3 26/5/3
f 28/5/4 25/5/4 26/85/4
f 25/5/4 28/5/4 27/86/4
f 25/29/5 96/5/5 26/5/5
f 96/5/5 25/29/5 95/87/5
f 97/2/6 28/3/6 98/11/6
f 28/3/6 97/2/6 27/1/6
f 101/3/1 100/2/1 99/1/1
f 100/3/1 101/2/1 102/1/1
f 103/3/2 101/2/2 99/1/2
f 101/3/2 103/2/2 104/1/2
f 105/5/3 100/5/3 102/88/3
f 100/5/3 105/5/3 106/89/3
f 105/5/4 103/5/4 106/90/4
f 103/5/4 105/5/4 104/91/4
f 103/5/5 100/5/5 106/92/5
f 100/5/5 103/5/5 99/93/5
f 101/2/6 105/3/6 102/11/6
f 105/3/6 101/2/6 104/1/6
f 109/3/1 108/2/1 107/1/1
f 108/3/1 109/2/1 110/1/1
f 111/3/2 109/2/2 107/1/2
f 109/3/2 111/2/2 112/1/2
f 113/5/3 108/5/3 110/94/3
f 108/5/3 113/5/3 114/95/3
f 113/5/4 111/5/4 114/96/4
f 111/5/4 113/5/4 112/97/4
f 111/5/5 108/5/5 114/98/5
f 108/5/5 111/5/5 107/99/5
f 109/2/6 113/3/6 110/11/6
f 113/3/6 109/2/6 112/1/6
f 117/3/1 116/2/1 115/1/1
f 116/3/1 117/2/1 118/1/1
f 119/3/2 117/2/2 115/1/2
f 117/3/2 119/2/2 120/1/2
f 121/5/3 116/5/3 118/100/3
f 116/5/3 121/5/3 122/101/3
f 121/5/4 119/5/4 122/102/4
f 119/5/4 121/5/4 120/103/4
f 119/5/5 116/5/5 122/104/5
f 116/5/5 119/5/5 115/105/5
f 117/2/6 121/3/6 118/11/6
f 121/3/6 117/2/6 120/1/6
f 125/3/1 124/2/1 123/1/1
f 124/3/1 125/2/1 126/1/1
f 127/3/2 125/2/2 123/1/2
f 125/3/2 127/2/2 128/1/2
f 129/5/3 124/5/3 126/106/3
f 124/5/3 129/5/3 130/107/3
f 129/5/4 127/5/4 130/108/4
f 127/5/4 129/5/4 128/109/4
f 127/5/5 124/5/5 130/110/5
f 124/5/5 127/5/5 123/111/5
f 125/2/6 129/3/6 126/11/6
f 129/3/6 125/2/6 128/1/6

usemtl color7

f 92/3/1 94/2/1 91/1/1
f 94/3/1 92/2/1 93/1/1
f 131/3/2 92/2/2 91/1/2
f 92/3/2 131/2/2 132/1/2
f 133/5/3 94/79/3 93/5/3
f 94/79/3 133/5/3 134/112/3
f 133/5/4 131/5/4 134/113/4
f 131/5/4 133/5/4 132/114/4
f 131/5/5 94/82/5 134/115/5
f 94/82/5 131/5/5 91/5/5
f 92/2/6 133/3/6 93/11/6
f 133/3/6 92/2/6 132/1/6
f 137/3/1 136/2/1 135/1/1
f 136/3/1 137/2/1 138/1/1
f 139/3/2 137/2/2 135/1/2
f 137/3/2 139/2/2 140/1/2
f 141/5/3 136/5/3 138/116/3
f 136/5/3 141/5/3 142/117/3
f 141/5/4 139/5/4 142/118/4
f 139/5/4 141/5/4 140/119/4
f 139/5/5 136/5/5 142/120/5
f 136/5/5 139/5/5 135/121/5
f 137/2/6 141/3/6 138/11/6
f 141/3/6 137/2/6 140/1/6
f 144/3/1 25/2/1 143/1/1
f 25/3/1 144/2/1 27/1/1
f 82/3/2 144/2/2 143/1/2
f 144/3/2 82/2/2 84/1/2
f 30/5/3 25/5/3 27/122/3
f 25/5/3 30/5/3 29/123/3
f 30/27/4 82/5/4 29/5/4
f 82/5/4 30/27/4 84/124/4
f 82/5/5 25/29/5 29/5/5
f 25/29/5 82/5/5 143/125/5
f 144/2/6 30/3/6 27/11/6
f 30/3/6 144/2/6 84/1/6
f 146/3/1 99/2/1 145/1/1
f 99/3/1 146/2/1 101/1/1
f 147/3/2 146/2/2 145/1/2
f 146/3/2 147/2/2 148/1/2
f 149/5/3 99/5/3 101/126/3
f 99/5/3 149/5/3 150/127/3
f 149/5/4 147/5/4 150/128/4
f 147/5/4 149/5/4 148/129/4
f 147/5/5 99/93/5 150/130/5
f 99/93/5 147/5/5 145/131/5
f 146/2/6 149/3/6 101/11/6
f 149/3/6 146/2/6 148/1/6

usemtl color12

f 132/3/1 134/2/1 131/1/1
f 134/3/1 132/2/1 133/1/1
f 135/3/2 132/2/2 131/1/2
f 132/3/2 135/2/2 137/1/2
f 138/116/3 134/112/3 133/5/3
f 134/112/3 138/116/3 136/5/3
f 138/5/4 135/5/4 136/132/4
f 135/5/4 138/5/4 137/133/4
f 135/121/5 134/115/5 136/5/5
f 134/115/5 135/121/5 131/5/5
f 132/2/6 138/3/6 133/11/6
f 138/3/6 132/2/6 137/1/6

usemtl color8

f 152/3/1 95/2/1 151/1/1
f 95/3/1 152/2/1 97/1/1
f 143/3/2 152/2/2 151/1/2
f 152/3/2 143/2/2 144/1/2
f 27/122/3 95/5/3 97/134/3
f 95/5/3 27/122/3 25/5/3
f 27/86/4 143/5/4 25/5/4
f 143/5/4 27/86/4 144/135/4
f 143/125/5 95/87/5 25/29/5
f 95/87/5 143/125/5 151/136/5
f 152/2/6 27/3/6 97/11/6
f 27/3/6 152/2/6 144/1/6
f 154/3/1 145/2/1 153/1/1
f 145/3/1 154/2/1 146/1/1
f 155/3/2 154/2/2 153/1/2
f 154/3/2 155/2/2 156/1/2
f 157/5/3 145/5/3 146/137/3
f 145/5/3 157/5/3 158/138/3
f 157/5/4 155/5/4 158/139/4
f 155/5/4 157/5/4 156/140/4
f 155/5/5 145/131/5 158/141/5
f 145/131/5 155/5/5 153/142/5
f 154/2/6 157/3/6 146/11/6
f 157/3/6 154/2/6 156/1/6
f 161/3/1 160/2/1 159/1/1
f 160/3/1 161/2/1 162/1/1
f 163/3/2 161/2/2 159/1/2
f 161/3/2 163/2/2 164/1/2
f 148/5/3 160/5/3 162/143/3
f 160/5/3 148/5/3 147/144/3
f 148/129/4 163/5/4 147/5/4
f 163/5/4 148/129/4 164/145/4
f 163/5/5 160/5/5 147/5/5
f 160/5/5 163/5/5 159/146/5
f 161/2/6 148/3/6 162/11/6
f 148/3/6 161/2/6 164/1/6

usemtl color9

f 156/3/1 158/2/1 155/1/1
f 158/3/1 156/2/1 157/1/1
f 159/3/2 156/2/2 155/1/2
f 156/3/2 159/2/2 161/1/2
f 162/143/3 158/138/3 157/5/3
f 158/138/3 162/143/3 160/5/3
f 162/5/4 159/5/4 160/147/4
f 159/5/4 162/5/4 161/148/4
f 159/146/5 158/141/5 160/5/5
f 158/141/5 159/146/5 155/5/5
f 156/2/6 162/3/6 157/11/6
f 162/3/6 156/2/6 161/1/6

usemtl color10

f 167/3/1 166/2/1 165/1/1
f 166/3/1 167/2/1 168/1/1
f 169/3/2 167/2/2 165/1/2
f 167/3/2 169/2/2 170/1/2
f 171/5/3 166/5/3 168/149/3
f 166/5/3 171/5/3 172/150/3
f 171/5/4 169/5/4 172/151/4
f 169/5/4 171/5/4 170/152/4
f 169/5/5 166/5/5 172/153/5
f 166/5/5 169/5/5 165/154/5
f 167/2/6 171/3/6 168/11/6
f 171/3/6 167/2/6 170/1/6
f 175/3/1 174/2/1 173/1/1
f 174/3/1 175/2/1 176/1/1
f 177/3/2 175/2/2 173/1/2
f 175/3/2 177/2/2 178/1/2
f 69/5/3 174/5/3 176/155/3
f 174/5/3 69/5/3 67/156/3
f 69/5/4 177/5/4 67/157/4
f 177/5/4 69/5/4 178/158/4
f 177/5/5 174/5/5 67/65/5
f 174/5/5 177/5/5 173/159/5
f 175/2/6 69/3/6 176/11/6
f 69/3/6 175/2/6 178/1/6

usemtl color6

f 168/3/1 179/2/1 166/1/1
f 179/3/1 168/2/1 180/1/1
f 172/3/2 168/2/2 166/1/2
f 168/3/2 172/2/2 171/1/2
f 181/5/3 179/5/3 180/160/3
f 179/5/3 181/5/3 182/161/3
f 181/5/4 172/151/4 182/162/4
f 172/151/4 181/5/4 171/5/4
f 172/153/5 179/5/5 182/163/5
f 179/5/5 172/153/5 166/5/5
f 168/2/6 181/3/6 180/11/6
f 181/3/6 168/2/6 171/1/6
f 185/3/1 184/2/1 183/1/1
f 184/3/1 185/2/1 186/1/1
f 187/3/2 185/2/2 183/1/2
f 185/3/2 187/2/2 188/1/2
f 189/5/3 184/5/3 186/164/3
f 184/5/3 189/5/3 190/165/3
f 189/5/4 187/5/4 190/166/4
f 187/5/4 189/5/4 188/167/4
f 187/5/5 184/5/5 190/168/5
f 184/5/5 187/5/5 183/169/5
f 185/2/6 189/3/6 186/11/6
f 189/3/6 185/2/6 188/1/6
f 192/3/1 123/2/1 191/1/1
f 123/3/1 192/2/1 125/1/1
f 179/3/2 192/2/2 191/1/2
f 192/3/2 179/2/2 180/1/2
f 128/5/3 123/5/3 125/170/3
f 123/5/3 128/5/3 127/171/3
f 128/109/4 179/5/4 127/5/4
f 179/5/4 128/109/4 180/172/4
f 179/5/5 123/111/5 127/5/5
f 123/111/5 179/5/5 191/173/5
f 192/2/6 128/3/6 125/11/6
f 128/3/6 192/2/6 180/1/6

usemtl color3

f 64/3/1 193/2/1 63/1/1
f 193/3/1 64/2/1 194/1/1
f 66/3/2 64/2/2 63/1/2
f 64/3/2 66/2/2 65/1/2
f 77/5/3 193/5/3 194/174/3
f 193/5/3 77/5/3 75/175/3
f 77/5/4 66/58/4 75/176/4
f 66/58/4 77/5/4 65/5/4
f 66/59/5 193/5/5 75/71/5
f 193/5/5 66/59/5 63/5/5
f 64/2/6 77/3/6 194/11/6
f 77/3/6 64/2/6 65/1/6
f 36/3/1 80/2/1 34/1/1
f 80/3/1 36/2/1 79/1/1
f 40/3/2 36/2/2 34/1/2
f 36/3/2 40/2/2 39/1/2
f 50/42/3 80/67/3 79/5/3
f 80/67/3 50/42/3 49/5/3
f 50/5/4 40/32/4 49/177/4
f 40/32/4 50/5/4 39/5/4
f 40/34/5 80/70/5 49/5/5
f 80/70/5 40/34/5 34/5/5
f 36/2/6 50/3/6 79/11/6
f 50/3/6 36/2/6 39/1/6
f 44/3/1 52/2/1 42/1/1
f 52/3/1 44/2/1 51/1/1
f 48/3/2 44/2/2 42/1/2
f 44/3/2 48/2/2 47/1/2
f 54/47/3 52/43/3 51/5/3
f 52/43/3 54/47/3 53/5/3
f 54/5/4 48/38/4 53/178/4
f 48/38/4 54/5/4 47/5/4
f 48/40/5 52/46/5 53/5/5
f 52/46/5 48/40/5 42/5/5
f 44/2/6 54/3/6 51/11/6
f 54/3/6 44/2/6 47/1/6

